<svg width="340" height="137" viewBox="0 0 340 137" fill="none" xmlns="http://www.w3.org/2000/svg">
<g clip-path="url(#clip0_22791_99393)">
<rect width="340" height="137" rx="8" fill="url(#paint0_linear_22791_99393)"/>
<ellipse opacity="0.55" cx="235" cy="98.5" rx="11" ry="11.5" fill="url(#paint1_linear_22791_99393)"/>
<path opacity="0.4" d="M411 29.0883C417.8 31.0883 415.5 36.5883 413.5 39.0883H226.5C225.667 39.0883 224 38.6883 224 37.0883C224 35.0883 226.5 29.0883 231 27.5883C235.5 26.0883 258 27.5883 260.5 27.5883C263 27.5883 268.5 25.0883 271.5 21.5883C274.5 18.0883 288.019 5.04886 290.5 3.0883C295.66 -0.989393 305.756 -0.52554 308.5 1.5883C311.669 4.02918 324.5 11.0883 328.5 13.5883C332.5 16.0883 338.5 13.5883 338.5 13.5883C338.5 13.5883 348 9.5883 354 8.5883C360 7.5883 363.5 11.0883 369 16.0883C374.5 21.0883 390.5 27.5883 390.5 27.5883C390.5 27.5883 407.5 29.0883 411 29.0883Z" fill="url(#paint2_linear_22791_99393)"/>
<path opacity="0.4" d="M141.245 12.4415C148.277 13.3277 146.887 19.1249 145.313 21.9127L-39.278 51.8331C-40.1006 51.9665 -41.8098 51.8383 -42.0658 50.2589C-42.3858 48.2847 -40.878 41.962 -36.676 39.7613C-32.474 37.5606 -10.0238 35.4412 -7.55605 35.0412C-5.08825 34.6412 -0.0591203 31.2934 2.34222 27.3585C4.74356 23.4236 16.0019 8.38908 18.1374 6.05678C22.5789 1.20594 32.6183 0.0485581 35.6655 1.69606C39.1841 3.59847 52.9794 8.51363 57.3278 10.3414C61.6763 12.1692 67.199 8.74139 67.199 8.74139C67.199 8.74139 75.9366 3.27291 81.6993 1.32577C87.462 -0.621357 91.4769 2.27354 97.7061 6.32911C103.935 10.3847 120.769 14.2409 120.769 14.2409C120.769 14.2409 137.79 13.0015 141.245 12.4415Z" fill="url(#paint3_linear_22791_99393)"/>
<path d="M102.402 103.312L-21 137.835H188.784L102.402 103.312Z" fill="url(#paint4_linear_22791_99393)"/>
<path d="M102.402 103.312L-21 137.835L93.5151 116.092L102.402 103.312Z" fill="url(#paint5_linear_22791_99393)"/>
<path d="M229.654 98L40.5879 142.814H362L229.654 98Z" fill="url(#paint6_linear_22791_99393)"/>
<path opacity="0.66" d="M229.654 98L40.5879 142.814L226.314 113.436L229.654 98Z" fill="url(#paint7_linear_22791_99393)"/>
<path d="M65.596 104.388L67.0307 110.966L64.721 111.47L64.5164 110.532C64.3858 110.871 64.169 111.172 63.866 111.435C63.5613 111.69 63.1862 111.866 62.7407 111.963C61.9747 112.13 61.3144 112.012 60.7597 111.609C60.2112 111.196 59.8423 110.556 59.6531 109.689L58.8194 105.867L61.1056 105.368L61.8754 108.897C61.9572 109.272 62.1197 109.548 62.3629 109.724C62.6121 109.891 62.9009 109.938 63.2292 109.867C63.5653 109.793 63.808 109.63 63.9574 109.376C64.105 109.115 64.138 108.796 64.0561 108.421L63.2863 104.892L65.596 104.388ZM69.4013 104.516C69.5146 104.172 69.7158 103.875 70.0048 103.623C70.2939 103.372 70.6612 103.198 71.1067 103.1C71.6304 102.986 72.1331 103.02 72.6149 103.201C73.1044 103.381 73.5258 103.699 73.8789 104.154C74.2398 104.607 74.4945 105.174 74.6428 105.854C74.7911 106.534 74.7965 107.159 74.6589 107.73C74.5274 108.291 74.2766 108.755 73.9063 109.122C73.5439 109.488 73.1009 109.728 72.5772 109.842C72.1317 109.939 71.7252 109.934 71.3577 109.825C70.998 109.716 70.6911 109.529 70.437 109.265L71.3219 113.321L69.0239 113.823L66.9039 104.103L69.2018 103.602L69.4013 104.516ZM72.3096 106.363C72.2159 105.933 72.0262 105.626 71.7405 105.443C71.461 105.25 71.1532 105.19 70.8171 105.264C70.481 105.337 70.2221 105.52 70.0405 105.814C69.8667 106.106 69.8258 106.463 69.9179 106.885C70.0117 107.315 70.1983 107.626 70.4778 107.819C70.7652 108.01 71.0769 108.069 71.413 107.996C71.7491 107.922 72.004 107.74 72.1779 107.448C72.3578 107.147 72.4017 106.785 72.3096 106.363ZM82.0052 105.648L82.4323 107.606L81.4357 107.824C79.7552 108.19 78.7334 107.541 78.3703 105.876L77.8971 103.707L77.0882 103.884L76.6713 101.973L77.4803 101.796L77.1325 100.202L79.4422 99.6978L79.79 101.292L80.9859 101.031L81.4027 102.943L80.2068 103.203L80.6876 105.408C80.7268 105.587 80.7941 105.708 80.8893 105.769C80.9923 105.828 81.1415 105.837 81.3369 105.794L82.0052 105.648ZM86.5642 106.791C85.9077 106.934 85.2877 106.926 84.7043 106.767C84.1288 106.606 83.6371 106.304 83.2293 105.86C82.8214 105.417 82.5425 104.851 82.3925 104.164C82.2442 103.484 82.2631 102.857 82.4493 102.284C82.6433 101.71 82.9684 101.23 83.4246 100.843C83.8886 100.456 84.4489 100.19 85.1055 100.047C85.762 99.9037 86.3781 99.9126 86.9536 100.074C87.537 100.233 88.0326 100.534 88.4404 100.978C88.8561 101.419 89.1381 101.98 89.2864 102.66C89.4347 103.34 89.4127 103.971 89.2204 104.553C89.0342 105.126 88.7091 105.607 88.2451 105.994C87.7811 106.382 87.2208 106.648 86.5642 106.791ZM86.1295 104.798C86.4499 104.728 86.6901 104.553 86.85 104.272C87.016 103.982 87.0504 103.614 86.9532 103.169C86.8561 102.723 86.6725 102.407 86.4025 102.22C86.1403 102.032 85.8529 101.972 85.5402 102.04C85.2276 102.108 84.9913 102.283 84.8314 102.563C84.6715 102.844 84.6402 103.207 84.7373 103.652C84.8362 104.106 85.0129 104.427 85.2672 104.617C85.5216 104.808 85.809 104.868 86.1295 104.798ZM95.7207 98.3087C95.608 98.0549 95.4755 97.8791 95.3231 97.7813C95.1708 97.6835 94.9735 97.6611 94.7312 97.7139C94.3638 97.7941 94.1434 98.0223 94.0699 98.3986C94.0042 98.7732 94.0476 99.3287 94.2001 100.065C94.3035 99.7887 94.4884 99.5478 94.7548 99.3423C95.0211 99.1368 95.334 98.9949 95.6936 98.9165C96.4517 98.7511 97.1086 98.8534 97.6643 99.2235C98.2277 99.5919 98.6049 100.214 98.7959 101.089C98.9221 101.668 98.9117 102.202 98.7649 102.693C98.6242 103.174 98.3527 103.581 97.9505 103.914C97.5561 104.246 97.0541 104.478 96.4445 104.611C95.2329 104.876 94.307 104.684 93.6665 104.038C93.0322 103.382 92.5641 102.363 92.2623 100.979C91.9282 99.4471 91.9328 98.267 92.2762 97.4388C92.6195 96.6106 93.3462 96.0755 94.4561 95.8334C95.355 95.6373 96.0904 95.743 96.6624 96.1505C97.2404 96.5484 97.6378 97.1127 97.8545 97.8433L95.7207 98.3087ZM95.5195 100.821C95.246 100.881 95.0363 101.009 94.8907 101.204C94.7528 101.398 94.7154 101.639 94.7785 101.929C94.845 102.234 94.9782 102.45 95.1781 102.578C95.3781 102.707 95.6305 102.738 95.9353 102.671C96.2167 102.61 96.4185 102.484 96.5407 102.293C96.6691 102.094 96.7008 101.845 96.6361 101.548C96.573 101.259 96.4415 101.05 96.2415 100.922C96.0494 100.792 95.8087 100.758 95.5195 100.821ZM105.237 95.7785L101.72 96.5457L102.004 97.8471C102.118 97.6584 102.294 97.489 102.532 97.3389C102.769 97.1889 103.044 97.0797 103.357 97.0115C103.92 96.8888 104.417 96.9155 104.848 97.0916C105.287 97.266 105.643 97.5446 105.915 97.9275C106.187 98.3103 106.377 98.7519 106.486 99.2521C106.687 100.174 106.584 100.958 106.176 101.604C105.767 102.242 105.097 102.662 104.167 102.865C103.518 103.007 102.932 103.02 102.407 102.905C101.889 102.781 101.461 102.547 101.124 102.203C100.787 101.859 100.558 101.429 100.438 100.915L102.677 100.427C102.74 100.602 102.852 100.741 103.014 100.845C103.176 100.949 103.386 100.972 103.644 100.916C103.917 100.856 104.104 100.717 104.204 100.499C104.303 100.281 104.319 100.015 104.251 99.7028C104.184 99.398 104.06 99.1836 103.877 99.0597C103.693 98.9279 103.46 98.8928 103.179 98.9541C102.968 99.0002 102.808 99.0924 102.699 99.2308C102.596 99.3597 102.55 99.5048 102.56 99.6663L100.321 100.155L99.1906 94.9726L104.795 93.7502L105.237 95.7785ZM106.568 95.6723C106.424 95.008 106.5 94.459 106.799 94.0254C107.097 93.5918 107.551 93.3086 108.161 93.1756C108.763 93.0443 109.29 93.1136 109.742 93.3835C110.194 93.6534 110.492 94.1205 110.637 94.7849C110.78 95.4415 110.703 95.9905 110.407 96.4318C110.108 96.8654 109.658 97.1478 109.056 97.2791C108.454 97.4104 107.923 97.3419 107.464 97.0737C107.01 96.796 106.712 96.3289 106.568 95.6723ZM114.473 91.9338L111.838 101.192L109.634 101.673L112.269 92.4146L114.473 91.9338ZM108.443 94.5264C108.123 94.5963 108.014 94.8658 108.116 95.3348C108.218 95.8037 108.43 96.0033 108.75 95.9334C108.907 95.8993 109.015 95.8142 109.075 95.6782C109.144 95.5405 109.152 95.3544 109.101 95.1199C109.05 94.8855 108.965 94.7198 108.845 94.623C108.734 94.5245 108.6 94.4923 108.443 94.5264ZM113.468 98.8101C113.324 98.1535 113.402 97.6085 113.701 97.1749C114.005 96.7318 114.458 96.4446 115.06 96.3134C115.662 96.1821 116.186 96.2562 116.632 96.5356C117.084 96.8055 117.381 97.2687 117.524 97.9253C117.669 98.5896 117.593 99.1425 117.297 99.5839C117.006 100.016 116.56 100.297 115.958 100.429C115.356 100.56 114.825 100.491 114.365 100.223C113.912 99.9455 113.613 99.4745 113.468 98.8101ZM115.343 97.6642C115.014 97.7358 114.901 98.0061 115.004 98.4751C115.108 98.9519 115.324 99.1545 115.652 99.0829C115.801 99.0505 115.905 98.9663 115.965 98.8303C116.032 98.6848 116.04 98.4948 115.988 98.2603C115.939 98.0336 115.855 97.8719 115.735 97.7751C115.622 97.6688 115.491 97.6318 115.343 97.6642ZM124.233 98.5744C123.577 98.7176 122.957 98.7096 122.373 98.5502C121.798 98.3892 121.306 98.087 120.898 97.6437C120.49 97.2005 120.211 96.6349 120.061 95.9471C119.913 95.2671 119.932 94.6407 120.118 94.0678C120.312 93.4933 120.637 93.013 121.094 92.6269C121.558 92.2391 122.118 91.9736 122.774 91.8304C123.431 91.6871 124.047 91.6961 124.623 91.8571C125.206 92.0164 125.702 92.3177 126.109 92.761C126.525 93.2026 126.807 93.7634 126.955 94.4434C127.104 95.1234 127.082 95.7546 126.889 96.3369C126.703 96.9098 126.378 97.3901 125.914 97.7779C125.45 98.1657 124.89 98.4312 124.233 98.5744ZM123.798 96.5813C124.119 96.5114 124.359 96.3362 124.519 96.0556C124.685 95.7656 124.719 95.3978 124.622 94.9523C124.525 94.5068 124.341 94.1906 124.071 94.0039C123.809 93.8154 123.522 93.7553 123.209 93.8235C122.897 93.8917 122.66 94.066 122.5 94.3466C122.341 94.6271 122.309 94.9901 122.406 95.4356C122.505 95.889 122.682 96.2107 122.936 96.4009C123.191 96.591 123.478 96.6512 123.798 96.5813ZM131.144 92.0928L130.112 92.3179L131.13 96.9841L128.82 97.4879L127.802 92.8217L127.087 92.9777L126.67 91.0666L127.385 90.9106L127.372 90.852C127.188 90.0078 127.294 89.3093 127.689 88.7563C128.091 88.1939 128.756 87.8112 129.686 87.6083C129.874 87.5674 130.019 87.5398 130.123 87.5254L130.55 89.4834C130.486 89.4892 130.399 89.5041 130.289 89.5279C130.039 89.5825 129.868 89.6812 129.777 89.824C129.683 89.959 129.656 90.1533 129.695 90.4068L130.727 90.1817L131.144 92.0928ZM135.517 91.1388L134.486 91.3638L135.503 96.0301L133.194 96.5339L132.176 91.8676L131.461 92.0236L131.044 90.1126L131.759 89.9566L131.746 89.898C131.562 89.0538 131.668 88.3553 132.063 87.8023C132.464 87.2399 133.13 86.8572 134.06 86.6543C134.248 86.6134 134.393 86.5858 134.496 86.5714L134.924 88.5294C134.859 88.5352 134.772 88.5501 134.663 88.5739C134.413 88.6285 134.242 88.7272 134.15 88.87C134.057 89.005 134.03 89.1993 134.069 89.4528L135.1 89.2277L135.517 91.1388Z" fill="white"/>
<path d="M45.6203 67.2686L43.7381 58.6395L58.1824 55.4889L65.6602 89.7708L56.0462 91.8678L50.4507 66.215L45.6203 67.2686ZM63.7564 63.3127L61.8741 54.6836L76.3185 51.5329L83.7962 85.8149L74.1823 87.9119L68.5868 62.2591L63.7564 63.3127ZM93.8071 84.0243C92.1813 84.3789 90.7727 84.2276 89.5813 83.5704C88.4143 82.8751 87.6808 81.8397 87.3808 80.464C87.0807 79.0884 87.3164 77.8415 88.0878 76.7234C88.8905 75.5985 90.1048 74.8587 91.7305 74.5041C93.325 74.1563 94.7058 74.33 95.8728 75.0253C97.071 75.7138 97.8202 76.7458 98.1202 78.1215C98.4135 79.4659 98.1588 80.7005 97.356 81.8254C96.5846 82.9435 95.4016 83.6765 93.8071 84.0243ZM95.9983 56.2799L94.116 47.6508L108.56 44.5002L116.038 78.7821L106.424 80.8791L100.829 55.2263L95.9983 56.2799ZM114.134 52.324L112.252 43.6949L126.696 40.5442L134.174 74.8262L124.56 76.9232L118.965 51.2704L114.134 52.324Z" fill="white"/>
<g filter="url(#filter0_d_22791_99393)">
<path d="M175.562 63.3686C175.252 60.2418 177.535 57.4552 180.662 57.1446L245.77 50.6761C248.897 50.3654 251.683 52.6484 251.994 55.7752L255.369 89.7447C255.679 92.8716 253.397 95.6582 250.27 95.9688L185.161 102.437C182.035 102.748 179.248 100.465 178.937 97.3382L175.562 63.3686Z" fill="url(#paint8_linear_22791_99393)" fill-opacity="0.77"/>
<path d="M176.744 75.2578L253.175 67.6644L254.019 76.1568L177.587 83.7502L176.744 75.2578Z" fill="url(#paint9_linear_22791_99393)" fill-opacity="0.55"/>
<path d="M242.548 87.3024C242.812 89.9602 240.871 92.3288 238.213 92.5929C235.556 92.8569 233.187 90.9164 232.923 88.2586C232.659 85.6009 234.599 83.2322 237.257 82.9682C239.915 82.7041 242.284 84.6446 242.548 87.3024Z" fill="url(#paint10_linear_22791_99393)"/>
<path d="M249.342 86.6276C249.606 89.2854 247.665 91.654 245.007 91.9181C242.35 92.1821 239.981 90.2416 239.717 87.5838C239.453 84.926 241.393 82.5574 244.051 82.2934C246.709 82.0293 249.078 83.9698 249.342 86.6276Z" fill="url(#paint11_linear_22791_99393)"/>
<path d="M187.49 87.9946L187.07 89.6689L186.881 89.6877L186.14 88.1287L186.336 88.1092L186.82 89.1364C186.84 89.1777 186.858 89.2172 186.874 89.2551C186.89 89.2929 186.905 89.3294 186.918 89.3646C186.931 89.3998 186.943 89.434 186.954 89.4671C186.958 89.4325 186.963 89.3966 186.969 89.3596C186.975 89.3217 186.982 89.2827 186.991 89.2424C186.999 89.2013 187.009 89.1583 187.02 89.1132L187.291 88.0143L187.49 87.9946Z" fill="white"/>
<path d="M188.887 89.4884L188.637 88.9951L187.989 89.0595L187.842 89.5922L187.652 89.6111L188.123 87.925L188.292 87.9082L189.081 89.4691L188.887 89.4884ZM188.564 88.8337L188.324 88.3427C188.318 88.3299 188.309 88.3089 188.295 88.2797C188.283 88.2504 188.27 88.2201 188.256 88.1887C188.243 88.1573 188.232 88.1319 188.223 88.1127C188.219 88.1436 188.213 88.1747 188.208 88.2058C188.202 88.2361 188.197 88.2645 188.192 88.2911C188.186 88.317 188.181 88.3391 188.177 88.3574L188.035 88.8862L188.564 88.8337Z" fill="white"/>
<path d="M189.306 89.4468L189.145 87.8301L189.333 87.8114L189.477 89.26L190.195 89.1887L190.211 89.3568L189.306 89.4468Z" fill="white"/>
<path d="M190.489 89.3292L190.328 87.7126L190.516 87.6939L190.677 89.3105L190.489 89.3292Z" fill="white"/>
<path d="M192.323 88.315C192.342 88.4971 192.323 88.6526 192.269 88.7816C192.215 88.9098 192.128 89.0112 192.008 89.0856C191.889 89.1592 191.74 89.205 191.56 89.2228L191.121 89.2664L190.961 87.6497L191.449 87.6013C191.613 87.5849 191.757 87.6011 191.882 87.6498C192.007 87.6977 192.107 87.7774 192.183 87.889C192.259 87.9998 192.306 88.1418 192.323 88.315ZM192.126 88.3413C192.112 88.1961 192.076 88.0787 192.017 87.9892C191.96 87.8996 191.882 87.8366 191.784 87.8002C191.687 87.763 191.571 87.7511 191.436 87.7645L191.165 87.7914L191.293 89.0863L191.522 89.0635C191.745 89.0414 191.906 88.9699 192.007 88.849C192.108 88.728 192.148 88.5588 192.126 88.3413Z" fill="white"/>
<path d="M193.849 88.9953L193.66 89.0141L193.516 87.5634L193.008 87.6139L192.991 87.448L194.195 87.3284L194.212 87.4943L193.705 87.5446L193.849 88.9953Z" fill="white"/>
<path d="M195.825 88.799L195.637 88.8177L195.562 88.0558L194.713 88.1402L194.788 88.9021L194.6 88.9208L194.44 87.3041L194.628 87.2854L194.696 87.9743L195.545 87.89L195.477 87.2011L195.665 87.1824L195.825 88.799Z" fill="white"/>
<path d="M196.546 87.0948C196.679 87.0816 196.79 87.0874 196.88 87.112C196.97 87.1358 197.04 87.1791 197.089 87.2419C197.138 87.3047 197.168 87.3881 197.179 87.4921C197.187 87.5776 197.179 87.6506 197.153 87.7112C197.128 87.771 197.092 87.8211 197.046 87.8615C196.999 87.9019 196.948 87.9345 196.893 87.9593L197.409 88.6417L197.19 88.6635L196.727 88.0283L196.391 88.0617L196.458 88.7362L196.27 88.7549L196.109 87.1382L196.546 87.0948ZM196.551 87.2585L196.313 87.2821L196.375 87.9024L196.632 87.8769C196.764 87.8638 196.858 87.8273 196.914 87.7673C196.972 87.7073 196.995 87.6249 196.985 87.5203C196.974 87.4104 196.933 87.3359 196.862 87.2968C196.792 87.2576 196.688 87.2449 196.551 87.2585Z" fill="white"/>
<path d="M198.73 86.8779L198.834 87.9239C198.845 88.0382 198.832 88.1422 198.795 88.236C198.758 88.3298 198.696 88.4071 198.608 88.4679C198.52 88.528 198.406 88.565 198.266 88.5789C198.066 88.5988 197.909 88.5597 197.793 88.4617C197.678 88.3637 197.612 88.224 197.594 88.0427L197.49 87.001L197.68 86.9822L197.784 88.0294C197.797 88.1665 197.844 88.2687 197.924 88.336C198.004 88.4032 198.116 88.4296 198.261 88.4153C198.36 88.4054 198.439 88.3797 198.498 88.3381C198.558 88.2957 198.599 88.2409 198.623 88.1738C198.648 88.1058 198.656 88.0295 198.647 87.9447L198.543 86.8964L198.73 86.8779Z" fill="white"/>
<path d="M190.906 94.4334L190.692 94.4546L190.185 93.7859L189.812 94.5421L189.612 94.562L190.067 93.6659L189.489 92.9416L189.698 92.9208L190.165 93.5254L190.507 92.8404L190.706 92.8206L190.283 93.641L190.906 94.4334Z" fill="white"/>
<path d="M192.215 94.3034L192.001 94.3246L191.494 93.6558L191.121 94.412L190.921 94.4319L191.376 93.5358L190.798 92.8115L191.007 92.7907L191.475 93.3953L191.817 92.7103L192.016 92.6906L191.592 93.5109L192.215 94.3034Z" fill="white"/>
<path d="M192.869 92.6057L192.428 94.2822L192.247 94.3002L192.689 92.6236L192.869 92.6057Z" fill="white"/>
<path d="M194.356 94.0907L194.142 94.1119L193.635 93.4431L193.262 94.1993L193.062 94.2192L193.517 93.3231L192.939 92.5988L193.148 92.5781L193.616 93.1826L193.957 92.4976L194.156 92.4779L193.733 93.2982L194.356 94.0907Z" fill="white"/>
<path d="M195.665 93.9606L195.451 93.9818L194.944 93.3131L194.571 94.0692L194.371 94.0891L194.826 93.193L194.248 92.4687L194.457 92.448L194.925 93.0526L195.267 92.3676L195.466 92.3478L195.042 93.1682L195.665 93.9606Z" fill="white"/>
<path d="M183.884 80.2664L183.564 80.2982L182.803 79.2951L182.244 80.4293L181.944 80.4592L182.626 79.115L181.759 78.0286L182.073 77.9974L182.774 78.9043L183.287 77.8768L183.585 77.8471L182.951 79.0777L183.884 80.2664Z" fill="white"/>
<path d="M185.848 80.0712L185.528 80.103L184.767 79.1L184.208 80.2342L183.908 80.264L184.59 78.9199L183.723 77.8335L184.037 77.8023L184.738 78.7092L185.251 77.6817L185.549 77.652L184.914 78.8826L185.848 80.0712Z" fill="white"/>
<path d="M187.812 79.8761L187.492 79.9079L186.731 78.9048L186.172 80.0391L185.872 80.0689L186.554 78.7248L185.687 77.6384L186 77.6072L186.702 78.5141L187.215 77.4866L187.513 77.4569L186.878 78.6875L187.812 79.8761Z" fill="white"/>
<path d="M189.776 79.681L189.456 79.7128L188.695 78.7097L188.136 79.844L187.835 79.8738L188.518 78.5297L187.651 77.4432L187.964 77.4121L188.666 78.319L189.178 77.2915L189.477 77.2618L188.842 78.4924L189.776 79.681Z" fill="white"/>
<path d="M191.74 79.4859L191.42 79.5177L190.658 78.5146L190.099 79.6489L189.799 79.6787L190.481 78.3346L189.615 77.2481L189.928 77.217L190.63 78.1239L191.142 77.0964L191.441 77.0667L190.806 78.2973L191.74 79.4859Z" fill="white"/>
<path d="M194.586 79.2031L194.266 79.2349L193.505 78.2319L192.946 79.3661L192.646 79.3959L193.328 78.0518L192.461 76.9654L192.774 76.9342L193.476 77.8411L193.989 76.8136L194.287 76.7839L193.652 78.0145L194.586 79.2031Z" fill="white"/>
<path d="M196.55 79.008L196.23 79.0398L195.469 78.0367L194.91 79.171L194.609 79.2008L195.292 77.8567L194.425 76.7703L194.738 76.7391L195.44 77.646L195.953 76.6185L196.251 76.5888L195.616 77.8194L196.55 79.008Z" fill="white"/>
<path d="M198.514 78.8129L198.194 78.8447L197.432 77.8416L196.873 78.9759L196.573 79.0057L197.255 77.6616L196.389 76.5751L196.702 76.544L197.404 77.4509L197.916 76.4234L198.215 76.3937L197.58 77.6243L198.514 78.8129Z" fill="white"/>
<path d="M200.478 78.6178L200.158 78.6496L199.396 77.6465L198.837 78.7808L198.537 78.8106L199.219 77.4665L198.353 76.38L198.666 76.3489L199.368 77.2557L199.88 76.2283L200.179 76.1986L199.544 77.4292L200.478 78.6178Z" fill="white"/>
<path d="M202.442 78.4227L202.122 78.4545L201.36 77.4514L200.801 78.5857L200.501 78.6155L201.183 77.2713L200.316 76.1849L200.63 76.1538L201.331 77.0606L201.844 76.0332L202.143 76.0035L201.508 77.2341L202.442 78.4227Z" fill="white"/>
<path d="M204.405 78.2276L204.085 78.2594L203.324 77.2563L202.765 78.3906L202.465 78.4204L203.147 77.0762L202.28 75.9898L202.594 75.9587L203.295 76.8655L203.808 75.838L204.107 75.8084L203.472 77.039L204.405 78.2276Z" fill="white"/>
<path d="M206.369 78.0325L206.049 78.0643L205.288 77.0612L204.729 78.1955L204.429 78.2253L205.111 76.8811L204.244 75.7947L204.558 75.7636L205.259 76.6704L205.772 75.6429L206.07 75.6133L205.436 76.8439L206.369 78.0325Z" fill="white"/>
<path d="M208.333 77.8374L208.013 77.8692L207.252 76.8661L206.693 78.0004L206.393 78.0302L207.075 76.686L206.208 75.5996L206.522 75.5685L207.223 76.4753L207.736 75.4478L208.034 75.4182L207.399 76.6487L208.333 77.8374Z" fill="white"/>
<path d="M181.663 69.6232L181.394 69.6499L181.224 67.9315C181.217 67.8662 181.211 67.8104 181.207 67.764C181.203 67.7163 181.2 67.6731 181.197 67.6343C181.196 67.5942 181.194 67.5536 181.194 67.5124C181.163 67.5511 181.134 67.5847 181.106 67.6131C181.079 67.6404 181.045 67.6745 181.004 67.7154L180.749 67.9652L180.587 67.7921L181.193 67.2209L181.422 67.1982L181.663 69.6232Z" fill="white"/>
<path d="M184.171 69.374L182.582 69.5319L182.559 69.3013L183.142 68.5784C183.251 68.4448 183.341 68.3264 183.413 68.2231C183.487 68.1198 183.541 68.0201 183.575 67.924C183.608 67.8269 183.62 67.723 183.609 67.6124C183.595 67.4753 183.544 67.3749 183.455 67.3111C183.367 67.2462 183.257 67.2203 183.124 67.2335C183.008 67.245 182.907 67.2751 182.821 67.3238C182.736 67.3725 182.65 67.438 182.563 67.5204L182.397 67.3493C182.456 67.2887 182.52 67.2337 182.591 67.1842C182.664 67.1346 182.742 67.0933 182.825 67.0604C182.91 67.0274 183.002 67.006 183.1 66.9963C183.25 66.9814 183.381 66.9946 183.495 67.0358C183.608 67.077 183.699 67.1428 183.767 67.2332C183.836 67.3235 183.878 67.435 183.891 67.5677C183.904 67.6959 183.89 67.8179 183.85 67.9335C183.81 68.048 183.75 68.164 183.669 68.2815C183.588 68.3979 183.492 68.5225 183.381 68.6552L182.906 69.2334L182.907 69.245L184.146 69.1219L184.171 69.374Z" fill="white"/>
<path d="M185.841 67.3304C185.851 67.4388 185.84 67.5349 185.806 67.6186C185.771 67.7024 185.719 67.7735 185.649 67.8318C185.579 67.8891 185.494 67.9327 185.394 67.9627L185.395 67.976C185.59 67.9812 185.741 68.0288 185.847 68.1187C185.954 68.2086 186.016 68.3342 186.032 68.4957C186.046 68.6361 186.025 68.7638 185.969 68.8788C185.915 68.9936 185.823 69.0888 185.693 69.1642C185.564 69.2384 185.394 69.286 185.183 69.307C185.054 69.3197 184.934 69.321 184.823 69.3109C184.713 69.3018 184.605 69.2784 184.501 69.2407L184.475 68.982C184.581 69.0217 184.694 69.0501 184.815 69.0671C184.936 69.083 185.052 69.0854 185.163 69.0745C185.384 69.0525 185.539 68.9929 185.629 68.8958C185.719 68.7976 185.756 68.6721 185.741 68.5195C185.73 68.4145 185.694 68.3326 185.633 68.274C185.572 68.2141 185.489 68.1744 185.383 68.1548C185.278 68.1339 185.154 68.1306 185.01 68.1449L184.768 68.169L184.745 67.9334L184.988 67.9092C185.12 67.8961 185.23 67.8657 185.318 67.8179C185.406 67.77 185.47 67.7089 185.511 67.6345C185.552 67.5589 185.568 67.473 185.559 67.3768C185.547 67.2541 185.496 67.1636 185.408 67.1054C185.319 67.0461 185.205 67.0234 185.064 67.0373C184.978 67.0459 184.9 67.0626 184.831 67.0873C184.762 67.112 184.699 67.1429 184.64 67.18C184.581 67.2172 184.522 67.2592 184.465 67.3063L184.306 67.1311C184.388 67.0537 184.49 66.9838 184.612 66.9214C184.735 66.8591 184.876 66.8198 185.038 66.8038C185.285 66.7792 185.477 66.8171 185.612 66.9176C185.747 67.0181 185.823 67.1557 185.841 67.3304Z" fill="white"/>
<path d="M188.124 68.4134L187.761 68.4495L187.817 69.0118L187.548 69.0385L187.492 68.4762L186.319 68.5927L186.296 68.3605L187.287 66.6021L187.574 66.5736L187.736 68.2007L188.099 68.1646L188.124 68.4134ZM187.467 68.2274L187.389 67.4346C187.383 67.3738 187.378 67.319 187.374 67.2702C187.37 67.2203 187.367 67.1743 187.365 67.132C187.363 67.0887 187.361 67.0476 187.358 67.0088C187.356 66.9699 187.354 66.9316 187.352 66.8939L187.338 66.8952C187.322 66.9415 187.302 66.9909 187.279 67.0434C187.258 67.0947 187.235 67.1411 187.211 67.1825L186.568 68.3167L187.467 68.2274Z" fill="white"/>
<path d="M189.915 67.3058C190.08 67.2895 190.226 67.3034 190.353 67.3477C190.48 67.391 190.582 67.4623 190.659 67.5619C190.737 67.6614 190.784 67.7868 190.799 67.9383C190.815 68.1042 190.794 68.251 190.734 68.3786C190.674 68.5052 190.579 68.6078 190.451 68.6864C190.322 68.764 190.164 68.8121 189.976 68.8308C189.85 68.8433 189.732 68.8439 189.621 68.8325C189.511 68.8212 189.416 68.7971 189.338 68.7602L189.312 68.4981C189.397 68.5388 189.499 68.5677 189.617 68.5851C189.735 68.6024 189.848 68.6057 189.956 68.5949C190.079 68.5827 190.184 68.5527 190.272 68.5049C190.361 68.4558 190.427 68.389 190.47 68.3043C190.514 68.2184 190.53 68.1147 190.518 67.993C190.502 67.8316 190.44 67.7121 190.331 67.6347C190.224 67.556 190.064 67.5272 189.85 67.5484C189.782 67.5553 189.707 67.5683 189.627 67.5874C189.546 67.6066 189.48 67.6255 189.428 67.644L189.279 67.5667L189.259 66.4196L190.465 66.2998L190.49 66.5519L189.52 66.6483L189.531 67.3859C189.572 67.3728 189.626 67.3586 189.691 67.3432C189.756 67.3266 189.831 67.3142 189.915 67.3058Z" fill="white"/>
<path d="M191.162 67.6325C191.147 67.4866 191.143 67.343 191.149 67.2016C191.157 67.0602 191.178 66.9274 191.215 66.8031C191.252 66.6778 191.308 66.5656 191.383 66.4666C191.458 66.3675 191.555 66.2864 191.675 66.2231C191.796 66.1586 191.944 66.1176 192.12 66.1002C192.17 66.0952 192.224 66.0926 192.282 66.0925C192.34 66.0912 192.388 66.0942 192.427 66.1015L192.451 66.3387C192.408 66.3284 192.36 66.3226 192.306 66.3212C192.254 66.3197 192.201 66.3216 192.148 66.3269C191.942 66.3473 191.785 66.4082 191.675 66.5095C191.567 66.6107 191.494 66.7408 191.458 66.8997C191.421 67.0574 191.408 67.2323 191.419 67.4244L191.438 67.4226C191.466 67.3639 191.505 67.3098 191.554 67.2603C191.602 67.2097 191.663 67.1674 191.736 67.1334C191.809 67.0992 191.896 67.0772 191.997 67.0672C192.138 67.0531 192.265 67.0696 192.375 67.1167C192.487 67.1636 192.577 67.239 192.646 67.3428C192.715 67.4464 192.758 67.5762 192.773 67.7321C192.79 67.8991 192.773 68.0465 192.723 68.1742C192.674 68.302 192.594 68.4048 192.486 68.4826C192.379 68.5591 192.246 68.6053 192.088 68.621C191.969 68.6327 191.858 68.6209 191.754 68.5854C191.65 68.55 191.557 68.4912 191.474 68.409C191.392 68.3266 191.324 68.2212 191.27 68.0925C191.215 67.9628 191.18 67.8095 191.162 67.6325ZM192.061 68.3891C192.212 68.3742 192.327 68.3141 192.409 68.2089C192.49 68.1037 192.521 67.9537 192.501 67.7591C192.485 67.5999 192.432 67.4778 192.343 67.393C192.253 67.3081 192.126 67.2738 191.964 67.2899C191.853 67.3009 191.759 67.3337 191.682 67.3882C191.605 67.4417 191.547 67.5055 191.509 67.5797C191.47 67.6539 191.454 67.7269 191.462 67.7988C191.469 67.8717 191.487 67.9448 191.515 68.0179C191.545 68.0909 191.585 68.1573 191.635 68.217C191.686 68.2767 191.747 68.3226 191.818 68.3546C191.89 68.3866 191.971 68.3981 192.061 68.3891Z" fill="white"/>
<path d="M193.498 68.4474L194.277 66.1757L192.955 66.307L192.93 66.0549L194.547 65.8942L194.568 66.1065L193.799 68.4174L193.498 68.4474Z" fill="white"/>
<path d="M196.567 65.6584C196.708 65.6444 196.834 65.6542 196.947 65.6876C197.06 65.7211 197.151 65.7779 197.22 65.8581C197.291 65.9371 197.332 66.0391 197.344 66.1641C197.354 66.2625 197.341 66.3509 197.305 66.4292C197.271 66.5064 197.22 66.5762 197.154 66.6386C197.087 66.6999 197.012 66.7565 196.929 66.8083C197.038 66.8455 197.137 66.8899 197.226 66.9413C197.316 66.9927 197.389 67.0563 197.446 67.1322C197.502 67.2081 197.536 67.3013 197.547 67.4119C197.561 67.5479 197.539 67.669 197.483 67.7751C197.427 67.88 197.343 67.9649 197.23 68.0297C197.117 68.0945 196.981 68.1349 196.822 68.1507C196.65 68.1677 196.502 68.1568 196.376 68.1179C196.251 68.0778 196.153 68.0128 196.08 67.9228C196.009 67.8317 195.966 67.7181 195.953 67.5821C195.942 67.4704 195.956 67.3713 195.995 67.2847C196.034 67.1971 196.09 67.1195 196.163 67.052C196.236 66.9844 196.316 66.9256 196.405 66.8755C196.32 66.8393 196.241 66.7963 196.168 66.7466C196.096 66.6968 196.036 66.6363 195.989 66.5651C195.943 66.4926 195.915 66.4061 195.905 66.3054C195.892 66.1827 195.913 66.0757 195.966 65.9844C196.021 65.8919 196.1 65.8181 196.204 65.7631C196.309 65.7069 196.43 65.672 196.567 65.6584ZM196.223 67.5569C196.235 67.6807 196.289 67.7787 196.385 67.8507C196.48 67.9216 196.616 67.9483 196.793 67.9307C196.961 67.914 197.087 67.8613 197.171 67.7726C197.255 67.6827 197.29 67.5726 197.277 67.4421C197.269 67.3614 197.241 67.2927 197.193 67.2361C197.145 67.1783 197.08 67.1289 196.997 67.088C196.915 67.047 196.819 67.0119 196.71 66.9825L196.649 66.9669C196.551 67.019 196.469 67.0746 196.402 67.1337C196.336 67.1916 196.288 67.255 196.257 67.324C196.226 67.393 196.215 67.4706 196.223 67.5569ZM196.586 65.8843C196.456 65.8972 196.352 65.9393 196.276 66.0106C196.199 66.0808 196.166 66.1745 196.178 66.2917C196.186 66.3757 196.213 66.4451 196.259 66.4997C196.305 66.5532 196.366 66.5974 196.44 66.6325C196.513 66.6665 196.595 66.6969 196.685 66.7237C196.765 66.68 196.836 66.6339 196.897 66.5854C196.958 66.5358 197.004 66.4798 197.036 66.4175C197.068 66.3551 197.08 66.283 197.072 66.2012C197.06 66.084 197.01 65.9985 196.921 65.9449C196.833 65.8911 196.721 65.8709 196.586 65.8843Z" fill="white"/>
<path d="M199.408 66.4548C199.423 66.6019 199.427 66.7461 199.42 66.8875C199.414 67.0288 199.392 67.1622 199.354 67.2877C199.317 67.4131 199.261 67.5253 199.186 67.6243C199.111 67.7233 199.013 67.8051 198.891 67.8697C198.77 67.9331 198.621 67.9735 198.446 67.991C198.398 67.9957 198.343 67.9978 198.282 67.9972C198.221 67.9977 198.17 67.9944 198.13 67.9872L198.106 67.7483C198.149 67.7586 198.198 67.7655 198.254 67.7688C198.31 67.7711 198.365 67.7695 198.418 67.7643C198.625 67.7437 198.783 67.6833 198.892 67.5831C199.002 67.4818 199.075 67.3523 199.112 67.1945C199.148 67.0356 199.161 66.8602 199.148 66.6683L199.128 66.6702C199.1 66.7266 199.062 66.7802 199.012 66.8309C198.963 66.8804 198.902 66.9227 198.829 66.958C198.755 66.9921 198.667 67.0142 198.566 67.0243C198.425 67.0383 198.3 67.0217 198.189 66.9746C198.079 66.9275 197.99 66.8521 197.92 66.7484C197.852 66.6446 197.81 66.5154 197.794 66.3606C197.778 66.1936 197.795 66.0461 197.846 65.9182C197.898 65.7891 197.978 65.6857 198.086 65.6079C198.195 65.5301 198.327 65.4835 198.483 65.468C198.602 65.4562 198.714 65.468 198.818 65.5034C198.922 65.5389 199.015 65.5983 199.097 65.6817C199.18 65.7639 199.248 65.8694 199.301 65.9981C199.355 66.1268 199.391 66.279 199.408 66.4548ZM198.506 65.7019C198.359 65.7165 198.244 65.7765 198.162 65.8818C198.081 65.987 198.05 66.1364 198.069 66.3299C198.085 66.4902 198.137 66.6129 198.225 66.698C198.313 66.7831 198.438 66.8175 198.602 66.8013C198.715 66.7901 198.81 66.7577 198.887 66.7043C198.966 66.6507 199.023 66.5869 199.061 66.5128C199.099 66.4386 199.115 66.3651 199.108 66.2921C199.1 66.2191 199.082 66.1461 199.052 66.0731C199.024 66 198.984 65.9341 198.934 65.8755C198.883 65.8158 198.822 65.7699 198.751 65.7379C198.68 65.7048 198.598 65.6928 198.506 65.7019Z" fill="white"/>
<path d="M200.923 67.7097L200.655 67.7364L200.484 66.018C200.478 65.9527 200.472 65.8969 200.467 65.8504C200.464 65.8028 200.461 65.7596 200.458 65.7207C200.456 65.6807 200.455 65.6401 200.454 65.5988C200.423 65.6376 200.394 65.6712 200.367 65.6996C200.339 65.7269 200.305 65.761 200.265 65.8019L200.01 66.0517L199.847 65.8786L200.454 65.3074L200.682 65.2847L200.923 67.7097Z" fill="white"/>
<path d="M203.324 66.2434C203.343 66.4402 203.346 66.6175 203.331 66.7753C203.317 66.9331 203.283 67.0688 203.229 67.1824C203.176 67.296 203.101 67.3861 203.005 67.4526C202.909 67.518 202.789 67.5578 202.647 67.5719C202.467 67.5899 202.312 67.5555 202.184 67.4688C202.057 67.382 201.955 67.2487 201.878 67.0687C201.802 66.8876 201.751 66.6654 201.725 66.4022C201.699 66.1435 201.703 65.9186 201.737 65.7277C201.771 65.5355 201.842 65.3839 201.949 65.2727C202.057 65.1605 202.206 65.0948 202.399 65.0756C202.581 65.0575 202.737 65.0923 202.865 65.1801C202.993 65.2668 203.095 65.4007 203.171 65.5818C203.247 65.7619 203.298 65.9824 203.324 66.2434ZM202.002 66.3747C202.024 66.6003 202.06 66.7866 202.109 66.9335C202.159 67.0805 202.225 67.1878 202.309 67.2554C202.394 67.3218 202.498 67.3488 202.623 67.3364C202.748 67.324 202.845 67.277 202.914 67.1953C202.984 67.1135 203.029 66.9957 203.048 66.8419C203.069 66.688 203.068 66.4977 203.045 66.2711C203.023 66.0488 202.987 65.8647 202.938 65.7189C202.889 65.5719 202.823 65.4646 202.739 65.397C202.655 65.3282 202.549 65.3002 202.422 65.3128C202.295 65.3255 202.197 65.3737 202.128 65.4576C202.06 65.5404 202.016 65.6587 201.996 65.8125C201.978 65.965 201.98 66.1524 202.002 66.3747Z" fill="white"/>
<path d="M205.694 67.2357L205.425 67.2624L205.254 65.544C205.248 65.4788 205.242 65.423 205.238 65.3765C205.234 65.3289 205.231 65.2856 205.228 65.2468C205.226 65.2068 205.225 65.1661 205.224 65.1249C205.194 65.1637 205.165 65.1973 205.137 65.2257C205.11 65.253 205.076 65.2871 205.035 65.328L204.78 65.5777L204.617 65.4046L205.224 64.8335L205.453 64.8108L205.694 67.2357Z" fill="white"/>
<path d="M208.094 65.7694C208.114 65.9663 208.116 66.1436 208.102 66.3013C208.087 66.4591 208.053 66.5948 208 66.7085C207.946 66.8221 207.872 66.9122 207.775 66.9787C207.679 67.0441 207.56 67.0838 207.417 67.098C207.237 67.1159 207.083 67.0815 206.955 66.9949C206.828 66.9081 206.726 66.7748 206.649 66.5948C206.572 66.4136 206.521 66.1915 206.495 65.9283C206.469 65.6695 206.473 65.4447 206.507 65.2538C206.541 65.0616 206.612 64.91 206.72 64.7988C206.827 64.6865 206.977 64.6208 207.169 64.6017C207.352 64.5836 207.507 64.6184 207.635 64.7062C207.763 64.7928 207.865 64.9267 207.941 65.1079C208.017 65.288 208.068 65.5085 208.094 65.7694ZM206.772 65.9008C206.795 66.1264 206.83 66.3126 206.88 66.4596C206.929 66.6066 206.995 66.7139 207.079 66.7815C207.164 66.8479 207.269 66.8749 207.394 66.8625C207.519 66.8501 207.616 66.803 207.685 66.7214C207.755 66.6396 207.799 66.5218 207.819 66.368C207.839 66.2141 207.838 66.0238 207.815 65.7971C207.793 65.5749 207.758 65.3908 207.709 65.2449C207.659 65.0979 207.593 64.9906 207.509 64.923C207.425 64.8543 207.32 64.8263 207.193 64.8389C207.065 64.8515 206.968 64.8998 206.899 64.9837C206.83 65.0664 206.786 65.1847 206.767 65.3385C206.748 65.4911 206.75 65.6785 206.772 65.9008Z" fill="white"/>
<path d="M209.582 66.8495L209.313 66.8762L209.142 65.1578C209.136 65.0925 209.13 65.0367 209.126 64.9903C209.122 64.9426 209.119 64.8994 209.116 64.8605C209.114 64.8205 209.113 64.7799 209.112 64.7386C209.082 64.7774 209.053 64.811 209.025 64.8394C208.998 64.8667 208.964 64.9008 208.923 64.9417L208.668 65.1915L208.505 65.0184L209.112 64.4472L209.341 64.4245L209.582 66.8495Z" fill="white"/>
<path d="M211.982 65.3832C212.002 65.58 212.004 65.7573 211.99 65.9151C211.975 66.0729 211.941 66.2086 211.888 66.3222C211.834 66.4358 211.759 66.5259 211.663 66.5924C211.567 66.6578 211.448 66.6976 211.305 66.7118C211.125 66.7297 210.971 66.6953 210.843 66.6086C210.716 66.5219 210.613 66.3885 210.536 66.2085C210.46 66.0274 210.409 65.8052 210.383 65.542C210.357 65.2833 210.361 65.0584 210.395 64.8675C210.429 64.6754 210.5 64.5237 210.608 64.4125C210.715 64.3003 210.865 64.2346 211.057 64.2155C211.239 64.1973 211.395 64.2321 211.523 64.3199C211.651 64.4066 211.753 64.5405 211.829 64.7216C211.905 64.9017 211.956 65.1222 211.982 65.3832ZM210.66 65.5145C210.683 65.7401 210.718 65.9264 210.768 66.0734C210.817 66.2203 210.883 66.3276 210.967 66.3952C211.052 66.4616 211.157 66.4886 211.282 66.4762C211.407 66.4638 211.504 66.4168 211.572 66.3351C211.642 66.2533 211.687 66.1355 211.707 65.9817C211.727 65.8278 211.726 65.6375 211.703 65.4109C211.681 65.1886 211.646 65.0045 211.597 64.8587C211.547 64.7117 211.481 64.6044 211.397 64.5368C211.313 64.4681 211.208 64.44 211.081 64.4526C210.953 64.4653 210.855 64.5135 210.787 64.5974C210.718 64.6802 210.674 64.7985 210.654 64.9523C210.636 65.1048 210.638 65.2923 210.66 65.5145Z" fill="white"/>
<path d="M213.47 66.4632L213.201 66.4899L213.03 64.7715C213.024 64.7063 213.018 64.6504 213.014 64.604C213.01 64.5563 213.007 64.5131 213.004 64.4743C213.002 64.4343 213.001 64.3936 213 64.3524C212.969 64.3912 212.94 64.4248 212.913 64.4532C212.886 64.4805 212.852 64.5145 212.811 64.5554L212.556 64.8052L212.393 64.6321L213 64.061L213.229 64.0382L213.47 66.4632Z" fill="white"/>
<path d="M215.87 64.9969C215.89 65.1937 215.892 65.371 215.878 65.5288C215.863 65.6866 215.829 65.8223 215.776 65.9359C215.722 66.0496 215.647 66.1396 215.551 66.2061C215.455 66.2715 215.336 66.3113 215.193 66.3255C215.013 66.3434 214.859 66.309 214.73 66.2224C214.603 66.1356 214.501 66.0022 214.424 65.8223C214.348 65.6411 214.297 65.4189 214.271 65.1558C214.245 64.897 214.249 64.6722 214.283 64.4812C214.317 64.2891 214.388 64.1374 214.495 64.0263C214.603 63.914 214.753 63.8483 214.945 63.8292C215.127 63.8111 215.283 63.8459 215.411 63.9336C215.539 64.0203 215.641 64.1542 215.717 64.3354C215.793 64.5154 215.844 64.736 215.87 64.9969ZM214.548 65.1283C214.57 65.3538 214.606 65.5401 214.655 65.6871C214.705 65.8341 214.771 65.9414 214.855 66.009C214.94 66.0754 215.045 66.1024 215.17 66.09C215.294 66.0775 215.391 66.0305 215.46 65.9488C215.53 65.8671 215.575 65.7493 215.594 65.5955C215.615 65.4416 215.614 65.2513 215.591 65.0246C215.569 64.8023 215.534 64.6183 215.485 64.4724C215.435 64.3254 215.369 64.2181 215.285 64.1505C215.201 64.0818 215.096 64.0537 214.968 64.0664C214.841 64.079 214.743 64.1273 214.675 64.2111C214.606 64.2939 214.562 64.4122 214.542 64.566C214.524 64.7186 214.526 64.906 214.548 65.1283Z" fill="white"/>
</g>
<g filter="url(#filter1_d_22791_99393)">
<path d="M246.879 31.568C247.525 28.4929 250.542 26.5235 253.617 27.1694L317.649 40.6171C320.724 41.2629 322.693 44.2793 322.047 47.3544L315.031 80.7624C314.385 83.8375 311.369 85.8069 308.294 85.161L244.262 71.7133C241.187 71.0675 239.217 68.0511 239.863 64.976L246.879 31.568Z" fill="url(#paint12_linear_22791_99393)" fill-opacity="0.77"/>
<path d="M244.424 43.2607L319.592 59.0472L317.838 67.3992L242.67 51.6127L244.424 43.2607Z" fill="url(#paint13_linear_22791_99393)" fill-opacity="0.55"/>
<path d="M303.542 74.5703C302.993 77.1842 300.429 78.8581 297.815 78.3092C295.201 77.7602 293.527 75.1963 294.076 72.5824C294.625 69.9686 297.189 68.2946 299.803 68.8436C302.417 69.3925 304.091 71.9565 303.542 74.5703Z" fill="url(#paint14_linear_22791_99393)"/>
<path d="M310.223 75.9736C309.674 78.5875 307.11 80.2614 304.496 79.7125C301.883 79.1635 300.209 76.5996 300.758 73.9857C301.307 71.3719 303.871 69.6979 306.484 70.2469C309.098 70.7958 310.772 73.3598 310.223 75.9736Z" fill="url(#paint15_linear_22791_99393)"/>
<path d="M250.833 58.6438L249.928 60.1138L249.742 60.0748L249.505 58.3649L249.699 58.4056L249.851 59.5309C249.857 59.5762 249.862 59.6193 249.866 59.6601C249.87 59.7011 249.873 59.7404 249.875 59.7779C249.877 59.8154 249.878 59.8516 249.878 59.8865C249.893 59.8546 249.908 59.8219 249.925 59.7884C249.942 59.7541 249.961 59.7191 249.981 59.6832C250.002 59.6467 250.024 59.6086 250.048 59.569L250.637 58.6027L250.833 58.6438Z" fill="white"/>
<path d="M251.715 60.4891L251.625 59.9433L250.988 59.8095L250.687 60.2732L250.5 60.2339L251.458 58.7681L251.624 58.8031L251.907 60.5293L251.715 60.4891ZM251.604 59.7675L251.524 59.2271C251.522 59.2131 251.519 59.1902 251.515 59.1584C251.512 59.1267 251.509 59.0938 251.505 59.0598C251.502 59.0257 251.499 58.9982 251.497 58.9773C251.483 59.0055 251.469 59.0335 251.454 59.0614C251.44 59.0888 251.426 59.1143 251.413 59.138C251.4 59.161 251.389 59.1805 251.379 59.1967L251.085 59.6583L251.604 59.7675Z" fill="white"/>
<path d="M252.127 60.5756L252.461 58.9857L252.646 59.0245L252.347 60.4491L253.053 60.5974L253.018 60.7627L252.127 60.5756Z" fill="white"/>
<path d="M253.291 60.82L253.625 59.2301L253.81 59.2689L253.476 60.8588L253.291 60.82Z" fill="white"/>
<path d="M255.346 60.4056C255.308 60.5847 255.244 60.7275 255.154 60.8342C255.063 60.9401 254.95 61.0105 254.813 61.0454C254.677 61.0797 254.521 61.0783 254.345 61.0413L253.913 60.9506L254.247 59.3607L254.726 59.4614C254.888 59.4954 255.021 59.5543 255.125 59.6383C255.23 59.7215 255.301 59.8278 255.34 59.957C255.38 60.0857 255.381 60.2352 255.346 60.4056ZM255.15 60.3713C255.18 60.2284 255.18 60.1056 255.152 60.0027C255.125 59.9 255.069 59.8166 254.987 59.7523C254.905 59.6874 254.798 59.641 254.665 59.6132L254.399 59.5572L254.131 60.8307L254.356 60.878C254.575 60.9239 254.751 60.9044 254.883 60.8194C255.016 60.7345 255.105 60.5851 255.15 60.3713Z" fill="white"/>
<path d="M256.596 61.5141L256.41 61.475L256.71 60.0482L256.209 59.9432L256.244 59.78L257.428 60.0288L257.394 60.1919L256.895 60.0873L256.596 61.5141Z" fill="white"/>
<path d="M258.539 61.9222L258.354 61.8834L258.512 61.1341L257.676 60.9587L257.519 61.708L257.334 61.6692L257.668 60.0792L257.853 60.1181L257.711 60.7956L258.546 60.971L258.688 60.2935L258.873 60.3323L258.539 61.9222Z" fill="white"/>
<path d="M259.74 60.5143C259.87 60.5417 259.975 60.5806 260.053 60.6311C260.131 60.681 260.185 60.7433 260.213 60.8181C260.241 60.8929 260.245 60.9814 260.223 61.0836C260.206 61.1677 260.176 61.2349 260.133 61.285C260.091 61.3345 260.042 61.3714 259.985 61.3958C259.928 61.4203 259.87 61.4361 259.81 61.4432L260.096 62.2493L259.881 62.204L259.631 61.4589L259.301 61.3895L259.161 62.0529L258.976 62.014L259.31 60.4241L259.74 60.5143ZM259.695 60.6719L259.462 60.6228L259.333 61.2329L259.586 61.2859C259.716 61.3131 259.816 61.3067 259.888 61.2665C259.961 61.2266 260.008 61.1551 260.03 61.0521C260.053 60.9441 260.036 60.8608 259.98 60.8021C259.925 60.7436 259.83 60.7002 259.695 60.6719Z" fill="white"/>
<path d="M261.888 60.9654L261.672 61.9942C261.648 62.1065 261.604 62.2018 261.54 62.2799C261.477 62.3582 261.394 62.4131 261.292 62.4447C261.19 62.4755 261.07 62.4765 260.933 62.4476C260.736 62.4063 260.598 62.3216 260.517 62.1934C260.437 62.0653 260.416 61.9121 260.453 61.7338L260.669 60.7094L260.855 60.7484L260.638 61.7783C260.61 61.9131 260.624 62.0246 260.679 62.1128C260.736 62.2011 260.835 62.2601 260.977 62.29C261.074 62.3104 261.157 62.3097 261.226 62.2878C261.296 62.2654 261.352 62.2257 261.395 62.1689C261.439 62.1115 261.47 62.0411 261.487 61.9577L261.704 60.9268L261.888 60.9654Z" fill="white"/>
<path d="M252.15 65.8122L251.941 65.7681L251.658 64.9776L251.075 65.5863L250.878 65.545L251.582 64.8276L251.249 63.9628L251.454 64.006L251.718 64.7234L252.251 64.1732L252.446 64.2143L251.796 64.8691L252.15 65.8122Z" fill="white"/>
<path d="M253.438 66.0826L253.228 66.0386L252.946 65.248L252.362 65.8568L252.166 65.8154L252.869 65.098L252.537 64.2333L252.742 64.2764L253.006 64.9938L253.538 64.4436L253.734 64.4847L253.083 65.1395L253.438 66.0826Z" fill="white"/>
<path d="M254.573 64.661L253.648 66.1267L253.47 66.0893L254.396 64.6238L254.573 64.661Z" fill="white"/>
<path d="M255.543 66.5248L255.334 66.4807L255.051 65.6902L254.468 66.2989L254.271 66.2576L254.975 65.5401L254.642 64.6754L254.847 64.7186L255.111 65.436L255.644 64.8858L255.839 64.9269L255.189 65.5816L255.543 66.5248Z" fill="white"/>
<path d="M256.831 66.7952L256.621 66.7511L256.339 65.9606L255.755 66.5693L255.559 66.528L256.262 65.8106L255.93 64.9458L256.135 64.989L256.399 65.7064L256.931 65.1562L257.127 65.1973L256.476 65.8521L256.831 66.7952Z" fill="white"/>
<path d="M249.724 50.1871L249.409 50.121L248.985 48.9351L248.111 49.8483L247.815 49.7863L248.871 48.7101L248.372 47.413L248.68 47.4778L249.076 48.5538L249.874 47.7285L250.168 47.7902L249.192 48.7723L249.724 50.1871Z" fill="white"/>
<path d="M251.655 50.5927L251.34 50.5266L250.917 49.3407L250.042 50.2539L249.747 50.1919L250.802 49.1157L250.303 47.8186L250.611 47.8834L251.007 48.9594L251.805 48.1342L252.099 48.1958L251.123 49.178L251.655 50.5927Z" fill="white"/>
<path d="M253.587 50.9983L253.272 50.9322L252.848 49.7464L251.973 50.6595L251.678 50.5975L252.734 49.5213L252.234 48.2243L252.543 48.289L252.938 49.3651L253.737 48.5398L254.03 48.6015L253.054 49.5836L253.587 50.9983Z" fill="white"/>
<path d="M255.518 51.404L255.203 51.3378L254.78 50.152L253.905 51.0651L253.61 51.0031L254.665 49.927L254.166 48.6299L254.474 48.6946L254.87 49.7707L255.668 48.9454L255.962 49.0071L254.986 49.9892L255.518 51.404Z" fill="white"/>
<path d="M257.449 51.8096L257.135 51.7435L256.711 50.5576L255.836 51.4708L255.541 51.4087L256.596 50.3326L256.097 49.0355L256.406 49.1003L256.801 50.1763L257.6 49.351L257.893 49.4127L256.917 50.3948L257.449 51.8096Z" fill="white"/>
<path d="M260.249 52.3975L259.934 52.3313L259.51 51.1455L258.635 52.0586L258.34 51.9966L259.396 50.9205L258.896 49.6234L259.205 49.6881L259.6 50.7642L260.399 49.9389L260.692 50.0006L259.716 50.9827L260.249 52.3975Z" fill="white"/>
<path d="M262.18 52.8031L261.865 52.737L261.442 51.5511L260.567 52.4643L260.272 52.4022L261.327 51.3261L260.828 50.029L261.136 50.0938L261.532 51.1698L262.33 50.3445L262.624 50.4062L261.648 51.3883L262.18 52.8031Z" fill="white"/>
<path d="M264.112 53.2087L263.797 53.1426L263.373 51.9567L262.498 52.8699L262.203 52.8079L263.258 51.7317L262.759 50.4346L263.068 50.4994L263.463 51.5754L264.262 50.7502L264.555 50.8118L263.579 51.794L264.112 53.2087Z" fill="white"/>
<path d="M266.043 53.6143L265.728 53.5482L265.304 52.3624L264.43 53.2755L264.134 53.2135L265.19 52.1373L264.691 50.8403L264.999 50.905L265.395 51.9811L266.193 51.1558L266.487 51.2174L265.511 52.1996L266.043 53.6143Z" fill="white"/>
<path d="M267.974 54.0199L267.659 53.9538L267.236 52.768L266.361 53.6811L266.066 53.6191L267.121 52.5429L266.622 51.2459L266.93 51.3106L267.326 52.3867L268.124 51.5614L268.418 51.6231L267.442 52.6052L267.974 54.0199Z" fill="white"/>
<path d="M269.906 54.4256L269.591 54.3595L269.167 53.1736L268.292 54.0868L267.997 54.0247L269.053 52.9486L268.553 51.6515L268.862 51.7163L269.257 52.7923L270.056 51.967L270.349 52.0287L269.373 53.0108L269.906 54.4256Z" fill="white"/>
<path d="M271.837 54.8312L271.522 54.7651L271.099 53.5792L270.224 54.4924L269.929 54.4304L270.984 53.3542L270.485 52.0571L270.793 52.1219L271.189 53.1979L271.987 52.3727L272.281 52.4343L271.305 53.4164L271.837 54.8312Z" fill="white"/>
<path d="M273.769 55.2368L273.454 55.1707L273.03 53.9849L272.155 54.898L271.86 54.836L272.915 53.7598L272.416 52.4628L272.725 52.5275L273.12 53.6036L273.919 52.7783L274.212 52.8399L273.236 53.8221L273.769 55.2368Z" fill="white"/>
<path d="M250.812 39.37L250.548 39.3145L250.903 37.6245C250.916 37.5604 250.928 37.5054 250.937 37.4598C250.948 37.4132 250.958 37.371 250.967 37.3332C250.978 37.2945 250.989 37.2554 251 37.2158C250.959 37.2436 250.922 37.2668 250.887 37.2857C250.853 37.3035 250.81 37.3257 250.759 37.3525L250.44 37.5138L250.337 37.2997L251.088 36.9378L251.313 36.9851L250.812 39.37Z" fill="white"/>
<path d="M253.278 39.888L251.716 39.5598L251.763 39.333L252.537 38.8194C252.681 38.7247 252.803 38.639 252.903 38.5624C253.004 38.486 253.085 38.4071 253.147 38.3257C253.208 38.2433 253.25 38.1477 253.273 38.0389C253.302 37.9041 253.283 37.7929 253.217 37.7053C253.153 37.6168 253.056 37.5589 252.925 37.5315C252.811 37.5075 252.706 37.5059 252.609 37.5265C252.513 37.5472 252.411 37.5837 252.304 37.636L252.197 37.4228C252.271 37.3828 252.35 37.3499 252.432 37.3241C252.516 37.2985 252.603 37.2827 252.693 37.2766C252.783 37.2707 252.877 37.2779 252.974 37.2982C253.121 37.3291 253.242 37.3812 253.338 37.4547C253.434 37.5282 253.501 37.6183 253.539 37.725C253.577 37.832 253.583 37.9507 253.556 38.0812C253.529 38.2074 253.48 38.3196 253.407 38.4178C253.334 38.515 253.241 38.6073 253.129 38.695C253.016 38.7815 252.887 38.8714 252.742 38.9645L252.114 39.3727L252.112 39.3841L253.33 39.64L253.278 39.888Z" fill="white"/>
<path d="M255.486 38.4424C255.464 38.5489 255.424 38.637 255.366 38.7067C255.308 38.7763 255.237 38.8283 255.153 38.8628C255.068 38.8962 254.974 38.9122 254.87 38.9108L254.867 38.9238C255.052 38.9875 255.181 39.0782 255.255 39.196C255.33 39.3139 255.351 39.4523 255.317 39.6111C255.288 39.7492 255.23 39.8647 255.142 39.9576C255.056 40.0507 254.939 40.1136 254.793 40.1464C254.648 40.1784 254.471 40.1725 254.263 40.1289C254.137 40.1024 254.022 40.0675 253.919 40.0243C253.817 39.9823 253.721 39.9277 253.633 39.8603L253.687 39.6059C253.776 39.6756 253.875 39.7368 253.985 39.7895C254.096 39.8411 254.206 39.8784 254.315 39.9012C254.532 39.9469 254.698 39.9369 254.813 39.8714C254.928 39.8047 255.001 39.6963 255.033 39.5462C255.055 39.4429 255.045 39.354 255.004 39.2795C254.964 39.2042 254.897 39.1412 254.802 39.0906C254.708 39.0391 254.59 38.9985 254.449 38.9689L254.211 38.9188L254.26 38.6872L254.499 38.7376C254.629 38.7647 254.743 38.7688 254.841 38.7497C254.939 38.7306 255.019 38.6917 255.08 38.633C255.142 38.5734 255.184 38.4963 255.203 38.4017C255.229 38.281 255.208 38.1796 255.141 38.0974C255.075 38.0142 254.972 37.9581 254.834 37.9291C254.75 37.9113 254.671 37.9037 254.597 37.9065C254.524 37.9093 254.454 37.9195 254.386 37.9372C254.319 37.9548 254.251 37.9774 254.181 38.0048L254.083 37.7901C254.185 37.741 254.303 37.705 254.438 37.6824C254.574 37.6597 254.721 37.665 254.879 37.6984C255.123 37.7495 255.294 37.8434 255.393 37.9799C255.491 38.1164 255.522 38.2705 255.486 38.4424Z" fill="white"/>
<path d="M257.337 40.163L256.98 40.088L256.864 40.641L256.6 40.5855L256.716 40.0325L255.562 39.7903L255.61 39.5619L257.085 38.1838L257.368 38.2431L257.031 39.8433L257.389 39.9183L257.337 40.163ZM256.767 39.7878L256.931 39.0081C256.943 38.9483 256.955 38.8945 256.966 38.8469C256.978 38.7982 256.989 38.7534 257 38.7126C257.011 38.6706 257.021 38.6307 257.03 38.5929C257.04 38.5553 257.05 38.5181 257.059 38.4813L257.046 38.4786C257.016 38.5178 256.982 38.559 256.945 38.6022C256.908 38.6446 256.873 38.6819 256.838 38.7143L255.883 39.6021L256.767 39.7878Z" fill="white"/>
<path d="M259.379 39.6465C259.541 39.6806 259.676 39.7379 259.784 39.8184C259.892 39.8979 259.968 39.9967 260.011 40.1148C260.056 40.2332 260.062 40.3668 260.031 40.5158C259.997 40.6789 259.932 40.8124 259.836 40.9161C259.741 41.0187 259.62 41.0881 259.474 41.1244C259.328 41.1596 259.163 41.1578 258.978 41.119C258.854 41.0929 258.741 41.0579 258.639 41.0137C258.537 40.9696 258.454 40.9181 258.39 40.8593L258.444 40.6016C258.514 40.6661 258.602 40.7244 258.709 40.7764C258.816 40.8284 258.923 40.8656 259.03 40.888C259.15 40.9134 259.26 40.9165 259.358 40.8974C259.458 40.8774 259.541 40.8336 259.607 40.7658C259.675 40.6971 259.721 40.603 259.746 40.4833C259.78 40.3246 259.757 40.1919 259.677 40.0855C259.598 39.9782 259.454 39.9024 259.244 39.8584C259.177 39.8442 259.102 39.8341 259.019 39.8281C258.936 39.8221 258.867 39.8201 258.812 39.8222L258.694 39.7037L259.02 38.6038L260.206 38.8529L260.154 39.1008L259.2 38.9004L258.989 39.6071C259.032 39.6071 259.087 39.6096 259.154 39.6146C259.221 39.6185 259.296 39.6292 259.379 39.6465Z" fill="white"/>
<path d="M260.469 40.3337C260.5 40.1902 260.539 40.0519 260.587 39.919C260.637 39.7863 260.698 39.6663 260.77 39.5589C260.843 39.4504 260.93 39.3602 261.031 39.2884C261.133 39.2166 261.25 39.1686 261.383 39.1444C261.518 39.1193 261.672 39.1249 261.845 39.1612C261.894 39.1715 261.946 39.1853 262.001 39.2026C262.057 39.2188 262.102 39.2363 262.137 39.2549L262.088 39.4882C262.051 39.4656 262.007 39.4456 261.956 39.4281C261.906 39.4108 261.855 39.3967 261.803 39.3857C261.601 39.3433 261.432 39.3538 261.297 39.4175C261.163 39.4814 261.055 39.5835 260.972 39.7239C260.89 39.8633 260.825 40.0262 260.778 40.2128L260.795 40.2165C260.841 40.1692 260.894 40.1293 260.955 40.0968C261.017 40.0632 261.087 40.0411 261.167 40.0305C261.247 40.0202 261.337 40.0254 261.436 40.0462C261.575 40.0754 261.69 40.1291 261.782 40.2074C261.874 40.2859 261.938 40.3849 261.972 40.5044C262.007 40.6242 262.008 40.7607 261.976 40.9141C261.941 41.0783 261.881 41.2138 261.795 41.3206C261.709 41.4275 261.603 41.5016 261.476 41.5431C261.35 41.5838 261.21 41.5878 261.054 41.5551C260.938 41.5307 260.835 41.4859 260.747 41.4207C260.658 41.3556 260.587 41.2713 260.533 41.1679C260.479 41.0648 260.446 40.9437 260.433 40.8048C260.421 40.6647 260.433 40.5077 260.469 40.3337ZM261.099 41.326C261.247 41.3571 261.375 41.3347 261.484 41.2588C261.593 41.1829 261.668 41.0493 261.708 40.8579C261.741 40.7013 261.727 40.569 261.667 40.4609C261.607 40.3529 261.497 40.2821 261.337 40.2485C261.228 40.2257 261.129 40.2287 261.039 40.2574C260.949 40.2851 260.875 40.3286 260.816 40.3877C260.757 40.4468 260.72 40.5118 260.705 40.5825C260.69 40.6542 260.685 40.7293 260.69 40.8076C260.696 40.8861 260.715 40.9614 260.745 41.0336C260.775 41.1059 260.819 41.168 260.878 41.22C260.936 41.2719 261.01 41.3073 261.099 41.326Z" fill="white"/>
<path d="M262.451 41.8144L263.878 39.883L262.578 39.6099L262.63 39.362L264.221 39.696L264.177 39.9048L262.748 41.8767L262.451 41.8144Z" fill="white"/>
<path d="M266.218 40.0797C266.356 40.1087 266.474 40.1562 266.572 40.222C266.669 40.2879 266.739 40.3696 266.781 40.4669C266.824 40.5635 266.833 40.6732 266.807 40.7961C266.787 40.8928 266.748 40.9732 266.69 41.0372C266.634 41.1003 266.564 41.1516 266.482 41.1911C266.4 41.2296 266.312 41.261 266.217 41.2853C266.31 41.3536 266.39 41.4256 266.46 41.5015C266.53 41.5775 266.581 41.6603 266.612 41.7497C266.643 41.8392 266.647 41.9383 266.624 42.047C266.596 42.1808 266.539 42.2897 266.453 42.3739C266.369 42.4572 266.263 42.5128 266.136 42.5405C266.008 42.5683 265.866 42.5657 265.71 42.5328C265.541 42.4974 265.403 42.4423 265.295 42.3674C265.188 42.2916 265.114 42.1999 265.072 42.0922C265.031 41.9838 265.025 41.8626 265.053 41.7289C265.076 41.619 265.119 41.5288 265.183 41.4581C265.247 41.3864 265.323 41.3293 265.413 41.2868C265.502 41.2442 265.597 41.2125 265.697 41.1914C265.627 41.1312 265.564 41.0665 265.51 40.9971C265.456 40.9279 265.417 40.8522 265.394 40.7701C265.371 40.687 265.371 40.596 265.391 40.4971C265.417 40.3764 265.469 40.2805 265.547 40.2096C265.627 40.1378 265.725 40.0913 265.84 40.0702C265.957 40.0482 266.083 40.0514 266.218 40.0797ZM265.318 41.7863C265.293 41.9081 265.314 42.0178 265.384 42.1152C265.453 42.2115 265.575 42.278 265.749 42.3145C265.914 42.3492 266.05 42.3369 266.157 42.2776C266.264 42.2171 266.331 42.1228 266.358 41.9944C266.374 41.9151 266.368 41.8411 266.34 41.7726C266.311 41.703 266.264 41.6363 266.198 41.5725C266.132 41.5087 266.051 41.4463 265.956 41.3855L265.902 41.3519C265.793 41.3722 265.698 41.4005 265.616 41.4368C265.536 41.4722 265.471 41.5181 265.421 41.5745C265.37 41.6309 265.336 41.7015 265.318 41.7863ZM266.168 40.3009C266.04 40.2739 265.929 40.2829 265.834 40.3277C265.74 40.3715 265.68 40.451 265.656 40.5663C265.639 40.6489 265.644 40.7232 265.671 40.7891C265.699 40.8541 265.743 40.9144 265.803 40.9701C265.863 41.0248 265.932 41.0784 266.009 41.131C266.099 41.1136 266.181 41.0909 266.254 41.0631C266.327 41.0341 266.388 40.9947 266.437 40.9448C266.486 40.895 266.519 40.8298 266.536 40.7493C266.56 40.634 266.538 40.5374 266.469 40.4594C266.401 40.3816 266.301 40.3287 266.168 40.3009Z" fill="white"/>
<path d="M268.688 41.6952C268.657 41.8398 268.617 41.9785 268.568 42.1111C268.519 42.2441 268.458 42.3646 268.385 42.4729C268.312 42.5814 268.225 42.6715 268.123 42.7434C268.022 42.8152 267.903 42.8635 267.768 42.8884C267.633 42.9123 267.479 42.9062 267.306 42.8699C267.26 42.86 267.207 42.8456 267.149 42.8265C267.09 42.8085 267.043 42.7901 267.007 42.7712L267.056 42.5363C267.094 42.5589 267.139 42.5802 267.191 42.6004C267.244 42.6194 267.296 42.6344 267.349 42.6454C267.552 42.6881 267.721 42.6781 267.856 42.6156C267.99 42.5519 268.099 42.4504 268.182 42.3111C268.265 42.1707 268.329 42.0071 268.375 41.8203L268.356 41.8162C268.312 41.8615 268.259 41.9009 268.196 41.9343C268.135 41.9668 268.064 41.9888 267.983 42.0003C267.903 42.0106 267.812 42.0053 267.712 41.9842C267.574 41.9552 267.459 41.9016 267.368 41.8234C267.278 41.7453 267.215 41.6465 267.18 41.5267C267.146 41.4071 267.145 41.2713 267.177 41.119C267.211 40.9548 267.272 40.8194 267.359 40.7128C267.448 40.6053 267.555 40.5308 267.682 40.4893C267.809 40.4478 267.949 40.4432 268.102 40.4754C268.22 40.5001 268.323 40.545 268.411 40.6101C268.5 40.6752 268.571 40.7599 268.624 40.8642C268.678 40.9676 268.711 41.0886 268.723 41.2274C268.736 41.3663 268.724 41.5222 268.688 41.6952ZM268.054 40.7054C267.909 40.675 267.782 40.6977 267.672 40.7733C267.563 40.8492 267.488 40.9823 267.448 41.1726C267.415 41.3303 267.428 41.4629 267.486 41.5705C267.544 41.6781 267.653 41.7487 267.814 41.7825C267.925 41.8058 268.025 41.8036 268.115 41.776C268.206 41.7485 268.281 41.7051 268.339 41.6457C268.398 41.5866 268.435 41.5211 268.45 41.4493C268.465 41.3775 268.469 41.3024 268.463 41.2239C268.458 41.1456 268.44 41.0709 268.409 40.9998C268.379 40.9276 268.335 40.8654 268.277 40.8135C268.218 40.7604 268.144 40.7244 268.054 40.7054Z" fill="white"/>
<path d="M269.754 43.3481L269.49 43.2926L269.845 41.6026C269.858 41.5385 269.87 41.4836 269.879 41.4379C269.89 41.3914 269.9 41.3492 269.909 41.3113C269.92 41.2726 269.931 41.2335 269.942 41.194C269.901 41.2217 269.864 41.245 269.829 41.2638C269.795 41.2816 269.752 41.3038 269.701 41.3306L269.383 41.492L269.279 41.2778L270.03 40.916L270.255 40.9632L269.754 43.3481Z" fill="white"/>
<path d="M272.485 42.6731C272.444 42.8667 272.393 43.0365 272.332 43.1826C272.27 43.3287 272.197 43.4479 272.112 43.5401C272.027 43.6324 271.928 43.6957 271.816 43.7302C271.705 43.7635 271.579 43.7655 271.439 43.736C271.262 43.6988 271.125 43.6196 271.029 43.4983C270.934 43.3773 270.877 43.2194 270.858 43.0246C270.84 42.829 270.858 42.6017 270.912 42.3429C270.966 42.0884 271.037 41.8752 271.127 41.7032C271.217 41.5304 271.331 41.4072 271.466 41.3335C271.603 41.2587 271.765 41.2412 271.954 41.281C272.134 41.3187 272.271 41.3987 272.367 41.521C272.463 41.6422 272.52 41.8006 272.538 41.9963C272.556 42.1909 272.539 42.4165 272.485 42.6731ZM271.185 42.4001C271.138 42.622 271.116 42.8104 271.119 42.9653C271.121 43.1203 271.152 43.2427 271.212 43.3324C271.273 43.4212 271.365 43.4786 271.487 43.5044C271.61 43.5302 271.717 43.5145 271.807 43.4574C271.899 43.4006 271.977 43.3017 272.042 43.1609C272.107 43.0203 272.164 42.8385 272.211 42.6156C272.257 42.397 272.278 42.2108 272.275 42.0569C272.272 41.9019 272.241 41.7795 272.182 41.6898C272.123 41.599 272.03 41.5405 271.905 41.5142C271.78 41.488 271.672 41.5045 271.582 41.5638C271.491 41.622 271.413 41.7215 271.349 41.8623C271.285 42.0022 271.23 42.1815 271.185 42.4001Z" fill="white"/>
<path d="M274.446 44.3334L274.181 44.2779L274.536 42.5879C274.55 42.5238 274.561 42.4688 274.571 42.4232C274.582 42.3766 274.592 42.3345 274.601 42.2966C274.611 42.2579 274.622 42.2188 274.634 42.1793C274.593 42.207 274.555 42.2303 274.52 42.2491C274.486 42.2669 274.443 42.2891 274.392 42.3159L274.074 42.4772L273.971 42.2631L274.721 41.9012L274.946 41.9485L274.446 44.3334Z" fill="white"/>
<path d="M277.176 43.6584C277.135 43.852 277.084 44.0218 277.023 44.1679C276.962 44.314 276.889 44.4332 276.803 44.5254C276.718 44.6176 276.62 44.681 276.508 44.7154C276.396 44.7488 276.271 44.7508 276.13 44.7213C275.953 44.6841 275.816 44.6048 275.72 44.4836C275.625 44.3626 275.568 44.2047 275.549 44.0099C275.531 43.8142 275.549 43.587 275.604 43.3282C275.657 43.0737 275.729 42.8605 275.818 42.6885C275.909 42.5157 276.022 42.3924 276.158 42.3188C276.294 42.244 276.457 42.2265 276.646 42.2663C276.825 42.3039 276.963 42.3839 277.059 42.5063C277.155 42.6275 277.212 42.7859 277.23 42.9816C277.248 43.1762 277.23 43.4018 277.176 43.6584ZM275.876 43.3854C275.829 43.6072 275.807 43.7956 275.81 43.9506C275.813 44.1056 275.844 44.228 275.903 44.3177C275.964 44.4065 276.056 44.4638 276.179 44.4897C276.302 44.5155 276.408 44.4998 276.499 44.4427C276.59 44.3858 276.668 44.287 276.733 44.1462C276.799 44.0056 276.855 43.8238 276.902 43.6009C276.948 43.3823 276.969 43.196 276.967 43.0422C276.964 42.8872 276.933 42.7648 276.873 42.6751C276.814 42.5843 276.722 42.5258 276.597 42.4995C276.472 42.4733 276.364 42.4898 276.273 42.549C276.183 42.6072 276.105 42.7067 276.04 42.8476C275.977 42.9875 275.922 43.1668 275.876 43.3854Z" fill="white"/>
<path d="M278.269 45.1364L278.005 45.0809L278.36 43.391C278.373 43.3268 278.385 43.2719 278.394 43.2262C278.405 43.1797 278.415 43.1375 278.424 43.0996C278.435 43.0609 278.446 43.0218 278.458 42.9823C278.417 43.01 278.379 43.0333 278.344 43.0521C278.31 43.0699 278.267 43.0921 278.216 43.1189L277.898 43.2803L277.794 43.0661L278.545 42.7043L278.77 42.7515L278.269 45.1364Z" fill="white"/>
<path d="M281 44.4615C280.959 44.655 280.908 44.8249 280.847 44.9709C280.785 45.117 280.712 45.2362 280.627 45.3284C280.542 45.4207 280.443 45.484 280.332 45.5185C280.22 45.5518 280.094 45.5538 279.954 45.5243C279.777 45.4871 279.64 45.4079 279.544 45.2866C279.449 45.1656 279.392 45.0077 279.373 44.8129C279.355 44.6173 279.373 44.39 279.427 44.1312C279.481 43.8767 279.552 43.6635 279.642 43.4915C279.732 43.3187 279.846 43.1955 279.982 43.1218C280.118 43.047 280.28 43.0295 280.47 43.0693C280.649 43.107 280.787 43.187 280.882 43.3093C280.978 43.4305 281.035 43.5889 281.053 43.7846C281.072 43.9792 281.054 44.2048 281 44.4615ZM279.7 44.1884C279.653 44.4103 279.631 44.5987 279.634 44.7537C279.636 44.9086 279.667 45.031 279.727 45.1207C279.788 45.2095 279.88 45.2669 280.003 45.2927C280.125 45.3185 280.232 45.3028 280.322 45.2457C280.414 45.1889 280.492 45.09 280.557 44.9492C280.623 44.8086 280.679 44.6268 280.726 44.4039C280.772 44.1853 280.793 43.9991 280.79 43.8452C280.788 43.6902 280.757 43.5679 280.697 43.4781C280.638 43.3873 280.546 43.3288 280.421 43.3026C280.295 43.2763 280.188 43.2928 280.097 43.3521C280.006 43.4103 279.928 43.5098 279.864 43.6506C279.8 43.7905 279.746 43.9698 279.7 44.1884Z" fill="white"/>
<path d="M282.093 45.9394L281.829 45.8839L282.183 44.194C282.197 44.1298 282.208 44.0749 282.218 44.0292C282.229 43.9827 282.239 43.9405 282.248 43.9027C282.258 43.864 282.27 43.8249 282.281 43.7853C282.24 43.813 282.202 43.8363 282.168 43.8551C282.133 43.8729 282.091 43.8952 282.04 43.9219L281.721 44.0833L281.618 43.8692L282.369 43.5073L282.594 43.5546L282.093 45.9394Z" fill="white"/>
<path d="M284.823 45.2645C284.783 45.4581 284.732 45.6279 284.67 45.774C284.609 45.92 284.536 46.0392 284.451 46.1314C284.365 46.2237 284.267 46.287 284.155 46.3215C284.044 46.3548 283.918 46.3568 283.778 46.3273C283.6 46.2901 283.464 46.2109 283.368 46.0897C283.273 45.9687 283.216 45.8108 283.196 45.616C283.178 45.4203 283.197 45.193 283.251 44.9342C283.304 44.6797 283.376 44.4665 283.465 44.2946C283.556 44.1217 283.669 43.9985 283.805 43.9248C283.941 43.8501 284.104 43.8326 284.293 43.8723C284.473 43.91 284.61 43.99 284.706 44.1123C284.802 44.2335 284.859 44.392 284.877 44.5876C284.895 44.7822 284.877 45.0078 284.823 45.2645ZM283.523 44.9914C283.477 45.2133 283.455 45.4017 283.457 45.5567C283.46 45.7117 283.491 45.834 283.551 45.9237C283.611 46.0126 283.703 46.0699 283.826 46.0957C283.949 46.1215 284.056 46.1059 284.146 46.0488C284.237 45.9919 284.316 45.893 284.38 45.7522C284.446 45.6116 284.503 45.4299 284.549 45.2069C284.595 44.9883 284.617 44.8021 284.614 44.6482C284.611 44.4932 284.58 44.3709 284.521 44.2812C284.461 44.1904 284.369 44.1318 284.244 44.1056C284.119 44.0793 284.011 44.0958 283.92 44.1551C283.83 44.2133 283.752 44.3128 283.687 44.4536C283.624 44.5936 283.569 44.7728 283.523 44.9914Z" fill="white"/>
</g>
<path d="M45.3018 41.5414C46.1694 41.3521 46.9659 41.3626 47.6914 41.5728C48.423 41.7735 49.0328 42.1482 49.5209 42.6968C50.0091 43.2453 50.3409 43.9222 50.5165 44.7272C50.6904 45.5245 50.6658 46.275 50.4426 46.9787C50.2273 47.6807 49.8306 48.2831 49.2524 48.7859C48.6804 49.2791 47.9645 49.6195 47.1047 49.807L43.8336 50.5205L42.0307 42.2549L45.3018 41.5414ZM46.4864 47.8171C47.1586 47.6705 47.6462 47.3717 47.949 46.9208C48.2519 46.4699 48.33 45.9083 48.1834 45.2361C48.0351 44.5561 47.7293 44.0742 47.2662 43.7904C46.8014 43.4988 46.2329 43.4263 45.5607 43.5729L44.7634 43.7468L45.6892 47.991L46.4864 47.8171ZM52.0482 41.1998C51.6417 41.2884 51.2896 41.2506 50.9917 41.0863C50.7 40.9125 50.5175 40.6575 50.4441 40.3214C50.3691 39.9775 50.428 39.6658 50.6209 39.3863C50.8216 39.1051 51.1251 38.9201 51.5316 38.8315C51.9302 38.7445 52.2754 38.7879 52.5671 38.9618C52.8667 39.1339 53.054 39.3919 53.129 39.7358C53.2023 40.0719 53.1386 40.3806 52.938 40.6618C52.7434 40.9335 52.4468 41.1128 52.0482 41.1998ZM53.3184 41.5614L54.7531 48.1387L52.4551 48.64L51.0205 42.0626L53.3184 41.5614ZM58.8818 47.3241C58.2877 47.4537 57.7349 47.4719 57.2233 47.3788C56.7178 47.2762 56.2908 47.0828 55.9422 46.7985C55.5997 46.5048 55.3651 46.1424 55.2384 45.7115L57.466 45.2256C57.5433 45.4299 57.6768 45.5727 57.8665 45.6541C58.0562 45.7356 58.2723 45.7499 58.5146 45.697C58.7021 45.6561 58.8421 45.5846 58.9345 45.4826C59.0269 45.3806 59.0594 45.267 59.0322 45.142C58.9964 44.9778 58.88 44.8763 58.6832 44.8373C58.4864 44.7984 58.1706 44.7772 57.7359 44.7738C57.2465 44.7823 56.8326 44.762 56.4944 44.7129C56.1562 44.6639 55.8409 44.5321 55.5484 44.3175C55.2638 44.1011 55.072 43.7663 54.9731 43.313C54.8879 42.9222 54.9167 42.5474 55.0595 42.1887C55.2007 41.8222 55.454 41.5009 55.8195 41.2246C56.1929 40.9467 56.6687 40.7446 57.2471 40.6185C58.1069 40.4309 58.829 40.4945 59.4135 40.8091C59.998 41.1238 60.4044 41.6165 60.6326 42.2873L58.5574 42.74C58.4722 42.5375 58.3435 42.3977 58.1711 42.3206C58.0049 42.2341 57.8006 42.2172 57.5583 42.2701C57.3707 42.311 57.2337 42.3777 57.1475 42.4702C57.069 42.561 57.0434 42.669 57.0707 42.794C57.1048 42.9504 57.2211 43.0519 57.4197 43.0987C57.6165 43.1376 57.9236 43.1566 58.341 43.1556C58.8399 43.1532 59.2594 43.1805 59.5993 43.2373C59.947 43.2925 60.2688 43.4352 60.5647 43.6654C60.8667 43.8862 61.0697 44.2349 61.1737 44.7117C61.2572 45.0947 61.2189 45.4633 61.0587 45.8176C60.9063 46.1702 60.6426 46.4815 60.2676 46.7517C59.8987 47.0123 59.4367 47.2031 58.8818 47.3241ZM61.6316 43.1871C61.4832 42.5071 61.4944 41.8823 61.6649 41.3129C61.8355 40.7435 62.1411 40.2674 62.5816 39.8847C63.03 39.5004 63.5786 39.2374 64.2273 39.0959C65.0637 38.9135 65.8174 38.9906 66.4886 39.3273C67.1581 39.6562 67.6644 40.2131 68.0075 40.998L65.5689 41.5299C65.3344 41.1307 65.0139 40.9754 64.6075 41.0641C64.3183 41.1272 64.1141 41.2986 63.995 41.5784C63.8821 41.8487 63.8758 42.2144 63.9764 42.6756C64.077 43.1368 64.2358 43.4706 64.4528 43.6771C64.6776 43.8819 64.9346 43.9527 65.2238 43.8897C65.6381 43.7993 65.8648 43.5247 65.9039 43.0658L68.3425 42.5339C68.3557 43.3826 68.1273 44.0997 67.6573 44.6853C67.1873 45.2709 66.5341 45.655 65.6978 45.8374C65.0491 45.9789 64.4408 45.9683 63.8731 45.8055C63.3132 45.6411 62.8371 45.3355 62.4449 44.8888C62.0527 44.4422 61.7816 43.8749 61.6316 43.1871ZM72.9249 44.261C72.2684 44.4042 71.6484 44.3961 71.0651 44.2368C70.4895 44.0757 69.9978 43.7736 69.59 43.3303C69.1822 42.8871 68.9032 42.3215 68.7532 41.6337C68.6049 40.9537 68.6238 40.3272 68.81 39.7544C69.004 39.1799 69.3291 38.6995 69.7853 38.3134C70.2493 37.9256 70.8096 37.6601 71.4662 37.5169C72.1227 37.3737 72.7388 37.3826 73.3143 37.5437C73.8977 37.703 74.3933 38.0043 74.8011 38.4476C75.2168 38.8891 75.4988 39.4499 75.6471 40.1299C75.7954 40.81 75.7734 41.4411 75.5811 42.0235C75.3949 42.5963 75.0698 43.0767 74.6058 43.4645C74.1418 43.8523 73.5815 44.1178 72.9249 44.261ZM72.4902 42.2678C72.8106 42.1979 73.0508 42.0227 73.2107 41.7422C73.3767 41.4522 73.4111 41.0844 73.314 40.6389C73.2168 40.1933 73.0332 39.8772 72.7632 39.6905C72.501 39.502 72.2136 39.4419 71.9009 39.5101C71.5883 39.5783 71.352 39.7526 71.1921 40.0331C71.0322 40.3137 71.0009 40.6767 71.0981 41.1222C71.1969 41.5755 71.3736 41.8973 71.6279 42.0875C71.8823 42.2776 72.1697 42.3377 72.4902 42.2678ZM82.5957 35.1753L84.0304 41.7526L81.7207 42.2564L81.5161 41.3185C81.3855 41.6581 81.1687 41.9592 80.8657 42.2218C80.561 42.4766 80.1859 42.6526 79.7404 42.7498C78.9744 42.9169 78.3141 42.7989 77.7594 42.3958C77.2109 41.9833 76.842 41.3432 76.6528 40.4756L75.8191 36.6534L78.1053 36.1547L78.8751 39.6838C78.9569 40.0589 79.1194 40.3347 79.3625 40.5109C79.6118 40.6776 79.9006 40.7251 80.2288 40.6535C80.5649 40.5802 80.8077 40.4167 80.957 40.1631C81.1047 39.9016 81.1376 39.5833 81.0558 39.2081L80.286 35.6791L82.5957 35.1753ZM88.1936 33.8928C88.9517 33.7275 89.609 33.8502 90.1653 34.2611C90.72 34.6641 91.0911 35.2956 91.2786 36.1553L92.1149 39.9892L89.8169 40.4904L89.0471 36.9614C88.9653 36.5862 88.8037 36.3144 88.5622 36.146C88.3191 35.9698 88.0334 35.9175 87.7051 35.9891C87.3612 36.0641 87.1154 36.2324 86.9677 36.4938C86.8183 36.7475 86.7846 37.0619 86.8664 37.4371L87.6362 40.9661L85.3382 41.4674L83.9035 34.89L86.2015 34.3888L86.4061 35.3267C86.5445 34.9854 86.7661 34.6873 87.0708 34.4325C87.3738 34.1699 87.748 33.99 88.1936 33.8928ZM96.8295 36.9097L97.2565 38.8677L96.26 39.0851C94.5795 39.4516 93.5577 38.8025 93.1945 37.1376L92.7214 34.9686L91.9124 35.1451L91.4956 33.234L92.3046 33.0575L91.9568 31.463L94.2665 30.9592L94.6143 32.5537L95.8101 32.2929L96.227 34.204L95.0311 34.4648L95.5119 36.669C95.5511 36.8487 95.6183 36.9692 95.7135 37.0303C95.8166 37.0897 95.9658 37.0981 96.1612 37.0555L96.8295 36.9097ZM105.166 30.2891L101.648 31.0563L101.932 32.3577C102.047 32.1689 102.223 31.9996 102.46 31.8495C102.698 31.6994 102.973 31.5903 103.285 31.5221C103.848 31.3994 104.345 31.426 104.777 31.6021C105.216 31.7765 105.571 32.0552 105.843 32.438C106.115 32.8209 106.306 33.2624 106.415 33.7627C106.616 34.685 106.513 35.469 106.105 36.1148C105.695 36.7527 105.026 37.1731 104.095 37.376C103.447 37.5175 102.86 37.5308 102.335 37.4159C101.817 37.2916 101.389 37.0573 101.052 36.7133C100.715 36.3692 100.486 35.9401 100.366 35.4259L102.605 34.9375C102.668 35.1121 102.78 35.2514 102.942 35.3553C103.104 35.4592 103.314 35.483 103.572 35.4267C103.846 35.3671 104.032 35.2281 104.132 35.0098C104.232 34.7915 104.248 34.5261 104.179 34.2134C104.113 33.9086 103.988 33.6942 103.806 33.5703C103.621 33.4385 103.389 33.4033 103.107 33.4647C102.896 33.5107 102.736 33.603 102.627 33.7414C102.524 33.8703 102.478 34.0154 102.489 34.1769L100.249 34.6653L99.119 29.4832L104.723 28.2607L105.166 30.2891ZM107.076 32.1076C106.783 30.7632 106.826 29.6445 107.204 28.7513C107.582 27.8582 108.358 27.2837 109.53 27.028C110.703 26.7723 111.647 26.9716 112.363 27.6261C113.087 28.2788 113.595 29.2774 113.888 30.6218C114.185 31.9818 114.144 33.1084 113.766 34.0016C113.387 34.8947 112.608 35.47 111.428 35.7274C110.248 35.9849 109.299 35.7864 108.584 35.1319C107.875 34.4757 107.373 33.4677 107.076 32.1076ZM111.614 31.1179C111.46 30.4145 111.269 29.8953 111.041 29.5603C110.81 29.2175 110.465 29.0964 110.003 29.197C109.542 29.2976 109.278 29.5517 109.212 29.9592C109.143 30.359 109.186 30.9106 109.339 31.6141C109.496 32.3331 109.686 32.8649 109.908 33.2094C110.137 33.5444 110.486 33.6607 110.955 33.5584C111.424 33.4561 111.688 33.206 111.749 32.8079C111.816 32.4004 111.771 31.837 111.614 31.1179ZM114.202 28.5021C114.058 27.8378 114.134 27.2888 114.433 26.8552C114.731 26.4217 115.185 26.1384 115.795 26.0054C116.397 25.8741 116.924 25.9434 117.376 26.2133C117.827 26.4832 118.126 26.9504 118.271 27.6147C118.414 28.2713 118.337 28.8203 118.04 29.2617C117.742 29.6952 117.292 29.9776 116.69 30.1089C116.088 30.2402 115.557 30.1717 115.098 29.9036C114.644 29.6258 114.346 29.1587 114.202 28.5021ZM122.107 24.7636L119.472 34.022L117.268 34.5027L119.903 25.2444L122.107 24.7636ZM116.077 27.3563C115.757 27.4262 115.648 27.6956 115.75 28.1646C115.852 28.6335 116.064 28.8331 116.384 28.7632C116.541 28.7291 116.649 28.644 116.709 28.508C116.778 28.3703 116.786 28.1842 116.735 27.9498C116.684 27.7153 116.599 27.5496 116.479 27.4528C116.368 27.3544 116.234 27.3222 116.077 27.3563ZM121.102 31.6399C120.958 30.9833 121.036 30.4383 121.335 30.0047C121.639 29.5616 122.092 29.2745 122.694 29.1432C123.296 29.0119 123.82 29.086 124.266 29.3654C124.717 29.6353 125.015 30.0985 125.158 30.7551C125.303 31.4194 125.227 31.9723 124.931 32.4137C124.64 32.8456 124.194 33.1271 123.592 33.2584C122.99 33.3897 122.459 33.3212 121.999 33.053C121.546 32.7753 121.247 32.3043 121.102 31.6399ZM122.977 30.494C122.648 30.5656 122.535 30.8359 122.638 31.3049C122.742 31.7817 122.958 31.9843 123.286 31.9127C123.434 31.8803 123.539 31.7961 123.599 31.6601C123.666 31.5146 123.674 31.3246 123.622 31.0901C123.573 30.8634 123.489 30.7017 123.369 30.6049C123.256 30.4986 123.125 30.4616 122.977 30.494Z" fill="white"/>
</g>
<defs>
<filter id="filter0_d_22791_99393" x="171.534" y="50.6475" width="87.8629" height="59.8184" filterUnits="userSpaceOnUse" color-interpolation-filters="sRGB">
<feFlood flood-opacity="0" result="BackgroundImageFix"/>
<feColorMatrix in="SourceAlpha" type="matrix" values="0 0 0 0 0 0 0 0 0 0 0 0 0 0 0 0 0 0 127 0" result="hardAlpha"/>
<feOffset dy="4"/>
<feGaussianBlur stdDeviation="2"/>
<feComposite in2="hardAlpha" operator="out"/>
<feColorMatrix type="matrix" values="0 0 0 0 0 0 0 0 0 0 0 0 0 0 0 0 0 0 0.25 0"/>
<feBlend mode="normal" in2="BackgroundImageFix" result="effect1_dropShadow_22791_99393"/>
<feBlend mode="normal" in="SourceGraphic" in2="effect1_dropShadow_22791_99393" result="shape"/>
</filter>
<filter id="filter1_d_22791_99393" x="235.741" y="27.0469" width="90.4294" height="66.2363" filterUnits="userSpaceOnUse" color-interpolation-filters="sRGB">
<feFlood flood-opacity="0" result="BackgroundImageFix"/>
<feColorMatrix in="SourceAlpha" type="matrix" values="0 0 0 0 0 0 0 0 0 0 0 0 0 0 0 0 0 0 127 0" result="hardAlpha"/>
<feOffset dy="4"/>
<feGaussianBlur stdDeviation="2"/>
<feComposite in2="hardAlpha" operator="out"/>
<feColorMatrix type="matrix" values="0 0 0 0 0 0 0 0 0 0 0 0 0 0 0 0 0 0 0.25 0"/>
<feBlend mode="normal" in2="BackgroundImageFix" result="effect1_dropShadow_22791_99393"/>
<feBlend mode="normal" in="SourceGraphic" in2="effect1_dropShadow_22791_99393" result="shape"/>
</filter>
<linearGradient id="paint0_linear_22791_99393" x1="111" y1="-42.5" x2="249" y2="168.5" gradientUnits="userSpaceOnUse">
<stop stop-color="#877CE0"/>
<stop offset="1" stop-color="#7977C7"/>
</linearGradient>
<linearGradient id="paint1_linear_22791_99393" x1="235" y1="87" x2="235" y2="110" gradientUnits="userSpaceOnUse">
<stop stop-color="white" stop-opacity="0.64"/>
<stop offset="1" stop-color="white" stop-opacity="0.16"/>
</linearGradient>
<linearGradient id="paint2_linear_22791_99393" x1="319.775" y1="0.924347" x2="319.775" y2="39.0883" gradientUnits="userSpaceOnUse">
<stop stop-color="white" stop-opacity="0.67"/>
<stop offset="0.942708" stop-color="white" stop-opacity="0"/>
</linearGradient>
<linearGradient id="paint3_linear_22791_99393" x1="46.6892" y1="-0.763396" x2="52.7955" y2="36.9089" gradientUnits="userSpaceOnUse">
<stop stop-color="white" stop-opacity="0.67"/>
<stop offset="0.942708" stop-color="white" stop-opacity="0"/>
</linearGradient>
<linearGradient id="paint4_linear_22791_99393" x1="83.892" y1="103.312" x2="83.892" y2="137.835" gradientUnits="userSpaceOnUse">
<stop stop-color="#6EB1EF"/>
<stop offset="1" stop-color="#7E90F2"/>
</linearGradient>
<linearGradient id="paint5_linear_22791_99393" x1="83.8919" y1="103.312" x2="83.8919" y2="137.835" gradientUnits="userSpaceOnUse">
<stop stop-color="white" stop-opacity="0.36"/>
<stop offset="1" stop-color="#7E90F2"/>
</linearGradient>
<linearGradient id="paint6_linear_22791_99393" x1="201.294" y1="98" x2="201.294" y2="142.814" gradientUnits="userSpaceOnUse">
<stop stop-color="#6BABF0"/>
<stop offset="1" stop-color="#A8C5F6"/>
</linearGradient>
<linearGradient id="paint7_linear_22791_99393" x1="201.294" y1="98" x2="201.294" y2="142.814" gradientUnits="userSpaceOnUse">
<stop stop-color="white"/>
<stop offset="1" stop-color="#A8C5F6"/>
</linearGradient>
<linearGradient id="paint8_linear_22791_99393" x1="198.014" y1="60.4469" x2="234.738" y2="87.6655" gradientUnits="userSpaceOnUse">
<stop stop-color="white" stop-opacity="0.39"/>
<stop offset="0.950677" stop-color="#E8E8EC" stop-opacity="0.24"/>
</linearGradient>
<linearGradient id="paint9_linear_22791_99393" x1="214.959" y1="71.4611" x2="215.803" y2="79.9535" gradientUnits="userSpaceOnUse">
<stop stop-color="#9A94F2"/>
<stop offset="1" stop-color="#9A94F2" stop-opacity="0.65"/>
</linearGradient>
<linearGradient id="paint10_linear_22791_99393" x1="237.257" y1="82.9682" x2="238.213" y2="92.5929" gradientUnits="userSpaceOnUse">
<stop stop-color="#F12222" stop-opacity="0.66"/>
<stop offset="1" stop-color="#F12222" stop-opacity="0"/>
</linearGradient>
<linearGradient id="paint11_linear_22791_99393" x1="244.051" y1="82.2934" x2="245.007" y2="91.9181" gradientUnits="userSpaceOnUse">
<stop stop-color="#FFE15B" stop-opacity="0.51"/>
<stop offset="1" stop-color="#FFE15B" stop-opacity="0"/>
</linearGradient>
<linearGradient id="paint12_linear_22791_99393" x1="269.168" y1="35.5463" x2="295.985" y2="72.5641" gradientUnits="userSpaceOnUse">
<stop stop-color="white" stop-opacity="0.39"/>
<stop offset="0.950677" stop-color="#E8E8EC" stop-opacity="0.24"/>
</linearGradient>
<linearGradient id="paint13_linear_22791_99393" x1="282.008" y1="51.154" x2="280.254" y2="59.5059" gradientUnits="userSpaceOnUse">
<stop stop-color="#9A94F2"/>
<stop offset="1" stop-color="#9A94F2" stop-opacity="0.65"/>
</linearGradient>
<linearGradient id="paint14_linear_22791_99393" x1="299.803" y1="68.8436" x2="297.815" y2="78.3092" gradientUnits="userSpaceOnUse">
<stop stop-color="#F12222" stop-opacity="0.66"/>
<stop offset="1" stop-color="#F12222" stop-opacity="0"/>
</linearGradient>
<linearGradient id="paint15_linear_22791_99393" x1="306.484" y1="70.2469" x2="304.496" y2="79.7125" gradientUnits="userSpaceOnUse">
<stop stop-color="#FFE15B" stop-opacity="0.51"/>
<stop offset="1" stop-color="#FFE15B" stop-opacity="0"/>
</linearGradient>
<clipPath id="clip0_22791_99393">
<rect width="340" height="137" rx="8" fill="white"/>
</clipPath>
</defs>
</svg>
