<svg width="352" height="155" viewBox="0 0 352 155" fill="none" xmlns="http://www.w3.org/2000/svg">
<g opacity="0.4">
<path d="M311.362 154.301H41.3711L0.732422 150.886C58.835 96.1066 117.681 69.6991 179.057 69.6991C236.121 69.6991 317.353 103.64 351.267 150.886L311.362 154.301Z" fill="url(#paint0_linear_25802_614)" style="mix-blend-mode:screen"/>
<path style="mix-blend-mode:screen" fill-rule="evenodd" clip-rule="evenodd" d="M239.97 89.8982C239.578 92.8854 233.448 94.379 226.284 93.241C219.155 92.1031 213.702 88.7247 214.13 85.7375C214.522 82.7503 220.652 81.2567 227.781 82.3946C234.945 83.5326 240.398 86.8755 239.97 89.8982ZM122.172 85.9153C123.206 88.7602 118.537 93.3122 111.801 96.086C105.064 98.8598 98.7911 98.8242 97.7574 95.9793C96.7594 93.1699 101.429 88.618 108.165 85.8441C114.901 83.0703 121.174 83.1059 122.172 85.9153ZM140.992 91.0362C141.669 93.0632 138.283 96.2282 133.4 98.113C128.552 99.9622 124.061 99.82 123.384 97.793C122.707 95.7659 126.093 92.6009 130.976 90.7161C135.823 88.8669 140.314 89.0092 140.992 91.0362ZM149.332 76.4202C149.795 77.9494 147.158 80.2254 143.487 81.47C139.815 82.6791 136.501 82.4658 136.037 80.901C135.574 79.3719 138.211 77.1315 141.883 75.8868C145.554 74.6421 148.869 74.8555 149.332 76.4202ZM264.991 99.2154C264.385 100.673 261.035 100.531 257.506 98.8598C253.978 97.1528 251.625 94.5924 252.231 93.1343C252.837 91.6407 256.188 91.8186 259.716 93.49C263.245 95.1614 265.597 97.7218 264.991 99.2154ZM250.485 104.123C250.307 105.937 246.635 106.968 242.287 106.435C237.939 105.901 234.588 103.981 234.767 102.167C234.98 100.353 238.652 99.2866 243 99.8556C247.348 100.389 250.699 102.309 250.485 104.123Z" fill="url(#paint1_radial_25802_614)"/>
<path style="mix-blend-mode:screen" fill-rule="evenodd" clip-rule="evenodd" d="M113.868 95.872C110.803 97.1522 107.809 97.8279 105.35 97.9346C107.346 97.6145 109.555 97.01 111.801 96.0854C118.537 93.3116 123.206 88.7596 122.173 85.9147C121.638 84.3855 119.535 83.6743 116.648 83.781C120.569 83.1764 123.598 83.8521 124.24 85.7369C125.274 88.5463 120.605 93.0982 113.868 95.872ZM143.059 90.8222C143.736 92.8848 140.35 96.0498 135.467 97.899C133.293 98.7525 131.155 99.1793 129.408 99.2148C130.656 99.0015 132.01 98.6458 133.4 98.1124C138.283 96.2276 141.669 93.0626 140.992 91.0356C140.6 89.9332 139.103 89.3642 137.036 89.3997C140.137 88.9019 142.56 89.3642 143.059 90.8222ZM221.9 82.0384C224.181 81.6828 226.926 81.7184 229.884 82.1807C237.012 83.3187 242.466 86.697 242.038 89.6842C241.753 91.7824 238.616 93.1693 234.268 93.3827C237.511 92.8848 239.721 91.6401 239.971 89.8976C240.398 86.8748 234.945 83.532 227.781 82.394C225.714 82.0384 223.718 81.9317 221.9 82.0384ZM267.059 99.0015C266.738 99.7838 265.633 100.104 264.101 99.9972C264.528 99.8194 264.849 99.5704 264.992 99.2148C265.598 97.7212 263.245 95.1608 259.717 93.4894C258.077 92.707 256.473 92.2803 255.19 92.138C256.509 91.6046 259.111 92.0313 261.784 93.276C265.312 94.983 267.665 97.5434 267.059 99.0015ZM252.552 103.909C252.41 105.331 250.093 106.292 247.028 106.363C249.024 106.007 250.378 105.189 250.485 104.122C250.699 102.309 247.349 100.388 243 99.8549C242.074 99.7127 241.147 99.6771 240.327 99.7127C241.682 99.4638 243.321 99.4282 245.068 99.6416C249.416 100.175 252.766 102.095 252.552 103.909ZM151.4 76.2063C151.863 77.7354 149.261 80.0114 145.59 81.2561C143.986 81.7895 142.489 82.0384 141.206 82.0384C141.942 81.9199 142.703 81.7302 143.487 81.4694C147.158 80.2248 149.796 77.9488 149.332 76.4196C149.083 75.5306 147.871 75.0683 146.231 75.0683C148.905 74.606 151.043 74.9972 151.4 76.2063Z" fill="url(#paint2_radial_25802_614)"/>
<path opacity="0.5" d="M242.286 106.433C240.219 106.184 238.401 105.615 237.047 104.904C238.544 104.192 241.003 103.908 243.712 104.264C245.779 104.513 247.597 105.081 248.951 105.793C247.454 106.504 244.995 106.788 242.286 106.433Z" fill="url(#paint3_radial_25802_614)"/>
<path opacity="0.5" d="M226.284 93.2391C221.543 92.4923 217.551 90.7498 215.52 88.7939C217.373 86.7313 222.577 85.8423 228.529 86.8024C233.269 87.5492 237.261 89.2918 239.293 91.2477C237.44 93.3103 232.236 94.1993 226.284 93.2391Z" fill="url(#paint4_radial_25802_614)"/>
<path opacity="0.5" d="M260.43 97.8988C261.749 98.5389 262.925 99.2857 263.816 100.068C262.426 100.459 260.002 100.032 257.507 98.8589C256.188 98.2188 255.048 97.472 254.121 96.6896C255.547 96.2985 257.935 96.7252 260.43 97.8988Z" fill="url(#paint5_radial_25802_614)"/>
<path opacity="0.5" d="M108.878 90.2514C114.189 88.0466 119.214 87.6199 121.602 88.9356C120.141 91.3894 116.47 94.1633 111.8 96.0836C106.49 98.2529 101.464 98.7152 99.0762 97.3994C100.538 94.9456 104.209 92.1718 108.878 90.2514Z" fill="url(#paint6_radial_25802_614)"/>
<path opacity="0.5" d="M147.372 79.5125C146.338 80.2593 145.019 80.935 143.487 81.4684C141.74 82.0374 140.065 82.2864 138.746 82.2508C139.744 81.504 141.063 80.7928 142.595 80.2949C144.342 79.6904 146.053 79.4414 147.372 79.5125Z" fill="url(#paint7_radial_25802_614)"/>
<path opacity="0.5" d="M131.689 95.1603C134.897 93.9156 137.962 93.56 139.851 94.0579C138.497 95.5159 136.216 97.0451 133.4 98.1119C130.192 99.3566 127.162 99.6767 125.273 99.2144C126.592 97.7208 128.873 96.2272 131.689 95.1603Z" fill="url(#paint8_radial_25802_614)"/>
<path opacity="0.3" d="M118.215 99.2152C118.536 100.318 116.611 101.989 113.902 102.914C111.158 103.838 108.699 103.66 108.378 102.522C108.021 101.42 109.982 99.7486 112.691 98.824C115.399 97.8994 117.894 98.0772 118.215 99.2152Z" fill="url(#paint9_radial_25802_614)"/>
<path opacity="0.3" d="M219.974 78.3399C219.796 79.5134 217.408 80.118 214.592 79.6912C211.741 79.2645 209.566 77.9842 209.745 76.8107C209.887 75.6372 212.311 75.0326 215.127 75.4594C217.942 75.8861 220.116 77.1663 219.974 78.3399Z" fill="url(#paint10_radial_25802_614)"/>
<path opacity="0.3" d="M279.142 102.06C278.571 103.091 276.148 102.593 273.688 100.993C271.265 99.3929 269.768 97.2948 270.338 96.2635C270.908 95.2677 273.332 95.7656 275.756 97.3303C278.215 98.9306 279.712 101.064 279.142 102.06Z" fill="url(#paint11_radial_25802_614)"/>
<path opacity="0.3" d="M226.676 79.5502C226.64 80.0481 225.607 80.3326 224.395 80.1548C223.219 79.9769 222.292 79.408 222.363 78.9101C222.399 78.4122 223.433 78.1633 224.644 78.3411C225.821 78.5189 226.747 79.0523 226.676 79.5502Z" fill="url(#paint12_radial_25802_614)"/>
<path opacity="0.3" d="M238.366 96.4409C238.295 96.9388 237.261 97.1878 236.085 97.0099C234.873 96.8321 233.946 96.2987 234.018 95.8008C234.089 95.303 235.122 95.0185 236.299 95.1963C237.51 95.3741 238.437 95.9431 238.366 96.4409Z" fill="url(#paint13_radial_25802_614)"/>
<path opacity="0.3" d="M249.699 85.24C249.664 85.7379 248.63 85.9868 247.418 85.809C246.242 85.6312 245.315 85.0978 245.387 84.5999C245.422 84.102 246.456 83.8531 247.668 84.0309C248.844 84.2087 249.771 84.7422 249.699 85.24Z" fill="url(#paint14_radial_25802_614)"/>
<path opacity="0.3" d="M259.251 102.7C259.108 103.162 258.039 103.127 256.898 102.664C255.793 102.167 255.009 101.42 255.187 100.958C255.366 100.495 256.399 100.495 257.54 100.993C258.68 101.455 259.429 102.238 259.251 102.7Z" fill="url(#paint15_radial_25802_614)"/>
<path opacity="0.3" d="M256.757 89.2932C256.579 90.0756 254.904 90.2534 253.015 89.7199C251.126 89.1865 249.771 88.0841 249.985 87.3373C250.163 86.5549 251.839 86.3771 253.728 86.9105C255.581 87.444 256.971 88.5108 256.757 89.2932Z" fill="url(#paint16_radial_25802_614)"/>
<path opacity="0.3" d="M221.722 94.5217C221.579 95.3396 219.939 95.6952 218.015 95.3752C216.09 95.0551 214.629 94.1305 214.771 93.3481C214.878 92.5302 216.518 92.1746 218.443 92.4946C220.367 92.8503 221.829 93.7393 221.722 94.5217Z" fill="url(#paint17_radial_25802_614)"/>
<path opacity="0.3" d="M144.411 84.67C144.554 85.3812 143.342 86.3414 141.631 86.8037C139.956 87.266 138.423 87.0882 138.281 86.3769C138.102 85.6657 139.35 84.7055 141.025 84.2432C142.736 83.7809 144.233 83.9587 144.411 84.67Z" fill="url(#paint18_radial_25802_614)"/>
<path opacity="0.3" d="M142.666 98.0054C142.808 98.7167 141.596 99.6413 139.885 100.104C138.21 100.601 136.678 100.388 136.499 99.7124C136.357 99.0012 137.604 98.041 139.279 97.5787C140.99 97.1164 142.487 97.2942 142.666 98.0054Z" fill="url(#paint19_radial_25802_614)"/>
<path opacity="0.3" d="M146.124 94.7338C146.231 95.1961 145.483 95.7651 144.413 96.0496C143.38 96.3696 142.417 96.2274 142.311 95.8006C142.204 95.3739 142.988 94.7693 144.057 94.4848C145.091 94.2003 146.053 94.307 146.124 94.7338Z" fill="url(#paint20_radial_25802_614)"/>
<path opacity="0.3" d="M135.716 77.1666C135.823 77.6289 135.075 78.1979 134.005 78.518C132.936 78.8025 132.009 78.6602 131.902 78.2335C131.795 77.8067 132.58 77.2022 133.613 76.9177C134.682 76.6332 135.609 76.7399 135.716 77.1666Z" fill="url(#paint21_radial_25802_614)"/>
<path opacity="0.3" d="M122.349 94.7338C122.456 95.1961 121.707 95.7651 120.638 96.0496C119.569 96.3696 118.642 96.2274 118.535 95.8006C118.428 95.3739 119.212 94.7693 120.246 94.4848C121.315 94.2003 122.242 94.307 122.349 94.7338Z" fill="url(#paint22_radial_25802_614)"/>
<path opacity="0.3" d="M159.098 82.8559C159.419 83.9583 157.494 85.6298 154.75 86.5544C152.041 87.479 149.581 87.3012 149.261 86.1632C148.904 85.0608 150.865 83.3894 153.573 82.4647C156.282 81.5401 158.777 81.7179 159.098 82.8559Z" fill="url(#paint23_radial_25802_614)"/>
<path opacity="0.3" d="M163.232 78.3757C163.339 78.838 162.59 79.407 161.521 79.6915C160.452 80.0116 159.525 79.8693 159.418 79.4426C159.311 79.0158 160.095 78.4113 161.129 78.1268C162.198 77.8423 163.125 77.949 163.232 78.3757Z" fill="url(#paint24_radial_25802_614)"/>
<path opacity="0.3" d="M123.099 80.6177C123.206 81.0444 122.422 81.6134 121.388 81.9335C120.319 82.218 119.392 82.1113 119.286 81.649C119.179 81.2223 119.927 80.6177 120.996 80.3332C122.066 80.0487 122.992 80.1554 123.099 80.6177Z" fill="url(#paint25_radial_25802_614)"/>
</g>
<path d="M249.64 57.5632C247.57 57.1197 244.84 58.7861 243.491 61.3019L247.952 87.7027C251.266 93.2515 261.446 90.9199 260.718 84.4029C259.322 71.8878 253.123 57.1548 249.64 57.5632Z" fill="url(#paint26_linear_25802_614)"/>
<path d="M259.23 95.8585C257.921 94.8416 256.427 92.0729 256.427 92.0729L259.918 89.4617C259.918 89.4617 262.152 91.6861 262.722 93.2473C263.834 96.2899 265.535 100.9 265.535 100.9C265.535 100.9 261.583 97.6857 259.23 95.8585Z" fill="#FF5050"/>
<path d="M259.172 95.1226C258.1 94.2897 256.876 92.0229 256.876 92.0229L259.733 89.8865C259.733 89.8865 261.562 91.708 262.029 92.9862C262.939 95.4771 263.095 97.4155 263.095 97.4155C263.095 97.4155 261.098 96.619 259.172 95.1226Z" fill="#FFBE71"/>
<path d="M258.824 93.5934C258.145 93.0739 257.381 91.645 257.381 91.645L259.23 90.2626C259.23 90.2626 260.385 91.4033 260.673 92.211C261.234 93.7851 261.317 95.0149 261.317 95.0149C261.317 95.0149 260.045 94.5267 258.824 93.5934Z" fill="#FFD873"/>
<path d="M253.522 88.7382C252.772 86.2519 255.014 84.0728 257.549 86.0846L260.804 89.2C261.687 90.0204 256.4 93.6801 255.839 92.8225L253.522 88.7382Z" fill="url(#paint27_linear_25802_614)"/>
<path d="M257.495 78.7792C255.657 72.3363 254.02 69.1333 250.491 63.8234C249.178 63.8234 250.638 78.7792 251.658 78.7792C254.089 79.8644 258.079 80.3921 257.495 78.7792Z" fill="url(#paint28_linear_25802_614)"/>
<path d="M293.524 31.4394C292.277 32.5589 295.175 33.5656 295.666 35.1806C296.307 37.2911 293.497 41.0053 295.666 40.8359C296.639 40.7599 297.237 40.3339 297.808 39.5308C298.892 38.0071 297.249 36.6508 296.78 34.8326C296.391 33.3246 297.138 31.4468 295.666 31.0044C294.848 30.7585 294.163 30.8656 293.524 31.4394Z" fill="#AA48AF" stroke="black" stroke-width="0.251408"/>
<path d="M287.487 21.4051C287.333 22.4117 288.686 22.4518 289.172 23.3364C289.555 24.0329 289.216 24.8059 289.846 25.2677C290.387 25.6641 290.95 25.7722 291.531 25.4432C292.557 24.8628 291.26 23.4075 290.436 22.5463C289.569 21.6397 287.68 20.1411 287.487 21.4051Z" fill="#AA48AF" stroke="black" stroke-width="0.251408"/>
<path d="M279.701 43.8824C279.701 43.8824 279.457 43.2031 279.635 42.9984C279.813 42.7937 279.955 42.7114 280.071 42.6584L281.124 45.2882C281.259 45.6132 281.392 46.1013 280.852 46.0811C280.935 45.8789 281.003 45.3156 280.609 44.6802C280.215 44.0447 279.84 43.8836 279.701 43.8824Z" fill="#C54E19"/>
<path d="M199.72 48.6133C199.788 49.3024 200.4 49.805 201.086 49.7359C201.772 49.6668 202.274 49.0523 202.205 48.3632C202.137 47.6742 201.526 47.1716 200.839 47.2407C200.153 47.3097 199.652 47.9243 199.72 48.6133Z" fill="#72A2EA"/>
<path d="M189.779 47.3785C189.847 48.0675 190.458 48.5701 191.145 48.5011C191.831 48.432 192.332 47.8174 192.264 47.1284C192.196 46.4393 191.584 45.9367 190.898 46.0058C190.212 46.0749 189.711 46.6894 189.779 47.3785Z" fill="#72A2EA"/>
<path d="M209.576 35.8992C209.169 35.8251 208.749 35.8782 208.373 36.0512L206.608 36.8626C206.597 36.8679 206.586 36.8744 206.575 36.8797C206.563 36.885 206.551 36.889 206.539 36.8943L206.524 36.9015C206.505 36.9099 206.486 36.8873 206.466 36.8846L187.59 34.2604C187.522 34.2509 187.474 34.1875 187.484 34.1189L187.57 33.5028C187.579 33.4342 187.642 33.3863 187.711 33.3958L205.819 35.9133C206.203 35.9666 206.594 35.9082 206.946 35.745L208.821 34.8746C208.829 34.86 208.814 34.8732 208.821 34.8746L211.683 35.3955C211.701 35.3987 211.706 35.4566 211.693 35.5247L211.582 36.1368C211.569 36.2049 211.545 36.2575 211.527 36.2543L209.576 35.8992Z" fill="url(#paint29_linear_25802_614)"/>
<path d="M198.55 44.7155C198.458 44.6813 198.355 44.7287 198.321 44.8214L197.273 47.8971L188.182 46.8247C188.084 46.8132 187.996 46.8834 187.984 46.9815C187.972 47.0797 188.042 47.1686 188.14 47.1801L201.304 48.7329C201.401 48.7444 201.49 48.6742 201.502 48.5761C201.513 48.4779 201.443 48.389 201.346 48.3775L200.789 48.3119L201.885 45.3411C201.919 45.2484 201.872 45.1455 201.78 45.1113C201.687 45.0771 201.585 45.1245 201.551 45.2172L200.425 48.2689L197.635 47.9398L198.655 44.9452C198.689 44.8525 198.642 44.7497 198.55 44.7155Z" fill="#5A89CE"/>
<path fill-rule="evenodd" clip-rule="evenodd" d="M189.338 43.5537L202.296 45.36C202.424 45.3779 202.554 45.351 202.665 45.2838C202.776 45.2166 202.86 45.1133 202.904 44.9912L205.843 36.806L188.261 34.3551L188.854 43.0327C188.863 43.1622 188.916 43.2846 189.004 43.3795C189.092 43.4744 189.21 43.5359 189.338 43.5537ZM191.784 42.2569L191.352 42.2899C191.283 42.2952 191.223 42.2433 191.218 42.1741L190.793 36.4979C190.787 36.4287 190.839 36.3683 190.908 36.363L191.34 36.33C191.409 36.3247 191.469 36.3765 191.474 36.4458L191.899 42.122C191.904 42.1912 191.853 42.2516 191.784 42.2569ZM193.551 42.6144L193.984 42.6041C194.053 42.6025 194.108 42.5449 194.106 42.4754L193.978 36.7844C193.976 36.715 193.919 36.66 193.85 36.6617L193.417 36.672C193.348 36.6736 193.293 36.7312 193.295 36.8006L193.423 42.4917C193.425 42.5611 193.482 42.616 193.551 42.6144ZM197.13 37.1145L196.701 37.0547C196.633 37.0452 196.57 37.0932 196.56 37.162L195.776 42.8006C195.766 42.8694 195.814 42.9329 195.882 42.9424L196.311 43.0022C196.38 43.0117 196.443 42.9637 196.452 42.895L197.237 37.2563C197.246 37.1876 197.199 37.1241 197.13 37.1145ZM199.944 37.5809L199.53 37.4526C199.464 37.4321 199.394 37.4693 199.374 37.5356L197.697 42.975C197.677 43.0414 197.714 43.1118 197.78 43.1322L198.193 43.2605C198.259 43.281 198.329 43.2438 198.35 43.1775L200.027 37.7381C200.047 37.6717 200.01 37.6013 199.944 37.5809ZM202.036 37.8209L202.442 37.9708C202.507 37.9947 202.54 38.0669 202.517 38.1321L200.559 43.4762C200.535 43.5413 200.463 43.5748 200.398 43.5509L199.992 43.401C199.927 43.377 199.893 43.3048 199.917 43.2396L201.875 37.8956C201.899 37.8304 201.971 37.797 202.036 37.8209Z" fill="url(#paint30_linear_25802_614)"/>
<path d="M185.826 47.3053C185.904 48.0928 186.603 48.6672 187.387 48.5883C188.172 48.5093 188.744 47.807 188.666 47.0195C188.589 46.232 187.89 45.6576 187.105 45.7366C186.321 45.8155 185.748 46.5179 185.826 47.3053Z" fill="#4E80CC"/>
<path d="M186.64 47.227C186.673 47.5645 186.973 47.8107 187.309 47.7768C187.645 47.743 187.891 47.442 187.857 47.1045C187.824 46.767 187.524 46.5208 187.188 46.5547C186.852 46.5885 186.607 46.8895 186.64 47.227Z" fill="white"/>
<path d="M195.605 48.3433C195.683 49.1308 196.382 49.7052 197.167 49.6262C197.951 49.5473 198.524 48.8449 198.446 48.0575C198.368 47.27 197.669 46.6956 196.884 46.7745C196.1 46.8535 195.527 47.5558 195.605 48.3433Z" fill="#4E80CC"/>
<path d="M196.417 48.2596C196.451 48.5971 196.75 48.8432 197.086 48.8094C197.423 48.7756 197.668 48.4746 197.635 48.1371C197.601 47.7996 197.302 47.5534 196.966 47.5873C196.629 47.6211 196.384 47.9221 196.417 48.2596Z" fill="white"/>
<path d="M219.644 77.1785V80.8484C218.612 81.9225 217.648 82.8757 216.626 83.6325C216.293 78.998 215.792 76.4468 211.251 72.4606C213.042 71.3693 214.319 70.2119 215.276 69.0523C216.661 67.3738 217.533 66.7393 218.168 65.2454C218.919 63.4774 220.209 61.319 221.713 60.4019L219.644 77.1785Z" fill="url(#paint31_linear_25802_614)"/>
<path d="M200.816 84.7805C200.816 79.4067 203.798 77.0012 211.251 72.4606C215.792 76.4468 216.293 78.998 216.626 83.6325C215.257 84.6456 213.784 85.3069 211.903 85.4358C209.686 89.8921 200.816 90.1542 200.816 84.7805Z" fill="#FC7431"/>
<path d="M260.061 54.2419C254.721 59.083 252.323 58.2984 246.489 59.7179L248.061 71.2823C248.061 71.2823 257.654 69.4575 264.437 65.4363C269.276 62.567 277.018 49.786 277.018 49.786C275.688 49.2545 266.061 49.1302 266.061 49.1302C266.061 49.1302 261.527 53.0326 260.061 54.2419Z" fill="url(#paint32_linear_25802_614)"/>
<g opacity="0.3" filter="url(#filter0_f_25802_614)">
<path fill-rule="evenodd" clip-rule="evenodd" d="M206.579 76.7793C205.27 78.0029 204.312 79.3404 203.977 80.6859C203.615 82.1415 203.882 84.0397 204.535 85.4753C204.861 86.1938 205.29 86.8083 205.796 87.1937C206.307 87.5823 206.901 87.7393 207.536 87.5265C208.128 87.3282 208.469 86.7073 208.602 85.8999C208.725 85.1536 208.678 84.2133 208.466 83.1955C209.159 83.5641 209.756 83.8541 210.506 83.9841C211.345 84.1294 213.495 83.7258 214.408 82.8303L214.352 82.5743C212.816 82.915 211.341 83.8628 210.55 83.7258C209.759 83.5887 209.147 83.2642 208.339 82.8303L208.084 82.6935L208.15 82.9759C208.409 84.0792 208.471 85.0876 208.344 85.8571C208.217 86.6335 207.905 87.1266 207.454 87.2778C206.915 87.4582 206.41 87.3316 205.954 86.9847C205.494 86.6347 205.088 86.062 204.772 85.3664C204.139 83.9737 203.885 82.1366 204.23 80.7495C204.547 79.4737 205.465 78.1783 206.757 76.9713C208.046 75.766 210.149 75.1685 211.917 74.2668L211.799 74.0331C210.014 74.9433 207.89 75.554 206.579 76.7793Z" fill="black"/>
</g>
<path d="M208.279 82.9457C209.89 83.8114 210.799 84.2857 213.887 83.601C216.757 82.1593 216.513 75.8382 211.409 73.6399C207.856 75.4517 204.757 78.0962 204.105 80.7176C203.397 83.5602 205.148 88.1884 207.496 87.402C208.539 87.0525 208.8 85.1739 208.279 82.9457Z" fill="url(#paint33_linear_25802_614)"/>
<path d="M232.908 119.907C227.705 119.907 226.229 117.021 224.43 110.208C227.07 110.826 228.623 110.71 231.68 108.635C232.291 110.735 233.261 112.848 234.734 115.188C233.968 116.422 233.558 117.339 232.908 119.907Z" fill="url(#paint34_linear_25802_614)"/>
<path fill-rule="evenodd" clip-rule="evenodd" d="M250.256 116.237C245.572 128.059 238.647 130.785 233.821 123.97C233.152 122.528 233.086 121.388 232.908 119.907C233.558 117.339 233.968 116.422 234.734 115.188C237.608 116.962 246.212 116.63 249.82 112.698L249.822 112.717C250.061 114.824 250.256 116.237 250.256 116.237Z" fill="url(#paint35_linear_25802_614)"/>
<path d="M238.647 128.295C234.142 127.703 231.947 123.707 232.908 119.907C233.086 121.388 233.152 122.528 233.821 123.97C238.647 130.785 245.572 128.059 250.256 116.237C249.114 122.06 244.659 129.084 238.647 128.295Z" fill="#3C41B9"/>
<path fill-rule="evenodd" clip-rule="evenodd" d="M221.453 60.5328L248.169 56.8629L248.952 72.7221C248.952 72.7221 250.485 80.2199 250.256 85.4357C250.142 88.0206 249.87 90.0701 249.603 92.0793C249.292 94.4206 248.988 96.7071 248.952 99.7221C248.902 103.758 249.422 109.186 249.82 112.698C246.212 116.63 237.608 116.962 234.734 115.188C233.261 112.848 232.291 110.735 231.68 108.635C230.408 104.261 230.69 99.9458 231.212 93.7652C225.859 93.1063 222.51 91.0539 218.691 86.6153C216.479 80.1606 217.618 75.0035 219.168 67.9878C219.651 65.8023 220.979 63.1744 221.453 60.5328Z" fill="url(#paint36_linear_25802_614)"/>
<path d="M224.43 110.208C219.343 107.455 214.307 99.327 218.691 86.6153C222.51 91.0539 225.859 93.1063 231.212 93.7652C230.69 99.9458 230.408 104.261 231.68 108.635C228.623 110.71 227.07 110.826 224.43 110.208Z" fill="url(#paint37_linear_25802_614)"/>
<path d="M232.529 94.095C242.452 95.7905 247.93 87.5335 250.017 87.9267L250.278 86.4842C244.551 88.6626 243.365 94.095 232.529 94.095Z" fill="#64EDFF"/>
<path d="M247.221 69.5418C247.182 66.3719 247.95 60.0111 247.95 60.0111L245.325 60.1577C245.325 60.1577 245.253 67.4536 245.324 70.5682C245.433 75.3399 250.285 83.9111 250.285 83.9111V82.005C250.285 82.005 247.268 73.4441 247.221 69.5418Z" fill="#EDEDED"/>
<path d="M219.203 65.2896C220.01 63.0754 222.121 60.0111 222.121 60.0111L223.727 60.3044C223.727 60.3044 221.682 63.2435 220.662 65.2896C219.306 68.0106 218.034 72.6209 218.034 72.6209C218.034 72.6209 218.211 68.0123 219.203 65.2896Z" fill="#EDEDED"/>
<g opacity="0.2" filter="url(#filter1_f_25802_614)">
<path fill-rule="evenodd" clip-rule="evenodd" d="M224.95 91.6427C223.001 90.5121 221.135 89.2148 219.236 87.0085L219.332 87.2274C221.253 89.4596 222.672 90.9268 224.69 92.0968C226.647 93.2317 228.784 93.9118 231.375 94.2557C230.409 100.29 229.668 107.579 234.758 114.926L235.28 115.45C229.956 106.995 230.824 100.404 231.893 94.3193C233.963 94.5535 236.322 94.588 239.101 94.4792C239.65 94.3252 239.892 94.1765 240.236 93.8241L239.081 93.9553C236.195 94.0683 233.783 94.025 231.688 93.7672C229.039 93.4411 226.898 92.7721 224.95 91.6427Z" fill="black"/>
</g>
<path d="M211.657 45.0651C211.417 47.265 212.421 49.4213 214.259 50.6525C213.398 47.1984 213.782 43.7121 215.41 40.1937C213.347 40.9846 211.901 42.863 211.657 45.0651Z" fill="white"/>
<path fill-rule="evenodd" clip-rule="evenodd" d="M214.178 51.1249C214.299 51.1434 214.422 51.1171 214.525 51.0454C214.688 50.9298 214.763 50.7292 214.715 50.5364C213.883 47.2062 214.259 43.7951 215.834 40.397C215.916 40.2187 215.881 40.0094 215.749 39.8648C215.614 39.7223 215.407 39.6749 215.225 39.7425C212.986 40.6018 211.434 42.6202 211.171 45.0098C210.907 47.3994 211.986 49.7126 213.982 51.0501C214.043 51.0911 214.11 51.1147 214.178 51.1249ZM214.436 41.2386C213.398 43.9607 213.087 46.6876 213.504 49.3795C212.468 48.2386 211.951 46.6973 212.126 45.1182C212.3 43.5205 213.154 42.1191 214.436 41.2386Z" fill="#64EDFF"/>
<path d="M237.758 25.4153C227.208 23.8064 217.381 31.0707 215.807 41.6431C214.235 52.213 221.512 62.0887 232.062 63.6976C242.609 65.3062 252.437 58.0393 254.009 47.4694C255.582 36.897 248.305 27.0238 237.758 25.4153Z" fill="white"/>
<path d="M237.528 25.6739C226.837 24.0433 217.159 30.5333 215.086 40.8437L214.839 41.2824C214.245 42.4653 214.386 41.9256 213.914 45.0993C213.442 48.2729 214.948 54.6815 219.109 58.1038L219.581 58.5703C233.314 69.5678 251.817 64.8209 254.269 48.3391C255.885 37.4773 248.219 27.3044 237.528 25.6739Z" fill="white"/>
<path fill-rule="evenodd" clip-rule="evenodd" d="M232.085 64.7302C235.941 65.3183 239.742 64.9317 243.122 63.6073C249.44 61.1292 253.677 55.5912 254.745 48.4129C255.543 43.0492 254.178 37.668 250.901 33.258C247.641 28.8719 242.918 26.0099 237.602 25.1992C226.645 23.5281 216.785 30.1782 214.634 40.6753L214.425 41.0485C214.421 41.0548 214.417 41.0613 214.415 41.068C214.351 41.1933 214.299 41.2965 214.25 41.3898C213.868 42.1335 213.857 42.2034 213.596 43.993C213.553 44.2855 213.502 44.6272 213.442 45.0284C212.941 48.3988 214.522 54.9381 218.792 58.4618L219.246 58.9122C219.258 58.9246 219.271 58.9363 219.286 58.9473C222.939 61.874 227.125 63.8334 231.384 64.6127C231.617 64.6536 231.851 64.6927 232.085 64.7302ZM237.461 26.1492C248.044 27.7632 255.372 37.686 253.797 48.2683C252.781 55.0997 248.761 60.3639 242.772 62.712C235.636 65.5099 226.873 63.7871 219.902 58.2127L219.448 57.7649C219.439 57.7547 219.428 57.7451 219.416 57.7361C215.462 54.4831 213.933 48.2431 214.39 45.173C214.45 44.7718 214.501 44.4275 214.545 44.135C214.793 42.4334 214.793 42.4334 215.101 41.8319C215.149 41.7387 215.204 41.6359 215.265 41.5127L215.506 41.0809C215.531 41.0371 215.549 40.9895 215.559 40.9407C217.574 30.9127 226.992 24.5525 237.461 26.1492Z" fill="#64EDFF"/>
<path d="M234.509 32.9686C224.365 31.4215 215.133 36.9273 213.892 45.2662C212.652 53.6025 219.872 61.617 230.016 63.1641C240.163 64.7115 249.392 59.2054 250.632 50.8691C251.873 42.5302 244.656 34.516 234.509 32.9686Z" fill="#00A4FF"/>
<path fill-rule="evenodd" clip-rule="evenodd" d="M229.95 63.5618C240.299 65.14 249.75 59.4718 251.021 50.931C252.292 42.3876 244.91 34.1549 234.561 32.5767C224.215 30.999 214.762 36.6641 213.491 45.2075C212.22 53.7484 219.605 61.984 229.95 63.5618ZM234.444 33.3661C244.356 34.8777 251.437 42.7019 250.231 50.8105C249.024 58.9165 239.98 64.2815 230.068 62.7699C220.156 61.2582 213.075 53.4341 214.281 45.3281C215.488 37.2194 224.532 31.8545 234.444 33.3661Z" fill="#64EDFF"/>
<path d="M230.277 61.3748C221.379 60.0178 215.018 53.1833 216.071 46.1097C217.124 39.036 225.191 34.4017 234.089 35.7587C242.988 37.1157 249.348 43.9502 248.295 51.0238C247.243 58.0975 239.176 62.7318 230.277 61.3748Z" fill="#6C6C6C"/>
<path fill-rule="evenodd" clip-rule="evenodd" d="M230.207 61.8489C239.355 63.2438 247.681 58.4208 248.771 51.0967C249.861 43.7726 243.308 36.6777 234.161 35.2828C225.013 33.8878 216.686 38.7134 215.596 46.0375C214.507 53.3617 221.06 60.4539 230.207 61.8489ZM234.019 36.2326C242.642 37.5476 248.836 44.1509 247.823 50.9522C246.812 57.7509 238.972 62.2141 230.349 60.8991C221.726 59.5841 215.532 52.9808 216.544 46.1821C217.556 39.3807 225.396 34.9176 234.019 36.2326Z" fill="#6C6C6C"/>
<path d="M216.111 44.9429C216.091 45.4348 216.099 45.9336 216.135 46.4367C216.249 48.0449 216.648 49.5721 217.276 50.9755C217.031 51.3138 216.823 51.6633 216.654 52.016C218.64 56.6703 223.704 60.4415 230.065 61.4116C231.199 61.5845 232.318 61.6573 233.411 61.644C241.178 60.7242 247.033 56.7389 246.72 52.398C246.633 51.1699 246.06 50.0369 245.105 49.0496C245.529 47.5711 245.703 46.007 245.586 44.3957C245.521 43.4833 245.365 42.5992 245.127 41.7477C242.562 38.752 238.572 36.5104 233.877 35.7944C225.491 34.5155 217.846 38.556 216.111 44.9429Z" fill="#B0401E"/>
<path fill-rule="evenodd" clip-rule="evenodd" d="M230.004 61.8044C231.137 61.9773 232.285 62.0596 233.415 62.044C233.429 62.0444 233.443 62.043 233.457 62.0399C241.571 61.0805 247.443 56.9231 247.117 52.3684C247.028 51.1399 246.5 49.9847 245.546 48.9393C245.945 47.4491 246.092 45.9125 245.981 44.3683C245.915 43.4451 245.756 42.5287 245.51 41.6416C245.492 41.5833 245.465 41.5316 245.427 41.4887C242.714 38.3169 238.525 36.0979 233.933 35.3976C229.811 34.769 225.686 35.3866 222.312 37.1377C218.937 38.8914 216.594 41.6256 215.723 44.8358C215.714 44.8663 215.71 44.8965 215.709 44.9263C215.689 45.4367 215.696 45.954 215.734 46.4627C215.845 48.0068 216.208 49.5074 216.818 50.9291C216.612 51.2286 216.437 51.5354 216.291 51.844C216.241 51.9476 216.239 52.0664 216.284 52.1738C217.305 54.5634 219.102 56.722 221.485 58.4195C223.923 60.1571 226.868 61.3262 230.004 61.8044ZM233.38 61.2447C232.301 61.2574 231.203 61.18 230.121 61.015C224.127 60.1008 219.152 56.6636 217.09 52.0294C217.232 51.7519 217.402 51.4787 217.598 51.2095C217.681 51.0951 217.696 50.9412 217.636 50.8104C217.011 49.4155 216.64 47.9349 216.529 46.4066C216.495 45.9435 216.489 45.4714 216.503 45.0051C218.239 38.7347 225.67 34.9474 233.815 36.1896C238.187 36.8564 242.171 38.9487 244.763 41.9406C244.983 42.7498 245.126 43.5841 245.186 44.4243C245.294 45.9496 245.139 47.4691 244.717 48.9373C244.679 49.0743 244.717 49.2231 244.815 49.3255C245.735 50.2784 246.241 51.3189 246.319 52.424C246.61 56.473 240.928 60.3445 233.38 61.2447Z" fill="#6C6C6C"/>
<path d="M235.15 37.3483C233.277 37.4781 231.637 38.3635 230.503 39.686C229.181 38.4681 227.383 37.773 225.453 37.9075C220.372 38.2602 216.33 44.7714 220.781 49.0262C219.284 48.7211 218.248 49.7969 217.278 50.9776C217.032 51.316 216.824 51.6655 216.655 52.0182C218.641 56.6725 223.706 60.4438 230.066 61.4138C231.2 61.5867 232.32 61.6595 233.413 61.6462C241.18 60.7265 247.034 56.7411 246.721 52.4002C246.635 51.1721 246.061 50.0391 245.107 49.0518C243.891 48.2417 242.478 48.0246 240.869 48.4003C241.92 47.11 242.499 45.433 242.37 43.6373C242.104 39.9069 238.871 37.0898 235.15 37.3483Z" fill="#FFCAA1"/>
<path d="M215.868 46.1706C215.57 48.1683 215.863 50.1474 216.639 51.9906C216.802 51.6578 217.002 51.3304 217.232 51.0078C216.602 49.6055 216.206 48.077 216.091 46.4643C216.059 46.0407 216.051 45.6181 216.058 45.1978C215.981 45.5174 215.917 45.8415 215.868 46.1706Z" fill="#FFCAA1"/>
<path fill-rule="evenodd" clip-rule="evenodd" d="M216.578 52.3844C216.593 52.3867 216.609 52.3882 216.625 52.3889C216.783 52.3944 216.928 52.3079 216.997 52.1673C217.149 51.8566 217.335 51.5459 217.555 51.2428C217.638 51.1257 217.656 50.9747 217.596 50.8437C216.97 49.4474 216.596 47.9649 216.488 46.4354C216.458 46.0308 216.448 45.6186 216.457 45.2065C216.461 45.0005 216.312 44.8242 216.11 44.7987C215.907 44.7731 215.719 44.9007 215.668 45.0997C215.586 45.4369 215.52 45.774 215.471 46.1082C215.169 48.1342 215.438 50.1651 216.27 52.144C216.325 52.2742 216.441 52.3635 216.578 52.3844ZM216.774 50.9596C216.754 50.9918 216.732 51.0239 216.71 51.0558C216.597 50.7224 216.501 50.3881 216.423 50.0529C216.529 50.3587 216.646 50.661 216.774 50.9596Z" fill="#6C6C6C"/>
<path d="M216.459 51.5368C216.689 51.4633 216.898 51.3548 217.085 51.2164C217.133 51.1442 217.18 51.0772 217.23 51.0054C216.714 49.8538 216.354 48.6147 216.177 47.316C216.043 47.293 215.902 47.2794 215.762 47.2819C215.701 48.7377 215.95 50.1718 216.459 51.5368Z" fill="#FF9999"/>
<path fill-rule="evenodd" clip-rule="evenodd" d="M216.401 51.9361C216.46 51.9452 216.522 51.9413 216.583 51.9215C216.849 51.835 217.101 51.7091 217.327 51.5396C217.363 51.5133 217.391 51.4806 217.418 51.4449C217.462 51.3775 217.509 51.3105 217.556 51.2435C217.639 51.129 217.654 50.9776 217.597 50.847C217.087 49.707 216.743 48.5023 216.575 47.2661C216.55 47.0929 216.417 46.956 216.248 46.9248C216.083 46.897 215.918 46.8825 215.757 46.8844C215.545 46.8865 215.372 47.0535 215.364 47.2669C215.302 48.7488 215.547 50.2324 216.087 51.6791C216.14 51.8196 216.264 51.9152 216.401 51.9361ZM216.769 50.9513C216.744 50.9686 216.719 50.9851 216.693 51.0006C216.593 50.6939 216.505 50.3866 216.431 50.0786C216.535 50.3735 216.648 50.6644 216.769 50.9513Z" fill="#6C6C6C"/>
<path d="M230.836 51.4738C230.911 52.237 230.95 52.7473 231.026 53.8388C231.04 54.0292 231.183 54.1811 231.364 54.2085C231.393 54.213 231.422 54.2138 231.451 54.2111C231.672 54.197 231.837 54.0047 231.823 53.785C231.742 52.6299 231.7 52.1211 231.618 51.2831C231.91 50.9841 232.346 50.8715 232.756 51.0023C232.965 51.0685 233.188 50.9513 233.256 50.7416C233.322 50.5314 233.205 50.3042 232.996 50.2379C232.321 50.0231 231.608 50.1935 231.11 50.6611C230.552 50.2796 229.816 50.2108 229.194 50.511C228.995 50.608 228.912 50.8473 229.006 51.0473C229.103 51.245 229.341 51.3316 229.54 51.2346C229.975 51.0247 230.505 51.1234 230.836 51.4738Z" fill="#6C6C6C"/>
<g opacity="0.3">
<g opacity="0.3">
<path opacity="0.3" d="M242.111 51.136C241.455 52.9371 239.494 54.3248 237.782 55.581C241.099 54.68 242.862 53.4387 243.071 51.8571C243.183 50.7832 243.379 50.6384 242.111 51.136Z" fill="#6C6C6C"/>
</g>
</g>
<path d="M224.737 52.7601C223.817 52.3615 223.036 52.7822 223.664 54.0664C226.357 59.579 237.041 59.0736 239.164 53.3308C239.658 51.9943 238.84 51.6491 237.963 52.1346C234.13 54.2556 228.767 54.5092 224.737 52.7601Z" fill="white"/>
<path fill-rule="evenodd" clip-rule="evenodd" d="M229.159 57.9986C229.947 58.1371 230.777 58.1886 231.635 58.1487C235.306 57.973 238.323 56.1278 239.336 53.4408C239.351 53.4141 239.361 53.3852 239.367 53.3556C239.683 52.4606 239.419 52.0538 239.229 51.8886C238.914 51.6155 238.386 51.6314 237.85 51.9296C234.05 54.0441 228.816 54.2935 224.822 52.5492C224.261 52.3023 223.732 52.3378 223.447 52.6409C223.273 52.8242 223.046 53.2659 223.474 54.153C224.445 56.1506 226.559 57.541 229.159 57.9986ZM231.613 57.7183C234.775 57.5684 237.419 56.1388 238.605 54.0033C238.229 54.2419 237.833 54.4407 237.432 54.6139C236.781 54.8919 236.111 55.1041 235.435 55.283C235.37 55.3001 235.304 55.2635 235.281 55.1988C235.258 55.1325 235.294 55.0584 235.361 55.0364C236.015 54.816 236.656 54.5631 237.265 54.2527C237.87 53.9417 238.444 53.5718 238.918 53.1129L238.92 53.1115L238.933 53.0994C238.958 53.0782 238.987 53.0626 239.016 53.0523C239.131 52.6523 239.11 52.3519 238.952 52.2145C238.903 52.1719 238.839 52.1446 238.765 52.1316C238.577 52.0986 238.321 52.1588 238.057 52.305C234.148 54.4805 228.762 54.7371 224.655 52.9425C224.266 52.7741 223.914 52.7711 223.756 52.9378C223.612 53.0907 223.621 53.3934 223.778 53.7824C223.816 53.7907 223.854 53.8077 223.887 53.834L223.889 53.8343C224.416 54.2462 225.035 54.5604 225.678 54.8108C226.322 55.0615 226.996 55.2514 227.678 55.4088C227.737 55.4228 227.775 55.4795 227.767 55.5404C227.758 55.6048 227.699 55.648 227.635 55.6386C226.937 55.53 226.238 55.3875 225.554 55.1761C225.12 55.0419 224.688 54.88 224.272 54.6731C225.665 56.6935 228.446 57.8704 231.613 57.7183Z" fill="#6C6C6C"/>
<path fill-rule="evenodd" clip-rule="evenodd" d="M233.413 62.0798C232.285 62.0954 231.14 62.0129 230.009 61.8395C226.879 61.3601 223.939 60.1878 221.506 58.4456C219.127 56.7436 217.333 54.5793 216.315 52.1833C216.27 52.0757 216.272 51.9565 216.322 51.8527C216.468 51.5433 216.642 51.2357 216.848 50.9354C216.239 49.5099 215.876 48.0054 215.766 46.4571C215.728 45.9471 215.72 45.4285 215.741 44.9167C215.742 44.8868 215.746 44.8565 215.754 44.8259C216.624 41.6073 218.962 38.8659 222.331 37.1076C225.699 35.3519 229.817 34.7327 233.931 35.363C238.514 36.0652 242.695 38.2901 245.403 41.4703C245.442 41.5134 245.468 41.5652 245.486 41.6237C245.731 42.5131 245.891 43.4319 245.956 44.3575C246.067 45.9058 245.921 47.4464 245.523 48.9406C246.475 49.9888 247.002 51.147 247.091 52.3788C247.416 56.9455 241.555 61.1138 233.456 62.0757C233.442 62.0788 233.427 62.0802 233.413 62.0798ZM230.126 61.048C231.206 61.2135 232.302 61.2911 233.379 61.2784C240.913 60.3758 246.584 56.4942 246.294 52.4346C246.216 51.3265 245.711 50.2832 244.793 49.3278C244.757 49.2905 244.73 49.247 244.71 49.2002C243.61 48.5351 242.368 48.376 240.921 48.7133C240.771 48.7486 240.607 48.6625 240.55 48.5157C240.51 48.4088 240.529 48.2868 240.602 48.1973C241.641 46.918 242.149 45.3027 242.03 43.6497C241.777 40.0919 238.694 37.3956 235.162 37.64C233.438 37.7608 231.87 38.5556 230.744 39.8746C230.69 39.9405 230.607 39.981 230.523 39.9839C230.435 39.989 230.35 39.96 230.287 39.9001C228.97 38.6819 227.264 38.0782 225.485 38.201C223.093 38.368 220.885 40.1741 219.987 42.693C219.13 45.1014 219.703 47.583 221.522 49.3293C221.623 49.4297 221.65 49.5851 221.584 49.7103C221.518 49.8382 221.376 49.904 221.238 49.8775C219.934 49.6098 218.596 50.0447 217.699 51.0176C217.693 51.0887 217.668 51.1578 217.626 51.2165C217.43 51.4864 217.261 51.7603 217.119 52.0385C219.178 56.685 224.143 60.1314 230.126 61.048ZM244.808 48.5187C245.143 47.1777 245.26 45.798 245.162 44.4137C245.103 43.5712 244.96 42.7347 244.74 41.9234C242.153 38.9236 238.177 36.8257 233.813 36.1571C225.683 34.9115 218.266 38.7087 216.533 44.9957C216.519 45.4633 216.526 45.9366 216.56 46.401C216.658 47.7618 216.961 49.085 217.464 50.3437C218.29 49.5729 219.373 49.1511 220.493 49.1557C218.959 47.2885 218.542 44.8495 219.387 42.4737C220.367 39.7205 222.801 37.7446 225.44 37.5625C227.289 37.4344 229.064 38.0168 230.476 39.2151C231.692 37.9073 233.329 37.1258 235.117 37.0015C239 36.7313 242.387 39.6943 242.667 43.6065C242.775 45.1492 242.39 46.6639 241.57 47.9475C242.753 47.8075 243.838 47.9977 244.808 48.5187Z" fill="#6C6C6C"/>
<path d="M253.978 41.6933C251.868 41.6707 250.14 43.6553 250.121 46.1282C250.102 48.6011 251.796 50.6229 253.906 50.6456C256.016 50.6708 257.744 48.6836 257.763 46.2107C257.783 43.7378 256.086 41.7156 253.978 41.6933Z" fill="white"/>
<path fill-rule="evenodd" clip-rule="evenodd" d="M253.372 51.0932C253.547 51.12 253.726 51.134 253.907 51.1352C255.068 51.148 256.161 50.6343 256.983 49.6899C257.787 48.7665 258.234 47.5347 258.244 46.2255C258.268 43.4912 256.353 41.2477 253.985 41.2201C251.613 41.1947 249.666 43.3973 249.644 46.132C249.635 47.4412 250.063 48.6822 250.85 49.6231C251.532 50.4368 252.413 50.9471 253.372 51.0932ZM254.37 42.2136C256.026 42.4662 257.303 44.1701 257.287 46.2145C257.279 47.2963 256.915 48.3052 256.261 49.0581C255.624 49.7871 254.791 50.1843 253.912 50.1748C253.037 50.1657 252.208 49.7507 251.584 49.0068C250.943 48.2391 250.595 47.2222 250.602 46.1404C250.621 43.9375 252.135 42.1613 253.976 42.18C254.11 42.1827 254.241 42.1939 254.37 42.2136Z" fill="#64EDFF"/>
<path d="M255.495 50.2692C256.821 49.579 257.752 48.0286 257.768 46.2169C257.782 44.1666 256.619 42.4267 255.02 41.8783C254.937 41.8656 254.851 41.8604 254.764 41.8604C253.083 41.8424 251.709 43.741 251.688 46.1028C251.67 48.4624 253.016 50.3917 254.697 50.4097C254.973 50.4148 255.24 50.3654 255.495 50.2692Z" fill="white"/>
<path fill-rule="evenodd" clip-rule="evenodd" d="M254.315 50.7836C254.437 50.8023 254.56 50.8122 254.683 50.8133C255.003 50.817 255.32 50.7621 255.625 50.6471C255.64 50.6423 255.655 50.6357 255.67 50.6275C257.166 49.8492 258.142 48.1204 258.157 46.2239C258.173 44.0573 256.934 42.1153 255.139 41.4999C255.114 41.4925 255.087 41.4867 255.06 41.4825C254.956 41.4693 254.854 41.4617 254.756 41.4601C252.862 41.4413 251.302 43.5207 251.281 46.0995C251.27 47.3241 251.605 48.4848 252.219 49.365C252.779 50.168 253.514 50.6615 254.315 50.7836ZM255.323 49.9046C255.117 49.979 254.903 50.0152 254.692 50.0121C254.011 50.0037 253.366 49.6114 252.874 48.9086C252.353 48.1619 252.07 47.168 252.08 46.1076C252.097 43.9703 253.294 42.2461 254.751 42.2616C254.807 42.2631 254.864 42.2665 254.921 42.2717C256.374 42.7925 257.373 44.4067 257.357 46.2158C257.345 47.8108 256.549 49.2545 255.323 49.9046Z" fill="#64EDFF"/>
<path d="M241.191 29.9208C240.34 31.8052 241.235 32.2169 243.031 31.1516C244.357 30.3666 245.823 30.1005 247.216 29.9663C248.696 28.6993 247.337 26.5836 244.802 27.1842C243.538 27.407 242.002 28.1256 241.191 29.9208Z" fill="white"/>
<path fill-rule="evenodd" clip-rule="evenodd" d="M241.266 32.1913C241.767 32.2677 242.44 32.058 243.274 31.5606C244.583 30.7863 246.025 30.5588 247.263 30.4406C247.36 30.4289 247.453 30.3901 247.528 30.3275C248.291 29.6736 248.515 28.7204 248.098 27.9025C247.648 27.0161 246.423 26.3051 244.701 26.7096C243.643 26.8976 241.736 27.5384 240.752 29.7175C240.274 30.7775 240.263 31.5249 240.724 31.942C240.875 32.0761 241.056 32.1592 241.266 32.1913ZM247.007 29.4989C245.767 29.6275 244.201 29.8942 242.785 30.7342C241.837 31.2965 241.422 31.2649 241.362 31.2266C241.364 31.227 241.235 30.977 241.625 30.1153C242.432 28.3275 244.013 27.8062 244.883 27.6531C244.892 27.651 244.902 27.6488 244.911 27.6467C246.134 27.3569 246.963 27.7851 247.246 28.3364C247.444 28.7291 247.358 29.1449 247.007 29.4989Z" fill="#64EDFF"/>
<path d="M220.091 31.09C219.966 31.5396 220.307 31.9968 220.75 32.149C221.189 32.3034 221.744 32.1629 221.917 31.7285C222.625 29.9512 224.18 28.3428 225.881 27.4424C223.925 25.9367 221.544 25.7641 220.091 31.09Z" fill="white"/>
<path fill-rule="evenodd" clip-rule="evenodd" d="M220.87 32.6594C221.456 32.7488 222.128 32.5124 222.373 31.8983C223.014 30.2882 224.45 28.7384 226.116 27.8592C226.259 27.7831 226.354 27.6388 226.368 27.4741C226.382 27.312 226.313 27.1532 226.183 27.0539C224.981 26.1266 223.849 25.8321 222.82 26.1757C221.449 26.6364 220.378 28.2418 219.637 30.9514C219.455 31.6201 219.879 32.3414 220.603 32.5921C220.688 32.6236 220.78 32.6456 220.87 32.6594ZM224.992 27.4044C223.427 28.4209 222.116 29.95 221.483 31.5401C221.416 31.7099 221.123 31.758 220.914 31.6864C220.706 31.6123 220.511 31.3946 220.563 31.2091C221.203 28.8601 222.091 27.4334 223.126 27.0881C223.677 26.902 224.302 27.0107 224.992 27.4044Z" fill="#64EDFF"/>
<g opacity="0.3">
<g opacity="0.3">
<path opacity="0.3" d="M256.081 46.3375C256.112 48.0482 255.298 49.6619 253.908 50.6526C256.134 50.4436 257.822 48.5526 257.782 46.3108C257.743 44.0691 255.992 42.2286 253.758 42.0841C255.182 43.0323 256.051 44.6243 256.081 46.3375Z" fill="#6C6C6C"/>
</g>
</g>
<g opacity="0.3">
<g opacity="0.3">
<path opacity="0.3" d="M222.265 31.9901C223.458 30.5885 225.121 29.4034 227.254 28.4347C228.249 26.86 227.789 26.525 225.871 27.4293C224.664 27.7961 223.461 29.3152 222.265 31.9901Z" fill="#6C6C6C"/>
</g>
</g>
<g opacity="0.3">
<g opacity="0.3">
<path opacity="0.3" d="M247.479 27.8222C247.026 27.2424 246.21 27.0995 245.592 27.4922C246.012 27.3709 246.456 27.5815 246.628 27.9837C246.798 28.388 246.695 28.989 246.268 29.0721C244.508 29.4203 242.802 30.0363 241.215 31.332C241.963 31.5254 244.004 30.9933 247.339 29.7357C247.871 29.2319 247.931 28.4021 247.479 27.8222Z" fill="#6C6C6C"/>
</g>
</g>
<g opacity="0.3">
<g opacity="0.3">
<path opacity="0.3" d="M224.938 26.9891C222.417 28.4658 221.167 30.1425 221.189 32.0194C222.399 30.3939 223.783 28.9451 225.341 27.673C225.388 27.6784 225.254 27.4504 224.938 26.9891Z" fill="#6C6C6C"/>
</g>
</g>
<path fill-rule="evenodd" clip-rule="evenodd" d="M230.319 61.4157C239.378 62.7973 247.625 58.0335 248.701 50.7974C249.778 43.5613 243.284 36.5496 234.224 35.168C225.165 33.7865 216.918 38.5502 215.842 45.7863C214.765 53.0224 221.259 60.0342 230.319 61.4157ZM234.13 35.7995C242.841 37.1279 249.093 43.8142 248.069 50.7009C247.044 57.5877 239.124 62.1101 230.413 60.7817C221.702 59.4533 215.45 52.7695 216.474 45.8828C217.499 38.9961 225.42 34.4711 234.13 35.7995Z" fill="#6C6C6C"/>
<path d="M223.626 47.0845C223.936 48.6145 224.977 49.6368 225.953 49.3678C226.927 49.0984 227.469 47.6403 227.159 46.1103C226.849 44.5803 225.808 43.558 224.832 43.8271C223.856 44.0961 223.317 45.5545 223.626 47.0845Z" fill="#6C6C6C"/>
<path d="M224.208 45.2785C224.116 45.8099 224.311 46.3163 224.641 46.409C224.971 46.4992 225.313 46.1409 225.405 45.6068C225.495 45.075 225.301 44.5661 224.97 44.4759C224.64 44.3857 224.298 44.7441 224.208 45.2785Z" fill="white"/>
<path d="M225.927 47.9384C225.828 48.1985 225.877 48.4868 226.038 48.5828C226.201 48.6766 226.414 48.5423 226.513 48.2821C226.613 48.0219 226.563 47.7337 226.4 47.6373C226.24 47.5439 226.026 47.6782 225.927 47.9384Z" fill="white"/>
<path d="M236.172 43.3489C235.196 43.2394 234.366 44.3755 234.317 45.8825C234.265 47.3917 235.015 48.7005 235.989 48.807C236.962 48.916 237.794 47.7803 237.843 46.2733C237.893 44.7638 237.145 43.4554 236.172 43.3489Z" fill="#6C6C6C"/>
<path d="M236.147 43.9583C235.846 44.095 235.741 44.6083 235.913 45.1033C236.086 45.5982 236.468 45.8897 236.769 45.7504C237.07 45.6137 237.175 45.1004 237.003 44.6054C236.83 44.1105 236.447 43.8216 236.147 43.9583Z" fill="white"/>
<path d="M235.278 47.2191C235.136 47.3351 235.134 47.6179 235.272 47.8507C235.409 48.0834 235.632 48.1811 235.774 48.0651C235.913 47.9487 235.915 47.6659 235.778 47.4332C235.64 47.2004 235.416 47.1053 235.278 47.2191Z" fill="white"/>
<g opacity="0.2">
<g opacity="0.2">
<g opacity="0.2">
<path opacity="0.2" d="M245.493 47.2386C245.626 46.3098 245.662 45.3582 245.592 44.388C245.527 43.4765 245.371 42.5935 245.133 41.743C242.569 38.7504 238.58 36.5109 233.887 35.7951C225.505 34.5167 217.863 38.5514 216.13 44.9307C216.11 45.422 216.118 45.9201 216.154 46.4227C216.155 46.4493 216.159 46.4738 216.161 46.5004C218.167 40.4324 225.612 36.6559 233.756 37.8981C238.449 38.6139 242.438 40.8534 245.003 43.8459C245.24 44.6964 245.397 45.5795 245.462 46.4909C245.48 46.7422 245.488 46.9893 245.493 47.2386Z" fill="#6C6C6C"/>
</g>
</g>
<g opacity="0.2">
<g opacity="0.2">
<path opacity="0.2" d="M216.704 51.9617C216.689 51.9886 216.675 52.0155 216.663 52.0428C216.784 52.3279 216.917 52.6095 217.061 52.8875C216.931 52.5844 216.811 52.2746 216.704 51.9617Z" fill="#6C6C6C"/>
</g>
</g>
</g>
<path fill-rule="evenodd" clip-rule="evenodd" d="M235.258 21.1772C235.795 22.7023 235.691 24.2717 235.43 25.2651L234.524 25.0231C234.748 24.1742 234.837 22.8017 234.375 21.4882C233.921 20.1985 232.929 18.9432 230.932 18.2772L231.226 17.386C233.512 18.1486 234.712 19.6284 235.258 21.1772Z" fill="#64EDFF"/>
<path d="M232.963 17.9669C232.831 18.8536 232.007 19.4633 231.123 19.3287C230.238 19.1941 229.629 18.3661 229.761 17.4793C229.893 16.5925 230.717 15.9828 231.601 16.1174C232.485 16.2521 233.095 17.0801 232.963 17.9669Z" fill="#64EDFF"/>
<path fill-rule="evenodd" clip-rule="evenodd" d="M239.146 18.9943C239.147 18.9942 239.146 18.9984 239.142 19.0074C239.144 18.9989 239.146 18.9944 239.146 18.9943ZM238.911 19.3241C238.697 19.3081 238.415 19.3124 238.065 19.3488C237.051 19.454 235.673 19.8043 234.191 20.3939C232.708 20.9835 231.465 21.6752 230.655 22.2957C230.374 22.5101 230.166 22.7006 230.021 22.8593C230.235 22.8752 230.517 22.8709 230.867 22.8346C231.881 22.7294 233.259 22.379 234.741 21.7894C236.224 21.1999 237.467 20.5081 238.277 19.8877C238.557 19.6733 238.766 19.4828 238.911 19.3241ZM229.625 22.781C229.625 22.7808 229.629 22.7828 229.637 22.7875C229.628 22.7836 229.624 22.7812 229.625 22.781ZM229.786 23.189C229.785 23.1892 229.786 23.1849 229.79 23.1759C229.788 23.1844 229.786 23.1889 229.786 23.189ZM239.295 19.3958C239.304 19.3997 239.308 19.4021 239.307 19.4023C239.307 19.4025 239.302 19.4006 239.295 19.3958ZM235.087 22.665C238.164 21.4412 240.381 19.7448 240.038 18.8759C239.695 18.007 236.922 18.2946 233.845 19.5184C230.768 20.7421 228.551 22.4385 228.894 23.3074C229.237 24.1764 232.01 23.8887 235.087 22.665Z" fill="#64EDFF"/>
<path d="M239.183 65.5422L223.362 66.4049C223.095 66.4194 222.887 66.6399 222.887 66.9069V76.5711C222.887 76.8382 223.095 77.0587 223.362 77.0732L239.183 77.9358C239.471 77.9515 239.713 77.7222 239.713 77.4338V66.0443C239.713 65.7558 239.471 65.5265 239.183 65.5422Z" stroke="#64EDFF" stroke-width="0.377111"/>
<ellipse cx="0.521742" cy="0.655339" rx="0.521742" ry="0.655339" transform="matrix(-1 0 0 1 230.191 70.4939)" fill="#64EDFF"/>
<ellipse cx="0.521742" cy="0.655339" rx="0.521742" ry="0.655339" transform="matrix(-1 0 0 1 230.191 72.8531)" fill="#64EDFF"/>
<ellipse cx="0.521742" cy="0.655339" rx="0.521742" ry="0.655339" transform="matrix(-1 0 0 1 228.365 70.494)" fill="#64EDFF"/>
<ellipse cx="0.521742" cy="0.655339" rx="0.521742" ry="0.655339" transform="matrix(-1 0 0 1 228.365 72.8531)" fill="#64EDFF"/>
<ellipse cx="0.521742" cy="0.655339" rx="0.521742" ry="0.655339" transform="matrix(-1 0 0 1 226.539 70.4939)" fill="#64EDFF"/>
<ellipse cx="0.521742" cy="0.655339" rx="0.521742" ry="0.655339" transform="matrix(-1 0 0 1 226.539 72.8531)" fill="#64EDFF"/>
<ellipse cx="0.521742" cy="0.655339" rx="0.521742" ry="0.655339" transform="matrix(-1 0 0 1 224.713 70.4939)" fill="#64EDFF"/>
<ellipse cx="0.521742" cy="0.655339" rx="0.521742" ry="0.655339" transform="matrix(-1 0 0 1 224.713 72.8531)" fill="#64EDFF"/>
<path d="M230.453 68.9159C230.453 68.6292 230.221 68.3967 229.934 68.3967H224.134C223.878 68.3967 223.67 68.6041 223.67 68.8599C223.67 69.1122 223.872 69.3181 224.125 69.323L229.924 69.435C230.215 69.4407 230.453 69.2066 230.453 68.9159Z" fill="#64EDFF"/>
<path d="M238.539 74.5216C238.539 74.2472 238.325 74.0203 238.051 74.0044L232.245 73.6679C231.98 73.6525 231.756 73.8635 231.756 74.1292C231.756 74.3706 231.942 74.5714 232.183 74.59L237.981 75.0381C238.282 75.0614 238.539 74.8235 238.539 74.5216Z" fill="#64EDFF"/>
<path d="M238.279 68.5175C238.279 68.2355 238.047 68.0086 237.766 68.0148L232.771 68.1239C232.498 68.1298 232.279 68.3531 232.279 68.6266V72.896C232.279 73.1652 232.491 73.3866 232.76 73.3983L237.755 73.6165C238.041 73.629 238.279 73.4005 238.279 73.1142V68.5175Z" fill="#64EDFF"/>
<path d="M250.868 6.02138C252.109 2.14776 256.25 0.0256675 260.117 1.28156L309.938 17.4619C313.805 18.7177 315.934 22.876 314.692 26.7497L306.982 50.8127C305.741 54.6863 301.6 56.8084 297.733 55.5525L247.912 39.3722C244.045 38.1163 241.916 33.9581 243.158 30.0844L250.868 6.02138Z" fill="#EEE8FF"/>
<mask id="mask0_25802_614" style="mask-type:alpha" maskUnits="userSpaceOnUse" x="242" y="0" width="74" height="56">
<path d="M250.855 6.01765C252.095 2.14616 256.235 0.0268145 260.103 1.28397L309.936 17.4806C313.804 18.7377 315.935 22.8953 314.695 26.7668L306.995 50.8167C305.756 54.6882 301.615 56.8075 297.747 55.5504L247.914 39.3538C244.046 38.0966 241.915 33.939 243.155 30.0675L250.855 6.01765Z" fill="#EEE8FF"/>
</mask>
<g mask="url(#mask0_25802_614)">
<g opacity="0.7">
<path d="M343.298 -2.09329C345.631 0.409668 345.513 4.32772 343.036 6.65792L311.123 36.6791C308.646 39.0093 304.747 38.8693 302.415 36.3663L287.926 20.8178C285.593 18.3149 285.711 14.3968 288.188 12.0666L320.101 -17.9546C322.578 -20.2848 326.477 -20.1448 328.809 -17.6418L343.298 -2.09329Z" fill="#C6B7EE"/>
<rect width="9.54072" height="16.5459" rx="2.53819" transform="matrix(-0.815699 -0.580677 0.575015 -0.816596 305.541 48.4015)" fill="url(#paint38_linear_25802_614)"/>
</g>
</g>
<path opacity="0.8" d="M272.693 6.98169L279.393 9.03405L278.197 46.9169L271.349 46.1268L272.693 6.98169Z" fill="url(#paint39_linear_25802_614)"/>
<path opacity="0.8" d="M281.318 9.24646L288.018 11.2988L286.822 49.1816L279.974 48.3916L281.318 9.24646Z" fill="url(#paint40_linear_25802_614)"/>
<path d="M251.918 6.86903C253.074 3.26005 256.979 1.29419 260.641 2.48364L308.757 18.1101C312.419 19.2996 314.446 23.1917 313.29 26.8007L305.955 49.692C304.799 53.301 300.895 55.2669 297.232 54.0774L249.116 38.4509C245.454 37.2615 243.427 33.3693 244.583 29.7603L251.918 6.86903Z" stroke="#7E54F1" stroke-opacity="0.5" stroke-width="0.282021"/>
<path d="M254.634 14.5368C255.356 12.2823 257.791 11.0553 260.072 11.7963L268.823 14.6385C271.104 15.3794 272.367 17.8077 271.645 20.0622L268.026 31.3584C267.304 33.6129 264.869 34.8399 262.588 34.0989L253.837 31.2567C251.556 30.5158 250.292 28.0875 251.014 25.833L254.634 14.5368Z" fill="#9084D1" fill-opacity="0.22"/>
<path d="M264.693 23.1378C265.85 23.3362 267.015 22.6322 267.397 21.4462C267.772 20.2767 267.258 19.0383 266.235 18.5036M265.271 26.359C266.289 26.8716 266.912 27.5026 266.656 28.3018C266.48 28.852 266.013 29.0944 265.373 29.133M258.947 24.6788C261.493 25.506 263.542 26.6118 263.032 28.2052C262.521 29.7986 260.228 29.5066 257.666 28.6748C255.119 27.8474 253.07 26.7453 253.581 25.1512C254.091 23.5571 256.385 23.8467 258.947 24.6788ZM259.675 22.4047C258.003 21.8616 257.096 20.0206 257.65 18.2923C258.204 16.5641 260.008 15.6037 261.68 16.1468C263.352 16.6896 264.259 18.5307 263.705 20.259C263.159 21.9828 261.365 22.9463 259.697 22.4117L259.675 22.4047Z" stroke="white" stroke-width="0.423031" stroke-linecap="round" stroke-linejoin="round"/>
<path fill-rule="evenodd" clip-rule="evenodd" d="M304.35 37.749L273.746 27.5506L274.451 25.3983L305.055 35.5967L304.35 37.749Z" fill="white"/>
<path fill-rule="evenodd" clip-rule="evenodd" d="M302.626 42.7499L272.021 32.5516L272.727 30.3993L303.331 40.5977L302.626 42.7499Z" fill="white"/>
<path d="M280.094 19.4491L279.053 22.6943L278.264 22.4383L278.888 20.4921L277.54 22.2032L276.903 21.9966L276.8 19.8093L276.174 21.7601L275.386 21.5041L276.426 18.2589L277.358 18.5613L277.546 21.1029L279.166 19.1482L280.094 19.4491Z" fill="url(#paint41_linear_25802_614)"/>
<path d="M282.535 22.3544C282.511 22.4284 282.482 22.504 282.447 22.5811L280.662 22.0017C280.623 22.166 280.634 22.3057 280.696 22.4209C280.761 22.5341 280.86 22.6121 280.992 22.655C281.189 22.7189 281.353 22.6801 281.483 22.5387L282.323 22.8111C282.225 22.9667 282.098 23.0938 281.941 23.1924C281.786 23.2921 281.612 23.353 281.418 23.3752C281.225 23.3973 281.023 23.3745 280.814 23.3066C280.562 23.2247 280.355 23.098 280.192 22.9262C280.03 22.7545 279.926 22.5505 279.879 22.3142C279.833 22.078 279.853 21.8258 279.938 21.5577C280.024 21.2896 280.153 21.0728 280.325 20.9074C280.5 20.743 280.703 20.6388 280.935 20.5949C281.166 20.5509 281.41 20.5703 281.665 20.6531C281.914 20.734 282.119 20.8582 282.279 21.0259C282.439 21.1935 282.542 21.3919 282.587 21.621C282.635 21.8511 282.618 22.0956 282.535 22.3544ZM281.795 21.8844C281.838 21.7488 281.827 21.626 281.76 21.5159C281.693 21.4059 281.591 21.3284 281.453 21.2835C281.32 21.2405 281.196 21.2426 281.079 21.2897C280.965 21.3378 280.874 21.4293 280.807 21.5641L281.795 21.8844Z" fill="url(#paint42_linear_25802_614)"/>
<path d="M286.707 22.2995C287.026 22.4033 287.249 22.5827 287.374 22.8378C287.503 23.0938 287.512 23.3944 287.401 23.7396L286.918 25.2466L286.133 24.9921L286.583 23.5914C286.636 23.425 286.632 23.2826 286.572 23.1643C286.515 23.0439 286.41 22.9587 286.257 22.9088C286.103 22.8589 285.966 22.8657 285.848 22.9292C285.733 22.9907 285.649 23.1046 285.595 23.271L285.146 24.6717L284.362 24.4172L284.811 23.0165C284.865 22.8501 284.861 22.7077 284.8 22.5894C284.744 22.469 284.639 22.3838 284.485 22.3339C284.331 22.284 284.195 22.2908 284.076 22.3544C283.961 22.4158 283.877 22.5297 283.824 22.6961L283.375 24.0968L282.586 23.8408L283.413 21.2613L284.202 21.5173L284.098 21.8409C284.213 21.759 284.344 21.7082 284.493 21.6885C284.643 21.6657 284.8 21.6807 284.963 21.7336C285.157 21.7965 285.315 21.894 285.439 22.0261C285.567 22.1592 285.648 22.3168 285.685 22.4988C285.82 22.386 285.978 22.3099 286.161 22.2704C286.343 22.2309 286.525 22.2406 286.707 22.2995Z" fill="url(#paint43_linear_25802_614)"/>
<path d="M289.03 23.4873C289.142 23.3911 289.279 23.3284 289.441 23.2994C289.604 23.2703 289.774 23.2847 289.952 23.3426C290.164 23.4115 290.339 23.5278 290.477 23.6916C290.615 23.8553 290.701 24.0533 290.735 24.2856C290.772 24.5188 290.748 24.768 290.663 25.033C290.578 25.298 290.452 25.5158 290.286 25.6863C290.123 25.8546 289.938 25.9664 289.73 26.0214C289.523 26.0734 289.314 26.0649 289.101 25.9961C288.92 25.9372 288.773 25.8503 288.66 25.7356C288.549 25.6177 288.474 25.4862 288.435 25.341L288.32 25.7016L287.531 25.4456L288.628 22.0248L289.417 22.2808L289.03 23.4873ZM289.86 24.7725C289.924 24.5753 289.918 24.4032 289.843 24.2563C289.772 24.1074 289.656 24.007 289.496 23.9551C289.339 23.9042 289.187 23.9178 289.04 23.9959C288.896 24.0749 288.792 24.2131 288.729 24.4104C288.665 24.6076 288.669 24.7807 288.74 24.9296C288.815 25.0796 288.93 25.18 289.087 25.2309C289.244 25.2818 289.396 25.2682 289.543 25.1901C289.691 25.109 289.797 24.9698 289.86 24.7725Z" fill="url(#paint44_linear_25802_614)"/>
<path d="M293.577 25.9378C293.553 26.0117 293.524 26.0873 293.489 26.1644L291.704 25.585C291.665 25.7493 291.676 25.889 291.737 26.0043C291.803 26.1174 291.902 26.1954 292.034 26.2384C292.231 26.3022 292.394 26.2634 292.525 26.122L293.364 26.3944C293.267 26.55 293.139 26.6771 292.982 26.7757C292.828 26.8754 292.654 26.9363 292.46 26.9585C292.266 26.9806 292.065 26.9578 291.856 26.8899C291.603 26.8081 291.396 26.6813 291.234 26.5095C291.072 26.3378 290.967 26.1338 290.921 25.8976C290.874 25.6613 290.894 25.4091 290.98 25.141C291.066 24.8729 291.195 24.6561 291.367 24.4907C291.542 24.3264 291.745 24.2222 291.976 24.1782C292.208 24.1342 292.451 24.1536 292.706 24.2365C292.956 24.3173 293.16 24.4415 293.32 24.6092C293.481 24.7769 293.583 24.9752 293.629 25.2043C293.677 25.4344 293.66 25.6789 293.577 25.9378ZM292.836 25.4678C292.88 25.3322 292.868 25.2093 292.802 25.0992C292.735 24.9892 292.633 24.9117 292.494 24.8668C292.362 24.8239 292.237 24.826 292.12 24.8731C292.006 24.9212 291.916 25.0126 291.849 25.1474L292.836 25.4678Z" fill="url(#paint45_linear_25802_614)"/>
<path d="M295.106 25.5306C295.243 25.4187 295.394 25.3452 295.558 25.31C295.724 25.2717 295.891 25.28 296.06 25.3349L295.792 26.1716L295.575 26.1013C295.378 26.0374 295.216 26.0326 295.09 26.087C294.965 26.1382 294.869 26.2702 294.8 26.4828L294.416 27.6801L293.628 27.4241L294.455 24.8446L295.244 25.1006L295.106 25.5306Z" fill="url(#paint46_linear_25802_614)"/>
<path d="M266.332 49.1302C266.144 48.9207 266.332 47.4619 266.332 47.4619C265.825 45.725 267.076 45.328 268.938 45.8292C269.37 44.6849 269.645 44.2273 270.159 43.5471C270.478 43.2026 271.085 43.1228 271.426 43.371C271.767 43.6192 271.961 44.3571 271.961 44.3571C271.961 44.3571 272.326 43.6975 272.648 43.5676C272.97 43.4377 273.353 43.4454 274.155 43.7567C274.313 43.4374 274.42 43.2885 274.943 43.5718L276.159 44.1757C276.297 44.1769 276.672 44.338 277.066 44.9735C277.46 45.609 277.392 46.1722 277.309 46.3744C277.849 46.3946 277.717 45.9066 277.582 45.5815L276.528 42.9517L276.292 42.022C276.003 40.9938 277.141 40.8069 277.729 41.8915C278.794 43.7454 279.376 44.8472 280.305 47.2532L278.489 51.1797C277.985 52.0787 277.742 52.2779 276.559 52.116C276.559 52.116 273.974 51.8051 273.416 51.7268C273.416 51.7268 268.127 51.1248 266.332 49.1302Z" fill="#FC7432"/>
<g opacity="0.4" filter="url(#filter2_f_25802_614)">
<path d="M268.937 45.8292C268.816 46.1014 268.525 46.6543 268.328 46.688M271.96 44.357C271.811 45.0348 271.516 46.4345 271.529 46.6114M274.154 43.7566C274.408 43.9453 274.863 44.4624 274.654 45.0222C274.393 45.722 273.997 47.1174 273.845 47.8723M276.157 44.1757C276.296 44.1768 276.671 44.3379 277.065 44.9734C277.459 45.6089 277.391 46.1721 277.308 46.3743C277.082 46.8469 276.667 47.9584 276.813 48.6232" stroke="black" stroke-width="0.125704"/>
</g>
<path d="M183.111 68.8654L164.833 68.1863L168.38 86.6343L186.785 87.977L183.111 68.8654Z" fill="url(#paint47_linear_25802_614)"/>
<path d="M183.078 68.8876L195.541 62.1691L199.088 80.6218L186.754 88.004L183.078 68.8876Z" fill="#E8B772"/>
<path d="M164.601 68.2324L177.688 61.4046L195.754 62.1153L189.314 65.5068L183.101 68.8539L179.074 68.719L164.601 68.2324Z" fill="#E8B772"/>
<path d="M189.306 65.4359L195.748 62.0415L196.854 67.7951L184.279 74.9722L183.09 68.7859L189.306 65.4359Z" fill="url(#paint48_linear_25802_614)"/>
<path d="M164.604 68.1434L179.079 68.6301L183.107 68.7651L184.296 74.9486L165.709 73.8944L164.604 68.1434Z" fill="url(#paint49_linear_25802_614)"/>
<path d="M192.353 84.552L195.216 82.9295C195.739 82.5913 196.106 82.0482 195.975 81.3672L192.766 64.682C192.679 64.228 192.252 63.8407 191.663 63.8385L184.514 63.3578L181.402 64.9113L188.142 65.708C189 65.8927 189.271 66.0752 189.38 66.6427L192.906 83.1477C193.015 83.7152 192.777 84.3117 192.353 84.552Z" fill="#CF4949"/>
<path d="M192.582 84.4264L192.36 84.552C192.785 84.3116 193.023 83.715 192.914 83.1474L189.386 66.6398C189.277 66.0722 189.006 65.8897 188.147 65.7049L181.405 64.9081L189.011 65.2998C189.621 65.4155 189.892 65.5981 190.001 66.1657L193.437 82.8091C193.554 83.4157 193.163 84.0518 192.582 84.4264Z" fill="#923E3E"/>
<path d="M177.034 87.3099L173.778 86.8893C173.168 86.7735 172.627 86.4086 172.496 85.7275L169.288 69.0423C169.201 68.5883 169.453 68.0675 169.998 67.8427L176.449 64.6913L179.91 64.9539L173.956 68.2433C173.228 68.7396 173.045 69.0111 173.155 69.5787L176.001 86.2171C176.11 86.7847 176.552 87.2476 177.034 87.3099Z" fill="#CF4949"/>
<path d="M176.463 87.0376C176.237 86.8367 176.065 86.546 176.003 86.221L173.155 69.5796C173.046 69.012 173.229 68.7404 173.957 68.244L179.914 64.954L179.701 64.9957L173.094 68.6491C172.889 68.8072 172.819 69.0565 172.906 69.5106L175.71 85.9249C175.81 86.444 176.113 86.8023 176.463 87.0376Z" fill="#923E3E"/>
<path d="M173.426 63.6554L179.943 64.11L177.869 65.7083L170.391 65.2048C171.187 64.3016 172.923 63.5159 173.426 63.6554Z" fill="#CF4949"/>
<path d="M177.869 65.7067L170.391 65.2032C170.867 65.0077 171.079 65.0683 171.812 65.1628L177.869 65.7067Z" fill="#923E3E"/>
<path d="M179.523 63.6937L182.727 64.2568L174.643 66.7977C173.725 66.9779 172.569 68.3971 173.937 69.3205C172.657 68.8566 172.154 68.717 171.704 67.6133C171.35 66.7474 171.853 65.9149 172.497 65.5498C174.704 64.6405 176.513 64.1932 179.523 63.6937Z" fill="url(#paint50_linear_25802_614)"/>
<path d="M173.937 69.3205C172.569 68.3971 173.725 66.9779 174.643 66.7977L182.727 64.2568L176.417 68.5953C175.62 69.145 174.542 69.5396 173.937 69.3205Z" fill="url(#paint51_linear_25802_614)"/>
<path d="M182.714 64.2595L179.509 63.6951L184.681 58.3848C185.9 57.443 187.435 58.0569 188.592 59.2096C188.198 58.8388 187.593 58.7033 186.968 59.1296L182.714 64.2595Z" fill="url(#paint52_linear_25802_614)"/>
<path d="M188.558 61.2032C186.276 62.3967 184.996 63.0659 182.714 64.2595L186.968 59.1296C187.593 58.7033 188.198 58.8388 188.592 59.2096C188.617 59.2341 188.641 59.2588 188.665 59.2838C189.139 59.8008 189.24 60.6764 188.558 61.2032Z" fill="url(#paint53_linear_25802_614)"/>
<path d="M195.767 99.9609C197.151 98.8858 199.089 98.8858 200.474 99.9609L200.982 100.356C201.523 100.775 202.166 101.043 202.845 101.13L203.49 101.214C205.222 101.437 206.585 102.802 206.807 104.534L206.893 105.208C206.979 105.882 207.242 106.522 207.657 107.061L208.075 107.604C209.135 108.984 209.135 110.904 208.075 112.283L207.657 112.827C207.242 113.366 206.979 114.005 206.893 114.68L206.807 115.353C206.585 117.086 205.222 118.451 203.49 118.674L202.845 118.757C202.166 118.845 201.523 119.112 200.982 119.532L200.474 119.927C199.089 121.002 197.151 121.002 195.767 119.927L195.258 119.532C194.717 119.112 194.074 118.845 193.395 118.757L192.75 118.674C191.018 118.451 189.655 117.086 189.434 115.353L189.348 114.68C189.262 114.005 188.998 113.366 188.583 112.827L188.166 112.283C187.105 110.904 187.105 108.984 188.166 107.604L188.583 107.061C188.998 106.522 189.262 105.882 189.348 105.208L189.434 104.534C189.655 102.802 191.018 101.437 192.75 101.214L193.395 101.13C194.074 101.043 194.717 100.775 195.258 100.356L195.767 99.9609Z" fill="#D86A84"/>
<path d="M195.042 99.9609C196.427 98.8858 198.364 98.8858 199.749 99.9609L200.258 100.356C200.799 100.775 201.442 101.043 202.121 101.13L202.765 101.214C204.498 101.437 205.861 102.802 206.082 104.534L206.168 105.208C206.254 105.882 206.518 106.522 206.932 107.061L207.35 107.604C208.411 108.984 208.411 110.904 207.35 112.283L206.932 112.827C206.518 113.366 206.254 114.005 206.168 114.68L206.082 115.353C205.861 117.086 204.498 118.451 202.765 118.674L202.121 118.757C201.442 118.845 200.799 119.112 200.258 119.532L199.749 119.927C198.364 121.002 196.427 121.002 195.042 119.927L194.533 119.532C193.993 119.112 193.349 118.845 192.671 118.757L192.026 118.674C190.294 118.451 188.931 117.086 188.709 115.353L188.623 114.68C188.537 114.005 188.273 113.366 187.859 112.827L187.441 112.283C186.381 110.904 186.381 108.984 187.441 107.604L187.859 107.061C188.273 106.522 188.537 105.882 188.623 105.208L188.709 104.534C188.931 102.802 190.294 101.437 192.026 101.214L192.671 101.13C193.349 101.043 193.993 100.775 194.533 100.356L195.042 99.9609Z" fill="#FC6589"/>
<path d="M192.162 107.227C192.162 105.866 193.11 105.047 194.358 105.047C195.622 105.047 196.554 105.866 196.554 107.227C196.554 108.603 195.622 109.422 194.358 109.422C193.11 109.422 192.162 108.603 192.162 107.227ZM194.358 105.866C193.696 105.866 193.26 106.305 193.26 107.227C193.26 108.135 193.696 108.603 194.358 108.603C195.02 108.603 195.471 108.135 195.471 107.227C195.471 106.305 195.02 105.866 194.358 105.866ZM193.501 115.422L199.593 105.208H200.947L194.855 115.422H193.501ZM197.923 113.403C197.923 112.027 198.856 111.208 200.119 111.208C201.368 111.208 202.3 112.027 202.3 113.403C202.3 114.764 201.368 115.598 200.119 115.598C198.856 115.598 197.923 114.764 197.923 113.403ZM200.104 112.042C199.442 112.042 198.991 112.481 198.991 113.403C198.991 114.31 199.442 114.749 200.104 114.749C200.766 114.749 201.217 114.31 201.217 113.403C201.217 112.481 200.766 112.042 200.104 112.042Z" fill="white"/>
<defs>
<filter id="filter0_f_25802_614" x="203.312" y="73.5303" width="11.5994" height="14.5945" filterUnits="userSpaceOnUse" color-interpolation-filters="sRGB">
<feFlood flood-opacity="0" result="BackgroundImageFix"/>
<feBlend mode="normal" in="SourceGraphic" in2="BackgroundImageFix" result="shape"/>
<feGaussianBlur stdDeviation="0.251408" result="effect1_foregroundBlur_25802_614"/>
</filter>
<filter id="filter1_f_25802_614" x="218.734" y="86.5057" width="22.0056" height="29.4473" filterUnits="userSpaceOnUse" color-interpolation-filters="sRGB">
<feFlood flood-opacity="0" result="BackgroundImageFix"/>
<feBlend mode="normal" in="SourceGraphic" in2="BackgroundImageFix" result="shape"/>
<feGaussianBlur stdDeviation="0.251408" result="effect1_foregroundBlur_25802_614"/>
</filter>
<filter id="filter2_f_25802_614" x="268.067" y="43.4546" width="9.61805" height="5.43348" filterUnits="userSpaceOnUse" color-interpolation-filters="sRGB">
<feFlood flood-opacity="0" result="BackgroundImageFix"/>
<feBlend mode="normal" in="SourceGraphic" in2="BackgroundImageFix" result="shape"/>
<feGaussianBlur stdDeviation="0.125704" result="effect1_foregroundBlur_25802_614"/>
</filter>
<linearGradient id="paint0_linear_25802_614" x1="176.318" y1="69.7423" x2="176.318" y2="178.123" gradientUnits="userSpaceOnUse">
<stop stop-color="white"/>
<stop offset="1" stop-color="#709CFA"/>
</linearGradient>
<radialGradient id="paint1_radial_25802_614" cx="0" cy="0" r="1" gradientUnits="userSpaceOnUse" gradientTransform="translate(181.374 90.8228) scale(15.7896 15.7539)">
<stop stop-color="#372D98"/>
<stop offset="1" stop-color="#131724"/>
</radialGradient>
<radialGradient id="paint2_radial_25802_614" cx="0" cy="0" r="1" gradientUnits="userSpaceOnUse" gradientTransform="translate(186.258 90.6088) scale(15.7896 15.7539)">
<stop stop-color="#372D98"/>
<stop offset="1" stop-color="#131724"/>
</radialGradient>
<radialGradient id="paint3_radial_25802_614" cx="0" cy="0" r="1" gradientUnits="userSpaceOnUse" gradientTransform="translate(206.002 57.9975) scale(62.0177 61.8778)">
<stop stop-color="#372D98"/>
<stop offset="1" stop-color="#131724"/>
</radialGradient>
<radialGradient id="paint4_radial_25802_614" cx="0" cy="0" r="1" gradientUnits="userSpaceOnUse" gradientTransform="translate(206.003 55.9347) scale(62.0177 61.8778)">
<stop stop-color="#372D98"/>
<stop offset="1" stop-color="#131724"/>
</radialGradient>
<radialGradient id="paint5_radial_25802_614" cx="0" cy="0" r="1" gradientUnits="userSpaceOnUse" gradientTransform="translate(206.004 56.1846) scale(63.3719 63.2291)">
<stop stop-color="#372D98"/>
<stop offset="1" stop-color="#131724"/>
</radialGradient>
<radialGradient id="paint6_radial_25802_614" cx="0" cy="0" r="1" gradientUnits="userSpaceOnUse" gradientTransform="translate(206.003 54.9385) scale(64.4057 64.2604)">
<stop stop-color="#372D98"/>
<stop offset="1" stop-color="#131724"/>
</radialGradient>
<radialGradient id="paint7_radial_25802_614" cx="0" cy="0" r="1" gradientUnits="userSpaceOnUse" gradientTransform="translate(206.003 51.7386) scale(69.0036 68.848)">
<stop stop-color="#372D98"/>
<stop offset="1" stop-color="#131724"/>
</radialGradient>
<radialGradient id="paint8_radial_25802_614" cx="0" cy="0" r="1" gradientUnits="userSpaceOnUse" gradientTransform="translate(206.003 54.7264) scale(65.2968 65.1494)">
<stop stop-color="#372D98"/>
<stop offset="1" stop-color="#131724"/>
</radialGradient>
<radialGradient id="paint9_radial_25802_614" cx="0" cy="0" r="1" gradientUnits="userSpaceOnUse" gradientTransform="translate(111.55 89.3645) scale(19.4964 19.4524)">
<stop stop-color="#372D98"/>
<stop offset="1" stop-color="#131724"/>
</radialGradient>
<radialGradient id="paint10_radial_25802_614" cx="0" cy="0" r="1" gradientUnits="userSpaceOnUse" gradientTransform="translate(218.227 66.4622) scale(19.7102 19.6657)">
<stop stop-color="#372D98"/>
<stop offset="1" stop-color="#131724"/>
</radialGradient>
<radialGradient id="paint11_radial_25802_614" cx="0" cy="0" r="1" gradientUnits="userSpaceOnUse" gradientTransform="translate(281.85 90.3957) scale(20.1022 20.0569)">
<stop stop-color="#372D98"/>
<stop offset="1" stop-color="#131724"/>
</radialGradient>
<radialGradient id="paint12_radial_25802_614" cx="0" cy="0" r="1" gradientUnits="userSpaceOnUse" gradientTransform="translate(225.963 74.5004) scale(8.37593 8.35702)">
<stop stop-color="#372D98"/>
<stop offset="1" stop-color="#131724"/>
</radialGradient>
<radialGradient id="paint13_radial_25802_614" cx="0" cy="0" r="1" gradientUnits="userSpaceOnUse" gradientTransform="translate(237.617 91.3912) scale(8.376 8.35706)">
<stop stop-color="#372D98"/>
<stop offset="1" stop-color="#131724"/>
</radialGradient>
<radialGradient id="paint14_radial_25802_614" cx="0" cy="0" r="1" gradientUnits="userSpaceOnUse" gradientTransform="translate(248.987 80.1902) scale(8.37593 8.35706)">
<stop stop-color="#372D98"/>
<stop offset="1" stop-color="#131724"/>
</radialGradient>
<radialGradient id="paint15_radial_25802_614" cx="0" cy="0" r="1" gradientUnits="userSpaceOnUse" gradientTransform="translate(259.678 97.4724) scale(8.69675 8.67713)">
<stop stop-color="#372D98"/>
<stop offset="1" stop-color="#131724"/>
</radialGradient>
<radialGradient id="paint16_radial_25802_614" cx="0" cy="0" r="1" gradientUnits="userSpaceOnUse" gradientTransform="translate(256.543 81.1495) scale(13.4372 13.4069)">
<stop stop-color="#372D98"/>
<stop offset="1" stop-color="#131724"/>
</radialGradient>
<radialGradient id="paint17_radial_25802_614" cx="0" cy="0" r="1" gradientUnits="userSpaceOnUse" gradientTransform="translate(220.688 86.4491) scale(13.3659 13.3357)">
<stop stop-color="#372D98"/>
<stop offset="1" stop-color="#131724"/>
</radialGradient>
<radialGradient id="paint18_radial_25802_614" cx="0" cy="0" r="1" gradientUnits="userSpaceOnUse" gradientTransform="translate(140.633 78.5178) scale(11.7976 11.771)">
<stop stop-color="#372D98"/>
<stop offset="1" stop-color="#131724"/>
</radialGradient>
<radialGradient id="paint19_radial_25802_614" cx="0" cy="0" r="1" gradientUnits="userSpaceOnUse" gradientTransform="translate(138.887 91.8176) scale(11.7976 11.771)">
<stop stop-color="#372D98"/>
<stop offset="1" stop-color="#131724"/>
</radialGradient>
<radialGradient id="paint20_radial_25802_614" cx="0" cy="0" r="1" gradientUnits="userSpaceOnUse" gradientTransform="translate(143.808 90.8931) scale(7.34233 7.32575)">
<stop stop-color="#372D98"/>
<stop offset="1" stop-color="#131724"/>
</radialGradient>
<radialGradient id="paint21_radial_25802_614" cx="0" cy="0" r="1" gradientUnits="userSpaceOnUse" gradientTransform="translate(133.399 73.3259) scale(7.34233 7.32576)">
<stop stop-color="#372D98"/>
<stop offset="1" stop-color="#131724"/>
</radialGradient>
<radialGradient id="paint22_radial_25802_614" cx="0" cy="0" r="1" gradientUnits="userSpaceOnUse" gradientTransform="translate(119.996 90.8931) scale(7.34233 7.32575)">
<stop stop-color="#372D98"/>
<stop offset="1" stop-color="#131724"/>
</radialGradient>
<radialGradient id="paint23_radial_25802_614" cx="0" cy="0" r="1" gradientUnits="userSpaceOnUse" gradientTransform="translate(152.433 73.0053) scale(19.4964 19.4524)">
<stop stop-color="#372D98"/>
<stop offset="1" stop-color="#131724"/>
</radialGradient>
<radialGradient id="paint24_radial_25802_614" cx="0" cy="0" r="1" gradientUnits="userSpaceOnUse" gradientTransform="translate(160.879 74.535) scale(7.34233 7.32575)">
<stop stop-color="#372D98"/>
<stop offset="1" stop-color="#131724"/>
</radialGradient>
<radialGradient id="paint25_radial_25802_614" cx="0" cy="0" r="1" gradientUnits="userSpaceOnUse" gradientTransform="translate(120.747 76.7414) scale(7.34233 7.32575)">
<stop stop-color="#372D98"/>
<stop offset="1" stop-color="#131724"/>
</radialGradient>
<linearGradient id="paint26_linear_25802_614" x1="241.794" y1="72.9141" x2="262.085" y2="77.127" gradientUnits="userSpaceOnUse">
<stop stop-color="white"/>
<stop offset="1" stop-color="#D0D0D0"/>
</linearGradient>
<linearGradient id="paint27_linear_25802_614" x1="254.701" y1="85.4558" x2="259.319" y2="92.0016" gradientUnits="userSpaceOnUse">
<stop stop-color="#CDCDCD"/>
<stop offset="1" stop-color="#B9B8B8"/>
</linearGradient>
<linearGradient id="paint28_linear_25802_614" x1="250.986" y1="65.5829" x2="256.578" y2="79.934" gradientUnits="userSpaceOnUse">
<stop stop-color="#D9D9D9"/>
<stop offset="1" stop-color="#C1BDBD"/>
</linearGradient>
<linearGradient id="paint29_linear_25802_614" x1="199.592" y1="33.389" x2="199.594" y2="36.9056" gradientUnits="userSpaceOnUse">
<stop stop-color="#8CABDA"/>
<stop offset="1" stop-color="#9CADC7"/>
</linearGradient>
<linearGradient id="paint30_linear_25802_614" x1="197.052" y1="34.351" x2="197.057" y2="45.3679" gradientUnits="userSpaceOnUse">
<stop stop-color="#5383CA"/>
<stop offset="1" stop-color="#729EDF"/>
</linearGradient>
<linearGradient id="paint31_linear_25802_614" x1="215.322" y1="67.4795" x2="218.875" y2="81.1022" gradientUnits="userSpaceOnUse">
<stop stop-color="#393EA7"/>
<stop offset="1" stop-color="#595FCE"/>
</linearGradient>
<linearGradient id="paint32_linear_25802_614" x1="244.148" y1="58.4361" x2="269.206" y2="64.8003" gradientUnits="userSpaceOnUse">
<stop stop-color="#393EA7"/>
<stop offset="1" stop-color="#595EC7"/>
</linearGradient>
<linearGradient id="paint33_linear_25802_614" x1="214.54" y1="75.0816" x2="215.856" y2="82.9436" gradientUnits="userSpaceOnUse">
<stop stop-color="#FC7135"/>
<stop offset="1" stop-color="#FB8F14"/>
</linearGradient>
<linearGradient id="paint34_linear_25802_614" x1="227.897" y1="110.207" x2="233.675" y2="117.638" gradientUnits="userSpaceOnUse">
<stop stop-color="#ED8024"/>
<stop offset="1" stop-color="#DB7B2B"/>
</linearGradient>
<linearGradient id="paint35_linear_25802_614" x1="241.691" y1="117.154" x2="233.6" y2="121.171" gradientUnits="userSpaceOnUse">
<stop stop-color="#ED8024"/>
<stop offset="1" stop-color="#FFB23E"/>
</linearGradient>
<linearGradient id="paint36_linear_25802_614" x1="227.792" y1="72.7221" x2="247.608" y2="98.4499" gradientUnits="userSpaceOnUse">
<stop stop-color="#393EA7"/>
<stop offset="1" stop-color="#5C61D6"/>
</linearGradient>
<linearGradient id="paint37_linear_25802_614" x1="230.5" y1="114.533" x2="220.875" y2="83.771" gradientUnits="userSpaceOnUse">
<stop stop-color="#393EA7"/>
<stop offset="1" stop-color="#5C61D6"/>
</linearGradient>
<linearGradient id="paint38_linear_25802_614" x1="4.77036" y1="0" x2="4.77036" y2="16.5459" gradientUnits="userSpaceOnUse">
<stop stop-color="#FCD98D"/>
<stop offset="0.848958" stop-color="#F4C150" stop-opacity="0"/>
</linearGradient>
<linearGradient id="paint39_linear_25802_614" x1="279.146" y1="7.7262" x2="275.859" y2="47.3721" gradientUnits="userSpaceOnUse">
<stop stop-color="white"/>
<stop offset="1" stop-color="#F8F8F8" stop-opacity="0"/>
</linearGradient>
<linearGradient id="paint40_linear_25802_614" x1="287.771" y1="9.99097" x2="284.484" y2="49.6369" gradientUnits="userSpaceOnUse">
<stop stop-color="white"/>
<stop offset="1" stop-color="#D9D9D9" stop-opacity="0"/>
</linearGradient>
<linearGradient id="paint41_linear_25802_614" x1="286.717" y1="15.4206" x2="286.026" y2="30.3543" gradientUnits="userSpaceOnUse">
<stop stop-color="#0061F2"/>
<stop offset="1" stop-color="#FF29B6"/>
</linearGradient>
<linearGradient id="paint42_linear_25802_614" x1="286.717" y1="15.4206" x2="286.026" y2="30.3543" gradientUnits="userSpaceOnUse">
<stop stop-color="#0061F2"/>
<stop offset="1" stop-color="#FF29B6"/>
</linearGradient>
<linearGradient id="paint43_linear_25802_614" x1="286.717" y1="15.4206" x2="286.026" y2="30.3543" gradientUnits="userSpaceOnUse">
<stop stop-color="#0061F2"/>
<stop offset="1" stop-color="#FF29B6"/>
</linearGradient>
<linearGradient id="paint44_linear_25802_614" x1="286.717" y1="15.4206" x2="286.026" y2="30.3543" gradientUnits="userSpaceOnUse">
<stop stop-color="#0061F2"/>
<stop offset="1" stop-color="#FF29B6"/>
</linearGradient>
<linearGradient id="paint45_linear_25802_614" x1="286.717" y1="15.4206" x2="286.026" y2="30.3543" gradientUnits="userSpaceOnUse">
<stop stop-color="#0061F2"/>
<stop offset="1" stop-color="#FF29B6"/>
</linearGradient>
<linearGradient id="paint46_linear_25802_614" x1="286.717" y1="15.4206" x2="286.026" y2="30.3543" gradientUnits="userSpaceOnUse">
<stop stop-color="#0061F2"/>
<stop offset="1" stop-color="#FF29B6"/>
</linearGradient>
<linearGradient id="paint47_linear_25802_614" x1="168.738" y1="75.55" x2="186.807" y2="82.0468" gradientUnits="userSpaceOnUse">
<stop stop-color="#E8B772"/>
<stop offset="1" stop-color="#DCAE6C"/>
</linearGradient>
<linearGradient id="paint48_linear_25802_614" x1="189.025" y1="63.3623" x2="188.908" y2="73.2045" gradientUnits="userSpaceOnUse">
<stop stop-color="#D5AD76"/>
<stop offset="1" stop-color="#DDAC66"/>
</linearGradient>
<linearGradient id="paint49_linear_25802_614" x1="173.461" y1="66.4037" x2="175.479" y2="76.6802" gradientUnits="userSpaceOnUse">
<stop stop-color="#DDAC66"/>
<stop offset="1" stop-color="#CCA163"/>
</linearGradient>
<linearGradient id="paint50_linear_25802_614" x1="173.401" y1="67.1337" x2="182.452" y2="63.904" gradientUnits="userSpaceOnUse">
<stop stop-color="#B72828"/>
<stop offset="1" stop-color="#E85656"/>
</linearGradient>
<linearGradient id="paint51_linear_25802_614" x1="175.72" y1="65.9695" x2="177.749" y2="68.7449" gradientUnits="userSpaceOnUse">
<stop stop-color="#AC4E4E"/>
<stop offset="0.950809" stop-color="#923E3E"/>
</linearGradient>
<linearGradient id="paint52_linear_25802_614" x1="185.914" y1="58.2899" x2="181.961" y2="64.5636" gradientUnits="userSpaceOnUse">
<stop stop-color="#BE3434"/>
<stop offset="0.96" stop-color="#D15F5F"/>
</linearGradient>
<linearGradient id="paint53_linear_25802_614" x1="183.364" y1="58.9908" x2="186.151" y2="63.1561" gradientUnits="userSpaceOnUse">
<stop stop-color="#E15959"/>
<stop offset="1" stop-color="#923E3E"/>
</linearGradient>
</defs>
</svg>
