<svg width="649" height="512" viewBox="0 0 649 512" fill="none" xmlns="http://www.w3.org/2000/svg">
<path d="M596.992 67.6002C495.917 -11.3446 396.029 86.6059 268.651 91.5247C189.766 94.5709 111.223 33.7017 76.6708 104.682C54.5443 150.136 93.6355 194.096 101.787 258.386C110.248 325.117 62.3142 387.57 110.759 433.62C159.696 480.139 223.196 420.944 307.525 419.865C426.03 418.348 539.576 514.642 602.972 443.788C642.062 400.099 596.992 361.267 596.992 302.643C596.992 251.807 682.754 134.585 596.992 67.6002Z" fill="#583EA0"/>
<path d="M640.055 272.142C629.318 271.004 624.396 283.008 622.71 293.673C621.223 303.087 620.395 316.149 629.887 316.998C637.461 317.675 640.766 310.604 644.241 303.84C649.947 292.734 652.471 273.459 640.055 272.142Z" fill="#583EA0"/>
<path d="M49.7573 261.975C50.4619 251.946 53.0349 241.709 62.9149 239.847C75.3556 237.501 80.2668 255.354 79.0628 267.956C78.1139 277.888 75.177 288.023 65.3072 289.487C53.0995 291.297 48.8924 274.286 49.7573 261.975Z" fill="#583EA0"/>
<path d="M281.808 42.4827C266.454 40.4548 252.701 45.5518 243.531 58.0326C234.361 70.5135 261.589 74.1122 275.229 72.9844C288.788 71.8634 308.754 65.9715 303.937 53.248C300.534 44.2605 291.335 43.7411 281.808 42.4827Z" fill="#583EA0"/>
<path d="M338.027 35.8987C331.719 35.7169 326.111 43.2359 329.654 48.4583C331.651 51.4023 332.078 50.9299 335.634 50.8558C341.416 50.7352 347.995 46.2469 346.4 40.6885C345.238 36.6413 342.236 36.0201 338.027 35.8987Z" fill="#583EA0"/>
<path d="M303.937 442.588C286.796 443.695 264.433 442.198 263.268 459.334C262.019 477.69 289.203 477.159 307.525 475.482C324.807 473.9 348.747 471.147 346.4 453.951C344.078 436.943 321.067 441.482 303.937 442.588Z" fill="#583EA0"/>
<mask id="mask0_24802_29425" style="mask-type:alpha" maskUnits="userSpaceOnUse" x="49" y="35" width="600" height="442">
<path d="M597 67.6002C495.925 -11.3446 396.037 86.6059 268.659 91.5247C189.774 94.5709 111.231 33.7017 76.6786 104.682C54.5521 150.136 93.6433 194.096 101.795 258.386C110.256 325.117 62.3221 387.57 110.767 433.62C159.704 480.139 223.204 420.944 307.533 419.865C426.038 418.348 539.584 514.642 602.98 443.788C642.07 400.099 597 361.267 597 302.643C597 251.807 682.761 134.585 597 67.6002Z" fill="#483287"/>
<path d="M640.062 272.142C629.326 271.004 624.403 283.008 622.718 293.673C621.231 303.087 620.403 316.149 629.895 316.998C637.469 317.675 640.774 310.604 644.249 303.84C649.955 292.734 652.479 273.459 640.062 272.142Z" fill="#483287"/>
<path d="M49.7651 261.975C50.4697 251.946 53.0427 241.709 62.9227 239.847C75.3634 237.501 80.2746 255.354 79.0707 267.956C78.1217 277.888 75.1848 288.023 65.315 289.487C53.1073 291.297 48.9002 274.286 49.7651 261.975Z" fill="#483287"/>
<path d="M281.816 42.4827C266.462 40.4548 252.709 45.5518 243.539 58.0326C234.369 70.5135 261.597 74.1122 275.237 72.9844C288.796 71.8634 308.762 65.9715 303.944 53.248C300.542 44.2605 291.343 43.7411 281.816 42.4827Z" fill="#483287"/>
<path d="M338.035 35.8987C331.727 35.7169 326.119 43.2359 329.661 48.4583C331.659 51.4023 332.085 50.9299 335.642 50.8558C341.424 50.7352 348.003 46.2469 346.408 40.6885C345.246 36.6413 342.243 36.0201 338.035 35.8987Z" fill="#483287"/>
<path d="M303.944 442.588C286.804 443.695 264.441 442.198 263.275 459.334C262.027 477.69 289.211 477.159 307.533 475.482C324.815 473.9 348.755 471.147 346.408 453.951C344.086 436.943 321.075 441.482 303.944 442.588Z" fill="#483287"/>
</mask>
<g mask="url(#mask0_24802_29425)">
<g opacity="0.4" filter="url(#filter0_f_24802_29425)">
<path d="M132.929 281.049C94.6592 306.567 19.9322 314.286 19.9322 314.286L-3.77734 80.0023L146.422 -25.9459L637.068 -0.0256182C637.068 -0.0256182 563.9 166.568 467.378 187.504C413.041 199.29 379.061 153.671 326.037 170.396C296.935 179.576 288.282 202.355 258.791 210.189C235.089 216.484 219.06 204.228 196.043 212.691C161.942 225.23 163.159 260.892 132.929 281.049Z" fill="url(#paint0_linear_24802_29425)"/>
</g>
<g opacity="0.2" filter="url(#filter1_f_24802_29425)">
<path d="M158.757 361.046C83.7847 353.801 -23.8661 423.084 -23.8661 423.084C-23.8661 423.084 99.4353 551.304 143.691 495.433C156 479.894 151.062 464.183 163.363 448.638C199.725 402.689 267.85 487.58 313.394 450.712C337.804 430.951 326.721 395.9 354.755 381.741C387.799 365.052 412.843 414.975 447.414 401.737C468.897 393.512 469.042 364.687 492 363.245C517.31 361.655 518.789 395.934 543.018 403.419C589.679 417.833 608.946 364.138 654.83 347.417C713.203 326.145 792.527 374.751 810.647 315.325C820.525 282.931 793.154 230.387 793.154 230.387C793.154 230.387 789.131 167.575 759.414 155.512C731.283 144.094 715.2 172.955 685.779 180.448C668.125 184.944 655.579 180.27 640.088 189.858C606.381 210.722 658.388 272.362 622.832 289.891C594.901 303.661 576.261 269.5 545.197 271.686C517.453 273.638 503.457 306.509 478.006 295.294C466.549 290.246 465.669 278.685 454.073 273.967C434.819 266.132 422.72 285.171 401.939 284.704C387.066 284.37 379.347 278.355 364.482 277.763C298.611 275.141 295.628 378.861 229.707 379.407C201.088 379.644 187.245 363.799 158.757 361.046Z" fill="url(#paint1_linear_24802_29425)"/>
</g>
<g filter="url(#filter2_d_24802_29425)">
<path style="mix-blend-mode:screen" d="M942.604 689.505H-238.331L-282.883 602.075C-179.925 430.912 95.5268 294.262 363.965 294.262C613.453 294.262 854.269 406.676 966.158 558.794L942.604 689.505Z" fill="url(#paint2_radial_24802_29425)"/>
<path style="mix-blend-mode:screen" d="M866.326 663.948H-161.923L-256.008 627.609C-166.448 478.625 128.724 319.813 362.401 319.813C579.782 319.813 861.702 476.215 959.228 608.566L866.326 663.948Z" fill="url(#paint3_radial_24802_29425)"/>
<path d="M809.349 646.111H-104.958L-242.578 634.535C-45.8174 448.861 153.462 359.352 361.309 359.352C554.55 359.352 829.638 474.396 944.487 634.535L809.349 646.111Z" fill="url(#paint4_linear_24802_29425)" style="mix-blend-mode:screen"/>
<path style="mix-blend-mode:screen" d="M46.2827 435.17C132.946 387.678 242.421 359.352 361.311 359.352C476.098 359.352 581.952 385.75 667.287 430.228C681.892 451.322 683.22 473.019 655.338 488.448C584.97 527.502 477.546 475.068 324.739 489.051C171.811 503.153 37.8337 497.368 42.0582 451.322C42.6617 445.778 44.1101 440.353 46.2827 435.17Z" fill="url(#paint5_radial_24802_29425)"/>
<path style="mix-blend-mode:screen" fill-rule="evenodd" clip-rule="evenodd" d="M567.59 427.824C566.262 437.949 545.501 443.012 521.241 439.154C497.1 435.297 478.633 423.846 480.082 413.721C481.409 403.596 502.17 398.533 526.31 402.39C550.571 406.248 569.038 417.578 567.59 427.824ZM168.674 414.324C172.174 423.967 156.363 439.395 133.55 448.797C110.738 458.199 89.4944 458.079 85.9941 448.436C82.6145 438.913 98.4263 423.484 121.239 414.082C144.051 404.681 165.294 404.801 168.674 414.324ZM232.404 431.681C234.697 438.552 223.231 449.279 206.695 455.668C190.279 461.936 175.071 461.454 172.778 454.583C170.485 447.712 181.951 436.985 198.487 430.596C214.902 424.328 230.111 424.81 232.404 431.681ZM260.648 382.14C262.217 387.323 253.285 395.038 240.853 399.256C228.421 403.355 217.196 402.631 215.627 397.328C214.057 392.145 222.989 384.551 235.421 380.332C247.854 376.113 259.079 376.836 260.648 382.14ZM652.321 459.405C650.269 464.347 638.924 463.865 626.974 458.199C615.025 452.413 607.059 443.735 609.11 438.793C611.162 433.73 622.508 434.333 634.458 439.998C646.407 445.663 654.373 454.342 652.321 459.405ZM603.196 476.039C602.593 482.186 590.161 485.682 575.435 483.874C560.71 482.066 549.364 475.557 549.967 469.409C550.691 463.262 563.124 459.646 577.849 461.574C592.575 463.382 603.92 469.891 603.196 476.039Z" fill="url(#paint6_radial_24802_29425)"/>
<path style="mix-blend-mode:screen" fill-rule="evenodd" clip-rule="evenodd" d="M140.551 448.07C130.17 452.41 120.031 454.7 111.703 455.062C118.462 453.977 125.946 451.928 133.55 448.794C156.362 439.392 172.174 423.963 168.674 414.32C166.863 409.137 159.742 406.726 149.965 407.088C163.242 405.039 173.502 407.329 175.674 413.717C179.175 423.24 163.363 438.669 140.551 448.07ZM239.404 430.954C241.698 437.945 230.231 448.673 213.695 454.941C206.332 457.834 199.09 459.28 193.176 459.401C197.401 458.678 201.987 457.472 206.695 455.664C223.23 449.276 234.697 438.548 232.404 431.677C231.076 427.941 226.007 426.012 219.006 426.133C229.507 424.445 237.715 426.012 239.404 430.954ZM506.394 401.181C514.119 399.976 523.413 400.097 533.431 401.664C557.571 405.521 576.038 416.972 574.59 427.097C573.624 434.209 563.003 438.91 548.277 439.633C559.261 437.945 566.744 433.727 567.589 427.82C569.038 417.574 550.57 406.244 526.31 402.387C519.309 401.181 512.55 400.82 506.394 401.181ZM659.322 458.678C658.235 461.33 654.494 462.414 649.304 462.053C650.752 461.45 651.838 460.606 652.321 459.401C654.373 454.338 646.407 445.66 634.457 439.994C628.905 437.343 623.474 435.896 619.128 435.414C623.594 433.606 632.405 435.052 641.458 439.271C653.407 445.057 661.374 453.736 659.322 458.678ZM610.197 475.312C609.714 480.134 601.868 483.388 591.488 483.629C598.247 482.424 602.834 479.651 603.196 476.035C603.92 469.888 592.574 463.379 577.849 461.571C574.711 461.089 571.572 460.968 568.796 461.089C573.383 460.245 578.935 460.124 584.849 460.847C599.575 462.656 610.921 469.165 610.197 475.312ZM267.648 381.413C269.217 386.596 260.406 394.311 247.974 398.53C242.543 400.338 237.473 401.181 233.128 401.181C235.622 400.78 238.197 400.137 240.853 399.253C253.285 395.034 262.217 387.32 260.648 382.136C259.803 379.123 255.699 377.556 250.147 377.556C259.199 375.989 266.441 377.315 267.648 381.413Z" fill="url(#paint7_radial_24802_29425)"/>
<path opacity="0.5" d="M575.446 483.872C568.446 483.028 562.29 481.099 557.703 478.689C562.773 476.278 571.101 475.314 580.274 476.519C587.275 477.363 593.431 479.291 598.017 481.702C592.948 484.113 584.619 485.077 575.446 483.872Z" fill="url(#paint8_radial_24802_29425)"/>
<path opacity="0.5" d="M521.248 439.151C505.195 436.62 491.677 430.713 484.797 424.084C491.073 417.092 508.696 414.079 528.853 417.334C544.906 419.865 558.424 425.771 565.304 432.401C559.028 439.392 541.405 442.405 521.248 439.151Z" fill="url(#paint9_radial_24802_29425)"/>
<path opacity="0.5" d="M636.887 454.943C641.353 457.113 645.336 459.644 648.354 462.296C643.647 463.622 635.439 462.176 626.99 458.198C622.524 456.028 618.662 453.497 615.523 450.845C620.351 449.519 628.438 450.966 636.887 454.943Z" fill="url(#paint10_radial_24802_29425)"/>
<path opacity="0.5" d="M123.661 429.019C141.646 421.545 158.665 420.099 166.752 424.559C161.803 432.876 149.371 442.278 133.559 448.787C115.574 456.14 98.5557 457.707 90.4688 453.247C95.4175 444.93 107.85 435.528 123.661 429.019Z" fill="url(#paint11_radial_24802_29425)"/>
<path opacity="0.5" d="M254.014 392.623C250.514 395.154 246.048 397.444 240.858 399.252C234.944 401.181 229.271 402.024 224.805 401.904C228.184 399.373 232.65 396.962 237.84 395.274C243.755 393.225 249.548 392.381 254.014 392.623Z" fill="url(#paint12_radial_24802_29425)"/>
<path opacity="0.5" d="M200.914 445.663C211.777 441.444 222.157 440.239 228.554 441.926C223.967 446.868 216.243 452.051 206.707 455.668C195.844 459.886 185.585 460.971 179.188 459.404C183.653 454.342 191.378 449.279 200.914 445.663Z" fill="url(#paint13_radial_24802_29425)"/>
<path opacity="0.3" d="M155.268 459.403C156.354 463.139 149.836 468.805 140.663 471.939C131.369 475.073 123.041 474.47 121.954 470.613C120.747 466.876 127.386 461.211 136.559 458.077C145.732 454.943 154.181 455.546 155.268 459.403Z" fill="url(#paint14_radial_24802_29425)"/>
<path opacity="0.3" d="M499.879 388.645C499.275 392.623 491.188 394.672 481.653 393.226C471.997 391.779 464.634 387.44 465.238 383.462C465.721 379.484 473.928 377.435 483.463 378.882C492.999 380.328 500.362 384.668 499.879 388.645Z" fill="url(#paint15_radial_24802_29425)"/>
<path opacity="0.3" d="M522.571 392.746C522.45 394.433 518.95 395.397 514.846 394.795C510.863 394.192 507.725 392.263 507.966 390.576C508.087 388.888 511.587 388.045 515.691 388.647C519.674 389.25 522.812 391.058 522.571 392.746Z" fill="url(#paint16_radial_24802_29425)"/>
<path opacity="0.3" d="M562.153 449.999C561.911 451.686 558.411 452.53 554.428 451.927C550.324 451.325 547.186 449.517 547.427 447.829C547.669 446.142 551.169 445.177 555.152 445.78C559.256 446.383 562.394 448.311 562.153 449.999Z" fill="url(#paint17_radial_24802_29425)"/>
<path opacity="0.3" d="M600.54 412.032C600.419 413.72 596.919 414.563 592.815 413.961C588.832 413.358 585.694 411.55 585.935 409.863C586.056 408.175 589.556 407.331 593.66 407.934C597.643 408.537 600.781 410.345 600.54 412.032Z" fill="url(#paint18_radial_24802_29425)"/>
<path opacity="0.3" d="M632.892 471.213C632.41 472.78 628.789 472.659 624.926 471.092C621.184 469.405 618.529 466.874 619.133 465.307C619.736 463.74 623.236 463.74 627.099 465.427C630.961 466.994 633.496 469.646 632.892 471.213Z" fill="url(#paint19_radial_24802_29425)"/>
<path opacity="0.3" d="M624.438 425.769C623.835 428.421 618.162 429.024 611.764 427.216C605.367 425.408 600.781 421.671 601.505 419.14C602.108 416.488 607.781 415.885 614.178 417.693C620.455 419.501 625.162 423.117 624.438 425.769Z" fill="url(#paint20_radial_24802_29425)"/>
<path opacity="0.3" d="M505.788 443.497C505.305 446.27 499.753 447.475 493.235 446.39C486.717 445.305 481.768 442.171 482.251 439.519C482.613 436.747 488.166 435.542 494.684 436.627C501.201 437.832 506.15 440.845 505.788 443.497Z" fill="url(#paint21_radial_24802_29425)"/>
<path opacity="0.3" d="M243.99 410.1C244.473 412.511 240.369 415.765 234.575 417.332C228.902 418.899 223.712 418.297 223.229 415.886C222.626 413.475 226.85 410.221 232.523 408.654C238.317 407.087 243.386 407.689 243.99 410.1Z" fill="url(#paint22_radial_24802_29425)"/>
<path opacity="0.3" d="M238.075 455.298C238.558 457.709 234.454 460.843 228.66 462.41C222.987 464.098 217.797 463.374 217.194 461.084C216.711 458.673 220.936 455.419 226.608 453.852C232.402 452.285 237.472 452.888 238.075 455.298Z" fill="url(#paint23_radial_24802_29425)"/>
<path opacity="0.3" d="M249.792 444.212C250.154 445.779 247.619 447.707 243.998 448.671C240.498 449.756 237.239 449.274 236.877 447.828C236.515 446.381 239.17 444.332 242.791 443.368C246.291 442.403 249.55 442.765 249.792 444.212Z" fill="url(#paint24_radial_24802_29425)"/>
<path opacity="0.3" d="M214.542 384.668C214.904 386.235 212.369 388.164 208.748 389.249C205.127 390.213 201.989 389.731 201.627 388.284C201.265 386.838 203.92 384.789 207.421 383.824C211.042 382.86 214.18 383.222 214.542 384.668Z" fill="url(#paint25_radial_24802_29425)"/>
<path opacity="0.3" d="M169.276 444.212C169.638 445.779 167.104 447.707 163.483 448.671C159.862 449.756 156.723 449.274 156.361 447.828C155.999 446.381 158.655 444.332 162.155 443.368C165.776 442.403 168.914 442.765 169.276 444.212Z" fill="url(#paint26_radial_24802_29425)"/>
<path opacity="0.3" d="M293.721 403.951C294.807 407.687 288.289 413.353 278.995 416.486C269.822 419.62 261.494 419.018 260.407 415.161C259.2 411.424 265.839 405.759 275.012 402.625C284.185 399.491 292.635 400.093 293.721 403.951Z" fill="url(#paint27_radial_24802_29425)"/>
<path opacity="0.3" d="M307.714 388.768C308.076 390.335 305.541 392.263 301.92 393.228C298.299 394.312 295.161 393.83 294.799 392.384C294.437 390.937 297.092 388.888 300.592 387.924C304.213 386.96 307.352 387.321 307.714 388.768Z" fill="url(#paint28_radial_24802_29425)"/>
<path opacity="0.3" d="M171.809 396.362C172.171 397.809 169.515 399.737 166.015 400.822C162.394 401.787 159.256 401.425 158.894 399.858C158.532 398.412 161.066 396.362 164.687 395.398C168.308 394.434 171.447 394.795 171.809 396.362Z" fill="url(#paint29_radial_24802_29425)"/>
</g>
<g opacity="0.7">
<path d="M310.444 171.3L199.38 248.798C198.191 249.626 196.507 249.611 195.62 248.763C194.732 247.914 194.974 246.554 196.163 245.725C196.186 245.708 196.218 245.686 196.241 245.671L310.268 171.124C310.337 171.08 310.43 171.082 310.478 171.132C310.525 171.18 310.508 171.254 310.444 171.3Z" fill="url(#paint30_linear_24802_29425)"/>
<path d="M663.303 70.8236L552.239 148.321C551.05 149.15 549.367 149.135 548.479 148.287C547.591 147.437 547.833 146.078 549.022 145.249C549.045 145.232 549.077 145.21 549.1 145.195L663.127 70.6484C663.196 70.6036 663.29 70.6063 663.337 70.6562C663.384 70.7044 663.368 70.7784 663.303 70.8236Z" fill="url(#paint31_linear_24802_29425)"/>
<path d="M138.536 226.929C137.986 225.373 136.802 224.359 134.987 223.888C134.442 223.748 134.442 223.632 134.987 223.494C136.802 223.023 137.986 222.008 138.536 220.453C138.696 219.985 138.834 219.985 138.995 220.453C139.545 222.008 140.729 223.023 142.543 223.494C143.087 223.632 143.087 223.748 142.543 223.888C140.729 224.359 139.545 225.373 138.995 226.929C138.834 227.395 138.696 227.395 138.536 226.929Z" fill="white"/>
<path d="M435.176 356.113C434.626 354.556 433.442 353.543 431.628 353.071C431.082 352.932 431.082 352.816 431.628 352.678C433.442 352.206 434.626 351.191 435.176 349.636C435.337 349.169 435.475 349.169 435.635 349.636C436.186 351.191 437.369 352.206 439.184 352.678C439.728 352.816 439.728 352.932 439.184 353.071C437.369 353.543 436.186 354.556 435.635 356.113C435.475 356.579 435.337 356.579 435.176 356.113Z" fill="white"/>
<path d="M151.7 384.82C151.15 383.263 149.966 382.25 148.151 381.778C147.606 381.639 147.606 381.523 148.151 381.385C149.966 380.913 151.15 379.898 151.7 378.343C151.86 377.876 151.998 377.876 152.159 378.343C152.709 379.898 153.893 380.913 155.707 381.385C156.251 381.523 156.251 381.639 155.707 381.778C153.893 382.25 152.709 383.263 152.159 384.82C151.998 385.286 151.86 385.286 151.7 384.82Z" fill="white"/>
<path d="M353.84 220.948C353.29 219.392 352.106 218.378 350.292 217.907C349.746 217.768 349.746 217.651 350.292 217.513C352.106 217.042 353.29 216.027 353.84 214.472C354.001 214.004 354.139 214.004 354.299 214.472C354.85 216.027 356.033 217.042 357.848 217.513C358.392 217.651 358.392 217.768 357.848 217.907C356.033 218.378 354.85 219.392 354.299 220.948C354.139 221.414 354.001 221.414 353.84 220.948Z" fill="white"/>
<path d="M539.247 80.9994C538.696 79.4429 537.513 78.4295 535.698 77.9579C535.153 77.8188 535.153 77.7022 535.698 77.5645C537.513 77.0929 538.696 76.0782 539.247 74.523C539.407 74.0554 539.545 74.0554 539.706 74.523C540.256 76.0782 541.44 77.0929 543.254 77.5645C543.798 77.7022 543.798 77.8188 543.254 77.9579C541.44 78.4295 540.256 79.4429 539.706 80.9994C539.545 81.4657 539.407 81.4657 539.247 80.9994Z" fill="white"/>
<path d="M481.833 149.18C481.282 147.623 480.099 146.61 478.284 146.138C477.739 145.999 477.739 145.882 478.284 145.745C480.099 145.273 481.282 144.258 481.833 142.703C481.993 142.236 482.131 142.236 482.292 142.703C482.842 144.258 484.026 145.273 485.84 145.745C486.384 145.882 486.384 145.999 485.84 146.138C484.026 146.61 482.842 147.623 482.292 149.18C482.131 149.646 481.993 149.646 481.833 149.18Z" fill="white"/>
<path d="M441.161 61.8607C440.611 60.3042 439.427 59.2908 437.612 58.8192C437.067 58.6801 437.067 58.5636 437.612 58.4258C439.427 57.9542 440.611 56.9395 441.161 55.3843C441.321 54.9167 441.459 54.9167 441.62 55.3843C442.17 56.9395 443.354 57.9542 445.168 58.4258C445.712 58.5636 445.712 58.6801 445.168 58.8192C443.354 59.2908 442.17 60.3042 441.62 61.8607C441.459 62.327 441.321 62.327 441.161 61.8607Z" fill="white"/>
<path d="M584.7 417.116C584.15 415.559 582.966 414.546 581.151 414.074C580.606 413.935 580.606 413.818 581.151 413.681C582.966 413.209 584.15 412.194 584.7 410.639C584.86 410.172 584.998 410.172 585.159 410.639C585.709 412.194 586.893 413.209 588.707 413.681C589.251 413.818 589.251 413.935 588.707 414.074C586.893 414.546 585.709 415.559 585.159 417.116C584.998 417.582 584.86 417.582 584.7 417.116Z" fill="white"/>
<path d="M243.801 286.736C243.251 285.18 242.067 284.166 240.253 283.695C239.707 283.556 239.707 283.439 240.253 283.301C242.067 282.83 243.251 281.815 243.801 280.26C243.962 279.792 244.1 279.792 244.26 280.26C244.811 281.815 245.994 282.83 247.809 283.301C248.353 283.439 248.353 283.556 247.809 283.695C245.994 284.166 244.811 285.18 244.26 286.736C244.1 287.203 243.962 287.203 243.801 286.736Z" fill="white"/>
<path d="M138.536 118.079C137.986 116.523 136.802 115.51 134.987 115.038C134.442 114.899 134.442 114.782 134.987 114.645C136.802 114.173 137.986 113.158 138.536 111.603C138.696 111.135 138.834 111.135 138.995 111.603C139.545 113.158 140.729 114.173 142.543 114.645C143.087 114.782 143.087 114.899 142.543 115.038C140.729 115.51 139.545 116.523 138.995 118.079C138.834 118.546 138.696 118.546 138.536 118.079Z" fill="white"/>
</g>
</g>
<path d="M583.956 248.627L571.477 249.656L574.589 259.107L558.261 331.347C567.151 340.005 584.83 334.553 587.108 329.12C595.817 308.344 599.198 285.462 597.678 262.226C596.659 257.447 588.391 250.679 583.956 248.627Z" fill="white"/>
<path d="M574.589 259.107L558.261 331.347C567.151 340.005 584.83 334.553 587.108 329.12C595.817 308.344 599.198 285.462 597.678 262.226C596.659 257.447 588.391 250.679 583.956 248.627L571.477 249.656L574.589 259.107ZM574.589 259.107C578.37 257.862 583.684 258.779 590.022 260.496" stroke="#6C6C6C" stroke-width="1.71202" stroke-linecap="round"/>
<path d="M470.594 284.239C476.916 285.668 486.81 281.479 493.685 276.512C500.561 271.544 535.062 238.976 535.062 238.976L525.665 226.354C498.127 232.523 466.346 250.387 460.726 269.062C458.633 276.017 463.698 282.681 470.594 284.239Z" fill="white" stroke="#6C6C6C" stroke-width="1.71202" stroke-linecap="round"/>
<path d="M488.972 258.65C485.552 261.371 483.33 261.892 478.747 260.538C477.028 265.048 471.614 267.324 470.509 266.024C469.479 264.392 473.639 257.995 480.811 252.957" stroke="#6C6C6C" stroke-width="1.71202" stroke-linecap="round"/>
<path d="M574.279 249.591L530.606 226.073C509.102 245.356 497.24 256.578 486.392 280.813C478.218 299.072 477.18 310.797 474.74 329.267C471.835 332.029 469.344 334.291 467.747 338.534C463.377 350.143 476.55 361.518 492.002 356.613C499.922 354.099 503.575 349.013 508.051 341.345L508.573 309.621L511.325 346.984C504.553 348.968 500.751 357.798 499.863 363.638C498.422 373.11 511.307 382.671 525.795 378.947C537.62 374.622 552.047 357.238 551.329 351.127L546.301 308.351L574.279 249.591Z" fill="white"/>
<path d="M508.573 309.621L511.325 346.984C504.553 348.968 500.751 357.798 499.863 363.638C498.422 373.11 511.307 382.671 525.795 378.947C537.62 374.622 552.047 357.238 551.329 351.127L546.301 308.351L574.279 249.591L530.606 226.073C509.102 245.356 497.24 256.578 486.392 280.813C478.218 299.072 477.18 310.797 474.74 329.267C471.835 332.029 469.344 334.291 467.747 338.534C463.377 350.143 476.55 361.518 492.002 356.613C499.922 354.099 503.575 349.013 508.051 341.345L508.573 309.621ZM508.573 309.621C502.913 308.342 495.294 303.475 492.846 298.718" stroke="#6C6C6C" stroke-width="1.71202" stroke-linecap="round"/>
<circle cx="0.905718" cy="0.905718" r="0.794949" transform="matrix(-0.907305 -0.420473 -0.420473 0.907305 509.562 269.469)" fill="#00A4FF" stroke="#5A6B73" stroke-width="0.221537"/>
<circle cx="0.905718" cy="0.905718" r="0.794949" transform="matrix(-0.907305 -0.420473 -0.420473 0.907305 512.852 270.992)" fill="white" stroke="#5A6B73" stroke-width="0.221537"/>
<circle cx="0.905718" cy="0.905718" r="0.794949" transform="matrix(-0.907305 -0.420473 -0.420473 0.907305 516.141 272.516)" fill="#00A4FF" stroke="#5A6B73" stroke-width="0.221537"/>
<circle cx="0.905718" cy="0.905718" r="0.794949" transform="matrix(-0.907305 -0.420473 -0.420473 0.907305 519.422 274.04)" fill="white" stroke="#5A6B73" stroke-width="0.221537"/>
<circle cx="0.905718" cy="0.905718" r="0.794949" transform="matrix(-0.907305 -0.420473 -0.420473 0.907305 508.039 272.757)" fill="#263238" stroke="#5A6B73" stroke-width="0.221537"/>
<circle cx="0.905718" cy="0.905718" r="0.794949" transform="matrix(-0.907305 -0.420473 -0.420473 0.907305 511.328 274.28)" fill="#263238" stroke="#5A6B73" stroke-width="0.221537"/>
<circle cx="0.905718" cy="0.905718" r="0.794949" transform="matrix(-0.907305 -0.420473 -0.420473 0.907305 514.617 275.803)" fill="#263238" stroke="#5A6B73" stroke-width="0.221537"/>
<circle cx="0.905718" cy="0.905718" r="0.794949" transform="matrix(-0.907305 -0.420473 -0.420473 0.907305 517.898 277.326)" fill="#263238" stroke="#5A6B73" stroke-width="0.221537"/>
<rect x="509.928" y="264.893" width="12.237" height="2.27408" rx="1.10768" transform="rotate(24.8645 509.928 264.893)" fill="#E7E7E7" stroke="#5A6B73" stroke-width="0.443073"/>
<rect x="522.569" y="280.727" width="10.4255" height="1.41254" rx="0.706272" transform="rotate(24.8645 522.569 280.727)" fill="#2D393F" stroke="#5A6B73" stroke-width="0.443073"/>
<rect x="527.577" y="272.068" width="7.70839" height="7.70839" rx="0.66461" transform="rotate(24.8645 527.577 272.068)" fill="#455A64" stroke="#5A6B73" stroke-width="0.443073"/>
<rect x="507.066" y="257.064" width="39.4281" height="22.2194" rx="1.99383" transform="rotate(24.8645 507.066 257.064)" stroke="#5A6B73" stroke-width="1.32922"/>
<path d="M491.733 356.9C499.652 354.386 503.306 349.3 507.781 341.632L508.097 322.458C495.007 321.691 488.171 319.801 476.384 315.291C475.731 319.709 475.156 324.365 474.47 329.554C471.566 332.316 469.075 334.578 467.477 338.821C463.107 350.43 476.281 361.806 491.733 356.9Z" fill="white"/>
<path d="M474.47 329.554C471.566 332.316 469.075 334.578 467.477 338.821C463.107 350.43 476.281 361.806 491.733 356.9C499.652 354.386 503.306 349.3 507.781 341.632L508.097 322.458C495.007 321.691 488.171 319.801 476.384 315.291C475.731 319.709 475.156 324.365 474.47 329.554ZM474.47 329.554C477.292 335.358 480.81 337.261 490.451 338.765" stroke="#6C6C6C" stroke-width="1.71202" stroke-linecap="round"/>
<path d="M525.797 378.947C537.622 374.622 552.049 357.238 551.331 351.127L548.817 329.739C534.552 334.161 526.18 334.599 509.951 328.302L511.327 346.984C504.555 348.968 500.754 357.798 499.865 363.638C498.424 373.11 511.309 382.671 525.797 378.947Z" fill="white"/>
<path d="M511.327 346.984C504.555 348.968 500.754 357.798 499.865 363.638C498.424 373.11 511.309 382.671 525.797 378.947C537.622 374.622 552.049 357.238 551.331 351.127L548.817 329.739C534.552 334.161 526.18 334.599 509.951 328.302L511.327 346.984ZM511.327 346.984C515.604 352.849 521.811 356.351 530.914 356.31" stroke="#6C6C6C" stroke-width="1.71202" stroke-linecap="round"/>
<path d="M545.848 294.949L552.247 255.806L574.554 250C582.007 275.632 583.35 294.678 569.48 321.986C563.41 331.811 553.035 334.365 546.753 331.195C539.291 326.606 539.268 320.795 542.011 311.928C537.156 313.28 533.688 310.046 535.332 305.869C537.103 301.371 540.61 297.155 545.848 294.949Z" fill="white" stroke="#6C6C6C" stroke-width="1.71202" stroke-linecap="round"/>
<path d="M508.403 169.675C504.677 173.944 503.639 179.94 505.713 185.21C508.952 176.698 514.862 169.935 523.444 164.924C517.938 163.573 512.139 165.405 508.403 169.675Z" fill="white"/>
<path fill-rule="evenodd" clip-rule="evenodd" d="M504.855 186.105C505.084 186.322 505.382 186.446 505.705 186.446C506.217 186.441 506.668 186.129 506.849 185.654C509.969 177.444 515.754 170.828 524.048 165.99C524.482 165.736 524.715 165.245 524.648 164.749C524.572 164.252 524.205 163.85 523.722 163.726C517.742 162.261 511.516 164.234 507.463 168.869C503.41 173.504 502.3 179.938 504.553 185.663C504.619 185.837 504.728 185.986 504.855 186.105ZM519.868 165.717C513.696 169.919 509.05 175.192 505.988 181.455C505.472 177.545 506.639 173.553 509.318 170.491C512.024 167.39 515.876 165.694 519.868 165.717Z" fill="#6C6C6C"/>
<path d="M592.311 166.632C572.388 147.822 540.99 148.721 522.181 168.645C503.376 188.563 504.279 219.965 524.203 238.775C544.122 257.58 575.524 256.676 594.329 236.757C613.138 216.834 612.23 185.437 592.311 166.632Z" fill="white"/>
<path d="M591.449 166.835C571.257 147.772 541.309 147.262 521.827 165.905L520.662 166.465C517.675 168.084 518.764 167.156 513.118 173.137C507.471 179.118 501.263 194.792 505.039 208.072L505.353 209.743C518.247 252.945 564.281 270.025 593.605 238.964C612.93 218.494 611.641 185.898 591.449 166.835Z" fill="white"/>
<path fill-rule="evenodd" clip-rule="evenodd" d="M522.743 240.972C530.027 247.848 538.621 252.594 547.7 254.753C564.674 258.783 581.736 253.338 594.507 239.81C604.05 229.701 609.049 216.392 608.588 202.329C608.128 188.341 602.346 175.418 592.306 165.94C571.612 146.403 541.044 145.963 521.124 164.884L520.136 165.363C520.118 165.37 520.101 165.378 520.085 165.388C519.767 165.559 519.505 165.699 519.267 165.825C517.369 166.828 517.245 166.96 514.072 170.34C513.551 170.892 512.944 171.536 512.23 172.292C506.233 178.644 499.994 194.703 503.851 208.355L504.149 209.965C504.157 210.009 504.167 210.053 504.181 210.097C507.611 221.593 513.582 231.834 521.435 239.7C521.868 240.127 522.304 240.551 522.743 240.972ZM590.616 167.73C610.603 186.6 611.545 218.176 592.717 238.119C580.563 250.994 564.362 256.182 548.272 252.359C529.1 247.804 513.118 231.368 506.559 209.455L506.257 207.85C506.253 207.815 506.244 207.779 506.23 207.741C502.645 195.12 508.558 179.768 514.02 173.982C514.734 173.226 515.346 172.577 515.867 172.026C518.883 168.811 518.883 168.811 520.416 167.998C520.655 167.873 520.921 167.737 521.23 167.567L522.372 167.012C522.489 166.956 522.596 166.882 522.688 166.794C541.635 148.66 570.844 149.064 590.616 167.73Z" fill="#6C6C6C"/>
<path d="M574.424 177.729C555.262 159.638 527.694 157.711 512.854 173.43C498.02 189.143 501.528 216.555 520.69 234.646C539.858 252.742 567.421 254.663 582.256 238.95C597.095 223.231 593.592 195.824 574.424 177.729Z" fill="#00A4FF"/>
<path fill-rule="evenodd" clip-rule="evenodd" d="M519.985 235.395C539.533 253.849 567.802 255.756 583.001 239.657C598.204 223.553 594.671 195.444 575.123 176.989C555.58 158.539 527.31 156.624 512.107 172.727C496.908 188.826 500.441 216.944 519.985 235.395ZM573.719 178.477C592.442 196.154 595.938 222.963 581.508 238.247C567.083 253.527 540.117 251.578 521.394 233.902C502.67 216.225 499.175 189.416 513.6 174.137C528.029 158.852 554.995 160.801 573.719 178.477Z" fill="#6C6C6C"/>
<path d="M523.859 231.279C507.05 215.409 503.627 191.735 516.216 178.401C528.804 165.067 552.636 167.122 569.446 182.992C586.256 198.862 589.678 222.536 577.089 235.87C564.501 249.204 540.669 247.149 523.859 231.279Z" fill="#6C6C6C"/>
<path fill-rule="evenodd" clip-rule="evenodd" d="M523.006 232.172C540.285 248.485 564.942 250.524 577.976 236.718C591.01 222.912 587.562 198.408 570.283 182.095C553.003 165.781 528.341 163.748 515.308 177.554C502.274 191.36 505.726 215.859 523.006 232.172ZM568.592 183.885C584.882 199.263 588.29 222.207 576.186 235.028C564.087 247.843 540.985 245.76 524.696 230.382C508.407 215.004 504.999 192.06 517.098 179.244C529.202 166.423 552.303 168.507 568.592 183.885Z" fill="#6C6C6C"/>
<path d="M519.91 179.611C516.376 183.438 513.296 188.679 513.007 192.056C511.992 192.408 511.041 192.839 510.167 193.334C507.542 206.024 509.083 220.038 526.838 229.465C544.594 238.892 567.421 247.699 573.12 238.115C574.736 235.406 575.185 232.184 574.615 228.712C577.676 226.223 580.336 223.19 582.45 219.631C583.65 217.617 582.531 218.116 583.276 215.978C582.247 205.927 578.331 193.236 569.462 184.862C553.621 169.908 533.81 164.557 519.91 179.611Z" fill="#B0401E"/>
<path d="M572.697 188.748L572.696 188.748C568.685 186.362 564.081 185.842 559.888 186.927C559.738 186.965 559.579 186.942 559.447 186.861C559.315 186.781 559.222 186.65 559.188 186.499C558.214 182.151 555.525 178.195 551.393 175.74L551.392 175.739C545.987 172.525 538.961 173.212 533.649 176.621C528.357 180.018 524.841 186.067 526.37 193.529C526.422 193.778 526.302 194.031 526.077 194.149C525.852 194.267 525.576 194.222 525.4 194.039C522.834 191.364 519.008 190.319 515.435 191.317C514.459 191.656 513.547 192.07 512.711 192.543C510.668 193.755 509.367 196.433 509.007 200.133C508.649 203.812 509.238 208.38 510.842 213.158C514.05 222.714 521.274 232.997 532.826 238.598C542.213 243.15 551.389 244.948 558.896 244.437C566.419 243.924 572.17 241.107 574.887 236.538L574.887 236.538C576.412 233.983 576.857 230.926 576.319 227.581C574.997 224.295 572.469 221.896 568.666 220.391C568.439 220.301 568.294 220.076 568.306 219.832C568.318 219.588 568.484 219.379 568.719 219.312C572.694 218.173 576.254 215.584 578.535 211.749L578.536 211.749C583.277 203.787 580.663 193.485 572.697 188.748Z" fill="#FFCAA1" stroke="#6C6C6C" stroke-width="1.14135" stroke-linejoin="round"/>
<path d="M539.903 211.942C540.181 212.205 540.597 212.302 540.972 212.158C542.174 211.697 543.514 212.076 544.298 213.092C544.643 213.538 545.286 213.619 545.736 213.279C546.182 212.934 546.268 212.286 545.923 211.84C544.577 210.099 542.295 209.458 540.243 210.243C539.713 210.443 539.45 211.035 539.65 211.565C539.706 211.711 539.796 211.841 539.903 211.942Z" fill="#6C6C6C"/>
<path d="M539.905 211.945C540.125 212.153 540.427 212.263 540.748 212.215C541.306 212.142 541.7 211.628 541.631 211.065C541.342 208.919 539.65 207.183 537.518 206.841C536.956 206.753 536.431 207.133 536.337 207.691C536.254 208.249 536.63 208.779 537.192 208.867C538.442 209.069 539.429 210.084 539.594 211.337C539.624 211.578 539.739 211.789 539.905 211.945Z" fill="#6C6C6C"/>
<path d="M536.689 217.771C536.744 217.823 536.804 217.867 536.869 217.903C537.356 218.198 537.988 218.037 538.278 217.554C539.894 214.845 540.531 213.74 541.709 211.623C541.984 211.126 541.81 210.5 541.313 210.225C540.816 209.95 540.19 210.134 539.92 210.626C538.755 212.719 538.118 213.814 536.515 216.499C536.266 216.919 536.348 217.449 536.689 217.771Z" fill="#6C6C6C"/>
<path d="M602.725 224.675C598.302 221.542 591.748 223.187 588.085 228.357C584.423 233.526 585.039 240.252 589.462 243.386C593.881 246.524 600.44 244.873 604.102 239.704C607.764 234.535 607.144 227.804 602.725 224.675Z" fill="white"/>
<path fill-rule="evenodd" clip-rule="evenodd" d="M587.694 243.526C588.025 243.839 588.382 244.13 588.763 244.397C591.195 246.121 594.257 246.641 597.376 245.858C600.425 245.091 603.174 243.157 605.112 240.419C609.167 234.707 608.41 227.192 603.449 223.671C598.478 220.15 591.14 221.932 587.09 227.649C585.152 230.386 584.238 233.621 584.523 236.75C584.772 239.457 585.884 241.817 587.694 243.526ZM602.808 226.324C605.935 229.276 606.135 234.723 603.106 238.996C601.506 241.259 599.259 242.847 596.776 243.474C594.363 244.075 592.022 243.691 590.181 242.387C588.345 241.087 587.203 239.003 586.975 236.527C586.745 233.976 587.499 231.33 589.1 229.067C592.366 224.465 598.165 222.945 602.026 225.677C602.304 225.878 602.564 226.093 602.808 226.324Z" fill="#6C6C6C"/>
<path d="M593.371 244.9C597.182 245.388 601.417 243.491 604.104 239.707C607.137 235.42 607.229 230.064 604.656 226.573C604.5 226.426 604.325 226.289 604.141 226.161C600.619 223.666 594.938 225.648 591.435 230.58C587.942 235.512 587.958 241.534 591.48 244.029C592.057 244.444 592.692 244.729 593.371 244.9Z" fill="white"/>
<path fill-rule="evenodd" clip-rule="evenodd" d="M590.147 244.268C590.378 244.486 590.622 244.686 590.881 244.868C591.549 245.343 592.3 245.691 593.112 245.896C593.151 245.907 593.192 245.916 593.236 245.921C597.533 246.471 602.126 244.265 604.935 240.302C608.141 235.772 608.37 229.881 605.481 225.963C605.439 225.91 605.391 225.859 605.339 225.81C605.139 225.631 604.935 225.466 604.732 225.32C600.759 222.511 594.422 224.601 590.6 229.988C588.784 232.546 587.791 235.475 587.799 238.222C587.805 240.728 588.634 242.84 590.147 244.268ZM593.563 243.894C593.017 243.749 592.512 243.512 592.071 243.197C590.647 242.184 589.86 240.418 589.849 238.22C589.844 235.89 590.702 233.388 592.276 231.174C595.441 226.707 600.494 224.834 603.546 226.996C603.662 227.081 603.777 227.171 603.891 227.266C606.195 230.484 605.941 235.337 603.259 239.116C600.896 242.449 597.101 244.319 593.563 243.894Z" fill="#6C6C6C"/>
<path d="M592.892 181.164C588.333 183.882 589.62 186.056 594.975 186.443C598.928 186.733 602.414 188.317 605.554 190.073C610.537 189.574 610.765 183.137 604.53 180.692C601.533 179.311 597.236 178.576 592.892 181.164Z" fill="white"/>
<path fill-rule="evenodd" clip-rule="evenodd" d="M589.732 186.062C590.679 186.955 592.407 187.499 594.899 187.674C598.799 187.96 602.178 189.59 604.966 191.152C605.188 191.269 605.441 191.324 605.692 191.302C608.261 191.043 610.131 189.366 610.448 187.037C610.798 184.516 609.251 181.229 605.022 179.561C602.511 178.409 597.543 176.967 592.271 180.108C589.709 181.639 588.591 183.195 588.954 184.746C589.076 185.248 589.335 185.687 589.732 186.062ZM605.805 188.798C602.998 187.256 599.299 185.525 595.076 185.22C592.251 185.016 591.42 184.342 591.348 184.174C591.353 184.178 591.447 183.464 593.532 182.222C597.858 179.644 601.96 180.859 604.023 181.811C604.046 181.82 604.068 181.829 604.091 181.837C607.1 183.018 608.224 185.131 608.013 186.703C607.855 187.818 607.065 188.567 605.805 188.798Z" fill="#6C6C6C"/>
<path d="M546.649 152.675C545.726 153.437 545.778 154.897 546.489 155.864C547.191 156.831 548.568 157.347 549.569 156.687C553.668 153.987 559.308 152.88 564.218 153.475C562.293 147.45 557.517 143.606 546.649 152.675Z" fill="white"/>
<path fill-rule="evenodd" clip-rule="evenodd" d="M545.95 157.114C547.058 158.16 548.823 158.645 550.239 157.712C553.951 155.266 559.252 154.107 564.058 154.695C564.472 154.745 564.885 154.581 565.156 154.255C565.422 153.934 565.509 153.5 565.379 153.1C564.2 149.394 562.241 147.121 559.565 146.338C555.995 145.302 551.382 147.11 545.848 151.721C544.485 152.861 544.323 154.997 545.484 156.582C545.618 156.773 545.78 156.953 545.95 157.114ZM562.351 152.096C557.558 151.944 552.55 153.242 548.884 155.658C548.493 155.916 547.805 155.59 547.469 155.134C547.138 154.674 547.045 153.932 547.426 153.617C552.218 149.616 556.184 147.917 558.874 148.703C560.31 149.117 561.472 150.261 562.351 152.096Z" fill="#6C6C6C"/>
<g opacity="0.3">
<g opacity="0.3">
<path opacity="0.3" d="M600.379 237.501C597.94 241.14 593.86 243.341 589.476 243.391C594.479 246.204 600.809 244.698 604.009 239.931C607.208 235.164 606.207 228.738 601.705 225.171C603.322 229.244 602.823 233.857 600.379 237.501Z" fill="#6C6C6C"/>
</g>
</g>
<g opacity="0.3">
<g opacity="0.3">
<path opacity="0.3" d="M549.904 157.757C554.477 156.556 559.724 156.497 565.647 157.579C570.054 155.725 569.573 154.348 564.199 153.444C561.114 152.451 556.347 153.884 549.904 157.757Z" fill="#6C6C6C"/>
</g>
</g>
<g opacity="0.3">
<g opacity="0.3">
<path opacity="0.3" d="M609.269 185.963C609.163 184.081 607.649 182.587 605.767 182.509C606.831 182.867 607.46 183.96 607.235 185.058C607.001 186.156 605.904 187.27 604.88 186.82C600.65 184.976 596.145 183.777 590.894 184.18C592.19 185.68 597.282 187.548 606.171 189.782C608.032 189.501 609.375 187.844 609.269 185.963Z" fill="#6C6C6C"/>
</g>
</g>
<g opacity="0.3">
<g opacity="0.3">
<path opacity="0.3" d="M562.851 151.139C555.367 150.557 550.274 152.254 547.573 156.229C552.505 154.581 557.548 153.56 562.7 153.165C562.791 153.245 562.841 152.569 562.851 151.139Z" fill="#6C6C6C"/>
</g>
</g>
<path d="M530.735 191.489C529.146 195.156 529.845 198.824 532.3 199.683C534.749 200.538 538.03 198.266 539.619 194.599C541.207 190.932 540.509 187.264 538.054 186.405C535.599 185.545 532.324 187.822 530.735 191.489Z" fill="#6C6C6C"/>
<path d="M534.654 188.529C533.68 189.511 533.349 190.859 533.91 191.536C534.475 192.207 535.72 191.953 536.698 190.966C537.666 189.98 538.002 188.627 537.437 187.955C536.872 187.283 535.626 187.537 534.654 188.529Z" fill="white"/>
<path d="M534.348 196.635C533.757 197.036 533.439 197.714 533.637 198.15C533.844 198.585 534.49 198.614 535.081 198.213C535.673 197.811 535.99 197.133 535.788 196.693C535.585 196.262 534.939 196.233 534.348 196.635Z" fill="white"/>
<path d="M562.696 201.984C560.798 200.33 557.381 201.506 555.069 204.6C552.747 207.695 552.411 211.539 554.31 213.184C556.203 214.833 559.625 213.662 561.937 210.568C564.254 207.468 564.594 203.629 562.696 201.984Z" fill="#6C6C6C"/>
<path d="M561.717 203.253C560.882 203.102 559.907 204.027 559.546 205.318C559.184 206.61 559.565 207.781 560.404 207.928C561.239 208.079 562.214 207.154 562.575 205.863C562.937 204.571 562.552 203.405 561.717 203.253Z" fill="white"/>
<path d="M555.146 208.814C554.677 208.851 554.257 209.442 554.206 210.132C554.155 210.822 554.483 211.353 554.952 211.316C555.416 211.274 555.835 210.683 555.887 209.993C555.938 209.304 555.605 208.777 555.146 208.814Z" fill="white"/>
<g opacity="0.2">
<g opacity="0.2">
<g opacity="0.2">
<path opacity="0.2" d="M508.971 191.566C508.9 191.601 508.83 191.636 508.765 191.676C508.604 192.452 508.471 193.238 508.368 194.032C508.538 193.206 508.738 192.379 508.971 191.566Z" fill="#6C6C6C"/>
</g>
</g>
</g>
<path d="M586.741 161.993C590.462 158.832 596.166 150.192 589.211 140.922" stroke="#6C6C6C" stroke-width="1.71202"/>
<circle cx="589.95" cy="141.102" r="4.15993" transform="rotate(43.3522 589.95 141.102)" fill="#6C6C6C"/>
<path d="M605.775 156.049C605.739 156.2 605.544 156.508 604.747 156.804C603.988 157.086 602.882 157.275 601.478 157.336C598.681 157.458 594.898 157.064 590.807 156.106C586.715 155.149 583.151 153.823 580.698 152.473C579.467 151.795 578.56 151.135 578.005 150.545C577.422 149.927 577.384 149.564 577.419 149.413C577.454 149.262 577.65 148.954 578.446 148.658C579.206 148.376 580.311 148.187 581.716 148.126C584.512 148.005 588.295 148.398 592.387 149.356C596.478 150.314 600.043 151.639 602.495 152.989C603.727 153.667 604.633 154.328 605.189 154.917C605.771 155.536 605.81 155.899 605.775 156.049Z" stroke="#6C6C6C" stroke-width="1.71202"/>
<path d="M526.734 217.928L549.516 228.947C549.516 228.947 541.23 233.205 535.158 230.402C528.899 227.513 526.734 217.928 526.734 217.928Z" fill="#FF5959" stroke="#6C6C6C" stroke-width="1.14135" stroke-linecap="round" stroke-linejoin="round"/>
<g filter="url(#filter3_f_24802_29425)">
<rect x="14.5703" y="70.1914" width="434.985" height="242.406" rx="6.30537" stroke="#76DEFF" stroke-width="4"/>
</g>
<g opacity="0.7">
<rect x="0.609375" y="70.5835" width="450.946" height="239.229" rx="8.30537" fill="url(#paint32_linear_24802_29425)"/>
<path d="M41.9844 65.7985H14.5479C8.16775 65.7985 2.99564 70.9706 2.99564 77.3507V105.509" stroke="url(#paint33_linear_24802_29425)" stroke-width="3.11451" stroke-linecap="round"/>
<path d="M412.086 310.05H439.522C445.903 310.05 451.075 304.878 451.075 298.498V270.339" stroke="url(#paint34_linear_24802_29425)" stroke-width="3.11451" stroke-linecap="round"/>
<path d="M119.948 279.224C168.995 279.224 208.756 239.463 208.756 190.416C208.756 178.823 206.535 167.749 202.494 157.596L176.509 165.318C179.917 172.989 181.812 181.481 181.812 190.416C181.812 224.582 154.114 252.279 119.948 252.279C115.989 252.279 112.117 251.908 108.365 251.197L103.538 277.711C108.857 278.704 114.342 279.224 119.948 279.224Z" fill="#D4A9FF"/>
<path fill-rule="evenodd" clip-rule="evenodd" d="M97.7464 104.406L109.118 129.498C112.635 128.877 116.254 128.553 119.948 128.553C145.18 128.553 166.883 143.658 176.509 165.318L202.494 157.596C189.441 124.794 157.402 101.608 119.948 101.608C112.282 101.608 104.843 102.58 97.7464 104.406Z" fill="#AF77E7"/>
<path d="M58.085 190.416C58.085 159.945 80.1158 134.619 109.118 129.498L97.7464 104.406C59.443 114.265 31.1406 149.035 31.1406 190.416C31.1406 233.857 62.3307 270.012 103.538 277.711L108.365 251.197C79.7351 245.774 58.085 220.623 58.085 190.416Z" fill="#8F57C7"/>
<circle cx="119.95" cy="190.415" r="27.0284" fill="#AF77E7"/>
<circle cx="365.13" cy="221.306" r="27.0284" fill="#6B4A8C"/>
<path d="M409.534 221.306C409.534 228.172 407.942 234.944 404.883 241.091C401.824 247.238 397.381 252.591 391.903 256.731C386.426 260.871 380.063 263.684 373.314 264.949C366.566 266.215 359.616 265.898 353.011 264.024C346.406 262.15 340.325 258.77 335.247 254.149C330.168 249.529 326.231 243.793 323.743 237.394C321.256 230.994 320.286 224.105 320.911 217.268C321.535 210.43 323.737 203.831 327.342 197.988L365.13 221.306H409.534Z" fill="#D4A9FF"/>
<rect x="237.719" y="128.636" width="167.962" height="17.3754" fill="#AF77E7"/>
<rect x="237.719" y="128.636" width="127.42" height="17.3754" fill="#6B4A8C"/>
<rect x="237.719" y="190.416" width="42.4732" height="17.3754" rx="6.24595" fill="#8F57C7"/>
<rect x="241.578" y="232.889" width="67.5711" height="9.65301" fill="#AF77E7"/>
<rect x="241.578" y="250.264" width="32.8202" height="9.65301" fill="#AF77E7"/>
</g>
<defs>
<filter id="filter0_f_24802_29425" x="-13.7812" y="-35.9458" width="660.852" height="360.232" filterUnits="userSpaceOnUse" color-interpolation-filters="sRGB">
<feFlood flood-opacity="0" result="BackgroundImageFix"/>
<feBlend mode="normal" in="SourceGraphic" in2="BackgroundImageFix" result="shape"/>
<feGaussianBlur stdDeviation="5" result="effect1_foregroundBlur_24802_29425"/>
</filter>
<filter id="filter1_f_24802_29425" x="-33.8672" y="142.872" width="856.664" height="376.659" filterUnits="userSpaceOnUse" color-interpolation-filters="sRGB">
<feFlood flood-opacity="0" result="BackgroundImageFix"/>
<feBlend mode="normal" in="SourceGraphic" in2="BackgroundImageFix" result="shape"/>
<feGaussianBlur stdDeviation="5" result="effect1_foregroundBlur_24802_29425"/>
</filter>
<filter id="filter2_d_24802_29425" x="-286.883" y="294.262" width="1257.04" height="403.243" filterUnits="userSpaceOnUse" color-interpolation-filters="sRGB">
<feFlood flood-opacity="0" result="BackgroundImageFix"/>
<feColorMatrix in="SourceAlpha" type="matrix" values="0 0 0 0 0 0 0 0 0 0 0 0 0 0 0 0 0 0 127 0" result="hardAlpha"/>
<feOffset dy="4"/>
<feGaussianBlur stdDeviation="2"/>
<feComposite in2="hardAlpha" operator="out"/>
<feColorMatrix type="matrix" values="0 0 0 0 0 0 0 0 0 0 0 0 0 0 0 0 0 0 0.25 0"/>
<feBlend mode="normal" in2="BackgroundImageFix" result="effect1_dropShadow_24802_29425"/>
<feBlend mode="normal" in="SourceGraphic" in2="effect1_dropShadow_24802_29425" result="shape"/>
</filter>
<filter id="filter3_f_24802_29425" x="0.570312" y="56.1914" width="462.984" height="270.406" filterUnits="userSpaceOnUse" color-interpolation-filters="sRGB">
<feFlood flood-opacity="0" result="BackgroundImageFix"/>
<feBlend mode="normal" in="SourceGraphic" in2="BackgroundImageFix" result="shape"/>
<feGaussianBlur stdDeviation="6" result="effect1_foregroundBlur_24802_29425"/>
</filter>
<linearGradient id="paint0_linear_24802_29425" x1="194.827" y1="0.739563" x2="336.571" y2="315.326" gradientUnits="userSpaceOnUse">
<stop stop-color="#DF4395"/>
<stop offset="1" stop-color="#DF4395" stop-opacity="0"/>
</linearGradient>
<linearGradient id="paint1_linear_24802_29425" x1="368.42" y1="230.104" x2="421.486" y2="394.847" gradientUnits="userSpaceOnUse">
<stop stop-color="#67E8F9"/>
<stop offset="1" stop-color="#67E8F9" stop-opacity="0"/>
</linearGradient>
<radialGradient id="paint2_radial_24802_29425" cx="0" cy="0" r="1" gradientUnits="userSpaceOnUse" gradientTransform="translate(344.653 291.128) scale(610.262 609.438)">
<stop stop-color="#372D98" stop-opacity="0"/>
<stop offset="1" stop-color="#131724"/>
</radialGradient>
<radialGradient id="paint3_radial_24802_29425" cx="0" cy="0" r="1" gradientUnits="userSpaceOnUse" gradientTransform="translate(345.623 317.041) scale(531.445 530.727)">
<stop stop-color="#372D98"/>
<stop offset="1" stop-color="#131724"/>
</radialGradient>
<linearGradient id="paint4_linear_24802_29425" x1="352.031" y1="359.499" x2="352.031" y2="726.856" gradientUnits="userSpaceOnUse">
<stop stop-color="white"/>
<stop offset="1" stop-color="#709CFA"/>
</linearGradient>
<radialGradient id="paint5_radial_24802_29425" cx="0" cy="0" r="1" gradientUnits="userSpaceOnUse" gradientTransform="translate(345.258 331.99) scale(260.351 260)">
<stop stop-color="#372D98"/>
<stop offset="1" stop-color="#131724"/>
</radialGradient>
<radialGradient id="paint6_radial_24802_29425" cx="0" cy="0" r="1" gradientUnits="userSpaceOnUse" gradientTransform="translate(369.158 430.958) scale(53.4704 53.3982)">
<stop stop-color="#372D98"/>
<stop offset="1" stop-color="#131724"/>
</radialGradient>
<radialGradient id="paint7_radial_24802_29425" cx="0" cy="0" r="1" gradientUnits="userSpaceOnUse" gradientTransform="translate(385.694 430.231) scale(53.4704 53.3982)">
<stop stop-color="#372D98"/>
<stop offset="1" stop-color="#131724"/>
</radialGradient>
<radialGradient id="paint8_radial_24802_29425" cx="0" cy="0" r="1" gradientUnits="userSpaceOnUse" gradientTransform="translate(452.573 319.699) scale(210.019 209.736)">
<stop stop-color="#372D98"/>
<stop offset="1" stop-color="#131724"/>
</radialGradient>
<radialGradient id="paint9_radial_24802_29425" cx="0" cy="0" r="1" gradientUnits="userSpaceOnUse" gradientTransform="translate(452.57 312.707) scale(210.019 209.735)">
<stop stop-color="#372D98"/>
<stop offset="1" stop-color="#131724"/>
</radialGradient>
<radialGradient id="paint10_radial_24802_29425" cx="0" cy="0" r="1" gradientUnits="userSpaceOnUse" gradientTransform="translate(452.578 313.553) scale(214.605 214.316)">
<stop stop-color="#372D98"/>
<stop offset="1" stop-color="#131724"/>
</radialGradient>
<radialGradient id="paint11_radial_24802_29425" cx="0" cy="0" r="1" gradientUnits="userSpaceOnUse" gradientTransform="translate(452.571 309.325) scale(218.106 217.811)">
<stop stop-color="#372D98"/>
<stop offset="1" stop-color="#131724"/>
</radialGradient>
<radialGradient id="paint12_radial_24802_29425" cx="0" cy="0" r="1" gradientUnits="userSpaceOnUse" gradientTransform="translate(452.567 298.483) scale(233.677 233.361)">
<stop stop-color="#372D98"/>
<stop offset="1" stop-color="#131724"/>
</radialGradient>
<radialGradient id="paint13_radial_24802_29425" cx="0" cy="0" r="1" gradientUnits="userSpaceOnUse" gradientTransform="translate(452.575 308.612) scale(221.124 220.825)">
<stop stop-color="#372D98"/>
<stop offset="1" stop-color="#131724"/>
</radialGradient>
<radialGradient id="paint14_radial_24802_29425" cx="0" cy="0" r="1" gradientUnits="userSpaceOnUse" gradientTransform="translate(132.697 426.014) scale(66.0233 65.9341)">
<stop stop-color="#372D98"/>
<stop offset="1" stop-color="#131724"/>
</radialGradient>
<radialGradient id="paint15_radial_24802_29425" cx="0" cy="0" r="1" gradientUnits="userSpaceOnUse" gradientTransform="translate(493.964 348.386) scale(66.7473 66.6573)">
<stop stop-color="#372D98"/>
<stop offset="1" stop-color="#131724"/>
</radialGradient>
<radialGradient id="paint16_radial_24802_29425" cx="0" cy="0" r="1" gradientUnits="userSpaceOnUse" gradientTransform="translate(520.157 375.629) scale(28.3646 28.3262)">
<stop stop-color="#372D98"/>
<stop offset="1" stop-color="#131724"/>
</radialGradient>
<radialGradient id="paint17_radial_24802_29425" cx="0" cy="0" r="1" gradientUnits="userSpaceOnUse" gradientTransform="translate(559.618 432.882) scale(28.3648 28.3264)">
<stop stop-color="#372D98"/>
<stop offset="1" stop-color="#131724"/>
</radialGradient>
<radialGradient id="paint18_radial_24802_29425" cx="0" cy="0" r="1" gradientUnits="userSpaceOnUse" gradientTransform="translate(598.126 394.916) scale(28.3646 28.3264)">
<stop stop-color="#372D98"/>
<stop offset="1" stop-color="#131724"/>
</radialGradient>
<radialGradient id="paint19_radial_24802_29425" cx="0" cy="0" r="1" gradientUnits="userSpaceOnUse" gradientTransform="translate(634.341 453.494) scale(29.451 29.4113)">
<stop stop-color="#372D98"/>
<stop offset="1" stop-color="#131724"/>
</radialGradient>
<radialGradient id="paint20_radial_24802_29425" cx="0" cy="0" r="1" gradientUnits="userSpaceOnUse" gradientTransform="translate(623.714 398.166) scale(45.5041 45.4428)">
<stop stop-color="#372D98"/>
<stop offset="1" stop-color="#131724"/>
</radialGradient>
<radialGradient id="paint21_radial_24802_29425" cx="0" cy="0" r="1" gradientUnits="userSpaceOnUse" gradientTransform="translate(502.288 416.135) scale(45.2627 45.2017)">
<stop stop-color="#372D98"/>
<stop offset="1" stop-color="#131724"/>
</radialGradient>
<radialGradient id="paint22_radial_24802_29425" cx="0" cy="0" r="1" gradientUnits="userSpaceOnUse" gradientTransform="translate(231.196 389.247) scale(39.9519 39.898)">
<stop stop-color="#372D98"/>
<stop offset="1" stop-color="#131724"/>
</radialGradient>
<radialGradient id="paint23_radial_24802_29425" cx="0" cy="0" r="1" gradientUnits="userSpaceOnUse" gradientTransform="translate(225.281 434.325) scale(39.9519 39.898)">
<stop stop-color="#372D98"/>
<stop offset="1" stop-color="#131724"/>
</radialGradient>
<radialGradient id="paint24_radial_24802_29425" cx="0" cy="0" r="1" gradientUnits="userSpaceOnUse" gradientTransform="translate(241.946 431.193) scale(24.8644 24.8307)">
<stop stop-color="#372D98"/>
<stop offset="1" stop-color="#131724"/>
</radialGradient>
<radialGradient id="paint25_radial_24802_29425" cx="0" cy="0" r="1" gradientUnits="userSpaceOnUse" gradientTransform="translate(206.696 371.65) scale(24.8644 24.8308)">
<stop stop-color="#372D98"/>
<stop offset="1" stop-color="#131724"/>
</radialGradient>
<radialGradient id="paint26_radial_24802_29425" cx="0" cy="0" r="1" gradientUnits="userSpaceOnUse" gradientTransform="translate(161.31 431.193) scale(24.8644 24.8307)">
<stop stop-color="#372D98"/>
<stop offset="1" stop-color="#131724"/>
</radialGradient>
<radialGradient id="paint27_radial_24802_29425" cx="0" cy="0" r="1" gradientUnits="userSpaceOnUse" gradientTransform="translate(271.15 370.562) scale(66.0233 65.9341)">
<stop stop-color="#372D98"/>
<stop offset="1" stop-color="#131724"/>
</radialGradient>
<radialGradient id="paint28_radial_24802_29425" cx="0" cy="0" r="1" gradientUnits="userSpaceOnUse" gradientTransform="translate(299.747 375.75) scale(24.8644 24.8307)">
<stop stop-color="#372D98"/>
<stop offset="1" stop-color="#131724"/>
</radialGradient>
<radialGradient id="paint29_radial_24802_29425" cx="0" cy="0" r="1" gradientUnits="userSpaceOnUse" gradientTransform="translate(163.843 383.224) scale(24.8644 24.8307)">
<stop stop-color="#372D98"/>
<stop offset="1" stop-color="#131724"/>
</radialGradient>
<linearGradient id="paint30_linear_24802_29425" x1="168.992" y1="273.85" x2="287.433" y2="169.03" gradientUnits="userSpaceOnUse">
<stop stop-color="white"/>
<stop offset="1" stop-color="white" stop-opacity="0"/>
</linearGradient>
<linearGradient id="paint31_linear_24802_29425" x1="521.851" y1="173.374" x2="640.293" y2="68.5544" gradientUnits="userSpaceOnUse">
<stop stop-color="white"/>
<stop offset="1" stop-color="white" stop-opacity="0"/>
</linearGradient>
<linearGradient id="paint32_linear_24802_29425" x1="403.71" y1="320.578" x2="108.262" y2="70.5835" gradientUnits="userSpaceOnUse">
<stop stop-color="white"/>
<stop offset="0.94666" stop-color="#D2FFFC"/>
</linearGradient>
<linearGradient id="paint33_linear_24802_29425" x1="-7.11255" y1="60.7444" x2="30.4322" y2="109.119" gradientUnits="userSpaceOnUse">
<stop stop-color="#614D97"/>
<stop offset="1" stop-color="#614D97" stop-opacity="0"/>
</linearGradient>
<linearGradient id="paint34_linear_24802_29425" x1="461.183" y1="315.104" x2="423.638" y2="266.729" gradientUnits="userSpaceOnUse">
<stop stop-color="#614D97"/>
<stop offset="1" stop-color="#614D97" stop-opacity="0"/>
</linearGradient>
</defs>
</svg>
