<svg width="200" height="200" viewBox="0 0 200 200" fill="none" xmlns="http://www.w3.org/2000/svg">
<rect width="200" height="200" fill="white"/>
<path d="M180.39 39.2413C147.74 13.7404 115.474 45.3805 74.3286 46.9694C48.847 47.9534 23.476 28.2913 12.3147 51.2196C5.1674 65.9023 17.7947 80.1022 20.4278 100.869C23.1609 122.425 7.67726 142.598 23.326 157.474C39.1336 172.5 59.6456 153.379 86.8855 153.03C125.165 152.54 161.843 183.645 182.321 160.758C194.948 146.646 180.39 134.102 180.39 115.165C180.39 98.7441 208.092 60.8788 180.39 39.2413Z" fill="url(#paint0_radial_24804_30326)"/>
<path d="M194.3 105.313C190.832 104.945 189.242 108.823 188.697 112.268C188.217 115.308 187.949 119.528 191.016 119.802C193.462 120.021 194.529 117.737 195.652 115.552C197.495 111.964 198.311 105.738 194.3 105.313Z" fill="url(#paint1_radial_24804_30326)"/>
<path d="M3.6211 102.029C3.84871 98.7889 4.67983 95.4821 7.87129 94.8806C11.8899 94.123 13.4763 99.8896 13.0874 103.96C12.7809 107.169 11.8322 110.442 8.64405 110.915C4.70069 111.5 3.34172 106.005 3.6211 102.029Z" fill="url(#paint2_radial_24804_30326)"/>
<path d="M78.5784 31.1278C73.6187 30.4727 69.1764 32.1192 66.2142 36.1508C63.2521 40.1823 72.0472 41.3448 76.4533 40.9805C80.833 40.6184 87.2826 38.7152 85.7264 34.6052C84.6273 31.7021 81.656 31.5343 78.5784 31.1278Z" fill="url(#paint3_radial_24804_30326)"/>
<path d="M96.7383 29.001C94.7007 28.9423 92.8893 31.3711 94.0336 33.058C94.6787 34.009 94.8166 33.8564 95.9655 33.8325C97.8331 33.7935 99.9582 32.3437 99.4429 30.5482C99.0677 29.2409 98.0978 29.0402 96.7383 29.001Z" fill="url(#paint4_radial_24804_30326)"/>
<path d="M85.7264 160.37C80.1898 160.728 72.966 160.244 72.5895 165.78C72.1863 171.709 80.9673 171.538 86.8855 170.996C92.4681 170.485 100.201 169.595 99.4429 164.041C98.693 158.547 91.26 160.013 85.7264 160.37Z" fill="url(#paint5_radial_24804_30326)"/>
<mask id="mask0_24804_30326" style="mask-type:alpha" maskUnits="userSpaceOnUse" x="3" y="29" width="195" height="143">
<path d="M180.39 39.2413C147.74 13.7404 115.474 45.3805 74.3286 46.9694C48.847 47.9534 23.476 28.2913 12.3147 51.2196C5.1674 65.9023 17.7947 80.1022 20.4278 100.869C23.1609 122.425 7.67726 142.598 23.326 157.474C39.1336 172.5 59.6456 153.379 86.8855 153.03C125.165 152.54 161.843 183.645 182.321 160.758C194.948 146.646 180.39 134.102 180.39 115.165C180.39 98.7441 208.092 60.8788 180.39 39.2413Z" fill="#483287"/>
<path d="M194.3 105.313C190.832 104.945 189.242 108.823 188.697 112.268C188.217 115.308 187.949 119.528 191.016 119.802C193.462 120.021 194.529 117.737 195.652 115.552C197.495 111.964 198.311 105.738 194.3 105.313Z" fill="#483287"/>
<path d="M3.6211 102.029C3.84871 98.7889 4.67983 95.4821 7.87129 94.8806C11.8899 94.123 13.4763 99.8896 13.0874 103.96C12.7809 107.169 11.8322 110.442 8.64405 110.915C4.70069 111.5 3.34172 106.005 3.6211 102.029Z" fill="#483287"/>
<path d="M78.5784 31.1278C73.6187 30.4727 69.1764 32.1192 66.2142 36.1508C63.2521 40.1823 72.0472 41.3448 76.4533 40.9805C80.833 40.6184 87.2826 38.7152 85.7264 34.6052C84.6273 31.7021 81.656 31.5343 78.5784 31.1278Z" fill="#483287"/>
<path d="M96.7383 29.001C94.7007 28.9423 92.8893 31.3711 94.0336 33.058C94.6787 34.009 94.8166 33.8564 95.9655 33.8325C97.8331 33.7935 99.9582 32.3437 99.4429 30.5482C99.0677 29.2409 98.0978 29.0402 96.7383 29.001Z" fill="#483287"/>
<path d="M85.7264 160.37C80.1898 160.728 72.966 160.244 72.5895 165.78C72.1863 171.709 80.9673 171.538 86.8855 170.996C92.4681 170.485 100.201 169.595 99.4429 164.041C98.693 158.547 91.26 160.013 85.7264 160.37Z" fill="#483287"/>
</mask>
<g mask="url(#mask0_24804_30326)">
<g opacity="0.4" filter="url(#filter0_f_24804_30326)">
<path d="M5.4449 89.4636C-6.91711 97.7065 -31.0555 100.2 -31.0555 100.2L-38.7142 24.5213L9.80345 -9.70223L168.293 -1.32944C168.293 -1.32944 144.658 52.4838 113.479 59.2466C95.9271 63.0537 84.9509 48.3179 67.8227 53.7205C58.4224 56.6856 55.6273 64.0438 46.1009 66.5742C38.4446 68.6079 33.2671 64.6488 25.832 67.3826C14.8165 71.433 15.2097 82.9525 5.4449 89.4636Z" fill="url(#paint6_linear_24804_30326)"/>
</g>
<g filter="url(#filter1_f_24804_30326)">
<path d="M115 169.978C115 205.872 144.331 234.965 180.5 234.965C216.678 234.965 246 205.872 246 169.978C246 134.092 216.678 105 180.5 105C144.331 105 115 134.092 115 169.978Z" fill="url(#paint7_radial_24804_30326)"/>
<path d="M127.57 171.042C127.57 188.882 136.842 204.577 150.863 213.613C155.848 216.848 161.433 219.235 167.417 220.56C171.067 221.398 174.863 221.83 178.759 221.83C192.244 221.83 204.512 216.658 213.657 208.18C216.817 205.27 219.604 201.964 221.929 198.324C224.19 194.819 226.034 191.026 227.369 186.999C229.049 181.98 229.948 176.619 229.948 171.042C229.948 165.817 229.158 160.771 227.686 156.032C222.42 139.139 208.517 126.021 191.1 121.742C187.15 120.777 183.009 120.255 178.759 120.255C168.225 120.255 158.418 123.426 150.3 128.859C149.319 129.49 148.356 130.184 147.439 130.886C135.489 140.04 127.761 154.33 127.588 170.421C127.57 170.628 127.57 170.835 127.57 171.042Z" fill="url(#paint8_linear_24804_30326)"/>
<g style="mix-blend-mode:overlay" opacity="0.302">
<path d="M127.57 171.04C127.57 185.349 133.536 198.279 143.132 207.499C147.427 211.626 154.492 211.506 157.352 206.282C161.358 198.967 161.021 189.489 152.497 182.573C135.017 168.364 151.444 165.752 169.969 142.633C181.221 128.597 166.747 127.331 153.62 128.508C151.431 128.704 149.321 129.451 147.572 130.782C147.528 130.816 147.483 130.85 147.439 130.884C135.489 140.038 127.761 154.327 127.588 170.419C127.57 170.626 127.57 170.833 127.57 171.04Z" fill="white"/>
</g>
<g style="mix-blend-mode:overlay" opacity="0.302">
<path d="M194.884 134.734C212.365 149.464 214.226 143.158 207.061 161.537C203.982 169.49 207.214 180.281 213.413 189.1C217.281 194.601 225.26 193.381 227.375 186.999C229.055 181.98 229.954 176.62 229.954 171.043C229.954 165.817 229.164 160.772 227.693 156.033C223.368 142.159 213.218 130.832 200.081 124.855C194.823 122.463 187.847 125.739 191.018 130.568C191.88 131.881 193.143 133.269 194.884 134.734Z" fill="white"/>
</g>
<g style="mix-blend-mode:overlay" opacity="0.302">
<path d="M167.626 210.254C166.878 216.395 171.466 221.691 177.651 221.821C178.017 221.828 178.384 221.832 178.752 221.832C190.175 221.832 200.726 218.121 209.244 211.832C211.521 210.151 211.079 206.828 208.383 205.966C186.125 198.848 196.977 151.557 184.809 165.756C179.198 172.295 169.716 193.12 167.626 210.254Z" fill="white"/>
</g>
<g style="mix-blend-mode:overlay" opacity="0.302">
<path d="M178.991 143.432C181.698 137.774 189.262 136.008 193.748 140.423C195.954 142.585 196.744 145.711 192.776 149.991C185.384 157.946 174.796 152.216 178.991 143.432Z" fill="white"/>
</g>
</g>
<g opacity="0.2" filter="url(#filter2_f_24804_30326)">
<path d="M60.1509 147.87C35.9333 145.53 1.15982 167.909 1.15982 167.909C1.15982 167.909 40.9888 209.327 55.2844 191.28C59.2605 186.26 57.6652 181.185 61.6389 176.164C73.3846 161.321 95.3904 188.743 110.102 176.834C117.987 170.45 114.407 159.128 123.463 154.555C134.136 149.164 142.226 165.29 153.394 161.014C160.333 158.357 160.38 149.046 167.796 148.58C175.971 148.066 176.449 159.139 184.276 161.557C199.348 166.213 205.572 148.868 220.393 143.467C239.249 136.596 264.872 152.297 270.725 133.101C273.916 122.637 265.075 105.664 265.075 105.664C265.075 105.664 263.775 85.3743 254.176 81.4779C245.089 77.7896 239.894 87.1123 230.39 89.5327C224.688 90.985 220.635 89.4753 215.631 92.5724C204.743 99.3119 221.543 119.223 210.057 124.885C201.035 129.333 195.014 118.298 184.979 119.004C176.017 119.635 171.496 130.253 163.275 126.63C159.575 125 159.29 121.265 155.544 119.741C149.325 117.21 145.417 123.36 138.704 123.21C133.9 123.102 131.406 121.159 126.605 120.968C105.327 120.121 104.363 153.624 83.0694 153.801C73.8247 153.877 69.3531 148.759 60.1509 147.87Z" fill="url(#paint9_linear_24804_30326)"/>
</g>
<g opacity="0.7">
<path d="M89.9672 56.0776L54.0911 81.1111C53.707 81.3788 53.1633 81.3738 52.8765 81.0999C52.5896 80.8255 52.6679 80.3863 53.0521 80.1185C53.0594 80.1132 53.0698 80.1059 53.0772 80.1011L89.9104 56.021C89.9327 56.0065 89.9628 56.0074 89.9781 56.0235C89.9933 56.0391 89.988 56.063 89.9672 56.0776Z" fill="url(#paint10_linear_24804_30326)"/>
<path d="M182.967 27.0776L147.091 52.1111C146.707 52.3788 146.163 52.3738 145.877 52.0999C145.59 51.8255 145.668 51.3863 146.052 51.1185C146.059 51.1132 146.07 51.1059 146.077 51.1011L182.91 27.021C182.933 27.0065 182.963 27.0074 182.978 27.0235C182.993 27.0391 182.988 27.063 182.967 27.0776Z" fill="url(#paint11_linear_24804_30326)"/>
<path d="M32.3018 90.7103C32.1241 90.2075 31.7417 89.8801 31.1556 89.7278C30.9794 89.6829 30.9794 89.6452 31.1556 89.6007C31.7417 89.4484 32.1241 89.1206 32.3018 88.6182C32.3537 88.4672 32.3982 88.4672 32.4501 88.6182C32.6278 89.1206 33.0102 89.4484 33.5963 89.6007C33.772 89.6452 33.772 89.6829 33.5963 89.7278C33.0102 89.8801 32.6278 90.2075 32.4501 90.7103C32.3982 90.8609 32.3537 90.8609 32.3018 90.7103Z" fill="white"/>
<path d="M128.122 132.439C127.944 131.936 127.562 131.609 126.976 131.456C126.8 131.411 126.8 131.374 126.976 131.329C127.562 131.177 127.944 130.849 128.122 130.347C128.174 130.196 128.218 130.196 128.27 130.347C128.448 130.849 128.831 131.177 129.417 131.329C129.592 131.374 129.592 131.411 129.417 131.456C128.831 131.609 128.448 131.936 128.27 132.439C128.218 132.589 128.174 132.589 128.122 132.439Z" fill="white"/>
<path d="M36.5518 141.71C36.3741 141.207 35.9917 140.88 35.4056 140.728C35.2294 140.683 35.2294 140.645 35.4056 140.601C35.9917 140.448 36.3741 140.121 36.5518 139.618C36.6037 139.467 36.6482 139.467 36.7001 139.618C36.8778 140.121 37.2602 140.448 37.8463 140.601C38.022 140.645 38.022 140.683 37.8463 140.728C37.2602 140.88 36.8778 141.207 36.7001 141.71C36.6482 141.861 36.6037 141.861 36.5518 141.71Z" fill="white"/>
<path d="M101.849 88.7767C101.671 88.2739 101.289 87.9465 100.702 87.7942C100.526 87.7493 100.526 87.7116 100.702 87.6671C101.289 87.5148 101.671 87.187 101.849 86.6847C101.901 86.5336 101.945 86.5336 101.997 86.6847C102.175 87.187 102.557 87.5148 103.143 87.6671C103.319 87.7116 103.319 87.7493 103.143 87.7942C102.557 87.9465 102.175 88.2739 101.997 88.7767C101.945 88.9273 101.901 88.9273 101.849 88.7767Z" fill="white"/>
<path d="M161.739 43.5697C161.562 43.0669 161.179 42.7395 160.593 42.5872C160.417 42.5423 160.417 42.5046 160.593 42.4601C161.179 42.3078 161.562 41.98 161.739 41.4776C161.791 41.3266 161.836 41.3266 161.888 41.4776C162.065 41.98 162.448 42.3078 163.034 42.4601C163.21 42.5046 163.21 42.5423 163.034 42.5872C162.448 42.7395 162.065 43.0669 161.888 43.5697C161.836 43.7203 161.791 43.7203 161.739 43.5697Z" fill="white"/>
<path d="M176.419 152.145C176.241 151.642 175.859 151.315 175.273 151.162C175.097 151.117 175.097 151.08 175.273 151.035C175.859 150.883 176.241 150.555 176.419 150.053C176.471 149.902 176.515 149.902 176.567 150.053C176.745 150.555 177.127 150.883 177.713 151.035C177.889 151.08 177.889 151.117 177.713 151.162C177.127 151.315 176.745 151.642 176.567 152.145C176.515 152.295 176.471 152.295 176.419 152.145Z" fill="white"/>
<path d="M66.3018 110.028C66.1241 109.525 65.7417 109.198 65.1556 109.045C64.9794 109 64.9794 108.963 65.1556 108.918C65.7417 108.766 66.1241 108.438 66.3018 107.936C66.3537 107.785 66.3982 107.785 66.4501 107.936C66.6278 108.438 67.0102 108.766 67.5963 108.918C67.772 108.963 67.772 109 67.5963 109.045C67.0102 109.198 66.6278 109.525 66.4501 110.028C66.3982 110.178 66.3537 110.178 66.3018 110.028Z" fill="white"/>
<path d="M32.3018 55.5482C32.1241 55.0454 31.7417 54.718 31.1556 54.5657C30.9794 54.5208 30.9794 54.4831 31.1556 54.4386C31.7417 54.2863 32.1241 53.9585 32.3018 53.4561C32.3537 53.3051 32.3982 53.3051 32.4501 53.4561C32.6278 53.9585 33.0102 54.2863 33.5963 54.4386C33.772 54.4831 33.772 54.5208 33.5963 54.5657C33.0102 54.718 32.6278 55.0454 32.4501 55.5482C32.3982 55.6988 32.3537 55.6988 32.3018 55.5482Z" fill="white"/>
</g>
</g>
<g opacity="0.6" filter="url(#filter3_f_24804_30326)">
<path d="M37 135L64 103L91.5 118.5L115 85.5L148.5 94L173 62" stroke="white" stroke-width="2"/>
</g>
<path d="M37 135L64.5 103.5L91.5 118.5L114.5 86L148 93.5L173 62" stroke="#7CFFE7"/>
<g filter="url(#filter4_f_24804_30326)">
<circle cx="38.5" cy="133.5" r="7.5" fill="white"/>
</g>
<circle cx="38.5" cy="133.5" r="7.5" fill="#7CFFE7"/>
<path d="M39.1 130.6V137H37.7469V131.884H37.7094L36.2438 132.803V131.603L37.8281 130.6H39.1Z" fill="#18565F"/>
<g filter="url(#filter5_f_24804_30326)">
<circle cx="64.5" cy="104.5" r="7.5" fill="white"/>
</g>
<circle cx="64.5" cy="104.5" r="7.5" fill="#7CFFE7"/>
<path d="M62.3156 108V107.025L64.5938 104.916C64.7875 104.728 64.95 104.559 65.0813 104.409C65.2146 104.259 65.3156 104.112 65.3844 103.969C65.4531 103.823 65.4875 103.666 65.4875 103.497C65.4875 103.309 65.4448 103.148 65.3594 103.012C65.274 102.875 65.1573 102.77 65.0094 102.697C64.8615 102.622 64.6938 102.584 64.5063 102.584C64.3104 102.584 64.1396 102.624 63.9938 102.703C63.8479 102.782 63.7354 102.896 63.6563 103.044C63.5771 103.192 63.5375 103.368 63.5375 103.572H62.2531C62.2531 103.153 62.3479 102.79 62.5375 102.481C62.7271 102.173 62.9927 101.934 63.3344 101.766C63.676 101.597 64.0698 101.512 64.5156 101.512C64.974 101.512 65.3729 101.594 65.7125 101.756C66.0542 101.917 66.3198 102.14 66.5094 102.425C66.699 102.71 66.7938 103.037 66.7938 103.406C66.7938 103.648 66.7458 103.886 66.65 104.122C66.5563 104.357 66.3885 104.619 66.1469 104.906C65.9052 105.192 65.5646 105.534 65.125 105.934L64.1906 106.85V106.894H66.8781V108H62.3156Z" fill="#18565F"/>
<g filter="url(#filter6_f_24804_30326)">
<circle cx="90.5" cy="117.5" r="7.5" fill="white"/>
</g>
<circle cx="90.5" cy="117.5" r="7.5" fill="#7CFFE7"/>
<path d="M90.6813 121.088C90.2146 121.088 89.799 121.007 89.4344 120.847C89.0719 120.684 88.7854 120.461 88.575 120.178C88.3667 119.893 88.2594 119.564 88.2531 119.191H89.6156C89.624 119.347 89.675 119.484 89.7688 119.603C89.8646 119.72 89.9917 119.81 90.15 119.875C90.3083 119.94 90.4865 119.972 90.6844 119.972C90.8906 119.972 91.0729 119.935 91.2313 119.862C91.3896 119.79 91.5135 119.689 91.6031 119.559C91.6927 119.43 91.7375 119.281 91.7375 119.112C91.7375 118.942 91.6896 118.791 91.5938 118.659C91.5 118.526 91.3646 118.422 91.1875 118.347C91.0125 118.272 90.8042 118.234 90.5625 118.234H89.9656V117.241H90.5625C90.7667 117.241 90.9469 117.205 91.1031 117.134C91.2615 117.064 91.3844 116.966 91.4719 116.841C91.5594 116.714 91.6031 116.566 91.6031 116.397C91.6031 116.236 91.5646 116.096 91.4875 115.975C91.4125 115.852 91.3063 115.756 91.1688 115.687C91.0333 115.619 90.875 115.584 90.6938 115.584C90.5104 115.584 90.3427 115.618 90.1906 115.684C90.0385 115.749 89.9167 115.842 89.825 115.962C89.7333 116.083 89.6844 116.225 89.6781 116.387H88.3813C88.3875 116.019 88.4927 115.694 88.6969 115.412C88.901 115.131 89.176 114.911 89.5219 114.753C89.8698 114.593 90.2625 114.512 90.7 114.512C91.1417 114.512 91.5281 114.593 91.8594 114.753C92.1906 114.914 92.4479 115.13 92.6313 115.403C92.8167 115.674 92.9083 115.978 92.9063 116.316C92.9083 116.674 92.7969 116.973 92.5719 117.212C92.349 117.452 92.0583 117.604 91.7 117.669V117.719C92.1708 117.779 92.5292 117.943 92.775 118.209C93.0229 118.474 93.1458 118.805 93.1438 119.203C93.1458 119.568 93.0406 119.892 92.8281 120.175C92.6177 120.458 92.3271 120.681 91.9563 120.844C91.5854 121.006 91.1604 121.088 90.6813 121.088Z" fill="#18565F"/>
<g filter="url(#filter7_f_24804_30326)">
<circle cx="114.5" cy="86.5" r="7.5" fill="white"/>
</g>
<circle cx="114.5" cy="86.5" r="7.5" fill="#7CFFE7"/>
<path d="M112.219 88.875V87.8094L114.891 83.6H115.809V85.075H115.266L113.581 87.7406V87.7906H117.378V88.875H112.219ZM115.291 90V88.55L115.316 88.0781V83.6H116.584V90H115.291Z" fill="#18565F"/>
<g filter="url(#filter8_f_24804_30326)">
<circle cx="148.5" cy="92.5" r="7.5" fill="white"/>
</g>
<circle cx="148.5" cy="92.5" r="7.5" fill="#7CFFE7"/>
<path d="M148.653 96.0875C148.211 96.0875 147.818 96.0062 147.472 95.8437C147.128 95.6812 146.855 95.4573 146.653 95.1719C146.451 94.8865 146.346 94.5594 146.338 94.1906H147.65C147.665 94.4385 147.769 94.6396 147.963 94.7937C148.156 94.9479 148.386 95.025 148.653 95.025C148.866 95.025 149.053 94.9781 149.216 94.8844C149.38 94.7885 149.508 94.6562 149.6 94.4875C149.694 94.3167 149.741 94.1208 149.741 93.9C149.741 93.675 149.693 93.4771 149.597 93.3062C149.503 93.1354 149.373 93.0021 149.206 92.9062C149.04 92.8104 148.849 92.7615 148.634 92.7594C148.447 92.7594 148.265 92.7979 148.088 92.875C147.913 92.9521 147.776 93.0573 147.678 93.1906L146.475 92.975L146.778 89.6H150.691V90.7062H147.894L147.728 92.3094H147.766C147.878 92.151 148.048 92.0198 148.275 91.9156C148.502 91.8115 148.756 91.7594 149.038 91.7594C149.423 91.7594 149.767 91.85 150.069 92.0312C150.371 92.2125 150.609 92.4615 150.784 92.7781C150.959 93.0927 151.046 93.4552 151.044 93.8656C151.046 94.2969 150.946 94.6802 150.744 95.0156C150.544 95.349 150.264 95.6115 149.903 95.8031C149.545 95.9927 149.128 96.0875 148.653 96.0875Z" fill="#18565F"/>
<g filter="url(#filter9_f_24804_30326)">
<circle cx="172.5" cy="64.5" r="7.5" fill="white"/>
</g>
<circle cx="172.5" cy="64.5" r="7.5" fill="#7CFFE7"/>
<path d="M172.772 68.0875C172.443 68.0854 172.125 68.0302 171.819 67.9219C171.515 67.8135 171.242 67.6375 171 67.3937C170.758 67.15 170.567 66.8271 170.425 66.425C170.285 66.0229 170.216 65.5292 170.216 64.9437C170.218 64.4062 170.279 63.926 170.4 63.5031C170.523 63.0781 170.698 62.7177 170.925 62.4219C171.154 62.126 171.428 61.901 171.747 61.7469C172.066 61.5906 172.423 61.5125 172.819 61.5125C173.246 61.5125 173.623 61.5958 173.95 61.7625C174.277 61.9271 174.54 62.151 174.738 62.4344C174.938 62.7177 175.058 63.0354 175.1 63.3875H173.766C173.714 63.1646 173.604 62.9896 173.438 62.8625C173.271 62.7354 173.065 62.6719 172.819 62.6719C172.402 62.6719 172.085 62.8531 171.869 63.2156C171.654 63.5781 171.545 64.0708 171.541 64.6937H171.584C171.68 64.5042 171.809 64.3427 171.972 64.2094C172.136 64.074 172.323 63.9708 172.531 63.9C172.742 63.8271 172.964 63.7906 173.197 63.7906C173.576 63.7906 173.914 63.8802 174.209 64.0594C174.505 64.2365 174.739 64.4802 174.909 64.7906C175.08 65.101 175.166 65.4562 175.166 65.8562C175.166 66.2896 175.065 66.675 174.863 67.0125C174.663 67.35 174.382 67.6146 174.022 67.8062C173.664 67.9958 173.247 68.0896 172.772 68.0875ZM172.766 67.025C172.974 67.025 173.16 66.975 173.325 66.875C173.49 66.775 173.619 66.6396 173.713 66.4687C173.806 66.2979 173.853 66.1062 173.853 65.8937C173.853 65.6812 173.806 65.4906 173.713 65.3219C173.621 65.1531 173.494 65.0187 173.331 64.9187C173.169 64.8187 172.983 64.7687 172.775 64.7687C172.619 64.7687 172.474 64.7979 172.341 64.8562C172.209 64.9146 172.094 64.9958 171.994 65.1C171.896 65.2042 171.819 65.325 171.763 65.4625C171.706 65.5979 171.678 65.7427 171.678 65.8969C171.678 66.1031 171.725 66.2917 171.819 66.4625C171.915 66.6333 172.044 66.7698 172.206 66.8719C172.371 66.974 172.557 67.025 172.766 67.025Z" fill="#18565F"/>
<defs>
<filter id="filter0_f_24804_30326" x="-42.6875" y="-13.6787" width="214.953" height="117.855" filterUnits="userSpaceOnUse" color-interpolation-filters="sRGB">
<feFlood flood-opacity="0" result="BackgroundImageFix"/>
<feBlend mode="normal" in="SourceGraphic" in2="BackgroundImageFix" result="shape"/>
<feGaussianBlur stdDeviation="1.98828" result="effect1_foregroundBlur_24804_30326"/>
</filter>
<filter id="filter1_f_24804_30326" x="114" y="104" width="133" height="131.965" filterUnits="userSpaceOnUse" color-interpolation-filters="sRGB">
<feFlood flood-opacity="0" result="BackgroundImageFix"/>
<feBlend mode="normal" in="SourceGraphic" in2="BackgroundImageFix" result="shape"/>
<feGaussianBlur stdDeviation="0.5" result="effect1_foregroundBlur_24804_30326"/>
</filter>
<filter id="filter2_f_24804_30326" x="-2.82031" y="76.6484" width="278.219" height="123.162" filterUnits="userSpaceOnUse" color-interpolation-filters="sRGB">
<feFlood flood-opacity="0" result="BackgroundImageFix"/>
<feBlend mode="normal" in="SourceGraphic" in2="BackgroundImageFix" result="shape"/>
<feGaussianBlur stdDeviation="1.98828" result="effect1_foregroundBlur_24804_30326"/>
</filter>
<filter id="filter3_f_24804_30326" x="32.2344" y="57.3921" width="145.562" height="82.2529" filterUnits="userSpaceOnUse" color-interpolation-filters="sRGB">
<feFlood flood-opacity="0" result="BackgroundImageFix"/>
<feBlend mode="normal" in="SourceGraphic" in2="BackgroundImageFix" result="shape"/>
<feGaussianBlur stdDeviation="2" result="effect1_foregroundBlur_24804_30326"/>
</filter>
<filter id="filter4_f_24804_30326" x="17.4" y="112.4" width="42.2" height="42.2" filterUnits="userSpaceOnUse" color-interpolation-filters="sRGB">
<feFlood flood-opacity="0" result="BackgroundImageFix"/>
<feBlend mode="normal" in="SourceGraphic" in2="BackgroundImageFix" result="shape"/>
<feGaussianBlur stdDeviation="6.8" result="effect1_foregroundBlur_24804_30326"/>
</filter>
<filter id="filter5_f_24804_30326" x="43.4" y="83.4" width="42.2" height="42.2" filterUnits="userSpaceOnUse" color-interpolation-filters="sRGB">
<feFlood flood-opacity="0" result="BackgroundImageFix"/>
<feBlend mode="normal" in="SourceGraphic" in2="BackgroundImageFix" result="shape"/>
<feGaussianBlur stdDeviation="6.8" result="effect1_foregroundBlur_24804_30326"/>
</filter>
<filter id="filter6_f_24804_30326" x="69.4" y="96.4" width="42.2" height="42.2" filterUnits="userSpaceOnUse" color-interpolation-filters="sRGB">
<feFlood flood-opacity="0" result="BackgroundImageFix"/>
<feBlend mode="normal" in="SourceGraphic" in2="BackgroundImageFix" result="shape"/>
<feGaussianBlur stdDeviation="6.8" result="effect1_foregroundBlur_24804_30326"/>
</filter>
<filter id="filter7_f_24804_30326" x="93.4" y="65.4" width="42.2" height="42.2" filterUnits="userSpaceOnUse" color-interpolation-filters="sRGB">
<feFlood flood-opacity="0" result="BackgroundImageFix"/>
<feBlend mode="normal" in="SourceGraphic" in2="BackgroundImageFix" result="shape"/>
<feGaussianBlur stdDeviation="6.8" result="effect1_foregroundBlur_24804_30326"/>
</filter>
<filter id="filter8_f_24804_30326" x="127.4" y="71.4" width="42.2" height="42.2" filterUnits="userSpaceOnUse" color-interpolation-filters="sRGB">
<feFlood flood-opacity="0" result="BackgroundImageFix"/>
<feBlend mode="normal" in="SourceGraphic" in2="BackgroundImageFix" result="shape"/>
<feGaussianBlur stdDeviation="6.8" result="effect1_foregroundBlur_24804_30326"/>
</filter>
<filter id="filter9_f_24804_30326" x="151.4" y="43.4" width="42.2" height="42.2" filterUnits="userSpaceOnUse" color-interpolation-filters="sRGB">
<feFlood flood-opacity="0" result="BackgroundImageFix"/>
<feBlend mode="normal" in="SourceGraphic" in2="BackgroundImageFix" result="shape"/>
<feGaussianBlur stdDeviation="6.8" result="effect1_foregroundBlur_24804_30326"/>
</filter>
<radialGradient id="paint0_radial_24804_30326" cx="0" cy="0" r="1" gradientUnits="userSpaceOnUse" gradientTransform="translate(100.381 100.122) rotate(90.2313) scale(93.8792 127.768)">
<stop stop-color="#573AA7"/>
<stop offset="1" stop-color="#362564"/>
</radialGradient>
<radialGradient id="paint1_radial_24804_30326" cx="0" cy="0" r="1" gradientUnits="userSpaceOnUse" gradientTransform="translate(100.381 100.122) rotate(90.2313) scale(93.8792 127.768)">
<stop stop-color="#573AA7"/>
<stop offset="1" stop-color="#362564"/>
</radialGradient>
<radialGradient id="paint2_radial_24804_30326" cx="0" cy="0" r="1" gradientUnits="userSpaceOnUse" gradientTransform="translate(100.381 100.122) rotate(90.2313) scale(93.8792 127.768)">
<stop stop-color="#573AA7"/>
<stop offset="1" stop-color="#362564"/>
</radialGradient>
<radialGradient id="paint3_radial_24804_30326" cx="0" cy="0" r="1" gradientUnits="userSpaceOnUse" gradientTransform="translate(100.381 100.122) rotate(90.2313) scale(93.8792 127.768)">
<stop stop-color="#573AA7"/>
<stop offset="1" stop-color="#362564"/>
</radialGradient>
<radialGradient id="paint4_radial_24804_30326" cx="0" cy="0" r="1" gradientUnits="userSpaceOnUse" gradientTransform="translate(100.381 100.122) rotate(90.2313) scale(93.8792 127.768)">
<stop stop-color="#573AA7"/>
<stop offset="1" stop-color="#362564"/>
</radialGradient>
<radialGradient id="paint5_radial_24804_30326" cx="0" cy="0" r="1" gradientUnits="userSpaceOnUse" gradientTransform="translate(100.381 100.122) rotate(90.2313) scale(93.8792 127.768)">
<stop stop-color="#573AA7"/>
<stop offset="1" stop-color="#362564"/>
</radialGradient>
<linearGradient id="paint6_linear_24804_30326" x1="25.4394" y1="-1.08227" x2="71.2254" y2="100.536" gradientUnits="userSpaceOnUse">
<stop stop-color="#DF4395"/>
<stop offset="1" stop-color="#DF4395" stop-opacity="0"/>
</linearGradient>
<radialGradient id="paint7_radial_24804_30326" cx="0" cy="0" r="1" gradientUnits="userSpaceOnUse" gradientTransform="translate(180.502 169.981) scale(65.4982 64.985)">
<stop stop-color="#FEE7CA"/>
<stop offset="1" stop-color="#FEE7CA" stop-opacity="0"/>
</radialGradient>
<linearGradient id="paint8_linear_24804_30326" x1="185.041" y1="251.712" x2="248.169" y2="170.27" gradientUnits="userSpaceOnUse">
<stop offset="0.137" stop-color="#B353E9"/>
<stop offset="1" stop-color="#F7D3A1"/>
</linearGradient>
<linearGradient id="paint9_linear_24804_30326" x1="127.876" y1="105.573" x2="145.018" y2="158.788" gradientUnits="userSpaceOnUse">
<stop stop-color="#67E8F9"/>
<stop offset="1" stop-color="#67E8F9" stop-opacity="0"/>
</linearGradient>
<linearGradient id="paint10_linear_24804_30326" x1="44.2752" y1="89.2035" x2="82.5343" y2="55.3446" gradientUnits="userSpaceOnUse">
<stop stop-color="white"/>
<stop offset="1" stop-color="white" stop-opacity="0"/>
</linearGradient>
<linearGradient id="paint11_linear_24804_30326" x1="137.275" y1="60.2035" x2="175.534" y2="26.3446" gradientUnits="userSpaceOnUse">
<stop stop-color="white"/>
<stop offset="1" stop-color="white" stop-opacity="0"/>
</linearGradient>
</defs>
</svg>
