<svg width="200" height="200" viewBox="0 0 200 200" fill="none" xmlns="http://www.w3.org/2000/svg">
<g clip-path="url(#clip0_24807_30381)">
<rect width="200" height="200" fill="white"/>
<g filter="url(#filter0_f_24807_30381)">
<path d="M182.595 50.7022C148.735 24.2556 115.272 57.0691 72.6006 58.7169C46.174 59.7374 19.862 39.3461 8.2869 63.1247C0.874487 78.3519 13.9701 93.0784 16.7008 114.616C19.5353 136.971 3.47743 157.892 19.7065 173.319C36.1003 188.903 57.373 169.073 85.6232 168.711C125.323 168.203 163.361 200.462 184.598 176.726C197.694 162.09 182.595 149.081 182.595 129.442C182.595 112.412 211.325 73.1421 182.595 50.7022Z" fill="#583EA0"/>
<path d="M197.021 119.224C193.424 118.843 191.775 122.864 191.211 126.437C190.712 129.59 190.435 133.966 193.615 134.251C196.152 134.477 197.259 132.109 198.423 129.843C200.335 126.122 201.181 119.665 197.021 119.224Z" fill="#583EA0"/>
<path d="M-0.729155 115.818C-0.493111 112.458 0.368837 109.029 3.67865 108.405C7.8463 107.619 9.49156 113.6 9.08823 117.822C8.77035 121.149 7.78646 124.544 4.48007 125.034C0.390473 125.641 -1.0189 119.942 -0.729155 115.818Z" fill="#583EA0"/>
<path d="M77.008 42.2878C71.8644 41.6084 67.2573 43.3159 64.1853 47.497C61.1134 51.6781 70.2346 52.8837 74.8041 52.5059C79.3463 52.1303 86.035 50.1565 84.4212 45.8942C83.2812 42.8833 80.1997 42.7093 77.008 42.2878Z" fill="#583EA0"/>
<path d="M95.8414 40.0821C93.7282 40.0212 91.8497 42.5401 93.0364 44.2896C93.7054 45.2759 93.8484 45.1176 95.04 45.0928C96.9768 45.0524 99.1807 43.5488 98.6463 41.6867C98.2572 40.3309 97.2513 40.1228 95.8414 40.0821Z" fill="#583EA0"/>
<path d="M84.4212 176.323C78.6792 176.694 71.1874 176.193 70.797 181.933C70.3788 188.083 79.4855 187.905 85.6232 187.343C91.4128 186.813 99.4326 185.891 98.6463 180.13C97.8686 174.432 90.16 175.953 84.4212 176.323Z" fill="#583EA0"/>
<mask id="mask0_24807_30381" style="mask-type:alpha" maskUnits="userSpaceOnUse" x="-1" y="40" width="201" height="148">
<path d="M182.595 50.7017C148.735 24.2551 115.272 57.0686 72.6006 58.7164C46.174 59.7369 19.862 39.3456 8.2869 63.1242C0.874487 78.3514 13.9701 93.0779 16.7008 114.615C19.5353 136.97 3.47743 157.892 19.7065 173.319C36.1003 188.903 57.373 169.072 85.6232 168.711C125.323 168.203 163.361 200.461 184.598 176.725C197.694 162.089 182.595 149.08 182.595 129.441C182.595 112.411 211.325 73.1416 182.595 50.7017Z" fill="#483287"/>
<path d="M197.021 119.224C193.424 118.842 191.775 122.864 191.211 126.436C190.712 129.59 190.435 133.966 193.615 134.25C196.152 134.477 197.259 132.108 198.423 129.842C200.335 126.122 201.181 119.665 197.021 119.224Z" fill="#483287"/>
<path d="M-0.729155 115.817C-0.493111 112.458 0.368837 109.028 3.67865 108.404C7.8463 107.619 9.49156 113.599 9.08823 117.821C8.77035 121.148 7.78646 124.543 4.48007 125.034C0.390473 125.64 -1.0189 119.942 -0.729155 115.817Z" fill="#483287"/>
<path d="M77.008 42.2873C71.8644 41.6079 67.2573 43.3154 64.1853 47.4965C61.1134 51.6776 70.2346 52.8832 74.8041 52.5054C79.3463 52.1298 86.035 50.156 84.4212 45.8937C83.2812 42.8829 80.1997 42.7089 77.008 42.2873Z" fill="#483287"/>
<path d="M95.8414 40.0817C93.7282 40.0207 91.8497 42.5396 93.0364 44.2891C93.7054 45.2754 93.8484 45.1171 95.04 45.0923C96.9768 45.0519 99.1807 43.5483 98.6463 41.6862C98.2572 40.3304 97.2513 40.1223 95.8414 40.0817Z" fill="#483287"/>
<path d="M84.4212 176.323C78.6792 176.694 71.1874 176.192 70.797 181.933C70.3788 188.082 79.4855 187.904 85.6232 187.342C91.4128 186.813 99.4326 185.89 98.6463 180.13C97.8686 174.432 90.16 175.952 84.4212 176.323Z" fill="#483287"/>
</mask>
<g mask="url(#mask0_24807_30381)">
<g opacity="0.4" filter="url(#filter1_f_24807_30381)">
<path d="M27.1303 122.209C14.3098 130.757 -10.7238 133.343 -10.7238 133.343L-18.6665 54.858L31.6505 19.3652L196.017 28.0485C196.017 28.0485 171.506 83.8575 139.171 90.8711C120.968 94.8194 109.585 79.5371 91.8214 85.1401C82.0725 88.2151 79.1738 95.8462 69.294 98.4705C61.3538 100.58 55.9843 96.4736 48.2735 99.3089C36.8495 103.509 37.2572 115.456 27.1303 122.209Z" fill="url(#paint0_linear_24807_30381)"/>
</g>
<g opacity="0.2" filter="url(#filter2_f_24807_30381)">
<path d="M35.7761 149.007C10.6603 146.58 -25.4028 169.79 -25.4028 169.79C-25.4028 169.79 15.9033 212.743 30.7291 194.027C34.8526 188.821 33.1981 183.558 37.3193 178.35C49.5006 162.957 72.3224 191.396 87.5796 179.045C95.7572 172.425 92.0444 160.683 101.436 155.94C112.505 150.349 120.895 167.073 132.477 162.639C139.673 159.883 139.722 150.227 147.413 149.744C155.892 149.211 156.387 160.695 164.504 163.202C180.135 168.031 186.59 150.043 201.961 144.441C221.516 137.315 248.09 153.598 254.16 133.69C257.469 122.838 248.3 105.236 248.3 105.236C248.3 105.236 246.952 84.1939 236.997 80.1531C227.573 76.3279 222.185 85.9964 212.329 88.5066C206.415 90.0128 202.212 88.447 197.023 91.659C185.731 98.6484 203.153 119.298 191.242 125.17C181.885 129.783 175.64 118.339 165.234 119.071C155.94 119.725 151.251 130.737 142.725 126.98C138.887 125.289 138.592 121.416 134.707 119.835C128.257 117.211 124.204 123.589 117.242 123.432C112.26 123.32 109.674 121.306 104.694 121.107C82.6275 120.229 81.6281 154.975 59.5445 155.158C49.9569 155.237 45.3196 149.929 35.7761 149.007Z" fill="url(#paint1_linear_24807_30381)"/>
</g>
<path opacity="0.3" d="M78.1851 118.497C88.2954 117.333 97.5653 123.454 100.748 132.694C111.214 132.929 120.166 140.855 121.396 151.548C122.741 163.23 114.361 173.79 102.679 175.135C100.978 175.33 99.3019 175.32 97.6742 175.123C97.8798 175.972 98.0356 176.842 98.1379 177.731C99.4824 189.413 91.1022 199.973 79.4202 201.317C74.7931 201.85 70.3419 200.857 66.5698 198.737C63.4377 204.878 57.3875 209.384 50.0263 210.231C40.6087 211.315 31.9203 206.079 28.2016 197.888C21.6803 196.586 16.1146 192.273 13.2175 186.308C11.1912 187.518 8.9361 188.406 6.51497 188.892C6.07667 199.172 -1.77864 207.897 -12.325 209.111C-24.007 210.455 -34.5669 202.075 -35.9113 190.393C-37.1865 179.312 -29.7124 169.241 -18.9702 167.086C-18.5319 156.806 -10.6766 148.081 -0.130223 146.868C9.09591 145.806 17.6222 150.81 21.4616 158.715C23.9757 157.213 26.8421 156.208 29.9408 155.851C32.6812 155.536 35.3599 155.756 37.8724 156.428C38.296 146.134 46.1566 137.392 56.7137 136.177C57.6953 136.065 58.669 136.02 59.63 136.041C61.1872 126.957 68.5671 119.603 78.1851 118.497Z" fill="white"/>
<circle cx="53.9461" cy="177.865" r="15.1102" fill="white"/>
<circle cx="25.1021" cy="173.744" r="23.3521" fill="#756398"/>
<circle cx="26.4771" cy="173.744" r="23.3521" fill="white"/>
<circle cx="84.1649" cy="176.491" r="15.1102" fill="white"/>
<circle cx="48.4539" cy="161.381" r="15.1102" fill="#756398"/>
<circle cx="49.8289" cy="161.381" r="15.1102" fill="white"/>
<circle cx="73.1805" cy="157.26" r="15.1102" fill="white"/>
<circle cx="71.8095" cy="188.853" r="10.9892" fill="white"/>
<circle cx="69.0622" cy="143.523" r="8.24191" fill="white"/>
<circle cx="86.9138" cy="146.271" r="8.24191" fill="white"/>
<circle cx="56.7001" cy="149.018" r="10.9892" fill="#756398"/>
<circle cx="56.7001" cy="150.392" r="10.9892" fill="white"/>
<circle cx="97.8982" cy="142.15" r="8.24191" fill="white"/>
<circle cx="67.6794" cy="168.249" r="8.24191" fill="white"/>
<circle cx="89.657" cy="157.26" r="15.1102" fill="#756398"/>
<circle cx="91.0399" cy="158.634" r="15.1102" fill="white"/>
<circle cx="77.9861" cy="138.715" r="6.18143" fill="white"/>
<circle cx="84.8533" cy="131.847" r="6.18143" fill="white"/>
<path d="M90.3551 133.907C90.3551 137.321 87.5875 140.088 84.1736 140.088C80.7597 140.088 77.9922 137.321 77.9922 133.907C77.9922 130.493 80.7597 127.726 84.1736 127.726C87.5875 127.726 90.3551 130.493 90.3551 133.907Z" fill="#756398"/>
<circle cx="84.8533" cy="134.595" r="6.18143" fill="white"/>
<circle cx="93.0968" cy="129.1" r="4.80778" fill="white"/>
<circle cx="99.9718" cy="129.1" r="4.80778" fill="white"/>
<path d="M99.2769 135.282C99.2769 138.696 96.5094 141.463 93.0955 141.463C89.6816 141.463 86.9141 138.696 86.9141 135.282C86.9141 131.868 89.6816 129.101 93.0955 129.101C96.5094 129.101 99.2769 131.868 99.2769 135.282Z" fill="#756398"/>
<circle cx="93.0955" cy="135.969" r="6.18143" fill="white"/>
<path opacity="0.3" d="M139.807 123.985C129.697 122.822 120.427 128.942 117.244 138.183C106.778 138.418 97.8265 146.344 96.5959 157.037C95.2514 168.719 103.632 179.279 115.314 180.623C117.014 180.819 118.69 180.809 120.318 180.612C120.112 181.46 119.957 182.331 119.854 183.22C118.51 194.902 126.89 205.462 138.572 206.806C143.199 207.339 147.65 206.346 151.422 204.226C154.554 210.366 160.605 214.873 167.966 215.72C177.383 216.804 186.072 211.568 189.791 203.376C196.312 202.075 201.878 197.762 204.775 191.796C206.801 193.007 209.056 193.895 211.477 194.381C211.916 204.661 219.771 213.386 230.317 214.599C241.999 215.944 252.559 207.564 253.903 195.882C255.179 184.801 247.705 174.73 236.962 172.575C236.524 162.295 228.669 153.57 218.122 152.356C208.896 151.295 200.37 156.298 196.531 164.204C194.016 162.702 191.15 161.697 188.051 161.34C185.311 161.025 182.632 161.244 180.12 161.916C179.696 151.622 171.836 142.881 161.279 141.666C160.297 141.553 159.323 141.509 158.362 141.53C156.805 132.446 149.425 125.092 139.807 123.985Z" fill="white"/>
<circle cx="15.1102" cy="15.1102" r="15.1102" transform="matrix(-1 0 0 1 168.172 159.456)" fill="white"/>
<circle cx="23.3521" cy="23.3521" r="23.3521" transform="matrix(-1 0 0 1 205.258 147.093)" fill="#756398"/>
<circle cx="23.3521" cy="23.3521" r="23.3521" transform="matrix(-1 0 0 1 203.883 147.093)" fill="white"/>
<circle cx="15.1102" cy="15.1102" r="15.1102" transform="matrix(-1 0 0 1 123.289 157.955)" fill="white"/>
<circle cx="15.1102" cy="15.1102" r="15.1102" transform="matrix(-1 0 0 1 173.664 142.972)" fill="#756398"/>
<circle cx="15.1102" cy="15.1102" r="15.1102" transform="matrix(-1 0 0 1 172.289 142.972)" fill="white"/>
<circle cx="15.1102" cy="15.1102" r="15.1102" transform="matrix(-1 0 0 1 148.938 138.851)" fill="white"/>
<circle cx="10.9892" cy="10.9892" r="10.9892" transform="matrix(-1 0 0 1 140.852 165.094)" fill="white"/>
<circle cx="8.24191" cy="8.24191" r="8.24191" transform="matrix(-1 0 0 1 146.188 131.982)" fill="white"/>
<circle cx="8.24191" cy="8.24191" r="8.24191" transform="matrix(-1 0 0 1 128.336 134.73)" fill="white"/>
<circle cx="10.9892" cy="10.9892" r="10.9892" transform="matrix(-1 0 0 1 161.297 134.73)" fill="#756398"/>
<circle cx="10.9892" cy="10.9892" r="10.9892" transform="matrix(-1 0 0 1 161.297 136.104)" fill="white"/>
<circle cx="8.24191" cy="8.24191" r="8.24191" transform="matrix(-1 0 0 1 117.352 130.609)" fill="white"/>
<circle cx="8.24191" cy="8.24191" r="8.24191" transform="matrix(-1 0 0 1 147.57 156.708)" fill="white"/>
<circle cx="15.1102" cy="15.1102" r="15.1102" transform="matrix(-1 0 0 1 132.461 138.851)" fill="#756398"/>
<circle cx="15.1102" cy="15.1102" r="15.1102" transform="matrix(-1 0 0 1 131.078 140.225)" fill="white"/>
<circle cx="6.18143" cy="6.18143" r="6.18143" transform="matrix(-1 0 0 1 135.203 129.235)" fill="white"/>
<circle cx="6.18143" cy="6.18143" r="6.18143" transform="matrix(-1 0 0 1 128.336 122.367)" fill="white"/>
<path d="M116.653 130.608C116.653 134.022 119.42 136.79 122.834 136.79C126.248 136.79 129.016 134.022 129.016 130.608C129.016 127.194 126.248 124.427 122.834 124.427C119.42 124.427 116.653 127.194 116.653 130.608Z" fill="#756398"/>
<circle cx="6.18143" cy="6.18143" r="6.18143" transform="matrix(-1 0 0 1 128.336 125.115)" fill="white"/>
<circle cx="4.80778" cy="4.80778" r="4.80778" transform="matrix(-1 0 0 1 118.719 120.994)" fill="white"/>
<circle cx="4.80778" cy="4.80778" r="4.80778" transform="matrix(-1 0 0 1 111.844 120.994)" fill="white"/>
<path d="M107.731 131.983C107.731 135.397 110.498 138.165 113.912 138.165C117.326 138.165 120.094 135.397 120.094 131.983C120.094 128.569 117.326 125.802 113.912 125.802C110.498 125.802 107.731 128.569 107.731 131.983Z" fill="#756398"/>
<circle cx="6.18143" cy="6.18143" r="6.18143" transform="matrix(-1 0 0 1 120.094 126.489)" fill="white"/>
<g opacity="0.7">
<path d="M86.5997 85.4415L49.3932 111.403C48.9948 111.681 48.4309 111.676 48.1335 111.392C47.836 111.107 47.9172 110.652 48.3156 110.374C48.3231 110.368 48.3339 110.361 48.3417 110.356L86.5408 85.3828C86.564 85.3678 86.5952 85.3687 86.6111 85.3854C86.6268 85.4015 86.6214 85.4263 86.5997 85.4415Z" fill="url(#paint2_linear_24807_30381)"/>
<path d="M204.811 51.7813L167.604 77.7432C167.206 78.0208 166.642 78.0156 166.344 77.7316C166.047 77.447 166.128 76.9915 166.527 76.7138C166.534 76.7083 166.545 76.7007 166.553 76.6957L204.752 51.7226C204.775 51.7076 204.806 51.7085 204.822 51.7252C204.838 51.7414 204.832 51.7662 204.811 51.7813Z" fill="url(#paint3_linear_24807_30381)"/>
<path d="M29.0133 104.079C28.829 103.558 28.4324 103.218 27.8246 103.06C27.6418 103.014 27.6418 102.975 27.8246 102.928C28.4324 102.77 28.829 102.431 29.0133 101.91C29.0671 101.753 29.1132 101.753 29.1671 101.91C29.3514 102.431 29.748 102.77 30.3558 102.928C30.538 102.975 30.538 103.014 30.3558 103.06C29.748 103.218 29.3514 103.558 29.1671 104.079C29.1132 104.235 29.0671 104.235 29.0133 104.079Z" fill="white"/>
<path d="M128.388 147.355C128.204 146.834 127.807 146.494 127.2 146.336C127.017 146.29 127.017 146.25 127.2 146.204C127.807 146.046 128.204 145.706 128.388 145.185C128.442 145.029 128.488 145.029 128.542 145.185C128.726 145.706 129.123 146.046 129.731 146.204C129.913 146.25 129.913 146.29 129.731 146.336C129.123 146.494 128.726 146.834 128.542 147.355C128.488 147.511 128.442 147.511 128.388 147.355Z" fill="white"/>
<path d="M33.4274 156.971C33.243 156.449 32.8465 156.11 32.2386 155.952C32.0559 155.905 32.0559 155.866 32.2386 155.82C32.8465 155.662 33.243 155.322 33.4274 154.801C33.4812 154.644 33.5273 154.644 33.5811 154.801C33.7654 155.322 34.162 155.662 34.7698 155.82C34.9521 155.866 34.9521 155.905 34.7698 155.952C34.162 156.11 33.7654 156.449 33.5811 156.971C33.5273 157.127 33.4812 157.127 33.4274 156.971Z" fill="white"/>
<path d="M101.138 102.074C100.954 101.553 100.557 101.213 99.9496 101.055C99.7668 101.009 99.7668 100.97 99.9496 100.924C100.557 100.766 100.954 100.426 101.138 99.9046C101.192 99.748 101.238 99.748 101.292 99.9046C101.476 100.426 101.873 100.766 102.481 100.924C102.663 100.97 102.663 101.009 102.481 101.055C101.873 101.213 101.476 101.553 101.292 102.074C101.238 102.23 101.192 102.23 101.138 102.074Z" fill="white"/>
<path d="M163.255 55.19C163.071 54.6685 162.675 54.3291 162.067 54.1711C161.884 54.1245 161.884 54.0854 162.067 54.0393C162.675 53.8813 163.071 53.5414 163.255 53.0204C163.309 52.8637 163.355 52.8637 163.409 53.0204C163.594 53.5414 163.99 53.8813 164.598 54.0393C164.78 54.0854 164.78 54.1245 164.598 54.1711C163.99 54.3291 163.594 54.6685 163.409 55.19C163.355 55.3462 163.309 55.3462 163.255 55.19Z" fill="white"/>
<path d="M178.474 167.792C178.29 167.27 177.893 166.931 177.286 166.773C177.103 166.726 177.103 166.687 177.286 166.641C177.893 166.483 178.29 166.143 178.474 165.622C178.528 165.465 178.574 165.465 178.628 165.622C178.812 166.143 179.209 166.483 179.817 166.641C179.999 166.687 179.999 166.726 179.817 166.773C179.209 166.931 178.812 167.27 178.628 167.792C178.574 167.948 178.528 167.948 178.474 167.792Z" fill="white"/>
<path d="M64.2789 124.112C64.0946 123.591 63.698 123.251 63.0902 123.093C62.9074 123.047 62.9074 123.008 63.0902 122.962C63.698 122.804 64.0946 122.464 64.2789 121.943C64.3328 121.786 64.3788 121.786 64.4327 121.943C64.617 122.464 65.0136 122.804 65.6214 122.962C65.8037 123.008 65.8037 123.047 65.6214 123.093C65.0136 123.251 64.617 123.591 64.4327 124.112C64.3788 124.269 64.3328 124.269 64.2789 124.112Z" fill="white"/>
<path d="M29.0133 67.6128C28.829 67.0914 28.4324 66.7519 27.8246 66.5939C27.6418 66.5473 27.6418 66.5083 27.8246 66.4621C28.4324 66.3041 28.829 65.9642 29.0133 65.4432C29.0671 65.2866 29.1132 65.2866 29.1671 65.4432C29.3514 65.9642 29.748 66.3041 30.3558 66.4621C30.538 66.5083 30.538 66.5473 30.3558 66.5939C29.748 66.7519 29.3514 67.0914 29.1671 67.6128C29.1132 67.769 29.0671 67.769 29.0133 67.6128Z" fill="white"/>
</g>
</g>
</g>
<path d="M99.8898 134.135C101.23 131.467 102.913 128.051 104.582 124.434C110.889 110.797 111.897 105.805 111.933 104.038C111.994 101.388 111.302 98.836 109.936 96.6545L109.464 95.8996L109.846 82.0209L92.0146 82.9144L92.0119 95.4981L91.498 96.2532C90.0357 98.37 89.2361 100.892 89.172 103.546C89.1397 105.309 89.9213 110.344 95.628 124.237C97.1438 127.922 98.6733 131.417 99.8898 134.135Z" fill="#F98B4D"/>
<path d="M100.301 118.218C101.057 116.712 102.006 114.786 102.948 112.746C106.505 105.055 107.074 102.239 107.094 101.242C107.128 99.7472 106.738 98.3082 105.968 97.0777L105.701 96.652L105.917 88.8242L95.8595 89.3281L95.8581 96.4255L95.5682 96.8514C94.7434 98.0453 94.2925 99.4677 94.2563 100.965C94.2381 101.959 94.6789 104.799 97.8976 112.634C98.7525 114.713 99.6152 116.684 100.301 118.218Z" fill="#FFCE54"/>
<path d="M107.618 87.0788L107.37 96.1987C108.275 97.6438 108.789 99.3954 108.748 101.281C108.643 106.099 100.218 122.016 100.218 122.016C100.218 122.016 92.4934 105.75 92.5968 100.928C92.6396 99.0469 93.2298 97.3159 94.1986 95.9101L94.2009 87.754L107.618 87.0788ZM97.5141 95.9098L97.5122 96.9426L96.9274 97.7923C96.2892 98.7201 95.9378 99.8314 95.9124 101.001C95.904 101.387 96.0336 103.736 99.4238 111.994C99.7493 112.781 100.072 113.55 100.388 114.285C100.734 113.563 101.091 112.81 101.446 112.039C105.194 103.935 105.428 101.596 105.433 101.207C105.46 100.035 105.155 98.9114 104.558 97.9603L104.026 97.1088L104.053 96.1058L104.208 90.5731L97.5163 90.9077L97.5141 95.9098Z" fill="#F6BB42"/>
<path d="M88.4783 90.1549C88.1501 89.1819 87.8413 88.1904 87.5516 87.1875L84.2279 64.1684C84.2149 63.1094 84.2209 62.0457 84.2405 60.9823C84.2573 60.3665 84.2742 59.7505 84.3013 59.1382C78.1229 65.1542 74.0419 74.5334 73.8088 85.1478C73.7334 88.6837 74.0878 92.0981 74.8146 95.3175C74.8193 95.3399 74.8494 95.4664 74.8494 95.4664C75.0374 96.1557 75.6615 96.6702 76.4117 96.6865C76.6612 96.6902 76.8982 96.6386 77.1103 96.5434C77.1103 96.5434 77.2755 96.4662 77.3402 96.4245L88.566 90.4082C88.5349 90.323 88.5092 90.2398 88.4783 90.1549Z" fill="#ED3D4F"/>
<path d="M118.382 59.8751C118.381 60.4896 118.371 61.1057 118.359 61.7234C118.334 62.785 118.294 63.848 118.233 64.9036C120.188 67.6213 113.912 87.7613 113.912 87.7613C113.577 88.749 113.227 89.7244 112.856 90.6855C112.825 90.7692 112.791 90.8493 112.76 90.933L123.715 97.4342C123.776 97.4769 123.939 97.5631 123.939 97.5631C124.147 97.6674 124.38 97.7277 124.633 97.7348C125.383 97.7512 126.025 97.2642 126.245 96.5821C126.245 96.5821 126.28 96.4607 126.284 96.4366C127.152 93.2537 127.657 89.8597 127.734 86.3221C127.965 75.7025 124.296 66.1547 118.382 59.8751Z" fill="#ED3D4F"/>
<path d="M119.43 61.1441C119.139 74.4497 116.066 86.7856 111.159 96.72C110.875 97.2681 110.305 97.6378 109.646 97.6218L91.3837 97.2274C90.7264 97.2096 90.1721 96.8171 89.9123 96.2572C85.4406 86.1168 82.9077 73.6621 83.1991 60.3565C83.646 39.6848 90.7117 21.5589 101.153 10.7139C101.463 10.3902 101.931 10.1645 102.414 10.1734C102.901 10.1857 103.357 10.4298 103.656 10.7702C113.615 22.0593 119.881 40.4759 119.43 61.1441Z" fill="white"/>
<path d="M96.7083 56.8919C97.9337 58.1718 99.5842 58.8962 101.353 58.9349C103.124 58.9717 104.804 58.3197 106.084 57.0944C107.364 55.8691 108.089 54.2184 108.129 52.448C108.167 50.6793 107.512 48.9951 106.29 47.7187C105.065 46.4388 103.414 45.7144 101.642 45.6723C97.9856 45.5943 94.9459 48.5043 94.8663 52.1592C94.8311 53.9314 95.483 55.612 96.705 56.8884C96.7083 56.8919 96.7083 56.8919 96.7083 56.8919Z" fill="#434A54"/>
<path d="M96.2707 76.7834C97.496 78.0633 99.1448 78.7894 100.915 78.8263C102.684 78.865 104.367 78.2113 105.645 76.9876C106.925 75.7623 107.651 74.11 107.691 72.3395C107.73 70.5707 107.078 68.8901 105.853 67.6102C104.627 66.3302 102.977 65.6058 101.204 65.5637C97.548 65.4858 94.5082 68.3959 94.4286 72.0505C94.3917 73.8246 95.0453 75.5034 96.2707 76.7834Z" fill="#434A54"/>
<path d="M89.6183 28.8247L114.387 29.366C111.693 22.0652 108.029 15.7279 103.656 10.7697C103.357 10.4292 102.901 10.1852 102.414 10.1728C101.931 10.1639 101.463 10.3896 101.153 10.7134C96.5627 15.4782 92.6288 21.65 89.6183 28.8247Z" fill="#ED3D4F"/>
<path d="M101.675 44.0162C103.889 44.0661 105.954 44.9737 107.486 46.5734C109.014 48.1698 109.831 50.2722 109.784 52.4867C109.734 54.6976 108.829 56.7643 107.231 58.2943C105.631 59.8259 103.528 60.6392 101.316 60.5943C99.1014 60.5443 97.0381 59.6352 95.5098 58.0389C93.9782 56.439 93.1598 54.3383 93.2064 52.1239C93.3058 47.5538 97.105 43.9167 101.675 44.0162ZM96.5236 52.1961C96.4954 53.5709 97.0223 54.8252 97.9043 55.7465C98.7829 56.6642 100.017 57.2489 101.388 57.277C104.134 57.3368 106.409 55.1588 106.469 52.4127C106.5 51.0414 105.968 49.7852 105.09 48.8675C104.208 47.9462 102.979 47.3634 101.605 47.3318C98.8585 47.2721 96.5835 49.4501 96.5236 52.1961Z" fill="#CCD1D9"/>
<path d="M107.048 66.4659C108.58 68.0658 109.395 70.1629 109.349 72.3776C109.302 74.5919 108.393 76.6552 106.793 78.1868C105.195 79.7169 103.096 80.5336 100.88 80.4853C98.6653 80.4353 96.6038 79.5314 95.0721 77.9315C93.5403 76.3315 92.7237 74.229 92.7702 72.0145C92.8698 67.4446 96.6692 63.8072 101.239 63.9068C103.454 63.9568 105.517 64.8659 107.048 66.4659ZM96.0877 72.0868C96.0577 73.4633 96.5865 74.716 97.4685 75.6373C98.3471 76.555 99.5789 77.1414 100.952 77.1678C103.698 77.2276 105.973 75.0497 106.033 72.3034C106.065 70.9321 105.532 69.676 104.654 68.7583C103.772 67.837 102.543 67.2541 101.169 67.2225C98.4226 67.1626 96.1476 69.3405 96.0877 72.0868Z" fill="#CCD1D9"/>
<g filter="url(#filter3_f_24807_30381)">
<path d="M9.61719 60.6451C9.61719 70.783 17.9014 78.9998 28.1168 78.9998C38.3348 78.9998 46.6164 70.783 46.6164 60.6451C46.6164 50.5097 38.3348 42.293 28.1168 42.293C17.9014 42.293 9.61719 50.5097 9.61719 60.6451Z" fill="url(#paint4_radial_24807_30381)"/>
<path d="M13.1719 60.9463C13.1719 65.9848 15.7905 70.4176 19.7505 72.9699C21.1585 73.8834 22.7359 74.5577 24.426 74.9318C25.4571 75.1685 26.5291 75.2906 27.6294 75.2906C31.4381 75.2906 34.9031 73.83 37.4858 71.4354C38.3783 70.6135 39.1657 69.6796 39.8223 68.6516C40.4609 67.6617 40.9816 66.5904 41.3586 65.4529C41.8331 64.0356 42.087 62.5215 42.087 60.9463C42.087 59.4704 41.8638 58.0454 41.4483 56.7069C39.9608 51.9357 36.0341 48.2306 31.1149 47.0219C29.9993 46.7496 28.8297 46.6021 27.6294 46.6021C24.6543 46.6021 21.8844 47.4978 19.5915 49.0322C19.3145 49.2103 19.0426 49.4063 18.7836 49.6048C15.4083 52.1901 13.2257 56.226 13.177 60.7708C13.1719 60.8293 13.1719 60.8878 13.1719 60.9463Z" fill="url(#paint5_linear_24807_30381)"/>
<g style="mix-blend-mode:overlay" opacity="0.302">
<path d="M13.1719 60.9455C13.1719 62.4635 13.4096 63.9266 13.85 65.2998C15.6692 70.9711 24.9132 68.4678 20.5093 64.458C20.4144 64.3716 20.3154 64.2865 20.2121 64.2027C15.275 60.1898 19.9146 59.4518 25.1467 52.9222C28.3112 48.9749 24.2713 48.6036 20.5763 48.9287C19.927 48.9858 19.301 49.2075 18.7836 49.604C15.4083 52.1893 13.2257 56.2252 13.177 60.77C13.1719 60.8285 13.1719 60.887 13.1719 60.9455Z" fill="white"/>
</g>
<g style="mix-blend-mode:overlay" opacity="0.302">
<path d="M32.1825 50.6914C37.1197 54.8519 37.6454 53.0706 35.6218 58.2618C34.752 60.5078 35.6648 63.5557 37.4159 66.0464C38.5081 67.6 40.7617 67.2556 41.3592 65.453C41.8337 64.0356 42.0876 62.5215 42.0876 60.9464C42.0876 59.4705 41.8645 58.0455 41.449 56.707C40.3889 53.3067 38.09 50.448 35.0759 48.6484C32.8357 47.3107 30.1856 49.0119 32.1825 50.6914Z" fill="white"/>
</g>
<g style="mix-blend-mode:overlay" opacity="0.302">
<path d="M24.5248 71.7122C24.2591 73.6272 25.6934 75.2912 27.6268 75.2912C30.8532 75.2912 33.833 74.243 36.2388 72.4668C36.882 71.9919 36.7572 71.0534 35.9956 70.81C29.7093 68.7997 32.7742 55.4428 29.3375 59.4532C27.7863 61.261 25.1877 66.9344 24.5248 71.7122Z" fill="white"/>
</g>
<g style="mix-blend-mode:overlay" opacity="0.302">
<path d="M27.6909 53.1484C28.4552 51.5503 30.5916 51.0516 31.8586 52.2985C32.4818 52.9092 32.705 53.7922 31.5842 55.0009C29.4965 57.2478 26.5059 55.6294 27.6909 53.1484Z" fill="white"/>
</g>
</g>
<g filter="url(#filter4_f_24807_30381)">
<path d="M150.833 108.097C151.083 108.987 151.408 109.835 151.801 110.638C152.747 112.59 154.082 114.273 155.676 115.619C156.336 116.171 157.028 116.666 157.765 117.101C161.287 119.187 165.642 119.879 169.91 118.672C172.963 117.809 175.538 116.103 177.459 113.874C179.688 111.296 181.028 108.024 181.203 104.579C181.28 102.963 181.107 101.31 180.643 99.6724C180.545 99.324 180.433 98.982 180.315 98.6432C180.16 98.2212 179.995 97.8068 179.807 97.4031C179.363 96.4496 178.837 95.5594 178.224 94.7367C176.826 92.8389 175.01 91.312 172.951 90.2417C169.576 88.4891 165.536 87.9704 161.568 89.0905C157.698 90.1849 154.588 92.6466 152.61 95.7926C152.267 96.348 151.957 96.9244 151.68 97.5187C151.338 98.2509 151.055 99.0173 150.832 99.8056C150.092 102.433 150.042 105.285 150.833 108.097Z" fill="url(#paint6_linear_24807_30381)"/>
<g style="mix-blend-mode:overlay" opacity="0.38">
<path d="M152.403 96.1451C152.063 96.7282 152.554 97.4136 153.226 97.3358C155.612 97.0593 158.42 96.773 161.053 96.6005C163.625 96.4321 168.026 95.9542 172.363 95.4454C174.99 95.1372 176.15 92.1518 173.892 90.7722C173.291 90.4049 172.579 90.2839 171.884 90.3967C169.735 90.7454 167.524 91.3525 165.61 92.3678C162.11 94.2279 156.93 95.2228 153.021 95.7408C152.763 95.775 152.534 95.9208 152.403 96.1451Z" fill="white"/>
</g>
<g style="mix-blend-mode:overlay" opacity="0.38">
<path d="M179.974 97.8112C179.872 97.563 179.635 97.4045 179.37 97.4425C177.298 97.7387 169.901 99.5707 165.087 100.063C163.475 100.226 161.386 100.256 159.229 100.216C154.335 100.125 149.507 103.389 150.832 108.096C151.235 109.532 152.893 110.07 154.212 109.373C157.822 107.467 161.979 105.2 165.156 103.264C170.134 100.227 176.258 99.1261 179.421 98.7411C179.867 98.6869 180.144 98.226 179.974 97.8112Z" fill="white"/>
</g>
<g style="mix-blend-mode:overlay" opacity="0.38">
<path d="M157.318 114.954C156.573 115.256 156.424 116.238 157.095 116.683C157.166 116.731 157.239 116.778 157.312 116.824C157.596 117.006 157.945 117.048 158.269 116.954L166.931 114.455C168.004 114.145 169.115 113.981 170.232 113.967L174.413 113.913C176.348 113.888 178.248 113.08 179.203 111.4C181.126 108.021 177.845 104.912 174.361 106.645C169.207 109.205 163.527 111.975 157.318 114.954Z" fill="white"/>
</g>
<g opacity="0.9" filter="url(#filter5_f_24807_30381)">
<path d="M150.596 103.859C150.535 104.634 150.535 105.415 150.595 106.205C147.45 107.613 145.629 108.809 145.825 109.505C146.017 110.182 148.081 110.266 151.331 109.858C155.201 109.368 160.745 108.18 166.815 106.466C172.525 104.852 177.595 103.085 181.131 101.544C184.519 100.063 186.504 98.7934 186.3 98.0671C186.089 97.3271 183.614 97.2957 179.782 97.8538C179.414 97.1536 178.995 96.4825 178.533 95.8564C185.91 94.7788 191.094 95.0887 191.622 96.9625C192.139 98.792 189.912 104.492 183.331 107.369C179.452 109.069 174.692 110.762 169.472 112.238C163.943 113.801 158.726 114.879 154.381 115.442C147.67 116.308 141.209 113.111 140.71 111.349C140.201 109.541 144.155 106.699 150.596 103.859Z" fill="white"/>
</g>
</g>
</g>
<defs>
<filter id="filter0_f_24807_30381" x="-1.76562" y="39.0806" width="202.766" height="149.519" filterUnits="userSpaceOnUse" color-interpolation-filters="sRGB">
<feFlood flood-opacity="0" result="BackgroundImageFix"/>
<feBlend mode="normal" in="SourceGraphic" in2="BackgroundImageFix" result="shape"/>
<feGaussianBlur stdDeviation="0.5" result="effect1_foregroundBlur_24807_30381"/>
</filter>
<filter id="filter1_f_24807_30381" x="-22.6406" y="15.3887" width="222.633" height="121.931" filterUnits="userSpaceOnUse" color-interpolation-filters="sRGB">
<feFlood flood-opacity="0" result="BackgroundImageFix"/>
<feBlend mode="normal" in="SourceGraphic" in2="BackgroundImageFix" result="shape"/>
<feGaussianBlur stdDeviation="1.98828" result="effect1_foregroundBlur_24807_30381"/>
</filter>
<filter id="filter2_f_24807_30381" x="-29.3828" y="75.292" width="288.242" height="127.435" filterUnits="userSpaceOnUse" color-interpolation-filters="sRGB">
<feFlood flood-opacity="0" result="BackgroundImageFix"/>
<feBlend mode="normal" in="SourceGraphic" in2="BackgroundImageFix" result="shape"/>
<feGaussianBlur stdDeviation="1.98828" result="effect1_foregroundBlur_24807_30381"/>
</filter>
<filter id="filter3_f_24807_30381" x="9.36719" y="42.043" width="37.5" height="37.207" filterUnits="userSpaceOnUse" color-interpolation-filters="sRGB">
<feFlood flood-opacity="0" result="BackgroundImageFix"/>
<feBlend mode="normal" in="SourceGraphic" in2="BackgroundImageFix" result="shape"/>
<feGaussianBlur stdDeviation="0.125" result="effect1_foregroundBlur_24807_30381"/>
</filter>
<filter id="filter4_f_24807_30381" x="140.414" y="88.249" width="51.5312" height="31.2656" filterUnits="userSpaceOnUse" color-interpolation-filters="sRGB">
<feFlood flood-opacity="0" result="BackgroundImageFix"/>
<feBlend mode="normal" in="SourceGraphic" in2="BackgroundImageFix" result="shape"/>
<feGaussianBlur stdDeviation="0.125" result="effect1_foregroundBlur_24807_30381"/>
</filter>
<filter id="filter5_f_24807_30381" x="136.664" y="91.2388" width="59.0312" height="28.3491" filterUnits="userSpaceOnUse" color-interpolation-filters="sRGB">
<feFlood flood-opacity="0" result="BackgroundImageFix"/>
<feBlend mode="normal" in="SourceGraphic" in2="BackgroundImageFix" result="shape"/>
<feGaussianBlur stdDeviation="2" result="effect1_foregroundBlur_24807_30381"/>
</filter>
<linearGradient id="paint0_linear_24807_30381" x1="47.8663" y1="28.3049" x2="95.3504" y2="133.691" gradientUnits="userSpaceOnUse">
<stop stop-color="#DF4395"/>
<stop offset="1" stop-color="#DF4395" stop-opacity="0"/>
</linearGradient>
<linearGradient id="paint1_linear_24807_30381" x1="106.013" y1="105.141" x2="123.791" y2="160.33" gradientUnits="userSpaceOnUse">
<stop stop-color="#67E8F9"/>
<stop offset="1" stop-color="#67E8F9" stop-opacity="0"/>
</linearGradient>
<linearGradient id="paint2_linear_24807_30381" x1="39.2132" y1="119.796" x2="78.8912" y2="84.6813" gradientUnits="userSpaceOnUse">
<stop stop-color="white"/>
<stop offset="1" stop-color="white" stop-opacity="0"/>
</linearGradient>
<linearGradient id="paint3_linear_24807_30381" x1="157.424" y1="86.1357" x2="197.102" y2="51.0211" gradientUnits="userSpaceOnUse">
<stop stop-color="white"/>
<stop offset="1" stop-color="white" stop-opacity="0"/>
</linearGradient>
<radialGradient id="paint4_radial_24807_30381" cx="0" cy="0" r="1" gradientUnits="userSpaceOnUse" gradientTransform="translate(28.1173 60.6461) scale(18.4991 18.3542)">
<stop stop-color="#FEE7CA"/>
<stop offset="1" stop-color="#FEE7CA" stop-opacity="0"/>
</radialGradient>
<linearGradient id="paint5_linear_24807_30381" x1="29.4037" y1="83.7303" x2="47.2333" y2="60.7281" gradientUnits="userSpaceOnUse">
<stop offset="0.137" stop-color="#B353E9"/>
<stop offset="1" stop-color="#F7D3A1"/>
</linearGradient>
<linearGradient id="paint6_linear_24807_30381" x1="171.7" y1="127.038" x2="187.214" y2="99.0656" gradientUnits="userSpaceOnUse">
<stop stop-color="#53E2E3"/>
<stop offset="1" stop-color="#4FADEB"/>
</linearGradient>
<clipPath id="clip0_24807_30381">
<rect width="200" height="200" fill="white"/>
</clipPath>
</defs>
</svg>
