<svg width="16" height="16" viewBox="0 0 16 16" fill="none" xmlns="http://www.w3.org/2000/svg">
<g clip-path="url(#clip0_18417_13442)">
<path d="M7.96865 3.58208C7.82795 3.58208 7.68879 3.58927 7.55167 3.60334C7.41456 3.61741 7.27934 3.63826 7.14643 3.66563C7.01352 3.693 6.88296 3.72689 6.75502 3.76689L6.37951 3.90503L6.02199 4.07798L5.68461 4.28364L5.36937 4.51985L5.07849 4.78457L4.814 5.07572L4.57795 5.39117L4.37241 5.72886L4.19967 6.08662C4.14775 6.20899 4.10156 6.33444 4.06158 6.46251C4.0216 6.59058 3.98777 6.72131 3.9604 6.85431C3.93303 6.98731 3.91222 7.12262 3.89812 7.25988C3.88403 7.39714 3.87695 7.53641 3.87695 7.67721C3.87695 7.81802 3.88413 7.95728 3.89812 8.09454C3.91204 8.23071 3.93282 8.36609 3.9604 8.50016C3.98777 8.63367 4.0216 8.7639 4.06158 8.89197C4.10156 9.02004 4.1477 9.14544 4.19967 9.26786L4.37241 9.62562L4.57795 9.96325L4.814 10.2787L5.07849 10.5699L5.36937 10.8346L5.68461 11.0708L6.02199 11.2765L6.37951 11.4494L6.75502 11.5876L7.14643 11.6888C7.28038 11.7164 7.41563 11.7373 7.55167 11.7512C7.69022 11.7653 7.82939 11.7724 7.96865 11.7724C8.10936 11.7724 8.24852 11.7652 8.38558 11.7512C8.52163 11.7373 8.65688 11.7164 8.79083 11.6888L9.18228 11.5876L9.5578 11.4494L9.91527 11.2765L10.2527 11.0708L10.5679 10.8346L10.8589 10.5699L11.1234 10.2787L11.3594 9.96325L11.5649 9.62562L11.7377 9.26786L11.8758 8.89197C11.9158 8.7639 11.9496 8.63316 11.977 8.50016L12.0392 8.09449C12.0533 7.95723 12.0605 7.81796 12.0605 7.67716C12.0605 7.53636 12.0533 7.39709 12.0392 7.25983C12.0253 7.12368 12.0045 6.98831 11.977 6.85426C11.9496 6.72075 11.9158 6.59058 11.8758 6.46246L11.7377 6.08657L11.5649 5.72881L11.3594 5.39112L11.1234 5.07567L10.8589 4.78451L10.5679 4.5198L10.2527 4.28359L9.91527 4.07793L9.5578 3.90498L9.18228 3.76684L8.79083 3.66558L8.38558 3.60329C8.24706 3.58912 8.1079 3.58202 7.96865 3.58203V3.58208ZM7.96865 4.99557C8.06169 4.99557 8.15349 5.00019 8.24391 5.00933L8.51045 5.04974L8.76792 5.11547L9.01447 5.20518L9.24887 5.31764L9.46928 5.45141L9.67533 5.60531L9.86529 5.77795L10.0378 5.96805L10.1915 6.17427L10.3252 6.39539L10.4375 6.63006C10.4712 6.71038 10.5011 6.79269 10.5272 6.87686C10.5532 6.96102 10.5751 7.04703 10.5928 7.13464C10.6105 7.22224 10.6235 7.31139 10.6331 7.40192L10.6469 7.67747C10.6469 7.77057 10.6423 7.86248 10.6331 7.95307C10.624 8.04365 10.6106 8.1328 10.5928 8.22035C10.575 8.3079 10.5531 8.39392 10.5272 8.47813L10.4375 8.72492L10.3252 8.9596L10.1915 9.18066L10.0378 9.38694L9.86529 9.57704L9.67533 9.74968L9.46928 9.90358L9.24887 10.0373L9.01447 10.1498L8.76792 10.2395L8.51045 10.3052L8.24391 10.3456C8.15243 10.3548 8.06054 10.3594 7.9686 10.3594C7.87665 10.3594 7.78475 10.3548 7.69325 10.3456L7.42671 10.3052C7.33921 10.2875 7.2533 10.2655 7.16919 10.2395L6.92264 10.1498L6.68824 10.0373L6.46783 9.90358L6.26177 9.74968L6.07181 9.57704L5.89933 9.38694L5.74555 9.18066L5.61187 8.9596L5.49962 8.72492L5.40992 8.47813L5.34431 8.22035L5.30397 7.95307C5.2948 7.86149 5.29021 7.76951 5.29023 7.67747C5.29021 7.58545 5.2948 7.49348 5.30397 7.40192C5.31304 7.31139 5.32652 7.22219 5.34431 7.13464C5.36192 7.04769 5.38383 6.96167 5.40997 6.87691L5.49967 6.63012L5.61193 6.39544L5.74561 6.17433L5.89938 5.9681L6.07186 5.778L6.26182 5.60536L6.46788 5.45146L6.68829 5.31769L6.92269 5.20523C7.00337 5.17129 7.08567 5.14135 7.16929 5.11552L7.42681 5.04979C7.51431 5.03203 7.60339 5.01847 7.69335 5.00938C7.78485 5.0002 7.87675 4.9956 7.96871 4.99562L7.96865 4.99557Z" fill="url(#paint0_radial_18417_13442)"/>
<path d="M12.2264 2.41797C12.1939 2.41798 12.1614 2.41962 12.1291 2.4229C12.0967 2.42617 12.0646 2.43107 12.0328 2.43758C12.0009 2.44409 11.9694 2.4522 11.9384 2.46187C11.9074 2.47156 11.8768 2.4828 11.8469 2.49556C11.817 2.50833 11.7877 2.52261 11.7592 2.53833C11.7307 2.55403 11.703 2.57115 11.6762 2.58963C11.6493 2.60814 11.6235 2.62799 11.5986 2.6491C11.5738 2.67019 11.55 2.69252 11.5274 2.71601C11.5047 2.73951 11.4833 2.76414 11.4631 2.7898C11.4429 2.81547 11.424 2.84213 11.4064 2.8697C11.3889 2.89725 11.3727 2.92567 11.358 2.95484C11.3433 2.98404 11.33 3.01396 11.3182 3.0445C11.3064 3.07503 11.2962 3.10614 11.2875 3.1377C11.2788 3.16926 11.2717 3.20124 11.2662 3.23352C11.2606 3.26579 11.2567 3.29832 11.2544 3.33099C11.2528 3.35413 11.252 3.37732 11.252 3.40052C11.252 3.43329 11.2536 3.46604 11.2568 3.49865C11.2601 3.53124 11.2649 3.56365 11.2714 3.59575C11.2778 3.62786 11.2859 3.65961 11.2955 3.69091C11.3051 3.72221 11.3162 3.753 11.3289 3.78318C11.3415 3.81337 11.3557 3.8429 11.3713 3.87166C11.3869 3.90042 11.4038 3.92837 11.4222 3.95541C11.4405 3.98244 11.4602 4.00852 11.4811 4.03357C11.5021 4.05863 11.5242 4.08263 11.5475 4.10546C11.5708 4.12828 11.5952 4.14991 11.6207 4.17027C11.6462 4.19064 11.6726 4.20971 11.6999 4.22742C11.7273 4.24513 11.7555 4.26144 11.7845 4.2763C11.8134 4.29118 11.8431 4.30458 11.8734 4.31646C11.9036 4.32833 11.9345 4.33866 11.9658 4.34743C11.9971 4.35617 12.0288 4.36334 12.0608 4.36889C12.0928 4.37447 12.1251 4.37843 12.1575 4.38075C12.1804 4.3824 12.2034 4.38322 12.2264 4.38322C12.2589 4.38323 12.2914 4.3816 12.3237 4.37834C12.356 4.37507 12.3882 4.37016 12.42 4.36365C12.4519 4.35715 12.4833 4.34904 12.5144 4.33936C12.5454 4.32968 12.576 4.31844 12.6059 4.30568C12.6358 4.29292 12.6651 4.27866 12.6936 4.26295C12.7221 4.24724 12.7498 4.23011 12.7766 4.2116C12.8034 4.19311 12.8293 4.17329 12.8542 4.15219C12.879 4.13108 12.9028 4.10873 12.9254 4.08523C12.948 4.06173 12.9695 4.0371 12.9897 4.01144C13.0099 3.98577 13.0288 3.95911 13.0463 3.93154C13.0639 3.90397 13.08 3.87554 13.0948 3.84634C13.1095 3.81715 13.1228 3.78722 13.1346 3.75669C13.1464 3.72615 13.1566 3.69505 13.1653 3.66348C13.174 3.63192 13.1811 3.59994 13.1866 3.56766C13.1921 3.53539 13.1961 3.50286 13.1984 3.4702C13.2 3.44706 13.2008 3.42387 13.2008 3.40067C13.2008 3.36792 13.1992 3.33518 13.196 3.30259C13.1927 3.27 13.1879 3.23759 13.1814 3.20549C13.1749 3.17338 13.1669 3.14163 13.1573 3.11033C13.1477 3.07903 13.1365 3.04823 13.1239 3.01806C13.1112 2.98787 13.0971 2.95834 13.0815 2.92958C13.0659 2.90082 13.0489 2.87287 13.0306 2.84582C13.0122 2.81878 12.9925 2.79268 12.9716 2.76762C12.9507 2.74255 12.9286 2.71856 12.9053 2.69573C12.882 2.67291 12.8575 2.65128 12.8321 2.63092C12.8066 2.61057 12.7802 2.59151 12.7528 2.57382C12.7255 2.55611 12.6973 2.5398 12.6683 2.52493C12.6394 2.51006 12.6097 2.49666 12.5794 2.48478C12.5492 2.47291 12.5183 2.46257 12.487 2.45381C12.4557 2.44505 12.424 2.43787 12.392 2.4323C12.36 2.42674 12.3277 2.42279 12.2953 2.42048C12.2724 2.41884 12.2494 2.41802 12.2264 2.41802V2.41797Z" fill="url(#paint1_radial_18417_13442)"/>
<path d="M7.19192 -0.333835C6.7469 -0.334554 6.34975 -0.332706 5.993 -0.327673L5.03653 -0.301998C4.75318 -0.289674 4.50284 -0.273602 4.27812 -0.252805C4.16576 -0.242432 4.05976 -0.230827 3.9593 -0.21804C3.8637 -0.205969 3.76835 -0.191912 3.67333 -0.17588C3.58286 -0.160475 3.497 -0.143838 3.41468 -0.125763C3.33236 -0.107687 3.25374 -0.0881732 3.17787 -0.0672221C3.10371 -0.0467349 3.03013 -0.0242 2.95721 0.000356138C2.88576 0.024491 2.81605 0.0500638 2.74721 0.0773824C2.60953 0.13202 2.47523 0.193332 2.33694 0.262039C2.23053 0.31493 2.13222 0.368489 2.03882 0.425181C1.94543 0.481872 1.85696 0.541748 1.77034 0.606963C1.68113 0.674452 1.59514 0.746115 1.51266 0.821713C1.42645 0.900383 1.33839 0.986908 1.24689 1.0836C1.13192 1.20443 1.03202 1.31709 0.943343 1.42765C0.899005 1.48291 0.857487 1.53754 0.818377 1.59249C0.7797 1.64664 0.742725 1.70199 0.707507 1.75845C0.672651 1.81443 0.639641 1.87143 0.608067 1.93007C0.576 1.98972 0.545693 2.05031 0.517187 2.11175C0.458855 2.23725 0.40442 2.37241 0.350086 2.52328C0.309778 2.63481 0.273684 2.74783 0.241881 2.86209C0.209435 2.97886 0.180577 3.10102 0.154846 3.23315C0.129114 3.36527 0.106663 3.50736 0.086929 3.6645C0.0656632 3.83674 0.0486746 4.00949 0.0359788 4.18257C0.0216266 4.37288 0.00973483 4.58229 -4.1388e-06 4.81537L-0.0230701 5.59036L-0.0354745 6.53506L-0.0390625 7.67695L-0.0285547 9.33748L0.00425026 10.5956L0.0295203 11.087L0.0610952 11.4942C0.0712169 11.604 0.083881 11.7135 0.0990772 11.8227C0.112917 11.9196 0.127781 12.0044 0.143774 12.0779C0.176224 12.2272 0.214595 12.3751 0.258796 12.5213C0.301118 12.6613 0.349518 12.7994 0.403856 12.9352C0.457266 13.0682 0.5157 13.1965 0.57926 13.3199C0.642819 13.4434 0.711505 13.562 0.785316 13.676C0.859127 13.7899 0.938064 13.8992 1.02233 14.0038C1.1065 14.1084 1.19603 14.2086 1.29056 14.3039C1.38524 14.3994 1.48509 14.4903 1.59032 14.5767C1.6968 14.664 1.80747 14.7461 1.92196 14.8226C2.02821 14.8938 2.13334 14.959 2.23924 15.0188C2.34514 15.0786 2.45196 15.1329 2.56176 15.1822C2.67155 15.2316 2.78411 15.276 2.9017 15.316C3.01928 15.3559 3.14179 15.3914 3.27127 15.423C3.40074 15.4545 3.53781 15.4822 3.68287 15.5063C3.82792 15.5304 3.98298 15.5511 4.14864 15.569C4.31431 15.5868 4.49105 15.6015 4.68096 15.6138C4.87087 15.6262 5.07385 15.636 5.29195 15.6439C5.62887 15.6562 6.13888 15.6633 6.72701 15.666L8.63098 15.6622L10.4339 15.6368L11.1194 15.6175L11.566 15.5945C11.6619 15.5867 11.7557 15.5775 11.8462 15.5666C11.9367 15.5558 12.026 15.5434 12.113 15.5294C12.1999 15.5153 12.2849 15.4996 12.3684 15.4821C12.4509 15.4649 12.533 15.4457 12.6146 15.4245C12.6954 15.4039 12.7751 15.3806 12.8539 15.3558C12.9327 15.3309 13.0107 15.3041 13.0883 15.2754C13.1663 15.2464 13.2436 15.2156 13.3201 15.1829C13.3971 15.15 13.4741 15.1149 13.5513 15.0776C13.6698 15.0204 13.7653 14.9727 13.8491 14.9262C13.9279 14.8828 14.0038 14.8344 14.0763 14.7811C14.1479 14.7283 14.219 14.6683 14.3011 14.5926C14.3831 14.5169 14.476 14.4257 14.5911 14.3104C14.6922 14.2091 14.7775 14.1211 14.8511 14.041C14.9246 13.961 14.9866 13.8889 15.0409 13.8195C15.0927 13.7536 15.141 13.685 15.1855 13.614C15.2289 13.5447 15.2689 13.4727 15.3096 13.3928C15.3709 13.2727 15.4255 13.1614 15.4743 13.054C15.5217 12.9505 15.5651 12.8452 15.6042 12.7383C15.6427 12.6322 15.6761 12.5244 15.7042 12.415C15.7331 12.3026 15.758 12.1839 15.7795 12.0536C15.8011 11.9234 15.8193 11.7817 15.8351 11.6234C15.8508 11.4652 15.8643 11.2903 15.8761 11.0937L15.9073 10.434L15.9342 9.6136L15.9534 8.69955L15.9607 7.74381L15.9436 5.86668L15.9207 5.02591L15.8894 4.30402L15.8505 3.74121C15.8363 3.58459 15.8211 3.46125 15.8049 3.37786C15.7869 3.28571 15.7669 3.19399 15.7448 3.10277C15.7233 3.014 15.6996 2.92577 15.6738 2.83816C15.6487 2.7528 15.6213 2.66809 15.5919 2.58413C15.5628 2.50119 15.5319 2.42001 15.4996 2.34057C15.4673 2.26113 15.4324 2.18354 15.396 2.10759C15.3596 2.03164 15.3214 1.95754 15.2814 1.88514C15.2414 1.81273 15.1997 1.74213 15.156 1.67326C15.1124 1.6044 15.067 1.53729 15.0197 1.47197C14.9727 1.40686 14.9236 1.34324 14.8726 1.2812C14.8218 1.2195 14.7691 1.15943 14.7146 1.10106C14.6601 1.04277 14.6039 0.986221 14.5458 0.931501C14.4877 0.876761 14.4279 0.823767 14.3662 0.772518C14.3043 0.721101 14.2407 0.671627 14.1757 0.624166C14.11 0.57622 14.0429 0.530292 13.9744 0.486444C13.905 0.441971 13.8342 0.39957 13.7623 0.359298C13.6891 0.318351 13.6147 0.279514 13.5393 0.242834C13.4141 0.181881 13.2984 0.127809 13.1848 0.0798475C13.0731 0.0322481 12.9592 -0.0100272 12.8435 -0.0468356C12.7271 -0.0835515 12.606 -0.115029 12.4727 -0.142194C12.3395 -0.169359 12.1942 -0.192004 12.0297 -0.211261C11.8652 -0.230517 11.6815 -0.246076 11.4715 -0.259017C11.2614 -0.271957 11.0252 -0.282125 10.7554 -0.290342L9.83861 -0.310882L8.67829 -0.324592L7.19243 -0.333733L7.19192 -0.333835ZM7.9636 1.07842L10.1063 1.09064L10.9147 1.10625C11.1373 1.11251 11.3071 1.11986 11.4067 1.12833C11.5364 1.13927 11.66 1.15298 11.7781 1.16941C11.8915 1.1851 12.0043 1.2046 12.1164 1.2279C12.224 1.25049 12.3267 1.27617 12.425 1.30513C12.5232 1.33409 12.6171 1.36654 12.7072 1.40244C12.7972 1.43833 12.8833 1.47782 12.9662 1.52106C13.0484 1.56397 13.1283 1.61119 13.2056 1.66253C13.2825 1.71363 13.3566 1.76867 13.4286 1.82798C13.5005 1.88729 13.5703 1.95087 13.6384 2.01885C13.7103 2.09059 13.7766 2.16366 13.8378 2.23905C13.8987 2.31396 13.9551 2.39248 14.0066 2.47418C14.0587 2.55705 14.1056 2.64305 14.1471 2.73171C14.1896 2.82209 14.2277 2.9176 14.262 3.01912C14.2962 3.12064 14.3267 3.22853 14.3537 3.34381C14.382 3.46603 14.4057 3.58928 14.4247 3.71328C14.4452 3.84474 14.4628 3.98493 14.4776 4.13502C14.4925 4.28512 14.5048 4.44518 14.515 4.61644C14.5231 4.7538 14.5301 4.93507 14.5361 5.14915L14.5511 5.87911L14.5626 7.66714L14.5496 9.45348L14.5339 10.1813L14.5123 10.7107C14.4973 10.9586 14.4815 11.167 14.4627 11.3483C14.4532 11.439 14.4429 11.5229 14.4316 11.6016C14.4209 11.676 14.4083 11.7501 14.3937 11.8238C14.3804 11.891 14.3649 11.9578 14.3473 12.0241C14.3304 12.0873 14.3115 12.1499 14.2905 12.2118C14.2693 12.2741 14.2462 12.3357 14.2213 12.3965C14.195 12.4608 14.1672 12.5244 14.138 12.5874C14.112 12.6436 14.0847 12.6983 14.0558 12.7515C14.0272 12.8043 13.9968 12.856 13.9648 12.9066C13.933 12.9568 13.8997 13.0055 13.8648 13.0527C13.8301 13.0998 13.7938 13.1455 13.7558 13.1899C13.718 13.2341 13.6785 13.277 13.6376 13.3183C13.5966 13.3596 13.554 13.3995 13.5099 13.4381C13.4659 13.4766 13.4201 13.5135 13.3728 13.5492C13.3255 13.5848 13.2766 13.619 13.226 13.6518C13.1754 13.6845 13.1232 13.716 13.0693 13.746C13.0155 13.7759 12.9599 13.8046 12.9027 13.8319C12.8446 13.8595 12.7857 13.8855 12.726 13.9096C12.6643 13.9345 12.6019 13.9577 12.5389 13.9792C12.4107 14.0229 12.2756 14.0614 12.1333 14.0945C11.985 14.1288 11.8353 14.1568 11.6847 14.1786C11.6267 14.1871 11.4936 14.195 11.3029 14.2024L10.5763 14.2226L8.51626 14.2494L6.36006 14.2528L5.51328 14.2438L4.96344 14.2266L4.55799 14.1981C4.4321 14.1875 4.31503 14.1757 4.20534 14.1623C4.09564 14.1489 3.99349 14.1339 3.89738 14.1171C3.8063 14.1013 3.71578 14.0825 3.62597 14.0606C3.54408 14.0406 3.46302 14.0174 3.38301 13.9908C3.30586 13.9652 3.2321 13.9369 3.16034 13.9059C3.08858 13.8748 3.01887 13.8407 2.94983 13.8036C2.88078 13.7664 2.81246 13.726 2.74336 13.682C2.69123 13.6488 2.64085 13.6153 2.59236 13.5797C2.54387 13.5441 2.49702 13.5086 2.45191 13.4714C2.4068 13.4343 2.36349 13.3959 2.32172 13.3565C2.28022 13.3173 2.24014 13.2765 2.20157 13.2344C2.16312 13.1924 2.12637 13.1492 2.09111 13.1044C2.05571 13.0594 2.02197 13.0132 1.98998 12.9657C1.9575 12.9176 1.92678 12.8682 1.89787 12.8178C1.86865 12.767 1.84087 12.7144 1.81447 12.6602C1.78763 12.6049 1.76258 12.5488 1.73938 12.4919C1.7158 12.434 1.69345 12.3742 1.67243 12.3125C1.6304 12.189 1.5935 12.0575 1.56141 11.9174C1.52932 11.7772 1.50195 11.6282 1.47878 11.4696C1.45561 11.3109 1.43696 11.1427 1.42209 10.9639C1.41112 10.8322 1.40241 10.627 1.39574 10.3682L1.3818 9.44773L1.38693 7.10126L1.42727 4.85907L1.45802 4.06909L1.47545 3.80797C1.4815 3.73824 1.48775 3.68658 1.49416 3.65556C1.51528 3.55353 1.53655 3.45858 1.55854 3.36969C1.57908 3.28583 1.60193 3.20256 1.62707 3.11997C1.65096 3.04202 1.67612 2.969 1.70303 2.89983C1.72898 2.83283 1.7579 2.76701 1.78971 2.70259C1.82077 2.63994 1.85414 2.57997 1.89038 2.52158C1.92662 2.46319 1.96573 2.40655 2.00838 2.35022C2.05102 2.29389 2.09695 2.23828 2.14693 2.18189C2.1969 2.12551 2.25088 2.06856 2.30941 2.00987C2.37763 1.94114 2.44867 1.87526 2.52234 1.81242C2.5919 1.75314 2.66444 1.69745 2.73967 1.64559C2.81364 1.59423 2.8895 1.54853 2.96849 1.50653C3.04747 1.46452 3.12959 1.42657 3.21596 1.39243C3.30233 1.35828 3.39305 1.32772 3.48916 1.29999C3.59013 1.27162 3.69222 1.24741 3.79517 1.22744C3.90343 1.20618 4.0184 1.18764 4.14116 1.17146C4.26392 1.15529 4.39453 1.14132 4.53415 1.1292C4.63154 1.12078 4.79936 1.11328 5.02033 1.10697L5.82457 1.09105L7.96396 1.07795L7.9636 1.07842Z" fill="url(#paint2_radial_18417_13442)"/>
</g>
<defs>
<radialGradient id="paint0_radial_18417_13442" cx="0" cy="0" r="1" gradientUnits="userSpaceOnUse" gradientTransform="translate(2.51078 16.8319) rotate(-9.54801) scale(33.817 20.562)">
<stop stop-color="#FED576"/>
<stop offset="0.263" stop-color="#F47133"/>
<stop offset="0.609" stop-color="#BC3081"/>
<stop offset="1" stop-color="#4C63D2"/>
</radialGradient>
<radialGradient id="paint1_radial_18417_13442" cx="0" cy="0" r="1" gradientUnits="userSpaceOnUse" gradientTransform="translate(2.51082 16.8328) rotate(-9.54801) scale(33.817 20.562)">
<stop stop-color="#FED576"/>
<stop offset="0.263" stop-color="#F47133"/>
<stop offset="0.609" stop-color="#BC3081"/>
<stop offset="1" stop-color="#4C63D2"/>
</radialGradient>
<radialGradient id="paint2_radial_18417_13442" cx="0" cy="0" r="1" gradientUnits="userSpaceOnUse" gradientTransform="translate(2.50998 16.8324) rotate(-9.54801) scale(33.817 20.562)">
<stop stop-color="#FED576"/>
<stop offset="0.263" stop-color="#F47133"/>
<stop offset="0.609" stop-color="#BC3081"/>
<stop offset="1" stop-color="#4C63D2"/>
</radialGradient>
<clipPath id="clip0_18417_13442">
<rect width="16" height="16" fill="white"/>
</clipPath>
</defs>
</svg>
