<svg width="202" height="58" viewBox="0 0 202 58" fill="none" xmlns="http://www.w3.org/2000/svg">
<g clip-path="url(#clip0_10445_13579)">
<path d="M0.00669336 37.579C0.109285 40.1283 1.66682 42.4118 4.04199 43.4961C2.42539 39.7084 2.26579 35.6681 3.56322 31.375C1.27821 32.6345 -0.0927901 35.0267 0.00669336 37.579Z" fill="white"/>
<path fill-rule="evenodd" clip-rule="evenodd" d="M4.49333 44.5085C4.63574 44.5085 4.7721 44.4536 4.87815 44.347C5.0448 44.1759 5.09631 43.9176 5.00844 43.6915C3.48736 39.7875 3.33585 35.5606 4.55999 31.127C4.62362 30.8945 4.54787 30.6459 4.37213 30.4941C4.19336 30.3456 3.94792 30.3262 3.75097 30.4424C1.33299 31.9052 -0.100229 34.6532 0.00582266 37.6143C0.111875 40.5754 1.74204 43.1942 4.25699 44.4536C4.33274 44.4923 4.41455 44.5085 4.49333 44.5085ZM3.10253 32.4122C2.37835 35.9223 2.48744 39.3031 3.42372 42.5064C2.04202 41.3084 1.18754 39.526 1.11785 37.5691C1.04513 35.5897 1.78446 33.7232 3.10253 32.4122Z" fill="black"/>
<path d="M27.7789 10.1641C15.227 10.1641 5.05085 20.3381 5.05085 32.8911C5.05085 45.4411 15.227 55.6182 27.7789 55.6182C40.3278 55.6182 50.5039 45.4411 50.5039 32.8911C50.5039 20.3381 40.3278 10.1641 27.7789 10.1641Z" fill="white"/>
<path d="M27.639 10.1641C14.6591 10.1641 4.31651 19.5585 3.67676 32.0908L3.46037 32.6528C2.96488 34.1545 3.03701 33.4926 3.03701 37.3203C3.03701 41.1481 5.95664 48.4351 11.5011 51.7227L12.144 52.1879C30.3893 62.6876 51.5166 53.7615 51.5166 33.8829C51.5166 20.7824 40.619 10.1641 27.639 10.1641Z" fill="#FF8B13"/>
<path fill-rule="evenodd" clip-rule="evenodd" d="M28.0538 57.6407C32.6275 57.6407 36.9684 56.4802 40.6598 54.2706C47.5586 50.1375 51.5166 42.7107 51.5166 33.8944C51.5166 27.3069 49.0046 21.0945 44.4431 16.3987C39.9062 11.7283 33.9356 9.15625 27.631 9.15625C14.636 9.15625 4.34896 18.9485 3.66582 31.9487L3.48814 32.4351C3.48405 32.4436 3.48099 32.4521 3.47895 32.4606C3.42687 32.6227 3.38398 32.7562 3.34416 32.8771C3.02863 33.8404 3.02862 33.9262 3.03475 36.1231C3.03475 36.4824 3.03475 36.9021 3.03475 37.3949C3.03475 41.5343 5.99709 49.0979 11.5572 52.5474L12.1607 53.0052C12.177 53.018 12.1944 53.0296 12.2128 53.0402C16.955 55.8857 22.1475 57.4722 27.2205 57.628C27.4983 57.6343 27.776 57.6386 28.0538 57.6407ZM27.631 10.3231C40.1819 10.3231 50.3923 20.8974 50.3923 33.8944C50.3923 42.2846 46.6396 49.3427 40.0992 53.2596C32.3058 57.9268 21.8473 57.4626 12.801 52.0451L12.1975 51.5905C12.1852 51.5799 12.1709 51.5703 12.1546 51.5618C7.00801 48.3794 4.15903 41.1655 4.15903 37.3949C4.15903 36.9021 4.15903 36.4792 4.15903 36.12C4.1529 34.0311 4.1529 34.0311 4.40717 33.2522C4.44699 33.1314 4.49294 32.9979 4.54195 32.8389L4.7472 32.2762C4.76865 32.2189 4.78091 32.1585 4.78397 32.0981C5.39053 19.6861 15.2149 10.3231 27.631 10.3231Z" fill="black"/>
<path d="M25.2541 19.2578C12.9828 19.2578 3.0326 27.3988 3.0326 37.441C3.0326 47.4801 12.9828 55.6211 25.2541 55.6211C37.5286 55.6211 47.4756 47.4801 47.4756 37.441C47.4756 27.3988 37.5286 19.2578 25.2541 19.2578Z" fill="white"/>
<path fill-rule="evenodd" clip-rule="evenodd" d="M25.2541 55.6211C37.5086 55.6211 47.4756 47.4628 47.4756 37.4395C47.4756 27.4131 37.5086 19.2578 25.2541 19.2578C13.0026 19.2578 3.0326 27.4131 3.0326 37.4395C3.0326 47.4628 13.0026 55.6211 25.2541 55.6211ZM25.2541 20.1842C36.9918 20.1842 46.5397 27.9234 46.5397 37.4395C46.5397 46.9525 36.9918 54.6917 25.2541 54.6917C13.5164 54.6917 3.96843 46.9525 3.96843 37.4395C3.96843 27.9234 13.5164 20.1842 25.2541 20.1842Z" fill="black"/>
<path d="M25.2521 53.6C14.653 53.6 6.06078 46.5903 6.06078 37.9435C6.06078 29.2967 14.653 22.2871 25.2521 22.2871C35.8511 22.2871 44.4434 29.2967 44.4434 37.9435C44.4434 46.5903 35.8511 53.6 25.2521 53.6Z" fill="black"/>
<path fill-rule="evenodd" clip-rule="evenodd" d="M25.2537 53.6C36.3939 53.6 45.4551 46.5778 45.4551 37.9451C45.4551 29.3123 36.3939 22.2871 25.2537 22.2871C14.1136 22.2871 5.05236 29.3123 5.05236 37.9451C5.05236 46.5778 14.1136 53.6 25.2537 53.6ZM25.2537 23.4066C35.7554 23.4066 44.3008 29.9285 44.3008 37.9451C44.3008 45.9586 35.7554 52.4805 25.2537 52.4805C14.752 52.4805 6.20664 45.9586 6.20664 37.9451C6.20664 29.9285 14.752 23.4066 25.2537 23.4066Z" fill="black"/>
<path d="M6.06108 36.4598C6.1231 37.0514 6.21923 37.6462 6.34948 38.2409C6.76501 40.1422 7.49995 41.8948 8.48298 43.4576C8.2535 43.9068 8.07054 44.3624 7.9341 44.8148C11.0785 50.0157 17.6837 53.6 25.3216 53.6C26.6829 53.6 28.0101 53.4829 29.2909 53.2678C38.2497 50.7528 44.427 44.9223 43.3013 39.7911C42.985 38.339 42.1136 37.0894 40.8205 36.0834C41.0593 34.239 40.991 32.3377 40.5724 30.4333C40.3367 29.3545 39.9987 28.3263 39.5708 27.352C36.0356 24.239 30.9592 22.2871 25.3216 22.2871C15.2525 22.2871 6.98209 28.5098 6.06108 36.4598Z" fill="#B0401E"/>
<path fill-rule="evenodd" clip-rule="evenodd" d="M24.8162 53.6C26.1796 53.6 27.5431 53.4926 28.8692 53.2747C28.8858 53.2726 28.9024 53.2685 28.9189 53.2624C38.2922 50.7151 44.4696 44.8564 43.2894 39.633C42.9695 38.2243 42.1465 36.9783 40.842 35.9349C41.0501 34.1365 40.9538 32.3288 40.5532 30.558C40.3141 29.4992 39.9662 28.465 39.5221 27.4798C39.491 27.4154 39.4506 27.3601 39.3978 27.3172C35.6523 24.1193 30.3383 22.2871 24.8162 22.2871C19.8594 22.2871 15.1168 23.7326 11.4551 26.3597C7.79342 28.9898 5.51688 32.5743 5.05412 36.4505C5.04998 36.4873 5.04998 36.5231 5.05412 36.5579C5.11934 37.1533 5.21872 37.7517 5.35227 38.3348C5.75291 40.1056 6.4424 41.7813 7.40829 43.3219C7.21884 43.7056 7.06667 44.0923 6.94865 44.4759C6.90827 44.6048 6.9269 44.7429 6.99833 44.8595C8.61645 47.4497 11.1073 49.6348 14.2069 51.1816C17.3779 52.7652 21.0458 53.6 24.8162 53.6ZM28.6891 52.354C27.422 52.5596 26.1175 52.6639 24.8162 52.6639C17.6077 52.6639 11.157 49.5581 7.92075 44.5495C8.03877 44.2027 8.19096 43.8559 8.3742 43.5091C8.45184 43.3618 8.44252 43.1808 8.34935 43.0396C7.37103 41.5327 6.67533 39.8816 6.27779 38.1292C6.15667 37.5983 6.0666 37.052 6.00138 36.5088C6.94554 28.9315 15.0206 23.2262 24.8162 23.2262C30.0743 23.2262 35.1243 24.9479 38.6959 27.9586C39.0966 28.8578 39.4103 29.8 39.6277 30.7636C40.0221 32.513 40.106 34.3022 39.8668 36.0791C39.8451 36.2449 39.9165 36.4106 40.0501 36.5119C41.2986 37.454 42.075 38.5711 42.3608 39.8386C43.4105 44.482 37.407 49.9755 28.6891 52.354Z" fill="black"/>
<path d="M26.6887 24.4999C24.4588 24.9867 22.6451 26.3167 21.5175 28.0685C19.7101 26.8779 17.4231 26.385 15.1265 26.8872C9.07864 28.208 6.08329 37.0876 12.1979 41.2763C10.3429 41.1864 8.58947 42.101 7.63337 43.6574C7.39832 44.0977 7.21091 44.5441 7.07115 44.9875C10.292 50.0846 17.0578 53.5974 24.8813 53.5974C26.2757 53.5974 27.6352 53.4826 28.9471 53.2718C38.1237 50.807 44.4511 45.0929 43.2981 40.064C42.9741 38.6409 42.0815 37.4163 40.757 36.4303C39.1497 35.6986 37.4122 35.6966 35.5445 36.4241C36.5768 34.7251 36.9739 32.6571 36.4974 30.5767C35.5095 26.2547 31.1166 23.5326 26.6887 24.4999Z" fill="#FFCAA1"/>
<path fill-rule="evenodd" clip-rule="evenodd" d="M24.8879 53.5977C26.2468 53.5977 27.6089 53.4851 28.9306 53.2663C28.943 53.2642 28.9565 53.261 28.971 53.2569C38.3065 50.6742 44.4607 44.7522 43.2914 39.4837C42.9587 37.9923 42.0755 36.6822 40.6605 35.5973C40.6398 35.5806 40.617 35.567 40.5921 35.5566C39.1927 34.9 37.6845 34.7937 36.0985 35.2314C36.8418 33.5711 37.0315 31.717 36.6334 29.9192C35.6196 25.3604 31.1074 22.4807 26.5734 23.5C24.4867 23.969 22.6924 25.1853 21.4858 26.9457C19.6106 25.7888 17.4152 25.423 15.257 25.9076C12.1752 26.5986 9.6501 29.3657 8.97529 32.7863C8.39376 35.738 9.31114 38.5364 11.4475 40.4593C9.89267 40.6907 8.50261 41.6068 7.67541 42.995C7.67126 43.0013 7.66712 43.0086 7.66298 43.0169C7.42352 43.4828 7.22761 43.9549 7.08767 44.4239C7.05657 44.5271 7.06901 44.6428 7.1281 44.7366C8.73895 47.3599 11.2205 49.5767 14.3085 51.1432C17.468 52.7472 21.1282 53.5977 24.8879 53.5977ZM28.7875 52.5127C27.5125 52.7253 26.2002 52.8316 24.8879 52.8316C17.6204 52.8316 11.1148 49.6362 7.86822 44.4833C7.9895 44.1175 8.14499 43.7454 8.33468 43.3796C9.1992 41.9351 10.7789 41.0909 12.452 41.1753C12.6199 41.1815 12.7754 41.0784 12.8314 40.9158C12.8874 40.7563 12.8283 40.5781 12.6914 40.478C10.241 38.749 9.13078 35.9287 9.72163 32.9364C10.3405 29.8066 12.6292 27.2802 15.4218 26.6518C17.4991 26.1859 19.6169 26.5892 21.3832 27.7867C21.4672 27.8462 21.5729 27.8649 21.6755 27.843C21.775 27.8243 21.8652 27.7617 21.9181 27.6742C23.0158 25.917 24.7262 24.6976 26.7382 24.2442C30.8617 23.3187 34.9697 25.9389 35.8902 30.0849C36.3193 32.0109 36.0021 34.0058 35.0008 35.7004C34.9293 35.8193 34.9293 35.9662 34.9946 36.085C35.0879 36.2476 35.2962 36.3195 35.4673 36.2507C37.1963 35.5597 38.7543 35.5535 40.2314 36.232C41.4784 37.1981 42.259 38.3488 42.5482 39.6495C43.6117 44.4333 37.5663 50.0801 28.7875 52.5127Z" fill="black"/>
<path d="M13.231 44.1823C11.5244 43.7668 10.3011 44.7404 11.763 46.793C18.0356 55.6049 36.3275 51.4594 38.3001 40.7747C38.7588 38.288 37.245 37.9345 35.8748 39.0508C29.8836 43.928 20.7025 46.0085 13.231 44.1823Z" fill="white"/>
<path fill-rule="evenodd" clip-rule="evenodd" d="M22.8877 52.5886C24.3017 52.5886 25.7651 52.4213 27.2501 52.0835C33.6347 50.622 38.3676 46.3795 39.3031 41.2722C39.6211 39.5329 39.0283 38.8795 38.6424 38.6427C38.0126 38.2576 37.0957 38.4502 36.2497 39.1446C30.2479 44.0689 21.1928 46.1396 13.7121 44.2962C12.6593 44.0342 11.7486 44.2615 11.341 44.8865C11.091 45.2653 10.8255 46.1175 11.835 47.5538C14.1197 50.7861 18.2166 52.5886 22.8877 52.5886ZM37.9045 39.2172C38.0373 39.2172 38.1577 39.2456 38.2565 39.3056C38.6208 39.5297 38.7319 40.1958 38.5621 41.1301C37.6823 45.9345 33.1778 49.937 27.0834 51.3291C20.9921 52.7243 15.2465 51.0639 12.4494 47.0992C11.906 46.329 11.73 45.6788 11.9678 45.3158C12.1932 44.9717 12.8075 44.8675 13.5361 45.0443C21.2298 46.9414 30.5474 44.8107 36.7221 39.7444C37.1389 39.4035 37.568 39.2172 37.9045 39.2172Z" fill="black"/>
<path d="M6.05989 38.4959C6.05989 40.6506 6.62903 42.6907 7.64681 44.5101C7.75705 44.1328 7.90318 43.7555 8.08008 43.3782C7.26739 42.0004 6.66236 40.4522 6.31883 38.7697C6.22654 38.3282 6.15731 37.8838 6.10348 37.4395C6.07527 37.7888 6.05989 38.1409 6.05989 38.4959Z" fill="#FFCAA1"/>
<path fill-rule="evenodd" clip-rule="evenodd" d="M7.9019 45.5186C7.92405 45.5186 7.94621 45.5175 7.96836 45.5154C8.1899 45.4929 8.37452 45.3615 8.44098 45.1788C8.58867 44.7749 8.78436 44.3646 9.02806 43.9575C9.12036 43.8004 9.11298 43.6145 9.00221 43.4671C7.83913 41.8932 7.00836 40.1687 6.53944 38.3383C6.4139 37.8543 6.3142 37.3575 6.24035 36.8574C6.20343 36.6074 5.95974 36.4215 5.67174 36.4279C5.38374 36.4343 5.14743 36.6234 5.11789 36.8735C5.07358 37.2966 5.05143 37.7165 5.05143 38.13C5.05143 40.6367 5.84897 43.044 7.4219 45.2846C7.52528 45.432 7.7062 45.5186 7.9019 45.5186ZM7.87975 43.7588C7.8576 43.8015 7.83421 43.8443 7.80959 43.887C7.58313 43.5045 7.38005 43.1177 7.20036 42.7266C7.41205 43.0771 7.63852 43.4211 7.87975 43.7588Z" fill="black"/>
<path d="M7.3882 44.5075C7.60738 44.3762 7.80016 44.2065 7.96652 44.0047C8.00349 43.9087 8.04047 43.819 8.08008 43.723C7.39348 42.4261 6.84948 40.9947 6.47977 39.4576C6.34245 39.4544 6.19985 39.464 6.05989 39.4928C6.2157 41.2637 6.67783 42.9512 7.3882 44.5075Z" fill="#FF9999"/>
<path fill-rule="evenodd" clip-rule="evenodd" d="M7.52631 44.5075C7.61309 44.5075 7.69986 44.4941 7.78286 44.4646C8.14507 44.3358 8.47709 44.1696 8.76384 43.9631C8.80911 43.9309 8.84307 43.8933 8.87326 43.8531C8.92231 43.778 8.97512 43.7029 9.02794 43.6278C9.12227 43.4991 9.11095 43.3435 9.00154 43.2202C8.03188 42.1447 7.28483 40.9781 6.78302 39.7524C6.71134 39.5808 6.49251 39.4628 6.2435 39.4574C6.00202 39.4547 5.76433 39.4655 5.53417 39.4923C5.23234 39.5272 5.02105 39.7229 5.05501 39.9402C5.28139 41.4501 5.94543 42.9144 7.0245 44.2956C7.13014 44.4297 7.32634 44.5075 7.52631 44.5075ZM7.84323 43.4535C7.81053 43.475 7.77783 43.4955 7.74513 43.5152C7.53636 43.2202 7.34646 42.9225 7.17542 42.6221C7.38671 42.9046 7.60931 43.1817 7.84323 43.4535Z" fill="black"/>
<path d="M24.7424 41.4772C24.9295 41.4772 25.11 41.3756 25.1953 41.2041C25.4678 40.6548 26.0717 40.35 26.692 40.4452C26.9644 40.4865 27.2204 40.3055 27.2664 40.042C27.3091 39.7784 27.122 39.5276 26.8496 39.4863C25.7861 39.3244 24.7588 39.8451 24.2927 40.7818C24.1713 41.0232 24.2763 41.3121 24.5258 41.4296C24.5947 41.4613 24.6702 41.4772 24.7424 41.4772Z" fill="black"/>
<path d="M24.7897 41.4808C24.9259 41.4808 25.059 41.4367 25.1498 41.3485C25.3103 41.1976 25.28 40.9748 25.0833 40.8494C24.3236 40.3782 23.2309 40.3434 22.4259 40.7635C22.214 40.875 22.1595 41.0955 22.3018 41.258C22.447 41.4181 22.7346 41.4622 22.9464 41.3508C23.4186 41.1048 24.0572 41.1257 24.4991 41.4019C24.5839 41.4553 24.6868 41.4808 24.7897 41.4808Z" fill="black"/>
<path d="M24.9654 44.5111C24.9866 44.5111 25.0072 44.5069 25.0272 44.4986C25.1826 44.4425 25.28 44.1868 25.2463 43.9311C25.0553 42.4999 24.9729 41.9231 24.8062 40.8318C24.7669 40.5761 24.6115 40.4202 24.4579 40.4856C24.3044 40.5511 24.2126 40.813 24.2519 41.0656C24.4167 42.1445 24.4972 42.7182 24.6864 44.1369C24.7163 44.3583 24.8343 44.5111 24.9654 44.5111Z" fill="black"/>
<path d="M38.4797 40.6653C37.7398 41.6076 36.785 42.4259 35.7543 43.1512C34.717 43.8765 33.6004 44.5119 32.4508 45.0946C32.3319 45.1535 32.2889 45.293 32.3517 45.4015C32.4145 45.5069 32.5499 45.5503 32.6655 45.5007C33.8713 44.9831 35.054 44.4096 36.1805 43.7277C37.3037 43.0427 38.3773 42.2461 39.2726 41.2511C39.4543 41.0497 39.4279 40.7521 39.2164 40.5816C39.0017 40.4142 38.6846 40.439 38.5029 40.6374C38.4963 40.6457 38.4897 40.6539 38.483 40.6622L38.4797 40.6653Z" fill="black"/>
<path opacity="0.3" d="M37.2449 38.9736C36.8306 41.4107 34.9594 43.5729 33.3333 45.5179C36.7283 43.7144 38.4116 41.7785 38.3834 39.7102C38.3327 38.3117 38.5187 38.0876 37.2449 38.9736Z" fill="black"/>
<path d="M11.3977 47.4233C12.6161 47.9477 13.8971 48.2221 15.1687 48.3776C16.4434 48.5331 17.7212 48.5667 18.9897 48.5423C19.1056 48.5392 19.1964 48.4478 19.1933 48.335C19.1901 48.2282 19.1056 48.1429 18.996 48.1368C17.7432 48.0727 16.4935 47.9508 15.2783 47.716C14.0662 47.4813 12.876 47.1306 11.8205 46.5849H11.8174C11.5825 46.4629 11.2944 46.5483 11.1691 46.7769C11.0438 47.0026 11.1346 47.2861 11.3664 47.4081C11.3789 47.4111 11.3883 47.4172 11.3977 47.4233Z" fill="black"/>
<path opacity="0.3" d="M11.5158 45.8324C12.3329 47.7472 14.8921 48.6495 19.1934 48.5392C16.6897 47.5978 13.8429 46.5841 12.4081 44.56C10.7052 44.4083 10.9961 44.5186 11.5158 45.8324Z" fill="black"/>
<path fill-rule="evenodd" clip-rule="evenodd" d="M24.8162 53.6C26.1796 53.6 27.5431 53.4926 28.8692 53.2747C28.8858 53.2726 28.9024 53.2685 28.9189 53.2624C38.2922 50.7151 44.4696 44.8564 43.2894 39.633C42.9695 38.2243 42.1465 36.9783 40.842 35.9349C41.0501 34.1365 40.9538 32.3288 40.5532 30.558C40.3141 29.4992 39.9662 28.465 39.5221 27.4798C39.491 27.4154 39.4506 27.3601 39.3978 27.3172C35.6523 24.1193 30.3383 22.2871 24.8162 22.2871C19.8594 22.2871 15.1168 23.7326 11.4551 26.3597C7.79342 28.9898 5.51688 32.5743 5.05412 36.4505C5.04998 36.4873 5.04998 36.5231 5.05412 36.5579C5.11934 37.1533 5.21872 37.7517 5.35227 38.3348C5.75291 40.1056 6.4424 41.7813 7.40829 43.3219C7.21884 43.7056 7.06667 44.0923 6.94865 44.4759C6.90827 44.6048 6.9269 44.7429 6.99833 44.8595C8.61645 47.4497 11.1073 49.6348 14.2069 51.1816C17.3779 52.7652 21.0458 53.6 24.8162 53.6ZM28.6891 52.354C27.422 52.5596 26.1175 52.6639 24.8162 52.6639C17.6077 52.6639 11.157 49.5581 7.92075 44.5495C8.03877 44.2027 8.19096 43.8559 8.3742 43.5091C8.45184 43.3618 8.44252 43.1808 8.34935 43.0396C7.37103 41.5327 6.67533 39.8816 6.27779 38.1292C6.15667 37.5983 6.0666 37.052 6.00138 36.5088C6.94554 28.9315 15.0206 23.2262 24.8162 23.2262C30.0743 23.2262 35.1243 24.9479 38.6959 27.9586C39.0966 28.8578 39.4103 29.8 39.6277 30.7636C40.0221 32.513 40.106 34.3022 39.8668 36.0791C39.8451 36.2449 39.9165 36.4106 40.0501 36.5119C41.2986 37.454 42.075 38.5711 42.3608 39.8386C43.4105 44.482 37.407 49.9755 28.6891 52.354Z" fill="black"/>
<path d="M49.6839 26.3651C46.9321 26.6999 45.0678 29.2147 45.5219 31.9843C45.9759 34.754 48.5729 36.7268 51.3246 36.392C54.0763 36.0603 55.9406 33.5424 55.4866 30.7728C55.0326 28.0032 52.4322 26.0304 49.6839 26.3651Z" fill="white"/>
<path fill-rule="evenodd" clip-rule="evenodd" d="M50.6863 37.4395C50.8942 37.4395 51.1032 37.4234 51.3132 37.3913C52.6586 37.1924 53.8359 36.3679 54.6248 35.0717C55.3954 33.8044 55.7012 32.2292 55.4871 30.641C55.0437 27.3236 52.4415 24.9591 49.6956 25.3634C46.9466 25.7708 45.0721 28.7995 45.5185 32.1169C45.7326 33.705 46.442 35.1295 47.5153 36.1241C48.4449 36.9839 49.5518 37.4395 50.6863 37.4395ZM50.3132 26.4959C52.2733 26.4959 54.0438 28.3246 54.3771 30.8047C54.5545 32.1169 54.3068 33.4066 53.6799 34.4397C53.0684 35.4407 52.1724 36.0759 51.1542 36.2267C50.1389 36.3775 49.1085 36.0278 48.2584 35.2418C47.3838 34.4301 46.8059 33.2622 46.6285 31.95C46.2708 29.2775 47.7171 26.8456 49.8515 26.528C50.0064 26.5066 50.1604 26.4959 50.3132 26.4959Z" fill="black"/>
<path d="M53.3132 36.0953C54.906 35.0474 55.8177 33.0604 55.4874 30.9303C55.109 28.5204 53.2581 26.6857 51.0701 26.3281C50.96 26.3281 50.8465 26.3375 50.7329 26.353C48.5415 26.6329 47.1206 29.1081 47.5507 31.885C47.9842 34.6587 50.1103 36.6831 52.3017 36.4032C52.663 36.3597 53.0001 36.2539 53.3132 36.0953Z" fill="white"/>
<path fill-rule="evenodd" clip-rule="evenodd" d="M51.845 36.4294C51.9891 36.4294 52.1323 36.419 52.2744 36.3981C52.6429 36.345 52.9992 36.2231 53.3311 36.0324C53.3474 36.0241 53.3636 36.0137 53.3798 36.0012C54.9695 34.8135 55.7979 32.5976 55.4903 30.3566C55.137 27.7968 53.3768 25.7278 51.2024 25.3246C51.1719 25.3204 51.1405 25.3184 51.108 25.3184C50.9862 25.3215 50.8674 25.3309 50.7547 25.3465C48.5682 25.6653 47.1277 28.4001 47.5449 31.4474C47.7429 32.8945 48.3276 34.204 49.1864 35.1323C49.969 35.9793 50.9009 36.4294 51.845 36.4294ZM52.856 35.2104C52.6307 35.3355 52.3901 35.4167 52.1465 35.4511C51.3608 35.5636 50.5507 35.2167 49.8624 34.476C49.1346 33.6883 48.6382 32.5663 48.4677 31.313C48.1205 28.7876 49.2046 26.5373 50.8857 26.2935C50.9506 26.2852 51.0166 26.2789 51.0836 26.2747C52.8469 26.6279 54.2752 28.3532 54.5675 30.491C54.8264 32.3756 54.1564 34.2228 52.856 35.2104Z" fill="black"/>
<path d="M32.5233 14.2081C31.8297 16.4967 32.9922 16.8095 34.9832 15.2878C36.454 14.166 38.1881 13.6096 39.858 13.2157C41.4283 11.5195 39.3923 9.35122 36.4186 10.473C34.9222 10.9451 33.1848 12.0278 32.5233 14.2081Z" fill="#FF8B13"/>
<path fill-rule="evenodd" clip-rule="evenodd" d="M32.5827 17.2347C33.1947 17.2347 33.9612 16.8847 34.8696 16.1847C36.2954 15.0932 37.9767 14.5919 39.434 14.2478C39.5476 14.2182 39.6517 14.1588 39.7305 14.0758C40.5254 13.2126 40.6232 12.1063 39.9797 11.2609C39.2858 10.3444 37.696 9.75709 35.7119 10.5046C34.4817 10.8961 32.3178 11.9402 31.5292 14.5504C31.1475 15.8199 31.2674 16.6593 31.8919 17.0478C32.0959 17.1724 32.3262 17.2347 32.5827 17.2347ZM38.9608 13.2364C37.5035 13.5923 35.6803 14.1588 34.1378 15.3423C33.1064 16.1343 32.6048 16.1699 32.526 16.1372C32.5291 16.1372 32.3304 15.8792 32.6427 14.847C33.2893 12.7054 35.0841 11.8512 36.0967 11.5308C36.1072 11.5269 36.1177 11.5229 36.1282 11.519C37.5382 10.9851 38.6044 11.3232 39.0397 11.8927C39.3457 12.2991 39.3173 12.7796 38.9608 13.2364Z" fill="black"/>
<path d="M8.08937 19.1333C8.02231 19.6757 8.49482 20.1445 9.03134 20.2425C9.56482 20.3437 10.1806 20.0832 10.3056 19.55C10.8177 17.3683 12.3358 15.2326 14.1436 13.8904C11.6286 12.4932 8.85148 12.7138 8.08937 19.1333Z" fill="#FF8B13"/>
<path fill-rule="evenodd" clip-rule="evenodd" d="M8.77233 21.2741C9.45372 21.2741 10.1771 20.8874 10.3512 20.1443C10.8075 18.1959 12.1763 16.178 13.9203 14.885C14.0704 14.7733 14.1544 14.592 14.1424 14.4017C14.1304 14.2144 14.0253 14.0452 13.8603 13.9546C12.3384 13.1058 11.0026 12.9668 9.89198 13.5377C8.41213 14.302 7.46659 16.3199 7.08237 19.5401C6.98931 20.3346 7.59266 21.0838 8.45715 21.2439C8.55921 21.265 8.66727 21.2741 8.77233 21.2741ZM12.5665 14.5618C10.9606 15.9937 9.72989 17.9663 9.27963 19.8906C9.2316 20.096 8.90742 20.2017 8.65827 20.1564C8.40913 20.1081 8.15098 19.8936 8.178 19.6731C8.50819 16.8818 9.27662 15.0995 10.3933 14.5256C10.9876 14.2174 11.717 14.2325 12.5665 14.5618Z" fill="black"/>
<path opacity="0.3" d="M53.2951 30.9477C53.6623 32.9602 52.9246 35.0103 51.3266 36.429C54.1485 35.7822 55.9572 33.2477 55.4778 30.6102C54.9985 27.9726 52.3942 26.1163 49.4941 26.3476C51.5068 27.2101 52.928 28.932 53.2951 30.9477Z" fill="black"/>
<path opacity="0.3" d="M11.1116 20.264C12.1473 18.3487 13.711 16.6084 15.8028 15.0433C16.6031 12.955 16.0668 12.6347 14.1909 14.0824C12.9792 14.7486 11.9509 16.8081 11.1116 20.264Z" fill="black"/>
<path opacity="0.3" d="M39.8149 10.6569C39.1118 10.0207 38.0192 9.99761 37.2884 10.6042C37.8123 10.3734 38.4328 10.5514 38.7361 11.0195C39.036 11.491 39.0187 12.2591 38.4776 12.4437C36.2475 13.2118 34.1415 14.3029 32.3216 16.2182C33.335 16.3171 35.8959 15.2666 40.0045 13.0667C40.6008 12.3382 40.5181 11.2932 39.8149 10.6569Z" fill="black"/>
<path opacity="0.3" d="M12.5508 14.207C9.94261 16.2205 8.80928 18.2407 9.15077 20.2676C10.2472 18.3095 11.5712 16.5138 13.1229 14.8804C13.1768 14.8785 12.9861 14.6541 12.5508 14.207Z" fill="black"/>
<path opacity="0.3" d="M8.08092 43.8894C11.1489 49.0329 17.7257 52.5902 25.3405 52.5902C35.8916 52.5902 44.4434 45.7651 44.4434 37.3476C44.4434 33.5162 42.6736 30.0143 39.7465 27.3379C40.9314 29.3183 41.5928 31.5389 41.5928 33.8797C41.5928 42.2971 33.038 49.1222 22.4869 49.1222C20.9009 49.1222 19.3607 48.9682 17.888 48.6756C18.3718 48.4877 18.8647 48.2721 19.3638 48.0196C17.3736 48.0524 15.3354 47.7568 13.2493 47.1326C13.2677 47.1726 13.2891 47.2096 13.3044 47.2465C11.3234 46.3811 9.55367 45.2415 8.08092 43.8894Z" fill="black"/>
<path fill-rule="evenodd" clip-rule="evenodd" d="M25.7588 53.6C36.6193 53.6 45.4551 46.576 45.4551 37.9435C45.4551 29.311 36.6193 22.2871 25.7588 22.2871C14.8982 22.2871 6.06243 29.311 6.06243 37.9435C6.06243 46.576 14.8982 53.6 25.7588 53.6ZM25.7588 23.0404C36.2013 23.0404 44.6966 29.7278 44.6966 37.9435C44.6966 46.1592 36.2013 52.8435 25.7588 52.8435C15.3162 52.8435 6.82094 46.1592 6.82094 37.9435C6.82094 29.7278 15.3162 23.0404 25.7588 23.0404Z" fill="black"/>
<path d="M14.4785 37.8912C15.1726 39.7699 16.7147 40.8635 17.9251 40.3335C19.1321 39.8034 19.5526 37.851 18.8585 35.9724C18.1644 34.0937 16.6223 33.0001 15.4119 33.5302C14.2015 34.0602 13.7844 36.0126 14.4785 37.8912Z" fill="black"/>
<path d="M15.1534 35.3424C15.132 35.8965 15.5692 36.3807 16.1265 36.4237C16.6837 36.4641 17.1509 36.0471 17.1724 35.4903C17.1895 34.9362 16.7523 34.4493 16.195 34.4089C15.6378 34.3686 15.1706 34.7855 15.1534 35.3424Z" fill="white"/>
<path d="M28.9454 31.3762C27.8444 31.4201 27.1104 32.8147 27.3041 34.4871C27.495 36.1625 28.5432 37.4811 29.6413 37.4343C30.7394 37.3905 31.4763 35.9958 31.2825 34.3234C31.0888 32.6481 30.0435 31.3294 28.9454 31.3762Z" fill="black"/>
<path d="M28.6296 32.4561C28.2101 32.6585 28.1666 33.2451 28.5347 33.7643C28.9028 34.2835 29.54 34.5416 29.9595 34.3363C30.3791 34.1339 30.4226 33.5473 30.0545 33.0281C29.6864 32.5089 29.0492 32.2537 28.6296 32.4561Z" fill="white"/>
<path d="M28.3797 35.4952C28.2154 35.6472 28.2678 35.9599 28.495 36.1937C28.7221 36.4274 29.0366 36.4976 29.2009 36.3456C29.3616 36.1937 29.3092 35.881 29.082 35.6472C28.8549 35.4134 28.5404 35.3462 28.3797 35.4952Z" fill="white"/>
<path opacity="0.2" d="M40.4023 33.9462C40.3962 32.8023 40.2742 31.6488 40.0269 30.4921C39.795 29.4056 39.4623 28.37 39.0411 27.3886C35.5617 24.2531 30.5654 22.2871 25.0167 22.2871C15.1065 22.2871 6.96651 28.5548 6.06004 36.5622C6.12108 37.1581 6.21569 37.7571 6.34388 38.3562C6.34999 38.388 6.35914 38.4167 6.36525 38.4486C7.64103 30.7661 15.5979 24.8458 25.2273 24.8458C30.776 24.8458 35.7723 26.8118 39.2517 29.9472C39.6729 30.9287 40.0056 31.9642 40.2375 33.0508C40.3016 33.3503 40.3535 33.6467 40.4023 33.9462Z" fill="black"/>
<path opacity="0.2" d="M7.12611 44.5078C7.1057 44.5416 7.08529 44.5754 7.06999 44.6091C7.38628 44.9182 7.72298 45.2211 8.08008 45.5179C7.74338 45.1894 7.42199 44.8517 7.12611 44.5078Z" fill="black"/>
<path opacity="0.2" d="M43.3659 41.4782C43.4796 40.8476 43.4521 40.217 43.268 39.6011C42.9035 38.3781 41.963 37.3135 40.5718 36.4277C40.5797 37.1316 40.5248 37.8297 40.4033 38.5189C41.8415 39.3401 42.8643 40.3344 43.3659 41.4782Z" fill="black"/>
<path fill-rule="evenodd" clip-rule="evenodd" d="M24.2304 5.07306C25.1881 6.88382 25.3509 8.86708 25.2082 10.165L23.58 9.98458C23.6941 8.94685 23.5578 7.30823 22.7836 5.84445C22.03 4.4195 20.6565 3.12281 18.1826 2.69511L18.4606 1.07422C21.461 1.59294 23.2522 3.22347 24.2304 5.07306Z" fill="black"/>
<path d="M21.2132 2.08464C21.2132 3.20035 20.3088 4.10482 19.193 4.10482C18.0773 4.10482 17.1729 3.20035 17.1729 2.08464C17.1729 0.96892 18.0773 0.0644531 19.193 0.0644531C20.3088 0.0644531 21.2132 0.96892 21.2132 2.08464Z" fill="black"/>
<path fill-rule="evenodd" clip-rule="evenodd" d="M28.0137 2.0329C28.0144 2.03257 28.0129 2.03984 28.0073 2.05567C28.0101 2.04113 28.013 2.03322 28.0137 2.0329ZM27.433 2.87903C27.3334 2.9004 27.2272 2.9255 27.1142 2.95476C25.9662 3.25204 24.426 3.89812 22.7964 4.84583C21.1668 5.79353 19.8436 6.81272 19.0175 7.66348C18.9362 7.74719 18.8618 7.82713 18.794 7.90313C18.8936 7.88176 18.9998 7.85666 19.1128 7.82741C20.2608 7.53012 21.801 6.88404 23.4306 5.93634C25.0602 4.98863 26.3834 3.96945 27.2095 3.11869C27.2908 3.03497 27.3652 2.95503 27.433 2.87903ZM17.7714 7.98937C17.772 7.98893 17.7803 7.99038 17.7944 7.99506C17.7778 7.99216 17.7708 7.98982 17.7714 7.98937ZM18.2133 8.74927C18.2126 8.74959 18.2141 8.74232 18.2197 8.72649C18.2168 8.74103 18.214 8.74894 18.2133 8.74927ZM28.4326 2.7871C28.4492 2.79 28.4562 2.79235 28.4556 2.79279C28.455 2.79324 28.4467 2.79178 28.4326 2.7871ZM24.1208 7.12332C27.5331 5.1389 29.8482 2.75466 29.2919 1.79798C28.7356 0.841289 25.5184 1.67443 22.1061 3.65885C18.6939 5.64326 16.3787 8.0275 16.9351 8.98419C17.4914 9.94087 20.7086 9.10773 24.1208 7.12332Z" fill="black"/>
<path d="M201.453 3.23386L87.9131 14.9416L88.9343 18.107L173.303 17.5558L163.216 28.8002L162.686 31.6801L166.693 40.0102L153.829 49.7016L155.379 52.3688L175.295 41.5933L175.825 38.7133L174.356 30.8504L200.737 7.12179L201.453 3.23386Z" fill="black"/>
<path d="M202 0.261209L88.6148 11.128L89.6501 14.2166L173.943 14.0801L163.917 24.9866L163.401 27.7897L167.444 35.9239L154.638 45.3043L156.199 47.9101L176.046 37.507L176.562 34.7039L175.057 27.0368L201.303 4.04545L202 0.261209Z" fill="#FF8B13"/>
<path d="M81.0732 57.0439L88.8115 39.6824H92.7799L100.543 57.0439H96.3266L89.9772 41.7162H91.5646L85.1904 57.0439H81.0732ZM84.9424 53.3236L86.0089 50.2729H94.9377L96.029 53.3236H84.9424Z" fill="black"/>
<path d="M102.964 57.0439V39.6824H110.479C112.034 39.6824 113.373 39.9387 114.497 40.4513C115.622 40.9473 116.49 41.6666 117.102 42.609C117.713 43.5515 118.019 44.6759 118.019 45.9821C118.019 47.2719 117.713 48.388 117.102 49.3304C116.49 50.2729 115.622 51.0005 114.497 51.513C113.373 52.0091 112.034 52.2571 110.479 52.2571H105.196L106.982 50.4465V57.0439H102.964ZM106.982 50.893L105.196 48.9832H110.256C111.496 48.9832 112.422 48.7187 113.034 48.1895C113.646 47.6604 113.952 46.9246 113.952 45.9821C113.952 45.0231 113.646 44.2791 113.034 43.7499C112.422 43.2208 111.496 42.9563 110.256 42.9563H105.196L106.982 41.0465V50.893Z" fill="black"/>
<path d="M125.203 46.6766H133.562V49.8017H125.203V46.6766ZM125.501 53.8196H134.951V57.0439H121.508V39.6824H134.628V42.9067H125.501V53.8196Z" fill="black"/>
<path d="M144.472 57.3415C143.083 57.3415 141.752 57.1597 140.479 56.7959C139.206 56.4156 138.181 55.9278 137.403 55.3326L138.768 52.3067C139.512 52.8358 140.388 53.274 141.397 53.6212C142.422 53.9519 143.455 54.1173 144.497 54.1173C145.291 54.1173 145.927 54.0429 146.407 53.894C146.903 53.7287 147.266 53.5055 147.498 53.2244C147.729 52.9433 147.845 52.6209 147.845 52.2571C147.845 51.7941 147.663 51.4304 147.3 51.1658C146.936 50.8847 146.456 50.6615 145.861 50.4961C145.266 50.3143 144.604 50.1489 143.877 50.0001C143.166 49.8348 142.447 49.6363 141.719 49.4048C141.008 49.1734 140.355 48.8757 139.76 48.512C139.164 48.1482 138.677 47.6687 138.296 47.0734C137.933 46.4782 137.751 45.7176 137.751 44.7916C137.751 43.7996 138.015 42.8984 138.544 42.0882C139.09 41.2615 139.9 40.6083 140.975 40.1288C142.066 39.6328 143.43 39.3848 145.067 39.3848C146.159 39.3848 147.233 39.517 148.292 39.7816C149.35 40.0296 150.284 40.4099 151.094 40.9225L149.854 43.9732C149.044 43.5102 148.234 43.1712 147.424 42.9563C146.613 42.7248 145.82 42.609 145.043 42.609C144.265 42.609 143.629 42.7 143.133 42.8819C142.637 43.0638 142.281 43.3035 142.066 43.6011C141.851 43.8822 141.744 44.2129 141.744 44.5932C141.744 45.0397 141.926 45.4034 142.289 45.6845C142.653 45.9491 143.133 46.164 143.728 46.3294C144.323 46.4947 144.976 46.6601 145.687 46.8254C146.415 46.9908 147.134 47.1809 147.845 47.3959C148.573 47.6108 149.234 47.9002 149.829 48.2639C150.425 48.6277 150.904 49.1072 151.268 49.7025C151.648 50.2977 151.838 51.0501 151.838 51.9595C151.838 52.935 151.566 53.8279 151.02 54.6381C150.474 55.4483 149.656 56.1014 148.564 56.5975C147.49 57.0935 146.126 57.3415 144.472 57.3415Z" fill="black"/>
<path d="M70.595 36.949C69.2061 36.949 67.875 36.7671 66.6018 36.4033C65.3287 36.023 64.3035 35.5352 63.5264 34.94L64.8905 31.9141C65.6346 32.4432 66.5109 32.8814 67.5195 33.2286C68.5447 33.5593 69.5781 33.7247 70.6198 33.7247C71.4135 33.7247 72.0501 33.6503 72.5296 33.5015C73.0256 33.3361 73.3894 33.1129 73.6209 32.8318C73.8523 32.5507 73.9681 32.2283 73.9681 31.8645C73.9681 31.4015 73.7862 31.0378 73.4224 30.7732C73.0587 30.4921 72.5792 30.2689 71.9839 30.1036C71.3887 29.9217 70.7273 29.7563 69.9997 29.6075C69.2887 29.4422 68.5695 29.2438 67.8419 29.0123C67.131 28.7808 66.4778 28.4832 65.8826 28.1194C65.2873 27.7556 64.7995 27.2761 64.4192 26.6809C64.0555 26.0856 63.8736 25.325 63.8736 24.3991C63.8736 23.407 64.1382 22.5058 64.6673 21.6956C65.2129 20.8689 66.0231 20.2158 67.0979 19.7363C68.1892 19.2402 69.5533 18.9922 71.1902 18.9922C72.2815 18.9922 73.3563 19.1245 74.4145 19.389C75.4728 19.637 76.407 20.0173 77.2172 20.5299L75.9771 23.5806C75.1669 23.1176 74.3567 22.7787 73.5464 22.5637C72.7362 22.3322 71.9426 22.2165 71.1654 22.2165C70.3883 22.2165 69.7517 22.3074 69.2557 22.4893C68.7596 22.6712 68.4041 22.9109 68.1892 23.2086C67.9742 23.4896 67.8667 23.8203 67.8667 24.2006C67.8667 24.6471 68.0486 25.0109 68.4124 25.2919C68.7762 25.5565 69.2557 25.7715 69.8509 25.9368C70.4462 26.1021 71.0993 26.2675 71.8103 26.4328C72.5378 26.5982 73.2571 26.7883 73.9681 27.0033C74.6956 27.2182 75.357 27.5076 75.9523 27.8714C76.5475 28.2351 77.027 28.7146 77.3908 29.3099C77.7711 29.9051 77.9612 30.6575 77.9612 31.5669C77.9612 32.5424 77.6884 33.4353 77.1428 34.2455C76.5971 35.0557 75.7786 35.7089 74.6873 36.2049C73.6126 36.7009 72.2485 36.949 70.595 36.949Z" fill="black"/>
<path d="M81.3268 36.6513V19.2898H84.6503L92.0413 31.5421H90.2804L97.5474 19.2898H100.846L100.896 36.6513H97.1258L97.101 25.0687H97.7954L91.9917 34.816H90.1812L84.2534 25.0687H85.0967V36.6513H81.3268Z" fill="black"/>
<path d="M103.353 36.6513L111.091 19.2898H115.06L122.823 36.6513H118.606L112.257 21.3236H113.844L107.47 36.6513H103.353ZM107.222 32.931L108.289 29.8803H117.217L118.309 32.931H107.222Z" fill="black"/>
<path d="M125.244 36.6513V19.2898H132.759C134.313 19.2898 135.653 19.5461 136.777 20.0587C137.901 20.5547 138.77 21.274 139.381 22.2165C139.993 23.159 140.299 24.2833 140.299 25.5896C140.299 26.8793 139.993 27.9954 139.381 28.9379C138.77 29.8638 137.901 30.5748 136.777 31.0709C135.653 31.5669 134.313 31.8149 132.759 31.8149H127.476L129.262 30.054V36.6513H125.244ZM136.281 36.6513L131.941 30.3516H136.231L140.621 36.6513H136.281ZM129.262 30.5004L127.476 28.6154H132.536C133.776 28.6154 134.702 28.3509 135.314 27.8218C135.926 27.2761 136.231 26.5321 136.231 25.5896C136.231 24.6306 135.926 23.8865 135.314 23.3574C134.702 22.8283 133.776 22.5637 132.536 22.5637H127.476L129.262 20.6539V30.5004Z" fill="black"/>
<path d="M147.457 36.6513V22.5637H141.901V19.2898H157.03V22.5637H151.475V36.6513H147.457Z" fill="black"/>
</g>
<defs>
<clipPath id="clip0_10445_13579">
<rect width="202" height="57.5962" fill="white"/>
</clipPath>
</defs>
</svg>
