<svg width="80" height="81" viewBox="0 0 80 81" fill="none" xmlns="http://www.w3.org/2000/svg">
<path opacity="0.25" d="M0.973626 40.3418C-1.78004 52.0852 1.43209 62.9644 9.03096 70.2906C13.6237 74.7185 54.3126 80.5956 76.5503 73.7524C81.3043 72.2895 82.4956 47.4961 71.2326 39.3757C64.2211 34.3207 61.215 37.0975 52.8619 34.8673C39.4431 31.2846 34.3145 15.8252 20.8749 19.3294C9.93428 22.1819 3.55298 29.3418 0.973626 40.3418Z" fill="#7E54F1"/>
<path opacity="0.25" d="M11.6223 31.9648C8.69388 36.353 9.64413 39.9581 8.25167 45.0467C6.08456 52.9662 -1.30152 57.7804 2.23266 65.1914C4.32672 69.5826 11.6223 71.0741 11.6223 71.0741C11.6223 71.0741 79.9983 86.3429 79.9983 66.4755C79.9983 58.4073 79.5167 57.2459 76.6276 52.0292C72.1829 44.0034 82.0046 30.0812 66.1947 21.451C56.558 16.1906 49.4461 24.0974 38.6677 26.1862C28.1083 28.2326 17.593 23.0178 11.6223 31.9648Z" fill="#7E54F1"/>
<ellipse opacity="0.25" cx="42.4308" cy="69.6117" rx="22.8146" ry="6.4086" fill="#333333"/>
<rect x="39.6113" y="43.9087" width="2.76593" height="22.0456" rx="1.38297" transform="rotate(-3.89081 39.6113 43.9087)" fill="#632D11"/>
<rect x="48.7666" y="46.7761" width="2.76593" height="26.8575" rx="1.38297" transform="rotate(-26.1894 48.7666 46.7761)" fill="#632D11"/>
<rect width="2.76593" height="26.8575" rx="1.38297" transform="matrix(-0.934073 -0.357082 -0.357082 0.934073 34.3535 46.7593)" fill="#632D11"/>
<ellipse cx="39.8674" cy="32.4419" rx="17.6877" ry="20.5075" fill="#A41213"/>
<ellipse cx="37.304" cy="32.4419" rx="17.6877" ry="20.5075" fill="#F62425"/>
<ellipse cx="1.79441" cy="2.05075" rx="1.79441" ry="2.05075" transform="matrix(1 0 0 -1 34.9961 34.4927)" fill="#A41213"/>
<path d="M51.9156 32.4419C51.9156 42.069 45.259 49.8733 37.0476 49.8733C28.8363 49.8733 22.1797 42.069 22.1797 32.4419C22.1797 22.8148 28.8363 15.0105 37.0476 15.0105C45.259 15.0105 51.9156 22.8148 51.9156 32.4419ZM26.486 32.4419C26.486 39.2806 31.2146 44.8245 37.0476 44.8245C42.8807 44.8245 47.6093 39.2806 47.6093 32.4419C47.6093 25.6032 42.8807 20.0593 37.0476 20.0593C31.2146 20.0593 26.486 25.6032 26.486 32.4419Z" fill="white"/>
<path d="M45.2507 32.442C45.2507 37.5387 41.5781 41.6704 37.0477 41.6704C32.5173 41.6704 28.8447 37.5387 28.8447 32.442C28.8447 27.3453 32.5173 23.2136 37.0477 23.2136C41.5781 23.2136 45.2507 27.3453 45.2507 32.442ZM32.6609 32.442C32.6609 35.1676 34.625 37.3772 37.0477 37.3772C39.4705 37.3772 41.4346 35.1676 41.4346 32.442C41.4346 29.7164 39.4705 27.5068 37.0477 27.5068C34.625 27.5068 32.6609 29.7164 32.6609 32.442Z" fill="white"/>
<path d="M7.31152 30.3911L10.2703 30.5962L15.7709 30.9774L36.7911 32.1855V32.6982L15.6751 31.8305L7.31152 31.4165L8.3369 30.9038L7.31152 30.3911Z" fill="#1B1E21"/>
<path d="M8.59324 28.853L10.2703 30.5962L15.7709 30.9774L13.4638 29.1094L8.59324 28.853Z" fill="#F62425"/>
<path d="M10.3058 31.5647L8.84959 33.2109L13.9765 33.4672L15.6751 31.8305L10.3058 31.5647Z" fill="#F62425"/>
</svg>
