<svg width="14" height="14" viewBox="0 0 14 14" fill="none" xmlns="http://www.w3.org/2000/svg">
<path d="M7.65624 11.2592L11.5062 7.40915C11.5646 7.35082 11.606 7.28763 11.6305 7.21957C11.6546 7.15152 11.6667 7.0786 11.6667 7.00082C11.6667 6.92304 11.6546 6.85013 11.6305 6.78207C11.606 6.71402 11.5646 6.65082 11.5062 6.59249L7.65624 2.74249C7.5493 2.63554 7.41571 2.57954 7.25549 2.57449C7.09488 2.56982 6.95624 2.62582 6.83957 2.74249C6.72291 2.84943 6.66205 2.98302 6.65699 3.14324C6.65232 3.30385 6.70832 3.44249 6.82499 3.55915L9.68332 6.41749H3.16457C2.9993 6.41749 2.86066 6.47329 2.74866 6.5849C2.63705 6.6969 2.58124 6.83554 2.58124 7.00082C2.58124 7.1661 2.63705 7.30454 2.74866 7.41615C2.86066 7.52815 2.9993 7.58415 3.16457 7.58415H9.68332L6.82499 10.4425C6.71805 10.5494 6.66205 10.6855 6.65699 10.8508C6.65232 11.0161 6.70832 11.1522 6.82499 11.2592C6.93193 11.3758 7.06805 11.4342 7.23332 11.4342C7.3986 11.4342 7.53957 11.3758 7.65624 11.2592Z" fill="white"/>
</svg>
