<svg width="150" height="196" viewBox="0 0 150 196" fill="none" xmlns="http://www.w3.org/2000/svg">
<path d="M33.7942 125.826L36.4354 126.854L44.9449 123.77C44.9449 123.77 46.697 125.235 47.7326 126.266C48.5087 127.039 49.113 127.362 49.64 128.322C49.85 128.705 50.2138 128.935 50.0801 129.35C49.9677 129.7 49.6877 129.803 49.3465 129.938C48.9202 130.106 48.6273 129.997 48.1728 129.938C47.1053 129.798 45.8252 128.763 45.3851 129.057C44.9449 129.35 44.8988 130.049 44.6515 130.966C44.4041 131.882 46.1642 134.406 45.3851 136.4C45.1702 136.95 45.1806 137.461 44.6515 137.722C44.2404 137.925 43.9177 137.85 43.4777 137.722C42.6601 137.482 42.517 136.792 42.0105 136.106C41.0657 134.827 40.2499 132.435 40.2499 132.435C40.2499 132.435 40.8168 134.292 40.9835 135.519C41.0995 136.373 41.3414 136.886 41.1302 137.722C41.0232 138.145 41.0555 138.511 40.69 138.75C40.4453 138.91 40.2486 138.897 39.9564 138.897C39.6643 138.897 39.4883 138.872 39.2228 138.75C38.7428 138.529 38.6314 138.164 38.3425 137.722C37.9352 137.097 37.8868 136.651 37.6089 135.959C36.9934 134.427 36.1417 131.994 36.1417 131.994C36.1417 131.994 36.4282 134.703 36.1417 136.4C36.0537 136.921 36.294 137.438 35.8483 137.722C35.649 137.849 35.4976 137.869 35.2614 137.869C35.0252 137.869 34.888 137.823 34.6745 137.722C34.1144 137.456 34.0784 136.951 33.7942 136.4C33.3538 135.546 33.2367 134.995 33.0606 134.05C32.7875 132.584 32.6962 131.726 32.7673 130.232C32.8112 129.308 32.8427 128.78 33.0606 127.882C33.2615 127.053 33.7942 125.826 33.7942 125.826Z" fill="#C0C0C0"/>
<path d="M36.1426 84.7027C36.1426 84.7027 45.4688 74.6425 53.1621 70.8973C61.3782 66.8976 76.0504 66.0508 76.0504 66.0508C76.0504 66.0508 82.0062 74.6864 84.8536 80.7373C89.1333 89.8321 92.1894 105.411 92.1894 105.411L60.0577 124.356C60.0577 124.356 51.3295 114.356 46.8531 107.173C41.7122 98.9236 36.1426 84.7027 36.1426 84.7027Z" fill="#CACACA"/>
<path d="M47.5859 69.1356C39.8926 72.8808 30.5664 82.941 30.5664 82.941C30.5664 82.941 36.136 97.1619 41.277 105.411C45.7533 112.594 54.4815 122.595 54.4815 122.595L60.0571 124.357C60.0571 124.357 51.3287 114.357 46.8523 107.174C41.7114 98.9243 36.1418 84.7033 36.1418 84.7033C36.1418 84.7033 45.4679 74.6432 53.1613 70.898C61.3773 66.8983 76.0496 66.0514 76.0496 66.0514C76.0496 66.0514 82.0055 74.687 84.8528 80.738C88.8062 89.1391 91.7154 103.073 92.136 105.149L92.1888 105.118C92.1888 105.118 90.2854 90.9083 86.6134 82.6472C83.4925 75.6259 76.0496 66.0514 76.0496 66.0514L70.4742 64.2891C70.4742 64.2891 55.8019 65.1359 47.5859 69.1356Z" fill="#ACAAAA"/>
<path d="M30.5664 82.9414C30.5664 82.9414 36.136 97.1623 41.277 105.412C45.7533 112.595 54.4815 122.595 54.4815 122.595L60.0571 124.357C60.0571 124.357 51.3287 114.357 46.8523 107.174C41.7114 98.9247 36.1418 84.7038 36.1418 84.7038L30.5664 82.9414Z" fill="#BBB8B8"/>
<path d="M40.252 132.434C40.252 132.434 41.0678 134.826 42.0126 136.105C42.5191 136.791 42.6622 137.482 43.4798 137.721C43.9198 137.85 44.2424 137.924 44.6535 137.721C45.0647 137.518 44.7535 137.086 44.5071 136.84C44.2607 136.593 43.9341 136.857 43.6268 136.693C43.1066 136.414 43.2038 135.873 42.8932 135.371C42.5249 134.776 42.2172 134.508 41.8662 133.902C41.6089 133.459 41.688 133.037 41.2793 132.727C40.9465 132.475 40.252 132.434 40.252 132.434Z" fill="#D6D6D6"/>
<path d="M36.1426 131.994C36.1426 131.994 36.9943 134.427 37.6098 135.959C37.8877 136.651 37.936 137.098 38.3434 137.722C38.6323 138.165 38.7437 138.529 39.2237 138.75C39.4892 138.872 39.6651 138.897 39.9573 138.897C40.2495 138.897 40.1206 138.545 40.1043 138.309C40.0735 137.862 40.2223 137.789 39.9576 137.428C39.5624 136.889 39.3471 136.99 39.0314 136.4C38.6439 135.676 38.26 134.79 37.9032 134.05C37.6246 133.473 37.895 133.055 37.4633 132.582C37.216 132.31 36.7038 132.054 36.1426 131.994Z" fill="#D6D6D6"/>
<path d="M33.0606 127.88C32.8427 128.779 32.8112 129.306 32.7673 130.23C32.6962 131.724 32.7875 132.583 33.0606 134.049C33.2367 134.994 33.3538 135.544 33.7942 136.399C34.0784 136.95 34.1144 137.455 34.6745 137.72C34.888 137.822 35.0252 137.867 35.2614 137.867C35.2614 137.867 34.6145 135.923 34.3813 134.636C34.196 133.614 34.0222 133.029 34.0878 131.993C34.1511 130.993 34.2938 130.422 34.6745 129.496C35.1461 128.348 36.4354 126.852 36.4354 126.852L33.7942 125.824C33.7942 125.824 33.2615 127.052 33.0606 127.88Z" fill="#D6D6D6"/>
<path d="M45.1708 79.7332C45.121 79.4199 45.3901 79.1562 45.7064 79.1813C46.7252 79.2621 47.5661 79.2353 48.7618 79.1224C51.3634 78.8767 52.783 78.3109 55.2174 77.36C56.3881 76.9027 57.0319 76.6087 58.1518 76.0382C60.2629 74.9628 61.3858 74.2214 63.287 72.8072C65.0648 71.4848 66.2235 70.8313 67.5753 69.1707C67.7284 68.9827 67.9942 68.9203 68.1973 69.0526C69.8934 70.1572 69.945 71.9955 70.7698 73.3946C70.7698 73.3946 67.3026 74.6823 65.3411 76.4788C63.217 78.4244 61.7492 79.1482 59.0322 80.2973C56.4741 81.3792 54.5979 81.8572 51.8429 82.2066C49.4446 82.5107 46.8544 83.9689 46.8544 83.9689C45.976 82.2793 45.4128 81.2555 45.1708 79.7332Z" fill="url(#paint0_linear_7728_63623)"/>
<path d="M91.7488 145.505C91.8663 144.826 91.7488 143.742 91.7488 143.742L102.019 146.386L101.286 148.882C101.286 148.882 105.13 153.025 105.687 156.373C105.981 158.135 105.144 162.1 102.606 162.1C98.0578 162.1 96.2574 160.041 93.6561 156.96C91.3344 154.211 89.156 151.906 90.1348 148.442C90.4908 147.182 91.5253 146.794 91.7488 145.505Z" fill="#C0C0C0"/>
<path d="M101.286 148.883L102.02 146.387H98.3517C98.3517 146.387 97.6492 147.707 97.7648 148.59C97.9138 149.727 98.5904 150.276 99.5254 150.94C100.502 151.632 101.477 151.138 102.46 151.821C103.364 152.449 103.584 153.125 104.22 154.024C104.845 154.907 105.688 156.374 105.688 156.374C105.13 153.026 101.286 148.883 101.286 148.883Z" fill="#9C9C9C"/>
<path d="M91.7488 145.505C91.5252 146.794 90.4908 147.182 90.1348 148.442C89.156 151.906 91.3344 154.211 93.6561 156.96C96.2574 160.041 98.0578 162.1 102.606 162.1C102.606 162.1 99.4456 161.334 97.7644 160.191C95.9181 158.936 95.1324 157.826 93.9497 155.932C93.1755 154.692 92.6351 153.985 92.3357 152.554C92.0775 151.319 91.9316 150.518 92.3357 149.323C92.6415 148.419 93.2755 148.142 93.6561 147.267C94.0111 146.451 94.2431 145.064 94.2431 145.064L91.7488 143.742C91.7488 143.742 91.8663 144.826 91.7488 145.505Z" fill="#D6D6D6"/>
<path d="M45.2969 80.445C46.1767 80.7388 48.0969 80.8735 49.523 80.7388C52.1246 80.4931 53.661 80.0742 56.0954 79.1233C57.2661 78.666 57.9099 78.372 59.0298 77.8015C61.1408 76.726 62.5572 75.8378 64.4584 74.4236C66.3491 73.0172 68.5369 71.4862 69.271 70.0176C69.5644 70.3113 69.8799 71.1746 70.2105 72.3674C70.2105 72.3674 68.0638 76.0049 66.1023 77.8015C63.9782 79.747 62.5104 80.4709 59.7934 81.62C57.2353 82.7018 55.3591 83.1799 52.6041 83.5292C50.2059 83.8333 46.4419 82.9418 46.4419 82.9418C46.1479 82.9418 45.443 81.3262 45.2969 80.445Z" fill="url(#paint1_linear_7728_63623)"/>
<path d="M103.486 67.2285C103.486 67.2285 104.494 67.1428 105.1 66.9347C105.779 66.7016 106.136 66.4791 106.714 66.0536C107.367 65.5733 107.604 65.1537 108.181 64.5849C109.916 62.8777 112.73 60.3258 112.73 60.3258C112.73 60.3258 113.275 60.0822 113.61 60.179C113.885 60.2585 114.016 60.397 114.197 60.6196C114.358 60.8186 114.44 60.9556 114.49 61.207C114.559 61.549 114.426 61.7492 114.344 62.0882C113.971 63.6184 112.143 65.4001 112.436 65.6129L112.73 65.7598C113.023 65.7598 114.428 64.3596 115.664 63.7037C116.276 63.3791 116.607 63.1415 117.278 62.9694C117.891 62.812 118.359 62.4805 118.892 62.8225C119.24 63.0458 119.37 63.3047 119.479 63.7037C119.569 64.0357 119.518 64.2431 119.479 64.5849C119.26 66.4788 115.649 67.3753 115.958 67.9628C116.054 68.1459 116.066 68.3109 116.251 68.4034C116.544 68.5502 117.695 68.4215 118.598 68.2565C119.793 68.0384 120.323 67.3292 121.533 67.2285C121.933 67.1952 122.18 67.0993 122.56 67.2285C122.984 67.3726 123.349 67.5243 123.44 67.9628C123.514 68.3179 123.316 68.5234 123.147 68.844C122.843 69.4175 122.485 69.6205 121.973 70.0189C121.164 70.6488 120.575 70.8076 119.626 71.1938C118.247 71.7543 117.261 71.5038 115.958 72.2219C115.345 72.5595 114.49 72.5498 114.49 73.2499C114.49 74.278 117.42 74.7217 117.718 76.481C117.804 76.9899 118.019 77.3838 117.718 77.8028C117.432 78.2004 117.027 78.1633 116.544 78.2433C115.347 78.4418 114.776 77.5533 113.61 77.2153C112.368 76.8554 111.667 76.6201 110.382 76.481C109.186 76.3515 107.301 76.481 107.301 76.481L106.861 69.4314L103.486 67.2285Z" fill="#C0C0C0"/>
<path d="M121.535 67.2257C120.325 67.3265 119.795 68.0357 118.601 68.2538C118.307 68.4006 118.306 68.4013 118.16 68.5475L118.16 68.5475C118.014 68.6937 117.826 68.7853 117.867 68.9881C117.907 69.1909 118.113 69.2123 118.307 69.2819C118.752 69.4409 119.04 69.1572 119.481 68.9881C119.84 68.8506 119.995 68.6638 120.361 68.5475C120.693 68.4421 120.897 68.452 121.241 68.4006C121.698 68.3326 121.963 68.348 122.415 68.2538C122.824 68.1687 123.534 68.3986 123.442 67.96C123.351 67.5215 122.986 67.3698 122.562 67.2257C122.182 67.0965 121.935 67.1924 121.535 67.2257Z" fill="#D6D6D6"/>
<path d="M115.666 63.7004C114.492 64.4347 113.758 65.0221 113.758 65.0221C113.758 65.0221 113.434 65.2933 113.612 65.6096C113.843 66.0221 114.335 66.0435 114.786 65.9033C115.137 65.7473 115.318 65.6253 115.666 65.4627C116.062 65.2782 116.318 65.2451 116.693 65.0221C117.217 64.7109 117.352 64.3191 117.867 63.9941C118.192 63.789 118.535 63.8741 118.747 63.5535C118.909 63.3098 119.427 63.1612 118.894 62.8192C118.361 62.4771 117.893 62.8087 117.28 62.966C116.609 63.1382 116.253 63.3332 115.666 63.7004Z" fill="#D6D6D6"/>
<path d="M105.101 66.9348C104.495 67.1428 104.031 66.8889 103.487 67.2285C102.153 68.0625 105.31 69.6914 106.862 69.4315C107.724 69.287 107.973 68.6198 108.769 68.2565C109.215 68.0532 109.547 68.1044 109.943 67.8159C110.305 67.5523 110.528 67.3572 110.676 66.9348C110.912 66.2657 110.128 65.8735 110.236 65.1724C110.368 64.3222 111.046 64.1022 111.557 63.41C112.02 62.7823 112.19 62.3564 112.731 61.7945C113.24 61.2654 114.378 60.8421 114.198 60.6196C114.017 60.397 113.886 60.2585 113.611 60.179C113.276 60.0822 112.731 60.3258 112.731 60.3258C112.731 60.3258 109.916 62.8777 108.182 64.5849C107.605 65.1537 107.368 65.5733 106.715 66.0536C106.137 66.4791 105.78 66.7016 105.101 66.9348Z" fill="#D6D6D6"/>
<path d="M74.5506 162.779C75.0551 162.068 75.8925 160.994 75.8925 160.994L81.2601 161.887L84.7071 160.632L87.075 155.492C87.075 155.492 87.6466 156.933 87.9696 157.871C88.2864 158.792 88.5668 159.289 88.7151 160.251C89.0103 162.167 88.621 163.332 87.9696 165.158C87.0053 167.861 85.6597 169.058 83.6457 171.106C81.6971 173.088 77.9799 175.419 77.9799 175.419C77.9799 175.419 73.9208 177.37 72.0159 176.014C70.9908 175.283 70.5934 174.539 70.2267 173.337C69.6016 171.288 70.6404 169.979 71.4195 167.983C72.2819 165.775 73.1778 164.714 74.5506 162.779Z" fill="#C0C0C0"/>
<path d="M87.9682 157.871C87.6452 156.933 87.0736 155.492 87.0736 155.492C87.0736 155.492 83.9244 158.565 84.7058 160.632C85.1217 161.733 86.3581 161.729 86.7599 162.835C87.3733 164.524 86.28 165.654 85.4395 167.241C84.7685 168.508 84.1976 169.114 83.2387 170.179C82.1524 171.385 81.6629 171.912 80.5977 172.969C79.6034 173.955 77.9785 175.419 77.9785 175.419C77.9785 175.419 81.6957 173.088 83.6443 171.106C85.6583 169.057 87.0039 167.861 87.9682 165.158C88.6196 163.332 89.0089 162.167 88.7137 160.251C88.5654 159.289 88.285 158.792 87.9682 157.871Z" fill="#9C9C9C"/>
<path d="M74.5503 162.779C73.1775 164.714 72.2815 165.775 71.4192 167.983C70.6401 169.979 69.6021 171.288 70.2264 173.337C70.5929 174.54 71.2083 175.613 72.0156 176.014C71.9429 175.553 71.7946 175.796 71.6487 174.878C71.5029 173.961 71.3032 173.086 71.4192 171.941C71.5591 170.56 71.9452 169.823 72.5291 168.563C73.155 167.213 73.475 166.361 74.5503 165.332C75.0274 164.876 75.3483 164.678 75.8922 164.304C77.7866 163.001 81.6241 163.715 81.2597 161.887C80.8442 159.801 75.8922 160.994 75.8922 160.994C75.8922 160.994 75.0548 162.068 74.5503 162.779Z" fill="#D6D6D6"/>
<path d="M45.7213 81.8632C49.3893 81.8632 50.3454 81.8976 53.162 81.3253C56.0031 80.748 57.5959 80.2413 60.2045 78.9754C62.593 77.8164 63.9058 77.0264 65.9266 75.3038C67.6551 73.8304 69.0077 72.3665 69.8881 71.0447C70.4749 71.779 70.4458 72.1144 71.0618 72.5134C71.277 72.6527 71.4052 72.7273 71.6487 72.8071C72.7004 73.1516 73.2155 72.0455 74.2897 71.779C75.629 71.4468 76.4349 71.5889 77.8109 71.4853C80.787 71.2613 82.4639 71.2628 85.4404 71.0447C88.0789 70.8514 89.5813 70.9015 92.1895 70.4573C96.3881 69.7421 98.353 67.4394 102.607 67.2262C103.465 67.1832 103.968 67.0395 104.807 67.2262C106.67 67.6408 107.344 68.9192 108.475 70.4573C109.281 71.5522 109.873 72.1991 110.089 73.5414C110.342 75.1075 110.265 76.324 109.209 77.5068C108.023 78.8345 106.451 78.0012 104.807 78.6817C102.955 79.4485 102.325 80.746 100.406 81.3253C99.1334 81.7094 98.3181 81.4333 97.0312 81.7659C94.7237 82.3622 93.817 83.6745 91.6026 84.5563C90.0368 85.1799 89.1508 85.5676 87.4944 85.8781C86.3064 86.1008 85.6197 86.0967 84.4133 86.1718C82.1259 86.3144 81.919 85.5844 79.1314 86.1718C79.1314 86.9062 79.1472 87.1719 79.5716 87.7874C80.4967 89.1291 81.2111 89.7327 82.2125 91.0184C85.828 95.6603 86.2876 99.4701 90.4288 103.649C90.939 104.164 91.3624 104.333 91.7677 104.934C92.3291 105.767 91.9979 106.536 92.5196 107.394C93.3743 108.8 94.5267 109.023 95.9767 109.799C97.052 110.374 97.806 110.393 98.8469 111.029C100.09 111.788 100.616 112.465 101.653 113.489C102.512 114.337 102.888 114.914 103.744 115.765C104.946 116.962 105.977 117.282 107.008 118.629C107.912 119.81 108.338 120.583 108.769 122.007C109.121 123.171 109.274 123.876 109.209 125.091C109.133 126.523 108.578 127.238 108.182 128.616C107.295 131.705 107.074 133.524 105.981 136.547C104.89 139.564 103.524 140.962 102.607 144.037C102.169 145.503 102.803 146.769 101.726 147.855C100.756 148.834 99.729 148.858 98.3517 148.883C96.99 148.909 96.1934 148.616 94.9772 148.002C94.1325 147.576 93.6407 147.3 92.9964 146.607C92.2193 145.771 91.1517 145.171 91.0157 144.037C90.5756 140.365 91.241 139.102 92.0428 136.106C92.4393 134.624 93.3695 133.967 93.4366 132.434C93.4905 131.204 93.3118 130.459 92.7764 129.35C89.9887 127.735 88.3747 127.735 83.0928 126.707C82.7994 126.707 81.9191 126.707 81.3322 129.497C81.0387 131.406 81.5604 133.279 82.2125 135.812C82.816 138.156 82.9856 139.515 83.6797 141.834C84.6114 144.946 85.5248 146.557 86.6141 149.618C87.1432 151.104 87.7146 151.874 87.9346 153.436C88.0946 154.572 88.123 155.242 87.9346 156.373C87.5976 158.398 87.1159 159.659 85.8805 161.367C85.2386 162.254 84.9454 162.919 83.9732 163.423C82.8997 163.979 82.1005 163.692 80.8921 163.717C79.7449 163.74 79.0849 163.784 77.9576 163.57C77.014 163.39 76.4029 163.378 75.6101 162.836C74.8714 162.33 74.6734 161.795 74.1429 161.073C72.4871 158.821 71.8666 157.238 70.7684 154.611C69.3616 151.246 68.9172 149.213 68.1274 145.652C67.7986 144.17 67.7219 143.316 67.3938 141.834C66.7503 138.926 67.0418 138.288 65.6332 135.665C64.8164 134.144 63.4462 132.482 62.7721 130.892C62.1223 129.36 62.4059 128.2 61.6717 126.707C60.7237 124.778 60.7914 126.707 58.5906 122.301C56.6169 118.349 54.1887 116.719 53.0153 112.461C52.812 111.723 52.7331 111.3 52.5751 110.551C52.3824 109.638 52.3161 109.118 52.1349 108.202C51.6328 105.663 51.4013 102.768 50.6678 101.74C50.3828 101.709 50.2203 101.725 49.9341 101.74C47.5866 101.859 49.533 110.534 47.2932 115.545C46.8746 116.481 46.3938 116.906 46.1194 117.895C45.736 119.276 46.4208 120.165 46.1194 121.566C45.7851 123.121 45.4071 124.043 44.3588 125.238C43.4359 126.29 42.7543 126.86 41.4244 127.294C40.0081 127.757 39.0925 127.438 37.6097 127.294C36.3344 127.17 35.489 127.352 34.3818 126.707C33.4358 126.155 32.8934 125.663 32.4745 124.651C32.014 123.538 32.604 122.764 32.4745 121.566C32.3548 120.459 32.0642 119.875 31.8876 118.776C31.7319 117.807 31.4614 117.252 31.5942 116.279C31.6923 115.56 32.012 115.222 32.181 114.517C32.4364 113.451 32.4507 112.822 32.4745 111.726C32.5045 110.345 32.1129 109.581 32.181 108.202C32.2239 107.335 32.3625 106.859 32.4745 105.999C32.7802 103.65 32.5438 102.251 33.2081 99.9772C33.4472 99.1588 33.5743 98.6903 33.9417 97.9211C34.3189 97.1312 34.6301 96.7402 35.1154 96.0118C35.7068 95.1243 36.1458 94.7016 36.7294 93.8088C37.992 91.8771 38.1508 90.481 39.3703 88.5217C39.9586 87.5765 40.2605 87.0176 40.9842 86.1718C42.23 84.716 42.9399 83.5476 44.799 83.0877C45.1373 83.004 45.4224 83.1766 45.6793 82.9408C45.9779 82.6667 45.6115 82.2536 45.7213 81.8632Z" fill="#464BB4"/>
<path d="M91.769 104.934C91.3637 104.333 90.9403 104.164 90.4302 103.649C86.2889 99.4701 85.8293 95.6604 82.2138 91.0184C81.2124 89.7327 80.4981 89.1291 79.5729 87.7874C79.1485 87.1719 79.1327 86.1719 79.1327 86.1719C79.1327 86.1719 77.6638 85.8577 76.9315 85.2907C75.2936 84.0225 75.9041 80.1504 75.611 80.1504C72.491 80.1507 76.0709 85.0101 76.6385 88.0811C76.9798 89.9285 77.1179 90.9838 77.6655 92.7808C78.6451 95.9956 79.5028 97.7472 81.3335 100.565C83.4349 103.799 84.5656 106.036 87.9359 107.908C90.7569 109.475 97.428 110.575 95.978 109.799C94.528 109.023 93.3756 108.8 92.5209 107.394C91.9992 106.536 92.3305 105.767 91.769 104.934Z" fill="#676DD8"/>
<path d="M79.1329 86.1719C81.9206 85.5844 82.1274 86.3144 84.4149 86.1719C86.7023 86.0293 81.9277 85.5902 80.6001 84.7032C79.6222 84.0499 79.1803 83.5268 78.3993 82.6471C77.5542 81.6952 75.6116 80.1504 75.6116 80.1504C75.6116 80.1504 75.5515 81.7946 75.7585 82.6471C75.9984 83.6347 75.8944 84.3978 76.6389 85.1438C77.346 85.8524 79.1329 86.1719 79.1329 86.1719Z" fill="#676DD8"/>
<path d="M83.0918 126.706C88.3737 127.734 89.9876 127.734 92.7753 129.349C93.3107 130.458 93.4894 131.203 93.4355 132.433C93.3685 133.966 92.4382 134.623 92.0417 136.105C91.2399 139.101 90.5745 140.364 91.0147 144.036C91.1506 145.17 92.2182 145.77 92.9954 146.606C93.7726 147.442 94.0774 146.007 94.0958 145.358C94.1147 144.686 93.3276 144.62 92.9954 144.036C92.3075 142.827 92.3866 141.899 92.4819 140.511C92.6074 138.683 93.5144 137.843 94.0958 136.105C94.7981 134.006 96.0796 132.854 95.7097 130.671C95.409 128.896 94.72 127.886 93.3622 126.706C91.6794 125.243 90.1609 124.865 87.9335 124.943C85.9228 125.014 83.5317 125.678 83.0918 126.706Z" fill="#676DD8"/>
<path d="M60.9309 92.4855L61.5178 92.0449C61.5178 92.0449 61.7211 94.3722 61.6645 95.8634C61.6076 97.3634 61.6494 98.2424 61.2244 99.6819C60.6643 101.578 59.5081 102.27 58.7301 104.088C58.2521 105.205 57.7031 107.025 57.7031 107.025C57.7031 107.025 56.7849 103.149 57.2629 102.032C58.0409 100.214 59.1971 99.5224 59.7572 97.6258C60.1822 96.1863 60.1404 95.3073 60.1973 93.8073C60.9309 92.4855 60.9309 92.4855 60.9309 92.4855Z" fill="#676DD8"/>
<path d="M45.6793 82.9414C45.4224 83.1772 45.1373 83.0046 44.799 83.0883C42.9399 83.5482 42.23 84.7166 40.9842 86.1724C40.2605 87.0182 39.9586 87.5771 39.3703 88.5223C38.1508 90.4816 37.992 91.8777 36.7294 93.8094C36.1458 94.7022 35.7068 95.1249 35.1154 96.0124C34.6301 96.7408 34.3189 97.1318 33.9417 97.9217C33.5743 98.6909 33.4472 99.1594 33.2081 99.9778C32.5438 102.251 32.7802 103.65 32.4745 105.999C32.3625 106.86 32.2239 107.335 32.181 108.202C32.1129 109.582 32.5045 110.346 32.4745 111.727C32.4507 112.822 32.4364 113.452 32.181 114.517C32.012 115.223 31.6923 115.561 31.5942 116.28C31.4614 117.253 31.7319 117.807 31.8876 118.777C32.0642 119.876 32.3548 120.46 32.4745 121.567C32.604 122.764 32.014 123.538 32.4745 124.651C32.8934 125.663 33.4358 126.156 34.3818 126.707C35.4891 127.353 36.3344 127.171 37.6097 127.295C38.8849 127.419 37.8191 121.451 38.3432 117.748C39.0025 113.092 39.7037 110.524 40.9842 105.999C42.2386 101.567 43.0286 99.09 44.799 94.8375C46.7999 90.0312 55.6164 84.9433 50.8144 82.9414H45.6793Z" fill="#676DD8"/>
<path d="M77.9566 163.568C79.0838 163.782 80.891 163.715 80.891 163.715C83.8095 162.712 79.0333 159.266 77.9566 156.372C76.9827 153.754 76.4121 152.291 75.609 149.616C74.9612 147.457 75.1731 146.038 74.1418 144.035C73.3177 142.434 72.1976 141.954 71.3542 140.363C69.874 137.571 70.0318 135.58 69.7402 132.432C69.4916 129.748 69.7402 128.225 69.7402 125.53C69.7402 123.408 69.9234 122.21 69.7402 120.096C69.5848 118.302 70.1949 116.895 69.0066 115.543C68.0576 114.463 67.0669 104.933 65.6321 104.853C63.9849 104.762 62.9987 105.342 61.6707 106.322C59.3382 108.042 56.3887 117.893 58.5895 122.299C60.7903 126.705 60.7226 124.776 61.6707 126.705C62.4048 128.198 62.1212 129.358 62.7711 130.89C63.4452 132.48 64.8153 134.142 65.6321 135.663C67.0407 138.287 66.7492 138.924 67.3927 141.832C67.7209 143.314 67.7975 144.168 68.1263 145.65L68.1492 145.753C68.9249 149.251 69.3741 151.277 70.7673 154.609C71.8655 157.236 72.4341 158.794 74.1418 161.071C74.6791 161.788 74.8703 162.328 75.609 162.834C76.4018 163.376 77.0129 163.389 77.9566 163.568Z" fill="#676DD8"/>
<path d="M62.3711 82.3614L62.8704 82.0527C62.8704 82.0527 65.5022 85.4019 66.98 87.6913C69.739 91.9657 70.3952 94.866 72.8495 99.3226C74.178 101.735 75.0465 103.018 76.3712 105.432C78.3153 108.975 79.9128 110.781 81.0664 114.655C82.1025 118.135 82.2403 123.878 82.2403 123.878L81.741 124.187C81.741 124.187 81.6032 118.443 80.5671 114.964C79.4135 111.09 77.816 109.284 75.8718 105.741C74.5471 103.326 73.6787 102.044 72.3502 99.6313C69.8959 95.1747 69.2397 92.2744 66.4807 88.0001C65.0029 85.7106 62.3711 82.3614 62.3711 82.3614Z" fill="#676DD8"/>
<path d="M70.7692 72.3675C70.7692 72.3675 71.2115 72.6474 71.5028 72.7494C72.0896 72.955 72.0666 72.8662 72.3831 72.8081C72.97 72.6613 73.2295 72.1743 73.8503 71.9269C74.2378 71.7724 74.469 71.7186 74.8773 71.6331C75.6086 71.48 76.0392 71.5344 76.7847 71.4863C78.1582 71.3976 78.931 71.4011 80.306 71.3394C81.5094 71.2854 82.1845 71.2621 83.3871 71.1925C84.9928 71.0996 85.8901 71.001 87.4952 70.8988C88.469 70.8368 89.9895 70.752 89.9895 70.752C90.2563 71.0289 90.3141 71.2662 90.4296 71.6331C90.8933 73.1061 90.0655 74.2251 88.9624 75.3048C87.7185 76.5223 86.436 76.4273 84.7076 76.6265C82.4695 76.8845 81.2266 76.1222 78.9855 75.8922C74.9321 75.4763 68.5684 75.3048 68.5684 75.3048L69.8888 73.8361L70.7692 72.3675Z" fill="#676DD8"/>
<path d="M45.8267 82.6477C45.8267 82.6477 54.8596 83.1458 60.1314 81.0322C65.2058 78.9978 70.8567 72.3672 70.8567 72.3672C70.9878 72.4705 71.0648 72.524 71.2088 72.611C71.2088 72.611 65.4892 79.3492 60.4987 81.4728C55.0889 83.7749 45.6797 82.9415 45.6797 82.9415C45.7842 82.8441 45.8057 82.7778 45.8267 82.6477Z" fill="url(#paint2_linear_7728_63623)"/>
<path d="M45.8267 82.6477C45.8267 82.6477 54.8596 83.1458 60.1314 81.0322C65.2058 78.9978 70.8567 72.3672 70.8567 72.3672C70.9878 72.4705 71.0648 72.524 71.2088 72.611C71.2088 72.611 65.4892 79.3492 60.4987 81.4728C55.0889 83.7749 45.6797 82.9415 45.6797 82.9415C45.7842 82.8441 45.8057 82.7778 45.8267 82.6477Z" fill="#676DD8"/>
<path d="M49.4941 92.0449H49.7876C49.7876 92.0449 51.0687 95.2041 51.1081 97.3321C51.1402 99.0694 50.3745 101.72 50.3745 101.72C50.0901 101.73 50.206 101.729 50.081 101.729C50.081 101.729 50.8701 98.9819 50.8146 97.1852C50.7507 95.1135 49.4941 92.0449 49.4941 92.0449Z" fill="#676DD8"/>
<path d="M27.3357 54.7714C27.7432 52.8487 28.2165 51.7928 29.2187 50.0717C30.163 48.45 30.8787 47.6249 32.2001 46.2532C34.0653 44.3171 35.3248 43.3678 37.6921 41.9941C39.9766 40.6685 41.4099 40.1207 43.9688 39.3505C46.7604 38.5103 48.4137 38.1383 51.3438 38.0287C53.6778 37.9414 55.0155 38.0433 57.3066 38.4693C58.6772 38.7242 59.4705 38.8436 60.7587 39.3505C61.9989 39.8385 62.6666 40.2071 63.7401 40.966C66.4802 42.9031 67.2297 44.8454 68.7614 47.7218C69.5583 49.2184 69.9103 50.1047 70.4875 51.6872C71.083 53.3201 71.4518 54.2425 71.7428 55.9463C72.1587 58.3816 72.4292 59.8804 71.7428 62.2615C71.1859 64.1933 70.4668 65.1809 69.2322 66.8143C68.1299 68.2726 67.3927 69.0371 65.9369 70.1922C64.1333 71.6234 62.8387 72.0768 60.7587 73.1295C58.2025 74.4234 56.7777 75.2335 54.0113 76.0668C50.0102 77.2722 47.443 78.2478 43.3411 77.3886C41.1975 76.9396 40.024 76.4247 38.1629 75.3325C36.6871 74.4665 35.9608 73.8243 34.7107 72.6889C32.0627 70.2837 30.708 68.6524 29.2187 65.4925C27.389 61.6104 26.4535 58.9333 27.3357 54.7714Z" fill="url(#paint3_linear_7728_63623)"/>
<path d="M29.9561 63.584L37.1453 75.3332C37.1453 75.3332 34.9818 75.4405 33.7707 74.8926C32.4042 74.2745 31.8627 73.4648 30.9831 72.2491C30.1262 71.0648 29.7336 70.2872 29.3691 68.8711C28.8974 67.0383 29.9561 63.584 29.9561 63.584Z" fill="#B7B6B2"/>
<path d="M67.3945 48.7227C67.3945 48.7227 70.381 49.7689 71.1837 50.3669C71.867 50.876 72.179 51.2726 72.6509 51.9824C73.3941 53.1001 73.629 53.8852 73.8247 55.2135C73.9668 56.1781 73.9668 56.7456 73.8247 57.7102C73.629 59.0384 71.1837 63.1154 71.1837 63.1154L67.3945 48.7227Z" fill="#B7B7C3"/>
<g filter="url(#filter0_f_7728_63623)">
<path d="M70.3047 51.7116L70.9565 51.25C70.9565 51.25 71.5946 52.2613 71.9342 52.9424C72.3972 53.8714 72.6093 54.418 72.9119 55.4042C73.0579 55.8801 73.3118 56.1445 73.2378 56.6351C73.1653 57.1146 72.586 57.7121 72.586 57.7121C72.586 57.7121 72.2548 56.1939 71.9342 55.2503C71.4466 53.8154 70.3047 51.7116 70.3047 51.7116Z" fill="#62635E" fill-opacity="0.5"/>
</g>
<path d="M29.6616 57.121C30.0426 55.1983 30.4851 54.1424 31.4222 52.4213C32.3052 50.7996 32.9743 49.9745 34.2099 48.6028C35.9539 46.6667 37.1316 45.7174 39.3451 44.3437C41.4811 43.0181 42.8213 42.4703 45.2139 41.7001C47.8241 40.8599 49.37 40.488 52.1097 40.3784C54.292 40.291 55.5428 40.3929 57.6851 40.8189C58.9666 41.0738 59.7084 41.1932 60.9129 41.7001C62.0725 42.1882 62.6968 42.5567 63.7006 43.3157C66.2626 45.2527 66.9634 47.195 68.3956 50.0715C69.1407 51.568 69.4699 52.4543 70.0095 54.0368C70.5664 55.6697 70.9112 56.5921 71.1833 58.2959C71.5722 60.7312 71.8251 62.23 71.1833 64.6111C70.6626 66.5429 69.9902 67.5305 68.8358 69.1639C67.8051 70.6222 67.1158 71.3867 65.7547 72.5418C64.0682 73.973 62.8577 74.4264 60.9129 75.4791C58.5227 76.773 57.1905 77.5831 54.6039 78.4164C50.8627 79.6218 48.4623 80.5975 44.627 79.7382C42.6226 79.2892 41.5254 78.7743 39.7852 77.6821C38.4053 76.8161 37.7262 76.1739 36.5574 75.0385C34.0814 72.6333 32.8147 71.002 31.4222 67.8421C29.7114 63.96 28.8367 61.2829 29.6616 57.121Z" fill="url(#paint4_linear_7728_63623)"/>
<path d="M35.2363 59.7632C36.5567 57.5603 37.0765 56.805 38.6108 55.2104C40.3679 53.3844 41.5777 52.5553 43.746 51.245C45.853 49.9718 47.1551 49.4434 49.4681 48.6014C52.6959 47.4265 54.3098 47.1328 56.9508 47.1328C58.8172 47.1328 60.0678 48.2955 61.2057 49.7764C62.6728 51.6856 63.0051 52.123 64.1401 54.3292C65.0462 56.0904 66.0475 59.0289 66.0475 59.0289C66.0475 59.0289 66.7366 61.5253 66.0475 62.8474C64.2868 66.2253 61.1624 68.9286 56.9508 71.3656C52.5557 73.9087 51.2287 74.8904 44.4796 74.5966C41.2517 73.8623 36.3176 69.1025 35.2363 63.4349C35.0096 62.2464 34.6144 60.8007 35.2363 59.7632Z" fill="url(#paint5_linear_7728_63623)"/>
<path d="M41.5444 52.5668C43.6698 50.9812 45.1239 50.2351 47.5599 49.1889C49.9253 48.1731 51.3144 47.5958 53.8688 47.2797C54.7805 47.1668 56.2164 47.1328 56.2164 47.1328C56.2164 47.1328 50.7585 52.8517 48.8804 57.4134C46.8086 62.4454 46.973 71.2187 46.973 71.2187L40.8108 71.8062C40.8108 71.8062 35.3523 62.4275 36.2625 58.5883C36.5559 57.3509 37.3875 56.4031 38.4633 55.2104C39.5212 54.0374 40.2786 53.5111 41.5444 52.5668Z" fill="url(#paint6_linear_7728_63623)"/>
<path fill-rule="evenodd" clip-rule="evenodd" d="M38.1632 54.9694C36.5716 56.632 36.0323 57.4196 34.6628 59.7166C34.0891 60.6787 34.3499 61.9774 34.58 63.1246C34.6086 63.2674 34.6367 63.4079 34.6628 63.5451C35.7844 69.4547 40.9027 74.4178 44.2512 75.1835C50.9189 75.4752 52.4847 74.5606 56.5576 72.1819L57.1877 71.8144C61.5564 69.2735 64.7974 66.4547 66.6237 62.9325C67.3386 61.554 66.6237 58.9509 66.6237 58.9509C66.6237 58.9509 65.5852 55.887 64.6452 54.0506C63.4678 51.7502 63.1233 51.2941 61.6014 49.3033C60.421 47.7593 59.1238 46.5469 57.1877 46.5469C54.4479 46.5469 52.7738 46.8532 49.4256 48.0782C47.0265 48.9561 45.6757 49.5071 43.4901 50.8347C41.2408 52.2009 39.986 53.0654 38.1632 54.9694ZM38.6116 55.2119C37.0774 56.8065 36.5576 57.5618 35.2371 59.7647C34.6843 60.6872 34.9353 61.9323 35.1571 63.0324C35.1846 63.1696 35.2119 63.3046 35.2371 63.4364C36.3186 69.104 41.2526 73.8638 44.4804 74.5981C50.9083 74.8779 52.4182 74.0008 56.3444 71.7195C56.5404 71.6056 56.7424 71.4881 56.9516 71.3671C61.1632 68.9302 64.2876 66.2268 66.0482 62.8489C66.7374 61.5268 66.0482 59.0304 66.0482 59.0304C66.0482 59.0304 65.047 56.0919 64.1409 54.3307C63.0058 52.1245 62.6737 51.6872 61.2065 49.7779C60.0686 48.2971 58.818 47.1343 56.9516 47.1343C54.3107 47.1343 52.6967 47.4281 49.4689 48.603C47.1561 49.4449 45.8539 49.9733 43.7468 51.2465C41.5787 52.5568 40.3688 53.3859 38.6116 55.2119Z" fill="url(#paint7_linear_7728_63623)"/>
<defs>
<filter id="filter0_f_7728_63623" x="66.3047" y="47.25" width="10.9463" height="14.4629" filterUnits="userSpaceOnUse" color-interpolation-filters="sRGB">
<feFlood flood-opacity="0" result="BackgroundImageFix"/>
<feBlend mode="normal" in="SourceGraphic" in2="BackgroundImageFix" result="shape"/>
<feGaussianBlur stdDeviation="2" result="effect1_foregroundBlur_7728_63623"/>
</filter>
<linearGradient id="paint0_linear_7728_63623" x1="64.901" y1="70.6042" x2="45.0847" y2="81.4557" gradientUnits="userSpaceOnUse">
<stop stop-color="#778186"/>
<stop offset="1" stop-color="#474B4C"/>
</linearGradient>
<linearGradient id="paint1_linear_7728_63623" x1="65.192" y1="71.4862" x2="46.1099" y2="81.751" gradientUnits="userSpaceOnUse">
<stop stop-color="#C1C1C1"/>
<stop offset="1" stop-color="#929292"/>
</linearGradient>
<linearGradient id="paint2_linear_7728_63623" x1="55.9504" y1="80.0042" x2="56.8323" y2="82.7941" gradientUnits="userSpaceOnUse">
<stop stop-color="#D48845"/>
<stop offset="1" stop-color="#4E3219"/>
</linearGradient>
<linearGradient id="paint3_linear_7728_63623" x1="28.7606" y1="52.3928" x2="63.535" y2="57.9629" gradientUnits="userSpaceOnUse">
<stop stop-color="#9F9F9F"/>
<stop offset="1" stop-color="#787877"/>
</linearGradient>
<linearGradient id="paint4_linear_7728_63623" x1="29.3477" y1="57.6797" x2="56.1974" y2="58.4126" gradientUnits="userSpaceOnUse">
<stop stop-color="#CBCBCB"/>
<stop offset="1" stop-color="#828380"/>
</linearGradient>
<linearGradient id="paint5_linear_7728_63623" x1="35.8231" y1="61.2319" x2="65.754" y2="61.9648" gradientUnits="userSpaceOnUse">
<stop stop-color="#1B0A5D"/>
<stop offset="0.390625" stop-color="#1B0A5D"/>
<stop offset="0.970597" stop-color="#010005"/>
</linearGradient>
<linearGradient id="paint6_linear_7728_63623" x1="56.3631" y1="48.7483" x2="40.5066" y2="60.1889" gradientUnits="userSpaceOnUse">
<stop stop-color="#FFF9FF" stop-opacity="0.36"/>
<stop offset="1" stop-color="#1B0A5D" stop-opacity="0"/>
</linearGradient>
<linearGradient id="paint7_linear_7728_63623" x1="34.3365" y1="60.9109" x2="66.9083" y2="60.9109" gradientUnits="userSpaceOnUse">
<stop stop-color="#5B5C59"/>
<stop offset="1" stop-color="#3F403E"/>
</linearGradient>
</defs>
</svg>
