<svg width="1279" height="535" viewBox="0 0 1279 535" fill="none" xmlns="http://www.w3.org/2000/svg">
<g clip-path="url(#clip0_26325_34549)">
<rect width="1280" height="535" transform="translate(-1)" fill="white"/>
<mask id="mask0_26325_34549" style="mask-type:alpha" maskUnits="userSpaceOnUse" x="-107" y="-73" width="1735" height="742">
<path d="M603.5 91.501C436.424 -52.481 228.53 146.009 35 35.001C-25.1346 0.50783 -106.5 -72.1922 -106.5 -72.1922L1507.83 -72.1922L1627.66 572.045C1457.86 593.423 1314.77 668.432 1314.77 668.432C1314.77 668.432 1332.84 539.188 1294.5 472.501C1237.32 373.061 1159.76 485.914 1054 441.501C948.242 397.088 1034 287.501 1034 287.501C1034 287.501 949.417 349.097 858 348.001C716.9 346.309 699.744 174.441 603.5 91.501Z" fill="url(#paint0_linear_26325_34549)"/>
</mask>
<g mask="url(#mask0_26325_34549)">
<path d="M603.5 91.501C436.424 -52.481 228.53 146.009 35 35.001C-25.1346 0.50783 -106.5 -72.1922 -106.5 -72.1922L1507.83 -72.1922L1627.66 572.045C1457.86 593.423 1314.77 668.432 1314.77 668.432C1314.77 668.432 1332.84 539.188 1294.5 472.501C1237.32 373.061 1159.76 485.914 1054 441.501C948.242 397.088 1034 282.501 1034 282.501C1034 282.501 949.417 349.097 858 348.001C716.9 346.309 699.744 174.441 603.5 91.501Z" fill="url(#paint1_linear_26325_34549)"/>
<g opacity="0.15" filter="url(#filter0_f_26325_34549)">
<path d="M906.501 41.0007C824.183 23.7878 778.562 3.25757 708.001 -42.4993C490.106 -183.798 1373 -42.4993 1373 -42.4993C1373 -42.4993 1424.36 190.906 1323.5 230.501C1238.5 263.871 1159.4 211.126 1110.5 134.001C1091.78 104.469 1102.8 76.0732 1079.5 50.0007C1034.42 -0.443466 972.721 54.8474 906.501 41.0007Z" fill="white"/>
</g>
<g opacity="0.3" filter="url(#filter1_f_26325_34549)">
<path d="M612.488 72.9437C448.969 -75.0663 236.301 118.3 45.5335 2.60895C-13.7429 -33.3391 -93.3125 -108 -93.3125 -108L-84.3638 160.991L1309.49 667.034C1309.49 667.034 1330.71 538.268 1294 470.667C1239.26 369.863 1158.97 480.793 1054.33 433.816C949.682 386.84 1042 275 1042 275C1042 275 952.026 338.892 860.663 335.568C719.646 330.439 706.683 158.204 612.488 72.9437Z" fill="white"/>
</g>
<g opacity="0.3" filter="url(#filter2_f_26325_34549)">
<path d="M617.7 56.7278C460.738 -89.1083 258.66 106.944 75.8466 -6.23145C19.0417 -41.398 -57.3516 -115 -57.3516 -115L-47.3664 153.777L1286.56 641.565C1286.56 641.565 1329.42 537.101 1294 470C1241.19 369.943 1141.81 457.343 1041.61 411.741C941.42 366.138 1066 244 1066 244C1066 244 943.403 318.177 856.127 316.039C721.42 312.74 708.118 140.736 617.7 56.7278Z" fill="white"/>
</g>
<g opacity="0.6" filter="url(#filter3_f_26325_34549)">
<path d="M1194.3 355.607C1193.31 358.314 1192.59 361.054 1192.11 363.807C1190.91 370.486 1191.16 377.218 1192.64 383.591C1193.27 386.213 1194.07 388.753 1195.1 391.228C1199.97 403.075 1209.39 412.976 1222.01 417.944C1231.04 421.499 1240.41 422.038 1249.12 420.036C1259.21 417.737 1268.37 412.026 1274.98 403.696C1278.08 399.779 1280.62 395.3 1282.43 390.315C1282.82 389.256 1283.16 388.187 1283.48 387.113C1283.86 385.763 1284.2 384.412 1284.46 383.045C1285.09 379.817 1285.4 376.592 1285.38 373.377C1285.36 365.986 1283.66 358.745 1280.54 352.196C1275.42 341.464 1266.46 332.588 1254.74 327.966C1243.29 323.461 1231.26 323.817 1220.76 328.016C1218.92 328.769 1217.13 329.636 1215.38 330.61C1213.23 331.811 1211.16 333.205 1209.2 334.768C1202.66 339.986 1197.41 347.058 1194.3 355.607Z" fill="url(#paint2_linear_26325_34549)"/>
<g style="mix-blend-mode:overlay" opacity="0.38">
<path d="M1215.57 330.54C1222.63 334.674 1231.84 340.221 1240.09 345.709C1249.76 352.134 1270.26 364.251 1285.36 373.072C1285.34 365.722 1283.65 358.521 1280.54 352.007C1273.94 348.174 1266.38 344.828 1258.8 343.625C1246.51 341.683 1231.48 334.07 1220.94 327.96C1219.1 328.709 1217.31 329.571 1215.57 330.54Z" fill="white"/>
</g>
<g style="mix-blend-mode:overlay" opacity="0.38">
<path d="M1284.39 382.836C1281.76 380.747 1257.52 370.524 1243.7 362.054C1233.5 355.789 1217.9 342.408 1209.36 334.844C1202.85 340.031 1197.62 347.062 1194.52 355.56C1193.53 358.251 1192.8 360.975 1192.33 363.712C1205.93 365.99 1224.3 368.843 1238.14 370.181C1257.57 372.047 1276.19 382.425 1283.41 386.88L1284.39 382.836Z" fill="white"/>
</g>
<g style="mix-blend-mode:overlay" opacity="0.38">
<path d="M1192.63 383.92C1193.25 386.521 1194.05 389.041 1195.07 391.497L1226.96 403.798L1248.9 420.079C1258.95 417.798 1268.08 412.132 1274.67 403.867C1271.06 401.148 1264.89 398.269 1254.29 396.297C1237.13 393.095 1218.32 389.439 1197.83 385.321L1192.63 383.92Z" fill="white"/>
</g>
<path d="M1202.74 341.427C1201.2 343.243 1199.81 345.192 1198.54 347.273C1188.34 344.934 1181.76 344.529 1180.99 346.63C1180.25 348.672 1185.14 352.717 1193.8 357.742C1204.11 363.714 1219.76 371.059 1237.64 378.069C1254.46 384.66 1269.99 389.681 1281.38 392.412C1292.29 395.019 1299.41 395.546 1300.21 393.357C1301.02 391.122 1295.04 386.441 1284.69 380.71C1285.05 378.281 1285.23 375.83 1285.22 373.411C1305.14 384.437 1317.24 394.845 1315.17 400.497C1313.16 406.016 1298.12 405.665 1276.91 400.604C1264.41 397.631 1249.76 393 1234.39 386.976C1218.1 380.595 1203.44 373.584 1191.84 366.911C1173.91 356.595 1163.28 347.035 1165.21 341.715C1167.21 336.264 1181.94 336.533 1202.74 341.427Z" fill="url(#paint3_linear_26325_34549)"/>
</g>
<g opacity="0.4" filter="url(#filter4_f_26325_34549)">
<path d="M1266.92 243.418L1152.48 291.611C1151.26 292.126 1149.8 291.65 1149.23 290.547C1148.66 289.443 1149.19 288.13 1150.41 287.615C1150.44 287.605 1150.47 287.591 1150.49 287.582L1266.81 243.192C1266.88 243.165 1266.96 243.194 1266.99 243.257C1267.02 243.319 1266.99 243.389 1266.92 243.418Z" fill="url(#paint4_linear_26325_34549)"/>
</g>
<g opacity="0.4" filter="url(#filter5_f_26325_34549)">
<path d="M1042.88 25.2034L865.401 100.056C863.501 100.856 861.243 100.117 860.357 98.4043C859.471 96.6891 860.29 94.6507 862.19 93.8506C862.227 93.8342 862.278 93.8123 862.315 93.7986L1042.7 24.8527C1042.81 24.8116 1042.94 24.8554 1042.98 24.9541C1043.03 25.05 1042.98 25.1596 1042.88 25.2034Z" fill="url(#paint5_linear_26325_34549)"/>
</g>
<path d="M927.294 175.197C927.294 174.928 927.609 174.94 927.609 175.197C927.609 175.197 927.754 177.589 928.466 178.6C929.193 179.632 930.952 179.91 930.952 179.91C931.016 179.943 931.016 180.068 930.952 180.101C930.952 180.101 929.235 180.359 928.509 181.351C927.768 182.363 927.644 184.813 927.644 184.813C927.706 185.083 927.39 185.04 927.39 184.813C927.39 184.813 927.232 182.363 926.491 181.351C925.765 180.359 924.048 180.101 924.048 180.101C923.984 180.068 923.984 179.943 924.048 179.91C924.048 179.91 925.807 179.632 926.534 178.6C927.246 177.589 927.294 175.197 927.294 175.197Z" fill="white"/>
<path d="M824.294 249.197C824.294 248.928 824.609 248.94 824.609 249.197C824.609 249.197 824.754 251.589 825.466 252.6C826.193 253.632 827.952 253.91 827.952 253.91C828.016 253.943 828.016 254.068 827.952 254.101C827.952 254.101 826.235 254.359 825.509 255.351C824.768 256.363 824.644 258.813 824.644 258.813C824.706 259.083 824.39 259.04 824.39 258.813C824.39 258.813 824.232 256.363 823.491 255.351C822.765 254.359 821.048 254.101 821.048 254.101C820.984 254.068 820.984 253.943 821.048 253.91C821.048 253.91 822.807 253.632 823.534 252.6C824.246 251.589 824.294 249.197 824.294 249.197Z" fill="white"/>
<path d="M1202.29 280.197C1202.29 279.928 1202.61 279.94 1202.61 280.197C1202.61 280.197 1202.75 282.589 1203.47 283.6C1204.19 284.632 1205.95 284.91 1205.95 284.91C1206.02 284.943 1206.02 285.068 1205.95 285.101C1205.95 285.101 1204.23 285.359 1203.51 286.351C1202.77 287.363 1202.64 289.813 1202.64 289.813C1202.71 290.083 1202.39 290.04 1202.39 289.813C1202.39 289.813 1202.23 287.363 1201.49 286.351C1200.77 285.359 1199.05 285.101 1199.05 285.101C1198.98 285.068 1198.98 284.943 1199.05 284.91C1199.05 284.91 1200.81 284.632 1201.53 283.6C1202.25 282.589 1202.29 280.197 1202.29 280.197Z" fill="white"/>
<path d="M1230.29 51.1975C1230.29 50.9282 1230.61 50.9402 1230.61 51.1975C1230.61 51.1975 1230.75 53.5894 1231.47 54.6C1232.19 55.6322 1233.95 55.9104 1233.95 55.9104C1234.02 55.9429 1234.02 56.0681 1233.95 56.1006C1233.95 56.1006 1232.23 56.3595 1231.51 57.3508C1230.77 58.3632 1230.64 60.8135 1230.64 60.8135C1230.71 61.0832 1230.39 61.0403 1230.39 60.8135C1230.39 60.8135 1230.23 58.3632 1229.49 57.3508C1228.77 56.3595 1227.05 56.1006 1227.05 56.1006C1226.98 56.0681 1226.98 55.9429 1227.05 55.9104C1227.05 55.9104 1228.81 55.6322 1229.53 54.6C1230.25 53.5894 1230.29 51.1975 1230.29 51.1975Z" fill="white"/>
<path d="M797.294 42.1975C797.294 41.9282 797.609 41.9402 797.609 42.1975C797.609 42.1975 797.754 44.5894 798.466 45.6C799.193 46.6322 800.952 46.9104 800.952 46.9104C801.016 46.9429 801.016 47.0681 800.952 47.1006C800.952 47.1006 799.235 47.3595 798.509 48.3508C797.768 49.3632 797.644 51.8135 797.644 51.8135C797.706 52.0832 797.39 52.0403 797.39 51.8135C797.39 51.8135 797.232 49.3632 796.491 48.3508C795.765 47.3595 794.048 47.1006 794.048 47.1006C793.984 47.0681 793.984 46.9429 794.048 46.9104C794.048 46.9104 795.807 46.6322 796.534 45.6C797.246 44.5894 797.294 42.1975 797.294 42.1975Z" fill="white"/>
<path d="M1101.29 116.197C1101.29 115.928 1101.61 115.94 1101.61 116.197C1101.61 116.197 1101.75 118.589 1102.47 119.6C1103.19 120.632 1104.95 120.91 1104.95 120.91C1105.02 120.943 1105.02 121.068 1104.95 121.101C1104.95 121.101 1103.23 121.359 1102.51 122.351C1101.77 123.363 1101.64 125.813 1101.64 125.813C1101.71 126.083 1101.39 126.04 1101.39 125.813C1101.39 125.813 1101.23 123.363 1100.49 122.351C1099.77 121.359 1098.05 121.101 1098.05 121.101C1097.98 121.068 1097.98 120.943 1098.05 120.91C1098.05 120.91 1099.81 120.632 1100.53 119.6C1101.25 118.589 1101.29 116.197 1101.29 116.197Z" fill="white"/>
<path d="M1139.29 401.197C1139.29 400.928 1139.61 400.94 1139.61 401.197C1139.61 401.197 1139.75 403.589 1140.47 404.6C1141.19 405.632 1142.95 405.91 1142.95 405.91C1143.02 405.943 1143.02 406.068 1142.95 406.101C1142.95 406.101 1141.23 406.359 1140.51 407.351C1139.77 408.363 1139.64 410.813 1139.64 410.813C1139.71 411.083 1139.39 411.04 1139.39 410.813C1139.39 410.813 1139.23 408.363 1138.49 407.351C1137.77 406.359 1136.05 406.101 1136.05 406.101C1135.98 406.068 1135.98 405.943 1136.05 405.91C1136.05 405.91 1137.81 405.632 1138.53 404.6C1139.25 403.589 1139.29 401.197 1139.29 401.197Z" fill="white"/>
<path d="M1059.29 341.197C1059.29 340.928 1059.61 340.94 1059.61 341.197C1059.61 341.197 1059.75 343.589 1060.47 344.6C1061.19 345.632 1062.95 345.91 1062.95 345.91C1063.02 345.943 1063.02 346.068 1062.95 346.101C1062.95 346.101 1061.23 346.359 1060.51 347.351C1059.77 348.363 1059.64 350.813 1059.64 350.813C1059.71 351.083 1059.39 351.04 1059.39 350.813C1059.39 350.813 1059.23 348.363 1058.49 347.351C1057.77 346.359 1056.05 346.101 1056.05 346.101C1055.98 346.068 1055.98 345.943 1056.05 345.91C1056.05 345.91 1057.81 345.632 1058.53 344.6C1059.25 343.589 1059.29 341.197 1059.29 341.197Z" fill="white"/>
<path d="M1248.29 219.197C1248.29 218.928 1248.61 218.94 1248.61 219.197C1248.61 219.197 1248.75 221.589 1249.47 222.6C1250.19 223.632 1251.95 223.91 1251.95 223.91C1252.02 223.943 1252.02 224.068 1251.95 224.101C1251.95 224.101 1250.23 224.359 1249.51 225.351C1248.77 226.363 1248.64 228.813 1248.64 228.813C1248.71 229.083 1248.39 229.04 1248.39 228.813C1248.39 228.813 1248.23 226.363 1247.49 225.351C1246.77 224.359 1245.05 224.101 1245.05 224.101C1244.98 224.068 1244.98 223.943 1245.05 223.91C1245.05 223.91 1246.81 223.632 1247.53 222.6C1248.25 221.589 1248.29 219.197 1248.29 219.197Z" fill="white"/>
<path d="M1007.29 45.1975C1007.29 44.9282 1007.61 44.9402 1007.61 45.1975C1007.61 45.1975 1007.75 47.5894 1008.47 48.6C1009.19 49.6322 1010.95 49.9104 1010.95 49.9104C1011.02 49.9429 1011.02 50.0681 1010.95 50.1006C1010.95 50.1006 1009.23 50.3595 1008.51 51.3508C1007.77 52.3632 1007.64 54.8135 1007.64 54.8135C1007.71 55.0832 1007.39 55.0403 1007.39 54.8135C1007.39 54.8135 1007.23 52.3632 1006.49 51.3508C1005.77 50.3595 1004.05 50.1006 1004.05 50.1006C1003.98 50.0681 1003.98 49.9429 1004.05 49.9104C1004.05 49.9104 1005.81 49.6322 1006.53 48.6C1007.25 47.5894 1007.29 45.1975 1007.29 45.1975Z" fill="white"/>
<path d="M638.294 42.1975C638.294 41.9282 638.609 41.9402 638.609 42.1975C638.609 42.1975 638.754 44.5894 639.466 45.6C640.193 46.6322 641.952 46.9104 641.952 46.9104C642.016 46.9429 642.016 47.0681 641.952 47.1006C641.952 47.1006 640.235 47.3595 639.509 48.3508C638.768 49.3632 638.644 51.8135 638.644 51.8135C638.706 52.0832 638.39 52.0403 638.39 51.8135C638.39 51.8135 638.232 49.3632 637.491 48.3508C636.765 47.3595 635.048 47.1006 635.048 47.1006C634.984 47.0681 634.984 46.9429 635.048 46.9104C635.048 46.9104 636.807 46.6322 637.534 45.6C638.246 44.5894 638.294 42.1975 638.294 42.1975Z" fill="white"/>
<path d="M267.294 29.1975C267.294 28.9282 267.609 28.9402 267.609 29.1975C267.609 29.1975 267.754 31.5894 268.466 32.6C269.193 33.6322 270.952 33.9104 270.952 33.9104C271.016 33.9429 271.016 34.0681 270.952 34.1006C270.952 34.1006 269.235 34.3595 268.509 35.3508C267.768 36.3632 267.644 38.8135 267.644 38.8135C267.706 39.0832 267.39 39.0403 267.39 38.8135C267.39 38.8135 267.232 36.3632 266.491 35.3508C265.765 34.3595 264.048 34.1006 264.048 34.1006C263.984 34.0681 263.984 33.9429 264.048 33.9104C264.048 33.9104 265.807 33.6322 266.534 32.6C267.246 31.5894 267.294 29.1975 267.294 29.1975Z" fill="white"/>
</g>
<g opacity="0.9" filter="url(#filter6_f_26325_34549)">
<path d="M631.151 100.629C664.29 145.484 726.845 153.532 770.862 118.625C814.89 83.7095 823.716 19.0557 790.576 -25.7997C757.445 -70.644 694.902 -78.7002 650.873 -43.7847C606.856 -8.87787 598.019 55.7847 631.151 100.629Z" fill="url(#paint6_radial_26325_34549)"/>
<g filter="url(#filter7_f_26325_34549)">
<path d="M646.596 88.6181C663.063 110.908 688.835 121.568 714.242 119.326C723.296 118.555 732.297 116.147 740.804 112.026C746.02 109.549 751.04 106.425 755.781 102.665C772.195 89.6482 782.353 71.3443 785.657 51.9243C786.817 45.2378 787.158 38.4153 786.628 31.6233C786.145 25.0616 784.887 18.5429 782.795 12.2223C780.207 4.33032 776.353 -3.2356 771.205 -10.2039C766.381 -16.7332 760.762 -22.2747 754.597 -26.7761C732.593 -42.7997 703.562 -45.7705 678.412 -34.3056C672.714 -31.6972 667.192 -28.3531 662.019 -24.2508C649.198 -14.0829 640.189 -0.653556 635.322 13.971C634.711 15.7057 634.18 17.5016 633.712 19.265C627.616 42.2379 631.401 67.5515 646.044 87.8238C646.213 88.1002 646.405 88.3591 646.596 88.6181Z" fill="url(#paint7_linear_26325_34549)"/>
</g>
<g filter="url(#filter8_f_26325_34549)">
<path d="M643.94 91.6215C661.07 114.808 687.879 125.898 714.309 123.565C723.727 122.763 733.091 120.259 741.94 115.971C747.366 113.395 752.588 110.145 757.52 106.234C774.594 92.6931 785.161 73.6524 788.599 53.4508C789.805 46.4951 790.16 39.398 789.608 32.3327C789.106 25.5069 787.798 18.7257 785.621 12.1507C782.929 3.94112 778.92 -3.92933 773.564 -11.1781C768.546 -17.9702 762.701 -23.7348 756.288 -28.4174C733.398 -45.0859 703.199 -48.1763 677.037 -36.2499C671.11 -33.5365 665.365 -30.0578 659.984 -25.7904C646.647 -15.2132 637.275 -1.24335 632.213 13.9698C631.576 15.7743 631.024 17.6426 630.537 19.477C624.196 43.3745 628.133 69.707 643.366 90.7952C643.542 91.0828 643.741 91.3521 643.94 91.6215Z" fill="url(#paint8_linear_26325_34549)"/>
</g>
<path d="M646.447 89.6337C662.914 111.923 688.687 122.584 714.094 120.341C723.148 119.571 732.149 117.163 740.655 113.041C745.872 110.565 750.891 107.441 755.633 103.681C772.046 90.6638 782.205 72.3599 785.509 52.9399C786.669 46.2534 787.01 39.4309 786.48 32.639C785.997 26.0772 784.739 19.5585 782.646 13.2379C780.059 5.34594 776.204 -2.21997 771.056 -9.1883C766.233 -15.7176 760.614 -21.2591 754.449 -25.7605C732.444 -41.7841 703.413 -44.7549 678.264 -33.29C672.566 -30.6816 667.044 -27.3375 661.871 -23.2352C649.05 -13.0673 640.04 0.362069 635.174 14.9866C634.562 16.7213 634.031 18.5173 633.564 20.2807C627.468 43.2535 631.252 68.5671 645.896 88.8394C646.065 89.1158 646.256 89.3748 646.447 89.6337Z" fill="url(#paint9_linear_26325_34549)"/>
<g style="mix-blend-mode:overlay" opacity="0.302">
<path d="M644.582 91.6923C654.408 104.991 667.542 114.156 681.936 118.916C699.597 124.757 719.029 107.151 707.368 92.2932C702.697 86.341 695.471 82.2715 685.625 82.0278C651.184 81.1473 668.792 62.0009 670.001 15.1715C670.738 -13.1435 652.088 -0.962797 637.206 13.1219C634.591 15.5969 632.615 18.7216 631.68 22.2483C625.575 45.2513 629.365 70.5981 644.029 90.897C644.199 91.1738 644.39 91.4331 644.582 91.6923Z" fill="white"/>
</g>
<g style="mix-blend-mode:overlay" opacity="0.302">
<path d="M695.599 -20.4217C730.525 -18.8873 726.964 -28.5777 735.221 1.34421C738.819 14.2708 752.735 24.649 768.444 29.6901C778.243 32.8346 786.842 23.5966 783.521 13.5659C780.929 5.66315 777.069 -1.91311 771.914 -8.89096C767.083 -15.4292 761.456 -20.9783 755.281 -25.4858C739.577 -36.9208 720.298 -41.7174 701.399 -39.3745C687.352 -37.6331 681.484 -21.0278 695.599 -20.4217Z" fill="white"/>
</g>
<g style="mix-blend-mode:overlay" opacity="0.302">
<path d="M730.561 98.4948C735.677 107.88 747.303 110.34 755.64 103.729C769.552 92.6965 778.973 77.8673 783.538 61.7789C784.758 57.4772 781.151 53.7499 777.071 55.2771C743.392 67.8748 712.929 -1.72754 711.224 27.7758C710.448 41.0822 717.795 75.0804 730.561 98.4948Z" fill="white"/>
</g>
<g style="mix-blend-mode:overlay" opacity="0.302">
<path d="M684.378 5.62909C682.45 -4.05058 690.025 -13.5566 699.558 -12.3709C704.239 -11.7993 708.086 -8.65622 707.206 0.519577C705.553 17.5913 687.38 20.6514 684.378 5.62909Z" fill="white"/>
</g>
</g>
</g>
<defs>
<filter id="filter0_f_26325_34549" x="658.414" y="-120.299" width="742.66" height="376.002" filterUnits="userSpaceOnUse" color-interpolation-filters="sRGB">
<feFlood flood-opacity="0" result="BackgroundImageFix"/>
<feBlend mode="normal" in="SourceGraphic" in2="BackgroundImageFix" result="shape"/>
<feGaussianBlur stdDeviation="7.5" result="effect1_foregroundBlur_26325_34549"/>
</filter>
<filter id="filter1_f_26325_34549" x="-99.3125" y="-114" width="1420.9" height="787.033" filterUnits="userSpaceOnUse" color-interpolation-filters="sRGB">
<feFlood flood-opacity="0" result="BackgroundImageFix"/>
<feBlend mode="normal" in="SourceGraphic" in2="BackgroundImageFix" result="shape"/>
<feGaussianBlur stdDeviation="3" result="effect1_foregroundBlur_26325_34549"/>
</filter>
<filter id="filter2_f_26325_34549" x="-63.3516" y="-121" width="1377.37" height="768.564" filterUnits="userSpaceOnUse" color-interpolation-filters="sRGB">
<feFlood flood-opacity="0" result="BackgroundImageFix"/>
<feBlend mode="normal" in="SourceGraphic" in2="BackgroundImageFix" result="shape"/>
<feGaussianBlur stdDeviation="3" result="effect1_foregroundBlur_26325_34549"/>
</filter>
<filter id="filter3_f_26325_34549" x="1163.99" y="323.725" width="152.41" height="98.4668" filterUnits="userSpaceOnUse" color-interpolation-filters="sRGB">
<feFlood flood-opacity="0" result="BackgroundImageFix"/>
<feBlend mode="normal" in="SourceGraphic" in2="BackgroundImageFix" result="shape"/>
<feGaussianBlur stdDeviation="0.5" result="effect1_foregroundBlur_26325_34549"/>
</filter>
<filter id="filter4_f_26325_34549" x="1145" y="239.182" width="126" height="56.6367" filterUnits="userSpaceOnUse" color-interpolation-filters="sRGB">
<feFlood flood-opacity="0" result="BackgroundImageFix"/>
<feBlend mode="normal" in="SourceGraphic" in2="BackgroundImageFix" result="shape"/>
<feGaussianBlur stdDeviation="2" result="effect1_foregroundBlur_26325_34549"/>
</filter>
<filter id="filter5_f_26325_34549" x="856" y="20.8379" width="191" height="83.541" filterUnits="userSpaceOnUse" color-interpolation-filters="sRGB">
<feFlood flood-opacity="0" result="BackgroundImageFix"/>
<feBlend mode="normal" in="SourceGraphic" in2="BackgroundImageFix" result="shape"/>
<feGaussianBlur stdDeviation="2" result="effect1_foregroundBlur_26325_34549"/>
</filter>
<filter id="filter6_f_26325_34549" x="609.094" y="-67.4961" width="203.547" height="209.828" filterUnits="userSpaceOnUse" color-interpolation-filters="sRGB">
<feFlood flood-opacity="0" result="BackgroundImageFix"/>
<feBlend mode="normal" in="SourceGraphic" in2="BackgroundImageFix" result="shape"/>
<feGaussianBlur stdDeviation="1" result="effect1_foregroundBlur_26325_34549"/>
</filter>
<filter id="filter7_f_26325_34549" x="628.647" y="-43.4955" width="160.495" height="165.385" filterUnits="userSpaceOnUse" color-interpolation-filters="sRGB">
<feFlood flood-opacity="0" result="BackgroundImageFix"/>
<feBlend mode="normal" in="SourceGraphic" in2="BackgroundImageFix" result="shape"/>
<feGaussianBlur stdDeviation="1.13543" result="effect1_foregroundBlur_26325_34549"/>
</filter>
<filter id="filter8_f_26325_34549" x="623.633" y="-47.4473" width="170.23" height="175.318" filterUnits="userSpaceOnUse" color-interpolation-filters="sRGB">
<feFlood flood-opacity="0" result="BackgroundImageFix"/>
<feBlend mode="normal" in="SourceGraphic" in2="BackgroundImageFix" result="shape"/>
<feGaussianBlur stdDeviation="2" result="effect1_foregroundBlur_26325_34549"/>
</filter>
<linearGradient id="paint0_linear_26325_34549" x1="667.561" y1="-126.47" x2="1333.52" y2="663.245" gradientUnits="userSpaceOnUse">
<stop stop-color="#F9BDBD"/>
<stop offset="1" stop-color="#A562CE"/>
</linearGradient>
<linearGradient id="paint1_linear_26325_34549" x1="667.561" y1="-126.47" x2="1333.52" y2="663.245" gradientUnits="userSpaceOnUse">
<stop stop-color="#F9BDBD"/>
<stop offset="1" stop-color="#A562CE"/>
</linearGradient>
<linearGradient id="paint2_linear_26325_34549" x1="1188.51" y1="407.768" x2="1284.82" y2="379.339" gradientUnits="userSpaceOnUse">
<stop stop-color="#8BC7FF"/>
<stop offset="1" stop-color="#FF64A5"/>
</linearGradient>
<linearGradient id="paint3_linear_26325_34549" x1="1256.9" y1="436.997" x2="1289.15" y2="369.002" gradientUnits="userSpaceOnUse">
<stop stop-color="white"/>
<stop offset="1" stop-color="#FFEE59"/>
</linearGradient>
<linearGradient id="paint4_linear_26325_34549" x1="1120.27" y1="308.699" x2="1254.64" y2="251.635" gradientUnits="userSpaceOnUse">
<stop stop-color="white"/>
<stop offset="1" stop-color="white" stop-opacity="0"/>
</linearGradient>
<linearGradient id="paint5_linear_26325_34549" x1="815.446" y1="126.597" x2="1023.93" y2="38.1929" gradientUnits="userSpaceOnUse">
<stop stop-color="white"/>
<stop offset="1" stop-color="white" stop-opacity="0"/>
</linearGradient>
<radialGradient id="paint6_radial_26325_34549" cx="0" cy="0" r="1" gradientUnits="userSpaceOnUse" gradientTransform="translate(710.869 37.4173) rotate(-38.4153) scale(101.733 100.908)">
<stop stop-color="#FEE7CA"/>
<stop offset="1" stop-color="#FEE7CA" stop-opacity="0"/>
</radialGradient>
<linearGradient id="paint7_linear_26325_34549" x1="791.011" y1="133.937" x2="791.282" y2="-28.7602" gradientUnits="userSpaceOnUse">
<stop offset="0.137" stop-color="#3F7BDC"/>
<stop offset="1" stop-color="#F7D3A1"/>
</linearGradient>
<linearGradient id="paint8_linear_26325_34549" x1="794.167" y1="138.765" x2="794.45" y2="-30.4813" gradientUnits="userSpaceOnUse">
<stop offset="0.137" stop-color="#3F7BDC"/>
<stop offset="1" stop-color="#F7D3A1"/>
</linearGradient>
<linearGradient id="paint9_linear_26325_34549" x1="790.862" y1="134.953" x2="791.134" y2="-27.7446" gradientUnits="userSpaceOnUse">
<stop offset="0.137" stop-color="#3F7BDC"/>
<stop offset="1" stop-color="#F7D3A1"/>
</linearGradient>
<clipPath id="clip0_26325_34549">
<rect width="1280" height="535" fill="white" transform="translate(-1)"/>
</clipPath>
</defs>
</svg>
