<svg width="460" height="436" viewBox="0 0 460 436" fill="none" xmlns="http://www.w3.org/2000/svg">
<g clip-path="url(#clip0_26325_34964)">
<path opacity="0.7" d="M110.5 259C139.676 286.026 149.661 302.962 152 337.5" stroke="#333333" stroke-dasharray="4 4"/>
<path d="M119.308 268.625C118.198 268.144 116.788 267.521 115.33 266.831C109.829 264.234 108.219 262.946 107.749 262.406C107.042 261.599 106.594 260.627 106.451 259.594L106.402 259.237L102.678 255.026L108.448 250.672L111.718 254.579L112.073 254.68C113.077 254.958 113.981 255.533 114.69 256.341C115.158 256.88 116.223 258.647 118.06 264.444C118.546 265.982 118.979 267.465 119.308 268.625Z" fill="#FFCE54"/>
<path d="M100.936 254.85L105.274 259.757C105.441 260.97 105.964 262.171 106.855 263.191C109.132 265.795 121.102 270.679 121.102 270.679C121.102 270.679 117.864 258.165 115.586 255.557C114.696 254.541 113.574 253.86 112.393 253.532L108.635 249.042L100.936 254.85ZM110.567 255.059L111.044 255.627L111.757 255.825C112.536 256.042 113.241 256.492 113.794 257.125C113.976 257.333 114.987 258.687 116.923 264.795C117.107 265.378 117.284 265.95 117.448 266.501C116.925 266.262 116.381 266.012 115.831 265.751C110.035 263.015 108.829 261.835 108.647 261.623C108.092 260.99 107.742 260.231 107.633 259.432L107.534 258.718L107.057 258.179L104.424 255.203L108.262 252.306L110.567 255.059Z" fill="#F6BB42"/>
<path d="M112.897 247.723C112.63 247.036 112.343 246.348 112.041 245.662L103.269 231.456C102.788 230.867 102.295 230.284 101.795 229.708C101.502 229.377 101.209 229.045 100.912 228.72C107.085 229.188 113.651 232.472 118.668 238.21C120.338 240.122 121.716 242.165 122.798 244.273C122.806 244.287 122.848 244.371 122.848 244.371C123.062 244.837 122.955 245.408 122.549 245.762C122.414 245.879 122.259 245.96 122.099 246.005C122.099 246.005 121.972 246.038 121.917 246.045L112.965 247.903C112.943 247.841 112.919 247.784 112.897 247.723Z" fill="#FB5F6F"/>
<path d="M82.4802 244.825C82.7639 245.163 83.0532 245.498 83.3441 245.833C83.8467 246.406 84.3584 246.972 84.8781 247.526C85.0534 249.922 97.7849 258.121 97.7849 258.121C98.4242 258.511 99.0662 258.887 99.7128 259.245C99.7685 259.277 99.8243 259.306 99.88 259.337L96.842 267.962C96.828 268.014 96.7778 268.137 96.7778 268.137C96.7114 268.29 96.611 268.43 96.475 268.551C96.0695 268.905 95.4915 268.933 95.0564 268.659C95.0564 268.659 94.981 268.608 94.9678 268.597C93.0238 267.244 91.183 265.607 89.5114 263.695C84.493 257.954 82.1158 251.007 82.4802 244.825Z" fill="#FB5F6F"/>
<path d="M82.49 246.007C88.7785 253.199 96.152 258.576 103.429 261.786C103.838 261.957 104.322 261.899 104.677 261.586L114.552 252.958C114.905 252.646 115.03 252.174 114.915 251.746C112.707 244.103 108.366 236.079 102.077 228.886C92.3107 217.71 80.0721 210.983 69.3283 209.82C69.0085 209.785 68.6469 209.876 68.3847 210.104C68.1223 210.335 67.9836 210.679 67.9758 211.004C67.6915 221.807 72.7232 234.834 82.49 246.007Z" fill="#E6E9ED"/>
<path d="M93.0423 233.199C92.9571 234.468 92.3819 235.627 91.4257 236.463C90.4678 237.299 89.2421 237.714 87.973 237.629C86.704 237.543 85.5448 236.968 84.7072 236.012C83.8714 235.056 83.4566 233.827 83.5416 232.561C83.6268 231.292 84.202 230.133 85.1584 229.293C87.1359 227.566 90.1498 227.769 91.8769 229.745C92.7125 230.704 93.1276 231.93 93.0426 233.196C93.0423 233.199 93.0423 233.199 93.0423 233.199Z" fill="#434A54"/>
<path d="M102.441 243.952C102.356 245.221 101.782 246.38 100.824 247.216C99.868 248.052 98.6406 248.467 97.3732 248.382C96.1041 248.296 94.9432 247.721 94.1056 246.765C93.2698 245.809 92.8548 244.583 92.94 243.314C93.0252 242.045 93.6005 240.886 94.5569 240.046C96.5343 238.319 99.5484 238.522 101.275 240.497C102.113 241.457 102.526 242.683 102.441 243.952Z" fill="#434A54"/>
<path d="M84.3777 228.399C83.1814 229.446 82.4623 230.897 82.3558 232.483C82.2495 234.066 82.7681 235.6 83.8136 236.798C84.8594 237.992 86.3099 238.713 87.8945 238.82C89.4808 238.926 91.013 238.406 92.2108 237.362C93.407 236.315 94.1244 234.864 94.2307 233.281C94.3372 231.695 93.8204 230.161 92.7748 228.963C90.6153 226.492 86.8483 226.239 84.3777 228.399ZM90.9816 230.531C91.6303 231.275 91.9178 232.208 91.8564 233.121C91.7953 234.031 91.3853 234.922 90.6432 235.569C89.1587 236.866 86.9029 236.715 85.6052 235.23C84.9563 234.49 84.6707 233.553 84.7318 232.643C84.7932 231.73 85.2011 230.843 85.9436 230.192C87.4281 228.895 89.6839 229.046 90.9816 230.531Z" fill="#CCD1D9"/>
<path d="M91.7581 243.236C91.6516 244.823 92.1687 246.353 93.2142 247.551C94.2596 248.749 95.7105 249.466 97.2968 249.573C98.8815 249.679 100.413 249.162 101.611 248.115C102.808 247.067 103.527 245.62 103.633 244.034C103.74 242.447 103.221 240.914 102.176 239.716C100.016 237.245 96.2488 236.992 93.7783 239.152C92.582 240.199 91.8647 241.65 91.7581 243.236ZM100.382 241.283C101.033 242.027 101.318 242.961 101.257 243.874C101.196 244.784 100.788 245.674 100.044 246.321C98.5592 247.619 96.3035 247.468 95.0058 245.983C94.3568 245.242 94.0713 244.306 94.1324 243.396C94.1937 242.482 94.6017 241.595 95.3442 240.945C96.8286 239.647 99.0844 239.799 100.382 241.283Z" fill="#CCD1D9"/>
<path d="M84.0178 214.482L70.6289 226.187C68.7496 220.927 67.8487 215.749 67.973 211.005C67.9808 210.68 68.1195 210.336 68.3819 210.105C68.644 209.877 69.0057 209.786 69.3255 209.821C74.0473 210.331 79.0558 211.918 84.0178 214.482Z" fill="#FB5F6F"/>
<path d="M98.5742 115.54L209.385 142.599V114.309L98.5742 115.54Z" fill="url(#paint0_linear_26325_34964)"/>
<path d="M400.084 142.599L330.505 112.963L209.385 114.309V142.599H400.084Z" fill="url(#paint1_linear_26325_34964)"/>
<path fill-rule="evenodd" clip-rule="evenodd" d="M98.5742 79.462V115.54L209.385 114.309L330.505 112.963V64L98.5742 79.462Z" fill="#DDAC66"/>
<path d="M330.505 64V112.963L400.084 142.599L403.949 106.521L330.505 64Z" fill="#D3A15A"/>
<g opacity="0.3" filter="url(#filter0_f_26325_34964)">
<path d="M384.5 365.5L198.195 347L89.5 402L313.237 432.253L384.5 365.5Z" fill="#333333"/>
</g>
<path d="M14.8242 331.699C56.8544 343.299 77.3072 355.912 102.442 399.99L193.501 345C181.001 314 157.699 299.738 132.078 293.044L14.8242 331.699Z" fill="url(#paint2_linear_26325_34964)"/>
<path d="M406.528 289.178C396.243 316.027 391.105 332.025 383.335 362.623L192.5 345.5C199.243 319.94 205.082 303.299 222.272 276.293L406.528 289.178Z" fill="url(#paint3_linear_26325_34964)"/>
<path d="M192.637 344.585L102.441 399.991L311.179 428.338L383.335 361.336L192.637 344.585Z" fill="#BC8F4F"/>
<path d="M414.26 363.912C366.982 379.261 346.062 396.073 311.18 429.625L383.336 360.046C408.628 331.797 426.279 321.821 461.935 311.083L414.26 363.912Z" fill="url(#paint4_linear_26325_34964)"/>
<g opacity="0.4" filter="url(#filter1_f_26325_34964)">
<ellipse cx="253.599" cy="371.795" rx="78.5987" ry="21.9046" fill="#333333"/>
</g>
<path d="M295.492 180.815C303.185 180.815 309.422 174.595 309.422 166.923H344.246C350.401 166.923 355.39 171.898 355.39 178.036L345.639 210.162C345.194 210.048 344.727 209.987 344.246 209.987C341.169 209.987 338.674 212.475 338.674 215.544C338.674 217.481 339.67 219.188 341.177 220.181C342.056 220.761 343.112 221.1 344.246 221.1C344.727 221.1 345.194 221.04 345.639 220.925L312.208 372.276C312.208 379.016 306.241 384.204 299.546 383.286L210.395 371.061C204.879 370.305 200.77 365.604 200.77 360.051L234.201 220.925C234.646 221.04 235.113 221.1 235.594 221.1C238.671 221.1 241.166 218.612 241.166 215.544C241.166 212.475 238.671 209.987 235.594 209.987C235.113 209.987 234.646 210.048 234.201 210.162L243.952 178.036C243.952 171.898 248.941 166.923 255.096 166.923H281.562C281.562 174.595 287.799 180.815 295.492 180.815Z" fill="#663DD9"/>
<path d="M282.162 162.775C289.912 162.775 296.195 156.556 296.195 148.885H331.278C337.479 148.885 342.505 153.86 342.505 159.997L336.892 197.677C336.443 197.562 335.973 197.501 335.488 197.501C332.388 197.501 329.875 199.989 329.875 203.058C329.875 204.995 330.878 206.701 332.397 207.694C333.282 208.275 334.345 208.614 335.488 208.614C335.973 208.614 336.443 208.553 336.892 208.439L313.035 372.278C313.035 379.017 307.024 384.205 300.279 383.287L210.467 371.063C204.91 370.307 200.77 365.607 200.77 360.054L224.626 208.439C225.075 208.553 225.545 208.614 226.029 208.614C229.129 208.614 231.643 206.126 231.643 203.058C231.643 199.989 229.129 197.501 226.029 197.501C225.545 197.501 225.075 197.562 224.626 197.677L230.239 159.997C230.239 153.86 235.266 148.885 241.466 148.885H268.129C268.129 156.556 274.412 162.775 282.162 162.775Z" fill="#7346EE"/>
<path d="M272.709 152.58C280.349 152.58 286.543 146.31 286.543 138.576H321.129C327.242 138.576 332.197 143.592 332.197 149.779L325.754 188.11C325.312 187.994 324.849 187.933 324.371 187.933C321.315 187.933 318.837 190.441 318.837 193.534C318.837 195.487 319.826 197.208 321.323 198.209C322.196 198.794 323.244 199.136 324.371 199.136C324.849 199.136 325.312 199.075 325.754 198.959L311.445 372.187C311.445 378.981 305.519 384.211 298.87 383.285L210.329 370.962C204.851 370.2 200.77 365.462 200.77 359.864L215.079 198.959C215.521 199.075 215.984 199.136 216.462 199.136C219.518 199.136 221.996 196.628 221.996 193.534C221.996 190.441 219.518 187.933 216.462 187.933C215.984 187.933 215.521 187.994 215.079 188.11L221.521 149.779C221.521 143.592 226.476 138.576 232.589 138.576H258.874C258.874 146.31 265.068 152.58 272.709 152.58Z" fill="#7E54F1"/>
<path d="M257.157 149.991C264.809 149.991 271.012 143.727 271.012 136H305.649C311.771 136 316.733 141.011 316.733 147.193L313.962 186.543C313.519 186.428 313.055 186.367 312.577 186.367C309.516 186.367 307.035 188.872 307.035 191.963C307.035 193.914 308.025 195.633 309.524 196.633C310.398 197.218 311.448 197.559 312.577 197.559C313.055 197.559 313.519 197.498 313.962 197.383L298.722 372.198C298.722 378.986 292.787 384.211 286.128 383.286L197.457 370.974C191.97 370.213 187.883 365.479 187.883 359.886L203.123 197.383C203.566 197.498 204.03 197.559 204.509 197.559C207.569 197.559 210.051 195.053 210.051 191.963C210.051 188.872 207.569 186.367 204.509 186.367C204.03 186.367 203.566 186.428 203.123 186.543L205.894 147.193C205.894 141.011 210.857 136 216.978 136H243.302C243.302 143.727 249.505 149.991 257.157 149.991Z" fill="#8A62F8"/>
<path d="M239.133 149.991C246.783 149.991 252.984 143.727 252.984 136H287.613C293.733 136 298.694 141.011 298.694 147.193V186.543C298.251 186.428 297.787 186.367 297.309 186.367C294.249 186.367 291.768 188.872 291.768 191.963C291.768 193.914 292.759 195.633 294.257 196.633C295.131 197.218 296.181 197.559 297.309 197.559C297.787 197.559 298.251 197.498 298.694 197.383V372.198C298.694 378.986 292.761 384.211 286.104 383.286L197.454 370.974C191.969 370.213 187.883 365.479 187.883 359.886V197.383C188.326 197.498 188.79 197.559 189.268 197.559C192.328 197.559 194.809 195.053 194.809 191.963C194.809 188.872 192.328 186.367 189.268 186.367C188.79 186.367 188.326 186.428 187.883 186.543V147.193C187.883 141.011 192.844 136 198.964 136H225.282C225.282 143.727 231.483 149.991 239.133 149.991Z" fill="#9B76FF"/>
<path opacity="0.6" d="M224.565 362.058L248.027 354.975L248.032 354.69L224.79 346.9L224.897 339.696L255.476 350.748L255.351 359.122L224.458 369.277L224.565 362.058ZM240.713 309.713C244.065 309.763 246.907 310.441 249.239 311.746C251.572 313.042 253.342 314.789 254.551 316.989C255.749 319.178 256.328 321.629 256.288 324.34C256.247 327.071 255.591 329.514 254.318 331.666C253.045 333.819 251.224 335.508 248.854 336.734C246.484 337.96 243.628 338.548 240.286 338.498C236.934 338.449 234.092 337.776 231.76 336.48C229.427 335.185 227.662 333.442 226.463 331.253C225.255 329.063 224.671 326.603 224.711 323.871C224.752 321.16 225.408 318.728 226.681 316.575C227.944 314.412 229.76 312.718 232.13 311.492C234.5 310.256 237.361 309.663 240.713 309.713ZM240.615 316.302C238.444 316.269 236.608 316.567 235.108 317.196C233.608 317.814 232.464 318.703 231.676 319.862C230.888 321.021 230.483 322.386 230.459 323.957C230.436 325.528 230.801 326.904 231.554 328.086C232.307 329.268 233.424 330.195 234.905 330.868C236.386 331.53 238.213 331.878 240.384 331.91C242.555 331.942 244.391 331.649 245.891 331.031C247.391 330.403 248.535 329.509 249.323 328.35C250.111 327.191 250.517 325.826 250.54 324.255C250.563 322.684 250.198 321.307 249.445 320.125C248.692 318.943 247.575 318.021 246.094 317.359C244.613 316.686 242.787 316.334 240.615 316.302ZM225.698 285.686L225.795 279.188L245.755 279.484C247.996 279.517 249.949 280.082 251.614 281.177C253.28 282.263 254.568 283.768 255.48 285.693C256.383 287.618 256.815 289.851 256.777 292.392C256.739 294.944 256.241 297.168 255.282 299.065C254.313 300.962 252.98 302.428 251.284 303.464C249.587 304.5 247.618 305.001 245.377 304.968L225.417 304.671L225.513 298.173L244.918 298.461C246.089 298.478 247.133 298.239 248.051 297.742C248.969 297.235 249.696 296.515 250.23 295.582C250.764 294.65 251.04 293.558 251.059 292.307C251.078 291.047 250.834 289.947 250.327 289.009C249.821 288.061 249.116 287.325 248.214 286.801C247.311 286.267 246.274 285.992 245.103 285.974L225.698 285.686ZM237.037 246.882L236.94 253.455C236.087 253.563 235.328 253.797 234.662 254.157C233.987 254.517 233.409 254.984 232.93 255.557C232.452 256.131 232.081 256.796 231.82 257.552C231.559 258.299 231.422 259.113 231.408 259.993C231.385 261.584 231.76 262.976 232.532 264.168C233.295 265.36 234.422 266.292 235.913 266.965C237.395 267.638 239.201 267.99 241.332 268.021C243.523 268.054 245.369 267.756 246.869 267.128C248.37 266.489 249.509 265.586 250.287 264.416C251.065 263.247 251.465 261.887 251.488 260.336C251.501 259.466 251.398 258.659 251.179 257.915C250.96 257.161 250.635 256.491 250.203 255.904C249.762 255.317 249.223 254.828 248.589 254.439C247.954 254.039 247.228 253.758 246.41 253.596L246.537 247.023C247.945 247.214 249.3 247.659 250.6 248.359C251.891 249.049 253.043 249.971 254.057 251.127C255.061 252.273 255.851 253.636 256.428 255.216C256.995 256.785 257.264 258.555 257.235 260.526C257.194 263.268 256.537 265.71 255.265 267.853C253.992 269.985 252.171 271.66 249.801 272.875C247.432 274.081 244.576 274.659 241.234 274.61C237.882 274.56 235.04 273.887 232.708 272.592C230.375 271.296 228.61 269.559 227.411 267.379C226.202 265.2 225.618 262.759 225.658 260.058C225.685 258.277 225.959 256.63 226.482 255.116C227.005 253.593 227.756 252.248 228.734 251.082C229.702 249.915 230.882 248.972 232.273 248.252C233.665 247.522 235.253 247.065 237.037 246.882ZM257.082 242.518L226.346 242.062L226.442 235.564L239.124 235.752L239.319 222.56L226.638 222.372L226.734 215.888L257.47 216.344L257.374 222.828L244.677 222.639L244.482 235.831L257.178 236.02L257.082 242.518ZM257.55 210.987L226.814 210.531L227.121 189.82L232.479 189.899L232.268 204.112L239.592 204.22L239.787 191.073L245.145 191.153L244.949 204.3L252.288 204.409L252.5 190.136L257.858 190.216L257.55 210.987ZM257.934 185.109L227.198 184.653L227.377 172.527C227.412 170.206 227.857 168.231 228.711 166.602C229.556 164.963 230.74 163.725 232.264 162.887C233.778 162.039 235.55 161.63 237.581 161.66C239.622 161.69 241.372 162.157 242.829 163.059C244.277 163.961 245.379 165.253 246.134 166.936C246.89 168.608 247.25 170.625 247.215 172.986L247.095 181.106L241.872 181.028L241.977 173.959C241.996 172.719 241.841 171.686 241.513 170.86C241.185 170.035 240.684 169.417 240.009 169.006C239.335 168.586 238.492 168.369 237.482 168.354C236.461 168.338 235.598 168.531 234.891 168.931C234.185 169.32 233.646 169.928 233.273 170.753C232.891 171.568 232.69 172.601 232.672 173.851L232.607 178.234L258.03 178.611L257.934 185.109ZM244.193 168.303L258.293 160.872L258.187 168.045L244.089 175.312L244.193 168.303Z" fill="white"/>
<g opacity="0.2" filter="url(#filter2_f_26325_34964)">
<path d="M291.96 192.326H195" stroke="black" stroke-width="2.57701"/>
</g>
<mask id="mask0_26325_34964" style="mask-type:alpha" maskUnits="userSpaceOnUse" x="144" y="357" width="41" height="25">
<path d="M182.861 377.537C177.524 380.828 147.002 385.577 144.601 377.111C144.371 376.293 144.354 375.463 144.531 374.621C145.33 370.699 150.951 366.402 156.37 363.123C161.791 359.831 167.02 357.544 167.02 357.544L181.231 360.088C181.231 360.088 185.143 368.084 184.852 373.444C184.77 375.209 184.194 376.711 182.859 377.55L182.861 377.537Z" fill="#D9D9D9"/>
</mask>
<g mask="url(#mask0_26325_34964)">
<path d="M188.056 374.422C182.482 377.837 148.506 385.172 144.513 378.088C144.129 377.403 143.985 376.686 144.061 375.937C144.382 372.454 147.726 365.293 153.394 361.88C159.062 358.455 167.065 358.765 167.065 358.765L187.391 361.236C187.391 361.236 189.236 365.989 189.706 370.665C189.877 372.204 189.447 373.566 188.056 374.434L188.056 374.422Z" fill="url(#paint5_linear_26325_34964)"/>
<path d="M185.634 376.792C180.06 380.207 146.084 387.541 142.091 380.458C141.707 379.772 141.612 376.255 141.688 375.506C148.574 376.925 165.804 378.787 187.334 370.234C187.505 371.773 187.025 375.935 185.634 376.804L185.634 376.792Z" fill="#3167D5"/>
</g>
<g opacity="0.5" filter="url(#filter3_f_26325_34964)">
<path d="M197.053 326.083C197.671 331.332 190.455 356.348 183.132 355.174C182.425 355.059 181.785 354.778 181.204 354.343C178.49 352.339 177.204 346.516 176.623 341.209C176.033 335.896 176.143 331.087 176.143 331.087L183.138 321.129C183.138 321.129 190.638 320.981 194.631 323.108C195.952 323.797 196.895 324.771 197.062 326.09L197.053 326.083Z" fill="#333333"/>
</g>
<mask id="mask1_26325_34964" style="mask-type:alpha" maskUnits="userSpaceOnUse" x="171" y="318" width="26" height="42">
<path d="M196.07 324.871C196.803 331.099 188.242 360.777 179.554 359.386C178.714 359.249 177.955 358.915 177.266 358.399C174.046 356.022 172.52 349.113 171.831 342.817C171.131 336.513 171.261 330.807 171.261 330.807L179.56 318.993C179.56 318.993 188.459 318.817 193.197 321.34C194.764 322.159 195.882 323.314 196.081 324.879L196.07 324.871Z" fill="#D9D9D9"/>
</mask>
<g mask="url(#mask1_26325_34964)">
<path d="M195.437 318.847C196.183 325.342 188.511 359.242 180.404 359.877C179.621 359.937 178.91 359.765 178.263 359.38C175.24 357.62 170.156 351.569 169.451 344.991C168.734 338.407 172.39 331.28 172.39 331.28L183.199 313.891C183.199 313.891 188.287 314.222 192.725 315.767C194.193 316.26 195.246 317.225 195.447 318.852L195.437 318.847Z" fill="url(#paint6_linear_26325_34964)"/>
<path d="M196.561 322.043C197.308 328.538 189.636 362.438 181.529 363.073C180.745 363.132 177.516 361.735 176.868 361.351C181.058 355.705 190.01 340.866 191.331 317.737C192.799 318.231 196.371 320.421 196.572 322.048L196.561 322.043Z" fill="#3167D5"/>
</g>
<path d="M155.629 320.015C140.721 316.939 134.875 307.867 130.779 293.909C124.674 302.807 124.142 321.767 126.75 326.593C131.354 335.11 140.306 340.686 155.648 339.899L155.629 320.015Z" fill="url(#paint7_linear_26325_34964)"/>
<path fill-rule="evenodd" clip-rule="evenodd" d="M149.192 241.124L199.08 246.828C206.009 271.137 206.42 281.759 198.192 312.383C196.756 317.726 193.904 321.979 188.722 328.701L181.145 360.705L157.965 361.995L155.648 339.899L155.629 320.015C157.155 319.81 158.702 319.597 160.258 319.383L160.26 319.382C171.767 317.797 183.816 316.137 192.462 317.088L186.162 314.222C173.975 313.054 167.512 315.506 156.4 319.722C156.146 319.819 155.889 319.917 155.629 320.015C140.721 316.939 134.875 307.867 130.779 293.909C130.779 293.909 131.427 289.779 132.352 285.341L149.192 241.124Z" fill="url(#paint8_linear_26325_34964)"/>
<path d="M192.462 317.088L186.162 314.222C173.975 313.054 167.512 315.506 156.4 319.722L155.629 320.015C157.155 319.81 158.702 319.597 160.258 319.383L160.26 319.382C171.767 317.797 183.816 316.137 192.462 317.088Z" fill="#64EDFF"/>
<g opacity="0.6" filter="url(#filter4_f_26325_34964)">
<path d="M155.629 320.015C155.629 320.015 155.643 320.709 155.535 320.897C155.321 321.274 155.285 321.798 154.911 322.365C154.175 323.483 153.141 324.855 152.027 325.676C151.426 326.119 150.603 326.548 149.954 326.858C149.625 327.015 149.331 327.146 149.12 327.237C149.019 327.281 148.794 327.375 148.776 327.383C148.775 327.383 148.775 327.383 148.775 327.383L148.776 327.383L148.775 327.383L148.774 327.383C148.774 327.383 148.775 327.383 148.776 327.383C148.825 327.338 152.301 324.202 153.936 321.723C154.289 321.188 155.424 320.375 155.629 320.015Z" fill="#333333"/>
</g>
<path d="M145.985 289.97C146.02 289.95 145.573 289.882 145.038 289.41C144.76 289.157 144.494 288.761 144.354 288.227C144.308 287.981 144.276 287.681 144.306 287.369C144.356 287.092 144.482 286.75 144.574 286.426C145.352 283.679 146.494 279.753 147.868 274.903C148.214 273.682 148.585 272.409 148.979 271.085C149.163 270.439 149.634 269.903 150.268 269.617C150.591 269.505 150.933 269.427 151.272 269.465C151.618 269.476 151.961 269.602 152.338 269.709C155.194 270.518 158.238 271.381 161.471 272.297C167.91 274.122 174.995 276.13 182.404 278.229C183.293 278.481 183.96 279.311 184.028 280.203C184.102 280.66 183.953 281.084 183.823 281.542C183.696 281.991 183.566 282.449 183.433 282.916C182.924 284.712 182.421 286.49 181.922 288.25C181.423 290.01 180.937 291.726 180.464 293.396C180.224 294.24 179.988 295.075 179.753 295.901C179.639 296.305 179.544 296.744 179.402 297.141C179.268 297.51 179.027 297.849 178.727 298.084C178.113 298.609 177.259 298.745 176.52 298.478C175.73 298.254 174.958 298.035 174.203 297.821C172.672 297.406 171.187 296.995 169.751 296.588C166.895 295.779 164.228 295.023 161.776 294.328C156.919 292.981 152.978 291.893 150.23 291.115C148.883 290.733 147.825 290.462 147.097 290.256C146.738 290.154 146.469 290.078 146.289 290.027C146.158 290.009 146.057 289.99 145.985 289.97C146.057 289.99 146.153 290.027 146.274 290.081C146.453 290.132 146.723 290.208 147.082 290.31C147.809 290.516 148.853 290.841 150.2 291.222C152.948 292.001 156.873 293.143 161.715 294.544C164.167 295.239 166.834 295.995 169.69 296.804C171.126 297.211 172.606 297.64 174.127 298.09C174.881 298.304 175.654 298.523 176.444 298.747C177.237 299.03 178.214 298.87 178.897 298.307C179.239 298.026 179.523 297.64 179.672 297.217C179.794 296.786 179.901 296.409 180.023 295.978C180.257 295.152 180.494 294.316 180.733 293.472C181.206 291.802 181.692 290.087 182.191 288.326C182.69 286.566 183.194 284.788 183.703 282.992C183.835 282.525 183.965 282.067 184.092 281.618C184.214 281.187 184.386 280.683 184.328 280.171C184.237 279.156 183.485 278.215 182.48 277.96C175.072 275.86 167.986 273.852 161.547 272.028C158.307 271.138 155.262 270.276 152.407 269.466C152.057 269.367 151.687 269.233 151.287 269.207C150.914 269.189 150.51 269.278 150.18 269.417C149.484 269.715 148.962 270.324 148.764 271.024C148.387 272.353 148.026 273.629 147.68 274.85C146.332 279.707 145.218 283.64 144.466 286.396C144.374 286.719 144.256 287.035 144.218 287.373C144.188 287.685 144.219 287.985 144.285 288.266C144.425 288.8 144.718 289.203 145.003 289.43C145.281 289.683 145.535 289.813 145.716 289.893C145.841 289.929 145.931 289.955 145.985 289.97Z" fill="#64EDFF"/>
<path d="M174.887 292.725C174.337 292.569 174.017 291.996 174.173 291.446C174.329 290.895 174.902 290.575 175.452 290.731C176.003 290.887 176.323 291.46 176.167 292.01C176.011 292.561 175.438 292.881 174.887 292.725Z" fill="#64EDFF"/>
<path fill-rule="evenodd" clip-rule="evenodd" d="M175 292.329C174.668 292.235 174.475 291.89 174.569 291.558C174.663 291.226 175.008 291.033 175.34 291.127C175.672 291.221 175.865 291.566 175.771 291.898C175.677 292.23 175.332 292.423 175 292.329ZM174.173 291.446C174.017 291.996 174.337 292.569 174.887 292.725C175.438 292.881 176.011 292.561 176.167 292.01C176.323 291.46 176.003 290.887 175.452 290.731C174.902 290.575 174.329 290.895 174.173 291.446Z" fill="#64EDFF"/>
<path d="M171.497 291.761C170.946 291.605 170.626 291.032 170.782 290.482C170.938 289.931 171.511 289.611 172.062 289.767C172.612 289.923 172.932 290.496 172.776 291.047C172.62 291.597 172.047 291.917 171.497 291.761Z" fill="#64EDFF"/>
<path fill-rule="evenodd" clip-rule="evenodd" d="M171.609 291.365C171.277 291.271 171.084 290.926 171.178 290.594C171.272 290.262 171.618 290.069 171.95 290.163C172.281 290.257 172.474 290.603 172.38 290.934C172.286 291.266 171.941 291.459 171.609 291.365ZM170.782 290.482C170.626 291.032 170.946 291.605 171.497 291.761C172.047 291.917 172.62 291.597 172.776 291.047C172.932 290.496 172.612 289.923 172.062 289.767C171.511 289.611 170.938 289.931 170.782 290.482Z" fill="#64EDFF"/>
<path d="M168.212 290.831C167.661 290.675 167.341 290.102 167.497 289.552C167.653 289.001 168.226 288.682 168.777 288.838C169.327 288.994 169.647 289.566 169.491 290.117C169.335 290.667 168.762 290.987 168.212 290.831Z" fill="#64EDFF"/>
<path fill-rule="evenodd" clip-rule="evenodd" d="M168.324 290.435C167.992 290.341 167.799 289.996 167.893 289.664C167.987 289.332 168.333 289.139 168.664 289.233C168.996 289.328 169.189 289.673 169.095 290.005C169.001 290.337 168.656 290.529 168.324 290.435ZM167.497 289.552C167.341 290.102 167.661 290.675 168.212 290.831C168.762 290.987 169.335 290.667 169.491 290.117C169.647 289.566 169.327 288.994 168.777 288.838C168.226 288.682 167.653 289.001 167.497 289.552Z" fill="#64EDFF"/>
<path d="M164.954 289.904C164.403 289.748 164.083 289.175 164.24 288.624C164.396 288.074 164.968 287.754 165.519 287.91C166.069 288.066 166.389 288.639 166.233 289.189C166.077 289.74 165.504 290.06 164.954 289.904Z" fill="#64EDFF"/>
<path fill-rule="evenodd" clip-rule="evenodd" d="M165.066 289.508C164.734 289.414 164.541 289.068 164.635 288.736C164.729 288.405 165.075 288.212 165.407 288.306C165.739 288.4 165.931 288.745 165.837 289.077C165.743 289.409 165.398 289.602 165.066 289.508ZM164.24 288.624C164.083 289.175 164.403 289.748 164.954 289.904C165.504 290.06 166.077 289.74 166.233 289.189C166.389 288.639 166.069 288.066 165.519 287.91C164.968 287.754 164.396 288.074 164.24 288.624Z" fill="#64EDFF"/>
<path d="M167.469 282.736L176.494 285.294C177.141 285.477 177.825 285.118 178.016 284.444C178.199 283.798 177.813 283.106 177.166 282.923L168.141 280.365C167.494 280.182 166.803 280.568 166.62 281.215C166.429 281.888 166.823 282.553 167.469 282.736Z" fill="#64EDFF"/>
<path fill-rule="evenodd" clip-rule="evenodd" d="M176.606 284.898L167.581 282.34C167.147 282.217 166.888 281.776 167.015 281.327C167.137 280.899 167.601 280.64 168.029 280.761L177.054 283.319C177.482 283.44 177.741 283.904 177.62 284.332C177.493 284.781 177.04 285.021 176.606 284.898ZM176.494 285.294L167.469 282.736C166.823 282.553 166.429 281.888 166.62 281.215C166.803 280.568 167.494 280.182 168.141 280.365L177.166 282.923C177.813 283.106 178.199 283.798 178.016 284.444C177.825 285.118 177.141 285.477 176.494 285.294Z" fill="#64EDFF"/>
<path d="M175.774 288.907C175.224 288.751 174.904 288.179 175.06 287.628C175.216 287.078 175.789 286.758 176.339 286.914C176.89 287.07 177.209 287.643 177.053 288.193C176.897 288.744 176.325 289.063 175.774 288.907Z" fill="#64EDFF"/>
<path fill-rule="evenodd" clip-rule="evenodd" d="M175.886 288.512C175.554 288.418 175.362 288.072 175.456 287.74C175.55 287.408 175.895 287.216 176.227 287.31C176.559 287.404 176.752 287.749 176.658 288.081C176.564 288.413 176.218 288.606 175.886 288.512ZM175.06 287.628C174.904 288.179 175.224 288.751 175.774 288.907C176.325 289.063 176.897 288.744 177.053 288.193C177.209 287.643 176.89 287.07 176.339 286.914C175.789 286.758 175.216 287.078 175.06 287.628Z" fill="#64EDFF"/>
<path d="M172.403 287.948C171.853 287.792 171.533 287.22 171.689 286.669C171.845 286.119 172.418 285.799 172.968 285.955C173.519 286.111 173.838 286.684 173.682 287.234C173.526 287.785 172.954 288.104 172.403 287.948Z" fill="#64EDFF"/>
<path fill-rule="evenodd" clip-rule="evenodd" d="M172.515 287.553C172.183 287.459 171.991 287.113 172.085 286.781C172.179 286.449 172.524 286.257 172.856 286.351C173.188 286.445 173.381 286.79 173.287 287.122C173.192 287.454 172.847 287.647 172.515 287.553ZM171.689 286.669C171.533 287.22 171.853 287.792 172.403 287.948C172.954 288.104 173.526 287.785 173.682 287.234C173.838 286.684 173.519 286.111 172.968 285.955C172.418 285.799 171.845 286.119 171.689 286.669Z" fill="#64EDFF"/>
<path d="M169.122 287.021C168.571 286.865 168.251 286.292 168.407 285.741C168.563 285.191 169.136 284.871 169.687 285.027C170.237 285.183 170.557 285.756 170.401 286.306C170.245 286.857 169.672 287.177 169.122 287.021Z" fill="#64EDFF"/>
<path fill-rule="evenodd" clip-rule="evenodd" d="M169.234 286.625C168.902 286.531 168.709 286.185 168.803 285.854C168.897 285.522 169.243 285.329 169.575 285.423C169.906 285.517 170.099 285.862 170.005 286.194C169.911 286.526 169.566 286.719 169.234 286.625ZM168.407 285.741C168.251 286.292 168.571 286.865 169.122 287.021C169.672 287.177 170.245 286.857 170.401 286.306C170.557 285.756 170.237 285.183 169.687 285.027C169.136 284.871 168.563 285.191 168.407 285.741Z" fill="#64EDFF"/>
<path d="M165.829 286.082C165.278 285.926 164.959 285.353 165.115 284.803C165.271 284.252 165.843 283.933 166.394 284.089C166.944 284.245 167.264 284.817 167.108 285.368C166.952 285.918 166.379 286.238 165.829 286.082Z" fill="#64EDFF"/>
<path fill-rule="evenodd" clip-rule="evenodd" d="M165.941 285.686C165.609 285.592 165.416 285.247 165.51 284.915C165.604 284.583 165.95 284.39 166.282 284.484C166.614 284.579 166.806 284.924 166.712 285.256C166.618 285.588 166.273 285.78 165.941 285.686ZM165.115 284.803C164.959 285.353 165.278 285.926 165.829 286.082C166.379 286.238 166.952 285.918 167.108 285.368C167.264 284.817 166.944 284.245 166.394 284.089C165.843 283.933 165.271 284.252 165.115 284.803Z" fill="#64EDFF"/>
<path d="M153.963 275.491L159.459 277.049C159.95 277.188 160.235 277.699 160.096 278.19L158.538 283.686C158.399 284.177 157.888 284.462 157.397 284.323L151.901 282.765C151.41 282.626 151.125 282.115 151.264 281.624L152.822 276.128C152.961 275.637 153.472 275.352 153.963 275.491Z" fill="#64EDFF"/>
<path fill-rule="evenodd" clip-rule="evenodd" d="M153.85 275.887L159.346 277.445C159.619 277.522 159.777 277.805 159.7 278.078L158.142 283.574C158.065 283.846 157.782 284.004 157.509 283.927L152.013 282.37C151.741 282.292 151.583 282.009 151.66 281.737L153.218 276.241C153.295 275.968 153.578 275.81 153.85 275.887ZM159.459 277.049L153.963 275.491C153.472 275.352 152.961 275.637 152.822 276.128L151.264 281.624C151.125 282.115 151.41 282.626 151.901 282.765L157.397 284.323C157.888 284.462 158.399 284.177 158.538 283.686L160.096 278.19C160.235 277.699 159.95 277.188 159.459 277.049Z" fill="#64EDFF"/>
<path d="M150.437 286.087L156.876 287.912C157.442 288.072 158.03 287.744 158.183 287.205C158.343 286.64 158.015 286.052 157.449 285.892L151.01 284.067C150.444 283.906 149.856 284.235 149.696 284.8C149.543 285.339 149.872 285.927 150.437 286.087Z" fill="#64EDFF"/>
<path fill-rule="evenodd" clip-rule="evenodd" d="M156.988 287.516L150.55 285.692C150.196 285.591 150.003 285.226 150.092 284.913C150.19 284.565 150.551 284.364 150.898 284.463L157.337 286.287C157.684 286.386 157.885 286.746 157.787 287.093C157.698 287.407 157.342 287.617 156.988 287.516ZM156.876 287.912L150.437 286.087C149.872 285.927 149.543 285.339 149.696 284.8C149.856 284.235 150.444 283.906 151.01 284.067L157.449 285.892C158.015 286.052 158.343 286.64 158.183 287.205C158.03 287.744 157.442 288.072 156.876 287.912Z" fill="#64EDFF"/>
<path d="M161.78 254.46C154.671 252.809 147.842 258.392 145.131 265.329L147.464 265.199L149.796 265.07C153.051 266.595 156.58 270.515 160.653 275.87C168.78 275.898 171.254 272.625 174.987 265.715C174.876 265.512 174.765 265.306 174.652 265.098C174.651 265.096 174.65 265.094 174.649 265.092C174.648 265.091 174.647 265.09 174.647 265.089L174.646 265.087C173.857 263.633 173.015 262.081 171.957 260.62C169.851 257.713 166.888 255.165 161.78 254.46Z" fill="url(#paint9_linear_26325_34964)"/>
<path d="M149.796 265.069L147.464 265.199C146.946 273.541 147.871 277.663 155.153 282.498C157.869 281.509 160.585 280.388 163.159 279.24C162.301 278.064 161.466 276.939 160.653 275.87C156.58 270.515 153.051 266.595 149.796 265.069Z" fill="url(#paint10_linear_26325_34964)"/>
<path fill-rule="evenodd" clip-rule="evenodd" d="M126.117 270.482C124.417 275.84 127.977 281.402 134.524 284.928C138.823 287.243 146.988 285.471 155.153 282.499C147.87 277.664 146.945 273.542 147.463 265.2L145.131 265.33L141.342 265.541L149.956 241.667C143.914 243.466 132.886 255.484 126.117 270.482ZM187.52 291.337C175.438 289.894 170.555 286.675 163.159 279.241C162.3 278.065 161.466 276.939 160.653 275.871C168.78 275.898 171.254 272.626 174.987 265.715C176.207 267.948 177.355 269.871 179.063 270.752C180.309 271.395 181.896 270.039 183.483 267.874C185.155 265.592 186.828 262.411 188.1 259.722L197.443 243.703C210.044 244.171 210.502 262.901 207.876 268.271C201.899 280.499 193.702 292.075 187.52 291.337Z" fill="url(#paint11_linear_26325_34964)"/>
<g opacity="0.2" filter="url(#filter5_f_26325_34964)">
<path fill-rule="evenodd" clip-rule="evenodd" d="M188.359 259.858L190.467 256.243L189.963 255.948L187.842 259.585L187.836 259.596C186.566 262.281 185.238 265.611 183.583 267.869L183.719 268.046C185.406 265.745 187.085 262.549 188.359 259.858ZM134.686 266.789C137.828 265.444 141.782 265.303 145.115 265.038L145.149 265.622C141.067 265.604 138.789 265.895 134.686 266.789ZM149.854 264.775L149.92 264.806C151.594 265.591 153.318 266.98 155.127 268.831C156.938 270.684 158.847 273.013 160.886 275.695L160.888 275.697L163.381 279.049C167.067 282.752 170.108 285.385 173.718 287.276C177.331 289.168 181.534 290.327 187.555 291.046C189.663 291.298 192.088 290.024 194.649 287.615C197.197 285.218 199.784 281.925 202.274 277.942L203.116 277.31C200.613 281.314 197.649 285.595 195.05 288.04C192.464 290.473 189.867 291.911 187.486 291.626C181.424 290.902 177.145 289.73 173.447 287.794C169.799 285.883 166.736 283.238 163.094 279.589C160.57 280.71 157.912 281.805 155.253 282.773C151.161 284.262 147.058 285.455 143.431 285.985C139.817 286.512 136.621 286.388 134.386 285.185C133.804 284.871 133.245 284.542 132.711 284.197L133.027 283.706C133.548 284.042 134.094 284.364 134.663 284.671C136.727 285.782 139.764 285.93 143.347 285.407C146.919 284.886 150.98 283.707 155.053 282.224C157.645 281.28 160.238 280.215 162.707 279.121L160.421 276.048L160.42 276.047C158.387 273.373 156.495 271.066 154.709 269.239C152.946 267.435 151.3 266.114 149.739 265.366L147.465 265.2L149.854 264.775Z" fill="#333333"/>
</g>
<path d="M133.459 209.52C132.372 213.727 133.722 218.194 136.955 221.093C136.249 214.145 137.976 207.478 142.136 201.092C137.897 202.059 134.552 205.309 133.459 209.52Z" fill="white"/>
<path fill-rule="evenodd" clip-rule="evenodd" d="M136.663 221.989C136.894 222.059 137.141 222.042 137.363 221.931C137.712 221.751 137.914 221.382 137.875 220.994C137.191 214.294 138.882 207.77 142.904 201.603C143.114 201.28 143.105 200.863 142.889 200.546C142.666 200.232 142.276 200.082 141.903 200.164C137.3 201.215 133.71 204.708 132.525 209.278C131.341 213.848 132.791 218.64 136.304 221.79C136.409 221.886 136.535 221.951 136.663 221.989ZM139.945 202.852C137.159 207.855 135.787 213.067 135.841 218.412C134.143 215.909 133.571 212.772 134.354 209.752C135.143 206.696 137.201 204.209 139.945 202.852Z" fill="#64EDFF"/>
<path d="M189.927 178.598C169.804 172.553 148.591 183.962 142.547 204.085C136.504 224.203 147.917 245.418 168.04 251.462C188.158 257.505 209.373 246.091 215.416 225.973C221.46 205.85 210.045 184.641 189.927 178.598Z" fill="white"/>
<path d="M189.409 179.033C169.015 172.907 148.312 182.852 141.366 202.328L140.76 203.113C139.269 205.249 139.696 204.239 137.882 210.279C136.067 216.32 137.2 229.198 144.353 237.004L145.143 238.041C168.832 263.222 206.259 259.106 215.682 227.734C221.892 207.059 209.803 185.159 189.409 179.033Z" fill="white"/>
<path fill-rule="evenodd" clip-rule="evenodd" d="M167.793 253.474C175.149 255.684 182.672 255.983 189.638 254.342C202.658 251.269 212.481 241.671 216.585 228.008C219.652 217.799 218.504 206.957 213.353 197.476C208.23 188.046 199.824 181.175 189.684 178.129C168.782 171.851 147.678 182.057 140.527 201.874L140.015 202.542C140.004 202.554 139.996 202.565 139.988 202.577C139.829 202.804 139.698 202.99 139.578 203.158C138.622 204.498 138.582 204.631 137.569 208.039C137.402 208.596 137.206 209.246 136.977 210.01C135.05 216.425 136.294 229.578 143.631 237.611L144.388 238.612C144.409 238.64 144.431 238.666 144.456 238.691C150.759 245.392 158.372 250.36 166.459 253.052C166.903 253.196 167.347 253.337 167.793 253.474ZM189.14 179.937C209.327 186.001 220.827 207.322 214.777 227.465C210.871 240.468 201.55 249.594 189.207 252.504C174.499 255.972 157.893 250.2 145.865 237.433L145.106 236.437C145.091 236.415 145.073 236.393 145.05 236.372C138.254 228.953 137.03 216.397 138.785 210.553C139.015 209.789 139.211 209.134 139.379 208.577C140.341 205.337 140.341 205.337 141.113 204.253C141.233 204.085 141.369 203.9 141.522 203.677L142.114 202.904C142.175 202.826 142.223 202.738 142.256 202.646C149.01 183.703 169.17 173.939 189.14 179.937Z" fill="#64EDFF"/>
<path d="M181.468 192.364C162.114 186.551 142.554 194.707 137.786 210.582C133.018 226.453 144.846 244.037 164.2 249.851C183.56 255.666 203.114 247.508 207.881 231.637C212.65 215.762 200.827 198.179 181.468 192.364Z" fill="#00A4FF"/>
<path fill-rule="evenodd" clip-rule="evenodd" d="M163.968 250.607C183.711 256.537 203.745 248.126 208.629 231.866C213.514 215.601 201.43 197.548 181.687 191.617C161.948 185.688 141.911 194.093 137.026 210.358C132.142 226.618 144.229 244.678 163.968 250.607ZM181.235 193.12C200.146 198.8 211.758 215.976 207.121 231.413C202.486 246.845 183.331 254.779 164.421 249.099C145.51 243.418 133.898 226.243 138.533 210.811C143.17 195.374 162.324 187.44 181.235 193.12Z" fill="#64EDFF"/>
<path d="M165.219 246.442C148.241 241.343 137.757 226.291 141.802 212.823C145.847 199.356 162.89 192.573 179.868 197.672C196.846 202.772 207.33 217.824 203.285 231.291C199.239 244.759 182.197 251.542 165.219 246.442Z" fill="#6C6C6C"/>
<path fill-rule="evenodd" clip-rule="evenodd" d="M164.949 247.344C182.401 252.586 200.004 245.507 204.192 231.563C208.381 217.619 197.594 202.008 180.141 196.765C162.689 191.523 145.085 198.606 140.896 212.551C136.708 226.495 147.496 242.101 164.949 247.344ZM179.598 198.574C196.05 203.515 206.273 218.071 202.384 231.02C198.496 243.964 181.944 250.477 165.492 245.535C149.04 240.594 138.817 226.038 142.705 213.094C146.594 200.145 163.146 193.632 179.598 198.574Z" fill="#6C6C6C"/>
<path d="M142.21 210.564C142.032 211.515 141.907 212.487 141.835 213.475C141.606 216.635 141.954 219.715 142.785 222.619C142.21 223.209 141.706 223.831 141.278 224.47C143.841 234.072 152.659 242.807 164.795 246.452C166.958 247.102 169.121 247.553 171.257 247.829C186.669 248.188 199.211 242.055 199.823 233.526C200 231.113 199.2 228.751 197.616 226.567C198.858 223.808 199.64 220.814 199.865 217.648C199.996 215.856 199.94 214.093 199.715 212.371C195.555 205.835 188.402 200.373 179.444 197.682C163.445 192.876 147.393 198.621 142.21 210.564Z" fill="#B0401E"/>
<path fill-rule="evenodd" clip-rule="evenodd" d="M164.566 247.199C166.729 247.849 168.944 248.326 171.153 248.608C171.18 248.613 171.209 248.614 171.238 248.612C187.337 248.989 199.963 242.527 200.609 233.578C200.781 231.164 200.076 228.771 198.51 226.474C199.707 223.686 200.426 220.738 200.645 217.704C200.776 215.89 200.723 214.064 200.493 212.271C200.475 212.153 200.438 212.045 200.375 211.95C195.975 205.031 188.428 199.557 179.667 196.926C171.803 194.564 163.582 194.624 156.506 197.097C149.428 199.575 144.088 204.245 141.484 210.248C141.46 210.305 141.443 210.362 141.433 210.42C141.249 211.407 141.118 212.415 141.049 213.415C140.83 216.449 141.116 219.468 141.905 222.402C141.42 222.927 140.992 223.476 140.62 224.035C140.493 224.223 140.456 224.454 140.513 224.675C141.831 229.605 144.729 234.3 148.901 238.26C153.168 242.314 158.584 245.402 164.566 247.199ZM171.311 247.044C169.202 246.77 167.082 246.316 165.018 245.696C153.581 242.261 144.845 234.2 142.126 224.617C142.481 224.116 142.89 223.632 143.347 223.163C143.542 222.963 143.614 222.668 143.535 222.397C142.709 219.511 142.402 216.529 142.616 213.526C142.68 212.616 142.801 211.696 142.959 210.793C148.111 199.077 163.673 193.766 179.214 198.434C187.556 200.939 194.737 206.11 198.952 212.646C199.154 214.28 199.197 215.943 199.077 217.593C198.859 220.59 198.13 223.502 196.893 226.241C196.779 226.497 196.812 226.797 196.975 227.023C198.502 229.131 199.195 231.295 199.037 233.466C198.463 241.421 186.289 247.38 171.311 247.044Z" fill="#6C6C6C"/>
<path d="M181.494 201.058C177.803 200.792 174.355 202.061 171.769 204.32C169.534 201.585 166.222 199.736 162.419 199.464C152.407 198.746 142.689 210.292 150.174 219.798C147.34 218.791 145.017 220.597 142.791 222.625C142.216 223.215 141.712 223.837 141.283 224.477C143.847 234.078 152.665 242.813 164.801 246.458C166.964 247.108 169.127 247.559 171.263 247.835C186.675 248.194 199.217 242.061 199.829 233.532C200.006 231.119 199.206 228.757 197.622 226.573C195.478 224.661 192.784 223.848 189.539 224.134C191.952 221.915 193.555 218.814 193.809 215.286C194.34 207.957 188.825 201.584 181.494 201.058Z" fill="#FFCAA1"/>
<path d="M141.37 212.842C140.229 216.641 140.243 220.566 141.235 224.361C141.647 223.76 142.128 223.179 142.667 222.616C141.835 219.718 141.492 216.639 141.723 213.474C141.779 212.642 141.882 211.819 142.014 211.004C141.774 211.604 141.558 212.216 141.37 212.842Z" fill="#FFCAA1"/>
<path fill-rule="evenodd" clip-rule="evenodd" d="M141.008 225.109C141.037 225.118 141.067 225.125 141.098 225.131C141.404 225.185 141.711 225.057 141.884 224.803C142.267 224.242 142.718 223.689 143.231 223.161C143.427 222.957 143.503 222.668 143.423 222.397C142.598 219.511 142.285 216.528 142.505 213.526C142.561 212.732 142.657 211.928 142.789 211.13C142.856 210.731 142.616 210.347 142.229 210.242C141.842 210.136 141.439 210.332 141.284 210.705C141.03 211.337 140.806 211.974 140.615 212.609C139.458 216.463 139.411 220.483 140.475 224.557C140.545 224.825 140.746 225.031 141.008 225.109ZM141.791 222.395C141.741 222.452 141.69 222.509 141.638 222.564C141.512 221.886 141.42 221.21 141.361 220.536C141.481 221.16 141.625 221.78 141.791 222.395Z" fill="#6C6C6C"/>
<path d="M141.019 223.43C141.489 223.351 141.927 223.198 142.331 222.981C142.444 222.854 142.555 222.737 142.673 222.611C141.991 220.231 141.638 217.723 141.658 215.151C141.404 215.069 141.133 215.004 140.859 214.97C140.331 217.782 140.413 220.638 141.019 223.43Z" fill="#FF9999"/>
<path fill-rule="evenodd" clip-rule="evenodd" d="M140.79 224.191C140.903 224.225 141.024 224.235 141.148 224.213C141.692 224.118 142.218 223.943 142.706 223.676C142.783 223.635 142.848 223.579 142.91 223.517C143.015 223.398 143.126 223.281 143.236 223.164C143.43 222.964 143.501 222.674 143.427 222.405C142.754 220.048 142.422 217.612 142.443 215.163C142.444 214.82 142.223 214.517 141.901 214.41C141.587 214.31 141.271 214.237 140.956 214.196C140.542 214.141 140.158 214.418 140.083 214.83C139.545 217.693 139.604 220.644 140.251 223.605C140.315 223.893 140.528 224.113 140.79 224.191ZM141.785 222.379C141.731 222.406 141.676 222.431 141.623 222.454C141.513 221.83 141.429 221.208 141.372 220.59C141.492 221.191 141.63 221.788 141.785 222.379Z" fill="#6C6C6C"/>
<path d="M169.109 227.33C169.041 228.832 168.976 229.834 168.818 231.975C168.792 232.348 169.03 232.683 169.375 232.786C169.431 232.803 169.487 232.813 169.543 232.815C169.979 232.85 170.357 232.523 170.389 232.092C170.555 229.827 170.616 228.827 170.688 227.177C171.343 226.678 172.226 226.581 172.989 226.949C173.379 227.136 173.848 226.97 174.04 226.582C174.227 226.193 174.063 225.719 173.673 225.532C172.414 224.927 170.973 225.059 169.87 225.828C168.886 224.932 167.468 224.594 166.17 225.003C165.754 225.136 165.525 225.578 165.653 225.992C165.787 226.403 166.227 226.637 166.643 226.505C167.552 226.218 168.559 226.557 169.109 227.33Z" fill="#6C6C6C"/>
<g opacity="0.3">
<g opacity="0.3">
<path opacity="0.3" d="M191.213 229.816C189.426 233.136 185.211 235.292 181.52 237.262C188.242 236.427 192.03 234.501 192.882 231.483C193.403 229.427 193.826 229.199 191.213 229.816Z" fill="#6C6C6C"/>
</g>
</g>
<path d="M156.85 228.136C155.166 227.105 153.524 227.709 154.386 230.383C158.086 241.86 179.08 243.826 184.845 233.231C186.186 230.765 184.687 229.867 182.839 230.57C174.759 233.641 164.222 232.654 156.85 228.136Z" fill="white"/>
<path fill-rule="evenodd" clip-rule="evenodd" d="M164.006 239.521C165.505 240.006 167.113 240.336 168.8 240.495C176.02 241.169 182.432 238.43 185.165 233.507C185.203 233.459 185.231 233.406 185.25 233.35C186.12 231.705 185.718 230.844 185.393 230.472C184.855 229.856 183.818 229.741 182.688 230.17C174.671 233.215 164.375 232.252 157.064 227.771C156.036 227.138 154.994 227.061 154.352 227.569C153.96 227.875 153.392 228.668 153.98 230.504C155.316 234.64 159.054 237.916 164.006 239.521ZM168.877 239.656C175.096 240.239 180.664 238.201 183.581 234.394C182.779 234.752 181.95 235.028 181.117 235.252C179.767 235.611 178.399 235.837 177.028 235.996C176.896 236.011 176.777 235.922 176.751 235.791C176.726 235.656 176.816 235.522 176.954 235.498C178.292 235.252 179.616 234.94 180.892 234.507C182.161 234.072 183.387 233.514 184.442 232.756L184.447 232.754L184.475 232.734C184.531 232.7 184.59 232.678 184.651 232.666C184.987 231.923 185.031 231.336 184.761 231.026C184.677 230.93 184.559 230.859 184.418 230.814C184.061 230.698 183.544 230.744 182.987 230.954C174.739 234.087 164.145 233.096 156.626 228.486C155.913 228.053 155.227 227.95 154.872 228.229C154.547 228.485 154.481 229.074 154.677 229.87C154.75 229.897 154.818 229.94 154.876 230L154.88 230.001C155.793 230.945 156.915 231.724 158.1 232.386C159.288 233.05 160.552 233.604 161.838 234.097C161.951 234.14 162.01 234.261 161.976 234.376C161.94 234.498 161.813 234.566 161.691 234.53C160.357 234.127 159.033 233.658 157.755 233.06C156.945 232.68 156.147 232.247 155.393 231.732C157.545 236.028 162.648 239.075 168.877 239.656Z" fill="#6C6C6C"/>
<path fill-rule="evenodd" clip-rule="evenodd" d="M171.154 248.609C168.945 248.327 166.73 247.849 164.567 247.2C158.585 245.403 153.169 242.315 148.902 238.261C144.73 234.301 141.832 229.606 140.514 224.676C140.457 224.455 140.494 224.224 140.621 224.036C140.993 223.477 141.421 222.928 141.906 222.403C141.117 219.469 140.831 216.45 141.049 213.416C141.119 212.416 141.25 211.408 141.433 210.421C141.444 210.363 141.461 210.306 141.485 210.249C144.089 204.246 149.429 199.576 156.507 197.098C163.583 194.625 171.804 194.565 179.668 196.927C188.429 199.558 195.975 205.032 200.376 211.951C200.439 212.045 200.476 212.153 200.494 212.272C200.724 214.065 200.777 215.891 200.646 217.705C200.427 220.739 199.708 223.687 198.511 226.475C200.077 228.772 200.782 231.165 200.61 233.579C199.963 242.528 187.338 248.99 171.239 248.613C171.21 248.615 171.181 248.613 171.154 248.609ZM165.018 245.697C167.083 246.317 169.203 246.771 171.312 247.045C186.29 247.381 198.464 241.422 199.038 233.466C199.196 231.295 198.503 229.132 196.976 227.024C196.917 226.942 196.875 226.85 196.851 226.754C194.886 225.159 192.504 224.506 189.582 224.76C189.278 224.787 188.982 224.574 188.911 224.274C188.864 224.055 188.934 223.824 189.103 223.671C191.492 221.477 192.939 218.484 193.171 215.245C193.675 208.273 188.406 202.189 181.434 201.685C178.032 201.441 174.745 202.549 172.173 204.796C172.048 204.909 171.876 204.964 171.709 204.946C171.536 204.932 171.378 204.852 171.273 204.719C169.041 201.991 165.876 200.347 162.364 200.093C157.642 199.754 152.82 202.646 150.358 207.284C148.005 211.718 148.429 216.691 151.493 220.582C151.663 220.805 151.672 221.113 151.508 221.338C151.342 221.568 151.047 221.656 150.784 221.567C148.31 220.686 145.574 221.159 143.547 222.798C143.515 222.934 143.448 223.061 143.348 223.163C142.89 223.633 142.482 224.117 142.127 224.618C144.846 234.201 153.582 242.262 165.018 245.697ZM197.232 225.459C198.264 222.95 198.881 220.307 199.078 217.594C199.198 215.943 199.155 214.281 198.953 212.647C194.738 206.111 187.557 200.94 179.215 198.434C163.674 193.766 148.112 199.078 142.96 210.794C142.801 211.697 142.681 212.617 142.617 213.527C142.427 216.194 142.648 218.845 143.278 221.426C145.108 220.159 147.342 219.641 149.531 219.96C147.057 215.913 146.928 211.067 149.246 206.692C151.935 201.623 157.245 198.464 162.455 198.842C166.104 199.105 169.41 200.726 171.833 203.442C174.578 201.242 177.997 200.179 181.525 200.433C189.192 200.985 194.978 207.671 194.427 215.337C194.206 218.36 193.028 221.191 191.065 223.454C193.416 223.51 195.483 224.179 197.232 225.459Z" fill="#6C6C6C"/>
<path d="M217.017 214.793C212.908 214.166 208.981 217.547 208.247 222.349C207.514 227.152 210.248 231.551 214.357 232.178C218.465 232.81 222.394 229.424 223.127 224.622C223.86 219.819 221.121 215.419 217.017 214.793Z" fill="white"/>
<path fill-rule="evenodd" clip-rule="evenodd" d="M213.186 232.9C213.521 233.001 213.866 233.077 214.219 233.13C216.478 233.475 218.756 232.779 220.625 231.17C222.451 229.597 223.671 227.325 224.058 224.783C224.874 219.473 221.772 214.583 217.161 213.874C212.543 213.17 208.126 216.914 207.315 222.225C206.927 224.767 207.413 227.298 208.684 229.345C209.785 231.116 211.358 232.351 213.186 232.9ZM217.634 215.913C220.792 216.861 222.801 220.527 222.194 224.497C221.875 226.598 220.881 228.459 219.394 229.742C217.947 230.983 216.21 231.525 214.5 231.264C212.794 231.004 211.295 229.968 210.288 228.35C209.253 226.68 208.861 224.607 209.18 222.506C209.837 218.228 213.289 215.193 216.875 215.738C217.134 215.781 217.387 215.839 217.634 215.913Z" fill="#64EDFF"/>
<path d="M217.563 231.886C220.343 230.911 222.594 228.155 223.135 224.637C223.74 220.656 221.962 216.953 218.999 215.445C218.841 215.397 218.674 215.363 218.504 215.339C215.232 214.84 212.019 218.151 211.314 222.736C210.614 227.317 212.696 231.44 215.968 231.939C216.506 232.025 217.039 232.003 217.563 231.886Z" fill="white"/>
<path fill-rule="evenodd" clip-rule="evenodd" d="M215.117 232.56C215.35 232.63 215.587 232.683 215.826 232.719C216.448 232.814 217.082 232.795 217.709 232.656C217.74 232.651 217.771 232.642 217.803 232.631C220.937 231.531 223.327 228.44 223.89 224.758C224.531 220.551 222.663 216.433 219.336 214.741C219.288 214.719 219.238 214.701 219.186 214.685C218.987 214.631 218.791 214.588 218.601 214.558C214.912 213.998 211.287 217.609 210.519 222.616C210.154 224.993 210.48 227.342 211.43 229.223C212.295 230.939 213.589 232.101 215.117 232.56ZM217.33 231.129C216.906 231.217 216.478 231.228 216.068 231.164C214.743 230.96 213.597 230.019 212.834 228.517C212.03 226.921 211.758 224.911 212.075 222.852C212.709 218.702 215.529 215.682 218.364 216.114C218.474 216.133 218.583 216.155 218.694 216.181C221.379 217.595 222.873 221.009 222.334 224.521C221.86 227.618 219.902 230.204 217.33 231.129Z" fill="#64EDFF"/>
<path d="M195.319 188.364C193.128 191.794 194.758 192.842 198.562 191.266C201.371 190.106 204.305 189.994 207.061 190.118C210.306 188.063 208.249 183.572 203.134 184.039C200.606 184.123 197.407 185.096 195.319 188.364Z" fill="white"/>
<path fill-rule="evenodd" clip-rule="evenodd" d="M194.828 192.801C195.783 193.088 197.155 192.867 198.924 192.13C201.696 190.986 204.572 190.942 207.02 191.054C207.212 191.058 207.404 191.008 207.569 190.907C209.241 189.847 209.946 188.055 209.363 186.348C208.736 184.5 206.546 182.779 203.074 183.089C200.957 183.163 197.056 183.882 194.521 187.848C193.292 189.778 193.06 191.228 193.842 192.167C194.098 192.469 194.427 192.681 194.828 192.801ZM206.786 189.152C204.332 189.059 201.201 189.145 198.201 190.387C196.195 191.219 195.393 191.043 195.287 190.951C195.291 190.953 195.11 190.431 196.113 188.863C198.191 185.609 201.421 185.032 203.163 184.975C203.181 184.973 203.199 184.972 203.218 184.97C205.687 184.745 207.183 185.807 207.579 186.957C207.854 187.775 207.57 188.56 206.786 189.152Z" fill="#64EDFF"/>
<path d="M153.802 184.734C153.432 185.574 153.969 186.557 154.789 186.975C155.603 187.397 156.724 187.277 157.183 186.48C159.065 183.221 162.55 180.523 166.12 179.243C162.73 175.775 158.135 174.782 153.802 184.734Z" fill="white"/>
<path fill-rule="evenodd" clip-rule="evenodd" d="M154.88 188.001C155.999 188.337 157.376 188.063 158.026 186.937C159.729 183.983 162.965 181.367 166.461 180.118C166.762 180.01 166.989 179.755 167.062 179.439C167.134 179.128 167.045 178.8 166.818 178.571C164.736 176.436 162.611 175.551 160.509 175.934C157.705 176.451 155.164 179.276 152.956 184.339C152.414 185.589 153.037 187.109 154.378 187.796C154.535 187.881 154.708 187.949 154.88 188.001ZM164.397 178.923C161.059 180.467 158.073 183.078 156.391 185.994C156.211 186.306 155.628 186.318 155.241 186.122C154.855 185.92 154.537 185.443 154.689 185.096C156.599 180.706 158.733 178.178 160.848 177.793C161.974 177.583 163.164 177.967 164.397 178.923Z" fill="#64EDFF"/>
<g opacity="0.3">
<g opacity="0.3">
<path opacity="0.3" d="M219.811 224.407C219.39 227.74 217.35 230.652 214.362 232.193C218.758 232.401 222.58 229.193 223.134 224.825C223.688 220.458 220.793 216.398 216.481 215.5C218.989 217.736 220.233 221.069 219.811 224.407Z" fill="#6C6C6C"/>
</g>
</g>
<g opacity="0.3">
<g opacity="0.3">
<path opacity="0.3" d="M157.794 187.093C160.515 184.698 164.092 182.854 168.524 181.56C170.908 178.773 170.105 177.995 166.11 179.223C163.654 179.603 160.879 182.223 157.794 187.093Z" fill="#6C6C6C"/>
</g>
</g>
<g opacity="0.3">
<g opacity="0.3">
<path opacity="0.3" d="M208.181 186.022C207.462 184.769 205.91 184.265 204.593 184.858C205.446 184.738 206.253 185.27 206.476 186.1C206.693 186.934 206.324 188.074 205.467 188.118C201.934 188.308 198.434 189.035 194.972 191.116C196.377 191.699 200.509 191.229 207.37 189.705C208.55 188.872 208.901 187.274 208.181 186.022Z" fill="#6C6C6C"/>
</g>
</g>
<g opacity="0.3">
<g opacity="0.3">
<path opacity="0.3" d="M164.411 178.104C159.081 180.277 156.174 183.191 155.689 186.845C158.503 184.02 161.609 181.586 165.005 179.544C165.094 179.567 164.897 179.087 164.411 178.104Z" fill="#6C6C6C"/>
</g>
</g>
<path fill-rule="evenodd" clip-rule="evenodd" d="M165.291 246.535C182.575 251.727 200.005 244.741 204.143 230.965C208.281 217.188 197.586 201.754 180.301 196.563C163.016 191.371 145.587 198.356 141.449 212.133C137.31 225.909 148.006 241.343 165.291 246.535ZM179.94 197.765C196.56 202.757 206.874 217.491 202.936 230.602C198.998 243.714 182.273 250.32 165.653 245.328C149.034 240.336 138.717 225.607 142.656 212.495C146.594 199.384 163.32 192.773 179.94 197.765Z" fill="#6C6C6C"/>
<path d="M156.258 216.792C156.429 219.852 158.169 222.126 160.147 221.871C162.12 221.615 163.588 218.93 163.416 215.87C163.245 212.81 161.505 210.536 159.527 210.791C157.549 211.046 156.086 213.733 156.258 216.792Z" fill="#6C6C6C"/>
<path d="M157.894 213.44C157.565 214.448 157.801 215.486 158.418 215.757C159.036 216.023 159.802 215.421 160.133 214.408C160.458 213.399 160.223 212.356 159.605 212.09C158.987 211.824 158.22 212.426 157.894 213.44Z" fill="white"/>
<path d="M160.506 219.088C160.238 219.566 160.254 220.14 160.539 220.371C160.831 220.598 161.284 220.396 161.551 219.918C161.818 219.439 161.803 218.865 161.513 218.633C161.226 218.407 160.773 218.61 160.506 219.088Z" fill="white"/>
<path d="M181.791 213.033C179.921 212.552 177.983 214.532 177.462 217.448C176.934 220.368 178.026 223.118 179.892 223.593C181.757 224.073 183.7 222.094 184.221 219.178C184.744 216.257 183.657 213.508 181.791 213.033Z" fill="#6C6C6C"/>
<path d="M181.563 214.213C180.939 214.396 180.589 215.365 180.785 216.375C180.981 217.385 181.644 218.057 182.27 217.869C182.895 217.685 183.245 216.716 183.049 215.707C182.852 214.697 182.188 214.03 181.563 214.213Z" fill="white"/>
<path d="M178.96 220.305C178.651 220.492 178.567 221.041 178.769 221.531C178.971 222.022 179.378 222.273 179.687 222.087C179.991 221.898 180.075 221.349 179.873 220.859C179.671 220.368 179.262 220.122 178.96 220.305Z" fill="white"/>
<g opacity="0.2">
<g opacity="0.2">
<g opacity="0.2">
<path opacity="0.2" d="M198.874 223.173C199.395 221.402 199.734 219.559 199.872 217.65C200.002 215.858 199.946 214.095 199.722 212.373C195.561 205.837 188.408 200.374 179.451 197.684C163.452 192.878 147.4 198.623 142.217 210.565C142.039 211.516 141.913 212.489 141.842 213.477C141.837 213.529 141.838 213.578 141.833 213.63C147.461 202.369 163.057 197.073 178.602 201.742C187.56 204.433 194.713 209.896 198.873 216.432C199.098 218.154 199.154 219.916 199.023 221.709C198.988 222.203 198.934 222.687 198.874 223.173Z" fill="#6C6C6C"/>
</g>
</g>
<g opacity="0.2">
<g opacity="0.2">
<path opacity="0.2" d="M141.383 224.323C141.347 224.371 141.311 224.419 141.28 224.469C141.437 225.057 141.616 225.641 141.818 226.221C141.651 225.596 141.503 224.961 141.383 224.323Z" fill="#6C6C6C"/>
</g>
</g>
</g>
<path fill-rule="evenodd" clip-rule="evenodd" d="M186.166 169.701C186.785 172.814 186.143 175.836 185.354 177.694L183.656 176.973C184.331 175.385 184.89 172.742 184.357 170.061C183.833 167.428 182.251 164.714 178.543 162.866L179.366 161.215C183.612 163.331 185.537 166.54 186.166 169.701Z" fill="#64EDFF"/>
<path d="M182.583 162.824C182.076 164.511 180.298 165.468 178.61 164.962C176.923 164.455 175.966 162.676 176.473 160.989C176.98 159.301 178.758 158.344 180.446 158.851C182.133 159.358 183.09 161.137 182.583 162.824Z" fill="#64EDFF"/>
<path fill-rule="evenodd" clip-rule="evenodd" d="M194.373 166.55C194.374 166.549 194.37 166.557 194.36 166.574C194.367 166.558 194.372 166.55 194.373 166.55ZM193.82 167.124C193.407 167.033 192.856 166.964 192.162 166.937C190.153 166.86 187.365 167.157 184.306 167.89C181.247 168.622 178.626 169.619 176.87 170.597C176.263 170.935 175.804 171.247 175.476 171.515C175.889 171.605 176.44 171.675 177.134 171.701C179.143 171.779 181.931 171.481 184.99 170.749C188.05 170.017 190.67 169.02 192.426 168.041C193.033 167.703 193.493 167.391 193.82 167.124ZM174.723 171.253C174.724 171.252 174.732 171.258 174.745 171.269C174.729 171.259 174.723 171.253 174.723 171.253ZM174.924 172.089C174.923 172.089 174.926 172.081 174.936 172.064C174.929 172.08 174.924 172.089 174.924 172.089ZM194.551 167.37C194.567 167.38 194.574 167.385 194.573 167.386C194.572 167.386 194.564 167.381 194.551 167.37ZM185.42 172.543C191.77 171.023 196.572 168.347 196.146 166.567C195.72 164.787 190.226 164.576 183.877 166.096C177.527 167.616 172.724 170.291 173.15 172.071C173.577 173.852 179.07 174.063 185.42 172.543Z" fill="#64EDFF"/>
<g opacity="0.3" filter="url(#filter6_f_26325_34964)">
<path fill-rule="evenodd" clip-rule="evenodd" d="M176.61 268.915C175.943 268.027 175.301 266.849 174.691 265.732L174.983 265.716C175.593 266.833 176.438 267.713 177.077 268.565C177.715 269.415 178.398 270.079 179.199 270.492C179.74 270.771 180.75 270.858 181.624 270.491C182.053 270.311 182.44 270.025 182.721 269.608C183.002 269.192 183.288 268.641 183.292 267.886L183.859 267.562C183.855 268.416 183.56 269.41 183.205 269.935C182.851 270.46 182.368 270.812 181.85 271.03C180.828 271.458 179.636 271.375 178.931 271.011C178.023 270.543 177.278 269.805 176.61 268.915Z" fill="black"/>
</g>
<path d="M179.064 270.751C180.31 271.394 183.47 271.092 183.484 267.873C183.192 262.626 178.224 261.165 171.957 260.619C173.016 262.081 173.858 263.633 174.646 265.087L174.647 265.088L174.649 265.092L174.653 265.098C174.765 265.306 174.877 265.511 174.988 265.714C176.208 267.947 177.355 269.87 179.064 270.751Z" fill="url(#paint12_linear_26325_34964)"/>
<path fill-rule="evenodd" clip-rule="evenodd" d="M101.152 399.989L308.601 428.336C297.457 392.606 288.391 377.021 272.523 376.384C267.992 376.202 262.907 377.239 257.06 379.373L28.9961 347.161C71.0831 353.806 85.9733 366.288 101.152 399.989Z" fill="url(#paint13_linear_26325_34964)"/>
<path d="M28.9961 347.161L257.06 379.373C262.907 377.239 267.992 376.202 272.523 376.384L28.9961 347.161Z" fill="#FFD396"/>
<path d="M95.9611 20.424C97.4965 21.8705 99.9416 20.8997 100.799 22.8272C101.72 24.8992 97.8966 26.2645 98.8803 28.3077C100.038 30.7119 103.733 27.3971 105.647 29.2565C107.364 30.9254 105.34 33.6002 107.111 35.2115C108.601 36.5662 110.585 35.1689 112.107 36.4869C114.233 38.328 111.226 41.8016 113.414 43.5696C115.143 44.9673 119.052 44.3603 119.052 44.3603" stroke="#65748B" stroke-width="4.83136" stroke-linecap="round"/>
<path d="M415.565 52.697C414.367 54.433 411.772 53.9958 411.338 56.06C410.871 58.279 414.896 58.8134 414.362 61.0173C413.733 63.6105 409.426 61.1431 407.944 63.3621C406.614 65.3536 409.154 67.5451 407.759 69.4917C406.586 71.1283 404.353 70.1775 403.141 71.7851C401.447 74.0306 405.115 76.7974 403.347 78.9843C401.948 80.7132 397.999 80.9383 397.999 80.9383" stroke="#ECA62C" stroke-width="4.83136" stroke-linecap="round"/>
<path d="M446.89 289.944C445.128 291.103 442.888 289.723 441.709 291.473C440.443 293.354 443.972 295.361 442.649 297.203C441.092 299.37 438.028 295.465 435.821 296.965C433.84 298.31 435.37 301.296 433.346 302.575C431.644 303.651 429.932 301.931 428.205 302.966C425.791 304.41 428.151 308.353 425.69 309.715C423.745 310.791 420 309.516 420 309.516" stroke="#DE5D62" stroke-width="4.83136" stroke-linecap="round"/>
<path d="M410.578 135L390.999 163.558" stroke="#75CA98" stroke-width="4.83136" stroke-linecap="round"/>
<path d="M75 93L80.2211 96.7733" stroke="#FC65C5" stroke-width="4.83136" stroke-linecap="round"/>
<path d="M433.68 229L430 234.288" stroke="#65748B" stroke-width="4.83136" stroke-linecap="round"/>
<path d="M352.25 51L347 54.7324" stroke="#ECA62C" stroke-width="4.83136" stroke-linecap="round"/>
<path d="M403.758 293L399.999 298.231" stroke="#FC65C5" stroke-width="4.83136" stroke-linecap="round"/>
<circle cx="205.821" cy="176.821" r="1.82115" fill="#75CA98"/>
<circle cx="352.22" cy="152.314" r="1.82115" fill="#65748B"/>
<circle cx="170.821" cy="144.821" r="1.82115" fill="#ECA62C"/>
<circle cx="132.821" cy="240.821" r="1.82115" fill="#DE5D62"/>
<path d="M116.376 153.749C116.482 153.465 116.884 153.465 116.99 153.749L117.778 155.882C117.812 155.971 117.882 156.042 117.972 156.075L120.104 156.864C120.388 156.969 120.388 157.372 120.104 157.477L117.972 158.266C117.882 158.299 117.812 158.369 117.778 158.459L116.99 160.591C116.884 160.876 116.482 160.876 116.376 160.591L115.587 158.459C115.554 158.369 115.484 158.299 115.394 158.266L113.262 157.477C112.977 157.372 112.977 156.969 113.262 156.864L115.394 156.075C115.484 156.042 115.554 155.971 115.587 155.882L116.376 153.749Z" fill="#75CA98"/>
<path d="M189.56 132.282C189.665 131.997 190.068 131.997 190.173 132.282L190.962 134.414C190.995 134.503 191.066 134.574 191.155 134.607L193.287 135.396C193.572 135.501 193.572 135.904 193.287 136.009L191.155 136.798C191.066 136.831 190.995 136.902 190.962 136.991L190.173 139.123C190.068 139.408 189.665 139.408 189.56 139.123L188.771 136.991C188.738 136.902 188.667 136.831 188.578 136.798L186.446 136.009C186.161 135.904 186.161 135.501 186.446 135.396L188.578 134.607C188.667 134.574 188.738 134.503 188.771 134.414L189.56 132.282Z" fill="#FC65C5"/>
<path d="M71.3178 189.504C71.4231 189.22 71.8256 189.22 71.9309 189.504L72.7199 191.636C72.753 191.726 72.8235 191.796 72.913 191.83L75.0452 192.619C75.3298 192.724 75.3298 193.126 75.0452 193.232L72.913 194.021C72.8235 194.054 72.753 194.124 72.7199 194.214L71.9309 196.346C71.8256 196.631 71.4231 196.631 71.3178 196.346L70.5288 194.214C70.4957 194.124 70.4251 194.054 70.3357 194.021L68.2035 193.232C67.9189 193.126 67.9189 192.724 68.2035 192.619L70.3357 191.83C70.4251 191.796 70.4957 191.726 70.5288 191.636L71.3178 189.504Z" fill="#ECA62C"/>
<path d="M332.619 123.479C332.724 123.194 333.126 123.194 333.232 123.479L334.021 125.611C334.054 125.701 334.124 125.771 334.214 125.804L336.346 126.593C336.631 126.698 336.631 127.101 336.346 127.206L334.214 127.995C334.124 128.028 334.054 128.099 334.021 128.188L333.232 130.321C333.126 130.605 332.724 130.605 332.619 130.321L331.83 128.188C331.796 128.099 331.726 128.028 331.636 127.995L329.504 127.206C329.22 127.101 329.22 126.698 329.504 126.593L331.636 125.804C331.726 125.771 331.796 125.701 331.83 125.611L332.619 123.479Z" fill="#DE5D62"/>
<path d="M18.8064 236.76C20.0499 238.464 18.7814 240.768 20.5868 241.859C22.5275 243.032 24.3596 239.409 26.2639 240.64C28.5048 242.089 24.7545 245.341 26.3604 247.472C27.8017 249.385 30.7084 247.71 32.0858 249.669C33.2439 251.316 31.6099 253.11 32.7275 254.785C34.2886 257.125 38.1105 254.575 39.5915 256.966C40.7624 258.856 39.6719 262.659 39.6719 262.659" stroke="#75CA98" stroke-width="4.83136" stroke-linecap="round"/>
<path d="M309.761 22.1508L318.653 12.5168L324.165 17.4225L314.892 26.6392L309.761 22.1508Z" fill="#75CA98"/>
<path d="M72.873 258.116L84.9437 261.971L82.5151 269.517L70.6838 265.103L72.873 258.116Z" fill="#65748B"/>
<path d="M187.867 37.0801L179.44 27.6167L185.371 22.3586L193.308 32.1804L187.867 37.0801Z" fill="#EDAA39"/>
<path d="M40.2141 159.633L47.8275 169.762L41.4808 174.511L34.3853 164.065L40.2141 159.633Z" fill="#FC65C5"/>
<path d="M55.2857 45.5647L48.3448 56.166L54.9859 60.4931L61.3895 49.6094L55.2857 45.5647Z" fill="#75CA98"/>
<path d="M426.286 162.565L419.345 173.166L425.986 177.493L432.389 166.609L426.286 162.565Z" fill="#DE5D62"/>
<path d="M250.902 47.3555L247.973 59.6838L240.265 57.8344L243.769 45.7024L250.902 47.3555Z" fill="#FC65C5"/>
<path d="M106.735 128.195C110.696 125.135 116.224 125.135 120.185 128.195L121.283 129.043C122.83 130.239 124.668 131 126.607 131.249L127.984 131.426C132.948 132.063 136.857 135.971 137.494 140.936L137.671 142.312C137.92 144.252 138.681 146.09 139.876 147.637L140.725 148.735C143.785 152.696 143.785 158.224 140.725 162.185L139.876 163.283C138.681 164.83 137.92 166.668 137.671 168.607L137.494 169.984C136.857 174.948 132.948 178.857 127.984 179.494L126.607 179.671C124.668 179.92 122.83 180.681 121.283 181.876L120.185 182.725C116.224 185.785 110.696 185.785 106.735 182.725L105.637 181.876C104.09 180.681 102.252 179.92 100.312 179.671L98.9359 179.494C93.9713 178.857 90.0627 174.948 89.4256 169.984L89.249 168.607C89.0001 166.668 88.2388 164.83 87.0434 163.283L86.1951 162.185C83.1351 158.224 83.1351 152.696 86.1951 148.735L87.0434 147.637C88.2388 146.09 89.0001 144.252 89.249 142.312L89.4256 140.936C90.0627 135.971 93.9713 132.063 98.9359 131.426L100.312 131.249C102.252 131 104.09 130.239 105.637 129.043L106.735 128.195Z" fill="#D86A84"/>
<path d="M104.735 128.195C108.696 125.135 114.224 125.135 118.185 128.195L119.283 129.043C120.83 130.239 122.668 131 124.607 131.249L125.984 131.426C130.948 132.063 134.857 135.971 135.494 140.936L135.671 142.312C135.92 144.252 136.681 146.09 137.876 147.637L138.725 148.735C141.785 152.696 141.785 158.224 138.725 162.185L137.876 163.283C136.681 164.83 135.92 166.668 135.671 168.607L135.494 169.984C134.857 174.948 130.948 178.857 125.984 179.494L124.607 179.671C122.668 179.92 120.83 180.681 119.283 181.876L118.185 182.725C114.224 185.785 108.696 185.785 104.735 182.725L103.637 181.876C102.09 180.681 100.252 179.92 98.3123 179.671L96.9359 179.494C91.9713 178.857 88.0627 174.948 87.4256 169.984L87.249 168.607C87.0001 166.668 86.2388 164.83 85.0434 163.283L84.1951 162.185C81.1351 158.224 81.1351 152.696 84.1951 148.735L85.0434 147.637C86.2388 146.09 87.0001 144.252 87.249 142.312L87.4256 140.936C88.0627 135.971 91.9713 132.063 96.9359 131.426L98.3123 131.249C100.252 131 102.09 130.239 103.637 129.043L104.735 128.195Z" fill="#FC6589"/>
<path d="M123.3 139.071L120.731 138.955L99.4879 173.832L102.057 173.947L123.3 139.071Z" fill="white" stroke="white" stroke-linecap="round" stroke-linejoin="round"/>
<path d="M110.661 144.106C110.661 146.849 108.298 149.073 105.383 149.073C102.468 149.073 100.105 146.849 100.105 144.106C100.105 141.363 102.468 139.139 105.383 139.139C108.298 139.139 110.661 141.363 110.661 144.106ZM102.428 144.106C102.428 145.642 103.751 146.887 105.383 146.887C107.015 146.887 108.339 145.642 108.339 144.106C108.339 142.57 107.015 141.324 105.383 141.324C103.751 141.324 102.428 142.57 102.428 144.106Z" fill="white"/>
<path d="M124.95 168.941C124.95 171.684 122.587 173.908 119.672 173.908C116.757 173.908 114.395 171.684 114.395 168.941C114.395 166.198 116.757 163.974 119.672 163.974C122.587 163.974 124.95 166.198 124.95 168.941ZM116.717 168.941C116.717 170.477 118.04 171.722 119.672 171.722C121.304 171.722 122.628 170.477 122.628 168.941C122.628 167.405 121.304 166.159 119.672 166.159C118.04 166.159 116.717 167.405 116.717 168.941Z" fill="white"/>
<rect x="352" y="194" width="55.7165" height="63.5004" rx="2.16479" fill="#CA9E47"/>
<rect x="349.914" y="192.682" width="55.7165" height="63.5004" rx="2.16479" fill="#FFC700"/>
<path fill-rule="evenodd" clip-rule="evenodd" d="M391.086 198.008C391.086 197.782 391.269 197.599 391.496 197.599H401.328V201.695C401.328 201.922 401.144 202.105 400.918 202.105C400.692 202.105 400.508 201.922 400.508 201.695V198.418H391.496C391.269 198.418 391.086 198.235 391.086 198.008ZM395.797 208.455C395.797 208.229 395.981 208.045 396.207 208.045H400.918C401.144 208.045 401.328 208.229 401.328 208.455C401.328 208.681 401.144 208.865 400.918 208.865H396.207C395.981 208.865 395.797 208.681 395.797 208.455ZM395.797 215.215C395.797 214.989 395.981 214.805 396.207 214.805H400.918C401.144 214.805 401.328 214.989 401.328 215.215C401.328 215.441 401.144 215.625 400.918 215.625H396.207C395.981 215.625 395.797 215.441 395.797 215.215ZM395.797 221.975C395.797 221.748 395.981 221.565 396.207 221.565H400.918C401.144 221.565 401.328 221.748 401.328 221.975C401.328 222.201 401.144 222.384 400.918 222.384H396.207C395.981 222.384 395.797 222.201 395.797 221.975ZM369.168 244.507C369.168 244.281 369.351 244.097 369.578 244.097H378.795C379.022 244.097 379.205 244.281 379.205 244.507C379.205 244.733 379.022 244.917 378.795 244.917H369.578C369.351 244.917 369.168 244.733 369.168 244.507ZM381.663 244.507C381.663 244.281 381.847 244.097 382.073 244.097H384.941C385.167 244.097 385.35 244.281 385.35 244.507C385.35 244.733 385.167 244.917 384.941 244.917H382.073C381.847 244.917 381.663 244.733 381.663 244.507ZM369.168 248.604C369.168 248.378 369.351 248.194 369.578 248.194H373.06C373.286 248.194 373.47 248.378 373.47 248.604C373.47 248.83 373.286 249.013 373.06 249.013H369.578C369.351 249.013 369.168 248.83 369.168 248.604ZM374.699 248.604C374.699 248.378 374.882 248.194 375.108 248.194H384.941C385.167 248.194 385.35 248.378 385.35 248.604C385.35 248.83 385.167 249.013 384.941 249.013H375.108C374.882 249.013 374.699 248.83 374.699 248.604Z" fill="white"/>
<path d="M386.832 200.65C393.748 208.649 393.451 220.435 386.518 228.071C385.959 228.686 385.358 229.274 384.713 229.832C384.099 230.362 383.463 230.851 382.808 231.297C374.242 237.131 362.474 235.743 355.532 227.713C348.058 219.07 349.007 206.005 357.65 198.532C366.293 191.058 379.358 192.007 386.832 200.65ZM357.66 225.873C360.131 228.73 363.308 230.614 366.709 231.49C368.05 231.835 369.425 232.023 370.806 232.053C375.074 232.144 379.389 230.715 382.873 227.703C389.382 222.075 390.84 212.777 386.832 205.537C386.241 204.471 385.532 203.449 384.703 202.49C383.172 200.719 381.368 199.322 379.409 198.307C378.939 198.064 378.461 197.843 377.975 197.644C371.939 195.17 364.762 196.102 359.49 200.66C353.413 205.915 351.739 214.369 354.806 221.36C355.273 222.424 355.849 223.453 356.537 224.433C356.883 224.926 357.257 225.407 357.66 225.873Z" fill="url(#paint14_linear_26325_34964)"/>
<path d="M385.176 235.341C384.904 234.997 384.951 234.5 385.283 234.213L389.056 230.951C389.387 230.665 389.886 230.69 390.187 231.008L404.927 245.662C405.248 246.001 405.221 246.539 404.867 246.844L398.726 252.155C398.373 252.46 397.836 252.409 397.547 252.043L385.176 235.341Z" fill="url(#paint15_linear_26325_34964)"/>
<path d="M385.31 234.19L389.029 230.975L386.518 228.071C385.959 228.686 385.358 229.274 384.713 229.832C384.099 230.362 383.463 230.851 382.808 231.297L385.31 234.19Z" fill="url(#paint16_linear_26325_34964)"/>
<path fill-rule="evenodd" clip-rule="evenodd" d="M357.66 225.873C360.131 228.73 363.308 230.614 366.709 231.49L384.703 202.49C383.172 200.719 381.368 199.322 379.409 198.307L356.537 224.433C356.883 224.926 357.257 225.407 357.66 225.873ZM354.806 221.36L377.975 197.644C371.939 195.17 364.762 196.102 359.49 200.66C353.413 205.915 351.739 214.369 354.806 221.36ZM382.873 227.703C379.389 230.715 375.074 232.144 370.806 232.053L386.832 205.537C390.84 212.777 389.382 222.075 382.873 227.703Z" fill="white" fill-opacity="0.5"/>
<path d="M377.975 197.644L354.806 221.36C355.273 222.424 355.849 223.453 356.537 224.433L379.409 198.307C378.939 198.064 378.461 197.843 377.975 197.644Z" fill="white"/>
<path d="M384.703 202.49L366.709 231.49C368.05 231.835 369.425 232.023 370.806 232.053L386.832 205.537C386.241 204.471 385.532 203.449 384.703 202.49Z" fill="white"/>
<path fill-rule="evenodd" clip-rule="evenodd" d="M361.794 241.025C358.852 241.025 356.468 243.41 356.468 246.351C356.468 249.293 358.852 251.677 361.794 251.677C364.735 251.677 367.119 249.293 367.119 246.351C367.119 243.41 364.735 241.025 361.794 241.025ZM355.648 246.351C355.648 242.957 358.4 240.206 361.794 240.206C365.188 240.206 367.939 242.957 367.939 246.351C367.939 249.745 365.188 252.496 361.794 252.496C358.4 252.496 355.648 249.745 355.648 246.351Z" fill="white"/>
<path fill-rule="evenodd" clip-rule="evenodd" d="M363.937 244.638C364.091 244.804 364.082 245.063 363.916 245.217L361.37 247.58C361.029 247.897 360.498 247.888 360.169 247.558L359.046 246.435C358.886 246.275 358.886 246.016 359.046 245.856C359.206 245.696 359.465 245.696 359.625 245.856L360.632 246.863C360.715 246.945 360.847 246.948 360.933 246.869L363.358 244.616C363.524 244.462 363.783 244.472 363.937 244.638Z" fill="white"/>
<path fill-rule="evenodd" clip-rule="evenodd" d="M381.867 206.611C381.189 206.611 380.638 207.162 380.638 207.84C380.638 208.228 380.818 208.574 381.099 208.8C381.31 208.969 381.576 209.069 381.867 209.069C382.546 209.069 383.096 208.519 383.096 207.84C383.096 207.162 382.546 206.611 381.867 206.611ZM379.819 207.84C379.819 206.709 380.736 205.792 381.867 205.792C382.999 205.792 383.916 206.709 383.916 207.84C383.916 208.972 382.999 209.889 381.867 209.889C381.519 209.889 381.19 209.801 380.902 209.648L376.609 214.081C376.825 214.406 376.951 214.796 376.951 215.215C376.951 216.346 376.034 217.263 374.903 217.263C373.772 217.263 372.854 216.346 372.854 215.215C372.854 214.989 372.891 214.771 372.959 214.568L369.473 212.583C369.203 213.398 368.434 213.986 367.529 213.986C366.964 213.986 366.453 213.757 366.082 213.388L362.322 217.44C362.506 217.748 362.612 218.108 362.612 218.492C362.612 219.623 361.695 220.54 360.564 220.54C359.433 220.54 358.516 219.623 358.516 218.492C358.516 217.361 359.433 216.444 360.564 216.444C361.013 216.444 361.429 216.589 361.767 216.834L365.62 212.682C365.53 212.451 365.48 212.199 365.48 211.937C365.48 210.806 366.397 209.889 367.529 209.889C368.576 209.889 369.441 210.676 369.562 211.691L373.368 213.858C373.743 213.434 374.291 213.166 374.903 213.166C375.319 213.166 375.706 213.29 376.029 213.503L380.27 209.123C379.988 208.772 379.819 208.326 379.819 207.84ZM367.529 210.708C366.85 210.708 366.3 211.258 366.3 211.937C366.3 212.162 366.359 212.371 366.464 212.551C366.677 212.92 367.074 213.166 367.529 213.166C368.207 213.166 368.758 212.616 368.758 211.937C368.758 211.258 368.207 210.708 367.529 210.708ZM374.903 213.986C374.448 213.986 374.051 214.232 373.838 214.6C373.734 214.781 373.674 214.99 373.674 215.215C373.674 215.893 374.224 216.444 374.903 216.444C375.582 216.444 376.132 215.893 376.132 215.215C376.132 214.536 375.582 213.986 374.903 213.986ZM360.564 217.263C359.885 217.263 359.335 217.813 359.335 218.492C359.335 219.171 359.885 219.721 360.564 219.721C361.243 219.721 361.793 219.171 361.793 218.492C361.793 218.18 361.677 217.896 361.486 217.679C361.26 217.423 360.931 217.263 360.564 217.263Z" fill="#663DD9"/>
<rect x="283.777" y="274.711" width="120.798" height="80.2951" rx="5.32932" fill="#3653B4"/>
<rect x="282" y="274" width="120.798" height="80.2951" rx="5.32932" fill="#B0E3FF"/>
<path d="M329.965 284.126H355.013" stroke="white" stroke-width="2.84231" stroke-linecap="round"/>
<path d="M316.461 290.343H368.688" stroke="white" stroke-width="2.84231" stroke-linecap="round"/>
<path d="M294.789 301.002H390.362" stroke="white" stroke-width="2.84231" stroke-linecap="round"/>
<path d="M294.789 310.595H390.362" stroke="white" stroke-width="2.84231" stroke-linecap="round"/>
<path d="M294.789 320.188L344.352 320.187" stroke="white" stroke-width="2.84231" stroke-linecap="round"/>
<path d="M294.969 337.241C296.745 337.241 296.856 340.865 298.522 340.794C300.698 340.703 299.719 336.407 301.897 336.353C304.117 336.298 303.279 340.325 305.45 340.794C308.611 341.478 307.071 333.431 310.246 334.044C313.181 334.611 311.891 338.411 313.088 341.15C314.332 343.992 316.443 345.638 319.484 345.591C323.113 345.535 326.045 342.648 326.056 339.018C326.067 335.578 323.609 332.858 320.194 332.445C318.189 332.202 315.22 333.866 315.22 333.866" stroke="white" stroke-width="2.84231" stroke-linecap="round"/>
<path d="M370.109 349.588L384.364 345.768L390.678 369.334C390.817 369.852 390.354 370.331 389.831 370.21L382.752 368.568C382.509 368.512 382.254 368.587 382.081 368.766L377.603 373.395C377.219 373.792 376.548 373.619 376.405 373.085L370.109 349.588Z" fill="#EAA828"/>
<path d="M372.855 348.852L370.109 349.588L376.405 373.085C376.548 373.619 377.218 373.792 377.602 373.395L379.035 371.915L372.855 348.852Z" fill="#D06C6C"/>
<path d="M381.434 346.553L387.637 369.701L389.831 370.21C390.214 370.299 390.564 370.066 390.67 369.732C390.709 369.609 390.715 369.473 390.678 369.334L384.364 345.768L381.434 346.553Z" fill="#D06C6C"/>
<path d="M374.645 349.588L360.39 345.768L354.076 369.334C353.937 369.852 354.4 370.331 354.923 370.21L362.002 368.568C362.245 368.512 362.5 368.587 362.673 368.766L367.151 373.395C367.535 373.792 368.206 373.619 368.348 373.085L374.645 349.588Z" fill="#EAA828"/>
<path d="M371.899 348.852L374.645 349.588L368.348 373.085C368.206 373.619 367.535 373.792 367.152 373.395L365.719 371.915L371.899 348.852Z" fill="#D06C6C"/>
<path d="M363.32 346.553L357.117 369.701L354.923 370.21C354.54 370.299 354.19 370.066 354.084 369.732C354.045 369.609 354.038 369.473 354.076 369.334L360.39 345.768L363.32 346.553Z" fill="#D06C6C"/>
<path d="M370.425 323.201C371.408 322.148 373.077 322.148 374.061 323.201L376.613 325.935C377.197 326.561 378.063 326.842 378.904 326.679L382.575 325.968C383.99 325.694 385.34 326.675 385.517 328.105L385.974 331.816C386.079 332.666 386.614 333.403 387.39 333.765L390.779 335.348C392.084 335.957 392.6 337.545 391.902 338.805L390.091 342.077C389.676 342.827 389.676 343.737 390.091 344.486L391.902 347.758C392.6 349.019 392.084 350.606 390.779 351.216L387.39 352.798C386.614 353.161 386.079 353.897 385.974 354.747L385.517 358.459C385.34 359.889 383.99 360.87 382.575 360.596L378.904 359.884C378.063 359.722 377.197 360.003 376.613 360.629L374.061 363.362C373.077 364.416 371.408 364.416 370.425 363.362L367.873 360.629C367.288 360.003 366.423 359.722 365.582 359.884L361.91 360.596C360.496 360.87 359.145 359.889 358.969 358.459L358.511 354.747C358.406 353.897 357.871 353.161 357.095 352.798L353.707 351.216C352.401 350.606 351.885 349.019 352.583 347.758L354.394 344.486C354.809 343.737 354.809 342.827 354.394 342.077L352.583 338.805C351.885 337.545 352.401 335.957 353.707 335.348L357.095 333.765C357.871 333.403 358.406 332.666 358.511 331.816L358.969 328.105C359.145 326.675 360.496 325.694 361.91 325.968L365.582 326.679C366.423 326.842 367.288 326.561 367.873 325.935L370.425 323.201Z" fill="#FFDB5A"/>
<circle cx="372.244" cy="343.282" r="12.0798" fill="#D06C6C"/>
</g>
<defs>
<filter id="filter0_f_26325_34964" x="85.5" y="343" width="303" height="93.2529" filterUnits="userSpaceOnUse" color-interpolation-filters="sRGB">
<feFlood flood-opacity="0" result="BackgroundImageFix"/>
<feBlend mode="normal" in="SourceGraphic" in2="BackgroundImageFix" result="shape"/>
<feGaussianBlur stdDeviation="2" result="effect1_foregroundBlur_26325_34964"/>
</filter>
<filter id="filter1_f_26325_34964" x="164.692" y="339.583" width="177.815" height="64.4256" filterUnits="userSpaceOnUse" color-interpolation-filters="sRGB">
<feFlood flood-opacity="0" result="BackgroundImageFix"/>
<feBlend mode="normal" in="SourceGraphic" in2="BackgroundImageFix" result="shape"/>
<feGaussianBlur stdDeviation="5.15401" result="effect1_foregroundBlur_26325_34964"/>
</filter>
<filter id="filter2_f_26325_34964" x="193.711" y="189.75" width="99.5379" height="5.15318" filterUnits="userSpaceOnUse" color-interpolation-filters="sRGB">
<feFlood flood-opacity="0" result="BackgroundImageFix"/>
<feBlend mode="normal" in="SourceGraphic" in2="BackgroundImageFix" result="shape"/>
<feGaussianBlur stdDeviation="0.644252" result="effect1_foregroundBlur_26325_34964"/>
</filter>
<filter id="filter3_f_26325_34964" x="175.133" y="320.127" width="22.957" height="36.0879" filterUnits="userSpaceOnUse" color-interpolation-filters="sRGB">
<feFlood flood-opacity="0" result="BackgroundImageFix"/>
<feBlend mode="normal" in="SourceGraphic" in2="BackgroundImageFix" result="shape"/>
<feGaussianBlur stdDeviation="0.5" result="effect1_foregroundBlur_26325_34964"/>
</filter>
<filter id="filter4_f_26325_34964" x="148.189" y="319.431" width="8.02339" height="8.53609" filterUnits="userSpaceOnUse" color-interpolation-filters="sRGB">
<feFlood flood-opacity="0" result="BackgroundImageFix"/>
<feBlend mode="normal" in="SourceGraphic" in2="BackgroundImageFix" result="shape"/>
<feGaussianBlur stdDeviation="0.29198" result="effect1_foregroundBlur_26325_34964"/>
</filter>
<filter id="filter5_f_26325_34964" x="132.419" y="255.656" width="70.9902" height="36.2978" filterUnits="userSpaceOnUse" color-interpolation-filters="sRGB">
<feFlood flood-opacity="0" result="BackgroundImageFix"/>
<feBlend mode="normal" in="SourceGraphic" in2="BackgroundImageFix" result="shape"/>
<feGaussianBlur stdDeviation="0.14599" result="effect1_foregroundBlur_26325_34964"/>
</filter>
<filter id="filter6_f_26325_34964" x="174.399" y="265.424" width="9.75193" height="6.1865" filterUnits="userSpaceOnUse" color-interpolation-filters="sRGB">
<feFlood flood-opacity="0" result="BackgroundImageFix"/>
<feBlend mode="normal" in="SourceGraphic" in2="BackgroundImageFix" result="shape"/>
<feGaussianBlur stdDeviation="0.14599" result="effect1_foregroundBlur_26325_34964"/>
</filter>
<linearGradient id="paint0_linear_26325_34964" x1="232.579" y1="52.4035" x2="251.262" y2="142.599" gradientUnits="userSpaceOnUse">
<stop stop-color="#765D39"/>
<stop offset="1" stop-color="#D3A35F"/>
</linearGradient>
<linearGradient id="paint1_linear_26325_34964" x1="251.906" y1="65.2885" x2="251.262" y2="142.599" gradientUnits="userSpaceOnUse">
<stop stop-color="#765D39"/>
<stop offset="1" stop-color="#BC8F4F"/>
</linearGradient>
<linearGradient id="paint2_linear_26325_34964" x1="105.664" y1="293.044" x2="105.664" y2="399.99" gradientUnits="userSpaceOnUse">
<stop stop-color="#F8C784"/>
<stop offset="1" stop-color="#CD9A51"/>
</linearGradient>
<linearGradient id="paint3_linear_26325_34964" x1="300.226" y1="276.293" x2="300.226" y2="362.623" gradientUnits="userSpaceOnUse">
<stop stop-color="#F8C784"/>
<stop offset="1" stop-color="#CD9A51"/>
</linearGradient>
<linearGradient id="paint4_linear_26325_34964" x1="386.557" y1="311.083" x2="386.557" y2="429.625" gradientUnits="userSpaceOnUse">
<stop stop-color="#F8C784"/>
<stop offset="1" stop-color="#CD9A51"/>
</linearGradient>
<linearGradient id="paint5_linear_26325_34964" x1="167.155" y1="358.765" x2="166.76" y2="381.282" gradientUnits="userSpaceOnUse">
<stop stop-color="#EA7E25"/>
<stop offset="1" stop-color="#FC861F"/>
</linearGradient>
<linearGradient id="paint6_linear_26325_34964" x1="172.428" y1="331.199" x2="192.679" y2="341.05" gradientUnits="userSpaceOnUse">
<stop stop-color="#EA7E25"/>
<stop offset="1" stop-color="#FC861F"/>
</linearGradient>
<linearGradient id="paint7_linear_26325_34964" x1="149.367" y1="308.272" x2="132.464" y2="329.768" gradientUnits="userSpaceOnUse">
<stop stop-color="#4549AB"/>
<stop offset="1" stop-color="#6D71E4"/>
</linearGradient>
<linearGradient id="paint8_linear_26325_34964" x1="211.271" y1="258.432" x2="145.071" y2="361.543" gradientUnits="userSpaceOnUse">
<stop stop-color="#4549AB"/>
<stop offset="1" stop-color="#6D71E4"/>
</linearGradient>
<linearGradient id="paint9_linear_26325_34964" x1="158.978" y1="259.095" x2="155.437" y2="265.382" gradientUnits="userSpaceOnUse">
<stop stop-color="#FC7135"/>
<stop offset="1" stop-color="#FB980A"/>
</linearGradient>
<linearGradient id="paint10_linear_26325_34964" x1="153.518" y1="275.563" x2="151.233" y2="276.989" gradientUnits="userSpaceOnUse">
<stop stop-color="#F56C30"/>
<stop offset="1" stop-color="#FB970B"/>
</linearGradient>
<linearGradient id="paint11_linear_26325_34964" x1="165.985" y1="240.775" x2="168.861" y2="292.448" gradientUnits="userSpaceOnUse">
<stop stop-color="#757ADC"/>
<stop offset="1" stop-color="#4146AB"/>
</linearGradient>
<linearGradient id="paint12_linear_26325_34964" x1="179.484" y1="262.541" x2="174.603" y2="266.414" gradientUnits="userSpaceOnUse">
<stop stop-color="#FC7135"/>
<stop offset="1" stop-color="#FB980A"/>
</linearGradient>
<linearGradient id="paint13_linear_26325_34964" x1="168.154" y1="331.699" x2="174.597" y2="409.009" gradientUnits="userSpaceOnUse">
<stop stop-color="#F8C784"/>
<stop offset="1" stop-color="#CD9A51"/>
</linearGradient>
<linearGradient id="paint14_linear_26325_34964" x1="380" y1="210" x2="354.5" y2="227" gradientUnits="userSpaceOnUse">
<stop stop-color="#A4A4A4"/>
<stop offset="1" stop-color="#838383"/>
</linearGradient>
<linearGradient id="paint15_linear_26325_34964" x1="410" y1="215" x2="390" y2="256" gradientUnits="userSpaceOnUse">
<stop stop-color="#A4A4A4"/>
<stop offset="1" stop-color="#838383"/>
</linearGradient>
<linearGradient id="paint16_linear_26325_34964" x1="388.5" y1="223" x2="380" y2="237" gradientUnits="userSpaceOnUse">
<stop stop-color="#A4A4A4"/>
<stop offset="1" stop-color="#838383"/>
</linearGradient>
<clipPath id="clip0_26325_34964">
<rect width="460" height="436" fill="white" transform="translate(0 -0.00390625)"/>
</clipPath>
</defs>
</svg>
