<svg width="549" height="485" viewBox="0 0 549 485" fill="none" xmlns="http://www.w3.org/2000/svg">
<path d="M324.288 193.653C317.195 192.14 307.841 197.823 303.215 206.402L318.504 296.43C329.858 315.351 364.74 307.4 362.248 285.177C357.462 242.5 336.222 192.26 324.288 193.653Z" fill="url(#paint0_linear_26325_34614)"/>
<path d="M357.149 324.242C352.661 320.774 347.541 311.333 347.541 311.333L359.506 302.428C359.506 302.428 367.159 310.013 369.113 315.337C372.922 325.713 378.75 341.435 378.75 341.435C378.75 341.435 365.211 330.472 357.149 324.242Z" fill="#FF5050"/>
<path d="M356.953 321.73C353.28 318.89 349.087 311.16 349.087 311.16L358.876 303.875C358.876 303.875 365.142 310.086 366.743 314.445C369.863 322.939 370.396 329.549 370.396 329.549C370.396 329.549 363.554 326.833 356.953 321.73Z" fill="#FFBE71"/>
<path d="M355.761 316.517C353.433 314.746 350.816 309.873 350.816 309.873L357.15 305.159C357.15 305.159 361.108 309.049 362.095 311.803C364.018 317.171 364.301 321.364 364.301 321.364C364.301 321.364 359.943 319.7 355.761 316.517Z" fill="#FFD873"/>
<path d="M337.592 299.96C335.021 291.482 342.705 284.051 351.389 290.912L362.542 301.535C365.571 304.333 347.454 316.813 345.53 313.888L337.592 299.96Z" fill="url(#paint1_linear_26325_34614)"/>
<path d="M351.205 266C344.905 244.029 339.298 233.107 327.205 215C322.707 215 327.707 266 331.205 266C339.534 269.701 353.207 271.5 351.205 266Z" fill="url(#paint2_linear_26325_34614)"/>
<path d="M474.664 104.57C470.391 108.388 480.324 111.821 482.005 117.328C484.201 124.525 474.573 137.191 482.005 136.613C485.338 136.354 487.388 134.901 489.345 132.163C493.059 126.967 487.429 122.341 485.822 116.141C484.489 110.999 487.049 104.595 482.005 103.087C479.201 102.249 476.854 102.614 474.664 104.57Z" fill="#AA48AF" stroke="black" stroke-width="0.893894"/>
<path d="M453.979 70.3519C453.451 73.7843 458.088 73.921 459.754 76.9376C461.065 79.3128 459.905 81.9488 462.064 83.5234C463.917 84.8754 465.847 85.2439 467.838 84.1221C471.352 82.1426 466.908 77.1802 464.085 74.2435C461.113 71.152 454.643 66.0416 453.979 70.3519Z" fill="#AA48AF" stroke="black" stroke-width="0.893894"/>
<path d="M427.303 147C427.303 147 426.466 144.684 427.077 143.986C427.687 143.288 428.171 143.007 428.568 142.826L432.179 151.794C432.642 152.903 433.095 154.567 431.246 154.498C431.531 153.809 431.763 151.888 430.413 149.721C429.063 147.554 427.777 147.004 427.303 147Z" fill="#C54E19"/>
<path d="M153.244 163.131C153.479 165.482 155.574 167.197 157.925 166.963C160.276 166.728 161.991 164.632 161.757 162.282C161.522 159.931 159.426 158.215 157.076 158.45C154.725 158.685 153.01 160.78 153.244 163.131Z" fill="#72A2EA"/>
<path d="M119.178 158.92C119.412 161.271 121.508 162.986 123.859 162.752C126.209 162.517 127.925 160.421 127.69 158.071C127.456 155.72 125.36 154.005 123.009 154.239C120.659 154.474 118.943 156.569 119.178 158.92Z" fill="#72A2EA"/>
<path d="M187.089 119.815C185.643 119.552 184.151 119.739 182.815 120.352L176.842 123.092C176.803 123.11 176.766 123.132 176.727 123.151C176.687 123.169 176.646 123.182 176.606 123.2L176.553 123.225C176.49 123.254 176.425 123.177 176.356 123.167L111.667 114.159C111.432 114.126 111.269 113.91 111.301 113.675L111.595 111.567C111.627 111.333 111.844 111.169 112.079 111.201L174.064 119.833C175.427 120.023 176.816 119.816 178.065 119.238L184.422 116.294C184.451 116.245 184.397 116.29 184.422 116.294L194.231 118.081C194.292 118.092 194.307 118.29 194.265 118.523L193.884 120.617C193.841 120.85 193.757 121.03 193.696 121.019L187.089 119.815Z" fill="url(#paint3_linear_26325_34614)"/>
<path d="M149.23 149.835C148.914 149.718 148.562 149.88 148.445 150.196L144.86 160.7L113.702 157.023C113.367 156.983 113.064 157.223 113.024 157.558C112.984 157.893 113.224 158.197 113.559 158.236L158.674 163.561C159.009 163.601 159.313 163.361 159.352 163.026C159.392 162.691 159.152 162.387 158.817 162.347L156.91 162.122L160.661 151.977C160.778 151.661 160.616 151.309 160.3 151.192C159.983 151.075 159.632 151.237 159.515 151.554L155.662 161.975L146.101 160.847L149.592 150.62C149.709 150.303 149.547 149.952 149.23 149.835Z" fill="#5A89CE"/>
<path fill-rule="evenodd" clip-rule="evenodd" d="M117.663 145.876L162.08 152.061C162.519 152.122 162.965 152.03 163.344 151.801C163.723 151.572 164.012 151.22 164.162 150.803L174.223 122.875L113.956 114.482L116.003 144.097C116.034 144.539 116.215 144.957 116.517 145.28C116.82 145.604 117.224 145.814 117.663 145.876ZM126.043 141.454L124.563 141.566C124.327 141.584 124.121 141.407 124.103 141.17L122.637 121.799C122.619 121.563 122.796 121.357 123.033 121.339L124.513 121.227C124.749 121.209 124.955 121.386 124.973 121.622L126.439 140.994C126.456 141.23 126.279 141.436 126.043 141.454ZM132.102 142.677L133.586 142.642C133.823 142.637 134.011 142.44 134.005 142.203L133.556 122.782C133.55 122.545 133.354 122.357 133.117 122.363L131.633 122.397C131.396 122.403 131.209 122.599 131.214 122.836L131.663 142.258C131.669 142.495 131.865 142.682 132.102 142.677ZM144.36 123.914L142.89 123.709C142.656 123.676 142.439 123.84 142.406 124.075L139.727 143.316C139.694 143.551 139.858 143.767 140.093 143.8L141.563 144.005C141.797 144.037 142.014 143.874 142.047 143.639L144.726 124.398C144.759 124.163 144.595 123.946 144.36 123.914ZM154.006 125.51L152.588 125.071C152.362 125.001 152.122 125.128 152.052 125.354L146.313 143.914C146.243 144.141 146.37 144.381 146.596 144.451L148.015 144.889C148.241 144.959 148.481 144.832 148.551 144.606L154.289 126.046C154.359 125.82 154.233 125.58 154.006 125.51ZM161.177 126.332L162.57 126.844C162.792 126.926 162.906 127.173 162.824 127.395L156.122 145.629C156.04 145.851 155.794 145.965 155.571 145.884L154.178 145.371C153.956 145.29 153.842 145.043 153.924 144.821L160.626 126.587C160.708 126.364 160.954 126.25 161.177 126.332Z" fill="url(#paint4_linear_26325_34614)"/>
<path d="M105.635 158.671C105.903 161.357 108.299 163.318 110.985 163.05C113.672 162.782 115.632 160.387 115.364 157.7C115.096 155.014 112.701 153.053 110.015 153.321C107.328 153.589 105.367 155.984 105.635 158.671Z" fill="#4E80CC"/>
<path d="M108.421 158.405C108.536 159.556 109.563 160.397 110.714 160.282C111.865 160.167 112.706 159.14 112.591 157.989C112.476 156.838 111.449 155.997 110.298 156.112C109.147 156.227 108.306 157.254 108.421 158.405Z" fill="white"/>
<path d="M139.147 162.21C139.415 164.896 141.81 166.857 144.497 166.589C147.183 166.321 149.144 163.926 148.876 161.239C148.608 158.553 146.213 156.592 143.526 156.86C140.84 157.128 138.879 159.523 139.147 162.21Z" fill="#4E80CC"/>
<path d="M141.925 161.926C142.04 163.078 143.067 163.918 144.218 163.803C145.369 163.688 146.21 162.662 146.095 161.511C145.98 160.359 144.953 159.519 143.802 159.634C142.651 159.749 141.81 160.775 141.925 161.926Z" fill="white"/>
<path d="M221.516 260.541V273.056C217.981 276.718 214.678 279.969 211.175 282.55C210.033 266.746 208.316 258.046 192.756 244.453C198.894 240.731 203.269 236.785 206.548 232.831C211.294 227.107 214.284 224.943 216.458 219.849C219.031 213.82 223.453 206.46 228.605 203.332L221.516 260.541Z" fill="url(#paint5_linear_26325_34614)"/>
<path d="M157 286.464C157 268.139 167.219 259.936 192.756 244.453C208.316 258.046 210.033 266.746 211.175 282.55C206.485 286.004 201.437 288.259 194.991 288.699C187.393 303.895 157 304.789 157 286.464Z" fill="#FC7431"/>
<path d="M360.006 182.325C341.708 198.834 333.492 196.158 313.5 200.999L318.887 240.434C318.887 240.434 351.759 234.212 375 220.499C391.584 210.714 418.109 167.131 418.109 167.131C413.555 165.318 380.566 164.895 380.566 164.895C380.566 164.895 365.029 178.202 360.006 182.325Z" fill="url(#paint6_linear_26325_34614)"/>
<g opacity="0.3" filter="url(#filter0_f_26325_34614)">
<path fill-rule="evenodd" clip-rule="evenodd" d="M176.747 259.181C172.26 263.354 168.978 267.914 167.831 272.503C166.59 277.466 167.507 283.94 169.743 288.835C170.862 291.285 172.329 293.381 174.065 294.695C175.814 296.02 177.849 296.555 180.026 295.83C182.055 295.153 183.222 293.036 183.678 290.283C184.099 287.738 183.938 284.532 183.214 281.061C185.587 282.318 187.634 283.307 190.203 283.75C193.076 284.245 200.446 282.869 203.574 279.815L203.382 278.942C198.117 280.104 193.065 283.336 190.355 282.869C187.644 282.401 185.545 281.295 182.777 279.815L181.905 279.349L182.132 280.312C183.017 284.074 183.231 287.513 182.796 290.137C182.358 292.784 181.291 294.466 179.744 294.982C177.898 295.597 176.166 295.165 174.604 293.982C173.028 292.789 171.639 290.836 170.556 288.463C168.387 283.714 167.516 277.45 168.698 272.72C169.786 268.369 172.93 263.952 177.356 259.836C181.775 255.726 188.981 253.688 195.04 250.614L194.635 249.816C188.519 252.92 181.24 255.003 176.747 259.181Z" fill="black"/>
</g>
<path d="M182.569 280.208C188.09 283.16 191.206 284.777 201.788 282.443C211.621 277.526 210.784 255.971 193.296 248.475C181.12 254.653 170.501 263.671 168.267 272.61C165.843 282.303 171.842 298.086 179.887 295.404C183.463 294.212 184.357 287.806 182.569 280.208Z" fill="url(#paint7_linear_26325_34614)"/>
<path d="M266.964 406.247C249.136 406.248 244.08 396.408 237.913 373.173C246.959 375.282 252.281 374.887 262.758 367.81C264.852 374.97 268.173 382.177 273.222 390.157C270.597 394.365 269.19 397.491 266.964 406.247Z" fill="url(#paint8_linear_26325_34614)"/>
<path fill-rule="evenodd" clip-rule="evenodd" d="M326.408 393.733C310.36 434.049 286.63 443.344 270.093 420.102C267.8 415.186 267.575 411.3 266.964 406.247C269.19 397.491 270.597 394.365 273.222 390.157C283.07 396.206 312.553 395.073 324.915 381.665L324.923 381.731C325.742 388.915 326.408 393.733 326.408 393.733Z" fill="url(#paint9_linear_26325_34614)"/>
<path d="M286.63 434.852C271.193 432.834 263.67 419.209 266.964 406.247C267.575 411.3 267.8 415.186 270.093 420.102C286.63 443.344 310.36 434.049 326.408 393.733C322.494 413.59 307.228 437.544 286.63 434.852Z" fill="#3C41B9"/>
<path fill-rule="evenodd" clip-rule="evenodd" d="M227.713 203.78L319.257 191.266L321.939 245.346C321.939 245.346 327.194 270.914 326.408 288.7C326.019 297.515 325.086 304.504 324.172 311.355C323.106 319.339 322.065 327.136 321.939 337.417C321.77 351.18 323.551 369.688 324.915 381.665C312.553 395.073 283.07 396.206 273.222 390.157C268.173 382.177 264.852 374.97 262.758 367.81C258.397 352.895 259.364 338.18 261.154 317.104C242.809 314.857 231.335 307.858 218.247 292.723C210.67 270.712 214.573 253.126 219.884 229.202C221.538 221.749 226.09 212.788 227.713 203.78Z" fill="url(#paint10_linear_26325_34614)"/>
<path d="M237.913 373.173C220.482 363.787 203.227 336.07 218.247 292.723C231.335 307.858 242.809 314.857 261.154 317.104C259.364 338.18 258.397 352.895 262.758 367.81C252.281 374.887 246.959 375.282 237.913 373.173Z" fill="url(#paint11_linear_26325_34614)"/>
<path d="M265.67 318.227C299.671 324.009 318.442 295.852 325.594 297.193L326.487 292.274C306.863 299.703 302.8 318.227 265.67 318.227Z" fill="#64EDFF"/>
<path d="M316.003 234.5C315.871 223.691 318.503 202 318.503 202L309.509 202.5C309.509 202.5 309.262 227.379 309.506 238C309.878 254.272 326.502 283.5 326.502 283.5V277C326.502 277 316.166 247.807 316.003 234.5Z" fill="#EDEDED"/>
<path d="M220 220C222.765 212.449 229.998 202 229.998 202L235.5 203C235.5 203 228.494 213.023 225 220C220.354 229.279 215.996 245 215.996 245C215.996 245 216.6 229.285 220 220Z" fill="#EDEDED"/>
<g opacity="0.2" filter="url(#filter1_f_26325_34614)">
<path fill-rule="evenodd" clip-rule="evenodd" d="M239.692 309.865C233.011 306.01 226.618 301.586 220.112 294.062L220.439 294.809C227.022 302.421 231.885 307.424 238.799 311.414C245.505 315.284 252.826 317.603 261.707 318.776C258.398 339.354 255.859 364.207 273.299 389.262L275.086 391.05C256.846 362.217 259.817 339.741 263.483 318.993C270.575 319.791 278.659 319.909 288.181 319.538C290.061 319.013 290.891 318.506 292.07 317.304L288.111 317.751C278.223 318.137 269.958 317.989 262.779 317.11C253.701 315.998 246.366 313.717 239.692 309.865Z" fill="black"/>
</g>
<path d="M194.162 151.041C193.33 158.546 196.752 165.896 203.028 170.087C200.101 158.309 201.428 146.417 207.01 134.408C199.957 137.116 195.005 143.529 194.162 151.041Z" fill="white"/>
<path fill-rule="evenodd" clip-rule="evenodd" d="M202.746 171.699C203.161 171.761 203.581 171.671 203.935 171.426C204.492 171.031 204.748 170.346 204.585 169.689C201.758 158.333 203.059 146.696 208.458 135.097C208.74 134.488 208.621 133.774 208.171 133.282C207.711 132.796 207.003 132.636 206.38 132.867C198.723 135.809 193.409 142.702 192.497 150.854C191.585 159.007 195.261 166.892 202.079 171.445C202.284 171.584 202.516 171.664 202.746 171.699ZM203.676 137.974C200.116 147.265 199.04 156.568 200.451 165.748C196.914 161.861 195.156 156.607 195.76 151.219C196.364 145.768 199.29 140.984 203.676 137.974Z" fill="#64EDFF"/>
<path d="M283.671 83.9377C247.57 78.4997 213.895 103.35 208.457 139.451C203.02 175.543 227.879 209.22 263.98 214.658C300.072 220.095 333.749 195.235 339.186 159.143C344.624 123.042 319.763 89.3744 283.671 83.9377Z" fill="white"/>
<path d="M282.887 84.8147C246.299 79.3034 213.14 101.51 205.992 136.721L205.142 138.22C203.105 142.262 203.591 140.418 201.958 151.256C200.326 162.093 205.447 183.964 219.674 195.627L221.287 197.217C268.238 234.691 331.598 218.389 340.076 162.108C345.663 125.017 319.474 90.326 282.887 84.8147Z" fill="white"/>
<path fill-rule="evenodd" clip-rule="evenodd" d="M264.054 218.182C277.251 220.17 290.263 218.83 301.84 214.291C323.478 205.798 338.009 186.869 341.702 162.357C344.461 144.041 339.814 125.677 328.619 110.638C317.483 95.6808 301.332 85.9344 283.14 83.1941C245.642 77.5456 211.858 100.3 204.442 136.149L203.726 137.424C203.71 137.446 203.698 137.468 203.688 137.49C203.47 137.919 203.291 138.271 203.125 138.59C201.811 141.131 201.775 141.37 200.873 147.481C200.722 148.479 200.546 149.646 200.34 151.016C198.606 162.526 203.987 184.843 218.586 196.85L220.135 198.386C220.177 198.428 220.222 198.468 220.271 198.505C232.763 208.478 247.082 215.146 261.655 217.784C262.454 217.923 263.253 218.055 264.054 218.182ZM282.651 86.4382C318.867 91.8936 343.901 125.732 338.458 161.868C334.944 185.196 321.159 203.189 300.646 211.237C276.203 220.826 246.219 214.989 222.385 195.994L220.834 194.468C220.803 194.433 220.766 194.4 220.722 194.37C207.205 183.284 202.005 161.989 203.584 151.505C203.791 150.135 203.968 148.959 204.118 147.96C204.975 142.15 204.975 142.15 206.035 140.095C206.201 139.776 206.389 139.425 206.597 139.004L207.425 137.529C207.511 137.379 207.572 137.217 207.606 137.05C214.554 102.804 246.824 81.0414 282.651 86.4382Z" fill="#64EDFF"/>
<path d="M272.511 109.701C237.789 104.47 206.156 123.318 201.866 151.799C197.577 180.272 222.253 207.602 256.975 212.832C291.706 218.064 323.33 199.215 327.618 170.742C331.909 142.261 307.241 114.932 272.511 109.701Z" fill="#00A4FF"/>
<path fill-rule="evenodd" clip-rule="evenodd" d="M256.764 214.192C292.184 219.527 324.569 200.124 328.963 170.953C333.358 141.773 308.125 113.7 272.705 108.364C237.294 103.03 204.901 122.423 200.506 151.603C196.112 180.774 221.352 208.858 256.764 214.192ZM272.299 111.06C306.225 116.171 330.43 142.851 326.258 170.545C322.088 198.231 291.098 216.597 257.171 211.487C223.245 206.376 199.04 179.696 203.211 152.01C207.382 124.316 238.372 105.95 272.299 111.06Z" fill="#64EDFF"/>
<path d="M257.893 206.72C227.434 202.132 205.693 178.826 209.332 154.665C212.972 130.504 240.614 114.638 271.072 119.226C301.531 123.814 323.272 147.119 319.633 171.28C315.993 195.441 288.351 211.308 257.893 206.72Z" fill="#6C6C6C"/>
<path fill-rule="evenodd" clip-rule="evenodd" d="M257.649 208.34C288.958 213.057 317.491 196.544 321.259 171.528C325.027 146.512 302.627 122.318 271.317 117.602C240.007 112.885 211.474 129.407 207.705 154.423C203.937 179.439 226.339 203.624 257.649 208.34ZM270.828 120.846C300.344 125.292 321.514 147.809 318.015 171.039C314.517 194.261 287.653 209.542 258.137 205.096C228.622 200.65 207.451 178.133 210.949 154.912C214.449 131.681 241.313 116.4 270.828 120.846Z" fill="#6C6C6C"/>
<path d="M209.471 150.679C209.399 152.359 209.423 154.062 209.544 155.78C209.928 161.271 211.285 166.483 213.43 171.272C212.587 172.429 211.873 173.623 211.294 174.829C218.068 190.711 235.388 203.563 257.16 206.842C261.041 207.427 264.873 207.67 268.614 207.619C295.211 204.438 315.273 190.799 314.224 175.978C313.934 171.785 311.976 167.919 308.713 164.552C310.17 159.502 310.776 154.16 310.384 148.658C310.166 145.543 309.636 142.525 308.826 139.619C300.059 129.402 286.41 121.769 270.34 119.348C241.637 115.024 215.443 128.861 209.471 150.679Z" fill="#B0401E"/>
<path fill-rule="evenodd" clip-rule="evenodd" d="M256.953 208.183C260.834 208.768 264.761 209.043 268.63 208.984C268.678 208.985 268.727 208.98 268.777 208.97C296.56 205.652 316.684 191.425 315.591 175.874C315.292 171.68 313.49 167.738 310.23 164.173C311.602 159.082 312.113 153.835 311.741 148.562C311.519 145.41 310.978 142.282 310.141 139.254C310.081 139.055 309.99 138.879 309.858 138.732C300.585 127.916 286.256 120.36 270.539 117.993C256.431 115.868 242.306 117.998 230.744 123.995C219.181 130 211.146 139.349 208.147 150.315C208.12 150.419 208.104 150.522 208.101 150.624C208.028 152.367 208.051 154.133 208.178 155.87C208.55 161.142 209.786 166.264 211.866 171.116C211.161 172.14 210.56 173.188 210.058 174.243C209.887 174.597 209.88 175.002 210.033 175.369C213.514 183.523 219.655 190.885 227.806 196.669C236.144 202.59 246.222 206.567 256.953 208.183ZM268.517 206.255C264.821 206.304 261.063 206.045 257.359 205.487C236.843 202.397 219.83 190.685 212.792 174.872C213.279 173.923 213.862 172.99 214.534 172.069C214.819 171.678 214.871 171.153 214.667 170.706C212.537 165.947 211.273 160.893 210.902 155.675C210.787 154.094 210.768 152.481 210.818 150.889C216.793 129.469 242.251 116.498 270.131 120.698C285.097 122.952 298.723 130.076 307.582 140.279C308.333 143.041 308.817 145.889 309.017 148.758C309.381 153.966 308.843 159.155 307.392 164.171C307.258 164.639 307.389 165.147 307.725 165.496C310.87 168.745 312.595 172.295 312.859 176.068C313.832 189.893 294.361 203.142 268.517 206.255Z" fill="#6C6C6C"/>
<path d="M274.7 124.648C268.285 125.101 262.666 128.133 258.776 132.655C254.258 128.503 248.105 126.139 241.498 126.608C224.1 127.838 210.229 150.093 225.447 164.599C220.323 163.565 216.772 167.244 213.443 171.28C212.6 172.437 211.887 173.631 211.307 174.837C218.082 190.719 235.401 203.571 257.173 206.85C261.054 207.435 264.886 207.678 268.628 207.627C295.224 204.446 315.287 190.807 314.238 175.986C313.947 171.793 311.989 167.927 308.726 164.561C304.568 161.801 299.733 161.066 294.223 162.358C297.826 157.947 299.819 152.217 299.386 146.086C298.494 133.349 287.437 123.747 274.7 124.648Z" fill="#FFCAA1"/>
<path d="M208.594 154.804C207.567 161.619 208.557 168.368 211.2 174.651C211.76 173.515 212.443 172.397 213.233 171.296C211.087 166.516 209.739 161.304 209.356 155.805C209.248 154.36 209.221 152.919 209.247 151.485C208.983 152.575 208.763 153.681 208.594 154.804Z" fill="#FFCAA1"/>
<path fill-rule="evenodd" clip-rule="evenodd" d="M210.992 175.996C211.045 176.004 211.099 176.009 211.153 176.011C211.692 176.029 212.189 175.733 212.424 175.253C212.945 174.193 213.584 173.132 214.337 172.097C214.623 171.697 214.682 171.182 214.479 170.735C212.348 165.976 211.075 160.92 210.713 155.704C210.614 154.324 210.581 152.918 210.612 151.512C210.628 150.809 210.121 150.209 209.429 150.123C208.737 150.036 208.093 150.473 207.918 151.152C207.636 152.302 207.409 153.452 207.237 154.593C206.196 161.505 207.105 168.431 209.94 175.178C210.126 175.621 210.524 175.925 210.992 175.996ZM211.67 171.135C211.599 171.245 211.526 171.354 211.449 171.463C211.066 170.327 210.74 169.187 210.472 168.044C210.834 169.086 211.233 170.117 211.67 171.135Z" fill="#6C6C6C"/>
<path d="M210.596 173.105C211.384 172.853 212.1 172.481 212.741 172.008C212.904 171.762 213.065 171.533 213.238 171.288C211.479 167.361 210.253 163.136 209.655 158.706C209.196 158.628 208.715 158.583 208.235 158.592C208.02 163.559 208.865 168.45 210.596 173.105Z" fill="#FF9999"/>
<path fill-rule="evenodd" clip-rule="evenodd" d="M210.387 174.469C210.591 174.499 210.801 174.486 211.01 174.418C211.922 174.121 212.783 173.691 213.557 173.111C213.679 173.021 213.777 172.909 213.868 172.787C214.02 172.557 214.181 172.328 214.342 172.099C214.627 171.708 214.678 171.192 214.483 170.746C212.745 166.86 211.574 162.751 211.007 158.534C210.924 157.943 210.47 157.477 209.889 157.371C209.325 157.277 208.762 157.229 208.21 157.236C207.485 157.244 206.893 157.815 206.865 158.543C206.646 163.599 207.474 168.66 209.317 173.593C209.498 174.073 209.919 174.398 210.387 174.469ZM211.653 171.107C211.566 171.166 211.479 171.222 211.393 171.275C211.05 170.229 210.753 169.181 210.501 168.131C210.856 169.136 211.24 170.128 211.653 171.107Z" fill="#6C6C6C"/>
<path d="M259.867 172.889C260.12 175.49 260.256 177.229 260.512 180.949C260.559 181.598 261.051 182.115 261.67 182.208C261.77 182.223 261.869 182.226 261.967 182.217C262.724 182.168 263.293 181.513 263.243 180.764C262.971 176.827 262.828 175.093 262.546 172.237C263.55 171.218 265.045 170.833 266.448 171.277C267.165 171.503 267.93 171.103 268.164 170.388C268.39 169.671 267.991 168.897 267.275 168.672C264.96 167.941 262.515 168.524 260.807 170.118C258.894 168.82 256.371 168.587 254.239 169.611C253.557 169.943 253.271 170.758 253.593 171.44C253.926 172.114 254.74 172.408 255.423 172.077C256.916 171.36 258.731 171.696 259.867 172.889Z" fill="#6C6C6C"/>
<g opacity="0.3">
<g opacity="0.3">
<path opacity="0.3" d="M298.506 171.719C296.251 177.87 289.533 182.617 283.67 186.914C295.026 183.821 301.066 179.575 301.789 174.175C302.178 170.509 302.849 170.014 298.506 171.719Z" fill="#6C6C6C"/>
</g>
</g>
<path d="M238.989 177.298C235.838 175.941 233.162 177.384 235.305 181.77C244.496 200.599 281.09 198.808 288.395 179.164C290.095 174.592 287.295 173.417 284.29 175.082C271.149 182.355 252.782 183.254 238.989 177.298Z" fill="white"/>
<path fill-rule="evenodd" clip-rule="evenodd" d="M254.098 195.119C256.796 195.585 259.643 195.755 262.585 195.614C275.169 194.994 285.523 188.703 289.011 179.561C289.063 179.47 289.099 179.372 289.118 179.271C290.208 176.227 289.305 174.845 288.655 174.285C287.577 173.359 285.765 173.416 283.927 174.433C270.888 181.645 252.943 182.526 239.263 176.62C237.339 175.784 235.528 175.908 234.549 176.941C233.949 177.565 233.168 179.068 234.631 182.081C237.949 188.866 245.185 193.58 254.098 195.119ZM262.51 194.152C273.351 193.622 282.425 188.746 286.504 181.478C285.213 182.292 283.855 182.97 282.477 183.561C280.244 184.51 277.947 185.236 275.627 185.848C275.405 185.907 275.177 185.783 275.1 185.563C275.024 185.338 275.146 185.086 275.378 185.011C277.619 184.257 279.819 183.393 281.906 182.334C283.982 181.273 285.953 180.012 287.582 178.449L287.589 178.444L287.633 178.403C287.72 178.331 287.817 178.278 287.918 178.243C288.314 176.882 288.244 175.861 287.705 175.395C287.535 175.25 287.315 175.158 287.062 175.114C286.419 175.003 285.541 175.209 284.635 175.708C271.221 183.128 252.755 184.034 238.686 177.958C237.353 177.388 236.147 177.38 235.606 177.948C235.11 178.469 235.141 179.498 235.675 180.819C235.807 180.847 235.935 180.905 236.05 180.994L236.055 180.995C237.859 182.392 239.98 183.456 242.182 184.304C244.389 185.152 246.699 185.794 249.034 186.324C249.238 186.372 249.369 186.564 249.339 186.771C249.307 186.99 249.106 187.138 248.887 187.106C246.493 186.741 244.1 186.261 241.755 185.546C240.267 185.093 238.788 184.545 237.365 183.844C242.125 190.704 251.653 194.688 262.51 194.152Z" fill="#6C6C6C"/>
<path fill-rule="evenodd" clip-rule="evenodd" d="M268.636 208.984C264.767 209.043 260.84 208.768 256.959 208.183C246.228 206.567 236.151 202.59 227.813 196.669C219.662 190.885 213.52 183.523 210.039 175.369C209.886 175.002 209.893 174.597 210.064 174.243C210.566 173.188 211.167 172.14 211.873 171.116C209.792 166.264 208.557 161.142 208.185 155.87C208.058 154.133 208.034 152.367 208.107 150.624C208.11 150.522 208.126 150.419 208.154 150.315C211.153 139.349 219.187 130 230.75 123.995C242.312 117.998 256.437 115.868 270.545 117.993C286.262 120.36 300.592 127.916 309.865 138.732C309.996 138.879 310.087 139.055 310.148 139.254C310.984 142.282 311.526 145.41 311.747 148.562C312.119 153.835 311.609 159.082 310.236 164.173C313.496 167.738 315.298 171.68 315.597 175.874C316.69 191.425 296.566 205.652 268.783 208.97C268.733 208.98 268.684 208.985 268.636 208.984ZM257.365 205.487C261.069 206.045 264.827 206.304 268.523 206.255C294.368 203.142 313.838 189.893 312.865 176.068C312.602 172.295 310.876 168.745 307.732 165.496C307.61 165.369 307.514 165.221 307.449 165.062C303.676 162.802 299.419 162.267 294.456 163.423C293.94 163.544 293.378 163.252 293.183 162.752C293.047 162.388 293.11 161.973 293.364 161.667C296.932 157.305 298.683 151.801 298.284 146.172C297.433 134.057 286.871 124.89 274.756 125.741C268.844 126.161 263.463 128.876 259.594 133.374C259.406 133.599 259.123 133.737 258.832 133.748C258.531 133.766 258.239 133.667 258.025 133.463C253.515 129.322 247.667 127.274 241.563 127.702C233.358 128.283 225.776 134.445 222.684 143.029C219.73 151.235 221.685 159.684 227.914 165.622C228.26 165.963 228.352 166.492 228.125 166.919C227.897 167.355 227.411 167.58 226.936 167.49C222.464 166.585 217.875 168.074 214.792 171.392C214.771 171.634 214.687 171.869 214.541 172.069C213.869 172.99 213.285 173.923 212.799 174.872C219.836 190.685 236.849 202.397 257.365 205.487ZM307.786 162.74C308.943 158.171 309.353 153.472 309.024 148.758C308.823 145.889 308.339 143.041 307.589 140.279C298.729 130.076 285.103 122.952 270.138 120.698C242.258 116.498 216.799 129.469 210.824 150.889C210.774 152.481 210.794 154.094 210.908 155.675C211.238 160.309 212.271 164.813 213.991 169.098C216.826 166.468 220.542 165.026 224.386 165.036C219.132 158.685 217.716 150.381 220.626 142.285C224.001 132.903 232.357 126.162 241.412 125.528C247.753 125.082 253.838 127.056 258.675 131.13C262.855 126.669 268.473 123.999 274.604 123.567C287.927 122.626 299.527 132.7 300.467 146.022C300.833 151.275 299.504 156.436 296.684 160.811C300.743 160.329 304.463 160.971 307.786 162.74Z" fill="#6C6C6C"/>
<path d="M339.185 139.521C331.963 139.455 326.041 146.238 325.963 154.679C325.885 163.12 331.672 170.012 338.894 170.079C346.115 170.154 352.038 163.362 352.116 154.921C352.194 146.48 346.398 139.586 339.185 139.521Z" fill="white"/>
<path fill-rule="evenodd" clip-rule="evenodd" d="M337.059 171.609C337.66 171.699 338.271 171.746 338.891 171.749C342.863 171.787 346.608 170.028 349.427 166.8C352.18 163.644 353.718 159.437 353.759 154.968C353.854 145.635 347.313 137.987 339.207 137.905C331.091 137.831 324.415 145.359 324.329 154.694C324.289 159.162 325.748 163.396 328.438 166.604C330.768 169.378 333.779 171.115 337.059 171.609ZM340.522 141.294C346.189 142.148 350.548 147.957 350.482 154.936C350.45 158.628 349.199 162.074 346.958 164.647C344.774 167.139 341.921 168.499 338.915 168.471C335.917 168.445 333.083 167.032 330.952 164.496C328.761 161.879 327.575 158.41 327.607 154.717C327.682 147.198 332.872 141.127 339.174 141.182C339.631 141.19 340.08 141.228 340.522 141.294Z" fill="#64EDFF"/>
<path d="M344.336 168.786C348.877 166.424 352.07 161.128 352.134 154.945C352.193 147.948 348.223 142.016 342.754 140.153C342.472 140.11 342.176 140.093 341.878 140.093C336.127 140.041 331.416 146.527 331.332 154.587C331.258 162.64 335.854 169.217 341.605 169.27C342.552 169.286 343.463 169.116 344.336 168.786Z" fill="white"/>
<path fill-rule="evenodd" clip-rule="evenodd" d="M340.294 170.549C340.713 170.612 341.132 170.645 341.554 170.649C342.646 170.659 343.732 170.471 344.777 170.076C344.828 170.06 344.879 170.038 344.932 170.009C350.052 167.345 353.4 161.44 353.462 154.968C353.528 147.574 349.3 140.952 343.16 138.861C343.073 138.836 342.983 138.816 342.889 138.802C342.534 138.758 342.185 138.732 341.851 138.727C335.369 138.673 330.022 145.778 329.935 154.579C329.893 158.758 331.033 162.718 333.13 165.718C335.041 168.456 337.554 170.137 340.294 170.549ZM343.748 167.544C343.041 167.799 342.308 167.924 341.586 167.914C339.258 167.889 337.054 166.554 335.372 164.158C333.595 161.612 332.632 158.221 332.671 154.602C332.739 147.308 336.845 141.417 341.828 141.463C342.02 141.468 342.214 141.479 342.41 141.497C347.378 143.266 350.789 148.77 350.727 154.944C350.675 160.388 347.944 165.319 343.748 167.544Z" fill="#64EDFF"/>
<path d="M295.349 99.4088C292.427 105.848 295.488 107.25 301.643 103.602C306.188 100.915 311.207 99.9986 315.979 99.533C321.052 95.1986 316.408 87.9811 307.726 90.0452C303.397 90.8125 298.136 93.2744 295.349 99.4088Z" fill="white"/>
<path fill-rule="evenodd" clip-rule="evenodd" d="M295.596 107.162C297.311 107.42 299.616 106.7 302.476 104.998C306.962 102.347 311.898 101.562 316.137 101.152C316.468 101.112 316.787 100.979 317.045 100.765C319.66 98.5279 320.431 95.272 319.007 92.481C317.474 89.4567 313.282 87.0353 307.386 88.4253C303.763 89.0729 297.23 91.271 293.849 98.7169C292.209 102.339 292.168 104.891 293.744 106.313C294.26 106.77 294.877 107.053 295.596 107.162ZM315.265 97.9381C311.021 98.3837 305.658 99.3024 300.804 102.178C297.558 104.103 296.136 103.997 295.93 103.867C295.939 103.868 295.498 103.015 296.836 100.071C299.61 93.9617 305.023 92.1735 308.004 91.6463C308.035 91.6389 308.067 91.6316 308.098 91.6243C312.289 90.6283 315.125 92.0861 316.089 93.9671C316.764 95.3073 316.469 96.7273 315.265 97.9381Z" fill="#64EDFF"/>
<path d="M223.047 103.397C222.617 104.933 223.783 106.491 225.296 107.009C226.799 107.533 228.698 107.051 229.292 105.568C231.725 99.4974 237.056 93.9993 242.881 90.9172C236.195 85.7878 228.046 85.2112 223.047 103.397Z" fill="white"/>
<path fill-rule="evenodd" clip-rule="evenodd" d="M225.703 108.752C227.709 109.054 230.01 108.243 230.85 106.146C233.053 100.647 237.973 95.3492 243.679 92.3394C244.17 92.079 244.498 91.5859 244.546 91.0236C244.593 90.4703 244.358 89.9286 243.912 89.5902C239.805 86.4312 235.932 85.432 232.41 86.61C227.715 88.19 224.041 93.6754 221.49 102.928C220.866 105.212 222.313 107.671 224.788 108.523C225.079 108.631 225.393 108.705 225.703 108.752ZM239.835 90.7931C234.474 94.2707 229.981 99.497 227.806 104.928C227.575 105.508 226.573 105.673 225.86 105.43C225.147 105.178 224.481 104.436 224.658 103.803C226.861 95.7816 229.909 90.9072 233.451 89.723C235.337 89.085 237.478 89.4527 239.835 90.7931Z" fill="#64EDFF"/>
<g opacity="0.3">
<g opacity="0.3">
<path opacity="0.3" d="M346.36 155.367C346.457 161.204 343.665 166.714 338.906 170.101C346.519 169.377 352.301 162.916 352.179 155.268C352.056 147.619 346.076 141.349 338.437 140.867C343.303 144.095 346.264 149.522 346.36 155.367Z" fill="#6C6C6C"/>
</g>
</g>
<g opacity="0.3">
<g opacity="0.3">
<path opacity="0.3" d="M230.496 106.467C234.587 101.678 240.284 97.6239 247.588 94.3065C251.002 88.9266 249.429 87.7856 242.86 90.8823C238.729 92.1404 234.603 97.3316 230.496 106.467Z" fill="#6C6C6C"/>
</g>
</g>
<g opacity="0.3">
<g opacity="0.3">
<path opacity="0.3" d="M316.896 92.2118C315.35 90.2342 312.557 89.7502 310.438 91.0944C311.875 90.678 313.394 91.395 313.983 92.7674C314.561 94.1473 314.207 96.2003 312.745 96.4863C306.715 97.6844 300.873 99.7967 295.432 104.229C297.991 104.886 304.983 103.059 316.409 98.7468C318.232 97.0236 318.442 94.1895 316.896 92.2118Z" fill="#6C6C6C"/>
</g>
</g>
<g opacity="0.3">
<g opacity="0.3">
<path opacity="0.3" d="M239.656 89.3784C231.024 94.4304 226.741 100.159 226.807 106.563C230.952 101.01 235.694 96.0589 241.032 91.7101C241.192 91.7281 240.733 90.9509 239.656 89.3784Z" fill="#6C6C6C"/>
</g>
</g>
<path fill-rule="evenodd" clip-rule="evenodd" d="M258.035 206.862C289.045 211.533 317.302 195.223 321.025 170.507C324.748 145.792 302.549 121.881 271.54 117.21C240.53 112.539 212.273 128.849 208.55 153.565C204.827 178.28 227.026 202.191 258.035 206.862ZM271.215 119.367C301.031 123.858 322.403 146.659 318.859 170.181C315.316 193.703 288.177 209.187 258.361 204.696C228.545 200.205 207.172 177.413 210.716 153.891C214.259 130.369 241.399 114.876 271.215 119.367Z" fill="#6C6C6C"/>
<path d="M235.171 157.933C236.22 163.154 239.773 166.636 243.112 165.711C246.443 164.784 248.305 159.803 247.257 154.583C246.208 149.362 242.655 145.88 239.316 146.805C235.976 147.731 234.123 152.713 235.171 157.933Z" fill="#6C6C6C"/>
<path d="M237.161 151.763C236.843 153.578 237.505 155.305 238.633 155.619C239.762 155.925 240.932 154.7 241.251 152.877C241.561 151.061 240.9 149.325 239.771 149.02C238.642 148.714 237.472 149.939 237.161 151.763Z" fill="white"/>
<path d="M243.045 160.833C242.704 161.722 242.872 162.705 243.419 163.032C243.977 163.351 244.706 162.891 245.048 162.003C245.39 161.114 245.221 160.13 244.665 159.802C244.116 159.485 243.387 159.944 243.045 160.833Z" fill="white"/>
<path d="M278.163 145.17C274.828 144.803 271.983 148.687 271.805 153.831C271.616 158.983 274.172 163.445 277.499 163.801C280.825 164.167 283.679 160.284 283.857 155.14C284.037 149.987 281.49 145.527 278.163 145.17Z" fill="#6C6C6C"/>
<path d="M278.06 147.259C277.031 147.728 276.667 149.481 277.254 151.169C277.84 152.858 279.146 153.85 280.176 153.372C281.205 152.904 281.569 151.15 280.982 149.462C280.396 147.774 279.088 146.79 278.06 147.259Z" fill="white"/>
<path d="M275.081 158.379C274.596 158.777 274.586 159.742 275.054 160.536C275.522 161.33 276.286 161.662 276.771 161.265C277.247 160.866 277.256 159.9 276.788 159.107C276.32 158.313 275.555 157.99 275.081 158.379Z" fill="white"/>
<g opacity="0.2">
<g opacity="0.2">
<g opacity="0.2">
<path opacity="0.2" d="M310.042 158.409C310.502 155.232 310.631 151.979 310.398 148.663C310.18 145.547 309.65 142.529 308.84 139.623C300.073 129.407 286.424 121.773 270.354 119.352C241.651 115.029 215.457 128.865 209.485 150.683C209.413 152.363 209.437 154.066 209.558 155.784C209.562 155.875 209.577 155.958 209.581 156.049C216.486 135.294 242.005 122.341 269.894 126.542C285.965 128.963 299.614 136.597 308.38 146.813C309.19 149.719 309.721 152.737 309.939 155.853C309.999 156.712 310.026 157.556 310.042 158.409Z" fill="#6C6C6C"/>
</g>
</g>
<g opacity="0.2">
<g opacity="0.2">
<path opacity="0.2" d="M211.441 174.55C211.391 174.642 211.341 174.734 211.3 174.827C211.714 175.799 212.166 176.759 212.656 177.707C212.215 176.673 211.804 175.617 211.441 174.55Z" fill="#6C6C6C"/>
</g>
</g>
</g>
<path fill-rule="evenodd" clip-rule="evenodd" d="M275.012 69.5661C276.845 74.768 276.485 80.1237 275.585 83.5143L272.487 82.692C273.256 79.7945 273.567 75.1107 271.989 70.6309C270.44 66.2318 267.05 61.9522 260.217 59.6878L261.225 56.6455C269.05 59.2387 273.152 64.2833 275.012 69.5661Z" fill="#64EDFF"/>
<path d="M267.148 58.6225C266.692 61.6495 263.868 63.7338 260.841 63.2778C257.814 62.8218 255.73 59.9983 256.186 56.9712C256.642 53.9441 259.466 51.8599 262.493 52.3159C265.52 52.7718 267.604 55.5954 267.148 58.6225Z" fill="#64EDFF"/>
<path fill-rule="evenodd" clip-rule="evenodd" d="M288.349 62.124C288.35 62.1236 288.347 62.1381 288.334 62.1687C288.341 62.1398 288.347 62.1245 288.349 62.124ZM287.54 63.2478C286.807 63.1943 285.842 63.21 284.642 63.3352C281.167 63.6974 276.446 64.8959 271.364 66.9092C266.283 68.9226 262.022 71.2828 259.242 73.3985C258.281 74.1296 257.568 74.779 257.07 75.32C257.803 75.3735 258.768 75.3578 259.969 75.2326C263.443 74.8704 268.164 73.6719 273.246 71.6585C278.328 69.6452 282.589 67.2849 285.368 65.1692C286.329 64.4382 287.043 63.7887 287.54 63.2478ZM255.711 75.0552C255.713 75.0545 255.728 75.0611 255.753 75.0773C255.722 75.064 255.71 75.0559 255.711 75.0552ZM256.261 76.4437C256.26 76.4441 256.263 76.4297 256.277 76.399C256.269 76.4279 256.263 76.4433 256.261 76.4437ZM288.857 63.4905C288.888 63.5037 288.901 63.5118 288.899 63.5125C288.898 63.5133 288.882 63.5066 288.857 63.4905ZM274.427 74.6382C284.974 70.4593 292.575 64.6744 291.403 61.7173C290.231 58.7602 280.731 59.7506 270.184 63.9295C259.636 68.1084 252.036 73.8933 253.207 76.8505C254.379 79.8076 263.879 78.8171 274.427 74.6382Z" fill="#64EDFF"/>
<path d="M288.401 220.864L234.32 223.799C233.372 223.85 232.629 224.634 232.629 225.584V258.4C232.629 259.349 233.372 260.133 234.32 260.185L288.4 263.119C289.424 263.175 290.285 262.36 290.285 261.334V222.649C290.285 221.624 289.424 220.808 288.401 220.864Z" stroke="#64EDFF" stroke-width="1.34084"/>
<ellipse cx="1.78779" cy="2.23473" rx="1.78779" ry="2.23473" transform="matrix(-1 0 0 1 257.656 237.746)" fill="#64EDFF"/>
<ellipse cx="1.78779" cy="2.23473" rx="1.78779" ry="2.23473" transform="matrix(-1 0 0 1 257.656 245.791)" fill="#64EDFF"/>
<ellipse cx="1.78779" cy="2.23473" rx="1.78779" ry="2.23473" transform="matrix(-1 0 0 1 251.402 237.746)" fill="#64EDFF"/>
<ellipse cx="1.78779" cy="2.23473" rx="1.78779" ry="2.23473" transform="matrix(-1 0 0 1 251.402 245.791)" fill="#64EDFF"/>
<ellipse cx="1.78779" cy="2.23473" rx="1.78779" ry="2.23473" transform="matrix(-1 0 0 1 245.145 237.746)" fill="#64EDFF"/>
<ellipse cx="1.78779" cy="2.23473" rx="1.78779" ry="2.23473" transform="matrix(-1 0 0 1 245.145 245.791)" fill="#64EDFF"/>
<ellipse cx="1.78779" cy="2.23473" rx="1.78779" ry="2.23473" transform="matrix(-1 0 0 1 238.887 237.746)" fill="#64EDFF"/>
<ellipse cx="1.78779" cy="2.23473" rx="1.78779" ry="2.23473" transform="matrix(-1 0 0 1 238.887 245.791)" fill="#64EDFF"/>
<path d="M258.551 232.364C258.551 231.386 257.758 230.594 256.78 230.594H236.889C236.017 230.594 235.31 231.301 235.31 232.173C235.31 233.034 235.998 233.736 236.859 233.752L256.746 234.135C257.737 234.154 258.551 233.356 258.551 232.364Z" fill="#64EDFF"/>
<path d="M286.262 251.481C286.262 250.545 285.531 249.771 284.597 249.717L264.687 248.569C263.783 248.517 263.02 249.236 263.02 250.142C263.02 250.965 263.654 251.65 264.475 251.713L284.359 253.243C285.386 253.322 286.262 252.51 286.262 251.481Z" fill="#64EDFF"/>
<path d="M285.367 231.081C285.367 230.078 284.543 229.272 283.541 229.294L266.557 229.663C265.585 229.684 264.808 230.478 264.808 231.45V245.867C264.808 246.824 265.561 247.612 266.518 247.653L283.502 248.392C284.519 248.436 285.367 247.623 285.367 246.605V231.081Z" fill="#64EDFF"/>
<path d="M328.61 17.9251C332.877 4.69761 347.071 -2.56246 360.313 1.70929L530.92 56.7445C544.162 61.0162 551.438 75.2022 547.171 88.4297L520.665 170.599C516.398 183.827 502.204 191.087 488.961 186.815L318.354 131.78C305.112 127.508 297.836 113.322 302.103 100.095L328.61 17.9251Z" fill="#EEE8FF"/>
<mask id="mask0_26325_34614" style="mask-type:alpha" maskUnits="userSpaceOnUse" x="300" y="0" width="249" height="189">
<path d="M328.61 17.9251C332.877 4.69761 347.071 -2.56246 360.313 1.70929L530.92 56.7445C544.162 61.0162 551.438 75.2022 547.171 88.4297L520.665 170.599C516.398 183.827 502.204 191.087 488.961 186.815L318.354 131.78C305.112 127.508 297.836 113.322 302.103 100.095L328.61 17.9251Z" fill="#EEE8FF"/>
</mask>
<g mask="url(#mask0_26325_34614)">
<g opacity="0.7">
<path d="M645.257 -9.93182C653.231 -1.41553 652.806 11.939 644.307 19.8964L534.813 122.415C526.314 130.373 512.961 129.92 504.987 121.403L455.453 68.4999C447.48 59.9836 447.905 46.629 456.404 38.6717L565.898 -63.8473C574.397 -71.8047 587.75 -71.3516 595.724 -62.8353L645.257 -9.93182Z" fill="#C6B7EE"/>
<rect x="515.785" y="162.408" width="32.6053" height="56.5159" rx="9.02466" transform="rotate(-144.702 515.785 162.408)" fill="url(#paint12_linear_26325_34614)"/>
</g>
</g>
<path opacity="0.8" d="M403.391 21.168L426.272 28.1414L422.036 157.349L398.645 154.681L403.391 21.168Z" fill="url(#paint13_linear_26325_34614)"/>
<path opacity="0.8" d="M432.945 28.8906L455.827 35.8641L451.591 165.071L428.199 162.404L432.945 28.8906Z" fill="url(#paint14_linear_26325_34614)"/>
<path d="M332.221 20.8193C336.193 8.50656 349.564 1.78512 362.097 5.82806L526.867 58.9803C539.4 63.0232 546.322 76.291 542.35 88.6038L517.134 166.773C513.162 179.086 499.791 185.808 487.258 181.765L322.488 128.612C309.955 124.569 303.033 111.302 307.005 98.9889L332.221 20.8193Z" stroke="#7E54F1" stroke-opacity="0.5" stroke-width="1.00274"/>
<path d="M341.451 46.9421C343.933 39.2475 352.275 35.0517 360.083 37.5705L390.037 47.2331C397.845 49.7519 402.163 58.0315 399.681 65.7261L387.244 104.28C384.762 111.975 376.42 116.17 368.612 113.652L338.658 103.989C330.85 101.47 326.532 93.1906 329.014 85.496L341.451 46.9421Z" fill="#9084D1" fill-opacity="0.22"/>
<path d="M375.866 76.2476C379.826 76.9201 383.82 74.5134 385.133 70.4653C386.421 66.4732 384.665 62.2498 381.164 60.4292M377.832 87.2366C381.316 88.9816 383.448 91.1322 382.568 93.8601C381.962 95.738 380.364 96.567 378.171 96.7012M356.181 81.5284C364.899 84.3407 371.911 88.1059 370.157 93.5447C368.402 98.9835 360.549 97.9964 351.781 95.1681C343.061 92.355 336.047 88.6027 337.802 83.1615C339.557 77.7203 347.411 78.6994 356.181 81.5284ZM358.685 73.766C352.961 71.9196 349.862 65.6412 351.765 59.7421C353.668 53.8429 359.852 50.559 365.576 52.4054C371.297 54.2511 374.396 60.5295 372.493 66.4286C370.618 72.3127 364.468 75.6073 358.758 73.7897L358.685 73.766Z" stroke="white" stroke-width="1.50411" stroke-linecap="round" stroke-linejoin="round"/>
<path fill-rule="evenodd" clip-rule="evenodd" d="M511.753 126.085L406.895 91.3314L409.32 83.9688L514.179 118.722L511.753 126.085Z" fill="white"/>
<path fill-rule="evenodd" clip-rule="evenodd" d="M505.843 143.138L400.985 108.384L403.41 101.021L508.269 135.775L505.843 143.138Z" fill="white"/>
<path d="M428.656 63.677L425.077 74.7715L422.374 73.8997L424.521 67.2462L419.893 73.0993L417.712 72.3957L417.366 64.9209L415.215 71.5902L412.513 70.7184L416.091 59.624L419.284 60.6538L419.92 69.3389L425.479 62.6523L428.656 63.677Z" fill="url(#paint15_linear_26325_34614)"/>
<path d="M437.012 73.5964C436.931 73.8493 436.83 74.1076 436.71 74.3713L430.594 72.3983C430.459 72.9598 430.497 73.4373 430.707 73.8309C430.932 74.2173 431.27 74.4836 431.723 74.6298C432.398 74.8473 432.958 74.7141 433.405 74.2301L436.282 75.158C435.947 75.6899 435.51 76.1247 434.971 76.4626C434.442 76.8038 433.845 77.0126 433.181 77.0891C432.516 77.1656 431.826 77.0882 431.11 76.8571C430.246 76.5784 429.536 76.1459 428.981 75.5597C428.425 74.9734 428.068 74.2766 427.91 73.4694C427.752 72.6622 427.82 71.8003 428.116 70.8837C428.412 69.9671 428.854 69.2258 429.444 68.6599C430.044 68.0974 430.741 67.7406 431.534 67.5893C432.327 67.4381 433.161 67.5035 434.036 67.7856C434.889 68.0609 435.59 68.4847 436.138 69.0571C436.687 69.6294 437.038 70.307 437.193 71.0897C437.358 71.8758 437.298 72.7114 437.012 73.5964ZM434.476 71.9931C434.625 71.5295 434.586 71.1097 434.359 70.7338C434.131 70.3579 433.78 70.0935 433.306 69.9406C432.853 69.7944 432.426 69.8021 432.025 69.9635C431.634 70.1283 431.324 70.4412 431.094 70.9021L434.476 71.9931Z" fill="url(#paint16_linear_26325_34614)"/>
<path d="M451.308 73.3923C452.404 73.7457 453.166 74.358 453.595 75.2291C454.034 76.1036 454.063 77.1309 453.682 78.3109L452.02 83.463L449.334 82.5963L450.878 77.8077C451.062 77.2388 451.05 76.7522 450.843 76.3481C450.65 75.9369 450.29 75.6463 449.763 75.4764C449.237 75.3064 448.769 75.3302 448.362 75.5477C447.968 75.7581 447.68 76.1478 447.496 76.7167L445.951 81.5053L443.265 80.6387L444.81 75.85C444.993 75.2811 444.981 74.7946 444.774 74.3904C444.581 73.9792 444.221 73.6886 443.695 73.5187C443.168 73.3487 442.701 73.3725 442.293 73.59C441.9 73.8004 441.611 74.1901 441.427 74.759L439.883 79.5477L437.18 78.6759L440.025 69.8572L442.728 70.729L442.371 71.8353C442.764 71.5549 443.215 71.3807 443.726 71.3127C444.24 71.2342 444.776 71.285 445.334 71.4652C445.998 71.6793 446.542 72.0118 446.967 72.4629C447.402 72.9173 447.682 73.4555 447.807 74.0774C448.269 73.6913 448.812 73.4305 449.438 73.2949C450.063 73.1593 450.686 73.1917 451.308 73.3923Z" fill="url(#paint17_linear_26325_34614)"/>
<path d="M459.266 77.4423C459.651 77.113 460.122 76.8984 460.677 76.7985C461.233 76.6985 461.816 76.7471 462.427 76.9443C463.154 77.1788 463.753 77.5756 464.224 78.1347C464.696 78.6938 464.989 79.3701 465.105 80.1637C465.232 80.9607 465.149 81.8123 464.857 82.7184C464.565 83.6245 464.133 84.3691 463.561 84.9524C463.003 85.5284 462.367 85.911 461.655 86.0999C460.946 86.2784 460.228 86.2503 459.501 86.0158C458.879 85.8153 458.376 85.5191 457.99 85.1272C457.608 84.7248 457.352 84.2757 457.221 83.7798L456.824 85.0125L454.121 84.1407L457.894 72.4457L460.596 73.3175L459.266 77.4423ZM462.107 81.8313C462.325 81.157 462.305 80.569 462.048 80.0674C461.805 79.5586 461.41 79.2158 460.862 79.0391C460.324 78.8657 459.803 78.9128 459.298 79.1803C458.804 79.4512 458.448 79.9238 458.23 80.5981C458.013 81.2724 458.025 81.8639 458.268 82.3727C458.522 82.8849 458.917 83.2277 459.455 83.401C459.992 83.5743 460.513 83.5273 461.018 83.2598C461.527 82.9818 461.89 82.5056 462.107 81.8313Z" fill="url(#paint18_linear_26325_34614)"/>
<path d="M474.839 85.7989C474.758 86.0518 474.657 86.3101 474.537 86.5738L468.421 84.6008C468.286 85.1623 468.324 85.6398 468.535 86.0334C468.759 86.4198 469.098 86.6861 469.551 86.8323C470.225 87.0498 470.786 86.9166 471.232 86.4326L474.109 87.3605C473.774 87.8924 473.337 88.3272 472.798 88.665C472.269 89.0063 471.673 89.2151 471.008 89.2916C470.344 89.3681 469.653 89.2907 468.937 89.0596C468.073 88.7809 467.363 88.3484 466.808 87.7622C466.252 87.1759 465.896 86.4791 465.737 85.6719C465.579 84.8647 465.648 84.0028 465.943 83.0862C466.239 82.1695 466.682 81.4283 467.271 80.8624C467.871 80.2999 468.568 79.943 469.361 79.7918C470.155 79.6406 470.989 79.706 471.863 79.9881C472.717 80.2634 473.417 80.6872 473.966 81.2596C474.514 81.8319 474.865 82.5095 475.02 83.2922C475.185 84.0783 475.125 84.9139 474.839 85.7989ZM472.303 84.1956C472.453 83.732 472.414 83.3122 472.186 82.9363C471.958 82.5604 471.607 82.296 471.133 82.1431C470.68 81.9969 470.253 82.0046 469.852 82.166C469.461 82.3308 469.151 82.6437 468.921 83.1045L472.303 84.1956Z" fill="url(#paint19_linear_26325_34614)"/>
<path d="M480.081 84.4013C480.553 84.0186 481.071 83.7667 481.633 83.6457C482.199 83.5142 482.772 83.5419 483.351 83.7288L482.428 86.5894L481.686 86.3498C481.011 86.1322 480.458 86.1166 480.026 86.3028C479.597 86.4786 479.265 86.9299 479.03 87.6569L477.71 91.7501L475.008 90.8784L477.852 82.0597L480.555 82.9315L480.081 84.4013Z" fill="url(#paint20_linear_26325_34614)"/>
<path d="M381.492 164.895C380.846 164.181 381.492 159.206 381.492 159.206C379.751 153.284 384.039 151.93 390.419 153.639C391.901 149.737 392.842 148.176 394.602 145.857C395.696 144.682 397.777 144.41 398.946 145.256C400.115 146.103 400.778 148.619 400.778 148.619C400.778 148.619 402.03 146.37 403.133 145.927C404.236 145.484 405.546 145.51 408.297 146.572C408.837 145.483 409.203 144.975 410.997 145.941L415.162 148C415.636 148.004 416.921 148.554 418.271 150.721C419.622 152.888 419.389 154.809 419.104 155.498C420.953 155.567 420.5 153.903 420.038 152.794L416.426 143.826L415.62 140.656C414.63 137.15 418.529 136.512 420.544 140.211C424.193 146.533 426.186 150.29 429.371 158.495L423.147 171.884C421.42 174.95 420.587 175.629 416.535 175.077C416.535 175.077 407.677 174.017 405.763 173.75C405.763 173.75 387.642 171.697 381.492 164.895Z" fill="#FC7432"/>
<g opacity="0.4" filter="url(#filter2_f_26325_34614)">
<path d="M390.419 153.638C390.004 154.566 389.007 156.452 388.334 156.567M400.777 148.618C400.267 150.929 399.257 155.702 399.303 156.305M408.296 146.57C409.165 147.214 410.725 148.977 410.01 150.886C409.116 153.272 407.758 158.031 407.236 160.605M415.161 147.999C415.635 148.003 416.92 148.553 418.271 150.72C419.621 152.887 419.388 154.807 419.103 155.497C418.33 157.109 416.908 160.899 417.407 163.166" stroke="black" stroke-width="0.446947"/>
</g>
<path d="M96.2333 232.21L33.6939 229.786L45.9323 292.768L108.912 297.458L96.2333 232.21Z" fill="url(#paint21_linear_26325_34614)"/>
<path d="M96.2333 232.21L138.814 209.359L151.053 272.341L108.912 297.458L96.2333 232.21Z" fill="#E8B772"/>
<path d="M32.925 229.941L77.7094 206.679L139.593 209.213L117.556 220.769L96.2939 232.173L82.5007 231.688L32.925 229.941Z" fill="#E8B772"/>
<path d="M117.541 220.479L139.578 208.924L143.398 228.58L100.385 253.018L96.2786 231.884L117.541 220.479Z" fill="url(#paint22_linear_26325_34614)"/>
<path d="M32.9134 229.652L82.489 231.399L96.2823 231.884L100.389 253.018L36.7329 249.308L32.9134 229.652Z" fill="url(#paint23_linear_26325_34614)"/>
<path d="M128.031 285.724L137.813 280.205C139.599 279.054 140.848 277.204 140.396 274.88L129.331 217.936C129.03 216.387 127.567 215.063 125.555 215.052L101.108 213.37L90.4765 218.652L113.524 221.41C116.462 222.045 117.387 222.669 117.763 224.606L129.915 280.936C130.291 282.873 129.481 284.907 128.031 285.724Z" fill="#CF4949"/>
<path d="M128.792 285.296L128.035 285.723C129.484 284.905 130.295 282.872 129.918 280.935L117.766 224.605C117.39 222.668 116.465 222.044 113.527 221.409L90.4798 218.651L116.476 220.032C118.563 220.43 119.489 221.054 119.865 222.991L131.705 279.784C132.107 281.854 130.773 284.021 128.792 285.296Z" fill="#923E3E"/>
<path d="M75.5666 295.111L64.4302 293.657C62.3428 293.259 60.4922 292.01 60.0406 289.686L48.9756 232.743C48.6745 231.193 49.5355 229.418 51.3971 228.654L73.4349 217.94L85.2708 218.856L64.933 230.044C62.4472 231.733 61.823 232.658 62.1994 234.595L72.027 291.377C72.4034 293.314 73.9168 294.896 75.5666 295.111Z" fill="#CF4949"/>
<path d="M73.6211 294.165C72.8478 293.479 72.2595 292.486 72.044 291.377L62.2163 234.595C61.84 232.658 62.4642 231.733 64.95 230.044L85.2878 218.856L84.5621 218.997L62.0015 231.421C61.3021 231.959 61.0652 232.809 61.3663 234.358L71.0434 290.365C71.3876 292.136 72.4243 293.36 73.6211 294.165Z" fill="#923E3E"/>
<path d="M63.1374 214.406L85.4645 215.999L78.37 221.455L52.7474 219.688C55.47 216.603 61.4132 213.926 63.1374 214.406Z" fill="#CF4949"/>
<path d="M78.3625 221.446L52.7399 219.68C54.3696 219.014 55.0974 219.222 57.6074 219.55L78.3625 221.446Z" fill="#923E3E"/>
<path d="M84.0119 214.546L94.9907 216.49L67.3129 225.13C64.1697 225.741 60.2185 230.586 64.9109 233.751C60.5239 232.158 58.7996 231.678 57.2504 227.901C56.035 224.939 57.7531 222.095 59.9577 220.851C67.5108 217.755 73.7046 216.236 84.0119 214.546Z" fill="url(#paint24_linear_26325_34614)"/>
<path d="M64.9109 233.751C60.2185 230.586 64.1697 225.741 67.3129 225.13L94.9907 216.49L73.402 231.286C70.6736 233.161 66.9835 234.504 64.9109 233.751Z" fill="url(#paint25_linear_26325_34614)"/>
<path d="M94.9873 216.501L84.0087 214.553L101.691 196.439C105.858 193.228 111.12 195.335 115.088 199.28C113.736 198.011 111.665 197.544 109.526 198.997L94.9873 216.501Z" fill="url(#paint26_linear_26325_34614)"/>
<path d="M114.982 206.092C107.174 210.157 102.796 212.436 94.9873 216.501L109.526 198.997C111.665 197.544 113.736 198.011 115.088 199.28C115.173 199.364 115.256 199.448 115.34 199.534C116.966 201.303 117.317 204.296 114.982 206.092Z" fill="url(#paint27_linear_26325_34614)"/>
<path d="M139.414 338.446C144.328 334.649 151.186 334.649 156.1 338.446L157.463 339.498C159.383 340.981 161.663 341.926 164.069 342.234L165.777 342.454C171.936 343.244 176.786 348.093 177.576 354.253L177.795 355.961C178.104 358.367 179.049 360.647 180.532 362.567L181.584 363.929C185.381 368.844 185.381 375.702 181.584 380.616L180.532 381.978C179.049 383.898 178.104 386.179 177.795 388.585L177.576 390.292C176.786 396.452 171.936 401.301 165.777 402.092L164.069 402.311C161.663 402.62 159.383 403.564 157.463 405.047L156.1 406.1C151.186 409.896 144.328 409.896 139.414 406.1L138.051 405.047C136.131 403.564 133.851 402.62 131.445 402.311L129.737 402.092C123.578 401.301 118.728 396.452 117.938 390.292L117.719 388.585C117.41 386.179 116.465 383.898 114.982 381.978L113.93 380.616C110.133 375.702 110.133 368.844 113.93 363.929L114.982 362.567C116.465 360.647 117.41 358.367 117.719 355.961L117.938 354.253C118.728 348.093 123.578 343.244 129.737 342.454L131.445 342.234C133.851 341.926 136.131 340.981 138.051 339.498L139.414 338.446Z" fill="#D86A84"/>
<path d="M136.929 338.446C141.844 334.649 148.702 334.649 153.616 338.446L154.978 339.498C156.898 340.981 159.179 341.926 161.585 342.234L163.292 342.454C169.452 343.244 174.301 348.093 175.092 354.253L175.311 355.961C175.62 358.367 176.564 360.647 178.047 362.567L179.1 363.929C182.896 368.844 182.896 375.702 179.1 380.616L178.047 381.978C176.564 383.898 175.62 386.179 175.311 388.585L175.092 390.292C174.301 396.452 169.452 401.301 163.292 402.092L161.585 402.311C159.179 402.62 156.898 403.564 154.978 405.047L153.616 406.1C148.702 409.896 141.844 409.896 136.929 406.1L135.567 405.047C133.647 403.564 131.367 402.62 128.961 402.311L127.253 402.092C121.093 401.301 116.244 396.452 115.454 390.292L115.234 388.585C114.926 386.179 113.981 383.898 112.498 381.978L111.446 380.616C107.649 375.702 107.649 368.844 111.446 363.929L112.498 362.567C113.981 360.647 114.926 358.367 115.234 355.961L115.454 354.253C116.244 348.093 121.093 343.244 127.253 342.454L128.961 342.234C131.367 341.926 133.647 340.981 135.567 339.498L136.929 338.446Z" fill="#FC6589"/>
<path d="M127.34 363.01C127.34 358.369 130.587 355.574 134.865 355.574C139.195 355.574 142.39 358.369 142.39 363.01C142.39 367.701 139.195 370.495 134.865 370.495C130.587 370.495 127.34 367.701 127.34 363.01ZM134.865 358.369C132.597 358.369 131.102 359.866 131.102 363.01C131.102 366.104 132.597 367.701 134.865 367.701C137.133 367.701 138.679 366.104 138.679 363.01C138.679 359.866 137.133 358.369 134.865 358.369ZM131.927 390.955L152.802 356.123H157.44L136.566 390.955H131.927ZM147.08 384.069C147.08 379.378 150.276 376.583 154.606 376.583C158.884 376.583 162.079 379.378 162.079 384.069C162.079 388.71 158.884 391.554 154.606 391.554C150.276 391.554 147.08 388.71 147.08 384.069ZM154.554 379.428C152.286 379.428 150.74 380.925 150.74 384.069C150.74 387.163 152.286 388.66 154.554 388.66C156.822 388.66 158.368 387.163 158.368 384.069C158.368 380.925 156.822 379.428 154.554 379.428Z" fill="white"/>
<defs>
<filter id="filter0_f_26325_34614" x="165.486" y="248.029" width="39.8764" height="49.9135" filterUnits="userSpaceOnUse" color-interpolation-filters="sRGB">
<feFlood flood-opacity="0" result="BackgroundImageFix"/>
<feBlend mode="normal" in="SourceGraphic" in2="BackgroundImageFix" result="shape"/>
<feGaussianBlur stdDeviation="0.893894" result="effect1_foregroundBlur_26325_34614"/>
</filter>
<filter id="filter1_f_26325_34614" x="218.325" y="292.275" width="75.5326" height="100.564" filterUnits="userSpaceOnUse" color-interpolation-filters="sRGB">
<feFlood flood-opacity="0" result="BackgroundImageFix"/>
<feBlend mode="normal" in="SourceGraphic" in2="BackgroundImageFix" result="shape"/>
<feGaussianBlur stdDeviation="0.893894" result="effect1_foregroundBlur_26325_34614"/>
</filter>
<filter id="filter2_f_26325_34614" x="387.403" y="145.497" width="33.0378" height="18.6101" filterUnits="userSpaceOnUse" color-interpolation-filters="sRGB">
<feFlood flood-opacity="0" result="BackgroundImageFix"/>
<feBlend mode="normal" in="SourceGraphic" in2="BackgroundImageFix" result="shape"/>
<feGaussianBlur stdDeviation="0.446947" result="effect1_foregroundBlur_26325_34614"/>
</filter>
<linearGradient id="paint0_linear_26325_34614" x1="297.402" y1="246" x2="366.902" y2="260.5" gradientUnits="userSpaceOnUse">
<stop stop-color="white"/>
<stop offset="1" stop-color="#D0D0D0"/>
</linearGradient>
<linearGradient id="paint1_linear_26325_34614" x1="341.632" y1="288.767" x2="357.354" y2="311.16" gradientUnits="userSpaceOnUse">
<stop stop-color="#CDCDCD"/>
<stop offset="1" stop-color="#B9B8B8"/>
</linearGradient>
<linearGradient id="paint2_linear_26325_34614" x1="328.902" y1="221" x2="347.902" y2="270" gradientUnits="userSpaceOnUse">
<stop stop-color="#D9D9D9"/>
<stop offset="1" stop-color="#C1BDBD"/>
</linearGradient>
<linearGradient id="paint3_linear_26325_34614" x1="152.793" y1="111.197" x2="152.793" y2="123.228" gradientUnits="userSpaceOnUse">
<stop stop-color="#8CABDA"/>
<stop offset="1" stop-color="#9CADC7"/>
</linearGradient>
<linearGradient id="paint4_linear_26325_34614" x1="144.089" y1="114.482" x2="144.089" y2="152.079" gradientUnits="userSpaceOnUse">
<stop stop-color="#5383CA"/>
<stop offset="1" stop-color="#729EDF"/>
</linearGradient>
<linearGradient id="paint5_linear_26325_34614" x1="206.705" y1="227.467" x2="218.773" y2="273.95" gradientUnits="userSpaceOnUse">
<stop stop-color="#393EA7"/>
<stop offset="1" stop-color="#595FCE"/>
</linearGradient>
<linearGradient id="paint6_linear_26325_34614" x1="305.479" y1="196.628" x2="391.293" y2="218.528" gradientUnits="userSpaceOnUse">
<stop stop-color="#393EA7"/>
<stop offset="1" stop-color="#595EC7"/>
</linearGradient>
<linearGradient id="paint7_linear_26325_34614" x1="204.023" y1="253.391" x2="208.493" y2="280.208" gradientUnits="userSpaceOnUse">
<stop stop-color="#FC7135"/>
<stop offset="1" stop-color="#FB8F14"/>
</linearGradient>
<linearGradient id="paint8_linear_26325_34614" x1="249.794" y1="373.173" x2="269.472" y2="398.604" gradientUnits="userSpaceOnUse">
<stop stop-color="#ED8024"/>
<stop offset="1" stop-color="#DB7B2B"/>
</linearGradient>
<linearGradient id="paint9_linear_26325_34614" x1="297.059" y1="396.861" x2="269.388" y2="410.664" gradientUnits="userSpaceOnUse">
<stop stop-color="#ED8024"/>
<stop offset="1" stop-color="#FFB23E"/>
</linearGradient>
<linearGradient id="paint10_linear_26325_34614" x1="249.435" y1="245.346" x2="316.924" y2="333.395" gradientUnits="userSpaceOnUse">
<stop stop-color="#393EA7"/>
<stop offset="1" stop-color="#5C61D6"/>
</linearGradient>
<linearGradient id="paint11_linear_26325_34614" x1="258.712" y1="387.922" x2="226.022" y2="282.933" gradientUnits="userSpaceOnUse">
<stop stop-color="#393EA7"/>
<stop offset="1" stop-color="#5C61D6"/>
</linearGradient>
<linearGradient id="paint12_linear_26325_34614" x1="532.088" y1="162.408" x2="532.088" y2="218.924" gradientUnits="userSpaceOnUse">
<stop stop-color="#FCD98D"/>
<stop offset="0.848958" stop-color="#F4C150" stop-opacity="0"/>
</linearGradient>
<linearGradient id="paint13_linear_26325_34614" x1="425.433" y1="23.6819" x2="414.392" y2="158.939" gradientUnits="userSpaceOnUse">
<stop stop-color="white"/>
<stop offset="1" stop-color="#F8F8F8" stop-opacity="0"/>
</linearGradient>
<linearGradient id="paint14_linear_26325_34614" x1="454.988" y1="31.4045" x2="443.947" y2="166.661" gradientUnits="userSpaceOnUse">
<stop stop-color="white"/>
<stop offset="1" stop-color="#D9D9D9" stop-opacity="0"/>
</linearGradient>
<linearGradient id="paint15_linear_26325_34614" x1="451.371" y1="49.8835" x2="449.073" y2="100.928" gradientUnits="userSpaceOnUse">
<stop stop-color="#0061F2"/>
<stop offset="1" stop-color="#FF29B6"/>
</linearGradient>
<linearGradient id="paint16_linear_26325_34614" x1="451.371" y1="49.8835" x2="449.073" y2="100.928" gradientUnits="userSpaceOnUse">
<stop stop-color="#0061F2"/>
<stop offset="1" stop-color="#FF29B6"/>
</linearGradient>
<linearGradient id="paint17_linear_26325_34614" x1="451.371" y1="49.8835" x2="449.073" y2="100.928" gradientUnits="userSpaceOnUse">
<stop stop-color="#0061F2"/>
<stop offset="1" stop-color="#FF29B6"/>
</linearGradient>
<linearGradient id="paint18_linear_26325_34614" x1="451.371" y1="49.8835" x2="449.073" y2="100.928" gradientUnits="userSpaceOnUse">
<stop stop-color="#0061F2"/>
<stop offset="1" stop-color="#FF29B6"/>
</linearGradient>
<linearGradient id="paint19_linear_26325_34614" x1="451.371" y1="49.8835" x2="449.073" y2="100.928" gradientUnits="userSpaceOnUse">
<stop stop-color="#0061F2"/>
<stop offset="1" stop-color="#FF29B6"/>
</linearGradient>
<linearGradient id="paint20_linear_26325_34614" x1="451.371" y1="49.8835" x2="449.073" y2="100.928" gradientUnits="userSpaceOnUse">
<stop stop-color="#0061F2"/>
<stop offset="1" stop-color="#FF29B6"/>
</linearGradient>
<linearGradient id="paint21_linear_26325_34614" x1="47.0938" y1="254.94" x2="108.978" y2="277.155" gradientUnits="userSpaceOnUse">
<stop stop-color="#E8B772"/>
<stop offset="1" stop-color="#DCAE6C"/>
</linearGradient>
<linearGradient id="paint22_linear_26325_34614" x1="116.567" y1="213.395" x2="116.111" y2="247.006" gradientUnits="userSpaceOnUse">
<stop stop-color="#D5AD76"/>
<stop offset="1" stop-color="#DDAC66"/>
</linearGradient>
<linearGradient id="paint23_linear_26325_34614" x1="63.236" y1="223.759" x2="70.0664" y2="258.91" gradientUnits="userSpaceOnUse">
<stop stop-color="#DDAC66"/>
<stop offset="1" stop-color="#CCA163"/>
</linearGradient>
<linearGradient id="paint24_linear_26325_34614" x1="63.0635" y1="226.272" x2="94.0056" y2="215.164" gradientUnits="userSpaceOnUse">
<stop stop-color="#B72828"/>
<stop offset="1" stop-color="#E85656"/>
</linearGradient>
<linearGradient id="paint25_linear_26325_34614" x1="70.9973" y1="222.305" x2="77.937" y2="231.825" gradientUnits="userSpaceOnUse">
<stop stop-color="#AC4E4E"/>
<stop offset="0.950809" stop-color="#923E3E"/>
</linearGradient>
<linearGradient id="paint26_linear_26325_34614" x1="105.91" y1="196.122" x2="92.4227" y2="217.543" gradientUnits="userSpaceOnUse">
<stop stop-color="#BE3434"/>
<stop offset="0.96" stop-color="#D15F5F"/>
</linearGradient>
<linearGradient id="paint27_linear_26325_34614" x1="97.1831" y1="198.502" x2="106.704" y2="212.783" gradientUnits="userSpaceOnUse">
<stop stop-color="#E15959"/>
<stop offset="1" stop-color="#923E3E"/>
</linearGradient>
</defs>
</svg>
