<svg width="155" height="155" viewBox="0 0 155 155" fill="none" xmlns="http://www.w3.org/2000/svg">
<path d="M47.3885 77.1607C47.5064 77.0455 47.5131 77.3321 47.5131 77.3321C47.2658 77.7033 42.5117 83.396 43.8517 86.1926C44.3266 87.1838 44.6315 87.801 45.7829 88.0746C47.8668 88.5697 50.2607 86.7072 53.2676 85.1914C56.6745 83.4739 58.6601 81.2328 62.05 79.6215C64.7291 78.3481 66.7904 76.9095 68.6564 77.3528C70.0908 77.6935 70.9847 78.131 70.9693 79.7993C70.9487 82.0273 69.4738 84.1777 67.3036 86.8727C65.6777 88.8917 64.2005 90.2807 62.2232 92.0007C52.0443 100.855 44.8637 95.5474 35.0585 104.937C31.1272 108.702 27.9557 111.155 26.22 115.503C24.758 119.166 25.0298 120.834 26.583 122.65C28.2593 124.61 31.2055 123.401 34.5277 123.301C38.7246 123.175 42.2318 121.069 46.0559 121.533C48.2593 121.801 49.8443 121.691 50.9937 123.184C51.788 124.217 51.8776 125.137 51.964 126.721C52.1531 130.193 48.7517 138.107 48.7517 138.107L47.833 137.998C47.833 137.998 51.2459 130.812 51.1007 127.37C51.0376 125.876 50.9958 124.982 50.259 124.01C49.1357 122.527 47.4267 122.816 45.2258 122.594C41.3834 122.207 37.987 124.146 33.8573 124.214C30.452 124.271 27.4641 125.426 25.7573 123.377C24.1988 121.505 24.0327 119.391 25.5077 115.665C27.231 111.311 30.7761 108.256 35.0566 104.2C44.908 94.8662 52.1565 100.305 62.2213 91.2638C64.1166 89.5612 65.3552 88.6393 66.8866 86.6663C68.7406 84.2777 70.1218 82.3862 70.106 80.4477C70.0949 79.0756 69.5445 78.5789 68.4494 78.1695C66.6382 77.4923 64.4415 78.8339 61.6158 80.1522C58.5284 81.5925 56.7275 83.6753 53.6086 85.3264C50.3957 87.0274 47.819 89.0911 45.5878 88.5802C44.3283 88.2918 44.0173 87.5919 43.5321 86.4874C42.2686 83.611 46.5842 78.1887 47.3885 77.1607Z" fill="#DDDDDD"/>
<path d="M47.3885 77.1607C47.2795 77.2832 47.5131 77.3321 47.5131 77.3321C47.5131 77.3321 55.5115 66.9419 60.8403 65.4799C62.7289 64.9618 63.9123 64.6443 65.2417 65.0781C67.6478 65.8631 66.7022 68.6944 66.771 71.5969C66.849 74.8857 65.0022 77.7866 65.2287 80.9815C65.4077 83.5064 64.8455 85.8132 67 86.5162C68.6561 87.0566 70.0317 87.2147 72.5652 85.8821C75.9485 84.1023 78.0615 81.5621 80.4546 78.1967C82.2474 75.6754 83.1969 73.738 84.255 71.2554C89.7022 58.4754 75.9162 58.6281 82.477 45.6341C85.1075 40.4242 86.3382 36.685 91.5986 32.2529C96.0295 28.5198 98.7894 27.35 102.791 26.7865C107.11 26.1784 107.598 28.8036 110.077 30.7609C113.209 33.2335 112.775 36.8868 116.512 38.6799C118.666 39.7131 119.753 40.6966 122.943 40.1609C125.147 39.7907 126.623 39.1106 129.108 37.9024C134.555 35.2543 143.937 27.0511 143.937 27.0511L143.043 26.6184C143.043 26.6184 134.781 34.2504 129.414 36.8999C127.084 38.0497 125.687 38.7354 123.62 39.0907C120.468 39.6323 119.556 38.4367 117.474 37.3687C113.839 35.5042 114.107 32.0458 110.94 29.6569C108.33 27.687 107.725 25.0814 103.246 25.7433C99.1552 26.3476 95.798 27.9314 91.2805 31.7222C86.0024 36.1514 84.1491 40.5796 81.3511 46.2177C74.9119 59.1938 88.9527 58.9748 83.1292 71.8391C82.0325 74.2616 81.6068 75.6933 79.8094 78.1247C77.6333 81.0683 75.8411 83.3501 72.8706 84.8796C70.7682 85.9622 69.5743 86.0452 68.0821 85.7511C65.6141 85.2647 65.9213 82.9583 65.6945 80.3149C65.4467 77.4267 67.1983 74.7558 67.2472 71.6825C67.2977 68.5165 68.4056 65.4223 65.8586 64.5666C64.4209 64.0835 63.1065 64.4631 61.0369 65.0654C55.647 66.6338 48.1006 76.361 47.3885 77.1607Z" fill="#DDDDDD"/>
<path d="M6.03886 103.756L8.38654 104.784L15.9506 101.7C15.9506 101.7 17.508 103.165 18.4285 104.196C19.1184 104.969 19.6556 105.292 20.124 106.253C20.3107 106.635 20.634 106.865 20.5152 107.281C20.4153 107.63 20.1664 107.733 19.8631 107.868C19.4842 108.037 19.2238 107.928 18.8198 107.868C17.871 107.728 16.7331 106.693 16.3419 106.987C15.9506 107.281 15.9096 107.98 15.6898 108.896C15.4699 109.813 17.0344 112.336 16.3419 114.33C16.1509 114.88 16.1601 115.391 15.6898 115.652C15.3243 115.855 15.0375 115.781 14.6464 115.652C13.9197 115.413 13.7925 114.722 13.3422 114.036C12.5024 112.758 11.7772 110.365 11.7772 110.365C11.7772 110.365 12.2812 112.222 12.4293 113.449C12.5325 114.303 12.7474 114.816 12.5597 115.652C12.4647 116.075 12.4934 116.441 12.1685 116.68C11.951 116.84 11.7761 116.827 11.5164 116.827C11.2567 116.827 11.1003 116.802 10.8643 116.68C10.4376 116.459 10.3386 116.095 10.0818 115.652C9.71972 115.028 9.67673 114.581 9.42972 113.89C8.88262 112.357 8.12554 109.924 8.12554 109.924C8.12554 109.924 8.38017 112.634 8.12554 114.33C8.04729 114.851 8.26086 115.368 7.8647 115.652C7.68754 115.779 7.55303 115.799 7.34303 115.799C7.13304 115.799 7.01114 115.753 6.82136 115.652C6.32349 115.386 6.29148 114.881 6.03886 114.33C5.64735 113.476 5.54331 112.925 5.38677 111.98C5.14397 110.514 5.06287 109.656 5.12602 108.162C5.16507 107.238 5.19305 106.711 5.38677 105.812C5.56536 104.983 6.03886 103.756 6.03886 103.756Z" fill="#C0C0C0"/>
<path d="M8.12695 62.6328C8.12695 62.6328 16.4169 52.5727 23.2554 48.8275C30.5586 44.8278 43.6006 43.981 43.6006 43.981C43.6006 43.981 48.8946 52.6165 51.4256 58.6675C55.2298 67.7623 57.9463 83.3409 57.9463 83.3409L29.3848 102.286C29.3848 102.286 21.6264 92.2864 17.6474 85.1032C13.0778 76.8538 8.12695 62.6328 8.12695 62.6328Z" fill="#CACACA"/>
<path d="M18.2984 47.0663C11.4599 50.8115 3.16992 60.8716 3.16992 60.8716C3.16992 60.8716 8.1207 75.0926 12.6904 83.342C16.6694 90.5251 24.4277 100.525 24.4277 100.525L29.3839 102.288C29.3839 102.288 21.6253 92.2875 17.6463 85.1044C13.0766 76.8549 8.12579 62.634 8.12579 62.634C8.12579 62.634 16.4157 52.5739 23.2542 48.8287C30.5574 44.829 43.5994 43.9821 43.5994 43.9821C43.5994 43.9821 48.8935 52.6177 51.4245 58.6686C54.9386 67.0697 57.5246 81.0032 57.8985 83.0799L57.9454 83.0483C57.9454 83.0483 56.2535 68.839 52.9895 60.5779C50.2153 53.5566 43.5994 43.9821 43.5994 43.9821L38.6435 42.2197C38.6435 42.2197 25.6015 43.0666 18.2984 47.0663Z" fill="#ACAAAA"/>
<path d="M3.16992 60.8721C3.16992 60.8721 8.1207 75.093 12.6904 83.3424C16.6694 90.5256 24.4277 100.526 24.4277 100.526L29.3839 102.288C29.3839 102.288 21.6253 92.2879 17.6463 85.1048C13.0766 76.8554 8.12579 62.6345 8.12579 62.6345L3.16992 60.8721Z" fill="#BBB8B8"/>
<path d="M11.7793 110.365C11.7793 110.365 12.5045 112.758 13.3443 114.037C13.7945 114.722 13.9218 115.413 14.6485 115.652C15.0396 115.781 15.3264 115.855 15.6918 115.652C16.0573 115.449 15.7807 115.018 15.5617 114.771C15.3426 114.524 15.0524 114.789 14.7792 114.624C14.3167 114.346 14.4032 113.805 14.1271 113.303C13.7997 112.707 13.5262 112.439 13.2141 111.834C12.9855 111.39 13.0558 110.968 12.6925 110.659C12.3967 110.407 11.7793 110.365 11.7793 110.365Z" fill="#D6D6D6"/>
<path d="M8.12695 109.925C8.12695 109.925 8.88404 112.359 9.43113 113.891C9.67815 114.582 9.72113 115.029 10.0832 115.653C10.34 116.096 10.4391 116.46 10.8657 116.681C11.1017 116.803 11.2581 116.828 11.5178 116.828C11.7775 116.828 11.663 116.476 11.6485 116.24C11.6211 115.794 11.7533 115.72 11.5181 115.359C11.1668 114.82 10.9754 114.921 10.6948 114.331C10.3503 113.607 10.0091 112.721 9.69197 111.981C9.44435 111.404 9.68468 110.986 9.30097 110.513C9.08114 110.241 8.6258 109.986 8.12695 109.925Z" fill="#D6D6D6"/>
<path d="M5.38677 105.812C5.19305 106.711 5.16507 107.238 5.12602 108.162C5.06287 109.656 5.14397 110.514 5.38677 111.98C5.54331 112.925 5.64735 113.476 6.03886 114.33C6.29148 114.881 6.32349 115.386 6.82136 115.652C7.01114 115.753 7.13304 115.799 7.34303 115.799C7.34303 115.799 6.76804 113.855 6.5607 112.568C6.39602 111.546 6.2415 110.961 6.29986 109.924C6.35614 108.925 6.48296 108.354 6.82136 107.427C7.24057 106.28 8.38655 104.784 8.38655 104.784L6.03886 103.756C6.03886 103.756 5.56536 104.983 5.38677 105.812Z" fill="#D6D6D6"/>
<path d="M16.1519 57.6664C16.1073 57.3516 16.3802 57.0909 16.697 57.1175C17.5717 57.1909 18.3079 57.1626 19.3435 57.0526C21.656 56.8069 22.9179 56.2411 25.0818 55.2902C26.1224 54.8329 26.6947 54.5389 27.6902 53.9684C29.5667 52.893 30.5648 52.1515 32.2548 50.7373C33.8184 49.4289 34.8432 48.7754 36.0286 47.1532C36.1835 46.9412 36.4769 46.872 36.6851 47.032C38.1286 48.1413 38.1838 49.9463 38.9061 51.3248C38.9061 51.3248 35.8242 52.6125 34.0807 54.409C32.1925 56.3545 30.8878 57.0784 28.4727 58.2275C26.1989 59.3093 24.5311 59.7874 22.0822 60.1367C19.9505 60.4408 17.648 61.8991 17.648 61.8991C16.8677 60.2106 16.3673 59.187 16.1519 57.6664Z" fill="url(#paint0_linear_6449_67186)"/>
<path d="M57.5545 123.437C57.6589 122.759 57.5545 121.674 57.5545 121.674L66.6837 124.318L66.0316 126.815C66.0316 126.815 69.4485 130.957 69.9441 134.305C70.2051 136.067 69.4613 140.032 67.2054 140.032C63.1625 140.032 61.5622 137.973 59.2499 134.892C57.1861 132.143 55.2497 129.838 56.1199 126.374C56.4363 125.114 57.3558 124.727 57.5545 123.437Z" fill="#C0C0C0"/>
<path d="M66.0321 126.814L66.6842 124.317H63.4237C63.4237 124.317 62.7993 125.637 62.902 126.52C63.0344 127.657 63.6359 128.207 64.4671 128.87C65.3348 129.562 66.2018 129.068 67.0754 129.751C67.8791 130.379 68.075 131.055 68.6404 131.954C69.1958 132.837 69.9446 134.304 69.9446 134.304C69.449 130.956 66.0321 126.814 66.0321 126.814Z" fill="#9C9C9C"/>
<path d="M57.5545 123.437C57.3558 124.727 56.4363 125.114 56.1199 126.374C55.2497 129.838 57.1861 132.143 59.2499 134.892C61.5622 137.973 63.1625 140.032 67.2053 140.032C67.2053 140.032 64.3961 139.266 62.9017 138.123C61.2606 136.868 60.5621 135.758 59.5108 133.864C58.8226 132.624 58.3423 131.917 58.0762 130.486C57.8466 129.251 57.717 128.45 58.0762 127.255C58.348 126.351 58.9116 126.074 59.2499 125.199C59.5654 124.383 59.7716 122.996 59.7716 122.996L57.5545 121.674C57.5545 121.674 57.6589 122.759 57.5545 123.437Z" fill="#D6D6D6"/>
<path d="M16.2637 58.3747C17.0457 58.6685 18.7526 58.8031 20.0202 58.6685C22.3328 58.4228 23.6985 58.0038 25.8624 57.0529C26.903 56.5957 27.4752 56.3017 28.4707 55.7312C30.3472 54.6557 31.6062 53.7674 33.2962 52.3532C34.9767 50.9469 36.9215 49.4159 37.574 47.9473C37.8348 48.241 38.1153 49.1043 38.4091 50.2971C38.4091 50.2971 36.5009 53.9346 34.7574 55.7312C32.8693 57.6767 31.5646 58.4006 29.1494 59.5497C26.8756 60.6315 25.2079 61.1096 22.759 61.4589C20.6272 61.763 17.2814 60.8715 17.2814 60.8715C17.0201 60.8715 16.3936 59.2559 16.2637 58.3747Z" fill="url(#paint1_linear_6449_67186)"/>
<path d="M67.9883 45.1577C67.9883 45.1577 68.8843 45.072 69.4229 44.8639C70.0265 44.6308 70.3432 44.4083 70.8575 43.9828C71.4379 43.5025 71.6481 43.0829 72.1616 42.5141C73.7031 40.8069 76.2046 38.255 76.2046 38.255C76.2046 38.255 76.6894 38.0114 76.9871 38.1082C77.2318 38.1877 77.3482 38.3262 77.5088 38.5488C77.6524 38.7478 77.7246 38.8848 77.7696 39.1362C77.8308 39.4782 77.7125 39.6784 77.6392 40.0174C77.3083 41.5476 75.6829 43.3293 75.9438 43.5421L76.2046 43.689C76.4654 43.689 77.7144 42.2888 78.813 41.6329C79.3567 41.3083 79.6514 41.0707 80.2475 40.8986C80.7925 40.7412 81.2086 40.4097 81.6821 40.7517C81.9913 40.975 82.1072 41.2339 82.2038 41.6329C82.2842 41.9649 82.239 42.1723 82.2038 42.5141C82.009 44.408 78.7998 45.3045 79.0738 45.892C79.1592 46.0751 79.1704 46.2401 79.3346 46.3326C79.5955 46.4794 80.6181 46.3507 81.4213 46.1857C82.483 45.9676 82.9542 45.2584 84.0297 45.1577C84.385 45.1244 84.605 45.0285 84.9426 45.1577C85.3192 45.3018 85.6439 45.4535 85.7251 45.892C85.7908 46.2471 85.615 46.4526 85.4643 46.7732C85.1946 47.3467 84.8758 47.5497 84.4209 47.9481C83.7017 48.578 83.1783 48.7368 82.3342 49.123C81.1092 49.6835 80.2321 49.433 79.0738 50.1511C78.5292 50.4887 77.7696 50.479 77.7696 51.1791C77.7696 52.2072 80.3735 52.6509 80.6388 54.4102C80.7155 54.9191 80.9066 55.313 80.6388 55.732C80.3845 56.1296 80.0248 56.0925 79.5955 56.1725C78.5307 56.371 78.0237 55.4825 76.9871 55.1445C75.8834 54.7846 75.2603 54.5493 74.1179 54.4102C73.0546 54.2807 71.3791 54.4102 71.3791 54.4102L70.9879 47.3606L67.9883 45.1577Z" fill="#C0C0C0"/>
<path d="M84.0301 45.1564C82.9546 45.2571 82.4834 45.9664 81.4217 46.1844C81.1609 46.3313 81.1603 46.332 81.0305 46.4782L81.0305 46.4782C80.9006 46.6244 80.7336 46.716 80.7696 46.9188C80.8056 47.1216 80.9879 47.143 81.1609 47.2125C81.5564 47.3716 81.812 47.0879 82.2042 46.9188C82.5233 46.7812 82.661 46.5945 82.9867 46.4782C83.282 46.3727 83.4628 46.3826 83.7692 46.3313C84.1754 46.2633 84.4106 46.2787 84.8126 46.1844C85.1756 46.0993 85.8067 46.3292 85.7255 45.8907C85.6443 45.4522 85.3196 45.3005 84.943 45.1564C84.6054 45.0272 84.3854 45.1231 84.0301 45.1564Z" fill="#D6D6D6"/>
<path d="M78.8139 41.6315C77.7701 42.3658 77.118 42.9533 77.118 42.9533C77.118 42.9533 76.83 43.2244 76.9876 43.5408C77.193 43.9533 77.6302 43.9747 78.0314 43.8345C78.3437 43.6785 78.5042 43.5564 78.8139 43.3939C79.1654 43.2094 79.3932 43.1763 79.7268 42.9533C80.1923 42.6421 80.3121 42.2502 80.7701 41.9252C81.0592 41.7201 81.3638 41.8053 81.5526 41.4846C81.6962 41.2409 82.1565 41.0924 81.683 40.7503C81.2095 40.4082 80.7934 40.7398 80.2485 40.8972C79.6523 41.0693 79.3358 41.2643 78.8139 41.6315Z" fill="#D6D6D6"/>
<path d="M69.4232 44.864C68.8846 45.072 68.4717 44.8181 67.9886 45.1577C66.8023 45.9917 69.6089 47.6206 70.9883 47.3607C71.755 47.2162 71.9763 46.549 72.6837 46.1857C73.0796 45.9824 73.3752 46.0336 73.727 45.7451C74.0486 45.4815 74.2468 45.2864 74.3791 44.864C74.5887 44.1949 73.8915 43.8027 73.9879 43.1016C74.1047 42.2514 74.708 42.0314 75.1616 41.3392C75.573 40.7115 75.7245 40.2856 76.205 39.7237C76.6573 39.1946 77.6697 38.7713 77.5091 38.5488C77.3485 38.3262 77.2321 38.1877 76.9875 38.1082C76.6898 38.0114 76.205 38.255 76.205 38.255C76.205 38.255 73.7035 40.8069 72.162 42.5141C71.6485 43.0829 71.4383 43.5025 70.8578 43.9828C70.3436 44.4083 70.0269 44.6308 69.4232 44.864Z" fill="#D6D6D6"/>
<path d="M42.2667 140.709C42.7151 139.998 43.4595 138.925 43.4595 138.925L48.2307 139.817L51.2947 138.563L53.3994 133.423C53.3994 133.423 53.9076 134.864 54.1946 135.802C54.4762 136.723 54.7255 137.219 54.8573 138.181C55.1197 140.097 54.7737 141.263 54.1946 143.089C53.3375 145.792 52.1414 146.988 50.3512 149.037C48.6191 151.019 45.3149 153.349 45.3149 153.349C45.3149 153.349 41.7068 155.301 40.0136 153.944C39.1024 153.214 38.7492 152.469 38.4232 151.267C37.8676 149.219 38.7909 147.91 39.4835 145.914C40.25 143.705 41.0464 142.644 42.2667 140.709Z" fill="#C0C0C0"/>
<path d="M54.1942 135.802C53.9071 134.864 53.399 133.423 53.399 133.423C53.399 133.423 50.5997 136.496 51.2942 138.563C51.664 139.664 52.763 139.66 53.1202 140.766C53.6654 142.454 52.6935 143.585 51.9464 145.172C51.35 146.439 50.8425 147.044 49.9901 148.109C49.0246 149.316 48.5894 149.843 47.6426 150.9C46.7588 151.886 45.3145 153.349 45.3145 153.349C45.3145 153.349 48.6186 151.019 50.3507 149.037C52.141 146.988 53.337 145.792 54.1942 143.089C54.7732 141.263 55.1193 140.097 54.8568 138.181C54.725 137.219 54.4758 136.723 54.1942 135.802Z" fill="#9C9C9C"/>
<path d="M42.2664 140.709C41.0461 142.644 40.2497 143.705 39.4832 145.914C38.7906 147.909 37.868 149.218 38.4229 151.267C38.7487 152.47 39.2958 153.543 40.0133 153.944C39.9487 153.484 39.8169 153.726 39.6872 152.809C39.5576 151.891 39.3801 151.016 39.4832 149.871C39.6076 148.49 39.9508 147.753 40.4697 146.493C41.0261 145.143 41.3106 144.291 42.2664 143.262C42.6905 142.806 42.9757 142.608 43.4592 142.234C45.1431 140.931 48.5542 141.645 48.2303 139.817C47.861 137.731 43.4592 138.924 43.4592 138.924C43.4592 138.924 42.7148 139.998 42.2664 140.709Z" fill="#D6D6D6"/>
<path d="M16.6409 59.7948C19.9013 59.7948 20.7511 59.8292 23.2548 59.2569C25.7802 58.6797 27.196 58.173 29.5148 56.9071C31.6379 55.7481 32.8048 54.9581 34.6011 53.2355C36.1376 51.762 37.3399 50.2982 38.1224 48.9764C38.6441 49.7107 38.6181 50.046 39.1657 50.445C39.357 50.5844 39.4709 50.659 39.6874 50.7387C40.6223 51.0832 41.0802 49.9772 42.0349 49.7107C43.2255 49.3784 43.9418 49.5206 45.1649 49.417C47.8103 49.1929 49.3009 49.1944 51.9467 48.9764C54.2921 48.7831 55.6275 48.8331 57.9459 48.3889C61.678 47.6738 63.4245 45.3711 67.2055 45.1579C67.9685 45.1148 68.416 44.9711 69.1618 45.1579C70.8175 45.5725 71.4167 46.8508 72.4222 48.3889C73.1381 49.4838 73.6644 50.1308 73.8568 51.4731C74.0813 53.0391 74.0131 54.2557 73.0743 55.4384C72.0205 56.7661 70.6231 55.9329 69.1618 56.6134C67.5152 57.3802 66.9553 58.6776 65.2493 59.2569C64.1182 59.641 63.3935 59.365 62.2497 59.6975C60.1985 60.2939 59.3926 61.6061 57.4242 62.488C56.0324 63.1115 55.2449 63.4993 53.7725 63.8098C52.7165 64.0325 52.1061 64.0283 51.0337 64.1035C49.0004 64.246 48.8166 63.516 46.3387 64.1035C46.3387 64.8378 46.3527 65.1036 46.73 65.719C47.5523 67.0608 48.1873 67.6643 49.0775 68.95C52.2913 73.592 52.6998 77.4018 56.3809 81.5805C56.8343 82.0952 57.2107 82.2645 57.5709 82.8655C58.07 83.6983 57.7756 84.4673 58.2393 85.3255C58.999 86.7314 60.0234 86.9547 61.3123 87.7304C62.2681 88.3057 62.9384 88.3248 63.8636 88.9604C64.9689 89.7199 65.4359 90.3966 66.3578 91.4204C67.1214 92.2684 67.4559 92.8453 68.2163 93.6968C69.2848 94.8933 70.2017 95.2137 71.1181 96.5607C71.9216 97.7418 72.2999 98.5147 72.6831 99.9386C72.9964 101.103 73.1318 101.808 73.0743 103.023C73.0066 104.455 72.5131 105.169 72.1614 106.548C71.373 109.637 71.1769 111.456 70.2051 114.478C69.2351 117.495 68.0211 118.894 67.2055 121.968C66.8166 123.435 67.3799 124.7 66.423 125.787C65.5609 126.766 64.6477 126.789 63.4234 126.815C62.213 126.84 61.5049 126.547 60.4238 125.934C59.673 125.508 59.2359 125.232 58.6632 124.539C57.9724 123.702 57.0234 123.102 56.9025 121.968C56.5113 118.297 57.1028 117.034 57.8155 114.038C58.1679 112.556 58.9948 111.898 59.0544 110.366C59.1023 109.135 58.9435 108.391 58.4676 107.282C55.9896 105.666 54.555 105.666 49.86 104.638C49.5991 104.638 48.8166 104.638 48.2949 107.429C48.0341 109.338 48.4978 111.211 49.0775 113.744C49.6139 116.088 49.7647 117.447 50.3817 119.765C51.2098 122.878 52.0217 124.489 52.99 127.549C53.4603 129.036 53.9682 129.805 54.1638 131.368C54.3059 132.504 54.3312 133.174 54.1638 134.305C53.8642 136.329 53.4361 137.59 52.3379 139.299C51.7673 140.186 51.5067 140.851 50.6425 141.355C49.6883 141.911 48.9779 141.623 47.9037 141.648C46.884 141.672 46.2973 141.716 45.2954 141.501C44.4566 141.322 43.9134 141.31 43.2087 140.767C42.552 140.261 42.3761 139.726 41.9045 139.005C40.4326 136.753 39.8811 135.17 38.9049 132.543C37.6544 129.178 37.2594 127.145 36.5574 123.584C36.2651 122.101 36.197 121.248 35.9053 119.765C35.3333 116.858 35.5924 116.22 34.3403 113.597C33.6142 112.076 32.3963 110.414 31.7971 108.824C31.2195 107.292 31.4716 106.132 30.819 104.638C29.9763 102.709 30.0365 104.638 28.0802 100.232C26.3258 96.281 24.1674 94.6511 23.1244 90.3924C22.9437 89.6547 22.8735 89.2318 22.7331 88.4831C22.5618 87.5696 22.5029 87.0492 22.3419 86.1333C21.8955 83.5946 21.6897 80.6993 21.0377 79.6712C20.7844 79.6411 20.6399 79.6567 20.3856 79.6712C18.2989 79.7906 20.029 88.466 18.0381 93.4765C17.6659 94.413 17.2386 94.8378 16.9947 95.8264C16.6539 97.2079 17.2626 98.0963 16.9947 99.498C16.6976 101.053 16.3615 101.974 15.4297 103.17C14.6094 104.222 14.0035 104.792 12.8214 105.226C11.5624 105.688 10.7485 105.37 9.4305 105.226C8.29696 105.102 7.5455 105.284 6.56131 104.638C5.72042 104.087 5.23828 103.595 4.86588 102.582C4.45653 101.469 4.98098 100.695 4.86588 99.498C4.75945 98.3909 4.50123 97.8071 4.34421 96.7076C4.20578 95.7383 3.96536 95.1836 4.08337 94.2109C4.17058 93.4921 4.45476 93.154 4.60504 92.4485C4.83203 91.383 4.84473 90.7535 4.86588 89.658C4.89254 88.2771 4.54446 87.5129 4.60504 86.1333C4.64311 85.2664 4.76631 84.791 4.86588 83.9303C5.13764 81.5812 4.92747 80.1825 5.51797 77.9088C5.7305 77.0905 5.84348 76.622 6.17006 75.8527C6.50538 75.0629 6.78202 74.6718 7.2134 73.9435C7.73907 73.0559 8.12931 72.6332 8.64799 71.7405C9.77032 69.8087 9.91147 68.4126 10.9955 66.4533C11.5185 65.5082 11.7868 64.9493 12.4301 64.1035C13.5374 62.6476 14.1685 61.4792 15.821 61.0193C16.1217 60.9356 16.3751 61.1082 16.6035 60.8725C16.8689 60.5984 16.5432 60.1852 16.6409 59.7948Z" fill="#64AEE8"/>
<path d="M57.5728 82.8641C57.2125 82.2631 56.8362 82.0938 56.3827 81.579C52.7016 77.4003 52.2931 73.5905 49.0793 68.9486C48.1891 67.6629 47.5542 67.0593 46.7318 65.7176C46.3546 65.1021 46.3405 64.1021 46.3405 64.1021C46.3405 64.1021 45.0348 63.7879 44.3838 63.2208C42.928 61.9527 43.4706 58.0805 43.2101 58.0806C40.4368 58.0809 43.6189 62.9403 44.1234 66.0113C44.4269 67.8587 44.5496 68.914 45.0363 70.711C45.9071 73.9258 46.6695 75.6774 48.2968 78.4948C50.1647 81.7291 51.1697 83.9663 54.1656 85.8381C56.6731 87.4049 62.603 88.5047 61.3141 87.729C60.0252 86.9533 59.0008 86.73 58.2411 85.3241C57.7774 84.4658 58.0719 83.6968 57.5728 82.8641Z" fill="#53A3E2"/>
<path d="M46.3404 64.1021C48.8183 63.5146 49.0021 64.2446 51.0354 64.1021C53.0687 63.9595 48.8246 63.5203 47.6445 62.6334C46.7753 61.9801 46.3825 61.4569 45.6883 60.5773C44.9371 59.6254 43.2103 58.0806 43.2103 58.0806C43.2103 58.0806 43.1569 59.7248 43.3409 60.5773C43.5541 61.5648 43.4617 62.328 44.1234 63.074C44.752 63.7826 46.3404 64.1021 46.3404 64.1021Z" fill="#53A3E2"/>
<path d="M49.8604 104.637C54.5554 105.665 55.99 105.665 58.4679 107.28C58.9438 108.39 59.1027 109.134 59.0548 110.365C58.9952 111.897 58.1683 112.555 57.8158 114.036C57.1031 117.033 56.5116 118.295 56.9029 121.967C57.0237 123.101 57.9727 123.701 58.6635 124.537C59.3544 125.373 59.6254 123.939 59.6417 123.289C59.6585 122.617 58.9589 122.551 58.6635 121.967C58.0521 120.758 58.1224 119.83 58.2071 118.442C58.3187 116.614 59.1249 115.774 59.6417 114.036C60.266 111.937 61.405 110.785 61.0763 108.602C60.809 106.828 60.1965 105.817 58.9896 104.637C57.4938 103.174 56.144 102.796 54.1641 102.874C52.3768 102.945 50.2513 103.609 49.8604 104.637Z" fill="#53A3E2"/>
<path d="M30.1614 70.4172L30.683 69.9766C30.683 69.9766 30.8638 72.3038 30.8134 73.7951C30.7628 75.2951 30.8 76.174 30.4222 77.6135C29.9244 79.5101 28.8966 80.2016 28.2051 82.0195C27.7802 83.1366 27.2922 84.9568 27.2922 84.9568C27.2922 84.9568 26.476 81.0805 26.9009 79.9634C27.5924 78.1455 28.6202 77.454 29.118 75.5574C29.4959 74.1179 29.4586 73.239 29.5093 71.7389C30.1614 70.4172 30.1614 70.4172 30.1614 70.4172Z" fill="#53A3E2"/>
<path d="M16.6035 60.8721C16.3751 61.1078 16.1217 60.9352 15.821 61.0189C14.1685 61.4788 13.5374 62.6473 12.4301 64.1031C11.7868 64.9489 11.5185 65.5078 10.9955 66.453C9.91147 68.4122 9.77032 69.8083 8.64799 71.7401C8.12931 72.6329 7.73907 73.0555 7.2134 73.9431C6.78202 74.6714 6.50538 75.0625 6.17006 75.8523C5.84348 76.6216 5.7305 77.0901 5.51797 77.9084C4.92747 80.1822 5.13764 81.5808 4.86588 83.9299C4.76631 84.7906 4.64311 85.266 4.60504 86.1329C4.54446 87.5125 4.89254 88.2767 4.86588 89.6577C4.84473 90.7532 4.83203 91.3826 4.60504 92.4481C4.45476 93.1536 4.17058 93.4917 4.08337 94.2105C3.96536 95.1832 4.20578 95.7379 4.34421 96.7072C4.50123 97.8067 4.75945 98.3905 4.86588 99.4976C4.98098 100.695 4.45653 101.469 4.86588 102.582C5.23828 103.594 5.72042 104.087 6.56131 104.638C7.5455 105.283 8.29696 105.102 9.4305 105.225C10.564 105.349 9.61668 99.3812 10.0826 95.6791C10.6685 91.0226 11.2919 88.455 12.4301 83.9299C13.5451 79.4974 14.2473 77.0206 15.821 72.7682C17.5996 67.9619 25.4365 62.874 21.1681 60.8721H16.6035Z" fill="#53A3E2"/>
<path d="M45.2947 141.499C46.2967 141.713 47.9031 141.646 47.9031 141.646C50.4973 140.643 46.2519 137.197 45.2947 134.303C44.4291 131.685 43.9218 130.222 43.208 127.547C42.6321 125.389 42.8205 123.969 41.9039 121.966C41.1713 120.365 40.1756 119.885 39.4259 118.294C38.1102 115.502 38.2505 113.511 37.9913 110.364C37.7703 107.679 37.9913 106.157 37.9913 103.461C37.9913 101.339 38.1542 100.141 37.9913 98.0269C37.8531 96.2327 38.3955 94.8264 37.3392 93.4741C36.4956 92.394 35.615 82.864 34.3396 82.7843C32.8755 82.6929 31.9989 83.2733 30.8184 84.253C28.7451 85.9735 26.1233 95.8239 28.0796 100.23C30.0359 104.636 29.9756 102.707 30.8184 104.636C31.4709 106.13 31.2188 107.289 31.7965 108.822C32.3957 110.411 33.6136 112.074 34.3396 113.595C35.5918 116.218 35.3327 116.855 35.9046 119.763C36.1963 121.246 36.2645 122.099 36.5567 123.581L36.5771 123.685C37.2665 127.182 37.6659 129.208 38.9043 132.54C39.8804 135.167 40.3859 136.725 41.9039 139.002C42.3815 139.719 42.5514 140.259 43.208 140.765C43.9127 141.307 44.456 141.32 45.2947 141.499Z" fill="#53A3E2"/>
<path d="M31.4414 60.2911L31.8852 59.9824C31.8852 59.9824 34.2246 63.3316 35.5382 65.621C37.9906 69.8953 38.5739 72.7957 40.7556 77.2523C41.9365 79.6645 42.7084 80.9472 43.8859 83.3616C45.614 86.9049 47.0341 88.7105 48.0594 92.5846C48.9804 96.0643 49.1029 101.808 49.1029 101.808L48.6591 102.116C48.6591 102.116 48.5366 96.373 47.6156 92.8933C46.5902 89.0192 45.1702 87.2136 43.4421 83.6703C42.2646 81.256 41.4926 79.9732 40.3117 77.561C38.1301 73.1044 37.5468 70.2041 35.0944 65.9298C33.7808 63.6403 31.4414 60.2911 31.4414 60.2911Z" fill="#53A3E2"/>
<path d="M38.9055 50.2982C38.9055 50.2982 39.2987 50.578 39.5576 50.6801C40.0792 50.8857 40.0588 50.7969 40.3401 50.7387C40.8618 50.5919 41.0924 50.1049 41.6443 49.8575C41.9888 49.7031 42.1943 49.6493 42.5572 49.5638C43.2072 49.4107 43.5899 49.4651 44.2526 49.4169C45.4735 49.3283 46.1605 49.3318 47.3826 49.2701C48.4523 49.2161 49.0524 49.1928 50.1214 49.1232C51.5487 49.0303 52.3463 48.9316 53.7731 48.8295C54.6387 48.7675 55.9902 48.6826 55.9902 48.6826C56.2274 48.9595 56.2788 49.1968 56.3815 49.5638C56.7936 51.0367 56.0578 52.1557 55.0773 53.2354C53.9716 54.453 52.8315 54.358 51.2952 54.5572C49.3058 54.8152 48.201 54.0529 46.2089 53.8229C42.6059 53.407 36.9492 53.2354 36.9492 53.2354L38.123 51.7668L38.9055 50.2982Z" fill="#53A3E2"/>
<path d="M16.7352 60.5774C16.7352 60.5774 24.7644 61.0755 29.4505 58.9619C33.961 56.9275 38.984 50.2969 38.984 50.2969C39.1006 50.4002 39.169 50.4537 39.297 50.5407C39.297 50.5407 34.2129 57.2788 29.7769 59.4025C24.9683 61.7046 16.6045 60.8712 16.6045 60.8712C16.6974 60.7738 16.7165 60.7075 16.7352 60.5774Z" fill="url(#paint2_linear_6449_67186)"/>
<path d="M16.7352 60.5774C16.7352 60.5774 24.7644 61.0755 29.4505 58.9619C33.961 56.9275 38.984 50.2969 38.984 50.2969C39.1006 50.4002 39.169 50.4537 39.297 50.5407C39.297 50.5407 34.2129 57.2788 29.7769 59.4025C24.9683 61.7046 16.6045 60.8712 16.6045 60.8712C16.6974 60.7738 16.7165 60.7075 16.7352 60.5774Z" fill="#53A3E2"/>
<path d="M19.9951 69.9766H20.256C20.256 69.9766 21.3947 73.1358 21.4297 75.2637C21.4583 77.001 20.7776 79.6521 20.7776 79.6521C20.5249 79.6616 20.6279 79.6609 20.5168 79.6609C20.5168 79.6609 21.2182 76.9136 21.1689 75.1169C21.112 73.0451 19.9951 69.9766 19.9951 69.9766Z" fill="#53A3E2"/>
<path d="M0.298412 32.702C0.660667 30.7794 1.08132 29.7235 1.97218 28.0024C2.81159 26.3806 3.44769 25.5556 4.62231 24.1839C6.28025 22.2477 7.39986 21.2984 9.50412 19.9248C11.5348 18.5991 12.8088 18.0514 15.0833 17.2812C17.5648 16.441 19.0344 16.069 21.6389 15.9594C23.7136 15.8721 24.9027 15.9739 26.9392 16.4C28.1575 16.6549 28.8627 16.7743 30.0077 17.2812C31.1102 17.7692 31.7036 18.1378 32.6579 18.8967C35.0935 20.8338 35.7598 22.7761 37.1213 25.6525C37.8296 27.1491 38.1425 28.0354 38.6555 29.6179C39.1849 31.2508 39.5127 32.1732 39.7714 33.877C40.1411 36.3123 40.3815 37.8111 39.7714 40.1922C39.2764 42.1239 38.6372 43.1116 37.5397 44.745C36.5599 46.2032 35.9046 46.9678 34.6106 48.1229C33.0073 49.5541 31.8566 50.0074 30.0077 51.0602C27.7355 52.354 26.469 53.1642 24.0101 53.9975C20.4535 55.2029 18.1715 56.1785 14.5254 55.3193C12.62 54.8703 11.5769 54.3553 9.92256 53.2632C8.61073 52.3972 7.96513 51.755 6.85399 50.6196C4.50017 48.2144 3.296 46.5831 1.97218 43.4232C0.345768 39.5411 -0.485748 36.864 0.298412 32.702Z" fill="url(#paint3_linear_6449_67186)"/>
<path d="M2.62649 41.5142L9.01684 53.2634C9.01684 53.2634 7.09376 53.3706 6.01724 52.8228C4.80251 52.2046 4.32122 51.395 3.5393 50.1792C2.77762 48.995 2.42866 48.2173 2.10471 46.8013C1.68539 44.9685 2.62649 41.5142 2.62649 41.5142Z" fill="#B7B6B2"/>
<path d="M35.9053 26.6548C35.9053 26.6548 38.5599 27.701 39.2735 28.2991C39.8808 28.8081 40.1581 29.2048 40.5776 29.9146C41.2382 31.0323 41.447 31.8173 41.621 33.1456C41.7473 34.1102 41.7473 34.6777 41.621 35.6423C41.447 36.9706 39.2735 41.0476 39.2735 41.0476L35.9053 26.6548Z" fill="#B7B7C3"/>
<g filter="url(#filter0_f_6449_67186)">
<path d="M38.4912 29.6422L39.0706 29.1807C39.0706 29.1807 39.6378 30.1919 39.9396 30.8731C40.3512 31.8021 40.5397 32.3487 40.8087 33.3349C40.9385 33.8108 41.1642 34.0752 41.0984 34.5657C41.034 35.0453 40.519 35.6427 40.519 35.6427C40.519 35.6427 40.2246 34.1246 39.9396 33.181C39.5063 31.7461 38.4912 29.6422 38.4912 29.6422Z" fill="#62635E" fill-opacity="0.5"/>
</g>
<path d="M2.36594 35.0517C2.70465 33.129 3.09798 32.0731 3.93095 30.352C4.71582 28.7302 5.31059 27.9052 6.40888 26.5335C7.95911 24.5973 9.00596 23.648 10.9735 22.2744C12.8722 20.9488 14.0635 20.401 16.1902 19.6308C18.5105 18.7906 19.8845 18.4186 22.3198 18.309C24.2597 18.2217 25.3715 18.3235 27.2757 18.7496C28.4149 19.0045 29.0743 19.1239 30.1449 19.6308C31.1757 20.1188 31.7306 20.4874 32.6228 21.2463C34.9002 23.1834 35.5232 25.1257 36.7962 28.0021C37.4585 29.4987 37.7511 30.385 38.2308 31.9675C38.7258 33.6004 39.0323 34.5228 39.2741 36.2266C39.6198 38.6619 39.8446 40.1607 39.2741 42.5418C38.8113 44.4735 38.2136 45.4612 37.1875 47.0946C36.2713 48.5528 35.6586 49.3174 34.4487 50.4725C32.9496 51.9037 31.8736 52.357 30.1449 53.4098C28.0203 54.7036 26.8361 55.5138 24.5369 56.3471C21.2114 57.5525 19.0777 58.5281 15.6685 57.6689C13.8869 57.2199 12.9116 56.7049 11.3648 55.6128C10.1382 54.7468 9.5345 54.1046 8.49557 52.9692C6.29468 50.564 5.16876 48.9327 3.93095 45.7728C2.41022 41.8907 1.63273 39.2136 2.36594 35.0517Z" fill="url(#paint4_linear_6449_67186)"/>
<path d="M7.32222 37.6953C8.49591 35.4924 8.95799 34.7371 10.3218 33.1425C11.8837 31.3165 12.959 30.4874 14.8864 29.1771C16.7593 27.9039 17.9168 27.3755 19.9727 26.5336C22.8418 25.3587 24.2764 25.0649 26.624 25.0649C28.283 25.0649 29.3947 26.2277 30.4062 27.7085C31.7103 29.6178 32.0056 30.0552 33.0145 32.2613C33.8199 34.0225 34.7099 36.961 34.7099 36.961C34.7099 36.961 35.3225 39.4574 34.7099 40.7795C33.1449 44.1574 30.3676 46.8608 26.624 49.2977C22.7173 51.8408 21.5377 52.8225 15.5385 52.5287C12.6693 51.7944 8.28337 47.0346 7.32225 41.367C7.12071 40.1786 6.76946 38.7328 7.32222 37.6953Z" fill="url(#paint5_linear_6449_67186)"/>
<path d="M12.9286 30.4989C14.8178 28.9133 16.1104 28.1672 18.2757 27.1211C20.3783 26.1052 21.613 25.5279 23.8836 25.2118C24.694 25.099 25.9703 25.0649 25.9703 25.0649C25.9703 25.0649 21.1188 30.7839 19.4494 35.3455C17.6079 40.3775 17.754 49.1508 17.754 49.1508L12.2765 49.7383C12.2765 49.7383 7.42451 40.3596 8.23358 36.5204C8.49435 35.2831 9.23352 34.3353 10.1898 33.1425C11.1302 31.9696 11.8034 31.4433 12.9286 30.4989Z" fill="url(#paint6_linear_6449_67186)"/>
<path fill-rule="evenodd" clip-rule="evenodd" d="M9.92227 32.8986C8.50754 34.5612 8.02815 35.3488 6.81084 37.6458C6.30088 38.6079 6.53268 39.9066 6.73722 41.0538C6.76269 41.1966 6.78766 41.3371 6.81084 41.4743C7.80782 47.3839 12.3574 52.347 15.3338 53.1127C21.2607 53.4044 22.6525 52.4898 26.2729 50.1111L26.833 49.7436C30.7162 47.2027 33.5971 44.3839 35.2205 40.8617C35.856 39.4832 35.2205 36.8801 35.2205 36.8801C35.2205 36.8801 34.2974 33.8162 33.4619 31.9798C32.4152 29.6794 32.1091 29.2233 30.7562 27.2325C29.707 25.6885 28.5539 24.4761 26.833 24.4761C24.3976 24.4761 22.9095 24.7824 19.9333 26.0074C17.8008 26.8853 16.6001 27.4363 14.6573 28.7639C12.658 30.1301 11.5426 30.9946 9.92227 32.8986ZM10.3209 33.1411C8.95712 34.7357 8.49506 35.491 7.3213 37.6939C6.82994 38.6164 7.05308 39.8615 7.25023 40.9616C7.27468 41.0988 7.29888 41.2338 7.3213 41.3656C8.28262 47.0332 12.6684 51.793 15.5376 52.5273C21.2513 52.8071 22.5934 51.93 26.0834 49.6487C26.2576 49.5348 26.4372 49.4173 26.6231 49.2963C30.3668 46.8594 33.144 44.156 34.709 40.7781C35.3216 39.456 34.709 36.9596 34.709 36.9596C34.709 36.9596 33.819 34.0211 33.0136 32.2599C32.0046 30.0537 31.7094 29.6164 30.4052 27.7071C29.3937 26.2263 28.2821 25.0635 26.6231 25.0635C24.2756 25.0635 22.841 25.3573 19.9718 26.5322C17.916 27.3741 16.7585 27.9025 14.8855 29.1757C12.9583 30.486 11.8829 31.3151 10.3209 33.1411Z" fill="url(#paint7_linear_6449_67186)"/>
<path d="M66.2754 107.584C67.3726 106.419 68.5985 104.049 68.5985 104.049C68.5985 104.049 68.3403 104.969 68.1338 105.538C67.6573 106.851 67.2269 107.464 66.2754 108.328C65.3276 109.189 63.6426 109.63 63.6426 109.63C63.6426 109.63 65.3577 108.558 66.2754 107.584Z" fill="#AC7341"/>
<defs>
<filter id="filter0_f_6449_67186" x="34.4912" y="25.1807" width="10.6191" height="14.4619" filterUnits="userSpaceOnUse" color-interpolation-filters="sRGB">
<feFlood flood-opacity="0" result="BackgroundImageFix"/>
<feBlend mode="normal" in="SourceGraphic" in2="BackgroundImageFix" result="shape"/>
<feGaussianBlur stdDeviation="2" result="effect1_foregroundBlur_6449_67186"/>
</filter>
<linearGradient id="paint0_linear_6449_67186" x1="33.6894" y1="48.5344" x2="15.1787" y2="57.5446" gradientUnits="userSpaceOnUse">
<stop stop-color="#778186"/>
<stop offset="1" stop-color="#474B4C"/>
</linearGradient>
<linearGradient id="paint1_linear_6449_67186" x1="33.9483" y1="49.4159" x2="16.148" y2="57.9273" gradientUnits="userSpaceOnUse">
<stop stop-color="#C1C1C1"/>
<stop offset="1" stop-color="#929292"/>
</linearGradient>
<linearGradient id="paint2_linear_6449_67186" x1="25.734" y1="57.9339" x2="26.7028" y2="60.6581" gradientUnits="userSpaceOnUse">
<stop stop-color="#D48845"/>
<stop offset="1" stop-color="#4E3219"/>
</linearGradient>
<linearGradient id="paint3_linear_6449_67186" x1="1.56501" y1="30.3235" x2="32.6387" y2="34.7478" gradientUnits="userSpaceOnUse">
<stop stop-color="#9F9F9F"/>
<stop offset="1" stop-color="#787877"/>
</linearGradient>
<linearGradient id="paint4_linear_6449_67186" x1="2.08691" y1="35.6104" x2="25.9571" y2="36.1895" gradientUnits="userSpaceOnUse">
<stop stop-color="#CBCBCB"/>
<stop offset="1" stop-color="#828380"/>
</linearGradient>
<linearGradient id="paint5_linear_6449_67186" x1="7.84381" y1="39.164" x2="34.4524" y2="39.7431" gradientUnits="userSpaceOnUse">
<stop stop-color="#1B0A5D"/>
<stop offset="0.390625" stop-color="#1B0A5D"/>
<stop offset="0.970597" stop-color="#010005"/>
</linearGradient>
<linearGradient id="paint6_linear_6449_67186" x1="26.1007" y1="26.6804" x2="10.9149" y2="36.4197" gradientUnits="userSpaceOnUse">
<stop stop-color="#FFF9FF" stop-opacity="0.36"/>
<stop offset="1" stop-color="#1B0A5D" stop-opacity="0"/>
</linearGradient>
<linearGradient id="paint7_linear_6449_67186" x1="6.52076" y1="38.8401" x2="35.4735" y2="38.8401" gradientUnits="userSpaceOnUse">
<stop stop-color="#5B5C59"/>
<stop offset="1" stop-color="#3F403E"/>
</linearGradient>
</defs>
</svg>
