<svg width="1290" height="340" viewBox="0 0 1290 340" fill="none" xmlns="http://www.w3.org/2000/svg">
<g clip-path="url(#clip0_10332_86911)">
<rect width="1290" height="339.789" rx="10" fill="white"/>
<rect x="-4" width="1360" height="354" fill="url(#paint0_linear_10332_86911)"/>
<rect x="-4" width="1360" height="354" fill="url(#paint1_linear_10332_86911)" fill-opacity="0.44"/>
<ellipse cx="599.9" cy="291.49" rx="13.9527" ry="6.48964" fill="#7E2676"/>
<path d="M596.69 306.566C595.652 301.894 587.821 295.75 584.036 293.263C582.738 291.316 617.457 292.289 614.861 293.263C612.265 294.236 605.416 301.873 603.793 303.82C602.171 305.767 602.855 319.546 602.531 320.519C602.207 321.493 598.962 321.168 598.313 320.519C597.664 319.87 597.988 312.407 596.69 306.566Z" fill="url(#paint2_linear_10332_86911)"/>
<ellipse cx="630.029" cy="277.583" rx="18.4536" ry="8.58307" fill="#7E2676"/>
<path d="M625.784 297.523C624.411 291.344 614.054 283.218 609.047 279.928C607.33 277.353 653.25 278.641 649.817 279.928C646.383 281.215 637.324 291.316 635.178 293.891C633.033 296.466 633.938 314.689 633.509 315.977C633.08 317.264 628.788 316.835 627.93 315.977C627.071 315.119 627.501 305.248 625.784 297.523Z" fill="url(#paint3_linear_10332_86911)"/>
<path d="M1149.66 195.719C1152.63 210.005 1143.55 224.013 1129.41 227.015C1115.26 230.017 1101.39 220.845 1098.42 206.558C1095.45 192.272 1104.53 178.264 1118.67 175.262C1132.82 172.261 1146.69 181.433 1149.66 195.719Z" fill="url(#paint4_linear_10332_86911)"/>
<path style="mix-blend-mode:multiply" opacity="0.1" d="M1098.86 208.281C1098.97 208.467 1099.1 208.633 1099.25 208.782C1101.39 211.061 1104.09 212.728 1106.79 214.229C1110.2 216.175 1113.78 218.009 1117.63 218.954C1124.89 220.733 1132.65 219.176 1139.53 216.119C1142.29 214.896 1144.98 213.395 1147.79 212.284C1144.43 219.566 1137.83 225.236 1129.41 227.014C1115.81 229.905 1102.55 221.567 1098.86 208.281Z" fill="url(#paint5_linear_10332_86911)"/>
<g style="mix-blend-mode:multiply">
<path style="mix-blend-mode:multiply" d="M1106.51 220.677C1106.62 220.64 1106.71 220.621 1106.79 220.621C1107.74 220.436 1108.71 220.232 1109.7 220.01C1115.76 218.676 1122.2 216.786 1128.8 214.395C1136.45 211.616 1143.72 208.392 1149.88 205.057C1149.59 206.798 1149.13 208.503 1148.51 210.171C1142.95 213.006 1136.67 215.73 1130.12 218.12C1123.46 220.51 1116.97 222.4 1110.8 223.79C1109.26 222.9 1107.83 221.863 1106.51 220.677Z" fill="url(#paint6_linear_10332_86911)"/>
</g>
<path opacity="0.3" d="M1149.99 204.113C1149.85 204.187 1149.72 204.261 1149.61 204.335C1143.06 207.893 1135.24 211.339 1126.99 214.23C1120.22 216.62 1113.61 218.566 1107.39 219.9C1107.28 219.937 1107.15 219.974 1107.01 220.011C1106.82 220.048 1106.64 220.085 1106.46 220.122C1098.09 221.901 1080.64 224.68 1078.11 217.621C1077.12 214.952 1078.99 211.673 1083.83 207.559C1087.36 204.613 1092.26 201.389 1097.87 198.332C1097.72 199.74 1097.7 201.185 1097.81 202.668C1085.71 209.56 1081.25 214.952 1081.74 216.287C1082.4 218.121 1089.01 219.733 1103.7 216.842C1104.66 216.657 1105.63 216.453 1106.62 216.231C1112.67 214.897 1119.11 213.062 1125.72 210.728C1133.98 207.782 1141.68 204.391 1148.12 200.889C1148.78 200.518 1149.4 200.166 1149.99 199.833C1160.78 193.607 1163.92 189.049 1163.31 187.436C1163.2 187.103 1161.88 186.158 1157.48 186.102C1154.45 186.102 1150.6 186.436 1146.41 187.214C1145.68 185.991 1144.85 184.861 1143.94 183.823C1151.2 182.378 1164.96 180.544 1167 186.158C1169.26 192.439 1157.31 200.111 1149.99 204.113Z" fill="url(#paint7_linear_10332_86911)"/>
<path opacity="0.3" d="M1140.3 180.432C1139.37 182.378 1138.76 184.434 1137.22 185.991C1134.86 188.437 1131.39 189.882 1128.09 190.271C1127.76 190.308 1127.43 190.327 1127.1 190.327C1127.04 191.883 1126.21 193.384 1124.29 193.773C1120.99 194.496 1119.28 191.049 1120.16 188.659C1119.22 188.27 1118.34 187.936 1117.41 187.603C1112.89 186.046 1107.89 186.158 1103.21 187.325C1102.62 187.473 1102.02 187.64 1101.39 187.825C1105.02 181.599 1111.13 176.874 1118.67 175.262C1126.6 173.595 1134.42 175.707 1140.3 180.432Z" fill="url(#paint8_linear_10332_86911)"/>
<path d="M1107.39 199.109C1102.77 200.11 1104.25 207.392 1108.93 206.447C1113.61 205.446 1112.07 198.109 1107.39 199.109Z" fill="url(#paint9_linear_10332_86911)"/>
<path d="M1140.14 195.273C1136.84 195.996 1137.88 201.166 1141.19 200.443C1144.49 199.776 1143.44 194.551 1140.14 195.273Z" fill="url(#paint10_linear_10332_86911)"/>
<path opacity="0.3" d="M1128.2 197.721C1127.21 197.943 1127.54 199.5 1128.53 199.277C1129.46 199.055 1129.19 197.499 1128.2 197.721Z" fill="url(#paint11_linear_10332_86911)"/>
<path opacity="0.3" d="M1142.62 187.047V187.214C1142.65 187.362 1142.65 187.492 1142.62 187.603C1142.58 187.677 1142.54 187.751 1142.51 187.825C1142.43 187.936 1142.34 188.029 1142.23 188.103C1142.16 188.103 1142.1 188.122 1142.07 188.159C1141.96 188.196 1141.85 188.196 1141.74 188.159C1141.63 188.122 1141.53 188.085 1141.46 188.048C1141.35 187.973 1141.28 187.899 1141.24 187.825C1141.17 187.751 1141.13 187.658 1141.13 187.547L1141.07 187.381C1141.04 187.232 1141.06 187.103 1141.13 186.991C1141.13 186.917 1141.15 186.843 1141.19 186.769C1141.26 186.658 1141.37 186.584 1141.52 186.547L1141.68 186.436C1141.79 186.436 1141.9 186.436 1142.01 186.436C1142.08 186.473 1142.18 186.51 1142.29 186.547C1142.36 186.621 1142.43 186.695 1142.51 186.769C1142.54 186.843 1142.58 186.936 1142.62 187.047Z" fill="url(#paint12_linear_10332_86911)"/>
<path opacity="0.3" d="M1138.27 214.897C1137.28 215.119 1137.61 216.62 1138.6 216.453C1139.59 216.231 1139.26 214.674 1138.27 214.897Z" fill="url(#paint13_linear_10332_86911)"/>
<path opacity="0.3" d="M1118.23 208.06L1118.34 208.393C1118.38 208.542 1118.36 208.708 1118.29 208.894C1118.25 208.968 1118.22 209.042 1118.18 209.116C1118.11 209.264 1117.98 209.376 1117.79 209.45C1117.72 209.487 1117.65 209.524 1117.57 209.561C1117.43 209.561 1117.3 209.542 1117.19 209.505C1117.08 209.505 1116.97 209.468 1116.86 209.394C1116.75 209.32 1116.66 209.227 1116.58 209.116C1116.51 209.005 1116.45 208.894 1116.42 208.783L1116.36 208.449C1116.33 208.264 1116.33 208.097 1116.36 207.949C1116.4 207.875 1116.44 207.801 1116.47 207.726C1116.58 207.578 1116.71 207.467 1116.86 207.393C1116.93 207.356 1117.02 207.319 1117.13 207.282C1117.24 207.245 1117.35 207.245 1117.46 207.282C1117.61 207.319 1117.74 207.374 1117.85 207.448C1117.96 207.523 1118.05 207.615 1118.12 207.726C1118.2 207.801 1118.23 207.912 1118.23 208.06Z" fill="url(#paint14_linear_10332_86911)"/>
<path opacity="0.3" d="M1105.19 191.495C1103.92 191.773 1104.36 193.718 1105.57 193.44C1106.79 193.162 1106.4 191.272 1105.19 191.495Z" fill="url(#paint15_linear_10332_86911)"/>
<path d="M1117.46 220.9C1116.25 221.178 1116.64 223.068 1117.9 222.846C1119.11 222.568 1118.73 220.622 1117.46 220.9Z" fill="url(#paint16_linear_10332_86911)"/>
<path d="M1133.48 222.456C1135.24 222.123 1136.67 222.734 1137.55 223.791C1135.3 225.18 1132.76 226.181 1130.07 226.848C1130.01 224.902 1131.06 223.012 1133.48 222.456Z" fill="url(#paint17_linear_10332_86911)"/>
<path d="M1204.66 259.507C1207.21 263.372 1137.12 311.729 1116.39 325.42C1095.67 339.11 1085.97 345.536 1076.88 352.38C1079.97 345.104 1092.03 338.638 1110.3 323.187C1131.02 309.496 1202.11 255.642 1204.66 259.507Z" fill="url(#paint18_linear_10332_86911)"/>
<path d="M434.432 299.009C366.096 298.386 113.671 330.909 -4 347.249V353.992C233.084 353.732 725.034 353.369 796.16 353.992C885.066 354.77 519.852 299.787 434.432 299.009Z" fill="url(#paint19_linear_10332_86911)" stroke="#8A01BA"/>
<path d="M434.432 299.009C366.096 298.386 113.671 330.909 -4 347.249V353.992C233.084 353.732 725.034 353.369 796.16 353.992C885.066 354.77 519.852 299.787 434.432 299.009Z" fill="url(#paint20_linear_10332_86911)" fill-opacity="0.44" stroke="#8A01BA"/>
<path opacity="0.4" d="M1341 154.088C1347.8 156.088 1345.5 161.588 1343.5 164.088H1156.5C1155.67 164.088 1154 163.688 1154 162.088C1154 160.088 1156.5 154.088 1161 152.588C1165.5 151.088 1188 152.588 1190.5 152.588C1193 152.588 1198.5 150.088 1201.5 146.588C1204.5 143.088 1218.02 130.049 1220.5 128.088C1225.66 124.011 1235.76 124.474 1238.5 126.588C1241.67 129.029 1254.5 136.088 1258.5 138.588C1262.5 141.088 1268.5 138.588 1268.5 138.588C1268.5 138.588 1278 134.588 1284 133.588C1290 132.588 1293.5 136.088 1299 141.088C1304.5 146.088 1320.5 152.588 1320.5 152.588C1320.5 152.588 1337.5 154.088 1341 154.088Z" fill="url(#paint21_linear_10332_86911)"/>
<path opacity="0.4" d="M154 167.088C160.8 169.088 158.5 174.588 156.5 177.088H-30.5C-31.3333 177.088 -33 176.688 -33 175.088C-33 173.088 -30.5 167.088 -26 165.588C-21.5 164.088 1 165.588 3.5 165.588C6 165.588 11.5 163.088 14.5 159.588C17.5 156.088 31.0188 143.049 33.5 141.088C38.6605 137.011 48.7557 137.474 51.5 139.588C54.6689 142.029 67.5 149.088 71.5 151.588C75.5 154.088 81.5 151.588 81.5 151.588C81.5 151.588 91 147.588 97 146.588C103 145.588 106.5 149.088 112 154.088C117.5 159.088 133.5 165.588 133.5 165.588C133.5 165.588 150.5 167.088 154 167.088Z" fill="url(#paint22_linear_10332_86911)"/>
<path opacity="0.2" d="M518.45 228.628C527.408 231.576 524.205 239.117 521.483 242.519L273.568 237.478C272.463 237.455 270.265 236.857 270.31 234.646C270.366 231.881 273.849 223.654 279.857 221.702C285.865 219.75 315.652 222.43 318.967 222.497C322.281 222.565 329.643 219.257 333.719 214.5C337.794 209.743 356.083 192.082 359.428 189.439C366.384 183.941 379.755 184.855 383.334 187.851C387.466 191.31 404.278 201.414 409.511 204.978C414.744 208.542 422.769 205.247 422.769 205.247C422.769 205.247 435.476 199.974 443.458 198.754C451.441 197.533 455.983 202.466 463.134 209.526C470.285 216.586 491.314 226.002 491.314 226.002C491.314 226.002 513.81 228.534 518.45 228.628Z" fill="url(#paint23_linear_10332_86911)"/>
<path opacity="0.2" d="M1087.2 185.251C1096.15 188.199 1092.95 195.74 1090.23 199.142L842.314 194.101C841.209 194.078 839.011 193.48 839.056 191.269C839.112 188.504 842.595 180.277 848.603 178.325C854.611 176.373 884.399 179.053 887.713 179.121C891.027 179.188 898.389 175.88 902.465 171.123C906.54 166.366 924.83 148.705 928.174 146.062C935.13 140.564 948.501 141.478 952.08 144.474C956.212 147.933 973.025 158.037 978.257 161.601C983.49 165.165 991.515 161.871 991.515 161.871C991.515 161.871 1004.22 156.597 1012.2 155.377C1020.19 154.156 1024.73 159.089 1031.88 166.149C1039.03 173.209 1060.06 182.625 1060.06 182.625C1060.06 182.625 1082.56 185.157 1087.2 185.251Z" fill="url(#paint24_linear_10332_86911)"/>
<path d="M980.432 304.008C912.096 303.442 659.671 333.008 542 347.862V353.993C779.084 353.757 1271.03 353.427 1342.16 353.993C1431.07 354.7 1065.85 304.715 980.432 304.008Z" fill="url(#paint25_linear_10332_86911)" stroke="#8A01BA"/>
<path d="M980.432 304.008C912.096 303.442 659.671 333.008 542 347.862V353.993C779.084 353.757 1271.03 353.427 1342.16 353.993C1431.07 354.7 1065.85 304.715 980.432 304.008Z" fill="url(#paint26_linear_10332_86911)" fill-opacity="0.44" stroke="#8A01BA"/>
<ellipse opacity="0.55" cx="215" cy="91.5" rx="11" ry="11.5" fill="url(#paint27_linear_10332_86911)"/>
<ellipse opacity="0.55" cx="855" cy="201.5" rx="11" ry="11.5" fill="url(#paint28_linear_10332_86911)"/>
<ellipse opacity="0.55" cx="-2" cy="303.5" rx="20" ry="19.5" fill="url(#paint29_linear_10332_86911)"/>
<ellipse opacity="0.55" cx="1029" cy="62.5" rx="11" ry="11.5" fill="url(#paint30_linear_10332_86911)"/>
<circle opacity="0.55" cx="488" cy="155" r="6" fill="url(#paint31_linear_10332_86911)"/>
<circle cx="697" cy="57" r="6" fill="url(#paint32_linear_10332_86911)"/>
<circle cx="1186" cy="13" r="6" fill="url(#paint33_linear_10332_86911)"/>
<circle cx="121" cy="129" r="6" fill="url(#paint34_linear_10332_86911)"/>
<circle opacity="0.55" cx="458" cy="45" r="6" fill="url(#paint35_linear_10332_86911)"/>
<circle opacity="0.55" cx="943" cy="256" r="6" fill="url(#paint36_linear_10332_86911)"/>
<path d="M1050 170.514L1170.28 48.6979L1249.59 92.4746L1209.52 267.945L1050 170.514Z" fill="url(#paint37_linear_10332_86911)"/>
<path d="M1062.66 130.92L1035.23 170.219L1118.04 210.329L1122.29 165.465L1062.66 130.92Z" fill="url(#paint38_linear_10332_86911)" fill-opacity="0.1"/>
<path d="M1190.75 66.8931C1188.96 70.138 1196.19 77.7231 1207 83.7821C1217.82 89.841 1228.06 92.056 1229.79 88.6965C1230.43 87.6912 1230.03 86.2264 1229.02 84.5089C1226.75 80.9134 1220.95 76.0302 1213.6 71.922C1206.18 67.6993 1198.96 65.3756 1194.69 65.4592C1192.67 65.4326 1191.39 65.8878 1190.75 66.8931Z" fill="#B4AEEB"/>
<path d="M1166.66 39.3652C1163.12 45.6724 1182.57 63.2773 1210.01 78.7236C1237.49 93.987 1262.58 101.239 1266.23 94.8637C1266.97 93.4924 1266.64 91.3643 1265.23 88.9597C1260.43 80.5325 1244.08 67.4171 1222.77 55.5736C1199.97 42.7666 1178.63 35.5898 1170.08 37.3126C1168.38 37.5611 1167.24 38.2453 1166.66 39.3652Z" fill="url(#paint39_linear_10332_86911)"/>
<path d="M1166.66 39.368C1163.12 45.6754 1182.57 63.2795 1210.01 78.7249C1237.49 93.9873 1262.58 101.239 1266.23 94.8628C1266.97 93.4916 1266.64 91.3635 1265.23 88.9589C1264.95 89.2787 1264.7 89.8959 1263.04 90.7393C1262.12 91.2867 1257.6 91.9877 1246.32 88.5358C1236.3 85.4065 1223.99 79.9397 1211.64 73.1003C1199.22 66.1463 1188.12 58.5542 1180.16 51.5626C1174.47 46.611 1171.79 43.1061 1170.51 40.9306C1169.91 39.9 1169.82 38.7103 1170.1 37.6128C1170.14 37.4908 1170.13 37.3917 1170.08 37.3153C1168.38 37.5639 1167.24 38.2481 1166.66 39.368Z" fill="url(#paint40_linear_10332_86911)"/>
<path d="M1203.06 40.7607L1245.55 65.2902C1246.47 63.1875 1245.83 61.5622 1245.73 59.2974C1245.12 52.2281 1239.66 44.5096 1230.95 39.6674C1222.24 34.8251 1212.75 34.1675 1206.51 37.4502C1204.73 38.362 1204.25 39.1159 1203.06 40.7607Z" fill="url(#paint41_linear_10332_86911)"/>
<path d="M1185.48 45.4273C1184.95 46.3642 1185.22 47.5999 1185.89 47.9671L1194.6 52.8091L1240.67 78.4422L1248.52 82.871C1249.38 83.2843 1250.59 82.7146 1250.91 81.4343L1251.68 79.5829C1251.82 79.0341 1251.84 78.5538 1251.69 78.0275L1247.53 65.1878C1247.13 63.7231 1246.16 62.6006 1244.99 61.9123L1204.59 39.3774C1203.49 38.8035 1201.59 39.7837 1200.14 40.1928L1186.76 44.1945C1186.24 44.3537 1185.73 44.8102 1185.48 45.4273Z" fill="url(#paint42_linear_10332_86911)"/>
<path d="M1245.75 72.2086C1245.34 73.0767 1245.65 74.1289 1246.51 74.542C1247.3 74.8406 1248.28 74.408 1248.69 73.54C1249.11 72.6719 1248.68 71.6881 1247.89 71.3894C1247.03 70.9763 1246.05 71.409 1245.75 72.2086Z" fill="url(#paint43_linear_10332_86911)"/>
<path d="M1236.93 68.1897C1236.51 69.0578 1236.94 70.0416 1237.61 70.4086C1238.47 70.8217 1239.45 70.3891 1239.87 69.5211C1240.28 68.653 1239.92 67.7836 1239.18 67.3022C1238.32 66.8891 1237.34 67.3217 1236.93 68.1897Z" fill="url(#paint44_linear_10332_86911)"/>
<path d="M1228.26 63.922C1227.84 64.79 1228.09 65.7278 1228.95 66.1408C1229.81 66.5539 1230.67 66.1897 1231.09 65.3217C1231.5 64.4537 1231.26 63.5159 1230.51 63.0344C1229.65 62.6213 1228.67 63.054 1228.26 63.922Z" fill="url(#paint45_linear_10332_86911)"/>
<path d="M1219.69 59.2886C1219.27 60.1566 1219.58 61.2088 1220.26 61.5758C1221.12 61.9889 1222.05 61.739 1222.58 60.8027C1223.06 60.0491 1222.75 58.9969 1221.89 58.5839C1221.21 58.2169 1220.17 58.535 1219.69 59.2886Z" fill="url(#paint46_linear_10332_86911)"/>
<path d="M1211.34 54.5159C1210.74 55.3379 1211.05 56.3901 1211.8 56.8715C1212.66 57.2846 1213.59 57.0348 1214.01 56.1668C1214.6 55.3449 1214.29 54.2927 1213.55 53.8112C1212.75 53.5126 1211.82 53.7624 1211.34 54.5159Z" fill="url(#paint47_linear_10332_86911)"/>
<path d="M1203.09 49.3783C1202.49 50.2003 1202.8 51.2525 1203.55 51.734C1204.29 52.2155 1205.22 51.9657 1205.82 51.1437C1206.3 50.3901 1205.99 49.3379 1205.36 48.788C1204.61 48.3066 1203.57 48.6247 1203.09 49.3783Z" fill="url(#paint48_linear_10332_86911)"/>
<path d="M1195.11 43.9238C1194.56 44.5629 1194.75 45.6835 1195.38 46.2333C1196.13 46.7148 1197.24 46.511 1197.73 45.7575C1198.21 45.0039 1198.19 43.9294 1197.45 43.448C1196.7 42.9665 1195.7 43.1019 1195.11 43.9238Z" fill="url(#paint49_linear_10332_86911)"/>
<path d="M1074.53 140.373L1053.01 172.733L1107 195.571L1113.56 162.18L1074.53 140.373Z" fill="url(#paint50_linear_10332_86911)" fill-opacity="0.1"/>
<g opacity="0.55">
<path d="M136.579 69.7895C136.579 84.5849 124.585 96.5789 109.789 96.5789C94.9941 96.5789 83 84.5849 83 69.7895C83 54.9941 94.9941 43 109.789 43C124.585 43 136.579 54.9941 136.579 69.7895Z" fill="url(#paint51_linear_10332_86911)"/>
<path d="M115.147 57.8993C115.147 64.1319 108.249 55.3208 103.393 65.3334C96.0141 65.3334 86.4824 64.1319 86.4824 57.8993C86.4824 51.6668 100.647 54.3497 103.963 45.8106C119.601 40.4861 109.287 53.3451 115.147 57.8993Z" fill="url(#paint52_linear_10332_86911)"/>
<path d="M133.644 77.3983C136.051 80.8426 126.967 79.9425 126.834 88.2696C120.757 92.5155 112.83 97.8895 110.423 94.4452C108.017 91.0009 120.719 84.3332 120.152 77.7067C130.976 65.7661 127.06 78.2534 133.644 77.3983Z" fill="url(#paint53_linear_10332_86911)"/>
</g>
<path d="M983.198 20.5816C985.428 24.6427 911.615 67.1129 889.845 79.0658C868.075 91.0186 857.875 96.6302 848.26 102.709C851.934 95.7093 864.477 90.2501 883.955 76.3428C905.725 64.39 980.968 16.5205 983.198 20.5816Z" fill="url(#paint54_linear_10332_86911)"/>
<path d="M418.198 52.5816C420.428 56.6427 346.615 99.1129 324.845 111.066C303.075 123.019 292.875 128.63 283.26 134.709C286.934 127.709 299.477 122.25 318.955 108.343C340.725 96.39 415.968 48.5205 418.198 52.5816Z" fill="url(#paint55_linear_10332_86911)"/>
<path d="M683.682 122.171C686.236 126.036 616.138 174.393 595.417 188.084C574.696 201.775 564.988 208.2 555.902 215.044C558.992 207.768 571.048 201.302 589.325 185.851C610.046 172.16 681.128 118.306 683.682 122.171Z" fill="url(#paint56_linear_10332_86911)"/>
<path d="M1324.66 6.50694C1327.21 10.3724 1257.12 58.7289 1236.39 72.4197C1215.67 86.1105 1205.97 92.5364 1196.88 99.3797C1199.97 92.1037 1212.03 85.6384 1230.3 70.1868C1251.02 56.496 1322.11 2.64152 1324.66 6.50694Z" fill="url(#paint57_linear_10332_86911)"/>
<path d="M724.01 299.009C676.158 298.386 499.398 330.909 417 347.249V353.992C583.017 353.732 927.503 353.369 977.308 353.992C1039.56 354.77 783.825 299.787 724.01 299.009Z" fill="url(#paint58_linear_10332_86911)" stroke="#8A01BA"/>
<path d="M724.01 299.009C676.158 298.386 499.398 330.909 417 347.249V353.992C583.017 353.732 927.503 353.369 977.308 353.992C1039.56 354.77 783.825 299.787 724.01 299.009Z" fill="url(#paint59_linear_10332_86911)" stroke="#8A01BA"/>
<ellipse cx="1116.5" cy="283" rx="21.5" ry="10" fill="#7E2676"/>
<path d="M1111.55 306.232C1109.95 299.032 1097.89 289.565 1092.05 285.732C1090.05 282.732 1143.55 284.232 1139.55 285.732C1135.55 287.232 1125 299 1122.5 302C1120 305 1121.05 326.232 1120.55 327.732C1120.05 329.232 1115.05 328.732 1114.05 327.732C1113.05 326.732 1113.55 315.232 1111.55 306.232Z" fill="url(#paint60_linear_10332_86911)"/>
<ellipse cx="1165.4" cy="301.286" rx="13.515" ry="6.28606" fill="#7E2676"/>
<path d="M1162.29 315.889C1161.29 311.363 1153.7 305.412 1150.03 303.003C1148.78 301.117 1182.41 302.06 1179.89 303.003C1177.38 303.946 1170.74 311.343 1169.17 313.229C1167.6 315.115 1168.26 328.461 1167.95 329.404C1167.64 330.347 1164.49 330.033 1163.86 329.404C1163.24 328.776 1163.55 321.547 1162.29 315.889Z" fill="url(#paint61_linear_10332_86911)"/>
<g opacity="0.66">
<path d="M1214.85 264.919C1214.85 277.113 1224.72 286.997 1236.9 286.997C1249.08 286.997 1258.96 277.113 1258.96 264.919C1258.96 252.727 1249.08 242.844 1236.9 242.844C1224.72 242.844 1214.85 252.727 1214.85 264.919Z" fill="url(#paint62_radial_10332_86911)"/>
<path d="M1219.08 265.284C1219.08 271.344 1222.2 276.676 1226.92 279.746C1228.6 280.845 1230.48 281.656 1232.5 282.106C1233.73 282.391 1235 282.538 1236.32 282.538C1240.86 282.538 1244.99 280.781 1248.07 277.901C1249.13 276.912 1250.07 275.789 1250.85 274.552C1251.61 273.361 1252.23 272.073 1252.68 270.704C1253.25 268.999 1253.55 267.178 1253.55 265.284C1253.55 263.508 1253.29 261.794 1252.79 260.184C1251.02 254.445 1246.34 249.988 1240.47 248.534C1239.14 248.207 1237.75 248.029 1236.32 248.029C1232.77 248.029 1229.47 249.107 1226.73 250.952C1226.4 251.167 1226.08 251.402 1225.77 251.641C1221.75 254.751 1219.14 259.606 1219.09 265.072C1219.08 265.143 1219.08 265.213 1219.08 265.284Z" fill="url(#paint63_linear_10332_86911)"/>
<g style="mix-blend-mode:overlay" opacity="0.302">
<path d="M1219.08 265.283C1219.08 268.636 1220.04 271.766 1221.69 274.413C1224.1 278.276 1230.56 277.704 1229.87 273.192C1229.66 271.778 1228.91 270.38 1227.47 269.201C1221.59 264.374 1227.12 263.486 1233.36 255.632C1237.13 250.884 1232.31 250.438 1227.91 250.829C1227.13 250.897 1226.39 251.164 1225.77 251.641C1221.75 254.751 1219.14 259.605 1219.09 265.072C1219.08 265.142 1219.08 265.213 1219.08 265.283Z" fill="white"/>
</g>
<g style="mix-blend-mode:overlay" opacity="0.302">
<path d="M1241.74 252.95C1247.63 257.955 1248.26 255.812 1245.84 262.057C1244.81 264.758 1245.89 268.425 1247.98 271.421C1249.28 273.289 1251.97 272.875 1252.68 270.707C1253.25 269.002 1253.55 267.181 1253.55 265.286C1253.55 263.511 1253.29 261.796 1252.79 260.186C1251.53 256.096 1248.79 252.658 1245.19 250.493C1242.52 248.884 1239.36 250.93 1241.74 252.95Z" fill="white"/>
</g>
<g style="mix-blend-mode:overlay" opacity="0.302">
<path d="M1232.62 278.234C1232.3 280.537 1234.01 282.539 1236.32 282.539C1240.16 282.539 1243.71 281.278 1246.58 279.142C1247.35 278.57 1247.2 277.441 1246.29 277.149C1238.8 274.731 1242.45 258.664 1238.36 263.488C1236.51 265.663 1233.41 272.487 1232.62 278.234Z" fill="white"/>
</g>
<g style="mix-blend-mode:overlay" opacity="0.302">
<path d="M1236.39 255.902C1237.3 253.98 1239.85 253.38 1241.36 254.88C1242.1 255.615 1242.37 256.677 1241.03 258.131C1238.54 260.834 1234.98 258.887 1236.39 255.902Z" fill="white"/>
</g>
</g>
<g opacity="0.66">
<path d="M1214.85 264.919C1214.85 277.113 1224.72 286.997 1236.9 286.997C1249.08 286.997 1258.96 277.113 1258.96 264.919C1258.96 252.727 1249.08 242.844 1236.9 242.844C1224.72 242.844 1214.85 252.727 1214.85 264.919Z" fill="url(#paint64_radial_10332_86911)"/>
<path d="M1219.08 265.284C1219.08 271.344 1222.2 276.676 1226.92 279.746C1228.6 280.845 1230.48 281.656 1232.5 282.106C1233.73 282.391 1235 282.538 1236.32 282.538C1240.86 282.538 1244.99 280.781 1248.07 277.901C1249.13 276.912 1250.07 275.789 1250.85 274.552C1251.61 273.361 1252.23 272.073 1252.68 270.704C1253.25 268.999 1253.55 267.178 1253.55 265.284C1253.55 263.508 1253.29 261.794 1252.79 260.184C1251.02 254.445 1246.34 249.988 1240.47 248.534C1239.14 248.207 1237.75 248.029 1236.32 248.029C1232.77 248.029 1229.47 249.107 1226.73 250.952C1226.4 251.167 1226.08 251.402 1225.77 251.641C1221.75 254.751 1219.14 259.606 1219.09 265.072C1219.08 265.143 1219.08 265.213 1219.08 265.284Z" fill="url(#paint65_linear_10332_86911)"/>
<g style="mix-blend-mode:overlay" opacity="0.302">
<path d="M1219.08 265.283C1219.08 268.636 1220.04 271.766 1221.69 274.413C1224.1 278.276 1230.56 277.704 1229.87 273.192C1229.66 271.778 1228.91 270.38 1227.47 269.201C1221.59 264.374 1227.12 263.486 1233.36 255.632C1237.13 250.884 1232.31 250.438 1227.91 250.829C1227.13 250.897 1226.39 251.164 1225.77 251.641C1221.75 254.751 1219.14 259.605 1219.09 265.072C1219.08 265.142 1219.08 265.213 1219.08 265.283Z" fill="white"/>
</g>
<g style="mix-blend-mode:overlay" opacity="0.302">
<path d="M1241.74 252.95C1247.63 257.955 1248.26 255.812 1245.84 262.057C1244.81 264.758 1245.89 268.425 1247.98 271.421C1249.28 273.289 1251.97 272.875 1252.68 270.707C1253.25 269.002 1253.55 267.181 1253.55 265.286C1253.55 263.511 1253.29 261.796 1252.79 260.186C1251.53 256.096 1248.79 252.658 1245.19 250.493C1242.52 248.884 1239.36 250.93 1241.74 252.95Z" fill="white"/>
</g>
<g style="mix-blend-mode:overlay" opacity="0.302">
<path d="M1232.62 278.234C1232.3 280.537 1234.01 282.539 1236.32 282.539C1240.16 282.539 1243.71 281.278 1246.58 279.142C1247.35 278.57 1247.2 277.441 1246.29 277.149C1238.8 274.731 1242.45 258.664 1238.36 263.488C1236.51 265.663 1233.41 272.487 1232.62 278.234Z" fill="white"/>
</g>
<g style="mix-blend-mode:overlay" opacity="0.302">
<path d="M1236.39 255.902C1237.3 253.98 1239.85 253.38 1241.36 254.88C1242.1 255.615 1242.37 256.677 1241.03 258.131C1238.54 260.834 1234.98 258.887 1236.39 255.902Z" fill="white"/>
</g>
</g>
<g opacity="0.66">
<path d="M5.70801 51.1341C5.70801 59.2873 12.3111 65.8953 20.4536 65.8953C28.5981 65.8953 35.1992 59.2873 35.1992 51.1341C35.1992 42.9831 28.5981 36.375 20.4536 36.375C12.3111 36.375 5.70801 42.9831 5.70801 51.1341Z" fill="url(#paint66_radial_10332_86911)"/>
<path d="M8.53906 51.3778C8.53906 55.4298 10.6263 58.9947 13.7827 61.0473C14.905 61.782 16.1623 62.3243 17.5095 62.6252C18.3313 62.8155 19.1858 62.9137 20.0628 62.9137C23.0986 62.9137 25.8605 61.739 27.9191 59.8133C28.6305 59.1523 29.2581 58.4012 29.7814 57.5745C30.2905 56.7784 30.7055 55.9168 31.006 55.0021C31.3842 53.8622 31.5866 52.6445 31.5866 51.3778C31.5866 50.1908 31.4087 49.0448 31.0775 47.9683C29.8918 44.1312 26.762 41.1515 22.841 40.1795C21.9517 39.9605 21.0195 39.8418 20.0628 39.8418C17.6914 39.8418 15.4836 40.5622 13.656 41.7962C13.4352 41.9394 13.2185 42.097 13.012 42.2566C10.3217 44.3358 8.58199 47.5816 8.54315 51.2365C8.53906 51.2836 8.53906 51.3307 8.53906 51.3778Z" fill="url(#paint67_linear_10332_86911)"/>
<g style="mix-blend-mode:overlay" opacity="0.302">
<path d="M8.53906 51.3782C8.53906 53.6198 9.17785 55.7124 10.283 57.4823C11.8957 60.0648 16.2167 59.6824 15.7563 56.6657C15.612 55.7203 15.1132 54.7858 14.1507 53.9977C10.2154 50.7704 13.9135 50.177 18.0839 44.9257C20.6062 41.7512 17.3861 41.4526 14.441 41.714C13.9234 41.76 13.4244 41.9383 13.012 42.2571C10.3217 44.3363 8.58199 47.582 8.54315 51.237C8.53906 51.2841 8.53906 51.3312 8.53906 51.3782Z" fill="white"/>
</g>
<g style="mix-blend-mode:overlay" opacity="0.302">
<path d="M23.6912 43.1317C27.6264 46.4776 28.0455 45.0451 26.4326 49.2199C25.7393 51.0262 26.4668 53.4774 27.8626 55.4805C28.7331 56.7299 30.5294 56.453 31.0057 55.0032C31.3839 53.8634 31.5863 52.6457 31.5863 51.3789C31.5863 50.192 31.4084 49.046 31.0772 47.9695C30.2322 45.235 28.3999 42.9359 25.9974 41.4886C24.2118 40.4129 22.0995 41.781 23.6912 43.1317Z" fill="white"/>
</g>
<g style="mix-blend-mode:overlay" opacity="0.302">
<path d="M17.5898 60.0356C17.378 61.5756 18.5212 62.9139 20.0622 62.9139C22.634 62.9139 25.0091 62.0709 26.9266 60.6424C27.4394 60.2605 27.3399 59.5057 26.7328 59.31C21.7222 57.6933 24.1652 46.9514 21.4258 50.1766C20.1894 51.6305 18.1181 56.1932 17.5898 60.0356Z" fill="white"/>
</g>
<g style="mix-blend-mode:overlay" opacity="0.302">
<path d="M20.1119 45.1065C20.7211 43.8213 22.424 43.4202 23.4339 44.423C23.9306 44.9141 24.1085 45.6242 23.2151 46.5963C21.5511 48.4034 19.1674 47.1018 20.1119 45.1065Z" fill="white"/>
</g>
</g>
<path d="M175.744 289.055C176.944 292.255 180.244 292.722 181.744 292.555C182.578 290.555 184.044 285.955 183.244 283.555C182.244 280.555 175.744 277.555 173.744 278.055C171.744 278.555 174.244 285.055 175.744 289.055Z" fill="#16442B"/>
<path opacity="0.2" d="M180 286.5C181.2 289.7 180.244 292.722 181.744 292.555C182.577 290.555 184.044 285.955 183.244 283.555C182.244 280.555 175.744 277.555 173.744 278.055C171.744 278.555 178.5 282.5 180 286.5Z" fill="white"/>
<path d="M179 324.5C178.666 314.167 178.8 293.3 182 292.5" stroke="#16442B"/>
<path d="M185 284.903C182.6 286.103 182 290.736 182 292.903C191 295.403 193.5 284.403 192 283.403C190.5 282.403 188 283.403 185 284.903Z" fill="#16442B"/>
<path opacity="0.2" d="M186 284.499C184 285.499 183 288.271 183 289.748C190.783 291.452 192.946 283.955 191.648 283.274C190.351 282.592 188.494 283.252 186 284.499Z" fill="white"/>
<path d="M185.897 307.366C183.926 307.708 180.82 310.277 179.513 311.518C181.523 317.259 186.942 316.319 190.391 315.721C193.839 315.123 194.634 310.925 194.463 309.94C194.292 308.955 188.36 306.939 185.897 307.366Z" fill="#16442B"/>
<path opacity="0.22" d="M185.897 307.366C183.926 307.708 180.82 310.277 179.513 311.518C181.523 317.259 185.551 310.097 189 309.499C192.449 308.901 194.634 310.925 194.463 309.94C194.292 308.955 188.36 306.939 185.897 307.366Z" fill="white"/>
<path d="M178.712 304.408C177.212 301.242 172.912 295.408 167.712 297.408C166.712 298.908 164.712 310.408 178.712 304.408Z" fill="#16442B"/>
<path d="M167.711 297.408C172.911 295.408 177.211 301.242 178.711 304.408C173.884 306.477 173.219 302.465 171.5 301.5C168.232 299.666 167.056 298.391 167.711 297.408Z" fill="white" fill-opacity="0.22"/>
<path d="M542.673 312.528C543.975 314.561 546.323 314.395 547.334 314.059C547.614 312.554 547.947 309.16 547.04 307.621C545.906 305.697 540.973 304.586 539.666 305.227C538.358 305.868 541.046 309.987 542.673 312.528Z" fill="#16442B"/>
<path opacity="0.2" d="M545.234 310.134C546.536 312.166 546.323 314.395 547.334 314.058C547.614 312.553 547.947 309.16 547.04 307.62C545.906 305.696 540.973 304.585 539.666 305.226C538.359 305.867 543.607 307.593 545.234 310.134Z" fill="white"/>
<path d="M550.16 336.527C548.403 329.44 545.411 315.009 547.503 313.983" stroke="#16442B"/>
<path d="M548.452 308.292C546.972 309.476 547.242 312.765 547.562 314.261C554.148 314.657 554.248 306.691 553.065 306.222C551.881 305.753 550.302 306.813 548.452 308.292Z" fill="#16442B"/>
<path opacity="0.2" d="M549.083 307.867C547.849 308.854 547.568 310.916 547.786 311.936C553.414 311.962 553.799 306.465 552.802 306.186C551.806 305.907 550.621 306.637 549.083 307.867Z" fill="white"/>
<path d="M552.391 323.674C551.081 324.201 549.315 326.434 548.596 327.485C550.833 331.153 554.437 329.703 556.73 328.78C559.023 327.857 558.951 324.841 558.688 324.186C558.424 323.53 554.029 323.015 552.391 323.674Z" fill="#16442B"/>
<path opacity="0.22" d="M552.391 323.674C551.081 324.201 549.315 326.434 548.596 327.485C550.833 331.153 552.556 325.611 554.85 324.688C557.143 323.766 558.951 324.841 558.688 324.186C558.424 323.53 554.029 323.015 552.391 323.674Z" fill="white"/>
<path d="M546.992 322.694C545.488 320.729 541.656 317.335 538.361 319.485C537.892 320.669 538.21 328.907 546.992 322.694Z" fill="#16442B"/>
<path d="M538.36 319.485C541.656 317.335 545.488 320.728 546.992 322.693C543.964 324.836 542.912 322.163 541.581 321.751C539.054 320.967 538.053 320.26 538.36 319.485Z" fill="white" fill-opacity="0.22"/>
<ellipse cx="98.5" cy="294" rx="21.5" ry="10" fill="#7E2676"/>
<path d="M93.5547 317.232C91.9547 310.032 79.8881 300.565 74.0547 296.732C72.0547 293.732 125.555 295.232 121.555 296.732C117.555 298.232 107 310 104.5 313C102 316 103.055 337.232 102.555 338.732C102.055 340.232 97.0547 339.732 96.0547 338.732C95.0547 337.732 95.5547 326.232 93.5547 317.232Z" fill="url(#paint68_linear_10332_86911)"/>
<ellipse cx="70.6404" cy="322.568" rx="11.9705" ry="5.56765" fill="#7E2676"/>
<path d="M67.8874 335.503C66.9966 331.494 60.2783 326.224 57.0305 324.089C55.9169 322.419 85.7039 323.254 83.4768 324.089C81.2498 324.924 75.3733 331.476 73.9813 333.147C72.5894 334.817 73.1767 346.638 72.8983 347.473C72.6199 348.309 69.8361 348.03 69.2793 347.473C68.7225 346.917 69.0009 340.514 67.8874 335.503Z" fill="url(#paint69_linear_10332_86911)"/>
<g filter="url(#filter0_d_10332_86911)">
<path d="M304.852 257.258C304.852 259.892 304.188 262.393 302.859 264.762C301.531 267.108 299.462 269.012 296.65 270.473C293.861 271.934 290.253 272.664 285.826 272.664C283.613 272.664 281.665 272.564 279.982 272.365C278.322 272.166 276.773 271.845 275.334 271.402C273.895 270.938 272.401 270.34 270.852 269.609V257.922C273.486 259.25 276.142 260.268 278.82 260.977C281.499 261.663 283.923 262.006 286.092 262.006C287.398 262.006 288.46 261.851 289.279 261.541C290.12 261.231 290.74 260.811 291.139 260.279C291.537 259.726 291.736 259.095 291.736 258.387C291.736 257.546 291.438 256.837 290.84 256.262C290.264 255.664 289.335 255.044 288.051 254.402C286.767 253.76 285.074 252.964 282.971 252.012C281.178 251.171 279.551 250.307 278.09 249.422C276.651 248.536 275.411 247.529 274.371 246.4C273.353 245.249 272.567 243.91 272.014 242.383C271.46 240.855 271.184 239.051 271.184 236.971C271.184 233.85 271.947 231.238 273.475 229.135C275.024 227.01 277.171 225.416 279.916 224.354C282.683 223.291 285.87 222.76 289.479 222.76C292.644 222.76 295.488 223.114 298.012 223.822C300.557 224.531 302.837 225.339 304.852 226.246L300.834 236.373C298.753 235.421 296.706 234.669 294.691 234.115C292.677 233.54 290.807 233.252 289.08 233.252C287.951 233.252 287.021 233.396 286.291 233.684C285.583 233.949 285.051 234.314 284.697 234.779C284.365 235.244 284.199 235.775 284.199 236.373C284.199 237.126 284.487 237.801 285.062 238.398C285.66 238.996 286.645 239.649 288.018 240.357C289.412 241.044 291.305 241.94 293.695 243.047C296.064 244.109 298.078 245.26 299.738 246.5C301.398 247.717 302.66 249.189 303.523 250.916C304.409 252.62 304.852 254.734 304.852 257.258ZM342.139 272L339.748 262.902H323.977L321.52 272H307.109L322.947 223.258H340.445L356.482 272H342.139ZM337.025 252.145L334.934 244.176C334.712 243.312 334.391 242.084 333.971 240.49C333.55 238.874 333.13 237.214 332.709 235.51C332.311 233.783 332.001 232.367 331.779 231.26C331.58 232.367 331.292 233.739 330.916 235.377C330.562 236.993 330.186 238.598 329.787 240.191C329.411 241.785 329.079 243.113 328.791 244.176L326.699 252.145H337.025ZM361.762 272V223.457H374.877V261.408H393.57V272H361.762ZM430.16 272H401.34V223.457H430.16V233.982H414.455V241.619H428.998V252.145H414.455V261.309H430.16V272ZM448.787 254.867H437.83L436.137 223.457H450.48L448.787 254.867ZM436.27 266.488C436.27 264.142 436.956 262.493 438.328 261.541C439.723 260.589 441.372 260.113 443.275 260.113C445.157 260.113 446.773 260.589 448.123 261.541C449.473 262.493 450.148 264.142 450.148 266.488C450.148 268.724 449.473 270.34 448.123 271.336C446.773 272.332 445.157 272.83 443.275 272.83C441.372 272.83 439.723 272.332 438.328 271.336C436.956 270.34 436.27 268.724 436.27 266.488Z" fill="white"/>
</g>
<g filter="url(#filter1_d_10332_86911)">
<path d="M235.582 164.117C235.582 168.921 234.371 173.482 231.949 177.801C229.527 182.079 225.753 185.551 220.627 188.215C215.541 190.879 208.962 192.211 200.889 192.211C196.852 192.211 193.3 192.029 190.232 191.666C187.205 191.303 184.38 190.717 181.756 189.91C179.132 189.062 176.408 187.973 173.582 186.641V165.328C178.385 167.75 183.229 169.607 188.113 170.898C192.997 172.15 197.417 172.775 201.373 172.775C203.755 172.775 205.692 172.493 207.186 171.928C208.719 171.363 209.85 170.596 210.576 169.627C211.303 168.618 211.666 167.467 211.666 166.176C211.666 164.642 211.121 163.35 210.031 162.301C208.982 161.211 207.286 160.081 204.945 158.91C202.604 157.74 199.516 156.286 195.682 154.551C192.412 153.017 189.445 151.443 186.781 149.828C184.158 148.214 181.897 146.377 180 144.318C178.143 142.219 176.71 139.777 175.701 136.992C174.692 134.207 174.188 130.917 174.188 127.123C174.188 121.432 175.58 116.669 178.365 112.834C181.191 108.959 185.106 106.053 190.111 104.115C195.157 102.178 200.969 101.209 207.549 101.209C213.321 101.209 218.508 101.855 223.109 103.146C227.751 104.438 231.909 105.911 235.582 107.566L228.256 126.033C224.462 124.298 220.728 122.925 217.055 121.916C213.382 120.867 209.971 120.342 206.822 120.342C204.764 120.342 203.068 120.604 201.736 121.129C200.445 121.613 199.476 122.279 198.83 123.127C198.225 123.975 197.922 124.943 197.922 126.033C197.922 127.406 198.447 128.637 199.496 129.727C200.586 130.816 202.382 132.007 204.885 133.299C207.428 134.55 210.879 136.185 215.238 138.203C219.557 140.141 223.23 142.24 226.258 144.5C229.285 146.72 231.586 149.404 233.16 152.553C234.775 155.661 235.582 159.516 235.582 164.117ZM324.525 102.48V155.762C324.525 163.189 323.113 169.647 320.287 175.137C317.462 180.586 313.223 184.804 307.572 187.791C301.921 190.738 294.837 192.211 286.32 192.211C274.13 192.211 264.826 189.083 258.408 182.826C251.99 176.57 248.781 167.73 248.781 156.307V102.48H272.818V154.43C272.818 160.686 273.989 165.227 276.33 168.053C278.671 170.878 282.122 172.291 286.684 172.291C289.953 172.291 292.617 171.686 294.676 170.475C296.734 169.223 298.228 167.266 299.156 164.602C300.125 161.938 300.609 158.507 300.609 154.309V102.48H324.525ZM373.75 102.48C384.971 102.48 393.367 104.923 398.938 109.807C404.548 114.691 407.354 121.633 407.354 130.635C407.354 134.671 406.768 138.546 405.598 142.26C404.467 145.973 402.59 149.283 399.967 152.189C397.383 155.096 393.932 157.396 389.613 159.092C385.335 160.787 380.047 161.635 373.75 161.635H367.029V191H343.113V102.48H373.75ZM373.205 121.795H367.029V142.139H371.752C373.811 142.139 375.728 141.796 377.504 141.109C379.28 140.383 380.693 139.232 381.742 137.658C382.832 136.044 383.377 133.904 383.377 131.24C383.377 128.455 382.549 126.195 380.895 124.459C379.24 122.683 376.676 121.795 373.205 121.795ZM474.016 191H421.461V102.48H474.016V121.674H445.377V135.6H471.896V154.793H445.377V171.504H474.016V191ZM518.518 102.48C526.55 102.48 533.23 103.469 538.559 105.447C543.887 107.385 547.883 110.291 550.547 114.166C553.251 118.041 554.604 122.865 554.604 128.637C554.604 132.229 553.998 135.499 552.787 138.445C551.576 141.392 549.84 144.036 547.58 146.377C545.36 148.678 542.696 150.696 539.588 152.432L565.381 191H538.256L519.486 158.789H513.432V191H489.516V102.48H518.518ZM518.154 120.584H513.432V140.807H517.912C521.585 140.807 524.592 139.999 526.934 138.385C529.275 136.77 530.445 133.884 530.445 129.727C530.445 126.861 529.477 124.62 527.539 123.006C525.602 121.391 522.473 120.584 518.154 120.584Z" fill="white"/>
</g>
<g filter="url(#filter2_d_10332_86911)">
<path d="M704.023 163.51V179H699.99L699.32 177.072H699.006C698.687 177.592 698.281 178.016 697.789 178.344C697.306 178.663 696.768 178.895 696.176 179.041C695.583 179.196 694.968 179.273 694.33 179.273C693.318 179.273 692.402 179.077 691.582 178.686C690.771 178.294 690.124 177.678 689.641 176.84C689.167 176.001 688.93 174.921 688.93 173.6V163.51H694.275V171.973C694.275 172.975 694.417 173.741 694.699 174.27C694.991 174.789 695.465 175.049 696.121 175.049C696.796 175.049 697.315 174.867 697.68 174.502C698.053 174.137 698.313 173.6 698.459 172.889C698.605 172.178 698.678 171.312 698.678 170.291V163.51H704.023ZM717.176 163.236C718.889 163.236 720.234 163.924 721.209 165.301C722.184 166.668 722.672 168.641 722.672 171.221C722.672 172.98 722.426 174.461 721.934 175.664C721.441 176.858 720.767 177.76 719.91 178.371C719.062 178.973 718.096 179.273 717.012 179.273C716.283 179.273 715.663 179.182 715.152 179C714.651 178.818 714.232 178.59 713.895 178.316C713.566 178.043 713.288 177.765 713.061 177.482H712.896C712.942 177.838 712.979 178.221 713.006 178.631C713.042 179.041 713.061 179.52 713.061 180.066V185.727H707.715V163.51H712.062L712.814 165.479H713.061C713.316 165.077 713.626 164.708 713.99 164.371C714.355 164.025 714.797 163.751 715.316 163.551C715.845 163.341 716.465 163.236 717.176 163.236ZM715.166 167.434C714.646 167.434 714.236 167.557 713.936 167.803C713.635 168.049 713.416 168.423 713.279 168.924C713.152 169.416 713.079 170.031 713.061 170.77V171.193C713.061 172.014 713.124 172.706 713.252 173.271C713.38 173.827 713.598 174.251 713.908 174.543C714.218 174.826 714.646 174.967 715.193 174.967C715.64 174.967 716.014 174.839 716.314 174.584C716.615 174.329 716.843 173.923 716.998 173.367C717.153 172.811 717.23 172.077 717.23 171.166C717.23 169.808 717.053 168.846 716.697 168.281C716.351 167.716 715.84 167.434 715.166 167.434ZM699.566 213.049C700.049 213.049 700.492 212.999 700.893 212.898C701.294 212.798 701.713 212.671 702.15 212.516V216.412C701.567 216.667 700.947 216.872 700.291 217.027C699.644 217.191 698.814 217.273 697.803 217.273C696.8 217.273 695.916 217.118 695.15 216.809C694.385 216.49 693.788 215.943 693.359 215.168C692.94 214.384 692.73 213.295 692.73 211.9V205.516H690.857V203.342L693.236 201.66L694.617 198.406H698.117V201.51H701.918V205.516H698.117V211.545C698.117 212.046 698.245 212.424 698.5 212.68C698.755 212.926 699.111 213.049 699.566 213.049ZM719.65 209.221C719.65 210.515 719.473 211.663 719.117 212.666C718.762 213.669 718.247 214.512 717.572 215.195C716.898 215.879 716.082 216.398 715.125 216.754C714.168 217.1 713.088 217.273 711.885 217.273C710.764 217.273 709.734 217.1 708.795 216.754C707.865 216.398 707.054 215.879 706.361 215.195C705.669 214.512 705.131 213.669 704.748 212.666C704.374 211.663 704.188 210.515 704.188 209.221C704.188 207.507 704.497 206.058 705.117 204.873C705.746 203.688 706.639 202.786 707.797 202.166C708.964 201.546 710.354 201.236 711.967 201.236C713.452 201.236 714.774 201.546 715.932 202.166C717.089 202.786 717.996 203.688 718.652 204.873C719.318 206.058 719.65 207.507 719.65 209.221ZM709.615 209.221C709.615 210.105 709.693 210.852 709.848 211.463C710.003 212.064 710.249 212.525 710.586 212.844C710.932 213.154 711.383 213.309 711.939 213.309C712.495 213.309 712.938 213.154 713.266 212.844C713.594 212.525 713.831 212.064 713.977 211.463C714.132 210.852 714.209 210.105 714.209 209.221C714.209 208.337 714.132 207.598 713.977 207.006C713.831 206.413 713.589 205.967 713.252 205.666C712.924 205.365 712.477 205.215 711.912 205.215C711.101 205.215 710.513 205.552 710.148 206.227C709.793 206.901 709.615 207.899 709.615 209.221Z" fill="white"/>
</g>
<g filter="url(#filter3_d_10332_86911)">
<path d="M879.33 151.725C880.898 151.725 882.156 152.271 883.104 153.365C884.061 154.459 884.539 155.995 884.539 157.973C884.539 159.951 884.092 161.495 883.199 162.607C882.306 163.719 881.016 164.275 879.33 164.275C877.799 164.275 876.564 163.719 875.625 162.607C874.695 161.495 874.23 159.951 874.23 157.973C874.23 155.995 874.668 154.459 875.543 153.365C876.427 152.271 877.689 151.725 879.33 151.725ZM879.385 155.061C878.993 155.061 878.719 155.329 878.564 155.867C878.419 156.396 878.346 157.116 878.346 158.027C878.346 158.921 878.419 159.641 878.564 160.188C878.719 160.725 878.993 160.994 879.385 160.994C879.777 160.994 880.046 160.73 880.191 160.201C880.337 159.663 880.41 158.939 880.41 158.027C880.41 157.116 880.337 156.396 880.191 155.867C880.046 155.329 879.777 155.061 879.385 155.061ZM894.506 152.012L883.418 172H879.357L890.445 152.012H894.506ZM894.533 159.682C896.101 159.682 897.359 160.229 898.307 161.322C899.264 162.416 899.742 163.952 899.742 165.93C899.742 167.898 899.296 169.439 898.402 170.551C897.509 171.663 896.219 172.219 894.533 172.219C893.002 172.219 891.767 171.663 890.828 170.551C889.898 169.439 889.434 167.898 889.434 165.93C889.434 163.952 889.871 162.416 890.746 161.322C891.63 160.229 892.893 159.682 894.533 159.682ZM894.588 163.018C894.196 163.018 893.923 163.286 893.768 163.824C893.622 164.353 893.549 165.073 893.549 165.984C893.549 166.878 893.622 167.598 893.768 168.145C893.923 168.682 894.196 168.951 894.588 168.951C894.98 168.951 895.249 168.687 895.395 168.158C895.549 167.62 895.627 166.896 895.627 165.984C895.627 165.036 895.549 164.307 895.395 163.797C895.249 163.277 894.98 163.018 894.588 163.018Z" fill="white"/>
</g>
<g filter="url(#filter4_d_10332_86911)">
<path d="M685.125 108.699C685.125 114.344 684.074 119.036 681.971 122.777C679.868 126.518 676.902 129.329 673.072 131.211C669.265 133.07 664.783 134 659.625 134H643.92V85.457H660.721C665.945 85.457 670.372 86.3535 674.002 88.1465C677.632 89.9395 680.388 92.5625 682.27 96.0156C684.173 99.4688 685.125 103.697 685.125 108.699ZM671.512 109.164C671.512 106.22 671.113 103.785 670.316 101.859C669.542 99.9115 668.368 98.4616 666.797 97.5098C665.225 96.5358 663.244 96.0488 660.854 96.0488H657.035V123.242H659.957C663.941 123.242 666.863 122.091 668.723 119.789C670.582 117.465 671.512 113.923 671.512 109.164ZM706.143 96.3809V134H693.16V96.3809H706.143ZM699.701 81.2402C701.561 81.2402 703.176 81.6276 704.549 82.4023C705.943 83.1771 706.641 84.7155 706.641 87.0176C706.641 89.2533 705.943 90.7695 704.549 91.5664C703.176 92.3411 701.561 92.7285 699.701 92.7285C697.798 92.7285 696.171 92.3411 694.82 91.5664C693.492 90.7695 692.828 89.2533 692.828 87.0176C692.828 84.7155 693.492 83.1771 694.82 82.4023C696.171 81.6276 697.798 81.2402 699.701 81.2402ZM743.164 122.445C743.164 124.836 742.633 126.95 741.57 128.787C740.508 130.624 738.803 132.063 736.457 133.104C734.133 134.144 731.067 134.664 727.26 134.664C724.581 134.664 722.18 134.52 720.055 134.232C717.952 133.945 715.816 133.391 713.646 132.572V122.18C716.015 123.264 718.428 124.05 720.885 124.537C723.342 125.002 725.279 125.234 726.695 125.234C728.156 125.234 729.219 125.079 729.883 124.77C730.569 124.438 730.912 123.951 730.912 123.309C730.912 122.755 730.68 122.29 730.215 121.914C729.772 121.516 728.964 121.062 727.791 120.553C726.64 120.044 725.013 119.357 722.91 118.494C720.829 117.631 719.092 116.69 717.697 115.672C716.325 114.654 715.296 113.436 714.609 112.02C713.923 110.603 713.58 108.865 713.58 106.807C713.58 103.132 714.997 100.365 717.83 98.5059C720.663 96.6465 724.415 95.7168 729.086 95.7168C731.565 95.7168 733.9 95.9935 736.092 96.5469C738.283 97.0781 740.552 97.8639 742.898 98.9043L739.346 107.271C737.486 106.43 735.605 105.755 733.701 105.246C731.798 104.737 730.281 104.482 729.152 104.482C728.134 104.482 727.348 104.615 726.795 104.881C726.242 105.146 725.965 105.534 725.965 106.043C725.965 106.508 726.153 106.917 726.529 107.271C726.928 107.626 727.669 108.035 728.754 108.5C729.839 108.965 731.421 109.618 733.502 110.459C735.693 111.344 737.497 112.296 738.914 113.314C740.353 114.311 741.415 115.528 742.102 116.967C742.81 118.406 743.164 120.232 743.164 122.445ZM767.535 134.664C763.728 134.664 760.419 133.989 757.607 132.639C754.796 131.266 752.616 129.163 751.066 126.33C749.539 123.475 748.775 119.822 748.775 115.373C748.775 110.813 749.628 107.083 751.332 104.184C753.059 101.284 755.416 99.1478 758.404 97.7754C761.393 96.403 764.779 95.7168 768.564 95.7168C770.867 95.7168 773.047 95.9714 775.105 96.4805C777.186 96.9896 779.112 97.6868 780.883 98.5723L777.064 108.168C775.515 107.482 774.065 106.939 772.715 106.541C771.387 106.12 770.003 105.91 768.564 105.91C767.258 105.91 766.107 106.253 765.111 106.939C764.115 107.626 763.34 108.666 762.787 110.061C762.234 111.433 761.957 113.182 761.957 115.307C761.957 117.476 762.234 119.225 762.787 120.553C763.363 121.881 764.148 122.844 765.145 123.441C766.163 124.039 767.325 124.338 768.631 124.338C770.512 124.338 772.383 124.05 774.242 123.475C776.124 122.877 777.906 122.058 779.588 121.018V131.344C778.038 132.362 776.29 133.17 774.342 133.768C772.394 134.365 770.125 134.664 767.535 134.664ZM822.984 115.107C822.984 118.251 822.553 121.04 821.689 123.475C820.826 125.91 819.576 127.957 817.938 129.617C816.299 131.277 814.318 132.539 811.994 133.402C809.67 134.243 807.047 134.664 804.125 134.664C801.402 134.664 798.901 134.243 796.621 133.402C794.363 132.539 792.393 131.277 790.711 129.617C789.029 127.957 787.723 125.91 786.793 123.475C785.885 121.04 785.432 118.251 785.432 115.107C785.432 110.946 786.184 107.426 787.689 104.549C789.217 101.671 791.386 99.4798 794.197 97.9746C797.031 96.4694 800.406 95.7168 804.324 95.7168C807.932 95.7168 811.142 96.4694 813.953 97.9746C816.764 99.4798 818.967 101.671 820.561 104.549C822.176 107.426 822.984 110.946 822.984 115.107ZM798.613 115.107C798.613 117.255 798.801 119.07 799.178 120.553C799.554 122.014 800.152 123.132 800.971 123.906C801.812 124.659 802.908 125.035 804.258 125.035C805.608 125.035 806.682 124.659 807.479 123.906C808.275 123.132 808.851 122.014 809.205 120.553C809.581 119.07 809.77 117.255 809.77 115.107C809.77 112.96 809.581 111.167 809.205 109.729C808.851 108.29 808.264 107.205 807.445 106.475C806.648 105.744 805.564 105.379 804.191 105.379C802.221 105.379 800.794 106.198 799.908 107.836C799.045 109.474 798.613 111.898 798.613 115.107ZM867.012 96.3809V134H857.217L855.59 129.318H854.826C854.051 130.58 853.066 131.609 851.871 132.406C850.698 133.181 849.392 133.745 847.953 134.1C846.514 134.476 845.02 134.664 843.471 134.664C841.014 134.664 838.789 134.188 836.797 133.236C834.827 132.285 833.255 130.79 832.082 128.754C830.931 126.717 830.355 124.094 830.355 120.885V96.3809H843.338V116.934C843.338 119.368 843.681 121.228 844.367 122.512C845.076 123.773 846.227 124.404 847.82 124.404C849.458 124.404 850.72 123.962 851.605 123.076C852.513 122.191 853.144 120.885 853.498 119.158C853.852 117.432 854.029 115.329 854.029 112.85V96.3809H867.012ZM899.518 95.7168C903.391 95.7168 906.557 96.8125 909.014 99.0039C911.471 101.195 912.699 104.704 912.699 109.529V134H899.717V113.48C899.717 110.979 899.352 109.098 898.621 107.836C897.913 106.552 896.762 105.91 895.168 105.91C892.711 105.91 891.062 106.917 890.221 108.932C889.38 110.924 888.959 113.79 888.959 117.531V134H875.977V96.3809H885.771L887.531 101.361H888.029C888.826 100.166 889.778 99.1478 890.885 98.3066C891.992 97.4655 893.264 96.8236 894.703 96.3809C896.142 95.9382 897.747 95.7168 899.518 95.7168ZM939.959 124.404C941.132 124.404 942.206 124.283 943.18 124.039C944.154 123.796 945.172 123.486 946.234 123.109V132.572C944.818 133.192 943.312 133.69 941.719 134.066C940.147 134.465 938.133 134.664 935.676 134.664C933.241 134.664 931.094 134.288 929.234 133.535C927.375 132.76 925.925 131.432 924.885 129.551C923.867 127.647 923.357 125.002 923.357 121.615V106.109H918.809V100.83L924.586 96.7461L927.939 88.8438H936.439V96.3809H945.67V106.109H936.439V120.752C936.439 121.969 936.749 122.888 937.369 123.508C937.989 124.105 938.852 124.404 939.959 124.404Z" fill="white"/>
</g>
<path d="M728.742 264H724.885V252.877H721.398V249.723H732.219V252.877H728.742V264ZM737.854 248.805V250.963C737.854 251.783 737.834 252.473 737.795 253.033C737.762 253.587 737.73 254.01 737.697 254.303H737.873C738.114 253.919 738.387 253.613 738.693 253.385C738.999 253.157 739.338 252.994 739.709 252.896C740.08 252.792 740.484 252.74 740.92 252.74C741.649 252.74 742.307 252.88 742.893 253.16C743.485 253.44 743.957 253.88 744.309 254.479C744.66 255.071 744.836 255.846 744.836 256.803V264H740.998V257.965C740.998 257.229 740.891 256.676 740.676 256.305C740.461 255.927 740.129 255.738 739.68 255.738C739.217 255.738 738.853 255.872 738.586 256.139C738.319 256.399 738.13 256.783 738.02 257.291C737.909 257.792 737.854 258.408 737.854 259.137V264H734.035V248.805H737.854ZM751.271 252.936V264H747.453V252.936H751.271ZM749.377 248.482C749.924 248.482 750.399 248.596 750.803 248.824C751.213 249.052 751.418 249.505 751.418 250.182C751.418 250.839 751.213 251.285 750.803 251.52C750.399 251.747 749.924 251.861 749.377 251.861C748.817 251.861 748.339 251.747 747.941 251.52C747.551 251.285 747.355 250.839 747.355 250.182C747.355 249.505 747.551 249.052 747.941 248.824C748.339 248.596 748.817 248.482 749.377 248.482ZM762.16 260.602C762.16 261.305 762.004 261.926 761.691 262.467C761.379 263.007 760.878 263.43 760.188 263.736C759.504 264.042 758.602 264.195 757.482 264.195C756.695 264.195 755.988 264.153 755.363 264.068C754.745 263.984 754.117 263.821 753.479 263.58V260.523C754.175 260.842 754.885 261.074 755.607 261.217C756.33 261.354 756.9 261.422 757.316 261.422C757.746 261.422 758.059 261.376 758.254 261.285C758.456 261.188 758.557 261.044 758.557 260.855C758.557 260.693 758.488 260.556 758.352 260.445C758.221 260.328 757.984 260.195 757.639 260.045C757.3 259.895 756.822 259.693 756.203 259.439C755.591 259.186 755.08 258.909 754.67 258.609C754.266 258.31 753.964 257.952 753.762 257.535C753.56 257.118 753.459 256.607 753.459 256.002C753.459 254.921 753.876 254.107 754.709 253.561C755.542 253.014 756.646 252.74 758.02 252.74C758.749 252.74 759.436 252.822 760.08 252.984C760.725 253.141 761.392 253.372 762.082 253.678L761.037 256.139C760.49 255.891 759.937 255.693 759.377 255.543C758.817 255.393 758.371 255.318 758.039 255.318C757.74 255.318 757.508 255.357 757.346 255.436C757.183 255.514 757.102 255.628 757.102 255.777C757.102 255.914 757.157 256.035 757.268 256.139C757.385 256.243 757.603 256.363 757.922 256.5C758.241 256.637 758.706 256.829 759.318 257.076C759.963 257.337 760.493 257.617 760.91 257.916C761.333 258.209 761.646 258.567 761.848 258.99C762.056 259.413 762.16 259.951 762.16 260.602ZM779.006 264L777.844 259.156C777.785 258.909 777.727 258.629 777.668 258.316C777.609 257.997 777.551 257.678 777.492 257.359C777.44 257.04 777.395 256.747 777.355 256.48C777.316 256.214 777.287 256.005 777.268 255.855H777.209C777.189 256.005 777.157 256.217 777.111 256.49C777.066 256.757 777.014 257.053 776.955 257.379C776.896 257.704 776.831 258.036 776.76 258.375C776.695 258.707 776.63 259.016 776.564 259.303L775.441 264H771.428L768.41 252.936H772.17L773.068 257.184C773.133 257.496 773.199 257.87 773.264 258.307C773.335 258.736 773.397 259.176 773.449 259.625C773.508 260.068 773.547 260.465 773.566 260.816H773.625C773.638 260.549 773.667 260.243 773.713 259.898C773.765 259.547 773.82 259.199 773.879 258.854C773.944 258.508 774.003 258.206 774.055 257.945C774.107 257.678 774.143 257.496 774.162 257.398L775.188 252.936H779.406L780.344 257.457C780.402 257.711 780.467 258.036 780.539 258.434C780.617 258.824 780.689 259.234 780.754 259.664C780.826 260.087 780.878 260.471 780.91 260.816H780.969C780.995 260.458 781.034 260.051 781.086 259.596C781.138 259.14 781.197 258.697 781.262 258.268C781.333 257.831 781.402 257.47 781.467 257.184L782.443 252.936H786.125L783.088 264H779.006ZM792.668 252.74C793.742 252.74 794.67 252.929 795.451 253.307C796.232 253.678 796.835 254.238 797.258 254.986C797.681 255.735 797.893 256.673 797.893 257.799V259.498H791.066C791.099 260.077 791.314 260.553 791.711 260.924C792.115 261.295 792.707 261.48 793.488 261.48C794.178 261.48 794.81 261.412 795.383 261.275C795.962 261.139 796.558 260.927 797.17 260.641V263.385C796.636 263.665 796.053 263.87 795.422 264C794.79 264.13 793.993 264.195 793.029 264.195C791.916 264.195 790.92 263.997 790.041 263.6C789.162 263.202 788.469 262.587 787.961 261.754C787.46 260.921 787.209 259.85 787.209 258.541C787.209 257.213 787.437 256.122 787.893 255.27C788.348 254.41 788.986 253.775 789.807 253.365C790.627 252.949 791.581 252.74 792.668 252.74ZM792.805 255.338C792.355 255.338 791.978 255.481 791.672 255.768C791.372 256.048 791.197 256.49 791.145 257.096H794.426C794.419 256.77 794.354 256.474 794.23 256.207C794.107 255.94 793.924 255.729 793.684 255.572C793.449 255.416 793.156 255.338 792.805 255.338ZM805.031 252.74C806.105 252.74 807.033 252.929 807.814 253.307C808.596 253.678 809.198 254.238 809.621 254.986C810.044 255.735 810.256 256.673 810.256 257.799V259.498H803.43C803.462 260.077 803.677 260.553 804.074 260.924C804.478 261.295 805.07 261.48 805.852 261.48C806.542 261.48 807.173 261.412 807.746 261.275C808.326 261.139 808.921 260.927 809.533 260.641V263.385C808.999 263.665 808.417 263.87 807.785 264C807.154 264.13 806.356 264.195 805.393 264.195C804.279 264.195 803.283 263.997 802.404 263.6C801.525 263.202 800.832 262.587 800.324 261.754C799.823 260.921 799.572 259.85 799.572 258.541C799.572 257.213 799.8 256.122 800.256 255.27C800.712 254.41 801.35 253.775 802.17 253.365C802.99 252.949 803.944 252.74 805.031 252.74ZM805.168 255.338C804.719 255.338 804.341 255.481 804.035 255.768C803.736 256.048 803.56 256.49 803.508 257.096H806.789C806.783 256.77 806.717 256.474 806.594 256.207C806.47 255.94 806.288 255.729 806.047 255.572C805.812 255.416 805.52 255.338 805.168 255.338ZM816.252 248.805V254.781C816.252 255.23 816.232 255.732 816.193 256.285C816.161 256.832 816.109 257.33 816.037 257.779H816.115C816.265 257.551 816.454 257.265 816.682 256.92C816.91 256.575 817.115 256.288 817.297 256.061L819.777 252.936H824.035L820.197 257.643L824.279 264H819.914L817.492 260.035L816.252 260.982V264H812.414V248.805H816.252ZM841.359 258.443C841.359 259.368 841.232 260.188 840.979 260.904C840.725 261.62 840.357 262.223 839.875 262.711C839.393 263.199 838.811 263.57 838.127 263.824C837.443 264.072 836.672 264.195 835.812 264.195C835.012 264.195 834.276 264.072 833.605 263.824C832.941 263.57 832.362 263.199 831.867 262.711C831.372 262.223 830.988 261.62 830.715 260.904C830.448 260.188 830.314 259.368 830.314 258.443C830.314 257.219 830.536 256.184 830.979 255.338C831.428 254.492 832.066 253.847 832.893 253.404C833.726 252.962 834.719 252.74 835.871 252.74C836.932 252.74 837.876 252.962 838.703 253.404C839.53 253.847 840.178 254.492 840.646 255.338C841.122 256.184 841.359 257.219 841.359 258.443ZM834.191 258.443C834.191 259.075 834.247 259.609 834.357 260.045C834.468 260.475 834.644 260.803 834.885 261.031C835.132 261.253 835.454 261.363 835.852 261.363C836.249 261.363 836.564 261.253 836.799 261.031C837.033 260.803 837.202 260.475 837.307 260.045C837.417 259.609 837.473 259.075 837.473 258.443C837.473 257.812 837.417 257.285 837.307 256.861C837.202 256.438 837.03 256.119 836.789 255.904C836.555 255.689 836.236 255.582 835.832 255.582C835.253 255.582 834.833 255.823 834.572 256.305C834.318 256.786 834.191 257.499 834.191 258.443ZM850.471 252.74C851.61 252.74 852.541 253.062 853.264 253.707C853.986 254.352 854.348 255.383 854.348 256.803V264H850.529V257.965C850.529 257.229 850.422 256.676 850.207 256.305C849.999 255.927 849.66 255.738 849.191 255.738C848.469 255.738 847.984 256.035 847.736 256.627C847.489 257.213 847.365 258.056 847.365 259.156V264H843.547V252.936H846.428L846.945 254.4H847.092C847.326 254.049 847.606 253.749 847.932 253.502C848.257 253.255 848.632 253.066 849.055 252.936C849.478 252.805 849.95 252.74 850.471 252.74ZM860.764 264H856.945V248.805H860.764V264ZM862.072 252.936H866.096L867.971 259.283C867.997 259.374 868.023 259.488 868.049 259.625C868.075 259.755 868.098 259.895 868.117 260.045C868.137 260.195 868.15 260.341 868.156 260.484H868.234C868.267 260.217 868.303 259.986 868.342 259.791C868.387 259.589 868.43 259.426 868.469 259.303L870.393 252.936H874.289L869.914 264.703C869.576 265.602 869.182 266.354 868.732 266.959C868.29 267.571 867.74 268.03 867.082 268.336C866.431 268.648 865.62 268.805 864.65 268.805C864.299 268.805 863.996 268.785 863.742 268.746C863.495 268.714 863.277 268.678 863.088 268.639V265.641C863.231 265.667 863.407 265.693 863.615 265.719C863.824 265.745 864.042 265.758 864.27 265.758C864.693 265.758 865.035 265.673 865.295 265.504C865.562 265.335 865.78 265.11 865.949 264.83C866.118 264.557 866.265 264.26 866.389 263.941L866.428 263.844L862.072 252.936ZM878.82 258.961H875.598L875.1 249.723H879.318L878.82 258.961ZM875.139 262.379C875.139 261.689 875.34 261.204 875.744 260.924C876.154 260.644 876.639 260.504 877.199 260.504C877.753 260.504 878.228 260.644 878.625 260.924C879.022 261.204 879.221 261.689 879.221 262.379C879.221 263.036 879.022 263.512 878.625 263.805C878.228 264.098 877.753 264.244 877.199 264.244C876.639 264.244 876.154 264.098 875.744 263.805C875.34 263.512 875.139 263.036 875.139 262.379Z" fill="white"/>
<g filter="url(#filter5_d_10332_86911)">
<path d="M772.047 179.996C776.971 179.996 781.452 181.106 785.488 183.326C789.525 185.546 792.754 188.775 795.176 193.014C797.598 197.252 798.809 202.419 798.809 208.514C798.809 215.093 797.477 220.684 794.812 225.285C792.189 229.846 788.213 233.318 782.885 235.699C777.597 238.04 770.917 239.211 762.844 239.211C757.717 239.211 753.035 238.807 748.797 238C744.599 237.233 740.845 236.042 737.535 234.428V214.811C740.643 216.223 744.377 217.515 748.736 218.686C753.136 219.816 757.173 220.381 760.846 220.381C763.792 220.381 766.295 219.957 768.354 219.109C770.412 218.262 771.966 217.01 773.016 215.355C774.105 213.701 774.65 211.662 774.65 209.24C774.65 205.89 773.439 203.266 771.018 201.369C768.596 199.432 764.923 198.463 759.998 198.463C757.778 198.463 755.598 198.685 753.459 199.129C751.32 199.573 749.443 200.057 747.828 200.582L739.049 196.223L742.379 149.48H792.875V169.4H762.723L761.633 181.086C762.924 180.844 764.236 180.602 765.568 180.359C766.941 180.117 769.1 179.996 772.047 179.996ZM872.797 193.861C872.797 200.965 872.232 207.323 871.102 212.934C869.971 218.504 868.155 223.247 865.652 227.162C863.19 231.077 859.921 234.064 855.844 236.123C851.767 238.182 846.762 239.211 840.828 239.211C833.441 239.211 827.387 237.415 822.664 233.822C817.941 230.189 814.45 225.003 812.189 218.262C809.969 211.48 808.859 203.347 808.859 193.861C808.859 184.295 809.868 176.121 811.887 169.34C813.945 162.518 817.316 157.291 821.998 153.658C826.68 150.025 832.957 148.209 840.828 148.209C848.215 148.209 854.249 150.025 858.932 153.658C863.654 157.251 867.146 162.458 869.406 169.279C871.667 176.061 872.797 184.255 872.797 193.861ZM832.654 193.861C832.654 199.633 832.856 204.477 833.26 208.393C833.704 212.308 834.511 215.255 835.682 217.232C836.893 219.17 838.608 220.139 840.828 220.139C843.048 220.139 844.743 219.17 845.914 217.232C847.085 215.255 847.892 212.328 848.336 208.453C848.78 204.538 849.002 199.674 849.002 193.861C849.002 188.008 848.78 183.124 848.336 179.209C847.892 175.294 847.085 172.347 845.914 170.369C844.743 168.351 843.048 167.342 840.828 167.342C838.608 167.342 836.893 168.351 835.682 170.369C834.511 172.347 833.704 175.294 833.26 179.209C832.856 183.124 832.654 188.008 832.654 193.861Z" fill="white"/>
</g>
</g>
<defs>
<filter id="filter0_d_10332_86911" x="268.852" y="221.76" width="183.629" height="54.0703" filterUnits="userSpaceOnUse" color-interpolation-filters="sRGB">
<feFlood flood-opacity="0" result="BackgroundImageFix"/>
<feColorMatrix in="SourceAlpha" type="matrix" values="0 0 0 0 0 0 0 0 0 0 0 0 0 0 0 0 0 0 127 0" result="hardAlpha"/>
<feOffset dy="1"/>
<feGaussianBlur stdDeviation="1"/>
<feComposite in2="hardAlpha" operator="out"/>
<feColorMatrix type="matrix" values="0 0 0 0 1 0 0 0 0 1 0 0 0 0 1 0 0 0 1 0"/>
<feBlend mode="normal" in2="BackgroundImageFix" result="effect1_dropShadow_10332_86911"/>
<feBlend mode="normal" in="SourceGraphic" in2="effect1_dropShadow_10332_86911" result="shape"/>
</filter>
<filter id="filter1_d_10332_86911" x="169.582" y="98.209" width="399.799" height="99.002" filterUnits="userSpaceOnUse" color-interpolation-filters="sRGB">
<feFlood flood-opacity="0" result="BackgroundImageFix"/>
<feColorMatrix in="SourceAlpha" type="matrix" values="0 0 0 0 0 0 0 0 0 0 0 0 0 0 0 0 0 0 127 0" result="hardAlpha"/>
<feOffset dy="1"/>
<feGaussianBlur stdDeviation="2"/>
<feComposite in2="hardAlpha" operator="out"/>
<feColorMatrix type="matrix" values="0 0 0 0 1 0 0 0 0 1 0 0 0 0 1 0 0 0 1 0"/>
<feBlend mode="normal" in2="BackgroundImageFix" result="effect1_dropShadow_10332_86911"/>
<feBlend mode="normal" in="SourceGraphic" in2="effect1_dropShadow_10332_86911" result="shape"/>
</filter>
<filter id="filter2_d_10332_86911" x="686.93" y="162.236" width="37.7422" height="58.0371" filterUnits="userSpaceOnUse" color-interpolation-filters="sRGB">
<feFlood flood-opacity="0" result="BackgroundImageFix"/>
<feColorMatrix in="SourceAlpha" type="matrix" values="0 0 0 0 0 0 0 0 0 0 0 0 0 0 0 0 0 0 127 0" result="hardAlpha"/>
<feOffset dy="1"/>
<feGaussianBlur stdDeviation="1"/>
<feComposite in2="hardAlpha" operator="out"/>
<feColorMatrix type="matrix" values="0 0 0 0 1 0 0 0 0 1 0 0 0 0 1 0 0 0 1 0"/>
<feBlend mode="normal" in2="BackgroundImageFix" result="effect1_dropShadow_10332_86911"/>
<feBlend mode="normal" in="SourceGraphic" in2="effect1_dropShadow_10332_86911" result="shape"/>
</filter>
<filter id="filter3_d_10332_86911" x="872.23" y="150.725" width="29.5117" height="24.4941" filterUnits="userSpaceOnUse" color-interpolation-filters="sRGB">
<feFlood flood-opacity="0" result="BackgroundImageFix"/>
<feColorMatrix in="SourceAlpha" type="matrix" values="0 0 0 0 0 0 0 0 0 0 0 0 0 0 0 0 0 0 127 0" result="hardAlpha"/>
<feOffset dy="1"/>
<feGaussianBlur stdDeviation="1"/>
<feComposite in2="hardAlpha" operator="out"/>
<feColorMatrix type="matrix" values="0 0 0 0 1 0 0 0 0 1 0 0 0 0 1 0 0 0 1 0"/>
<feBlend mode="normal" in2="BackgroundImageFix" result="effect1_dropShadow_10332_86911"/>
<feBlend mode="normal" in="SourceGraphic" in2="effect1_dropShadow_10332_86911" result="shape"/>
</filter>
<filter id="filter4_d_10332_86911" x="641.92" y="80.2402" width="306.314" height="57.4238" filterUnits="userSpaceOnUse" color-interpolation-filters="sRGB">
<feFlood flood-opacity="0" result="BackgroundImageFix"/>
<feColorMatrix in="SourceAlpha" type="matrix" values="0 0 0 0 0 0 0 0 0 0 0 0 0 0 0 0 0 0 127 0" result="hardAlpha"/>
<feOffset dy="1"/>
<feGaussianBlur stdDeviation="1"/>
<feComposite in2="hardAlpha" operator="out"/>
<feColorMatrix type="matrix" values="0 0 0 0 1 0 0 0 0 1 0 0 0 0 1 0 0 0 1 0"/>
<feBlend mode="normal" in2="BackgroundImageFix" result="effect1_dropShadow_10332_86911"/>
<feBlend mode="normal" in="SourceGraphic" in2="effect1_dropShadow_10332_86911" result="shape"/>
</filter>
<filter id="filter5_d_10332_86911" x="733.535" y="145.209" width="143.262" height="99.002" filterUnits="userSpaceOnUse" color-interpolation-filters="sRGB">
<feFlood flood-opacity="0" result="BackgroundImageFix"/>
<feColorMatrix in="SourceAlpha" type="matrix" values="0 0 0 0 0 0 0 0 0 0 0 0 0 0 0 0 0 0 127 0" result="hardAlpha"/>
<feOffset dy="1"/>
<feGaussianBlur stdDeviation="2"/>
<feComposite in2="hardAlpha" operator="out"/>
<feColorMatrix type="matrix" values="0 0 0 0 1 0 0 0 0 1 0 0 0 0 1 0 0 0 1 0"/>
<feBlend mode="normal" in2="BackgroundImageFix" result="effect1_dropShadow_10332_86911"/>
<feBlend mode="normal" in="SourceGraphic" in2="effect1_dropShadow_10332_86911" result="shape"/>
</filter>
<linearGradient id="paint0_linear_10332_86911" x1="676" y1="0" x2="676" y2="354" gradientUnits="userSpaceOnUse">
<stop offset="0.316781" stop-color="#2B1062"/>
<stop offset="0.661458" stop-color="#6E1F94" stop-opacity="0.798204"/>
<stop offset="1" stop-color="#AF2EC5" stop-opacity="0.6"/>
</linearGradient>
<linearGradient id="paint1_linear_10332_86911" x1="676" y1="267.5" x2="676" y2="147.5" gradientUnits="userSpaceOnUse">
<stop stop-color="#FE387D" stop-opacity="0.62"/>
<stop offset="0.958333" stop-color="#AF2EC5" stop-opacity="0"/>
</linearGradient>
<linearGradient id="paint2_linear_10332_86911" x1="587.929" y1="294.236" x2="599.5" y2="321.134" gradientUnits="userSpaceOnUse">
<stop offset="0.118786" stop-color="#B12399"/>
<stop offset="1" stop-color="#9F1F95"/>
</linearGradient>
<linearGradient id="paint3_linear_10332_86911" x1="614.197" y1="281.216" x2="629.5" y2="316.789" gradientUnits="userSpaceOnUse">
<stop offset="0.118786" stop-color="#B12399"/>
<stop offset="1" stop-color="#9F1F95"/>
</linearGradient>
<linearGradient id="paint4_linear_10332_86911" x1="1087.91" y1="149.581" x2="1151.65" y2="183.518" gradientUnits="userSpaceOnUse">
<stop stop-color="#BD67B3"/>
<stop offset="1" stop-color="#5A4BA7"/>
</linearGradient>
<linearGradient id="paint5_linear_10332_86911" x1="1099.19" y1="229.238" x2="1098.57" y2="219.844" gradientUnits="userSpaceOnUse">
<stop stop-color="#BD67B3"/>
<stop offset="1" stop-color="#5A4BA7"/>
</linearGradient>
<linearGradient id="paint6_linear_10332_86911" x1="1151.42" y1="206.28" x2="1152.99" y2="210.717" gradientUnits="userSpaceOnUse">
<stop stop-color="#BD67B3"/>
<stop offset="1" stop-color="white" stop-opacity="0.1"/>
</linearGradient>
<linearGradient id="paint7_linear_10332_86911" x1="1074.7" y1="198.332" x2="1163.6" y2="179.897" gradientUnits="userSpaceOnUse">
<stop stop-color="#E0E5F3"/>
<stop offset="1" stop-color="#7D84C4"/>
</linearGradient>
<linearGradient id="paint8_linear_10332_86911" x1="1099.41" y1="179.265" x2="1138.13" y2="171.247" gradientUnits="userSpaceOnUse">
<stop stop-color="#E0E5F3"/>
<stop offset="1" stop-color="#7D84C4"/>
</linearGradient>
<linearGradient id="paint9_linear_10332_86911" x1="1135.24" y1="196.163" x2="1119.85" y2="201.625" gradientUnits="userSpaceOnUse">
<stop stop-color="#BD67B3"/>
<stop offset="1" stop-color="#5A4BA7"/>
</linearGradient>
<linearGradient id="paint10_linear_10332_86911" x1="1150.76" y1="184.767" x2="1143.27" y2="199.271" gradientUnits="userSpaceOnUse">
<stop stop-color="#BD67B3"/>
<stop offset="1" stop-color="#5A4BA7"/>
</linearGradient>
<linearGradient id="paint11_linear_10332_86911" x1="1127.59" y1="197.109" x2="1128.58" y2="196.891" gradientUnits="userSpaceOnUse">
<stop stop-color="#E0E5F3"/>
<stop offset="1" stop-color="#7D84C4"/>
</linearGradient>
<linearGradient id="paint12_linear_10332_86911" x1="1140.69" y1="185.546" x2="1142.23" y2="185.219" gradientUnits="userSpaceOnUse">
<stop stop-color="#E0E5F3"/>
<stop offset="1" stop-color="#7D84C4"/>
</linearGradient>
<linearGradient id="paint13_linear_10332_86911" x1="1137.72" y1="214.285" x2="1138.65" y2="214.067" gradientUnits="userSpaceOnUse">
<stop stop-color="#E0E5F3"/>
<stop offset="1" stop-color="#7D84C4"/>
</linearGradient>
<linearGradient id="paint14_linear_10332_86911" x1="1115.92" y1="206.392" x2="1117.85" y2="206.011" gradientUnits="userSpaceOnUse">
<stop stop-color="#E0E5F3"/>
<stop offset="1" stop-color="#7D84C4"/>
</linearGradient>
<linearGradient id="paint15_linear_10332_86911" x1="1104.47" y1="190.939" x2="1105.69" y2="190.721" gradientUnits="userSpaceOnUse">
<stop stop-color="#E0E5F3"/>
<stop offset="1" stop-color="#7D84C4"/>
</linearGradient>
<linearGradient id="paint16_linear_10332_86911" x1="1105.63" y1="189.326" x2="1119.95" y2="218.955" gradientUnits="userSpaceOnUse">
<stop stop-color="#BD67B3"/>
<stop offset="1" stop-color="#5A4BA7"/>
</linearGradient>
<linearGradient id="paint17_linear_10332_86911" x1="1137.44" y1="216.231" x2="1139.01" y2="225.898" gradientUnits="userSpaceOnUse">
<stop stop-color="#BD67B3"/>
<stop offset="1" stop-color="#5A4BA7"/>
</linearGradient>
<linearGradient id="paint18_linear_10332_86911" x1="1135.52" y1="306.49" x2="1141.23" y2="315.13" gradientUnits="userSpaceOnUse">
<stop stop-color="white" stop-opacity="0.01"/>
<stop offset="1" stop-color="white" stop-opacity="0.24"/>
</linearGradient>
<linearGradient id="paint19_linear_10332_86911" x1="403" y1="299" x2="403" y2="354" gradientUnits="userSpaceOnUse">
<stop stop-color="#AA16A0"/>
<stop offset="1" stop-color="#8102B8"/>
</linearGradient>
<linearGradient id="paint20_linear_10332_86911" x1="383.5" y1="299" x2="403" y2="354" gradientUnits="userSpaceOnUse">
<stop offset="0.14477" stop-color="#161516" stop-opacity="0.37"/>
<stop offset="1" stop-color="#8102B8"/>
</linearGradient>
<linearGradient id="paint21_linear_10332_86911" x1="1249.78" y1="125.924" x2="1249.78" y2="164.088" gradientUnits="userSpaceOnUse">
<stop stop-color="white" stop-opacity="0.67"/>
<stop offset="0.942708" stop-color="white" stop-opacity="0"/>
</linearGradient>
<linearGradient id="paint22_linear_10332_86911" x1="62.7752" y1="138.924" x2="62.7752" y2="177.088" gradientUnits="userSpaceOnUse">
<stop stop-color="white" stop-opacity="0.67"/>
<stop offset="0.942708" stop-color="white" stop-opacity="0"/>
</linearGradient>
<linearGradient id="paint23_linear_10332_86911" x1="398.3" y1="187.237" x2="397.228" y2="239.992" gradientUnits="userSpaceOnUse">
<stop stop-color="white" stop-opacity="0.67"/>
<stop offset="0.942708" stop-color="white" stop-opacity="0"/>
</linearGradient>
<linearGradient id="paint24_linear_10332_86911" x1="967.046" y1="143.86" x2="965.974" y2="196.615" gradientUnits="userSpaceOnUse">
<stop stop-color="white" stop-opacity="0.67"/>
<stop offset="0.942708" stop-color="white" stop-opacity="0"/>
</linearGradient>
<linearGradient id="paint25_linear_10332_86911" x1="949" y1="304" x2="949" y2="354" gradientUnits="userSpaceOnUse">
<stop stop-color="#AA16A0"/>
<stop offset="1" stop-color="#8102B8"/>
</linearGradient>
<linearGradient id="paint26_linear_10332_86911" x1="938.5" y1="304" x2="949" y2="354" gradientUnits="userSpaceOnUse">
<stop/>
<stop offset="1" stop-color="#8102B8" stop-opacity="0.42"/>
</linearGradient>
<linearGradient id="paint27_linear_10332_86911" x1="215" y1="80" x2="215" y2="103" gradientUnits="userSpaceOnUse">
<stop stop-color="white" stop-opacity="0.64"/>
<stop offset="1" stop-color="white" stop-opacity="0.16"/>
</linearGradient>
<linearGradient id="paint28_linear_10332_86911" x1="855" y1="190" x2="855" y2="213" gradientUnits="userSpaceOnUse">
<stop stop-color="white" stop-opacity="0.64"/>
<stop offset="1" stop-color="white" stop-opacity="0.16"/>
</linearGradient>
<linearGradient id="paint29_linear_10332_86911" x1="-2" y1="284" x2="-2" y2="323" gradientUnits="userSpaceOnUse">
<stop stop-color="white" stop-opacity="0.64"/>
<stop offset="1" stop-color="white" stop-opacity="0.16"/>
</linearGradient>
<linearGradient id="paint30_linear_10332_86911" x1="1029" y1="51" x2="1029" y2="74" gradientUnits="userSpaceOnUse">
<stop stop-color="white" stop-opacity="0.64"/>
<stop offset="1" stop-color="white" stop-opacity="0.16"/>
</linearGradient>
<linearGradient id="paint31_linear_10332_86911" x1="488" y1="149" x2="488" y2="161" gradientUnits="userSpaceOnUse">
<stop stop-color="white" stop-opacity="0.64"/>
<stop offset="1" stop-color="white" stop-opacity="0.16"/>
</linearGradient>
<linearGradient id="paint32_linear_10332_86911" x1="697" y1="51" x2="697" y2="63" gradientUnits="userSpaceOnUse">
<stop stop-color="white" stop-opacity="0.64"/>
<stop offset="1" stop-color="white" stop-opacity="0.16"/>
</linearGradient>
<linearGradient id="paint33_linear_10332_86911" x1="1186" y1="7" x2="1186" y2="19" gradientUnits="userSpaceOnUse">
<stop stop-color="white" stop-opacity="0.64"/>
<stop offset="1" stop-color="white" stop-opacity="0.16"/>
</linearGradient>
<linearGradient id="paint34_linear_10332_86911" x1="121" y1="123" x2="121" y2="135" gradientUnits="userSpaceOnUse">
<stop stop-color="white" stop-opacity="0.64"/>
<stop offset="1" stop-color="white" stop-opacity="0.16"/>
</linearGradient>
<linearGradient id="paint35_linear_10332_86911" x1="458" y1="39" x2="458" y2="51" gradientUnits="userSpaceOnUse">
<stop stop-color="white" stop-opacity="0.64"/>
<stop offset="1" stop-color="white" stop-opacity="0.16"/>
</linearGradient>
<linearGradient id="paint36_linear_10332_86911" x1="943" y1="250" x2="943" y2="262" gradientUnits="userSpaceOnUse">
<stop stop-color="white" stop-opacity="0.64"/>
<stop offset="1" stop-color="white" stop-opacity="0.16"/>
</linearGradient>
<linearGradient id="paint37_linear_10332_86911" x1="1235.38" y1="81.5696" x2="1123.73" y2="227.084" gradientUnits="userSpaceOnUse">
<stop stop-color="white" stop-opacity="0.46"/>
<stop offset="1" stop-color="#D9D9D9" stop-opacity="0"/>
</linearGradient>
<linearGradient id="paint38_linear_10332_86911" x1="1104.68" y1="136.091" x2="1079.37" y2="201.596" gradientUnits="userSpaceOnUse">
<stop stop-color="#B6BDFF"/>
<stop offset="1" stop-color="#7D84C4" stop-opacity="0"/>
</linearGradient>
<linearGradient id="paint39_linear_10332_86911" x1="1173.1" y1="25.1252" x2="1164.99" y2="40.7782" gradientUnits="userSpaceOnUse">
<stop stop-color="#2851AB"/>
<stop offset="1" stop-color="#7D84C4"/>
</linearGradient>
<linearGradient id="paint40_linear_10332_86911" x1="1219.49" y1="126.324" x2="1269.87" y2="96.8554" gradientUnits="userSpaceOnUse">
<stop stop-color="#2851AB"/>
<stop offset="1" stop-color="#7D84C4"/>
</linearGradient>
<linearGradient id="paint41_linear_10332_86911" x1="1253.17" y1="50.184" x2="1210.41" y2="26.5389" gradientUnits="userSpaceOnUse">
<stop stop-color="#E0E5F3"/>
<stop offset="1" stop-color="#7D84C4"/>
</linearGradient>
<linearGradient id="paint42_linear_10332_86911" x1="1250.6" y1="87.1979" x2="1262.93" y2="66.8908" gradientUnits="userSpaceOnUse">
<stop stop-color="#2851AB"/>
<stop offset="1" stop-color="#7D84C4"/>
</linearGradient>
<linearGradient id="paint43_linear_10332_86911" x1="1245.97" y1="80.4396" x2="1251.55" y2="73.901" gradientUnits="userSpaceOnUse">
<stop stop-color="white"/>
<stop offset="1" stop-color="white" stop-opacity="0"/>
</linearGradient>
<linearGradient id="paint44_linear_10332_86911" x1="1239.67" y1="74.4361" x2="1242.7" y2="69.0798" gradientUnits="userSpaceOnUse">
<stop stop-color="white"/>
<stop offset="1" stop-color="white" stop-opacity="0"/>
</linearGradient>
<linearGradient id="paint45_linear_10332_86911" x1="1232.19" y1="70.079" x2="1233.88" y2="63.7937" gradientUnits="userSpaceOnUse">
<stop stop-color="white"/>
<stop offset="1" stop-color="white" stop-opacity="0"/>
</linearGradient>
<linearGradient id="paint46_linear_10332_86911" x1="1222.03" y1="65.6255" x2="1225.33" y2="60.7321" gradientUnits="userSpaceOnUse">
<stop stop-color="white"/>
<stop offset="1" stop-color="white" stop-opacity="0"/>
</linearGradient>
<linearGradient id="paint47_linear_10332_86911" x1="1214.05" y1="60.1676" x2="1216.43" y2="56.594" gradientUnits="userSpaceOnUse">
<stop stop-color="white"/>
<stop offset="1" stop-color="white" stop-opacity="0"/>
</linearGradient>
<linearGradient id="paint48_linear_10332_86911" x1="1205.67" y1="55.876" x2="1208.22" y2="51.2711" gradientUnits="userSpaceOnUse">
<stop stop-color="white"/>
<stop offset="1" stop-color="white" stop-opacity="0"/>
</linearGradient>
<linearGradient id="paint49_linear_10332_86911" x1="1194.52" y1="53.4102" x2="1200.61" y2="45.6382" gradientUnits="userSpaceOnUse">
<stop stop-color="white"/>
<stop offset="1" stop-color="white" stop-opacity="0"/>
</linearGradient>
<linearGradient id="paint50_linear_10332_86911" x1="1119.26" y1="133.246" x2="1071.79" y2="147.653" gradientUnits="userSpaceOnUse">
<stop stop-color="#7D84C4"/>
<stop offset="1" stop-color="#7D84C4" stop-opacity="0"/>
</linearGradient>
<linearGradient id="paint51_linear_10332_86911" x1="109.789" y1="43" x2="109.789" y2="96.5789" gradientUnits="userSpaceOnUse">
<stop stop-color="#00C4D6"/>
<stop offset="1" stop-color="#00C4D6" stop-opacity="0.31"/>
</linearGradient>
<linearGradient id="paint52_linear_10332_86911" x1="0.588684" y1="64.0638" x2="0.588684" y2="84.8562" gradientUnits="userSpaceOnUse">
<stop stop-color="#46B679"/>
<stop offset="1" stop-color="#46B779" stop-opacity="0.63"/>
</linearGradient>
<linearGradient id="paint53_linear_10332_86911" x1="42.0623" y1="147.274" x2="50.09" y2="158.765" gradientUnits="userSpaceOnUse">
<stop stop-color="#46B679"/>
<stop offset="1" stop-color="#46B779" stop-opacity="0.63"/>
</linearGradient>
<linearGradient id="paint54_linear_10332_86911" x1="910.454" y1="61.7609" x2="915.438" y2="70.8389" gradientUnits="userSpaceOnUse">
<stop stop-color="white" stop-opacity="0.01"/>
<stop offset="1" stop-color="white" stop-opacity="0.24"/>
</linearGradient>
<linearGradient id="paint55_linear_10332_86911" x1="345.454" y1="93.7609" x2="350.438" y2="102.839" gradientUnits="userSpaceOnUse">
<stop stop-color="white" stop-opacity="0.01"/>
<stop offset="1" stop-color="white" stop-opacity="0.24"/>
</linearGradient>
<linearGradient id="paint56_linear_10332_86911" x1="614.544" y1="169.154" x2="620.253" y2="177.794" gradientUnits="userSpaceOnUse">
<stop stop-color="white" stop-opacity="0.01"/>
<stop offset="1" stop-color="white" stop-opacity="0.24"/>
</linearGradient>
<linearGradient id="paint57_linear_10332_86911" x1="1255.52" y1="53.4895" x2="1261.23" y2="62.1302" gradientUnits="userSpaceOnUse">
<stop stop-color="white" stop-opacity="0.01"/>
<stop offset="1" stop-color="white" stop-opacity="0.24"/>
</linearGradient>
<linearGradient id="paint58_linear_10332_86911" x1="702" y1="299" x2="702" y2="354" gradientUnits="userSpaceOnUse">
<stop stop-color="#AA16A0"/>
<stop offset="1" stop-color="#8102B8"/>
</linearGradient>
<linearGradient id="paint59_linear_10332_86911" x1="643.5" y1="326" x2="702" y2="354" gradientUnits="userSpaceOnUse">
<stop offset="0.0725713" stop-color="#2D2A2C" stop-opacity="0.33"/>
<stop offset="0.909249" stop-color="#8102B8" stop-opacity="0.08"/>
</linearGradient>
<linearGradient id="paint60_linear_10332_86911" x1="1098.05" y1="287.232" x2="1115.88" y2="328.679" gradientUnits="userSpaceOnUse">
<stop offset="0.118786" stop-color="#B12399"/>
<stop offset="1" stop-color="#9F1F95"/>
</linearGradient>
<linearGradient id="paint61_linear_10332_86911" x1="1153.81" y1="303.946" x2="1165.01" y2="329.999" gradientUnits="userSpaceOnUse">
<stop offset="0.118786" stop-color="#B12399"/>
<stop offset="1" stop-color="#9F1F95"/>
</linearGradient>
<radialGradient id="paint62_radial_10332_86911" cx="0" cy="0" r="1" gradientUnits="userSpaceOnUse" gradientTransform="translate(1236.9 264.92) scale(22.0542 22.0776)">
<stop stop-color="#FEE7CA"/>
<stop offset="1" stop-color="#FEE7CA" stop-opacity="0"/>
</radialGradient>
<linearGradient id="paint63_linear_10332_86911" x1="1238.43" y1="292.69" x2="1259.92" y2="265.207" gradientUnits="userSpaceOnUse">
<stop offset="0.137" stop-color="#B353E9"/>
<stop offset="1" stop-color="#F7D3A1"/>
</linearGradient>
<radialGradient id="paint64_radial_10332_86911" cx="0" cy="0" r="1" gradientUnits="userSpaceOnUse" gradientTransform="translate(1236.9 264.92) scale(22.0542 22.0776)">
<stop stop-color="#FEE7CA"/>
<stop offset="1" stop-color="#FEE7CA" stop-opacity="0"/>
</radialGradient>
<linearGradient id="paint65_linear_10332_86911" x1="1238.43" y1="292.69" x2="1259.92" y2="265.207" gradientUnits="userSpaceOnUse">
<stop offset="0.137" stop-color="#B353E9"/>
<stop offset="1" stop-color="#F7D3A1"/>
</linearGradient>
<radialGradient id="paint66_radial_10332_86911" cx="0" cy="0" r="1" gradientUnits="userSpaceOnUse" gradientTransform="translate(20.454 51.135) scale(14.7452 14.7608)">
<stop stop-color="#FEE7CA"/>
<stop offset="1" stop-color="#FEE7CA" stop-opacity="0"/>
</radialGradient>
<linearGradient id="paint67_linear_10332_86911" x1="21.4771" y1="69.701" x2="35.8474" y2="51.3264" gradientUnits="userSpaceOnUse">
<stop offset="0.137" stop-color="#B353E9"/>
<stop offset="1" stop-color="#F7D3A1"/>
</linearGradient>
<linearGradient id="paint68_linear_10332_86911" x1="80.0547" y1="298.232" x2="97.8842" y2="339.679" gradientUnits="userSpaceOnUse">
<stop offset="0.118786" stop-color="#B12399"/>
<stop offset="1" stop-color="#9F1F95"/>
</linearGradient>
<linearGradient id="paint69_linear_10332_86911" x1="60.371" y1="324.924" x2="70.2979" y2="348.001" gradientUnits="userSpaceOnUse">
<stop offset="0.118786" stop-color="#B12399"/>
<stop offset="1" stop-color="#9F1F95"/>
</linearGradient>
<clipPath id="clip0_10332_86911">
<rect width="1290" height="339.789" rx="10" fill="white"/>
</clipPath>
</defs>
</svg>
