<svg width="1356" height="290" viewBox="0 0 1356 290" fill="none" xmlns="http://www.w3.org/2000/svg">
<rect width="1356" height="290" rx="10" transform="matrix(-1 0 0 1 1356 0)" fill="#774BF0"/>
<mask id="mask0_6945_85880" style="mask-type:alpha" maskUnits="userSpaceOnUse" x="0" y="0" width="1356" height="290">
<rect width="1356" height="290" rx="10" transform="matrix(-1 0 0 1 1356 0)" fill="#774BF0"/>
</mask>
<g mask="url(#mask0_6945_85880)">
<path opacity="0.5" d="M1433.34 340.516H516.381C626.459 320.612 873.676 254.993 981.916 151.749C1090.16 48.5054 1327.97 8.56909 1433.34 1.50641V109.855C1234.31 160.321 1350.41 234.575 1433.34 265.394V340.516Z" fill="white" fill-opacity="0.1"/>
<path opacity="0.5" d="M1188.59 -26.7294C1384.29 16.3363 1581.84 -57.3924 1656.15 -99.64L1720.55 13.23C1648.21 49.2546 1466.98 126.674 1320.76 148.156C1174.55 169.638 917.502 150.26 807.255 137.886C739.298 135.828 577.885 138.241 475.89 164.354C348.395 196.996 276.891 214.242 87.5196 306.086C-63.9772 379.561 -251.812 388.555 -326.793 383.867L-411.901 234.702C-335.386 225.798 -191.447 192.056 -227.813 128.318C-264.18 64.5793 -437.246 47.2718 -519.233 46.5853L-578.076 -56.5469L-457.168 -95.4517C-320.923 -55.9931 -68.3954 -42.4253 145.685 -80.4009C359.766 -118.377 430.663 -176.29 685.181 -151.313C939.699 -126.336 943.973 -80.5616 1188.59 -26.7294Z" fill="white" fill-opacity="0.1"/>
</g>
<g filter="url(#filter0_d_6945_85880)">
<path d="M1094 113.441C1094 107.485 1098.82 102.656 1104.77 102.656H1241.23C1247.18 102.656 1252 107.485 1252 113.441V189.832C1252 195.788 1247.18 200.616 1241.23 200.616H1104.77C1098.82 200.616 1094 195.788 1094 189.832V113.441Z" fill="white"/>
<path d="M1108.75 123.196C1108.75 123.487 1109.01 123.723 1109.35 123.723H1239.29C1239.62 123.723 1239.89 123.487 1239.89 123.196C1239.89 122.905 1239.62 122.669 1239.29 122.669H1109.35C1109.01 122.669 1108.75 122.905 1108.75 123.196Z" fill="url(#paint0_linear_6945_85880)"/>
<path d="M1122.97 131.097C1122.97 131.679 1123.12 132.15 1123.3 132.15H1195.31C1195.5 132.15 1195.65 131.679 1195.65 131.097C1195.65 130.515 1195.5 130.044 1195.31 130.044H1123.3C1123.12 130.044 1122.97 130.515 1122.97 131.097Z" fill="url(#paint1_linear_6945_85880)"/>
<path d="M1148.25 148.213C1148.25 148.94 1148.4 149.529 1148.58 149.529H1220.59C1220.78 149.529 1220.93 148.94 1220.93 148.213C1220.93 147.485 1220.78 146.896 1220.59 146.896H1148.58C1148.4 146.896 1148.25 147.485 1148.25 148.213Z" fill="url(#paint2_linear_6945_85880)"/>
<path d="M1124.55 181.13C1124.55 181.712 1124.7 182.184 1124.88 182.184H1196.89C1197.08 182.184 1197.23 181.712 1197.23 181.13C1197.23 180.549 1197.08 180.077 1196.89 180.077H1124.88C1124.7 180.077 1124.55 180.549 1124.55 181.13Z" fill="url(#paint3_linear_6945_85880)"/>
<path d="M1120.33 148.213C1120.33 148.94 1120.38 149.529 1120.43 149.529H1142.35C1142.41 149.529 1142.45 148.94 1142.45 148.213C1142.45 147.485 1142.41 146.896 1142.35 146.896H1120.43C1120.38 146.896 1120.33 147.485 1120.33 148.213Z" fill="url(#paint4_linear_6945_85880)"/>
<path d="M1121.91 162.433C1121.91 163.161 1122.16 163.75 1122.45 163.75H1239.35C1239.65 163.75 1239.89 163.161 1239.89 162.433C1239.89 161.706 1239.65 161.117 1239.35 161.117H1122.45C1122.16 161.117 1121.91 161.706 1121.91 162.433Z" fill="url(#paint5_linear_6945_85880)"/>
<path d="M1114.54 113.453C1114.54 115.053 1113.24 116.35 1111.64 116.35C1110.04 116.35 1108.75 115.053 1108.75 113.453C1108.75 111.854 1110.04 110.557 1111.64 110.557C1113.24 110.557 1114.54 111.854 1114.54 113.453Z" fill="url(#paint6_linear_6945_85880)"/>
<path d="M1122.97 113.453C1122.97 115.053 1121.67 116.35 1120.07 116.35C1118.47 116.35 1117.17 115.053 1117.17 113.453C1117.17 111.854 1118.47 110.557 1120.07 110.557C1121.67 110.557 1122.97 111.854 1122.97 113.453Z" fill="url(#paint7_linear_6945_85880)"/>
<path d="M1131.92 113.453C1131.92 115.053 1130.62 116.35 1129.02 116.35C1127.42 116.35 1126.13 115.053 1126.13 113.453C1126.13 111.854 1127.42 110.557 1129.02 110.557C1130.62 110.557 1131.92 111.854 1131.92 113.453Z" fill="url(#paint8_linear_6945_85880)"/>
<path fill-rule="evenodd" clip-rule="evenodd" d="M1108.75 131.886C1108.75 130.868 1109.63 130.043 1110.72 130.043H1114.67C1115.76 130.043 1116.65 130.868 1116.65 131.886C1116.65 132.904 1115.76 133.73 1114.67 133.73H1110.72C1109.63 133.73 1108.75 132.904 1108.75 131.886Z" fill="#9084D1"/>
<path fill-rule="evenodd" clip-rule="evenodd" d="M1108.75 147.95C1108.75 146.787 1109.63 145.844 1110.72 145.844H1114.67C1115.76 145.844 1116.65 146.787 1116.65 147.95C1116.65 149.114 1115.76 150.057 1114.67 150.057H1110.72C1109.63 150.057 1108.75 149.114 1108.75 147.95Z" fill="#9084D1"/>
<path fill-rule="evenodd" clip-rule="evenodd" d="M1108.75 163.224C1108.75 162.06 1109.63 161.117 1110.72 161.117H1114.67C1115.76 161.117 1116.65 162.06 1116.65 163.224C1116.65 164.387 1115.76 165.331 1114.67 165.331H1110.72C1109.63 165.331 1108.75 164.387 1108.75 163.224Z" fill="#9084D1"/>
<path fill-rule="evenodd" clip-rule="evenodd" d="M1108.75 181.92C1108.75 180.901 1109.63 180.076 1110.72 180.076H1114.67C1115.76 180.076 1116.65 180.901 1116.65 181.92C1116.65 182.938 1115.76 183.763 1114.67 183.763H1110.72C1109.63 183.763 1108.75 182.938 1108.75 181.92Z" fill="#9084D1"/>
<path d="M1198.33 186.222C1197.92 185.326 1198.22 184.318 1198.99 183.97L1224.07 172.669C1224.84 172.322 1225.79 172.766 1226.19 173.662L1241.63 207.912C1242.03 208.808 1241.74 209.817 1240.96 210.164L1215.89 221.465C1215.12 221.813 1214.16 221.368 1213.76 220.472L1198.33 186.222Z" fill="#FFD424"/>
<path d="M1198.33 186.222C1197.92 185.326 1198.22 184.319 1198.98 183.974L1199.23 183.86C1200 183.515 1200.95 183.961 1201.35 184.857L1216.79 219.107C1217.19 220.003 1216.9 221.01 1216.13 221.355L1215.88 221.469C1215.11 221.815 1214.16 221.368 1213.76 220.472L1198.33 186.222Z" fill="#FF9E2A"/>
<path d="M1224.56 189.161C1225.33 188.81 1226.28 189.251 1226.69 190.146L1227.2 191.277C1227.61 192.172 1227.31 193.182 1226.54 193.533L1215.22 198.698C1214.45 199.049 1213.49 198.608 1213.09 197.713L1212.57 196.582C1212.17 195.687 1212.46 194.677 1213.23 194.326L1224.56 189.161Z" fill="white"/>
<path d="M1220.99 184.347C1221.57 184.08 1222.3 184.416 1222.61 185.097C1222.92 185.778 1222.7 186.547 1222.11 186.814L1213.15 190.899C1212.57 191.166 1211.84 190.83 1211.53 190.149C1211.22 189.468 1211.44 188.699 1212.03 188.432L1220.99 184.347Z" fill="white"/>
<path d="M1238.64 174.533C1238.61 173.504 1239.4 172.647 1240.41 172.619L1273.17 171.706C1274.18 171.678 1275.02 172.489 1275.05 173.518L1276.15 212.84C1276.18 213.869 1275.38 214.726 1274.37 214.754L1241.61 215.667C1240.6 215.695 1239.76 214.884 1239.73 213.855L1238.64 174.533Z" fill="#FE387D"/>
<path d="M1236.32 178.625C1236.3 177.921 1236.88 177.333 1237.62 177.313L1241.33 177.209C1242.06 177.189 1242.68 177.743 1242.7 178.447L1242.7 178.664C1242.72 179.368 1242.14 179.956 1241.41 179.976L1237.7 180.08C1236.96 180.1 1236.35 179.546 1236.33 178.842L1236.32 178.625Z" fill="#FC8C9D"/>
<path d="M1236.47 183.993C1236.45 183.211 1237.03 182.56 1237.76 182.539L1241.47 182.436C1242.21 182.415 1242.82 183.033 1242.85 183.815L1242.85 184.057C1242.87 184.839 1242.3 185.49 1241.56 185.511L1237.85 185.614C1237.12 185.634 1236.5 185.017 1236.48 184.234L1236.47 183.993Z" fill="#FC8C9D"/>
<path d="M1236.63 189.695C1236.61 188.991 1237.19 188.403 1237.93 188.383L1241.64 188.279C1242.37 188.259 1242.98 188.813 1243 189.517L1243.01 189.735C1243.03 190.439 1242.45 191.026 1241.71 191.047L1238 191.15C1237.27 191.171 1236.66 190.616 1236.64 189.912L1236.63 189.695Z" fill="#FC8C9D"/>
<path d="M1236.79 195.228C1236.77 194.524 1237.35 193.937 1238.08 193.916L1241.79 193.813C1242.53 193.792 1243.14 194.346 1243.16 195.051L1243.16 195.268C1243.18 195.972 1242.6 196.559 1241.87 196.58L1238.16 196.683C1237.42 196.704 1236.81 196.15 1236.79 195.445L1236.79 195.228Z" fill="#FC8C9D"/>
<path d="M1236.94 200.905C1236.92 200.123 1237.5 199.472 1238.24 199.451L1241.95 199.348C1242.68 199.327 1243.29 199.945 1243.32 200.728L1243.32 200.969C1243.34 201.751 1242.77 202.402 1242.03 202.423L1238.32 202.526C1237.59 202.547 1236.97 201.929 1236.95 201.146L1236.94 200.905Z" fill="#FC8C9D"/>
<path d="M1237.09 206.299C1237.07 205.594 1237.65 205.007 1238.39 204.986L1242.1 204.883C1242.84 204.862 1243.45 205.417 1243.47 206.121L1243.47 206.338C1243.49 207.042 1242.91 207.63 1242.18 207.65L1238.47 207.754C1237.73 207.774 1237.12 207.22 1237.1 206.516L1237.09 206.299Z" fill="#FC8C9D"/>
<path d="M1237.23 211.052C1237.21 210.269 1237.78 209.618 1238.52 209.598L1242.23 209.494C1242.96 209.474 1243.58 210.091 1243.6 210.874L1243.61 211.115C1243.63 211.898 1243.05 212.549 1242.31 212.569L1238.6 212.673C1237.87 212.693 1237.26 212.075 1237.23 211.293L1237.23 211.052Z" fill="#FC8C9D"/>
<path fill-rule="evenodd" clip-rule="evenodd" d="M1264.59 180.706L1251 181.085C1250.73 181.092 1250.51 181.324 1250.52 181.603L1250.78 191.071C1250.79 191.349 1251.02 191.569 1251.3 191.561L1264.88 191.183C1265.15 191.175 1265.37 190.943 1265.36 190.664L1265.1 181.196C1265.09 180.918 1264.86 180.698 1264.59 180.706ZM1250.97 179.712C1249.94 179.74 1249.13 180.604 1249.16 181.641L1249.43 191.109C1249.45 192.145 1250.31 192.962 1251.34 192.934L1264.92 192.555C1265.94 192.527 1266.75 191.663 1266.72 190.627L1266.46 181.158C1266.43 180.122 1265.57 179.305 1264.55 179.333L1250.97 179.712Z" fill="white"/>
<path fill-rule="evenodd" clip-rule="evenodd" d="M1263.53 184.901L1252.3 185.214L1252.29 184.906L1263.52 184.593L1263.53 184.901Z" fill="white"/>
<path fill-rule="evenodd" clip-rule="evenodd" d="M1261.17 187.428L1254.49 187.614L1254.48 187.307L1261.16 187.121L1261.17 187.428Z" fill="white"/>
</g>
<g filter="url(#filter1_d_6945_85880)">
<path d="M889 77.9896C889 72.2826 893.626 67.6562 899.333 67.6562H1098.42C1104.13 67.6562 1108.76 72.2826 1108.76 77.9896V181.323C1108.76 187.03 1104.13 191.656 1098.42 191.656H899.333C893.626 191.656 889 187.03 889 181.323V77.9896Z" fill="white"/>
<path d="M889 73.8889C889 70.0843 892.084 67 895.889 67H1101.87C1105.67 67 1108.76 70.0843 1108.76 73.8889V86.9778C1108.76 90.7824 1105.67 93.8667 1101.87 93.8667H895.889C892.084 93.8667 889 90.7824 889 86.9778V73.8889Z" fill="#372172"/>
<path d="M962.711 80.0891C962.711 77.6161 964.716 75.6113 967.189 75.6113H1097.39C1099.86 75.6113 1101.87 77.6161 1101.87 80.0891C1101.87 82.5621 1099.86 84.5669 1097.39 84.5669H967.189C964.716 84.5669 962.711 82.5621 962.711 80.0891Z" fill="white"/>
<path d="M974.078 115.19C974.078 114.048 975.003 113.123 976.145 113.123H1094.29C1095.43 113.123 1096.36 114.048 1096.36 115.19C1096.36 116.331 1095.43 117.256 1094.29 117.256H976.145C975.003 117.256 974.078 116.331 974.078 115.19Z" fill="#56D1E4"/>
<path d="M974.078 131.723C974.078 130.582 975.003 129.656 976.145 129.656H1094.29C1095.43 129.656 1096.36 130.582 1096.36 131.723C1096.36 132.864 1095.43 133.79 1094.29 133.79H976.145C975.003 133.79 974.078 132.864 974.078 131.723Z" fill="#56D1E4"/>
<path d="M974.078 145.844C974.078 144.703 975.003 143.777 976.145 143.777H1094.29C1095.43 143.777 1096.36 144.703 1096.36 145.844C1096.36 146.985 1095.43 147.911 1094.29 147.911H976.145C975.003 147.911 974.078 146.985 974.078 145.844Z" fill="#56D1E4"/>
<path d="M974.078 162.377C974.078 161.236 975.003 160.311 976.145 160.311H1067.42C1068.56 160.311 1069.49 161.236 1069.49 162.377C1069.49 163.519 1068.56 164.444 1067.42 164.444H976.145C975.003 164.444 974.078 163.519 974.078 162.377Z" fill="#56D1E4"/>
<path d="M907.945 80.9508C907.945 83.5189 905.863 85.6008 903.295 85.6008C900.726 85.6008 898.645 83.5189 898.645 80.9508C898.645 78.3827 900.726 76.3008 903.295 76.3008C905.863 76.3008 907.945 78.3827 907.945 80.9508Z" fill="url(#paint9_linear_6945_85880)"/>
<path d="M922.066 80.9508C922.066 83.5189 919.984 85.6008 917.416 85.6008C914.848 85.6008 912.766 83.5189 912.766 80.9508C912.766 78.3827 914.848 76.3008 917.416 76.3008C919.984 76.3008 922.066 78.3827 922.066 80.9508Z" fill="url(#paint10_linear_6945_85880)"/>
<path d="M936.189 80.9508C936.189 83.5189 934.107 85.6008 931.539 85.6008C928.971 85.6008 926.889 83.5189 926.889 80.9508C926.889 78.3827 928.971 76.3008 931.539 76.3008C934.107 76.3008 936.189 78.3827 936.189 80.9508Z" fill="url(#paint11_linear_6945_85880)"/>
<path d="M901.4 123.455C901.4 116.036 907.415 110.021 914.834 110.021H953.756C961.175 110.021 967.189 116.036 967.189 123.455V164.099C967.189 171.518 961.175 177.533 953.756 177.533H914.834C907.415 177.533 901.4 171.518 901.4 164.099V123.455Z" fill="#56D1E4"/>
<path d="M901.4 142.021C901.4 130.114 915.743 124.093 924.242 132.432L940.221 148.11C944.069 151.886 950.516 150.563 952.567 145.577C955.732 137.879 967.189 140.143 967.189 148.466V166.393C967.189 172.545 962.202 177.532 956.05 177.532H914.834C907.415 177.532 901.4 171.518 901.4 164.099V142.021Z" fill="url(#paint12_linear_6945_85880)"/>
<path d="M949.098 126.688C949.098 129.834 946.613 132.385 943.547 132.385C940.481 132.385 937.996 129.834 937.996 126.688C937.996 123.542 940.481 120.992 943.547 120.992C946.613 120.992 949.098 123.542 949.098 126.688Z" fill="url(#paint13_linear_6945_85880)"/>
</g>
<g filter="url(#filter2_i_6945_85880)">
<path d="M879.72 200.711C873.371 200.758 872.111 188.595 872.275 182.508C882.77 184.715 888.445 184.499 898.208 181.682C899.121 183.4 900.29 199.898 892.365 200.308C884.44 200.719 887.656 200.652 879.72 200.711Z" fill="url(#paint14_linear_6945_85880)"/>
<path d="M879.72 200.711C873.371 200.758 872.111 188.595 872.275 182.508C882.77 184.715 888.445 184.499 898.208 181.682C899.121 183.4 900.29 199.898 892.365 200.308C884.44 200.719 887.656 200.652 879.72 200.711Z" fill="url(#paint15_linear_6945_85880)" fill-opacity="0.2"/>
</g>
<g filter="url(#filter3_i_6945_85880)">
<path d="M872.21 182.567C876.477 180.418 887.589 177.246 897.896 181.75C897.95 183.426 877.152 185.765 872.21 182.567Z" fill="#D9D9D9"/>
</g>
<path d="M876.642 164.48C875.441 159.553 867.047 149.878 863 145.656C866.457 148.889 873.985 155.938 876.444 158.279C878.904 160.62 883.336 167.981 885.245 171.369L883.231 184.166L881.183 184.231C881.179 182.162 881.117 177.484 880.9 175.327C880.628 172.63 878.142 170.64 876.642 164.48Z" fill="url(#paint16_linear_6945_85880)"/>
<path d="M881.26 166.529C880.832 162.215 875.055 152.993 872.221 148.922C874.684 152.084 880.047 158.979 881.795 161.263C883.543 163.548 886.34 170.32 887.521 173.421L884.437 183.985L882.756 183.786C882.985 182.037 883.46 178.076 883.524 176.225C883.604 173.912 881.795 171.921 881.26 166.529Z" fill="url(#paint17_linear_6945_85880)"/>
<path d="M888.213 172.445C890.04 167.49 893.949 163.692 895.675 162.413C890.271 168.353 889.745 179.243 890.158 183.945L885.652 184.089L886.293 179.443C886.172 179.175 886.386 177.4 888.213 172.445Z" fill="url(#paint18_linear_6945_85880)"/>
<path d="M888.213 172.445C890.04 167.49 893.949 163.692 895.675 162.413C890.271 168.353 889.745 179.243 890.158 183.945L885.652 184.089L886.293 179.443C886.172 179.175 886.386 177.4 888.213 172.445Z" fill="url(#paint19_linear_6945_85880)"/>
<path d="M885.876 165.968C887.987 158.229 892.585 152.328 894.62 150.345C888.271 159.583 887.778 176.634 888.325 184.004L882.974 184.174L883.68 176.906C883.533 176.485 883.766 173.707 885.876 165.968Z" fill="url(#paint20_linear_6945_85880)"/>
<path d="M879.647 166.066C879.81 157.974 883.372 150.517 885.132 147.8C880.533 159.109 884.956 175.148 887.743 181.754L881.637 184.217L880.322 177.166C880.029 176.838 879.484 174.159 879.647 166.066Z" fill="url(#paint21_linear_6945_85880)"/>
<path d="M120.78 94.0205H132.982C138.039 94.0205 141.644 94.7702 143.797 96.2695C145.95 97.7689 147.027 99.9222 147.027 102.729C147.027 104.261 146.748 105.561 146.189 106.629C145.647 107.698 144.953 108.543 144.108 109.166C143.278 109.788 142.425 110.21 141.548 110.434V110.673C142.505 110.912 143.454 111.311 144.395 111.869C145.352 112.411 146.142 113.233 146.764 114.333C147.402 115.418 147.721 116.894 147.721 118.76C147.721 120.881 147.178 122.708 146.094 124.239C145.025 125.77 143.494 126.95 141.5 127.78C139.506 128.593 137.138 129 134.394 129H120.78V94.0205ZM130.231 107.443H133.078C134.641 107.443 135.742 107.124 136.38 106.486C137.018 105.832 137.337 105.042 137.337 104.117C137.337 103.16 136.97 102.434 136.236 101.94C135.519 101.43 134.402 101.174 132.887 101.174H130.231V107.443ZM130.231 114.357V121.703H133.557C135.2 121.703 136.348 121.352 137.002 120.65C137.656 119.932 137.983 119.039 137.983 117.97C137.983 117.348 137.839 116.766 137.552 116.224C137.281 115.665 136.811 115.219 136.141 114.884C135.471 114.533 134.546 114.357 133.365 114.357H130.231ZM174.565 129H153.798V94.0205H174.565V101.605H163.249V107.108H173.728V114.692H163.249V121.296H174.565V129ZM203.563 118.377C203.563 120.275 203.085 122.077 202.128 123.784C201.171 125.475 199.68 126.847 197.654 127.899C195.644 128.952 193.044 129.479 189.854 129.479C188.259 129.479 186.855 129.407 185.643 129.263C184.447 129.12 183.33 128.888 182.293 128.569C181.257 128.234 180.18 127.804 179.063 127.277V118.855C180.962 119.812 182.876 120.546 184.806 121.057C186.736 121.551 188.482 121.798 190.045 121.798C190.986 121.798 191.752 121.687 192.342 121.463C192.948 121.24 193.395 120.937 193.682 120.554C193.969 120.155 194.113 119.701 194.113 119.19C194.113 118.584 193.897 118.074 193.467 117.659C193.052 117.229 192.382 116.782 191.457 116.319C190.532 115.857 189.312 115.283 187.796 114.597C186.504 113.991 185.332 113.368 184.279 112.73C183.243 112.092 182.349 111.367 181.6 110.553C180.866 109.724 180.3 108.759 179.901 107.658C179.502 106.558 179.303 105.258 179.303 103.758C179.303 101.509 179.853 99.6271 180.954 98.1118C182.07 96.5806 183.617 95.4321 185.595 94.6665C187.589 93.9009 189.886 93.5181 192.486 93.5181C194.767 93.5181 196.816 93.7733 198.635 94.2837C200.469 94.7941 202.112 95.3763 203.563 96.0303L200.668 103.328C199.169 102.642 197.694 102.099 196.242 101.701C194.791 101.286 193.443 101.079 192.199 101.079C191.385 101.079 190.715 101.182 190.189 101.39C189.679 101.581 189.296 101.844 189.041 102.179C188.801 102.514 188.682 102.897 188.682 103.328C188.682 103.87 188.889 104.356 189.304 104.787C189.734 105.218 190.444 105.688 191.433 106.199C192.438 106.693 193.802 107.339 195.524 108.137C197.231 108.902 198.683 109.732 199.879 110.625C201.075 111.502 201.984 112.563 202.606 113.807C203.244 115.035 203.563 116.559 203.563 118.377ZM224.403 129H214.952V101.749H206.411V94.0205H232.92V101.749H224.403V129ZM283.38 111.462C283.38 114.158 283.053 116.614 282.399 118.832C281.761 121.033 280.756 122.931 279.384 124.526C278.013 126.121 276.25 127.349 274.097 128.21C271.943 129.056 269.367 129.479 266.369 129.479C263.434 129.479 260.89 129.056 258.736 128.21C256.599 127.349 254.836 126.129 253.449 124.55C252.061 122.955 251.032 121.049 250.362 118.832C249.692 116.614 249.357 114.142 249.357 111.415C249.357 107.778 249.956 104.62 251.152 101.94C252.364 99.2443 254.23 97.1628 256.75 95.6953C259.271 94.2119 262.493 93.4702 266.417 93.4702C270.404 93.4702 273.642 94.2119 276.13 95.6953C278.635 97.1787 280.469 99.2682 281.633 101.964C282.798 104.66 283.38 107.826 283.38 111.462ZM259.311 111.462C259.311 113.568 259.55 115.378 260.028 116.894C260.507 118.409 261.264 119.573 262.301 120.387C263.338 121.2 264.694 121.607 266.369 121.607C268.107 121.607 269.487 121.2 270.508 120.387C271.545 119.573 272.286 118.409 272.733 116.894C273.195 115.378 273.427 113.568 273.427 111.462C273.427 108.304 272.9 105.808 271.848 103.974C270.795 102.139 268.985 101.222 266.417 101.222C264.71 101.222 263.33 101.637 262.277 102.466C261.241 103.296 260.483 104.476 260.004 106.007C259.542 107.539 259.311 109.357 259.311 111.462ZM299.003 129H289.696V94.0205H310.368V101.605H299.003V108.28H309.483V115.865H299.003V129ZM325.417 129H316.11V94.0205H336.782V101.605H325.417V108.28H335.897V115.865H325.417V129ZM363.292 129H342.524V94.0205H363.292V101.605H351.975V107.108H362.455V114.692H351.975V121.296H363.292V129ZM380.877 94.0205C384.052 94.0205 386.691 94.4113 388.797 95.1929C390.902 95.9585 392.481 97.1069 393.534 98.6382C394.603 100.169 395.137 102.076 395.137 104.356C395.137 105.776 394.898 107.068 394.419 108.232C393.941 109.397 393.255 110.442 392.362 111.367C391.485 112.276 390.432 113.073 389.204 113.759L399.396 129H388.677L381.26 116.271H378.868V129H369.417V94.0205H380.877ZM380.734 101.174H378.868V109.166H380.638C382.09 109.166 383.278 108.847 384.203 108.208C385.128 107.57 385.591 106.43 385.591 104.787C385.591 103.655 385.208 102.769 384.442 102.131C383.677 101.493 382.441 101.174 380.734 101.174ZM409.875 116.654H401.98L400.76 94.0205H411.096L409.875 116.654ZM400.855 125.028C400.855 123.338 401.35 122.149 402.339 121.463C403.344 120.778 404.532 120.435 405.904 120.435C407.26 120.435 408.424 120.778 409.397 121.463C410.37 122.149 410.856 123.338 410.856 125.028C410.856 126.639 410.37 127.804 409.397 128.521C408.424 129.239 407.26 129.598 405.904 129.598C404.532 129.598 403.344 129.239 402.339 128.521C401.35 127.804 400.855 126.639 400.855 125.028Z" fill="white"/>
<path d="M155.613 171.675C155.613 173.086 155.35 174.259 154.824 175.194C154.299 176.13 153.557 176.832 152.6 177.303C151.648 177.768 150.527 178 149.238 178H145.312V165.864H149.512C150.818 165.864 151.924 166.088 152.832 166.537C153.74 166.985 154.429 167.641 154.899 168.504C155.375 169.367 155.613 170.424 155.613 171.675ZM152.209 171.791C152.209 171.055 152.11 170.446 151.911 169.965C151.717 169.478 151.424 169.115 151.031 168.877C150.638 168.634 150.143 168.512 149.545 168.512H148.59V175.311H149.321C150.317 175.311 151.047 175.023 151.512 174.447C151.977 173.866 152.209 172.981 152.209 171.791ZM157.796 178V165.864H161.091V178H157.796ZM171.658 174.314C171.658 174.973 171.492 175.598 171.16 176.19C170.828 176.777 170.311 177.253 169.608 177.618C168.911 177.983 168.009 178.166 166.902 178.166C166.348 178.166 165.861 178.141 165.441 178.091C165.026 178.042 164.639 177.961 164.279 177.851C163.919 177.734 163.546 177.585 163.158 177.402V174.48C163.817 174.812 164.481 175.067 165.15 175.244C165.82 175.416 166.426 175.501 166.968 175.501C167.295 175.501 167.56 175.463 167.765 175.385C167.975 175.308 168.13 175.203 168.23 175.07C168.33 174.931 168.379 174.774 168.379 174.597C168.379 174.386 168.305 174.209 168.155 174.065C168.011 173.916 167.779 173.761 167.458 173.601C167.137 173.44 166.714 173.241 166.188 173.003C165.74 172.793 165.333 172.577 164.968 172.355C164.608 172.134 164.298 171.882 164.038 171.6C163.784 171.312 163.587 170.978 163.449 170.596C163.31 170.214 163.241 169.763 163.241 169.243C163.241 168.462 163.432 167.809 163.814 167.284C164.201 166.752 164.738 166.354 165.424 166.088C166.116 165.823 166.913 165.69 167.815 165.69C168.606 165.69 169.317 165.778 169.948 165.956C170.585 166.133 171.155 166.335 171.658 166.562L170.654 169.093C170.134 168.855 169.622 168.667 169.118 168.529C168.615 168.385 168.147 168.313 167.715 168.313C167.433 168.313 167.201 168.349 167.018 168.421C166.841 168.487 166.708 168.579 166.62 168.695C166.537 168.811 166.495 168.944 166.495 169.093C166.495 169.281 166.567 169.45 166.711 169.6C166.86 169.749 167.107 169.912 167.45 170.089C167.798 170.261 168.271 170.485 168.869 170.762C169.461 171.027 169.965 171.315 170.38 171.625C170.795 171.929 171.11 172.297 171.326 172.729C171.548 173.155 171.658 173.684 171.658 174.314ZM178.938 168.379C178.551 168.379 178.205 168.462 177.9 168.628C177.596 168.789 177.336 169.024 177.12 169.334C176.904 169.644 176.738 170.023 176.622 170.471C176.511 170.914 176.456 171.417 176.456 171.982C176.456 172.746 176.553 173.388 176.747 173.908C176.94 174.428 177.234 174.821 177.626 175.086C178.025 175.352 178.523 175.485 179.121 175.485C179.663 175.485 180.183 175.41 180.681 175.261C181.185 175.111 181.691 174.931 182.2 174.721V177.494C181.663 177.732 181.113 177.903 180.548 178.008C179.989 178.113 179.395 178.166 178.764 178.166C177.447 178.166 176.368 177.906 175.526 177.386C174.691 176.86 174.074 176.132 173.675 175.203C173.282 174.273 173.086 173.194 173.086 171.965C173.086 171.047 173.213 170.206 173.468 169.442C173.728 168.678 174.107 168.017 174.605 167.458C175.103 166.894 175.717 166.459 176.448 166.155C177.184 165.845 178.025 165.69 178.971 165.69C179.558 165.69 180.175 165.759 180.822 165.897C181.475 166.03 182.112 166.246 182.731 166.545L181.727 169.126C181.284 168.916 180.836 168.739 180.382 168.595C179.929 168.451 179.447 168.379 178.938 168.379ZM195.93 171.916C195.93 172.851 195.816 173.703 195.589 174.472C195.368 175.236 195.019 175.894 194.543 176.448C194.068 177.001 193.456 177.427 192.709 177.726C191.962 178.019 191.068 178.166 190.028 178.166C189.01 178.166 188.127 178.019 187.38 177.726C186.638 177.427 186.027 177.004 185.545 176.456C185.064 175.903 184.707 175.241 184.475 174.472C184.242 173.703 184.126 172.845 184.126 171.899C184.126 170.637 184.333 169.542 184.749 168.612C185.169 167.677 185.817 166.954 186.691 166.445C187.565 165.931 188.683 165.673 190.044 165.673C191.428 165.673 192.551 165.931 193.415 166.445C194.283 166.96 194.92 167.685 195.324 168.62C195.728 169.555 195.93 170.654 195.93 171.916ZM187.579 171.916C187.579 172.646 187.662 173.274 187.828 173.8C187.994 174.326 188.257 174.729 188.617 175.012C188.976 175.294 189.447 175.435 190.028 175.435C190.631 175.435 191.11 175.294 191.464 175.012C191.824 174.729 192.081 174.326 192.236 173.8C192.396 173.274 192.477 172.646 192.477 171.916C192.477 170.82 192.294 169.954 191.929 169.317C191.563 168.681 190.935 168.363 190.044 168.363C189.452 168.363 188.974 168.507 188.608 168.794C188.249 169.082 187.986 169.492 187.82 170.023C187.659 170.554 187.579 171.185 187.579 171.916ZM208.439 165.864V173.169C208.439 174.187 208.245 175.073 207.858 175.825C207.471 176.572 206.889 177.151 206.115 177.56C205.34 177.964 204.369 178.166 203.201 178.166C201.53 178.166 200.254 177.737 199.375 176.879C198.495 176.022 198.055 174.81 198.055 173.244V165.864H201.35V172.986C201.35 173.844 201.511 174.467 201.832 174.854C202.153 175.241 202.626 175.435 203.251 175.435C203.699 175.435 204.064 175.352 204.347 175.186C204.629 175.014 204.834 174.746 204.961 174.381C205.094 174.016 205.16 173.545 205.16 172.97V165.864H208.439ZM222.542 178H218.242L213.81 169.45H213.735C213.763 169.71 213.787 170.023 213.81 170.388C213.832 170.753 213.851 171.127 213.868 171.509C213.884 171.885 213.893 172.225 213.893 172.53V178H210.987V165.864H215.271L219.687 174.298H219.736C219.72 174.032 219.703 173.725 219.687 173.376C219.67 173.022 219.653 172.665 219.637 172.306C219.626 171.946 219.62 171.628 219.62 171.351V165.864H222.542V178ZM230.519 178H227.24V168.545H224.277V165.864H233.474V168.545H230.519V178ZM155.629 188.864V196.169C155.629 197.187 155.436 198.073 155.048 198.825C154.661 199.572 154.08 200.151 153.305 200.56C152.53 200.964 151.559 201.166 150.392 201.166C148.72 201.166 147.445 200.737 146.565 199.879C145.685 199.022 145.245 197.81 145.245 196.244V188.864H148.541V195.986C148.541 196.844 148.701 197.467 149.022 197.854C149.343 198.241 149.816 198.435 150.441 198.435C150.89 198.435 151.255 198.352 151.537 198.186C151.819 198.014 152.024 197.746 152.151 197.381C152.284 197.016 152.351 196.545 152.351 195.97V188.864H155.629ZM162.378 188.864C163.916 188.864 165.067 189.199 165.831 189.869C166.6 190.538 166.985 191.49 166.985 192.724C166.985 193.278 166.905 193.809 166.744 194.318C166.589 194.827 166.332 195.281 165.972 195.679C165.618 196.078 165.145 196.393 164.553 196.625C163.966 196.858 163.241 196.974 162.378 196.974H161.457V201H158.178V188.864H162.378ZM162.303 191.512H161.457V194.301H162.104C162.386 194.301 162.649 194.254 162.893 194.16C163.136 194.061 163.33 193.903 163.474 193.687C163.623 193.466 163.698 193.172 163.698 192.807C163.698 192.425 163.584 192.115 163.357 191.877C163.131 191.634 162.779 191.512 162.303 191.512ZM178.689 201H175.41V191.545H172.447V188.864H181.644V191.545H178.689V201ZM194.734 194.916C194.734 195.851 194.621 196.703 194.394 197.472C194.173 198.236 193.824 198.894 193.348 199.448C192.872 200.001 192.261 200.427 191.514 200.726C190.767 201.019 189.873 201.166 188.833 201.166C187.814 201.166 186.932 201.019 186.185 200.726C185.443 200.427 184.832 200.004 184.35 199.456C183.869 198.903 183.512 198.241 183.279 197.472C183.047 196.703 182.931 195.845 182.931 194.899C182.931 193.637 183.138 192.542 183.553 191.612C183.974 190.677 184.621 189.954 185.496 189.445C186.37 188.931 187.488 188.673 188.849 188.673C190.233 188.673 191.356 188.931 192.219 189.445C193.088 189.96 193.724 190.685 194.128 191.62C194.532 192.555 194.734 193.654 194.734 194.916ZM186.384 194.916C186.384 195.646 186.467 196.274 186.633 196.8C186.799 197.326 187.062 197.729 187.421 198.012C187.781 198.294 188.251 198.435 188.833 198.435C189.436 198.435 189.914 198.294 190.269 198.012C190.628 197.729 190.886 197.326 191.041 196.8C191.201 196.274 191.281 195.646 191.281 194.916C191.281 193.82 191.099 192.954 190.733 192.317C190.368 191.681 189.74 191.363 188.849 191.363C188.257 191.363 187.778 191.507 187.413 191.794C187.053 192.082 186.791 192.492 186.625 193.023C186.464 193.554 186.384 194.185 186.384 194.916Z" fill="white"/>
<path d="M344.806 155C346.429 155 347.732 155.567 348.714 156.7C349.705 157.833 350.201 159.423 350.201 161.472C350.201 163.52 349.738 165.12 348.813 166.272C347.888 167.424 346.552 168 344.806 168C343.22 168 341.941 167.424 340.968 166.272C340.005 165.12 339.524 163.52 339.524 161.472C339.524 159.423 339.977 157.833 340.883 156.7C341.799 155.567 343.106 155 344.806 155ZM344.862 158.456C344.456 158.456 344.173 158.734 344.013 159.291C343.862 159.839 343.786 160.584 343.786 161.528C343.786 162.453 343.862 163.199 344.013 163.766C344.173 164.323 344.456 164.601 344.862 164.601C345.268 164.601 345.547 164.327 345.698 163.78C345.849 163.223 345.924 162.472 345.924 161.528C345.924 160.584 345.849 159.839 345.698 159.291C345.547 158.734 345.268 158.456 344.862 158.456ZM360.523 155.298L349.04 176H344.834L356.318 155.298H360.523ZM360.552 163.242C362.175 163.242 363.478 163.808 364.46 164.941C365.451 166.074 365.947 167.664 365.947 169.713C365.947 171.752 365.484 173.347 364.559 174.499C363.634 175.651 362.298 176.227 360.552 176.227C358.966 176.227 357.687 175.651 356.714 174.499C355.751 173.347 355.27 171.752 355.27 169.713C355.27 167.664 355.723 166.074 356.629 164.941C357.545 163.808 358.853 163.242 360.552 163.242ZM360.608 166.697C360.202 166.697 359.919 166.975 359.759 167.532C359.608 168.08 359.532 168.826 359.532 169.77C359.532 170.695 359.608 171.44 359.759 172.007C359.919 172.564 360.202 172.842 360.608 172.842C361.014 172.842 361.293 172.569 361.444 172.021C361.604 171.464 361.685 170.714 361.685 169.77C361.685 168.788 361.604 168.033 361.444 167.504C361.293 166.966 361.014 166.697 360.608 166.697Z" fill="white"/>
<path d="M284.23 203.84H277.312V216H260.555V203.84H235.504V191.379L261.629 153.18H277.312V191.164H284.23V203.84ZM260.555 191.164V183.859C260.555 183.201 260.569 182.37 260.598 181.367C260.626 180.365 260.655 179.362 260.684 178.359C260.741 177.328 260.784 176.469 260.812 175.781C260.87 175.065 260.913 174.678 260.941 174.621H260.469C259.924 175.91 259.423 176.984 258.965 177.844C258.507 178.674 257.905 179.663 257.16 180.809L250.199 191.164H260.555ZM314.094 174.836C317.589 174.836 320.768 175.624 323.633 177.199C326.497 178.775 328.789 181.066 330.508 184.074C332.227 187.082 333.086 190.749 333.086 195.074C333.086 199.743 332.141 203.711 330.25 206.977C328.388 210.214 325.566 212.677 321.785 214.367C318.033 216.029 313.292 216.859 307.562 216.859C303.924 216.859 300.602 216.573 297.594 216C294.615 215.456 291.951 214.611 289.602 213.465V199.543C291.807 200.546 294.457 201.462 297.551 202.293C300.673 203.095 303.538 203.496 306.145 203.496C308.236 203.496 310.012 203.195 311.473 202.594C312.934 201.992 314.036 201.104 314.781 199.93C315.555 198.755 315.941 197.309 315.941 195.59C315.941 193.212 315.082 191.35 313.363 190.004C311.645 188.629 309.038 187.941 305.543 187.941C303.967 187.941 302.421 188.099 300.902 188.414C299.384 188.729 298.052 189.073 296.906 189.445L290.676 186.352L293.039 153.18H328.875V167.316H307.477L306.703 175.609C307.62 175.438 308.551 175.266 309.496 175.094C310.47 174.922 312.003 174.836 314.094 174.836Z" fill="#FFE15B"/>
<path d="M597.165 157.791C597.165 158.953 596.949 159.919 596.516 160.689C596.083 161.46 595.472 162.038 594.684 162.426C593.9 162.809 592.977 163 591.915 163H588.682V153.006H592.141C593.216 153.006 594.128 153.19 594.875 153.56C595.622 153.929 596.19 154.469 596.577 155.18C596.969 155.891 597.165 156.761 597.165 157.791ZM594.362 157.887C594.362 157.281 594.28 156.779 594.116 156.383C593.957 155.982 593.715 155.683 593.392 155.487C593.068 155.287 592.66 155.187 592.168 155.187H591.382V160.785H591.983C592.804 160.785 593.405 160.548 593.788 160.074C594.171 159.596 594.362 158.867 594.362 157.887ZM601.492 155.255V163H598.819V155.255H601.492ZM600.166 152.138C600.549 152.138 600.882 152.217 601.164 152.377C601.451 152.536 601.595 152.853 601.595 153.327C601.595 153.787 601.451 154.1 601.164 154.264C600.882 154.423 600.549 154.503 600.166 154.503C599.774 154.503 599.439 154.423 599.161 154.264C598.888 154.1 598.751 153.787 598.751 153.327C598.751 152.853 598.888 152.536 599.161 152.377C599.439 152.217 599.774 152.138 600.166 152.138ZM609.114 160.621C609.114 161.113 609.005 161.549 608.786 161.927C608.567 162.305 608.216 162.601 607.733 162.815C607.255 163.03 606.624 163.137 605.84 163.137C605.288 163.137 604.794 163.107 604.356 163.048C603.924 162.989 603.484 162.875 603.037 162.706V160.566C603.525 160.79 604.021 160.951 604.527 161.052C605.033 161.147 605.432 161.195 605.724 161.195C606.024 161.195 606.243 161.163 606.38 161.1C606.521 161.031 606.592 160.931 606.592 160.799C606.592 160.685 606.544 160.589 606.448 160.512C606.357 160.43 606.191 160.336 605.949 160.231C605.712 160.127 605.377 159.985 604.944 159.808C604.516 159.63 604.158 159.436 603.871 159.227C603.589 159.017 603.377 158.766 603.235 158.475C603.094 158.183 603.023 157.825 603.023 157.401C603.023 156.645 603.315 156.075 603.898 155.692C604.482 155.31 605.254 155.118 606.216 155.118C606.726 155.118 607.207 155.175 607.658 155.289C608.109 155.398 608.576 155.56 609.06 155.774L608.328 157.497C607.945 157.324 607.558 157.185 607.166 157.08C606.774 156.975 606.462 156.923 606.229 156.923C606.02 156.923 605.858 156.95 605.744 157.005C605.63 157.06 605.573 157.139 605.573 157.244C605.573 157.34 605.612 157.424 605.689 157.497C605.771 157.57 605.924 157.654 606.147 157.75C606.371 157.846 606.697 157.98 607.125 158.153C607.576 158.336 607.948 158.532 608.239 158.741C608.535 158.946 608.754 159.197 608.896 159.493C609.041 159.789 609.114 160.165 609.114 160.621ZM614.132 163.137C613.348 163.137 612.667 162.998 612.088 162.72C611.509 162.437 611.06 162.004 610.741 161.421C610.427 160.833 610.27 160.081 610.27 159.165C610.27 158.226 610.445 157.458 610.796 156.861C611.151 156.264 611.637 155.825 612.252 155.542C612.867 155.259 613.564 155.118 614.344 155.118C614.818 155.118 615.267 155.171 615.69 155.275C616.119 155.38 616.515 155.524 616.88 155.706L616.094 157.682C615.775 157.54 615.476 157.429 615.198 157.347C614.925 157.26 614.64 157.217 614.344 157.217C614.075 157.217 613.838 157.287 613.633 157.429C613.428 157.57 613.268 157.784 613.154 158.071C613.04 158.354 612.983 158.714 612.983 159.151C612.983 159.598 613.04 159.958 613.154 160.231C613.273 160.505 613.435 160.703 613.64 160.826C613.849 160.949 614.089 161.011 614.357 161.011C614.745 161.011 615.13 160.951 615.513 160.833C615.9 160.71 616.267 160.541 616.613 160.327V162.453C616.294 162.663 615.934 162.829 615.533 162.952C615.132 163.075 614.665 163.137 614.132 163.137ZM625.548 159.11C625.548 159.757 625.459 160.332 625.281 160.833C625.104 161.334 624.846 161.756 624.509 162.098C624.172 162.439 623.764 162.699 623.285 162.877C622.807 163.05 622.267 163.137 621.665 163.137C621.104 163.137 620.59 163.05 620.12 162.877C619.655 162.699 619.25 162.439 618.903 162.098C618.557 161.756 618.288 161.334 618.097 160.833C617.91 160.332 617.816 159.757 617.816 159.11C617.816 158.254 617.971 157.529 618.281 156.937C618.596 156.344 619.042 155.893 619.621 155.583C620.204 155.273 620.899 155.118 621.706 155.118C622.449 155.118 623.11 155.273 623.688 155.583C624.267 155.893 624.721 156.344 625.049 156.937C625.382 157.529 625.548 158.254 625.548 159.11ZM620.53 159.11C620.53 159.552 620.569 159.926 620.646 160.231C620.724 160.532 620.847 160.762 621.016 160.922C621.189 161.077 621.414 161.154 621.692 161.154C621.97 161.154 622.191 161.077 622.355 160.922C622.52 160.762 622.638 160.532 622.711 160.231C622.788 159.926 622.827 159.552 622.827 159.11C622.827 158.668 622.788 158.299 622.711 158.003C622.638 157.707 622.517 157.483 622.349 157.333C622.185 157.183 621.961 157.107 621.679 157.107C621.273 157.107 620.979 157.276 620.797 157.613C620.619 157.951 620.53 158.45 620.53 159.11ZM634.612 155.255V163H632.596L632.261 162.036H632.104C631.944 162.296 631.741 162.508 631.495 162.672C631.254 162.831 630.985 162.948 630.688 163.021C630.392 163.098 630.085 163.137 629.766 163.137C629.26 163.137 628.802 163.039 628.392 162.843C627.986 162.647 627.662 162.339 627.421 161.92C627.184 161.501 627.065 160.961 627.065 160.3V155.255H629.738V159.486C629.738 159.988 629.809 160.37 629.95 160.635C630.096 160.895 630.333 161.024 630.661 161.024C630.998 161.024 631.258 160.933 631.44 160.751C631.627 160.569 631.757 160.3 631.83 159.944C631.903 159.589 631.939 159.156 631.939 158.646V155.255H634.612ZM641.305 155.118C642.102 155.118 642.754 155.344 643.26 155.795C643.766 156.246 644.019 156.968 644.019 157.962V163H641.346V158.775C641.346 158.26 641.271 157.873 641.12 157.613C640.974 157.349 640.737 157.217 640.409 157.217C639.903 157.217 639.564 157.424 639.391 157.839C639.217 158.249 639.131 158.839 639.131 159.609V163H636.458V155.255H638.475L638.837 156.28H638.939C639.104 156.034 639.299 155.825 639.527 155.651C639.755 155.478 640.017 155.346 640.313 155.255C640.61 155.164 640.94 155.118 641.305 155.118ZM649.631 161.024C649.872 161.024 650.093 160.999 650.294 160.949C650.494 160.899 650.704 160.835 650.923 160.758V162.706C650.631 162.834 650.321 162.936 649.993 163.014C649.67 163.096 649.255 163.137 648.749 163.137C648.248 163.137 647.806 163.059 647.423 162.904C647.04 162.745 646.742 162.471 646.527 162.084C646.318 161.692 646.213 161.147 646.213 160.45V157.258H645.276V156.171L646.466 155.33L647.156 153.703H648.906V155.255H650.807V157.258H648.906V160.272C648.906 160.523 648.97 160.712 649.098 160.84C649.225 160.963 649.403 161.024 649.631 161.024ZM660.644 155.118C661.5 155.118 662.173 155.462 662.66 156.15C663.148 156.834 663.392 157.821 663.392 159.11C663.392 159.99 663.269 160.73 663.022 161.332C662.776 161.929 662.439 162.38 662.011 162.686C661.587 162.986 661.104 163.137 660.562 163.137C660.197 163.137 659.887 163.091 659.632 163C659.381 162.909 659.172 162.795 659.003 162.658C658.839 162.521 658.7 162.382 658.586 162.241H658.504C658.527 162.419 658.545 162.61 658.559 162.815C658.577 163.021 658.586 163.26 658.586 163.533V166.363H655.913V155.255H658.087L658.463 156.239H658.586C658.714 156.039 658.868 155.854 659.051 155.686C659.233 155.512 659.454 155.376 659.714 155.275C659.978 155.171 660.288 155.118 660.644 155.118ZM659.639 157.217C659.379 157.217 659.174 157.278 659.023 157.401C658.873 157.524 658.764 157.711 658.695 157.962C658.632 158.208 658.595 158.516 658.586 158.885V159.097C658.586 159.507 658.618 159.853 658.682 160.136C658.745 160.414 658.855 160.626 659.01 160.771C659.165 160.913 659.379 160.983 659.652 160.983C659.876 160.983 660.062 160.92 660.213 160.792C660.363 160.664 660.477 160.462 660.555 160.184C660.632 159.906 660.671 159.539 660.671 159.083C660.671 158.404 660.582 157.923 660.404 157.641C660.231 157.358 659.976 157.217 659.639 157.217ZM668.409 155.118C669.161 155.118 669.811 155.25 670.357 155.515C670.904 155.774 671.326 156.166 671.622 156.69C671.918 157.215 672.066 157.871 672.066 158.659V159.849H667.288C667.311 160.254 667.461 160.587 667.739 160.847C668.022 161.106 668.437 161.236 668.983 161.236C669.466 161.236 669.909 161.188 670.31 161.093C670.715 160.997 671.132 160.849 671.561 160.648V162.569C671.187 162.765 670.779 162.909 670.337 163C669.895 163.091 669.337 163.137 668.662 163.137C667.883 163.137 667.186 162.998 666.57 162.72C665.955 162.442 665.47 162.011 665.114 161.428C664.763 160.844 664.588 160.095 664.588 159.179C664.588 158.249 664.747 157.486 665.066 156.889C665.385 156.287 665.832 155.843 666.406 155.556C666.98 155.264 667.648 155.118 668.409 155.118ZM668.505 156.937C668.19 156.937 667.926 157.037 667.712 157.237C667.502 157.433 667.379 157.743 667.343 158.167H669.64C669.635 157.939 669.59 157.732 669.503 157.545C669.416 157.358 669.289 157.21 669.12 157.101C668.956 156.991 668.751 156.937 668.505 156.937ZM678.253 155.118C678.399 155.118 678.551 155.13 678.711 155.152C678.87 155.171 678.989 155.187 679.066 155.2L678.827 157.723C678.741 157.7 678.629 157.682 678.492 157.668C678.355 157.65 678.164 157.641 677.918 157.641C677.749 157.641 677.569 157.657 677.378 157.688C677.187 157.72 677.004 157.789 676.831 157.894C676.662 157.994 676.523 158.149 676.414 158.358C676.305 158.563 676.25 158.841 676.25 159.192V163H673.577V155.255H675.566L675.983 156.492H676.113C676.255 156.237 676.435 156.007 676.653 155.802C676.877 155.592 677.125 155.426 677.398 155.303C677.676 155.18 677.961 155.118 678.253 155.118ZM682.84 155.255V163H680.167V155.255H682.84ZM681.514 152.138C681.896 152.138 682.229 152.217 682.512 152.377C682.799 152.536 682.942 152.853 682.942 153.327C682.942 153.787 682.799 154.1 682.512 154.264C682.229 154.423 681.896 154.503 681.514 154.503C681.122 154.503 680.787 154.423 680.509 154.264C680.235 154.1 680.099 153.787 680.099 153.327C680.099 152.853 680.235 152.536 680.509 152.377C680.787 152.217 681.122 152.138 681.514 152.138ZM692.103 159.11C692.103 159.757 692.014 160.332 691.836 160.833C691.658 161.334 691.401 161.756 691.063 162.098C690.726 162.439 690.318 162.699 689.84 162.877C689.361 163.05 688.821 163.137 688.22 163.137C687.659 163.137 687.144 163.05 686.675 162.877C686.21 162.699 685.804 162.439 685.458 162.098C685.112 161.756 684.843 161.334 684.651 160.833C684.465 160.332 684.371 159.757 684.371 159.11C684.371 158.254 684.526 157.529 684.836 156.937C685.15 156.344 685.597 155.893 686.176 155.583C686.759 155.273 687.454 155.118 688.261 155.118C689.004 155.118 689.664 155.273 690.243 155.583C690.822 155.893 691.275 156.344 691.604 156.937C691.936 157.529 692.103 158.254 692.103 159.11ZM687.085 159.11C687.085 159.552 687.124 159.926 687.201 160.231C687.279 160.532 687.402 160.762 687.57 160.922C687.743 161.077 687.969 161.154 688.247 161.154C688.525 161.154 688.746 161.077 688.91 160.922C689.074 160.762 689.193 160.532 689.266 160.231C689.343 159.926 689.382 159.552 689.382 159.11C689.382 158.668 689.343 158.299 689.266 158.003C689.193 157.707 689.072 157.483 688.903 157.333C688.739 157.183 688.516 157.107 688.233 157.107C687.828 157.107 687.534 157.276 687.352 157.613C687.174 157.951 687.085 158.45 687.085 159.11ZM696.04 163.137C695.243 163.137 694.586 162.797 694.071 162.118C693.556 161.439 693.299 160.446 693.299 159.138C693.299 157.816 693.563 156.816 694.092 156.137C694.62 155.458 695.304 155.118 696.143 155.118C696.489 155.118 696.787 155.168 697.038 155.269C697.289 155.369 697.505 155.506 697.688 155.679C697.874 155.847 698.036 156.039 698.173 156.253H698.228C698.196 156.057 698.166 155.788 698.139 155.446C698.111 155.1 698.098 154.763 698.098 154.435V152.363H700.791V163H698.774L698.2 162.022H698.098C697.975 162.228 697.82 162.414 697.633 162.583C697.451 162.752 697.227 162.886 696.963 162.986C696.703 163.087 696.396 163.137 696.04 163.137ZM697.134 161.024C697.562 161.024 697.863 160.89 698.036 160.621C698.214 160.348 698.31 159.933 698.323 159.377V159.165C698.323 158.554 698.237 158.087 698.063 157.764C697.895 157.436 697.576 157.271 697.106 157.271C696.787 157.271 696.523 157.426 696.313 157.736C696.104 158.046 695.999 158.527 695.999 159.179C695.999 159.821 696.104 160.291 696.313 160.587C696.528 160.879 696.801 161.024 697.134 161.024ZM706.13 155.118C706.882 155.118 707.531 155.25 708.078 155.515C708.625 155.774 709.047 156.166 709.343 156.69C709.639 157.215 709.787 157.871 709.787 158.659V159.849H705.009C705.032 160.254 705.182 160.587 705.46 160.847C705.743 161.106 706.157 161.236 706.704 161.236C707.187 161.236 707.629 161.188 708.03 161.093C708.436 160.997 708.853 160.849 709.281 160.648V162.569C708.908 162.765 708.5 162.909 708.058 163C707.616 163.091 707.057 163.137 706.383 163.137C705.604 163.137 704.906 162.998 704.291 162.72C703.676 162.442 703.19 162.011 702.835 161.428C702.484 160.844 702.309 160.095 702.309 159.179C702.309 158.249 702.468 157.486 702.787 156.889C703.106 156.287 703.553 155.843 704.127 155.556C704.701 155.264 705.369 155.118 706.13 155.118ZM706.226 156.937C705.911 156.937 705.647 157.037 705.433 157.237C705.223 157.433 705.1 157.743 705.063 158.167H707.36C707.356 157.939 707.31 157.732 707.224 157.545C707.137 157.358 707.009 157.21 706.841 157.101C706.677 156.991 706.472 156.937 706.226 156.937ZM717.341 163.137C716.543 163.137 715.887 162.797 715.372 162.118C714.857 161.439 714.6 160.446 714.6 159.138C714.6 157.816 714.864 156.816 715.393 156.137C715.921 155.458 716.605 155.118 717.443 155.118C717.79 155.118 718.088 155.168 718.339 155.269C718.59 155.369 718.806 155.506 718.988 155.679C719.175 155.847 719.337 156.039 719.474 156.253H719.528C719.496 156.057 719.467 155.788 719.439 155.446C719.412 155.1 719.398 154.763 719.398 154.435V152.363H722.092V163H720.075L719.501 162.022H719.398C719.275 162.228 719.12 162.414 718.934 162.583C718.751 162.752 718.528 162.886 718.264 162.986C718.004 163.087 717.696 163.137 717.341 163.137ZM718.435 161.024C718.863 161.024 719.164 160.89 719.337 160.621C719.515 160.348 719.61 159.933 719.624 159.377V159.165C719.624 158.554 719.537 158.087 719.364 157.764C719.196 157.436 718.877 157.271 718.407 157.271C718.088 157.271 717.824 157.426 717.614 157.736C717.405 158.046 717.3 158.527 717.3 159.179C717.3 159.821 717.405 160.291 717.614 160.587C717.828 160.879 718.102 161.024 718.435 161.024ZM731.478 155.255V163H729.461L729.126 162.036H728.969C728.809 162.296 728.606 162.508 728.36 162.672C728.119 162.831 727.85 162.948 727.554 163.021C727.257 163.098 726.95 163.137 726.631 163.137C726.125 163.137 725.667 163.039 725.257 162.843C724.851 162.647 724.528 162.339 724.286 161.92C724.049 161.501 723.931 160.961 723.931 160.3V155.255H726.604V159.486C726.604 159.988 726.674 160.37 726.815 160.635C726.961 160.895 727.198 161.024 727.526 161.024C727.864 161.024 728.123 160.933 728.306 160.751C728.493 160.569 728.622 160.3 728.695 159.944C728.768 159.589 728.805 159.156 728.805 158.646V155.255H731.478ZM737.999 155.118C738.145 155.118 738.298 155.13 738.457 155.152C738.617 155.171 738.735 155.187 738.812 155.2L738.573 157.723C738.487 157.7 738.375 157.682 738.238 157.668C738.102 157.65 737.91 157.641 737.664 157.641C737.495 157.641 737.315 157.657 737.124 157.688C736.933 157.72 736.75 157.789 736.577 157.894C736.409 157.994 736.27 158.149 736.16 158.358C736.051 158.563 735.996 158.841 735.996 159.192V163H733.323V155.255H735.312L735.729 156.492H735.859C736.001 156.237 736.181 156.007 736.399 155.802C736.623 155.592 736.871 155.426 737.145 155.303C737.423 155.18 737.707 155.118 737.999 155.118ZM742.586 155.255V163H739.913V155.255H742.586ZM741.26 152.138C741.643 152.138 741.975 152.217 742.258 152.377C742.545 152.536 742.688 152.853 742.688 153.327C742.688 153.787 742.545 154.1 742.258 154.264C741.975 154.423 741.643 154.503 741.26 154.503C740.868 154.503 740.533 154.423 740.255 154.264C739.981 154.1 739.845 153.787 739.845 153.327C739.845 152.853 739.981 152.536 740.255 152.377C740.533 152.217 740.868 152.138 741.26 152.138ZM749.299 155.118C750.096 155.118 750.748 155.344 751.254 155.795C751.76 156.246 752.013 156.968 752.013 157.962V163H749.34V158.775C749.34 158.26 749.265 157.873 749.114 157.613C748.968 157.349 748.731 157.217 748.403 157.217C747.897 157.217 747.558 157.424 747.385 157.839C747.212 158.249 747.125 158.839 747.125 159.609V163H744.452V155.255H746.469L746.831 156.28H746.934C747.098 156.034 747.294 155.825 747.521 155.651C747.749 155.478 748.011 155.346 748.308 155.255C748.604 155.164 748.934 155.118 749.299 155.118ZM756.477 166.363C755.378 166.363 754.531 166.179 753.934 165.81C753.341 165.445 753.045 164.919 753.045 164.23C753.045 163.77 753.188 163.39 753.476 163.089C753.763 162.788 754.193 162.572 754.768 162.439C754.531 162.339 754.323 162.177 754.146 161.954C753.972 161.731 753.886 161.51 753.886 161.291C753.886 161.049 753.952 160.838 754.084 160.655C754.216 160.468 754.492 160.247 754.911 159.992C754.51 159.814 754.193 159.536 753.961 159.158C753.733 158.78 753.619 158.32 753.619 157.777C753.619 157.217 753.747 156.738 754.002 156.342C754.262 155.945 754.638 155.642 755.13 155.433C755.627 155.223 756.23 155.118 756.941 155.118C757.037 155.118 757.183 155.127 757.379 155.146C757.575 155.159 757.773 155.177 757.974 155.2C758.174 155.218 758.329 155.237 758.438 155.255H761.139V156.547L760.079 156.937C760.152 157.069 760.207 157.212 760.243 157.367C760.28 157.522 760.298 157.686 760.298 157.859C760.298 158.693 760.004 159.34 759.416 159.801C758.833 160.261 757.96 160.491 756.798 160.491C756.511 160.491 756.283 160.473 756.114 160.437C756.082 160.496 756.057 160.555 756.039 160.614C756.025 160.669 756.019 160.721 756.019 160.771C756.019 160.876 756.08 160.961 756.203 161.024C756.331 161.084 756.483 161.125 756.661 161.147C756.843 161.17 757.017 161.182 757.181 161.182H758.466C759.336 161.182 759.988 161.364 760.421 161.729C760.854 162.093 761.07 162.642 761.07 163.376C761.07 164.319 760.667 165.053 759.86 165.577C759.058 166.101 757.93 166.363 756.477 166.363ZM756.606 164.695C756.93 164.695 757.256 164.666 757.584 164.606C757.912 164.552 758.188 164.461 758.411 164.333C758.634 164.205 758.746 164.037 758.746 163.827C758.746 163.668 758.68 163.547 758.548 163.465C758.416 163.387 758.245 163.335 758.035 163.308C757.826 163.28 757.604 163.267 757.372 163.267H756.333C756.142 163.267 755.966 163.296 755.807 163.355C755.652 163.419 755.529 163.504 755.438 163.608C755.346 163.713 755.301 163.832 755.301 163.964C755.301 164.183 755.419 164.358 755.656 164.49C755.893 164.627 756.21 164.695 756.606 164.695ZM756.969 158.98C757.224 158.98 757.42 158.882 757.557 158.687C757.698 158.491 757.769 158.197 757.769 157.805C757.769 157.404 757.702 157.103 757.57 156.902C757.438 156.702 757.238 156.602 756.969 156.602C756.691 156.602 756.483 156.702 756.347 156.902C756.21 157.098 756.142 157.395 756.142 157.791C756.142 158.188 756.21 158.486 756.347 158.687C756.483 158.882 756.691 158.98 756.969 158.98ZM626.956 178.965C626.956 179.507 626.819 180.022 626.546 180.51C626.272 180.993 625.846 181.385 625.268 181.686C624.693 181.986 623.951 182.137 623.039 182.137C622.583 182.137 622.182 182.116 621.836 182.075C621.494 182.034 621.175 181.968 620.879 181.877C620.583 181.781 620.275 181.658 619.956 181.508V179.102C620.498 179.375 621.045 179.585 621.597 179.73C622.148 179.872 622.647 179.942 623.094 179.942C623.363 179.942 623.581 179.91 623.75 179.847C623.923 179.783 624.051 179.696 624.133 179.587C624.215 179.473 624.256 179.343 624.256 179.197C624.256 179.024 624.194 178.878 624.071 178.76C623.953 178.637 623.761 178.509 623.497 178.377C623.233 178.245 622.884 178.081 622.451 177.885C622.082 177.712 621.747 177.534 621.446 177.352C621.15 177.169 620.895 176.962 620.681 176.729C620.471 176.493 620.309 176.217 620.195 175.902C620.081 175.588 620.024 175.216 620.024 174.788C620.024 174.146 620.182 173.608 620.496 173.175C620.815 172.737 621.257 172.409 621.822 172.19C622.392 171.972 623.048 171.862 623.791 171.862C624.443 171.862 625.028 171.935 625.548 172.081C626.072 172.227 626.541 172.393 626.956 172.58L626.129 174.665C625.701 174.469 625.279 174.314 624.864 174.2C624.45 174.082 624.064 174.022 623.709 174.022C623.477 174.022 623.285 174.052 623.135 174.111C622.989 174.166 622.88 174.241 622.807 174.337C622.738 174.433 622.704 174.542 622.704 174.665C622.704 174.82 622.763 174.959 622.882 175.082C623.005 175.205 623.208 175.34 623.49 175.485C623.777 175.627 624.167 175.811 624.659 176.039C625.147 176.258 625.562 176.495 625.903 176.75C626.245 177.001 626.505 177.304 626.683 177.659C626.865 178.01 626.956 178.445 626.956 178.965ZM631.83 174.118C632.582 174.118 633.231 174.25 633.778 174.515C634.325 174.774 634.747 175.166 635.043 175.69C635.339 176.215 635.487 176.871 635.487 177.659V178.849H630.709C630.732 179.254 630.882 179.587 631.16 179.847C631.443 180.106 631.857 180.236 632.404 180.236C632.887 180.236 633.329 180.188 633.73 180.093C634.136 179.997 634.553 179.849 634.981 179.648V181.569C634.608 181.765 634.2 181.909 633.758 182C633.316 182.091 632.757 182.137 632.083 182.137C631.304 182.137 630.606 181.998 629.991 181.72C629.376 181.442 628.891 181.011 628.535 180.428C628.184 179.844 628.009 179.095 628.009 178.179C628.009 177.249 628.168 176.486 628.487 175.889C628.806 175.287 629.253 174.843 629.827 174.556C630.401 174.264 631.069 174.118 631.83 174.118ZM631.926 175.937C631.611 175.937 631.347 176.037 631.133 176.237C630.923 176.433 630.8 176.743 630.764 177.167H633.061C633.056 176.939 633.01 176.732 632.924 176.545C632.837 176.358 632.71 176.21 632.541 176.101C632.377 175.991 632.172 175.937 631.926 175.937ZM641.729 174.118C642.585 174.118 643.257 174.462 643.745 175.15C644.233 175.834 644.477 176.821 644.477 178.11C644.477 178.99 644.354 179.73 644.107 180.332C643.861 180.929 643.524 181.38 643.096 181.686C642.672 181.986 642.189 182.137 641.646 182.137C641.282 182.137 640.972 182.091 640.717 182C640.466 181.909 640.257 181.795 640.088 181.658C639.924 181.521 639.785 181.382 639.671 181.241H639.589C639.612 181.419 639.63 181.61 639.644 181.815C639.662 182.021 639.671 182.26 639.671 182.533V185.363H636.998V174.255H639.172L639.548 175.239H639.671C639.799 175.039 639.953 174.854 640.136 174.686C640.318 174.512 640.539 174.376 640.799 174.275C641.063 174.171 641.373 174.118 641.729 174.118ZM640.724 176.217C640.464 176.217 640.259 176.278 640.108 176.401C639.958 176.524 639.849 176.711 639.78 176.962C639.716 177.208 639.68 177.516 639.671 177.885V178.097C639.671 178.507 639.703 178.853 639.767 179.136C639.83 179.414 639.94 179.626 640.095 179.771C640.25 179.913 640.464 179.983 640.737 179.983C640.961 179.983 641.147 179.92 641.298 179.792C641.448 179.664 641.562 179.462 641.64 179.184C641.717 178.906 641.756 178.539 641.756 178.083C641.756 177.404 641.667 176.923 641.489 176.641C641.316 176.358 641.061 176.217 640.724 176.217ZM649.802 180.024C650.043 180.024 650.264 179.999 650.465 179.949C650.665 179.899 650.875 179.835 651.094 179.758V181.706C650.802 181.834 650.492 181.936 650.164 182.014C649.84 182.096 649.426 182.137 648.92 182.137C648.419 182.137 647.977 182.059 647.594 181.904C647.211 181.745 646.912 181.471 646.698 181.084C646.489 180.692 646.384 180.147 646.384 179.45V176.258H645.447V175.171L646.637 174.33L647.327 172.703H649.077V174.255H650.978V176.258H649.077V179.272C649.077 179.523 649.141 179.712 649.269 179.84C649.396 179.963 649.574 180.024 649.802 180.024ZM655.934 174.118C656.686 174.118 657.335 174.25 657.882 174.515C658.429 174.774 658.85 175.166 659.146 175.69C659.443 176.215 659.591 176.871 659.591 177.659V178.849H654.812C654.835 179.254 654.986 179.587 655.264 179.847C655.546 180.106 655.961 180.236 656.508 180.236C656.991 180.236 657.433 180.188 657.834 180.093C658.24 179.997 658.657 179.849 659.085 179.648V181.569C658.711 181.765 658.303 181.909 657.861 182C657.419 182.091 656.861 182.137 656.187 182.137C655.407 182.137 654.71 181.998 654.095 181.72C653.479 181.442 652.994 181.011 652.639 180.428C652.288 179.844 652.112 179.095 652.112 178.179C652.112 177.249 652.272 176.486 652.591 175.889C652.91 175.287 653.356 174.843 653.931 174.556C654.505 174.264 655.173 174.118 655.934 174.118ZM656.029 175.937C655.715 175.937 655.451 176.037 655.236 176.237C655.027 176.433 654.904 176.743 654.867 177.167H657.164C657.16 176.939 657.114 176.732 657.027 176.545C656.941 176.358 656.813 176.21 656.645 176.101C656.48 175.991 656.275 175.937 656.029 175.937ZM670.556 174.118C671.44 174.118 672.114 174.344 672.579 174.795C673.049 175.246 673.283 175.968 673.283 176.962V182H670.61V177.789C670.61 177.201 670.531 176.793 670.371 176.565C670.216 176.333 669.984 176.217 669.674 176.217C669.241 176.217 668.94 176.406 668.771 176.784C668.607 177.162 668.525 177.698 668.525 178.391V182H665.846V177.789C665.846 177.415 665.812 177.115 665.743 176.887C665.679 176.654 665.581 176.486 665.449 176.381C665.317 176.271 665.151 176.217 664.95 176.217C664.645 176.217 664.406 176.31 664.232 176.497C664.064 176.679 663.945 176.948 663.877 177.304C663.809 177.659 663.774 178.094 663.774 178.609V182H661.102V174.255H663.118L663.508 175.212H663.583C663.72 175.002 663.895 174.815 664.109 174.651C664.328 174.487 664.586 174.357 664.882 174.262C665.183 174.166 665.524 174.118 665.907 174.118C666.477 174.118 666.946 174.214 667.315 174.405C667.685 174.597 667.985 174.861 668.218 175.198H668.3C668.546 174.852 668.863 174.585 669.25 174.398C669.637 174.212 670.073 174.118 670.556 174.118ZM677.774 171.363V173.77C677.774 174.043 677.765 174.305 677.747 174.556C677.729 174.802 677.706 175.034 677.679 175.253H677.774C677.975 174.938 678.237 174.672 678.561 174.453C678.884 174.23 679.308 174.118 679.832 174.118C680.639 174.118 681.297 174.46 681.808 175.144C682.323 175.827 682.58 176.816 682.58 178.11C682.58 178.99 682.462 179.73 682.225 180.332C681.988 180.929 681.655 181.38 681.227 181.686C680.803 181.986 680.311 182.137 679.75 182.137C679.203 182.137 678.786 182.043 678.499 181.856C678.216 181.665 677.975 181.46 677.774 181.241H677.61L677.187 182H675.102V171.363H677.774ZM678.854 176.217C678.608 176.217 678.406 176.274 678.246 176.388C678.087 176.502 677.968 176.679 677.891 176.921C677.813 177.158 677.774 177.461 677.774 177.83V178.206C677.774 178.808 677.854 179.254 678.014 179.546C678.178 179.838 678.467 179.983 678.882 179.983C679.196 179.983 679.438 179.822 679.606 179.498C679.775 179.174 679.859 178.703 679.859 178.083C679.859 177.463 679.777 176.998 679.613 176.688C679.449 176.374 679.196 176.217 678.854 176.217ZM687.598 174.118C688.35 174.118 688.999 174.25 689.546 174.515C690.093 174.774 690.514 175.166 690.811 175.69C691.107 176.215 691.255 176.871 691.255 177.659V178.849H686.477C686.499 179.254 686.65 179.587 686.928 179.847C687.21 180.106 687.625 180.236 688.172 180.236C688.655 180.236 689.097 180.188 689.498 180.093C689.904 179.997 690.321 179.849 690.749 179.648V181.569C690.375 181.765 689.967 181.909 689.525 182C689.083 182.091 688.525 182.137 687.851 182.137C687.071 182.137 686.374 181.998 685.759 181.72C685.144 181.442 684.658 181.011 684.303 180.428C683.952 179.844 683.776 179.095 683.776 178.179C683.776 177.249 683.936 176.486 684.255 175.889C684.574 175.287 685.021 174.843 685.595 174.556C686.169 174.264 686.837 174.118 687.598 174.118ZM687.693 175.937C687.379 175.937 687.115 176.037 686.9 176.237C686.691 176.433 686.568 176.743 686.531 177.167H688.828C688.824 176.939 688.778 176.732 688.691 176.545C688.605 176.358 688.477 176.21 688.309 176.101C688.145 175.991 687.939 175.937 687.693 175.937ZM697.441 174.118C697.587 174.118 697.74 174.13 697.899 174.152C698.059 174.171 698.177 174.187 698.255 174.2L698.016 176.723C697.929 176.7 697.817 176.682 697.681 176.668C697.544 176.65 697.353 176.641 697.106 176.641C696.938 176.641 696.758 176.657 696.566 176.688C696.375 176.72 696.193 176.789 696.02 176.894C695.851 176.994 695.712 177.149 695.603 177.358C695.493 177.563 695.438 177.841 695.438 178.192V182H692.766V174.255H694.755L695.172 175.492H695.302C695.443 175.237 695.623 175.007 695.842 174.802C696.065 174.592 696.313 174.426 696.587 174.303C696.865 174.18 697.15 174.118 697.441 174.118ZM702.295 176.005L702.192 175.854C702.279 175.517 702.386 175.116 702.514 174.651C702.646 174.182 702.787 173.713 702.938 173.243C703.092 172.769 703.247 172.361 703.402 172.02H705.303C705.216 172.443 705.127 172.892 705.036 173.366C704.95 173.84 704.87 174.305 704.797 174.761C704.729 175.216 704.674 175.631 704.633 176.005H702.295ZM713.226 182H705.973V180.223L708.413 177.755C708.919 177.226 709.311 176.802 709.589 176.483C709.871 176.164 710.07 175.893 710.184 175.67C710.298 175.447 710.354 175.214 710.354 174.973C710.354 174.676 710.259 174.462 710.067 174.33C709.876 174.198 709.65 174.132 709.391 174.132C709.076 174.132 708.757 174.223 708.434 174.405C708.115 174.583 707.752 174.847 707.347 175.198L705.863 173.462C706.164 173.193 706.483 172.938 706.82 172.696C707.158 172.45 707.556 172.25 708.017 172.095C708.477 171.94 709.037 171.862 709.698 171.862C710.377 171.862 710.965 171.981 711.462 172.218C711.963 172.455 712.351 172.781 712.624 173.195C712.897 173.605 713.034 174.073 713.034 174.597C713.034 175.175 712.927 175.693 712.713 176.148C712.503 176.6 712.187 177.053 711.763 177.509C711.339 177.96 710.81 178.473 710.177 179.047L709.445 179.703V179.771H713.226V182ZM721.429 182H714.176V180.223L716.616 177.755C717.122 177.226 717.514 176.802 717.792 176.483C718.075 176.164 718.273 175.893 718.387 175.67C718.501 175.447 718.558 175.214 718.558 174.973C718.558 174.676 718.462 174.462 718.271 174.33C718.079 174.198 717.854 174.132 717.594 174.132C717.279 174.132 716.96 174.223 716.637 174.405C716.318 174.583 715.955 174.847 715.55 175.198L714.066 173.462C714.367 173.193 714.686 172.938 715.023 172.696C715.361 172.45 715.759 172.25 716.22 172.095C716.68 171.94 717.241 171.862 717.901 171.862C718.58 171.862 719.168 171.981 719.665 172.218C720.166 172.455 720.554 172.781 720.827 173.195C721.101 173.605 721.237 174.073 721.237 174.597C721.237 175.175 721.13 175.693 720.916 176.148C720.706 176.6 720.39 177.053 719.966 177.509C719.542 177.96 719.013 178.473 718.38 179.047L717.648 179.703V179.771H721.429V182ZM728.764 178.473H726.508L726.159 172.006H729.112L728.764 178.473ZM726.187 180.865C726.187 180.382 726.328 180.043 726.61 179.847C726.897 179.651 727.237 179.553 727.629 179.553C728.016 179.553 728.349 179.651 728.627 179.847C728.905 180.043 729.044 180.382 729.044 180.865C729.044 181.326 728.905 181.658 728.627 181.863C728.349 182.068 728.016 182.171 727.629 182.171C727.237 182.171 726.897 182.068 726.61 181.863C726.328 181.658 726.187 181.326 726.187 180.865Z" fill="white"/>
<rect x="585.5" y="102.5" width="179" height="33" rx="7.5" fill="white" stroke="#FFD424" stroke-width="3" stroke-linejoin="round"/>
<path d="M587.5 110C587.5 105.858 590.858 102.5 595 102.5H675.797C681.299 102.5 684.928 108.227 682.579 113.203L674.079 131.203C672.84 133.826 670.199 135.5 667.297 135.5H595C590.858 135.5 587.5 132.142 587.5 128V110Z" fill="#FFD424" stroke="#FFD424" stroke-width="3"/>
<path d="M610.027 107.434C610.805 107.434 611.451 107.529 611.967 107.721C612.482 107.908 612.869 108.189 613.127 108.564C613.389 108.939 613.52 109.406 613.52 109.965C613.52 110.312 613.461 110.629 613.344 110.914C613.227 111.199 613.059 111.455 612.84 111.682C612.625 111.904 612.367 112.1 612.066 112.268L614.562 116H611.938L610.121 112.883H609.535V116H607.221V107.434H610.027ZM609.992 109.186H609.535V111.143H609.969C610.324 111.143 610.615 111.064 610.842 110.908C611.068 110.752 611.182 110.473 611.182 110.07C611.182 109.793 611.088 109.576 610.9 109.42C610.713 109.264 610.41 109.186 609.992 109.186ZM620.428 116H615.342V107.434H620.428V109.291H617.656V110.639H620.223V112.496H617.656V114.113H620.428V116ZM629.199 111.535C629.199 112.531 629.014 113.359 628.643 114.02C628.271 114.68 627.748 115.176 627.072 115.508C626.4 115.836 625.609 116 624.699 116H621.928V107.434H624.893C625.814 107.434 626.596 107.592 627.236 107.908C627.877 108.225 628.363 108.688 628.695 109.297C629.031 109.906 629.199 110.652 629.199 111.535ZM626.797 111.617C626.797 111.098 626.727 110.668 626.586 110.328C626.449 109.984 626.242 109.729 625.965 109.561C625.688 109.389 625.338 109.303 624.916 109.303H624.242V114.102H624.758C625.461 114.102 625.977 113.898 626.305 113.492C626.633 113.082 626.797 112.457 626.797 111.617ZM635.826 116H630.74V107.434H635.826V109.291H633.055V110.639H635.621V112.496H633.055V114.113H635.826V116ZM642.412 116H637.326V107.434H642.412V109.291H639.641V110.639H642.207V112.496H639.641V114.113H642.412V116ZM647.645 116L645.893 109.83H645.84C645.855 109.99 645.871 110.207 645.887 110.48C645.906 110.754 645.924 111.049 645.939 111.365C645.955 111.682 645.963 111.986 645.963 112.279V116H643.912V107.434H646.994L648.781 113.516H648.828L650.58 107.434H653.668V116H651.541V112.244C651.541 111.975 651.545 111.686 651.553 111.377C651.564 111.064 651.576 110.771 651.588 110.498C651.604 110.221 651.617 110.002 651.629 109.842H651.576L649.848 116H647.645ZM620.363 125.209C620.09 125.209 619.846 125.268 619.631 125.385C619.416 125.498 619.232 125.664 619.08 125.883C618.928 126.102 618.811 126.369 618.729 126.686C618.65 126.998 618.611 127.354 618.611 127.752C618.611 128.291 618.68 128.744 618.816 129.111C618.953 129.479 619.16 129.756 619.438 129.943C619.719 130.131 620.07 130.225 620.492 130.225C620.875 130.225 621.242 130.172 621.594 130.066C621.949 129.961 622.307 129.834 622.666 129.686V131.643C622.287 131.811 621.898 131.932 621.5 132.006C621.105 132.08 620.686 132.117 620.24 132.117C619.311 132.117 618.549 131.934 617.955 131.566C617.365 131.195 616.93 130.682 616.648 130.025C616.371 129.369 616.232 128.607 616.232 127.74C616.232 127.092 616.322 126.498 616.502 125.959C616.686 125.42 616.953 124.953 617.305 124.559C617.656 124.16 618.09 123.854 618.605 123.639C619.125 123.42 619.719 123.311 620.387 123.311C620.801 123.311 621.236 123.359 621.693 123.457C622.154 123.551 622.604 123.703 623.041 123.914L622.332 125.736C622.02 125.588 621.703 125.463 621.383 125.361C621.062 125.26 620.723 125.209 620.363 125.209ZM632.357 127.705C632.357 128.365 632.277 128.967 632.117 129.51C631.961 130.049 631.715 130.514 631.379 130.904C631.043 131.295 630.611 131.596 630.084 131.807C629.557 132.014 628.926 132.117 628.191 132.117C627.473 132.117 626.85 132.014 626.322 131.807C625.799 131.596 625.367 131.297 625.027 130.91C624.688 130.52 624.436 130.053 624.271 129.51C624.107 128.967 624.025 128.361 624.025 127.693C624.025 126.803 624.172 126.029 624.465 125.373C624.762 124.713 625.219 124.203 625.836 123.844C626.453 123.48 627.242 123.299 628.203 123.299C629.18 123.299 629.973 123.48 630.582 123.844C631.195 124.207 631.645 124.719 631.93 125.379C632.215 126.039 632.357 126.814 632.357 127.705ZM626.463 127.705C626.463 128.221 626.521 128.664 626.639 129.035C626.756 129.406 626.941 129.691 627.195 129.891C627.449 130.09 627.781 130.189 628.191 130.189C628.617 130.189 628.955 130.09 629.205 129.891C629.459 129.691 629.641 129.406 629.75 129.035C629.863 128.664 629.92 128.221 629.92 127.705C629.92 126.932 629.791 126.32 629.533 125.871C629.275 125.422 628.832 125.197 628.203 125.197C627.785 125.197 627.447 125.299 627.189 125.502C626.936 125.705 626.75 125.994 626.633 126.369C626.52 126.744 626.463 127.189 626.463 127.705ZM641.176 127.535C641.176 128.531 640.99 129.359 640.619 130.02C640.248 130.68 639.725 131.176 639.049 131.508C638.377 131.836 637.586 132 636.676 132H633.904V123.434H636.869C637.791 123.434 638.572 123.592 639.213 123.908C639.854 124.225 640.34 124.688 640.672 125.297C641.008 125.906 641.176 126.652 641.176 127.535ZM638.773 127.617C638.773 127.098 638.703 126.668 638.562 126.328C638.426 125.984 638.219 125.729 637.941 125.561C637.664 125.389 637.314 125.303 636.893 125.303H636.219V130.102H636.734C637.438 130.102 637.953 129.898 638.281 129.492C638.609 129.082 638.773 128.457 638.773 127.617ZM647.803 132H642.717V123.434H647.803V125.291H645.031V126.639H647.598V128.496H645.031V130.113H647.803V132Z" fill="#807B8D"/>
<path d="M696.247 122.314C696.247 122.973 696.081 123.598 695.749 124.19C695.417 124.777 694.9 125.253 694.197 125.618C693.5 125.983 692.597 126.166 691.491 126.166C690.937 126.166 690.45 126.141 690.03 126.091C689.615 126.042 689.227 125.961 688.868 125.851C688.508 125.734 688.134 125.585 687.747 125.402V122.48C688.406 122.812 689.07 123.067 689.739 123.244C690.409 123.416 691.015 123.501 691.557 123.501C691.884 123.501 692.149 123.463 692.354 123.385C692.564 123.308 692.719 123.203 692.819 123.07C692.918 122.931 692.968 122.774 692.968 122.597C692.968 122.386 692.894 122.209 692.744 122.065C692.6 121.916 692.368 121.761 692.047 121.601C691.726 121.44 691.303 121.241 690.777 121.003C690.329 120.793 689.922 120.577 689.557 120.355C689.197 120.134 688.887 119.882 688.627 119.6C688.372 119.312 688.176 118.978 688.038 118.596C687.899 118.214 687.83 117.763 687.83 117.243C687.83 116.462 688.021 115.809 688.403 115.284C688.79 114.752 689.327 114.354 690.013 114.088C690.705 113.823 691.502 113.69 692.404 113.69C693.195 113.69 693.906 113.778 694.537 113.956C695.174 114.133 695.743 114.335 696.247 114.562L695.243 117.093C694.722 116.855 694.211 116.667 693.707 116.529C693.203 116.385 692.736 116.313 692.304 116.313C692.022 116.313 691.79 116.349 691.607 116.421C691.43 116.487 691.297 116.579 691.208 116.695C691.125 116.811 691.084 116.944 691.084 117.093C691.084 117.281 691.156 117.45 691.3 117.6C691.449 117.749 691.695 117.912 692.039 118.089C692.387 118.261 692.86 118.485 693.458 118.762C694.05 119.027 694.554 119.315 694.969 119.625C695.384 119.929 695.699 120.297 695.915 120.729C696.136 121.155 696.247 121.684 696.247 122.314ZM703.411 126L700.929 117.259H700.854C700.876 117.486 700.898 117.793 700.92 118.181C700.948 118.568 700.973 118.986 700.995 119.434C701.017 119.882 701.028 120.314 701.028 120.729V126H698.123V113.864H702.489L705.021 122.48H705.087L707.569 113.864H711.944V126H708.931V120.679C708.931 120.297 708.936 119.888 708.947 119.451C708.964 119.008 708.98 118.593 708.997 118.206C709.019 117.813 709.039 117.503 709.055 117.276H708.98L706.532 126H703.411ZM718.535 113.864C719.636 113.864 720.552 114 721.282 114.271C722.013 114.537 722.561 114.935 722.926 115.466C723.297 115.998 723.482 116.659 723.482 117.45C723.482 117.943 723.399 118.391 723.233 118.795C723.067 119.199 722.829 119.561 722.519 119.882C722.215 120.198 721.849 120.474 721.423 120.712L724.959 126H721.241L718.667 121.584H717.837V126H714.559V113.864H718.535ZM718.485 116.346H717.837V119.119H718.452C718.955 119.119 719.368 119.008 719.688 118.787C720.009 118.565 720.17 118.17 720.17 117.6C720.17 117.207 720.037 116.9 719.771 116.678C719.506 116.457 719.077 116.346 718.485 116.346ZM731.417 126H728.139V116.545H725.175V113.864H734.373V116.545H731.417V126ZM744.5 123.651H743.163V126H739.926V123.651H735.086V121.244L740.133 113.864H743.163V121.202H744.5V123.651ZM739.926 121.202V119.791C739.926 119.664 739.929 119.503 739.934 119.31C739.94 119.116 739.945 118.922 739.951 118.729C739.962 118.529 739.97 118.363 739.976 118.23C739.987 118.092 739.995 118.017 740 118.006H739.909C739.804 118.255 739.707 118.463 739.619 118.629C739.53 118.789 739.414 118.98 739.27 119.202L737.925 121.202H739.926ZM750.269 118.048C750.944 118.048 751.558 118.2 752.111 118.504C752.665 118.809 753.107 119.251 753.439 119.833C753.771 120.414 753.938 121.122 753.938 121.958C753.938 122.86 753.755 123.626 753.39 124.257C753.03 124.882 752.485 125.358 751.754 125.685C751.029 126.006 750.114 126.166 749.007 126.166C748.304 126.166 747.662 126.111 747.081 126C746.506 125.895 745.991 125.732 745.537 125.51V122.821C745.963 123.014 746.475 123.192 747.073 123.352C747.676 123.507 748.229 123.584 748.733 123.584C749.137 123.584 749.48 123.526 749.762 123.41C750.044 123.294 750.257 123.122 750.401 122.896C750.551 122.669 750.625 122.389 750.625 122.057C750.625 121.598 750.459 121.238 750.127 120.978C749.795 120.712 749.292 120.58 748.617 120.58C748.312 120.58 748.014 120.61 747.72 120.671C747.427 120.732 747.17 120.798 746.948 120.87L745.745 120.272L746.201 113.864H753.124V116.595H748.99L748.841 118.197C749.018 118.164 749.198 118.131 749.38 118.098C749.569 118.064 749.865 118.048 750.269 118.048Z" fill="#83808D"/>
<defs>
<filter id="filter0_d_6945_85880" x="1090" y="102.656" width="190.148" height="129.93" filterUnits="userSpaceOnUse" color-interpolation-filters="sRGB">
<feFlood flood-opacity="0" result="BackgroundImageFix"/>
<feColorMatrix in="SourceAlpha" type="matrix" values="0 0 0 0 0 0 0 0 0 0 0 0 0 0 0 0 0 0 127 0" result="hardAlpha"/>
<feOffset dy="7"/>
<feGaussianBlur stdDeviation="2"/>
<feComposite in2="hardAlpha" operator="out"/>
<feColorMatrix type="matrix" values="0 0 0 0 0 0 0 0 0 0 0 0 0 0 0 0 0 0 0.25 0"/>
<feBlend mode="normal" in2="BackgroundImageFix" result="effect1_dropShadow_6945_85880"/>
<feBlend mode="normal" in="SourceGraphic" in2="effect1_dropShadow_6945_85880" result="shape"/>
</filter>
<filter id="filter1_d_6945_85880" x="885" y="67" width="227.756" height="136.656" filterUnits="userSpaceOnUse" color-interpolation-filters="sRGB">
<feFlood flood-opacity="0" result="BackgroundImageFix"/>
<feColorMatrix in="SourceAlpha" type="matrix" values="0 0 0 0 0 0 0 0 0 0 0 0 0 0 0 0 0 0 127 0" result="hardAlpha"/>
<feOffset dy="8"/>
<feGaussianBlur stdDeviation="2"/>
<feComposite in2="hardAlpha" operator="out"/>
<feColorMatrix type="matrix" values="0 0 0 0 0 0 0 0 0 0 0 0 0 0 0 0 0 0 0.25 0"/>
<feBlend mode="normal" in2="BackgroundImageFix" result="effect1_dropShadow_6945_85880"/>
<feBlend mode="normal" in="SourceGraphic" in2="effect1_dropShadow_6945_85880" result="shape"/>
</filter>
<filter id="filter2_i_6945_85880" x="872.262" y="181.682" width="33.5986" height="19.0293" filterUnits="userSpaceOnUse" color-interpolation-filters="sRGB">
<feFlood flood-opacity="0" result="BackgroundImageFix"/>
<feBlend mode="normal" in="SourceGraphic" in2="BackgroundImageFix" result="shape"/>
<feColorMatrix in="SourceAlpha" type="matrix" values="0 0 0 0 0 0 0 0 0 0 0 0 0 0 0 0 0 0 127 0" result="hardAlpha"/>
<feOffset dx="11"/>
<feGaussianBlur stdDeviation="3.5"/>
<feComposite in2="hardAlpha" operator="arithmetic" k2="-1" k3="1"/>
<feColorMatrix type="matrix" values="0 0 0 0 0 0 0 0 0 0 0 0 0 0 0 0 0 0 0.25 0"/>
<feBlend mode="normal" in2="shape" result="effect1_innerShadow_6945_85880"/>
</filter>
<filter id="filter3_i_6945_85880" x="872.21" y="179.463" width="25.6865" height="8.69531" filterUnits="userSpaceOnUse" color-interpolation-filters="sRGB">
<feFlood flood-opacity="0" result="BackgroundImageFix"/>
<feBlend mode="normal" in="SourceGraphic" in2="BackgroundImageFix" result="shape"/>
<feColorMatrix in="SourceAlpha" type="matrix" values="0 0 0 0 0 0 0 0 0 0 0 0 0 0 0 0 0 0 127 0" result="hardAlpha"/>
<feOffset dy="4"/>
<feGaussianBlur stdDeviation="2"/>
<feComposite in2="hardAlpha" operator="arithmetic" k2="-1" k3="1"/>
<feColorMatrix type="matrix" values="0 0 0 0 0 0 0 0 0 0 0 0 0 0 0 0 0 0 0.25 0"/>
<feBlend mode="normal" in2="shape" result="effect1_innerShadow_6945_85880"/>
</filter>
<linearGradient id="paint0_linear_6945_85880" x1="1174.32" y1="123.723" x2="1174.32" y2="122.669" gradientUnits="userSpaceOnUse">
<stop stop-color="#774BF0"/>
<stop offset="1" stop-color="#7E54F1"/>
</linearGradient>
<linearGradient id="paint1_linear_6945_85880" x1="1159.31" y1="132.15" x2="1159.31" y2="130.044" gradientUnits="userSpaceOnUse">
<stop stop-color="#FE5086"/>
<stop offset="1" stop-color="#ED2F4D"/>
</linearGradient>
<linearGradient id="paint2_linear_6945_85880" x1="1184.59" y1="149.529" x2="1184.59" y2="146.896" gradientUnits="userSpaceOnUse">
<stop stop-color="#FFE15B"/>
<stop offset="1" stop-color="#FF9E2A"/>
</linearGradient>
<linearGradient id="paint3_linear_6945_85880" x1="1160.89" y1="182.184" x2="1160.89" y2="180.077" gradientUnits="userSpaceOnUse">
<stop stop-color="#FFE15B"/>
<stop offset="1" stop-color="#FF9E2A"/>
</linearGradient>
<linearGradient id="paint4_linear_6945_85880" x1="1131.39" y1="149.529" x2="1131.39" y2="146.896" gradientUnits="userSpaceOnUse">
<stop stop-color="#9084D1"/>
<stop offset="1" stop-color="#5142DD"/>
</linearGradient>
<linearGradient id="paint5_linear_6945_85880" x1="1180.9" y1="163.75" x2="1180.9" y2="161.117" gradientUnits="userSpaceOnUse">
<stop stop-color="#9084D1"/>
<stop offset="1" stop-color="#5142DD"/>
</linearGradient>
<linearGradient id="paint6_linear_6945_85880" x1="1111.64" y1="110.557" x2="1111.64" y2="116.35" gradientUnits="userSpaceOnUse">
<stop stop-color="#6B47A5"/>
<stop offset="1" stop-color="#9084D1"/>
</linearGradient>
<linearGradient id="paint7_linear_6945_85880" x1="1120.07" y1="110.557" x2="1120.07" y2="116.35" gradientUnits="userSpaceOnUse">
<stop stop-color="#ED2F4D"/>
<stop offset="1" stop-color="#FE5086"/>
</linearGradient>
<linearGradient id="paint8_linear_6945_85880" x1="1129.02" y1="110.557" x2="1129.02" y2="116.35" gradientUnits="userSpaceOnUse">
<stop stop-color="#FFE15B"/>
<stop offset="1" stop-color="#FFD424"/>
</linearGradient>
<linearGradient id="paint9_linear_6945_85880" x1="903.295" y1="76.3008" x2="903.295" y2="85.6008" gradientUnits="userSpaceOnUse">
<stop stop-color="#FE5086" stop-opacity="0.76"/>
<stop offset="1" stop-color="#FE5086" stop-opacity="0"/>
</linearGradient>
<linearGradient id="paint10_linear_6945_85880" x1="917.416" y1="76.3008" x2="917.416" y2="85.6008" gradientUnits="userSpaceOnUse">
<stop stop-color="#FF9E2A"/>
<stop offset="1" stop-color="#FF9E2A" stop-opacity="0.33"/>
</linearGradient>
<linearGradient id="paint11_linear_6945_85880" x1="931.539" y1="76.3008" x2="931.539" y2="85.6008" gradientUnits="userSpaceOnUse">
<stop stop-color="#56D1E4" stop-opacity="0.6"/>
<stop offset="1" stop-color="#56D1E4"/>
</linearGradient>
<linearGradient id="paint12_linear_6945_85880" x1="934.295" y1="110.021" x2="934.295" y2="177.532" gradientUnits="userSpaceOnUse">
<stop stop-color="#1F7553"/>
<stop offset="1" stop-color="#46B679"/>
</linearGradient>
<linearGradient id="paint13_linear_6945_85880" x1="943.547" y1="120.992" x2="943.547" y2="132.385" gradientUnits="userSpaceOnUse">
<stop stop-color="#FF9E2A"/>
<stop offset="1" stop-color="#FF9E2A" stop-opacity="0.33"/>
</linearGradient>
<linearGradient id="paint14_linear_6945_85880" x1="885.452" y1="182.088" x2="886.042" y2="200.642" gradientUnits="userSpaceOnUse">
<stop stop-color="#D9D9D9"/>
<stop offset="1" stop-color="#E8E8EC"/>
</linearGradient>
<linearGradient id="paint15_linear_6945_85880" x1="873.712" y1="182.462" x2="884.912" y2="201.313" gradientUnits="userSpaceOnUse">
<stop offset="0.488515" stop-opacity="0.13"/>
<stop offset="1" stop-opacity="0"/>
</linearGradient>
<linearGradient id="paint16_linear_6945_85880" x1="873.703" y1="145.316" x2="874.948" y2="184.429" gradientUnits="userSpaceOnUse">
<stop stop-color="#46B679"/>
<stop offset="1" stop-color="#1F7553"/>
</linearGradient>
<linearGradient id="paint17_linear_6945_85880" x1="881.008" y1="149.966" x2="877.07" y2="183.11" gradientUnits="userSpaceOnUse">
<stop stop-color="#46B679"/>
<stop offset="1" stop-color="#1F7553"/>
</linearGradient>
<linearGradient id="paint18_linear_6945_85880" x1="890.324" y1="162.584" x2="891.003" y2="183.918" gradientUnits="userSpaceOnUse">
<stop stop-color="#1F7553"/>
<stop offset="0.609375" stop-color="#46B679" stop-opacity="0.87"/>
</linearGradient>
<linearGradient id="paint19_linear_6945_85880" x1="890.324" y1="162.584" x2="891.003" y2="183.918" gradientUnits="userSpaceOnUse">
<stop stop-color="#1F7553"/>
<stop offset="0.609375" stop-color="#46B679" stop-opacity="0.87"/>
</linearGradient>
<linearGradient id="paint20_linear_6945_85880" x1="888.265" y1="150.548" x2="889.329" y2="183.972" gradientUnits="userSpaceOnUse">
<stop stop-color="#1F7553"/>
<stop offset="0.609375" stop-color="#46B679" stop-opacity="0.87"/>
</linearGradient>
<linearGradient id="paint21_linear_6945_85880" x1="877.882" y1="150.724" x2="890.025" y2="180.834" gradientUnits="userSpaceOnUse">
<stop stop-color="#1F7553"/>
<stop offset="0.609375" stop-color="#46B679" stop-opacity="0.87"/>
</linearGradient>
</defs>
</svg>
