<svg width="320" height="130" viewBox="0 0 320 130" fill="none" xmlns="http://www.w3.org/2000/svg">
<g clip-path="url(#clip0_25802_13511)">
<rect width="320" height="130" rx="8" fill="url(#paint0_linear_25802_13511)"/>
<g opacity="0.9">
<path d="M212 114.23C212 172.913 259.952 220.475 319.084 220.475C378.23 220.475 426.167 172.913 426.167 114.23C426.167 55.562 378.23 8 319.084 8C259.952 8 212 55.562 212 114.23Z" fill="url(#paint1_radial_25802_13511)"/>
<g filter="url(#filter0_f_25802_13511)">
<path d="M231.559 106.983C231.559 136.148 246.717 161.807 269.639 176.58C277.789 181.868 286.919 185.772 296.703 187.937C302.671 189.307 308.876 190.014 315.245 190.014C337.291 190.014 357.348 181.559 372.298 167.698C377.465 162.941 382.022 157.535 385.823 151.584C389.519 145.854 392.533 139.653 394.715 133.069C397.462 124.865 398.932 116.101 398.932 106.983C398.932 98.4398 397.64 90.1912 395.235 82.4435C386.624 54.8254 363.895 33.3791 335.421 26.3826C328.963 24.8065 322.193 23.9521 315.245 23.9521C298.024 23.9521 281.99 29.137 268.718 38.019C267.115 39.05 265.541 40.1842 264.042 41.3331C244.504 56.2984 231.871 79.6596 231.589 105.967C231.559 106.305 231.559 106.644 231.559 106.983Z" fill="url(#paint2_linear_25802_13511)"/>
<g style="mix-blend-mode:overlay" opacity="0.302">
<path d="M231.559 106.982C231.559 123.116 236.198 138.177 244.224 150.916C255.935 169.504 287.315 166.752 283.971 145.038C282.924 138.234 279.301 131.508 272.311 125.836C243.733 102.607 270.589 98.3353 300.875 60.5392C319.192 37.6902 295.807 35.5412 274.419 37.4229C270.661 37.7536 267.037 39.037 264.042 41.3317C244.505 56.297 231.871 79.6582 231.589 105.965C231.559 106.304 231.559 106.643 231.559 106.982Z" fill="white"/>
</g>
<g style="mix-blend-mode:overlay" opacity="0.302">
<path d="M297.293 169.3C295.755 180.385 304.058 190.017 315.249 190.017C333.925 190.017 351.173 183.949 365.099 173.668C368.822 170.919 368.1 165.486 363.691 164.078C327.304 152.441 345.044 75.1256 325.151 98.3394C316.172 108.804 301.13 141.644 297.293 169.3Z" fill="white"/>
</g>
<g style="mix-blend-mode:overlay" opacity="0.302">
<path d="M315.604 61.8395C320.028 52.5893 332.395 49.7023 339.729 56.9198C343.336 60.4549 344.628 65.5661 338.14 72.5626C326.055 85.5689 308.745 76.2008 315.604 61.8395Z" fill="white"/>
</g>
</g>
<path d="M232.559 106.983C232.559 136.148 247.716 161.807 270.638 176.58C278.789 181.868 287.919 185.772 297.702 187.937C303.671 189.307 309.876 190.014 316.245 190.014C338.291 190.014 358.348 181.559 373.298 167.698C378.464 162.941 383.022 157.535 386.823 151.584C390.519 145.854 393.533 139.653 395.715 133.069C398.462 124.865 399.932 116.101 399.932 106.983C399.932 98.4398 398.64 90.1912 396.235 82.4435C387.624 54.8254 364.895 33.3791 336.421 26.3826C329.963 24.8065 323.193 23.9521 316.245 23.9521C299.024 23.9521 282.99 29.137 269.718 38.019C268.115 39.05 266.541 40.1842 265.041 41.3331C245.504 56.2984 232.87 79.6596 232.588 105.967C232.559 106.305 232.559 106.644 232.559 106.983Z" fill="url(#paint3_linear_25802_13511)"/>
<g style="mix-blend-mode:overlay" opacity="0.302">
<path d="M232.559 106.982C232.559 123.116 237.198 138.177 245.224 150.916C256.935 169.504 288.314 166.752 284.971 145.038C283.923 138.234 280.301 131.508 273.311 125.836C244.733 102.607 271.589 98.3353 301.874 60.5392C320.192 37.6902 296.807 35.5412 275.419 37.4229C271.661 37.7536 268.037 39.037 265.042 41.3317C245.504 56.297 232.871 79.6582 232.589 105.965C232.559 106.304 232.559 106.643 232.559 106.982Z" fill="white"/>
</g>
<g style="mix-blend-mode:overlay" opacity="0.302">
<path d="M298.293 169.3C296.755 180.385 305.058 190.017 316.248 190.017C334.925 190.017 352.173 183.949 366.098 173.668C369.822 170.919 369.099 165.486 364.691 164.078C328.303 152.441 346.044 75.1256 326.151 98.3394C317.172 108.804 302.13 141.644 298.293 169.3Z" fill="white"/>
</g>
<g style="mix-blend-mode:overlay" opacity="0.302">
<path d="M316.604 61.8395C321.028 52.5893 333.394 49.7023 340.728 56.9198C344.336 60.4549 345.627 65.5661 339.14 72.5626C327.055 85.5689 309.745 76.2008 316.604 61.8395Z" fill="white"/>
</g>
</g>
<g filter="url(#filter1_f_25802_13511)">
<circle cx="141" cy="70" r="1" fill="white"/>
</g>
<g filter="url(#filter2_f_25802_13511)">
<circle cx="194" cy="117" r="1" fill="white"/>
</g>
<g filter="url(#filter3_f_25802_13511)">
<circle cx="305" cy="55" r="1" fill="white"/>
</g>
<g filter="url(#filter4_f_25802_13511)">
<circle cx="16" cy="109" r="1" fill="white"/>
</g>
<g filter="url(#filter5_f_25802_13511)">
<circle cx="14" cy="26" r="1" fill="white"/>
</g>
<g filter="url(#filter6_f_25802_13511)">
<circle cx="266" cy="19" r="1" fill="white"/>
</g>
<g filter="url(#filter7_f_25802_13511)">
<circle cx="246" cy="103" r="1" fill="white"/>
</g>
<g filter="url(#filter8_f_25802_13511)">
<circle cx="122" cy="12" r="1" fill="white"/>
</g>
<g filter="url(#filter9_f_25802_13511)">
<circle cx="59" cy="65" r="1" fill="white"/>
</g>
<g opacity="0.3" filter="url(#filter10_f_25802_13511)">
<path fill-rule="evenodd" clip-rule="evenodd" d="M62.0121 51.1821C64.7126 51.7618 66.2001 54.1336 65.8592 56.7521L65.8577 56.7519C65.3637 60.5473 62.1684 62.9706 57.1703 62.9138L46.1673 62.791L49.1448 39.9151L59.7856 39.9785C64.6169 40.0073 67.1915 42.3475 66.7186 45.9803C66.5723 47.2144 66.0466 48.3681 65.2085 49.2944C64.3704 50.2208 63.2577 50.8779 62.0121 51.1821ZM56.7452 58.3966C58.668 58.4157 59.8926 57.5774 60.1054 55.943C60.3181 54.3086 59.2597 53.3502 57.3366 53.3332L53.1588 53.2955L52.5003 58.3549L56.7452 58.3966ZM57.4649 49.2472C59.3542 49.2625 60.5069 48.4539 60.7111 46.885L60.7096 46.8847C60.9138 45.3162 59.9778 44.4594 58.0897 44.4465L54.3156 44.4202L53.6912 49.217L57.4649 49.2472Z" fill="#64EDFF"/>
<path d="M73.1501 63.0929L76.146 40.0757L81.9682 40.1103L79.5324 58.8243L87.1777 58.9018L86.6126 63.2432L73.1501 63.0929Z" fill="#64EDFF"/>
<path fill-rule="evenodd" clip-rule="evenodd" d="M116.971 63.5831L110.706 63.5131L109.788 59.3976L100.757 59.3051L98.7798 63.3796L92.636 63.3113L104.375 40.2435L111.205 40.2839L116.971 63.5831ZM102.87 54.9641L108.837 55.0199L106.937 46.5046L102.87 54.9641Z" fill="#64EDFF"/>
<path d="M135.776 63.9593C128.553 63.8786 124.107 58.9466 125.014 51.9821L125.012 51.9818C125.918 45.0176 131.641 40.1393 138.871 40.1818C144.72 40.2163 148.735 43.3754 149.481 48.4527L142.882 48.4017C142.126 46.397 140.4 45.3852 138.126 45.369C134.457 45.3433 131.608 47.9153 131.072 52.0337C130.536 56.1521 132.708 58.7671 136.377 58.8061C137.501 58.8327 138.603 58.5747 139.575 58.0579C140.546 57.5411 141.352 56.7836 141.912 55.8612L148.509 55.9211C146.445 60.9748 141.621 64.0248 135.776 63.9593Z" fill="#64EDFF"/>
<path d="M177.919 64.2629L170.489 64.1801L163.477 53.7163L162.127 64.0859L156.088 64.0188L159.14 40.5674L165.184 40.6033L163.843 50.9061L173.48 40.6522L180.631 40.6947L169.46 52.159L177.919 64.2629Z" fill="#64EDFF"/>
<path d="M163.087 92.1798L163.993 85.2182L158.133 71.0108L164.275 71.0925L167.443 79.9777L172.886 71.2085L179.006 71.2898L169.424 85.306L168.517 92.2777L163.087 92.1798Z" fill="#64EDFF"/>
<path d="M89.2589 90.8487L94.5115 90.9435L97.2116 70.1984L91.9558 70.1284L89.2589 90.8487Z" fill="#64EDFF"/>
<path d="M44.3471 90.0371L49.4941 90.1302L50.5752 81.8236L57.0342 81.9276L57.5413 78.0319L51.0815 77.9337L51.645 73.6049L60.2836 73.7279L60.8062 69.7131L47.0172 69.5291L44.3471 90.0371Z" fill="#64EDFF"/>
<path fill-rule="evenodd" clip-rule="evenodd" d="M105.349 70.3088L113.487 70.4171L113.487 70.4153C120.441 70.5083 124.374 74.7903 123.565 81.0063C122.76 87.1907 117.727 91.362 110.777 91.2366L102.644 91.0899L105.349 70.3088ZM108.5 86.7998L110.074 74.7072L112.582 74.7431C116.584 74.8004 118.65 77.0911 118.152 80.9221C117.653 84.7531 115.008 86.9092 111.007 86.8425L108.5 86.7998Z" fill="#64EDFF"/>
<path fill-rule="evenodd" clip-rule="evenodd" d="M67.7766 69.8077L65.0946 90.4129L70.2897 90.5065L71.3035 82.7172L72.5513 82.7377L75.9855 90.6075L81.879 90.714L77.996 82.4426C81.417 81.5536 83.2039 79.1315 83.5414 76.5389C84.0093 72.9443 81.7593 69.9925 76.5096 69.9224L67.7766 69.8077ZM74.994 79.2113C76.9452 79.2416 77.9869 78.2846 78.1976 76.666C78.3968 75.1359 77.6115 74.1222 75.6601 74.0941L72.4319 74.0481L71.7664 79.1614L74.994 79.2113Z" fill="#64EDFF"/>
<path fill-rule="evenodd" clip-rule="evenodd" d="M150.282 91.9456L144.581 91.8468L143.741 88.1143L135.52 87.9732L133.723 91.6469L128.128 91.546L138.798 70.7512L145.016 70.8343L150.282 91.9456ZM142.873 84.1518L137.443 84.0616L141.14 76.4332L142.873 84.1518Z" fill="#64EDFF"/>
</g>
<path fill-rule="evenodd" clip-rule="evenodd" d="M59.9027 56.4542C59.6885 58.1004 58.4549 58.9447 56.518 58.9254L52.2419 58.8834L52.9053 53.7875L57.1137 53.8255C59.0509 53.8426 60.117 54.8079 59.9027 56.4542ZM60.5129 47.3306C60.3072 48.9109 59.1461 49.7254 57.2429 49.71L53.4416 49.6795L54.0705 44.8481L57.8723 44.8746C59.7743 44.8876 60.7171 45.7505 60.5114 47.3304L60.5129 47.3306ZM65.6988 57.2691C66.0421 54.6317 64.5438 52.2427 61.8235 51.6589C63.0782 51.3524 64.199 50.6906 65.0433 49.7575C65.8876 48.8245 66.4171 47.6625 66.5645 46.4194C67.0408 42.7604 64.4474 40.4033 59.5807 40.3743L48.8618 40.3104L45.8625 63.3516L56.9462 63.4753C61.9809 63.5325 65.1997 61.0917 65.6973 57.2689L65.6988 57.2691ZM76.0611 40.4721L73.0432 63.6556L86.6044 63.8071L87.1736 59.4343L79.4723 59.3562L81.926 40.507L76.0611 40.4721ZM110.875 64.0789L117.185 64.1494L111.377 40.6819L104.497 40.6412L92.672 63.8757L98.8608 63.9445L100.852 59.8405L109.95 59.9337L110.875 64.0789ZM108.992 55.5244L102.981 55.4682L107.078 46.9475L108.992 55.5244ZM125.287 52.4646C124.374 59.4794 128.852 64.4471 136.129 64.5284C142.016 64.5943 146.875 61.5223 148.955 56.4321L142.309 56.3717C141.745 57.3008 140.933 58.0638 139.955 58.5843C138.976 59.1049 137.866 59.3647 136.734 59.3379C133.038 59.2987 130.85 56.6647 131.39 52.5166C131.93 48.3685 134.8 45.7779 138.496 45.8038C140.786 45.82 142.525 46.8391 143.287 48.8584L149.934 48.9097C149.182 43.7957 145.138 40.6138 139.246 40.579C131.963 40.5362 126.198 45.4498 125.285 52.4643L125.287 52.4646ZM171.095 64.7507L178.581 64.8341L170.059 52.6428L181.312 41.0956L174.109 41.0528L164.401 51.3808L165.752 41.0036L159.664 40.9675L156.589 64.5883L162.673 64.6559L164.032 54.2113L171.095 64.7507Z" fill="url(#paint4_linear_25802_13511)"/>
<path d="M48.8546 91.7378L43.6715 91.6442L46.3603 71.0252L60.246 71.2102L59.7198 75.2467L51.0205 75.123L50.4532 79.4752L56.9582 79.574L56.4476 83.4908L49.9433 83.3863L48.8546 91.7378Z" fill="url(#paint5_linear_25802_13511)"/>
<path d="M94.1876 92.5555L88.8982 92.4602L88.8985 92.4577L91.614 71.6277L96.9067 71.698L94.1876 92.5555Z" fill="url(#paint6_linear_25802_13511)"/>
<path d="M163.244 93.7986L164.157 86.7992L158.255 72.5149L164.44 72.597L167.63 81.5303L173.111 72.7136L179.275 72.7954L169.625 86.8875L168.712 93.897L163.244 93.7986Z" fill="url(#paint7_linear_25802_13511)"/>
<path fill-rule="evenodd" clip-rule="evenodd" d="M113.296 71.9179L105.101 71.8091L102.377 92.7027L110.567 92.8503C117.566 92.9763 122.635 88.7824 123.445 82.5645C124.26 76.3148 120.299 72.0096 113.296 71.9161L113.296 71.9179ZM109.859 76.2313L108.274 88.3894L110.799 88.4323C114.827 88.4994 117.491 86.3316 117.993 82.4799C118.496 78.6281 116.415 76.325 112.385 76.2674L109.859 76.2313Z" fill="url(#paint8_linear_25802_13511)"/>
<path fill-rule="evenodd" clip-rule="evenodd" d="M67.2653 71.3053L64.5645 92.0221L69.796 92.1162L70.8169 84.2847L72.0734 84.3053L75.5318 92.2178L81.4666 92.3248L77.5564 84.0086C81.0013 83.1148 82.8008 80.6796 83.1406 78.073C83.6117 74.4588 81.346 71.4911 76.0595 71.4206L67.2653 71.3053ZM74.5333 80.7598C76.4982 80.7903 77.5472 79.8281 77.7593 78.2007C77.9599 76.6623 77.1692 75.6432 75.204 75.6148L71.9532 75.5687L71.283 80.7096L74.5333 80.7598Z" fill="url(#paint9_linear_25802_13511)"/>
<path fill-rule="evenodd" clip-rule="evenodd" d="M144.608 93.4638L150.349 93.5631L145.046 72.3374L138.784 72.2539L128.039 93.1613L133.674 93.2627L135.484 89.5691L143.763 89.7111L144.608 93.4638ZM137.421 85.6364L142.888 85.7271L141.143 77.9667L137.421 85.6364Z" fill="url(#paint10_linear_25802_13511)"/>
<path fill-rule="evenodd" clip-rule="evenodd" d="M62.0127 55.7388C61.7984 57.3848 60.5649 58.229 58.628 58.2096L54.3519 58.1673L55.015 53.0721L59.2235 53.1102C61.1607 53.1275 62.2269 54.0928 62.0127 55.7388ZM62.6224 46.6164C62.4168 48.1964 61.2556 49.0107 59.3525 48.9952L55.5511 48.9645L56.1798 44.1337L59.9817 44.1604C61.8836 44.1735 62.8265 45.0364 62.6209 46.6161L62.6224 46.6164ZM67.8088 56.554C68.152 53.9169 66.6536 51.5281 63.9332 50.9441C65.1879 50.6378 66.3087 49.9761 67.1529 49.0432C67.9972 48.1103 68.5267 46.9485 68.674 45.7056C69.1501 42.047 66.5566 39.69 61.6898 39.6607L50.9708 39.5963L47.9726 62.6346L59.0564 62.759C64.0912 62.8164 67.3099 60.3761 67.8073 56.5537L67.8088 56.554ZM78.1703 39.7595L75.1535 62.9402L88.7148 63.0923L89.2838 58.7201L81.5825 58.6416L84.0353 39.7947L78.1703 39.7595ZM112.985 63.3655L119.296 63.4364L113.487 39.9711L106.607 39.93L94.7825 63.1613L100.971 63.2304L102.963 59.1271L112.06 59.2207L112.985 63.3655ZM111.102 54.8118L105.091 54.7553L109.188 46.2358L111.102 54.8118ZM127.397 51.7533C126.484 58.7673 130.963 63.7346 138.24 63.8163C144.127 63.8826 148.986 60.8111 151.065 55.7217L144.419 55.6609C143.856 56.5898 143.044 57.3527 142.065 57.8731C141.087 58.3936 139.976 58.6533 138.845 58.6264C135.149 58.587 132.96 55.9533 133.5 51.8056C134.04 47.658 136.91 45.0678 140.606 45.0939C142.896 45.1103 144.635 46.1294 145.397 48.1485L152.044 48.2001C151.292 43.0867 147.248 39.9049 141.356 39.8698C134.073 39.8266 128.308 44.7393 127.395 51.753L127.397 51.7533ZM173.207 64.0405L180.692 64.1244L172.169 51.934L183.422 40.3887L176.219 40.3455L166.511 50.6718L167.862 40.2958L161.774 40.2594L158.7 63.8773L164.784 63.9453L166.143 53.5019L173.207 64.0405Z" fill="url(#paint11_linear_25802_13511)"/>
<path d="M50.9646 91.0208L45.7815 90.9269L48.4693 70.3105L62.3551 70.4963L61.829 74.5323L53.1298 74.4081L52.5626 78.7598L59.0677 78.8589L58.5573 82.7752L52.0529 82.6703L50.9646 91.0208Z" fill="url(#paint12_linear_25802_13511)"/>
<path d="M96.298 91.8409L91.0085 91.7453L91.0088 91.7428L93.7233 70.9155L99.016 70.9861L96.298 91.8409Z" fill="url(#paint13_linear_25802_13511)"/>
<path d="M165.355 93.0876L166.267 86.0891L160.365 71.8063L166.55 71.8887L169.741 80.8211L175.221 72.0058L181.385 72.0879L171.736 86.1777L170.823 93.1863L165.355 93.0876Z" fill="url(#paint14_linear_25802_13511)"/>
<path fill-rule="evenodd" clip-rule="evenodd" d="M115.405 71.2069L107.211 71.0976L104.488 91.9885L112.677 92.1365C119.677 92.263 124.745 88.0698 125.555 81.8527C126.37 75.6038 122.409 71.299 115.406 71.2051L115.405 71.2069ZM111.968 75.5195L110.384 87.676L112.91 87.7191C116.938 87.7864 119.602 85.6191 120.104 81.7678C120.605 77.9166 118.524 75.6136 114.495 75.5557L111.968 75.5195Z" fill="url(#paint15_linear_25802_13511)"/>
<path fill-rule="evenodd" clip-rule="evenodd" d="M69.3744 70.5918L66.6746 91.3059L71.9062 91.4003L72.9267 83.5698L74.1833 83.5904L77.642 91.5022L83.5769 91.6095L79.6662 83.2941C83.1111 82.4006 84.9105 79.9658 85.2502 77.3595C85.7212 73.7458 83.4552 70.7783 78.1687 70.7075L69.3744 70.5918ZM76.643 80.0455C78.6078 80.0761 79.6568 79.1141 79.8689 77.4869C80.0694 75.9488 79.2786 74.9297 77.3135 74.9012L74.0626 74.8549L73.3926 79.9952L76.643 80.0455Z" fill="url(#paint16_linear_25802_13511)"/>
<path fill-rule="evenodd" clip-rule="evenodd" d="M146.719 92.7519L152.46 92.8515L147.156 71.628L140.894 71.5442L130.15 92.4485L135.785 92.5502L137.594 88.8572L145.873 88.9995L146.719 92.7519ZM139.531 84.925L144.999 85.016L143.253 77.2564L139.531 84.925Z" fill="url(#paint17_linear_25802_13511)"/>
<g filter="url(#filter11_f_25802_13511)">
<path d="M34.8226 105.159L41.207 36.0822L191.79 25.8278L185.405 94.9051L34.8226 105.159Z" stroke="#79EFFF"/>
</g>
<path d="M34.8226 105.159L41.207 36.0822L191.79 25.8278L185.405 94.9051L34.8226 105.159Z" stroke="#64EDFF"/>
<g filter="url(#filter12_f_25802_13511)">
<path d="M33.0898 101.528L42.627 32.8153L193.521 29.459L183.984 98.172L33.0898 101.528Z" stroke="#FF4687"/>
</g>
<path d="M33.0898 101.528L42.627 32.8153L193.521 29.459L183.984 98.172L33.0898 101.528Z" stroke="#FFCADC"/>
<path d="M43.9145 28.7882L43.799 23.0308L45.3545 22.9996L45.4448 27.5007L47.6619 27.4563L47.6871 28.7125L43.9145 28.7882ZM49.4151 28.6778L49.2996 22.9205L50.863 22.8891L50.9785 28.6465L49.4151 28.6778ZM55.5418 28.555L54.2812 24.4319L54.2458 24.4326C54.2584 24.54 54.2719 24.6855 54.286 24.8691C54.3029 25.0526 54.3186 25.2506 54.3334 25.463C54.3482 25.6754 54.3575 25.8801 54.3615 26.077L54.4116 28.5776L53.0333 28.6053L52.9179 22.8479L54.9893 22.8064L56.2723 26.8699L56.3038 26.8693L57.3993 22.758L59.4747 22.7164L59.5901 28.4738L58.1606 28.5025L58.11 25.9782C58.1064 25.7971 58.1051 25.6027 58.1062 25.3952C58.1098 25.185 58.1138 24.988 58.118 24.804C58.1247 24.6174 58.131 24.4702 58.1367 24.3624L58.1012 24.3631L57.0225 28.5253L55.5418 28.555ZM61.6371 28.4327L61.5216 22.6754L63.085 22.644L63.2005 28.4014L61.6371 28.4327ZM67.7953 28.3092L66.2398 28.3404L66.1499 23.855L64.744 23.8832L64.7185 22.6113L69.0818 22.5238L69.1073 23.7957L67.7054 23.8239L67.7953 28.3092ZM74.245 28.1799L70.8268 28.2485L70.7114 22.4911L74.1296 22.4225L74.1546 23.6709L72.2919 23.7082L72.3101 24.614L74.0349 24.5794L74.06 25.8277L72.3351 25.8623L72.3569 26.9492L74.2196 26.9119L74.245 28.1799ZM80.8866 25.0447C80.9 25.7142 80.7864 26.2733 80.5459 26.722C80.3054 27.1706 79.9603 27.5111 79.5106 27.7434C79.0635 27.973 78.534 28.0939 77.9223 28.1062L76.0597 28.1435L75.9442 22.3861L77.9368 22.3462C78.5564 22.3338 79.0836 22.4296 79.5184 22.6336C79.9533 22.8376 80.2863 23.1421 80.5177 23.5472C80.7517 23.9522 80.8747 24.4514 80.8866 25.0447ZM79.2731 25.1323C79.2661 24.7831 79.213 24.4952 79.1139 24.2687C79.0174 24.0396 78.8748 23.8704 78.6862 23.7612C78.4974 23.6495 78.2613 23.5964 77.9778 23.6021L77.5249 23.6112L77.5896 26.8364L77.9361 26.8295C78.4087 26.82 78.7525 26.6765 78.9676 26.3991C79.1826 26.119 79.2844 25.6967 79.2731 25.1323ZM88.2305 27.8994L86.675 27.9306L86.585 23.4452L85.1791 23.4734L85.1536 22.2015L89.5169 22.114L89.5425 23.3859L88.1405 23.414L88.2305 27.8994ZM91.262 27.8386L91.1465 22.0813L92.7099 22.0499L92.8253 27.8073L91.262 27.8386ZM97.3887 27.7158L96.1281 23.5927L96.0926 23.5934C96.1053 23.7008 96.1187 23.8463 96.1329 24.0299C96.1497 24.2134 96.1655 24.4114 96.1803 24.6238C96.195 24.8362 96.2044 25.0409 96.2084 25.2378L96.2585 27.7384L94.8802 27.7661L94.7647 22.0087L96.8361 21.9672L98.1192 26.0307L98.1507 26.0301L99.2462 21.9188L101.322 21.8772L101.437 27.6346L100.007 27.6633L99.9569 25.139C99.9532 24.9579 99.952 24.7635 99.9531 24.556C99.9567 24.3458 99.9606 24.1488 99.9648 23.9648C99.9716 23.7782 99.9778 23.631 99.9836 23.5232L99.9481 23.5239L98.8694 27.6861L97.3887 27.7158ZM106.902 27.525L103.484 27.5935L103.369 21.8362L106.787 21.7676L106.812 23.016L104.949 23.0533L104.967 23.9591L106.692 23.9245L106.717 25.1728L104.992 25.2074L105.014 26.2943L106.877 26.257L106.902 27.525ZM115.348 25.6064C115.354 25.9189 115.281 26.2171 115.13 26.5012C114.978 26.7826 114.737 27.0133 114.407 27.1933C114.079 27.3732 113.653 27.4684 113.128 27.4789C112.866 27.4842 112.634 27.477 112.434 27.4574C112.237 27.4377 112.052 27.4033 111.881 27.3542C111.709 27.3025 111.53 27.2352 111.345 27.1523L111.317 25.7661C111.633 25.9173 111.95 26.0318 112.269 26.1094C112.589 26.1844 112.877 26.2194 113.134 26.2142C113.289 26.2111 113.415 26.1902 113.511 26.1515C113.61 26.1127 113.683 26.0614 113.729 25.9974C113.775 25.9308 113.797 25.8555 113.795 25.7715C113.793 25.6718 113.756 25.5885 113.684 25.5216C113.614 25.4521 113.502 25.3808 113.349 25.3077C113.195 25.2347 112.992 25.1442 112.74 25.0363C112.526 24.9408 112.331 24.8423 112.155 24.7407C111.983 24.6391 111.833 24.5226 111.707 24.3912C111.584 24.2571 111.487 24.1002 111.418 23.9203C111.349 23.7405 111.312 23.5272 111.307 23.2804C111.299 22.9102 111.384 22.5986 111.56 22.3456C111.738 22.0899 111.989 21.8957 112.312 21.7632C112.638 21.6306 113.015 21.56 113.443 21.5514C113.818 21.5439 114.156 21.5791 114.457 21.6571C114.761 21.7351 115.033 21.8255 115.274 21.9283L114.822 23.139C114.573 23.0311 114.328 22.9467 114.088 22.8858C113.848 22.8223 113.625 22.7927 113.42 22.7968C113.286 22.7995 113.177 22.8187 113.091 22.8546C113.007 22.8878 112.945 22.9324 112.904 22.9883C112.866 23.0443 112.847 23.1077 112.849 23.1786C112.851 23.2678 112.886 23.3472 112.956 23.4167C113.028 23.4862 113.147 23.5613 113.311 23.642C113.478 23.7201 113.705 23.8219 113.991 23.9475C114.274 24.0679 114.516 24.1996 114.716 24.3427C114.916 24.4831 115.069 24.6547 115.175 24.8574C115.284 25.0575 115.342 25.3072 115.348 25.6064ZM120.612 27.2501L120.307 26.1767L118.436 26.2142L118.166 27.2991L116.457 27.3334L118.22 21.5147L120.295 21.4731L122.313 27.2159L120.612 27.2501ZM119.958 24.9073L119.691 23.9671C119.663 23.8653 119.622 23.7203 119.568 23.5323C119.515 23.3417 119.461 23.1458 119.407 22.9446C119.355 22.7408 119.315 22.5735 119.286 22.4428C119.265 22.5745 119.235 22.738 119.194 22.9331C119.156 23.1256 119.115 23.3169 119.071 23.5068C119.031 23.6967 118.994 23.8551 118.963 23.9818L118.734 24.9319L119.958 24.9073ZM123.746 27.1872L123.63 21.4298L125.186 21.3986L125.276 25.8998L127.493 25.8553L127.518 27.1116L123.746 27.1872ZM132.665 27.0084L129.246 27.0769L129.131 21.3195L132.549 21.251L132.574 22.4993L130.712 22.5367L130.73 23.4424L132.455 23.4078L132.48 24.6562L130.755 24.6908L130.777 25.7777L132.639 25.7403L132.665 27.0084Z" fill="white"/>
<path d="M87.0045 105.187L87.074 108.652C87.0836 109.135 87.0002 109.557 86.8236 109.918C86.6469 110.276 86.3767 110.556 86.0131 110.757C85.6494 110.956 85.1906 111.062 84.6366 111.073C83.8438 111.089 83.2345 110.897 82.809 110.499C82.3834 110.1 82.1631 109.529 82.1482 108.786L82.078 105.285L83.6414 105.254L83.7092 108.633C83.7173 109.04 83.7994 109.334 83.9553 109.514C84.1113 109.695 84.3376 109.782 84.6343 109.777C84.8469 109.772 85.0194 109.729 85.1517 109.648C85.284 109.564 85.3786 109.435 85.4355 109.26C85.495 109.086 85.522 108.862 85.5165 108.589L85.4489 105.218L87.0045 105.187ZM91.0126 105.106C91.7424 105.092 92.2917 105.24 92.6603 105.55C93.0316 105.86 93.2231 106.308 93.2349 106.894C93.2402 107.156 93.2071 107.409 93.1358 107.652C93.0672 107.895 92.9494 108.113 92.7826 108.305C92.6183 108.498 92.3969 108.652 92.1182 108.768C91.8421 108.883 91.4993 108.945 91.0897 108.954L90.6526 108.962L90.6909 110.872L89.1354 110.904L89.0199 105.146L91.0126 105.106ZM91.0023 106.363L90.6006 106.371L90.6272 107.694L90.9343 107.688C91.0682 107.686 91.1925 107.661 91.3071 107.614C91.4217 107.564 91.5121 107.488 91.5783 107.384C91.647 107.277 91.6797 107.138 91.6762 106.964C91.6726 106.783 91.6158 106.637 91.5059 106.526C91.396 106.413 91.2281 106.359 91.0023 106.363ZM100.479 110.676L98.9237 110.707L98.8338 106.222L97.4279 106.25L97.4024 104.978L101.766 104.891L101.791 106.163L100.389 106.191L100.479 110.676ZM108.84 107.621C108.849 108.064 108.803 108.47 108.703 108.837C108.605 109.201 108.446 109.517 108.225 109.784C108.005 110.051 107.719 110.259 107.367 110.408C107.016 110.554 106.593 110.632 106.1 110.642C105.616 110.652 105.196 110.591 104.839 110.459C104.485 110.324 104.19 110.129 103.957 109.874C103.723 109.616 103.547 109.305 103.43 108.943C103.312 108.58 103.249 108.174 103.24 107.725C103.228 107.127 103.316 106.605 103.504 106.16C103.695 105.712 103.995 105.363 104.405 105.113C104.815 104.861 105.343 104.728 105.989 104.715C106.645 104.702 107.18 104.814 107.595 105.05C108.012 105.285 108.321 105.623 108.521 106.063C108.722 106.503 108.828 107.022 108.84 107.621ZM104.878 107.7C104.885 108.047 104.931 108.344 105.014 108.592C105.098 108.84 105.227 109.029 105.4 109.159C105.573 109.29 105.798 109.352 106.074 109.347C106.36 109.341 106.585 109.269 106.751 109.132C106.919 108.995 107.037 108.801 107.106 108.55C107.177 108.299 107.209 108 107.202 107.654C107.191 107.134 107.097 106.725 106.917 106.426C106.738 106.128 106.437 105.983 106.014 105.991C105.733 105.997 105.508 106.07 105.337 106.21C105.169 106.35 105.048 106.546 104.975 106.8C104.903 107.054 104.871 107.354 104.878 107.7ZM115.563 106.599C115.883 106.593 116.176 106.659 116.441 106.799C116.707 106.938 116.921 107.144 117.084 107.416C117.247 107.689 117.332 108.023 117.34 108.419C117.349 108.847 117.27 109.213 117.102 109.515C116.938 109.816 116.684 110.046 116.34 110.208C115.999 110.367 115.566 110.452 115.041 110.463C114.708 110.47 114.403 110.449 114.126 110.402C113.852 110.358 113.606 110.285 113.389 110.185L113.363 108.909C113.567 108.997 113.812 109.076 114.097 109.146C114.385 109.214 114.648 109.246 114.887 109.241C115.078 109.237 115.241 109.206 115.373 109.148C115.506 109.09 115.606 109.007 115.672 108.898C115.74 108.789 115.773 108.656 115.77 108.498C115.766 108.28 115.683 108.111 115.523 107.991C115.363 107.868 115.123 107.81 114.803 107.816C114.659 107.819 114.517 107.836 114.379 107.868C114.24 107.9 114.119 107.934 114.014 107.97L113.437 107.698L113.593 104.653L116.877 104.588L116.903 105.883L114.942 105.923L114.887 106.684C114.97 106.667 115.055 106.649 115.142 106.632C115.231 106.614 115.371 106.603 115.563 106.599ZM122.94 107.354C122.949 107.816 122.921 108.23 122.855 108.596C122.788 108.96 122.676 109.271 122.519 109.529C122.364 109.787 122.155 109.985 121.892 110.125C121.63 110.264 121.306 110.337 120.92 110.345C120.439 110.355 120.043 110.246 119.731 110.018C119.42 109.788 119.186 109.455 119.03 109.02C118.877 108.582 118.794 108.054 118.781 107.437C118.769 106.815 118.824 106.282 118.946 105.838C119.071 105.392 119.284 105.048 119.584 104.805C119.883 104.563 120.289 104.436 120.801 104.426C121.282 104.417 121.676 104.527 121.986 104.757C122.298 104.984 122.531 105.319 122.687 105.759C122.843 106.197 122.927 106.729 122.94 107.354ZM120.329 107.406C120.337 107.782 120.356 108.096 120.387 108.35C120.421 108.604 120.478 108.795 120.556 108.922C120.638 109.047 120.751 109.107 120.895 109.105C121.039 109.102 121.148 109.036 121.222 108.909C121.296 108.779 121.344 108.587 121.368 108.335C121.392 108.079 121.4 107.763 121.392 107.385C121.385 107.004 121.364 106.687 121.33 106.433C121.296 106.179 121.24 105.988 121.161 105.861C121.082 105.731 120.971 105.668 120.826 105.671C120.682 105.673 120.571 105.741 120.495 105.874C120.422 106.004 120.373 106.197 120.349 106.452C120.328 106.707 120.321 107.025 120.329 107.406ZM125.585 104.33C126.037 104.321 126.402 104.471 126.681 104.781C126.963 105.09 127.11 105.53 127.122 106.1C127.133 106.67 127.013 107.117 126.762 107.443C126.512 107.768 126.143 107.936 125.658 107.945C125.217 107.954 124.858 107.801 124.581 107.486C124.307 107.171 124.164 106.729 124.152 106.159C124.141 105.59 124.258 105.145 124.504 104.825C124.752 104.505 125.113 104.34 125.585 104.33ZM125.62 105.291C125.507 105.293 125.43 105.372 125.388 105.528C125.35 105.681 125.333 105.889 125.338 106.151C125.343 106.409 125.368 106.616 125.413 106.772C125.461 106.926 125.541 107.002 125.654 107C125.767 106.998 125.843 106.92 125.882 106.767C125.921 106.611 125.938 106.402 125.933 106.139C125.927 105.877 125.902 105.67 125.857 105.518C125.812 105.364 125.733 105.289 125.62 105.291ZM129.958 104.325L126.88 110.147L125.71 110.17L128.788 104.349L129.958 104.325ZM130.01 106.534C130.462 106.525 130.827 106.676 131.106 106.985C131.388 107.295 131.535 107.734 131.547 108.304C131.558 108.871 131.438 109.317 131.187 109.643C130.936 109.968 130.568 110.136 130.083 110.145C129.641 110.154 129.283 110.001 129.006 109.686C128.731 109.372 128.589 108.931 128.577 108.363C128.566 107.794 128.683 107.349 128.929 107.029C129.177 106.709 129.538 106.544 130.01 106.534ZM130.045 107.495C129.932 107.497 129.855 107.576 129.813 107.732C129.775 107.885 129.758 108.093 129.763 108.355C129.768 108.613 129.793 108.82 129.838 108.976C129.886 109.13 129.967 109.206 130.079 109.204C130.192 109.202 130.268 109.124 130.307 108.971C130.349 108.815 130.367 108.606 130.362 108.343C130.356 108.07 130.33 107.861 130.282 107.715C130.237 107.566 130.158 107.493 130.045 107.495ZM140.892 106.864C140.906 107.533 140.792 108.092 140.552 108.541C140.311 108.99 139.966 109.33 139.516 109.562C139.069 109.792 138.54 109.913 137.928 109.925L136.065 109.962L135.95 104.205L137.943 104.165C138.562 104.153 139.089 104.249 139.524 104.453C139.959 104.657 140.292 104.961 140.524 105.366C140.757 105.771 140.88 106.27 140.892 106.864ZM139.279 106.951C139.272 106.602 139.219 106.314 139.12 106.088C139.023 105.858 138.881 105.689 138.692 105.58C138.503 105.468 138.267 105.415 137.984 105.421L137.531 105.43L137.595 108.655L137.942 108.648C138.414 108.639 138.758 108.495 138.973 108.218C139.188 107.938 139.29 107.516 139.279 106.951ZM142.795 109.828L142.679 104.07L144.243 104.039L144.358 109.796L142.795 109.828ZM150.143 107.931C150.149 108.243 150.076 108.542 149.924 108.826C149.772 109.107 149.531 109.338 149.201 109.518C148.874 109.698 148.448 109.793 147.923 109.803C147.66 109.809 147.429 109.802 147.229 109.782C147.032 109.762 146.847 109.728 146.675 109.679C146.504 109.627 146.325 109.56 146.139 109.477L146.112 108.091C146.427 108.242 146.745 108.356 147.064 108.434C147.383 108.509 147.672 108.544 147.929 108.539C148.084 108.536 148.209 108.515 148.306 108.476C148.405 108.437 148.477 108.386 148.523 108.322C148.569 108.255 148.591 108.18 148.59 108.096C148.588 107.996 148.551 107.913 148.478 107.846C148.409 107.777 148.297 107.705 148.143 107.632C147.989 107.559 147.787 107.469 147.535 107.361C147.32 107.265 147.125 107.167 146.95 107.065C146.777 106.964 146.628 106.847 146.502 106.716C146.378 106.582 146.282 106.425 146.213 106.245C146.143 106.065 146.106 105.852 146.101 105.605C146.094 105.235 146.178 104.923 146.354 104.67C146.533 104.414 146.784 104.22 147.107 104.088C147.433 103.955 147.809 103.885 148.237 103.876C148.613 103.868 148.951 103.904 149.252 103.982C149.555 104.06 149.828 104.15 150.069 104.253L149.616 105.464C149.367 105.356 149.123 105.271 148.883 105.21C148.642 105.147 148.42 105.117 148.215 105.121C148.081 105.124 147.971 105.143 147.885 105.179C147.802 105.212 147.74 105.257 147.699 105.313C147.661 105.369 147.642 105.432 147.644 105.503C147.645 105.592 147.681 105.672 147.751 105.741C147.823 105.811 147.941 105.886 148.106 105.967C148.273 106.045 148.499 106.146 148.786 106.272C149.069 106.392 149.311 106.524 149.511 106.667C149.71 106.808 149.864 106.979 149.97 107.182C150.079 107.382 150.137 107.632 150.143 107.931ZM154.346 105.03C154.163 105.034 153.999 105.076 153.856 105.158C153.714 105.237 153.592 105.351 153.493 105.5C153.394 105.649 153.318 105.831 153.268 106.044C153.219 106.255 153.198 106.495 153.203 106.763C153.21 107.125 153.262 107.428 153.359 107.673C153.456 107.918 153.599 108.102 153.788 108.224C153.979 108.346 154.217 108.405 154.501 108.399C154.758 108.394 155.004 108.354 155.239 108.278C155.476 108.202 155.715 108.112 155.954 108.007L155.981 109.323C155.728 109.441 155.469 109.527 155.202 109.583C154.938 109.638 154.656 109.668 154.357 109.674C153.732 109.687 153.217 109.574 152.813 109.335C152.412 109.094 152.112 108.754 151.915 108.317C151.719 107.88 151.616 107.37 151.604 106.787C151.595 106.351 151.648 105.951 151.761 105.586C151.877 105.221 152.051 104.904 152.282 104.634C152.513 104.361 152.8 104.15 153.144 103.998C153.49 103.844 153.888 103.763 154.336 103.754C154.615 103.748 154.908 103.775 155.217 103.834C155.528 103.891 155.832 103.988 156.129 104.123L155.677 105.358C155.465 105.262 155.25 105.182 155.034 105.119C154.817 105.055 154.588 105.025 154.346 105.03ZM163.248 106.53C163.256 106.973 163.211 107.379 163.11 107.746C163.013 108.11 162.854 108.426 162.633 108.693C162.413 108.96 162.126 109.168 161.775 109.317C161.423 109.463 161.001 109.541 160.507 109.551C160.024 109.561 159.604 109.5 159.247 109.368C158.892 109.233 158.598 109.038 158.364 108.783C158.131 108.525 157.955 108.214 157.837 107.852C157.72 107.489 157.657 107.083 157.648 106.634C157.636 106.035 157.724 105.514 157.912 105.069C158.102 104.621 158.403 104.272 158.813 104.022C159.222 103.77 159.75 103.637 160.396 103.624C161.052 103.611 161.588 103.722 162.002 103.958C162.419 104.194 162.728 104.532 162.929 104.972C163.129 105.412 163.236 105.931 163.248 106.53ZM159.286 106.609C159.293 106.956 159.338 107.253 159.422 107.501C159.506 107.748 159.634 107.938 159.808 108.068C159.981 108.199 160.205 108.261 160.481 108.255C160.767 108.25 160.993 108.178 161.158 108.041C161.326 107.904 161.445 107.71 161.513 107.459C161.584 107.208 161.616 106.909 161.609 106.562C161.599 106.043 161.504 105.634 161.325 105.335C161.145 105.037 160.844 104.892 160.422 104.9C160.141 104.906 159.915 104.979 159.745 105.119C159.577 105.259 159.456 105.455 159.382 105.709C159.311 105.962 159.279 106.263 159.286 106.609ZM169.931 103.524L170.001 106.989C170.01 107.472 169.927 107.894 169.75 108.255C169.574 108.613 169.303 108.893 168.94 109.094C168.576 109.293 168.117 109.398 167.563 109.41C166.77 109.425 166.161 109.234 165.736 108.836C165.31 108.437 165.09 107.866 165.075 107.123L165.005 103.622L166.568 103.591L166.636 106.97C166.644 107.377 166.726 107.671 166.882 107.851C167.038 108.032 167.264 108.119 167.561 108.114C167.774 108.109 167.946 108.066 168.078 107.985C168.211 107.901 168.305 107.772 168.362 107.597C168.422 107.423 168.449 107.199 168.443 106.926L168.376 103.555L169.931 103.524ZM177.544 109.131L175.504 109.172L173.32 105.158L173.284 105.158C173.3 105.281 173.315 105.43 173.329 105.603C173.342 105.776 173.355 105.953 173.367 106.134C173.378 106.312 173.385 106.473 173.388 106.618L173.44 109.213L172.062 109.241L171.947 103.483L173.979 103.442L176.154 107.401L176.177 107.401C176.167 107.275 176.156 107.13 176.145 106.964C176.134 106.796 176.123 106.627 176.111 106.457C176.103 106.286 176.097 106.135 176.094 106.004L176.042 103.401L177.428 103.373L177.544 109.131ZM182.135 109.039L180.579 109.07L180.489 104.584L179.083 104.613L179.058 103.341L183.421 103.253L183.447 104.525L182.045 104.553L182.135 109.039Z" fill="white"/>
</g>
<defs>
<filter id="filter0_f_25802_13511" x="230.559" y="22.9521" width="169.376" height="168.064" filterUnits="userSpaceOnUse" color-interpolation-filters="sRGB">
<feFlood flood-opacity="0" result="BackgroundImageFix"/>
<feBlend mode="normal" in="SourceGraphic" in2="BackgroundImageFix" result="shape"/>
<feGaussianBlur stdDeviation="0.5" result="effect1_foregroundBlur_25802_13511"/>
</filter>
<filter id="filter1_f_25802_13511" x="139" y="68" width="4" height="4" filterUnits="userSpaceOnUse" color-interpolation-filters="sRGB">
<feFlood flood-opacity="0" result="BackgroundImageFix"/>
<feBlend mode="normal" in="SourceGraphic" in2="BackgroundImageFix" result="shape"/>
<feGaussianBlur stdDeviation="0.5" result="effect1_foregroundBlur_25802_13511"/>
</filter>
<filter id="filter2_f_25802_13511" x="192" y="115" width="4" height="4" filterUnits="userSpaceOnUse" color-interpolation-filters="sRGB">
<feFlood flood-opacity="0" result="BackgroundImageFix"/>
<feBlend mode="normal" in="SourceGraphic" in2="BackgroundImageFix" result="shape"/>
<feGaussianBlur stdDeviation="0.5" result="effect1_foregroundBlur_25802_13511"/>
</filter>
<filter id="filter3_f_25802_13511" x="303" y="53" width="4" height="4" filterUnits="userSpaceOnUse" color-interpolation-filters="sRGB">
<feFlood flood-opacity="0" result="BackgroundImageFix"/>
<feBlend mode="normal" in="SourceGraphic" in2="BackgroundImageFix" result="shape"/>
<feGaussianBlur stdDeviation="0.5" result="effect1_foregroundBlur_25802_13511"/>
</filter>
<filter id="filter4_f_25802_13511" x="14" y="107" width="4" height="4" filterUnits="userSpaceOnUse" color-interpolation-filters="sRGB">
<feFlood flood-opacity="0" result="BackgroundImageFix"/>
<feBlend mode="normal" in="SourceGraphic" in2="BackgroundImageFix" result="shape"/>
<feGaussianBlur stdDeviation="0.5" result="effect1_foregroundBlur_25802_13511"/>
</filter>
<filter id="filter5_f_25802_13511" x="12" y="24" width="4" height="4" filterUnits="userSpaceOnUse" color-interpolation-filters="sRGB">
<feFlood flood-opacity="0" result="BackgroundImageFix"/>
<feBlend mode="normal" in="SourceGraphic" in2="BackgroundImageFix" result="shape"/>
<feGaussianBlur stdDeviation="0.5" result="effect1_foregroundBlur_25802_13511"/>
</filter>
<filter id="filter6_f_25802_13511" x="264" y="17" width="4" height="4" filterUnits="userSpaceOnUse" color-interpolation-filters="sRGB">
<feFlood flood-opacity="0" result="BackgroundImageFix"/>
<feBlend mode="normal" in="SourceGraphic" in2="BackgroundImageFix" result="shape"/>
<feGaussianBlur stdDeviation="0.5" result="effect1_foregroundBlur_25802_13511"/>
</filter>
<filter id="filter7_f_25802_13511" x="244" y="101" width="4" height="4" filterUnits="userSpaceOnUse" color-interpolation-filters="sRGB">
<feFlood flood-opacity="0" result="BackgroundImageFix"/>
<feBlend mode="normal" in="SourceGraphic" in2="BackgroundImageFix" result="shape"/>
<feGaussianBlur stdDeviation="0.5" result="effect1_foregroundBlur_25802_13511"/>
</filter>
<filter id="filter8_f_25802_13511" x="120" y="10" width="4" height="4" filterUnits="userSpaceOnUse" color-interpolation-filters="sRGB">
<feFlood flood-opacity="0" result="BackgroundImageFix"/>
<feBlend mode="normal" in="SourceGraphic" in2="BackgroundImageFix" result="shape"/>
<feGaussianBlur stdDeviation="0.5" result="effect1_foregroundBlur_25802_13511"/>
</filter>
<filter id="filter9_f_25802_13511" x="57" y="63" width="4" height="4" filterUnits="userSpaceOnUse" color-interpolation-filters="sRGB">
<feFlood flood-opacity="0" result="BackgroundImageFix"/>
<feBlend mode="normal" in="SourceGraphic" in2="BackgroundImageFix" result="shape"/>
<feGaussianBlur stdDeviation="0.5" result="effect1_foregroundBlur_25802_13511"/>
</filter>
<filter id="filter10_f_25802_13511" x="40.3472" y="35.915" width="144.283" height="60.3628" filterUnits="userSpaceOnUse" color-interpolation-filters="sRGB">
<feFlood flood-opacity="0" result="BackgroundImageFix"/>
<feBlend mode="normal" in="SourceGraphic" in2="BackgroundImageFix" result="shape"/>
<feGaussianBlur stdDeviation="2" result="effect1_foregroundBlur_25802_13511"/>
</filter>
<filter id="filter11_f_25802_13511" x="30.2708" y="21.2891" width="166.071" height="88.4092" filterUnits="userSpaceOnUse" color-interpolation-filters="sRGB">
<feFlood flood-opacity="0" result="BackgroundImageFix"/>
<feBlend mode="normal" in="SourceGraphic" in2="BackgroundImageFix" result="shape"/>
<feGaussianBlur stdDeviation="2" result="effect1_foregroundBlur_25802_13511"/>
</filter>
<filter id="filter12_f_25802_13511" x="28.5139" y="24.9463" width="169.583" height="81.0947" filterUnits="userSpaceOnUse" color-interpolation-filters="sRGB">
<feFlood flood-opacity="0" result="BackgroundImageFix"/>
<feBlend mode="normal" in="SourceGraphic" in2="BackgroundImageFix" result="shape"/>
<feGaussianBlur stdDeviation="2" result="effect1_foregroundBlur_25802_13511"/>
</filter>
<linearGradient id="paint0_linear_25802_13511" x1="160" y1="0" x2="160" y2="130" gradientUnits="userSpaceOnUse">
<stop stop-color="#172554"/>
<stop offset="1" stop-color="#314588"/>
</linearGradient>
<radialGradient id="paint1_radial_25802_13511" cx="0" cy="0" r="1" gradientUnits="userSpaceOnUse" gradientTransform="translate(319.087 114.236) scale(107.081 106.242)">
<stop stop-color="#5EFFF5"/>
<stop offset="1" stop-color="#5EFFF5" stop-opacity="0"/>
</radialGradient>
<linearGradient id="paint2_linear_25802_13511" x1="325.516" y1="238.866" x2="428.721" y2="105.72" gradientUnits="userSpaceOnUse">
<stop offset="0.137" stop-color="#B353E9"/>
<stop offset="1" stop-color="#F7D3A1"/>
</linearGradient>
<linearGradient id="paint3_linear_25802_13511" x1="326.515" y1="238.866" x2="429.721" y2="105.72" gradientUnits="userSpaceOnUse">
<stop offset="0.137" stop-color="#B353E9"/>
<stop offset="1" stop-color="#F7D3A1"/>
</linearGradient>
<linearGradient id="paint4_linear_25802_13511" x1="131.744" y1="64.9914" x2="134.417" y2="35.1003" gradientUnits="userSpaceOnUse">
<stop offset="0.03" stop-color="#BF25D8"/>
<stop offset="0.62" stop-color="#4C9BE8"/>
<stop offset="1" stop-color="#2AF6FF"/>
</linearGradient>
<linearGradient id="paint5_linear_25802_13511" x1="129.589" y1="94.1641" x2="132.172" y2="66.6916" gradientUnits="userSpaceOnUse">
<stop offset="0.03" stop-color="#BF25D8"/>
<stop offset="0.62" stop-color="#4C9BE8"/>
<stop offset="1" stop-color="#2AF6FF"/>
</linearGradient>
<linearGradient id="paint6_linear_25802_13511" x1="129.589" y1="94.1641" x2="132.172" y2="66.6916" gradientUnits="userSpaceOnUse">
<stop offset="0.03" stop-color="#BF25D8"/>
<stop offset="0.62" stop-color="#4C9BE8"/>
<stop offset="1" stop-color="#2AF6FF"/>
</linearGradient>
<linearGradient id="paint7_linear_25802_13511" x1="129.589" y1="94.1641" x2="132.172" y2="66.6916" gradientUnits="userSpaceOnUse">
<stop offset="0.03" stop-color="#BF25D8"/>
<stop offset="0.62" stop-color="#4C9BE8"/>
<stop offset="1" stop-color="#2AF6FF"/>
</linearGradient>
<linearGradient id="paint8_linear_25802_13511" x1="129.589" y1="94.1641" x2="132.172" y2="66.6916" gradientUnits="userSpaceOnUse">
<stop offset="0.03" stop-color="#BF25D8"/>
<stop offset="0.62" stop-color="#4C9BE8"/>
<stop offset="1" stop-color="#2AF6FF"/>
</linearGradient>
<linearGradient id="paint9_linear_25802_13511" x1="129.589" y1="94.1641" x2="132.172" y2="66.6916" gradientUnits="userSpaceOnUse">
<stop offset="0.03" stop-color="#BF25D8"/>
<stop offset="0.62" stop-color="#4C9BE8"/>
<stop offset="1" stop-color="#2AF6FF"/>
</linearGradient>
<linearGradient id="paint10_linear_25802_13511" x1="129.589" y1="94.1641" x2="132.172" y2="66.6916" gradientUnits="userSpaceOnUse">
<stop offset="0.03" stop-color="#BF25D8"/>
<stop offset="0.62" stop-color="#4C9BE8"/>
<stop offset="1" stop-color="#2AF6FF"/>
</linearGradient>
<linearGradient id="paint11_linear_25802_13511" x1="109.739" y1="20.0784" x2="111.609" y2="72.3422" gradientUnits="userSpaceOnUse">
<stop stop-color="#E6E6E6"/>
<stop offset="1" stop-color="white"/>
</linearGradient>
<linearGradient id="paint12_linear_25802_13511" x1="110.137" y1="57.6643" x2="109.917" y2="100.575" gradientUnits="userSpaceOnUse">
<stop stop-color="#E3E3E3"/>
<stop offset="1" stop-color="white"/>
</linearGradient>
<linearGradient id="paint13_linear_25802_13511" x1="110.137" y1="57.6643" x2="109.917" y2="100.575" gradientUnits="userSpaceOnUse">
<stop stop-color="#E3E3E3"/>
<stop offset="1" stop-color="white"/>
</linearGradient>
<linearGradient id="paint14_linear_25802_13511" x1="110.137" y1="57.6643" x2="109.917" y2="100.575" gradientUnits="userSpaceOnUse">
<stop stop-color="#E3E3E3"/>
<stop offset="1" stop-color="white"/>
</linearGradient>
<linearGradient id="paint15_linear_25802_13511" x1="110.137" y1="57.6643" x2="109.917" y2="100.575" gradientUnits="userSpaceOnUse">
<stop stop-color="#E3E3E3"/>
<stop offset="1" stop-color="white"/>
</linearGradient>
<linearGradient id="paint16_linear_25802_13511" x1="110.137" y1="57.6643" x2="109.917" y2="100.575" gradientUnits="userSpaceOnUse">
<stop stop-color="#E3E3E3"/>
<stop offset="1" stop-color="white"/>
</linearGradient>
<linearGradient id="paint17_linear_25802_13511" x1="110.137" y1="57.6643" x2="109.917" y2="100.575" gradientUnits="userSpaceOnUse">
<stop stop-color="#E3E3E3"/>
<stop offset="1" stop-color="white"/>
</linearGradient>
<clipPath id="clip0_25802_13511">
<rect width="320" height="130" rx="8" fill="white"/>
</clipPath>
</defs>
</svg>
