<svg width="930" height="86" viewBox="0 0 930 86" fill="none" xmlns="http://www.w3.org/2000/svg">
<rect width="930" height="83" rx="10" transform="matrix(-1 0 0 1 930 0)" fill="#774BF0"/>
<mask id="mask0_7110_68794" style="mask-type:alpha" maskUnits="userSpaceOnUse" x="0" y="0" width="930" height="83">
<rect width="930" height="83" rx="10" transform="matrix(-1 0 0 1 930 0)" fill="#774BF0"/>
</mask>
<g mask="url(#mask0_7110_68794)">
<path opacity="0.5" d="M983.045 97.457H354.154C429.651 91.7604 599.202 72.9798 673.437 43.4308C747.673 13.8817 910.774 2.45165 983.045 0.43026V31.4402C846.536 45.884 926.167 67.1362 983.045 75.9568V97.457Z" fill="white" fill-opacity="0.1"/>
<path opacity="0.5" d="M815.185 -7.64965C949.402 4.67605 1084.89 -16.4256 1135.85 -28.5172L1180.02 3.787C1130.41 14.0975 1006.11 36.2556 905.833 42.4038C805.553 48.552 629.259 43.0059 553.648 39.4644C507.04 38.8754 396.337 39.566 326.384 47.0399C238.943 56.3822 189.902 61.318 60.0239 87.6043C-43.8788 108.633 -172.704 111.208 -224.129 109.866L-282.499 67.1738C-230.022 64.6255 -131.303 54.9683 -156.244 36.7259C-181.186 18.4836 -299.882 13.53 -356.112 13.3335L-396.469 -16.1836L-313.545 -27.3184C-220.103 -16.0251 -46.9089 -12.1419 99.9163 -23.0108C246.741 -33.8797 295.366 -50.4548 469.924 -43.3063C644.483 -36.1578 647.415 -23.0568 815.185 -7.64965Z" fill="white" fill-opacity="0.1"/>
</g>
<g filter="url(#filter0_d_7110_68794)">
<path d="M807.91 29.5348C807.91 27.0389 809.927 25.0156 812.416 25.0156H869.484C871.972 25.0156 873.99 27.0389 873.99 29.5348V61.5457C873.99 64.0416 871.972 66.0649 869.484 66.0649H812.416C809.927 66.0649 807.91 64.0416 807.91 61.5457V29.5348Z" fill="white"/>
<path d="M813.918 33.5267C813.918 33.8032 814.031 34.0273 814.17 34.0273H868.732C868.871 34.0273 868.984 33.8032 868.984 33.5267V33.5267C868.984 33.2503 868.871 33.0261 868.732 33.0261H814.17C814.031 33.0261 813.918 33.2503 813.918 33.5267V33.5267Z" fill="url(#paint0_linear_7110_68794)"/>
<path d="M819.925 36.5267C819.925 36.8032 819.986 37.0273 820.062 37.0273H849.823C849.899 37.0273 849.961 36.8032 849.961 36.5267V36.5267C849.961 36.2503 849.899 36.0261 849.823 36.0261H820.062C819.986 36.0261 819.925 36.2503 819.925 36.5267V36.5267Z" fill="url(#paint1_linear_7110_68794)"/>
<path d="M829.937 44.0379C829.937 44.5908 830 45.0391 830.079 45.0391H860.832C860.91 45.0391 860.974 44.5908 860.974 44.0379V44.0379C860.974 43.4849 860.91 43.0367 860.832 43.0367H830.079C830 43.0367 829.937 43.4849 829.937 44.0379V44.0379Z" fill="url(#paint2_linear_7110_68794)"/>
<path d="M820.926 57.5541C820.926 57.8306 820.987 58.0547 821.063 58.0547H850.824C850.9 58.0547 850.962 57.8306 850.962 57.5541V57.5541C850.962 57.2776 850.9 57.0535 850.824 57.0535H821.063C820.987 57.0535 820.926 57.2776 820.926 57.5541V57.5541Z" fill="url(#paint3_linear_7110_68794)"/>
<path d="M818.923 44.0379C818.923 44.5908 818.941 45.0391 818.964 45.0391H827.892C827.915 45.0391 827.934 44.5908 827.934 44.0379V44.0379C827.934 43.4849 827.915 43.0367 827.892 43.0367H818.964C818.941 43.0367 818.923 43.4849 818.923 44.0379V44.0379Z" fill="url(#paint4_linear_7110_68794)"/>
<path d="M818.923 49.5463C818.923 49.8227 819.025 50.0469 819.152 50.0469H868.754C868.88 50.0469 868.983 49.8227 868.983 49.5463V49.5463C868.983 49.2698 868.88 49.0457 868.754 49.0457H819.152C819.025 49.0457 818.923 49.2698 818.923 49.5463V49.5463Z" fill="url(#paint5_linear_7110_68794)"/>
<path d="M815.92 29.5213C815.92 30.3508 815.472 31.0231 814.919 31.0231C814.366 31.0231 813.918 30.3508 813.918 29.5213C813.918 28.6919 814.366 28.0195 814.919 28.0195C815.472 28.0195 815.92 28.6919 815.92 29.5213Z" fill="url(#paint6_linear_7110_68794)"/>
<path d="M819.925 29.5213C819.925 30.3508 819.252 31.0231 818.423 31.0231C817.593 31.0231 816.921 30.3508 816.921 29.5213C816.921 28.6919 817.593 28.0195 818.423 28.0195C819.252 28.0195 819.925 28.6919 819.925 29.5213Z" fill="url(#paint7_linear_7110_68794)"/>
<path d="M823.929 29.5213C823.929 30.3508 823.257 31.0231 822.428 31.0231C821.598 31.0231 820.926 30.3508 820.926 29.5213C820.926 28.6919 821.598 28.0195 822.428 28.0195C823.257 28.0195 823.929 28.6919 823.929 29.5213Z" fill="url(#paint8_linear_7110_68794)"/>
<path fill-rule="evenodd" clip-rule="evenodd" d="M813.918 37.0285C813.918 36.4756 814.254 36.0273 814.669 36.0273H816.171C816.585 36.0273 816.922 36.4756 816.922 37.0285C816.922 37.5815 816.585 38.0297 816.171 38.0297H814.669C814.254 38.0297 813.918 37.5815 813.918 37.0285Z" fill="#9084D1"/>
<path fill-rule="evenodd" clip-rule="evenodd" d="M813.918 44.0364C813.918 43.4834 814.254 43.0352 814.669 43.0352H816.171C816.585 43.0352 816.922 43.4834 816.922 44.0364C816.922 44.5893 816.585 45.0376 816.171 45.0376H814.669C814.254 45.0376 813.918 44.5893 813.918 44.0364Z" fill="#9084D1"/>
<path fill-rule="evenodd" clip-rule="evenodd" d="M813.918 50.0481C813.918 49.4951 814.254 49.0469 814.669 49.0469H816.171C816.585 49.0469 816.922 49.4951 816.922 50.0481C816.922 50.601 816.585 51.0493 816.171 51.0493H814.669C814.254 51.0493 813.918 50.601 813.918 50.0481Z" fill="#9084D1"/>
<path fill-rule="evenodd" clip-rule="evenodd" d="M813.918 58.0559C813.918 57.5029 814.254 57.0547 814.669 57.0547H816.171C816.585 57.0547 816.922 57.5029 816.922 58.0559C816.922 58.6088 816.585 59.0571 816.171 59.0571H814.669C814.254 59.0571 813.918 58.6088 813.918 58.0559Z" fill="#9084D1"/>
<path d="M851.396 59.9099C851.227 59.5347 851.352 59.1125 851.675 58.9669L862.173 54.2353C862.496 54.0898 862.895 54.276 863.064 54.6512L869.527 68.9911C869.696 69.3664 869.571 69.7885 869.249 69.9341L858.75 74.6657C858.427 74.8112 858.028 74.625 857.859 74.2498L851.396 59.9099Z" fill="#FFD424"/>
<path d="M851.396 59.9099C851.227 59.5347 851.35 59.1132 851.671 58.9685L851.777 58.9209C852.098 58.7762 852.495 58.9631 852.664 59.3383L859.127 73.6782C859.296 74.0535 859.173 74.4749 858.852 74.6196L858.746 74.6673C858.425 74.8119 858.028 74.625 857.859 74.2498L851.396 59.9099Z" fill="#FF9E2A"/>
<path d="M862.379 61.1411C862.702 60.9941 863.101 61.1788 863.271 61.5536L863.487 62.0269C863.657 62.4017 863.534 62.8247 863.212 62.9716L858.469 65.1342C858.147 65.2812 857.748 65.0965 857.577 64.7217L857.362 64.2484C857.192 63.8736 857.315 63.4506 857.637 63.3037L862.379 61.1411Z" fill="white"/>
<path d="M860.885 59.1244C861.13 59.0125 861.434 59.1531 861.564 59.4383V59.4383C861.694 59.7235 861.6 60.0454 861.355 60.1572L857.604 61.8675C857.359 61.9794 857.055 61.8388 856.925 61.5536V61.5536C856.795 61.2684 856.889 60.9465 857.134 60.8347L860.885 59.1244Z" fill="white"/>
<path d="M868.274 55.0222C868.262 54.5914 868.594 54.2327 869.016 54.2209L882.734 53.8386C883.156 53.8268 883.508 54.1665 883.52 54.5973L883.979 71.0608C883.991 71.4917 883.658 71.8504 883.236 71.8622L869.518 72.2445C869.096 72.2563 868.745 71.9166 868.733 71.4858L868.274 55.0222Z" fill="#FE387D"/>
<path d="M867.304 56.7292C867.296 56.4343 867.539 56.1884 867.846 56.1798L869.4 56.1365C869.708 56.1279 869.964 56.36 869.972 56.6548L869.975 56.7457C869.983 57.0406 869.74 57.2866 869.432 57.2951L867.879 57.3384C867.571 57.347 867.315 57.1149 867.306 56.8201L867.304 56.7292Z" fill="#FC8C9D"/>
<path d="M867.366 58.9799C867.357 58.6523 867.599 58.3798 867.907 58.3712L869.46 58.3279C869.768 58.3193 870.025 58.5779 870.034 58.9056L870.037 59.0065C870.046 59.3342 869.804 59.6067 869.496 59.6153L867.943 59.6586C867.635 59.6672 867.378 59.4085 867.369 59.0809L867.366 58.9799Z" fill="#FC8C9D"/>
<path d="M867.433 61.3659C867.425 61.0711 867.667 60.8251 867.975 60.8165L869.529 60.7732C869.836 60.7646 870.093 60.9967 870.101 61.2916L870.103 61.3824C870.112 61.6773 869.869 61.9233 869.561 61.9319L868.008 61.9752C867.7 61.9837 867.444 61.7517 867.435 61.4568L867.433 61.3659Z" fill="#FC8C9D"/>
<path d="M867.497 63.6823C867.489 63.3875 867.732 63.1415 868.04 63.1329L869.593 63.0896C869.901 63.081 870.157 63.3131 870.165 63.608L870.168 63.6988C870.176 63.9937 869.933 64.2397 869.625 64.2483L868.072 64.2916C867.764 64.3001 867.508 64.0681 867.5 63.7732L867.497 63.6823Z" fill="#FC8C9D"/>
<path d="M867.564 66.0542C867.555 65.7265 867.797 65.454 868.105 65.4454L869.659 65.4021C869.966 65.3935 870.223 65.6522 870.232 65.9798L870.235 66.0808C870.244 66.4084 870.002 66.6809 869.694 66.6895L868.141 66.7328C867.833 66.7414 867.576 66.4827 867.567 66.1551L867.564 66.0542Z" fill="#FC8C9D"/>
<path d="M867.626 68.3151C867.618 68.0203 867.861 67.7743 868.169 67.7657L869.722 67.7224C870.03 67.7138 870.286 67.9459 870.294 68.2408L870.297 68.3317C870.305 68.6265 870.062 68.8725 869.754 68.8811L868.201 68.9244C867.893 68.933 867.637 68.7009 867.629 68.406L867.626 68.3151Z" fill="#FC8C9D"/>
<path d="M867.683 70.3042C867.673 69.9765 867.916 69.704 868.223 69.6954L869.777 69.6521C870.085 69.6435 870.341 69.9022 870.351 70.2298L870.353 70.3308C870.363 70.6584 870.12 70.9309 869.813 70.9395L868.259 70.9828C867.951 70.9914 867.694 70.7327 867.685 70.4051L867.683 70.3042Z" fill="#FC8C9D"/>
<path fill-rule="evenodd" clip-rule="evenodd" d="M879.138 57.6016L873.452 57.7601C873.336 57.7633 873.246 57.8604 873.249 57.977L873.359 61.9412C873.363 62.0578 873.459 62.1497 873.574 62.1465L879.261 61.988C879.376 61.9848 879.467 61.8877 879.464 61.7711L879.353 57.8068C879.35 57.6903 879.254 57.5983 879.138 57.6016ZM873.436 57.1854C873.006 57.1973 872.668 57.5588 872.68 57.9928L872.791 61.9571C872.803 62.391 873.161 62.7332 873.59 62.7212L879.277 62.5627C879.706 62.5507 880.045 62.1892 880.032 61.7552L879.922 57.791C879.91 57.357 879.552 57.0149 879.122 57.0269L873.436 57.1854Z" fill="white"/>
<path fill-rule="evenodd" clip-rule="evenodd" d="M878.694 59.3571L873.993 59.4881L873.989 59.3594L878.69 59.2284L878.694 59.3571Z" fill="white"/>
<path fill-rule="evenodd" clip-rule="evenodd" d="M877.706 60.4141L874.911 60.492L874.907 60.3633L877.702 60.2854L877.706 60.4141Z" fill="white"/>
</g>
<g filter="url(#filter1_d_7110_68794)">
<path d="M721.807 14.3385C721.807 11.9424 723.746 10 726.138 10H809.586C811.978 10 813.917 11.9424 813.917 14.3385V57.724C813.917 60.1201 811.978 62.0625 809.586 62.0625H726.138C723.746 62.0625 721.807 60.1201 721.807 57.724V14.3385Z" fill="white"/>
<path d="M721.807 12.8239C721.807 11.2643 723.099 10 724.694 10H811.03C812.625 10 813.917 11.2643 813.917 12.8239V18.1893C813.917 19.7489 812.625 21.0132 811.03 21.0132H724.694C723.099 21.0132 721.807 19.7489 721.807 18.1893V12.8239Z" fill="#372172"/>
<path d="M752.844 15.5057C752.844 14.6763 753.68 14.0039 754.712 14.0039H809.045C810.077 14.0039 810.914 14.6763 810.914 15.5057V15.5057C810.914 16.3351 810.077 17.0075 809.045 17.0075H754.712C753.68 17.0075 752.844 16.3351 752.844 15.5057V15.5057Z" fill="white"/>
<path d="M757.85 30.0246C757.85 29.4717 758.236 29.0234 758.713 29.0234H808.048C808.525 29.0234 808.911 29.4717 808.911 30.0246V30.0246C808.911 30.5776 808.525 31.0258 808.048 31.0258H758.713C758.236 31.0258 757.85 30.5776 757.85 30.0246V30.0246Z" fill="#56D1E4"/>
<path d="M757.85 37.0325C757.85 36.4795 758.236 36.0312 758.713 36.0312H808.048C808.525 36.0312 808.911 36.4795 808.911 37.0325V37.0325C808.911 37.5854 808.525 38.0337 808.048 38.0337H758.713C758.236 38.0337 757.85 37.5854 757.85 37.0325V37.0325Z" fill="#56D1E4"/>
<path d="M757.85 43.0403C757.85 42.4873 758.236 42.0391 758.713 42.0391H808.048C808.525 42.0391 808.911 42.4873 808.911 43.0403V43.0403C808.911 43.5932 808.525 44.0415 808.048 44.0415H758.713C758.236 44.0415 757.85 43.5932 757.85 43.0403V43.0403Z" fill="#56D1E4"/>
<path d="M757.85 50.0481C757.85 49.4951 758.238 49.0469 758.717 49.0469H797.03C797.509 49.0469 797.898 49.4951 797.898 50.0481V50.0481C797.898 50.601 797.509 51.0493 797.03 51.0493H758.717C758.238 51.0493 757.85 50.601 757.85 50.0481V50.0481Z" fill="#56D1E4"/>
<path d="M729.816 16.0063C729.816 17.1122 728.92 18.0087 727.814 18.0087C726.708 18.0087 725.812 17.1122 725.812 16.0063C725.812 14.9004 726.708 14.0039 727.814 14.0039C728.92 14.0039 729.816 14.9004 729.816 16.0063Z" fill="url(#paint9_linear_7110_68794)"/>
<path d="M735.824 16.0063C735.824 17.1122 734.928 18.0087 733.822 18.0087C732.716 18.0087 731.819 17.1122 731.819 16.0063C731.819 14.9004 732.716 14.0039 733.822 14.0039C734.928 14.0039 735.824 14.9004 735.824 16.0063Z" fill="url(#paint10_linear_7110_68794)"/>
<path d="M741.831 16.0063C741.831 17.1122 740.934 18.0087 739.829 18.0087C738.723 18.0087 737.826 17.1122 737.826 16.0063C737.826 14.9004 738.723 14.0039 739.829 14.0039C740.934 14.0039 741.831 14.9004 741.831 16.0063Z" fill="url(#paint11_linear_7110_68794)"/>
<path d="M726.812 33.6016C726.812 30.5209 729.375 28.0234 732.537 28.0234H749.122C752.283 28.0234 754.846 30.5209 754.846 33.6016V50.479C754.846 53.5597 752.283 56.0571 749.122 56.0571H732.537C729.375 56.0571 726.812 53.5597 726.812 50.479V33.6016Z" fill="#56D1E4"/>
<path d="M726.812 41.5389C726.812 36.6705 732.924 34.2086 736.546 37.6182L743.354 44.0288C744.994 45.5727 747.742 45.0318 748.615 42.993V42.993C749.964 39.8454 754.846 40.7711 754.846 44.1744V51.5045C754.846 54.02 752.721 56.0592 750.1 56.0592H732.537C729.375 56.0592 726.812 53.6 726.812 50.5664V41.5389Z" fill="url(#paint12_linear_7110_68794)"/>
<path d="M746.837 35.0337C746.837 36.1396 745.94 37.0361 744.834 37.0361C743.729 37.0361 742.832 36.1396 742.832 35.0337C742.832 33.9278 743.729 33.0312 744.834 33.0312C745.94 33.0312 746.837 33.9278 746.837 35.0337Z" fill="url(#paint13_linear_7110_68794)"/>
</g>
<g filter="url(#filter2_i_7110_68794)">
<path d="M718.001 65.98C715.343 65.9995 714.815 60.9071 714.884 58.3585C719.278 59.2826 721.654 59.1923 725.742 58.0129C726.124 58.7322 726.613 65.6396 723.295 65.8115C719.977 65.9834 721.324 65.9555 718.001 65.98Z" fill="url(#paint14_linear_7110_68794)"/>
<path d="M718.001 65.98C715.343 65.9995 714.815 60.9071 714.884 58.3585C719.278 59.2826 721.654 59.1923 725.742 58.0129C726.124 58.7322 726.613 65.6396 723.295 65.8115C719.977 65.9834 721.324 65.9555 718.001 65.98Z" fill="url(#paint15_linear_7110_68794)" fill-opacity="0.2"/>
</g>
<g filter="url(#filter3_i_7110_68794)">
<path d="M714.856 58.3853C716.643 57.4856 721.295 56.1575 725.61 58.043C725.633 58.7447 716.925 59.7243 714.856 58.3853Z" fill="#D9D9D9"/>
</g>
<path d="M716.712 50.8111C716.209 48.748 712.694 44.6972 711 42.9297C712.447 44.283 715.599 47.2347 716.629 48.2149C717.659 49.195 719.515 52.2768 720.314 53.6952L719.47 59.0531L718.613 59.0803C718.611 58.2141 718.586 56.2558 718.494 55.3524C718.38 54.2232 717.34 53.39 716.712 50.8111Z" fill="url(#paint16_linear_7110_68794)"/>
<path d="M718.644 51.6686C718.465 49.8624 716.046 46.0016 714.859 44.2969C715.891 45.6208 718.136 48.5076 718.868 49.4641C719.6 50.4206 720.771 53.2562 721.265 54.5544L719.974 58.9775L719.27 58.8939C719.366 58.1616 719.565 56.5033 719.592 55.7285C719.625 54.76 718.868 53.9263 718.644 51.6686Z" fill="url(#paint17_linear_7110_68794)"/>
<path d="M721.556 54.1434C722.321 52.0687 723.958 50.4789 724.68 49.9433C722.417 52.4301 722.197 56.9896 722.37 58.9585L720.484 59.0185L720.752 57.0736C720.701 56.9613 720.791 56.218 721.556 54.1434Z" fill="url(#paint18_linear_7110_68794)"/>
<path d="M721.556 54.1434C722.321 52.0687 723.958 50.4789 724.68 49.9433C722.417 52.4301 722.197 56.9896 722.37 58.9585L720.484 59.0185L720.752 57.0736C720.701 56.9613 720.791 56.218 721.556 54.1434Z" fill="url(#paint19_linear_7110_68794)"/>
<path d="M720.579 51.4339C721.462 48.1937 723.387 45.7233 724.239 44.8931C721.581 48.7609 721.375 55.8997 721.604 58.9855L719.363 59.0569L719.659 56.0138C719.597 55.8373 719.695 54.6742 720.579 51.4339Z" fill="url(#paint20_linear_7110_68794)"/>
<path d="M717.97 51.4766C718.038 48.0882 719.53 44.9661 720.267 43.8286C718.341 48.5635 720.193 55.279 721.36 58.0449L718.803 59.0759L718.253 56.1238C718.13 55.9866 717.902 54.8649 717.97 51.4766Z" fill="url(#paint21_linear_7110_68794)"/>
<path d="M371.955 23.1836C373.069 23.1836 373.962 23.5928 374.636 24.4111C375.315 25.2294 375.655 26.3785 375.655 27.8583C375.655 29.3381 375.338 30.4939 374.704 31.3259C374.069 32.1579 373.153 32.5739 371.955 32.5739C370.868 32.5739 369.99 32.1579 369.324 31.3259C368.663 30.4939 368.333 29.3381 368.333 27.8583C368.333 26.3785 368.644 25.2294 369.265 24.4111C369.893 23.5928 370.79 23.1836 371.955 23.1836ZM371.994 25.6795C371.716 25.6795 371.522 25.8807 371.411 26.283C371.308 26.6785 371.256 27.2172 371.256 27.8992C371.256 28.5675 371.308 29.1062 371.411 29.5154C371.522 29.9177 371.716 30.1189 371.994 30.1189C372.273 30.1189 372.464 29.9211 372.567 29.5256C372.671 29.1233 372.722 28.5811 372.722 27.8992C372.722 27.2172 372.671 26.6785 372.567 26.283C372.464 25.8807 372.273 25.6795 371.994 25.6795ZM382.735 23.3984L374.859 38.3533H371.975L379.851 23.3984H382.735ZM382.754 29.1369C383.868 29.1369 384.761 29.5461 385.435 30.3644C386.114 31.1827 386.454 32.3318 386.454 33.8116C386.454 35.2845 386.137 36.437 385.503 37.269C384.868 38.1009 383.952 38.5169 382.754 38.5169C381.667 38.5169 380.789 38.1009 380.122 37.269C379.462 36.437 379.132 35.2845 379.132 33.8116C379.132 32.3318 379.443 31.1827 380.064 30.3644C380.692 29.5461 381.589 29.1369 382.754 29.1369ZM382.793 31.6328C382.515 31.6328 382.32 31.834 382.21 32.2363C382.107 32.6318 382.055 33.1705 382.055 33.8525C382.055 34.5208 382.107 35.0595 382.21 35.4687C382.32 35.871 382.515 36.0722 382.793 36.0722C383.071 36.0722 383.262 35.8744 383.366 35.4789C383.476 35.0766 383.531 34.5344 383.531 33.8525C383.531 33.1433 383.476 32.5977 383.366 32.2158C383.262 31.8271 383.071 31.6328 382.793 31.6328Z" fill="white"/>
<path d="M31 31.8654H38.2063C41.1925 31.8654 43.3214 32.2992 44.5931 33.167C45.8649 34.0347 46.5007 35.281 46.5007 36.9057C46.5007 37.7919 46.3359 38.5443 46.0062 39.1628C45.6859 39.7813 45.2761 40.2705 44.7768 40.6306C44.287 40.9906 43.783 41.2352 43.2649 41.3645V41.5029C43.8301 41.6414 44.3906 41.8722 44.9464 42.1953C45.5116 42.5091 45.9779 42.9846 46.3453 43.6215C46.7221 44.2493 46.9105 45.1032 46.9105 46.1832C46.9105 47.411 46.5902 48.468 45.9496 49.3542C45.3185 50.2404 44.4142 50.9236 43.2367 51.4036C42.0592 51.8744 40.6603 52.1098 39.04 52.1098H31V31.8654ZM36.5814 39.6336H38.2629C39.186 39.6336 39.836 39.4489 40.2128 39.0797C40.5896 38.7012 40.778 38.2442 40.778 37.7088C40.778 37.1549 40.5614 36.7349 40.128 36.4487C39.7041 36.1533 39.0447 36.0056 38.1498 36.0056H36.5814V39.6336ZM36.5814 43.6354V47.8864H38.5455C39.5157 47.8864 40.194 47.6833 40.5802 47.2772C40.9664 46.8617 41.1595 46.3448 41.1595 45.7263C41.1595 45.3663 41.0748 45.0293 40.9052 44.7154C40.7451 44.3923 40.4672 44.1339 40.0715 43.94C39.6759 43.7369 39.1295 43.6354 38.4324 43.6354H36.5814Z" fill="white"/>
<path d="M62.7644 52.1098H50.4995V31.8654H62.7644V36.2549H56.0809V39.4397H62.2699V43.8292H56.0809V47.651H62.7644V52.1098Z" fill="white"/>
<path d="M79.8901 45.9617C79.8901 47.0602 79.6075 48.1034 79.0423 49.0911C78.4771 50.0697 77.5963 50.8636 76.4 51.4728C75.2131 52.0821 73.6776 52.3867 71.7936 52.3867C70.8516 52.3867 70.0226 52.3452 69.3067 52.2621C68.6002 52.179 67.9408 52.0452 67.3285 51.8605C66.7162 51.6667 66.0803 51.4174 65.4209 51.1128V46.2386C66.5419 46.7925 67.6723 47.2172 68.8121 47.5126C69.952 47.7987 70.9835 47.9418 71.9066 47.9418C72.4624 47.9418 72.9146 47.8772 73.2631 47.748C73.6211 47.6187 73.8848 47.4433 74.0544 47.2218C74.224 46.991 74.3087 46.7279 74.3087 46.4325C74.3087 46.0817 74.1816 45.7863 73.9272 45.5463C73.6823 45.297 73.2867 45.0385 72.7403 44.7708C72.1939 44.5031 71.4733 44.1708 70.5784 43.7738C69.8154 43.4231 69.123 43.063 68.5013 42.6938C67.889 42.3245 67.3614 41.9045 66.9187 41.4337C66.4854 40.9537 66.151 40.3952 65.9155 39.7582C65.68 39.1212 65.5622 38.3689 65.5622 37.5011C65.5622 36.1995 65.8872 35.1102 66.5372 34.2332C67.1966 33.347 68.1103 32.6823 69.2784 32.2392C70.4559 31.7961 71.8124 31.5746 73.3479 31.5746C74.695 31.5746 75.9054 31.7223 76.9793 32.0177C78.0626 32.3131 79.0329 32.65 79.8901 33.0285L78.1804 37.2519C77.2949 36.8549 76.4235 36.5411 75.5663 36.3103C74.7091 36.0703 73.9131 35.9502 73.1783 35.9502C72.6979 35.9502 72.3023 36.0103 71.9914 36.1303C71.69 36.241 71.4639 36.3934 71.3132 36.5872C71.1719 36.7811 71.1012 37.0026 71.1012 37.2519C71.1012 37.5657 71.2237 37.8473 71.4686 38.0965C71.7229 38.3458 72.1421 38.6181 72.7262 38.9135C73.3196 39.1997 74.125 39.5736 75.1424 40.0351C76.1504 40.4782 77.0076 40.9583 77.7141 41.4752C78.4206 41.983 78.9575 42.5968 79.3249 43.3169C79.7017 44.0277 79.8901 44.9093 79.8901 45.9617Z" fill="white"/>
<path d="M92.1974 52.1098H86.616V36.338H81.5716V31.8654H97.2277V36.338H92.1974V52.1098Z" fill="white"/>
<path d="M127.028 41.9599C127.028 43.52 126.835 44.9416 126.449 46.2248C126.072 47.4987 125.479 48.5972 124.668 49.5204C123.858 50.4435 122.817 51.1543 121.546 51.6528C120.274 52.1421 118.753 52.3867 116.982 52.3867C115.248 52.3867 113.746 52.1421 112.474 51.6528C111.212 51.1543 110.171 50.4481 109.351 49.5342C108.532 48.6111 107.924 47.5079 107.529 46.2248C107.133 44.9416 106.935 43.5108 106.935 41.9322C106.935 39.8274 107.288 37.9996 107.995 36.4487C108.711 34.8886 109.813 33.6839 111.301 32.8347C112.79 31.9761 114.693 31.5469 117.01 31.5469C119.365 31.5469 121.277 31.9761 122.747 32.8347C124.226 33.6932 125.309 34.9025 125.997 36.4626C126.684 38.0227 127.028 39.8551 127.028 41.9599ZM112.813 41.9599C112.813 43.1784 112.955 44.2262 113.237 45.1032C113.52 45.9801 113.967 46.654 114.579 47.1248C115.192 47.5956 115.993 47.831 116.982 47.831C118.008 47.831 118.823 47.5956 119.426 47.1248C120.038 46.654 120.476 45.9801 120.74 45.1032C121.013 44.2262 121.15 43.1784 121.15 41.9599C121.15 40.1321 120.839 38.6874 120.217 37.6257C119.596 36.5641 118.527 36.0333 117.01 36.0333C116.002 36.0333 115.187 36.2733 114.565 36.7534C113.953 37.2334 113.506 37.9165 113.223 38.8027C112.95 39.689 112.813 40.7413 112.813 41.9599Z" fill="white"/>
<path d="M136.255 52.1098H130.758V31.8654H142.967V36.2549H136.255V40.1182H142.444V44.5077H136.255V52.1098Z" fill="white"/>
<path d="M151.855 52.1098H146.358V31.8654H158.566V36.2549H151.855V40.1182H158.044V44.5077H151.855V52.1098Z" fill="white"/>
<path d="M174.223 52.1098H161.958V31.8654H174.223V36.2549H167.539V39.4397H173.728V43.8292H167.539V47.651H174.223V52.1098Z" fill="white"/>
<path d="M184.608 31.8654C186.483 31.8654 188.042 32.0915 189.285 32.5439C190.529 32.987 191.461 33.6516 192.083 34.5378C192.714 35.4241 193.03 36.5272 193.03 37.8473C193.03 38.6689 192.888 39.4166 192.606 40.0905C192.323 40.7644 191.918 41.3691 191.391 41.9045C190.873 42.4307 190.251 42.8922 189.526 43.2892L195.545 52.1098H189.215L184.834 44.7431H183.421V52.1098H177.84V31.8654H184.608ZM184.523 36.0056H183.421V40.6306H184.467C185.324 40.6306 186.026 40.4459 186.572 40.0767C187.119 39.7074 187.392 39.0474 187.392 38.0965C187.392 37.4411 187.166 36.9288 186.714 36.5595C186.261 36.1903 185.531 36.0056 184.523 36.0056Z" fill="white"/>
<path d="M201.734 44.9647H197.071L196.35 31.8654H202.455L201.734 44.9647ZM196.407 49.8112C196.407 48.8326 196.699 48.1449 197.283 47.748C197.876 47.351 198.578 47.1525 199.388 47.1525C200.189 47.1525 200.877 47.351 201.451 47.748C202.026 48.1449 202.313 48.8326 202.313 49.8112C202.313 50.7435 202.026 51.4174 201.451 51.8328C200.877 52.2483 200.189 52.456 199.388 52.456C198.578 52.456 197.876 52.2483 197.283 51.8328C196.699 51.4174 196.407 50.7435 196.407 49.8112Z" fill="white"/>
<path d="M237.704 33.0004C237.704 33.998 237.517 34.8274 237.143 35.4885C236.77 36.1496 236.242 36.6465 235.562 36.979C234.885 37.3076 234.088 37.4719 233.172 37.4719H230.38V28.8928H233.366C234.295 28.8928 235.082 29.0512 235.727 29.3681C236.372 29.685 236.862 30.1485 237.196 30.7588C237.535 31.3691 237.704 32.1163 237.704 33.0004ZM235.284 33.0826C235.284 32.5623 235.214 32.132 235.072 31.7916C234.934 31.4474 234.726 31.1911 234.446 31.0229C234.167 30.8508 233.815 30.7647 233.39 30.7647H232.711V35.5707H233.231C233.939 35.5707 234.458 35.3672 234.789 34.9604C235.119 34.5496 235.284 33.9237 235.284 33.0826Z" fill="white"/>
<path d="M239.256 37.4719V28.8928H241.599V37.4719H239.256Z" fill="white"/>
<path d="M249.112 34.8665C249.112 35.332 248.994 35.7741 248.758 36.1927C248.521 36.6074 248.154 36.9438 247.654 37.202C247.158 37.4602 246.517 37.5893 245.73 37.5893C245.337 37.5893 244.99 37.5717 244.691 37.5365C244.396 37.5013 244.121 37.4445 243.865 37.3663C243.609 37.2841 243.344 37.1785 243.068 37.0494V34.9839C243.537 35.2186 244.009 35.3985 244.485 35.5237C244.961 35.645 245.392 35.7056 245.777 35.7056C246.009 35.7056 246.198 35.6782 246.344 35.6235C246.493 35.5687 246.604 35.4944 246.674 35.4005C246.745 35.3027 246.781 35.1912 246.781 35.066C246.781 34.9173 246.727 34.7922 246.621 34.6904C246.519 34.5848 246.354 34.4753 246.125 34.3618C245.897 34.2484 245.596 34.1076 245.223 33.9393C244.904 33.7907 244.615 33.6381 244.355 33.4816C244.099 33.3251 243.879 33.1471 243.694 32.9476C243.513 32.7442 243.373 32.5075 243.275 32.2376C243.177 31.9677 243.128 31.6488 243.128 31.2811C243.128 30.7295 243.263 30.2679 243.535 29.8962C243.81 29.5207 244.192 29.239 244.68 29.0512C245.171 28.8634 245.738 28.7695 246.379 28.7695C246.942 28.7695 247.447 28.8321 247.896 28.9573C248.348 29.0825 248.754 29.2253 249.112 29.3857L248.398 31.1755C248.028 31.0072 247.664 30.8742 247.306 30.7764C246.948 30.6747 246.615 30.6239 246.308 30.6239C246.108 30.6239 245.943 30.6493 245.813 30.7001C245.687 30.7471 245.592 30.8116 245.529 30.8938C245.47 30.9759 245.441 31.0698 245.441 31.1755C245.441 31.3085 245.492 31.4278 245.594 31.5334C245.701 31.639 245.876 31.7544 246.12 31.8796C246.367 32.0009 246.704 32.1593 247.129 32.355C247.55 32.5427 247.908 32.7462 248.203 32.9652C248.498 33.1804 248.722 33.4405 248.876 33.7457C249.033 34.0469 249.112 34.4205 249.112 34.8665Z" fill="white"/>
<path d="M254.287 30.6708C254.012 30.6708 253.766 30.7295 253.55 30.8469C253.333 30.9603 253.148 31.1266 252.995 31.3456C252.841 31.5647 252.723 31.8327 252.641 32.1496C252.562 32.4625 252.523 32.8185 252.523 33.2176C252.523 33.7574 252.592 34.2112 252.729 34.579C252.867 34.9467 253.076 35.2244 253.355 35.4122C253.638 35.6 253.992 35.6939 254.417 35.6939C254.803 35.6939 255.173 35.6411 255.527 35.5355C255.885 35.4298 256.245 35.3027 256.607 35.154V37.114C256.225 37.2822 255.833 37.4035 255.432 37.4778C255.035 37.5521 254.612 37.5893 254.163 37.5893C253.227 37.5893 252.46 37.4054 251.862 37.0377C251.268 36.666 250.829 36.1516 250.546 35.4944C250.266 34.8372 250.127 34.0743 250.127 33.2058C250.127 32.5564 250.217 31.9618 250.398 31.4219C250.583 30.8821 250.853 30.4146 251.207 30.0195C251.561 29.6204 251.997 29.3133 252.517 29.0982C253.04 28.8791 253.638 28.7695 254.311 28.7695C254.728 28.7695 255.167 28.8184 255.627 28.9163C256.091 29.0101 256.544 29.1627 256.984 29.374L256.27 31.1989C255.955 31.0503 255.637 30.9251 255.314 30.8234C254.992 30.7217 254.649 30.6708 254.287 30.6708Z" fill="white"/>
<path d="M266.368 33.1706C266.368 33.8318 266.287 34.4342 266.126 34.978C265.968 35.5179 265.72 35.9834 265.382 36.3746C265.044 36.7658 264.609 37.067 264.078 37.2783C263.547 37.4856 262.911 37.5893 262.172 37.5893C261.448 37.5893 260.82 37.4856 260.289 37.2783C259.762 37.067 259.327 36.7678 258.985 36.3805C258.643 35.9893 258.389 35.5218 258.224 34.978C258.058 34.4342 257.976 33.8278 257.976 33.1589C257.976 32.2669 258.123 31.4923 258.418 30.8351C258.717 30.174 259.178 29.6635 259.799 29.3035C260.421 28.9397 261.216 28.7578 262.184 28.7578C263.167 28.7578 263.966 28.9397 264.58 29.3035C265.197 29.6674 265.65 30.1798 265.937 30.841C266.224 31.5021 266.368 32.2787 266.368 33.1706ZM260.431 33.1706C260.431 33.687 260.49 34.131 260.608 34.5027C260.726 34.8743 260.913 35.1599 261.168 35.3594C261.424 35.5589 261.759 35.6587 262.172 35.6587C262.601 35.6587 262.941 35.5589 263.193 35.3594C263.448 35.1599 263.631 34.8743 263.742 34.5027C263.856 34.131 263.913 33.687 263.913 33.1706C263.913 32.396 263.783 31.7838 263.523 31.3339C263.263 30.884 262.817 30.6591 262.184 30.6591C261.763 30.6591 261.422 30.7608 261.163 30.9642C260.907 31.1676 260.72 31.4571 260.602 31.8327C260.488 32.2082 260.431 32.6542 260.431 33.1706Z" fill="white"/>
<path d="M275.261 28.8928V34.0567C275.261 34.7765 275.124 35.4024 274.848 35.9345C274.573 36.4626 274.16 36.8714 273.609 37.1609C273.058 37.4465 272.368 37.5893 271.537 37.5893C270.349 37.5893 269.442 37.2861 268.817 36.6797C268.191 36.0734 267.878 35.2166 267.878 34.1095V28.8928H270.221V33.9276C270.221 34.534 270.335 34.9741 270.564 35.2479C270.792 35.5218 271.128 35.6587 271.573 35.6587C271.892 35.6587 272.151 35.6 272.352 35.4826C272.552 35.3614 272.698 35.1716 272.789 34.9134C272.883 34.6552 272.93 34.3227 272.93 33.9159V28.8928H275.261Z" fill="white"/>
<path d="M285.288 37.4719H282.231L279.08 31.4278H279.026C279.046 31.6117 279.064 31.8327 279.08 32.0909C279.095 32.3491 279.109 32.6131 279.121 32.8831C279.133 33.1491 279.139 33.3897 279.139 33.6049V37.4719H277.073V28.8928H280.118L283.258 34.8548H283.293C283.281 34.667 283.27 34.4499 283.258 34.2034C283.246 33.953 283.234 33.7007 283.222 33.4464C283.215 33.1921 283.211 32.9672 283.211 32.7716V28.8928H285.288V37.4719Z" fill="white"/>
<path d="M290.959 37.4719H288.628V30.7882H286.521V28.8928H293.06V30.7882H290.959V37.4719Z" fill="white"/>
<path d="M237.716 45.1522V50.3161C237.716 51.036 237.578 51.6619 237.303 52.1939C237.027 52.7221 236.614 53.1309 236.063 53.4204C235.513 53.7059 234.822 53.8487 233.992 53.8487C232.804 53.8487 231.897 53.5455 231.271 52.9392C230.646 52.3328 230.333 51.4761 230.333 50.3689V45.1522H232.676V50.187C232.676 50.7934 232.79 51.2335 233.018 51.5074C233.246 51.7812 233.583 51.9181 234.027 51.9181C234.346 51.9181 234.606 51.8594 234.806 51.7421C235.007 51.6208 235.153 51.4311 235.243 51.1729C235.337 50.9147 235.385 50.5822 235.385 50.1753V45.1522H237.716Z" fill="white"/>
<path d="M242.514 45.1522C243.607 45.1522 244.426 45.3889 244.969 45.8623C245.516 46.3356 245.789 47.0085 245.789 47.8809C245.789 48.2721 245.732 48.6476 245.618 49.0076C245.508 49.3675 245.325 49.6882 245.069 49.9699C244.817 50.2516 244.481 50.4746 244.06 50.6389C243.643 50.8032 243.128 50.8853 242.514 50.8853H241.859V53.7314H239.528V45.1522H242.514ZM242.461 47.0241H241.859V48.9958H242.319C242.52 48.9958 242.707 48.9626 242.88 48.8961C243.053 48.8256 243.19 48.7141 243.293 48.5616C243.399 48.4051 243.452 48.1978 243.452 47.9396C243.452 47.6696 243.371 47.4506 243.21 47.2823C243.049 47.1102 242.799 47.0241 242.461 47.0241Z" fill="white"/>
<path d="M254.11 53.7314H251.779V47.0476H249.672V45.1522H256.211V47.0476H254.11V53.7314Z" fill="white"/>
<path d="M265.518 49.4301C265.518 50.0912 265.437 50.6936 265.276 51.2374C265.119 51.7773 264.871 52.2428 264.532 52.634C264.194 53.0252 263.759 53.3265 263.228 53.5377C262.697 53.7451 262.062 53.8487 261.322 53.8487C260.598 53.8487 259.97 53.7451 259.439 53.5377C258.912 53.3265 258.477 53.0272 258.135 52.6399C257.793 52.2487 257.539 51.7812 257.374 51.2374C257.209 50.6936 257.126 50.0873 257.126 49.4183C257.126 48.5264 257.273 47.7518 257.569 47.0946C257.868 46.4334 258.328 45.9229 258.949 45.563C259.571 45.1992 260.366 45.0173 261.334 45.0173C262.317 45.0173 263.116 45.1992 263.73 45.563C264.347 45.9268 264.8 46.4393 265.087 47.1004C265.374 47.7616 265.518 48.5381 265.518 49.4301ZM259.581 49.4301C259.581 49.9464 259.64 50.3905 259.758 50.7621C259.876 51.1338 260.063 51.4193 260.319 51.6188C260.574 51.8184 260.909 51.9181 261.322 51.9181C261.751 51.9181 262.091 51.8184 262.343 51.6188C262.599 51.4193 262.782 51.1338 262.892 50.7621C263.006 50.3905 263.063 49.9464 263.063 49.4301C263.063 48.6555 262.933 48.0432 262.673 47.5933C262.414 47.1435 261.967 46.9185 261.334 46.9185C260.913 46.9185 260.572 47.0202 260.313 47.2237C260.057 47.4271 259.87 47.7166 259.752 48.0921C259.638 48.4677 259.581 48.9137 259.581 49.4301Z" fill="white"/>
<path d="M329.953 55.5951H324.913V64.3792H312.704V55.5951H294.454V46.5938L313.487 19H324.913V46.4386H329.953V55.5951ZM312.704 46.4386V41.1619C312.704 40.686 312.715 40.0859 312.736 39.3617C312.756 38.6374 312.777 37.9132 312.798 37.1889C312.84 36.444 312.871 35.8232 312.892 35.3266C312.934 34.8093 312.965 34.5299 312.986 34.4885H312.642C312.245 35.4197 311.88 36.1957 311.546 36.8165C311.212 37.4166 310.774 38.1305 310.231 38.9582L305.16 46.4386H312.704Z" fill="#FFE15B"/>
<path d="M351.709 34.6437C354.255 34.6437 356.571 35.2128 358.658 36.3509C360.745 37.489 362.415 39.1444 363.667 41.3171C364.919 43.4899 365.545 46.1386 365.545 49.2632C365.545 52.6361 364.856 55.502 363.479 57.861C362.122 60.1993 360.067 61.9789 357.312 63.1997C354.578 64.3999 351.124 65 346.951 65C344.3 65 341.879 64.7931 339.688 64.3792C337.518 63.9861 335.577 63.3756 333.866 62.5479V52.4912C335.473 53.2155 337.403 53.8776 339.657 54.4777C341.932 55.0571 344.018 55.3468 345.918 55.3468C347.441 55.3468 348.735 55.1296 349.799 54.695C350.864 54.2605 351.667 53.619 352.21 52.7706C352.773 51.9222 353.055 50.8772 353.055 49.6356C353.055 47.9181 352.429 46.5731 351.177 45.6005C349.924 44.6073 348.025 44.1107 345.479 44.1107C344.331 44.1107 343.205 44.2245 342.098 44.4521C340.992 44.6797 340.022 44.928 339.187 45.197L334.648 42.9622L336.37 19H362.477V29.2119H346.888L346.324 35.2024C346.992 35.0783 347.671 34.9541 348.359 34.83C349.069 34.7058 350.185 34.6437 351.709 34.6437Z" fill="#FFE15B"/>
<path d="M421.53 34.9155C421.53 35.6665 421.389 36.2909 421.107 36.7887C420.825 37.2865 420.426 37.6605 419.913 37.9109C419.402 38.1583 418.8 38.282 418.108 38.282H416V31.8228H418.255C418.956 31.8228 419.55 31.9421 420.037 32.1807C420.525 32.4193 420.894 32.7683 421.147 33.2278C421.402 33.6872 421.53 34.2498 421.53 34.9155ZM419.703 34.9773C419.703 34.5856 419.65 34.2616 419.543 34.0053C419.439 33.7461 419.281 33.5532 419.07 33.4266C418.859 33.297 418.594 33.2322 418.273 33.2322H417.76V36.8506H418.152C418.687 36.8506 419.079 36.6974 419.329 36.3911C419.578 36.0818 419.703 35.6106 419.703 34.9773Z" fill="white"/>
<path d="M424.351 33.2764V38.282H422.609V33.2764H424.351ZM423.486 31.2617C423.736 31.2617 423.953 31.3133 424.137 31.4164C424.324 31.5194 424.418 31.7241 424.418 32.0305C424.418 32.3279 424.324 32.5297 424.137 32.6357C423.953 32.7388 423.736 32.7904 423.486 32.7904C423.231 32.7904 423.013 32.7388 422.831 32.6357C422.653 32.5297 422.564 32.3279 422.564 32.0305C422.564 31.7241 422.653 31.5194 422.831 31.4164C423.013 31.3133 423.231 31.2617 423.486 31.2617Z" fill="white"/>
<path d="M429.32 36.7445C429.32 37.0626 429.248 37.3439 429.106 37.5884C428.963 37.8329 428.734 38.0243 428.419 38.1627C428.107 38.3012 427.696 38.3704 427.185 38.3704C426.826 38.3704 426.503 38.3512 426.218 38.3129C425.936 38.2747 425.649 38.201 425.358 38.092V36.7092C425.676 36.8535 426 36.9581 426.329 37.0229C426.659 37.0847 426.919 37.1157 427.109 37.1157C427.305 37.1157 427.448 37.095 427.537 37.0538C427.629 37.0096 427.675 36.9448 427.675 36.8594C427.675 36.7858 427.644 36.7239 427.582 36.6738C427.522 36.6208 427.414 36.5605 427.256 36.4927C427.102 36.425 426.884 36.3337 426.601 36.2188C426.322 36.1039 426.089 35.9787 425.902 35.8433C425.717 35.7078 425.579 35.5458 425.487 35.3573C425.395 35.1688 425.349 34.9375 425.349 34.6636C425.349 34.1747 425.539 33.8065 425.92 33.5591C426.3 33.3117 426.803 33.188 427.43 33.188C427.763 33.188 428.076 33.2248 428.37 33.2984C428.665 33.3691 428.969 33.4737 429.284 33.6121L428.807 34.7255C428.558 34.6136 428.305 34.5237 428.05 34.456C427.794 34.3882 427.591 34.3544 427.439 34.3544C427.302 34.3544 427.197 34.372 427.123 34.4074C427.048 34.4427 427.011 34.4943 427.011 34.562C427.011 34.6239 427.037 34.6784 427.087 34.7255C427.141 34.7726 427.24 34.8271 427.386 34.8889C427.531 34.9508 427.744 35.0377 428.023 35.1496C428.317 35.2674 428.559 35.3941 428.749 35.5296C428.942 35.6621 429.085 35.8241 429.177 36.0156C429.272 36.207 429.32 36.45 429.32 36.7445Z" fill="white"/>
<path d="M432.59 38.3704C432.079 38.3704 431.635 38.2805 431.258 38.1009C430.881 37.9183 430.588 37.6385 430.38 37.2614C430.175 36.8815 430.073 36.3955 430.073 35.8035C430.073 35.1967 430.187 34.7004 430.416 34.3146C430.648 33.9288 430.964 33.6445 431.365 33.4619C431.766 33.2793 432.221 33.188 432.729 33.188C433.038 33.188 433.33 33.2219 433.606 33.2896C433.886 33.3574 434.144 33.4501 434.382 33.5679L433.869 34.8448C433.661 34.7535 433.467 34.6813 433.286 34.6283C433.107 34.5723 432.922 34.5443 432.729 34.5443C432.553 34.5443 432.399 34.59 432.265 34.6813C432.131 34.7726 432.027 34.911 431.953 35.0966C431.879 35.2792 431.842 35.5119 431.842 35.7947C431.842 36.0833 431.879 36.316 431.953 36.4927C432.03 36.6694 432.136 36.7976 432.27 36.8771C432.406 36.9566 432.562 36.9964 432.737 36.9964C432.99 36.9964 433.241 36.9581 433.491 36.8815C433.743 36.802 433.982 36.693 434.208 36.5546V37.9286C434 38.0641 433.765 38.1716 433.504 38.2511C433.243 38.3306 432.938 38.3704 432.59 38.3704Z" fill="white"/>
<path d="M440.032 35.7681C440.032 36.1864 439.974 36.5575 439.859 36.8815C439.743 37.2055 439.575 37.4779 439.355 37.6988C439.135 37.9197 438.869 38.0876 438.557 38.2025C438.245 38.3144 437.893 38.3704 437.501 38.3704C437.136 38.3704 436.8 38.3144 436.494 38.2025C436.191 38.0876 435.927 37.9197 435.701 37.6988C435.475 37.4779 435.3 37.2055 435.175 36.8815C435.053 36.5575 434.992 36.1864 434.992 35.7681C434.992 35.2144 435.093 34.7461 435.295 34.3632C435.5 33.9803 435.791 33.6887 436.169 33.4884C436.549 33.2881 437.002 33.188 437.528 33.188C438.012 33.188 438.443 33.2881 438.82 33.4884C439.197 33.6887 439.493 33.9803 439.707 34.3632C439.924 34.7461 440.032 35.2144 440.032 35.7681ZM436.761 35.7681C436.761 36.0538 436.787 36.2954 436.837 36.4927C436.888 36.6871 436.968 36.8358 437.078 36.9389C437.191 37.0391 437.338 37.0891 437.519 37.0891C437.7 37.0891 437.844 37.0391 437.951 36.9389C438.058 36.8358 438.135 36.6871 438.183 36.4927C438.233 36.2954 438.259 36.0538 438.259 35.7681C438.259 35.4824 438.233 35.2439 438.183 35.0524C438.135 34.861 438.057 34.7166 437.947 34.6194C437.84 34.5223 437.694 34.4737 437.51 34.4737C437.246 34.4737 437.054 34.5826 436.935 34.8006C436.819 35.0185 436.761 35.3411 436.761 35.7681Z" fill="white"/>
<path d="M445.941 33.2764V38.282H444.627L444.408 37.6591H444.306C444.202 37.827 444.07 37.9639 443.909 38.07C443.752 38.173 443.576 38.2482 443.383 38.2953C443.19 38.3453 442.99 38.3704 442.782 38.3704C442.452 38.3704 442.153 38.3071 441.886 38.1804C441.622 38.0538 441.411 37.8549 441.253 37.584C441.099 37.313 441.022 36.964 441.022 36.5369V33.2764H442.764V36.0111C442.764 36.3351 442.81 36.5825 442.902 36.7534C442.997 36.9213 443.152 37.0052 443.366 37.0052C443.585 37.0052 443.755 36.9463 443.874 36.8285C443.995 36.7107 444.08 36.5369 444.128 36.3071C444.175 36.0774 444.199 35.7976 444.199 35.4677V33.2764H445.941Z" fill="white"/>
<path d="M450.304 33.188C450.824 33.188 451.249 33.3338 451.578 33.6254C451.908 33.917 452.073 34.3838 452.073 35.0259V38.282H450.331V35.5517C450.331 35.2188 450.282 34.9685 450.184 34.8006C450.088 34.6298 449.934 34.5443 449.72 34.5443C449.39 34.5443 449.169 34.6784 449.056 34.9464C448.943 35.2115 448.887 35.5929 448.887 36.0907V38.282H447.144V33.2764H448.459L448.695 33.9391H448.762C448.869 33.78 448.997 33.6445 449.145 33.5326C449.294 33.4207 449.465 33.3353 449.658 33.2764C449.851 33.2174 450.066 33.188 450.304 33.188Z" fill="white"/>
<path d="M455.731 37.0052C455.889 37.0052 456.033 36.989 456.164 36.9566C456.294 36.9242 456.431 36.883 456.574 36.8329V38.092C456.384 38.1745 456.182 38.2408 455.968 38.2909C455.757 38.3439 455.486 38.3704 455.157 38.3704C454.83 38.3704 454.542 38.3203 454.292 38.2202C454.043 38.1171 453.848 37.9404 453.708 37.69C453.572 37.4367 453.503 37.0847 453.503 36.6341V34.5708H452.893V33.8684L453.668 33.325L454.118 32.2735H455.259V33.2764H456.498V34.5708H455.259V36.5192C455.259 36.6812 455.301 36.8034 455.384 36.8859C455.467 36.9654 455.583 37.0052 455.731 37.0052Z" fill="white"/>
<path d="M462.91 33.188C463.469 33.188 463.907 33.4104 464.225 33.8551C464.543 34.2969 464.702 34.9346 464.702 35.7681C464.702 36.3366 464.622 36.8152 464.461 37.204C464.301 37.5899 464.081 37.8815 463.802 38.0788C463.525 38.2732 463.21 38.3704 462.857 38.3704C462.619 38.3704 462.417 38.3409 462.251 38.282C462.088 38.2231 461.951 38.1495 461.841 38.0611C461.734 37.9728 461.643 37.8829 461.569 37.7916H461.516C461.53 37.9065 461.542 38.0302 461.551 38.1627C461.563 38.2953 461.569 38.4499 461.569 38.6266V40.4557H459.827V33.2764H461.244L461.489 33.9126H461.569C461.652 33.783 461.753 33.6637 461.872 33.5547C461.991 33.4428 462.135 33.3544 462.304 33.2896C462.477 33.2219 462.679 33.188 462.91 33.188ZM462.255 34.5443C462.086 34.5443 461.952 34.5841 461.854 34.6636C461.756 34.7432 461.685 34.8639 461.64 35.0259C461.599 35.185 461.575 35.3838 461.569 35.6223V35.7593C461.569 36.0244 461.59 36.2482 461.632 36.4309C461.673 36.6105 461.744 36.7475 461.845 36.8417C461.946 36.933 462.086 36.9787 462.264 36.9787C462.41 36.9787 462.532 36.9375 462.63 36.855C462.728 36.7725 462.802 36.6414 462.853 36.4618C462.903 36.2821 462.928 36.045 462.928 35.7505C462.928 35.3116 462.87 35.0009 462.754 34.8183C462.642 34.6356 462.475 34.5443 462.255 34.5443Z" fill="white"/>
<path d="M467.973 33.188C468.463 33.188 468.886 33.2734 469.243 33.4442C469.599 33.6121 469.874 33.8654 470.067 34.2041C470.26 34.5429 470.357 34.967 470.357 35.4766V36.2453H467.242C467.257 36.5074 467.355 36.7224 467.536 36.8903C467.72 37.0582 467.991 37.1422 468.347 37.1422C468.662 37.1422 468.95 37.1112 469.212 37.0494C469.476 36.9875 469.748 36.8918 470.027 36.7622V38.0037C469.783 38.1303 469.517 38.2231 469.229 38.282C468.941 38.3409 468.577 38.3704 468.138 38.3704C467.63 38.3704 467.175 38.2805 466.774 38.1009C466.373 37.9212 466.057 37.6429 465.825 37.2659C465.596 36.8889 465.482 36.4043 465.482 35.8123C465.482 35.2115 465.586 34.7181 465.794 34.3323C466.002 33.9435 466.293 33.6563 466.667 33.4708C467.041 33.2822 467.477 33.188 467.973 33.188ZM468.035 34.3632C467.83 34.3632 467.658 34.428 467.518 34.5576C467.381 34.6842 467.301 34.8845 467.278 35.1585H468.775C468.772 35.0112 468.742 34.8772 468.686 34.7564C468.629 34.6356 468.546 34.5399 468.436 34.4692C468.329 34.3985 468.195 34.3632 468.035 34.3632Z" fill="white"/>
<path d="M474.39 33.188C474.485 33.188 474.584 33.1954 474.688 33.2101C474.792 33.2219 474.869 33.2322 474.92 33.241L474.764 34.8713C474.707 34.8566 474.635 34.8448 474.546 34.8359C474.456 34.8242 474.332 34.8183 474.171 34.8183C474.061 34.8183 473.944 34.8286 473.819 34.8492C473.694 34.8698 473.576 34.914 473.463 34.9817C473.353 35.0465 473.262 35.1467 473.191 35.2822C473.12 35.4147 473.084 35.5944 473.084 35.8212V38.282H471.342V33.2764H472.638L472.91 34.076H472.995C473.087 33.9111 473.204 33.7623 473.347 33.6298C473.492 33.4943 473.654 33.3868 473.833 33.3073C474.014 33.2278 474.199 33.188 474.39 33.188Z" fill="white"/>
<path d="M477.38 33.2764V38.282H475.637V33.2764H477.38ZM476.515 31.2617C476.765 31.2617 476.982 31.3133 477.166 31.4164C477.353 31.5194 477.447 31.7241 477.447 32.0305C477.447 32.3279 477.353 32.5297 477.166 32.6357C476.982 32.7388 476.765 32.7904 476.515 32.7904C476.26 32.7904 476.041 32.7388 475.86 32.6357C475.682 32.5297 475.593 32.3279 475.593 32.0305C475.593 31.7241 475.682 31.5194 475.86 31.4164C476.041 31.3133 476.26 31.2617 476.515 31.2617Z" fill="white"/>
<path d="M483.418 35.7681C483.418 36.1864 483.36 36.5575 483.244 36.8815C483.128 37.2055 482.96 37.4779 482.741 37.6988C482.521 37.9197 482.255 38.0876 481.943 38.2025C481.631 38.3144 481.279 38.3704 480.887 38.3704C480.521 38.3704 480.186 38.3144 479.88 38.2025C479.577 38.0876 479.312 37.9197 479.086 37.6988C478.861 37.4779 478.685 37.2055 478.561 36.8815C478.439 36.5575 478.378 36.1864 478.378 35.7681C478.378 35.2144 478.479 34.7461 478.681 34.3632C478.886 33.9803 479.177 33.6887 479.554 33.4884C479.935 33.2881 480.388 33.188 480.913 33.188C481.398 33.188 481.828 33.2881 482.206 33.4884C482.583 33.6887 482.879 33.9803 483.093 34.3632C483.309 34.7461 483.418 35.2144 483.418 35.7681ZM480.147 35.7681C480.147 36.0538 480.172 36.2954 480.223 36.4927C480.273 36.6871 480.353 36.8358 480.463 36.9389C480.576 37.0391 480.723 37.0891 480.905 37.0891C481.086 37.0891 481.23 37.0391 481.337 36.9389C481.444 36.8358 481.521 36.6871 481.569 36.4927C481.619 36.2954 481.644 36.0538 481.644 35.7681C481.644 35.4824 481.619 35.2439 481.569 35.0524C481.521 34.861 481.442 34.7166 481.332 34.6194C481.225 34.5223 481.08 34.4737 480.896 34.4737C480.631 34.4737 480.44 34.5826 480.321 34.8006C480.205 35.0185 480.147 35.3411 480.147 35.7681Z" fill="white"/>
<path d="M485.985 38.3704C485.465 38.3704 485.037 38.151 484.701 37.7121C484.366 37.2732 484.198 36.6311 484.198 35.7858C484.198 34.9317 484.37 34.2851 484.715 33.8463C485.059 33.4074 485.505 33.188 486.051 33.188C486.277 33.188 486.472 33.2204 486.635 33.2852C486.799 33.35 486.94 33.4384 487.059 33.5503C487.18 33.6593 487.286 33.783 487.375 33.9214H487.411C487.39 33.7947 487.371 33.621 487.353 33.4001C487.335 33.1762 487.326 32.9583 487.326 32.7462V31.4075H489.082V38.282H487.767L487.393 37.6502H487.326C487.246 37.7828 487.145 37.9035 487.023 38.0125C486.904 38.1215 486.759 38.2084 486.586 38.2732C486.417 38.338 486.216 38.3704 485.985 38.3704ZM486.698 37.0052C486.977 37.0052 487.173 36.9183 487.286 36.7445C487.402 36.5678 487.464 36.2998 487.473 35.9404V35.8035C487.473 35.4088 487.417 35.1069 487.304 34.8978C487.194 34.6857 486.986 34.5797 486.68 34.5797C486.472 34.5797 486.3 34.6798 486.163 34.8801C486.026 35.0804 485.958 35.3911 485.958 35.8123C485.958 36.2276 486.026 36.531 486.163 36.7224C486.303 36.911 486.481 37.0052 486.698 37.0052Z" fill="white"/>
<path d="M492.562 33.188C493.052 33.188 493.476 33.2734 493.832 33.4442C494.189 33.6121 494.463 33.8654 494.656 34.2041C494.85 34.5429 494.946 34.967 494.946 35.4766V36.2453H491.831C491.846 36.5074 491.944 36.7224 492.125 36.8903C492.309 37.0582 492.58 37.1422 492.936 37.1422C493.251 37.1422 493.539 37.1112 493.801 37.0494C494.065 36.9875 494.337 36.8918 494.616 36.7622V38.0037C494.373 38.1303 494.107 38.2231 493.819 38.282C493.53 38.3409 493.167 38.3704 492.727 38.3704C492.219 38.3704 491.764 38.2805 491.363 38.1009C490.962 37.9212 490.646 37.6429 490.414 37.2659C490.185 36.8889 490.071 36.4043 490.071 35.8123C490.071 35.2115 490.175 34.7181 490.383 34.3323C490.591 33.9435 490.882 33.6563 491.256 33.4708C491.631 33.2822 492.066 33.188 492.562 33.188ZM492.624 34.3632C492.419 34.3632 492.247 34.428 492.107 34.5576C491.971 34.6842 491.891 34.8845 491.867 35.1585H493.364C493.361 35.0112 493.331 34.8772 493.275 34.7564C493.219 34.6356 493.135 34.5399 493.025 34.4692C492.918 34.3985 492.785 34.3632 492.624 34.3632Z" fill="white"/>
<path d="M499.87 38.3704C499.35 38.3704 498.922 38.151 498.587 37.7121C498.251 37.2732 498.083 36.6311 498.083 35.7858C498.083 34.9317 498.256 34.2851 498.6 33.8463C498.945 33.4074 499.39 33.188 499.937 33.188C500.163 33.188 500.357 33.2204 500.521 33.2852C500.684 33.35 500.825 33.4384 500.944 33.5503C501.066 33.6593 501.171 33.783 501.261 33.9214H501.296C501.275 33.7947 501.256 33.621 501.238 33.4001C501.22 33.1762 501.211 32.9583 501.211 32.7462V31.4075H502.967V38.282H501.653L501.278 37.6502H501.211C501.131 37.7828 501.03 37.9035 500.908 38.0125C500.79 38.1215 500.644 38.2084 500.472 38.2732C500.302 38.338 500.102 38.3704 499.87 38.3704ZM500.583 37.0052C500.862 37.0052 501.058 36.9183 501.171 36.7445C501.287 36.5678 501.35 36.2998 501.359 35.9404V35.8035C501.359 35.4088 501.302 35.1069 501.189 34.8978C501.079 34.6857 500.871 34.5797 500.565 34.5797C500.357 34.5797 500.185 34.6798 500.048 34.8801C499.912 35.0804 499.843 35.3911 499.843 35.8123C499.843 36.2276 499.912 36.531 500.048 36.7224C500.188 36.911 500.366 37.0052 500.583 37.0052Z" fill="white"/>
<path d="M509.086 33.2764V38.282H507.771L507.553 37.6591H507.45C507.346 37.827 507.214 37.9639 507.054 38.07C506.896 38.173 506.721 38.2482 506.528 38.2953C506.335 38.3453 506.134 38.3704 505.926 38.3704C505.596 38.3704 505.298 38.3071 505.03 38.1804C504.766 38.0538 504.555 37.8549 504.398 37.584C504.243 37.313 504.166 36.964 504.166 36.5369V33.2764H505.908V36.0111C505.908 36.3351 505.954 36.5825 506.046 36.7534C506.142 36.9213 506.296 37.0052 506.51 37.0052C506.73 37.0052 506.899 36.9463 507.018 36.8285C507.14 36.7107 507.224 36.5369 507.272 36.3071C507.319 36.0774 507.343 35.7976 507.343 35.4677V33.2764H509.086Z" fill="white"/>
<path d="M513.337 33.188C513.432 33.188 513.531 33.1954 513.635 33.2101C513.739 33.2219 513.817 33.2322 513.867 33.241L513.711 34.8713C513.655 34.8566 513.582 34.8448 513.493 34.8359C513.404 34.8242 513.279 34.8183 513.118 34.8183C513.009 34.8183 512.891 34.8286 512.766 34.8492C512.642 34.8698 512.523 34.914 512.41 34.9817C512.3 35.0465 512.209 35.1467 512.138 35.2822C512.067 35.4147 512.031 35.5944 512.031 35.8212V38.282H510.289V33.2764H511.586L511.857 34.076H511.942C512.034 33.9111 512.151 33.7623 512.294 33.6298C512.44 33.4943 512.602 33.3868 512.78 33.3073C512.961 33.2278 513.147 33.188 513.337 33.188Z" fill="white"/>
<path d="M516.327 33.2764V38.282H514.585V33.2764H516.327ZM515.462 31.2617C515.712 31.2617 515.929 31.3133 516.113 31.4164C516.3 31.5194 516.394 31.7241 516.394 32.0305C516.394 32.3279 516.3 32.5297 516.113 32.6357C515.929 32.7388 515.712 32.7904 515.462 32.7904C515.207 32.7904 514.989 32.7388 514.807 32.6357C514.629 32.5297 514.54 32.3279 514.54 32.0305C514.54 31.7241 514.629 31.5194 514.807 31.4164C514.989 31.3133 515.207 31.2617 515.462 31.2617Z" fill="white"/>
<path d="M520.703 33.188C521.223 33.188 521.648 33.3338 521.977 33.6254C522.307 33.917 522.472 34.3838 522.472 35.0259V38.282H520.73V35.5517C520.73 35.2188 520.681 34.9685 520.583 34.8006C520.488 34.6298 520.333 34.5443 520.119 34.5443C519.789 34.5443 519.568 34.6784 519.455 34.9464C519.342 35.2115 519.286 35.5929 519.286 36.0907V38.282H517.543V33.2764H518.858L519.094 33.9391H519.161C519.268 33.78 519.396 33.6445 519.544 33.5326C519.693 33.4207 519.864 33.3353 520.057 33.2764C520.25 33.2174 520.465 33.188 520.703 33.188Z" fill="white"/>
<path d="M525.382 40.4557C524.666 40.4557 524.113 40.3364 523.724 40.0978C523.338 39.8622 523.145 39.522 523.145 39.0773C523.145 38.7798 523.238 38.5339 523.426 38.3395C523.613 38.1451 523.894 38.0052 524.268 37.9197C524.113 37.8549 523.978 37.7504 523.862 37.6061C523.749 37.4617 523.693 37.3189 523.693 37.1775C523.693 37.0214 523.736 36.8844 523.822 36.7666C523.908 36.6459 524.088 36.503 524.361 36.3381C524.1 36.2232 523.894 36.0435 523.742 35.7991C523.593 35.5546 523.519 35.2571 523.519 34.9066C523.519 34.5443 523.602 34.2351 523.769 33.9788C523.938 33.7226 524.183 33.5267 524.504 33.3912C524.828 33.2557 525.221 33.188 525.685 33.188C525.747 33.188 525.842 33.1939 525.97 33.2057C526.098 33.2145 526.227 33.2263 526.358 33.241C526.489 33.2528 526.59 33.2646 526.661 33.2764H528.421V34.1114L527.73 34.3632C527.778 34.4486 527.814 34.5414 527.837 34.6415C527.861 34.7417 527.873 34.8477 527.873 34.9596C527.873 35.4986 527.681 35.9169 527.298 36.2144C526.918 36.5119 526.349 36.6606 525.591 36.6606C525.404 36.6606 525.256 36.6488 525.146 36.6252C525.125 36.6635 525.109 36.7018 525.097 36.7401C525.088 36.7755 525.083 36.8093 525.083 36.8417C525.083 36.9095 525.123 36.964 525.204 37.0052C525.287 37.0435 525.386 37.07 525.502 37.0847C525.621 37.0995 525.734 37.1068 525.841 37.1068H526.679C527.246 37.1068 527.671 37.2246 527.953 37.4603C528.235 37.6959 528.376 38.0508 528.376 38.525C528.376 39.1347 528.114 39.6089 527.588 39.9476C527.065 40.2864 526.33 40.4557 525.382 40.4557ZM525.467 39.3777C525.678 39.3777 525.89 39.3586 526.104 39.3203C526.318 39.2849 526.497 39.226 526.643 39.1435C526.789 39.0611 526.861 38.9521 526.861 38.8166C526.861 38.7135 526.818 38.6355 526.732 38.5825C526.646 38.5324 526.535 38.4985 526.398 38.4808C526.261 38.4632 526.117 38.4543 525.966 38.4543H525.288C525.164 38.4543 525.049 38.4735 524.945 38.5118C524.844 38.553 524.764 38.6075 524.705 38.6752C524.645 38.743 524.615 38.8196 524.615 38.905C524.615 39.0463 524.693 39.1597 524.847 39.2452C525.002 39.3335 525.208 39.3777 525.467 39.3777ZM525.703 35.6842C525.869 35.6842 525.997 35.6209 526.086 35.4942C526.178 35.3676 526.224 35.1776 526.224 34.9243C526.224 34.6651 526.181 34.4707 526.095 34.3411C526.009 34.2115 525.878 34.1467 525.703 34.1467C525.522 34.1467 525.386 34.2115 525.297 34.3411C525.208 34.4678 525.164 34.6592 525.164 34.9155C525.164 35.1717 525.208 35.3646 525.297 35.4942C525.386 35.6209 525.522 35.6842 525.703 35.6842Z" fill="white"/>
<path d="M440.95 48.6001C440.95 48.9506 440.861 49.2834 440.683 49.5986C440.505 49.9108 440.227 50.1641 439.85 50.3585C439.475 50.5529 438.991 50.6501 438.397 50.6501C438.1 50.6501 437.838 50.6368 437.613 50.6103C437.39 50.5838 437.182 50.5411 436.989 50.4822C436.796 50.4203 436.595 50.3408 436.387 50.2436V48.6885C436.741 48.8652 437.097 49.0007 437.457 49.0949C437.816 49.1862 438.141 49.2319 438.433 49.2319C438.608 49.2319 438.75 49.2113 438.86 49.17C438.973 49.1288 439.056 49.0728 439.11 49.0021C439.163 48.9285 439.19 48.8446 439.19 48.7503C439.19 48.6384 439.15 48.5441 439.07 48.4676C438.993 48.388 438.868 48.3056 438.695 48.2201C438.523 48.1347 438.296 48.0287 438.014 47.902C437.773 47.7901 437.555 47.6752 437.359 47.5574C437.165 47.4396 436.999 47.3056 436.859 47.1554C436.723 47.0022 436.617 46.824 436.543 46.6208C436.469 46.4176 436.432 46.1775 436.432 45.9007C436.432 45.4854 436.534 45.1378 436.739 44.858C436.947 44.5752 437.235 44.3632 437.604 44.2218C437.975 44.0804 438.403 44.0097 438.887 44.0097C439.312 44.0097 439.694 44.0569 440.032 44.1511C440.374 44.2454 440.68 44.3529 440.95 44.4736L440.411 45.8211C440.132 45.6945 439.857 45.5943 439.587 45.5207C439.316 45.4441 439.065 45.4058 438.834 45.4058C438.682 45.4058 438.557 45.425 438.459 45.4633C438.364 45.4986 438.293 45.5472 438.245 45.6091C438.201 45.6709 438.179 45.7416 438.179 45.8211C438.179 45.9213 438.217 46.0111 438.294 46.0906C438.375 46.1702 438.507 46.257 438.691 46.3513C438.878 46.4426 439.132 46.5619 439.453 46.7092C439.771 46.8505 440.041 47.0037 440.264 47.1686C440.487 47.3306 440.656 47.5265 440.772 47.7562C440.891 47.983 440.95 48.2643 440.95 48.6001Z" fill="white"/>
<path d="M444.128 45.4677C444.618 45.4677 445.041 45.5531 445.398 45.7239C445.754 45.8918 446.029 46.1451 446.222 46.4838C446.415 46.8226 446.512 47.2467 446.512 47.7562V48.525H443.397C443.412 48.7871 443.51 49.0021 443.691 49.17C443.875 49.3379 444.145 49.4219 444.502 49.4219C444.817 49.4219 445.105 49.3909 445.366 49.3291C445.631 49.2672 445.903 49.1715 446.182 49.0419V50.2834C445.938 50.41 445.672 50.5028 445.384 50.5617C445.096 50.6206 444.732 50.6501 444.292 50.6501C443.784 50.6501 443.33 50.5602 442.929 50.3806C442.528 50.2009 442.211 49.9226 441.98 49.5456C441.751 49.1686 441.637 48.684 441.637 48.092C441.637 47.4912 441.741 46.9978 441.948 46.612C442.156 46.2232 442.448 45.936 442.822 45.7504C443.196 45.5619 443.631 45.4677 444.128 45.4677ZM444.19 46.6429C443.985 46.6429 443.813 46.7077 443.673 46.8373C443.536 46.9639 443.456 47.1642 443.432 47.4381H444.93C444.927 47.2909 444.897 47.1569 444.841 47.0361C444.784 46.9153 444.701 46.8196 444.591 46.7489C444.484 46.6782 444.35 46.6429 444.19 46.6429Z" fill="white"/>
<path d="M450.58 45.4677C451.139 45.4677 451.577 45.6901 451.895 46.1348C452.213 46.5766 452.372 47.2143 452.372 48.0478C452.372 48.6163 452.291 49.0949 452.131 49.4837C451.97 49.8696 451.751 50.1611 451.471 50.3585C451.195 50.5529 450.88 50.6501 450.527 50.6501C450.289 50.6501 450.087 50.6206 449.921 50.5617C449.757 50.5028 449.621 50.4292 449.511 50.3408C449.404 50.2525 449.313 50.1626 449.239 50.0713H449.185C449.2 50.1862 449.212 50.3099 449.221 50.4424C449.233 50.575 449.239 50.7296 449.239 50.9063V52.7354H447.496V45.556H448.914L449.159 46.1923H449.239C449.322 46.0627 449.423 45.9434 449.542 45.8344C449.661 45.7225 449.805 45.6341 449.974 45.5693C450.146 45.5016 450.348 45.4677 450.58 45.4677ZM449.925 46.824C449.756 46.824 449.622 46.8638 449.524 46.9433C449.426 47.0228 449.355 47.1436 449.31 47.3056C449.269 47.4647 449.245 47.6635 449.239 47.902V48.039C449.239 48.3041 449.26 48.5279 449.301 48.7105C449.343 48.8902 449.414 49.0272 449.515 49.1214C449.616 49.2127 449.756 49.2584 449.934 49.2584C450.08 49.2584 450.201 49.2172 450.299 49.1347C450.397 49.0522 450.472 48.9211 450.522 48.7415C450.573 48.5618 450.598 48.3247 450.598 48.0302C450.598 47.5913 450.54 47.2806 450.424 47.098C450.311 46.9153 450.145 46.824 449.925 46.824Z" fill="white"/>
<path d="M455.843 49.2849C456 49.2849 456.144 49.2687 456.275 49.2363C456.406 49.2039 456.543 49.1627 456.685 49.1126V50.3717C456.495 50.4542 456.293 50.5205 456.079 50.5706C455.868 50.6236 455.598 50.6501 455.268 50.6501C454.941 50.6501 454.653 50.6 454.404 50.4999C454.154 50.3968 453.959 50.2201 453.82 49.9697C453.683 49.7164 453.615 49.3644 453.615 48.9138V46.8505H453.004V46.1481L453.78 45.6046L454.23 44.5531H455.371V45.556H456.609V46.8505H455.371V48.7989C455.371 48.9609 455.412 49.0831 455.495 49.1656C455.578 49.2451 455.694 49.2849 455.843 49.2849Z" fill="white"/>
<path d="M459.84 45.4677C460.33 45.4677 460.754 45.5531 461.11 45.7239C461.467 45.8918 461.741 46.1451 461.935 46.4838C462.128 46.8226 462.224 47.2467 462.224 47.7562V48.525H459.109C459.124 48.7871 459.222 49.0021 459.403 49.17C459.588 49.3379 459.858 49.4219 460.214 49.4219C460.529 49.4219 460.818 49.3909 461.079 49.3291C461.343 49.2672 461.615 49.1715 461.894 49.0419V50.2834C461.651 50.41 461.385 50.5028 461.097 50.5617C460.809 50.6206 460.445 50.6501 460.005 50.6501C459.497 50.6501 459.042 50.5602 458.641 50.3806C458.24 50.2009 457.924 49.9226 457.692 49.5456C457.463 49.1686 457.349 48.684 457.349 48.092C457.349 47.4912 457.453 46.9978 457.661 46.612C457.869 46.2232 458.16 45.936 458.534 45.7504C458.909 45.5619 459.344 45.4677 459.84 45.4677ZM459.902 46.6429C459.698 46.6429 459.525 46.7077 459.386 46.8373C459.249 46.9639 459.169 47.1642 459.145 47.4381H460.642C460.639 47.2909 460.61 47.1569 460.553 47.0361C460.497 46.9153 460.413 46.8196 460.304 46.7489C460.197 46.6782 460.063 46.6429 459.902 46.6429Z" fill="white"/>
<path d="M469.372 45.4677C469.948 45.4677 470.388 45.6135 470.691 45.9051C470.997 46.1967 471.15 46.6635 471.15 47.3056V50.5617H469.408V47.8402C469.408 47.4602 469.356 47.1966 469.252 47.0494C469.151 46.8991 468.999 46.824 468.797 46.824C468.515 46.824 468.319 46.9463 468.209 47.1907C468.102 47.4352 468.048 47.7813 468.048 48.229V50.5617H466.302V47.8402C466.302 47.5987 466.279 47.4043 466.235 47.257C466.193 47.1068 466.129 46.9978 466.043 46.9301C465.957 46.8594 465.849 46.824 465.718 46.824C465.519 46.824 465.363 46.8844 465.25 47.0052C465.14 47.123 465.063 47.2968 465.018 47.5265C464.974 47.7562 464.951 48.0375 464.951 48.3704V50.5617H463.209V45.556H464.524L464.778 46.1746H464.827C464.916 46.0391 465.03 45.9183 465.17 45.8123C465.312 45.7063 465.48 45.6223 465.673 45.5605C465.869 45.4986 466.092 45.4677 466.342 45.4677C466.713 45.4677 467.019 45.5295 467.26 45.6532C467.5 45.777 467.696 45.9478 467.848 46.1657H467.901C468.062 45.9419 468.268 45.7696 468.521 45.6488C468.773 45.5281 469.057 45.4677 469.372 45.4677Z" fill="white"/>
<path d="M474.078 43.6872V45.2424C474.078 45.4191 474.072 45.5884 474.06 45.7504C474.048 45.9095 474.033 46.0597 474.015 46.2011H474.078C474.208 45.9979 474.379 45.8256 474.59 45.6842C474.801 45.5398 475.077 45.4677 475.419 45.4677C475.945 45.4677 476.374 45.6886 476.707 46.1304C477.043 46.5722 477.21 47.2114 477.21 48.0478C477.21 48.6163 477.133 49.0949 476.979 49.4837C476.824 49.8696 476.607 50.1611 476.328 50.3585C476.052 50.5529 475.731 50.6501 475.366 50.6501C475.009 50.6501 474.737 50.5897 474.55 50.4689C474.366 50.3452 474.208 50.2127 474.078 50.0713H473.971L473.694 50.5617H472.335V43.6872H474.078ZM474.782 46.824C474.621 46.824 474.489 46.8609 474.385 46.9345C474.281 47.0081 474.204 47.123 474.153 47.2791C474.103 47.4323 474.078 47.6281 474.078 47.8667V48.1097C474.078 48.4985 474.13 48.7871 474.234 48.9756C474.341 49.1641 474.529 49.2584 474.8 49.2584C475.005 49.2584 475.162 49.1538 475.272 48.9447C475.382 48.7356 475.437 48.4307 475.437 48.0302C475.437 47.6296 475.383 47.3292 475.276 47.1289C475.169 46.9256 475.005 46.824 474.782 46.824Z" fill="white"/>
<path d="M480.481 45.4677C480.971 45.4677 481.395 45.5531 481.751 45.7239C482.108 45.8918 482.383 46.1451 482.576 46.4838C482.769 46.8226 482.865 47.2467 482.865 47.7562V48.525H479.75C479.765 48.7871 479.863 49.0021 480.045 49.17C480.229 49.3379 480.499 49.4219 480.856 49.4219C481.17 49.4219 481.459 49.3909 481.72 49.3291C481.984 49.2672 482.256 49.1715 482.536 49.0419V50.2834C482.292 50.41 482.026 50.5028 481.738 50.5617C481.45 50.6206 481.086 50.6501 480.646 50.6501C480.138 50.6501 479.684 50.5602 479.283 50.3806C478.881 50.2009 478.565 49.9226 478.333 49.5456C478.105 49.1686 477.99 48.684 477.99 48.092C477.99 47.4912 478.094 46.9978 478.302 46.612C478.51 46.2232 478.801 45.936 479.176 45.7504C479.55 45.5619 479.985 45.4677 480.481 45.4677ZM480.544 46.6429C480.339 46.6429 480.166 46.7077 480.027 46.8373C479.89 46.9639 479.81 47.1642 479.786 47.4381H481.283C481.28 47.2909 481.251 47.1569 481.194 47.0361C481.138 46.9153 481.055 46.8196 480.945 46.7489C480.838 46.6782 480.704 46.6429 480.544 46.6429Z" fill="white"/>
<path d="M486.898 45.4677C486.993 45.4677 487.093 45.4751 487.197 45.4898C487.301 45.5016 487.378 45.5119 487.428 45.5207L487.272 47.151C487.216 47.1362 487.143 47.1245 487.054 47.1156C486.965 47.1038 486.84 47.098 486.68 47.098C486.57 47.098 486.453 47.1083 486.328 47.1289C486.203 47.1495 486.084 47.1937 485.971 47.2614C485.861 47.3262 485.771 47.4264 485.699 47.5619C485.628 47.6944 485.592 47.8741 485.592 48.1009V50.5617H483.85V45.556H485.147L485.419 46.3557H485.503C485.595 46.1908 485.713 46.042 485.855 45.9095C486.001 45.774 486.163 45.6665 486.341 45.587C486.522 45.5075 486.708 45.4677 486.898 45.4677Z" fill="white"/>
<path d="M490.062 46.6871L489.995 46.5899C490.052 46.3719 490.121 46.1127 490.205 45.8123C490.291 45.5089 490.383 45.2055 490.481 44.9022C490.582 44.5959 490.683 44.3322 490.784 44.1113H492.023C491.966 44.3853 491.908 44.6754 491.849 44.9817C491.793 45.288 491.741 45.5884 491.693 45.883C491.648 46.1775 491.613 46.4456 491.586 46.6871H490.062Z" fill="white"/>
<path d="M497.188 50.5617H492.46V49.413L494.05 47.8181C494.38 47.4764 494.636 47.2025 494.817 46.9963C495.001 46.7902 495.13 46.6149 495.205 46.4706C495.279 46.3263 495.316 46.1761 495.316 46.0199C495.316 45.8285 495.254 45.6901 495.129 45.6046C495.004 45.5192 494.857 45.4765 494.688 45.4765C494.483 45.4765 494.275 45.5354 494.064 45.6532C493.856 45.7681 493.62 45.9389 493.355 46.1657L492.388 45.0436C492.584 44.8698 492.792 44.7048 493.012 44.5487C493.232 44.3897 493.492 44.2601 493.792 44.1599C494.092 44.0598 494.457 44.0097 494.888 44.0097C495.331 44.0097 495.714 44.0863 496.038 44.2395C496.365 44.3926 496.617 44.6032 496.795 44.8712C496.974 45.1363 497.063 45.4382 497.063 45.777C497.063 46.151 496.993 46.4853 496.853 46.7799C496.717 47.0714 496.51 47.3645 496.234 47.659C495.958 47.9506 495.613 48.282 495.2 48.6531L494.723 49.0772V49.1214H497.188V50.5617Z" fill="white"/>
<path d="M502.535 50.5617H497.807V49.413L499.398 47.8181C499.728 47.4764 499.983 47.2025 500.164 46.9963C500.348 46.7902 500.478 46.6149 500.552 46.4706C500.626 46.3263 500.663 46.1761 500.663 46.0199C500.663 45.8285 500.601 45.6901 500.476 45.6046C500.351 45.5192 500.204 45.4765 500.035 45.4765C499.83 45.4765 499.622 45.5354 499.411 45.6532C499.203 45.7681 498.967 45.9389 498.703 46.1657L497.736 45.0436C497.932 44.8698 498.14 44.7048 498.36 44.5487C498.579 44.3897 498.839 44.2601 499.139 44.1599C499.439 44.0598 499.805 44.0097 500.236 44.0097C500.678 44.0097 501.061 44.0863 501.385 44.2395C501.712 44.3926 501.965 44.6032 502.143 44.8712C502.321 45.1363 502.41 45.4382 502.41 45.777C502.41 46.151 502.34 46.4853 502.201 46.7799C502.064 47.0714 501.858 47.3645 501.581 47.659C501.305 47.9506 500.96 48.282 500.548 48.6531L500.071 49.0772V49.1214H502.535V50.5617Z" fill="white"/>
<path d="M507.316 48.282H505.846L505.619 44.1025H507.544L507.316 48.282ZM505.636 49.8283C505.636 49.5161 505.729 49.2967 505.913 49.17C506.1 49.0434 506.321 48.98 506.577 48.98C506.829 48.98 507.046 49.0434 507.227 49.17C507.409 49.2967 507.499 49.5161 507.499 49.8283C507.499 50.1258 507.409 50.3408 507.227 50.4734C507.046 50.6059 506.829 50.6722 506.577 50.6722C506.321 50.6722 506.1 50.6059 505.913 50.4734C505.729 50.3408 505.636 50.1258 505.636 49.8283Z" fill="white"/>
<path d="M547.369 36C547.369 32.6863 549.998 30 553.241 30H660.234C663.477 30 666.106 32.6863 666.106 36V48C666.106 51.3137 663.477 54 660.234 54H553.241C549.998 54 547.369 51.3137 547.369 48V36Z" fill="white"/>
<path fill-rule="evenodd" clip-rule="evenodd" d="M660.234 32H553.241C551.079 32 549.326 33.7909 549.326 36V48C549.326 50.2091 551.079 52 553.241 52H660.234C662.396 52 664.149 50.2091 664.149 48V36C664.149 33.7909 662.396 32 660.234 32ZM553.241 30C549.998 30 547.369 32.6863 547.369 36V48C547.369 51.3137 549.998 54 553.241 54H660.234C663.477 54 666.106 51.3137 666.106 48V36C666.106 32.6863 663.477 30 660.234 30H553.241Z" fill="#FFD424"/>
<path d="M548.632 36C548.632 32.6863 551.259 30 554.5 30H607.178C611.483 30 614.322 34.5819 612.484 38.562L606.942 50.562C605.973 52.661 603.906 54 601.636 54H554.5C551.259 54 548.632 51.3137 548.632 48V36Z" fill="#FFD424"/>
<path fill-rule="evenodd" clip-rule="evenodd" d="M607.178 32H554.5C552.339 32 550.588 33.7909 550.588 36V48C550.588 50.2091 552.339 52 554.5 52H601.636C603.15 52 604.527 51.1074 605.173 49.708L610.715 37.708C611.941 35.0546 610.048 32 607.178 32ZM554.5 30C551.259 30 548.632 32.6863 548.632 36V48C548.632 51.3137 551.259 54 554.5 54H601.636C603.906 54 605.973 52.661 606.942 50.562L612.484 38.562C614.322 34.5819 611.483 30 607.178 30H554.5Z" fill="#FFD424"/>
<path d="M564.359 35.0508C564.867 35.0508 565.289 35.1096 565.625 35.2271C565.962 35.3422 566.214 35.5149 566.382 35.7452C566.553 35.9755 566.639 36.2622 566.639 36.6052C566.639 36.8187 566.6 37.013 566.524 37.1881C566.447 37.3632 566.338 37.5203 566.195 37.6595C566.055 37.7962 565.886 37.9161 565.69 38.0193L567.319 40.3113H565.606L564.42 38.3971H564.038V40.3113H562.527V35.0508H564.359ZM564.336 36.1266H564.038V37.3284H564.321C564.553 37.3284 564.743 37.2804 564.891 37.1845C565.039 37.0885 565.113 36.917 565.113 36.67C565.113 36.4996 565.051 36.3665 564.929 36.2706C564.807 36.1746 564.609 36.1266 564.336 36.1266Z" fill="#807B8D"/>
<path d="M571.147 40.3113H567.828V35.0508H571.147V36.1914H569.339V37.019H571.014V38.1596H569.339V39.1527H571.147V40.3113Z" fill="#807B8D"/>
<path d="M576.873 37.5695C576.873 38.1812 576.751 38.6897 576.509 39.0951C576.267 39.5005 575.925 39.8052 575.484 40.0091C575.046 40.2106 574.529 40.3113 573.935 40.3113H572.127V35.0508H574.062C574.663 35.0508 575.173 35.1479 575.591 35.3422C576.01 35.5365 576.327 35.8208 576.544 36.195C576.763 36.5692 576.873 37.0274 576.873 37.5695ZM575.305 37.6199C575.305 37.3008 575.259 37.037 575.167 36.8283C575.078 36.6172 574.943 36.4601 574.762 36.3569C574.58 36.2514 574.352 36.1986 574.077 36.1986H573.637V39.1455H573.974C574.433 39.1455 574.769 39.0208 574.983 38.7713C575.197 38.5194 575.305 38.1356 575.305 37.6199Z" fill="#807B8D"/>
<path d="M581.198 40.3113H577.878V35.0508H581.198V36.1914H579.389V37.019H581.064V38.1596H579.389V39.1527H581.198V40.3113Z" fill="#807B8D"/>
<path d="M585.497 40.3113H582.177V35.0508H585.497V36.1914H583.688V37.019H585.363V38.1596H583.688V39.1527H585.497V40.3113Z" fill="#807B8D"/>
<path d="M588.912 40.3113L587.768 36.5224H587.734C587.744 36.6208 587.754 36.7539 587.764 36.9218C587.777 37.0897 587.789 37.2709 587.799 37.4652C587.809 37.6595 587.814 37.8466 587.814 38.0265V40.3113H586.476V35.0508H588.487L589.654 38.7857H589.684L590.828 35.0508H592.843V40.3113H591.455V38.0049C591.455 37.8394 591.457 37.6619 591.463 37.4724C591.47 37.2804 591.478 37.1005 591.485 36.9326C591.496 36.7623 591.505 36.628 591.512 36.5296H591.478L590.35 40.3113H588.912Z" fill="#807B8D"/>
<path d="M571.105 45.9664C570.927 45.9664 570.768 46.0024 570.627 46.0744C570.487 46.1439 570.367 46.2459 570.268 46.3802C570.168 46.5146 570.092 46.6789 570.038 46.8732C569.987 47.0651 569.962 47.2834 569.962 47.528C569.962 47.8591 570.007 48.1373 570.096 48.3628C570.185 48.5883 570.32 48.7586 570.501 48.8738C570.685 48.9889 570.914 49.0465 571.19 49.0465C571.439 49.0465 571.679 49.0141 571.909 48.9493C572.141 48.8846 572.374 48.8066 572.608 48.7154V49.9172C572.361 50.0204 572.107 50.0947 571.847 50.1403C571.59 50.1859 571.316 50.2087 571.025 50.2087C570.418 50.2087 569.921 50.0959 569.534 49.8704C569.149 49.6426 568.864 49.3271 568.681 48.9241C568.5 48.5211 568.409 48.0534 568.409 47.5208C568.409 47.1226 568.468 46.758 568.585 46.427C568.705 46.096 568.88 45.8093 569.109 45.567C569.339 45.3224 569.622 45.1341 569.958 45.0021C570.297 44.8678 570.685 44.8006 571.121 44.8006C571.391 44.8006 571.675 44.8306 571.974 44.8906C572.274 44.9482 572.568 45.0417 572.853 45.1712L572.39 46.2903C572.186 46.1991 571.98 46.1224 571.771 46.06C571.562 45.9976 571.34 45.9664 571.105 45.9664Z" fill="#807B8D"/>
<path d="M578.934 47.4993C578.934 47.9046 578.882 48.2741 578.777 48.6075C578.675 48.9385 578.514 49.224 578.295 49.4639C578.076 49.7037 577.794 49.8884 577.45 50.018C577.106 50.1451 576.694 50.2087 576.215 50.2087C575.746 50.2087 575.339 50.1451 574.995 50.018C574.653 49.8884 574.371 49.7049 574.15 49.4675C573.928 49.2276 573.763 48.9409 573.656 48.6075C573.549 48.2741 573.496 47.9022 573.496 47.4921C573.496 46.9451 573.591 46.4702 573.782 46.0672C573.976 45.6618 574.275 45.3487 574.677 45.1281C575.08 44.905 575.595 44.7934 576.222 44.7934C576.86 44.7934 577.377 44.905 577.775 45.1281C578.175 45.3511 578.469 45.6654 578.655 46.0708C578.841 46.4762 578.934 46.9523 578.934 47.4993ZM575.087 47.4993C575.087 47.8159 575.125 48.0882 575.201 48.316C575.278 48.5439 575.399 48.719 575.565 48.8414C575.73 48.9637 575.947 49.0249 576.215 49.0249C576.493 49.0249 576.713 48.9637 576.876 48.8414C577.042 48.719 577.161 48.5439 577.232 48.316C577.306 48.0882 577.343 47.8159 577.343 47.4993C577.343 47.0243 577.259 46.6489 577.091 46.373C576.922 46.0972 576.633 45.9592 576.222 45.9592C575.95 45.9592 575.729 46.0216 575.561 46.1463C575.395 46.2711 575.274 46.4486 575.197 46.6789C575.124 46.9092 575.087 47.1826 575.087 47.4993Z" fill="#807B8D"/>
<path d="M584.69 47.3949C584.69 48.0066 584.568 48.5151 584.326 48.9205C584.084 49.3259 583.742 49.6306 583.301 49.8345C582.863 50.036 582.347 50.1367 581.752 50.1367H579.944V44.8762H581.879C582.48 44.8762 582.99 44.9733 583.408 45.1676C583.827 45.3619 584.144 45.6462 584.361 46.0204C584.58 46.3946 584.69 46.8528 584.69 47.3949ZM583.122 47.4453C583.122 47.1262 583.076 46.8624 582.984 46.6537C582.895 46.4426 582.76 46.2855 582.579 46.1823C582.398 46.0768 582.169 46.024 581.894 46.024H581.454V48.9709H581.791C582.25 48.9709 582.586 48.8462 582.8 48.5967C583.014 48.3448 583.122 47.961 583.122 47.4453Z" fill="#807B8D"/>
<path d="M589.015 50.1367H585.695V44.8762H589.015V46.0168H587.206V46.8444H588.881V47.985H587.206V48.9781H589.015V50.1367Z" fill="#807B8D"/>
<path d="M619.994 44.083C619.994 44.483 619.883 44.8629 619.661 45.2226C619.439 45.5789 619.094 45.868 618.624 46.0899C618.159 46.3118 617.556 46.4227 616.817 46.4227C616.447 46.4227 616.122 46.4076 615.841 46.3773C615.564 46.3471 615.305 46.2983 615.065 46.2311C614.825 46.1605 614.575 46.0697 614.316 45.9588V44.1838C614.756 44.3855 615.2 44.5401 615.647 44.6477C616.094 44.7519 616.499 44.804 616.861 44.804C617.079 44.804 617.257 44.7805 617.394 44.7334C617.534 44.6864 617.637 44.6225 617.704 44.5418C617.771 44.4578 617.804 44.362 617.804 44.2544C617.804 44.1267 617.754 44.0191 617.654 43.9317C617.558 43.8409 617.403 43.7468 617.188 43.6493C616.974 43.5518 616.691 43.4308 616.34 43.2862C616.041 43.1585 615.769 43.0274 615.525 42.8929C615.285 42.7584 615.078 42.6055 614.904 42.434C614.734 42.2592 614.603 42.0559 614.51 41.8239C614.418 41.5919 614.372 41.318 614.372 41.002C614.372 40.528 614.499 40.1313 614.754 39.8119C615.013 39.4892 615.372 39.2472 615.83 39.0858C616.292 38.9244 616.824 38.8438 617.427 38.8438C617.955 38.8438 618.43 38.8975 618.852 39.0051C619.277 39.1127 619.657 39.2354 619.994 39.3732L619.323 40.9112C618.975 40.7666 618.634 40.6523 618.297 40.5683C617.961 40.4809 617.649 40.4372 617.36 40.4372C617.172 40.4372 617.016 40.459 616.895 40.5027C616.776 40.5431 616.688 40.5986 616.628 40.6692C616.573 40.7397 616.545 40.8204 616.545 40.9112C616.545 41.0255 616.593 41.128 616.689 41.2188C616.789 41.3096 616.954 41.4087 617.183 41.5163C617.416 41.6205 617.732 41.7567 618.131 41.9247C618.526 42.0861 618.863 42.2609 619.14 42.4492C619.417 42.6341 619.628 42.8576 619.772 43.1198C619.92 43.3787 619.994 43.6997 619.994 44.083Z" fill="#83808D"/>
<path d="M624.779 46.3218L623.121 41.012H623.071C623.086 41.1499 623.1 41.3364 623.115 41.5718C623.134 41.8071 623.15 42.0609 623.165 42.3332C623.18 42.6055 623.187 42.8677 623.187 43.1198V46.3218H621.247V38.9496H624.163L625.854 44.1838H625.899L627.556 38.9496H630.478V46.3218H628.466V43.0896C628.466 42.8576 628.469 42.6089 628.477 42.3433C628.488 42.0743 628.499 41.8222 628.51 41.5869C628.525 41.3482 628.538 41.16 628.549 41.0221H628.499L626.863 46.3218H624.779Z" fill="#83808D"/>
<path d="M634.88 38.9496C635.616 38.9496 636.228 39.032 636.716 39.1967C637.203 39.3581 637.569 39.6001 637.813 39.9229C638.061 40.2456 638.185 40.6473 638.185 41.128C638.185 41.4272 638.129 41.6995 638.018 41.9449C637.908 42.1903 637.749 42.4105 637.542 42.6055C637.338 42.7971 637.094 42.9652 636.81 43.1097L639.172 46.3218H636.688L634.969 43.6392H634.415V46.3218H632.225V38.9496H634.88ZM634.847 40.4574H634.415V42.1416H634.825C635.161 42.1416 635.437 42.0743 635.651 41.9399C635.865 41.8054 635.973 41.565 635.973 41.2188C635.973 40.9801 635.884 40.7935 635.706 40.6591C635.529 40.5246 635.243 40.4574 634.847 40.4574Z" fill="#83808D"/>
<path d="M643.485 46.3218H641.295V40.5784H639.316V38.9496H645.459V40.5784H643.485V46.3218Z" fill="#83808D"/>
<path d="M652.223 44.8948H651.33V46.3218H649.168V44.8948H645.936V43.4325L649.307 38.9496H651.33V43.4073H652.223V44.8948ZM649.168 43.4073V42.55C649.168 42.4727 649.17 42.3752 649.174 42.2576C649.177 42.1399 649.181 42.0222 649.185 41.9046C649.192 41.7836 649.198 41.6827 649.201 41.602C649.209 41.518 649.214 41.4726 649.218 41.4659H649.157C649.087 41.6172 649.022 41.7432 648.963 41.8441C648.904 41.9416 648.826 42.0575 648.73 42.192L647.832 43.4073H649.168Z" fill="#83808D"/>
<path d="M656.076 41.4911C656.527 41.4911 656.938 41.5835 657.307 41.7684C657.677 41.9533 657.972 42.2223 658.194 42.5752C658.416 42.9282 658.527 43.3585 658.527 43.8661C658.527 44.4141 658.405 44.8797 658.161 45.2629C657.921 45.6428 657.557 45.9319 657.069 46.1302C656.585 46.3252 655.973 46.4227 655.234 46.4227C654.764 46.4227 654.335 46.3891 653.947 46.3218C653.563 46.258 653.219 46.1588 652.916 46.0243V44.3906C653.201 44.5082 653.543 44.6158 653.942 44.7133C654.345 44.8074 654.714 44.8545 655.051 44.8545C655.32 44.8545 655.55 44.8192 655.738 44.7486C655.927 44.678 656.069 44.5738 656.165 44.4359C656.265 44.2981 656.315 44.1283 656.315 43.9266C656.315 43.6476 656.204 43.4291 655.982 43.2711C655.76 43.1097 655.424 43.0291 654.973 43.0291C654.77 43.0291 654.57 43.0476 654.374 43.0845C654.178 43.1215 654.006 43.1619 653.859 43.2056L653.055 42.8425L653.36 38.9496H657.984V40.6086H655.223L655.123 41.5819C655.241 41.5617 655.361 41.5415 655.483 41.5213C655.609 41.5012 655.807 41.4911 656.076 41.4911Z" fill="#83808D"/>
<path d="M401 26V60.5" stroke="white" stroke-width="2"/>
<defs>
<filter id="filter0_d_7110_68794" x="803.91" y="25.0156" width="84.0684" height="60.6992" filterUnits="userSpaceOnUse" color-interpolation-filters="sRGB">
<feFlood flood-opacity="0" result="BackgroundImageFix"/>
<feColorMatrix in="SourceAlpha" type="matrix" values="0 0 0 0 0 0 0 0 0 0 0 0 0 0 0 0 0 0 127 0" result="hardAlpha"/>
<feOffset dy="7"/>
<feGaussianBlur stdDeviation="2"/>
<feComposite in2="hardAlpha" operator="out"/>
<feColorMatrix type="matrix" values="0 0 0 0 0 0 0 0 0 0 0 0 0 0 0 0 0 0 0.25 0"/>
<feBlend mode="normal" in2="BackgroundImageFix" result="effect1_dropShadow_7110_68794"/>
<feBlend mode="normal" in="SourceGraphic" in2="effect1_dropShadow_7110_68794" result="shape"/>
</filter>
<filter id="filter1_d_7110_68794" x="717.807" y="10" width="100.11" height="64.0625" filterUnits="userSpaceOnUse" color-interpolation-filters="sRGB">
<feFlood flood-opacity="0" result="BackgroundImageFix"/>
<feColorMatrix in="SourceAlpha" type="matrix" values="0 0 0 0 0 0 0 0 0 0 0 0 0 0 0 0 0 0 127 0" result="hardAlpha"/>
<feOffset dy="8"/>
<feGaussianBlur stdDeviation="2"/>
<feComposite in2="hardAlpha" operator="out"/>
<feColorMatrix type="matrix" values="0 0 0 0 0 0 0 0 0 0 0 0 0 0 0 0 0 0 0.25 0"/>
<feBlend mode="normal" in2="BackgroundImageFix" result="effect1_dropShadow_7110_68794"/>
<feBlend mode="normal" in="SourceGraphic" in2="effect1_dropShadow_7110_68794" result="shape"/>
</filter>
<filter id="filter2_i_7110_68794" x="714.878" y="58.0117" width="18.1367" height="7.96875" filterUnits="userSpaceOnUse" color-interpolation-filters="sRGB">
<feFlood flood-opacity="0" result="BackgroundImageFix"/>
<feBlend mode="normal" in="SourceGraphic" in2="BackgroundImageFix" result="shape"/>
<feColorMatrix in="SourceAlpha" type="matrix" values="0 0 0 0 0 0 0 0 0 0 0 0 0 0 0 0 0 0 127 0" result="hardAlpha"/>
<feOffset dx="11"/>
<feGaussianBlur stdDeviation="3.5"/>
<feComposite in2="hardAlpha" operator="arithmetic" k2="-1" k3="1"/>
<feColorMatrix type="matrix" values="0 0 0 0 0 0 0 0 0 0 0 0 0 0 0 0 0 0 0.25 0"/>
<feBlend mode="normal" in2="shape" result="effect1_innerShadow_7110_68794"/>
</filter>
<filter id="filter3_i_7110_68794" x="714.855" y="57.0859" width="10.7549" height="5.96484" filterUnits="userSpaceOnUse" color-interpolation-filters="sRGB">
<feFlood flood-opacity="0" result="BackgroundImageFix"/>
<feBlend mode="normal" in="SourceGraphic" in2="BackgroundImageFix" result="shape"/>
<feColorMatrix in="SourceAlpha" type="matrix" values="0 0 0 0 0 0 0 0 0 0 0 0 0 0 0 0 0 0 127 0" result="hardAlpha"/>
<feOffset dy="4"/>
<feGaussianBlur stdDeviation="2"/>
<feComposite in2="hardAlpha" operator="arithmetic" k2="-1" k3="1"/>
<feColorMatrix type="matrix" values="0 0 0 0 0 0 0 0 0 0 0 0 0 0 0 0 0 0 0.25 0"/>
<feBlend mode="normal" in2="shape" result="effect1_innerShadow_7110_68794"/>
</filter>
<linearGradient id="paint0_linear_7110_68794" x1="841.451" y1="34.0273" x2="841.451" y2="33.0261" gradientUnits="userSpaceOnUse">
<stop stop-color="#774BF0"/>
<stop offset="1" stop-color="#7E54F1"/>
</linearGradient>
<linearGradient id="paint1_linear_7110_68794" x1="834.943" y1="37.0273" x2="834.943" y2="36.0261" gradientUnits="userSpaceOnUse">
<stop stop-color="#FE5086"/>
<stop offset="1" stop-color="#ED2F4D"/>
</linearGradient>
<linearGradient id="paint2_linear_7110_68794" x1="845.455" y1="45.0391" x2="845.455" y2="43.0367" gradientUnits="userSpaceOnUse">
<stop stop-color="#FFE15B"/>
<stop offset="1" stop-color="#FF9E2A"/>
</linearGradient>
<linearGradient id="paint3_linear_7110_68794" x1="835.944" y1="58.0547" x2="835.944" y2="57.0535" gradientUnits="userSpaceOnUse">
<stop stop-color="#FFE15B"/>
<stop offset="1" stop-color="#FF9E2A"/>
</linearGradient>
<linearGradient id="paint4_linear_7110_68794" x1="823.428" y1="45.0391" x2="823.428" y2="43.0367" gradientUnits="userSpaceOnUse">
<stop stop-color="#9084D1"/>
<stop offset="1" stop-color="#5142DD"/>
</linearGradient>
<linearGradient id="paint5_linear_7110_68794" x1="843.953" y1="50.0469" x2="843.953" y2="49.0457" gradientUnits="userSpaceOnUse">
<stop stop-color="#9084D1"/>
<stop offset="1" stop-color="#5142DD"/>
</linearGradient>
<linearGradient id="paint6_linear_7110_68794" x1="814.919" y1="28.0195" x2="814.919" y2="31.0231" gradientUnits="userSpaceOnUse">
<stop stop-color="#6B47A5"/>
<stop offset="1" stop-color="#9084D1"/>
</linearGradient>
<linearGradient id="paint7_linear_7110_68794" x1="818.423" y1="28.0195" x2="818.423" y2="31.0231" gradientUnits="userSpaceOnUse">
<stop stop-color="#ED2F4D"/>
<stop offset="1" stop-color="#FE5086"/>
</linearGradient>
<linearGradient id="paint8_linear_7110_68794" x1="822.428" y1="28.0195" x2="822.428" y2="31.0231" gradientUnits="userSpaceOnUse">
<stop stop-color="#FFE15B"/>
<stop offset="1" stop-color="#FFD424"/>
</linearGradient>
<linearGradient id="paint9_linear_7110_68794" x1="727.814" y1="14.0039" x2="727.814" y2="18.0087" gradientUnits="userSpaceOnUse">
<stop stop-color="#FE5086" stop-opacity="0.76"/>
<stop offset="1" stop-color="#FE5086" stop-opacity="0"/>
</linearGradient>
<linearGradient id="paint10_linear_7110_68794" x1="733.822" y1="14.0039" x2="733.822" y2="18.0087" gradientUnits="userSpaceOnUse">
<stop stop-color="#FF9E2A"/>
<stop offset="1" stop-color="#FF9E2A" stop-opacity="0.33"/>
</linearGradient>
<linearGradient id="paint11_linear_7110_68794" x1="739.829" y1="14.0039" x2="739.829" y2="18.0087" gradientUnits="userSpaceOnUse">
<stop stop-color="#56D1E4" stop-opacity="0.6"/>
<stop offset="1" stop-color="#56D1E4"/>
</linearGradient>
<linearGradient id="paint12_linear_7110_68794" x1="740.829" y1="28.4544" x2="740.829" y2="56.0592" gradientUnits="userSpaceOnUse">
<stop stop-color="#1F7553"/>
<stop offset="1" stop-color="#46B679"/>
</linearGradient>
<linearGradient id="paint13_linear_7110_68794" x1="744.834" y1="33.0312" x2="744.834" y2="37.0361" gradientUnits="userSpaceOnUse">
<stop stop-color="#FF9E2A"/>
<stop offset="1" stop-color="#FF9E2A" stop-opacity="0.33"/>
</linearGradient>
<linearGradient id="paint14_linear_7110_68794" x1="720.401" y1="58.1829" x2="720.648" y2="65.9512" gradientUnits="userSpaceOnUse">
<stop stop-color="#D9D9D9"/>
<stop offset="1" stop-color="#E8E8EC"/>
</linearGradient>
<linearGradient id="paint15_linear_7110_68794" x1="715.486" y1="58.3393" x2="720.175" y2="66.2322" gradientUnits="userSpaceOnUse">
<stop offset="0.488515" stop-opacity="0.13"/>
<stop offset="1" stop-opacity="0"/>
</linearGradient>
<linearGradient id="paint16_linear_7110_68794" x1="715.481" y1="42.7871" x2="716.002" y2="59.1634" gradientUnits="userSpaceOnUse">
<stop stop-color="#46B679"/>
<stop offset="1" stop-color="#1F7553"/>
</linearGradient>
<linearGradient id="paint17_linear_7110_68794" x1="718.539" y1="44.734" x2="716.89" y2="58.611" gradientUnits="userSpaceOnUse">
<stop stop-color="#46B679"/>
<stop offset="1" stop-color="#1F7553"/>
</linearGradient>
<linearGradient id="paint18_linear_7110_68794" x1="722.44" y1="50.0146" x2="722.724" y2="58.9472" gradientUnits="userSpaceOnUse">
<stop stop-color="#1F7553"/>
<stop offset="0.609375" stop-color="#46B679" stop-opacity="0.87"/>
</linearGradient>
<linearGradient id="paint19_linear_7110_68794" x1="722.44" y1="50.0146" x2="722.724" y2="58.9472" gradientUnits="userSpaceOnUse">
<stop stop-color="#1F7553"/>
<stop offset="0.609375" stop-color="#46B679" stop-opacity="0.87"/>
</linearGradient>
<linearGradient id="paint20_linear_7110_68794" x1="721.579" y1="44.9778" x2="722.024" y2="58.9722" gradientUnits="userSpaceOnUse">
<stop stop-color="#1F7553"/>
<stop offset="0.609375" stop-color="#46B679" stop-opacity="0.87"/>
</linearGradient>
<linearGradient id="paint21_linear_7110_68794" x1="717.231" y1="45.053" x2="722.315" y2="57.6595" gradientUnits="userSpaceOnUse">
<stop stop-color="#1F7553"/>
<stop offset="0.609375" stop-color="#46B679" stop-opacity="0.87"/>
</linearGradient>
</defs>
</svg>
