<svg width="116" height="86" viewBox="0 0 116 86" fill="none" xmlns="http://www.w3.org/2000/svg">
<path d="M104.436 67.1291C101.234 70.3314 96.8072 72.5255 91.6427 73.9397C76.3802 78.1165 71.5264 67.1597 50.5728 71.9938C31.9964 76.284 18.182 69.3891 12.2597 58.8276C11.5035 57.4802 10.8738 56.0656 10.3785 54.6018C6.03595 41.7512 11.8403 41.0387 16.1293 22.5511C20.4183 4.06358 36.6084 -3.9238 52.6408 2.6325C59.3157 5.34994 66.3546 7.06711 73.5301 7.72861C83.7551 8.66632 93.0479 14.098 98.7696 22.6324C101.023 25.9925 103.307 30.0942 105.476 35.0984C112.263 50.7544 110.695 60.8685 104.436 67.1291Z" fill="url(#paint0_linear_607_1437)"/>
<path d="M11.3429 56.0499C17.0551 56.0499 21.6857 51.4147 21.6857 45.6968C21.6857 39.979 17.0551 35.3438 11.3429 35.3438C5.63065 35.3438 1 39.979 1 45.6968C1 51.4147 5.63065 56.0499 11.3429 56.0499Z" stroke="white" stroke-width="1.368"/>
<path d="M57.3905 10.0684V25.588H61.3029" stroke="white" stroke-width="1.368"/>
<path d="M93.0785 41.0918H100.493V53.1931" stroke="white" stroke-width="1.368"/>
<path d="M92.206 53.1934H110.014" stroke="white" stroke-width="1.368"/>
<path d="M95.1694 41.3561L94.1852 37.8105L93.5117 39.3795C93.0965 39.1823 92.6426 39.0803 92.183 39.0807H87.0766L80.1442 66.5578L90.5528 66.4306L95.2214 42.7841C95.316 42.3106 95.2982 41.8214 95.1694 41.3561Z" fill="url(#paint1_linear_607_1437)"/>
<path d="M86.0541 35.3828H91.1651C92.0921 35.3828 92.9702 35.7987 93.5586 36.5158C94.1469 37.2328 94.3835 38.1759 94.2035 39.0861L89.5227 62.7326L79.114 62.8598L86.0541 35.3828Z" fill="url(#paint2_linear_607_1437)"/>
<path d="M22.552 35.6839V35.6962C22.549 35.9234 22.7123 36.1187 22.9363 36.1558C23.6863 36.2891 25.2782 36.5864 25.3853 36.6048L22.2383 36.8162C22.0426 36.8285 21.8939 36.9973 21.9061 37.1931C21.9152 37.3693 22.0495 37.5135 22.2245 37.5348C23.1613 37.6513 25.9777 38.0083 25.9777 38.0083L23.6817 39.401C23.455 39.5305 23.3652 39.8122 23.4751 40.0492C23.5168 40.1314 23.5817 40.1996 23.6618 40.2453C23.7933 40.3237 23.9542 40.3345 24.095 40.2744L24.6659 40.0323L24.3338 40.4307C24.149 40.6544 24.179 40.9855 24.4011 41.1723C24.423 41.1906 24.446 41.2075 24.47 41.2228C24.6298 41.3154 24.826 41.3189 24.9889 41.232L25.3792 40.9057C25.4616 40.8388 25.5605 40.7954 25.6655 40.78L26.9237 40.6191C26.9237 40.6191 28.7774 42.1514 30.2392 42.3858L35.3624 46.5135L37.9645 41.6411L31.7913 38.8357L31.7132 38.7545L31.6229 38.6595L31.5372 38.5691L29.4248 36.3428L29.3468 36.2585L29.2871 36.1941L29.0039 35.8877C28.8728 35.7482 28.6942 35.6629 28.5034 35.6487H28.436L23.0495 35.2243C22.9212 35.2135 22.7944 35.2572 22.6998 35.3446C22.6052 35.432 22.5516 35.5551 22.552 35.6839Z" fill="#C4C4C4"/>
<path d="M66.446 32.2773L63.354 44.6882L53.6633 51.721L53.5102 51.8283L52.8505 52.3063C52.6601 52.4667 52.4551 52.6088 52.2382 52.7307C51.0916 53.3699 49.7062 53.4116 48.5232 52.8426L48.4099 52.7874L47.0323 52.1224L46.8655 52.0412L35.3608 46.5115C35.7588 44.9992 37.963 41.6376 37.963 41.6376C42.4908 43.418 50.0202 45.5554 50.0202 45.5554C51.1881 44.3082 56.4353 38.9532 58.8431 36.6824C59.6091 35.9571 60.4489 35.3142 61.3488 34.7641C64.5541 32.8121 66.446 32.2773 66.446 32.2773Z" fill="url(#paint3_linear_607_1437)"/>
<path d="M64.2159 37.8105L52.7648 47.6366C51.3344 48.8637 49.3432 49.198 47.5911 48.5053L42.5398 46.5135" stroke="#64EDFF" stroke-width="0.6984"/>
<path d="M69.1492 31.1671C69.1492 31.1671 66.3848 31.9593 65.2108 33.185C64.0367 34.4108 61.2815 50.6261 61.9703 56.0654C62.6591 61.5047 62.5061 62.4241 62.5061 62.4241H80.5682L85.3898 33.0057C85.3898 33.0057 80.5682 31.0461 79.3497 29.7207L69.1492 31.1671Z" fill="url(#paint4_linear_607_1437)"/>
<path d="M72.7617 32.2773C72.7617 32.2773 69.7738 51.5509 68.5906 55.9851" stroke="#64EDFF" stroke-width="0.6984"/>
<path d="M61.9137 52.0312C61.9137 52.0312 65.1649 53.9588 74.2633 54.3801" stroke="#64EDFF" stroke-width="0.6984"/>
<path d="M77.5175 28.4667C77.5175 28.4667 71.8141 31.7149 69.7355 31.4223L69.7829 31.0852L69.8549 30.6056L69.9299 30.0923L70.2085 28.1832L76.0786 24.388L76.6526 24.0156L77.5175 28.4667Z" fill="#F0BEB4"/>
<path d="M69.8488 30.6044L69.9238 30.0911L70.2023 28.182L76.0725 24.3867C76.0832 24.4373 76.0955 24.4817 76.094 24.4878C76.048 26.7739 72.3652 30.5523 69.8488 30.6044Z" fill="#B48F87"/>
<path d="M79.5702 20.1057C79.5702 20.1057 78.2936 24.5491 76.2425 25.0164C74.1913 25.4837 74.4056 23.521 74.4056 23.521L74.8159 17.291C74.8159 17.291 79.685 19.2798 79.5702 20.1057Z" fill="url(#paint5_linear_607_1437)"/>
<path d="M67.5925 16.5823C67.5925 16.5823 66.7001 22.2637 67.565 24.703C68.4298 27.1422 69.2013 28.5044 71.0718 28.3358C72.9423 28.1673 75.6929 26.5723 76.2501 25.0155C76.2501 25.0155 77.5558 25.2913 77.7808 23.7806C78.0058 22.2698 76.7797 21.8607 76.0358 22.5839C75.2919 23.3071 74.9077 23.6565 74.9077 23.6565C75.4681 22.8644 75.8222 21.9449 75.9378 20.9813C76.0159 20.1447 74.7837 20.4664 74.9276 19.947C76.2241 15.2753 67.5925 16.5823 67.5925 16.5823Z" fill="#F0BEB4"/>
<path d="M70.6893 25.7916C70.7742 25.2936 70.5567 24.841 70.2034 24.7806C69.85 24.7202 69.4947 25.075 69.4098 25.5729C69.3248 26.0709 69.5424 26.5236 69.8957 26.584C70.2491 26.6443 70.6043 26.2896 70.6893 25.7916Z" fill="white"/>
<path d="M72.337 21.8751C72.4012 21.4989 72.3206 21.1713 72.1571 21.1433C71.9935 21.1154 71.8089 21.3977 71.7447 21.7739C71.6806 22.1501 71.7611 22.4777 71.9247 22.5057C72.0882 22.5336 72.2728 22.2513 72.337 21.8751Z" fill="#1B4736"/>
<path d="M69.1434 21.2246C69.1641 20.913 69.0707 20.6531 68.9347 20.644C68.7987 20.6349 68.6717 20.8802 68.6509 21.1917C68.6302 21.5033 68.7236 21.7632 68.8596 21.7723C68.9956 21.7813 69.1227 21.5361 69.1434 21.2246Z" fill="#1B4736"/>
<path d="M73.6846 20.9163L73.2468 20.4367C73.0813 20.2537 72.8502 20.1436 72.604 20.1303L72.1141 20.1058C71.9875 20.0995 71.8783 20.1939 71.8662 20.3203V20.3509C71.8593 20.4158 71.8797 20.4806 71.9223 20.53C71.9649 20.5793 72.0261 20.6088 72.0912 20.6114L72.6698 20.6374C72.7776 20.6418 72.8838 20.6651 72.9836 20.7064L73.6433 20.9776C73.6592 20.981 73.6756 20.9744 73.6847 20.9609C73.6938 20.9474 73.6937 20.9298 73.6846 20.9163Z" fill="#1B4736"/>
<path d="M67.7181 19.5047L68.3931 19.2243C68.5862 19.144 68.8032 19.144 68.9962 19.2243L69.4983 19.4281C69.6185 19.4771 69.6791 19.612 69.6361 19.7346V19.7499C69.6138 19.8134 69.5664 19.865 69.5051 19.8925C69.4437 19.92 69.3737 19.9211 69.3115 19.8954L68.7605 19.6671C68.6754 19.6318 68.5847 19.612 68.4926 19.6089L67.7273 19.5737C67.71 19.5732 67.6957 19.5602 67.6934 19.5431C67.6911 19.526 67.7016 19.5097 67.7181 19.5047Z" fill="#1B4736"/>
<path d="M70.1197 21.7402C70.1197 21.7402 69.8993 22.7852 69.3774 23.1192C68.8554 23.4532 68.9319 24.0968 69.4723 24.181" stroke="white" stroke-width="1.44"/>
<path d="M67.1242 17.4344C67.2845 17.4386 67.445 17.434 67.6048 17.4206C68.3487 17.3762 68.7069 17.4007 69.1263 17.3654C69.3039 17.3517 69.5855 17.3103 69.5855 17.3118C70.0019 17.2567 70.2406 17.2398 70.5452 17.1892C71.7989 16.987 70.7748 17.1693 71.9229 16.9502C72.2535 16.8874 72.6163 16.8491 72.8918 16.797C72.9423 16.7878 72.9943 16.7786 73.0449 16.774C73.0429 16.7806 73.0398 16.7869 73.0357 16.7924C72.9607 16.9288 72.8734 17.059 72.7954 17.1938C72.6423 17.462 72.601 17.5447 72.5994 17.6382C72.5926 17.7461 72.6455 17.8491 72.7372 17.9063C72.8478 17.9734 72.9738 18.0109 73.103 18.0151C73.2439 18.0219 73.3851 18.0188 73.5255 18.0059L73.9418 17.9814C74.2365 17.9613 74.5325 17.9716 74.825 18.012C75.004 18.0359 75.181 18.0728 75.3547 18.1224C75.4371 18.1451 75.5175 18.1748 75.595 18.2112C75.6396 18.2331 75.6773 18.2671 75.7037 18.3093C75.7204 18.341 75.7298 18.3761 75.7312 18.4119C75.7252 18.5154 75.7093 18.618 75.6838 18.7184C75.6223 18.8851 75.6158 19.0672 75.6654 19.2378C75.6929 19.2965 75.7326 19.3487 75.7817 19.391C75.8688 19.4655 75.9683 19.5241 76.0756 19.5642L76.1062 19.5749C76.1593 19.5955 76.2141 19.6113 76.27 19.6224C76.3283 19.6349 76.3879 19.6406 76.4476 19.6392C76.5289 19.6363 76.6097 19.6235 76.6879 19.6009C76.773 19.5772 76.8564 19.5475 76.9374 19.5121C77.0155 19.4784 77.0905 19.4431 77.1609 19.4094L77.2083 19.3849C77.2542 19.3619 77.3032 19.3389 77.3507 19.319H77.3675H77.3767L77.3859 19.3267C77.392 19.3369 77.3971 19.3477 77.4012 19.3588C77.4157 19.4352 77.4249 19.5125 77.4287 19.5902V19.627C77.4287 19.6653 77.4287 19.7036 77.4395 19.7434C77.4395 19.7603 77.4395 19.7787 77.4486 19.7971C77.4586 19.8407 77.4763 19.8822 77.5007 19.9196C77.5285 19.9555 77.5648 19.984 77.6063 20.0024H77.6185C77.6586 20.0133 77.7009 20.0133 77.741 20.0024C77.7867 19.9913 77.8301 19.9727 77.8696 19.9472C77.9124 19.9181 77.9538 19.8875 77.9936 19.8568C78.0334 19.8262 78.0487 19.8139 78.0762 19.7955C78.0886 19.7869 78.102 19.7797 78.116 19.7741H78.1329H78.1405H78.1512L78.1757 19.7925C78.2008 19.8222 78.2233 19.854 78.2431 19.8875L78.2553 19.9104L78.3058 19.9978C78.3329 20.0428 78.3659 20.084 78.4038 20.1204C78.4351 20.1485 78.4714 20.1703 78.5109 20.1847H78.5263C78.5817 20.2018 78.6402 20.2065 78.6977 20.1985C78.798 20.1789 78.892 20.1353 78.9717 20.0713C79.0259 20.0307 79.077 19.9861 79.1247 19.938L79.1431 20.0453L79.1508 20.0912C79.16 20.1525 79.1707 20.2123 79.1814 20.272C79.1942 20.3455 79.2131 20.4178 79.238 20.4881C79.2659 20.558 79.3212 20.6134 79.3911 20.6413C79.4085 20.647 79.4265 20.6511 79.4447 20.6536C79.5518 20.6643 79.636 20.5693 79.6896 20.5003C79.7364 20.4343 79.7769 20.364 79.8105 20.2904V20.2797C79.8426 20.2153 79.8702 20.1495 79.8947 20.0866C79.9495 19.9481 79.996 19.8064 80.034 19.6622C80.0753 19.509 80.1212 19.3389 80.1549 19.1643C80.184 19.011 80.2085 18.8502 80.2314 18.6694C80.255 18.5017 80.2693 18.3329 80.2744 18.1637C80.2755 17.9848 80.2633 17.8061 80.2376 17.629C80.2146 17.4559 80.1825 17.2842 80.1442 17.1188C80.0731 16.7932 79.9594 16.4784 79.8059 16.1826C79.6578 15.881 79.4721 15.5994 79.2533 15.3445C79.0368 15.0809 78.7965 14.8377 78.5354 14.6182C78.2979 14.411 78.0417 14.2264 77.7701 14.0666C77.6354 13.9885 77.4961 13.9134 77.3583 13.8368C77.2206 13.7602 77.0828 13.7249 76.9389 13.6621C76.6328 13.5227 76.3266 13.394 76.0297 13.276L75.5705 13.0845C74.1607 12.5053 73.9571 12.4333 72.2458 12.1743C71.5377 12.0753 70.8363 11.9325 70.1457 11.7469C69.8733 11.6779 69.5518 11.5936 69.2273 11.4864C69.0635 11.4328 68.9212 11.3822 68.7911 11.3332H68.7758C68.664 11.2903 68.5508 11.2443 68.4421 11.1999L68.3365 11.157L68.1405 11.0804C67.8145 10.9578 67.6706 11.1355 67.6951 11.422C67.7141 11.6187 67.7659 11.8109 67.8482 11.9905L67.7609 11.9583C67.4706 11.8501 67.1729 11.7631 66.8701 11.6978C66.6267 11.6488 66.1629 11.6105 65.9517 11.7285C65.8286 11.8014 65.7406 11.9215 65.7083 12.061C65.6742 12.1788 65.679 12.3046 65.722 12.4195C65.8362 12.7428 66.0375 13.0281 66.3037 13.2438C66.5052 13.42 66.7196 13.5808 66.9451 13.7249L66.8058 13.7418C65.8399 13.8782 65.4756 14.0069 65.1741 14.4098C65.1107 14.4938 65.0592 14.5861 65.021 14.6841C64.8679 15.179 65.9807 15.2617 66.6542 15.4196L66.6221 15.4333L66.5073 15.487C66.2362 15.5967 65.9817 15.7437 65.7511 15.9236C65.445 16.2117 65.497 16.5212 65.7511 16.843C65.8591 16.9656 65.9869 17.0692 66.1292 17.1494C66.4299 17.3306 66.7732 17.4289 67.1242 17.4344Z" fill="url(#paint6_linear_607_1437)"/>
<path d="M73.8133 14.1823C73.3296 14.0536 72.8505 13.9096 72.3729 13.7579C71.8953 13.6062 71.4683 13.4514 71.0274 13.2783C70.9657 13.255 70.9345 13.1861 70.9578 13.1243C70.981 13.0625 71.0499 13.0313 71.1116 13.0546C71.2279 13.1021 71.3443 13.148 71.4621 13.1925C71.9091 13.361 72.3637 13.5081 72.8183 13.6521C73.0602 13.7277 73.3025 13.7992 73.5454 13.8666C73.7857 13.9356 74.0276 13.9969 74.2663 14.0643C74.5051 14.1317 74.747 14.1976 74.9842 14.2757C75.2215 14.3539 75.4618 14.4412 75.6975 14.5347C75.9333 14.6282 76.1567 14.7277 76.3833 14.8411C76.6098 14.9545 76.8425 15.0694 77.0721 15.1981C77.1808 15.2625 77.2879 15.333 77.3935 15.4034C77.596 15.5391 77.7888 15.6886 77.9706 15.8509C78.0579 15.9275 78.1359 16.0041 78.2186 16.0945C78.2394 16.1179 78.2489 16.1492 78.2446 16.1803C78.2419 16.2116 78.2268 16.2406 78.2026 16.2607C78.1785 16.2809 78.1473 16.2905 78.116 16.2875C78.0841 16.2841 78.0546 16.2688 78.0334 16.2446C77.9752 16.1864 77.917 16.1266 77.8573 16.0684C77.6966 15.9226 77.5269 15.7869 77.3492 15.6624C77.1659 15.5256 76.9747 15.3997 76.7767 15.2855L76.6236 15.2027C76.4042 15.0914 76.1823 14.9862 75.9578 14.8871C75.7236 14.7844 75.4863 14.691 75.246 14.6036C75.0057 14.5163 74.7745 14.4504 74.5342 14.3723C74.2939 14.2941 74.0521 14.239 73.8133 14.1823Z" fill="url(#paint7_linear_607_1437)"/>
<path d="M67.8389 13.0615C68.0272 13.1489 68.2155 13.2377 68.3992 13.3343C68.5829 13.4308 68.7696 13.5365 68.9548 13.6407C69.0375 13.6836 69.1201 13.7265 69.2043 13.7663C69.4263 13.8705 69.6549 13.9601 69.8885 14.0345C70.1166 14.1111 70.3477 14.1877 70.5835 14.2367C70.6493 14.2505 70.7166 14.2628 70.7809 14.2796C70.811 14.2906 70.8353 14.3132 70.8483 14.3425C70.8598 14.3715 70.8598 14.4038 70.8483 14.4329C70.8378 14.4632 70.815 14.4877 70.7855 14.5003C70.7565 14.5118 70.7242 14.5118 70.6952 14.5003L70.6539 14.4941L70.4304 14.4451L70.21 14.3869C70.0569 14.344 69.9038 14.2965 69.7615 14.2459L69.6084 14.1892C69.4278 14.1218 69.2518 14.0467 69.0773 13.9625C68.6671 13.7633 68.4803 13.6131 67.7578 13.2822C67.6962 13.2592 67.6647 13.1907 67.6874 13.129C67.7122 13.0699 67.7786 13.0403 67.8389 13.0615Z" fill="url(#paint8_linear_607_1437)"/>
<path d="M68.4299 15.3634C68.9479 15.5706 69.4768 15.7496 70.0141 15.8997C70.2649 15.9575 70.5224 15.9812 70.7795 15.9702C71.0762 15.9536 71.3711 15.9126 71.6612 15.8476C71.9062 15.7922 72.154 15.7498 72.4035 15.7204C72.6551 15.6993 72.9082 15.7065 73.1582 15.7419C73.4014 15.7787 73.6374 15.8531 73.8577 15.9625C73.902 15.974 73.9358 16.0099 73.9448 16.0548C73.9537 16.0997 73.9363 16.1458 73.8998 16.1735C73.8633 16.2011 73.8143 16.2055 73.7735 16.1847C73.7016 16.151 73.6281 16.1173 73.5515 16.0897C73.2352 15.9791 72.9005 15.9307 72.5658 15.9472C72.4602 15.9472 72.3561 15.9641 72.2505 15.9794C71.929 16.03 71.5632 16.1204 71.2218 16.1679C70.7105 16.2539 70.1861 16.2182 69.6912 16.0637C69.457 15.9962 69.232 15.9104 69.0008 15.8308L68.3334 15.5871C68.2717 15.5635 68.2409 15.4942 68.2646 15.4324C68.2882 15.3706 68.3574 15.3398 68.4192 15.3634H68.4299Z" fill="url(#paint9_linear_607_1437)"/>
<path d="M75.0164 17.2512C75.223 17.2343 75.4312 17.2175 75.6394 17.2129C75.7389 17.2129 75.8384 17.2129 75.9379 17.2129C76.0198 17.2159 76.1009 17.2314 76.1782 17.2589C76.2392 17.2824 76.2699 17.3507 76.2471 17.4121C76.2235 17.4731 76.1557 17.5044 76.094 17.4826L76.0481 17.4672C75.8883 17.4455 75.7268 17.4399 75.5659 17.4504C75.396 17.4596 75.2261 17.4703 75.0577 17.4856C75.0365 17.4895 75.0147 17.4895 74.9934 17.4856C74.9541 17.4705 74.926 17.4354 74.9199 17.3937C74.9142 17.3626 74.9211 17.3304 74.9393 17.3045C74.9574 17.2786 74.9852 17.261 75.0164 17.2558V17.2512Z" fill="url(#paint10_linear_607_1437)"/>
<path d="M78.6993 17.86C78.6798 17.8358 78.6704 17.8051 78.6732 17.7742C78.6778 17.726 78.7111 17.6853 78.7574 17.6712C78.8038 17.6571 78.854 17.6724 78.8847 17.7098C78.914 17.7519 78.9362 17.7985 78.9506 17.8477C78.9971 18.0037 79.0244 18.1647 79.0319 18.3273C79.0471 18.5461 79.0471 18.7658 79.0319 18.9846C79.0279 19.0199 79.0085 19.0515 78.9789 19.0711C78.9493 19.0906 78.9126 19.096 78.8786 19.0857C78.7529 19.0398 78.8265 18.9693 78.8112 18.433C78.8064 18.2638 78.7823 18.0957 78.7391 17.932C78.7281 17.9068 78.7147 17.8827 78.6993 17.86Z" fill="url(#paint11_linear_607_1437)"/>
<path d="M78.3472 18.2496C78.4115 18.2741 78.4406 18.3308 78.4421 18.5435C78.4421 18.6277 78.4344 18.7104 78.4268 18.7946C78.4258 18.8392 78.4001 18.8795 78.36 18.8992C78.32 18.9188 78.2723 18.9145 78.2364 18.888C78.2006 18.8615 78.1825 18.8172 78.1895 18.7731C78.2079 18.6442 78.2079 18.5133 78.1895 18.3843V18.3935C78.1811 18.3697 78.1811 18.3438 78.1895 18.32C78.2001 18.289 78.2231 18.2638 78.253 18.2505C78.2829 18.2371 78.317 18.2368 78.3472 18.2496Z" fill="url(#paint12_linear_607_1437)"/>
<path d="M77.7288 18.3464C77.7305 18.3359 77.7323 18.3342 77.7288 18.3464V18.3464Z" fill="url(#paint13_linear_607_1437)"/>
<path d="M77.7257 18.2506C77.7517 18.3072 77.718 18.3914 77.6813 18.5169C77.6644 18.5621 77.6219 18.5926 77.5737 18.5943C77.5254 18.596 77.4809 18.5685 77.4609 18.5246C77.4349 18.4679 77.4609 18.4388 77.5007 18.2827C77.5042 18.2423 77.5303 18.2073 77.568 18.1924C77.6277 18.1653 77.698 18.1912 77.7257 18.2506Z" fill="url(#paint14_linear_607_1437)"/>
<path d="M77.7318 18.3192V18.3027C77.7333 18.3192 77.7303 18.3342 77.7318 18.3192Z" fill="url(#paint15_linear_607_1437)"/>
<path d="M79.3176 30.0911C79.1355 30.2274 78.9548 30.3561 78.7727 30.4741L78.6778 30.5385C78.1215 30.9022 77.5321 31.2126 76.9175 31.4654L76.8103 31.5083C76.2007 31.752 75.5686 31.9348 74.923 32.0538L74.8097 32.0737C74.2744 32.1687 73.7323 32.2199 73.1887 32.2269H73.0724C72.5846 32.2272 72.0972 32.1949 71.6137 32.1304L71.5004 32.1136C71.1248 32.0593 70.7523 31.9852 70.3845 31.8914L70.2728 31.8623C69.9548 31.7768 69.6416 31.6745 69.3345 31.5558L69.2671 31.5298L69.2289 31.5114C69.1717 31.4763 69.131 31.4197 69.116 31.3542C69.1011 31.2888 69.113 31.2201 69.1493 31.1636L69.7615 30.1845C69.807 30.1141 69.8845 30.071 69.9682 30.0696H70.0003L70.0922 30.0788C70.2835 30.0972 70.4718 30.1079 70.66 30.111C70.6998 30.111 70.7381 30.111 70.7764 30.111C71.1776 30.1145 71.5786 30.0899 71.9764 30.0374L72.0989 30.019C72.5609 29.9525 73.0176 29.8537 73.4658 29.7233L73.5898 29.6881C74.0031 29.5642 74.4093 29.418 74.8067 29.2499L74.9199 29.2008C75.3271 29.0262 75.6991 28.8423 76.0236 28.6661L76.1261 28.6094C76.4751 28.4164 76.769 28.234 76.994 28.0854L77.0905 28.0226C77.1884 27.9552 77.2711 27.8985 77.3369 27.851C77.4397 27.7777 77.581 27.7928 77.666 27.8862L79.3498 29.7141C79.4 29.7663 79.4253 29.8377 79.4191 29.9099C79.413 29.9821 79.376 30.0482 79.3176 30.0911Z" fill="url(#paint16_linear_607_1437)"/>
<path d="M88.1956 41.9162C87.5742 44.6834 85.5016 52.3705 84.2265 57.0437C84.2158 57.0881 84.2036 57.1325 84.1913 57.1754L84.1776 57.2291C84.0413 57.7301 83.9143 58.1913 83.801 58.6081C83.7707 58.7203 83.7328 58.8303 83.6877 58.9375C83.2324 60.0661 82.1251 60.7934 80.9096 60.7623L79.7921 60.7348L78.2507 60.6965H78.1421H78.0686L66.7415 60.4145V54.3776C66.7415 54.3776 74.4623 53.2545 75.7129 53.7648C75.7129 53.7648 76.2899 51.9261 77.3966 52.539C77.3966 52.539 79.2181 42.4387 79.933 38.8641C80.6478 35.2895 81.9229 32.6204 85.3868 33.0034C88.4512 33.3359 89.114 37.8298 88.1956 41.9162Z" fill="url(#paint17_linear_607_1437)"/>
<path d="M66.7491 54.3809V60.407L65.722 60.4162H65.5689L59.8182 60.4714C58.2415 61.1394 55.4817 60.7625 55.4817 60.7625L54.3429 61.691C54.2492 61.7696 54.1787 61.8724 54.1393 61.9883L53.9541 62.549C53.8473 62.7343 53.6518 62.8504 53.4382 62.8555C53.4055 62.8551 53.3727 62.8525 53.3403 62.8478C53.0089 62.7996 52.7777 62.4937 52.8214 62.1614L52.904 61.5654L52.4923 62.1537C52.3894 62.2984 52.2242 62.3859 52.0469 62.3897C51.9392 62.3936 51.8328 62.3659 51.7407 62.31C51.4861 62.1445 51.402 61.8105 51.5479 61.5439L52.9637 58.7737L48.984 60.6016C48.7977 60.6889 48.5757 60.6286 48.4589 60.4591C48.3956 60.3705 48.37 60.2604 48.3878 60.1529C48.4056 60.0454 48.4653 59.9494 48.5538 59.8861L51.5203 57.7502C51.4101 57.7931 49.6636 58.4749 48.8447 58.8028C48.6012 58.9003 48.3231 58.8077 48.1865 58.5837L48.1788 58.573C48.1002 58.4468 48.0778 58.2935 48.1171 58.15C48.1563 58.0066 48.2536 57.8861 48.3855 57.8176L53.9418 54.9325L54.0123 54.8972C54.2086 54.7944 54.4363 54.7688 54.6506 54.8252L55.1098 54.9462L55.2093 54.9723L55.3363 55.0075L58.7727 55.9023L58.9105 55.9391L59.0635 55.9774L59.1906 56.0096L65.8338 54.5785L65.9868 54.5463L66.7491 54.3809Z" fill="url(#paint18_linear_607_1437)"/>
<path fill-rule="evenodd" clip-rule="evenodd" d="M59.0207 57.5089C59.1388 57.0331 58.9032 56.5402 58.4589 56.3337C57.4303 55.8572 55.419 55.0191 54.8281 55.4527C54.0215 56.0426 54.2694 56.1974 54.6108 56.3843C54.9521 56.5712 54.2694 57.129 54.7639 57.656C55.2583 58.1831 54.6506 59.2143 55.8552 59.5682C56.8777 59.8701 58.6503 59.0412 59.0207 57.5089Z" stroke="white" stroke-width="0.8784"/>
<path d="M65.9844 54.5449L65.7223 60.4148L65.569 60.4163L65.828 54.5771L65.9844 54.5449Z" fill="#64EDFF"/>
<path d="M14.7992 26.4988L59.3896 21.2832L57.7334 55.9876L13.8777 47.5957L14.7992 26.4988Z" fill="url(#paint19_linear_607_1437)"/>
<path d="M41.3566 23.9414L39.5198 52.0298L11.202 47.2278C9.16164 37.9841 12.1725 25.0109 12.1725 25.0109L41.3566 23.9414Z" fill="url(#paint20_linear_607_1437)"/>
<path d="M19.3667 38.3948C19.3667 38.3948 22.8873 36.9132 26.714 38.3948C26.714 38.3948 22.9944 51.3466 22.3577 57.6485C22.3105 58.1329 22.4748 58.6142 22.8084 58.9683C23.1419 59.3225 23.6122 59.515 24.0981 59.4963C26.7002 59.3952 31.2923 59.6358 32.7342 62.4244H16.9681C16.3733 62.4259 15.8067 62.1703 15.4138 61.7233C15.0209 61.2763 14.8398 60.6812 14.917 60.0908C15.6211 54.7373 17.4778 41.7733 19.3667 38.3948Z" fill="url(#paint21_linear_607_1437)"/>
<path d="M41.3565 23.9414L39.5197 52.0298C35.1328 37.2685 41.3565 23.9414 41.3565 23.9414Z" fill="url(#paint22_linear_607_1437)"/>
<path d="M108.113 62.4238C105.051 66.0843 100.622 68.8039 95.3393 70.7743C79.7263 76.5967 73.6035 65.5648 52.0851 72.613C33.0082 78.8613 17.8727 72.9485 10.6663 62.4238H108.113Z" fill="url(#paint23_linear_607_1437)"/>
<path d="M26.8364 8.80859V20.2833" stroke="white" stroke-width="1.368"/>
<path d="M34.9782 20.2852H18.6963" stroke="white" stroke-width="1.368"/>
<path d="M23.6511 22.1769C23.9521 22.1769 24.1961 21.9327 24.1961 21.6314C24.1961 21.3302 23.9521 21.0859 23.6511 21.0859C23.3502 21.0859 23.1062 21.3302 23.1062 21.6314C23.1062 21.9327 23.3502 22.1769 23.6511 22.1769Z" stroke="white" stroke-width="0.6696"/>
<path d="M25.5354 22.1769C25.8364 22.1769 26.0803 21.9327 26.0803 21.6314C26.0803 21.3302 25.8364 21.0859 25.5354 21.0859C25.2344 21.0859 24.9905 21.3302 24.9905 21.6314C24.9905 21.9327 25.2344 22.1769 25.5354 22.1769Z" stroke="white" stroke-width="0.6696"/>
<path d="M105.122 55.0304C105.423 55.0304 105.667 54.7862 105.667 54.4849C105.667 54.1837 105.423 53.9395 105.122 53.9395C104.821 53.9395 104.577 54.1837 104.577 54.4849C104.577 54.7862 104.821 55.0304 105.122 55.0304Z" stroke="white" stroke-width="0.6696"/>
<path d="M107.008 55.0304C107.309 55.0304 107.553 54.7862 107.553 54.4849C107.553 54.1837 107.309 53.9395 107.008 53.9395C106.707 53.9395 106.463 54.1837 106.463 54.4849C106.463 54.7862 106.707 55.0304 107.008 55.0304Z" stroke="white" stroke-width="0.6696"/>
<path d="M65.2108 33.1855C65.2108 33.1855 69.4079 36.512 82.0942 33.9516" stroke="#64EDFF" stroke-width="0.6984"/>
<path d="M30.3541 28.3784L18.4579 28.2849C18.2031 28.2829 17.9948 28.4881 17.9928 28.7432C17.9908 28.9983 18.1958 29.2068 18.4507 29.2088L30.3468 29.3023C30.6017 29.3043 30.8099 29.0991 30.8119 28.844C30.8139 28.5889 30.609 28.3804 30.3541 28.3784Z" fill="white"/>
<path d="M30.3404 30.1225L18.4443 30.029C18.1894 30.027 17.9812 30.2322 17.9792 30.4873C17.9772 30.7425 18.1822 30.9509 18.437 30.9529L30.3332 31.0464C30.588 31.0484 30.7963 30.8432 30.7983 30.5881C30.8003 30.333 30.5953 30.1245 30.3404 30.1225Z" fill="white"/>
<path d="M30.3267 31.8667L18.4306 31.7732C18.1757 31.7712 17.9675 31.9764 17.9655 32.2315C17.9635 32.4866 18.1685 32.695 18.4234 32.697L30.3195 32.7906C30.5744 32.7926 30.7826 32.5874 30.7846 32.3323C30.7866 32.0771 30.5816 31.8687 30.3267 31.8667Z" fill="white"/>
<path d="M70.0952 30.0791L69.3299 31.5546L69.2625 31.5285L69.2242 31.5102L69.9666 30.0684H69.9988L70.0952 30.0791Z" fill="white"/>
<path d="M70.7802 30.123L70.3847 31.8943L70.2728 31.8652L70.6637 30.123C70.7035 30.123 70.7419 30.123 70.7802 30.123Z" fill="white"/>
<path d="M72.1028 30.0293L71.6138 32.1315L71.5004 32.1146L71.9801 30.0477L72.1028 30.0293Z" fill="white"/>
<path d="M73.5935 29.6934L73.1889 32.2215H73.0724L73.4694 29.7271L73.5935 29.6934Z" fill="white"/>
<path d="M74.9232 29.2012V32.0465L74.8098 32.0664V29.2563L74.9232 29.2012Z" fill="white"/>
<path d="M76.9175 31.4616L76.8103 31.5045L76.0266 28.67L76.1292 28.6133L76.9175 31.4616Z" fill="white"/>
<path d="M78.7666 30.4734L78.6717 30.5378L76.9879 28.0863L77.0844 28.0234L78.7666 30.4734Z" fill="white"/>
<path d="M84.2266 57.0443C84.2158 57.0887 84.2036 57.1331 84.1914 57.176L84.1776 57.2297C83.5119 56.7981 82.7402 56.559 81.9474 56.5386C79.8854 56.5403 78.2142 58.2132 78.2125 60.2772C78.2125 60.3554 78.2339 60.5377 78.2523 60.6909H78.1436H78.0701C78.0492 60.5554 78.0354 60.4188 78.0288 60.2818C78.0322 58.1169 79.7846 56.3627 81.9474 56.3594C82.7547 56.3791 83.5419 56.6156 84.2266 57.0443Z" fill="#64EDFF"/>
<path d="M83.6877 58.9376C83.2328 60.0668 82.1255 60.7948 80.9095 60.764L79.7921 60.7364C79.5814 59.7316 80.093 58.7144 81.0248 58.2854C81.9567 57.8564 83.0612 58.1296 83.6862 58.9437L83.6877 58.9376Z" fill="url(#paint24_linear_607_1437)"/>
<path d="M53.6632 51.7256L53.5102 51.8329C53.1096 51.2615 52.5758 50.7965 51.955 50.4784C50.1349 49.6003 47.9473 50.331 47.0185 52.1271L46.8517 52.0459C47.8274 50.1609 50.1226 49.3928 52.0346 50.3114C52.684 50.6437 53.2429 51.1291 53.6632 51.7256Z" fill="#64EDFF"/>
<path d="M52.2336 52.73C51.087 53.3692 49.7016 53.4109 48.5187 52.8419L48.4054 52.7867C48.7851 52.0904 49.5098 51.6526 50.3022 51.6409C51.0946 51.6291 51.832 52.0453 52.2321 52.73H52.2336Z" fill="url(#paint25_linear_607_1437)"/>
<path d="M56.5104 61.0293H34.8007V62.4282H56.5104V61.0293Z" fill="#858585"/>
<path d="M56.5104 59.6289H34.8007V61.0278H56.5104V59.6289Z" fill="#999999"/>
<path d="M90.9264 23.5198C90.848 23.4927 90.7669 23.4742 90.6845 23.4646C90.6277 23.457 90.5704 23.4524 90.5131 23.4508C90.5131 23.3926 90.5131 23.3359 90.4993 23.2777C90.4899 23.1955 90.4709 23.1148 90.4427 23.0371C90.4156 23.1151 90.3972 23.1957 90.3876 23.2777C90.3799 23.3351 90.3753 23.3929 90.3738 23.4508C90.3164 23.4524 90.2592 23.457 90.2024 23.4646C90.1198 23.4733 90.0386 23.4918 89.9605 23.5198C90.0386 23.5482 90.1198 23.5672 90.2024 23.5764C90.259 23.5764 90.3156 23.5872 90.3738 23.5887C90.3753 23.6466 90.3799 23.7044 90.3876 23.7618C90.3973 23.8443 90.4158 23.9254 90.4427 24.0039C90.4708 23.9257 90.4898 23.8444 90.4993 23.7618C90.507 23.7036 90.51 23.6469 90.5131 23.5887C90.5704 23.5872 90.6277 23.5826 90.6845 23.5749C90.767 23.5661 90.8482 23.5475 90.9264 23.5198Z" fill="white"/>
<path d="M105.893 31.5896C105.815 31.5614 105.734 31.5424 105.652 31.533C105.593 31.533 105.537 31.5222 105.48 31.5207C105.48 31.4625 105.48 31.4058 105.466 31.3476C105.457 31.265 105.438 31.1837 105.41 31.1055C105.383 31.184 105.364 31.2651 105.355 31.3476C105.347 31.405 105.342 31.4628 105.341 31.5207C105.283 31.5207 105.226 31.5207 105.169 31.533C105.087 31.5422 105.006 31.5612 104.927 31.5896C105.006 31.6169 105.087 31.6354 105.169 31.6448C105.226 31.6525 105.283 31.6571 105.341 31.6586C105.342 31.7165 105.347 31.7743 105.355 31.8317C105.364 31.9137 105.383 31.9943 105.41 32.0723C105.438 31.9946 105.457 31.9139 105.466 31.8317C105.474 31.7735 105.477 31.7168 105.48 31.6586C105.537 31.657 105.595 31.6524 105.652 31.6448C105.734 31.6352 105.815 31.6167 105.893 31.5896Z" fill="white"/>
<path d="M91.9963 9.96507C91.9179 9.93799 91.8368 9.9195 91.7544 9.90991C91.6975 9.90233 91.6403 9.89773 91.583 9.89612C91.583 9.83789 91.5753 9.7812 91.5692 9.72298C91.5598 9.64085 91.5408 9.56011 91.5126 9.48242C91.4855 9.56036 91.467 9.64103 91.4575 9.72298C91.4498 9.78041 91.4452 9.8382 91.4437 9.89612C91.3863 9.8976 91.3291 9.90221 91.2722 9.90991C91.1898 9.91933 91.1087 9.93783 91.0304 9.96507C91.1085 9.9935 91.1897 10.0125 91.2722 10.0218C91.3289 10.0218 91.3855 10.0325 91.4437 10.034C91.4452 10.0919 91.4498 10.1497 91.4575 10.2072C91.4672 10.2896 91.4857 10.3707 91.5126 10.4492C91.5406 10.371 91.5597 10.2898 91.5692 10.2072C91.5769 10.1489 91.5799 10.0922 91.583 10.034C91.6396 10.034 91.6978 10.034 91.7544 10.0218C91.837 10.0123 91.9181 9.99328 91.9963 9.96507Z" fill="white"/>
<path d="M103.634 21.2068C103.524 21.1676 103.409 21.1413 103.293 21.1287C103.212 21.1179 103.131 21.1118 103.051 21.1087C103.051 21.0275 103.042 20.9463 103.031 20.8651C103.017 20.7488 102.991 20.6342 102.953 20.5234C102.914 20.634 102.887 20.7486 102.873 20.8651C102.863 20.9463 102.858 21.0275 102.855 21.1087C102.774 21.1087 102.693 21.1149 102.612 21.1271C102.495 21.1411 102.381 21.1678 102.27 21.2068C102.381 21.2465 102.495 21.2732 102.612 21.2865C102.692 21.2957 102.773 21.3018 102.855 21.3049C102.857 21.3863 102.863 21.4677 102.873 21.5485C102.887 21.6651 102.913 21.7797 102.953 21.8902C102.991 21.7794 103.017 21.6649 103.031 21.5485C103.042 21.4673 103.048 21.3861 103.051 21.3049C103.132 21.3049 103.212 21.2957 103.293 21.2849C103.409 21.2723 103.524 21.246 103.634 21.2068Z" fill="white"/>
<path d="M110.534 17.8042C110.445 17.7727 110.353 17.7511 110.259 17.7399C110.195 17.7399 110.129 17.7276 110.063 17.7246C110.062 17.6589 110.057 17.5935 110.048 17.5284C110.04 17.4332 110.021 17.3392 109.993 17.248C109.96 17.3371 109.939 17.4297 109.928 17.5238C109.928 17.5897 109.916 17.6541 109.913 17.72C109.847 17.72 109.781 17.72 109.717 17.7353C109.623 17.7458 109.531 17.7674 109.442 17.7996C109.531 17.8307 109.623 17.8518 109.717 17.8625C109.782 17.8714 109.847 17.8765 109.913 17.8778C109.914 17.9439 109.919 18.0099 109.928 18.0754C109.939 18.1691 109.96 18.2612 109.993 18.3497C110.024 18.2609 110.045 18.1689 110.055 18.0754C110.064 18.0099 110.069 17.9439 110.071 17.8778C110.136 17.8765 110.202 17.8714 110.267 17.8625C110.358 17.8527 110.447 17.8332 110.534 17.8042Z" fill="white"/>
<path d="M99.6573 13.877C99.6573 13.877 92.4417 13.8341 94.0382 18.0139C95.6347 22.1938 89.0313 25.655 89.0313 25.655L95.5903 30.3512C95.5903 30.3512 98.5874 22.8817 96.8149 19.1049C95.0423 15.328 99.6573 13.877 99.6573 13.877Z" fill="url(#paint26_linear_607_1437)"/>
<path d="M99.6574 13.877C99.6574 13.877 93.2285 14.5266 94.8296 18.7019C96.4307 22.8771 89.8242 26.3414 89.8242 26.3414L96.3817 31.0376C96.3817 31.0376 99.3803 23.5681 97.5986 19.7897C95.8169 16.0113 99.6574 13.877 99.6574 13.877Z" fill="url(#paint27_linear_607_1437)"/>
<path d="M98.4557 13.5793L98.2353 13.3694L98.2139 13.3495L97.0613 12.2509L98.7175 11.4648L99.6328 11.8387L100.061 12.0149L99.2333 12.8224L98.9012 13.1457L98.7833 13.2606L98.5935 13.446L98.5476 13.4904L98.4557 13.5793Z" fill="url(#paint28_linear_607_1437)"/>
<path d="M100.686 15.6245L99.0298 16.409L98.9074 14.7649L98.8966 14.6316L98.8859 14.4876L99.013 14.4738L99.0773 14.4662L99.1951 14.4524L99.3405 14.437L99.5028 14.4171L101.113 14.2363L100.989 14.6378L100.686 15.6245Z" fill="url(#paint29_linear_607_1437)"/>
<path d="M99.2181 14.7654H99.1767H98.9854C98.9595 14.7693 98.9332 14.7693 98.9073 14.7654C98.8624 14.755 98.8217 14.7309 98.791 14.6965C98.7804 14.6831 98.7712 14.6687 98.7634 14.6536L98.2369 13.5397C98.2131 13.4855 98.2131 13.4238 98.2369 13.3696C98.2486 13.3409 98.2651 13.3144 98.2859 13.2914L98.4114 13.1474L98.4389 13.1152L99.2181 14.7654Z" fill="url(#paint30_linear_607_1437)"/>
<path d="M98.693 12.6992L98.494 12.9245C98.4119 13.0096 98.3884 13.1356 98.4343 13.2447L98.7726 13.9618L99.1124 14.6788C99.1682 14.7822 99.2802 14.8425 99.3971 14.832L99.7033 14.8229L98.693 12.6992Z" fill="#BABABA"/>
<path d="M100.989 14.6354C100.493 14.8162 100.095 14.9419 99.864 14.997C99.7419 15.0378 99.6083 14.9848 99.5472 14.8714L98.5614 12.7876C98.5124 12.6687 98.5556 12.5318 98.664 12.4628C98.8568 12.3264 99.1905 12.0996 99.6329 11.8361C100.008 11.6124 100.464 11.3626 100.978 11.119C102.163 10.5395 103.433 10.1546 104.739 9.97905L104.848 9.9668C105.007 10.1455 105.144 10.3419 105.258 10.5521C105.471 10.9328 105.617 11.3475 105.688 11.7779V11.8008L105.626 11.8606C104.141 13.3085 102.246 14.1758 100.989 14.6354Z" fill="url(#paint31_linear_607_1437)"/>
<path d="M103.299 12.5443C103.7 12.5443 104.024 12.2192 104.024 11.8181C104.024 11.417 103.7 11.0918 103.299 11.0918C102.898 11.0918 102.573 11.417 102.573 11.8181C102.573 12.2192 102.898 12.5443 103.299 12.5443Z" fill="url(#paint32_linear_607_1437)"/>
<path d="M103.268 12.4132C103.575 12.4132 103.824 12.1641 103.824 11.857C103.824 11.5498 103.575 11.3008 103.268 11.3008C102.961 11.3008 102.713 11.5498 102.713 11.857C102.713 12.1641 102.961 12.4132 103.268 12.4132Z" fill="#7C7C7C"/>
<path d="M103.284 12.354C103.587 12.354 103.833 12.1078 103.833 11.804C103.833 11.5002 103.587 11.2539 103.284 11.2539C102.98 11.2539 102.734 11.5002 102.734 11.804C102.734 12.1078 102.98 12.354 103.284 12.354Z" fill="#EAEAEA"/>
<path d="M97.6047 14.5176L100.412 12.9961L100.559 13.3071L97.6047 14.5176Z" fill="url(#paint33_linear_607_1437)"/>
<path d="M105.694 11.8074V11.7844C105.684 11.7216 105.671 11.6588 105.658 11.599C105.577 11.2333 105.443 10.8812 105.261 10.554C105.145 10.3462 105.008 10.1502 104.854 9.96875C105.552 9.89079 106.257 9.90624 106.951 10.0147L107.069 10.0346L107 10.1557C106.924 10.2844 106.847 10.41 106.763 10.5326C106.533 10.8736 106.277 11.1963 105.997 11.4979C105.906 11.5959 105.814 11.6925 105.719 11.7859L105.699 11.8059L105.694 11.8074Z" fill="url(#paint34_linear_607_1437)"/>
<path d="M92.7371 79.7816C96.8693 79.7816 100.219 76.4284 100.219 72.2921C100.219 68.1559 96.8693 64.8027 92.7371 64.8027C88.6049 64.8027 85.2551 68.1559 85.2551 72.2921C85.2551 76.4284 88.6049 79.7816 92.7371 79.7816Z" fill="url(#paint35_linear_607_1437)"/>
<path d="M44.6705 80.5811C42.1464 82.0949 43.5775 86.0311 46.5073 85.7185L46.6695 85.7001C52.0698 85.0627 57.594 81.2813 61.4728 82.6618C65.3516 84.0423 75.3944 82.0489 70.1778 77.0386C64.9612 72.0283 57.6568 75.7209 54.7669 77.3144C48.2125 80.9273 47.6936 78.7731 44.6705 80.5811Z" fill="#DDE6FA"/>
<path d="M85.3899 33.0039L80.1794 54.0211C79.9222 55.0602 79.0292 55.8177 77.963 55.9012L66.7507 56.7791" stroke="#64EDFF" stroke-width="0.6984"/>
<path d="M58.1375 6.5293H48.0992" stroke="white" stroke-width="1.44"/>
<path d="M115.295 24.8497C112.599 29.8607 107.371 32.9842 101.686 32.9811C101.182 32.9811 100.683 32.9566 100.192 32.9091C100.258 29.3529 102.242 26.1112 105.378 24.438C108.514 22.7647 112.308 22.9223 115.295 24.8497Z" fill="url(#paint36_linear_607_1437)"/>
<path d="M13.5547 21.5382C16.9624 21.5382 19.7249 18.7729 19.7249 15.3619C19.7249 11.9508 16.9624 9.18555 13.5547 9.18555C10.147 9.18555 7.38446 11.9508 7.38446 15.3619C7.38446 18.7729 10.147 21.5382 13.5547 21.5382Z" fill="white"/>
<defs>
<linearGradient id="paint0_linear_607_1437" x1="57.1349" y1="57.9384" x2="60.7171" y2="18.1546" gradientUnits="userSpaceOnUse">
<stop stop-color="#779DEA"/>
<stop offset="0.06" stop-color="#8DADED"/>
<stop offset="0.2" stop-color="#B8CCF4"/>
<stop offset="0.3" stop-color="#D3DFF8"/>
<stop offset="0.36" stop-color="#DDE6FA"/>
<stop offset="1" stop-color="white"/>
</linearGradient>
<linearGradient id="paint1_linear_607_1437" x1="87.7104" y1="66.5578" x2="87.7104" y2="37.8105" gradientUnits="userSpaceOnUse">
<stop stop-color="#779DEA"/>
<stop offset="0.17" stop-color="#8AABED"/>
<stop offset="0.73" stop-color="#C6D5F6"/>
<stop offset="1" stop-color="#DDE6FA"/>
</linearGradient>
<linearGradient id="paint2_linear_607_1437" x1="79.1171" y1="49.1221" x2="94.2586" y2="49.1221" gradientUnits="userSpaceOnUse">
<stop stop-color="#779DEA"/>
<stop offset="0.01" stop-color="#7A9FEB"/>
<stop offset="0.11" stop-color="#99B5EF"/>
<stop offset="0.22" stop-color="#B2C7F3"/>
<stop offset="0.35" stop-color="#C5D5F6"/>
<stop offset="0.49" stop-color="#D3DFF8"/>
<stop offset="0.67" stop-color="#DBE4FA"/>
<stop offset="1" stop-color="#DDE6FA"/>
</linearGradient>
<linearGradient id="paint3_linear_607_1437" x1="35.3608" y1="42.7576" x2="66.446" y2="42.7576" gradientUnits="userSpaceOnUse">
<stop stop-color="#4E54C8"/>
<stop offset="1" stop-color="#8F94FB"/>
</linearGradient>
<linearGradient id="paint4_linear_607_1437" x1="73.6265" y1="62.4241" x2="73.6265" y2="29.7207" gradientUnits="userSpaceOnUse">
<stop stop-color="#4E54C8"/>
<stop offset="1" stop-color="#8F94FB"/>
</linearGradient>
<linearGradient id="paint5_linear_607_1437" x1="76.9833" y1="25.0899" x2="76.9833" y2="17.291" gradientUnits="userSpaceOnUse">
<stop stop-color="#123597"/>
<stop offset="0.16" stop-color="#1B43A9"/>
<stop offset="0.55" stop-color="#2F63D1"/>
<stop offset="0.75" stop-color="#366FE0"/>
<stop offset="1" stop-color="#366FE0"/>
</linearGradient>
<linearGradient id="paint6_linear_607_1437" x1="64.9702" y1="15.5485" x2="80.3682" y2="16.9078" gradientUnits="userSpaceOnUse">
<stop stop-color="#2A5BC7"/>
<stop offset="0.13" stop-color="#2452BC"/>
<stop offset="0.42" stop-color="#1A42A7"/>
<stop offset="0.71" stop-color="#14389B"/>
<stop offset="1" stop-color="#123597"/>
</linearGradient>
<linearGradient id="paint7_linear_607_1437" x1="70.8464" y1="14.5996" x2="78.3031" y2="15.2579" gradientUnits="userSpaceOnUse">
<stop stop-color="#366FE0"/>
<stop offset="0.7" stop-color="#94CBFF"/>
<stop offset="1" stop-color="#94CBFF"/>
</linearGradient>
<linearGradient id="paint8_linear_607_1437" x1="42.5504" y1="17.7393" x2="45.8185" y2="17.7393" gradientUnits="userSpaceOnUse">
<stop stop-color="#366FE0"/>
<stop offset="0.7" stop-color="#94CBFF"/>
<stop offset="1" stop-color="#94CBFF"/>
</linearGradient>
<linearGradient id="paint9_linear_607_1437" x1="43.3404" y1="19.6935" x2="49.0422" y2="19.6935" gradientUnits="userSpaceOnUse">
<stop stop-color="#366FE0"/>
<stop offset="0.7" stop-color="#94CBFF"/>
<stop offset="1" stop-color="#94CBFF"/>
</linearGradient>
<linearGradient id="paint10_linear_607_1437" x1="50.1305" y1="20.7477" x2="51.4637" y2="20.7477" gradientUnits="userSpaceOnUse">
<stop stop-color="#366FE0"/>
<stop offset="0.7" stop-color="#94CBFF"/>
<stop offset="1" stop-color="#94CBFF"/>
</linearGradient>
<linearGradient id="paint11_linear_607_1437" x1="53.8741" y1="21.4714" x2="54.3324" y2="21.4714" gradientUnits="userSpaceOnUse">
<stop stop-color="#366FE0"/>
<stop offset="0.7" stop-color="#94CBFF"/>
<stop offset="1" stop-color="#94CBFF"/>
</linearGradient>
<linearGradient id="paint12_linear_607_1437" x1="53.4738" y1="21.709" x2="53.7523" y2="21.709" gradientUnits="userSpaceOnUse">
<stop stop-color="#366FE0"/>
<stop offset="0.7" stop-color="#94CBFF"/>
<stop offset="1" stop-color="#94CBFF"/>
</linearGradient>
<linearGradient id="paint13_linear_607_1437" x1="77.4031" y1="18.5204" x2="77.4031" y2="18.5204" gradientUnits="userSpaceOnUse">
<stop stop-color="#366FE0"/>
<stop offset="0.7" stop-color="#94CBFF"/>
<stop offset="1" stop-color="#94CBFF"/>
</linearGradient>
<linearGradient id="paint14_linear_607_1437" x1="52.753" y1="21.5875" x2="53.0209" y2="21.5875" gradientUnits="userSpaceOnUse">
<stop stop-color="#366FE0"/>
<stop offset="0.7" stop-color="#94CBFF"/>
<stop offset="1" stop-color="#94CBFF"/>
</linearGradient>
<linearGradient id="paint15_linear_607_1437" x1="77.5921" y1="18.7868" x2="77.5921" y2="18.7868" gradientUnits="userSpaceOnUse">
<stop stop-color="#366FE0"/>
<stop offset="0.7" stop-color="#94CBFF"/>
<stop offset="1" stop-color="#94CBFF"/>
</linearGradient>
<linearGradient id="paint16_linear_607_1437" x1="69.111" y1="30.019" x2="79.4171" y2="30.019" gradientUnits="userSpaceOnUse">
<stop stop-color="#4E54C8"/>
<stop offset="1" stop-color="#8F94FB"/>
</linearGradient>
<linearGradient id="paint17_linear_607_1437" x1="77.6645" y1="60.7577" x2="77.6645" y2="32.9666" gradientUnits="userSpaceOnUse">
<stop stop-color="#4E54C8"/>
<stop offset="0.22" stop-color="#555ACD"/>
<stop offset="0.53" stop-color="#676DDC"/>
<stop offset="0.9" stop-color="#858AF3"/>
<stop offset="1" stop-color="#8F94FB"/>
</linearGradient>
<linearGradient id="paint18_linear_607_1437" x1="48.0992" y1="58.6205" x2="66.7491" y2="58.6205" gradientUnits="userSpaceOnUse">
<stop stop-color="#FB9F02"/>
<stop offset="0.32" stop-color="#FB9F02"/>
<stop offset="1" stop-color="#FC4C5C"/>
</linearGradient>
<linearGradient id="paint19_linear_607_1437" x1="13.8777" y1="38.6354" x2="59.3896" y2="38.6354" gradientUnits="userSpaceOnUse">
<stop stop-color="white"/>
<stop offset="1" stop-color="#FAFAFA" stop-opacity="0"/>
</linearGradient>
<linearGradient id="paint20_linear_607_1437" x1="25.9257" y1="52.0298" x2="25.9257" y2="23.9414" gradientUnits="userSpaceOnUse">
<stop stop-color="#779DEA"/>
<stop offset="0.17" stop-color="#8AABED"/>
<stop offset="0.73" stop-color="#C6D5F6"/>
<stop offset="1" stop-color="#DDE6FA"/>
</linearGradient>
<linearGradient id="paint21_linear_607_1437" x1="23.8164" y1="62.4244" x2="23.8164" y2="37.736" gradientUnits="userSpaceOnUse">
<stop stop-color="#779DEA"/>
<stop offset="0.01" stop-color="#7A9FEB"/>
<stop offset="0.11" stop-color="#99B5EF"/>
<stop offset="0.22" stop-color="#B2C7F3"/>
<stop offset="0.35" stop-color="#C5D5F6"/>
<stop offset="0.49" stop-color="#D3DFF8"/>
<stop offset="0.67" stop-color="#DBE4FA"/>
<stop offset="1" stop-color="#DDE6FA"/>
</linearGradient>
<linearGradient id="paint22_linear_607_1437" x1="39.6559" y1="52.0298" x2="39.6559" y2="23.9414" gradientUnits="userSpaceOnUse">
<stop stop-color="#779DEA"/>
<stop offset="0.12" stop-color="#8BABED"/>
<stop offset="0.38" stop-color="#AFC5F3"/>
<stop offset="0.61" stop-color="#C8D7F7"/>
<stop offset="0.83" stop-color="#D8E2F9"/>
<stop offset="1" stop-color="#DDE6FA"/>
</linearGradient>
<linearGradient id="paint23_linear_607_1437" x1="10.6663" y1="68.7963" x2="108.113" y2="68.7963" gradientUnits="userSpaceOnUse">
<stop stop-color="#366FE0"/>
<stop offset="0.25" stop-color="#366FE0"/>
<stop offset="0.45" stop-color="#2F63D1"/>
<stop offset="0.84" stop-color="#1B43A9"/>
<stop offset="1" stop-color="#123597"/>
</linearGradient>
<linearGradient id="paint24_linear_607_1437" x1="79.7477" y1="59.4187" x2="83.6877" y2="59.4187" gradientUnits="userSpaceOnUse">
<stop stop-color="#DDE6FA"/>
<stop offset="0.17" stop-color="#D8E2F9"/>
<stop offset="0.39" stop-color="#C8D7F7"/>
<stop offset="0.62" stop-color="#AFC5F3"/>
<stop offset="0.88" stop-color="#8BABED"/>
<stop offset="1" stop-color="#779DEA"/>
</linearGradient>
<linearGradient id="paint25_linear_607_1437" x1="48.4054" y1="52.4404" x2="52.2336" y2="52.4404" gradientUnits="userSpaceOnUse">
<stop stop-color="#DDE6FA"/>
<stop offset="0.17" stop-color="#D8E2F9"/>
<stop offset="0.39" stop-color="#C8D7F7"/>
<stop offset="0.62" stop-color="#AFC5F3"/>
<stop offset="0.88" stop-color="#8BABED"/>
<stop offset="1" stop-color="#779DEA"/>
</linearGradient>
<linearGradient id="paint26_linear_607_1437" x1="96.5864" y1="9.75083" x2="89.8688" y2="26.2602" gradientUnits="userSpaceOnUse">
<stop offset="0.16" stop-color="white"/>
<stop offset="0.23" stop-color="#FBFFFD" stop-opacity="0.97"/>
<stop offset="0.34" stop-color="#EFFDF7" stop-opacity="0.9"/>
<stop offset="0.47" stop-color="#DCFBEE" stop-opacity="0.77"/>
<stop offset="0.61" stop-color="#C1F8E0" stop-opacity="0.6"/>
<stop offset="0.77" stop-color="#9FF4CF" stop-opacity="0.38"/>
<stop offset="0.93" stop-color="#76EFBB" stop-opacity="0.11"/>
<stop offset="1" stop-color="#64EDB2" stop-opacity="0"/>
</linearGradient>
<linearGradient id="paint27_linear_607_1437" x1="97.1554" y1="12.0291" x2="88.6626" y2="25.7688" gradientUnits="userSpaceOnUse">
<stop offset="0.16" stop-color="white"/>
<stop offset="0.23" stop-color="#FBFFFD" stop-opacity="0.97"/>
<stop offset="0.34" stop-color="#EFFDF7" stop-opacity="0.9"/>
<stop offset="0.47" stop-color="#DCFBEE" stop-opacity="0.77"/>
<stop offset="0.61" stop-color="#C1F8E0" stop-opacity="0.6"/>
<stop offset="0.77" stop-color="#9FF4CF" stop-opacity="0.38"/>
<stop offset="0.93" stop-color="#76EFBB" stop-opacity="0.11"/>
<stop offset="1" stop-color="#64EDB2" stop-opacity="0"/>
</linearGradient>
<linearGradient id="paint28_linear_607_1437" x1="97.0613" y1="12.5221" x2="100.061" y2="12.5221" gradientUnits="userSpaceOnUse">
<stop stop-color="#779DEA"/>
<stop offset="0.01" stop-color="#7A9FEB"/>
<stop offset="0.11" stop-color="#99B5EF"/>
<stop offset="0.22" stop-color="#B2C7F3"/>
<stop offset="0.35" stop-color="#C5D5F6"/>
<stop offset="0.49" stop-color="#D3DFF8"/>
<stop offset="0.67" stop-color="#DBE4FA"/>
<stop offset="1" stop-color="#DDE6FA"/>
</linearGradient>
<linearGradient id="paint29_linear_607_1437" x1="98.8859" y1="15.3227" x2="101.113" y2="15.3227" gradientUnits="userSpaceOnUse">
<stop stop-color="#779DEA"/>
<stop offset="0.01" stop-color="#7A9FEB"/>
<stop offset="0.11" stop-color="#99B5EF"/>
<stop offset="0.22" stop-color="#B2C7F3"/>
<stop offset="0.35" stop-color="#C5D5F6"/>
<stop offset="0.49" stop-color="#D3DFF8"/>
<stop offset="0.67" stop-color="#DBE4FA"/>
<stop offset="1" stop-color="#DDE6FA"/>
</linearGradient>
<linearGradient id="paint30_linear_607_1437" x1="98.7191" y1="14.7746" x2="98.7191" y2="13.1152" gradientUnits="userSpaceOnUse">
<stop stop-color="#4E54C8"/>
<stop offset="1" stop-color="#8F94FB"/>
</linearGradient>
<linearGradient id="paint31_linear_607_1437" x1="98.54" y1="12.4873" x2="105.694" y2="12.4873" gradientUnits="userSpaceOnUse">
<stop stop-color="#4E54C8"/>
<stop offset="1" stop-color="#8F94FB"/>
</linearGradient>
<linearGradient id="paint32_linear_607_1437" x1="102.573" y1="11.8181" x2="104.024" y2="11.8181" gradientUnits="userSpaceOnUse">
<stop stop-color="#FB9F02"/>
<stop offset="0.32" stop-color="#FB9F02"/>
<stop offset="1" stop-color="#FC4C5C"/>
</linearGradient>
<linearGradient id="paint33_linear_607_1437" x1="99.0818" y1="14.5176" x2="99.0818" y2="12.9961" gradientUnits="userSpaceOnUse">
<stop stop-color="#4E54C8"/>
<stop offset="0.22" stop-color="#555ACD"/>
<stop offset="0.53" stop-color="#676DDC"/>
<stop offset="0.9" stop-color="#858AF3"/>
<stop offset="1" stop-color="#8F94FB"/>
</linearGradient>
<linearGradient id="paint34_linear_607_1437" x1="104.848" y1="10.862" x2="107.064" y2="10.862" gradientUnits="userSpaceOnUse">
<stop stop-color="#FB9F02"/>
<stop offset="0.32" stop-color="#FB9F02"/>
<stop offset="1" stop-color="#FC4C5C"/>
</linearGradient>
<linearGradient id="paint35_linear_607_1437" x1="85.2551" y1="72.2921" x2="100.221" y2="72.2921" gradientUnits="userSpaceOnUse">
<stop stop-color="#DDE6FA"/>
<stop offset="0.17" stop-color="#D8E2F9"/>
<stop offset="0.39" stop-color="#C8D7F7"/>
<stop offset="0.62" stop-color="#AFC5F3"/>
<stop offset="0.88" stop-color="#8BABED"/>
<stop offset="1" stop-color="#779DEA"/>
</linearGradient>
<linearGradient id="paint36_linear_607_1437" x1="110.922" y1="24.8623" x2="108.045" y2="31.9329" gradientUnits="userSpaceOnUse">
<stop offset="0.16" stop-color="white"/>
<stop offset="0.23" stop-color="#FBFFFD" stop-opacity="0.97"/>
<stop offset="0.34" stop-color="#EFFDF7" stop-opacity="0.9"/>
<stop offset="0.47" stop-color="#DCFBEE" stop-opacity="0.77"/>
<stop offset="0.61" stop-color="#C1F8E0" stop-opacity="0.6"/>
<stop offset="0.77" stop-color="#9FF4CF" stop-opacity="0.38"/>
<stop offset="0.93" stop-color="#76EFBB" stop-opacity="0.11"/>
<stop offset="1" stop-color="#64EDB2" stop-opacity="0"/>
</linearGradient>
</defs>
</svg>
