<svg width="1440" height="354" viewBox="0 0 1440 354" fill="none" xmlns="http://www.w3.org/2000/svg">
<mask id="mask0_15479_106356" style="mask-type:alpha" maskUnits="userSpaceOnUse" x="0" y="0" width="1440" height="352">
<rect width="1440" height="352" fill="url(#paint0_linear_15479_106356)"/>
</mask>
<g mask="url(#mask0_15479_106356)">
<rect width="1440" height="352" fill="url(#paint1_linear_15479_106356)"/>
</g>
<path d="M1271.92 138.866L1315.35 77.1733L1243.39 77.8673L1267.01 97.4579L1255.91 110.077L1274.56 110.961L1271.92 138.866Z" fill="white"/>
<path d="M1271.91 138.857L1276.88 107.124L1255.91 110.07L1271.75 98.1903L1243.38 77.8623L1267 97.4517L1255.91 110.07L1274.55 110.954L1271.91 138.857Z" fill="#D3E5E8"/>
<path d="M1276.88 107.12L1315.35 77.1595L1271.75 98.1851L1255.9 110.067L1276.88 107.12Z" fill="#D3E5E8"/>
<path d="M1244.51 240.616C1232.08 256.719 1235.17 279.938 1251.41 292.475C1267.65 305.013 1290.89 302.12 1303.32 286.018C1315.75 269.915 1312.66 246.701 1296.42 234.164C1280.18 221.626 1256.94 224.514 1244.51 240.616Z" fill="url(#paint2_radial_15479_106356)"/>
<path d="M1250.61 244.861C1249.72 246.02 1248.91 247.235 1248.21 248.475C1248.21 248.479 1248.21 248.483 1248.21 248.487C1247.5 249.729 1246.9 251.009 1246.39 252.315C1245.53 254.478 1244.95 256.715 1244.62 258.973C1244.38 260.608 1244.27 262.252 1244.3 263.892C1244.45 272.925 1248.58 281.833 1256.33 287.813C1257.69 288.866 1259.12 289.788 1260.59 290.577C1261.69 291.177 1262.82 291.701 1263.96 292.142C1267.08 293.37 1270.35 294.062 1273.62 294.223C1274.19 294.255 1274.76 294.266 1275.33 294.263C1277.83 294.261 1280.31 293.94 1282.73 293.336C1282.97 293.275 1283.22 293.205 1283.46 293.137C1285.17 292.665 1286.84 292.039 1288.45 291.272C1290.98 290.058 1293.37 288.483 1295.53 286.551C1296.5 285.676 1297.43 284.731 1298.31 283.71C1298.66 283.302 1299 282.886 1299.32 282.462C1300.11 281.448 1300.81 280.398 1301.45 279.33C1301.81 278.715 1302.14 278.101 1302.46 277.469C1302.46 277.467 1302.46 277.465 1302.46 277.463C1302.46 277.461 1302.46 277.459 1302.46 277.457C1304.13 274.119 1305.13 270.562 1305.49 266.96C1305.57 266.141 1305.62 265.321 1305.63 264.5C1305.69 261.347 1305.26 258.191 1304.36 255.157C1302.58 249.165 1298.96 243.639 1293.61 239.514C1291.18 237.637 1288.56 236.172 1285.83 235.128C1282.91 233.996 1279.86 233.327 1276.81 233.134C1276.16 233.089 1275.51 233.059 1274.87 233.057C1272.51 233.047 1270.16 233.304 1267.88 233.838C1267.32 233.96 1266.76 234.099 1266.22 234.26C1264.37 234.787 1262.58 235.494 1260.86 236.374C1260.02 236.786 1259.21 237.25 1258.42 237.748C1257.38 238.407 1256.37 239.13 1255.41 239.921C1255.41 239.923 1255.4 239.924 1255.4 239.926C1255.4 239.928 1255.4 239.93 1255.4 239.931C1254.54 240.631 1253.72 241.383 1252.94 242.186C1252.23 242.919 1251.54 243.69 1250.89 244.507C1250.8 244.622 1250.7 244.741 1250.61 244.861Z" fill="url(#paint3_linear_15479_106356)"/>
<path style="mix-blend-mode:overlay" d="M1274.87 233.06C1271.35 233.046 1269.62 236.931 1271.81 239.686C1274.02 242.463 1276.71 245.118 1279.97 247.203C1286.88 251.624 1294.16 258.897 1298.65 267.202C1300.35 270.357 1305.13 270.531 1305.49 266.963C1305.64 265.389 1305.03 263.854 1303.95 262.706C1299.95 258.481 1295.3 253.848 1290.87 250.081C1285.03 245.115 1280.81 239.708 1277.8 234.804C1277.16 233.771 1276.08 233.065 1274.87 233.06Z" fill="url(#paint4_linear_15479_106356)"/>
<path style="mix-blend-mode:overlay" d="M1255.4 239.923C1255.4 239.924 1255.4 239.924 1255.4 239.925C1255.4 239.928 1255.4 239.932 1255.4 239.935C1256.36 242.272 1257.71 244.989 1259.6 248.093C1262.62 253.055 1269.31 260.59 1273.78 266.685C1275.66 269.242 1282.81 271.787 1284.47 274.092C1286.2 276.477 1287.27 279.532 1287.86 282.768C1288.56 286.596 1292.63 289.15 1295.53 286.552C1297.44 284.838 1298.39 282.283 1297.98 279.751C1297.05 274.084 1293.96 267.572 1285.73 262.684C1275.77 256.769 1267.68 246.669 1262.39 238.725C1261.5 237.398 1259.77 236.902 1258.42 237.748C1257.38 238.408 1256.37 239.132 1255.4 239.923Z" fill="url(#paint5_linear_15479_106356)"/>
<path style="mix-blend-mode:overlay" d="M1253.03 248.798C1252.03 246.962 1249.38 246.746 1248.21 248.479C1248.21 248.483 1248.21 248.487 1248.21 248.491C1249.25 250.89 1250.55 253.763 1252.1 256.937C1255.52 263.954 1254.6 276.354 1262.81 281.753C1267.07 284.544 1270.36 288.815 1272.76 292.744C1273.31 293.657 1274.27 294.267 1275.34 294.261C1277.83 294.259 1280.31 293.938 1282.73 293.335C1283.13 293.237 1283.34 292.805 1283.19 292.423C1279.86 283.846 1274.12 272.096 1267.21 266.286C1261.02 261.088 1256.74 255.223 1253.87 250.279C1253.57 249.775 1253.3 249.281 1253.03 248.798Z" fill="url(#paint6_linear_15479_106356)"/>
<path style="mix-blend-mode:overlay" d="M1293.61 239.515C1290.97 237.478 1288.44 240.134 1290.51 242.742C1291.3 243.728 1292.12 244.676 1292.97 245.584C1296.39 249.245 1300.38 246.012 1296.88 242.427C1295.88 241.395 1294.79 240.421 1293.61 239.515Z" fill="url(#paint7_linear_15479_106356)"/>
<path style="mix-blend-mode:overlay" d="M1252.53 276.588C1250.04 274.108 1246.5 275.357 1248.21 278.422C1250.19 281.963 1252.9 285.175 1256.33 287.817C1257.81 288.961 1259.56 287.535 1258.78 285.831C1257.46 282.939 1255.45 279.506 1252.53 276.588Z" fill="url(#paint8_linear_15479_106356)"/>
<path d="M1406.74 160.571C1398.22 171.611 1382.29 173.59 1371.16 164.996C1360.02 156.4 1357.9 140.486 1366.42 129.446C1374.94 118.409 1390.88 116.428 1402.01 125.024C1413.14 133.617 1415.26 149.534 1406.74 160.571Z" fill="url(#paint9_radial_15479_106356)"/>
<path d="M1402.62 157.913C1398.38 163.4 1391.8 166.024 1385.34 165.473C1383.04 165.283 1380.75 164.69 1378.6 163.676C1377.27 163.066 1376 162.297 1374.8 161.372C1370.65 158.168 1368.11 153.662 1367.3 148.882C1367.02 147.236 1366.95 145.557 1367.1 143.885C1367.23 142.27 1367.57 140.665 1368.11 139.11C1368.79 137.167 1369.78 135.305 1371.11 133.589C1372.35 131.982 1373.79 130.618 1375.37 129.51C1381 125.566 1388.39 124.834 1394.77 127.656C1396.21 128.298 1397.61 129.121 1398.92 130.131C1402.16 132.634 1404.43 135.939 1405.64 139.539C1405.79 139.966 1405.92 140.408 1406.04 140.842C1407.54 146.497 1406.53 152.728 1402.76 157.718C1402.72 157.786 1402.67 157.85 1402.62 157.913Z" fill="url(#paint10_linear_15479_106356)"/>
<g style="mix-blend-mode:overlay" opacity="0.302">
<path d="M1402.62 157.912C1401.35 159.561 1399.86 160.952 1398.23 162.076C1391.47 166.732 1383.51 156.213 1391.68 155.563C1391.86 155.55 1392.03 155.541 1392.21 155.536C1400.96 155.32 1396.53 150.613 1396.31 139.101C1396.18 132.14 1400.9 135.135 1404.65 138.597C1405.31 139.206 1405.81 139.974 1406.04 140.841C1407.54 146.495 1406.53 152.726 1402.76 157.716C1402.72 157.784 1402.67 157.848 1402.62 157.912Z" fill="white"/>
</g>
<g style="mix-blend-mode:overlay" opacity="0.302">
<path d="M1390.52 130.758C1381.64 131.135 1382.57 128.753 1380.41 136.108C1379.47 139.286 1375.91 141.837 1371.91 143.077C1369.41 143.849 1367.25 141.579 1368.11 139.113C1368.79 137.17 1369.78 135.308 1371.11 133.592C1372.35 131.985 1373.79 130.621 1375.37 129.513C1379.38 126.702 1384.29 125.523 1389.09 126.099C1392.65 126.527 1394.11 130.609 1390.52 130.758Z" fill="white"/>
</g>
<g style="mix-blend-mode:overlay" opacity="0.302">
<path d="M1381.19 160.082C1379.87 162.393 1376.91 162.999 1374.8 161.373C1371.29 158.659 1368.92 155.011 1367.79 151.053C1367.49 149.995 1368.42 149.077 1369.45 149.453C1377.99 152.552 1385.88 135.428 1386.25 142.687C1386.42 145.96 1384.49 154.322 1381.19 160.082Z" fill="white"/>
</g>
<g style="mix-blend-mode:overlay" opacity="0.302">
<path d="M1393.35 137.208C1393.86 134.825 1391.95 132.485 1389.53 132.777C1388.33 132.918 1387.35 133.692 1387.55 135.951C1387.94 140.154 1392.56 140.907 1393.35 137.208Z" fill="white"/>
</g>
<path d="M1360.33 230.45C1351.8 241.49 1353.93 257.406 1365.06 266C1376.19 274.595 1392.13 272.614 1400.65 261.574C1409.17 250.537 1407.05 234.623 1395.91 226.027C1384.78 217.434 1368.85 219.413 1360.33 230.45Z" fill="url(#paint11_radial_15479_106356)"/>
<path d="M1363.94 233.765C1359.71 239.252 1358.83 246.282 1361 252.392C1361.77 254.572 1362.92 256.633 1364.45 258.462C1365.37 259.587 1366.44 260.622 1367.64 261.548C1371.79 264.751 1376.79 266.076 1381.62 265.641C1383.28 265.497 1384.93 265.142 1386.51 264.575C1388.04 264.034 1389.5 263.305 1390.87 262.384C1392.58 261.24 1394.13 259.804 1395.45 258.089C1396.69 256.482 1397.65 254.742 1398.32 252.935C1400.71 246.488 1399.55 239.15 1395.2 233.696C1394.21 232.461 1393.06 231.316 1391.76 230.307C1388.51 227.804 1384.74 226.449 1380.95 226.191C1380.5 226.152 1380.04 226.137 1379.59 226.135C1373.74 226.111 1367.97 228.67 1364.1 233.578C1364.04 233.638 1363.99 233.701 1363.94 233.765Z" fill="url(#paint12_linear_15479_106356)"/>
<g style="mix-blend-mode:overlay" opacity="0.302">
<path d="M1363.94 233.763C1362.67 235.413 1361.7 237.202 1361.03 239.063C1358.23 246.778 1370.43 251.824 1368.98 243.747C1368.95 243.578 1368.92 243.406 1368.88 243.233C1366.87 234.71 1372.55 237.809 1383.74 235.1C1390.5 233.463 1386.41 229.661 1382.11 226.906C1381.36 226.422 1380.49 226.137 1379.59 226.134C1373.74 226.11 1367.97 228.668 1364.1 233.577C1364.04 233.636 1363.99 233.7 1363.94 233.763Z" fill="white"/>
</g>
<g style="mix-blend-mode:overlay" opacity="0.302">
<path d="M1393.28 238.59C1395.16 247.274 1397.23 245.776 1390.66 249.727C1387.83 251.441 1386.26 255.529 1386.07 259.714C1385.96 262.325 1388.7 263.845 1390.87 262.384C1392.58 261.24 1394.13 259.805 1395.45 258.089C1396.69 256.482 1397.65 254.743 1398.32 252.936C1400.02 248.34 1399.92 243.292 1398.15 238.796C1396.83 235.456 1392.51 235.081 1393.28 238.59Z" fill="white"/>
</g>
<g style="mix-blend-mode:overlay" opacity="0.302">
<path d="M1367.27 255.039C1365.37 256.902 1365.53 259.922 1367.64 261.548C1371.15 264.262 1375.28 265.628 1379.4 265.717C1380.5 265.741 1381.15 264.614 1380.53 263.708C1375.36 256.231 1389.93 244.264 1382.82 245.74C1379.61 246.404 1372.01 250.395 1367.27 255.039Z" fill="white"/>
</g>
<g style="mix-blend-mode:overlay" opacity="0.302">
<path d="M1386.32 237.485C1388.5 236.388 1391.25 237.642 1391.58 240.066C1391.74 241.255 1391.24 242.404 1389.01 242.778C1384.84 243.468 1382.94 239.19 1386.32 237.485Z" fill="white"/>
</g>
<path d="M71.4676 251.861C76.8676 277.587 60.3675 302.812 34.6675 308.217C8.96754 313.622 -16.2324 297.106 -21.6324 271.381C-27.0324 245.655 -10.5325 220.43 15.1675 215.025C40.8675 209.619 66.0676 226.136 71.4676 251.861Z" fill="url(#paint13_linear_15479_106356)"/>
<path style="mix-blend-mode:multiply" opacity="0.1" d="M-20.832 274.484C-20.632 274.818 -20.3987 275.118 -20.132 275.385C-16.232 279.489 -11.332 282.492 -6.43201 285.195C-0.232006 288.698 6.26801 292.002 13.268 293.703C26.468 296.907 40.568 294.104 53.068 288.598C58.068 286.396 62.968 283.693 68.068 281.692C61.968 294.804 49.968 305.015 34.668 308.218C9.96797 313.423 -14.132 298.408 -20.832 274.484Z" fill="url(#paint14_linear_15479_106356)"/>
<g style="mix-blend-mode:multiply">
<path style="mix-blend-mode:multiply" d="M-6.93359 295.808C-6.73359 295.741 -6.56693 295.707 -6.43359 295.707C-4.70026 295.374 -2.93361 295.007 -1.13361 294.606C9.86639 292.204 21.5664 288.801 33.5664 284.496C47.4664 279.491 60.6664 273.686 71.8664 267.68C71.3331 270.816 70.4997 273.886 69.3664 276.889C59.2664 281.994 47.8664 286.899 35.9664 291.203C23.8664 295.507 12.0664 298.911 0.866394 301.413C-1.93361 299.811 -4.53359 297.943 -6.93359 295.808Z" fill="url(#paint15_linear_15479_106356)"/>
</g>
<path opacity="0.5" d="M72.0663 266.977C71.7996 267.11 71.5662 267.244 71.3662 267.377C59.4662 273.784 45.2663 279.99 30.2663 285.195C17.9663 289.499 5.96623 293.003 -5.33377 295.405C-5.53377 295.472 -5.76706 295.539 -6.03372 295.605C-6.36705 295.672 -6.70039 295.739 -7.03372 295.805C-22.2337 299.009 -53.9337 304.014 -58.5337 291.301C-60.3337 286.496 -56.9338 280.59 -48.1338 273.183C-41.7338 267.878 -32.8338 262.072 -22.6338 256.567C-22.9004 259.102 -22.9337 261.705 -22.7337 264.374C-44.7337 276.787 -52.8337 286.496 -51.9337 288.899C-50.7337 292.202 -38.7337 295.105 -12.0337 289.9C-10.3004 289.566 -8.53373 289.199 -6.73373 288.798C4.26627 286.396 15.9663 283.093 27.9663 278.889C42.9663 273.583 56.9662 267.477 68.6662 261.171C69.8662 260.504 70.9996 259.87 72.0663 259.269C91.6663 248.058 97.3663 239.85 96.2663 236.947C96.0663 236.347 93.6662 234.645 85.6662 234.545C80.1662 234.545 73.1663 235.145 65.5663 236.547C64.2329 234.345 62.7329 232.309 61.0663 230.441C74.2663 227.838 99.2663 224.535 102.966 234.645C107.066 245.956 85.3663 259.77 72.0663 266.977Z" fill="url(#paint16_linear_15479_106356)"/>
<path opacity="0.3" d="M54.4656 224.334C52.7656 227.838 51.6656 231.542 48.8656 234.344C44.5656 238.749 38.2656 241.351 32.2656 242.052C31.6656 242.119 31.0656 242.152 30.4656 242.152C30.3656 244.955 28.8656 247.658 25.3656 248.358C19.3656 249.66 16.2656 243.453 17.8656 239.149C16.1656 238.448 14.5656 237.848 12.8656 237.247C4.6656 234.444 -4.43439 234.645 -12.9344 236.747C-14.0011 237.014 -15.101 237.314 -16.2344 237.648C-9.63438 226.437 1.46559 217.928 15.1656 215.025C29.5656 212.022 43.7656 215.826 54.4656 224.334Z" fill="url(#paint17_linear_15479_106356)"/>
<path d="M-6.76353 257.155C-14.571 258.789 -12.0986 270.478 -4.29115 268.844C3.51627 267.336 1.04389 255.521 -6.76353 257.155Z" fill="url(#paint18_linear_15479_106356)"/>
<path d="M54.1649 251.061C48.1649 252.362 50.0649 261.671 56.0649 260.37C62.0649 259.169 60.1649 249.759 54.1649 251.061Z" fill="url(#paint19_linear_15479_106356)"/>
<path opacity="0.3" d="M32.4657 255.465C30.6657 255.865 31.2657 258.668 33.0657 258.268C34.7657 257.867 34.2657 255.064 32.4657 255.465Z" fill="url(#paint20_linear_15479_106356)"/>
<path opacity="0.3" d="M58.6653 236.246V236.546C58.732 236.813 58.732 237.046 58.6653 237.247C58.5987 237.38 58.5321 237.514 58.4654 237.647C58.3321 237.847 58.1654 238.014 57.9654 238.148C57.8321 238.148 57.732 238.181 57.6653 238.248C57.4653 238.314 57.2654 238.314 57.0654 238.248C56.8654 238.181 56.6987 238.114 56.5654 238.047C56.3654 237.914 56.232 237.78 56.1653 237.647C56.032 237.514 55.9654 237.347 55.9654 237.147L55.8654 236.846C55.7987 236.579 55.8321 236.346 55.9654 236.146C55.9654 236.012 55.9987 235.879 56.0654 235.745C56.1987 235.545 56.3987 235.411 56.6653 235.345L56.9654 235.145C57.1654 235.145 57.3654 235.145 57.5654 235.145C57.6987 235.211 57.8654 235.278 58.0654 235.345C58.1987 235.478 58.3321 235.612 58.4654 235.745C58.5321 235.879 58.5987 236.045 58.6653 236.246Z" fill="url(#paint21_linear_15479_106356)"/>
<path opacity="0.3" d="M50.7665 286.395C48.9665 286.795 49.5665 289.498 51.3665 289.197C53.1665 288.797 52.5665 285.994 50.7665 286.395Z" fill="url(#paint22_linear_15479_106356)"/>
<path opacity="0.3" d="M14.3679 274.084L14.5679 274.685C14.6346 274.952 14.6013 275.252 14.468 275.586C14.4013 275.719 14.3346 275.853 14.268 275.986C14.1346 276.253 13.9013 276.453 13.5679 276.587C13.4346 276.653 13.3013 276.72 13.1679 276.787C12.9013 276.787 12.668 276.754 12.468 276.687C12.268 276.687 12.0679 276.62 11.8679 276.487C11.6679 276.353 11.5013 276.186 11.3679 275.986C11.2346 275.786 11.1346 275.586 11.0679 275.386L10.968 274.785C10.9013 274.451 10.9013 274.151 10.968 273.884C11.0346 273.751 11.1013 273.617 11.1679 273.484C11.3679 273.217 11.6013 273.017 11.8679 272.883C12.0013 272.816 12.1679 272.75 12.3679 272.683C12.5679 272.616 12.768 272.616 12.968 272.683C13.2346 272.75 13.4679 272.85 13.6679 272.983C13.8679 273.117 14.0346 273.283 14.1679 273.484C14.3013 273.617 14.3679 273.817 14.3679 274.084Z" fill="url(#paint23_linear_15479_106356)"/>
<path d="M14.8546 295.077C10.9509 295.894 12.187 301.739 16.0908 300.922C19.9945 300.168 18.7583 294.26 14.8546 295.077Z" fill="url(#paint24_linear_15479_106356)"/>
<path d="M42.067 300.008C45.267 299.407 47.8671 300.509 49.4671 302.41C45.3671 304.913 40.767 306.715 35.867 307.916C35.767 304.412 37.667 301.009 42.067 300.008Z" fill="url(#paint25_linear_15479_106356)"/>
<defs>
<linearGradient id="paint0_linear_15479_106356" x1="720" y1="0" x2="720" y2="458.3" gradientUnits="userSpaceOnUse">
<stop stop-color="#D9D9D9"/>
<stop offset="1" stop-color="#D9D9D9" stop-opacity="0"/>
</linearGradient>
<linearGradient id="paint1_linear_15479_106356" x1="1440" y1="352" x2="560.222" y2="-547.773" gradientUnits="userSpaceOnUse">
<stop stop-color="#6D34E0"/>
<stop offset="0.827555" stop-color="#9D96EE"/>
</linearGradient>
<radialGradient id="paint2_radial_15479_106356" cx="0" cy="0" r="1" gradientUnits="userSpaceOnUse" gradientTransform="translate(1273.92 263.318) rotate(-142.334) scale(37.15 36.8318)">
<stop stop-color="#FEE7CA"/>
<stop offset="1" stop-color="#FEE7CA" stop-opacity="0"/>
</radialGradient>
<linearGradient id="paint3_linear_15479_106356" x1="1234.54" y1="295.9" x2="1297.28" y2="295.033" gradientUnits="userSpaceOnUse">
<stop offset="0.137" stop-color="#3C74DA"/>
<stop offset="1" stop-color="#DD94FF"/>
</linearGradient>
<linearGradient id="paint4_linear_15479_106356" x1="1315.18" y1="260.989" x2="1272.41" y2="227.972" gradientUnits="userSpaceOnUse">
<stop stop-color="white" stop-opacity="0.78"/>
<stop offset="1" stop-color="white" stop-opacity="0"/>
</linearGradient>
<linearGradient id="paint5_linear_15479_106356" x1="1308.08" y1="271.055" x2="1260.01" y2="233.952" gradientUnits="userSpaceOnUse">
<stop stop-color="white" stop-opacity="0.78"/>
<stop offset="1" stop-color="white" stop-opacity="0"/>
</linearGradient>
<linearGradient id="paint6_linear_15479_106356" x1="1295.68" y1="277.31" x2="1251.75" y2="243.397" gradientUnits="userSpaceOnUse">
<stop stop-color="white" stop-opacity="0.78"/>
<stop offset="1" stop-color="white" stop-opacity="0"/>
</linearGradient>
<linearGradient id="paint7_linear_15479_106356" x1="1308.73" y1="249.496" x2="1287.43" y2="233.056" gradientUnits="userSpaceOnUse">
<stop stop-color="white" stop-opacity="0.78"/>
<stop offset="1" stop-color="white" stop-opacity="0"/>
</linearGradient>
<linearGradient id="paint8_linear_15479_106356" x1="1268.27" y1="280.63" x2="1245.15" y2="262.786" gradientUnits="userSpaceOnUse">
<stop stop-color="white" stop-opacity="0.78"/>
<stop offset="1" stop-color="white" stop-opacity="0"/>
</linearGradient>
<radialGradient id="paint9_radial_15479_106356" cx="0" cy="0" r="1" gradientUnits="userSpaceOnUse" gradientTransform="translate(1386.58 145.009) rotate(-142.334) scale(25.4674 25.2493)">
<stop stop-color="#FEE7CA"/>
<stop offset="1" stop-color="#FEE7CA" stop-opacity="0"/>
</radialGradient>
<linearGradient id="paint10_linear_15479_106356" x1="1365.78" y1="169.07" x2="1365.71" y2="129.022" gradientUnits="userSpaceOnUse">
<stop offset="0.137" stop-color="#3F7BDC"/>
<stop offset="1" stop-color="#F7D3A1"/>
</linearGradient>
<radialGradient id="paint11_radial_15479_106356" cx="0" cy="0" r="1" gradientUnits="userSpaceOnUse" gradientTransform="translate(1380.49 246.014) rotate(37.6657) scale(25.4674 25.2493)">
<stop stop-color="#FEE7CA"/>
<stop offset="1" stop-color="#FEE7CA" stop-opacity="0"/>
</radialGradient>
<linearGradient id="paint12_linear_15479_106356" x1="1362.48" y1="272.231" x2="1401.24" y2="262.153" gradientUnits="userSpaceOnUse">
<stop offset="0.137" stop-color="#B353E9"/>
<stop offset="1" stop-color="#F7D3A1"/>
</linearGradient>
<linearGradient id="paint13_linear_15479_106356" x1="-40.7325" y1="168.779" x2="74.6188" y2="230.745" gradientUnits="userSpaceOnUse">
<stop stop-color="#BD9B67"/>
<stop offset="1" stop-color="#FCB500"/>
</linearGradient>
<linearGradient id="paint14_linear_15479_106356" x1="-20.232" y1="312.222" x2="-21.3342" y2="295.305" gradientUnits="userSpaceOnUse">
<stop stop-color="#BD67B3"/>
<stop offset="1" stop-color="#5A4BA7"/>
</linearGradient>
<linearGradient id="paint15_linear_15479_106356" x1="74.6664" y1="269.882" x2="77.4713" y2="277.888" gradientUnits="userSpaceOnUse">
<stop stop-color="#EDDFEB"/>
<stop offset="1" stop-color="white" stop-opacity="0.1"/>
</linearGradient>
<linearGradient id="paint16_linear_15479_106356" x1="-64.7337" y1="256.567" x2="96.6797" y2="222.797" gradientUnits="userSpaceOnUse">
<stop stop-color="#887638"/>
<stop offset="1" stop-color="#101C8C"/>
</linearGradient>
<linearGradient id="paint17_linear_15479_106356" x1="-19.8344" y1="222.232" x2="50.4715" y2="207.546" gradientUnits="userSpaceOnUse">
<stop stop-color="#EBCB59"/>
<stop offset="1" stop-color="#D9DDFF"/>
</linearGradient>
<linearGradient id="paint18_linear_15479_106356" x1="18.3504" y1="233.399" x2="1.85274" y2="266.794" gradientUnits="userSpaceOnUse">
<stop stop-color="#BDAA67"/>
<stop offset="1" stop-color="#FFE607"/>
</linearGradient>
<linearGradient id="paint19_linear_15479_106356" x1="73.4649" y1="232.142" x2="60.0439" y2="258.357" gradientUnits="userSpaceOnUse">
<stop stop-color="#BDAA67"/>
<stop offset="1" stop-color="#FFE607"/>
</linearGradient>
<linearGradient id="paint20_linear_15479_106356" x1="31.3657" y1="254.364" x2="33.1659" y2="253.964" gradientUnits="userSpaceOnUse">
<stop stop-color="#E0E5F3"/>
<stop offset="1" stop-color="#7D84C4"/>
</linearGradient>
<linearGradient id="paint21_linear_15479_106356" x1="55.1654" y1="233.543" x2="57.9656" y2="232.943" gradientUnits="userSpaceOnUse">
<stop stop-color="#E0E5F3"/>
<stop offset="1" stop-color="#7D84C4"/>
</linearGradient>
<linearGradient id="paint22_linear_15479_106356" x1="49.7665" y1="285.293" x2="51.4667" y2="284.894" gradientUnits="userSpaceOnUse">
<stop stop-color="#E0E5F3"/>
<stop offset="1" stop-color="#7D84C4"/>
</linearGradient>
<linearGradient id="paint23_linear_15479_106356" x1="10.168" y1="271.081" x2="13.6682" y2="270.382" gradientUnits="userSpaceOnUse">
<stop stop-color="#E0E5F3"/>
<stop offset="1" stop-color="#7D84C4"/>
</linearGradient>
<linearGradient id="paint24_linear_15479_106356" x1="27.4115" y1="283.2" x2="19.1627" y2="299.897" gradientUnits="userSpaceOnUse">
<stop stop-color="#BDAA67"/>
<stop offset="1" stop-color="#FFE607"/>
</linearGradient>
<linearGradient id="paint25_linear_15479_106356" x1="49.2671" y1="288.797" x2="52.0725" y2="306.213" gradientUnits="userSpaceOnUse">
<stop stop-color="#FCE40B"/>
<stop offset="1" stop-color="#A7824B"/>
</linearGradient>
</defs>
</svg>
