<svg width="67" height="103" viewBox="0 0 67 103" fill="none" xmlns="http://www.w3.org/2000/svg">
<path d="M1.68643 43.1228C1.8043 46.0516 3.59372 48.675 6.32251 49.9208C4.46522 45.5693 4.28187 40.9274 5.77246 35.9951C3.14726 37.4422 1.57214 40.1905 1.68643 43.1228Z" fill="white"/>
<path fill-rule="evenodd" clip-rule="evenodd" d="M6.84247 51.0816C7.00608 51.0816 7.16273 51.0186 7.28457 50.8961C7.47604 50.6995 7.53522 50.4027 7.43427 50.143C5.68672 45.6578 5.51266 40.8016 6.91905 35.7079C6.99216 35.4408 6.90513 35.1551 6.70322 34.9808C6.49783 34.8101 6.21586 34.7879 5.98958 34.9214C3.21161 36.602 1.56501 39.7591 1.68685 43.161C1.80869 46.563 3.68156 49.5717 6.57094 51.0186C6.65796 51.0631 6.75196 51.0816 6.84247 51.0816ZM5.24461 37.1844C4.41261 41.2171 4.53793 45.1013 5.61361 48.7815C4.0262 47.4051 3.04451 45.3573 2.96444 43.1091C2.88089 40.835 3.7303 38.6906 5.24461 37.1844Z" fill="black"/>
<path d="M33.5954 11.625C19.1744 11.625 7.48294 23.3137 7.48294 37.7357C7.48294 52.1541 19.1744 63.8464 33.5954 63.8464C48.0129 63.8464 59.7043 52.1541 59.7043 37.7357C59.7043 23.3137 48.0129 11.625 33.5954 11.625Z" fill="white"/>
<path d="M33.4316 11.625C18.5188 11.625 6.63615 22.4181 5.90114 36.8162L5.65253 37.4618C5.08326 39.1872 5.16613 38.4267 5.16613 42.8243C5.16613 47.2219 8.52052 55.5939 14.8906 59.3709L15.6292 59.9054C36.5914 71.9683 60.8647 61.7132 60.8647 38.8751C60.8647 23.8242 48.3444 11.625 33.4316 11.625Z" fill="#FFC50A"/>
<path fill-rule="evenodd" clip-rule="evenodd" d="M33.9081 66.1667C39.1629 66.1667 44.1502 64.8335 48.3913 62.2949C56.3174 57.5465 60.8647 49.0139 60.8647 38.8851C60.8647 31.3168 57.9787 24.1795 52.738 18.7846C47.5255 13.4189 40.6658 10.4639 33.4224 10.4639C18.4923 10.4639 6.67344 21.714 5.88857 36.6497L5.68444 37.2085C5.67974 37.2183 5.67622 37.228 5.67387 37.2378C5.61404 37.424 5.56477 37.5774 5.51902 37.7162C5.15649 38.823 5.15649 38.9216 5.16353 41.4456C5.16353 41.8583 5.16353 42.3405 5.16353 42.9067C5.16353 47.6624 8.56699 56.352 14.9551 60.3152L15.6484 60.8411C15.6672 60.8558 15.6871 60.8691 15.7083 60.8813C21.1566 64.1504 27.1223 65.9731 32.9508 66.1521C33.2699 66.1594 33.589 66.1643 33.9081 66.1667ZM33.4224 11.8044C47.8422 11.8044 59.5731 23.9531 59.5731 38.8851C59.5731 48.5244 55.2615 56.6333 47.7472 61.1334C38.7933 66.4954 26.7774 65.9622 16.384 59.738L15.6907 59.2157C15.6766 59.2035 15.6602 59.1926 15.6414 59.1828C9.72845 55.5265 6.45522 47.2387 6.45522 42.9067C6.45522 42.3405 6.45522 41.8547 6.45522 41.4419C6.44818 39.0422 6.44819 39.0422 6.74031 38.1473C6.78607 38.0085 6.83886 37.8551 6.89517 37.6724L7.13098 37.0259C7.15562 36.9602 7.1697 36.8908 7.17323 36.8214C7.87011 22.5614 19.1575 11.8044 33.4224 11.8044Z" fill="black"/>
<path d="M30.6924 22.0693C16.5938 22.0693 5.16197 31.4224 5.16197 42.9597C5.16197 54.4934 16.5938 63.8465 30.6924 63.8465C44.7947 63.8465 56.2229 54.4934 56.2229 42.9597C56.2229 31.4224 44.7947 22.0693 30.6924 22.0693Z" fill="white"/>
<path fill-rule="evenodd" clip-rule="evenodd" d="M30.6924 63.8465C44.7718 63.8465 56.2229 54.4735 56.2229 42.9579C56.2229 31.4388 44.7718 22.0693 30.6924 22.0693C16.6166 22.0693 5.16197 31.4388 5.16197 42.9579C5.16197 54.4735 16.6166 63.8465 30.6924 63.8465ZM30.6924 23.1337C44.178 23.1337 55.1477 32.0251 55.1477 42.9579C55.1477 53.8872 44.178 62.7786 30.6924 62.7786C17.2069 62.7786 6.23715 53.8872 6.23715 42.9579C6.23715 32.0251 17.2069 23.1337 30.6924 23.1337Z" fill="black"/>
<path d="M30.6924 61.5265C18.5151 61.5265 8.64338 53.4733 8.64338 43.5391C8.64338 33.605 18.5151 25.5518 30.6924 25.5518C42.8698 25.5518 52.7415 33.605 52.7415 43.5391C52.7415 53.4733 42.8698 61.5265 30.6924 61.5265Z" fill="black"/>
<path fill-rule="evenodd" clip-rule="evenodd" d="M30.6921 61.5265C43.4911 61.5265 53.9016 53.4589 53.9016 43.5409C53.9016 33.6229 43.4911 25.5518 30.6921 25.5518C17.8931 25.5518 7.48258 33.6229 7.48258 43.5409C7.48258 53.4589 17.8931 61.5265 30.6921 61.5265ZM30.6921 26.8379C42.7576 26.8379 52.5755 34.3308 52.5755 43.5409C52.5755 52.7475 42.7576 60.2403 30.6921 60.2403C18.6266 60.2403 8.80874 52.7475 8.80874 43.5409C8.80874 34.3308 18.6266 26.8379 30.6921 26.8379Z" fill="black"/>
<path d="M8.64321 41.8345C8.71446 42.5142 8.82491 43.1975 8.97455 43.8808C9.45197 46.0651 10.2963 48.0787 11.4257 49.8741C11.1621 50.3903 10.9519 50.9136 10.7951 51.4334C14.4078 57.4086 21.9966 61.5265 30.7717 61.5265C32.3358 61.5265 33.8607 61.392 35.3321 61.1449C45.625 58.2554 52.7221 51.5569 51.4288 45.6617C51.0654 43.9935 50.0643 42.5578 48.5786 41.402C48.8529 39.2831 48.7745 37.0987 48.2936 34.9107C48.0228 33.6713 47.6345 32.4901 47.1428 31.3707C43.0812 27.7943 37.2489 25.5518 30.7717 25.5518C19.2033 25.5518 9.70136 32.7009 8.64321 41.8345Z" fill="#B0401E"/>
<path fill-rule="evenodd" clip-rule="evenodd" d="M30.1911 61.5265C31.7576 61.5265 33.3241 61.4031 34.8477 61.1528C34.8667 61.1504 34.8858 61.1457 34.9048 61.1387C45.6738 58.2122 52.7711 51.4812 51.4151 45.4801C51.0476 43.8617 50.102 42.4302 48.6033 41.2314C48.8424 39.1653 48.7318 37.0885 48.2715 35.0541C47.9967 33.8376 47.5971 32.6494 47.0868 31.5176C47.0512 31.4435 47.0048 31.3801 46.9441 31.3307C42.6408 27.6567 36.5355 25.5518 30.1911 25.5518C24.4962 25.5518 19.0475 27.2125 14.8405 30.2306C10.6335 33.2523 8.01797 37.3706 7.4863 41.8238C7.48154 41.8661 7.48154 41.9072 7.4863 41.9472C7.56123 42.6312 7.67541 43.3188 7.82885 43.9887C8.28915 46.0231 9.08131 47.9483 10.191 49.7183C9.97337 50.159 9.79853 50.6033 9.66294 51.044C9.61655 51.1921 9.63795 51.3508 9.72002 51.4847C11.5791 54.4606 14.4408 56.971 18.002 58.7481C21.6452 60.5675 25.8593 61.5265 30.1911 61.5265ZM34.6408 60.095C33.1849 60.3312 31.6862 60.4511 30.1911 60.4511C21.9092 60.4511 14.4979 56.8829 10.7798 51.1286C10.9154 50.7302 11.0902 50.3318 11.3008 49.9333C11.39 49.7641 11.3793 49.5561 11.2722 49.3939C10.1482 47.6627 9.34893 45.7657 8.89219 43.7524C8.75303 43.1425 8.64956 42.5149 8.57462 41.8908C9.65937 33.1853 18.9368 26.6307 30.1911 26.6307C36.2322 26.6307 42.0342 28.6087 46.1377 32.0676C46.598 33.1007 46.9584 34.1832 47.2082 35.2903C47.6613 37.3001 47.7577 39.3557 47.4829 41.3971C47.4579 41.5875 47.54 41.7779 47.6934 41.8943C49.1279 42.9767 50.0199 44.2602 50.3482 45.7164C51.5543 51.0511 44.6569 57.3624 34.6408 60.095Z" fill="black"/>
<path d="M32.3424 28.0973C29.7805 28.6566 27.6967 30.1847 26.4012 32.1972C24.3247 30.8294 21.6971 30.263 19.0586 30.8401C12.1101 32.3575 8.66873 42.5591 15.6938 47.3714C13.5626 47.2681 11.5481 48.3189 10.4496 50.107C10.1796 50.6128 9.96426 51.1258 9.80369 51.6351C13.5042 57.4911 21.2774 61.5268 30.2659 61.5268C31.868 61.5268 33.4299 61.395 34.9371 61.1528C45.4803 58.321 52.7499 51.7562 51.4251 45.9786C51.0529 44.3437 50.0274 42.9367 48.5056 41.804C46.659 40.9633 44.6628 40.9609 42.5169 41.7968C43.703 39.8448 44.1592 37.469 43.6118 35.0789C42.4768 30.1134 37.4297 26.986 32.3424 28.0973Z" fill="#FFCAA1"/>
<path fill-rule="evenodd" clip-rule="evenodd" d="M30.2735 61.5262C31.8348 61.5262 33.3997 61.3969 34.9182 61.1454C34.9324 61.143 34.9479 61.1394 34.9646 61.1346C45.6902 58.1675 52.7608 51.3638 51.4174 45.3109C51.0351 43.5975 50.0205 42.0923 48.3948 40.8458C48.371 40.8267 48.3448 40.8111 48.3162 40.7991C46.7085 40.0448 44.9756 39.9226 43.1535 40.4255C44.0074 38.5181 44.2254 36.3879 43.768 34.3224C42.6033 29.0849 37.4191 25.7765 32.21 26.9476C29.8126 27.4864 27.7511 28.8838 26.3648 30.9062C24.2104 29.5771 21.688 29.1568 19.2085 29.7136C15.6678 30.5074 12.7667 33.6866 11.9914 37.6164C11.3232 41.0075 12.3772 44.2225 14.8318 46.4317C13.0453 46.6975 11.4483 47.7501 10.4979 49.345C10.4932 49.3522 10.4884 49.3606 10.4836 49.3701C10.2085 49.9054 9.98344 50.4478 9.82267 50.9866C9.78694 51.1052 9.80123 51.2381 9.86911 51.3459C11.7198 54.3597 14.5709 56.9066 18.1188 58.7063C21.7487 60.5491 25.9539 61.5262 30.2735 61.5262ZM34.7538 60.2797C33.289 60.524 31.7812 60.6461 30.2735 60.6461C21.9238 60.6461 14.4495 56.9749 10.7194 51.0549C10.8588 50.6346 11.0374 50.2071 11.2554 49.7868C12.2486 48.1272 14.0636 47.1573 15.9858 47.2543C16.1787 47.2615 16.3574 47.143 16.4217 46.9562C16.486 46.773 16.4181 46.5682 16.2609 46.4533C13.4455 44.4668 12.17 41.2266 12.8488 37.7889C13.5598 34.1931 16.1894 31.2905 19.3978 30.5685C21.7845 30.0333 24.2176 30.4967 26.2469 31.8725C26.3434 31.9407 26.4649 31.9623 26.5828 31.9371C26.6971 31.9156 26.8007 31.8437 26.8614 31.7432C28.1227 29.7243 30.0877 28.3234 32.3993 27.8025C37.1369 26.7392 41.8566 29.7495 42.9141 34.5128C43.4072 36.7256 43.0428 39.0174 41.8923 40.9644C41.8101 41.1009 41.8101 41.2697 41.8852 41.4062C41.9923 41.593 42.2317 41.6756 42.4282 41.5966C44.4147 40.8027 46.2047 40.7955 47.9018 41.575C49.3345 42.685 50.2313 44.007 50.5635 45.5013C51.7854 50.9974 44.8399 57.4849 34.7538 60.2797Z" fill="black"/>
<path d="M16.8803 50.708C14.9196 50.2306 13.5141 51.3492 15.1937 53.7074C22.4004 63.8313 43.416 59.0686 45.6824 46.7931C46.2095 43.9362 44.4702 43.5301 42.896 44.8125C36.0126 50.4159 25.4643 52.8061 16.8803 50.708Z" fill="white"/>
<path fill-rule="evenodd" clip-rule="evenodd" d="M27.9753 60.3658C29.5998 60.3658 31.2811 60.1736 32.9873 59.7856C40.3226 58.1065 45.7603 53.2324 46.835 47.3646C47.2004 45.3664 46.5194 44.6157 46.076 44.3437C45.3524 43.9013 44.2989 44.1225 43.327 44.9203C36.4315 50.5777 26.0279 52.9568 17.4333 50.8389C16.2238 50.5378 15.1774 50.799 14.7092 51.517C14.4219 51.9522 14.1168 52.9314 15.2767 54.5815C17.9016 58.295 22.6085 60.3658 27.9753 60.3658ZM45.2282 45.0037C45.3807 45.0037 45.5191 45.0364 45.6326 45.1053C46.0511 45.3628 46.1788 46.128 45.9837 47.2014C44.9728 52.721 39.7977 57.3195 32.7957 58.9188C25.7974 60.5217 19.1962 58.6142 15.9826 54.0592C15.3583 53.1743 15.1561 52.4273 15.4292 52.0102C15.6882 51.6149 16.3941 51.4953 17.2312 51.6983C26.0705 53.8779 36.7755 51.43 43.8697 45.6094C44.3485 45.2177 44.8416 45.0037 45.2282 45.0037Z" fill="black"/>
<path d="M8.6434 44.1727C8.6434 46.6482 9.29727 48.9921 10.4666 51.0823C10.5932 50.6489 10.7611 50.2154 10.9644 49.7819C10.0307 48.199 9.33557 46.4202 8.94089 44.4873C8.83486 43.98 8.75533 43.4695 8.69347 42.959C8.66107 43.3603 8.6434 43.7649 8.6434 44.1727Z" fill="#FFCAA1"/>
<path fill-rule="evenodd" clip-rule="evenodd" d="M10.7577 52.2421C10.7832 52.2421 10.8086 52.2409 10.8341 52.2385C11.0886 52.2127 11.3007 52.0617 11.377 51.8518C11.5467 51.3878 11.7715 50.9164 12.0515 50.4487C12.1576 50.2682 12.1491 50.0546 12.0218 49.8852C10.6856 48.077 9.73113 46.0957 9.1924 43.9929C9.04817 43.4368 8.93363 42.866 8.84879 42.2915C8.80637 42.0043 8.5264 41.7907 8.19552 41.798C7.86464 41.8054 7.59315 42.0227 7.55921 42.3099C7.50831 42.796 7.48285 43.2785 7.48285 43.7535C7.48285 46.6334 8.39913 49.3991 10.2062 51.9733C10.325 52.1427 10.5329 52.2421 10.7577 52.2421ZM10.7323 50.2203C10.7068 50.2694 10.6799 50.3185 10.6517 50.3677C10.3915 49.9282 10.1582 49.4838 9.95172 49.0345C10.1949 49.4372 10.4551 49.8324 10.7323 50.2203Z" fill="black"/>
<path d="M10.1695 51.0807C10.4213 50.9299 10.6428 50.7349 10.8339 50.5031C10.8764 50.3927 10.9188 50.2897 10.9644 50.1794C10.1755 48.6894 9.55054 47.0449 9.1258 45.279C8.96803 45.2753 8.8042 45.2864 8.6434 45.3195C8.82241 47.3539 9.35334 49.2927 10.1695 51.0807Z" fill="#FF9999"/>
<path fill-rule="evenodd" clip-rule="evenodd" d="M10.3262 51.0807C10.4259 51.0807 10.5256 51.0653 10.6209 51.0314C11.0371 50.8835 11.4185 50.6925 11.748 50.4552C11.8 50.4182 11.839 50.3751 11.8737 50.3289C11.93 50.2426 11.9907 50.1563 12.0514 50.0701C12.1598 49.9222 12.1468 49.7435 12.0211 49.6017C10.907 48.3662 10.0488 47.0258 9.47225 45.6177C9.38989 45.4205 9.13849 45.2849 8.8524 45.2788C8.57498 45.2757 8.30189 45.288 8.03747 45.3188C7.69069 45.3589 7.44795 45.5838 7.48697 45.8334C7.74705 47.5681 8.50995 49.2505 9.74968 50.8373C9.87105 50.9913 10.0965 51.0807 10.3262 51.0807ZM10.6903 49.8698C10.6527 49.8944 10.6152 49.9181 10.5776 49.9407C10.3377 49.6017 10.1196 49.2597 9.92307 48.9146C10.1658 49.2392 10.4216 49.5576 10.6903 49.8698Z" fill="black"/>
<path d="M30.1067 47.5993C30.3216 47.5993 30.529 47.4825 30.6271 47.2855C30.94 46.6544 31.6339 46.3042 32.3466 46.4137C32.6595 46.4611 32.9537 46.2531 33.0065 45.9504C33.0555 45.6476 32.8405 45.3594 32.5276 45.3119C31.3058 45.1259 30.1255 45.7242 29.5901 46.8004C29.4506 47.0776 29.5712 47.4096 29.8578 47.5446C29.937 47.581 30.0237 47.5993 30.1067 47.5993Z" fill="black"/>
<path d="M30.1604 47.5999C30.3169 47.5999 30.4699 47.5493 30.5742 47.4479C30.7585 47.2746 30.7237 47.0186 30.4977 46.8746C29.6249 46.3332 28.3696 46.2932 27.4447 46.7759C27.2012 46.9039 27.1387 47.1572 27.3021 47.3439C27.469 47.5279 27.7993 47.5786 28.0427 47.4506C28.5852 47.1679 29.3189 47.1919 29.8266 47.5093C29.9239 47.5706 30.0422 47.5999 30.1604 47.5999Z" fill="black"/>
<path d="M30.3623 51.0814C30.3866 51.0814 30.4103 51.0766 30.4333 51.067C30.6118 51.0025 30.7237 50.7088 30.685 50.4151C30.4655 48.7708 30.3709 48.1081 30.1794 46.8543C30.1342 46.5605 29.9557 46.3814 29.7793 46.4566C29.6028 46.5319 29.4974 46.8328 29.5426 47.1229C29.7319 48.3624 29.8244 49.0215 30.0417 50.6515C30.0761 50.9058 30.2117 51.0814 30.3623 51.0814Z" fill="black"/>
<path d="M45.8891 46.663C45.0389 47.7456 43.9421 48.6857 42.7579 49.519C41.5662 50.3523 40.2833 51.0823 38.9626 51.7518C38.8259 51.8195 38.7766 51.9797 38.8487 52.1044C38.9208 52.2254 39.0764 52.2753 39.2093 52.2183C40.5946 51.6236 41.9533 50.9648 43.2475 50.1814C44.538 49.3944 45.7714 48.4792 46.8 47.3361C47.0087 47.1046 46.9784 46.7627 46.7355 46.5669C46.4888 46.3746 46.1244 46.4031 45.9157 46.631C45.9081 46.6405 45.9005 46.65 45.8929 46.6595L45.8891 46.663Z" fill="black"/>
<path opacity="0.3" d="M44.4701 44.7238C43.9942 47.5238 41.8443 50.0079 39.9762 52.2425C43.8766 50.1704 45.8105 47.9463 45.7782 45.57C45.7199 43.9634 45.9336 43.706 44.4701 44.7238Z" fill="black"/>
<path d="M14.7732 54.4295C16.173 55.032 17.6447 55.3472 19.1056 55.5259C20.5701 55.7045 22.0382 55.7431 23.4955 55.715C23.6286 55.7115 23.733 55.6064 23.7294 55.4768C23.7258 55.3542 23.6286 55.2562 23.5027 55.2491C22.0634 55.1756 20.6277 55.0355 19.2315 54.7658C17.839 54.496 16.4716 54.0932 15.259 53.4662H15.2554C14.9855 53.3261 14.6545 53.4241 14.5105 53.6869C14.3666 53.9461 14.471 54.2718 14.7372 54.412C14.7516 54.4155 14.7624 54.4225 14.7732 54.4295Z" fill="black"/>
<path opacity="0.3" d="M14.9089 52.6028C15.8476 54.8028 18.7878 55.8394 23.7295 55.7126C20.8531 54.6311 17.5825 53.4664 15.934 51.141C13.9776 50.9667 14.3118 51.0935 14.9089 52.6028Z" fill="black"/>
<path fill-rule="evenodd" clip-rule="evenodd" d="M30.1911 61.5265C31.7576 61.5265 33.3241 61.4031 34.8477 61.1528C34.8667 61.1504 34.8858 61.1457 34.9048 61.1387C45.6738 58.2122 52.7711 51.4812 51.4151 45.4801C51.0476 43.8617 50.102 42.4302 48.6033 41.2314C48.8424 39.1653 48.7318 37.0885 48.2715 35.0541C47.9967 33.8376 47.5971 32.6494 47.0868 31.5176C47.0512 31.4435 47.0048 31.3801 46.9441 31.3307C42.6408 27.6567 36.5355 25.5518 30.1911 25.5518C24.4962 25.5518 19.0475 27.2125 14.8405 30.2306C10.6335 33.2523 8.01797 37.3706 7.4863 41.8238C7.48154 41.8661 7.48154 41.9072 7.4863 41.9472C7.56123 42.6312 7.67541 43.3188 7.82885 43.9887C8.28915 46.0231 9.08131 47.9483 10.191 49.7183C9.97337 50.159 9.79853 50.6033 9.66294 51.044C9.61655 51.1921 9.63795 51.3508 9.72002 51.4847C11.5791 54.4606 14.4408 56.971 18.002 58.7481C21.6452 60.5675 25.8593 61.5265 30.1911 61.5265ZM34.6408 60.095C33.1849 60.3312 31.6862 60.4511 30.1911 60.4511C21.9092 60.4511 14.4979 56.8829 10.7798 51.1286C10.9154 50.7302 11.0902 50.3318 11.3008 49.9333C11.39 49.7641 11.3793 49.5561 11.2722 49.3939C10.1482 47.6627 9.34893 45.7657 8.89219 43.7524C8.75303 43.1425 8.64956 42.5149 8.57462 41.8908C9.65937 33.1853 18.9368 26.6307 30.1911 26.6307C36.2322 26.6307 42.0342 28.6087 46.1377 32.0676C46.598 33.1007 46.9584 34.1832 47.2082 35.2903C47.6613 37.3001 47.7577 39.3557 47.4829 41.3971C47.4579 41.5875 47.54 41.7779 47.6934 41.8943C49.1279 42.9767 50.0199 44.2602 50.3482 45.7164C51.5543 51.0511 44.6569 57.3624 34.6408 60.095Z" fill="black"/>
<path d="M58.7617 30.2359C55.6003 30.6204 53.4584 33.5097 53.9801 36.6917C54.5017 39.8736 57.4853 42.1401 60.6467 41.7556C63.8081 41.3744 65.95 38.4817 65.4284 35.2998C64.9067 32.1178 61.9192 29.8513 58.7617 30.2359Z" fill="white"/>
<path fill-rule="evenodd" clip-rule="evenodd" d="M59.9145 42.9579C60.1534 42.9579 60.3935 42.9395 60.6347 42.9026C62.1805 42.6741 63.533 41.7268 64.4394 40.2377C65.3247 38.7817 65.676 36.9719 65.4301 35.1474C64.9207 31.3361 61.931 28.6195 58.7763 29.0839C55.618 29.552 53.4645 33.0316 53.9774 36.8429C54.2233 38.6675 55.0383 40.304 56.2714 41.4467C57.3394 42.4345 58.6112 42.9579 59.9145 42.9579ZM59.4859 30.3851C61.7378 30.3851 63.7719 32.4861 64.1548 35.3353C64.3586 36.8429 64.074 38.3247 63.3538 39.5115C62.6512 40.6616 61.6219 41.3914 60.452 41.5646C59.2857 41.7379 58.1018 41.3361 57.1251 40.433C56.1204 39.5005 55.4564 38.1588 55.2526 36.6512C54.8416 33.5808 56.5033 30.7868 58.9554 30.4219C59.1334 30.3974 59.3103 30.3851 59.4859 30.3851Z" fill="black"/>
<path d="M62.9314 41.4147C64.7614 40.2108 65.8088 37.9279 65.4293 35.4807C64.9946 32.712 62.8681 30.6042 60.3543 30.1934C60.2279 30.1934 60.0974 30.2041 59.967 30.2219C57.4492 30.5435 55.8169 33.3872 56.3109 36.5775C56.8089 39.7642 59.2516 42.0899 61.7693 41.7684C62.1843 41.7184 62.5717 41.5969 62.9314 41.4147Z" fill="white"/>
<path fill-rule="evenodd" clip-rule="evenodd" d="M61.2457 41.7975C61.4113 41.7975 61.5757 41.7855 61.739 41.7616C62.1624 41.7005 62.5717 41.5605 62.9531 41.3414C62.9718 41.3319 62.9904 41.3199 63.0091 41.3055C64.8354 39.941 65.7871 37.3952 65.4337 34.8206C65.0279 31.8797 63.0056 29.5026 60.5075 29.0394C60.4725 29.0346 60.4363 29.0322 60.399 29.0322C60.259 29.0358 60.1226 29.0466 59.9931 29.0645C57.481 29.4308 55.8261 32.5727 56.3054 36.0738C56.5329 37.7363 57.2046 39.2408 58.1913 40.3073C59.0905 41.2804 60.1611 41.7975 61.2457 41.7975ZM62.4073 40.3971C62.1484 40.5407 61.872 40.634 61.5921 40.6735C60.6894 40.8028 59.7587 40.4042 58.968 39.5532C58.1318 38.6483 57.5615 37.3593 57.3656 35.9193C56.9667 33.018 58.2123 30.4326 60.1436 30.1525C60.2182 30.143 60.294 30.1358 60.371 30.131C62.3968 30.5368 64.0377 32.5189 64.3736 34.975C64.671 37.1402 63.9013 39.2624 62.4073 40.3971Z" fill="black"/>
<path d="M39.0475 16.2711C38.2506 18.9005 39.5862 19.2598 41.8736 17.5115C43.5634 16.2228 45.5557 15.5836 47.4742 15.1309C49.2783 13.1823 46.9392 10.6911 43.5228 11.9799C41.8035 12.5223 39.8076 13.7662 39.0475 16.2711Z" fill="#FFC50A"/>
<path fill-rule="evenodd" clip-rule="evenodd" d="M39.1158 19.7483C39.8189 19.7483 40.6995 19.3462 41.7432 18.542C43.3812 17.2879 45.3128 16.712 46.9871 16.3167C47.1176 16.2827 47.2372 16.2145 47.3278 16.1191C48.241 15.1274 48.3533 13.8564 47.6141 12.8852C46.8168 11.8322 44.9903 11.1574 42.7108 12.0162C41.2975 12.466 38.8114 13.6655 37.9054 16.6643C37.4669 18.1228 37.6046 19.0872 38.3222 19.5336C38.5565 19.6768 38.8211 19.7483 39.1158 19.7483ZM46.4435 15.1547C44.7692 15.5636 42.6746 16.2145 40.9024 17.5742C39.7174 18.4841 39.1412 18.525 39.0506 18.4875C39.0542 18.4875 38.8259 18.191 39.1847 17.0051C39.9276 14.5447 41.9896 13.5633 43.1529 13.1953C43.165 13.1907 43.1771 13.1862 43.1892 13.1816C44.8091 12.5682 46.034 12.9567 46.5341 13.611C46.8856 14.0779 46.853 14.6299 46.4435 15.1547Z" fill="black"/>
<path d="M10.9715 21.9307C10.8944 22.5538 11.4373 23.0925 12.0537 23.2051C12.6666 23.3213 13.374 23.0221 13.5176 22.4095C14.106 19.903 15.8501 17.4492 17.927 15.9073C15.0376 14.302 11.847 14.5555 10.9715 21.9307Z" fill="#FFC50A"/>
<path fill-rule="evenodd" clip-rule="evenodd" d="M11.7561 24.3903C12.5389 24.3903 13.3701 23.946 13.5701 23.0923C14.0943 20.8537 15.6668 18.5354 17.6705 17.05C17.8429 16.9216 17.9395 16.7133 17.9257 16.4947C17.9119 16.2795 17.7912 16.0852 17.6015 15.981C15.8531 15.0058 14.3184 14.8462 13.0424 15.5021C11.3423 16.3802 10.256 18.6985 9.81454 22.3981C9.70763 23.3109 10.4008 24.1716 11.394 24.3555C11.5113 24.3798 11.6354 24.3903 11.7561 24.3903ZM16.1152 16.6786C14.2702 18.3237 12.8562 20.59 12.3389 22.8007C12.2838 23.0367 11.9113 23.1582 11.6251 23.1061C11.3388 23.0506 11.0422 22.8042 11.0733 22.5508C11.4526 19.344 12.3355 17.2964 13.6184 16.637C14.3012 16.283 15.1392 16.3003 16.1152 16.6786Z" fill="black"/>
<path opacity="0.3" d="M62.9106 35.5007C63.3325 37.8128 62.4849 40.1681 60.6491 41.7981C63.891 41.0549 65.969 38.1432 65.4183 35.1129C64.8675 32.0827 61.8756 29.95 58.5437 30.2157C60.8561 31.2066 62.4888 33.1849 62.9106 35.5007Z" fill="black"/>
<path opacity="0.3" d="M14.4459 23.2298C15.6358 21.0293 17.4323 19.03 19.8354 17.2318C20.755 14.8326 20.1388 14.4647 17.9836 16.1279C16.5915 16.8933 15.4102 19.2593 14.4459 23.2298Z" fill="black"/>
<path opacity="0.3" d="M47.4247 12.1912C46.6169 11.4603 45.3616 11.4338 44.5221 12.1306C45.124 11.8655 45.8368 12.07 46.1853 12.6078C46.5298 13.1494 46.51 14.0319 45.8883 14.244C43.3262 15.1264 40.9067 16.3801 38.8158 18.5805C39.98 18.6941 42.9223 17.4872 47.6425 14.9598C48.3276 14.1228 48.2326 12.9222 47.4247 12.1912Z" fill="black"/>
<path opacity="0.3" d="M16.0993 16.2666C13.1028 18.5799 11.8007 20.9008 12.1931 23.2295C13.4527 20.9798 14.9739 18.9168 16.7566 17.0403C16.8186 17.0381 16.5994 16.7802 16.0993 16.2666Z" fill="black"/>
<path opacity="0.3" d="M10.9643 50.3692C14.4891 56.2785 22.0453 60.3654 30.794 60.3654C42.9163 60.3654 52.7415 52.5242 52.7415 42.8535C52.7415 38.4517 50.7082 34.4284 47.3452 31.3535C48.7066 33.6288 49.4664 36.18 49.4664 38.8692C49.4664 48.5399 39.6377 56.3811 27.5155 56.3811C25.6933 56.3811 23.9238 56.2042 22.2318 55.868C22.7876 55.6522 23.3539 55.4045 23.9273 55.1143C21.6408 55.1521 19.2991 54.8124 16.9023 54.0952C16.9234 54.1412 16.9481 54.1837 16.9657 54.2262C14.6897 53.2319 12.6564 51.9226 10.9643 50.3692Z" fill="black"/>
<path fill-rule="evenodd" clip-rule="evenodd" d="M31.2723 61.5265C43.7501 61.5265 53.9016 53.4568 53.9016 43.5391C53.9016 33.6214 43.7501 25.5518 31.2723 25.5518C18.7946 25.5518 8.64306 33.6214 8.64306 43.5391C8.64306 53.4568 18.7946 61.5265 31.2723 61.5265ZM31.2723 26.4173C43.2699 26.4173 53.0302 34.1003 53.0302 43.5391C53.0302 52.978 43.2699 60.6575 31.2723 60.6575C19.2748 60.6575 9.51451 52.978 9.51451 43.5391C9.51451 34.1003 19.2748 26.4173 31.2723 26.4173Z" fill="black"/>
<path d="M18.3126 43.4804C19.1101 45.6387 20.8818 46.8951 22.2724 46.2862C23.6591 45.6772 24.1423 43.4341 23.3448 41.2758C22.5474 39.1175 20.7757 37.861 19.3851 38.47C17.9944 39.0789 17.5152 41.322 18.3126 43.4804Z" fill="black"/>
<path d="M19.0886 40.553C19.064 41.1897 19.5663 41.7459 20.2065 41.7954C20.8467 41.8417 21.3835 41.3627 21.4081 40.723C21.4278 40.0864 20.9255 39.527 20.2853 39.4806C19.6451 39.4343 19.1083 39.9133 19.0886 40.553Z" fill="white"/>
<path d="M34.9347 35.9965C33.6697 36.0469 32.8264 37.6492 33.049 39.5706C33.2683 41.4954 34.4725 43.0103 35.7341 42.9566C36.9957 42.9062 37.8424 41.3039 37.6197 39.3825C37.3971 37.4577 36.1962 35.9428 34.9347 35.9965Z" fill="black"/>
<path d="M34.5702 37.236C34.0882 37.4685 34.0382 38.1425 34.4611 38.739C34.884 39.3354 35.6161 39.632 36.0981 39.3961C36.5801 39.1636 36.6301 38.4896 36.2072 37.8931C35.7843 37.2966 35.0522 37.0035 34.5702 37.236Z" fill="white"/>
<path d="M34.2841 40.7287C34.0954 40.9033 34.1556 41.2625 34.4165 41.5311C34.6775 41.7997 35.0388 41.8803 35.2275 41.7057C35.4122 41.5311 35.352 41.1719 35.091 40.9033C34.8301 40.6347 34.4687 40.5575 34.2841 40.7287Z" fill="white"/>
<path opacity="0.2" d="M48.0996 38.9466C48.0926 37.6324 47.9523 36.3072 47.6683 34.9783C47.4018 33.73 47.0196 32.5402 46.5357 31.4127C42.5382 27.8105 36.7979 25.5518 30.4229 25.5518C19.037 25.5518 9.68489 32.7526 8.64344 41.9522C8.71357 42.6367 8.82227 43.325 8.96955 44.0132C8.97657 44.0498 8.98708 44.0828 8.99409 44.1194C10.4599 35.2932 19.6015 28.4914 30.6648 28.4914C37.0398 28.4914 42.7801 30.7501 46.7776 34.3523C47.2615 35.4799 47.6438 36.6696 47.9103 37.918C47.9839 38.2621 48.0435 38.6025 48.0996 38.9466Z" fill="black"/>
<path opacity="0.2" d="M9.86836 51.0811C9.84491 51.1199 9.82146 51.1587 9.80388 51.1975C10.1673 51.5525 10.5541 51.9006 10.9644 52.2415C10.5775 51.8641 10.2083 51.4761 9.86836 51.0811Z" fill="black"/>
<path opacity="0.2" d="M51.5031 47.6002C51.6336 46.8758 51.6021 46.1513 51.3905 45.4437C50.9718 44.0386 49.8913 42.8155 48.293 41.7979C48.302 42.6065 48.239 43.4085 48.0994 44.2003C49.7517 45.1438 50.9268 46.2861 51.5031 47.6002Z" fill="black"/>
<path fill-rule="evenodd" clip-rule="evenodd" d="M29.5173 5.77485C30.6176 7.8552 30.8046 10.1337 30.6407 11.6249L28.77 11.4176C28.9011 10.2254 28.7446 8.34281 27.8551 6.66109C26.9893 5.02399 25.4113 3.53425 22.5691 3.04287L22.8884 1.18066C26.3355 1.77661 28.3934 3.64989 29.5173 5.77485Z" fill="black"/>
<path d="M26.0506 2.34146C26.0506 3.62329 25.0115 4.66241 23.7296 4.66241C22.4478 4.66241 21.4087 3.62329 21.4087 2.34146C21.4087 1.05963 22.4478 0.0205078 23.7296 0.0205078C25.0115 0.0205078 26.0506 1.05963 26.0506 2.34146Z" fill="black"/>
<path fill-rule="evenodd" clip-rule="evenodd" d="M33.8646 2.28237C33.8654 2.282 33.8638 2.29036 33.8573 2.30854C33.8606 2.29184 33.8639 2.28274 33.8646 2.28237ZM33.1975 3.25447C33.0831 3.27902 32.961 3.30786 32.8312 3.34146C31.5124 3.683 29.7428 4.42525 27.8706 5.51403C25.9984 6.60281 24.4781 7.77372 23.529 8.75113C23.4356 8.84731 23.3502 8.93915 23.2723 9.02646C23.3867 9.00191 23.5088 8.97307 23.6385 8.93946C24.9574 8.59792 26.727 7.85567 28.5992 6.76689C30.4714 5.67811 31.9917 4.50721 32.9408 3.5298C33.0342 3.43362 33.1196 3.34178 33.1975 3.25447ZM22.0974 9.12553C22.0981 9.12502 22.1077 9.12669 22.1238 9.13207C22.1048 9.12873 22.0967 9.12604 22.0974 9.12553ZM22.6051 9.99855C22.6043 9.99892 22.606 9.99057 22.6125 9.97239C22.6092 9.98909 22.6059 9.99818 22.6051 9.99855ZM34.346 3.14886C34.365 3.15219 34.3731 3.15489 34.3724 3.1554C34.3716 3.15591 34.3621 3.15424 34.346 3.14886ZM29.3922 8.13058C33.3125 5.85076 35.9724 3.1116 35.3332 2.01249C34.694 0.913375 30.9978 1.87053 27.0775 4.15034C23.1573 6.43016 20.4974 9.16933 21.1366 10.2684C21.7758 11.3676 25.472 10.4104 29.3922 8.13058Z" fill="black"/>
<path d="M67 64.6826L11.2971 81.1002L12.0991 82.5995L54.2408 74.5032L50.2308 81.1002V82.5995L53.0013 86.4228L47.4602 92.4951L48.4809 93.6945L57.4488 86.4228V84.9235L55.9906 81.1002L67 66.7067V64.6826Z" fill="black"/>
<path d="M67 63.5215L11.2971 79.2824L12.0991 80.7217L54.2408 72.9492L50.2308 79.2824V80.7217L53.0013 84.3921L47.4602 90.2214L48.4809 91.3729L57.4488 84.3921V82.9527L55.9906 79.2824L67 65.4646V63.5215Z" fill="#FFC50A"/>
<path d="M24.7571 100.154L24.8597 100.715L21.4288 101.342L20.2206 99.5273L16.3984 100.226L15.9107 102.351L12.4798 102.979L12.3772 102.418L13.8774 102.143L16.0171 92.9082L17.987 92.5479L23.2438 100.43L24.7571 100.154ZM17.5048 95.4402L16.8412 98.2984L19.1241 97.8808L17.5048 95.4402Z" fill="black"/>
<path d="M32.2596 98.7815L32.3622 99.3424L23.3871 100.984L23.2845 100.423L24.5499 100.192L22.9848 91.6338L26.207 91.0446C27.6072 90.7885 28.6748 90.8763 29.4099 91.3081C30.152 91.7296 30.6265 92.5057 30.8333 93.6362C31.0385 94.7581 30.8583 95.6404 30.2928 96.2831C29.7359 96.9242 28.7835 97.368 27.4355 97.6146L26.2223 97.8364L26.585 99.8193L32.2596 98.7815ZM27.27 95.8248C27.9483 95.7008 28.3846 95.4817 28.5788 95.1675C28.7714 94.8447 28.82 94.4224 28.7246 93.9006C28.6275 93.3701 28.3983 93.0255 28.0367 92.867C27.6823 92.6981 27.1702 92.6749 26.5006 92.7974L25.3396 93.0097L25.9002 96.0753L27.27 95.8248Z" fill="black"/>
<path d="M33.3783 98.5769L31.8133 90.0192L38.388 88.8168L38.7197 90.6301L34.1799 91.4603L34.5235 93.3388L38.6066 92.5921L38.924 94.3271L34.8408 95.0738L35.1867 96.9654L39.87 96.1089L40.0966 97.3482L41.362 97.1168L41.4646 97.6777L32.2155 99.3693L32.113 98.8083L33.3783 98.5769Z" fill="black"/>
<path d="M49.1147 95.6989L49.2173 96.2598L40.8945 97.782L40.7919 97.221L42.566 96.8966C42.0432 96.7405 41.5511 96.507 41.0897 96.1959L42.031 94.4869C43.1712 95.1681 44.1587 95.4324 44.9936 95.2797C45.3676 95.2113 45.6446 95.0797 45.8247 94.885C46.0119 94.68 46.0808 94.4427 46.0315 94.1731C45.9806 93.8948 45.8278 93.6981 45.5731 93.5829C45.3167 93.459 44.8386 93.3757 44.1387 93.3329C43.0316 93.2748 42.1936 93.091 41.6247 92.7816C41.0629 92.4619 40.7033 91.8716 40.5459 91.0106C40.3868 90.1409 40.5731 89.4148 41.1047 88.8322C41.6449 88.2481 42.3804 87.8709 43.3109 87.7007C43.9197 87.5894 44.5475 87.5824 45.1945 87.6798C45.8414 87.7772 46.426 87.9759 46.9483 88.2758L46.1897 89.9514C45.2885 89.4961 44.4161 89.3456 43.5725 89.4999C43.2334 89.5619 42.9789 89.6938 42.8091 89.8956C42.6464 90.0872 42.5897 90.3177 42.639 90.5873C42.6867 90.8482 42.8423 91.0355 43.1057 91.1491C43.3779 91.2611 43.9643 91.3471 44.8651 91.407C45.7729 91.4567 46.505 91.6509 47.0612 91.9895C47.6175 92.3282 47.9648 92.8758 48.1032 93.6325C48.275 94.5717 48.0556 95.3623 47.445 96.0043L49.1147 95.6989Z" fill="black"/>
<path d="M10.813 92.6334L10.9225 93.193L2.61897 94.8174L2.50949 94.2577L4.27952 93.9115C3.75478 93.7619 3.25985 93.5344 2.79472 93.229L3.71486 91.5085C4.86335 92.1757 5.85407 92.4278 6.68703 92.2649C7.06012 92.1919 7.33551 92.0569 7.5132 91.86C7.69786 91.6527 7.76388 91.4146 7.71127 91.1456C7.65695 90.868 7.50172 90.6731 7.24558 90.5611C6.98774 90.4404 6.50865 90.3629 5.8083 90.3288C4.70053 90.2842 3.86033 90.1108 3.28768 89.8084C2.72202 89.4956 2.35517 88.9098 2.18713 88.0508C2.0174 87.1831 2.19473 86.4548 2.71911 85.8657C3.25217 85.275 3.98289 84.8888 4.91129 84.7072C5.51865 84.5884 6.14638 84.5737 6.79448 84.6631C7.44258 84.7525 8.02956 84.944 8.55542 85.2375L7.81749 86.9223C6.9108 86.4781 6.03665 86.3383 5.19502 86.503C4.85663 86.5691 4.60378 86.7042 4.43647 86.9081C4.27613 87.1016 4.22228 87.3329 4.27489 87.6018C4.32581 87.8621 4.48368 88.0475 4.7485 88.1578C5.022 88.2665 5.60946 88.3452 6.51087 88.3941C7.41927 88.4326 8.15366 88.6178 8.71404 88.9496C9.27442 89.2814 9.62845 89.8247 9.77611 90.5796C9.95943 91.5166 9.74975 92.3099 9.14709 92.9593L10.813 92.6334Z" fill="black"/>
<path d="M19.0649 85.6545L17.5776 91.1074L16.3672 91.3442L12.9479 86.8511L14.0681 92.5777L10.7753 93.2218L10.6659 92.6622L11.9283 92.4152L10.2581 83.8774L13.0043 83.3402L16.3246 87.8797L17.7027 82.4211L20.4358 81.8865L22.106 90.4242L23.3684 90.1773L23.4779 90.7369L20.1851 91.381L19.0649 85.6545Z" fill="black"/>
<path d="M34.2502 88.0486L34.3596 88.6082L30.9367 89.2778L29.7063 87.478L25.893 88.224L25.4314 90.3547L22.0085 91.0243L21.899 90.4647L23.3957 90.1719L25.4218 80.9111L27.3871 80.5266L32.7404 88.3439L34.2502 88.0486ZM26.9405 83.4247L26.312 86.2908L28.5896 85.8452L26.9405 83.4247Z" fill="black"/>
<path d="M34.0435 88.089L32.3733 79.5512L35.8222 78.8765C37.2365 78.5999 38.2897 78.6416 38.9817 79.0017C39.6824 79.3601 40.1363 80.0686 40.3434 81.1271C40.6286 82.5848 40.2357 83.639 39.1649 84.2899L41.5921 86.6123L42.8155 86.373L42.925 86.9326L39.6062 87.5819L37.0211 85.0742L35.6155 85.3491L36.1833 88.2515L32.8905 88.8956L32.781 88.336L34.0435 88.089ZM36.7555 83.3019C37.4496 83.1661 37.9004 82.9608 38.1079 82.686C38.3154 82.4112 38.3716 82.0308 38.2766 81.5449C38.1798 81.0504 37.9835 80.7374 37.6875 80.6061C37.3916 80.4749 36.9183 80.4729 36.2675 80.6002L34.7448 80.898L35.2718 83.5921L36.7555 83.3019Z" fill="black"/>
<path d="M50.2934 84.9102L50.4028 85.4698L42.4898 87.0178L42.3803 86.4581L45.3217 85.8827L43.9952 79.102L41.4183 79.6061L41.0745 77.8491L48.2588 76.4437L48.6025 78.2007L46.0255 78.7048L47.352 85.4856L50.2934 84.9102Z" fill="black"/>
</svg>
