<svg width="80" height="81" viewBox="0 0 80 81" fill="none" xmlns="http://www.w3.org/2000/svg">
<rect width="80" height="80" transform="translate(0 0.116211)" fill="white"/>
<rect x="12.5713" y="2.40198" width="55.2902" height="75.6008" rx="2.46979" fill="url(#paint0_linear_27319_77354)"/>
<path d="M16.5195 6.3501H60.8771C62.2412 6.3501 63.3469 7.45586 63.3469 8.81988V69.3258C63.3469 70.6899 62.2412 71.7956 60.8771 71.7956H16.5195V6.3501Z" fill="url(#paint1_linear_27319_77354)"/>
<ellipse cx="39.9317" cy="74.8985" rx="1.97465" ry="1.97465" fill="white"/>
<rect x="19.8396" y="16.0258" width="18.4677" height="18.4677" rx="1.38654" fill="white" stroke="#E3E3E3" stroke-width="0.556079"/>
<g filter="url(#filter0_f_27319_77354)">
<path d="M22.1473 28.636L23.9387 31.2691V31.0965C23.7229 30.7295 22.121 28.5885 22.121 28.3554C22.0787 28.4433 22.0881 28.5472 22.1473 28.636Z" fill="#4E8856"/>
<path d="M23.9387 30.8159L22.2556 28.3122L22.2121 28.2475C22.1707 28.2781 22.1404 28.3151 22.121 28.3554C22.121 28.5885 23.7229 30.7295 23.9387 31.0965V30.8159Z" fill="#4E8856"/>
<path d="M23.9387 30.8159L23.9603 29.0676C23.9643 28.9531 23.9573 28.8693 23.9387 28.8012C23.9108 28.6986 23.8568 28.6318 23.7748 28.5496L22.2331 26.712L22.2556 28.3122L23.9387 30.8159Z" fill="#4E8856"/>
<path d="M33.2195 25.2474L22.2331 26.3266C22.1036 26.3266 22.0389 26.4993 22.1253 26.5834L22.2331 26.712L23.7748 28.5496C23.8568 28.6318 23.9108 28.6986 23.9387 28.8012L36.7026 27.5784C36.6474 27.4364 36.539 27.3309 36.3269 27.1899L33.2195 25.2474Z" fill="#4E8856"/>
<path d="M23.9387 31.2691L36.7591 29.9094V28.118C36.7591 27.8701 36.7533 27.7088 36.7026 27.5784L23.9387 28.8012C23.9573 28.8693 23.9643 28.9531 23.9603 29.0676L23.9387 30.8159V31.0965V31.2691Z" fill="#4E8856"/>
</g>
<path d="M22.1473 28.5929L23.9387 31.226V31.0534C23.7229 30.6865 22.121 28.5454 22.121 28.3123C22.0787 28.4002 22.0881 28.5041 22.1473 28.5929Z" fill="#67BC73"/>
<path d="M23.9387 30.7728L22.2556 28.2691L22.2121 28.2044C22.1707 28.235 22.1404 28.272 22.121 28.3123C22.121 28.5454 23.7229 30.6865 23.9387 31.0534V30.7728Z" fill="#7CD188"/>
<path d="M23.9387 30.7728L23.9603 29.0246C23.9643 28.9101 23.9573 28.8262 23.9387 28.7581C23.9108 28.6555 23.8568 28.5887 23.7748 28.5066L22.2331 26.6689L22.2556 28.2691L23.9387 30.7728Z" fill="#EAE2BB"/>
<path d="M33.2195 25.2043L22.2331 26.2835C22.1036 26.2835 22.0389 26.4562 22.1253 26.5403L22.2331 26.6689L23.7748 28.5066C23.8568 28.5887 23.9108 28.6555 23.9387 28.7581L36.7026 27.5353C36.6474 27.3933 36.539 27.2878 36.3269 27.1468L33.2195 25.2043Z" fill="url(#paint2_linear_27319_77354)"/>
<path d="M23.9387 31.226L36.7591 29.8663V28.0749C36.7591 27.827 36.7533 27.6657 36.7026 27.5353L23.9387 28.7581C23.9573 28.8262 23.9643 28.9101 23.9603 29.0246L23.9387 30.7728V31.0534V31.226Z" fill="url(#paint3_linear_27319_77354)"/>
<path d="M22.4277 27.7727L23.658 29.0677L23.0968 28.4418L22.4277 27.7727Z" fill="#C7BC88"/>
<path d="M22.6377 28.1088L23.7996 29.4654L23.2714 28.8114L22.6377 28.1088Z" fill="#C7BC88"/>
<g filter="url(#filter1_f_27319_77354)">
<path d="M25.3422 28.2474C25.5364 27.492 25.5839 27.1081 25.3422 26.1322L21.8889 24.3551C21.8267 24.7832 21.8184 25.0232 21.8889 25.4511L25.3422 28.2474Z" fill="#334C63"/>
<path fill-rule="evenodd" clip-rule="evenodd" d="M31.6876 22.312L36.5867 24.384L25.3422 26.1322L21.8889 24.3551L21.7702 24.294C21.673 24.2329 21.781 24.1897 21.9104 24.1466L31.6876 22.312Z" fill="#334C63"/>
<path d="M25.3422 26.1322C25.5839 27.1081 25.5364 27.492 25.3422 28.2474L21.8889 25.4511L21.8238 25.3984C21.522 25.3984 21.5867 25.679 21.7807 25.7869L25.2987 28.5711C25.497 28.646 25.6055 28.6257 25.7874 28.5918C25.8228 28.5852 25.8609 28.5781 25.903 28.5711L36.5867 26.715C37.0186 25.9811 36.9107 24.5782 36.5867 24.384L25.3422 26.1322Z" fill="#334C63"/>
</g>
<path d="M25.3002 28.1611C25.4944 27.4057 25.5419 27.0218 25.3002 26.0459L21.8469 24.2688C21.7847 24.6969 21.7764 24.9369 21.8469 25.3648L25.3002 28.1611Z" fill="#EAE2BB"/>
<path fill-rule="evenodd" clip-rule="evenodd" d="M31.6456 22.2257L36.5447 24.2977L25.3002 26.0459L21.8469 24.2688L21.7282 24.2077C21.631 24.1466 21.739 24.1034 21.8685 24.0603L31.6456 22.2257Z" fill="url(#paint4_linear_27319_77354)"/>
<path d="M25.3002 26.0459C25.5419 27.0218 25.4944 27.4057 25.3002 28.1611L21.8469 25.3648L21.7818 25.3121C21.48 25.3121 21.5447 25.5927 21.7387 25.7006L25.2567 28.4848C25.455 28.5596 25.5635 28.5394 25.7454 28.5055C25.7808 28.4989 25.8189 28.4918 25.861 28.4848L36.5447 26.6287C36.9766 25.8948 36.8687 24.4919 36.5447 24.2977L25.3002 26.0459Z" fill="url(#paint5_linear_27319_77354)"/>
<path d="M22.7816 25.5599C22.8381 25.5431 23.7693 26.2233 24.5065 26.75C23.5612 26.1231 23.4625 26.0498 22.7816 25.5599Z" fill="#C7BC88"/>
<path d="M22.5726 25.0335C22.6291 25.0167 23.5603 25.6969 24.2975 26.2236C23.3522 25.5967 23.2535 25.5235 22.5726 25.0335Z" fill="#C7BC88"/>
<g filter="url(#filter2_f_27319_77354)">
<path d="M21.1539 24.1802L26.0532 26.2091V25.9285L21.3701 24.0305L21.1539 23.9428C21.0679 23.9428 21.0463 24.1371 21.1539 24.1802Z" fill="#574587"/>
<path fill-rule="evenodd" clip-rule="evenodd" d="M26.0532 25.9285V24.137C26.0456 23.9011 26.032 23.7917 25.9277 23.6622C25.8713 23.5922 25.7932 23.5524 25.6846 23.5111L21.4348 22.2667C21.4348 22.2667 21.5093 22.7473 21.5211 23.0579L22.1255 23.209L21.5235 23.1226C21.5278 23.2534 21.5279 23.344 21.5211 23.4896L22.4061 23.6622L21.5181 23.5759C21.5178 23.5867 21.5175 23.5975 21.5172 23.6081C21.514 23.734 21.5112 23.8433 21.478 23.9428C21.4608 23.9943 21.3701 24.0305 21.3701 24.0305L26.0532 25.9285Z" fill="#574587"/>
<path d="M22.1255 23.209L21.5211 23.0579C21.522 23.0807 21.5228 23.1022 21.5235 23.1226L22.1255 23.209Z" fill="#574587"/>
<path d="M22.4061 23.6622L21.5211 23.4896C21.5198 23.5192 21.5189 23.5479 21.5181 23.5759L22.4061 23.6622Z" fill="#574587"/>
<path fill-rule="evenodd" clip-rule="evenodd" d="M33.1328 21.8708C33.1242 21.7917 33.1094 21.7393 33.068 21.6945L25.9277 23.6622C26.032 23.7917 26.0456 23.9011 26.0532 24.137V25.9285V26.2091L32.9167 24.0939C33.0359 24.0939 33.1325 23.9973 33.1325 23.8781L33.1328 21.8708Z" fill="#574587"/>
<path fill-rule="evenodd" clip-rule="evenodd" d="M33.068 21.6945L25.9277 23.6622C25.8713 23.5922 25.7932 23.5524 25.6846 23.5111L21.4348 22.2667L21.2621 22.2162C21.1542 22.173 21.1542 21.9788 21.2621 21.9356L28.1687 20.209C28.2982 20.1658 28.3592 20.1829 28.4277 20.209L32.9818 21.6295C33.0465 21.655 33.047 21.6717 33.068 21.6945Z" fill="#574587"/>
</g>
<path d="M21.1539 24.0938L26.0532 26.1226V25.842L21.3701 23.944L21.1539 23.8564C21.0679 23.8564 21.0463 24.0507 21.1539 24.0938Z" fill="url(#paint6_linear_27319_77354)"/>
<path fill-rule="evenodd" clip-rule="evenodd" d="M26.0532 25.842V24.0506C26.0456 23.8147 26.032 23.7053 25.9277 23.5758C25.8713 23.5058 25.7932 23.4659 25.6846 23.4247L21.4348 22.1803C21.4348 22.1803 21.5093 22.6609 21.5211 22.9715L22.1255 23.1225L21.5235 23.0362C21.5278 23.1669 21.5279 23.2575 21.5211 23.4031L22.4061 23.5758L21.5181 23.4895C21.5178 23.5003 21.5175 23.511 21.5172 23.5216C21.514 23.6475 21.5112 23.7569 21.478 23.8564C21.4608 23.9079 21.3701 23.944 21.3701 23.944L26.0532 25.842Z" fill="#EAE2BB"/>
<path d="M22.1255 23.1225L21.5211 22.9715C21.522 22.9943 21.5228 23.0157 21.5235 23.0362L22.1255 23.1225Z" fill="#C7BC88"/>
<path d="M22.4061 23.5758L21.5211 23.4031C21.5198 23.4328 21.5189 23.4615 21.5181 23.4895L22.4061 23.5758Z" fill="#C7BC88"/>
<path fill-rule="evenodd" clip-rule="evenodd" d="M33.1328 21.7844C33.1242 21.7053 33.1094 21.6529 33.068 21.608L25.9277 23.5758C26.032 23.7053 26.0456 23.8147 26.0532 24.0506V25.842V26.1226L32.9167 24.0075C33.0359 24.0075 33.1325 23.9109 33.1325 23.7917L33.1328 21.7844Z" fill="url(#paint7_linear_27319_77354)"/>
<path fill-rule="evenodd" clip-rule="evenodd" d="M33.068 21.608L25.9277 23.5758C25.8713 23.5058 25.7932 23.4659 25.6846 23.4247L21.4348 22.1803L21.2621 22.1298C21.1542 22.0866 21.1542 21.8923 21.2621 21.8492L28.1687 20.1225C28.2982 20.0794 28.3592 20.0965 28.4277 20.1225L32.9818 21.5431C33.0465 21.5686 33.047 21.5853 33.068 21.608Z" fill="url(#paint8_linear_27319_77354)"/>
<path d="M22.582 23.9443C22.6315 23.9123 24.4638 24.587 25.3191 24.8859C24.2359 24.5491 23.6614 24.359 22.582 23.9443Z" fill="#C7BC88"/>
<path d="M22.2988 23.2544C22.3474 23.221 23.4426 23.5819 24.3061 23.8565C23.2138 23.5506 23.0974 23.5112 22.2988 23.2544Z" fill="#C7BC88"/>
<path d="M21.4785 22.4342C21.5271 22.4008 22.6223 22.7618 23.4857 23.0363C22.3935 22.7304 22.2771 22.691 21.4785 22.4342Z" fill="#C7BC88"/>
<rect x="19.8396" y="44.0308" width="18.4677" height="18.4677" rx="1.98103" fill="white" stroke="#E3E3E3" stroke-width="0.556079"/>
<path d="M28.0974 50.7636C28.0974 50.7636 28.0005 45.9896 29.9886 46.0357C31.9589 46.0814 31.7537 50.7636 31.7537 50.7636" stroke="#525252" stroke-width="0.341938"/>
<path d="M24.3768 49.4396H32.8555L33.2022 59.6518H23.9355L24.3768 49.4396Z" fill="url(#paint9_linear_27319_77354)"/>
<path d="M32.8555 49.4396L33.2022 59.6518L33.7223 59.0845L33.2653 49.4396H32.8555Z" fill="url(#paint10_linear_27319_77354)"/>
<path d="M34.2424 59.6518L33.5945 49.4514L33.2653 49.4396L33.7223 59.0845L34.2424 59.6518Z" fill="url(#paint11_linear_27319_77354)"/>
<path d="M33.2022 59.6518H34.2424L33.7223 59.0845L33.2022 59.6518Z" fill="#8D78C7"/>
<path d="M26.7107 50.7636C26.7107 50.7636 26.6138 45.9896 28.6019 46.0357C30.5722 46.0814 30.367 50.7636 30.367 50.7636" stroke="#525252" stroke-width="0.341938"/>
<circle cx="30.3978" cy="50.8579" r="0.157597" fill="#3E3C3C"/>
<circle cx="26.7406" cy="50.8579" r="0.157597" fill="#3E3C3C"/>
<rect x="42.1257" y="16.0258" width="18.4677" height="18.4677" rx="1.98103" fill="white" stroke="#E3E3E3" stroke-width="0.556079"/>
<rect x="43.9414" y="19.9329" width="13.514" height="9.71627" rx="0.702827" fill="#CC4E1C"/>
<path d="M43.9424 20.5247C43.9424 20.1978 44.232 19.9329 44.5589 19.9329C44.189 20.2781 44.189 20.9193 45.1261 20.87H57.555C57.8819 20.87 58.1469 21.1349 58.1469 21.4618V29.9944C58.1469 30.3213 57.8819 30.5862 57.555 30.5862H44.5589C44.232 30.5862 43.9424 30.3213 43.9424 29.9944L43.9424 20.5247Z" fill="url(#paint12_linear_27319_77354)"/>
<path d="M43.9424 20.5245L43.9424 29.9942C43.9424 30.321 44.232 30.586 44.5589 30.586H45.348C44.5667 30.4909 44.1912 30.3959 44.1643 29.7969V20.0742C44.0305 20.1828 43.9424 20.3442 43.9424 20.5245Z" fill="#F1773A"/>
<path opacity="0.8" d="M44.041 30.1424H57.3084C57.4446 30.1424 57.555 30.032 57.555 29.8958V21.7578C57.555 21.6216 57.4446 21.5112 57.3084 21.5112H44.041" stroke="#FFFDFC" stroke-width="0.175707" stroke-linecap="round" stroke-linejoin="round" stroke-dasharray="0.35 0.35"/>
<path d="M53.3633 25.9003C53.3633 25.0286 54.0699 24.322 54.9416 24.322H57.9378C58.326 24.322 58.6406 24.6367 58.6406 25.0248V26.7757C58.6406 27.1639 58.326 27.4786 57.9378 27.4786H54.9416C54.0699 27.4786 53.3633 26.772 53.3633 25.9003Z" fill="#CC4E1C"/>
<circle cx="54.8917" cy="25.9006" r="0.986423" fill="#FF9A72"/>
<rect x="42.1257" y="43.9884" width="18.4677" height="18.4677" rx="1.98103" fill="white" stroke="#E3E3E3" stroke-width="0.556079"/>
<path d="M49.5831 60.4344L48.2462 47.1735L46.4354 47.4317L47.7113 60.5387L49.5831 60.4344Z" fill="url(#paint13_linear_27319_77354)"/>
<path d="M47.0681 45.7717L48.2624 47.2217L47.3518 47.903L46.4095 47.5311L47.0681 45.7717Z" fill="#FFD1CE"/>
<path d="M47.0786 45.765L47.5324 46.3159L47.1864 46.5748L46.8284 46.4335L47.0786 45.765Z" fill="#D04436"/>
<path d="M47.6979 61.0101L47.6663 60.346C47.661 60.2348 47.7447 60.1393 47.8557 60.1301L49.4719 59.9936C49.5842 59.9843 49.6833 60.0665 49.6948 60.1786L49.7568 60.7831C49.7683 60.8952 49.6879 60.9959 49.576 61.0095L47.9294 61.2056C47.8101 61.2201 47.7036 61.1302 47.6979 61.0101Z" fill="#DC3F30"/>
<path d="M51.4884 60.4344L50.1515 47.1735L48.3407 47.4317L49.6166 60.5387L51.4884 60.4344Z" fill="url(#paint14_linear_27319_77354)"/>
<path d="M48.9733 45.7717L50.1677 47.2217L49.257 47.903L48.3148 47.5311L48.9733 45.7717Z" fill="#FFD1CE"/>
<path d="M48.9839 45.765L49.4377 46.3159L49.0917 46.5748L48.7336 46.4335L48.9839 45.765Z" fill="#6BBE76"/>
<path d="M49.6032 61.0101L49.5715 60.346C49.5662 60.2348 49.65 60.1393 49.7609 60.1301L51.3772 59.9936C51.4895 59.9843 51.5886 60.0665 51.6001 60.1786L51.6621 60.7831C51.6736 60.8952 51.5932 60.9959 51.4813 61.0095L49.8347 61.2056C49.7154 61.2201 49.6089 61.1302 49.6032 61.0101Z" fill="#42AB50"/>
<path d="M53.3946 60.4344L52.0577 47.1735L50.247 47.4317L51.5229 60.5387L53.3946 60.4344Z" fill="url(#paint15_linear_27319_77354)"/>
<path d="M50.8806 45.7718L52.0749 47.2218L51.1643 47.9031L50.222 47.5312L50.8806 45.7718Z" fill="#FFD1CE"/>
<path d="M50.8901 45.765L51.3439 46.3159L50.9979 46.5748L50.6399 46.4335L50.8901 45.765Z" fill="#D57709"/>
<path d="M51.5104 61.0101L51.4788 60.346C51.4735 60.2348 51.5572 60.1393 51.6682 60.1301L53.2844 59.9936C53.3967 59.9843 53.4958 60.0665 53.5073 60.1786L53.5693 60.7831C53.5808 60.8952 53.5004 60.9959 53.3885 61.0095L51.7419 61.2056C51.6226 61.2201 51.5161 61.1302 51.5104 61.0101Z" fill="#C86C00"/>
<path d="M55.3028 60.4344L53.9659 47.1735L52.1552 47.4317L53.4311 60.5387L55.3028 60.4344Z" fill="url(#paint16_linear_27319_77354)"/>
<path d="M52.7878 45.7718L53.9821 47.2218L53.0715 47.9031L52.1292 47.5312L52.7878 45.7718Z" fill="#FFD1CE"/>
<path d="M52.7983 45.765L53.2522 46.3159L52.9061 46.5748L52.5481 46.4335L52.7983 45.765Z" fill="#7D5ED2"/>
<path d="M53.4186 61.0101L53.387 60.346C53.3817 60.2348 53.4654 60.1393 53.5764 60.1301L55.1926 59.9936C55.3049 59.9843 55.404 60.0665 55.4155 60.1786L55.4775 60.7831C55.489 60.8952 55.4086 60.9959 55.2967 61.0095L53.6501 61.2056C53.5308 61.2201 53.4243 61.1302 53.4186 61.0101Z" fill="#6243B7"/>
<path d="M57.2091 60.4344L55.8722 47.1735L54.0614 47.4317L55.3373 60.5387L57.2091 60.4344Z" fill="url(#paint17_linear_27319_77354)"/>
<path d="M54.694 45.7717L55.8884 47.2217L54.9777 47.903L54.0355 47.5311L54.694 45.7717Z" fill="#FFD1CE"/>
<path d="M54.7046 45.765L55.1584 46.3159L54.8124 46.5748L54.4543 46.4335L54.7046 45.765Z" fill="#4282BC"/>
<path d="M55.3239 61.0101L55.2922 60.346C55.2869 60.2348 55.3707 60.1393 55.4816 60.1301L57.0979 59.9936C57.2102 59.9843 57.3093 60.0665 57.3208 60.1786L57.3828 60.7831C57.3943 60.8952 57.3139 60.9959 57.202 61.0095L55.5554 61.2056C55.4361 61.2201 55.3296 61.1302 55.3239 61.0101Z" fill="#215F98"/>
<defs>
<filter id="filter0_f_27319_77354" x="21.9349" y="25.0964" width="14.975" height="6.32389" filterUnits="userSpaceOnUse" color-interpolation-filters="sRGB">
<feFlood flood-opacity="0" result="BackgroundImageFix"/>
<feBlend mode="normal" in="SourceGraphic" in2="BackgroundImageFix" result="shape"/>
<feGaussianBlur stdDeviation="0.0755408" result="effect1_foregroundBlur_27319_77354"/>
</filter>
<filter id="filter1_f_27319_77354" x="21.4651" y="22.1609" width="15.558" height="6.61234" filterUnits="userSpaceOnUse" color-interpolation-filters="sRGB">
<feFlood flood-opacity="0" result="BackgroundImageFix"/>
<feBlend mode="normal" in="SourceGraphic" in2="BackgroundImageFix" result="shape"/>
<feGaussianBlur stdDeviation="0.0755408" result="effect1_foregroundBlur_27319_77354"/>
</filter>
<filter id="filter2_f_27319_77354" x="20.93" y="20.0315" width="12.3539" height="6.32865" filterUnits="userSpaceOnUse" color-interpolation-filters="sRGB">
<feFlood flood-opacity="0" result="BackgroundImageFix"/>
<feBlend mode="normal" in="SourceGraphic" in2="BackgroundImageFix" result="shape"/>
<feGaussianBlur stdDeviation="0.0755408" result="effect1_foregroundBlur_27319_77354"/>
</filter>
<linearGradient id="paint0_linear_27319_77354" x1="54.321" y1="0.145237" x2="-3.79009" y2="99.1598" gradientUnits="userSpaceOnUse">
<stop stop-color="#A383FB"/>
<stop offset="0.324484" stop-color="#9774F5"/>
<stop offset="1" stop-color="#7E56E9"/>
</linearGradient>
<linearGradient id="paint1_linear_27319_77354" x1="39.9332" y1="6.3501" x2="50.6528" y2="71.7956" gradientUnits="userSpaceOnUse">
<stop stop-color="white"/>
<stop offset="1" stop-color="#C4DBFF"/>
</linearGradient>
<linearGradient id="paint2_linear_27319_77354" x1="29.6793" y1="24.7727" x2="30.9527" y2="28.8735" gradientUnits="userSpaceOnUse">
<stop stop-color="#6EC27A"/>
<stop offset="1" stop-color="#7CD188"/>
</linearGradient>
<linearGradient id="paint3_linear_27319_77354" x1="29.1397" y1="27.0173" x2="29.4225" y2="31.226" gradientUnits="userSpaceOnUse">
<stop stop-color="#7CD188"/>
<stop offset="1" stop-color="#5CAD67"/>
</linearGradient>
<linearGradient id="paint4_linear_27319_77354" x1="28.5376" y1="21.4056" x2="29.2067" y2="25.679" gradientUnits="userSpaceOnUse">
<stop stop-color="#5796D0"/>
<stop offset="1" stop-color="#6DB5F7"/>
</linearGradient>
<linearGradient id="paint5_linear_27319_77354" x1="24.2426" y1="23.866" x2="28.5592" y2="29.305" gradientUnits="userSpaceOnUse">
<stop stop-color="#86C5FF"/>
<stop offset="1" stop-color="#4382BC"/>
</linearGradient>
<linearGradient id="paint6_linear_27319_77354" x1="24.0895" y1="24.0506" x2="26.5068" y2="25.9068" gradientUnits="userSpaceOnUse">
<stop stop-color="#A584FF"/>
<stop offset="1" stop-color="#7F58EA"/>
</linearGradient>
<linearGradient id="paint7_linear_27319_77354" x1="26.7874" y1="22.065" x2="27.1069" y2="26.1226" gradientUnits="userSpaceOnUse">
<stop stop-color="#AB8CFF"/>
<stop offset="1" stop-color="#7557CA"/>
</linearGradient>
<linearGradient id="paint8_linear_27319_77354" x1="27.0896" y1="19.7987" x2="28.2335" y2="23.1225" gradientUnits="userSpaceOnUse">
<stop stop-color="#A686FF"/>
<stop offset="1" stop-color="#8B69ED"/>
</linearGradient>
<linearGradient id="paint9_linear_27319_77354" x1="31.592" y1="50.0109" x2="25.2313" y2="58.2858" gradientUnits="userSpaceOnUse">
<stop stop-color="#C0A9FF"/>
<stop offset="0.811209" stop-color="#8372B4"/>
</linearGradient>
<linearGradient id="paint10_linear_27319_77354" x1="29.089" y1="49.4396" x2="29.089" y2="59.6518" gradientUnits="userSpaceOnUse">
<stop stop-color="#B59FF0"/>
<stop offset="1" stop-color="#6C618A"/>
</linearGradient>
<linearGradient id="paint11_linear_27319_77354" x1="29.089" y1="49.4396" x2="29.089" y2="59.6518" gradientUnits="userSpaceOnUse">
<stop stop-color="#A788FC"/>
<stop offset="1" stop-color="#7D7691"/>
</linearGradient>
<linearGradient id="paint12_linear_27319_77354" x1="50.1075" y1="26.6159" x2="43.9424" y2="26.5419" gradientUnits="userSpaceOnUse">
<stop stop-color="#FF9059"/>
<stop offset="1" stop-color="#FF8549"/>
</linearGradient>
<linearGradient id="paint13_linear_27319_77354" x1="49.9849" y1="54.0969" x2="46.3656" y2="52.6492" gradientUnits="userSpaceOnUse">
<stop stop-color="#FE7163"/>
<stop offset="1" stop-color="#D04436"/>
</linearGradient>
<linearGradient id="paint14_linear_27319_77354" x1="51.8901" y1="54.0969" x2="48.2708" y2="52.6492" gradientUnits="userSpaceOnUse">
<stop stop-color="#B0FEBB"/>
<stop offset="1" stop-color="#65B871"/>
</linearGradient>
<linearGradient id="paint15_linear_27319_77354" x1="53.7964" y1="54.0969" x2="50.1771" y2="52.6492" gradientUnits="userSpaceOnUse">
<stop stop-color="#F0AA58"/>
<stop offset="1" stop-color="#D47709"/>
</linearGradient>
<linearGradient id="paint16_linear_27319_77354" x1="55.7046" y1="54.0969" x2="52.0853" y2="52.6492" gradientUnits="userSpaceOnUse">
<stop stop-color="#B094FF"/>
<stop offset="1" stop-color="#7D5ED2"/>
</linearGradient>
<linearGradient id="paint17_linear_27319_77354" x1="57.6108" y1="54.0969" x2="53.9915" y2="52.6492" gradientUnits="userSpaceOnUse">
<stop stop-color="#5EADF5"/>
<stop offset="1" stop-color="#4282BC"/>
</linearGradient>
</defs>
</svg>
