<svg width="80" height="81" viewBox="0 0 80 81" fill="none" xmlns="http://www.w3.org/2000/svg">
<rect width="80" height="80" transform="translate(0 0.116211)" fill="white"/>
<rect x="11.4287" y="5.83044" width="49.587" height="67.8027" rx="1.93993" fill="url(#paint0_linear_27319_77339)"/>
<path d="M14.9688 9.37122H55.026C56.0974 9.37122 56.9659 10.2398 56.9659 11.3111V66.1261C56.9659 67.1975 56.0974 68.0661 55.026 68.0661H14.9688V9.37122Z" fill="url(#paint1_linear_27319_77339)"/>
<path d="M30.3736 18.1342L30.3993 18.0897C30.4151 18.069 30.4329 18.0512 30.4527 18.0364L30.4823 18.0176C30.5041 18.0057 30.5278 17.9978 30.5535 17.9929L30.6029 17.9869H53.1194C53.2598 17.9869 53.3724 18.1006 53.3724 18.2399V20.2639C53.3724 20.2995 53.3645 20.3331 53.3507 20.3637C53.3408 20.3894 53.325 20.4131 53.3052 20.4339C53.2598 20.4853 53.1946 20.5169 53.1194 20.5169H30.6029C30.5199 20.5169 30.4467 20.4774 30.3993 20.4171C30.3835 20.3953 30.3696 20.3716 30.3617 20.3459C30.3538 20.3202 30.3499 20.2926 30.3499 20.2639V18.2399C30.3499 18.2162 30.3538 18.1925 30.3598 18.1708L30.3736 18.1342Z" fill="url(#paint2_linear_27319_77339)"/>
<path d="M30.3499 22.7938C30.3499 22.7375 30.3677 22.6851 30.3993 22.6426C30.4448 22.5804 30.5199 22.5408 30.6029 22.5408H53.1194C53.153 22.5408 53.1847 22.5468 53.2123 22.5576C53.3052 22.5952 53.3724 22.6871 53.3724 22.7938V24.8178C53.3724 24.8465 53.3685 24.8741 53.3586 24.9008L53.329 24.9581L53.2914 25.0046L53.2479 25.0372L53.1926 25.0609C53.1689 25.0678 53.1451 25.0708 53.1194 25.0708H30.6029C30.5139 25.0708 30.4369 25.0253 30.3914 24.9562C30.3776 24.9364 30.3677 24.9147 30.3598 24.8909L30.3538 24.8593L30.3499 24.8178V22.7938Z" fill="url(#paint3_linear_27319_77339)"/>
<path d="M30.1753 27.2736C30.1674 27.2974 30.1635 27.3221 30.1635 27.3478V29.3717C30.1635 29.431 30.1832 29.4854 30.2168 29.5289C30.2643 29.5872 30.3354 29.6247 30.4165 29.6247H53.1194C53.2598 29.6247 53.3724 29.5111 53.3724 29.3717V27.3478C53.3724 27.245 53.3112 27.156 53.2222 27.1165C53.1906 27.1027 53.155 27.0948 53.1194 27.0948H30.4165C30.3354 27.0948 30.2623 27.1333 30.2168 27.1926C30.1971 27.2173 30.1832 27.244 30.1753 27.2736Z" fill="url(#paint4_linear_27319_77339)"/>
<path d="M17.9531 31.9017C17.9531 31.7623 18.0658 31.6487 18.2061 31.6487H53.1194C53.159 31.6487 53.1965 31.6576 53.2282 31.6734C53.3131 31.7139 53.3724 31.8009 53.3724 31.9017V33.9256C53.3724 34.065 53.2598 34.1786 53.1194 34.1786H18.2061C18.1152 34.1786 18.0361 34.1302 17.9907 34.0581C17.9749 34.0324 17.963 34.0047 17.9571 33.9741L17.9531 33.9256V31.9017Z" fill="url(#paint5_linear_27319_77339)"/>
<path d="M18.0144 36.2905C17.9768 36.335 17.9531 36.3923 17.9531 36.4556V38.4795C17.9531 38.6189 18.0658 38.7325 18.2061 38.7325H53.1194C53.2598 38.7325 53.3724 38.6189 53.3724 38.4795V36.4556C53.3724 36.3568 53.3151 36.2708 53.2321 36.2293C53.1985 36.2125 53.161 36.2026 53.1194 36.2026H18.2061C18.129 36.2026 18.0599 36.2372 18.0144 36.2905Z" fill="url(#paint6_linear_27319_77339)"/>
<path d="M17.9531 41.0095C17.9531 40.8701 18.0658 40.7565 18.2061 40.7565H53.1194C53.2598 40.7565 53.3724 40.8701 53.3724 41.0095V43.0334C53.3724 43.1728 53.2598 43.2864 53.1194 43.2864H18.2061C18.1686 43.2864 18.135 43.2785 18.1033 43.2647C18.044 43.238 17.9966 43.1896 17.9709 43.1303C17.9591 43.1007 17.9531 43.068 17.9531 43.0334V41.0095Z" fill="url(#paint7_linear_27319_77339)"/>
<path d="M17.9946 54.5309C18.0085 54.5101 18.0263 54.4914 18.046 54.4755C18.0895 54.44 18.1448 54.4182 18.2061 54.4182H53.1194C53.1629 54.4182 53.2044 54.4291 53.24 54.4489C53.2934 54.4775 53.3349 54.525 53.3566 54.5813C53.3665 54.609 53.3724 54.6396 53.3724 54.6712V56.6952C53.3724 56.7723 53.3388 56.8405 53.2835 56.8869C53.24 56.9254 53.1827 56.9482 53.1194 56.9482H18.2061C18.0658 56.9482 17.9531 56.8345 17.9531 56.6952V54.6712C17.9531 54.6188 17.9689 54.5704 17.9946 54.5309Z" fill="url(#paint8_linear_27319_77339)"/>
<path d="M18.2061 58.9721C18.0658 58.9721 17.9531 59.0858 17.9531 59.2251V61.2491C17.9531 61.3884 18.0658 61.5021 18.2061 61.5021H53.1194C53.2301 61.5021 53.323 61.4319 53.3566 61.3341C53.3665 61.3074 53.3724 61.2787 53.3724 61.2491V59.2251C53.3724 59.0858 53.2598 58.9721 53.1194 58.9721H18.2061Z" fill="url(#paint9_linear_27319_77339)"/>
<path d="M17.9531 18.5364C17.9531 18.2602 18.177 18.0364 18.4531 18.0364H27.8925C28.1686 18.0364 28.3925 18.2602 28.3925 18.5364V29.2806C28.3925 29.5568 28.1686 29.7806 27.8925 29.7806H18.4531C18.177 29.7806 17.9531 29.5568 17.9531 29.2806V18.5364Z" fill="url(#paint10_linear_27319_77339)"/>
<path d="M19.2578 23.8591L21.8677 26.469L27.0873 21.9017" stroke="white" stroke-linecap="round" stroke-linejoin="round"/>
<path fill-rule="evenodd" clip-rule="evenodd" d="M37.7128 46.9189C37.3157 46.8125 36.9075 47.0482 36.8012 47.4454C36.7404 47.6724 36.7911 47.9028 36.9206 48.0791C37.0173 48.2108 37.1574 48.3114 37.3277 48.357C37.7248 48.4634 38.133 48.2277 38.2393 47.8305C38.3457 47.4334 38.11 47.0252 37.7128 46.9189ZM36.3218 47.317C36.499 46.6551 37.1793 46.2622 37.8412 46.4395C38.5031 46.6168 38.896 47.297 38.7187 47.9589C38.5414 48.6208 37.8612 49.0137 37.1993 48.8364C36.9953 48.7818 36.8166 48.6792 36.6724 48.5441L33.4661 50.4655C33.5416 50.6892 33.5541 50.9369 33.4885 51.1821C33.3112 51.844 32.6309 52.2369 31.969 52.0596C31.3071 51.8824 30.9143 51.2021 31.0915 50.5402C31.1269 50.4082 31.1824 50.2867 31.2539 50.1782L29.5256 48.4706C29.2397 48.905 28.698 49.1285 28.1681 48.9866C27.8376 48.8981 27.5744 48.6842 27.4156 48.4102L24.5806 50.1921C24.6402 50.4008 24.6459 50.6281 24.5857 50.8529C24.4084 51.5148 23.7281 51.9077 23.0662 51.7304C22.4043 51.5532 22.0115 50.8729 22.1887 50.211C22.366 49.5491 23.0463 49.1562 23.7082 49.3335C23.9711 49.4039 24.1917 49.5539 24.3508 49.7503L27.2556 47.9246C27.2391 47.7753 27.2495 47.6206 27.2906 47.4672C27.4679 46.8053 28.1481 46.4124 28.81 46.5897C29.4231 46.7539 29.8054 47.3496 29.7176 47.9626L31.6046 49.827C31.8904 49.6377 32.2532 49.5669 32.611 49.6627C32.8543 49.7279 33.0613 49.861 33.2169 50.0362L36.3847 48.1379C36.2748 47.8885 36.2457 47.601 36.3218 47.317ZM28.6816 47.0691C28.2845 46.9627 27.8763 47.1984 27.77 47.5956C27.7348 47.7269 27.737 47.8588 27.7698 47.9807C27.8368 48.2296 28.0306 48.436 28.2965 48.5072C28.6936 48.6136 29.1018 48.3779 29.2081 47.9807C29.3145 47.5836 29.0788 47.1754 28.6816 47.0691ZM32.4826 50.1421C32.2167 50.0709 31.9456 50.1528 31.7632 50.3349C31.6739 50.4241 31.6061 50.5372 31.5709 50.6686C31.4646 51.0657 31.7003 51.4739 32.0974 51.5802C32.4946 51.6866 32.9027 51.4509 33.0091 51.0537C33.1154 50.6566 32.8797 50.2484 32.4826 50.1421ZM23.5798 49.8129C23.1826 49.7065 22.7745 49.9422 22.6681 50.3394C22.5618 50.7365 22.7975 51.1447 23.1946 51.251C23.5918 51.3574 23.9999 51.1217 24.1063 50.7245C24.1552 50.542 24.132 50.3577 24.0539 50.2008C23.9619 50.0158 23.7945 49.8704 23.5798 49.8129Z" fill="#B29BF3"/>
<rect x="18.1541" y="44.2854" width="27.0034" height="8.73446" rx="0.3" stroke="#937DD1" stroke-width="0.4"/>
<path d="M68.7488 36.2975C71.9913 42.9884 69.646 50.9396 63.5479 54.865C63.0566 55.1812 62.541 55.4713 62.002 55.7326C61.4884 55.9814 60.9674 56.1974 60.4414 56.3813C53.5621 58.7859 45.8219 55.7021 42.567 48.9858C39.0632 41.7559 42.0839 33.0545 49.3138 29.5508C56.5437 26.047 65.245 29.0676 68.7488 36.2975ZM44.3474 48.1229C45.5057 50.5129 47.3213 52.3706 49.4716 53.5838C50.3195 54.0622 51.2195 54.4404 52.1517 54.7115C55.0342 55.5498 58.225 55.3644 61.1392 53.9521C66.5838 51.3135 69.2655 45.2633 67.8598 39.617C67.6528 38.7853 67.357 37.9623 66.9684 37.1604C66.2504 35.6788 65.2798 34.4018 64.1334 33.3561C63.8588 33.1056 63.574 32.8683 63.2802 32.6447C59.6304 29.8664 54.5867 29.194 50.1766 31.3312C45.0931 33.7948 42.4181 39.2325 43.2298 44.5387C43.3533 45.3459 43.5575 46.1501 43.8462 46.9403C43.9916 47.3386 44.1586 47.7332 44.3474 48.1229Z" fill="#36348A"/>
<path d="M61.3139 59.5588C61.1919 59.2757 61.3143 58.9468 61.5917 58.8124L64.7475 57.283C65.0249 57.1486 65.3589 57.2563 65.5055 57.5274L72.8516 70.1612C73.0077 70.4499 72.8915 70.8105 72.5961 70.9536L67.4587 73.4433C67.1633 73.5865 66.8082 73.4543 66.6783 73.1529L61.3139 59.5588Z" fill="#36348A"/>
<path d="M61.6142 58.8014L64.725 57.2939L63.5479 54.865C63.0566 55.1812 62.541 55.4713 62.002 55.7326C61.4884 55.9814 60.9674 56.1974 60.4414 56.3813L61.6142 58.8014Z" fill="#36348A"/>
<path fill-rule="evenodd" clip-rule="evenodd" d="M44.3474 48.1229C45.5057 50.5129 47.3213 52.3706 49.4716 53.5838L66.9684 37.1604C66.2504 35.6788 65.2798 34.4018 64.1334 33.3561L43.8462 46.9403C43.9916 47.3386 44.1586 47.7332 44.3474 48.1229ZM43.2298 44.5387L63.2802 32.6447C59.6304 29.8664 54.5867 29.194 50.1766 31.3312C45.0931 33.7948 42.4181 39.2325 43.2298 44.5387ZM61.1392 53.9521C58.225 55.3644 55.0342 55.5498 52.1517 54.7115L67.8598 39.617C69.2655 45.2633 66.5838 51.3135 61.1392 53.9521Z" fill="#96FFEC" fill-opacity="0.5"/>
<path d="M63.2802 32.6447L43.2298 44.5387C43.3533 45.3459 43.5575 46.1501 43.8462 46.9403L64.1334 33.3561C63.8588 33.1056 63.574 32.8683 63.2802 32.6447Z" fill="#D5FFDC"/>
<path d="M66.9684 37.1604L49.4716 53.5838C50.3195 54.0622 51.2195 54.4404 52.1517 54.7115L67.8598 39.617C67.6528 38.7853 67.357 37.9623 66.9684 37.1604Z" fill="#D5FFDC"/>
<defs>
<linearGradient id="paint0_linear_27319_77339" x1="48.872" y1="3.80648" x2="-3.24501" y2="92.6078" gradientUnits="userSpaceOnUse">
<stop stop-color="#A383FB"/>
<stop offset="0.324484" stop-color="#9774F5"/>
<stop offset="1" stop-color="#7E56E9"/>
</linearGradient>
<linearGradient id="paint1_linear_27319_77339" x1="35.9673" y1="9.37122" x2="45.5812" y2="68.0661" gradientUnits="userSpaceOnUse">
<stop stop-color="white"/>
<stop offset="1" stop-color="#C4DBFF"/>
</linearGradient>
<linearGradient id="paint2_linear_27319_77339" x1="35.6628" y1="17.9869" x2="39.911" y2="62.1508" gradientUnits="userSpaceOnUse">
<stop stop-color="#BDA6FF"/>
<stop offset="1" stop-color="#8B75C9"/>
</linearGradient>
<linearGradient id="paint3_linear_27319_77339" x1="35.6628" y1="17.9869" x2="39.911" y2="62.1508" gradientUnits="userSpaceOnUse">
<stop stop-color="#BDA6FF"/>
<stop offset="1" stop-color="#8B75C9"/>
</linearGradient>
<linearGradient id="paint4_linear_27319_77339" x1="35.6628" y1="17.9869" x2="39.911" y2="62.1508" gradientUnits="userSpaceOnUse">
<stop stop-color="#BDA6FF"/>
<stop offset="1" stop-color="#8B75C9"/>
</linearGradient>
<linearGradient id="paint5_linear_27319_77339" x1="35.6628" y1="17.9869" x2="39.911" y2="62.1508" gradientUnits="userSpaceOnUse">
<stop stop-color="#BDA6FF"/>
<stop offset="1" stop-color="#8B75C9"/>
</linearGradient>
<linearGradient id="paint6_linear_27319_77339" x1="35.6628" y1="17.9869" x2="39.911" y2="62.1508" gradientUnits="userSpaceOnUse">
<stop stop-color="#BDA6FF"/>
<stop offset="1" stop-color="#8B75C9"/>
</linearGradient>
<linearGradient id="paint7_linear_27319_77339" x1="35.6628" y1="17.9869" x2="39.911" y2="62.1508" gradientUnits="userSpaceOnUse">
<stop stop-color="#BDA6FF"/>
<stop offset="1" stop-color="#8B75C9"/>
</linearGradient>
<linearGradient id="paint8_linear_27319_77339" x1="35.6628" y1="17.9869" x2="39.911" y2="62.1508" gradientUnits="userSpaceOnUse">
<stop stop-color="#BDA6FF"/>
<stop offset="1" stop-color="#8B75C9"/>
</linearGradient>
<linearGradient id="paint9_linear_27319_77339" x1="35.6628" y1="17.9869" x2="39.911" y2="62.1508" gradientUnits="userSpaceOnUse">
<stop stop-color="#BDA6FF"/>
<stop offset="1" stop-color="#8B75C9"/>
</linearGradient>
<linearGradient id="paint10_linear_27319_77339" x1="35.6628" y1="17.9869" x2="39.911" y2="62.1508" gradientUnits="userSpaceOnUse">
<stop stop-color="#BDA6FF"/>
<stop offset="1" stop-color="#8B75C9"/>
</linearGradient>
</defs>
</svg>
