<svg width="49" height="49" viewBox="0 0 49 49" fill="none" xmlns="http://www.w3.org/2000/svg">
<path d="M1.80711 0.435619C1.54156 0.533283 1.16781 0.796974 0.872744 1.08997C-0.0419541 1.99824 0.0367296 0.152393 0.0367296 20.4372C0.0367296 40.7318 -0.0321186 38.9836 0.853073 39.8626C1.7481 40.7513 0.843237 40.683 13.8457 40.7709L25.2549 40.849L25.8745 43.232C26.2089 44.5407 26.5925 45.8103 26.7105 46.0545C27.0252 46.6698 27.6547 47.3339 28.2743 47.705C29.2776 48.3008 29.4939 48.3203 34.5592 48.3203C39.4376 48.3203 39.7425 48.291 40.6769 47.8222C41.208 47.5488 41.9948 46.8163 42.2997 46.2889C42.821 45.4099 42.9193 44.8532 42.9193 42.7535V40.8197L44.2766 40.7611C46.047 40.6732 46.5585 40.517 47.2174 39.8626C48.1026 38.9836 48.0338 40.722 48.0338 20.4861C48.0338 0.250057 48.1026 1.98848 47.2174 1.09973C46.2929 0.18169 48.6436 0.269588 23.9959 0.279354C4.45285 0.279354 2.20053 0.298889 1.80711 0.435619ZM46.1257 1.69548C46.2732 1.80291 46.4896 2.01778 46.5978 2.16427C46.7945 2.4182 46.8044 2.57446 46.8339 5.65088L46.8634 8.86403H24.0353H1.21699V5.79737C1.21699 2.61353 1.24649 2.36937 1.63991 1.93964C2.12185 1.42202 0.79406 1.45132 24.1533 1.47086L45.8601 1.49039L46.1257 1.69548ZM46.8535 24.1387C46.8535 33.8758 46.824 38.3293 46.7453 38.5246C46.5978 38.9055 46.1847 39.3157 45.8306 39.4231C45.6634 39.4719 44.9356 39.5501 44.2275 39.5794L42.9193 39.6477V38.3488C42.9193 36.8155 42.8013 36.4541 42.1325 35.8974C41.5719 35.4189 40.9719 35.2822 40.2244 35.4775L39.6835 35.624L39.2114 35.1552C38.6212 34.5692 38.0114 34.3641 37.323 34.5204C37.0771 34.5692 36.8017 34.6473 36.723 34.6864C36.6246 34.7255 36.5263 34.6473 36.4083 34.4618C36.3197 34.3055 36.064 34.0516 35.828 33.8953C35.4837 33.6707 35.3067 33.6219 34.8149 33.6219C34.4805 33.6219 34.1166 33.6609 33.9887 33.7L33.7724 33.7781V29.559C33.7724 25.4767 33.7625 25.3204 33.5658 24.9102C33.1331 24.0117 32.0315 23.4843 31.0578 23.6992C30.3496 23.8555 29.8185 24.2657 29.5038 24.8907L29.2481 25.4083V31.483V37.5577L28.6481 36.9424C27.7727 36.0342 26.7892 35.5654 25.363 35.3896C24.8123 35.3212 24.3303 35.5166 24.0648 35.9072C23.7795 36.3174 23.7795 36.6495 24.0451 37.255C24.2713 37.7824 24.9204 39.511 24.9204 39.5989C24.9204 39.7063 2.4956 39.5305 2.21037 39.4231C1.85629 39.2864 1.51205 38.9543 1.35468 38.5832C1.23666 38.3195 1.21699 35.8877 1.21699 24.1485V10.036H24.0353H46.8535V24.1387ZM31.943 24.92C32.6216 25.2032 32.5921 24.9981 32.5921 30.2622C32.5921 36.376 32.6708 39.1106 32.8577 39.2962C33.074 39.511 33.5363 39.4622 33.7134 39.218C33.8412 39.0422 33.8707 38.6613 33.8707 37.1085C33.8707 35.2333 33.8707 35.2236 34.1166 34.9892C34.3723 34.7255 34.8248 34.6669 35.1592 34.8524C35.5526 35.0575 35.6214 35.4384 35.5624 37.2452C35.5231 38.7297 35.5329 38.9641 35.6804 39.1887C35.8181 39.4036 35.9165 39.4426 36.2116 39.4133C36.7427 39.3743 36.8214 39.1497 36.8214 37.5089V36.1318L37.1263 35.8779C37.5295 35.5361 37.9131 35.5459 38.3163 35.9072L38.6409 36.1904L38.6901 38.0265C38.7393 39.8528 38.7393 39.8724 38.9753 39.9798C39.2704 40.1263 39.5851 40.0189 39.7425 39.7161C39.8212 39.5696 39.8703 39.0422 39.8703 38.3097C39.8703 36.9913 39.949 36.7862 40.4998 36.6006C40.9031 36.4737 41.2375 36.5811 41.5325 36.9522C41.7489 37.2257 41.7489 37.2452 41.7194 41.0834L41.6899 44.9509L41.4244 45.4392C41.0899 46.074 40.431 46.6796 39.8113 46.9139C39.3589 47.0897 39.0147 47.0995 34.51 47.0995C29.7988 47.0995 29.6808 47.0995 29.2382 46.8944C28.6284 46.6112 28.0285 46.0545 27.7727 45.5467C27.6645 45.3123 27.2219 43.7594 26.7892 42.0893C26.0909 39.384 25.5499 37.6359 25.1565 36.8838C25.0877 36.7374 25.0483 36.6006 25.0778 36.5811C25.1762 36.4834 26.1302 36.6983 26.6712 36.9424C27.3891 37.2647 27.9399 37.8019 28.6678 38.8664L29.2481 39.7161V40.8978C29.2481 41.9428 29.2677 42.0893 29.4448 42.2651C29.6906 42.5093 29.848 42.5093 30.1726 42.2554L30.4283 42.06V33.8563C30.4283 25.0079 30.4185 25.2618 30.9398 25.0079C31.4512 24.754 31.5299 24.754 31.943 24.92Z" fill="white"/>
<path d="M4.56124 2.89563C4.03996 3.00306 3.6367 3.24722 3.25312 3.69648C2.66299 4.38012 2.5548 5.29817 2.98756 6.12831C3.8039 7.7007 6.12507 7.71047 6.94142 6.13808C7.81677 4.47779 6.39063 2.53427 4.56124 2.89563ZM5.62347 4.17503C5.72182 4.17503 6.03656 4.85868 6.03656 5.08331C6.03656 6.02088 4.95465 6.4799 4.2465 5.84509C3.42032 5.11261 4.21699 3.79414 5.2989 4.0969C5.45626 4.13596 5.60379 4.17503 5.62347 4.17503Z" fill="white"/>
<path d="M10.4622 2.92641C8.80002 3.22917 8.12137 5.38754 9.30163 6.63764C10.1081 7.48732 11.613 7.53615 12.4588 6.73531C13.3342 5.90516 13.4227 4.5867 12.6555 3.69796C12.0752 3.02407 11.3376 2.76038 10.4622 2.92641ZM11.6916 4.3816C11.9375 4.616 11.9867 4.74296 11.9867 5.11408C11.9867 5.49497 11.9375 5.6024 11.6621 5.84657C10.954 6.48138 9.87209 6.02236 9.87209 5.08479C9.87209 4.66483 10.2065 4.19604 10.5802 4.09838C11.0327 3.97141 11.3474 4.04955 11.6916 4.3816Z" fill="white"/>
<path d="M16.4916 2.91729C14.2983 3.32748 13.9934 6.316 16.0687 7.18521C16.6097 7.40984 17.6227 7.31217 18.1243 6.98011C18.7538 6.56016 19.0587 6.03277 19.098 5.24169C19.1275 4.70454 19.098 4.48968 18.921 4.13809C18.4784 3.22005 17.4948 2.73173 16.4916 2.91729ZM17.7211 4.42131C18.0555 4.81197 18.026 5.47609 17.6522 5.84721C17.4162 6.07184 17.2785 6.13044 16.9244 6.13044C16.1769 6.13044 15.6851 5.52492 15.8818 4.82174C16.1179 4.00136 17.1506 3.77673 17.7211 4.42131Z" fill="white"/>
<path d="M25.5105 4.43936C25.1171 4.57609 24.9893 5.11325 25.2942 5.37694C25.4614 5.5332 26.2974 5.54297 35.3263 5.54297H45.1815L45.3388 5.29881C45.5454 4.98628 45.4569 4.63469 45.1323 4.4882C44.9454 4.4003 42.4177 4.371 35.2673 4.38077C29.9857 4.38077 25.5892 4.41007 25.5105 4.43936Z" fill="white"/>
<path d="M11.5835 16.062C10.7869 17.0191 10.1181 17.82 10.1082 17.8395C10.0886 17.8591 9.83284 17.6637 9.52794 17.4196C9.22304 17.1754 8.9083 16.9703 8.83946 16.9703C8.76077 16.9703 8.58373 17.068 8.4362 17.1949C8.03295 17.5368 8.16081 17.82 9.046 18.5232C9.77382 19.1092 10.0787 19.2166 10.5016 19.0603C10.777 18.9529 13.9047 15.1538 13.9047 14.9194C13.9047 14.5287 13.7277 14.3334 13.3736 14.3334C13.0589 14.3334 12.9408 14.4506 11.5835 16.062Z" fill="white"/>
<path d="M6.32133 14.8705C5.85906 15.1244 5.82955 15.3393 5.85906 18.572L5.88857 21.58L6.16396 21.8144L6.43935 22.0488H9.5867H12.734L12.9701 21.8047C13.2062 21.58 13.216 21.5214 13.216 20.3104C13.216 19.2166 13.1963 19.031 13.0389 18.8943C12.7931 18.6697 12.4685 18.6892 12.2324 18.9236C12.0652 19.0896 12.0357 19.2459 12.0357 19.9979V20.8769H9.52769H7.01964L7.03931 18.406L7.06882 15.9448L8.44579 15.9155C9.70473 15.896 9.83259 15.8765 9.99979 15.6909C10.226 15.4077 10.2162 15.2514 9.92111 14.9682C9.68505 14.7338 9.65555 14.724 8.13105 14.724C6.9803 14.7338 6.5082 14.7631 6.32133 14.8705Z" fill="white"/>
<path d="M19.2156 15.1835C18.7337 15.3593 18.5763 15.8379 18.9009 16.1211C19.0681 16.2773 20.0418 16.2871 30.8509 16.2871C41.4142 16.2871 42.624 16.2676 42.7617 16.1308C42.9289 15.9746 42.9682 15.6328 42.8404 15.4374C42.801 15.3788 42.6437 15.2714 42.4961 15.2226C42.2011 15.1151 19.5107 15.0761 19.2156 15.1835Z" fill="white"/>
<path d="M18.9206 20.1933C18.6747 20.4374 18.6649 20.7988 18.9009 21.0039C19.0681 21.1602 20.0418 21.1699 30.8412 21.1699C42.1028 21.1699 42.6044 21.1602 42.7519 20.9941C42.9781 20.75 42.9585 20.4277 42.7224 20.1933C42.5257 19.998 42.3978 19.998 30.8215 19.998C19.2452 19.998 19.1173 19.998 18.9206 20.1933Z" fill="white"/>
<path d="M11.6821 28.3679C10.9346 29.2664 10.2657 30.0673 10.2067 30.1454C10.1084 30.2724 10.0297 30.2431 9.66578 29.9501C8.92812 29.3543 8.64289 29.3055 8.30849 29.7059C8.07244 29.9891 8.26914 30.331 9.04615 30.9365C9.9215 31.6299 10.2756 31.6983 10.7477 31.249C10.9149 31.1025 11.6821 30.2138 12.4689 29.2762C13.954 27.5085 14.1016 27.235 13.7475 26.8932C13.6688 26.8053 13.4721 26.7369 13.3246 26.7369C13.0885 26.7369 12.8525 26.9713 11.6821 28.3679Z" fill="white"/>
<path d="M6.56769 27.1947C6.44966 27.2143 6.25295 27.3412 6.12509 27.478L5.88904 27.7319V30.8376V33.9433L6.12509 34.1972L6.36114 34.4512H9.54783H12.7345L12.9706 34.207C13.2066 33.9824 13.2165 33.9238 13.2165 32.703C13.2165 31.5017 13.2066 31.4236 13.0001 31.2869C12.6952 31.072 12.469 31.0915 12.2329 31.3455C12.0657 31.5213 12.0362 31.6873 12.0362 32.4198V33.2792H9.52816H7.02012L7.03979 30.8083L7.06929 28.3472L8.46593 28.3179C9.8429 28.2983 9.8724 28.2886 10.0298 28.0444C10.2363 27.7417 10.0986 27.3608 9.71503 27.224C9.47898 27.1264 7.00045 27.1068 6.56769 27.1947Z" fill="white"/>
<path d="M18.891 27.7912C18.6845 28.0158 18.6747 28.299 18.8615 28.553C18.9992 28.7288 19.1763 28.7385 22.8252 28.7678C24.9202 28.7776 26.7397 28.7678 26.8578 28.7385C27.3594 28.6213 27.5463 28.0842 27.202 27.7814C27.0348 27.6349 26.6021 27.6154 23.0318 27.6154C19.2943 27.6154 19.0386 27.6252 18.891 27.7912Z" fill="white"/>
<path d="M37.0573 27.8593C36.8705 28.1426 36.9492 28.4453 37.2639 28.6504C37.4508 28.7774 37.8934 28.7871 40.067 28.7676C42.4865 28.7383 42.6537 28.7285 42.7816 28.5527C42.9685 28.289 42.9586 27.9668 42.7422 27.7812C42.5849 27.6347 42.2406 27.6152 39.89 27.6152H37.2147L37.0573 27.8593Z" fill="white"/>
<path d="M19.1175 32.4706C18.7241 32.6073 18.5962 33.1445 18.9011 33.4082C19.0486 33.5449 19.3142 33.5742 20.3567 33.5742C21.7632 33.5742 21.8714 33.5352 21.8714 33.0273C21.8714 32.4999 21.6157 32.4022 20.3469 32.412C19.7568 32.412 19.1962 32.4413 19.1175 32.4706Z" fill="white"/>
</svg>
