<svg width="163" height="182" viewBox="0 0 163 182" fill="none" xmlns="http://www.w3.org/2000/svg">
<g filter="url(#filter0_d_18007_149999)">
<rect width="196" height="37" transform="translate(30.3438) rotate(50)" fill="url(#paint0_linear_18007_149999)"/>
<path d="M64.377 57.8633C65.1101 57.2482 65.9022 56.8625 66.7534 56.7061C67.6177 56.5509 68.4488 56.6236 69.2468 56.9243C70.058 57.226 70.7621 57.7328 71.3593 58.4445C72.058 59.2772 72.4566 60.1858 72.5551 61.1705C72.6536 62.1551 72.4302 63.0884 71.8848 63.9706L70.4426 62.2518C70.6551 61.7824 70.719 61.3165 70.6341 60.854C70.5553 60.3987 70.3456 59.9682 70.0052 59.5625C69.6409 59.1284 69.2123 58.8271 68.7192 58.6586C68.2393 58.4914 67.7336 58.4669 67.2023 58.5853C66.6769 58.7108 66.1652 58.9825 65.667 59.4006C65.1759 59.8126 64.8194 60.2695 64.5974 60.771C64.3886 61.2737 64.3213 61.7789 64.3956 62.2866C64.483 62.7954 64.7088 63.2669 65.0731 63.701C65.4135 64.1067 65.8011 64.3879 66.2358 64.5447C66.6836 64.7025 67.1571 64.7176 67.6563 64.5898L69.0985 66.3086C68.1279 66.6985 67.1664 66.7594 66.2138 66.4914C65.2744 66.2246 64.4523 65.6713 63.7476 64.8315C63.1504 64.1198 62.7701 63.3413 62.6066 62.4961C62.4563 61.652 62.529 60.8208 62.8248 60.0026C63.1266 59.1915 63.644 58.4784 64.377 57.8633ZM71.3653 73.9315C70.78 73.234 70.4062 72.4562 70.2439 71.5978C70.0816 70.7395 70.1454 69.8977 70.4352 69.0724C70.7321 68.2411 71.2471 67.5178 71.9802 66.9027C72.7061 66.2936 73.5007 65.918 74.3638 65.7759C75.2341 65.6278 76.0777 65.7082 76.8948 66.0171C77.7119 66.326 78.4131 66.8292 78.9983 67.5266C79.5895 68.2312 79.9633 69.0091 80.1197 69.8603C80.282 70.7186 80.2117 71.5599 79.9087 72.3841C79.6189 73.2094 79.111 73.9266 78.3851 74.5358C77.652 75.1509 76.8504 75.5325 75.9801 75.6806C75.123 75.8298 74.2858 75.7499 73.4688 75.4411C72.6517 75.1322 71.9505 74.629 71.3653 73.9315ZM72.6997 72.8118C73.0759 73.2602 73.507 73.5715 73.993 73.7459C74.486 73.9144 75.0018 73.9364 75.5402 73.8121C76.0786 73.6877 76.597 73.4165 77.0952 72.9985C77.5934 72.5805 77.9469 72.1201 78.1557 71.6174C78.3717 71.1087 78.436 70.6 78.3486 70.0911C78.2612 69.5823 78.0294 69.1037 77.6532 68.6553C77.277 68.2069 76.8429 67.892 76.351 67.7105C75.8651 67.5361 75.3529 67.511 74.8144 67.6354C74.2831 67.7538 73.7683 68.022 73.2701 68.44C72.7719 68.8581 72.4149 69.3214 72.1989 69.8301C71.9829 70.3387 71.9151 70.8505 71.9953 71.3653C72.0887 71.8812 72.3235 72.3634 72.6997 72.8118ZM90.5561 81.5175L83.1046 87.7701L81.8505 86.2755L86.6972 82.2086L80.1753 84.2792L79.2258 83.1476L82.3884 77.0737L77.5417 81.1406L76.2876 79.646L83.7392 73.3934L85.1635 75.0908L81.6115 82.1099L89.1408 79.8307L90.5561 81.5175ZM93.7667 85.3438L86.3152 91.5964L85.0611 90.1018L92.5126 83.8492L93.7667 85.3438ZM93.6187 100.3L92.3646 98.8058L94.6386 91.1308L89.525 95.4217L88.2709 93.9271L95.7331 87.6655L96.9872 89.1601L94.7026 96.844L99.8269 92.5443L101.081 94.0388L93.6187 100.3ZM105.138 103.448C105.308 103.015 105.349 102.58 105.262 102.144C105.175 101.707 104.964 101.29 104.63 100.891C104.259 100.45 103.831 100.142 103.345 99.9678C102.859 99.7934 102.351 99.7654 101.819 99.8838C101.288 100.002 100.78 100.264 100.297 100.67C99.7983 101.089 99.4448 101.549 99.236 102.052C99.0331 102.561 98.9783 103.074 99.0717 103.59C99.165 104.106 99.4058 104.595 99.794 105.058C100.272 105.627 100.812 105.968 101.416 106.08C102.026 106.187 102.65 106.07 103.286 105.73L101.136 103.167L102.279 102.209L105.665 106.244L104.362 107.337C103.759 107.674 103.1 107.863 102.384 107.906C101.668 107.949 100.957 107.824 100.25 107.531C99.5569 107.24 98.9415 106.774 98.404 106.133C97.8009 105.415 97.4146 104.629 97.2452 103.777C97.0888 102.925 97.1585 102.091 97.4543 101.273C97.7561 100.461 98.2735 99.7483 99.0066 99.1332C99.7396 98.5181 100.532 98.1324 101.383 97.976C102.247 97.8208 103.081 97.8971 103.885 98.2049C104.702 98.5137 105.41 99.024 106.007 99.7357C106.711 100.576 107.117 101.478 107.224 102.444C107.338 103.403 107.123 104.311 106.58 105.167L105.138 103.448Z" fill="white"/>
<path d="M58.4109 80.2723C57.975 79.7527 57.6698 79.2083 57.4954 78.6391C57.3269 78.077 57.3084 77.5347 57.4399 77.012C57.5713 76.4893 57.8618 76.0334 58.3113 75.644L59.655 77.2454C59.3669 77.5235 59.2145 77.8333 59.1978 78.1748C59.1871 78.5234 59.3251 78.8684 59.6117 79.2101C59.9044 79.5588 60.2161 79.7641 60.547 79.8261C60.885 79.882 61.1893 79.7965 61.4597 79.5696C61.6804 79.3845 61.8051 79.1646 61.834 78.9099C61.8629 78.6552 61.8299 78.3919 61.735 78.1198C61.6531 77.8488 61.5128 77.4936 61.3138 77.0542C61.0501 76.4508 60.8574 75.9393 60.7358 75.5198C60.6273 75.1015 60.6193 74.6655 60.7118 74.212C60.8173 73.7596 61.1049 73.3363 61.5746 72.9422C62.0159 72.5719 62.4928 72.3598 63.0053 72.3057C63.5178 72.2516 64.0267 72.3522 64.5319 72.6074C65.0443 72.8567 65.5154 73.2375 65.9454 73.7499C66.5904 74.5186 66.9243 75.2996 66.9472 76.0929C66.9832 76.8874 66.6876 77.5903 66.0604 78.2014L64.6809 76.5574C64.9252 76.3282 65.0426 76.0417 65.0331 75.6979C65.0367 75.3553 64.8982 75.0168 64.6175 74.6823C64.3726 74.3905 64.1008 74.2183 63.8021 74.1658C63.5093 74.1204 63.2205 74.2172 62.9359 74.456C62.7366 74.6232 62.6231 74.8276 62.5954 75.0692C62.5807 75.3119 62.6113 75.5652 62.6871 75.829C62.7761 76.094 62.9165 76.4492 63.1083 76.8946C63.372 77.498 63.5611 78.0125 63.6756 78.4379C63.7901 78.8634 63.7975 79.3059 63.6979 79.7654C63.5984 80.2249 63.3173 80.6487 62.8547 81.0369C62.4562 81.3714 61.9995 81.5787 61.4847 81.659C60.9699 81.7392 60.442 81.6667 59.9012 81.4413C59.3675 81.2099 58.8707 80.8203 58.4109 80.2723ZM65.3298 88.5178C64.7445 87.8203 64.3707 87.0424 64.2084 86.1841C64.0461 85.3258 64.1099 84.484 64.3997 83.6587C64.6966 82.8273 65.2116 82.1041 65.9447 81.489C66.6706 80.8799 67.4652 80.5043 68.3283 80.3622C69.1986 80.2141 70.0422 80.2945 70.8593 80.6034C71.6764 80.9123 72.3776 81.4154 72.9628 82.1129C73.554 82.8175 73.9278 83.5954 74.0841 84.4466C74.2465 85.3049 74.1762 86.1461 73.8732 86.9703C73.5834 87.7957 73.0755 88.5129 72.3496 89.1221C71.6165 89.7372 70.8149 90.1188 69.9446 90.2669C69.0875 90.4161 68.2503 90.3362 67.4333 90.0274C66.6162 89.7185 65.915 89.2153 65.3298 88.5178ZM66.6642 87.3981C67.0404 87.8464 67.4715 88.1578 67.9574 88.3322C68.4505 88.5007 68.9662 88.5227 69.5047 88.3984C70.0431 88.274 70.5615 88.0028 71.0596 87.5848C71.5578 87.1668 71.9114 86.7064 72.1202 86.2037C72.3362 85.695 72.4005 85.1863 72.3131 84.6774C72.2257 84.1686 71.9939 83.69 71.6177 83.2416C71.2414 82.7932 70.8074 82.4783 70.3155 82.2968C69.8295 82.1224 69.3174 82.0973 68.7789 82.2217C68.2476 82.3401 67.7328 82.6083 67.2346 83.0263C66.7364 83.4443 66.3794 83.9077 66.1634 84.4164C65.9474 84.925 65.8796 85.4368 65.9598 85.9516C66.0532 86.4675 66.288 86.9497 66.6642 87.3981ZM73.0797 97.7539C72.4945 97.0564 72.1207 96.2785 71.9584 95.4202C71.7961 94.5619 71.8598 93.7201 72.1497 92.8947C72.4466 92.0634 72.9616 91.3402 73.6947 90.7251C74.4206 90.1159 75.2151 89.7403 76.0783 89.5982C76.9485 89.4501 77.7922 89.5305 78.6093 89.8394C79.4264 90.1483 80.1275 90.6515 80.7128 91.349C81.304 92.0536 81.6778 92.8315 81.8341 93.6826C81.9964 94.5409 81.9261 95.3822 81.6232 96.2064C81.3334 97.0317 80.8255 97.749 80.0995 98.3581C79.3665 98.9732 78.5648 99.3548 77.6946 99.5029C76.8374 99.6521 76.0003 99.5723 75.1832 99.2634C74.3661 98.9545 73.665 98.4513 73.0797 97.7539ZM74.4142 96.6341C74.7904 97.0825 75.2215 97.3939 75.7074 97.5683C76.2005 97.7367 76.7162 97.7588 77.2547 97.6344C77.7931 97.5101 78.3114 97.2389 78.8096 96.8208C79.3078 96.4028 79.6613 95.9424 79.8702 95.4397C80.0861 94.9311 80.1504 94.4223 80.0631 93.9135C79.9757 93.4046 79.7439 92.926 79.3676 92.4777C78.9914 92.0293 78.5573 91.7143 78.0654 91.5328C77.5795 91.3584 77.0673 91.3334 76.5289 91.4577C75.9976 91.5761 75.4828 91.8443 74.9846 92.2624C74.4864 92.6804 74.1293 93.1437 73.9134 93.6524C73.6974 94.1611 73.6295 94.6728 73.7098 95.1876C73.8032 95.7036 74.0379 96.1857 74.4142 96.6341ZM83.3499 109.842L82.0958 108.347L84.3698 100.672L79.2562 104.963L78.0021 103.468L85.4643 97.2068L86.7184 98.7013L84.4338 106.385L89.5581 102.086L90.8122 103.58L83.3499 109.842ZM94.5069 107.745L89.2073 111.901L88.1503 110.641L93.1543 106.133L94.5069 107.745ZM86.2076 113.399C85.9806 113.129 85.8744 112.836 85.8888 112.52C85.9162 112.206 86.0545 111.945 86.3036 111.736C86.5527 111.527 86.8308 111.439 87.1378 111.472C87.4579 111.507 87.7314 111.659 87.9584 111.93C88.1793 112.193 88.2761 112.482 88.2486 112.796C88.2282 113.104 88.0935 113.363 87.8444 113.572C87.5953 113.781 87.3137 113.872 86.9995 113.844C86.6925 113.811 86.4285 113.662 86.2076 113.399Z" fill="white"/>
</g>
<defs>
<filter id="filter0_d_18007_149999" x="0" y="0" width="162.332" height="181.928" filterUnits="userSpaceOnUse" color-interpolation-filters="sRGB">
<feFlood flood-opacity="0" result="BackgroundImageFix"/>
<feColorMatrix in="SourceAlpha" type="matrix" values="0 0 0 0 0 0 0 0 0 0 0 0 0 0 0 0 0 0 127 0" result="hardAlpha"/>
<feOffset dx="2" dy="4"/>
<feGaussianBlur stdDeviation="2"/>
<feComposite in2="hardAlpha" operator="out"/>
<feColorMatrix type="matrix" values="0 0 0 0 0 0 0 0 0 0 0 0 0 0 0 0 0 0 0.25 0"/>
<feBlend mode="normal" in2="BackgroundImageFix" result="effect1_dropShadow_18007_149999"/>
<feBlend mode="normal" in="SourceGraphic" in2="effect1_dropShadow_18007_149999" result="shape"/>
</filter>
<linearGradient id="paint0_linear_18007_149999" x1="30.2843" y1="28.4711" x2="164.665" y2="27.0066" gradientUnits="userSpaceOnUse">
<stop stop-color="#DB392E"/>
<stop offset="0.544835" stop-color="#F04438"/>
<stop offset="1" stop-color="#DB392E"/>
</linearGradient>
</defs>
</svg>
