<svg width="1440" height="833" viewBox="0 0 1440 833" fill="none" xmlns="http://www.w3.org/2000/svg">
<g opacity="0.15">
<path d="M978.902 586.009C983.512 586.009 987.249 582.268 987.249 577.654C987.249 573.039 983.512 569.299 978.902 569.299C974.292 569.299 970.555 573.039 970.555 577.654C970.555 582.268 974.292 586.009 978.902 586.009Z" fill="#64AEE8"/>
<path d="M382.533 431.442C387.142 431.442 390.879 427.702 390.879 423.087C390.879 418.473 387.142 414.732 382.533 414.732C377.923 414.732 374.186 418.473 374.186 423.087C374.186 427.702 377.923 431.442 382.533 431.442Z" fill="#64AEE8"/>
<path d="M19.8662 126.483C24.4759 126.483 28.2128 122.743 28.2128 118.128C28.2128 113.514 24.4759 109.773 19.8662 109.773C15.2565 109.773 11.5195 113.514 11.5195 118.128C11.5195 122.743 15.2565 126.483 19.8662 126.483Z" fill="#64AEE8"/>
<path d="M970.556 431.442C975.165 431.442 978.902 427.702 978.902 423.087C978.902 418.473 975.165 414.732 970.556 414.732C965.946 414.732 962.209 418.473 962.209 423.087C962.209 427.702 965.946 431.442 970.556 431.442Z" fill="#64AEE8"/>
<path d="M1087.4 616.92C1090.63 616.92 1093.25 614.301 1093.25 611.071C1093.25 607.841 1090.63 605.223 1087.4 605.223C1084.18 605.223 1081.56 607.841 1081.56 611.071C1081.56 614.301 1084.18 616.92 1087.4 616.92Z" fill="#64AEE8"/>
<path d="M291.972 428.931C295.199 428.931 297.815 426.313 297.815 423.083C297.815 419.853 295.199 417.234 291.972 417.234C288.745 417.234 286.129 419.853 286.129 423.083C286.129 426.313 288.745 428.931 291.972 428.931Z" fill="#64AEE8"/>
<path d="M852.858 530.447C856.084 530.447 858.7 527.828 858.7 524.598C858.7 521.368 856.084 518.75 852.858 518.75C849.631 518.75 847.015 521.368 847.015 524.598C847.015 527.828 849.631 530.447 852.858 530.447Z" fill="#64AEE8"/>
<path d="M1138.32 202.099C1141.54 202.099 1144.16 199.481 1144.16 196.251C1144.16 193.021 1141.54 190.402 1138.32 190.402C1135.09 190.402 1132.47 193.021 1132.47 196.251C1132.47 199.481 1135.09 202.099 1138.32 202.099Z" fill="#64AEE8"/>
<path d="M1142.49 447.316C1145.72 447.316 1148.33 444.698 1148.33 441.468C1148.33 438.238 1145.72 435.619 1142.49 435.619C1139.26 435.619 1136.65 438.238 1136.65 441.468C1136.65 444.698 1139.26 447.316 1142.49 447.316Z" fill="#64AEE8"/>
<path d="M810.711 461.099C813.015 461.099 814.884 459.229 814.884 456.922C814.884 454.614 813.015 452.744 810.711 452.744C808.406 452.744 806.537 454.614 806.537 456.922C806.537 459.229 808.406 461.099 810.711 461.099Z" fill="#64AEE8"/>
<path d="M526.51 398.439C528.815 398.439 530.683 396.569 530.683 394.261C530.683 391.954 528.815 390.084 526.51 390.084C524.205 390.084 522.336 391.954 522.336 394.261C522.336 396.569 524.205 398.439 526.51 398.439Z" fill="#64AEE8"/>
<path d="M147.57 522.087C149.875 522.087 151.744 520.217 151.744 517.91C151.744 515.603 149.875 513.732 147.57 513.732C145.265 513.732 143.397 515.603 143.397 517.91C143.397 520.217 145.265 522.087 147.57 522.087Z" fill="#64AEE8"/>
<path d="M226.446 175.361C228.751 175.361 230.619 173.49 230.619 171.183C230.619 168.876 228.751 167.006 226.446 167.006C224.141 167.006 222.272 168.876 222.272 171.183C222.272 173.49 224.141 175.361 226.446 175.361Z" fill="#64AEE8"/>
<path d="M996.847 545.483C996.847 547.154 995.595 547.989 993.925 547.989C992.673 547.989 991.421 547.154 991.421 545.483C991.421 543.812 992.673 542.559 993.925 542.559C995.595 542.559 996.847 543.812 996.847 545.483Z" fill="#64AEE8"/>
<path d="M840.345 521.672C840.345 523.343 839.093 524.597 837.841 524.597C836.172 524.597 834.92 523.343 834.92 521.672C834.92 520.419 836.172 519.166 837.841 519.166C839.093 519.166 840.345 520.419 840.345 521.672Z" fill="#64AEE8"/>
<path d="M843.264 586.01C843.264 587.263 842.012 588.517 840.343 588.517C839.091 588.517 837.839 587.263 837.839 586.01C837.839 584.339 839.091 583.086 840.343 583.086C842.012 583.086 843.264 584.339 843.264 586.01Z" fill="#64AEE8"/>
<path d="M877.908 569.298C877.908 570.969 876.656 572.222 875.404 572.222C873.735 572.222 872.483 570.969 872.483 569.298C872.483 568.044 873.735 566.791 875.404 566.791C876.656 566.791 877.908 568.044 877.908 569.298Z" fill="#64AEE8"/>
<path d="M805.29 581.415C805.29 583.086 804.038 584.339 802.369 584.339C801.117 584.339 799.865 583.086 799.865 581.415C799.865 579.744 801.117 578.908 802.369 578.908C804.038 578.908 805.29 579.744 805.29 581.415Z" fill="#64AEE8"/>
<path d="M9.85288 673.739C9.85288 674.992 8.60088 676.245 6.93155 676.245C5.67955 676.245 4.42755 674.992 4.42755 673.739C4.42755 672.068 5.67955 670.814 6.93155 670.814C8.60088 670.814 9.85288 672.068 9.85288 673.739Z" fill="#64AEE8"/>
<path d="M1021.05 369.616C1021.05 371.287 1019.79 372.122 1018.12 372.122C1016.87 372.122 1015.62 371.287 1015.62 369.616C1015.62 367.945 1016.87 366.691 1018.12 366.691C1019.79 366.691 1021.05 367.945 1021.05 369.616Z" fill="#64AEE8"/>
<path d="M887.922 525.857C887.922 526.692 887.504 527.528 886.67 527.528C885.835 527.528 885.418 526.692 885.418 525.857C885.418 525.021 885.835 524.604 886.67 524.604C887.504 524.604 887.922 525.021 887.922 525.857Z" fill="#64AEE8"/>
<path d="M534.021 830.804C534.021 832.057 533.187 832.893 532.352 832.893C531.517 832.893 530.683 832.057 530.683 830.804C530.683 829.968 531.517 829.133 532.352 829.133C533.187 829.133 534.021 829.968 534.021 830.804Z" fill="#64AEE8"/>
<path d="M561.984 527.521C561.984 527.938 561.567 528.774 560.732 528.774C559.897 528.774 559.48 527.938 559.48 527.521C559.48 526.685 559.897 525.85 560.732 525.85C561.567 525.85 561.984 526.685 561.984 527.521Z" fill="#64AEE8"/>
<path d="M253.159 508.304C253.159 508.722 252.742 509.557 251.907 509.557C251.072 509.557 250.655 508.722 250.655 508.304C250.655 507.468 251.072 506.633 251.907 506.633C252.742 506.633 253.159 507.468 253.159 508.304Z" fill="#64AEE8"/>
<path d="M718.486 506.63C718.486 507.466 718.068 508.301 717.234 508.301C716.399 508.301 715.982 507.466 715.982 506.63C715.982 505.795 716.399 505.377 717.234 505.377C718.068 505.377 718.486 505.795 718.486 506.63Z" fill="#64AEE8"/>
<path d="M527.762 519.163C527.762 519.999 526.927 520.417 526.51 520.417C525.675 520.417 524.84 519.999 524.84 519.163C524.84 518.328 525.675 517.91 526.51 517.91C526.927 517.91 527.762 518.328 527.762 519.163Z" fill="#64AEE8"/>
<path d="M60.3459 526.271C60.3459 527.106 59.9285 527.942 59.0939 527.942C58.2592 527.942 57.4246 527.106 57.4246 526.271C57.4246 525.435 58.2592 525.018 59.0939 525.018C59.9285 525.018 60.3459 525.435 60.3459 526.271Z" fill="#64AEE8"/>
<path d="M11.0975 521.675C11.0975 522.511 10.2629 523.346 9.84554 523.346C9.01087 523.346 8.17621 522.511 8.17621 521.675C8.17621 521.257 9.01087 520.422 9.84554 520.422C10.2629 520.422 11.0975 521.257 11.0975 521.675Z" fill="#64AEE8"/>
<path d="M867.888 547.99C867.888 548.825 867.053 549.661 866.219 549.661C865.384 549.661 864.967 548.825 864.967 547.99C864.967 547.572 865.384 546.736 866.219 546.736C867.053 546.736 867.888 547.572 867.888 547.99Z" fill="#64AEE8"/>
<path d="M609.971 549.663C609.971 550.499 609.136 550.916 608.302 550.916C607.884 550.916 607.05 550.499 607.05 549.663C607.05 548.828 607.884 547.992 608.302 547.992C609.136 547.992 609.971 548.828 609.971 549.663Z" fill="#64AEE8"/>
<path d="M251.907 553.421C251.907 554.257 251.49 554.674 250.655 554.674C249.82 554.674 248.986 554.257 248.986 553.421C248.986 552.586 249.82 552.168 250.655 552.168C251.49 552.168 251.907 552.586 251.907 553.421Z" fill="#64AEE8"/>
<path d="M877.908 504.125C877.908 505.379 876.656 506.632 875.404 506.632C873.735 506.632 872.483 505.379 872.483 504.125C872.483 502.454 873.735 501.201 875.404 501.201C876.656 501.201 877.908 502.454 877.908 504.125Z" fill="#64AEE8"/>
<path d="M753.123 501.2C753.123 502.871 751.871 504.124 750.202 504.124C748.95 504.124 747.698 502.871 747.698 501.2C747.698 499.947 748.95 498.693 750.202 498.693C751.871 498.693 753.123 499.947 753.123 501.2Z" fill="#64AEE8"/>
<path d="M236.459 385.907C236.459 387.578 235.207 388.831 233.538 388.831C231.868 388.831 231.034 387.578 231.034 385.907C231.034 384.236 231.868 383.4 233.538 383.4C235.207 383.4 236.459 384.236 236.459 385.907Z" fill="#64AEE8"/>
<path d="M805.29 175.36C805.29 177.031 804.038 178.284 802.369 178.284C801.117 178.284 799.865 177.031 799.865 175.36C799.865 174.107 801.117 172.854 802.369 172.854C804.038 172.854 805.29 174.107 805.29 175.36Z" fill="#64AEE8"/>
<path d="M662.978 593.106C662.978 594.777 661.726 596.03 660.474 596.03C658.804 596.03 657.552 594.777 657.552 593.106C657.552 591.853 658.804 590.6 660.474 590.6C661.726 590.6 662.978 591.853 662.978 593.106Z" fill="#64AEE8"/>
<path d="M222.27 383.403C222.27 384.656 221.018 385.909 219.766 385.909C218.097 385.909 216.845 384.656 216.845 383.403C216.845 381.732 218.097 380.479 219.766 380.479C221.018 380.479 222.27 381.732 222.27 383.403Z" fill="#64AEE8"/>
<path d="M177.205 225.075C177.205 226.328 175.953 227.581 174.701 227.581C173.031 227.581 171.779 226.328 171.779 225.075C171.779 223.404 173.031 222.15 174.701 222.15C175.953 222.15 177.205 223.404 177.205 225.075Z" fill="#64AEE8"/>
<path d="M73.2852 227.579C73.2852 229.25 72.0332 230.503 70.3639 230.503C69.1119 230.503 67.8599 229.25 67.8599 227.579C67.8599 226.326 69.1119 225.072 70.3639 225.072C72.0332 225.072 73.2852 226.326 73.2852 227.579Z" fill="#64AEE8"/>
<path d="M411.742 73.8541C411.742 75.5251 410.49 76.7784 408.821 76.7784C407.152 76.7784 406.317 75.5251 406.317 73.8541C406.317 72.6009 407.152 71.3477 408.821 71.3477C410.49 71.3477 411.742 72.6009 411.742 73.8541Z" fill="#64AEE8"/>
<path d="M639.188 3.25235C639.188 4.50559 637.936 5.75883 636.684 5.75883C635.015 5.75883 633.763 4.50559 633.763 3.25235C633.763 1.58137 635.015 0.328125 636.684 0.328125C637.936 0.328125 639.188 1.58137 639.188 3.25235Z" fill="#64AEE8"/>
<path d="M70.3664 219.643C70.3664 220.896 69.5317 222.149 67.8624 222.149C66.193 222.149 64.941 220.896 64.941 219.643C64.941 217.972 66.193 216.719 67.8624 216.719C69.5317 216.719 70.3664 217.972 70.3664 219.643Z" fill="#64AEE8"/>
<path d="M219.766 219.643C219.766 220.896 218.514 222.149 216.845 222.149C215.593 222.149 214.341 220.896 214.341 219.643C214.341 217.972 215.593 216.719 216.845 216.719C218.514 216.719 219.766 217.972 219.766 219.643Z" fill="#64AEE8"/>
<path d="M460.991 109.778C460.991 111.449 459.739 112.702 458.069 112.702C456.4 112.702 455.565 111.449 455.565 109.778C455.565 108.525 456.4 107.271 458.069 107.271C459.739 107.271 460.991 108.525 460.991 109.778Z" fill="#64AEE8"/>
<path d="M717.234 372.12C717.234 373.791 715.982 375.044 714.73 375.044C713.06 375.044 711.808 373.791 711.808 372.12C711.808 370.867 713.06 369.613 714.73 369.613C715.982 369.613 717.234 370.867 717.234 372.12Z" fill="#64AEE8"/>
<path d="M264.842 183.715C264.842 185.386 263.59 186.64 262.338 186.64C260.668 186.64 259.416 185.386 259.416 183.715C259.416 182.462 260.668 181.209 262.338 181.209C263.59 181.209 264.842 182.462 264.842 183.715Z" fill="#64AEE8"/>
<path d="M4.42532 132.754C4.42532 134.425 3.17332 135.261 1.50399 135.261C0.251992 135.261 -1 134.425 -1 132.754C-1 131.083 0.251992 129.83 1.50399 129.83C3.17332 129.83 4.42532 131.083 4.42532 132.754Z" fill="#64AEE8"/>
<path d="M668.815 246.796C668.815 248.467 667.563 249.72 665.894 249.72C664.642 249.72 663.39 248.467 663.39 246.796C663.39 245.542 664.642 244.289 665.894 244.289C667.563 244.289 668.815 245.542 668.815 246.796Z" fill="#64AEE8"/>
<path d="M258.584 43.3539C258.584 44.6072 257.332 45.8604 256.08 45.8604C254.411 45.8604 253.159 44.6072 253.159 43.3539C253.159 41.6829 254.411 40.4297 256.08 40.4297C257.332 40.4297 258.584 41.6829 258.584 43.3539Z" fill="#64AEE8"/>
<path d="M855.368 356.662C855.368 357.916 854.116 359.169 852.864 359.169C851.195 359.169 849.943 357.916 849.943 356.662C849.943 354.992 851.195 353.738 852.864 353.738C854.116 353.738 855.368 354.992 855.368 356.662Z" fill="#64AEE8"/>
<path d="M1142.5 158.652C1145.83 155.728 1150.84 155.728 1154.18 158.652C1157.1 161.994 1157.1 167.007 1154.18 170.349C1150.84 173.691 1145.83 173.691 1142.5 170.349C1139.16 167.007 1139.16 161.994 1142.5 158.652Z" fill="#64AEE8"/>
<path d="M1378.7 251.388C1381.62 248.464 1387.05 248.464 1389.97 251.388C1393.31 254.73 1393.31 259.743 1389.97 263.085C1387.05 266.427 1381.62 266.427 1378.7 263.085C1375.36 259.743 1375.36 254.73 1378.7 251.388Z" fill="#64AEE8"/>
<path d="M1430.45 37.5068C1432.95 35.0003 1436.29 35.0003 1438.8 37.5068C1440.88 39.5955 1440.88 43.3553 1438.8 45.444C1436.29 47.9505 1432.95 47.9505 1430.45 45.444C1428.36 43.3553 1428.36 39.5955 1430.45 37.5068Z" fill="#64AEE8"/>
<path d="M1271.45 118.545C1273.95 116.456 1277.71 116.456 1279.8 118.545C1281.88 120.634 1281.88 124.394 1279.8 126.9C1277.71 128.989 1273.95 128.989 1271.45 126.9C1269.36 124.394 1269.36 120.634 1271.45 118.545Z" fill="#64AEE8"/>
<path d="M1311.1 259.332C1311.93 258.496 1313.6 258.496 1314.85 259.332C1316.1 260.585 1316.1 262.256 1314.85 263.509C1313.6 264.345 1311.93 264.345 1311.1 263.509C1309.84 262.256 1309.84 260.585 1311.1 259.332Z" fill="#64AEE8"/>
<path d="M1164.19 14.9469C1165.03 14.1114 1165.86 14.1114 1166.28 14.9469C1166.7 15.3647 1166.7 16.2002 1166.28 16.6179C1165.86 17.0357 1165.03 17.0357 1164.19 16.6179C1163.78 16.2002 1163.78 15.3647 1164.19 14.9469Z" fill="#64AEE8"/>
<path d="M1052.77 16.6177C1054.02 15.3644 1055.69 15.3644 1056.52 16.6177C1057.78 17.4532 1057.78 19.1241 1056.52 20.3774C1055.69 21.6306 1054.02 21.6306 1052.77 20.3774C1051.52 19.1241 1051.52 17.4532 1052.77 16.6177Z" fill="#64AEE8"/>
<path d="M1418.76 385.488C1420.02 384.652 1421.69 384.652 1422.52 385.488C1423.77 386.741 1423.77 388.412 1422.52 389.665C1421.69 390.501 1420.02 390.501 1418.76 389.665C1417.51 388.412 1417.51 386.741 1418.76 385.488Z" fill="#64AEE8"/>
<path d="M1333.21 182.043C1334.05 180.79 1336.13 180.79 1336.97 182.043C1338.22 182.879 1338.22 184.55 1336.97 185.803C1336.13 186.639 1334.05 186.639 1333.21 185.803C1331.96 184.55 1331.96 182.879 1333.21 182.043Z" fill="#64AEE8"/>
<path d="M1016.04 162.829C1017.29 161.575 1018.96 161.575 1020.21 162.829C1021.05 163.664 1021.05 165.335 1020.21 166.588C1018.96 167.424 1017.29 167.424 1016.46 166.588C1015.2 165.335 1015.2 163.664 1016.46 162.829H1016.04Z" fill="#64AEE8"/>
<path d="M1415.84 170.35C1416.26 169.933 1417.09 169.933 1417.51 170.35C1417.93 170.768 1417.93 171.604 1417.51 172.439C1417.09 172.857 1416.26 172.857 1415.84 172.439C1415.01 171.604 1415.01 170.768 1415.84 170.35Z" fill="#64AEE8"/>
<path d="M1106.6 498.695C1107.02 497.859 1108.27 497.859 1108.69 498.695C1109.1 499.113 1109.1 499.948 1108.69 500.366C1108.27 501.201 1107.02 501.201 1106.6 500.366C1106.18 499.948 1106.18 499.113 1106.6 498.695Z" fill="#64AEE8"/>
<path d="M1079.89 235.102C1080.73 233.849 1082.81 233.849 1083.65 235.102C1084.9 236.355 1084.9 238.026 1083.65 238.862C1082.81 240.115 1080.73 240.115 1079.89 238.862C1078.64 238.026 1078.64 236.355 1079.89 235.102Z" fill="#64AEE8"/>
<path d="M1125.38 144.453C1127.46 142.365 1131.22 142.365 1133.31 144.453C1135.81 146.542 1135.81 150.302 1133.31 152.808C1131.22 154.897 1127.46 154.897 1125.38 152.808C1122.87 150.302 1122.87 146.542 1125.38 144.453Z" fill="#64AEE8"/>
<path d="M1179.22 112.28C1180.47 111.027 1182.14 111.027 1183.39 112.28C1184.23 113.115 1184.23 114.786 1183.39 116.039C1182.14 116.875 1180.47 116.875 1179.22 116.039C1178.39 114.786 1178.39 113.115 1179.22 112.28Z" fill="#64AEE8"/>
<path d="M1143.32 98.9137C1144.16 98.0782 1145.83 98.0782 1147.08 98.9137C1147.92 100.167 1147.92 101.838 1147.08 102.673C1145.83 103.927 1144.16 103.927 1143.32 102.673C1142.07 101.838 1142.07 100.167 1143.32 98.9137Z" fill="#64AEE8"/>
<path d="M1105.35 122.722C1105.77 121.887 1106.6 121.887 1107.44 122.722C1107.85 123.14 1107.85 123.976 1107.44 124.393C1106.6 125.229 1105.77 125.229 1105.35 124.393C1104.93 123.976 1104.93 123.14 1105.35 122.722Z" fill="#64AEE8"/>
<path d="M1135.4 121.476C1135.81 120.641 1136.65 120.641 1137.48 121.476C1137.9 121.894 1137.9 122.729 1137.48 123.147C1136.65 123.565 1135.81 123.565 1135.4 123.147C1134.98 122.729 1134.98 121.894 1135.4 121.476Z" fill="#64AEE8"/>
<path d="M1097 145.288C1097.84 144.034 1099.93 144.034 1100.76 145.288C1102.01 146.123 1102.01 148.212 1100.76 149.047C1099.93 150.301 1097.84 150.301 1097 149.047C1095.75 148.212 1095.75 146.123 1097 145.288Z" fill="#64AEE8"/>
<path d="M1269.78 467.363C1271.87 465.275 1275.63 465.275 1277.71 467.363C1280.22 469.87 1280.22 473.212 1277.71 475.718C1275.63 477.807 1271.87 477.807 1269.78 475.718C1267.28 473.212 1267.28 469.87 1269.78 467.363Z" fill="#64AEE8"/>
<path d="M1277.29 291.497C1279.8 288.991 1283.13 288.991 1285.64 291.497C1287.73 293.586 1287.73 297.345 1285.64 299.434C1283.13 301.941 1279.8 301.941 1277.29 299.434C1275.21 297.345 1275.21 293.586 1277.29 291.497Z" fill="#64AEE8"/>
<path d="M287.79 479.065C290.294 476.976 293.632 476.976 296.136 479.065C298.223 481.571 298.223 485.331 296.136 487.42C293.632 489.508 290.294 489.508 287.79 487.42C285.703 485.331 285.703 481.571 287.79 479.065Z" fill="#64AEE8"/>
<path d="M1252.66 546.318C1254.33 544.647 1256.84 544.647 1258.51 546.318C1260.18 547.989 1260.18 550.495 1258.51 552.166C1256.84 553.837 1254.33 553.837 1252.66 552.166C1251 550.495 1251 547.989 1252.66 546.318Z" fill="#64AEE8"/>
<path d="M1280.63 482.405C1281.46 481.152 1283.13 481.152 1284.39 482.405C1285.22 483.24 1285.22 484.911 1284.39 486.164C1283.13 487 1281.46 487 1280.63 486.164C1279.38 484.911 1279.38 483.24 1280.63 482.405Z" fill="#64AEE8"/>
<path d="M1323.61 435.204C1324.86 433.95 1326.53 433.95 1327.79 435.204C1328.62 436.039 1328.62 437.71 1327.79 438.963C1326.53 440.217 1324.86 440.217 1323.61 438.963C1322.78 437.71 1322.78 436.039 1323.61 435.204Z" fill="#64AEE8"/>
<path d="M1374.11 272.698C1375.36 271.445 1377.03 271.445 1378.28 272.698C1379.12 273.533 1379.12 275.622 1378.28 276.457C1377.03 277.711 1375.36 277.711 1374.11 276.457C1373.28 275.622 1373.28 273.533 1374.11 272.698Z" fill="#64AEE8"/>
<path d="M1287.31 421.838C1288.56 421.002 1290.23 421.002 1291.48 421.838C1292.32 423.091 1292.32 424.762 1291.48 426.015C1290.23 426.851 1288.56 426.851 1287.31 426.015C1286.47 424.762 1286.47 423.091 1287.31 421.838Z" fill="#64AEE8"/>
<path d="M1249.75 445.638C1250.17 445.22 1251 445.22 1251.42 445.638C1252.25 446.055 1252.25 446.891 1251.42 447.309C1251 448.144 1250.17 448.144 1249.75 447.309C1248.91 446.891 1248.91 446.055 1249.75 445.638Z" fill="#64AEE8"/>
<path d="M1197.58 557.6C1198 557.183 1198.83 557.183 1199.67 557.6C1200.08 558.018 1200.08 559.271 1199.67 559.689C1198.83 560.107 1198 560.107 1197.58 559.689C1197.16 559.271 1197.16 558.018 1197.58 557.6Z" fill="#64AEE8"/>
<path d="M1355.75 578.901C1356.58 578.483 1357.42 578.483 1357.84 578.901C1358.25 579.737 1358.25 580.572 1357.84 580.99C1357.42 581.408 1356.58 581.408 1355.75 580.99C1355.33 580.572 1355.33 579.737 1355.75 578.901Z" fill="#64AEE8"/>
<path d="M1279.79 444.391C1280.21 443.974 1281.04 443.974 1281.88 444.391C1282.29 444.809 1282.29 445.645 1281.88 446.062C1281.04 446.898 1280.21 446.898 1279.79 446.062C1279.37 445.645 1279.37 444.809 1279.79 444.391Z" fill="#64AEE8"/>
<path d="M1241.4 468.203C1242.23 467.367 1243.9 467.367 1245.15 468.203C1245.99 469.456 1245.99 471.127 1245.15 471.963C1243.9 473.216 1242.23 473.216 1241.4 471.963C1240.14 471.127 1240.14 469.456 1241.4 468.203Z" fill="#64AEE8"/>
<path d="M1055.68 466.533C1056.52 465.697 1058.19 465.697 1059.44 466.533C1060.27 467.786 1060.27 469.457 1059.44 470.293C1058.19 471.546 1056.52 471.546 1055.68 470.293C1054.43 469.457 1054.43 467.786 1055.68 466.533Z" fill="#64AEE8"/>
<path d="M1327.79 558.433C1328.62 557.598 1330.71 557.598 1331.54 558.433C1332.8 559.686 1332.8 561.357 1331.54 562.611C1330.71 563.446 1328.62 563.446 1327.79 562.611C1326.54 561.357 1326.54 559.686 1327.79 558.433Z" fill="#64AEE8"/>
</g>
</svg>
