<svg width="350" height="301" viewBox="0 0 350 301" fill="none" xmlns="http://www.w3.org/2000/svg">
<path d="M262.534 104.562C262.534 114.237 270.382 122.081 280.063 122.081C289.743 122.081 297.589 114.237 297.589 104.562C297.589 94.8869 289.743 87.0449 280.063 87.0449C270.382 87.0449 262.534 94.8869 262.534 104.562Z" fill="url(#paint0_radial_9674_59074)"/>
<path d="M266.038 104.385C266.038 105.083 266.088 105.775 266.184 106.446V106.45C266.279 107.122 266.423 107.78 266.609 108.419C266.912 109.483 267.341 110.494 267.869 111.44C268.25 112.125 268.685 112.775 269.168 113.384C271.827 116.742 275.938 118.895 280.556 118.895C281.369 118.895 282.169 118.827 282.945 118.697C283.53 118.602 284.101 118.472 284.656 118.306C286.175 117.861 287.593 117.174 288.862 116.283C289.084 116.13 289.302 115.967 289.513 115.8C290.445 115.074 291.279 114.232 292.007 113.303C292.082 113.208 292.154 113.109 292.225 113.013C292.725 112.34 293.168 111.619 293.548 110.863C294.145 109.67 294.584 108.381 294.833 107.027C294.944 106.415 295.019 105.789 295.052 105.149C295.064 104.895 295.071 104.64 295.071 104.385C295.071 103.776 295.032 103.175 294.961 102.589C294.918 102.252 294.866 101.923 294.801 101.593V101.59C294.461 99.8481 293.808 98.2181 292.905 96.7563C292.699 96.4249 292.48 96.1019 292.249 95.7889C291.361 94.5852 290.291 93.5213 289.08 92.6405C286.688 90.9023 283.741 89.875 280.556 89.875C279.107 89.875 277.704 90.0865 276.386 90.4844C274.967 90.9089 273.638 91.5416 272.44 92.3575C272.187 92.5273 271.935 92.7054 271.693 92.8919C270.809 93.5745 270.006 94.3537 269.308 95.2178C269.135 95.426 268.968 95.6391 268.811 95.8572C268.273 96.5931 267.807 97.3806 267.419 98.2114C267.226 98.6094 267.056 99.0206 266.902 99.4385C266.704 99.9896 266.538 100.554 266.404 101.133V101.137C266.286 101.65 266.198 102.171 266.136 102.702C266.081 103.185 266.048 103.674 266.041 104.17C266.038 104.242 266.038 104.314 266.038 104.385Z" fill="url(#paint1_linear_9674_59074)"/>
<path style="mix-blend-mode:overlay" d="M269.308 95.2188C271.632 96.1961 274.59 97.0086 277.675 96.7356C283.06 96.2561 290.323 97.658 294.801 101.591C294.461 99.849 293.808 98.219 292.905 96.7572C292.698 96.4259 292.48 96.1029 292.249 95.7899C289.282 95.2937 285.712 94.8009 282.577 94.651C278.55 94.4579 275.117 93.4739 272.44 92.3584C272.186 92.5282 271.935 92.7064 271.693 92.8928C270.809 93.5755 270.006 94.3547 269.308 95.2188Z" fill="url(#paint2_linear_9674_59074)"/>
<path style="mix-blend-mode:overlay" d="M266.403 101.134V101.137C267.436 101.738 268.722 102.371 270.325 102.99C272.883 103.981 277.556 104.872 280.983 105.867C282.422 106.284 285.826 105.165 287.108 105.551C289.597 106.29 291.904 108.571 293.547 110.864C294.143 109.67 294.583 108.381 294.831 107.028C294.943 106.415 295.018 105.789 295.051 105.15C293.2 102.772 289.865 100.205 284.291 100.889C278.316 101.623 271.722 99.787 267.418 98.2119C267.224 98.6098 267.054 99.0211 266.901 99.439C266.703 99.9901 266.536 100.555 266.403 101.134Z" fill="url(#paint3_linear_9674_59074)"/>
<path style="mix-blend-mode:overlay" d="M266.04 104.17L266.183 106.446V106.449C267.264 107.05 268.579 107.755 270.073 108.5C273.373 110.149 276.603 115.085 281.228 114.731C283.926 114.521 286.71 115.373 288.861 116.282C289.082 116.129 289.3 115.966 289.512 115.8C290.443 115.074 291.278 114.231 292.006 113.302C292.081 113.207 292.152 113.109 292.224 113.013C288.508 110.722 282.787 107.813 278.411 107.63C274.602 107.47 271.311 106.508 268.813 105.48C267.734 105.037 266.801 104.581 266.04 104.17Z" fill="url(#paint4_linear_9674_59074)"/>
<path style="mix-blend-mode:overlay" d="M276.387 90.4844C280.457 92.7421 285.814 92.8469 289.081 92.6405C286.689 90.9023 283.742 89.875 280.557 89.875C279.107 89.875 277.705 90.0865 276.387 90.4844Z" fill="url(#paint5_linear_9674_59074)"/>
<path style="mix-blend-mode:overlay" d="M269.168 113.385C271.827 116.743 275.938 118.896 280.556 118.896C281.369 118.896 282.169 118.828 282.945 118.698C281.809 117.882 279.123 116.187 275.9 115.772C273.606 115.478 271.05 114.36 269.168 113.385Z" fill="url(#paint6_linear_9674_59074)"/>
<path d="M327.333 235.434C309.35 266.449 281.03 293.736 249.226 299.781C211.145 307.005 185.115 280.546 149.228 261.796C141.637 257.769 133.745 254.336 125.623 251.528C109.636 246.108 91.45 243.187 69.7621 245.223C48.187 247.264 31.8337 253.4 18.3111 242.014C14.1382 238.513 10.6645 233.702 7.94087 228.018C-4.63428 201.909 -1.74143 157.338 19.5066 135.498C42.063 112.333 74.9614 125.348 91.8955 96.9998C99.6718 83.9566 111.914 91.3608 118.399 77.889C135.316 42.6842 157.269 31.6767 199.568 53.2744C229.551 68.6014 223.421 68.9285 268.218 107.41C300.666 135.3 319.438 127.051 326.69 143.77C335.842 164.945 345.203 204.633 327.333 235.434Z" fill="url(#paint7_linear_9674_59074)"/>
<mask id="mask0_9674_59074" style="mask-type:alpha" maskUnits="userSpaceOnUse" x="0" y="0" width="338" height="301">
<path d="M327.334 235.434C309.351 266.449 281.032 293.736 249.227 299.781C211.147 307.005 185.117 280.546 149.229 261.796C141.638 257.769 133.746 254.335 125.624 251.528C109.637 246.108 91.4514 243.187 69.7635 245.223C48.1884 247.264 31.8351 253.4 18.3126 242.014C14.1396 238.513 10.666 233.702 7.94229 228.018C-4.63286 201.909 -1.73988 115.097 19.5082 93.257C42.0645 112.309 74.9628 83.1297 91.8969 54.7821C99.6732 41.7389 111.916 49.143 118.401 35.6712C135.318 0.466429 157.271 -10.5411 199.569 11.0566C229.552 26.3836 223.423 26.7107 268.22 65.1918C300.667 93.0827 319.439 42.6149 326.691 143.77C335.843 164.945 345.204 204.633 327.334 235.434Z" fill="url(#paint8_linear_9674_59074)"/>
</mask>
<g mask="url(#mask0_9674_59074)">
<path d="M103.384 294.717L84.749 179.325C109.404 199.393 162.553 214.603 186.046 219.7C213.377 205.748 244.578 174.706 256.763 160.929C262.688 202.785 264.487 255.934 264.647 277.277C214.571 291.229 136.273 294.717 103.384 294.717Z" fill="url(#paint9_linear_9674_59074)"/>
<path d="M149.692 121.676L85.9038 179.253C146.873 210.788 177.963 221.698 186.962 221.539C219.453 203 247.167 175.589 256.962 164.201L223.992 145.805L191.74 128.604L149.692 121.676Z" fill="url(#paint10_linear_9674_59074)"/>
<path d="M221.28 197.382C222.267 201.554 220.845 205.931 217.598 208.726C218.435 201.887 216.867 195.277 212.894 188.895C217.054 189.934 220.288 193.207 221.28 197.382Z" fill="white"/>
<path fill-rule="evenodd" clip-rule="evenodd" d="M217.859 209.617C217.629 209.681 217.386 209.659 217.17 209.545C216.829 209.361 216.637 208.993 216.684 208.611C217.494 202.017 215.958 195.549 212.116 189.385C211.915 189.062 211.933 188.651 212.152 188.343C212.378 188.038 212.766 187.898 213.133 187.986C217.651 189.115 221.121 192.633 222.197 197.164C223.273 201.695 221.745 206.392 218.217 209.428C218.111 209.52 217.986 209.582 217.859 209.617ZM215.009 190.677C217.656 195.667 218.903 200.835 218.742 206.105C220.467 203.671 221.095 200.589 220.383 197.595C219.667 194.565 217.688 192.071 215.009 190.677Z" fill="#64EDFF"/>
<path d="M166.208 165.731C186.176 160.177 206.866 171.858 212.42 191.826C217.973 211.79 206.287 232.481 186.319 238.035C166.355 243.587 145.664 231.901 140.111 211.938C134.557 191.97 146.245 171.283 166.208 165.731Z" fill="white"/>
<path d="M166.716 166.174C186.953 160.545 207.171 170.772 213.627 190.121L214.209 190.907C215.635 193.044 215.235 192.039 216.902 198.033C218.569 204.027 217.191 216.705 209.979 224.258L209.179 225.265C185.306 249.62 148.479 244.803 139.82 213.673C134.114 193.157 146.479 171.803 166.716 166.174Z" fill="white"/>
<path fill-rule="evenodd" clip-rule="evenodd" d="M186.535 240.025C179.235 242.055 171.811 242.198 164.974 240.438C152.195 237.145 142.701 227.48 138.93 213.922C136.112 203.791 137.464 193.122 142.736 183.876C147.979 174.679 156.409 168.073 166.471 165.275C187.212 159.506 207.819 169.999 214.47 189.688L214.961 190.357C214.972 190.368 214.98 190.38 214.987 190.392C215.139 190.618 215.265 190.805 215.38 190.973C216.296 192.314 216.333 192.446 217.262 195.827C217.416 196.38 217.596 197.025 217.806 197.783C219.577 204.149 218.084 217.096 210.686 224.869L209.918 225.841C209.898 225.868 209.875 225.894 209.85 225.918C203.498 232.399 195.89 237.144 187.859 239.636C187.419 239.769 186.977 239.899 186.535 240.025ZM166.97 167.069C146.938 172.641 135.165 193.435 140.725 213.423C144.313 226.326 153.322 235.514 165.436 238.635C179.871 242.353 196.365 236.996 208.486 224.649L209.254 223.682C209.269 223.66 209.288 223.639 209.311 223.619C216.163 216.44 217.625 204.081 216.012 198.282C215.801 197.524 215.62 196.874 215.467 196.322C214.583 193.107 214.583 193.107 213.844 192.022C213.729 191.854 213.598 191.669 213.452 191.446L212.884 190.672C212.825 190.593 212.78 190.506 212.749 190.414C206.472 171.595 186.787 161.557 166.97 167.069Z" fill="#64EDFF"/>
<path d="M174.274 179.473C193.479 174.132 212.604 182.571 216.985 198.325C221.366 214.074 209.345 231.176 190.14 236.518C170.929 241.861 151.81 233.42 147.429 217.671C143.048 201.917 155.063 184.817 174.274 179.473Z" fill="#00A4FF"/>
<path fill-rule="evenodd" clip-rule="evenodd" d="M190.356 237.266C170.764 242.715 151.177 234.014 146.689 217.879C142.2 201.739 154.483 184.179 174.075 178.73C193.662 173.282 213.252 181.977 217.742 198.117C222.229 214.252 209.943 231.818 190.356 237.266ZM174.49 180.221C155.724 185.441 143.925 202.145 148.185 217.463C152.445 232.776 171.174 240.989 189.94 235.77C208.705 230.55 220.505 213.846 216.245 198.533C211.985 183.215 193.255 175.002 174.49 180.221Z" fill="#64EDFF"/>
<path d="M189.206 233.145C206.054 228.459 216.698 213.827 212.981 200.463C209.264 187.099 192.593 180.064 175.746 184.75C158.899 189.436 148.254 204.068 151.971 217.432C155.688 230.796 172.359 237.831 189.206 233.145Z" fill="#6C6C6C"/>
<path fill-rule="evenodd" clip-rule="evenodd" d="M189.453 234.042C172.135 238.859 154.918 231.522 151.069 217.685C147.221 203.848 158.175 188.67 175.493 183.853C192.811 179.036 210.03 186.379 213.878 200.216C217.727 214.052 206.771 229.226 189.453 234.042ZM175.992 185.648C159.667 190.188 149.29 204.337 152.864 217.186C156.436 230.03 172.628 236.789 188.954 232.248C205.279 227.707 215.656 213.559 212.084 200.715C208.51 187.865 192.318 181.107 175.992 185.648Z" fill="#6C6C6C"/>
<path d="M212.618 198.222C212.774 199.164 212.879 200.125 212.929 201.101C213.091 204.222 212.686 207.253 211.807 210.1C212.362 210.693 212.847 211.317 213.256 211.956C210.534 221.373 201.661 229.81 189.618 233.159C187.472 233.756 185.329 234.157 183.217 234.386C168.01 234.428 155.765 228.126 155.334 219.702C155.208 217.319 156.045 215.006 157.651 212.884C156.482 210.138 155.772 207.169 155.614 204.042C155.521 202.272 155.612 200.535 155.868 198.841C160.104 192.479 167.269 187.237 176.158 184.764C192.033 180.349 207.748 186.339 212.618 198.222Z" fill="#B0401E"/>
<path fill-rule="evenodd" clip-rule="evenodd" d="M189.825 233.912C187.679 234.509 185.485 234.935 183.301 235.168C183.274 235.172 183.246 235.173 183.217 235.171C167.332 235.217 155.011 228.588 154.554 219.749C154.434 217.365 155.177 215.02 156.768 212.786C155.644 210.012 154.995 207.09 154.841 204.093C154.748 202.302 154.837 200.502 155.1 198.738C155.12 198.622 155.159 198.516 155.223 198.424C159.703 191.69 167.257 186.444 175.95 184.026C183.753 181.855 191.86 182.082 198.789 184.664C205.719 187.25 210.891 191.964 213.337 197.937C213.36 197.994 213.376 198.051 213.385 198.108C213.546 199.085 213.655 200.082 213.703 201.07C213.857 204.066 213.514 207.038 212.676 209.915C213.144 210.443 213.555 210.993 213.911 211.552C214.031 211.74 214.063 211.968 214.003 212.185C212.603 217.02 209.65 221.592 205.456 225.414C201.165 229.325 195.761 232.261 189.825 233.912ZM183.176 233.623C185.262 233.395 187.362 232.991 189.411 232.421C200.759 229.264 209.538 221.492 212.413 212.095C212.074 211.594 211.68 211.109 211.238 210.636C211.051 210.436 210.985 210.143 211.069 209.877C211.942 207.048 212.305 204.113 212.155 201.147C212.11 200.248 212.01 199.339 211.872 198.445C207.028 186.786 191.787 181.233 176.366 185.522C168.089 187.824 160.901 192.778 156.613 199.139C156.38 200.747 156.304 202.385 156.389 204.016C156.543 206.975 157.204 209.863 158.368 212.589C158.475 212.843 158.436 213.139 158.271 213.358C156.723 215.406 155.996 217.526 156.107 219.67C156.512 227.528 168.398 233.651 183.176 233.623Z" fill="#6C6C6C"/>
<path d="M174.074 188.048C177.719 187.861 181.095 189.182 183.599 191.462C185.859 188.81 189.163 187.054 192.918 186.863C202.807 186.356 211.312 199.077 203.737 208.3C206.553 207.364 209.653 208.056 211.808 210.101C212.363 210.695 212.847 211.319 213.257 211.958C210.534 221.375 201.661 229.811 189.618 233.161C187.472 233.758 185.329 234.159 183.217 234.388C168.011 234.43 155.765 228.128 155.334 219.704C155.208 217.321 156.045 215.007 157.652 212.885C159.805 211.043 162.478 210.296 165.672 210.644C163.338 208.407 161.82 205.315 161.641 201.831C161.266 194.592 166.833 188.418 174.074 188.048Z" fill="#FFCAA1"/>
<path fill-rule="evenodd" clip-rule="evenodd" d="M189.794 233.765C187.657 234.359 185.467 234.779 183.293 235.014C183.273 235.017 183.25 235.018 183.226 235.017C167.425 235.061 155.173 228.492 154.72 219.742C154.594 217.265 155.413 214.83 157.166 212.514C157.191 212.479 157.221 212.448 157.256 212.421C159.17 210.782 161.495 209.956 164.179 209.947C162.289 207.676 161.184 204.86 161.028 201.874C160.639 194.302 166.481 187.826 174.053 187.437C177.538 187.258 180.888 188.375 183.551 190.6C185.996 187.971 189.289 186.439 192.893 186.253C198.039 185.986 203.212 189.209 205.761 194.263C207.959 198.624 207.734 203.401 205.211 207.342C207.756 207.024 210.34 207.849 212.245 209.658C212.254 209.666 212.264 209.675 212.274 209.687C212.853 210.31 213.366 210.963 213.79 211.635C213.884 211.783 213.915 211.969 213.863 212.142C212.471 216.949 209.534 221.5 205.36 225.3C201.09 229.19 195.705 232.121 189.794 233.765ZM183.191 233.774C185.288 233.548 187.397 233.141 189.46 232.567C200.887 229.389 209.726 221.547 212.589 212.07C212.239 211.551 211.833 211.037 211.376 210.548C209.388 208.667 206.537 208.037 203.943 208.901C203.682 208.984 203.393 208.891 203.234 208.661C203.077 208.436 203.092 208.132 203.264 207.915C206.364 204.14 206.883 199.244 204.653 194.824C202.319 190.2 197.621 187.25 192.957 187.489C189.488 187.669 186.334 189.225 184.078 191.871C183.972 192 183.814 192.076 183.643 192.086C183.478 192.101 183.309 192.042 183.188 191.928C180.698 189.661 177.478 188.502 174.118 188.673C167.232 189.029 161.913 194.922 162.269 201.808C162.432 205.008 163.798 207.988 166.109 210.201C166.273 210.355 166.337 210.585 166.286 210.799C166.21 211.094 165.914 211.298 165.615 211.265C162.596 210.941 160.144 211.612 158.117 213.319C156.576 215.375 155.849 217.516 155.96 219.676C156.369 227.622 168.33 233.809 183.191 233.774Z" fill="#6C6C6C"/>
<path d="M213.401 200.483C214.45 204.252 214.357 208.123 213.301 211.846C212.907 211.245 212.445 210.662 211.924 210.096C212.803 207.254 213.204 204.225 213.04 201.099C213.002 200.278 212.917 199.464 212.804 198.658C213.028 199.254 213.228 199.862 213.401 200.483Z" fill="#FFCAA1"/>
<path fill-rule="evenodd" clip-rule="evenodd" d="M213.507 212.601C213.477 212.609 213.448 212.616 213.417 212.621C213.114 212.668 212.814 212.536 212.649 212.281C212.282 211.72 211.849 211.166 211.353 210.635C211.164 210.429 211.095 210.143 211.179 209.877C212.052 207.048 212.42 204.112 212.265 201.147C212.226 200.363 212.147 199.568 212.032 198.778C211.975 198.383 212.219 198.01 212.603 197.913C212.987 197.817 213.38 198.019 213.526 198.389C213.764 199.018 213.971 199.651 214.147 200.281C215.21 204.105 215.175 208.07 214.043 212.067C213.969 212.33 213.766 212.529 213.507 212.601ZM212.789 209.909C212.837 209.966 212.886 210.022 212.937 210.078C213.074 209.412 213.179 208.747 213.251 208.084C213.12 208.697 212.966 209.305 212.789 209.909Z" fill="#6C6C6C"/>
<path d="M213.537 210.937C213.076 210.85 212.647 210.69 212.253 210.467C212.144 210.34 212.037 210.222 211.923 210.096C212.643 207.762 213.043 205.296 213.075 202.759C213.327 202.683 213.596 202.624 213.867 202.596C214.33 205.38 214.191 208.195 213.537 210.937Z" fill="#FF9999"/>
<path fill-rule="evenodd" clip-rule="evenodd" d="M213.741 211.684C213.629 211.715 213.51 211.722 213.387 211.698C212.853 211.594 212.338 211.411 211.862 211.138C211.787 211.095 211.724 211.039 211.664 210.977C211.563 210.857 211.456 210.74 211.349 210.622C211.162 210.421 211.098 210.133 211.177 209.869C211.888 207.559 212.265 205.163 212.294 202.747C212.299 202.409 212.523 202.115 212.843 202.015C213.155 201.923 213.468 201.857 213.78 201.823C214.189 201.778 214.562 202.059 214.628 202.467C215.1 205.301 214.982 208.21 214.284 211.117C214.215 211.4 214.001 211.612 213.741 211.684ZM212.796 209.877C212.85 209.904 212.902 209.93 212.955 209.954C213.076 209.341 213.171 208.73 213.24 208.12C213.11 208.712 212.962 209.297 212.796 209.877Z" fill="#6C6C6C"/>
<path d="M185.288 214.542C185.01 214.619 184.697 214.538 184.497 214.309C183.856 213.576 182.825 213.357 181.942 213.761C181.554 213.937 181.095 213.764 180.914 213.378C180.737 212.99 180.909 212.526 181.297 212.349C182.812 211.659 184.565 212.036 185.66 213.285C185.945 213.606 185.912 214.095 185.591 214.379C185.502 214.456 185.396 214.512 185.288 214.542Z" fill="#6C6C6C"/>
<path d="M185.294 214.546C185.074 214.608 184.833 214.575 184.635 214.43C184.287 214.184 184.206 213.701 184.45 213.348C185.401 212.015 187.146 211.45 188.693 211.974C189.1 212.113 189.317 212.553 189.183 212.959C189.042 213.362 188.603 213.584 188.196 213.444C187.289 213.138 186.269 213.469 185.717 214.25C185.612 214.4 185.46 214.5 185.294 214.546Z" fill="#6C6C6C"/>
<path d="M185.376 219.576C185.32 219.591 185.265 219.6 185.209 219.601C184.779 219.626 184.413 219.296 184.389 218.871C184.264 216.488 184.227 215.523 184.187 213.691C184.178 213.261 184.516 212.904 184.945 212.895C185.375 212.886 185.728 213.231 185.736 213.655C185.776 215.467 185.816 216.425 185.941 218.787C185.959 219.156 185.718 219.481 185.376 219.576Z" fill="#6C6C6C"/>
<g opacity="0.3">
<g opacity="0.3">
<path opacity="0.3" d="M163.909 216.208C165.604 219.518 169.717 221.73 173.317 223.747C166.705 222.787 163.008 220.811 162.229 217.818C161.756 215.779 161.344 215.546 163.909 216.208Z" fill="#6C6C6C"/>
</g>
</g>
<path fill-rule="evenodd" clip-rule="evenodd" d="M189.825 233.912C187.679 234.509 185.485 234.935 183.301 235.168C183.274 235.172 183.246 235.173 183.217 235.171C167.332 235.217 155.011 228.588 154.554 219.749C154.434 217.365 155.177 215.02 156.768 212.786C155.644 210.012 154.995 207.09 154.841 204.093C154.748 202.302 154.837 200.502 155.1 198.738C155.12 198.622 155.159 198.516 155.223 198.424C159.703 191.69 167.257 186.444 175.95 184.026C183.753 181.855 191.86 182.082 198.789 184.664C205.719 187.25 210.891 191.964 213.337 197.937C213.36 197.994 213.376 198.051 213.385 198.108C213.546 199.085 213.655 200.082 213.703 201.07C213.857 204.066 213.514 207.038 212.676 209.915C213.144 210.443 213.555 210.993 213.911 211.552C214.031 211.74 214.063 211.968 214.003 212.185C212.603 217.02 209.65 221.592 205.456 225.414C201.165 229.325 195.761 232.261 189.825 233.912ZM183.176 233.623C185.262 233.395 187.362 232.991 189.411 232.421C200.759 229.264 209.538 221.492 212.413 212.095C212.074 211.594 211.68 211.109 211.238 210.636C211.051 210.436 210.985 210.143 211.069 209.877C211.942 207.048 212.305 204.113 212.155 201.147C212.11 200.248 212.01 199.339 211.872 198.445C207.028 186.786 191.787 181.233 176.366 185.522C168.089 187.824 160.901 192.778 156.613 199.139C156.38 200.747 156.304 202.385 156.389 204.016C156.543 206.975 157.204 209.863 158.368 212.589C158.475 212.843 158.436 213.139 158.271 213.358C156.723 215.406 155.996 217.526 156.107 219.67C156.512 227.528 168.398 233.651 183.176 233.623Z" fill="#6C6C6C"/>
<path d="M138.76 200.886C142.825 200.351 146.63 203.765 147.256 208.516C147.882 213.267 145.096 217.55 141.031 218.086C136.967 218.626 133.161 215.207 132.535 210.456C131.909 205.705 134.7 201.421 138.76 200.886Z" fill="white"/>
<path fill-rule="evenodd" clip-rule="evenodd" d="M142.179 218.808C141.847 218.901 141.506 218.969 141.157 219.014C138.921 219.309 136.689 218.576 134.878 216.952C133.109 215.363 131.952 213.098 131.621 210.583C130.924 205.33 134.083 200.569 138.645 199.964C143.213 199.363 147.494 203.145 148.186 208.399C148.517 210.914 147.987 213.401 146.692 215.394C145.57 217.117 143.993 218.304 142.179 218.808ZM138.137 201.965C135.003 202.837 132.947 206.411 133.466 210.339C133.738 212.417 134.681 214.273 136.121 215.568C137.523 216.822 139.225 217.391 140.917 217.168C142.604 216.947 144.104 215.955 145.13 214.379C146.184 212.754 146.613 210.717 146.341 208.638C145.78 204.406 142.436 201.343 138.889 201.808C138.632 201.845 138.382 201.897 138.137 201.965Z" fill="#64EDFF"/>
<path d="M137.882 217.727C135.16 216.709 132.995 213.945 132.533 210.466C132.017 206.527 133.845 202.91 136.798 201.483C136.955 201.44 137.12 201.409 137.288 201.389C140.525 200.963 143.627 204.293 144.23 208.829C144.827 213.362 142.691 217.385 139.454 217.812C138.922 217.886 138.396 217.853 137.882 217.727Z" fill="white"/>
<path fill-rule="evenodd" clip-rule="evenodd" d="M140.264 218.438C140.033 218.503 139.799 218.55 139.561 218.581C138.947 218.663 138.322 218.631 137.706 218.481C137.676 218.475 137.645 218.466 137.614 218.454C134.545 217.306 132.251 214.209 131.77 210.566C131.223 206.404 133.149 202.381 136.464 200.78C136.511 200.759 136.561 200.742 136.613 200.728C136.81 200.678 137.005 200.64 137.193 200.614C140.842 200.136 144.344 203.771 145.001 208.725C145.312 211.077 144.943 213.387 143.969 215.222C143.081 216.897 141.78 218.017 140.264 218.438ZM138.111 216.983C138.527 217.078 138.949 217.098 139.355 217.043C140.665 216.868 141.815 215.963 142.598 214.497C143.423 212.94 143.732 210.963 143.461 208.926C142.919 204.821 140.199 201.785 137.394 202.154C137.286 202.17 137.178 202.19 137.068 202.213C134.391 203.553 132.849 206.89 133.31 210.364C133.714 213.428 135.593 216.019 138.111 216.983Z" fill="#64EDFF"/>
<path d="M160.695 175.25C162.786 178.677 161.158 179.678 157.438 178.047C154.692 176.846 151.8 176.676 149.079 176.743C145.921 174.65 148.041 170.262 153.076 170.827C155.568 170.961 158.702 171.985 160.695 175.25Z" fill="white"/>
<path fill-rule="evenodd" clip-rule="evenodd" d="M161.092 179.643C160.143 179.907 158.795 179.661 157.066 178.898C154.355 177.714 151.519 177.612 149.103 177.674C148.913 177.674 148.725 177.621 148.564 177.518C146.936 176.438 146.278 174.656 146.887 172.985C147.543 171.175 149.738 169.522 153.156 169.898C155.242 170.013 159.075 170.802 161.494 174.764C162.668 176.692 162.867 178.128 162.077 179.038C161.818 179.331 161.49 179.533 161.092 179.643ZM149.372 175.802C151.795 175.761 154.88 175.909 157.814 177.194C159.776 178.055 160.569 177.898 160.677 177.81C160.672 177.811 160.862 177.3 159.904 175.733C157.92 172.482 154.746 171.848 153.03 171.756C153.012 171.754 152.994 171.752 152.976 171.75C150.545 171.478 149.048 172.495 148.634 173.621C148.346 174.423 148.611 175.203 149.372 175.802Z" fill="#64EDFF"/>
<path d="M201.704 172.506C202.053 173.341 201.503 174.3 200.686 174.696C199.875 175.095 198.772 174.954 198.335 174.159C196.545 170.907 193.162 168.176 189.667 166.841C193.081 163.489 197.633 162.602 201.704 172.506Z" fill="white"/>
<path fill-rule="evenodd" clip-rule="evenodd" d="M200.592 175.723C199.482 176.032 198.129 175.733 197.511 174.61C195.891 171.663 192.753 169.017 189.33 167.714C189.036 167.601 188.817 167.346 188.751 167.032C188.686 166.724 188.781 166.402 189.009 166.181C191.106 164.118 193.219 163.287 195.285 163.708C198.04 164.275 200.488 167.113 202.564 172.151C203.073 173.394 202.428 174.88 201.092 175.531C200.935 175.612 200.763 175.675 200.592 175.723ZM191.39 166.578C194.65 168.168 197.543 170.803 199.143 173.713C199.313 174.024 199.889 174.048 200.274 173.862C200.658 173.671 200.982 173.207 200.839 172.862C199.045 168.494 196.991 165.957 194.913 165.534C193.807 165.305 192.625 165.66 191.39 166.578Z" fill="#64EDFF"/>
<g opacity="0.3">
<g opacity="0.3">
<path opacity="0.3" d="M135.812 210.303C136.16 213.599 138.113 216.511 141.028 218.092C136.689 218.208 132.985 214.967 132.526 210.648C132.068 206.33 135.005 202.384 139.277 201.586C136.757 203.74 135.463 207.003 135.812 210.303Z" fill="#6C6C6C"/>
</g>
</g>
<g opacity="0.3">
<g opacity="0.3">
<path opacity="0.3" d="M197.724 174.757C195.089 172.34 191.599 170.448 187.254 169.083C184.959 166.287 185.767 165.535 189.682 166.827C192.097 167.251 194.78 169.892 197.724 174.757Z" fill="#6C6C6C"/>
</g>
</g>
<g opacity="0.3">
<g opacity="0.3">
<path opacity="0.3" d="M148.054 172.683C148.789 171.462 150.33 170.996 151.616 171.608C150.778 171.472 149.971 171.981 149.734 172.795C149.503 173.612 149.845 174.745 150.688 174.805C154.169 175.065 157.606 175.852 160.978 177.975C159.581 178.521 155.515 177.974 148.779 176.332C147.633 175.486 147.319 173.904 148.054 172.683Z" fill="#6C6C6C"/>
</g>
</g>
<g opacity="0.3">
<g opacity="0.3">
<path opacity="0.3" d="M191.384 165.759C196.597 168.01 199.405 170.943 199.81 174.556C197.091 171.713 194.078 169.25 190.77 167.167C190.681 167.189 190.886 166.719 191.384 165.759Z" fill="#6C6C6C"/>
</g>
</g>
<g opacity="0.3">
<g opacity="0.3">
<path opacity="0.3" d="M212.69 211.154C210.062 220.682 201.13 229.251 188.97 232.633C172.121 237.319 155.452 230.282 151.735 216.92C150.043 210.837 151.323 204.492 154.816 198.943C153.798 202.613 153.722 206.432 154.756 210.148C158.473 223.511 175.147 230.546 191.996 225.86C194.528 225.155 196.92 224.227 199.142 223.108C198.287 223.025 197.405 222.902 196.496 222.722C199.689 221.891 202.813 220.516 205.868 218.598C205.857 218.67 205.839 218.738 205.831 218.804C208.612 216.55 210.935 213.955 212.69 211.154Z" fill="#6C6C6C"/>
</g>
</g>
<path fill-rule="evenodd" clip-rule="evenodd" d="M189.136 233.23C171.984 238.001 154.936 230.759 151.133 217.088C147.331 203.417 158.192 188.413 175.343 183.642C192.495 178.872 209.543 186.114 213.346 199.784C217.148 213.455 206.288 228.46 189.136 233.23ZM175.675 184.835C159.183 189.422 148.713 203.744 152.331 216.755C155.95 229.765 172.311 236.619 188.803 232.032C205.294 227.445 215.767 213.128 212.148 200.118C208.529 187.107 192.167 180.248 175.675 184.835Z" fill="#6C6C6C"/>
<path d="M198.652 204.103C198.421 207.117 196.659 209.324 194.713 209.033C192.772 208.74 191.379 206.062 191.61 203.048C191.841 200.034 193.603 197.827 195.549 198.118C197.495 198.409 198.883 201.088 198.652 204.103Z" fill="#6C6C6C"/>
<path d="M197.099 200.741C197.404 201.741 197.15 202.76 196.536 203.015C195.921 203.265 195.177 202.655 194.871 201.65C194.572 200.648 194.824 199.625 195.439 199.374C196.055 199.124 196.798 199.734 197.099 200.741Z" fill="white"/>
<path d="M194.415 206.261C194.669 206.738 194.642 207.304 194.356 207.525C194.064 207.744 193.622 207.535 193.368 207.058C193.114 206.58 193.141 206.015 193.432 205.791C193.719 205.575 194.162 205.783 194.415 206.261Z" fill="white"/>
<path d="M173.533 199.843C175.387 199.406 177.258 201.398 177.713 204.285C178.175 207.175 177.043 209.865 175.192 210.296C173.343 210.731 171.467 208.74 171.012 205.854C170.556 202.962 171.683 200.273 173.533 199.843Z" fill="#6C6C6C"/>
<path d="M173.758 201.029C174.37 201.223 174.695 202.186 174.481 203.177C174.267 204.169 173.6 204.819 172.986 204.62C172.374 204.427 172.049 203.464 172.263 202.472C172.477 201.481 173.146 200.836 173.758 201.029Z" fill="white"/>
<path d="M176.172 207.076C176.473 207.266 176.545 207.809 176.336 208.289C176.127 208.769 175.719 209.008 175.419 208.818C175.123 208.626 175.051 208.083 175.26 207.603C175.469 207.124 175.878 206.889 176.172 207.076Z" fill="white"/>
<g opacity="0.2">
<g opacity="0.2">
<g opacity="0.2">
<path opacity="0.2" d="M156.484 209.511C156.005 207.753 155.709 205.929 155.611 204.044C155.519 202.273 155.61 200.536 155.866 198.842C160.101 192.481 167.266 187.238 176.155 184.766C192.031 180.35 207.746 186.341 212.615 198.224C212.772 199.165 212.876 200.127 212.926 201.103C212.93 201.154 212.928 201.203 212.931 201.254C207.609 190.034 192.336 184.495 176.91 188.786C168.021 191.258 160.856 196.501 156.62 202.862C156.364 204.556 156.273 206.293 156.366 208.064C156.391 208.552 156.434 209.03 156.484 209.511Z" fill="#6C6C6C"/>
</g>
</g>
<g opacity="0.2">
<g opacity="0.2">
<path opacity="0.2" d="M213.165 211.816C213.2 211.864 213.234 211.913 213.264 211.962C213.098 212.539 212.909 213.111 212.698 213.679C212.876 213.066 213.034 212.442 213.165 211.816Z" fill="#6C6C6C"/>
</g>
</g>
<g opacity="0.2">
<g opacity="0.2">
<path opacity="0.2" d="M156.087 222.868C155.653 221.856 155.395 220.795 155.339 219.704C155.227 217.539 155.907 215.438 157.232 213.479C157.548 214.655 157.94 215.799 158.412 216.906C156.998 218.774 156.183 220.787 156.087 222.868Z" fill="#6C6C6C"/>
</g>
</g>
</g>
<path fill-rule="evenodd" clip-rule="evenodd" d="M170.094 157.031C169.421 160.089 169.993 163.082 170.734 164.931L172.423 164.254C171.79 162.674 171.291 160.056 171.871 157.423C172.441 154.837 174.056 152.192 177.751 150.444L176.973 148.8C172.742 150.8 170.779 153.926 170.094 157.031Z" fill="#64EDFF"/>
<path d="M173.771 150.325C174.237 151.999 175.972 152.979 177.646 152.513C179.32 152.047 180.3 150.312 179.834 148.638C179.369 146.964 177.634 145.984 175.96 146.45C174.285 146.915 173.305 148.65 173.771 150.325Z" fill="#64EDFF"/>
<path fill-rule="evenodd" clip-rule="evenodd" d="M162.068 153.756C162.067 153.756 162.07 153.764 162.079 153.78C162.073 153.765 162.068 153.756 162.068 153.756ZM162.601 154.334C163.01 154.253 163.555 154.195 164.24 154.183C166.223 154.148 168.966 154.497 171.969 155.281C174.971 156.066 177.535 157.102 179.247 158.102C179.839 158.448 180.286 158.765 180.603 159.035C180.194 159.116 179.649 159.174 178.964 159.186C176.981 159.221 174.238 158.872 171.236 158.087C168.233 157.303 165.67 156.267 163.957 155.267C163.366 154.921 162.919 154.604 162.601 154.334ZM181.351 158.792C181.35 158.792 181.342 158.797 181.329 158.808C181.345 158.798 181.352 158.793 181.351 158.792ZM181.137 159.613C181.138 159.613 181.135 159.605 181.125 159.589C181.131 159.604 181.136 159.613 181.137 159.613ZM161.875 154.561C161.859 154.571 161.853 154.576 161.853 154.577C161.854 154.577 161.862 154.572 161.875 154.561ZM170.776 159.848C164.544 158.22 159.862 155.485 160.319 153.738C160.775 151.99 166.197 151.893 172.428 153.521C178.66 155.148 183.342 157.884 182.886 159.631C182.429 161.378 177.008 161.475 170.776 159.848Z" fill="#64EDFF"/>
<path d="M186.962 218.434C149.31 214.42 103.424 189.686 85.187 177.82C88.4362 226.366 154.391 256.978 186.962 258.571C239.904 265.642 255.687 190.8 256.962 160.141C237.467 182.311 202.172 208.241 186.962 218.434Z" fill="url(#paint11_linear_9674_59074)"/>
<path d="M248.916 246.457C240.507 248.559 217.221 251.633 206.63 252.908C205.292 255.774 206.869 258.88 207.824 260.075C227.319 258.928 243.979 254.819 249.872 252.908C252.357 249.467 250.27 247.174 248.916 246.457Z" fill="#B88DF7"/>
<path d="M248.916 260.315C240.507 262.418 217.221 265.492 206.63 266.766C205.292 269.633 206.869 272.739 207.824 273.933C227.319 272.786 243.979 268.677 249.872 266.766C252.357 263.326 250.27 261.032 248.916 260.315Z" fill="url(#paint12_linear_9674_59074)"/>
</g>
<path d="M123.175 90.7492C109.57 90.477 98.3192 101.286 98.047 114.892C97.7748 128.498 108.584 139.748 122.19 140.02L134.666 140.27C140.861 147.352 153.02 161.233 155.242 160.122C157.19 159.147 156.547 151.878 155.845 143.942C155.743 142.795 155.64 141.634 155.544 140.476C167.65 139.131 177.178 128.987 177.428 116.48C177.7 102.874 166.891 91.6237 153.285 91.3515L123.175 90.7492Z" fill="#F97066"/>
<g clip-path="url(#clip0_9674_59074)">
<path d="M137.729 105.793C143.389 105.906 147.902 110.603 147.789 116.263C147.675 121.923 142.979 126.435 137.319 126.322C131.659 126.209 127.146 121.512 127.259 115.852C127.372 110.192 132.069 105.679 137.729 105.793ZM137.77 103.74C130.968 103.603 125.342 109.008 125.206 115.811C125.07 122.613 130.475 128.239 137.278 128.375C144.08 128.511 149.706 123.106 149.842 116.304C149.978 109.501 144.573 103.876 137.77 103.74ZM138.55 116.078L138.674 109.919L136.621 109.878L136.456 118.09L143.642 118.233L143.683 116.181L138.55 116.078Z" fill="white"/>
</g>
<path d="M309.84 168.17C309.84 179.01 318.698 187.798 329.623 187.798C340.549 187.798 349.404 179.01 349.404 168.17C349.404 157.33 340.549 148.544 329.623 148.544C318.698 148.544 309.84 157.33 309.84 168.17Z" fill="url(#paint13_radial_9674_59074)"/>
<path d="M313.794 167.974C313.794 168.754 313.851 169.529 313.959 170.28C313.96 170.282 313.96 170.285 313.96 170.287C314.067 171.041 314.229 171.777 314.439 172.494C314.781 173.686 315.265 174.818 315.861 175.878C316.291 176.646 316.782 177.374 317.327 178.056C320.328 181.819 324.968 184.231 330.18 184.231C331.097 184.231 332 184.155 332.876 184.009C333.536 183.903 334.181 183.757 334.807 183.571C336.522 183.073 338.122 182.302 339.554 181.304C339.804 181.133 340.051 180.95 340.289 180.763C341.34 179.95 342.282 179.006 343.104 177.965C343.189 177.859 343.269 177.749 343.35 177.64C343.914 176.887 344.414 176.079 344.843 175.232C345.516 173.895 346.013 172.451 346.293 170.934C346.419 170.248 346.503 169.546 346.541 168.83C346.554 168.545 346.562 168.259 346.562 167.974C346.562 167.291 346.518 166.618 346.437 165.961C346.389 165.585 346.33 165.216 346.257 164.847C346.257 164.846 346.257 164.845 346.257 164.844C346.257 164.842 346.257 164.841 346.257 164.84C345.873 162.889 345.136 161.064 344.117 159.427C343.884 159.055 343.638 158.693 343.377 158.343C342.374 156.994 341.167 155.802 339.801 154.815C337.101 152.868 333.775 151.717 330.18 151.717C328.544 151.717 326.961 151.954 325.474 152.4C323.872 152.875 322.372 153.584 321.02 154.498C320.734 154.688 320.45 154.888 320.177 155.097C319.179 155.862 318.273 156.735 317.485 157.703C317.29 157.936 317.102 158.175 316.925 158.419C316.318 159.244 315.791 160.126 315.353 161.057C315.135 161.503 314.943 161.964 314.77 162.432C314.547 163.049 314.359 163.68 314.208 164.329C314.208 164.33 314.208 164.331 314.208 164.333C314.208 164.334 314.208 164.335 314.208 164.336C314.074 164.91 313.975 165.494 313.905 166.088C313.843 166.629 313.806 167.177 313.798 167.733C313.794 167.813 313.794 167.894 313.794 167.974Z" fill="url(#paint14_linear_9674_59074)"/>
<path style="mix-blend-mode:overlay" d="M320.179 155.097C318.691 156.237 319.226 158.439 321.046 158.888C322.88 159.341 324.88 159.582 326.93 159.402C331.28 159.018 336.716 159.713 341.308 161.755C343.053 162.531 345.128 161.048 344.119 159.426C343.671 158.713 342.914 158.264 342.082 158.133C339.021 157.654 335.554 157.213 332.462 157.067C328.386 156.873 324.848 155.966 321.982 154.879C321.378 154.65 320.692 154.704 320.179 155.097Z" fill="url(#paint15_linear_9674_59074)"/>
<path style="mix-blend-mode:overlay" d="M314.209 164.331C314.209 164.331 314.209 164.332 314.209 164.332C314.209 164.334 314.21 164.336 314.211 164.337C315.377 165.01 316.827 165.718 318.635 166.411C321.522 167.521 326.796 168.519 330.664 169.635C332.288 170.101 336.129 168.848 337.577 169.28C339.081 169.724 340.527 170.663 341.83 171.834C343.372 173.22 345.917 172.974 346.293 170.935C346.54 169.59 346.111 168.202 345.113 167.268C342.879 165.179 339.455 163.441 334.398 164.057C328.276 164.804 321.581 163.178 316.763 161.552C315.958 161.28 315.065 161.635 314.771 162.432C314.547 163.05 314.359 163.682 314.209 164.331Z" fill="url(#paint16_linear_9674_59074)"/>
<path style="mix-blend-mode:overlay" d="M316.098 168.847C315.078 168.4 313.892 169.169 313.962 170.281C313.962 170.284 313.963 170.286 313.965 170.287C315.185 170.96 316.667 171.748 318.352 172.583C322.077 174.43 325.722 179.961 330.942 179.564C333.644 179.355 336.422 180.084 338.71 180.962C339.241 181.166 339.843 181.112 340.292 180.761C341.343 179.948 342.285 179.004 343.106 177.963C343.242 177.792 343.192 177.54 343.005 177.428C338.807 174.897 332.567 171.807 327.762 171.608C323.464 171.429 319.749 170.35 316.931 169.2C316.644 169.083 316.366 168.965 316.098 168.847Z" fill="url(#paint17_linear_9674_59074)"/>
<path style="mix-blend-mode:overlay" d="M330.179 151.717C328.404 151.717 328.199 153.662 329.923 154.087C330.574 154.247 331.23 154.379 331.883 154.486C334.517 154.916 335.148 152.253 332.506 151.88C331.746 151.772 330.969 151.717 330.179 151.717Z" fill="url(#paint18_linear_9674_59074)"/>
<path style="mix-blend-mode:overlay" d="M324.925 180.732C323.071 180.495 321.981 182.176 323.701 182.911C325.688 183.761 327.878 184.231 330.18 184.231C331.178 184.231 331.454 183.059 330.57 182.594C329.071 181.805 327.108 181.01 324.925 180.732Z" fill="url(#paint19_linear_9674_59074)"/>
<path d="M270.318 252.185C270.318 268.672 283.69 282.032 300.182 282.032C316.674 282.032 330.046 268.672 330.046 252.185C330.046 235.702 316.674 222.342 300.182 222.342C283.69 222.342 270.318 235.702 270.318 252.185Z" fill="url(#paint20_radial_9674_59074)"/>
<path d="M277.534 246.907C277.325 248.192 277.237 249.467 277.261 250.724C277.307 253.777 278.005 256.716 279.231 259.378C279.741 260.473 280.326 261.514 281.003 262.505C284.234 267.254 289.343 270.713 295.462 271.698C299.837 272.402 304.106 271.747 307.855 270.037C312.199 268.065 315.826 264.679 318.08 260.384C319.132 258.366 319.887 256.153 320.266 253.787C320.347 253.284 320.408 252.782 320.457 252.279C320.51 251.648 320.546 251.022 320.546 250.395C320.546 248.915 320.404 247.467 320.113 246.054C319.462 242.803 318.062 239.779 316.085 237.194C312.843 232.959 308.032 229.907 302.346 228.99C296.797 228.097 291.405 229.4 287.043 232.247C286.282 232.754 285.548 233.306 284.847 233.901C283.982 234.634 283.171 235.445 282.423 236.32C279.936 239.237 278.19 242.849 277.534 246.907Z" fill="url(#paint21_linear_9674_59074)"/>
<g style="mix-blend-mode:overlay" opacity="0.38">
<path d="M284.844 233.902C288.398 235.056 293.043 236.632 297.255 238.271C302.187 240.19 312.515 243.593 320.111 246.054C319.459 242.804 318.06 239.78 316.083 237.195C312.766 236.129 309.053 235.371 305.525 235.562C299.799 235.878 292.341 233.944 287.041 232.248C286.279 232.754 285.546 233.307 284.844 233.902Z" fill="white"/>
</g>
<g style="mix-blend-mode:overlay" opacity="0.38">
<path d="M320.546 250.395C319.171 249.722 307.32 247.512 300.33 245.083C295.171 243.284 286.948 238.851 282.423 236.319C279.936 239.237 278.19 242.849 277.534 246.907C277.325 248.192 277.237 249.467 277.261 250.724C283.607 250.434 292.16 249.942 298.53 249.212C307.476 248.182 316.801 250.997 320.457 252.279L320.546 250.395Z" fill="white"/>
</g>
<g style="mix-blend-mode:overlay" opacity="0.38">
<path d="M279.229 259.378C279.739 260.473 280.324 261.514 281 262.505L296.501 264.913L307.853 270.037C312.196 268.064 315.824 264.679 318.078 260.384C316.203 259.524 313.16 258.837 308.196 258.975C300.157 259.194 291.328 259.371 281.706 259.502L279.229 259.378Z" fill="white"/>
</g>
<path d="M280.012 239.776C279.477 240.729 279.016 241.727 278.627 242.772C273.812 242.708 270.8 243.158 270.637 244.163C270.481 245.141 273.046 246.469 277.404 247.871C282.595 249.535 290.318 251.298 299.02 252.701C307.204 254.018 314.669 254.762 320.058 254.885C325.224 254.999 328.487 254.553 328.657 253.505C328.827 252.435 325.709 250.93 320.526 249.376C320.473 248.264 320.338 247.159 320.122 246.086C330.102 249.075 336.487 252.538 336.051 255.243C335.626 257.885 328.795 259.167 318.761 258.947C312.845 258.823 305.815 258.168 298.333 256.964C290.407 255.689 283.162 253.979 277.326 252.127C268.313 249.262 262.662 246.037 263.069 243.491C263.491 240.881 270.177 239.592 280.012 239.776Z" fill="url(#paint22_linear_9674_59074)"/>
<defs>
<radialGradient id="paint0_radial_9674_59074" cx="0" cy="0" r="1" gradientUnits="userSpaceOnUse" gradientTransform="translate(280.062 104.562) rotate(180) scale(17.5276 17.5178)">
<stop stop-color="#FEE7CA"/>
<stop offset="1" stop-color="#FEE7CA" stop-opacity="0"/>
</radialGradient>
<linearGradient id="paint1_linear_9674_59074" x1="274.748" y1="128.273" x2="298.076" y2="109.895" gradientUnits="userSpaceOnUse">
<stop offset="0.137" stop-color="#A8658F"/>
<stop offset="1" stop-color="#F7D3A1"/>
</linearGradient>
<linearGradient id="paint2_linear_9674_59074" x1="294.8" y1="91.6922" x2="269.308" y2="91.6922" gradientUnits="userSpaceOnUse">
<stop stop-color="white" stop-opacity="0.78"/>
<stop offset="1" stop-color="white" stop-opacity="0"/>
</linearGradient>
<linearGradient id="paint3_linear_9674_59074" x1="295.051" y1="97.5461" x2="266.402" y2="97.5461" gradientUnits="userSpaceOnUse">
<stop stop-color="white" stop-opacity="0.78"/>
<stop offset="1" stop-color="white" stop-opacity="0"/>
</linearGradient>
<linearGradient id="paint4_linear_9674_59074" x1="292.224" y1="103.504" x2="266.04" y2="103.504" gradientUnits="userSpaceOnUse">
<stop stop-color="white" stop-opacity="0.78"/>
<stop offset="1" stop-color="white" stop-opacity="0"/>
</linearGradient>
<linearGradient id="paint5_linear_9674_59074" x1="289.081" y1="89.2393" x2="276.387" y2="89.2393" gradientUnits="userSpaceOnUse">
<stop stop-color="white" stop-opacity="0.78"/>
<stop offset="1" stop-color="white" stop-opacity="0"/>
</linearGradient>
<linearGradient id="paint6_linear_9674_59074" x1="282.945" y1="112.718" x2="269.167" y2="112.718" gradientUnits="userSpaceOnUse">
<stop stop-color="white" stop-opacity="0.78"/>
<stop offset="1" stop-color="white" stop-opacity="0"/>
</linearGradient>
<linearGradient id="paint7_linear_9674_59074" x1="168.965" y1="300.994" x2="168.965" y2="42.2162" gradientUnits="userSpaceOnUse">
<stop stop-color="#774BF0" stop-opacity="0.31"/>
<stop offset="1" stop-color="#FCFBFF" stop-opacity="0"/>
</linearGradient>
<linearGradient id="paint8_linear_9674_59074" x1="168.966" y1="300.994" x2="168.966" y2="42.2161" gradientUnits="userSpaceOnUse">
<stop stop-color="#774BF0"/>
<stop offset="1" stop-color="#FCFBFF"/>
</linearGradient>
<linearGradient id="paint9_linear_9674_59074" x1="174.698" y1="160.929" x2="174.698" y2="294.717" gradientUnits="userSpaceOnUse">
<stop stop-color="#CDC0CB"/>
<stop offset="1" stop-color="#E4D2D1"/>
</linearGradient>
<linearGradient id="paint10_linear_9674_59074" x1="171.433" y1="121.676" x2="171.433" y2="221.541" gradientUnits="userSpaceOnUse">
<stop stop-color="#8640EC" stop-opacity="0"/>
<stop offset="1" stop-color="#D8CBFB"/>
</linearGradient>
<linearGradient id="paint11_linear_9674_59074" x1="142.047" y1="189.287" x2="217.781" y2="242.086" gradientUnits="userSpaceOnUse">
<stop stop-color="#F6EAE9"/>
<stop offset="1" stop-color="#F6EAE9"/>
</linearGradient>
<linearGradient id="paint12_linear_9674_59074" x1="228.572" y1="260.315" x2="228.572" y2="273.933" gradientUnits="userSpaceOnUse">
<stop stop-color="#F8BB85"/>
<stop offset="1" stop-color="#F8BB85"/>
</linearGradient>
<radialGradient id="paint13_radial_9674_59074" cx="0" cy="0" r="1" gradientUnits="userSpaceOnUse" gradientTransform="translate(329.623 168.171) rotate(180) scale(19.7819 19.627)">
<stop stop-color="#FEE7CA"/>
<stop offset="1" stop-color="#FEE7CA" stop-opacity="0"/>
</radialGradient>
<linearGradient id="paint14_linear_9674_59074" x1="323.625" y1="194.738" x2="349.806" y2="173.961" gradientUnits="userSpaceOnUse">
<stop offset="0.137" stop-color="#3C74DA"/>
<stop offset="1" stop-color="#DD94FF"/>
</linearGradient>
<linearGradient id="paint15_linear_9674_59074" x1="346.258" y1="153.752" x2="317.486" y2="153.752" gradientUnits="userSpaceOnUse">
<stop stop-color="white" stop-opacity="0.78"/>
<stop offset="1" stop-color="white" stop-opacity="0"/>
</linearGradient>
<linearGradient id="paint16_linear_9674_59074" x1="346.541" y1="160.312" x2="314.208" y2="160.312" gradientUnits="userSpaceOnUse">
<stop stop-color="white" stop-opacity="0.78"/>
<stop offset="1" stop-color="white" stop-opacity="0"/>
</linearGradient>
<linearGradient id="paint17_linear_9674_59074" x1="343.353" y1="166.985" x2="313.801" y2="166.985" gradientUnits="userSpaceOnUse">
<stop stop-color="white" stop-opacity="0.78"/>
<stop offset="1" stop-color="white" stop-opacity="0"/>
</linearGradient>
<linearGradient id="paint18_linear_9674_59074" x1="339.799" y1="151.005" x2="325.473" y2="151.005" gradientUnits="userSpaceOnUse">
<stop stop-color="white" stop-opacity="0.78"/>
<stop offset="1" stop-color="white" stop-opacity="0"/>
</linearGradient>
<linearGradient id="paint19_linear_9674_59074" x1="332.877" y1="177.31" x2="317.327" y2="177.31" gradientUnits="userSpaceOnUse">
<stop stop-color="white" stop-opacity="0.78"/>
<stop offset="1" stop-color="white" stop-opacity="0"/>
</linearGradient>
<radialGradient id="paint20_radial_9674_59074" cx="0" cy="0" r="1" gradientUnits="userSpaceOnUse" gradientTransform="translate(300.182 252.187) scale(29.8633 29.8467)">
<stop stop-color="#FBB53F"/>
<stop offset="1" stop-color="#FBB53F" stop-opacity="0"/>
</radialGradient>
<linearGradient id="paint21_linear_9674_59074" x1="292.794" y1="283.439" x2="329.14" y2="257.166" gradientUnits="userSpaceOnUse">
<stop stop-color="#FBB53F"/>
<stop offset="1" stop-color="#FD5E0F"/>
</linearGradient>
<linearGradient id="paint22_linear_9674_59074" x1="337.781" y1="260.871" x2="337.259" y2="246.519" gradientUnits="userSpaceOnUse">
<stop stop-color="#FBB53F"/>
<stop offset="1" stop-color="#F7D3A1"/>
</linearGradient>
<clipPath id="clip0_9674_59074">
<rect width="24.6404" height="24.6404" fill="white" transform="translate(125.453 103.493) rotate(1.14604)"/>
</clipPath>
</defs>
</svg>
