<svg width="272" height="192" viewBox="0 0 272 192" fill="none" xmlns="http://www.w3.org/2000/svg">
<rect width="272" height="190" transform="translate(0 1.11621)" fill="white"/>
<ellipse opacity="0.3" cx="53.2208" cy="155.261" rx="29.4845" ry="29.5467" fill="#C4FCF8"/>
<ellipse opacity="0.3" cx="53.2205" cy="155.261" rx="32.4207" ry="32.4891" fill="#C4FCF8"/>
<g filter="url(#filter0_f_27319_77432)">
<ellipse cx="53.2203" cy="155.261" rx="27.0377" ry="27.0947" fill="url(#paint0_radial_27319_77432)"/>
</g>
<g opacity="0.9">
<path d="M53.6639 130.552C53.8787 130.552 54.0529 130.447 54.0529 130.318C54.0529 130.189 53.8787 130.084 53.6639 130.084C53.4491 130.084 53.2749 130.189 53.2749 130.318C53.2749 130.404 53.3518 130.479 53.4667 130.519C53.5245 130.54 53.592 130.552 53.6639 130.552Z" fill="#BFD3E9"/>
<path d="M48.739 132.007C48.6139 132.039 48.4704 131.895 48.4185 131.686C48.3665 131.477 48.4259 131.282 48.5509 131.251C48.6759 131.22 48.8194 131.364 48.8714 131.573C48.9234 131.781 48.8641 131.976 48.739 132.007Z" fill="#BFD3E9"/>
<path d="M56.6472 132.222C56.9112 132.186 57.1079 132.029 57.0864 131.87C57.065 131.711 56.8336 131.611 56.5695 131.647C56.3055 131.683 56.1088 131.841 56.1302 132C56.1517 132.158 56.3832 132.258 56.6472 132.222Z" fill="#BFD3E9"/>
<path d="M46.7762 131.714L46.8592 131.722C47.5203 131.781 48.4155 131.921 48.3273 132.58C48.2448 133.197 47.4759 133.267 46.8592 133.193C46.1849 133.112 45.2369 132.711 45.5134 132.09C45.724 131.616 46.2582 131.666 46.7762 131.714Z" fill="#BFD3E9"/>
<path d="M50.6518 134.91C50.9558 133.878 52.1499 133.853 53.221 133.929C54.2442 134.001 55.3916 134.138 55.5455 135.155C55.7146 136.272 54.3479 136.833 53.221 136.871C51.9603 136.914 50.2946 136.122 50.6518 134.91Z" fill="#BFD3E9"/>
<path d="M69.3785 137.309L69.4363 137.322C69.4959 137.336 69.5555 137.349 69.6149 137.362L69.7429 137.389C70.8909 137.637 72.1729 137.913 72.1841 139.078C72.197 140.43 70.3133 140.748 69.0032 140.427C67.6839 140.103 66.0819 138.884 66.801 137.729C67.3452 136.856 68.3688 137.084 69.3785 137.309Z" fill="#BFD3E9"/>
<path d="M72.7958 145.944C72.0519 145.342 70.9854 145.229 70.3489 145.944C69.6141 146.768 70.2125 148.159 71.2053 148.641C71.9414 148.998 72.7443 149.01 73.2852 148.396C73.9296 147.663 73.5543 146.557 72.7958 145.944Z" fill="#BFD3E9"/>
<path d="M40.1304 168.502C38.8047 167.635 37.1449 166.949 36.0931 168.134C34.9484 169.424 36.164 171.293 37.5612 172.303C38.9949 173.339 41.242 173.858 42.0879 172.303C42.8853 170.836 41.526 169.415 40.1304 168.502Z" fill="#BFD3E9"/>
<path d="M40.9868 175.981C41.3139 175.335 42.2863 175.739 42.8219 176.226C43.3033 176.663 43.7034 177.3 43.3113 177.82C42.8636 178.412 41.9851 177.87 41.4761 177.329C41.0923 176.922 40.7337 176.48 40.9868 175.981Z" fill="#BFD3E9"/>
<path d="M48.939 175.736C48.5452 175.464 48.037 175.381 47.7156 175.736C47.3491 176.139 47.6336 176.775 48.0826 177.084C48.4763 177.355 48.9847 177.438 49.3061 177.084C49.6725 176.68 49.3879 176.045 48.939 175.736Z" fill="#BFD3E9"/>
<path d="M56.1572 177.084C56.4474 176.451 57.1803 176.503 57.87 176.594C58.685 176.701 59.7584 177.015 59.5828 177.82C59.4273 178.532 58.5945 178.623 57.87 178.555C56.9927 178.474 55.7896 177.886 56.1572 177.084Z" fill="#BFD3E9"/>
<path d="M64.2318 171.199C62.6079 171.304 61.0165 172.266 61.0509 173.897C61.0884 175.678 63.2235 176.581 64.9659 176.226C66.4901 175.915 67.8712 174.828 67.6574 173.284C67.4422 171.73 65.7936 171.099 64.2318 171.199Z" fill="#BFD3E9"/>
<path d="M34.5026 161.636C34.5026 161.84 34.2288 162.004 33.8909 162.004C33.553 162.004 33.2792 161.84 33.2792 161.636C33.2792 161.433 33.553 161.269 33.8909 161.269C34.2288 161.269 34.5026 161.433 34.5026 161.636Z" fill="#BFD3E9"/>
<path d="M54.279 180.371C54.5435 180.16 54.6555 179.86 54.5295 179.701C54.4033 179.542 54.0867 179.584 53.8222 179.795C53.5577 180.006 53.4456 180.305 53.5718 180.464C53.6978 180.623 54.0146 180.581 54.279 180.371Z" fill="#BFD3E9"/>
<path d="M51.4503 180.01C51.5763 180.169 51.551 180.4 51.3936 180.525C51.2362 180.651 51.0063 180.623 50.8803 180.464C50.7541 180.305 50.7794 180.075 50.9369 179.949C51.0942 179.824 51.3241 179.851 51.4503 180.01Z" fill="#BFD3E9"/>
<path d="M49.4362 179.235C49.5935 179.11 49.6188 178.88 49.4928 178.72C49.3666 178.561 49.1368 178.534 48.9794 178.66C48.8219 178.785 48.7966 179.016 48.9228 179.175C49.0034 179.276 49.1266 179.324 49.2461 179.313C49.3133 179.306 49.3794 179.281 49.4362 179.235Z" fill="#BFD3E9"/>
<path d="M53.2235 171.906C53.3241 172.033 53.3088 172.213 53.1895 172.308C53.0702 172.403 52.892 172.377 52.7914 172.251C52.6908 172.124 52.7061 171.944 52.8254 171.849C52.9447 171.754 53.1229 171.78 53.2235 171.906Z" fill="#BFD3E9"/>
<path d="M34.3803 139.2C34.7182 139.2 34.992 139.036 34.992 138.833C34.992 138.629 34.7182 138.465 34.3803 138.465C34.0424 138.465 33.7686 138.629 33.7686 138.833C33.7686 139.036 34.0424 139.2 34.3803 139.2Z" fill="#BFD3E9"/>
<path d="M43.556 135.645C43.556 135.848 43.2821 136.013 42.9442 136.013C42.6064 136.013 42.3325 135.848 42.3325 135.645C42.3325 135.442 42.6064 135.277 42.9442 135.277C43.2821 135.277 43.556 135.442 43.556 135.645Z" fill="#BFD3E9"/>
<path d="M60.6076 134.483C60.8917 134.666 61.2109 134.676 61.3206 134.506C61.4303 134.335 61.2889 134.048 61.0048 133.865C60.7208 133.681 60.4016 133.671 60.2918 133.842C60.1821 134.013 60.3236 134.3 60.6076 134.483Z" fill="#BFD3E9"/>
<path d="M65.9391 134.496C65.8412 134.648 65.5562 134.639 65.3027 134.476C65.0492 134.312 64.923 134.056 65.0208 133.903C65.1188 133.751 65.4038 133.76 65.6573 133.923C65.9108 134.087 66.037 134.343 65.9391 134.496Z" fill="#BFD3E9"/>
<path d="M68.1427 160.093C68.3432 160.223 68.5851 160.204 68.6831 160.051C68.781 159.899 68.6978 159.67 68.4973 159.541C68.2968 159.412 68.055 159.431 67.9571 159.583C67.8592 159.735 67.9422 159.964 68.1427 160.093Z" fill="#BFD3E9"/>
<path d="M73.0874 151.96C72.9895 152.112 72.7475 152.131 72.547 152.002C72.3466 151.872 72.2635 151.644 72.3614 151.491C72.4594 151.339 72.7012 151.32 72.9016 151.449C73.1021 151.579 73.1853 151.807 73.0874 151.96Z" fill="#BFD3E9"/>
<path d="M36.4601 147.905C36.4601 148.108 36.2958 148.273 36.0931 148.273C35.8903 148.273 35.726 148.108 35.726 147.905C35.726 147.702 35.8903 147.537 36.0931 147.537C36.2958 147.537 36.4601 147.702 36.4601 147.905Z" fill="#BFD3E9"/>
<path d="M32.1781 167.889C32.516 167.889 32.7898 167.724 32.7898 167.521C32.7898 167.318 32.516 167.153 32.1781 167.153C31.8402 167.153 31.5664 167.318 31.5664 167.521C31.5664 167.724 31.8402 167.889 32.1781 167.889Z" fill="#BFD3E9"/>
</g>
<g opacity="0.8">
<rect x="55.541" y="11.6902" width="180.653" height="123.839" rx="3.35731" fill="url(#paint1_linear_27319_77432)"/>
<g opacity="0.8">
<ellipse cx="93.0183" cy="80.5263" rx="8.21846" ry="8.2358" fill="#48A9EB"/>
<ellipse cx="93.0191" cy="80.5265" rx="6.51809" ry="6.53184" fill="white"/>
</g>
<g opacity="0.8">
<ellipse cx="8.21846" cy="8.2358" rx="8.21846" ry="8.2358" transform="matrix(-1 0 0 1 197.813 72.2913)" fill="#48A9EB"/>
<ellipse cx="6.51809" cy="6.53184" rx="6.51809" ry="6.53184" transform="matrix(-1 0 0 1 196.113 73.995)" fill="white"/>
</g>
<g opacity="0.8">
<ellipse cx="118.58" cy="80.5263" rx="7.08488" ry="7.09983" fill="#48A9EB"/>
<ellipse cx="118.579" cy="80.5264" rx="5.9513" ry="5.96385" fill="white"/>
<ellipse cx="118.58" cy="80.5262" rx="4.17257" ry="4.18138" fill="#69B3EF"/>
</g>
<g opacity="0.8">
<ellipse cx="7.08488" cy="7.09983" rx="7.08488" ry="7.09983" transform="matrix(-1 0 0 1 171.12 73.4265)" fill="#48A9EB"/>
<ellipse cx="5.9513" cy="5.96385" rx="5.9513" ry="5.96385" transform="matrix(-1 0 0 1 169.986 74.5625)" fill="white"/>
</g>
<g opacity="0.8">
<ellipse cx="141.307" cy="80.5265" rx="5.38451" ry="5.39587" fill="#48A9EB"/>
<ellipse cx="141.307" cy="80.5265" rx="4.25093" ry="4.2599" fill="white"/>
</g>
<rect opacity="0.7" x="101.2" y="34.568" width="89.83" height="4.47611" rx="2.23805" fill="white"/>
<rect opacity="0.7" x="77.3779" y="45.5096" width="137.475" height="4.47611" rx="2.23805" fill="white"/>
<rect opacity="0.7" x="77.3779" y="54.4618" width="137.475" height="4.47611" rx="2.23805" fill="white"/>
<rect x="55.541" y="11.675" width="180.653" height="10.4867" rx="3.35731" fill="url(#paint2_linear_27319_77432)"/>
<ellipse cx="209.611" cy="17.3792" rx="2.20308" ry="2.20773" fill="#6687FF"/>
<ellipse cx="219.973" cy="17.3792" rx="2.20308" ry="2.20773" fill="#6687FF"/>
<ellipse cx="230.335" cy="17.3792" rx="2.20308" ry="2.20773" fill="#FF786B"/>
</g>
<g opacity="0.9" filter="url(#filter1_f_27319_77432)">
<path d="M78.3704 163.629C77.4124 161.636 77.3442 160.345 77.1847 157.316L72.6557 139.577L65.0043 142.213C61.4303 143.704 55.2709 143.072 51.6104 141.008C47.3278 138.594 44.9908 135.529 44.1787 130.804" stroke="black" stroke-width="1.67866"/>
</g>
<mask id="mask0_27319_77432" style="mask-type:alpha" maskUnits="userSpaceOnUse" x="77" y="151" width="22" height="14">
<path d="M79.3551 164.257C82.6144 164.929 98.9427 161.768 98.777 157.116C98.76 156.666 98.6328 156.25 98.4042 155.862C97.3539 154.053 93.785 152.93 90.4864 152.278C87.1847 151.619 84.1456 151.427 84.1456 151.427L77.323 155.268C77.323 155.268 76.642 159.96 77.6695 162.578C78.0008 163.443 78.5406 164.086 79.3584 164.263L79.3551 164.257Z" fill="#D9D9D9"/>
</mask>
<g mask="url(#mask0_27319_77432)">
<path d="M77.7036 164.419C81.0971 165.061 99.6941 162.4 100.65 158.21C100.741 157.805 100.704 157.429 100.549 157.078C99.8448 155.438 97.0178 152.558 93.5764 151.934C90.133 151.304 86.0679 152.925 86.0679 152.925L76.0042 157.863C76.0042 157.863 75.7917 160.521 76.2737 162.889C76.4241 163.671 76.8561 164.256 77.7055 164.425L77.7036 164.419Z" fill="url(#paint3_linear_27319_77432)"/>
<path d="M77.8552 164.457C81.2267 165.093 99.7036 162.459 100.653 158.313C100.744 157.912 100.251 156.196 100.097 155.848C96.7994 157.785 88.2878 161.816 75.9787 161.599C76.1281 162.374 77.0131 164.296 77.8571 164.463L77.8552 164.457Z" fill="#3167D5"/>
</g>
<mask id="mask1_27319_77432" style="mask-type:alpha" maskUnits="userSpaceOnUse" x="97" y="137" width="20" height="15">
<path d="M102.834 151.867C105.834 151.443 118.135 143.741 116.052 139.819C115.85 139.44 115.57 139.123 115.217 138.862C113.585 137.639 110.138 137.773 107.113 138.226C104.084 138.675 101.468 139.442 101.468 139.442L97.3815 144.813C97.3815 144.813 98.7745 149.029 100.726 150.95C101.364 151.587 102.083 151.971 102.839 151.872L102.834 151.867Z" fill="#D9D9D9"/>
</mask>
<g mask="url(#mask1_27319_77432)">
<path d="M101.725 152.449C104.857 152.042 119.159 144.344 118.016 140.364C117.905 139.979 117.7 139.657 117.408 139.391C116.059 138.143 112.364 136.408 109.2 136.845C106.032 137.277 103.387 139.879 103.387 139.879L97.2682 147.139C97.2682 147.139 98.3219 149.551 99.8215 151.506C100.309 152.155 100.942 152.549 101.729 152.453L101.725 152.449Z" fill="url(#paint4_linear_27319_77432)"/>
<path d="M101.486 152.409C104.661 151.997 119.156 144.207 117.998 140.179C117.886 139.79 116.652 138.383 116.356 138.113C114.464 140.83 109.123 146.967 98.5316 150.374C99.0262 151.03 100.693 152.51 101.491 152.414L101.486 152.409Z" fill="#3167D5"/>
</g>
<path fill-rule="evenodd" clip-rule="evenodd" d="M45.4412 99.0557C43.9414 110.176 43.239 116.451 43.8919 128.194C44.2397 134.448 46.5862 138.176 51.6105 141.008C55.271 143.072 61.4304 143.704 65.0044 142.213C65.7798 141.89 66.4828 141.523 67.0845 141.132C70.9806 138.603 73.2249 134.943 77.2018 128.674C83.1081 127.309 87.8344 132.462 88.3239 139.687L98.0379 147.265L105.86 138.494C97.0938 128.706 92.0938 120.206 83.2291 116.494C80.0622 115.168 75.9314 115.334 73.4333 116.376C72.46 108 71.0003 105.918 68.1865 96.7235L45.4412 99.0557Z" fill="url(#paint5_linear_27319_77432)"/>
<path d="M77.2018 128.674C73.2249 134.943 70.9806 138.603 67.0845 141.132C66.4828 141.523 65.7798 141.89 65.0044 142.213L72.6558 139.576L77.1848 157.316L88.7933 152.406L88.3239 139.687C87.8344 132.462 83.1081 127.309 77.2018 128.674Z" fill="url(#paint6_linear_27319_77432)"/>
<g opacity="0.3" filter="url(#filter2_f_27319_77432)">
<path fill-rule="evenodd" clip-rule="evenodd" d="M63.8289 121.187C67.0089 119.146 68.6872 118.03 72.2892 116.846L73.4929 116.562C69.9422 117.729 67.2314 119.469 64.0563 121.507C63.2854 122.002 62.4871 122.514 61.6428 123.04L59.852 123.969C60.6857 123.45 63.0618 121.68 63.8289 121.187Z" fill="black"/>
</g>
<g opacity="0.9">
<path d="M55.2795 118.504C55.2887 118.49 55.112 118.535 54.8281 118.428C54.6794 118.37 54.5086 118.251 54.3589 118.055C54.2964 117.962 54.2296 117.844 54.1833 117.711C54.1505 117.59 54.1338 117.429 54.108 117.282C53.8885 116.029 53.5857 114.235 53.1984 112.025C53.1009 111.469 53.0028 110.887 52.9042 110.28C52.8526 109.986 52.9276 109.689 53.1081 109.469C53.2062 109.371 53.3178 109.283 53.4492 109.243C53.5786 109.191 53.7278 109.187 53.8862 109.17C55.0856 109.037 56.3642 108.895 57.722 108.744C60.4263 108.444 63.4022 108.113 66.5138 107.768C66.8872 107.726 67.2853 107.957 67.4743 108.312C67.5858 108.487 67.6089 108.685 67.6455 108.894C67.6814 109.098 67.7179 109.307 67.7552 109.52C67.8987 110.338 68.0407 111.149 68.1813 111.951C68.3218 112.753 68.4588 113.535 68.5922 114.296C68.6596 114.681 68.7263 115.062 68.7923 115.438C68.8246 115.622 68.8703 115.818 68.8913 116.003C68.9101 116.176 68.8836 116.354 68.8168 116.5C68.6874 116.814 68.3985 117.009 68.0774 117.02C67.7455 117.057 67.4211 117.093 67.1043 117.128C66.4646 117.207 65.843 117.28 65.2395 117.347C64.0401 117.481 62.9199 117.605 61.8902 117.719C59.8557 117.958 58.2058 118.154 57.0517 118.282C56.4859 118.345 56.0468 118.406 55.7413 118.44C55.5904 118.456 55.4773 118.469 55.4019 118.477C55.3505 118.491 55.3097 118.5 55.2795 118.504C55.3097 118.5 55.3519 118.5 55.4062 118.502C55.4816 118.494 55.5947 118.481 55.7456 118.464C56.0511 118.43 56.4946 118.394 57.0603 118.331C58.2144 118.203 59.8686 118.031 61.9075 117.818C62.9371 117.703 64.0573 117.579 65.2567 117.446C65.8602 117.379 66.4832 117.314 67.1258 117.251C67.4427 117.215 67.767 117.179 68.0989 117.143C68.4427 117.129 68.7725 116.905 68.9202 116.563C68.9941 116.392 69.0276 116.188 69.0044 115.991C68.97 115.794 68.9399 115.622 68.9055 115.426C68.8395 115.049 68.7728 114.668 68.7054 114.284C68.572 113.522 68.435 112.741 68.2944 111.939C68.1538 111.136 68.0118 110.326 67.8684 109.507C67.8311 109.294 67.7945 109.086 67.7586 108.881C67.7242 108.685 67.6947 108.45 67.5789 108.25C67.3586 107.849 66.9088 107.586 66.4923 107.645C63.3807 107.99 60.4048 108.321 57.7005 108.621C56.3449 108.784 55.0663 108.926 53.8669 109.059C53.7198 109.076 53.5592 109.081 53.4072 109.135C53.2666 109.189 53.1346 109.291 53.0386 109.402C52.8376 109.637 52.7578 109.971 52.8137 110.29C52.9198 110.896 53.0217 111.477 53.1192 112.034C53.5178 114.243 53.832 116.036 54.0628 117.287C54.0886 117.434 54.1031 117.583 54.1515 117.728C54.1978 117.86 54.2646 117.978 54.3405 118.082C54.4903 118.278 54.6724 118.396 54.8189 118.442C54.9676 118.501 55.085 118.513 55.1664 118.516C55.2192 118.51 55.2569 118.506 55.2795 118.504Z" fill="#64EDFF"/>
<path d="M55.2795 118.504C55.2887 118.49 55.112 118.535 54.8281 118.428C54.6794 118.37 54.5086 118.251 54.3589 118.055C54.2964 117.962 54.2296 117.844 54.1833 117.711C54.1505 117.59 54.1338 117.429 54.108 117.282C53.8885 116.029 53.5857 114.235 53.1984 112.025C53.1009 111.469 53.0028 110.887 52.9042 110.28C52.8526 109.986 52.9276 109.689 53.1081 109.469C53.2062 109.371 53.3178 109.283 53.4492 109.243C53.5786 109.191 53.7278 109.187 53.8862 109.17C55.0856 109.037 56.3642 108.895 57.722 108.744C60.4263 108.444 63.4022 108.113 66.5138 107.768C66.8872 107.726 67.2853 107.957 67.4743 108.312C67.5858 108.487 67.6089 108.685 67.6455 108.894C67.6814 109.098 67.7179 109.307 67.7552 109.52C67.8987 110.338 68.0407 111.149 68.1813 111.951C68.3218 112.753 68.4588 113.535 68.5922 114.296C68.6596 114.681 68.7263 115.062 68.7923 115.438C68.8246 115.622 68.8703 115.818 68.8913 116.003C68.9101 116.176 68.8836 116.354 68.8168 116.5C68.6874 116.814 68.3985 117.009 68.0774 117.02C67.7455 117.057 67.4211 117.093 67.1043 117.128C66.4646 117.207 65.843 117.28 65.2395 117.347C64.0401 117.481 62.9199 117.605 61.8902 117.719C59.8557 117.958 58.2058 118.154 57.0517 118.282C56.4859 118.345 56.0468 118.406 55.7413 118.44C55.5904 118.456 55.4773 118.469 55.4019 118.477C55.3505 118.491 55.3097 118.5 55.2795 118.504ZM55.2795 118.504C55.3097 118.5 55.3519 118.5 55.4062 118.502C55.4816 118.494 55.5947 118.481 55.7456 118.464C56.0511 118.43 56.4946 118.394 57.0603 118.331C58.2144 118.203 59.8686 118.031 61.9075 117.818C62.9371 117.703 64.0573 117.579 65.2567 117.446C65.8602 117.379 66.4832 117.314 67.1258 117.251C67.4427 117.215 67.767 117.179 68.0989 117.143C68.4427 117.129 68.7725 116.905 68.9202 116.563C68.9941 116.392 69.0276 116.188 69.0044 115.991C68.97 115.794 68.9399 115.622 68.9055 115.426C68.8395 115.049 68.7728 114.668 68.7054 114.284C68.572 113.522 68.435 112.741 68.2944 111.939C68.1538 111.136 68.0118 110.326 67.8684 109.507C67.8311 109.294 67.7945 109.086 67.7586 108.881C67.7242 108.685 67.6947 108.45 67.5789 108.25C67.3586 107.849 66.9088 107.586 66.4923 107.645C63.3807 107.99 60.4048 108.321 57.7005 108.621C56.3449 108.784 55.0663 108.926 53.8669 109.059C53.7198 109.076 53.5592 109.081 53.4072 109.135C53.2666 109.189 53.1346 109.291 53.0386 109.402C52.8376 109.637 52.7578 109.971 52.8137 110.29C52.9198 110.896 53.0217 111.477 53.1192 112.034C53.5178 114.243 53.832 116.036 54.0628 117.287C54.0886 117.434 54.1031 117.583 54.1515 117.728C54.1978 117.86 54.2646 117.978 54.3405 118.082C54.4903 118.278 54.6724 118.396 54.8189 118.442C54.9676 118.501 55.085 118.513 55.1664 118.516C55.2192 118.51 55.2569 118.506 55.2795 118.504Z" stroke="#64EDFF" stroke-width="0.660593"/>
<path d="M66.476 114.658C66.2512 114.682 66.0317 114.5 65.9858 114.253C65.9399 114.005 66.0849 113.785 66.3097 113.762C66.5346 113.738 66.754 113.92 66.7999 114.167C66.8458 114.415 66.7008 114.635 66.476 114.658Z" fill="#64EDFF"/>
<path fill-rule="evenodd" clip-rule="evenodd" d="M66.443 114.48C66.3074 114.495 66.1751 114.385 66.1475 114.236C66.1198 114.086 66.2072 113.954 66.3427 113.94C66.4783 113.925 66.6106 114.035 66.6383 114.184C66.6659 114.334 66.5785 114.466 66.443 114.48ZM65.9858 114.253C66.0317 114.5 66.2512 114.682 66.476 114.658C66.7008 114.635 66.8458 114.415 66.7999 114.167C66.754 113.92 66.5346 113.738 66.3097 113.762C66.0849 113.785 65.9399 114.005 65.9858 114.253Z" fill="#64EDFF"/>
<path d="M65.0151 114.861C64.7903 114.885 64.5708 114.703 64.5249 114.456C64.4789 114.208 64.6239 113.988 64.8488 113.965C65.0736 113.941 65.2931 114.123 65.339 114.37C65.385 114.618 65.2399 114.838 65.0151 114.861Z" fill="#64EDFF"/>
<path fill-rule="evenodd" clip-rule="evenodd" d="M64.9821 114.683C64.8465 114.698 64.7142 114.588 64.6865 114.439C64.6588 114.289 64.7463 114.157 64.8818 114.143C65.0173 114.128 65.1497 114.238 65.1774 114.387C65.2051 114.537 65.1176 114.669 64.9821 114.683ZM64.5249 114.456C64.5708 114.703 64.7903 114.885 65.0151 114.861C65.2399 114.838 65.385 114.618 65.339 114.37C65.2931 114.123 65.0736 113.941 64.8488 113.965C64.6239 113.988 64.4789 114.208 64.5249 114.456Z" fill="#64EDFF"/>
<path d="M63.5971 115.061C63.3723 115.084 63.1528 114.903 63.1069 114.655C63.061 114.407 63.206 114.187 63.4308 114.164C63.6556 114.14 63.8751 114.322 63.9211 114.57C63.967 114.817 63.822 115.037 63.5971 115.061Z" fill="#64EDFF"/>
<path fill-rule="evenodd" clip-rule="evenodd" d="M63.5641 114.883C63.4286 114.897 63.2962 114.787 63.2685 114.638C63.2409 114.489 63.3283 114.356 63.4638 114.342C63.5994 114.328 63.7317 114.437 63.7594 114.587C63.7871 114.736 63.6997 114.868 63.5641 114.883ZM63.1069 114.655C63.1528 114.903 63.3723 115.084 63.5971 115.061C63.822 115.037 63.967 114.817 63.9211 114.57C63.8751 114.322 63.6556 114.14 63.4308 114.164C63.206 114.187 63.061 114.407 63.1069 114.655Z" fill="#64EDFF"/>
<path d="M62.1899 115.256C61.9651 115.279 61.7456 115.097 61.6997 114.85C61.6537 114.602 61.7988 114.382 62.0236 114.359C62.2484 114.335 62.4679 114.517 62.5138 114.764C62.5598 115.012 62.4147 115.232 62.1899 115.256Z" fill="#64EDFF"/>
<path fill-rule="evenodd" clip-rule="evenodd" d="M62.1569 115.077C62.0213 115.092 61.889 114.982 61.8613 114.833C61.8336 114.684 61.9211 114.551 62.0566 114.537C62.1921 114.523 62.3245 114.632 62.3522 114.781C62.3799 114.931 62.2924 115.063 62.1569 115.077ZM61.6997 114.85C61.7456 115.097 61.9651 115.279 62.1899 115.256C62.4147 115.232 62.5598 115.012 62.5138 114.764C62.4679 114.517 62.2484 114.335 62.0236 114.359C61.7988 114.382 61.6537 114.602 61.6997 114.85Z" fill="#64EDFF"/>
<path d="M61.9755 112.07L65.8235 111.638C66.0992 111.607 66.2853 111.329 66.228 110.998C66.1729 110.679 65.8972 110.44 65.6215 110.471L61.7735 110.903C61.4979 110.934 61.314 111.225 61.3691 111.543C61.4265 111.875 61.6999 112.101 61.9755 112.07Z" fill="#64EDFF"/>
<path fill-rule="evenodd" clip-rule="evenodd" d="M65.7898 111.443L61.9418 111.875C61.7568 111.896 61.5762 111.745 61.5379 111.524C61.5015 111.314 61.6248 111.119 61.8073 111.098L65.6553 110.666C65.8377 110.645 66.0227 110.806 66.0592 111.016C66.0974 111.237 65.9748 111.422 65.7898 111.443ZM65.8235 111.638L61.9755 112.07C61.6999 112.101 61.4265 111.875 61.3691 111.543C61.314 111.225 61.4979 110.934 61.7735 110.903L65.6215 110.471C65.8972 110.44 66.1729 110.679 66.228 110.998C66.2853 111.329 66.0992 111.607 65.8235 111.638Z" fill="#64EDFF"/>
<path d="M66.1761 113.041C65.9521 113.064 65.7326 112.881 65.6858 112.633C65.639 112.385 65.7827 112.165 66.0066 112.142C66.2306 112.119 66.45 112.301 66.4968 112.549C66.5436 112.798 66.4 113.017 66.1761 113.041Z" fill="#64EDFF"/>
<path fill-rule="evenodd" clip-rule="evenodd" d="M66.1424 112.862C66.0074 112.876 65.8751 112.766 65.8469 112.616C65.8187 112.467 65.9052 112.334 66.0403 112.32C66.1753 112.306 66.3076 112.416 66.3358 112.566C66.364 112.716 66.2774 112.848 66.1424 112.862ZM65.6858 112.633C65.7326 112.881 65.9521 113.064 66.1761 113.041C66.4 113.017 66.5436 112.798 66.4968 112.549C66.45 112.301 66.2306 112.119 66.0066 112.142C65.7827 112.165 65.639 112.385 65.6858 112.633Z" fill="#64EDFF"/>
<path d="M64.72 113.243C64.4961 113.266 64.2766 113.084 64.2298 112.836C64.183 112.588 64.3266 112.368 64.5506 112.345C64.7745 112.321 64.994 112.504 65.0408 112.752C65.0876 113 64.944 113.22 64.72 113.243Z" fill="#64EDFF"/>
<path fill-rule="evenodd" clip-rule="evenodd" d="M64.6864 113.065C64.5514 113.079 64.419 112.969 64.3908 112.819C64.3626 112.67 64.4492 112.537 64.5842 112.523C64.7192 112.509 64.8515 112.619 64.8798 112.769C64.908 112.918 64.8214 113.051 64.6864 113.065ZM64.2298 112.836C64.2766 113.084 64.4961 113.266 64.72 113.243C64.944 113.22 65.0876 113 65.0408 112.752C64.994 112.504 64.7745 112.321 64.5506 112.345C64.3266 112.368 64.183 112.588 64.2298 112.836Z" fill="#64EDFF"/>
<path d="M63.303 113.442C63.0791 113.465 62.8596 113.283 62.8128 113.035C62.766 112.787 62.9096 112.567 63.1336 112.544C63.3575 112.52 63.577 112.703 63.6238 112.951C63.6706 113.199 63.527 113.419 63.303 113.442Z" fill="#64EDFF"/>
<path fill-rule="evenodd" clip-rule="evenodd" d="M63.2694 113.264C63.1344 113.278 63.002 113.168 62.9738 113.018C62.9456 112.869 63.0322 112.736 63.1672 112.722C63.3022 112.708 63.4346 112.818 63.4628 112.968C63.491 113.117 63.4044 113.25 63.2694 113.264ZM62.8128 113.035C62.8596 113.283 63.0791 113.465 63.303 113.442C63.527 113.419 63.6706 113.199 63.6238 112.951C63.577 112.703 63.3575 112.52 63.1336 112.544C62.9096 112.567 62.766 112.787 62.8128 113.035Z" fill="#64EDFF"/>
<path d="M61.8821 113.638C61.6582 113.662 61.4387 113.479 61.3919 113.231C61.3451 112.983 61.4887 112.763 61.7127 112.74C61.9366 112.717 62.1561 112.899 62.2029 113.147C62.2497 113.395 62.1061 113.615 61.8821 113.638Z" fill="#64EDFF"/>
<path fill-rule="evenodd" clip-rule="evenodd" d="M61.8485 113.46C61.7135 113.474 61.5811 113.364 61.5529 113.214C61.5247 113.065 61.6113 112.932 61.7463 112.918C61.8813 112.904 62.0137 113.014 62.0419 113.164C62.0701 113.314 61.9835 113.446 61.8485 113.46ZM61.3919 113.231C61.4387 113.479 61.6582 113.662 61.8821 113.638C62.1061 113.615 62.2497 113.395 62.2029 113.147C62.1561 112.899 61.9366 112.717 61.7127 112.74C61.4887 112.763 61.3451 112.983 61.3919 113.231Z" fill="#64EDFF"/>
<path d="M55.4978 111.464L57.7676 111.213C57.9704 111.19 58.1661 111.35 58.2048 111.57L58.6375 114.027C58.6762 114.247 58.5431 114.443 58.3404 114.465L56.0705 114.716C55.8678 114.738 55.672 114.579 55.6334 114.359L55.2006 111.902C55.1619 111.682 55.295 111.486 55.4978 111.464Z" fill="#64EDFF"/>
<path fill-rule="evenodd" clip-rule="evenodd" d="M55.5289 111.641L57.7988 111.39C57.9113 111.377 58.0198 111.466 58.0413 111.588L58.474 114.045C58.4955 114.167 58.4217 114.276 58.3092 114.288L56.0394 114.539C55.9269 114.551 55.8183 114.463 55.7969 114.341L55.3641 111.884C55.3426 111.762 55.4165 111.653 55.5289 111.641ZM57.7676 111.213L55.4978 111.464C55.295 111.486 55.1619 111.682 55.2006 111.902L55.6334 114.359C55.672 114.579 55.8678 114.738 56.0705 114.716L58.3404 114.465C58.5431 114.443 58.6762 114.247 58.6375 114.027L58.2048 111.57C58.1661 111.35 57.9704 111.19 57.7676 111.213Z" fill="#64EDFF"/>
<path d="M55.9851 116.239L58.7342 115.918C58.9757 115.89 59.1349 115.649 59.0921 115.392C59.0471 115.122 58.8152 114.927 58.5736 114.955L55.8246 115.276C55.583 115.304 55.4238 115.545 55.4688 115.815C55.5116 116.071 55.7435 116.267 55.9851 116.239Z" fill="#64EDFF"/>
<path fill-rule="evenodd" clip-rule="evenodd" d="M58.7027 115.729L55.9536 116.05C55.8025 116.068 55.6627 115.944 55.6378 115.795C55.6102 115.629 55.7078 115.482 55.856 115.464L58.6051 115.143C58.7533 115.126 58.8955 115.246 58.9231 115.411C58.948 115.561 58.8539 115.711 58.7027 115.729ZM58.7342 115.918L55.9851 116.239C55.7435 116.267 55.5116 116.071 55.4688 115.815C55.4238 115.545 55.583 115.304 55.8246 115.276L58.5736 114.955C58.8152 114.927 59.0471 115.122 59.0921 115.392C59.1349 115.649 58.9757 115.89 58.7342 115.918Z" fill="#64EDFF"/>
</g>
<path d="M92.3478 95.0794L83.1077 103.162C82.8921 103.71 82.6611 103.754 82.1599 103.619C79.6232 100.849 72.2775 96.445 68.1855 96.7234L71.2419 110.051C71.2419 110.051 81.2305 116.282 86.7715 113.899C91.1463 112.017 99.0066 100.904 99.0066 100.904L92.3478 95.0794Z" fill="url(#paint7_linear_27319_77432)"/>
<path fill-rule="evenodd" clip-rule="evenodd" d="M98.8881 87.3637C96.6202 90.4739 95.1474 92.1149 92.0782 94.7689C90.1433 97.2004 93.3066 102.472 97.8112 102.144C99.6433 101.262 100.97 99.3706 101.228 98.8603C101.487 98.3499 101.199 97.8555 101.199 97.8555C99.4571 97.3571 95.8657 96.1288 95.4375 95.2027C95.0092 94.2766 96.6821 91.982 98.691 92.1107C99.8376 91.1653 100.619 89.9353 100.942 88.98C101.227 87.2955 100.024 86.1577 98.8881 87.3637Z" fill="#FC7135"/>
<path d="M98.691 92.1107C101.222 92.6735 103.156 93.7023 103.132 95.2852C103.113 96.5297 102.766 97.1175 101.199 97.8555C99.4571 97.3571 95.8657 96.1288 95.4375 95.2027C95.0092 94.2766 96.6821 91.982 98.691 92.1107Z" fill="url(#paint8_linear_27319_77432)"/>
<path d="M92.0791 94.769C95.1483 92.115 96.6211 90.474 98.889 87.3639C100.025 86.1578 101.228 87.2957 100.943 88.9801C100.446 90.4465 98.8718 92.5601 96.552 93.298C96.552 93.298 98.2762 93.3035 98.4147 94.0818C98.5526 94.8575 96.9493 95.4653 96.9493 95.4653C95.034 96.2833 93.9757 95.7148 92.0791 94.769Z" fill="url(#paint9_linear_27319_77432)"/>
<path d="M70.6736 105.987C70.7293 105.381 71.192 104.891 71.794 104.8L87.6421 102.424C88.4894 102.297 89.2311 102.998 89.1527 103.851L87.9072 117.402L69.3689 120.182L70.6736 105.987Z" fill="#B9C0D0"/>
<path d="M57.6961 121.361C57.6482 121.04 57.8693 120.741 58.19 120.693L69.9713 118.927L70.1447 120.088L58.3634 121.855C58.0427 121.903 57.744 121.682 57.6961 121.361Z" fill="#C7CBD3"/>
<path d="M70.9509 105.968C71.0066 105.361 71.4693 104.871 72.0713 104.781L87.9194 102.405C88.7667 102.278 89.5085 102.979 89.43 103.832L88.1846 117.383L69.6463 120.163L70.9509 105.968Z" fill="url(#paint10_linear_27319_77432)"/>
<path d="M55.8624 122.868L53.1547 117.471C53.1547 117.471 57.8733 114.945 60.2748 115.106C62.6762 115.268 63.9274 115.854 65.9663 117.987C66.1448 118.612 65.382 119.303 64.406 118.952C64.4606 119.758 63.6928 119.981 62.692 119.657C61.5626 120.322 60.6849 120.297 59.4059 120.273L55.8624 122.868Z" fill="#FC7135"/>
<g opacity="0.3" filter="url(#filter3_f_27319_77432)">
<path fill-rule="evenodd" clip-rule="evenodd" d="M59.9404 116.776C59.9282 116.693 59.9728 116.63 60.0401 116.636C61.0202 116.721 61.7861 116.821 62.4792 117.099C63.1786 117.38 63.6853 117.947 64.3769 118.739C64.4325 118.802 64.4455 118.898 64.4058 118.952C64.3661 119.005 64.2889 118.997 64.2332 118.934C63.573 118.178 63.1079 117.646 62.4582 117.385C61.802 117.121 61.0662 117.022 60.0842 116.937C60.0169 116.931 59.9526 116.859 59.9404 116.776ZM58.5599 118.671C58.5454 118.588 58.5878 118.523 58.6546 118.526C60.2307 118.596 60.9189 118.617 62.3112 119.368C62.3782 119.405 62.4215 119.495 62.408 119.57C62.3945 119.645 62.3292 119.677 62.2622 119.641C60.913 118.912 60.2608 118.897 58.707 118.828C58.6402 118.825 58.5744 118.755 58.5599 118.671Z" fill="black"/>
</g>
<path d="M34.0746 117.238C36.5534 108.726 38.7521 101.472 45.6214 98.8471L47.4954 112.059L44.2958 119.731L54.088 116.907L56.2519 122.841C56.2519 122.841 41.0422 131.555 35.4182 126.732C32.068 123.859 34.0746 117.238 34.0746 117.238Z" fill="url(#paint11_linear_27319_77432)"/>
<path d="M76.9145 80.1354C77.5867 82.1035 77.2384 84.1797 76.0124 85.5151C75.9631 82.278 74.8958 79.1593 72.8105 76.1592C74.6572 76.6324 76.2395 78.1657 76.9145 80.1354Z" fill="white"/>
<path fill-rule="evenodd" clip-rule="evenodd" d="M76.198 85.9524C76.1027 85.9837 75.9963 85.9742 75.8961 85.9211C75.7377 85.835 75.6325 85.6612 75.6294 85.48C75.5792 82.3495 74.5234 79.2878 72.4898 76.3797C72.3835 76.227 72.3662 76.0323 72.4423 75.885C72.5214 75.7394 72.6804 75.6717 72.8441 75.7119C74.8638 76.2299 76.5758 77.8845 77.3155 80.0293C78.0552 82.1741 77.6806 84.4077 76.3413 85.8613C76.3011 85.9057 76.2508 85.9352 76.198 85.9524ZM73.8176 76.981C75.2635 79.3371 76.1161 81.7833 76.3662 84.2836C76.9634 83.1224 77.0476 81.658 76.5585 80.2407C76.0653 78.8065 75.0592 77.6314 73.8176 76.981Z" fill="#64EDFF"/>
<path d="M49.0983 65.9862C57.7543 63.2268 67.8699 68.8841 71.6922 78.6246C75.5136 88.3627 71.5947 98.4967 62.9387 101.256C54.2848 104.015 44.1683 98.3551 40.347 88.617C36.5247 78.8765 40.4444 68.7449 49.0983 65.9862Z" fill="white"/>
<path d="M49.3526 66.1167C58.14 63.316 67.9631 68.2722 72.1598 77.7227L72.475 78.1059C73.2615 79.148 73.0139 78.6572 74.1634 81.5858C75.3129 84.5144 75.5247 90.7197 72.7584 94.4314L72.4628 94.926C63.2639 106.896 46.2802 104.625 40.3105 89.4161C36.3763 79.3928 40.5652 68.9173 49.3526 66.1167Z" fill="white"/>
<path fill-rule="evenodd" clip-rule="evenodd" d="M63.1925 102.214C60.0229 103.224 56.6724 103.311 53.4626 102.466C47.4628 100.884 42.5298 96.1788 39.9299 89.555C37.9873 84.6057 37.8961 79.3835 39.6725 74.8479C41.4394 70.3369 44.8186 67.0857 49.1877 65.6933C58.1933 62.823 68.21 67.908 72.5171 77.5243L72.7837 77.8506C72.789 77.856 72.7936 77.8617 72.7976 77.8676C72.8815 77.978 72.9506 78.0688 73.0138 78.1508C73.5165 78.8049 73.5418 78.8693 74.1855 80.5213C74.2914 80.7912 74.4152 81.1065 74.5605 81.4767C75.7812 84.5868 75.9587 90.9237 73.1228 94.7434L72.8395 95.2207C72.832 95.2339 72.8234 95.2465 72.8138 95.2585C70.3665 98.4437 67.2359 100.783 63.7662 102.02C63.5756 102.086 63.3843 102.151 63.1925 102.214ZM49.5317 66.5699C40.8339 69.342 36.8763 79.5419 40.7091 89.3067C43.1833 95.6104 47.8653 100.084 53.5529 101.583C60.3301 103.368 67.4411 100.709 72.1127 94.6407L72.3968 94.1659C72.4022 94.1552 72.4093 94.1449 72.4181 94.1349C75.0462 90.6071 74.8933 84.558 73.7813 81.725C73.636 81.3548 73.5113 81.0371 73.4054 80.7672C72.7937 79.1965 72.7937 79.1965 72.3877 78.6674C72.3245 78.5855 72.2533 78.4953 72.1724 78.3867L71.8643 78.0092C71.8325 77.971 71.8062 77.9283 71.7863 77.8836C67.7057 68.6922 58.1362 63.8275 49.5317 66.5699Z" fill="#64EDFF"/>
<path d="M53.5109 72.278C61.9081 69.6021 71.1832 73.7144 74.2252 81.4636C77.2663 89.2103 72.9235 97.6622 64.5263 100.338C56.1268 103.015 46.854 98.9016 43.8129 91.1549C40.7708 83.4057 45.1114 74.9546 53.5109 72.278Z" fill="#00A4FF"/>
<path fill-rule="evenodd" clip-rule="evenodd" d="M64.6763 100.708C56.1118 103.437 46.6105 99.1978 43.4954 91.2626C40.3793 83.325 44.8105 74.6489 53.375 71.9198C61.9374 69.1913 71.4399 73.4273 74.556 81.3649C77.6711 89.3001 73.2387 97.9792 64.6763 100.708ZM53.6629 72.6532C45.4596 75.2672 41.1919 83.5206 44.1494 91.0542C47.106 98.5854 56.1842 102.586 64.3875 99.9719C72.5908 97.3578 76.8585 89.1045 73.9019 81.5733C70.9445 74.0397 61.8663 70.0391 53.6629 72.6532Z" fill="#64EDFF"/>
<path d="M63.8554 98.6721C71.2319 96.3212 75.117 89.0785 72.533 82.4952C69.949 75.9119 61.8744 72.4809 54.4979 74.8319C47.1214 77.1828 43.2364 84.4254 45.8204 91.0087C48.4044 97.592 56.479 101.023 63.8554 98.6721Z" fill="#6C6C6C"/>
<path fill-rule="evenodd" clip-rule="evenodd" d="M64.0288 99.1085C56.4485 101.524 48.1071 97.9465 45.4324 91.1324C42.7577 84.3183 46.7467 76.8081 54.3271 74.3923C61.9074 71.9764 70.2497 75.5567 72.9244 82.3708C75.5991 89.1849 71.6091 96.6927 64.0288 99.1085ZM54.6739 75.2759C47.5281 77.5533 43.734 84.5543 46.2178 90.8821C48.7007 97.2074 56.5361 100.502 63.6819 98.2248C70.8278 95.9475 74.6218 88.9464 72.139 82.6211C69.6552 76.2934 61.8198 72.9986 54.6739 75.2759Z" fill="#6C6C6C"/>
<path d="M72.2088 81.3647C72.3426 81.8281 72.4538 82.3013 72.5415 82.7821C72.8225 84.3187 72.8389 85.8125 72.6276 87.2164C72.9199 87.5075 73.182 87.8136 73.411 88.1276C72.7955 92.772 69.3119 96.9477 64.0469 98.6255C63.1084 98.9246 62.1586 99.1271 61.2115 99.2449C54.2852 99.301 48.287 96.2256 47.5317 92.0776C47.3164 90.9042 47.5441 89.7629 48.1353 88.714C47.4203 87.3644 46.8999 85.9041 46.6202 84.3644C46.4607 83.4925 46.3869 82.6367 46.3911 81.8019C47.8991 78.6589 50.8159 76.06 54.7022 74.8215C61.6432 72.6097 69.2014 75.5235 72.2088 81.3647Z" fill="#B0401E"/>
<path fill-rule="evenodd" clip-rule="evenodd" d="M64.1987 98.9854C63.2605 99.2844 62.2892 99.4992 61.3096 99.6193C61.2976 99.6213 61.2849 99.6217 61.2717 99.6206C54.0381 99.6803 47.9854 96.4449 47.191 92.0938C46.9779 90.9201 47.161 89.7634 47.7377 88.6599C47.0414 87.2966 46.5517 85.8593 46.2827 84.3841C46.1217 83.5021 46.0429 82.6156 46.0456 81.7464C46.0471 81.6891 46.0579 81.637 46.081 81.5917C47.675 78.265 50.7682 75.6644 54.5681 74.4535C57.9791 73.3665 61.6872 73.4591 65.0149 74.7143C68.3436 75.9719 71.0127 78.281 72.5232 81.2163C72.5374 81.2442 72.5484 81.2723 72.5563 81.3004C72.6945 81.7812 72.8102 82.2718 72.8976 82.7579C73.1666 84.2331 73.2075 85.6971 73.0166 87.1159C73.265 87.3749 73.4886 87.6445 73.6878 87.9192C73.7553 88.0113 73.7849 88.1236 73.7716 88.2306C73.4548 90.6147 72.4128 92.8728 70.7556 94.7643C69.0606 96.7003 66.7933 98.1586 64.1987 98.9854ZM61.1504 98.8585C62.0856 98.7417 63.0154 98.5374 63.9108 98.2521C68.8713 96.6714 72.355 92.8236 73.0416 88.19C72.8537 87.9442 72.6423 87.7059 72.4095 87.4744C72.3108 87.376 72.2615 87.2321 72.2822 87.1011C72.492 85.706 72.4629 84.2599 72.1975 82.7998C72.1176 82.3573 72.0115 81.9096 71.8893 81.4697C68.9091 75.7403 61.5977 73.0412 54.857 75.1892C51.2387 76.3422 48.2931 78.7984 46.7613 81.9403C46.7622 82.7327 46.8361 83.5396 46.9829 84.3422C47.2495 85.7992 47.7421 87.2194 48.4531 88.5591C48.5191 88.6841 48.5209 88.8296 48.4601 88.9383C47.8908 89.9502 47.7 90.9956 47.8932 92.0513C48.599 95.9193 54.4198 98.9067 61.1504 98.8585Z" fill="#6C6C6C"/>
<path d="M53.9131 76.4586C55.5616 76.358 57.1869 77.0006 58.4789 78.1174C59.3326 76.8065 60.7213 75.9339 62.4194 75.831C66.8908 75.5586 71.6096 81.8026 68.7706 86.362C69.9914 85.8945 71.4496 86.2279 72.5668 87.2299C72.8589 87.521 73.121 87.827 73.35 88.1409C72.7346 92.7843 69.2518 96.9591 63.9878 98.6365C63.0495 98.9355 62.0999 99.1381 61.153 99.2558C54.2281 99.3118 48.2311 96.2371 47.4759 92.09C47.2607 90.9169 47.4884 89.7758 48.0795 88.7272C48.9381 87.8151 50.1066 87.441 51.5848 87.6048C50.3729 86.5085 49.4762 84.9899 49.1634 83.2743C48.5123 79.7108 50.6393 76.6578 53.9131 76.4586Z" fill="#FFCAA1"/>
<path fill-rule="evenodd" clip-rule="evenodd" d="M64.1068 98.919C63.173 99.2165 62.2031 99.4282 61.2289 99.5493C61.2197 99.5505 61.2095 99.551 61.1982 99.551C54.0039 99.6094 47.9876 96.4038 47.2009 92.0971C46.9793 90.8775 47.1908 89.6769 47.8355 88.5329C47.8448 88.5155 47.8563 88.5001 47.8703 88.4867C48.6337 87.6754 49.638 87.2634 50.8599 87.2527C49.848 86.1389 49.1581 84.7549 48.8889 83.2855C48.2095 79.5585 50.4409 76.3564 53.8641 76.1474C55.4395 76.0511 57.0396 76.5933 58.4 77.6826C59.3393 76.3825 60.7375 75.6205 62.3668 75.5206C64.693 75.3771 67.2633 76.9517 68.7595 79.4339C70.0499 81.5759 70.2642 83.9283 69.3766 85.8746C70.5149 85.712 71.7466 86.112 72.734 86.9982C72.7387 87.0021 72.7438 87.0068 72.7491 87.0123C73.0543 87.3181 73.3314 87.6382 73.5692 87.9682C73.6217 88.0407 73.648 88.1323 73.6357 88.2174C73.3207 90.5871 72.2846 92.8348 70.6355 94.7154C68.9486 96.6404 66.6902 98.0957 64.1068 98.919ZM61.0997 98.9387C62.04 98.8229 62.9738 98.6173 63.8756 98.33C68.8694 96.7387 72.3752 92.8574 73.0507 88.1847C72.857 87.93 72.6378 87.678 72.3971 87.4383C71.367 86.5169 70.0267 86.2138 68.9025 86.645C68.789 86.6866 68.651 86.6413 68.5635 86.5285C68.4769 86.4182 68.4637 86.2682 68.5275 86.1613C69.6895 84.2954 69.6011 81.8839 68.2919 79.7127C66.922 77.4418 64.5867 76.0006 62.4781 76.1288C60.9101 76.2255 59.5767 76.9993 58.7244 78.3068C58.6846 78.3708 58.6176 78.4084 58.5405 78.4141C58.4665 78.4214 58.3856 78.3931 58.3229 78.3373C57.0382 77.2267 55.4949 76.6636 53.9755 76.7556C50.8627 76.9469 48.8307 79.8609 49.4496 83.2502C49.7361 84.825 50.5562 86.2893 51.7558 87.373C51.8408 87.4486 51.8851 87.5616 51.8761 87.6673C51.8611 87.8127 51.7396 87.9136 51.6013 87.8982C50.2047 87.7455 49.1322 88.0818 48.322 88.9269C47.7568 89.9428 47.5677 90.9984 47.7616 92.0617C48.4747 95.9727 54.3331 98.9906 61.0997 98.9387Z" fill="#6C6C6C"/>
<path d="M73.302 81.7826C73.9752 83.5591 74.1658 85.3887 73.9351 87.1526C73.7306 86.8701 73.498 86.5969 73.2412 86.3317C73.4489 84.985 73.4402 83.5517 73.1843 82.0755C73.1188 81.6875 73.0343 81.3032 72.9377 80.9229C73.069 81.2036 73.1911 81.4899 73.302 81.7826Z" fill="#FFCAA1"/>
<path fill-rule="evenodd" clip-rule="evenodd" d="M74.0729 87.5148C74.0607 87.5188 74.0482 87.522 74.0354 87.5245C73.9074 87.5481 73.7696 87.4864 73.6827 87.3665C73.49 87.1015 73.2691 86.8404 73.0227 86.5904C72.9286 86.4936 72.8814 86.358 72.9016 86.2316C73.1066 84.8861 73.0874 83.4916 72.84 82.0858C72.7754 81.7138 72.6931 81.3371 72.5956 80.9628C72.5469 80.7757 72.6296 80.5976 72.7897 80.5504C72.9498 80.5032 73.132 80.5973 73.2172 80.7725C73.3584 81.07 73.4865 81.3692 73.6006 81.6677C74.2926 83.4774 74.5185 85.3589 74.2722 87.2595C74.256 87.3846 74.1805 87.4796 74.0729 87.5148ZM73.5993 86.2403C73.6232 86.2672 73.6479 86.2938 73.6732 86.3203C73.6922 86.0034 73.697 85.6876 73.6879 85.3729C73.6682 85.664 73.6387 85.9531 73.5993 86.2403Z" fill="#6C6C6C"/>
<path d="M73.959 86.7327C73.752 86.6925 73.5547 86.6177 73.369 86.513C73.3134 86.4525 73.2595 86.3966 73.2018 86.3368C73.3713 85.2214 73.3924 84.0441 73.2485 82.834C73.3542 82.7971 73.4676 82.7682 73.5843 82.7539C73.9598 84.0801 74.0742 85.4229 73.959 86.7327Z" fill="#FF9999"/>
<path fill-rule="evenodd" clip-rule="evenodd" d="M74.1006 87.0976C74.0531 87.1129 74.001 87.1165 73.9456 87.1055C73.7039 87.0572 73.4659 86.9709 73.2391 86.8415C73.2035 86.8214 73.1722 86.7947 73.1421 86.7649C73.0898 86.7082 73.0355 86.652 72.9812 86.5959C72.8861 86.5003 72.8397 86.3627 72.8579 86.2359C73.025 85.1273 73.0394 83.9785 72.8997 82.8216C72.8809 82.6594 72.9608 82.5179 73.0953 82.4693C73.2265 82.4243 73.3603 82.3917 73.4953 82.3744C73.6723 82.3515 73.8541 82.4849 73.909 82.6802C74.2956 84.0363 74.4272 85.4299 74.3036 86.8243C74.2911 86.9599 74.21 87.0623 74.1006 87.0976ZM73.5707 86.2348C73.5959 86.2477 73.6207 86.2599 73.6453 86.2713C73.6598 85.9773 73.6631 85.6843 73.6552 85.3922C73.635 85.6758 73.6069 85.9566 73.5707 86.2348Z" fill="#6C6C6C"/>
<path d="M60.6899 89.3826C60.5672 89.4218 60.4184 89.382 60.3111 89.269C59.968 88.9067 59.4807 88.8004 59.1023 89.003C58.9359 89.0915 58.7138 89.0069 58.6048 88.8154C58.498 88.6231 58.5456 88.3925 58.7119 88.3039C59.361 87.9577 60.1907 88.1402 60.7768 88.7577C60.9287 88.9165 60.9462 89.1591 60.8178 89.3009C60.7821 89.3396 60.7373 89.3675 60.6899 89.3826Z" fill="#6C6C6C"/>
<path d="M60.7323 89.307C60.6339 89.3387 60.5194 89.3227 60.4172 89.2498C60.2389 89.1262 60.1685 88.8815 60.2588 88.702C60.6129 88.0223 61.3882 87.7305 62.144 87.991C62.3432 88.0605 62.4738 88.283 62.4383 88.4895C62.3995 88.6942 62.21 88.8082 62.0107 88.7388C61.5677 88.5863 61.1147 88.7575 60.9097 89.1551C60.8705 89.2318 60.8067 89.283 60.7323 89.307Z" fill="#6C6C6C"/>
<path d="M60.9531 91.6872C60.93 91.6947 60.9064 91.6989 60.8823 91.6998C60.6973 91.7133 60.5185 91.5577 60.4822 91.3556C60.2819 90.2238 60.207 89.7657 60.0771 88.8951C60.0469 88.6911 60.1715 88.52 60.3572 88.5142C60.5429 88.5085 60.7174 88.6706 60.7466 88.8724C60.875 89.733 60.951 90.1881 61.1499 91.31C61.1804 91.4852 61.0957 91.6407 60.9531 91.6872Z" fill="#6C6C6C"/>
<g opacity="0.3">
<g opacity="0.3">
<path opacity="0.3" d="M50.6129 90.6204C51.5893 92.2239 53.5788 93.2878 55.3256 94.2585C52.2962 93.8085 50.5089 92.8578 49.964 91.4064C49.6192 90.4175 49.419 90.3054 50.6129 90.6204Z" fill="#6C6C6C"/>
</g>
</g>
<path fill-rule="evenodd" clip-rule="evenodd" d="M64.1987 98.9854C63.2605 99.2844 62.2892 99.4992 61.3096 99.6193C61.2976 99.6213 61.2849 99.6217 61.2717 99.6206C54.0381 99.6803 47.9854 96.4449 47.191 92.0938C46.9779 90.9201 47.161 89.7634 47.7377 88.6599C47.0414 87.2966 46.5517 85.8593 46.2827 84.3841C46.1217 83.5021 46.0429 82.6156 46.0456 81.7464C46.0471 81.6891 46.0579 81.637 46.081 81.5917C47.675 78.265 50.7682 75.6644 54.5681 74.4535C57.9791 73.3665 61.6872 73.4591 65.0149 74.7143C68.3436 75.9719 71.0127 78.281 72.5232 81.2163C72.5374 81.2442 72.5484 81.2723 72.5563 81.3004C72.6945 81.7812 72.8102 82.2718 72.8976 82.7579C73.1666 84.2331 73.2075 85.6971 73.0166 87.1159C73.265 87.3749 73.4886 87.6445 73.6878 87.9192C73.7553 88.0113 73.7849 88.1236 73.7716 88.2306C73.4548 90.6147 72.4128 92.8728 70.7556 94.7643C69.0606 96.7003 66.7933 98.1586 64.1987 98.9854ZM61.1504 98.8585C62.0856 98.7417 63.0154 98.5374 63.9108 98.2521C68.8713 96.6714 72.355 92.8236 73.0416 88.19C72.8537 87.9442 72.6423 87.7059 72.4095 87.4744C72.3108 87.376 72.2615 87.2321 72.2822 87.1011C72.492 85.706 72.4629 84.2599 72.1975 82.7998C72.1176 82.3573 72.0115 81.9096 71.8893 81.4697C68.9091 75.7403 61.5977 73.0412 54.857 75.1892C51.2387 76.3422 48.2931 78.7984 46.7613 81.9403C46.7622 82.7327 46.8361 83.5396 46.9829 84.3422C47.2495 85.7992 47.7421 87.2194 48.4531 88.5591C48.5191 88.6841 48.5209 88.8296 48.4601 88.9383C47.8908 89.9502 47.7 90.9956 47.8932 92.0513C48.599 95.9193 54.4198 98.9067 61.1504 98.8585Z" fill="#6C6C6C"/>
<path d="M38.0676 84.1867C39.8568 83.9169 41.7864 85.5655 42.377 87.8712C42.9676 90.1768 41.9969 92.2634 40.2077 92.5332C38.4195 92.8055 36.489 91.1544 35.8984 88.8488C35.3077 86.5432 36.2806 84.4559 38.0676 84.1867Z" fill="white"/>
<path fill-rule="evenodd" clip-rule="evenodd" d="M40.7815 92.8886C40.6383 92.9343 40.4897 92.9684 40.3357 92.9909C39.3511 93.1397 38.3012 92.7889 37.3821 92.004C36.484 91.2364 35.8169 90.1388 35.5042 88.9174C34.8484 86.3669 35.956 84.0461 37.9649 83.7411C39.9769 83.4378 42.1458 85.265 42.7995 87.8163C43.1122 89.0377 43.0362 90.247 42.585 91.2185C42.1937 92.0588 41.5631 92.6391 40.7815 92.8886ZM37.8676 84.7144C36.5172 85.1455 35.8273 86.8871 36.3163 88.7943C36.5743 89.8036 37.1187 90.7028 37.8499 91.3288C38.5613 91.9345 39.3626 92.2072 40.1078 92.0948C40.8509 91.983 41.4595 91.4977 41.8174 90.7295C42.1847 89.937 42.2445 88.9463 41.9865 87.937C41.4586 85.8821 39.7574 84.402 38.195 84.6365C38.082 84.6548 37.9729 84.6807 37.8676 84.7144Z" fill="#64EDFF"/>
<path d="M38.7345 92.3927C37.4576 91.9085 36.3164 90.5804 35.8867 88.9023C35.4035 87.0029 35.9842 85.2529 37.2065 84.5565C37.2733 84.5351 37.345 84.5201 37.4185 84.5098C38.8315 84.2957 40.4262 85.8947 40.9867 88.0822C41.5442 90.268 40.8525 92.2151 39.4395 92.4293C39.2073 92.4665 38.9714 92.452 38.7345 92.3927Z" fill="white"/>
<path fill-rule="evenodd" clip-rule="evenodd" d="M39.8339 92.7357C39.7349 92.7674 39.6336 92.791 39.5298 92.8065C39.2611 92.8474 38.9805 92.8338 38.6963 92.7629C38.6827 92.7602 38.6685 92.7559 38.6536 92.75C37.2118 92.2033 35.9895 90.7132 35.5399 88.9544C35.0277 86.9451 35.6264 84.9968 37.0007 84.2145C37.0204 84.2046 37.0414 84.1961 37.0637 84.189C37.1483 84.1646 37.2326 84.1455 37.3146 84.1326C38.9102 83.8924 40.7058 85.6395 41.3178 88.0308C41.6086 89.1663 41.5932 90.2831 41.2772 91.1724C40.9895 91.9837 40.4822 92.5282 39.8339 92.7357ZM38.7802 92.0382C38.9718 92.083 39.161 92.0914 39.3384 92.0638C39.9112 91.9759 40.3652 91.536 40.6194 90.8258C40.887 90.0714 40.897 89.1155 40.6445 88.1322C40.1383 86.1502 38.7302 84.6904 37.5039 84.876C37.4569 84.884 37.4097 84.8938 37.3625 84.9054C36.2557 85.5595 35.7836 87.1755 36.2132 88.853C36.5912 90.3321 37.596 91.5787 38.7802 92.0382Z" fill="#64EDFF"/>
<path d="M47.7506 71.7292C48.932 73.414 48.2557 73.9113 46.4507 73.1159C45.1181 72.5302 43.7878 72.4531 42.5512 72.4923C40.9718 71.4679 41.6471 69.2997 43.9812 69.5662C45.1267 69.6264 46.6247 70.1242 47.7506 71.7292Z" fill="white"/>
<path fill-rule="evenodd" clip-rule="evenodd" d="M48.2194 73.9014C47.8048 74.0335 47.1742 73.9153 46.336 73.544C45.0227 72.967 43.7241 72.9237 42.6274 72.9594C42.541 72.9599 42.4516 72.9343 42.3717 72.884C41.5585 72.356 41.1403 71.4803 41.3072 70.6562C41.4857 69.7635 42.3759 68.9443 43.958 69.1218C44.916 69.1736 46.7142 69.5527 48.079 71.4981C48.7416 72.4447 48.9275 73.151 48.628 73.6008C48.5294 73.7458 48.3932 73.846 48.2194 73.9014ZM42.6261 72.0374C43.7266 72.0113 45.1421 72.0769 46.5637 72.7032C47.5145 73.1225 47.8656 73.043 47.9087 72.9996C47.9065 73.0002 47.9591 72.7482 47.419 71.9789C46.2995 70.3827 44.8117 70.0778 44.0238 70.0367C44.0154 70.0358 44.007 70.0348 43.9987 70.0339C42.8735 69.9055 42.2588 70.4098 42.1451 70.9654C42.0671 71.3608 42.2392 71.7442 42.6261 72.0374Z" fill="#64EDFF"/>
<path d="M67.0188 69.1664C67.2295 69.5713 67.0453 70.0382 66.7045 70.2324C66.3668 70.4283 65.8626 70.3625 65.6146 69.9775C64.5996 68.4023 62.9037 67.0844 61.2484 66.4445C62.5617 64.8088 64.5464 64.3671 67.0188 69.1664Z" fill="white"/>
<path fill-rule="evenodd" clip-rule="evenodd" d="M66.7322 70.7306C66.2538 70.8833 65.6269 70.7417 65.2759 70.1969C64.3557 68.7686 62.7736 67.4901 61.1512 66.8653C61.0114 66.8111 60.8966 66.6876 60.8464 66.5354C60.7972 66.3856 60.8189 66.2291 60.9069 66.1209C61.714 65.1131 62.609 64.7046 63.5644 64.9042C64.8387 65.1729 66.1237 66.5462 67.3848 68.9898C67.6947 69.593 67.5017 70.3167 66.9441 70.6362C66.879 70.6757 66.8059 70.7071 66.7322 70.7306ZM62.0021 66.308C63.5703 67.0729 65.0416 68.3467 65.9501 69.7574C66.047 69.908 66.3072 69.9185 66.4681 69.827C66.6282 69.7332 66.7434 69.5069 66.6565 69.3397C65.5654 67.221 64.4773 65.9931 63.5166 65.7925C63.0045 65.6836 62.4971 65.859 62.0021 66.308Z" fill="#64EDFF"/>
<g opacity="0.3">
<g opacity="0.3">
<path opacity="0.3" d="M37.2699 88.8404C37.6301 90.4164 38.6713 91.8041 40.0514 92.5516C38.1524 92.6206 36.3213 91.0806 35.8482 89.0155C35.3752 86.9504 36.4172 85.0532 38.2433 84.6581C37.2722 85.6969 36.9089 87.262 37.2699 88.8404Z" fill="#6C6C6C"/>
</g>
</g>
<g opacity="0.3">
<g opacity="0.3">
<path opacity="0.3" d="M65.2659 70.3649C63.9288 69.1996 62.2433 68.2912 60.2092 67.6398C59 66.2899 59.3128 65.9236 61.1497 66.5404C62.2584 66.74 63.6316 68.0136 65.2659 70.3649Z" fill="#6C6C6C"/>
</g>
</g>
<g opacity="0.3">
<g opacity="0.3">
<path opacity="0.3" d="M41.8072 70.526C42.0616 69.9217 42.7339 69.6884 43.362 69.9871C42.9702 69.9222 42.6358 70.1752 42.5816 70.5775C42.5305 70.9815 42.7616 71.5395 43.1508 71.5673C44.757 71.6871 46.3787 72.0677 48.0591 73.1073C47.4577 73.3803 45.565 73.1196 42.3808 72.3252C41.8012 71.9107 41.5528 71.1304 41.8072 70.526Z" fill="#6C6C6C"/>
</g>
</g>
<g opacity="0.3">
<g opacity="0.3">
<path opacity="0.3" d="M61.9447 65.9402C64.3939 67.0077 65.8231 68.4092 66.2324 70.1447C64.8485 68.7858 63.3587 67.6105 61.7628 66.6189C61.7248 66.6294 61.7854 66.4031 61.9447 65.9402Z" fill="#6C6C6C"/>
</g>
</g>
<g opacity="0.3">
<g opacity="0.3">
<path opacity="0.3" d="M73.0419 87.6928C72.4715 92.4285 68.9447 96.7033 63.5907 98.4118C56.1721 100.779 48.0538 97.3269 45.4571 90.7032C44.2751 87.6883 44.4391 84.5356 45.6715 81.7728C45.4493 83.597 45.6694 85.4928 46.3915 87.3347C48.9882 93.9584 57.1087 97.4098 64.5272 95.0426C65.6424 94.6867 66.6777 94.22 67.623 93.6593C67.2249 93.62 66.8118 93.561 66.383 93.4742C67.7924 93.0536 69.1342 92.3636 70.4085 91.4044C70.4079 91.44 70.4042 91.4739 70.4049 91.5065C71.5307 90.381 72.4235 89.0872 73.0419 87.6928Z" fill="#6C6C6C"/>
</g>
</g>
<path fill-rule="evenodd" clip-rule="evenodd" d="M63.839 98.7308C56.3307 101.124 48.0718 97.5921 45.429 90.8591C42.7861 84.1261 46.7443 76.7009 54.2526 74.308C61.761 71.9151 70.0199 75.4467 72.6627 82.1797C75.3055 88.9127 71.3474 96.3379 63.839 98.7308ZM54.4833 74.8956C47.2639 77.1964 43.4381 84.2841 45.9533 90.692C48.4686 97.0999 56.3881 100.442 63.6075 98.1408C70.8269 95.84 74.6536 88.7547 72.1383 82.3468C69.6231 75.9389 61.7026 72.5948 54.4833 74.8956Z" fill="#6C6C6C"/>
<path d="M66.5477 84.0687C66.651 85.525 66.0241 86.5905 65.1459 86.4487C64.2698 86.3062 63.473 85.0112 63.3696 83.5549C63.2663 82.0986 63.8932 81.033 64.7714 81.1748C65.6496 81.3167 66.4443 82.6124 66.5477 84.0687Z" fill="#6C6C6C"/>
<path d="M65.726 82.4458C65.9269 82.9273 65.884 83.4176 65.6318 83.5402C65.3788 83.6604 65.0115 83.3668 64.8097 82.8829C64.6108 82.4007 64.6528 81.9081 64.9059 81.7879C65.159 81.6676 65.5262 81.9612 65.726 82.4458Z" fill="white"/>
<path d="M64.6741 85.1188C64.8179 85.3489 64.8443 85.6217 64.7336 85.7285C64.6198 85.8336 64.4112 85.7328 64.2673 85.5027C64.1234 85.2725 64.0971 84.9998 64.2099 84.8924C64.3215 84.7879 64.5302 84.8887 64.6741 85.1188Z" fill="white"/>
<path d="M54.5146 82.6687C55.3007 82.4589 56.2587 83.4204 56.6543 84.8126C57.0529 86.2064 56.7369 87.5035 55.9519 87.7102C55.1679 87.9194 54.2078 86.9585 53.8122 85.5663C53.4157 84.1718 53.7297 82.8754 54.5146 82.6687Z" fill="#6C6C6C"/>
<path d="M54.7272 83.2763C55.0112 83.3704 55.2213 83.8369 55.1946 84.3171C55.1679 84.7973 54.9171 85.1112 54.6321 85.0148C54.3481 84.9207 54.138 84.4542 54.1647 83.974C54.1914 83.4938 54.4432 83.1823 54.7272 83.2763Z" fill="white"/>
<path d="M56.1074 86.0709C56.2544 86.1639 56.3242 86.4285 56.2644 86.6616C56.2047 86.8948 56.0399 87.011 55.893 86.9181C55.7481 86.8245 55.6783 86.5599 55.7381 86.3267C55.7978 86.0936 55.9635 85.9797 56.1074 86.0709Z" fill="white"/>
<g opacity="0.2">
<g opacity="0.2">
<g opacity="0.2">
<path opacity="0.2" d="M47.5982 87.5339C47.2532 86.6395 46.988 85.7112 46.8113 84.7518C46.645 83.8506 46.5662 82.9662 46.5672 82.1039C48.0938 78.8619 51.0606 76.1866 55.0224 74.92C62.0982 72.6578 69.8244 75.6927 72.9174 81.7368C73.0558 82.2159 73.1712 82.7052 73.2627 83.2021C73.268 83.2284 73.2703 83.2528 73.2756 83.2791C70.0182 77.573 62.5288 74.7675 55.6535 76.9656C51.6918 78.2322 48.7249 80.9075 47.1983 84.1494C47.1974 85.0117 47.2762 85.8961 47.4424 86.7973C47.4881 87.0458 47.5416 87.2889 47.5982 87.5339Z" fill="#6C6C6C"/>
</g>
</g>
<g opacity="0.2">
<g opacity="0.2">
<path opacity="0.2" d="M73.6638 87.1225C73.6821 87.1456 73.7004 87.1688 73.7167 87.1927C73.6817 87.4697 73.6366 87.7447 73.5815 88.0177C73.6189 87.7231 73.6474 87.4235 73.6638 87.1225Z" fill="#6C6C6C"/>
</g>
</g>
<g opacity="0.2">
<g opacity="0.2">
<path opacity="0.2" d="M47.3635 94.1572C47.1112 93.6761 46.932 93.1714 46.8385 92.6521C46.6521 91.621 46.8126 90.619 47.2614 89.6835C47.4732 90.2431 47.7157 90.7875 47.9901 91.3139C47.4971 92.2061 47.2724 93.166 47.3635 94.1572Z" fill="#6C6C6C"/>
</g>
</g>
</g>
<path fill-rule="evenodd" clip-rule="evenodd" d="M51.6936 62.6495C51.4877 64.115 51.8626 65.5137 52.2755 66.3664L53.0416 65.9972C52.6888 65.2686 52.3618 64.0451 52.5391 62.7831C52.7132 61.5438 53.3744 60.246 55.0406 59.3125L54.6177 58.5573C52.7096 59.6263 51.9027 61.1613 51.6936 62.6495Z" fill="#64EDFF"/>
<path d="M53.209 59.3699C53.4872 60.1489 54.3354 60.5623 55.1034 60.2931C55.8714 60.024 56.2684 59.1744 55.9901 58.3954C55.7119 57.6164 54.8637 57.203 54.0958 57.4721C53.3278 57.7412 52.9308 58.5909 53.209 59.3699Z" fill="#64EDFF"/>
<path fill-rule="evenodd" clip-rule="evenodd" d="M47.7844 61.3564C47.784 61.3564 47.7857 61.36 47.7908 61.3673C47.7874 61.3601 47.7848 61.3565 47.7844 61.3564ZM48.0564 61.6101C48.2462 61.5608 48.5007 61.5184 48.823 61.493C49.7555 61.4198 51.0599 61.5042 52.5021 61.7835C53.9442 62.0628 55.189 62.4721 56.0314 62.8892C56.3225 63.0333 56.5444 63.1681 56.7037 63.285C56.5138 63.3343 56.2593 63.3768 55.9371 63.4021C55.0046 63.4754 53.7001 63.391 52.258 63.1116C50.8158 62.8323 49.5711 62.423 48.7287 62.0059C48.4376 61.8618 48.2157 61.7271 48.0564 61.6101ZM57.047 63.1504C57.0466 63.1503 57.0429 63.1528 57.0372 63.1582C57.0446 63.1533 57.0474 63.1506 57.047 63.1504ZM56.9757 63.5387C56.9761 63.5388 56.9744 63.5352 56.9693 63.5278C56.9727 63.535 56.9752 63.5387 56.9757 63.5387ZM47.7229 61.7369C47.7155 61.7419 47.7126 61.7446 47.713 61.7447C47.7135 61.7448 47.7171 61.7424 47.7229 61.7369ZM52.1048 63.9449C49.1115 63.3651 46.8081 62.2248 46.9601 61.3978C47.1121 60.5709 49.6619 60.3705 52.6552 60.9502C55.6486 61.53 57.952 62.6704 57.8 63.4973C57.648 64.3243 55.0982 64.5247 52.1048 63.9449Z" fill="#64EDFF"/>
<path d="M63.0734 92.9256L56.7236 93.2939C56.7236 93.2939 58.3856 96.4291 60.0676 96.3841C61.8012 96.3376 63.0734 92.9256 63.0734 92.9256Z" fill="#FF5959" stroke="#6C6C6C" stroke-width="0.464217" stroke-linecap="round" stroke-linejoin="round"/>
<g opacity="0.7">
<ellipse cx="15.7246" cy="18.2699" rx="15.7246" ry="18.2699" transform="matrix(-1 0 0 1 237.368 86.7889)" fill="#A41213"/>
<ellipse cx="15.7246" cy="18.2699" rx="15.7246" ry="18.2699" transform="matrix(-1 0 0 1 239.647 86.7889)" fill="#F62425"/>
<ellipse cx="224.378" cy="105.059" rx="1.59525" ry="1.82699" transform="rotate(180 224.378 105.059)" fill="#A41213"/>
<path d="M210.933 105.059C210.933 113.635 216.85 120.588 224.15 120.588C231.45 120.588 237.368 113.635 237.368 105.059C237.368 96.482 231.45 89.5293 224.15 89.5293C216.85 89.5293 210.933 96.482 210.933 105.059ZM233.54 105.059C233.54 111.151 229.336 116.09 224.15 116.09C218.965 116.09 214.761 111.151 214.761 105.059C214.761 98.9662 218.965 94.0272 224.15 94.0272C229.336 94.0272 233.54 98.9662 233.54 105.059Z" fill="white"/>
<path d="M216.857 105.059C216.857 109.599 220.122 113.28 224.15 113.28C228.177 113.28 231.442 109.599 231.442 105.059C231.442 100.518 228.177 96.8374 224.15 96.8374C220.122 96.8374 216.857 100.518 216.857 105.059ZM228.05 105.059C228.05 107.487 226.304 109.456 224.15 109.456C221.996 109.456 220.25 107.487 220.25 105.059C220.25 102.631 221.996 100.662 224.15 100.662C226.304 100.662 228.05 102.631 228.05 105.059Z" fill="white"/>
<path d="M250.586 103.232L247.956 103.414L243.065 103.754L224.378 104.83V105.287L243.151 104.514L250.586 104.145L249.674 103.689L250.586 103.232Z" fill="#1B1E21"/>
<path d="M249.446 101.862L247.956 103.414L243.065 103.754L245.117 102.09L249.446 101.862Z" fill="#F62425"/>
<path d="M247.924 104.277L249.219 105.744L244.661 105.972L243.151 104.514L247.924 104.277Z" fill="#F62425"/>
</g>
<g filter="url(#filter4_f_27319_77432)">
<path d="M25.7461 10.5781C25.7461 7.07202 28.5824 4.22974 32.0811 4.22974H60.5888V17.3749C61.5969 16.4877 62.9185 15.9499 64.3655 15.9499C67.5278 15.9499 70.0914 18.5189 70.0914 21.6879C70.0914 24.8569 67.5278 27.4258 64.3655 27.4258C62.9185 27.4258 61.5969 26.888 60.5888 26.0008V39.146H47.8549C48.5092 40.0787 48.8934 41.2155 48.8934 42.4423C48.8934 45.6113 46.3298 48.1802 43.1675 48.1802C40.0051 48.1802 37.4416 45.6113 37.4416 42.4423C37.4416 41.2155 37.8257 40.0787 38.4801 39.146H25.7461V10.5781Z" fill="white"/>
</g>
<path d="M25.7461 10.5781C25.7461 7.07202 28.5824 4.22974 32.0811 4.22974H60.5888V17.3749C61.5969 16.4877 62.9185 15.9499 64.3655 15.9499C67.5278 15.9499 70.0914 18.5189 70.0914 21.6879C70.0914 24.8569 67.5278 27.4258 64.3655 27.4258C62.9185 27.4258 61.5969 26.888 60.5888 26.0008V39.146H47.8549C48.5092 40.0787 48.8934 41.2155 48.8934 42.4423C48.8934 45.6113 46.3298 48.1802 43.1675 48.1802C40.0051 48.1802 37.4416 45.6113 37.4416 42.4423C37.4416 41.2155 37.8257 40.0787 38.4801 39.146H25.7461V10.5781Z" fill="#3653B4"/>
<path d="M24.7705 10.5781C24.7705 7.07202 27.6068 4.22974 31.1055 4.22974H59.6132V17.3749C60.6213 16.4877 61.9429 15.9499 63.3899 15.9499C66.5522 15.9499 69.1158 18.5189 69.1158 21.6879C69.1158 24.8569 66.5522 27.4258 63.3899 27.4258C61.9429 27.4258 60.6213 26.888 59.6132 26.0008V39.146H46.8793C47.5336 40.0787 47.9178 41.2155 47.9178 42.4423C47.9178 45.6113 45.3542 48.1802 42.1919 48.1802C39.0295 48.1802 36.466 45.6113 36.466 42.4423C36.466 41.2155 36.8501 40.0787 37.5045 39.146H24.7705V10.5781Z" fill="#B0E3FF"/>
<rect x="28.2451" y="21.6368" width="3.97039" height="14.423" fill="white"/>
<rect x="34.2002" y="19.15" width="3.97039" height="16.9097" fill="white"/>
<rect x="40.1562" y="16.1659" width="3.97039" height="19.8938" fill="white"/>
<rect x="46.1113" y="12.6846" width="3.97039" height="23.3752" fill="white"/>
<rect x="52.0674" y="8.2085" width="3.97039" height="27.8513" fill="white"/>
<g opacity="0.7">
<rect x="123.75" y="120.328" width="78.5446" height="54.4918" rx="1.67866" fill="#C89923"/>
<rect x="122.541" y="119.117" width="78.5446" height="54.4918" rx="1.67866" fill="#F3C143"/>
<path d="M172.387 135.767L177.522 132.74" stroke="white" stroke-width="0.839328"/>
<path d="M147.011 135.161L143.386 131.529" stroke="white" stroke-width="0.839328"/>
<path d="M173.293 159.077L179.033 163.921" stroke="white" stroke-width="0.839328"/>
<path d="M159.699 162.105C168.208 162.105 175.106 155.192 175.106 146.665H167.286C167.286 150.864 163.889 154.268 159.699 154.268V162.105Z" fill="#407B8E"/>
<path fill-rule="evenodd" clip-rule="evenodd" d="M159.699 139.062V131.226C151.19 131.226 144.292 138.138 144.292 146.665C144.292 155.192 151.19 162.105 159.699 162.105V154.268C155.509 154.268 152.112 150.864 152.112 146.665C152.112 142.466 155.509 139.062 159.699 139.062Z" fill="#61A0B5"/>
<path d="M175.106 146.665C175.106 138.138 168.208 131.226 159.699 131.226V139.062C163.889 139.062 167.286 142.466 167.286 146.665H175.106Z" fill="white"/>
<rect x="134.625" y="156.05" width="9.06284" height="1.21093" fill="white"/>
<rect x="129.187" y="154.234" width="4.22932" height="4.23825" fill="#407B8E"/>
<rect x="134.625" y="161.499" width="9.06284" height="1.21093" fill="#61A0B5"/>
<rect x="134.625" y="166.948" width="9.06284" height="1.21093" fill="#407B8E"/>
<rect x="129.187" y="159.683" width="4.22932" height="4.23825" fill="#61A0B5"/>
<rect x="129.187" y="165.132" width="4.22932" height="4.23825" fill="white"/>
<path d="M132.208 126.382H144.896V127.593H132.208V126.382Z" fill="white"/>
<path d="M132.208 128.804H139.458V130.015H132.208V128.804Z" fill="white"/>
<path d="M181.147 127.593H193.835V128.804H181.147V127.593Z" fill="white"/>
<path d="M181.147 130.015H188.398V131.226H181.147V130.015Z" fill="white"/>
<path d="M181.147 125.171H188.398V126.382H181.147V125.171Z" fill="white"/>
<path d="M181.147 162.104H191.419V163.315H181.147V162.104Z" fill="white"/>
<path d="M181.147 164.526H187.794V165.737H181.147V164.526Z" fill="white"/>
<path d="M181.147 166.948H191.419V168.159H181.147V166.948Z" fill="white"/>
<path d="M181.147 169.37H187.794V170.581H181.147V169.37Z" fill="white"/>
</g>
<defs>
<filter id="filter0_f_27319_77432" x="25.522" y="127.506" width="55.3964" height="55.5106" filterUnits="userSpaceOnUse" color-interpolation-filters="sRGB">
<feFlood flood-opacity="0" result="BackgroundImageFix"/>
<feBlend mode="normal" in="SourceGraphic" in2="BackgroundImageFix" result="shape"/>
<feGaussianBlur stdDeviation="0.330296" result="effect1_foregroundBlur_27319_77432"/>
</filter>
<filter id="filter1_f_27319_77432" x="41.6729" y="128.983" width="39.1327" height="36.6884" filterUnits="userSpaceOnUse" color-interpolation-filters="sRGB">
<feFlood flood-opacity="0" result="BackgroundImageFix"/>
<feBlend mode="normal" in="SourceGraphic" in2="BackgroundImageFix" result="shape"/>
<feGaussianBlur stdDeviation="0.839328" result="effect1_foregroundBlur_27319_77432"/>
</filter>
<filter id="filter2_f_27319_77432" x="59.191" y="115.901" width="14.9628" height="8.72866" filterUnits="userSpaceOnUse" color-interpolation-filters="sRGB">
<feFlood flood-opacity="0" result="BackgroundImageFix"/>
<feBlend mode="normal" in="SourceGraphic" in2="BackgroundImageFix" result="shape"/>
<feGaussianBlur stdDeviation="0.330296" result="effect1_foregroundBlur_27319_77432"/>
</filter>
<filter id="filter3_f_27319_77432" x="58.2263" y="116.305" width="6.53266" height="3.68061" filterUnits="userSpaceOnUse" color-interpolation-filters="sRGB">
<feFlood flood-opacity="0" result="BackgroundImageFix"/>
<feBlend mode="normal" in="SourceGraphic" in2="BackgroundImageFix" result="shape"/>
<feGaussianBlur stdDeviation="0.165148" result="effect1_foregroundBlur_27319_77432"/>
</filter>
<filter id="filter4_f_27319_77432" x="22.3888" y="0.872424" width="51.0603" height="50.6652" filterUnits="userSpaceOnUse" color-interpolation-filters="sRGB">
<feFlood flood-opacity="0" result="BackgroundImageFix"/>
<feBlend mode="normal" in="SourceGraphic" in2="BackgroundImageFix" result="shape"/>
<feGaussianBlur stdDeviation="1.67866" result="effect1_foregroundBlur_27319_77432"/>
</filter>
<radialGradient id="paint0_radial_27319_77432" cx="0" cy="0" r="1" gradientUnits="userSpaceOnUse" gradientTransform="translate(58.6034 147.537) rotate(98.7885) scale(35.2322 35.1615)">
<stop stop-color="white"/>
<stop offset="1" stop-color="#CEDBEC"/>
</radialGradient>
<linearGradient id="paint1_linear_27319_77432" x1="124.775" y1="3.48399" x2="135.988" y2="135.525" gradientUnits="userSpaceOnUse">
<stop stop-color="#DCC1FF"/>
<stop offset="1" stop-color="#F8F3FF"/>
</linearGradient>
<linearGradient id="paint2_linear_27319_77432" x1="55.541" y1="16.9184" x2="236.194" y2="16.9184" gradientUnits="userSpaceOnUse">
<stop stop-color="#D7B8FF"/>
<stop offset="1" stop-color="#F8F3FF"/>
</linearGradient>
<linearGradient id="paint3_linear_27319_77432" x1="86.0217" y1="152.942" x2="90.0732" y2="163.718" gradientUnits="userSpaceOnUse">
<stop stop-color="#EA7E25"/>
<stop offset="1" stop-color="#FC861F"/>
</linearGradient>
<linearGradient id="paint4_linear_27319_77432" x1="103.356" y1="139.907" x2="111.45" y2="148.54" gradientUnits="userSpaceOnUse">
<stop stop-color="#EA7E25"/>
<stop offset="1" stop-color="#FC861F"/>
</linearGradient>
<linearGradient id="paint5_linear_27319_77432" x1="73.1538" y1="96.3855" x2="77.1529" y2="155.16" gradientUnits="userSpaceOnUse">
<stop stop-color="#3439A0"/>
<stop offset="1" stop-color="#5C63E0"/>
</linearGradient>
<linearGradient id="paint6_linear_27319_77432" x1="75.4086" y1="125.716" x2="84.4079" y2="159.724" gradientUnits="userSpaceOnUse">
<stop stop-color="#3439A0"/>
<stop offset="0.969668" stop-color="#5C63E0"/>
</linearGradient>
<linearGradient id="paint7_linear_27319_77432" x1="70.9701" y1="100.261" x2="96.8771" y2="106.908" gradientUnits="userSpaceOnUse">
<stop stop-color="#393EA8"/>
<stop offset="1" stop-color="#868BFF"/>
</linearGradient>
<linearGradient id="paint8_linear_27319_77432" x1="102.001" y1="92.8349" x2="95.1266" y2="95.9731" gradientUnits="userSpaceOnUse">
<stop stop-color="#FC7135"/>
<stop offset="1" stop-color="#C96032"/>
</linearGradient>
<linearGradient id="paint9_linear_27319_77432" x1="100.133" y1="89.8705" x2="92.4103" y2="94.9406" gradientUnits="userSpaceOnUse">
<stop offset="0.150317" stop-color="#FB9210"/>
<stop offset="1" stop-color="#FC7135"/>
</linearGradient>
<linearGradient id="paint10_linear_27319_77432" x1="79.9244" y1="99.6236" x2="80.7151" y2="118.504" gradientUnits="userSpaceOnUse">
<stop stop-color="#D9D9D9"/>
<stop offset="1" stop-color="#FAFAFA"/>
</linearGradient>
<linearGradient id="paint11_linear_27319_77432" x1="45.4374" y1="107.687" x2="44.3745" y2="128.181" gradientUnits="userSpaceOnUse">
<stop stop-color="#393EA8"/>
<stop offset="1" stop-color="#666AC8"/>
</linearGradient>
</defs>
</svg>
