<svg width="1230" height="353" viewBox="0 0 1230 353" fill="none" xmlns="http://www.w3.org/2000/svg">
<g opacity="0.7">
<path d="M1089.33 352.686H142.514L0 340.709C203.757 148.607 410.122 56 625.359 56C825.471 56 1110.34 175.027 1229.27 340.709L1089.33 352.686Z" fill="url(#paint0_linear_7728_63449)" style="mix-blend-mode:screen"/>
<path style="mix-blend-mode:screen" fill-rule="evenodd" clip-rule="evenodd" d="M838.971 126.839C837.596 137.315 816.097 142.553 790.974 138.562C765.975 134.571 746.851 122.724 748.351 112.248C749.726 101.772 771.225 96.5346 796.223 100.525C821.347 104.516 840.471 116.239 838.971 126.839ZM425.871 112.872C429.496 122.848 413.122 138.811 389.498 148.539C365.875 158.266 343.876 158.141 340.252 148.165C336.752 138.312 353.126 122.35 376.749 112.622C400.373 102.895 422.371 103.019 425.871 112.872ZM491.867 130.83C494.242 137.938 482.368 149.038 465.244 155.647C448.245 162.132 432.496 161.633 430.121 154.525C427.746 147.416 439.62 136.317 456.744 129.707C473.743 123.223 489.492 123.721 491.867 130.83ZM521.115 79.5739C522.74 84.9365 513.491 92.9179 500.617 97.2828C487.742 101.523 476.118 100.775 474.493 95.2874C472.868 89.9249 482.118 82.0681 494.992 77.7033C507.866 73.3384 519.49 74.0867 521.115 79.5739ZM926.715 159.513C924.59 164.626 912.841 164.128 900.467 158.266C888.093 152.28 879.843 143.301 881.968 138.188C884.093 132.95 895.842 133.573 908.216 139.435C920.591 145.296 928.84 154.275 926.715 159.513ZM875.844 176.723C875.219 183.084 862.344 186.7 847.095 184.829C831.846 182.959 820.097 176.224 820.722 169.864C821.472 163.504 834.346 159.763 849.595 161.758C864.844 163.629 876.593 170.363 875.844 176.723Z" fill="url(#paint1_radial_7728_63449)"/>
<path style="mix-blend-mode:screen" fill-rule="evenodd" clip-rule="evenodd" d="M396.748 147.787C385.999 152.276 375.499 154.646 366.875 155.02C373.875 153.897 381.624 151.777 389.499 148.535C413.122 138.807 429.496 122.845 425.871 112.868C423.996 107.505 416.622 105.011 406.498 105.385C420.247 103.265 430.871 105.634 433.121 112.244C436.746 122.096 420.372 138.059 396.748 147.787ZM499.117 130.078C501.492 137.311 489.617 148.41 472.493 154.895C464.869 157.888 457.369 159.385 451.245 159.509C455.62 158.761 460.369 157.514 465.244 155.643C482.368 149.034 494.242 137.934 491.867 130.826C490.492 126.96 485.243 124.965 477.993 125.089C488.867 123.343 497.367 124.965 499.117 130.078ZM775.6 99.2743C783.599 98.0272 793.224 98.1519 803.598 99.7731C828.596 103.764 847.72 115.611 846.22 126.087C845.22 133.445 834.221 138.309 818.972 139.057C830.346 137.311 838.096 132.946 838.971 126.835C840.471 116.235 821.347 104.512 796.223 100.521C788.974 99.2743 781.974 98.9001 775.6 99.2743ZM933.965 158.761C932.84 161.505 928.965 162.627 923.591 162.253C925.091 161.629 926.215 160.756 926.715 159.509C928.84 154.271 920.591 145.292 908.216 139.431C902.467 136.687 896.842 135.191 892.343 134.692C896.967 132.821 906.092 134.318 915.466 138.683C927.84 144.669 936.09 153.648 933.965 158.761ZM883.093 175.971C882.593 180.96 874.469 184.327 863.719 184.576C870.719 183.329 875.469 180.461 875.844 176.719C876.594 170.359 864.844 163.625 849.595 161.754C846.345 161.255 843.096 161.131 840.221 161.255C844.971 160.382 850.72 160.258 856.845 161.006C872.094 162.877 883.843 169.611 883.093 175.971ZM528.365 78.8218C529.99 84.1843 520.866 92.1658 507.991 96.5306C502.367 98.4013 497.117 99.2743 492.617 99.2743C495.2 98.8586 497.867 98.1934 500.617 97.2789C513.491 92.914 522.74 84.9326 521.115 79.57C520.241 76.4523 515.991 74.831 510.241 74.831C519.616 73.2098 527.115 74.5816 528.365 78.8218Z" fill="url(#paint2_radial_7728_63449)"/>
<path opacity="0.5" d="M847.096 184.824C839.846 183.951 833.471 181.956 828.722 179.461C833.971 176.967 842.596 175.969 852.095 177.217C859.345 178.09 865.719 180.085 870.469 182.579C865.219 185.073 856.595 186.071 847.096 184.824Z" fill="url(#paint3_radial_7728_63449)"/>
<path opacity="0.5" d="M790.973 138.554C774.349 135.935 760.35 129.824 753.226 122.965C759.725 115.732 777.974 112.614 798.848 115.981C815.472 118.6 829.471 124.711 836.595 131.57C830.096 138.803 811.847 141.921 790.973 138.554Z" fill="url(#paint4_radial_7728_63449)"/>
<path opacity="0.5" d="M910.717 154.894C915.342 157.139 919.467 159.758 922.592 162.501C917.717 163.873 909.217 162.377 900.468 158.261C895.843 156.016 891.844 153.397 888.594 150.654C893.593 149.282 901.968 150.778 910.717 154.894Z" fill="url(#paint5_radial_7728_63449)"/>
<path opacity="0.5" d="M379.249 128.076C397.873 120.344 415.497 118.848 423.871 123.462C418.746 132.067 405.872 141.794 389.498 148.529C370.874 156.136 353.25 157.757 344.876 153.143C350.001 144.538 362.875 134.811 379.249 128.076Z" fill="url(#paint6_radial_7728_63449)"/>
<path opacity="0.5" d="M514.242 90.4164C510.618 93.0353 505.993 95.4048 500.618 97.2755C494.493 99.2708 488.619 100.144 483.994 100.019C487.494 97.4002 492.119 94.906 497.493 93.16C503.618 91.04 509.618 90.167 514.242 90.4164Z" fill="url(#paint7_radial_7728_63449)"/>
<path opacity="0.5" d="M459.244 145.291C470.493 140.926 481.242 139.679 487.867 141.425C483.117 146.538 475.118 151.901 465.243 155.642C453.994 160.007 443.37 161.129 436.745 159.508C441.37 154.27 449.369 149.032 459.244 145.291Z" fill="url(#paint8_radial_7728_63449)"/>
<path opacity="0.3" d="M411.996 159.51C413.121 163.376 406.372 169.238 396.872 172.48C387.248 175.723 378.623 175.099 377.498 171.108C376.248 167.242 383.123 161.381 392.623 158.139C402.122 154.896 410.871 155.52 411.996 159.51Z" fill="url(#paint9_radial_7728_63449)"/>
<path opacity="0.3" d="M768.848 86.3041C768.223 90.4195 759.849 92.5396 749.974 91.0431C739.975 89.5466 732.35 85.057 732.975 80.9415C733.475 76.8261 741.975 74.706 751.849 76.2026C761.723 77.6991 769.348 82.1887 768.848 86.3041Z" fill="url(#paint10_radial_7728_63449)"/>
<path opacity="0.3" d="M976.336 169.489C974.336 173.106 965.837 171.36 957.212 165.748C948.713 160.136 943.463 152.778 945.463 149.161C947.463 145.669 955.962 147.415 964.462 152.903C973.086 158.514 978.336 165.997 976.336 169.489Z" fill="url(#paint11_radial_7728_63449)"/>
<path opacity="0.3" d="M792.349 90.5465C792.224 92.2925 788.6 93.2901 784.35 92.6666C780.225 92.043 776.975 90.0477 777.225 88.3017C777.35 86.5558 780.975 85.6828 785.225 86.3064C789.35 86.9299 792.599 88.8006 792.349 90.5465Z" fill="url(#paint12_radial_7728_63449)"/>
<path opacity="0.3" d="M833.347 149.782C833.097 151.528 829.472 152.401 825.347 151.777C821.097 151.154 817.848 149.283 818.097 147.537C818.347 145.791 821.972 144.794 826.097 145.417C830.347 146.041 833.597 148.036 833.347 149.782Z" fill="url(#paint13_radial_7728_63449)"/>
<path opacity="0.3" d="M873.094 110.502C872.969 112.248 869.344 113.121 865.094 112.497C860.969 111.873 857.72 110.003 857.97 108.257C858.095 106.511 861.719 105.638 865.969 106.261C870.094 106.885 873.344 108.756 873.094 110.502Z" fill="url(#paint14_radial_7728_63449)"/>
<path opacity="0.3" d="M906.591 171.732C906.091 173.353 902.341 173.228 898.341 171.607C894.467 169.861 891.717 167.242 892.342 165.621C892.967 163.999 896.591 163.999 900.591 165.745C904.591 167.367 907.216 170.11 906.591 171.732Z" fill="url(#paint15_radial_7728_63449)"/>
<path opacity="0.3" d="M897.843 124.714C897.218 127.457 891.343 128.081 884.719 126.21C878.094 124.339 873.345 120.473 874.094 117.855C874.719 115.111 880.594 114.487 887.219 116.358C893.718 118.229 898.593 121.97 897.843 124.714Z" fill="url(#paint16_radial_7728_63449)"/>
<path opacity="0.3" d="M774.975 143.051C774.475 145.919 768.725 147.166 761.975 146.044C755.226 144.922 750.101 141.679 750.601 138.936C750.976 136.067 756.726 134.82 763.475 135.942C770.225 137.19 775.35 140.307 774.975 143.051Z" fill="url(#paint17_radial_7728_63449)"/>
<path opacity="0.3" d="M503.865 108.503C504.365 110.997 500.115 114.364 494.115 115.985C488.241 117.606 482.866 116.983 482.366 114.489C481.741 111.994 486.116 108.627 491.991 107.006C497.99 105.385 503.24 106.008 503.865 108.503Z" fill="url(#paint18_radial_7728_63449)"/>
<path opacity="0.3" d="M497.742 155.268C498.242 157.762 493.992 161.005 487.992 162.626C482.118 164.372 476.743 163.624 476.118 161.254C475.618 158.76 479.993 155.393 485.867 153.772C491.867 152.15 497.117 152.774 497.742 155.268Z" fill="url(#paint19_radial_7728_63449)"/>
<path opacity="0.3" d="M509.867 143.795C510.242 145.416 507.618 147.412 503.868 148.409C500.243 149.532 496.868 149.033 496.493 147.536C496.118 146.04 498.868 143.92 502.618 142.922C506.243 141.924 509.617 142.298 509.867 143.795Z" fill="url(#paint20_radial_7728_63449)"/>
<path opacity="0.3" d="M473.367 82.1915C473.742 83.8127 471.118 85.8081 467.368 86.9305C463.618 87.9282 460.368 87.4293 459.993 85.9328C459.618 84.4363 462.368 82.3162 465.993 81.3185C469.743 80.3209 472.992 80.695 473.367 82.1915Z" fill="url(#paint21_radial_7728_63449)"/>
<path opacity="0.3" d="M426.495 143.795C426.87 145.416 424.246 147.412 420.496 148.409C416.746 149.532 413.496 149.033 413.121 147.536C412.746 146.04 415.496 143.92 419.121 142.922C422.871 141.924 426.12 142.298 426.495 143.795Z" fill="url(#paint22_radial_7728_63449)"/>
<path opacity="0.3" d="M555.362 102.141C556.486 106.007 549.737 111.869 540.112 115.111C530.613 118.354 521.989 117.73 520.864 113.739C519.614 109.873 526.488 104.012 535.988 100.769C545.487 97.5269 554.237 98.1505 555.362 102.141Z" fill="url(#paint23_radial_7728_63449)"/>
<path opacity="0.3" d="M569.862 86.4298C570.237 88.051 567.612 90.0464 563.862 91.0441C560.112 92.1665 556.862 91.6676 556.487 90.1711C556.112 88.6746 558.862 86.5545 562.487 85.5568C566.237 84.5591 569.487 84.9333 569.862 86.4298Z" fill="url(#paint24_radial_7728_63449)"/>
<path opacity="0.3" d="M429.119 94.2902C429.494 95.7868 426.744 97.7821 423.119 98.9045C419.369 99.9022 416.12 99.5281 415.745 97.9068C415.37 96.4103 417.994 94.2902 421.744 93.2925C425.494 92.2948 428.744 92.669 429.119 94.2902Z" fill="url(#paint25_radial_7728_63449)"/>
</g>
<path d="M304.305 165.565C301.56 165.565 299.335 163.337 299.335 160.589C299.335 157.841 301.56 155.613 304.305 155.613C307.051 155.613 309.276 157.841 309.276 160.589C309.276 163.337 307.051 165.565 304.305 165.565Z" fill="#64AEE8" fill-opacity="0.7"/>
<path d="M403.506 159.37C401.584 159.37 400.026 157.811 400.026 155.887C400.026 153.964 401.584 152.404 403.506 152.404C405.427 152.404 406.985 153.964 406.985 155.887C406.985 157.811 405.427 159.37 403.506 159.37Z" fill="#64AEE8" fill-opacity="0.7"/>
<path d="M206.88 82.9662C204.958 82.9662 203.4 81.4067 203.4 79.4831C203.4 77.5594 204.958 76 206.88 76C208.801 76 210.359 77.5594 210.359 79.4831C210.359 81.4067 208.801 82.9662 206.88 82.9662Z" fill="#64AEE8" fill-opacity="0.7"/>
<path d="M404.473 91.1731C403.1 91.1731 401.987 90.0592 401.987 88.6852C401.987 87.3111 403.1 86.1973 404.473 86.1973C405.845 86.1973 406.958 87.3111 406.958 88.6852C406.958 90.0592 405.845 91.1731 404.473 91.1731Z" fill="#64AEE8" fill-opacity="0.7"/>
<path d="M438.769 115.057C438.769 116.052 439.515 116.799 440.509 116.799C441.254 116.799 442 116.052 442 115.057C442 114.311 441.254 113.564 440.509 113.564C439.515 113.564 438.769 114.311 438.769 115.057Z" fill="#64AEE8" fill-opacity="0.7"/>
<path d="M124.609 103.863C124.112 103.116 123.117 103.116 122.372 103.863C121.875 104.36 121.875 105.355 122.372 106.102C123.117 106.599 124.112 106.599 124.609 106.102C125.354 105.355 125.354 104.36 124.609 103.863Z" fill="#64AEE8" fill-opacity="0.7"/>
<path d="M258.577 94.4103C258.08 93.9127 257.086 93.9127 256.341 94.4103C255.844 95.1567 255.844 96.1518 256.341 96.6494C257.086 97.3958 258.08 97.3958 258.577 96.6494C259.323 96.1518 259.323 95.1567 258.577 94.4103Z" fill="#64AEE8" fill-opacity="0.7"/>
<path d="M928.305 133.565C925.56 133.565 923.335 131.337 923.335 128.589C923.335 125.841 925.56 123.613 928.305 123.613C931.051 123.613 933.276 125.841 933.276 128.589C933.276 131.337 931.051 133.565 928.305 133.565Z" fill="#64AEE8" fill-opacity="0.7"/>
<path d="M1027.51 127.37C1025.58 127.37 1024.03 125.811 1024.03 123.887C1024.03 121.964 1025.58 120.404 1027.51 120.404C1029.43 120.404 1030.99 121.964 1030.99 123.887C1030.99 125.811 1029.43 127.37 1027.51 127.37Z" fill="#64AEE8" fill-opacity="0.7"/>
<path d="M830.88 50.9662C828.958 50.9662 827.4 49.4067 827.4 47.4831C827.4 45.5594 828.958 44 830.88 44C832.801 44 834.359 45.5594 834.359 47.4831C834.359 49.4067 832.801 50.9662 830.88 50.9662Z" fill="#64AEE8" fill-opacity="0.7"/>
<path d="M1028.47 59.1731C1027.1 59.1731 1025.99 58.0592 1025.99 56.6852C1025.99 55.3111 1027.1 54.1973 1028.47 54.1973C1029.85 54.1973 1030.96 55.3111 1030.96 56.6852C1030.96 58.0592 1029.85 59.1731 1028.47 59.1731Z" fill="#64AEE8" fill-opacity="0.7"/>
<path d="M1062.77 83.0572C1062.77 84.0524 1063.51 84.7987 1064.51 84.7987C1065.25 84.7987 1066 84.0524 1066 83.0572C1066 82.3108 1065.25 81.5645 1064.51 81.5645C1063.51 81.5645 1062.77 82.3108 1062.77 83.0572Z" fill="#64AEE8" fill-opacity="0.7"/>
<path d="M748.609 71.8625C748.112 71.1161 747.117 71.1161 746.372 71.8625C745.875 72.3601 745.875 73.3552 746.372 74.1016C747.117 74.5992 748.112 74.5992 748.609 74.1016C749.354 73.3552 749.354 72.3601 748.609 71.8625Z" fill="#64AEE8" fill-opacity="0.7"/>
<path d="M882.577 62.4103C882.08 61.9127 881.086 61.9127 880.341 62.4103C879.844 63.1567 879.844 64.1518 880.341 64.6494C881.086 65.3958 882.08 65.3958 882.577 64.6494C883.323 64.1518 883.323 63.1567 882.577 62.4103Z" fill="#64AEE8" fill-opacity="0.7"/>
<g opacity="0.5">
<path d="M869.795 18.6826C867.13 31.3769 875.272 43.8241 887.954 46.4914C900.635 49.1586 913.07 41.0087 915.735 28.3144C918.4 15.6202 910.258 3.17296 897.576 0.505697C884.894 -2.16157 872.459 5.98841 869.795 18.6826Z" fill="url(#paint26_linear_7728_63449)"/>
<path style="mix-blend-mode:multiply" opacity="0.1" d="M915.342 29.8438C915.243 30.0084 915.128 30.1566 914.996 30.2883C913.072 32.3134 910.654 33.7953 908.236 35.1289C905.177 36.8577 901.969 38.4877 898.515 39.3274C892.002 40.908 885.044 39.5249 878.876 36.8083C876.409 35.7216 873.991 34.388 871.474 33.4001C874.484 39.8707 880.406 44.9089 887.955 46.4895C900.144 49.058 912.036 41.6489 915.342 29.8438Z" fill="url(#paint27_linear_7728_63449)"/>
<g style="mix-blend-mode:multiply">
<path style="mix-blend-mode:multiply" d="M908.482 40.8621C908.384 40.8292 908.301 40.8127 908.236 40.8127C907.38 40.6481 906.509 40.4669 905.62 40.2694C900.192 39.0839 894.419 37.4045 888.498 35.2806C881.639 32.8109 875.125 29.9461 869.599 26.9824C869.862 28.5301 870.273 30.0448 870.832 31.5267C875.816 34.0457 881.441 36.466 887.313 38.59C893.284 40.7139 899.107 42.3933 904.634 43.6281C906.015 42.8378 907.298 41.9158 908.482 40.8621Z" fill="url(#paint28_linear_7728_63449)"/>
</g>
<path opacity="0.3" d="M869.499 26.1437C869.631 26.2096 869.746 26.2754 869.845 26.3413C875.717 29.5025 882.724 32.5649 890.125 35.1334C896.195 37.2573 902.116 38.9861 907.692 40.1716C907.791 40.2045 907.906 40.2374 908.038 40.2704C908.202 40.3033 908.367 40.3362 908.531 40.3692C916.032 41.9498 931.674 44.4195 933.944 38.1464C934.832 35.7755 933.154 32.8613 928.812 29.2062C925.654 26.5883 921.262 23.7234 916.229 21.0068C916.361 22.2581 916.377 23.5423 916.278 24.8595C927.134 30.9843 931.131 35.7755 930.687 36.961C930.095 38.591 924.173 40.0234 910.998 37.4549C910.143 37.2903 909.271 37.1092 908.383 36.9116C902.955 35.7261 897.182 34.0961 891.26 32.0216C883.859 29.4037 876.95 26.3907 871.177 23.2789C870.585 22.9496 870.026 22.6368 869.499 22.3404C859.828 16.8083 857.015 12.758 857.558 11.3256C857.656 11.0292 858.841 10.1895 862.788 10.1401C865.502 10.1401 868.956 10.4365 872.707 11.128C873.365 10.0413 874.105 9.037 874.927 8.11498C868.414 6.83074 856.077 5.20074 854.252 10.1895C852.228 15.771 862.936 22.5874 869.499 26.1437Z" fill="url(#paint29_linear_7728_63449)"/>
<path opacity="0.3" d="M878.184 5.10154C879.023 6.83032 879.566 8.6579 880.948 10.0409C883.07 12.2143 886.178 13.4985 889.139 13.8443C889.435 13.8772 889.731 13.8936 890.027 13.8936C890.077 15.2767 890.817 16.6103 892.544 16.9561C895.504 17.5982 897.034 14.5358 896.245 12.4118C897.084 12.0661 897.873 11.7697 898.712 11.4733C902.758 10.0903 907.249 10.1891 911.443 11.2264C911.969 11.3581 912.512 11.5063 913.071 11.6709C909.815 6.13881 904.337 1.94033 897.577 0.50791C890.471 -0.973905 883.464 0.903063 878.184 5.10154Z" fill="url(#paint30_linear_7728_63449)"/>
<path d="M907.694 21.6964C911.839 22.5855 910.507 29.056 906.312 28.2164C902.118 27.3273 903.5 20.8073 907.694 21.6964Z" fill="url(#paint31_linear_7728_63449)"/>
<path d="M878.331 18.2874C881.292 18.9295 880.354 23.5231 877.394 22.881C874.433 22.2883 875.37 17.6452 878.331 18.2874Z" fill="url(#paint32_linear_7728_63449)"/>
<path opacity="0.3" d="M889.041 20.4587C889.929 20.6563 889.633 22.0393 888.745 21.8417C887.906 21.6442 888.153 20.2611 889.041 20.4587Z" fill="url(#paint33_linear_7728_63449)"/>
<path opacity="0.3" d="M876.112 10.975V11.1232C876.079 11.2549 876.079 11.3701 876.112 11.4689C876.145 11.5348 876.177 11.6006 876.21 11.6665C876.276 11.7653 876.358 11.8476 876.457 11.9135C876.523 11.9135 876.572 11.9299 876.605 11.9629C876.704 11.9958 876.802 11.9958 876.901 11.9629C877 11.9299 877.082 11.897 877.148 11.8641C877.247 11.7982 877.312 11.7323 877.345 11.6665C877.411 11.6006 877.444 11.5183 877.444 11.4195L877.493 11.2713C877.526 11.1396 877.51 11.0244 877.444 10.9256C877.444 10.8597 877.428 10.7939 877.395 10.728C877.329 10.6292 877.23 10.5634 877.099 10.5304L876.951 10.4316C876.852 10.4316 876.753 10.4316 876.654 10.4316C876.589 10.4646 876.506 10.4975 876.408 10.5304C876.342 10.5963 876.276 10.6621 876.21 10.728C876.177 10.7939 876.145 10.8762 876.112 10.975Z" fill="url(#paint34_linear_7728_63449)"/>
<path opacity="0.3" d="M880.011 35.7243C880.899 35.9219 880.603 37.2555 879.715 37.1074C878.826 36.9098 879.122 35.5268 880.011 35.7243Z" fill="url(#paint35_linear_7728_63449)"/>
<path opacity="0.3" d="M897.971 29.6498L897.873 29.9462C897.84 30.0779 897.856 30.2261 897.922 30.3907C897.955 30.4566 897.988 30.5224 898.021 30.5883C898.087 30.72 898.202 30.8188 898.366 30.8847C898.432 30.9176 898.498 30.9505 898.564 30.9834C898.695 30.9834 898.81 30.967 898.909 30.934C899.008 30.934 899.106 30.9011 899.205 30.8353C899.304 30.7694 899.386 30.6871 899.452 30.5883C899.518 30.4895 899.567 30.3907 899.6 30.2919L899.649 29.9956C899.682 29.8309 899.682 29.6827 899.649 29.551C899.616 29.4852 899.583 29.4193 899.55 29.3534C899.452 29.2217 899.337 29.1229 899.205 29.0571C899.139 29.0241 899.057 28.9912 898.958 28.9583C898.86 28.9254 898.761 28.9254 898.662 28.9583C898.531 28.9912 898.416 29.0406 898.317 29.1065C898.218 29.1723 898.136 29.2547 898.07 29.3534C898.004 29.4193 897.971 29.5181 897.971 29.6498Z" fill="url(#paint36_linear_7728_63449)"/>
<path opacity="0.3" d="M909.666 14.9263C910.801 15.1732 910.406 16.902 909.321 16.6551C908.235 16.4081 908.58 14.7287 909.666 14.9263Z" fill="url(#paint37_linear_7728_63449)"/>
<path d="M898.663 41.0592C899.749 41.3062 899.403 42.9856 898.268 42.788C897.183 42.541 897.528 40.8123 898.663 41.0592Z" fill="url(#paint38_linear_7728_63449)"/>
<path d="M884.304 42.4424C882.725 42.146 881.442 42.6894 880.652 43.6279C882.676 44.8627 884.945 45.7518 887.363 46.3445C887.413 44.6157 886.475 42.9363 884.304 42.4424Z" fill="url(#paint39_linear_7728_63449)"/>
</g>
<g opacity="0.6">
<path d="M407.682 70.8512L422.345 103.492L480 65.2464L452.832 45.4668L407.682 70.8512Z" fill="url(#paint40_linear_7728_63449)" fill-opacity="0.1"/>
<path d="M418.323 66.7699C419.715 69.159 427.372 67.3672 435.428 62.6885C443.483 58.0098 448.853 52.2361 447.361 49.847C446.964 49.0506 445.87 48.752 444.378 48.752C441.196 48.8515 435.825 50.7429 430.356 53.9284C424.787 57.1139 420.51 60.8967 418.919 63.684C418.124 64.9781 417.925 65.9735 418.323 66.7699Z" fill="#FFCE66"/>
<path d="M391.372 71.8442C394.058 76.5229 412.853 70.6497 433.34 58.8036C453.727 46.858 468.047 33.4192 465.362 28.6409C464.765 27.6455 463.274 27.0482 461.185 27.0482C453.925 26.9486 439.207 32.5233 423.395 41.7811C406.389 51.6362 393.56 62.6859 391.372 68.8578C390.875 70.0524 390.875 71.0478 391.372 71.8442Z" fill="url(#paint41_linear_7728_63449)"/>
<path d="M391.372 71.8449C394.058 76.5236 412.853 70.6503 433.34 58.8042C453.727 46.8586 468.047 33.4198 465.362 28.6416C464.765 27.6461 463.274 27.0488 461.185 27.0488C461.285 27.3475 461.583 27.7457 461.483 29.1393C461.483 29.9357 460.191 33.1212 453.627 39.094C447.76 44.37 439.505 50.2432 430.356 55.6187C421.108 60.9943 411.958 65.2748 404.4 67.7634C399.03 69.5553 395.748 69.9535 393.859 69.9535C392.964 69.9535 392.168 69.5553 391.571 68.958C391.505 68.8916 391.439 68.8585 391.372 68.8585C390.875 70.053 390.875 71.0485 391.372 71.8449Z" fill="url(#paint42_linear_7728_63449)"/>
<path d="M406.289 48.8505L438.411 30.733C437.417 29.3393 436.124 29.1402 434.632 28.3438C429.859 26.0543 422.798 26.6515 416.334 30.4343C409.869 34.2171 405.792 40.0903 405.494 45.3663C405.394 46.8595 405.693 47.4568 406.289 48.8505Z" fill="url(#paint43_linear_7728_63449)"/>
<path d="M402.511 61.989C402.909 62.6858 403.804 62.9844 404.301 62.6858L410.765 58.903L444.975 38.8941L450.843 35.5095C451.439 35.1114 451.539 34.1159 450.843 33.4191L449.948 32.2245C449.649 31.9259 449.351 31.7268 448.953 31.6272L439.108 29.4372C438.014 29.1386 436.92 29.3376 436.025 29.8354L405.991 47.3556C405.196 47.8533 405.096 49.4461 404.798 50.5411L402.212 60.6949C402.113 61.0931 402.212 61.5908 402.511 61.989Z" fill="url(#paint44_linear_7728_63449)"/>
<path d="M442.63 33.0536C442.829 33.6509 443.624 33.9495 444.221 33.7504C444.818 33.4518 445.116 32.6554 444.818 32.0581C444.519 31.4609 443.823 31.0627 443.226 31.3613C442.63 31.66 442.331 32.3568 442.63 33.0536Z" fill="url(#paint45_linear_7728_63449)"/>
<path d="M436.797 37.1376C436.996 37.7349 437.791 38.0335 438.388 37.8344C438.985 37.5358 439.283 36.7394 438.985 36.1421C438.686 35.5449 437.99 35.1467 437.393 35.4453C436.797 35.7439 436.498 36.4408 436.797 37.1376Z" fill="url(#paint46_linear_7728_63449)"/>
<path d="M430.963 41.2235C431.162 41.8208 431.957 42.1195 432.554 41.9204C433.151 41.6217 433.449 40.8253 433.151 40.2281C432.852 39.6308 432.156 39.2326 431.559 39.5312C430.963 39.8299 430.664 40.5267 430.963 41.2235Z" fill="url(#paint47_linear_7728_63449)"/>
<path d="M424.548 45.3036C424.747 45.9009 425.542 46.1995 426.139 46.0004C426.735 45.7018 427.034 44.9054 426.735 44.3081C426.437 43.7109 425.741 43.3127 425.144 43.6113C424.548 43.91 424.249 44.6068 424.548 45.3036Z" fill="url(#paint48_linear_7728_63449)"/>
<path d="M418.13 48.8036C418.329 49.4009 419.124 49.6995 419.721 49.5004C420.318 49.2018 420.616 48.4054 420.318 47.8081C420.019 47.2109 419.323 46.8127 418.726 47.1113C418.13 47.41 417.831 48.1068 418.13 48.8036Z" fill="url(#paint49_linear_7728_63449)"/>
<path d="M411.713 52.3036C411.912 52.9009 412.707 53.1995 413.304 53.0004C413.901 52.7018 414.199 51.9054 413.901 51.3081C413.602 50.7109 412.906 50.3127 412.309 50.6113C411.713 50.91 411.414 51.6068 411.713 52.3036Z" fill="url(#paint50_linear_7728_63449)"/>
<path d="M405.298 55.2235C405.497 55.8208 406.292 56.1195 406.889 55.9204C407.485 55.6217 407.784 54.8253 407.485 54.2281C407.187 53.6308 406.491 53.2326 405.894 53.5312C405.298 53.8299 404.999 54.5267 405.298 55.2235Z" fill="url(#paint51_linear_7728_63449)"/>
<path d="M418.323 66.7686L430.81 92.9574L466.272 66.7686L447.362 49.8457L418.323 66.7686Z" fill="url(#paint52_linear_7728_63449)" fill-opacity="0.1"/>
</g>
<defs>
<linearGradient id="paint0_linear_7728_63449" x1="615.751" y1="56.1516" x2="615.751" y2="436.226" gradientUnits="userSpaceOnUse">
<stop stop-color="white"/>
<stop offset="1" stop-color="#709CFA"/>
</linearGradient>
<radialGradient id="paint1_radial_7728_63449" cx="0" cy="0" r="1" gradientUnits="userSpaceOnUse" gradientTransform="translate(633.483 130.082) scale(55.3716 55.2467)">
<stop stop-color="#372D98"/>
<stop offset="1" stop-color="#131724"/>
</radialGradient>
<radialGradient id="paint2_radial_7728_63449" cx="0" cy="0" r="1" gradientUnits="userSpaceOnUse" gradientTransform="translate(650.608 129.329) scale(55.3716 55.2467)">
<stop stop-color="#372D98"/>
<stop offset="1" stop-color="#131724"/>
</radialGradient>
<radialGradient id="paint3_radial_7728_63449" cx="0" cy="0" r="1" gradientUnits="userSpaceOnUse" gradientTransform="translate(719.853 14.9684) scale(217.487 216.996)">
<stop stop-color="#372D98"/>
<stop offset="1" stop-color="#131724"/>
</radialGradient>
<radialGradient id="paint4_radial_7728_63449" cx="0" cy="0" r="1" gradientUnits="userSpaceOnUse" gradientTransform="translate(719.853 7.73244) scale(217.487 216.996)">
<stop stop-color="#372D98"/>
<stop offset="1" stop-color="#131724"/>
</radialGradient>
<radialGradient id="paint5_radial_7728_63449" cx="0" cy="0" r="1" gradientUnits="userSpaceOnUse" gradientTransform="translate(719.854 8.60872) scale(222.236 221.735)">
<stop stop-color="#372D98"/>
<stop offset="1" stop-color="#131724"/>
</radialGradient>
<radialGradient id="paint6_radial_7728_63449" cx="0" cy="0" r="1" gradientUnits="userSpaceOnUse" gradientTransform="translate(719.853 4.23896) scale(225.861 225.351)">
<stop stop-color="#372D98"/>
<stop offset="1" stop-color="#131724"/>
</radialGradient>
<radialGradient id="paint7_radial_7728_63449" cx="0" cy="0" r="1" gradientUnits="userSpaceOnUse" gradientTransform="translate(719.855 -6.98248) scale(241.985 241.44)">
<stop stop-color="#372D98"/>
<stop offset="1" stop-color="#131724"/>
</radialGradient>
<radialGradient id="paint8_radial_7728_63449" cx="0" cy="0" r="1" gradientUnits="userSpaceOnUse" gradientTransform="translate(719.853 3.49527) scale(228.986 228.469)">
<stop stop-color="#372D98"/>
<stop offset="1" stop-color="#131724"/>
</radialGradient>
<radialGradient id="paint9_radial_7728_63449" cx="0" cy="0" r="1" gradientUnits="userSpaceOnUse" gradientTransform="translate(388.623 124.966) scale(68.3709 68.2166)">
<stop stop-color="#372D98"/>
<stop offset="1" stop-color="#131724"/>
</radialGradient>
<radialGradient id="paint10_radial_7728_63449" cx="0" cy="0" r="1" gradientUnits="userSpaceOnUse" gradientTransform="translate(762.723 44.6509) scale(69.1206 68.9648)">
<stop stop-color="#372D98"/>
<stop offset="1" stop-color="#131724"/>
</radialGradient>
<radialGradient id="paint11_radial_7728_63449" cx="0" cy="0" r="1" gradientUnits="userSpaceOnUse" gradientTransform="translate(985.835 128.584) scale(70.4955 70.3366)">
<stop stop-color="#372D98"/>
<stop offset="1" stop-color="#131724"/>
</radialGradient>
<radialGradient id="paint12_radial_7728_63449" cx="0" cy="0" r="1" gradientUnits="userSpaceOnUse" gradientTransform="translate(789.85 72.8377) scale(29.3731 29.3068)">
<stop stop-color="#372D98"/>
<stop offset="1" stop-color="#131724"/>
</radialGradient>
<radialGradient id="paint13_radial_7728_63449" cx="0" cy="0" r="1" gradientUnits="userSpaceOnUse" gradientTransform="translate(830.722 132.073) scale(29.3734 29.307)">
<stop stop-color="#372D98"/>
<stop offset="1" stop-color="#131724"/>
</radialGradient>
<radialGradient id="paint14_radial_7728_63449" cx="0" cy="0" r="1" gradientUnits="userSpaceOnUse" gradientTransform="translate(870.594 92.7927) scale(29.3731 29.3069)">
<stop stop-color="#372D98"/>
<stop offset="1" stop-color="#131724"/>
</radialGradient>
<radialGradient id="paint15_radial_7728_63449" cx="0" cy="0" r="1" gradientUnits="userSpaceOnUse" gradientTransform="translate(908.091 153.399) scale(30.4982 30.4294)">
<stop stop-color="#372D98"/>
<stop offset="1" stop-color="#131724"/>
</radialGradient>
<radialGradient id="paint16_radial_7728_63449" cx="0" cy="0" r="1" gradientUnits="userSpaceOnUse" gradientTransform="translate(897.093 96.1549) scale(47.1221 47.0159)">
<stop stop-color="#372D98"/>
<stop offset="1" stop-color="#131724"/>
</radialGradient>
<radialGradient id="paint17_radial_7728_63449" cx="0" cy="0" r="1" gradientUnits="userSpaceOnUse" gradientTransform="translate(771.35 114.742) scale(46.8721 46.7664)">
<stop stop-color="#372D98"/>
<stop offset="1" stop-color="#131724"/>
</radialGradient>
<radialGradient id="paint18_radial_7728_63449" cx="0" cy="0" r="1" gradientUnits="userSpaceOnUse" gradientTransform="translate(490.616 86.9276) scale(41.3725 41.2791)">
<stop stop-color="#372D98"/>
<stop offset="1" stop-color="#131724"/>
</radialGradient>
<radialGradient id="paint19_radial_7728_63449" cx="0" cy="0" r="1" gradientUnits="userSpaceOnUse" gradientTransform="translate(484.493 133.569) scale(41.3724 41.2791)">
<stop stop-color="#372D98"/>
<stop offset="1" stop-color="#131724"/>
</radialGradient>
<radialGradient id="paint20_radial_7728_63449" cx="0" cy="0" r="1" gradientUnits="userSpaceOnUse" gradientTransform="translate(501.743 130.326) scale(25.7484 25.6903)">
<stop stop-color="#372D98"/>
<stop offset="1" stop-color="#131724"/>
</radialGradient>
<radialGradient id="paint21_radial_7728_63449" cx="0" cy="0" r="1" gradientUnits="userSpaceOnUse" gradientTransform="translate(465.243 68.7228) scale(25.7484 25.6903)">
<stop stop-color="#372D98"/>
<stop offset="1" stop-color="#131724"/>
</radialGradient>
<radialGradient id="paint22_radial_7728_63449" cx="0" cy="0" r="1" gradientUnits="userSpaceOnUse" gradientTransform="translate(418.246 130.326) scale(25.7484 25.6903)">
<stop stop-color="#372D98"/>
<stop offset="1" stop-color="#131724"/>
</radialGradient>
<radialGradient id="paint23_radial_7728_63449" cx="0" cy="0" r="1" gradientUnits="userSpaceOnUse" gradientTransform="translate(531.988 67.5964) scale(68.3709 68.2166)">
<stop stop-color="#372D98"/>
<stop offset="1" stop-color="#131724"/>
</radialGradient>
<radialGradient id="paint24_radial_7728_63449" cx="0" cy="0" r="1" gradientUnits="userSpaceOnUse" gradientTransform="translate(561.612 72.9611) scale(25.7484 25.6903)">
<stop stop-color="#372D98"/>
<stop offset="1" stop-color="#131724"/>
</radialGradient>
<radialGradient id="paint25_radial_7728_63449" cx="0" cy="0" r="1" gradientUnits="userSpaceOnUse" gradientTransform="translate(420.869 80.6968) scale(25.7484 25.6903)">
<stop stop-color="#372D98"/>
<stop offset="1" stop-color="#131724"/>
</radialGradient>
<linearGradient id="paint26_linear_7728_63449" x1="925.16" y1="-22.3143" x2="868.24" y2="8.26292" gradientUnits="userSpaceOnUse">
<stop stop-color="#BD67B3"/>
<stop offset="1" stop-color="#5A4BA7"/>
</linearGradient>
<linearGradient id="paint27_linear_7728_63449" x1="915.046" y1="48.4652" x2="915.59" y2="40.1177" gradientUnits="userSpaceOnUse">
<stop stop-color="#BD67B3"/>
<stop offset="1" stop-color="#5A4BA7"/>
</linearGradient>
<linearGradient id="paint28_linear_7728_63449" x1="868.217" y1="28.0691" x2="866.833" y2="32.0197" gradientUnits="userSpaceOnUse">
<stop stop-color="#BD67B3"/>
<stop offset="1" stop-color="white" stop-opacity="0.1"/>
</linearGradient>
<linearGradient id="paint29_linear_7728_63449" x1="937.003" y1="21.0068" x2="857.354" y2="4.3433" gradientUnits="userSpaceOnUse">
<stop stop-color="#E0E5F3"/>
<stop offset="1" stop-color="#7D84C4"/>
</linearGradient>
<linearGradient id="paint30_linear_7728_63449" x1="914.848" y1="4.06427" x2="880.155" y2="-3.18287" gradientUnits="userSpaceOnUse">
<stop stop-color="#E0E5F3"/>
<stop offset="1" stop-color="#7D84C4"/>
</linearGradient>
<linearGradient id="paint31_linear_7728_63449" x1="882.725" y1="19.0785" x2="896.496" y2="24.0092" gradientUnits="userSpaceOnUse">
<stop stop-color="#BD67B3"/>
<stop offset="1" stop-color="#5A4BA7"/>
</linearGradient>
<linearGradient id="paint32_linear_7728_63449" x1="868.808" y1="8.95193" x2="875.43" y2="21.8878" gradientUnits="userSpaceOnUse">
<stop stop-color="#BD67B3"/>
<stop offset="1" stop-color="#5A4BA7"/>
</linearGradient>
<linearGradient id="paint33_linear_7728_63449" x1="889.584" y1="19.9154" x2="888.695" y2="19.7182" gradientUnits="userSpaceOnUse">
<stop stop-color="#E0E5F3"/>
<stop offset="1" stop-color="#7D84C4"/>
</linearGradient>
<linearGradient id="paint34_linear_7728_63449" x1="877.839" y1="9.64134" x2="876.457" y2="9.34554" gradientUnits="userSpaceOnUse">
<stop stop-color="#E0E5F3"/>
<stop offset="1" stop-color="#7D84C4"/>
</linearGradient>
<linearGradient id="paint35_linear_7728_63449" x1="880.504" y1="35.181" x2="879.665" y2="34.9838" gradientUnits="userSpaceOnUse">
<stop stop-color="#E0E5F3"/>
<stop offset="1" stop-color="#7D84C4"/>
</linearGradient>
<linearGradient id="paint36_linear_7728_63449" x1="900.044" y1="28.168" x2="898.317" y2="27.8229" gradientUnits="userSpaceOnUse">
<stop stop-color="#E0E5F3"/>
<stop offset="1" stop-color="#7D84C4"/>
</linearGradient>
<linearGradient id="paint37_linear_7728_63449" x1="910.307" y1="14.4323" x2="909.222" y2="14.2351" gradientUnits="userSpaceOnUse">
<stop stop-color="#E0E5F3"/>
<stop offset="1" stop-color="#7D84C4"/>
</linearGradient>
<linearGradient id="paint38_linear_7728_63449" x1="909.272" y1="13.0035" x2="896.62" y2="39.4195" gradientUnits="userSpaceOnUse">
<stop stop-color="#BD67B3"/>
<stop offset="1" stop-color="#5A4BA7"/>
</linearGradient>
<linearGradient id="paint39_linear_7728_63449" x1="880.751" y1="36.9103" x2="879.367" y2="45.5044" gradientUnits="userSpaceOnUse">
<stop stop-color="#BD67B3"/>
<stop offset="1" stop-color="#5A4BA7"/>
</linearGradient>
<linearGradient id="paint40_linear_7728_63449" x1="427.187" y1="45.6858" x2="459.601" y2="86.8201" gradientUnits="userSpaceOnUse">
<stop stop-color="#B6BDFF"/>
<stop offset="1" stop-color="#7D84C4" stop-opacity="0"/>
</linearGradient>
<linearGradient id="paint41_linear_7728_63449" x1="384.709" y1="62.2877" x2="391.681" y2="73.4308" gradientUnits="userSpaceOnUse">
<stop stop-color="#F12711"/>
<stop offset="1" stop-color="#F5AF19"/>
</linearGradient>
<linearGradient id="paint42_linear_7728_63449" x1="467.55" y1="70.7499" x2="467.649" y2="27.0488" gradientUnits="userSpaceOnUse">
<stop stop-color="#F12711"/>
<stop offset="1" stop-color="#EE0979"/>
</linearGradient>
<linearGradient id="paint43_linear_7728_63449" x1="423.958" y1="19.7084" x2="440.573" y2="31.9726" gradientUnits="userSpaceOnUse">
<stop stop-color="#FF6A00"/>
<stop offset="1" stop-color="#EE0979"/>
</linearGradient>
<linearGradient id="paint44_linear_7728_63449" x1="456.625" y1="38.6655" x2="419.849" y2="6.90429" gradientUnits="userSpaceOnUse">
<stop stop-color="#F5AF19"/>
<stop offset="1" stop-color="#EE0979"/>
</linearGradient>
<linearGradient id="paint45_linear_7728_63449" x1="448.497" y1="37.0355" x2="445.807" y2="30.1686" gradientUnits="userSpaceOnUse">
<stop stop-color="white"/>
<stop offset="1" stop-color="white" stop-opacity="0.5"/>
</linearGradient>
<linearGradient id="paint46_linear_7728_63449" x1="442.664" y1="41.1195" x2="439.974" y2="34.2525" gradientUnits="userSpaceOnUse">
<stop stop-color="white"/>
<stop offset="1" stop-color="white" stop-opacity="0.5"/>
</linearGradient>
<linearGradient id="paint47_linear_7728_63449" x1="436.83" y1="45.2054" x2="434.14" y2="38.3385" gradientUnits="userSpaceOnUse">
<stop stop-color="white"/>
<stop offset="1" stop-color="white" stop-opacity="0.5"/>
</linearGradient>
<linearGradient id="paint48_linear_7728_63449" x1="430.415" y1="49.2855" x2="427.725" y2="42.4186" gradientUnits="userSpaceOnUse">
<stop stop-color="white"/>
<stop offset="1" stop-color="white" stop-opacity="0.5"/>
</linearGradient>
<linearGradient id="paint49_linear_7728_63449" x1="423.997" y1="52.7855" x2="421.307" y2="45.9186" gradientUnits="userSpaceOnUse">
<stop stop-color="white"/>
<stop offset="1" stop-color="white" stop-opacity="0.5"/>
</linearGradient>
<linearGradient id="paint50_linear_7728_63449" x1="417.58" y1="56.2855" x2="414.89" y2="49.4186" gradientUnits="userSpaceOnUse">
<stop stop-color="white"/>
<stop offset="1" stop-color="white" stop-opacity="0.5"/>
</linearGradient>
<linearGradient id="paint51_linear_7728_63449" x1="411.165" y1="59.2054" x2="408.475" y2="52.3385" gradientUnits="userSpaceOnUse">
<stop stop-color="white"/>
<stop offset="1" stop-color="white" stop-opacity="0.5"/>
</linearGradient>
<linearGradient id="paint52_linear_7728_63449" x1="430.979" y1="35.175" x2="422.212" y2="71.3733" gradientUnits="userSpaceOnUse">
<stop stop-color="#7D84C4"/>
<stop offset="1" stop-color="#7D84C4" stop-opacity="0"/>
</linearGradient>
</defs>
</svg>
