<svg width="1230" height="297" viewBox="0 0 1230 297" fill="none" xmlns="http://www.w3.org/2000/svg">
<g opacity="0.4">
<path d="M1089.33 296.686H142.514L0 284.709C203.757 92.6071 410.122 0 625.359 0C825.471 0 1110.34 119.027 1229.27 284.709L1089.33 296.686Z" fill="url(#paint0_linear_15568_122660)" style="mix-blend-mode:screen"/>
<path style="mix-blend-mode:screen" fill-rule="evenodd" clip-rule="evenodd" d="M838.97 70.8353C837.595 81.3109 816.096 86.5488 790.973 82.558C765.974 78.5673 746.85 66.7198 748.35 56.2441C749.725 45.7685 771.224 40.5306 796.222 44.5214C821.346 48.5121 840.47 60.2349 838.97 70.8353ZM425.87 56.8677C429.495 66.8445 413.121 82.8074 389.498 92.5348C365.874 102.262 343.875 102.138 340.251 92.1607C336.751 82.3086 353.125 66.3457 376.748 56.6183C400.372 46.8909 422.37 47.0156 425.87 56.8677ZM491.866 74.826C494.241 81.9345 482.367 93.0337 465.243 99.6433C448.244 106.128 432.495 105.629 430.12 98.5209C427.745 91.4124 439.619 80.3132 456.743 73.7036C473.742 67.2186 489.491 67.7175 491.866 74.826ZM521.114 23.57C522.739 28.9326 513.49 36.914 500.616 41.2789C487.741 45.5191 476.117 44.7708 474.492 39.2835C472.867 33.921 482.117 26.0642 494.991 21.6994C507.865 17.3345 519.489 18.0828 521.114 23.57ZM926.714 103.509C924.589 108.622 912.84 108.124 900.466 102.262C888.092 96.2761 879.842 87.297 881.967 82.1839C884.092 76.946 895.841 77.5696 908.215 83.431C920.59 89.2924 928.839 98.2715 926.714 103.509ZM875.843 120.719C875.218 127.08 862.343 130.696 847.094 128.826C831.845 126.955 820.096 120.221 820.721 113.86C821.471 107.5 834.345 103.759 849.594 105.754C864.843 107.625 876.592 114.359 875.843 120.719Z" fill="url(#paint1_radial_15568_122660)"/>
<path style="mix-blend-mode:screen" fill-rule="evenodd" clip-rule="evenodd" d="M396.748 91.7846C385.999 96.2742 375.499 98.6437 366.875 99.0178C373.875 97.8954 381.624 95.7754 389.499 92.5329C413.122 82.8055 429.496 66.8426 425.871 56.8657C423.996 51.5032 416.622 49.009 406.498 49.3831C420.247 47.263 430.871 49.6325 433.121 56.2422C436.746 66.0943 420.372 82.0572 396.748 91.7846ZM499.117 74.0757C501.492 81.3089 489.617 92.4082 472.493 98.8931C464.869 101.886 457.369 103.383 451.245 103.507C455.62 102.759 460.369 101.512 465.244 99.6413C482.368 93.0317 494.242 81.9325 491.867 74.824C490.492 70.958 485.243 68.9626 477.993 69.0873C488.867 67.3414 497.367 68.9626 499.117 74.0757ZM775.6 43.2723C783.599 42.0252 793.224 42.1499 803.598 43.7712C828.596 47.7619 847.72 59.6094 846.22 70.085C845.22 77.4429 834.221 82.3066 818.972 83.0549C830.346 81.3089 838.096 76.9441 838.971 70.8333C840.471 60.2329 821.347 48.5101 796.223 44.5194C788.974 43.2723 781.974 42.8982 775.6 43.2723ZM933.965 102.759C932.84 105.503 928.965 106.625 923.591 106.251C925.091 105.627 926.215 104.754 926.715 103.507C928.84 98.2695 920.591 89.2904 908.216 83.429C902.467 80.6854 896.842 79.1889 892.343 78.69C896.967 76.8194 906.092 78.3159 915.466 82.6808C927.84 88.6669 936.09 97.646 933.965 102.759ZM883.093 119.969C882.593 124.958 874.469 128.325 863.719 128.574C870.719 127.327 875.469 124.459 875.844 120.717C876.594 114.357 864.844 107.623 849.595 105.752C846.345 105.253 843.096 105.129 840.221 105.253C844.971 104.38 850.72 104.256 856.845 105.004C872.094 106.875 883.843 113.609 883.093 119.969ZM528.365 22.8198C529.99 28.1824 520.866 36.1638 507.991 40.5287C502.367 42.3993 497.117 43.2723 492.617 43.2723C495.2 42.8566 497.867 42.1915 500.617 41.2769C513.491 36.9121 522.74 28.9306 521.115 23.5681C520.241 20.4503 515.991 18.8291 510.241 18.8291C519.616 17.2079 527.115 18.5797 528.365 22.8198Z" fill="url(#paint2_radial_15568_122660)"/>
<path opacity="0.5" d="M847.095 128.824C839.845 127.951 833.47 125.956 828.721 123.461C833.97 120.967 842.595 119.969 852.094 121.217C859.344 122.09 865.718 124.085 870.468 126.579C865.218 129.073 856.594 130.071 847.095 128.824Z" fill="url(#paint3_radial_15568_122660)"/>
<path opacity="0.5" d="M790.972 82.5536C774.348 79.9346 760.349 73.8238 753.225 66.9648C759.724 59.7316 777.973 56.6138 798.847 59.981C815.471 62.5999 829.47 68.7107 836.594 75.5698C830.095 82.803 811.846 85.9207 790.972 82.5536Z" fill="url(#paint4_radial_15568_122660)"/>
<path opacity="0.5" d="M910.717 98.892C915.342 101.137 919.467 103.756 922.592 106.499C917.717 107.871 909.217 106.375 900.468 102.259C895.843 100.014 891.844 97.3954 888.594 94.6518C893.593 93.28 901.968 94.7765 910.717 98.892Z" fill="url(#paint5_radial_15568_122660)"/>
<path opacity="0.5" d="M379.248 72.0763C397.872 64.3442 415.496 62.8477 423.87 67.462C418.745 76.067 405.871 85.7944 389.497 92.5288C370.873 100.136 353.249 101.757 344.875 97.143C350 88.538 362.874 78.8106 379.248 72.0763Z" fill="url(#paint6_radial_15568_122660)"/>
<path opacity="0.5" d="M514.24 34.4164C510.616 37.0353 505.991 39.4048 500.616 41.2755C494.492 43.2708 488.617 44.1438 483.992 44.0191C487.492 41.4002 492.117 38.906 497.491 37.16C503.616 35.04 509.616 34.167 514.24 34.4164Z" fill="url(#paint7_radial_15568_122660)"/>
<path opacity="0.5" d="M459.243 89.2909C470.492 84.926 481.241 83.6789 487.866 85.4248C483.116 90.538 475.117 95.9005 465.242 99.6418C453.993 104.007 443.369 105.129 436.744 103.508C441.369 98.27 449.368 93.0322 459.243 89.2909Z" fill="url(#paint8_radial_15568_122660)"/>
<path opacity="0.3" d="M411.994 103.508C413.119 107.374 406.37 113.236 396.87 116.478C387.246 119.721 378.621 119.097 377.496 115.106C376.247 111.24 383.121 105.379 392.621 102.137C402.12 98.8941 410.869 99.5177 411.994 103.508Z" fill="url(#paint9_radial_15568_122660)"/>
<path opacity="0.3" d="M768.848 30.3002C768.223 34.4156 759.849 36.5357 749.974 35.0392C739.975 33.5426 732.35 29.0531 732.975 24.9376C733.475 20.8222 741.975 18.7021 751.849 20.1987C761.723 21.6952 769.348 26.1848 768.848 30.3002Z" fill="url(#paint10_radial_15568_122660)"/>
<path opacity="0.3" d="M976.335 113.485C974.335 117.102 965.836 115.356 957.211 109.744C948.712 104.132 943.462 96.7739 945.462 93.1573C947.462 89.6654 955.961 91.4114 964.461 96.8986C973.085 102.511 978.335 109.993 976.335 113.485Z" fill="url(#paint11_radial_15568_122660)"/>
<path opacity="0.3" d="M792.348 34.5465C792.223 36.2925 788.599 37.2901 784.349 36.6666C780.224 36.043 776.974 34.0477 777.224 32.3017C777.349 30.5558 780.974 29.6828 785.224 30.3064C789.349 30.9299 792.598 32.8006 792.348 34.5465Z" fill="url(#paint12_radial_15568_122660)"/>
<path opacity="0.3" d="M833.345 93.778C833.095 95.524 829.47 96.397 825.345 95.7734C821.095 95.1499 817.846 93.2792 818.096 91.5332C818.346 89.7873 821.97 88.7896 826.095 89.4132C830.345 90.0367 833.595 92.0321 833.345 93.778Z" fill="url(#paint13_radial_15568_122660)"/>
<path opacity="0.3" d="M873.093 54.4996C872.968 56.2456 869.343 57.1186 865.093 56.495C860.968 55.8715 857.719 54.0008 857.969 52.2548C858.094 50.5089 861.718 49.6359 865.968 50.2595C870.093 50.883 873.343 52.7537 873.093 54.4996Z" fill="url(#paint14_radial_15568_122660)"/>
<path opacity="0.3" d="M906.59 115.73C906.09 117.351 902.34 117.226 898.34 115.605C894.466 113.859 891.716 111.24 892.341 109.619C892.966 107.998 896.59 107.998 900.59 109.743C904.59 111.365 907.215 114.108 906.59 115.73Z" fill="url(#paint15_radial_15568_122660)"/>
<path opacity="0.3" d="M897.842 68.7136C897.217 71.4572 891.342 72.0808 884.718 70.2102C878.093 68.3395 873.344 64.4735 874.094 61.8545C874.718 59.1109 880.593 58.4874 887.218 60.358C893.717 62.2287 898.592 65.97 897.842 68.7136Z" fill="url(#paint16_radial_15568_122660)"/>
<path opacity="0.3" d="M774.974 87.049C774.474 89.9174 768.724 91.1645 761.974 90.0421C755.225 88.9197 750.1 85.6772 750.6 82.9336C750.975 80.0652 756.725 78.8181 763.474 79.9405C770.224 81.1876 775.349 84.3054 774.974 87.049Z" fill="url(#paint17_radial_15568_122660)"/>
<path opacity="0.3" d="M503.865 52.5025C504.365 54.9967 500.115 58.3639 494.115 59.9852C488.241 61.6064 482.866 60.9828 482.366 58.4886C481.741 55.9944 486.116 52.6272 491.991 51.006C497.99 49.3848 503.24 50.0083 503.865 52.5025Z" fill="url(#paint18_radial_15568_122660)"/>
<path opacity="0.3" d="M497.741 99.2643C498.241 101.758 493.991 105.001 487.991 106.622C482.117 108.368 476.742 107.62 476.117 105.25C475.617 102.756 479.992 99.389 485.866 97.7677C491.866 96.1465 497.116 96.7701 497.741 99.2643Z" fill="url(#paint19_radial_15568_122660)"/>
<path opacity="0.3" d="M509.865 87.7931C510.24 89.4143 507.616 91.4097 503.866 92.4074C500.241 93.5297 496.866 93.0309 496.491 91.5344C496.116 90.0378 498.866 87.9178 502.616 86.9201C506.241 85.9224 509.615 86.2965 509.865 87.7931Z" fill="url(#paint20_radial_15568_122660)"/>
<path opacity="0.3" d="M473.365 26.1876C473.74 27.8088 471.116 29.8042 467.366 30.9266C463.616 31.9243 460.366 31.4254 459.991 29.9289C459.616 28.4324 462.366 26.3123 465.991 25.3146C469.741 24.317 472.99 24.6911 473.365 26.1876Z" fill="url(#paint21_radial_15568_122660)"/>
<path opacity="0.3" d="M426.494 87.7931C426.869 89.4143 424.245 91.4097 420.495 92.4074C416.745 93.5297 413.495 93.0309 413.12 91.5344C412.745 90.0378 415.495 87.9178 419.12 86.9201C422.87 85.9224 426.119 86.2965 426.494 87.7931Z" fill="url(#paint22_radial_15568_122660)"/>
<path opacity="0.3" d="M555.362 46.1412C556.486 50.0072 549.737 55.8686 540.112 59.1111C530.613 62.3535 521.989 61.73 520.864 57.7393C519.614 53.8733 526.488 48.0119 535.988 44.7694C545.487 41.5269 554.237 42.1505 555.362 46.1412Z" fill="url(#paint23_radial_15568_122660)"/>
<path opacity="0.3" d="M569.862 30.4298C570.237 32.051 567.612 34.0464 563.862 35.0441C560.112 36.1665 556.862 35.6676 556.487 34.1711C556.112 32.6746 558.862 30.5545 562.487 29.5568C566.237 28.5591 569.487 28.9333 569.862 30.4298Z" fill="url(#paint24_radial_15568_122660)"/>
<path opacity="0.3" d="M429.119 38.2902C429.494 39.7868 426.744 41.7821 423.119 42.9045C419.369 43.9022 416.12 43.5281 415.745 41.9068C415.37 40.4103 417.994 38.2902 421.744 37.2925C425.494 36.2948 428.744 36.669 429.119 38.2902Z" fill="url(#paint25_radial_15568_122660)"/>
</g>
<defs>
<linearGradient id="paint0_linear_15568_122660" x1="615.751" y1="0.151592" x2="615.751" y2="380.226" gradientUnits="userSpaceOnUse">
<stop stop-color="white"/>
<stop offset="1" stop-color="#709CFA"/>
</linearGradient>
<radialGradient id="paint1_radial_15568_122660" cx="0" cy="0" r="1" gradientUnits="userSpaceOnUse" gradientTransform="translate(633.482 74.0777) scale(55.3716 55.2467)">
<stop stop-color="#372D98"/>
<stop offset="1" stop-color="#131724"/>
</radialGradient>
<radialGradient id="paint2_radial_15568_122660" cx="0" cy="0" r="1" gradientUnits="userSpaceOnUse" gradientTransform="translate(650.608 73.3275) scale(55.3716 55.2467)">
<stop stop-color="#372D98"/>
<stop offset="1" stop-color="#131724"/>
</radialGradient>
<radialGradient id="paint3_radial_15568_122660" cx="0" cy="0" r="1" gradientUnits="userSpaceOnUse" gradientTransform="translate(719.852 -41.0316) scale(217.487 216.996)">
<stop stop-color="#372D98"/>
<stop offset="1" stop-color="#131724"/>
</radialGradient>
<radialGradient id="paint4_radial_15568_122660" cx="0" cy="0" r="1" gradientUnits="userSpaceOnUse" gradientTransform="translate(719.852 -48.2676) scale(217.487 216.996)">
<stop stop-color="#372D98"/>
<stop offset="1" stop-color="#131724"/>
</radialGradient>
<radialGradient id="paint5_radial_15568_122660" cx="0" cy="0" r="1" gradientUnits="userSpaceOnUse" gradientTransform="translate(719.854 -47.3932) scale(222.236 221.735)">
<stop stop-color="#372D98"/>
<stop offset="1" stop-color="#131724"/>
</radialGradient>
<radialGradient id="paint6_radial_15568_122660" cx="0" cy="0" r="1" gradientUnits="userSpaceOnUse" gradientTransform="translate(719.852 -51.761) scale(225.861 225.351)">
<stop stop-color="#372D98"/>
<stop offset="1" stop-color="#131724"/>
</radialGradient>
<radialGradient id="paint7_radial_15568_122660" cx="0" cy="0" r="1" gradientUnits="userSpaceOnUse" gradientTransform="translate(719.853 -62.9825) scale(241.985 241.44)">
<stop stop-color="#372D98"/>
<stop offset="1" stop-color="#131724"/>
</radialGradient>
<radialGradient id="paint8_radial_15568_122660" cx="0" cy="0" r="1" gradientUnits="userSpaceOnUse" gradientTransform="translate(719.852 -52.5047) scale(228.986 228.469)">
<stop stop-color="#372D98"/>
<stop offset="1" stop-color="#131724"/>
</radialGradient>
<radialGradient id="paint9_radial_15568_122660" cx="0" cy="0" r="1" gradientUnits="userSpaceOnUse" gradientTransform="translate(388.621 68.9636) scale(68.3709 68.2166)">
<stop stop-color="#372D98"/>
<stop offset="1" stop-color="#131724"/>
</radialGradient>
<radialGradient id="paint10_radial_15568_122660" cx="0" cy="0" r="1" gradientUnits="userSpaceOnUse" gradientTransform="translate(762.723 -11.353) scale(69.1206 68.9648)">
<stop stop-color="#372D98"/>
<stop offset="1" stop-color="#131724"/>
</radialGradient>
<radialGradient id="paint11_radial_15568_122660" cx="0" cy="0" r="1" gradientUnits="userSpaceOnUse" gradientTransform="translate(985.834 72.5801) scale(70.4955 70.3366)">
<stop stop-color="#372D98"/>
<stop offset="1" stop-color="#131724"/>
</radialGradient>
<radialGradient id="paint12_radial_15568_122660" cx="0" cy="0" r="1" gradientUnits="userSpaceOnUse" gradientTransform="translate(789.849 16.8377) scale(29.3731 29.3068)">
<stop stop-color="#372D98"/>
<stop offset="1" stop-color="#131724"/>
</radialGradient>
<radialGradient id="paint13_radial_15568_122660" cx="0" cy="0" r="1" gradientUnits="userSpaceOnUse" gradientTransform="translate(830.72 76.0692) scale(29.3734 29.307)">
<stop stop-color="#372D98"/>
<stop offset="1" stop-color="#131724"/>
</radialGradient>
<radialGradient id="paint14_radial_15568_122660" cx="0" cy="0" r="1" gradientUnits="userSpaceOnUse" gradientTransform="translate(870.593 36.7908) scale(29.3731 29.3069)">
<stop stop-color="#372D98"/>
<stop offset="1" stop-color="#131724"/>
</radialGradient>
<radialGradient id="paint15_radial_15568_122660" cx="0" cy="0" r="1" gradientUnits="userSpaceOnUse" gradientTransform="translate(908.09 97.3971) scale(30.4982 30.4294)">
<stop stop-color="#372D98"/>
<stop offset="1" stop-color="#131724"/>
</radialGradient>
<radialGradient id="paint16_radial_15568_122660" cx="0" cy="0" r="1" gradientUnits="userSpaceOnUse" gradientTransform="translate(897.092 40.1549) scale(47.1221 47.0159)">
<stop stop-color="#372D98"/>
<stop offset="1" stop-color="#131724"/>
</radialGradient>
<radialGradient id="paint17_radial_15568_122660" cx="0" cy="0" r="1" gradientUnits="userSpaceOnUse" gradientTransform="translate(771.349 58.7398) scale(46.8721 46.7664)">
<stop stop-color="#372D98"/>
<stop offset="1" stop-color="#131724"/>
</radialGradient>
<radialGradient id="paint18_radial_15568_122660" cx="0" cy="0" r="1" gradientUnits="userSpaceOnUse" gradientTransform="translate(490.616 30.9276) scale(41.3725 41.2791)">
<stop stop-color="#372D98"/>
<stop offset="1" stop-color="#131724"/>
</radialGradient>
<radialGradient id="paint19_radial_15568_122660" cx="0" cy="0" r="1" gradientUnits="userSpaceOnUse" gradientTransform="translate(484.492 77.5647) scale(41.3724 41.2791)">
<stop stop-color="#372D98"/>
<stop offset="1" stop-color="#131724"/>
</radialGradient>
<radialGradient id="paint20_radial_15568_122660" cx="0" cy="0" r="1" gradientUnits="userSpaceOnUse" gradientTransform="translate(501.741 74.3244) scale(25.7484 25.6903)">
<stop stop-color="#372D98"/>
<stop offset="1" stop-color="#131724"/>
</radialGradient>
<radialGradient id="paint21_radial_15568_122660" cx="0" cy="0" r="1" gradientUnits="userSpaceOnUse" gradientTransform="translate(465.241 12.7189) scale(25.7484 25.6903)">
<stop stop-color="#372D98"/>
<stop offset="1" stop-color="#131724"/>
</radialGradient>
<radialGradient id="paint22_radial_15568_122660" cx="0" cy="0" r="1" gradientUnits="userSpaceOnUse" gradientTransform="translate(418.245 74.3244) scale(25.7484 25.6903)">
<stop stop-color="#372D98"/>
<stop offset="1" stop-color="#131724"/>
</radialGradient>
<radialGradient id="paint23_radial_15568_122660" cx="0" cy="0" r="1" gradientUnits="userSpaceOnUse" gradientTransform="translate(531.988 11.5964) scale(68.3709 68.2166)">
<stop stop-color="#372D98"/>
<stop offset="1" stop-color="#131724"/>
</radialGradient>
<radialGradient id="paint24_radial_15568_122660" cx="0" cy="0" r="1" gradientUnits="userSpaceOnUse" gradientTransform="translate(561.612 16.9611) scale(25.7484 25.6903)">
<stop stop-color="#372D98"/>
<stop offset="1" stop-color="#131724"/>
</radialGradient>
<radialGradient id="paint25_radial_15568_122660" cx="0" cy="0" r="1" gradientUnits="userSpaceOnUse" gradientTransform="translate(420.869 24.6968) scale(25.7484 25.6903)">
<stop stop-color="#372D98"/>
<stop offset="1" stop-color="#131724"/>
</radialGradient>
</defs>
</svg>
