<svg width="417" height="302" viewBox="0 0 417 302" fill="none" xmlns="http://www.w3.org/2000/svg">
<g filter="url(#filter0_f_21228_55981)">
<path d="M82.1317 9.36504C140.53 -14.8675 185.071 49.5965 243.219 71.2836C285.417 87.0223 327.36 63.5562 348.195 78.6704C384.19 104.782 402.151 138.473 395.184 182.393C383.244 257.67 270.067 303.127 176.739 287.372C95.2341 273.613 38.3808 230.802 14.2408 151.747C-3.51501 93.5998 25.2344 32.9746 82.1317 9.36504Z" fill="url(#paint0_linear_21228_55981)"/>
</g>
<g opacity="0.5" filter="url(#filter1_f_21228_55981)">
<ellipse cx="210.067" cy="269.483" rx="186.87" ry="12.2432" fill="#494949"/>
</g>
<path d="M129.685 115.867L141.566 111.943C141.558 116.19 144.629 117.097 145.48 123.094L133.925 129.309L129.685 115.867Z" fill="#FC7135"/>
<path d="M135.873 111.163C135.903 111.124 135.928 111.091 135.947 111.065L139.048 108.29C139.078 108.251 139.114 108.216 139.156 108.187C139.885 107.627 140.948 107.688 141.636 108.328C141.818 108.496 141.971 108.703 142.074 108.934C142.256 109.347 142.27 109.819 142.157 110.257C142.058 110.552 141.891 110.857 141.645 111.102L139.898 112.772L138.662 113.966C138.46 114.152 138.234 114.29 138.003 114.393C137.353 114.643 136.62 114.553 136.064 114.105C136.012 114.065 135.958 114.014 135.902 113.952C135.72 113.784 135.567 113.578 135.484 113.361C135.15 112.618 135.273 111.757 135.873 111.163Z" fill="#FC7135"/>
<path d="M132.786 111.443L133.512 110.286L134.284 109.097L134.965 107.97C135.508 107.128 136.566 106.84 137.397 107.266C137.699 107.442 137.945 107.669 138.101 107.957C138.241 108.18 138.325 108.454 138.335 108.714C138.378 109.106 138.283 109.502 138.074 109.86L136.665 112.286L135.983 113.414C135.456 114.321 134.31 114.67 133.43 114.187C133.128 114.012 132.882 113.785 132.726 113.496C132.373 112.896 132.374 112.107 132.786 111.443Z" fill="url(#paint1_linear_21228_55981)"/>
<path d="M129.636 112.535L130.277 111.045L130.965 109.512L131.56 108.066C132.043 106.981 133.215 106.445 134.247 106.787C134.626 106.935 134.948 107.154 135.178 107.462C135.377 107.696 135.52 108 135.577 108.302C135.693 108.752 135.65 109.232 135.471 109.69L134.257 112.79L133.662 114.236C133.208 115.395 131.944 116.019 130.847 115.62C130.468 115.472 130.145 115.253 129.916 114.945C129.407 114.311 129.273 113.388 129.636 112.535Z" fill="url(#paint2_linear_21228_55981)"/>
<path d="M134.114 128.859C134.114 128.859 131.831 125.747 130.864 123.425C130.864 123.425 129.127 119.575 129.162 116.968C129.203 113.958 131.643 109.672 131.643 109.672L135.126 112.939L135.029 116.085C135.029 116.085 143.725 122.186 134.114 128.859Z" fill="url(#paint3_linear_21228_55981)"/>
<path d="M61.3491 149.834C53.6113 151.679 45.6723 149.457 38.6623 145.85C39.6673 144.851 40.5788 143.744 41.3646 142.567C43.4358 139.462 44.7153 135.903 45.3875 132.208C53.8657 134.17 59.7667 132.648 59.7667 132.648L61.341 149.844L61.3491 149.834Z" fill="#EFB3B1"/>
<path d="M112.659 185.699L111.107 175.867L111.098 175.859L108.35 166.927C125.558 163.641 140.394 149.89 140.394 149.89C140.394 149.89 147.824 141.477 147.604 135.031C147.392 128.834 144.626 120.806 144.626 120.806L129.578 124.267C129.578 124.267 130.627 131.976 124.654 135.995C120.023 139.111 104.308 137.727 104.308 137.727C92.4698 135.995 65.7275 127.72 48.3288 137.728C48.3288 137.728 26.8801 152.822 27.065 166.927C27.2521 181.204 52.196 197.313 52.196 197.313L53.4848 181.204C53.4848 181.204 48.1487 171.538 48.3288 169.167C48.5648 166.061 63.5317 157.321 63.5317 157.321L62.8779 169.167L61.7942 188.634C80.169 191.087 97.1616 190.202 112.659 185.699Z" fill="#4B50B9"/>
<path d="M53.2196 159.059C56.4602 157.731 64.9308 152.091 70.2241 147.958L59.0269 133.973L47.638 138.856L51.4898 141.863L49.1387 151.051C49.1488 154.273 49.9791 160.386 53.2196 159.059Z" fill="url(#paint4_linear_21228_55981)"/>
<path d="M51.3192 193.441C53.7563 172.569 63.3713 140.998 63.3713 140.998H107.671C107.671 140.998 124.553 171.781 126.238 193.441C128.518 222.757 122.981 255.005 122.981 255.005L101.808 257.611L94.6421 221.454C93.9906 219.174 90.0818 218.848 89.1046 221.454L88.1045 223.734L72.8176 258.588L51.9707 255.656C51.9707 255.656 48.2006 220.151 51.3192 193.441Z" fill="url(#paint5_linear_21228_55981)"/>
<path d="M88.1049 223.735C76.0714 212.236 58.8129 200.933 50.5037 202.888C50.4198 204.292 50.35 205.705 50.293 207.122C61.0931 207.122 73.5369 215.729 87.1048 226.015L88.1049 223.735Z" fill="#64EDFF"/>
<path d="M95.2951 224.748L95.8044 227.318C109.007 216.85 121.028 208.751 126.789 208.751C126.79 207.345 126.779 205.933 126.753 204.516C119.077 204.516 107.531 214.339 96.685 223.566C96.2203 223.961 95.7569 224.355 95.2951 224.748Z" fill="#64EDFF"/>
<path d="M72.7602 184.037C72.7882 184.003 72.3014 184.11 71.5629 183.836C71.1768 183.685 70.7459 183.383 70.3905 182.888C70.245 182.653 70.0938 182.356 70.0014 182.024C69.9426 181.719 69.9369 181.316 69.9032 180.947C69.6171 177.808 69.2384 173.313 68.7334 167.774C68.6063 166.379 68.4837 164.921 68.3659 163.401C68.2985 162.663 68.5725 161.924 69.1123 161.379C69.4004 161.135 69.722 160.92 70.0857 160.824C70.4465 160.698 70.8493 160.693 71.2801 160.654C74.5419 160.356 78.0191 160.039 81.7116 159.703C89.066 159.032 97.1588 158.294 105.621 157.523C106.636 157.43 107.652 158.02 108.075 158.913C108.332 159.355 108.346 159.85 108.394 160.373C108.441 160.886 108.488 161.409 108.537 161.942C108.724 163.994 108.909 166.025 109.092 168.035C109.276 170.045 109.454 172.004 109.628 173.912C109.716 174.876 109.803 175.83 109.889 176.774C109.931 177.236 110.007 177.725 110.018 178.19C110.027 178.623 109.912 179.068 109.697 179.429C109.272 180.212 108.447 180.691 107.579 180.708C106.677 180.79 105.795 180.871 104.933 180.949C103.191 181.129 101.5 181.293 99.8585 181.443C96.5968 181.74 93.5504 182.018 90.7502 182.273C85.2142 182.809 80.7244 183.249 77.5857 183.535C76.0471 183.675 74.8499 183.816 74.019 183.891C73.6088 183.929 73.301 183.957 73.0959 183.975C72.9542 184.009 72.8423 184.03 72.7602 184.037C72.8423 184.03 72.956 184.03 73.1015 184.037C73.3067 184.018 73.6144 183.99 74.0246 183.953C74.8555 183.877 76.0584 183.798 77.5969 183.658C80.7356 183.372 85.231 182.993 90.7727 182.519C93.5729 182.264 96.6192 181.986 99.881 181.689C101.522 181.539 103.215 181.395 104.961 181.257C105.823 181.178 106.705 181.098 107.607 181.016C108.536 180.993 109.479 180.442 109.96 179.591C110.2 179.166 110.34 178.657 110.326 178.161C110.281 177.669 110.242 177.238 110.197 176.746C110.111 175.802 110.024 174.848 109.936 173.884C109.762 171.976 109.583 170.017 109.4 168.007C109.217 165.997 109.032 163.966 108.845 161.914C108.796 161.381 108.748 160.858 108.702 160.345C108.657 159.853 108.634 159.265 108.371 158.762C107.876 157.752 106.729 157.081 105.593 157.215C97.1308 157.987 89.0379 158.724 81.6836 159.395C77.9938 159.762 74.5167 160.079 71.2549 160.377C70.8549 160.413 70.4213 160.422 69.9989 160.553C69.6073 160.682 69.2269 160.934 68.9416 161.208C68.3431 161.79 68.0468 162.624 68.1197 163.424C68.2581 164.942 68.3909 166.398 68.518 167.793C69.0537 173.329 69.4633 177.822 69.7802 180.958C69.8138 181.327 69.8167 181.699 69.9119 182.063C70.0043 182.396 70.1555 182.692 70.3346 182.955C70.69 183.45 71.1516 183.749 71.5349 183.87C71.921 184.02 72.2343 184.054 72.4525 184.065C72.5961 184.052 72.6987 184.043 72.7602 184.037Z" fill="#64EDFF"/>
<path d="M103.618 175.432C102.989 175.489 102.433 175.026 102.376 174.397C102.318 173.768 102.781 173.212 103.41 173.155C104.039 173.097 104.595 173.561 104.653 174.189C104.71 174.818 104.247 175.374 103.618 175.432Z" fill="#64EDFF"/>
<path fill-rule="evenodd" clip-rule="evenodd" d="M103.577 174.98C103.198 175.014 102.862 174.735 102.828 174.356C102.793 173.977 103.072 173.641 103.452 173.607C103.831 173.572 104.166 173.851 104.2 174.231C104.235 174.61 103.956 174.945 103.577 174.98ZM102.376 174.397C102.433 175.026 102.989 175.489 103.618 175.432C104.247 175.374 104.71 174.818 104.653 174.189C104.595 173.561 104.039 173.097 103.41 173.155C102.781 173.212 102.318 173.768 102.376 174.397Z" fill="#64EDFF"/>
<path d="M99.7468 175.781C99.118 175.839 98.5618 175.375 98.5044 174.747C98.4471 174.118 98.9104 173.562 99.5392 173.504C100.168 173.447 100.724 173.91 100.782 174.539C100.839 175.168 100.376 175.724 99.7468 175.781Z" fill="#64EDFF"/>
<path fill-rule="evenodd" clip-rule="evenodd" d="M99.7056 175.329C99.3265 175.364 98.9911 175.084 98.9566 174.705C98.922 174.326 99.2013 173.991 99.5804 173.956C99.9595 173.922 100.295 174.201 100.329 174.58C100.364 174.959 100.085 175.295 99.7056 175.329ZM98.5044 174.747C98.5618 175.375 99.118 175.839 99.7468 175.781C100.376 175.724 100.839 175.168 100.782 174.539C100.724 173.91 100.168 173.447 99.5392 173.504C98.9104 173.562 98.4471 174.118 98.5044 174.747Z" fill="#64EDFF"/>
<path d="M95.9929 176.125C95.3641 176.182 94.8079 175.719 94.7505 175.09C94.6932 174.461 95.1565 173.905 95.7853 173.848C96.4141 173.791 96.9703 174.254 97.0276 174.883C97.0849 175.511 96.6217 176.068 95.9929 176.125Z" fill="#64EDFF"/>
<path fill-rule="evenodd" clip-rule="evenodd" d="M95.9517 175.673C95.5726 175.707 95.2372 175.428 95.2027 175.049C95.1681 174.67 95.4474 174.335 95.8265 174.3C96.2056 174.266 96.5409 174.545 96.5755 174.924C96.61 175.303 96.3307 175.638 95.9517 175.673ZM94.7505 175.09C94.8079 175.719 95.3641 176.182 95.9929 176.125C96.6217 176.068 97.0849 175.511 97.0276 174.883C96.9703 174.254 96.4141 173.791 95.7853 173.848C95.1565 173.905 94.6932 174.461 94.7505 175.09Z" fill="#64EDFF"/>
<path d="M92.2702 176.461C91.6414 176.518 91.0852 176.055 91.0279 175.426C90.9706 174.797 91.4338 174.241 92.0626 174.184C92.6914 174.127 93.2476 174.59 93.305 175.219C93.3623 175.847 92.899 176.404 92.2702 176.461Z" fill="#64EDFF"/>
<path fill-rule="evenodd" clip-rule="evenodd" d="M92.229 176.009C91.8499 176.043 91.5146 175.764 91.48 175.385C91.4455 175.006 91.7248 174.671 92.1038 174.636C92.4829 174.601 92.8183 174.881 92.8528 175.26C92.8874 175.639 92.6081 175.974 92.229 176.009ZM91.0279 175.426C91.0852 176.055 91.6414 176.518 92.2702 176.461C92.899 176.404 93.3623 175.847 93.305 175.219C93.2476 174.59 92.6914 174.127 92.0626 174.184C91.4338 174.241 90.9706 174.797 91.0279 175.426Z" fill="#64EDFF"/>
<path d="M92.024 168.08L102.332 167.14C103.071 167.073 103.633 166.432 103.563 165.663C103.496 164.924 102.824 164.365 102.086 164.432L91.7771 165.372C91.0386 165.439 90.4793 166.111 90.5466 166.849C90.6167 167.618 91.2855 168.147 92.024 168.08Z" fill="#64EDFF"/>
<path fill-rule="evenodd" clip-rule="evenodd" d="M102.291 166.688L91.9828 167.627C91.4872 167.673 91.0455 167.321 90.9987 166.808C90.9542 166.319 91.3295 165.868 91.8183 165.824L102.127 164.884C102.616 164.84 103.066 165.215 103.111 165.704C103.157 166.217 102.787 166.643 102.291 166.688ZM102.332 167.14L92.024 168.08C91.2855 168.147 90.6167 167.618 90.5466 166.849C90.4793 166.111 91.0386 165.439 91.7771 165.372L102.086 164.432C102.824 164.365 103.496 164.924 103.563 165.663C103.633 166.432 103.071 167.073 102.332 167.14Z" fill="#64EDFF"/>
<path d="M103.02 171.146C102.391 171.204 101.835 170.741 101.778 170.112C101.721 169.483 102.184 168.927 102.813 168.869C103.441 168.812 103.998 169.275 104.055 169.904C104.112 170.533 103.649 171.089 103.02 171.146Z" fill="#64EDFF"/>
<path fill-rule="evenodd" clip-rule="evenodd" d="M102.979 170.694C102.6 170.729 102.265 170.45 102.23 170.071C102.195 169.691 102.475 169.356 102.854 169.322C103.233 169.287 103.568 169.566 103.603 169.945C103.637 170.324 103.358 170.66 102.979 170.694ZM101.778 170.112C101.835 170.741 102.391 171.204 103.02 171.146C103.649 171.089 104.112 170.533 104.055 169.904C103.998 169.275 103.441 168.812 102.813 168.869C102.184 168.927 101.721 169.483 101.778 170.112Z" fill="#64EDFF"/>
<path d="M99.1687 171.494C98.5399 171.551 97.9836 171.088 97.9263 170.459C97.869 169.831 98.3323 169.274 98.9611 169.217C99.5899 169.16 100.146 169.623 100.203 170.252C100.261 170.881 99.7975 171.437 99.1687 171.494Z" fill="#64EDFF"/>
<path fill-rule="evenodd" clip-rule="evenodd" d="M99.1274 171.042C98.7483 171.077 98.413 170.797 98.3785 170.418C98.3439 170.039 98.6232 169.704 99.0023 169.669C99.3814 169.635 99.7167 169.914 99.7513 170.293C99.7858 170.672 99.5065 171.007 99.1274 171.042ZM97.9263 170.459C97.9836 171.088 98.5399 171.551 99.1687 171.494C99.7975 171.437 100.261 170.881 100.203 170.252C100.146 169.623 99.5899 169.16 98.9611 169.217C98.3323 169.274 97.869 169.831 97.9263 170.459Z" fill="#64EDFF"/>
<path d="M95.4206 171.84C94.7918 171.897 94.2356 171.434 94.1783 170.805C94.1209 170.176 94.5842 169.62 95.213 169.563C95.8418 169.505 96.398 169.969 96.4554 170.598C96.5127 171.226 96.0494 171.783 95.4206 171.84Z" fill="#64EDFF"/>
<path fill-rule="evenodd" clip-rule="evenodd" d="M95.3794 171.388C95.0003 171.422 94.665 171.143 94.6304 170.764C94.5958 170.385 94.8751 170.049 95.2542 170.015C95.6333 169.98 95.9687 170.26 96.0032 170.639C96.0378 171.018 95.7585 171.353 95.3794 171.388ZM94.1783 170.805C94.2356 171.434 94.7918 171.897 95.4206 171.84C96.0494 171.783 96.5127 171.226 96.4554 170.598C96.398 169.969 95.8418 169.505 95.213 169.563C94.5842 169.62 94.1209 170.176 94.1783 170.805Z" fill="#64EDFF"/>
<path d="M91.6589 172.176C91.0301 172.233 90.4739 171.77 90.4166 171.141C90.3592 170.512 90.8225 169.956 91.4513 169.899C92.0801 169.841 92.6363 170.305 92.6936 170.933C92.751 171.562 92.2877 172.118 91.6589 172.176Z" fill="#64EDFF"/>
<path fill-rule="evenodd" clip-rule="evenodd" d="M91.6177 171.724C91.2386 171.758 90.9033 171.479 90.8687 171.1C90.8341 170.721 91.1134 170.385 91.4925 170.351C91.8716 170.316 92.2069 170.596 92.2415 170.975C92.2761 171.354 91.9968 171.689 91.6177 171.724ZM90.4166 171.141C90.4739 171.77 91.0301 172.233 91.6589 172.176C92.2877 172.118 92.751 171.562 92.6936 170.933C92.6363 170.305 92.0801 169.841 91.4513 169.899C90.8225 169.956 90.3592 170.512 90.4166 171.141Z" fill="#64EDFF"/>
<path d="M75.2404 165.968L81.5177 165.395C82.0786 165.344 82.5746 165.757 82.6258 166.318L83.198 172.596C83.2491 173.156 82.8359 173.652 82.2751 173.704L75.9978 174.276C75.437 174.327 74.9409 173.914 74.8898 173.353L74.3175 167.076C74.2664 166.515 74.6796 166.019 75.2404 165.968Z" fill="#64EDFF"/>
<path fill-rule="evenodd" clip-rule="evenodd" d="M75.2816 166.42L81.559 165.847C81.8701 165.819 82.1453 166.048 82.1736 166.359L82.7459 172.637C82.7742 172.948 82.545 173.223 82.2339 173.251L75.9566 173.824C75.6454 173.852 75.3703 173.623 75.3419 173.312L74.7697 167.034C74.7413 166.723 74.9705 166.448 75.2816 166.42ZM81.5177 165.395L75.2404 165.968C74.6796 166.019 74.2664 166.515 74.3175 167.076L74.8898 173.353C74.9409 173.914 75.437 174.327 75.9978 174.276L82.2751 173.704C82.8359 173.652 83.2491 173.156 83.198 172.596L82.6258 166.318C82.5746 165.757 82.0786 165.344 81.5177 165.395Z" fill="#64EDFF"/>
<path d="M75.8078 178.276L83.1622 177.606C83.8084 177.547 84.2838 176.976 84.2277 176.361C84.1688 175.715 83.598 175.239 82.9518 175.298L75.5974 175.968C74.9512 176.027 74.4758 176.598 74.5347 177.244C74.5908 177.86 75.1616 178.335 75.8078 178.276Z" fill="#64EDFF"/>
<path fill-rule="evenodd" clip-rule="evenodd" d="M83.1209 177.154L75.7666 177.824C75.3623 177.861 75.0195 177.561 74.9868 177.203C74.9507 176.807 75.2422 176.457 75.6387 176.421L82.993 175.75C83.3895 175.714 83.7394 176.005 83.7755 176.402C83.8082 176.76 83.5253 177.117 83.1209 177.154ZM83.1622 177.606L75.8078 178.276C75.1616 178.335 74.5908 177.86 74.5347 177.244C74.4758 176.598 74.9512 176.027 75.5974 175.968L82.9518 175.298C83.598 175.239 84.1688 175.715 84.2277 176.361C84.2838 176.976 83.8084 177.547 83.1622 177.606Z" fill="#64EDFF"/>
<path d="M130.652 102.693C131.631 106.831 130.221 111.172 127 113.943C127.83 107.161 126.273 100.605 122.331 94.2748C126.459 95.3061 129.666 98.5524 130.652 102.693Z" fill="#555555"/>
<path fill-rule="evenodd" clip-rule="evenodd" d="M127.276 114.827C127.048 114.891 126.807 114.869 126.592 114.756C126.254 114.573 126.063 114.208 126.11 113.83C126.913 107.29 125.388 100.874 121.576 94.7606C121.377 94.4398 121.394 94.0327 121.612 93.7265C121.836 93.4239 122.221 93.2856 122.585 93.3726C127.067 94.4936 130.509 97.9828 131.577 102.477C132.645 106.971 131.13 111.629 127.631 114.64C127.526 114.732 127.402 114.792 127.276 114.827ZM124.446 96.0423C127.072 100.991 128.311 106.117 128.151 111.345C129.862 108.931 130.485 105.874 129.778 102.904C129.067 99.8988 127.104 97.4247 124.446 96.0423Z" fill="#555555"/>
<path d="M76.0122 71.3142C95.8223 65.808 116.351 77.3968 121.863 97.2034C127.375 117.005 115.783 137.527 95.9732 143.033C76.168 148.538 55.6383 136.945 50.127 117.143C44.6144 97.3361 56.207 76.8191 76.0122 71.3142Z" fill="white"/>
<path d="M76.5326 71.7246C96.6095 66.1442 116.669 76.2907 123.076 95.4829L123.654 96.2628C125.07 98.3826 124.672 97.3854 126.327 103.331C127.982 109.277 126.616 121.852 119.461 129.343L118.668 130.342C94.9865 154.496 58.4484 149.713 49.8542 118.834C44.1903 98.4845 56.4557 77.305 76.5326 71.7246Z" fill="white"/>
<path fill-rule="evenodd" clip-rule="evenodd" d="M96.2086 145.011C88.9665 147.023 81.6005 147.164 74.8173 145.418C62.1388 142.149 52.7186 132.562 48.9756 119.113C46.1787 109.065 47.5188 98.4825 52.7477 89.3117C57.9487 80.1906 66.3106 73.6393 76.2933 70.8646C96.8698 65.1453 117.316 75.5553 123.917 95.0856L124.405 95.7494C124.415 95.7605 124.423 95.7721 124.43 95.7842C124.581 96.0086 124.706 96.1934 124.82 96.3602C125.729 97.6908 125.765 97.8217 126.688 101.176C126.841 101.724 127.019 102.364 127.228 103.116C128.986 109.43 127.506 122.272 120.167 129.981L119.406 130.945C119.385 130.971 119.363 130.997 119.338 131.021C113.037 137.449 105.489 142.154 97.5226 144.624C97.0855 144.756 96.6475 144.885 96.2086 145.011ZM76.7887 72.6445C56.9155 78.1683 45.2377 98.7926 50.7558 118.619C54.3179 131.417 63.2566 140.532 75.2757 143.629C89.5973 147.318 105.96 142.007 117.984 129.762L118.747 128.803C118.762 128.781 118.78 128.76 118.803 128.74C125.601 121.62 127.049 109.362 125.448 103.61C125.239 102.859 125.059 102.214 124.907 101.666C124.03 98.4766 124.03 98.4766 123.296 97.4003C123.182 97.2335 123.053 97.0501 122.908 96.8291L122.344 96.061C122.285 95.9832 122.24 95.8964 122.21 95.8056C115.98 77.1389 96.4484 67.18 76.7887 72.6445Z" fill="#64EDFF"/>
<path d="M84.0345 84.9312C103.088 79.6351 122.063 88.0088 126.413 103.635C130.76 119.257 118.837 136.219 99.783 141.515C80.7244 146.812 61.754 138.437 57.4062 122.816C53.057 107.189 64.976 90.2286 84.0345 84.9312Z" fill="#00A4FF"/>
<path fill-rule="evenodd" clip-rule="evenodd" d="M99.9974 142.272C80.5605 147.675 61.1263 139.042 56.6719 123.037C52.2161 107.028 64.4003 89.6118 83.8372 84.2093C103.269 78.8081 122.707 87.4346 127.163 103.444C131.617 119.449 119.429 136.871 99.9974 142.272ZM84.2489 85.6885C65.6318 90.8632 53.9272 107.43 58.1562 122.625C62.3839 137.815 80.9672 145.963 99.5843 140.788C118.201 135.613 129.906 119.047 125.678 103.857C121.449 88.662 102.866 80.5138 84.2489 85.6885Z" fill="#64EDFF"/>
<path d="M98.8608 138.178C115.575 133.533 126.134 119.02 122.444 105.764C118.755 92.5082 102.214 85.5282 85.5001 90.174C68.7859 94.8198 58.2272 109.332 61.9167 122.588C65.6061 135.844 82.1465 142.824 98.8608 138.178Z" fill="#6C6C6C"/>
<path fill-rule="evenodd" clip-rule="evenodd" d="M99.0944 139.066C81.913 143.841 64.8308 136.561 61.0107 122.836C57.1907 109.111 68.057 94.057 85.2383 89.2814C102.42 84.5058 119.503 91.7907 123.323 105.516C127.143 119.241 116.276 134.29 99.0944 139.066ZM85.7337 91.0613C69.5371 95.5632 59.2436 109.596 62.7909 122.341C66.337 135.082 82.4024 141.788 98.599 137.286C114.796 132.784 125.089 118.751 121.543 106.011C117.996 93.2652 101.93 86.5594 85.7337 91.0613Z" fill="#6C6C6C"/>
<path d="M122.053 103.537C122.209 104.471 122.312 105.425 122.362 106.393C122.524 109.488 122.122 112.495 121.251 115.318C121.801 115.907 122.282 116.526 122.689 117.16C119.989 126.5 111.186 134.867 99.239 138.188C97.1095 138.78 94.9834 139.178 92.8883 139.405C77.8014 139.444 65.651 133.191 65.2224 124.836C65.0976 122.472 65.9275 120.177 67.521 118.073C66.3605 115.349 65.656 112.405 65.4983 109.303C65.4066 107.547 65.4966 105.824 65.7503 104.144C69.9519 97.8345 77.0597 92.6349 85.8783 90.1838C101.629 85.8059 117.221 91.7498 122.053 103.537Z" fill="#B0401E"/>
<path fill-rule="evenodd" clip-rule="evenodd" d="M99.4473 138.923C97.3179 139.515 95.1411 139.937 92.974 140.168C92.9473 140.172 92.9196 140.173 92.891 140.17C77.1312 140.214 64.9063 133.637 64.4521 124.87C64.3322 122.505 65.0696 120.179 66.6479 117.964C65.5319 115.212 64.8873 112.314 64.7342 109.342C64.642 107.564 64.7304 105.779 64.9907 104.029C65.0109 103.914 65.0496 103.809 65.1132 103.718C69.5567 97.0389 77.0504 91.8366 85.675 89.4393C93.4168 87.2875 101.46 87.513 108.334 90.0748C115.21 92.6416 120.342 97.318 122.77 103.242C122.792 103.299 122.808 103.355 122.817 103.412C122.977 104.381 123.085 105.37 123.133 106.35C123.286 109.322 122.946 112.269 122.115 115.123C122.58 115.647 122.987 116.192 123.341 116.747C123.46 116.934 123.492 117.16 123.432 117.375C122.044 122.171 119.114 126.705 114.954 130.495C110.698 134.374 105.336 137.286 99.4473 138.923ZM92.8504 138.635C94.92 138.41 97.0032 138.008 99.0356 137.444C110.294 134.314 119.003 126.606 121.855 117.286C121.518 116.789 121.128 116.307 120.689 115.839C120.503 115.639 120.438 115.349 120.521 115.086C121.386 112.28 121.747 109.368 121.597 106.427C121.552 105.535 121.453 104.633 121.316 103.746C116.508 92.1814 101.387 86.6709 86.0881 90.9234C77.8758 93.206 70.7457 98.1191 66.4916 104.427C66.2613 106.022 66.1858 107.647 66.2701 109.265C66.4235 112.2 67.0795 115.064 68.2345 117.768C68.3414 118.021 68.3027 118.314 68.1386 118.532C66.6031 120.563 65.8817 122.665 65.9929 124.792C66.3957 132.586 78.1883 138.661 92.8504 138.635Z" fill="#6C6C6C"/>
<path d="M83.8204 93.4614C87.4376 93.2763 90.7864 94.587 93.2711 96.8486C95.5128 94.2191 98.7907 92.4772 102.516 92.2881C112.327 91.787 120.767 104.406 113.253 113.553C116.047 112.625 119.123 113.312 121.261 115.341C121.811 115.929 122.292 116.548 122.698 117.182C119.999 126.523 111.196 134.89 99.2486 138.21C97.1192 138.802 94.9931 139.2 92.898 139.427C77.8111 139.467 65.6607 133.214 65.2321 124.858C65.1073 122.494 65.9372 120.2 67.5307 118.095C69.6666 116.268 72.319 115.528 75.488 115.873C73.1718 113.654 71.6652 110.587 71.487 107.131C71.1139 99.9506 76.6374 93.8277 83.8204 93.4614Z" fill="#FFCAA1"/>
<path fill-rule="evenodd" clip-rule="evenodd" d="M99.4245 138.785C97.3047 139.374 95.1315 139.79 92.9755 140.023C92.9551 140.026 92.9328 140.027 92.9083 140.026C77.2315 140.068 65.0753 133.55 64.6247 124.871C64.4999 122.414 65.3119 119.999 67.0506 117.702C67.0758 117.667 67.1055 117.637 67.1398 117.61C69.0391 115.984 71.3459 115.166 74.0087 115.157C72.1326 112.904 71.0363 110.11 70.881 107.149C70.4943 99.6383 76.2895 93.2152 83.8019 92.8304C87.2592 92.6532 90.5832 93.7619 93.2252 95.9692C95.6508 93.3618 98.9174 91.8424 102.493 91.6585C107.598 91.3942 112.732 94.5915 115.261 99.6047C117.443 103.931 117.22 108.669 114.717 112.578C117.243 112.263 119.806 113.081 121.696 114.876C121.705 114.884 121.715 114.893 121.725 114.905C122.299 115.523 122.809 116.171 123.23 116.838C123.323 116.984 123.353 117.169 123.302 117.34C121.921 122.108 119.008 126.622 114.867 130.391C110.631 134.249 105.289 137.155 99.4245 138.785ZM92.8733 138.793C94.9539 138.57 97.0468 138.165 99.0938 137.596C110.43 134.446 119.198 126.668 122.038 117.268C121.691 116.753 121.287 116.244 120.834 115.758C118.862 113.893 116.033 113.268 113.46 114.124C113.2 114.207 112.913 114.114 112.756 113.886C112.6 113.663 112.615 113.361 112.785 113.147C115.861 109.402 116.375 104.546 114.162 100.161C111.845 95.5747 107.185 92.6483 102.557 92.8842C99.1158 93.0622 95.9866 94.606 93.7484 97.2294C93.6431 97.3579 93.4862 97.4329 93.3167 97.4434C93.1534 97.4574 92.9857 97.3995 92.8655 97.2867C90.3946 95.037 87.2002 93.8871 83.8661 94.0562C77.0345 94.4084 71.7578 100.254 72.1119 107.084C72.274 110.257 73.6299 113.214 75.9235 115.409C76.0863 115.562 76.1498 115.79 76.0992 116.002C76.0239 116.295 75.7299 116.497 75.4334 116.464C72.4381 116.142 70.0052 116.808 67.994 118.501C66.466 120.54 65.7452 122.663 65.8556 124.806C66.2619 132.688 78.1295 138.826 92.8733 138.793Z" fill="#6C6C6C"/>
<path d="M122.842 105.777C123.882 109.516 123.791 113.355 122.744 117.047C122.353 116.451 121.895 115.873 121.378 115.311C122.25 112.493 122.647 109.488 122.484 106.388C122.446 105.573 122.362 104.766 122.249 103.966C122.471 104.558 122.67 105.161 122.842 105.777Z" fill="#FFCAA1"/>
<path fill-rule="evenodd" clip-rule="evenodd" d="M122.953 117.782C122.924 117.79 122.895 117.796 122.865 117.801C122.564 117.848 122.266 117.717 122.102 117.465C121.738 116.908 121.308 116.358 120.817 115.831C120.629 115.627 120.561 115.343 120.644 115.08C121.509 112.274 121.874 109.362 121.72 106.421C121.681 105.643 121.603 104.855 121.489 104.072C121.432 103.68 121.674 103.31 122.055 103.214C122.436 103.119 122.826 103.319 122.97 103.686C123.207 104.31 123.413 104.937 123.587 105.563C124.642 109.355 124.608 113.288 123.485 117.253C123.412 117.513 123.21 117.71 122.953 117.782ZM122.241 115.111C122.289 115.168 122.337 115.224 122.388 115.28C122.524 114.618 122.628 113.959 122.699 113.302C122.569 113.909 122.416 114.513 122.241 115.111Z" fill="#6C6C6C"/>
<path d="M122.966 116.155C122.508 116.068 122.082 115.909 121.692 115.689C121.583 115.562 121.478 115.445 121.365 115.32C122.079 113.005 122.475 110.56 122.506 108.043C122.757 107.968 123.023 107.91 123.292 107.882C123.752 110.644 123.615 113.435 122.966 116.155Z" fill="#FF9999"/>
<path fill-rule="evenodd" clip-rule="evenodd" d="M123.166 116.893C123.054 116.924 122.936 116.931 122.814 116.908C122.284 116.804 121.773 116.622 121.301 116.351C121.226 116.309 121.164 116.253 121.105 116.191C121.004 116.073 120.898 115.956 120.793 115.839C120.606 115.64 120.543 115.355 120.621 115.093C121.327 112.802 121.7 110.425 121.728 108.03C121.734 107.694 121.956 107.402 122.273 107.303C122.582 107.212 122.893 107.147 123.203 107.113C123.608 107.068 123.978 107.347 124.044 107.752C124.513 110.563 124.396 113.448 123.704 116.331C123.636 116.611 123.423 116.822 123.166 116.893ZM122.228 115.101C122.281 115.128 122.333 115.153 122.385 115.177C122.505 114.569 122.599 113.963 122.668 113.359C122.538 113.945 122.392 114.526 122.228 115.101Z" fill="#6C6C6C"/>
<path d="M94.9515 119.718C94.675 119.795 94.3651 119.714 94.166 119.487C93.5299 118.76 92.5078 118.543 91.6315 118.943C91.2464 119.118 90.7911 118.947 90.6112 118.563C90.4361 118.178 90.6059 117.718 90.991 117.543C92.4938 116.859 94.2334 117.232 95.3205 118.471C95.6025 118.79 95.5701 119.275 95.2514 119.557C95.1631 119.633 95.0583 119.689 94.9515 119.718Z" fill="#6C6C6C"/>
<path d="M94.953 119.707C94.7347 119.768 94.4956 119.735 94.2988 119.591C93.9539 119.347 93.8728 118.868 94.1152 118.519C95.0588 117.195 96.7897 116.636 98.3244 117.155C98.7287 117.294 98.9443 117.73 98.8108 118.133C98.6711 118.532 98.2359 118.753 97.8316 118.614C96.9317 118.31 95.9203 118.639 95.3728 119.413C95.268 119.562 95.1179 119.661 94.953 119.707Z" fill="#6C6C6C"/>
<path d="M95.023 124.706C94.9681 124.721 94.9129 124.73 94.8576 124.731C94.4307 124.756 94.0678 124.428 94.0445 124.006C93.9197 121.643 93.8834 120.686 93.8426 118.869C93.8338 118.443 94.1689 118.088 94.5949 118.08C95.021 118.071 95.372 118.412 95.3795 118.834C95.4197 120.63 95.4595 121.58 95.5837 123.923C95.602 124.289 95.3625 124.612 95.023 124.706Z" fill="#6C6C6C"/>
<g opacity="0.3">
<g opacity="0.3">
<path opacity="0.3" d="M73.7223 121.389C75.4045 124.673 79.4851 126.867 83.0574 128.868C76.4968 127.915 72.8295 125.954 72.0555 122.986C71.5867 120.963 71.1775 120.732 73.7223 121.389Z" fill="#6C6C6C"/>
</g>
</g>
<path fill-rule="evenodd" clip-rule="evenodd" d="M99.4473 138.923C97.3179 139.515 95.1411 139.937 92.974 140.168C92.9473 140.172 92.9196 140.173 92.891 140.17C77.1312 140.214 64.9063 133.637 64.4521 124.87C64.3322 122.505 65.0696 120.179 66.6479 117.964C65.5319 115.212 64.8873 112.314 64.7342 109.342C64.642 107.564 64.7304 105.779 64.9907 104.029C65.0109 103.914 65.0496 103.809 65.1132 103.718C69.5567 97.0389 77.0504 91.8366 85.675 89.4393C93.4168 87.2875 101.46 87.513 108.334 90.0748C115.21 92.6416 120.342 97.318 122.77 103.242C122.792 103.299 122.808 103.355 122.817 103.412C122.977 104.381 123.085 105.37 123.133 106.35C123.286 109.322 122.946 112.269 122.115 115.123C122.58 115.647 122.987 116.192 123.341 116.747C123.46 116.934 123.492 117.16 123.432 117.375C122.044 122.171 119.114 126.705 114.954 130.495C110.698 134.374 105.336 137.286 99.4473 138.923ZM92.8504 138.635C94.92 138.41 97.0032 138.008 99.0356 137.444C110.294 134.314 119.003 126.606 121.855 117.286C121.518 116.789 121.128 116.307 120.689 115.839C120.503 115.639 120.438 115.349 120.521 115.086C121.386 112.28 121.747 109.368 121.597 106.427C121.552 105.535 121.453 104.633 121.316 103.746C116.508 92.1814 101.387 86.6709 86.0881 90.9234C77.8758 93.206 70.7457 98.1191 66.4916 104.427C66.2613 106.022 66.1858 107.647 66.2701 109.265C66.4235 112.2 67.0795 115.064 68.2345 117.768C68.3414 118.021 68.3027 118.314 68.1386 118.532C66.6031 120.563 65.8817 122.665 65.9929 124.792C66.3957 132.586 78.1883 138.661 92.8504 138.635Z" fill="#6C6C6C"/>
<path d="M48.7822 106.16C52.8152 105.629 56.5902 109.016 57.2119 113.728C57.8337 118.441 55.0705 122.689 51.0375 123.219C47.0058 123.755 43.2295 120.363 42.6077 115.651C41.9859 110.938 44.754 106.689 48.7822 106.16Z" fill="#555555"/>
<path fill-rule="evenodd" clip-rule="evenodd" d="M52.1976 123.946C51.8677 124.038 51.5295 124.106 51.183 124.15C48.965 124.442 46.7506 123.715 44.9539 122.103C43.1984 120.527 42.0505 118.281 41.7219 115.786C41.0296 110.576 44.1626 105.854 48.6885 105.255C53.2207 104.658 57.4683 108.41 58.1558 113.622C58.4844 116.117 57.9584 118.583 56.6742 120.559C55.5614 122.269 53.9971 123.446 52.1976 123.946ZM48.1852 107.239C45.076 108.103 43.0369 111.648 43.5515 115.544C43.8223 117.606 44.7578 119.446 46.1868 120.731C47.578 121.975 49.2665 122.54 50.9452 122.319C52.6191 122.099 54.1066 121.116 55.1243 119.553C56.1701 117.941 56.5956 115.921 56.3248 113.859C55.768 109.661 52.4505 106.623 48.9311 107.084C48.6764 107.12 48.4277 107.172 48.1852 107.239Z" fill="#555555"/>
<path d="M47.9312 122.878C45.2306 121.868 43.0827 119.126 42.6237 115.675C42.1112 111.768 43.9244 108.181 46.8541 106.766C47.0093 106.723 47.1735 106.693 47.3403 106.673C50.5515 106.25 53.6292 109.554 54.2282 114.053C54.8211 118.549 52.7021 122.539 49.4909 122.962C48.9627 123.035 48.4414 123.003 47.9312 122.878Z" fill="#555555"/>
<path fill-rule="evenodd" clip-rule="evenodd" d="M50.2798 123.585C50.0502 123.649 49.8177 123.696 49.5824 123.727C48.9725 123.807 48.3523 123.776 47.7413 123.627C47.7118 123.621 47.6815 123.612 47.6502 123.6C44.6053 122.461 42.329 119.389 41.8511 115.776C41.3083 111.648 43.2183 107.658 46.5075 106.07C46.5542 106.05 46.6034 106.033 46.6552 106.018C46.8505 105.969 47.0437 105.931 47.23 105.905C50.8503 105.432 54.3257 109.038 54.9772 113.951C55.2868 116.284 54.9211 118.575 53.9541 120.395C53.0733 122.056 51.7834 123.167 50.2798 123.585ZM48.143 122.141C48.5559 122.236 48.9742 122.255 49.3771 122.201C50.6771 122.027 51.8175 121.13 52.5939 119.676C53.413 118.132 53.7191 116.171 53.4494 114.151C52.9118 110.079 50.2131 107.067 47.4304 107.433C47.3233 107.449 47.2155 107.468 47.107 107.491C44.4511 108.82 42.9212 112.129 43.3788 115.576C43.7804 118.615 45.6453 121.185 48.143 122.141Z" fill="#555555"/>
<path d="M70.5564 80.7254C72.6313 84.125 71.0157 85.1175 67.3253 83.4993C64.6001 82.3078 61.731 82.1387 59.0318 82.2044C55.8985 80.1284 58.0006 75.7768 62.9959 76.3373C65.4683 76.4705 68.5785 77.487 70.5564 80.7254Z" fill="white"/>
<path fill-rule="evenodd" clip-rule="evenodd" d="M70.9535 85.1035C70.0125 85.3651 68.6745 85.1205 66.9589 84.3642C64.2697 83.1888 61.4561 83.0878 59.0585 83.1482C58.8703 83.1482 58.6833 83.0957 58.5242 82.9936C56.909 81.9221 56.2552 80.1548 56.86 78.4976C57.5101 76.7023 59.6876 75.0625 63.0788 75.4366C65.1488 75.551 68.9515 76.3332 71.3521 80.2641C72.5167 82.1767 72.7144 83.6004 71.9308 84.5027C71.6738 84.7936 71.3481 84.9939 70.9535 85.1035ZM59.3258 81.2921C61.7288 81.2512 64.7903 81.3982 67.7009 82.674C69.6475 83.528 70.435 83.3719 70.5414 83.2848C70.5365 83.2862 70.7247 82.7793 69.7748 81.225C67.8058 77.9998 64.657 77.3702 62.9541 77.2792C62.9361 77.2772 62.9182 77.2752 62.9002 77.2733C60.4889 77.003 59.0033 78.0116 58.593 79.1288C58.3075 79.924 58.5698 80.6976 59.3258 81.2921Z" fill="#64EDFF"/>
<path d="M111.254 78.0517C111.599 78.8805 111.054 79.8315 110.244 80.224C109.439 80.6199 108.345 80.4801 107.911 79.6915C106.135 76.4649 102.779 73.7561 99.311 72.4314C102.697 69.1076 107.213 68.2286 111.254 78.0517Z" fill="white"/>
<path fill-rule="evenodd" clip-rule="evenodd" d="M110.152 81.2403C109.051 81.5464 107.709 81.2505 107.095 80.1357C105.487 77.2125 102.374 74.5877 98.978 73.2953C98.6855 73.1833 98.4687 72.93 98.4031 72.6191C98.3388 72.313 98.433 71.9942 98.6593 71.7746C100.739 69.7283 102.836 68.9052 104.885 69.323C107.618 69.8853 110.048 72.7002 112.108 77.6975C112.613 78.9312 111.973 80.4049 110.647 81.0503C110.492 81.13 110.321 81.1931 110.152 81.2403ZM101.021 72.1683C104.256 73.7458 107.126 76.3599 108.714 79.247C108.883 79.5552 109.454 79.5793 109.836 79.3947C110.217 79.2052 110.539 78.7449 110.397 78.403C108.616 74.0701 106.578 71.5539 104.517 71.134C103.419 70.9063 102.247 71.2581 101.021 72.1683Z" fill="#64EDFF"/>
<g opacity="0.3">
<g opacity="0.3">
<path opacity="0.3" d="M45.8653 115.507C46.2108 118.776 48.1487 121.665 51.0412 123.233C46.736 123.348 43.0609 120.132 42.6056 115.849C42.1503 111.566 45.064 107.652 49.3012 106.861C46.8023 108.998 45.5186 112.234 45.8653 115.507Z" fill="#6C6C6C"/>
</g>
</g>
<g opacity="0.3">
<g opacity="0.3">
<path opacity="0.3" d="M107.309 80.262C104.694 77.8643 101.231 75.9878 96.9205 74.6327C94.6435 71.8589 95.4446 71.1138 99.3289 72.3958C101.725 72.8167 104.387 75.4363 107.309 80.262Z" fill="#6C6C6C"/>
</g>
</g>
<g opacity="0.3">
<g opacity="0.3">
<path opacity="0.3" d="M58.009 78.218C58.738 77.0069 60.2662 76.5455 61.543 77.1521C60.7112 77.0175 59.9109 77.5221 59.6757 78.3294C59.4467 79.1403 59.7855 80.2636 60.6227 80.3235C64.0756 80.5812 67.4862 81.3627 70.8316 83.4686C69.446 84.0105 65.4118 83.4668 58.7289 81.8374C57.5914 80.9988 57.2799 79.4291 58.009 78.218Z" fill="#6C6C6C"/>
</g>
</g>
<g opacity="0.3">
<g opacity="0.3">
<path opacity="0.3" d="M100.994 71.3303C106.165 73.5642 108.952 76.4731 109.354 80.0571C106.656 77.2366 103.666 74.7934 100.384 72.7275C100.296 72.7485 100.499 72.2828 100.994 71.3303Z" fill="#6C6C6C"/>
</g>
</g>
<g opacity="0.3">
<g opacity="0.3">
<path opacity="0.3" d="M122.161 116.376C119.555 125.826 110.694 134.324 98.6303 137.677C81.9145 142.323 65.3749 135.342 61.6858 122.087C60.0066 116.053 61.2756 109.76 64.7399 104.256C63.7306 107.896 63.6561 111.684 64.682 115.37C68.3711 128.625 84.9155 135.606 101.631 130.959C104.144 130.261 106.516 129.34 108.721 128.231C107.873 128.148 106.997 128.026 106.096 127.848C109.263 127.023 112.363 125.66 115.394 123.759C115.383 123.83 115.365 123.897 115.357 123.962C118.116 121.727 120.42 119.153 122.161 116.376Z" fill="#6C6C6C"/>
</g>
</g>
<path fill-rule="evenodd" clip-rule="evenodd" d="M98.7828 138.264C81.7664 142.994 64.8516 135.809 61.0774 122.248C57.3033 108.688 68.0764 93.8063 85.0928 89.0765C102.109 84.3468 119.024 91.5323 122.798 105.093C126.572 118.653 115.799 133.535 98.7828 138.264ZM85.4222 90.2599C69.0606 94.8077 58.674 109.012 62.2659 121.918C65.8578 134.823 82.0906 141.624 98.4521 137.076C114.814 132.528 125.202 118.329 121.61 105.423C118.018 92.5174 101.784 85.7122 85.4222 90.2599Z" fill="#6C6C6C"/>
<path d="M108.196 109.368C107.967 112.357 106.22 114.546 104.29 114.257C102.364 113.967 100.982 111.31 101.211 108.32C101.439 105.331 103.187 103.142 105.117 103.431C107.047 103.72 108.425 106.378 108.196 109.368Z" fill="#6C6C6C"/>
<path d="M106.632 106.039C106.934 107.031 106.682 108.042 106.073 108.294C105.463 108.542 104.725 107.938 104.421 106.941C104.124 105.947 104.374 104.932 104.985 104.684C105.595 104.436 106.333 105.04 106.632 106.039Z" fill="white"/>
<path d="M104.007 111.518C104.259 111.992 104.232 112.553 103.948 112.773C103.659 112.989 103.219 112.782 102.967 112.309C102.716 111.836 102.742 111.274 103.031 111.053C103.316 110.838 103.755 111.045 104.007 111.518Z" fill="white"/>
<path d="M83.3207 105.161C85.1598 104.728 87.0162 106.704 87.4682 109.567C87.9265 112.434 86.8037 115.102 84.9681 115.529C83.1339 115.96 81.2726 113.986 80.8205 111.122C80.3672 108.255 81.4851 105.587 83.3207 105.161Z" fill="#6C6C6C"/>
<path d="M83.5163 106.3C84.1236 106.492 84.4469 107.447 84.2347 108.431C84.0225 109.414 83.3603 110.058 82.7517 109.862C82.1444 109.67 81.8211 108.715 82.0333 107.731C82.2455 106.747 82.909 106.108 83.5163 106.3Z" fill="white"/>
<path d="M85.9287 112.322C86.2269 112.51 86.2985 113.05 86.0912 113.525C85.8839 114.001 85.4798 114.239 85.1816 114.05C84.8883 113.86 84.8166 113.32 85.0239 112.845C85.2312 112.369 85.6368 112.136 85.9287 112.322Z" fill="white"/>
<g opacity="0.2">
<g opacity="0.2">
<g opacity="0.2">
<path opacity="0.2" d="M66.373 114.735C65.8981 112.992 65.6034 111.182 65.5063 109.312C65.4147 107.556 65.5047 105.832 65.7583 104.152C69.96 97.8425 77.068 92.6426 85.8869 90.1914C101.638 85.8134 117.23 91.7579 122.063 103.546C122.219 104.48 122.322 105.434 122.372 106.402C122.376 106.454 122.374 106.501 122.377 106.552C117.095 95.422 101.941 89.9252 86.6362 94.1792C77.8173 96.6304 70.7093 101.83 66.5076 108.14C66.254 109.82 66.164 111.543 66.2556 113.3C66.2807 113.784 66.3237 114.258 66.373 114.735Z" fill="#6C6C6C"/>
</g>
</g>
<g opacity="0.2">
<g opacity="0.2">
<path opacity="0.2" d="M122.589 117.027C122.623 117.075 122.657 117.123 122.687 117.172C122.522 117.744 122.335 118.312 122.126 118.875C122.301 118.267 122.458 117.649 122.589 117.027Z" fill="#6C6C6C"/>
</g>
</g>
<g opacity="0.2">
<g opacity="0.2">
<path opacity="0.2" d="M65.9902 127.968C65.5593 126.965 65.3031 125.913 65.2476 124.831C65.1357 122.683 65.8098 120.599 67.1239 118.656C67.4382 119.823 67.8273 120.958 68.2949 122.056C66.8929 123.909 66.0846 125.904 65.9902 127.968Z" fill="#6C6C6C"/>
</g>
</g>
</g>
<path fill-rule="evenodd" clip-rule="evenodd" d="M79.8766 62.6857C79.2081 65.7183 79.7758 68.6869 80.511 70.5203L82.1867 69.8489C81.5585 68.2821 81.0639 65.6857 81.6396 63.074C82.2049 60.5095 83.8076 57.8858 87.4728 56.1529L86.701 54.5215C82.5035 56.506 80.5554 59.6059 79.8766 62.6857Z" fill="#64EDFF"/>
<path d="M83.5258 56.029C83.9879 57.6896 85.7091 58.6614 87.3704 58.1995C89.0316 57.7376 90.0038 56.017 89.5417 54.3564C89.0796 52.6958 87.3584 51.724 85.6971 52.1859C84.0359 52.6478 83.0637 54.3684 83.5258 56.029Z" fill="#64EDFF"/>
<path fill-rule="evenodd" clip-rule="evenodd" d="M71.9134 59.4356C71.9126 59.4355 71.9156 59.4433 71.9251 59.4596C71.919 59.4439 71.9143 59.4358 71.9134 59.4356ZM72.4426 60.0084C72.8487 59.9283 73.3893 59.8711 74.0691 59.859C76.0365 59.8238 78.7582 60.1707 81.7371 60.9484C84.716 61.726 87.2598 62.7538 88.9587 63.7461C89.5458 64.089 89.9893 64.4031 90.3044 64.6714C89.8983 64.7514 89.3577 64.8087 88.6779 64.8208C86.7106 64.856 83.9889 64.5091 81.01 63.7314C78.0311 62.9537 75.4872 61.926 73.7883 60.9337C73.2013 60.5908 72.7577 60.2767 72.4426 60.0084ZM91.0462 64.4305C91.0454 64.4302 91.0372 64.4349 91.0243 64.4457C91.0406 64.4362 91.047 64.4308 91.0462 64.4305ZM90.8336 65.2441C90.8345 65.2443 90.8315 65.2364 90.822 65.2202C90.828 65.2359 90.8327 65.244 90.8336 65.2441ZM71.7227 60.2341C71.7065 60.2436 71.7 60.249 71.7008 60.2493C71.7017 60.2496 71.7098 60.2448 71.7227 60.2341ZM80.5538 65.4775C74.3707 63.8633 69.7254 61.15 70.1781 59.4172C70.6308 57.6843 76.0102 57.5881 82.1933 59.2023C88.3763 60.8165 93.0217 63.5297 92.5689 65.2626C92.1162 66.9954 86.7368 67.0916 80.5538 65.4775Z" fill="#64EDFF"/>
<path d="M99.5522 127.66H86.082C86.082 127.66 89.0655 134.286 92.6247 134.394C96.2932 134.505 99.5522 127.66 99.5522 127.66Z" fill="#FF5959" stroke="#6C6C6C" stroke-width="2.23973" stroke-linecap="round" stroke-linejoin="round"/>
<path d="M116.146 87.2538C110.86 82.7148 103.095 79.3166 93.7762 79.3179C83.2608 79.3195 76.4948 81.4378 69.7221 85.5663C62.9983 89.665 55.1637 98.1731 51.4541 108.601L48.5547 106.334C52.5461 95.1148 59.4481 86.0332 67.3167 81.2366C75.1364 76.4699 82.3173 73.3004 93.2949 73.2988C104.119 74.0204 111.816 79.5528 116.868 84.8447C121.919 90.1365 124.805 95.9132 124.805 95.9132C123.431 94.2169 118.779 89.5144 116.146 87.2538Z" fill="#555555"/>
<rect width="4.4985" height="6.22869" rx="2.24925" transform="matrix(0 -1 -1 0 86.0723 135.367)" fill="#555555"/>
<path d="M53.3698 115.641C53.3698 127.752 68.4225 133.116 81.918 133.116" stroke="#555555" stroke-width="3.73288" stroke-linecap="round" stroke-linejoin="round"/>
<mask id="mask0_21228_55981" style="mask-type:alpha" maskUnits="userSpaceOnUse" x="100" y="250" width="38" height="23">
<path d="M102.372 269.397C107.373 272.109 135.26 274.872 137.008 267.083C137.176 266.33 137.15 265.577 136.946 264.823C136.025 261.311 130.716 257.702 125.642 255.005C120.566 252.296 115.714 250.488 115.714 250.488L102.969 253.509C102.969 253.509 99.8291 260.949 100.363 265.79C100.526 267.385 101.123 268.716 102.375 269.409L102.372 269.397Z" fill="#D9D9D9"/>
</mask>
<g mask="url(#mask0_21228_55981)">
<path d="M99.8215 268.865C105.043 271.678 136.189 276.609 139.449 269.991C139.763 269.351 139.857 268.694 139.751 268.02C139.284 264.88 135.894 258.563 130.587 255.756C125.28 252.939 118.046 253.624 118.046 253.624L99.7592 256.887C99.7592 256.887 98.3275 261.285 98.1371 265.545C98.0597 266.948 98.5182 268.159 99.8222 268.876L99.8215 268.865Z" fill="url(#paint6_linear_21228_55981)"/>
<path d="M99.8189 268.862C105.04 271.674 136.187 276.605 139.447 269.987C139.76 269.347 139.669 266.156 139.562 265.481C133.396 267.113 117.883 269.669 97.9488 263.006C97.8714 264.409 98.5157 268.156 99.8197 268.872L99.8189 268.862Z" fill="#3167D5"/>
</g>
<mask id="mask1_21228_55981" style="mask-type:alpha" maskUnits="userSpaceOnUse" x="37" y="251" width="38" height="22">
<path d="M72.3251 270.048C67.324 272.759 39.437 275.523 37.6891 267.733C37.5217 266.98 37.5477 266.228 37.7509 265.474C38.6722 261.961 43.9811 258.353 49.0549 255.655C54.1312 252.946 58.983 251.138 58.983 251.138L71.7282 254.16C71.7282 254.16 74.8682 261.6 74.3346 266.44C74.1716 268.035 73.574 269.366 72.3227 270.06L72.3251 270.048Z" fill="#D9D9D9"/>
</mask>
<g mask="url(#mask1_21228_55981)">
<path d="M74.8719 269.518C69.6504 272.33 38.5041 277.261 35.244 270.643C34.9306 270.003 34.8365 269.346 34.9428 268.672C35.4098 265.533 38.7997 259.215 44.1061 256.409C49.4133 253.592 56.6472 254.276 56.6472 254.276L74.9341 257.539C74.9341 257.539 76.3659 261.938 76.5563 266.197C76.6337 267.6 76.1751 268.812 74.8711 269.528L74.8719 269.518Z" fill="url(#paint7_linear_21228_55981)"/>
<path d="M74.8745 269.514C69.653 272.326 38.5067 277.257 35.2465 270.64C34.9332 269.999 35.0248 266.808 35.1311 266.134C41.2974 267.766 56.8108 270.321 76.7445 263.659C76.8219 265.062 76.1777 268.808 74.8737 269.525L74.8745 269.514Z" fill="#3167D5"/>
</g>
<path d="M143.928 108.592C144.536 108.968 144.917 109.607 144.909 110.308L144.765 114.366C144.738 115.424 143.839 116.198 142.75 116.157C142.447 116.153 142.15 116.073 141.883 115.928C141.821 115.9 141.775 115.88 141.744 115.866C141.707 115.824 141.661 115.803 141.638 115.793C141.049 115.374 140.678 114.713 140.741 114.011L141.011 109.982C141.049 109.399 141.374 108.917 141.845 108.605C141.902 108.561 141.966 108.52 142.038 108.482C142.31 108.368 142.596 108.287 142.922 108.301C143.304 108.315 143.647 108.415 143.928 108.592Z" fill="url(#paint8_linear_21228_55981)"/>
<path d="M138.347 114.228L138.331 113.973L137.942 110.061C137.878 109.565 138.017 109.077 138.287 108.703C138.412 108.538 138.556 108.391 138.717 108.262C138.935 108.083 139.179 107.963 139.449 107.9C139.94 107.788 140.403 107.857 140.806 108.119C141.089 108.299 141.309 108.563 141.477 108.885C141.56 109.05 141.614 109.239 141.64 109.452L142.172 113.566C142.314 114.646 141.597 115.674 140.594 115.888C140.188 115.982 139.801 115.92 139.476 115.775C139.432 115.756 139.389 115.736 139.346 115.717C139.302 115.698 139.259 115.679 139.216 115.659C138.748 115.369 138.404 114.858 138.347 114.228Z" fill="url(#paint9_linear_21228_55981)"/>
<path d="M137.215 106.989C137.718 107.213 138.139 107.619 138.3 108.182L139.604 112.204C139.942 113.229 139.389 114.348 138.353 114.707C137.901 114.861 137.442 114.848 137.043 114.698C136.987 114.7 136.942 114.68 136.919 114.669C136.37 114.425 135.913 113.976 135.75 113.357L134.591 109.318C134.456 108.821 134.512 108.327 134.717 107.927C134.92 107.47 135.286 107.141 135.781 106.952C136.265 106.785 136.748 106.809 137.215 106.989Z" fill="url(#paint10_linear_21228_55981)"/>
<path d="M133.707 107.856C134.21 108.08 134.632 108.486 134.792 109.049L136.096 113.071C136.434 114.096 135.881 115.215 134.845 115.574C134.394 115.728 133.934 115.715 133.535 115.565C133.48 115.567 133.434 115.547 133.411 115.537C132.862 115.293 132.405 114.843 132.243 114.225L131.083 110.185C130.948 109.688 131.004 109.194 131.21 108.794C131.412 108.338 131.778 108.009 132.273 107.819C132.758 107.652 133.24 107.676 133.707 107.856Z" fill="url(#paint11_linear_21228_55981)"/>
<path fill-rule="evenodd" clip-rule="evenodd" d="M387.94 93.2168C387.99 93.1536 388.08 93.1393 388.148 93.1839L401.293 101.881C401.347 101.916 401.373 101.98 401.36 102.043L384.725 102.814L376.891 103.121C376.822 103.124 376.76 103.081 376.737 103.016C376.715 102.951 376.738 102.879 376.794 102.839L383.021 98.3782C383.056 98.3533 383.1 98.3437 383.142 98.3519L385.715 98.8504L401.36 102.043L385.082 96.824C385.087 96.8021 385.097 96.7812 385.112 96.7631L387.94 93.2168Z" fill="#C5AFFF"/>
<path d="M401.36 102.043C401.347 102.105 401.297 102.154 401.235 102.165L385.573 104.965C385.497 104.979 385.422 104.934 385.398 104.861L384.725 102.814L401.36 102.043Z" fill="#572EC7"/>
<path d="M385.715 98.8504L385.085 96.9084C385.076 96.8807 385.076 96.8515 385.082 96.824L401.36 102.043L385.715 98.8504Z" fill="#572EC7"/>
<path fill-rule="evenodd" clip-rule="evenodd" d="M348.409 103.687C348.53 103.915 348.813 104.002 349.042 103.881C349.548 103.613 350.072 103.347 350.616 103.083C350.848 102.97 350.945 102.69 350.832 102.457C350.719 102.225 350.439 102.128 350.207 102.241C349.653 102.509 349.119 102.781 348.603 103.054C348.375 103.175 348.288 103.458 348.409 103.687ZM347.67 104.095C347.541 103.872 347.254 103.795 347.03 103.924C346.492 104.236 345.976 104.548 345.483 104.859C345.264 104.997 345.199 105.287 345.337 105.505C345.475 105.724 345.764 105.789 345.983 105.651C346.466 105.346 346.971 105.04 347.499 104.735C347.723 104.605 347.799 104.319 347.67 104.095ZM351.601 102.099C351.706 102.335 351.983 102.442 352.219 102.336C352.746 102.102 353.288 101.87 353.847 101.641C354.086 101.543 354.201 101.27 354.103 101.03C354.005 100.791 353.732 100.676 353.493 100.774C352.925 101.007 352.373 101.243 351.838 101.481C351.602 101.586 351.496 101.863 351.601 102.099ZM344.634 105.97C344.487 105.757 344.195 105.704 343.982 105.852C343.466 106.209 342.978 106.564 342.518 106.915C342.312 107.071 342.272 107.365 342.429 107.571C342.586 107.776 342.879 107.816 343.085 107.66C343.534 107.318 344.011 106.971 344.515 106.621C344.728 106.474 344.781 106.183 344.634 105.97ZM354.893 100.721C354.984 100.963 355.254 101.086 355.496 100.995C356.037 100.792 356.593 100.592 357.163 100.396C357.407 100.312 357.537 100.046 357.453 99.8014C357.369 99.5569 357.103 99.4268 356.859 99.5108C356.28 99.7095 355.717 99.9121 355.167 100.118C354.925 100.209 354.803 100.479 354.893 100.721ZM341.769 108.099C341.602 107.901 341.307 107.876 341.109 108.043C340.621 108.454 340.171 108.855 339.758 109.243C339.569 109.42 339.56 109.716 339.736 109.905C339.913 110.093 340.21 110.103 340.398 109.926C340.799 109.549 341.237 109.159 341.712 108.759C341.91 108.592 341.935 108.297 341.769 108.099ZM358.258 99.5369C358.336 99.7835 358.598 99.9206 358.845 99.8431C359.398 99.6694 359.963 99.4994 360.541 99.3335C360.79 99.2623 360.933 99.003 360.862 98.7545C360.791 98.506 360.532 98.3624 360.283 98.4336C359.697 98.6017 359.125 98.7739 358.564 98.95C358.318 99.0275 358.181 99.2902 358.258 99.5369ZM339.133 110.505C338.945 110.327 338.649 110.336 338.471 110.524C338.007 111.015 337.61 111.471 337.273 111.883C337.109 112.083 337.138 112.378 337.338 112.541C337.538 112.705 337.833 112.676 337.997 112.476C338.321 112.081 338.704 111.641 339.152 111.167C339.329 110.979 339.321 110.682 339.133 110.505ZM361.679 98.5309C361.744 98.7811 362 98.9309 362.25 98.8656C362.537 98.7907 362.826 98.7169 363.119 98.6441C363.448 98.5622 363.773 98.4834 364.093 98.4077C364.345 98.3482 364.5 98.096 364.441 97.8444C364.381 97.5929 364.129 97.4372 363.878 97.4967C363.554 97.5732 363.226 97.6528 362.893 97.7356C362.597 97.8093 362.304 97.884 362.014 97.9598C361.763 98.0251 361.614 98.2808 361.679 98.5309ZM365.483 97.611C365.537 97.8639 365.785 98.0258 366.038 97.9725C366.711 97.8307 367.361 97.7032 367.988 97.589C368.243 97.5427 368.411 97.2989 368.365 97.0446C368.319 96.7903 368.075 96.6216 367.821 96.668C367.185 96.7838 366.526 96.9129 365.845 97.0564C365.592 97.1097 365.43 97.358 365.483 97.611ZM336.827 113.219C336.613 113.075 336.322 113.132 336.178 113.347C336.01 113.596 335.889 113.793 335.808 113.93C335.768 113.998 335.738 114.051 335.718 114.088C335.712 114.099 335.707 114.108 335.703 114.115C335.699 114.122 335.696 114.127 335.694 114.132L335.687 114.144L335.685 114.148L335.685 114.149L335.685 114.149L335.684 114.15C335.684 114.15 335.684 114.15 336.1 114.365L335.684 114.15C335.565 114.379 335.655 114.662 335.885 114.781C336.114 114.9 336.396 114.81 336.515 114.581C336.516 114.581 336.515 114.581 336.515 114.581L336.516 114.58M336.516 114.58L336.516 114.58L336.519 114.573C336.523 114.567 336.529 114.556 336.537 114.541C336.553 114.512 336.579 114.466 336.615 114.405C336.686 114.284 336.798 114.102 336.955 113.869C337.099 113.654 337.042 113.363 336.827 113.219M369.422 96.8683C369.461 97.1239 369.699 97.3 369.955 97.2616C370.643 97.1582 371.299 97.0717 371.925 97.0001C372.182 96.9708 372.367 96.7388 372.337 96.4819C372.308 96.2251 372.076 96.0406 371.819 96.07C371.182 96.1428 370.514 96.2308 369.815 96.3358C369.56 96.3742 369.384 96.6126 369.422 96.8683ZM373.398 96.3815C373.417 96.6393 373.641 96.8331 373.899 96.8143C374.607 96.7627 375.267 96.7315 375.881 96.7169C376.139 96.7107 376.344 96.4962 376.337 96.2378C376.331 95.9793 376.117 95.7748 375.858 95.781C375.229 95.796 374.554 95.8279 373.831 95.8806C373.573 95.8994 373.379 96.1237 373.398 96.3815ZM377.405 96.2422C377.396 96.5006 377.597 96.7177 377.856 96.7271C378.602 96.7545 379.253 96.8073 379.813 96.8728C380.07 96.9029 380.302 96.7191 380.332 96.4623C380.362 96.2055 380.179 95.973 379.922 95.943C379.336 95.8745 378.661 95.8198 377.89 95.7916C377.632 95.7821 377.415 95.9839 377.405 96.2422ZM381.39 96.6409C381.328 96.8919 381.481 97.1456 381.732 97.2076C382.044 97.2846 382.268 97.3548 382.412 97.4043C382.483 97.429 382.534 97.4486 382.566 97.4612C382.582 97.4675 382.593 97.4721 382.599 97.4748L382.604 97.4769L382.604 97.4767C382.84 97.5829 383.117 97.4781 383.223 97.2426C383.329 97.0069 383.225 96.7297 382.989 96.6233L382.796 97.05C382.989 96.6233 382.989 96.6234 382.989 96.6233L382.989 96.6232L382.988 96.623L382.988 96.6227L382.986 96.6219L382.981 96.6196C382.977 96.6178 382.971 96.6156 382.965 96.6129C382.952 96.6075 382.934 96.6002 382.912 96.5912C382.867 96.5733 382.802 96.5488 382.717 96.5194C382.547 96.4607 382.296 96.3825 381.957 96.2988C381.706 96.2368 381.452 96.3899 381.39 96.6409Z" fill="url(#paint12_linear_21228_55981)"/>
<g clip-path="url(#clip0_21228_55981)">
<rect x="126.299" y="96.791" width="239.685" height="171.203" rx="20.9667" fill="white"/>
<path d="M365.983 96.791H126.299V267.994H365.983V96.791Z" fill="#724ADF"/>
<path d="M126.299 96.791V267.994L219.926 193.093C228.23 184.38 229.714 179.729 219.926 171.692L126.299 96.791Z" fill="#8C63FD"/>
<path d="M367.957 96.791V267.994L274.33 193.093C266.026 184.38 264.542 179.729 274.33 171.692L367.957 96.791Z" fill="#8C63FD"/>
<path d="M368.123 96.791H126.299V120.331L233.301 186.673C242.459 191.823 248.33 192.882 261.121 186.673L368.123 120.331V96.791Z" fill="#AF92FF"/>
</g>
<circle cx="114.699" cy="24.6185" r="2.57751" fill="#9472ED"/>
<circle cx="114.699" cy="24.6194" r="6.08816" stroke="#9472ED" stroke-width="2"/>
<circle cx="394.359" cy="190.224" r="2.57751" fill="#9472ED"/>
<circle cx="394.36" cy="190.225" r="6.08816" stroke="#9472ED" stroke-width="2"/>
<circle cx="19.331" cy="190.226" r="4.21775" fill="#9472ED"/>
<path d="M29.93 190.226C29.93 196.079 25.1848 200.825 19.3312 200.825C13.4777 200.825 8.73242 196.079 8.73242 190.226C8.73242 184.372 13.4777 179.627 19.3312 179.627C25.1848 179.627 29.93 184.372 29.93 190.226Z" stroke="#9472ED" stroke-width="2"/>
<circle cx="26.4188" cy="76.1708" r="4.51065" fill="#BEA5FF"/>
<circle cx="284.493" cy="86.8019" r="3.54408" fill="#BEA5FF"/>
<circle cx="390.493" cy="159.94" r="5.15503" fill="#BEA5FF"/>
<circle cx="28.3529" cy="168.96" r="2.57751" fill="#BEA5FF"/>
<path d="M50.7692 182.181C51.2536 181.655 51.9533 181.403 52.6403 181.544L56.5969 182.46C57.6299 182.689 58.2187 183.718 57.9704 184.78C57.9084 185.076 57.7734 185.353 57.5798 185.588C57.5411 185.643 57.512 185.685 57.4927 185.712C57.4441 185.74 57.4151 185.781 57.4006 185.802C56.8772 186.301 56.1579 186.539 55.4804 186.342L51.5768 185.309C51.0115 185.161 50.6007 184.75 50.3842 184.228C50.3515 184.164 50.3235 184.093 50.3005 184.015C50.2408 183.726 50.2151 183.43 50.2915 183.113C50.3774 182.741 50.5415 182.423 50.7692 182.181Z" fill="url(#paint13_linear_21228_55981)"/>
<path d="M54.9526 189.41L54.6993 189.377L50.7853 189.012C50.2858 188.981 49.8334 188.751 49.5174 188.414C49.3799 188.26 49.2629 188.092 49.1664 187.908C49.0331 187.661 48.9613 187.398 48.9511 187.121C48.9353 186.618 49.0907 186.176 49.4244 185.831C49.656 185.588 49.9562 185.421 50.3047 185.318C50.4823 185.268 50.6783 185.251 50.8927 185.266L55.032 185.529C56.1199 185.595 56.9924 186.495 57.0103 187.521C57.0258 187.937 56.8905 188.305 56.6865 188.597C56.6593 188.636 56.6321 188.675 56.6049 188.714C56.5777 188.752 56.5505 188.791 56.5234 188.83C56.1488 189.234 55.5821 189.474 54.9526 189.41Z" fill="url(#paint14_linear_21228_55981)"/>
<path d="M49.2906 189.893C49.6061 189.442 50.0852 189.106 50.6684 189.056L54.8652 188.543C55.9354 188.407 56.9291 189.163 57.0835 190.248C57.1486 190.721 57.0479 191.169 56.8245 191.532C56.8163 191.587 56.7876 191.628 56.7733 191.649C56.4291 192.141 55.9009 192.504 55.2625 192.546L51.076 192.913C50.5624 192.951 50.0879 192.802 49.7342 192.524C49.3252 192.238 49.0719 191.816 48.9804 191.294C48.9092 190.786 49.0242 190.317 49.2906 189.893Z" fill="url(#paint15_linear_21228_55981)"/>
<path d="M48.777 193.524C49.0925 193.073 49.5715 192.737 50.1547 192.687L54.3515 192.174C55.4217 192.037 56.4154 192.794 56.5699 193.879C56.6349 194.352 56.5342 194.8 56.3109 195.163C56.3026 195.218 56.2739 195.259 56.2596 195.28C55.9154 195.772 55.3872 196.135 54.7488 196.176L50.5623 196.544C50.0487 196.581 49.5742 196.433 49.2205 196.155C48.8116 195.868 48.5583 195.447 48.4667 194.925C48.3956 194.417 48.5106 193.948 48.777 193.524Z" fill="url(#paint16_linear_21228_55981)"/>
<path fill-rule="evenodd" clip-rule="evenodd" d="M175.691 65.4289C175.538 65.3637 175.36 65.4266 175.281 65.5739L159.97 94.2951C159.908 94.4114 159.923 94.5536 160.008 94.6543L190.968 79.6909L205.493 72.5429C205.621 72.4801 205.692 72.3409 205.669 72.2005C205.645 72.0602 205.532 71.9519 205.391 71.9341L189.698 69.9617C189.61 69.9507 189.521 69.9763 189.453 70.0325L185.273 73.4682L160.008 94.6543L184.428 69.1671C184.397 69.1324 184.358 69.1044 184.314 69.0856L175.691 65.4289Z" fill="#C5AFFF"/>
<path d="M160.008 94.6543C160.093 94.755 160.231 94.7939 160.356 94.7526L191.545 84.4312C191.697 84.3808 191.789 84.2259 191.76 84.068L190.968 79.6909L160.008 94.6543Z" fill="#572EC7"/>
<path d="M185.273 73.4682L184.505 69.3236C184.494 69.2644 184.467 69.2105 184.428 69.1671L160.008 94.6543L185.273 73.4682Z" fill="#572EC7"/>
<path fill-rule="evenodd" clip-rule="evenodd" d="M257.765 45.5531C257.77 46.0869 257.341 46.5237 256.807 46.5288C255.625 46.54 254.411 46.5721 253.164 46.6274C252.631 46.651 252.179 46.2378 252.155 45.7045C252.132 45.1712 252.545 44.7197 253.078 44.6961C254.347 44.6399 255.584 44.6072 256.789 44.5957C257.323 44.5907 257.76 45.0193 257.765 45.5531ZM259.508 45.5681C259.523 45.0345 259.967 44.6138 260.501 44.6284C261.785 44.6637 263.028 44.7232 264.23 44.8038C264.763 44.8395 265.166 45.3003 265.13 45.8329C265.094 46.3655 264.634 46.7683 264.101 46.7326C262.924 46.6537 261.707 46.5954 260.448 46.5608C259.914 46.5462 259.494 46.1017 259.508 45.5681ZM250.408 45.8113C250.449 46.3435 250.051 46.8083 249.519 46.8495C248.332 46.9412 247.119 47.0536 245.879 47.1884C245.348 47.246 244.871 46.8625 244.814 46.3319C244.756 45.8012 245.139 45.3242 245.67 45.2665C246.93 45.1296 248.163 45.0154 249.37 44.9221C249.902 44.881 250.367 45.2791 250.408 45.8113ZM266.865 45.985C266.923 45.4543 267.4 45.0712 267.931 45.1293C269.22 45.2704 270.455 45.4352 271.636 45.6189C272.163 45.701 272.524 46.1951 272.442 46.7226C272.36 47.2501 271.866 47.6111 271.338 47.5291C270.187 47.3498 268.981 47.1888 267.72 47.051C267.19 46.9929 266.807 46.5156 266.865 45.985ZM243.075 46.5472C243.148 47.076 242.779 47.5641 242.25 47.6373C241.067 47.8011 239.862 47.985 238.635 48.1901C238.108 48.2781 237.61 47.9226 237.522 47.396C237.434 46.8695 237.79 46.3714 238.316 46.2834C239.561 46.0753 240.784 45.8888 241.984 45.7225C242.513 45.6492 243.001 46.0185 243.075 46.5472ZM274.161 47.032C274.268 46.5092 274.78 46.1727 275.303 46.2805C276.594 46.5468 277.805 46.8331 278.937 47.1306C279.454 47.2664 279.762 47.7949 279.626 48.3112C279.491 48.8275 278.962 49.136 278.446 49.0003C277.347 48.7114 276.169 48.433 274.912 48.1738C274.389 48.0661 274.053 47.5548 274.161 47.032ZM235.801 47.7076C235.903 48.2316 235.56 48.739 235.036 48.8409C233.862 49.0692 232.669 49.3166 231.456 49.5843C230.934 49.6993 230.419 49.37 230.304 48.8487C230.189 48.3274 230.518 47.8116 231.039 47.6966C232.268 47.4255 233.477 47.1747 234.667 46.9433C235.191 46.8414 235.699 47.1836 235.801 47.7076ZM281.313 48.8069C281.479 48.2997 282.026 48.0237 282.533 48.1903C283.857 48.6255 285.028 49.0629 286.045 49.4788C286.539 49.6807 286.776 50.245 286.574 50.7392C286.372 51.2333 285.808 51.4702 285.314 51.2682C284.338 50.8692 283.21 50.4475 281.929 50.0268C281.422 49.8602 281.146 49.314 281.313 48.8069ZM228.601 49.2463C228.728 49.7646 228.411 50.2882 227.893 50.4157C227.299 50.5617 226.701 50.7125 226.098 50.8682C225.419 51.0435 224.752 51.22 224.097 51.3973C223.581 51.5367 223.05 51.2321 222.911 50.7168C222.772 50.2015 223.076 49.6707 223.592 49.5313C224.254 49.352 224.929 49.1737 225.615 48.9965C226.224 48.8389 226.83 48.6863 227.431 48.5384C227.95 48.411 228.473 48.7279 228.601 49.2463ZM220.789 51.3183C220.941 51.83 220.649 52.3681 220.138 52.5202C218.776 52.9251 217.47 53.3331 216.219 53.7426C215.712 53.9087 215.166 53.632 215 53.1247C214.834 52.6174 215.111 52.0715 215.618 51.9054C216.886 51.4903 218.208 51.077 219.587 50.6672C220.099 50.5151 220.637 50.8066 220.789 51.3183ZM288.169 51.467C288.417 50.9942 289.001 50.8119 289.474 51.0598C290.023 51.3477 290.437 51.586 290.717 51.7547C290.858 51.8391 290.965 51.9061 291.038 51.9532C291.059 51.9663 291.077 51.9779 291.092 51.9878C291.104 51.9958 291.115 52.0027 291.124 52.0086L291.148 52.0245L291.155 52.0295L291.157 52.0312L291.158 52.0318L291.159 52.0322C291.159 52.0323 291.159 52.0323 290.616 52.832L291.159 52.0322C291.601 52.332 291.716 52.9333 291.416 53.3749C291.116 53.8164 290.516 53.9314 290.074 53.6321C290.074 53.6321 290.074 53.6322 290.074 53.6321L290.073 53.6317M290.073 53.6317L290.073 53.6312L290.059 53.6224C290.047 53.6139 290.025 53.6002 289.996 53.5814C289.937 53.5439 289.846 53.4864 289.721 53.4114C289.472 53.2615 289.09 53.0417 288.576 52.7719C288.103 52.524 287.921 51.9398 288.169 51.467M212.907 53.8445C213.089 54.3464 212.829 54.9006 212.327 55.0824C210.976 55.5716 209.699 56.0605 208.492 56.5462C207.997 56.7456 207.434 56.5057 207.235 56.0105C207.035 55.5153 207.275 54.9523 207.77 54.7529C208.999 54.2585 210.297 53.7615 211.669 53.2647C212.171 53.083 212.725 53.3426 212.907 53.8445ZM205.21 56.8719C205.429 57.3585 205.213 57.9309 204.726 58.1504C203.39 58.7531 202.161 59.3457 201.033 59.9228C200.557 60.1659 199.975 59.9776 199.732 59.5023C199.489 59.027 199.677 58.4447 200.153 58.2017C201.31 57.6099 202.567 57.0035 203.931 56.3882C204.418 56.1687 204.99 56.3853 205.21 56.8719ZM197.798 60.5606C198.069 61.0203 197.917 61.613 197.457 61.8843C196.128 62.6684 194.999 63.4044 194.047 64.0743C193.61 64.3814 193.007 64.2764 192.7 63.8397C192.393 63.4031 192.498 62.8002 192.934 62.4931C193.93 61.7928 195.103 61.029 196.474 60.2194C196.934 59.9481 197.527 60.1009 197.798 60.5606ZM190.955 65.2046C191.314 65.5992 191.286 66.2106 190.891 66.5701C190.401 67.0164 190.063 67.3646 189.852 67.5952C189.746 67.7106 189.672 67.7966 189.627 67.8508C189.604 67.8779 189.589 67.897 189.58 67.908L189.573 67.9167L189.574 67.916C189.25 68.3406 188.644 68.4229 188.219 68.0998C187.794 67.7767 187.712 67.1702 188.035 66.7454L188.805 67.3305C188.035 66.7454 188.035 66.7455 188.035 66.7454L188.036 66.7448L188.036 66.7442L188.037 66.7428L188.04 66.7394L188.047 66.7303C188.052 66.7232 188.06 66.714 188.069 66.7027C188.086 66.6803 188.111 66.6497 188.143 66.6113C188.208 66.5345 188.301 66.4263 188.426 66.2893C188.677 66.0153 189.057 65.6261 189.59 65.141C189.984 64.7815 190.595 64.81 190.955 65.2046Z" fill="url(#paint17_linear_21228_55981)"/>
<path d="M41.9681 41.6993L42.7309 35.3132C42.7309 35.3132 38.9733 33.0236 36.6516 34.8756C35.0162 36.1802 32.6065 44.8452 34.5399 50.8221C35.9858 55.2918 40.1343 60.6514 43.9499 62.8967C46.2877 64.2723 47.4079 64.5144 49.2172 63.5071C50.7918 62.6305 51.5497 59.5254 51.5497 59.5254L46.8557 55.3077C45.5137 55.801 44.8496 56.163 43.9369 57.0661C38.835 52.8729 37.9828 44.6408 38.541 42.1853C40.1921 42.4095 40.9428 42.2955 41.9681 41.6993Z" fill="url(#paint18_linear_21228_55981)"/>
<path d="M46.0548 40.3626C46.1821 40.0847 46.5105 39.9626 46.7884 40.0898L46.8052 40.0977C46.8132 40.1016 46.8236 40.1067 46.8363 40.1131C46.8616 40.1259 46.8961 40.144 46.9387 40.1677C47.024 40.2152 47.142 40.2857 47.2855 40.383C47.5725 40.5777 47.9611 40.88 48.3922 41.3216C49.2563 42.2067 50.2818 43.6421 51.0047 45.87C51.7276 48.098 51.7402 49.862 51.5604 51.0859C51.4707 51.6965 51.3336 52.1693 51.2156 52.4954C51.1566 52.6585 51.1024 52.7848 51.0613 52.8733C51.0407 52.9176 51.0234 52.9524 51.0104 52.9777L50.9853 53.0246C50.8351 53.2908 50.4975 53.3847 50.2314 53.2345C49.9661 53.0848 49.8718 52.7489 50.02 52.4832L50.0575 52.407C50.0857 52.3463 50.1274 52.2499 50.1748 52.1189C50.2696 51.8569 50.3873 51.4562 50.4653 50.9251C50.621 49.8656 50.621 48.2737 49.9519 46.2116C49.2829 44.1496 48.3482 42.861 47.6002 42.0947C47.2252 41.7106 46.8947 41.4553 46.6641 41.2989C46.5488 41.2207 46.4584 41.1671 46.4 41.1346C46.3708 41.1183 46.3495 41.1072 46.3372 41.101L46.3249 41.0949C46.0489 40.9668 45.928 40.6396 46.0548 40.3626Z" fill="url(#paint19_linear_21228_55981)"/>
<path d="M44.2788 42.4237C44.4052 42.1455 44.7333 42.0224 45.0115 42.1489L45.0532 42.1689C45.0745 42.1796 45.1029 42.1944 45.1377 42.2137C45.2074 42.2522 45.3028 42.3088 45.4182 42.3866C45.649 42.5422 45.9594 42.7826 46.3028 43.1327C46.9915 43.8349 47.8033 44.9692 48.3727 46.7241C48.9421 48.479 48.951 49.8738 48.8057 50.8466C48.7333 51.3316 48.6231 51.7084 48.5277 51.9699C48.48 52.1006 48.4359 52.2025 48.4022 52.2746C48.3853 52.3106 48.371 52.3393 48.36 52.3604L48.3381 52.4011C48.1871 52.6668 47.8492 52.7598 47.5835 52.6088C47.3189 52.4584 47.2256 52.1228 47.3739 51.8576L47.3998 51.8053C47.4205 51.761 47.4519 51.6891 47.488 51.5904C47.56 51.393 47.6505 51.0885 47.711 50.6832C47.8316 49.8753 47.8352 48.6537 47.3199 47.0657C46.8047 45.4777 46.0845 44.4908 45.5126 43.9077C45.2256 43.6151 44.9735 43.4217 44.7994 43.3043C44.7122 43.2455 44.6446 43.2057 44.6018 43.1821L44.5502 43.1549C44.2744 43.0273 44.1529 42.7008 44.2788 42.4237Z" fill="url(#paint20_linear_21228_55981)"/>
<path d="M42.6305 45.1187C42.3544 44.9933 42.2303 44.6685 42.3535 44.3907C42.4773 44.1112 42.8042 43.9851 43.0836 44.1089L43.1886 44.1615C43.2446 44.1918 43.3201 44.2357 43.4108 44.2956C43.5921 44.4155 43.8339 44.5995 44.0999 44.8667C44.6342 45.4032 45.2568 46.2657 45.6882 47.5951C46.1195 48.9246 46.1219 49.9883 46.0044 50.7363C45.9459 51.1088 45.8583 51.3997 45.7819 51.6032C45.7437 51.7049 45.7083 51.7848 45.6808 51.8422C45.667 51.8709 45.6552 51.894 45.646 51.9114L45.6266 51.9464C45.4731 52.2107 45.1345 52.3006 44.8702 52.1471C44.6073 51.9944 44.517 51.6587 44.667 51.395C44.6812 51.3654 44.7195 51.2839 44.7457 51.2142C44.798 51.0748 44.8652 50.8567 44.911 50.5646C45.0023 49.9834 45.0115 49.0959 44.6354 47.9367C44.2593 46.7776 43.7307 46.0645 43.3156 45.6476C43.107 45.4381 42.9246 45.301 42.8004 45.2189C42.7383 45.1778 42.6908 45.1505 42.6618 45.1349L42.6305 45.1187Z" fill="url(#paint21_linear_21228_55981)"/>
<path d="M396.162 227.484L398.15 221.367C398.15 221.367 402.521 220.866 403.851 223.522C404.788 225.392 403.338 234.268 399.075 238.882C395.886 242.332 389.871 245.455 385.466 245.892C382.767 246.159 381.648 245.909 380.429 244.235C379.368 242.779 379.983 239.642 379.983 239.642L386.014 237.784C387.025 238.795 387.476 239.402 387.925 240.605C394.316 238.941 398.544 231.826 399.068 229.363C397.476 228.874 396.842 228.455 396.162 227.484Z" fill="url(#paint22_linear_21228_55981)"/>
<path d="M393.013 224.555C393.014 224.249 392.767 224.001 392.461 224L392.443 224C392.434 224 392.422 224 392.408 224.001C392.38 224.002 392.341 224.003 392.292 224.007C392.195 224.014 392.058 224.029 391.887 224.057C391.545 224.113 391.065 224.225 390.489 224.444C389.333 224.885 387.8 225.758 386.208 227.476C384.617 229.195 383.865 230.791 383.515 231.977C383.34 232.569 383.266 233.056 383.236 233.401C383.221 233.574 383.217 233.712 383.218 233.809C383.218 233.858 383.219 233.897 383.22 233.925L383.223 233.978C383.248 234.283 383.515 234.51 383.819 234.485C384.123 234.461 384.349 234.195 384.326 233.892L384.324 233.807C384.324 233.74 384.327 233.635 384.339 233.496C384.363 233.219 384.424 232.806 384.576 232.291C384.88 231.264 385.548 229.819 387.021 228.228C388.493 226.637 389.882 225.86 390.883 225.479C391.385 225.287 391.792 225.194 392.067 225.149C392.204 225.127 392.309 225.116 392.375 225.111C392.409 225.108 392.433 225.107 392.447 225.107L392.46 225.106C392.764 225.106 393.012 224.86 393.013 224.555Z" fill="url(#paint23_linear_21228_55981)"/>
<path d="M393.76 227.171C393.762 226.866 393.516 226.616 393.21 226.614L393.164 226.615C393.14 226.616 393.108 226.617 393.068 226.62C392.989 226.626 392.878 226.637 392.741 226.659C392.466 226.704 392.084 226.792 391.625 226.965C390.705 227.314 389.492 228.002 388.239 229.356C386.985 230.71 386.392 231.972 386.116 232.916C385.978 233.387 385.92 233.775 385.896 234.053C385.885 234.191 385.882 234.302 385.882 234.382C385.883 234.422 385.884 234.454 385.885 234.477L385.888 234.524C385.913 234.828 386.181 235.054 386.485 235.029C386.789 235.003 387.014 234.738 386.991 234.435L386.989 234.377C386.989 234.328 386.991 234.249 386.999 234.144C387.017 233.935 387.062 233.621 387.178 233.227C387.407 232.444 387.917 231.333 389.051 230.108C390.185 228.883 391.253 228.29 392.017 228C392.4 227.855 392.71 227.785 392.918 227.752C393.021 227.735 393.099 227.728 393.148 227.724L393.206 227.721C393.51 227.721 393.758 227.476 393.76 227.171Z" fill="url(#paint24_linear_21228_55981)"/>
<path d="M394.125 230.309C394.428 230.311 394.677 230.069 394.682 229.765C394.687 229.459 394.443 229.207 394.137 229.202L394.02 229.206C393.956 229.21 393.869 229.218 393.762 229.235C393.547 229.267 393.25 229.333 392.897 229.464C392.187 229.726 391.259 230.248 390.31 231.274C389.36 232.299 388.912 233.264 388.704 233.992C388.601 234.355 388.559 234.655 388.543 234.872C388.535 234.981 388.533 235.068 388.534 235.132C388.534 235.163 388.535 235.189 388.537 235.209L388.539 235.249C388.568 235.553 388.838 235.777 389.142 235.748C389.444 235.72 389.667 235.453 389.642 235.151C389.641 235.118 389.641 235.028 389.646 234.954C389.657 234.806 389.688 234.579 389.769 234.295C389.93 233.729 390.294 232.92 391.122 232.025C391.95 231.131 392.729 230.706 393.281 230.502C393.558 230.399 393.781 230.351 393.928 230.329C394.002 230.318 394.057 230.313 394.089 230.311L394.125 230.309Z" fill="url(#paint25_linear_21228_55981)"/>
<defs>
<filter id="filter0_f_21228_55981" x="5.02148" y="0" width="395.643" height="294.484" filterUnits="userSpaceOnUse" color-interpolation-filters="sRGB">
<feFlood flood-opacity="0" result="BackgroundImageFix"/>
<feBlend mode="normal" in="SourceGraphic" in2="BackgroundImageFix" result="shape"/>
<feGaussianBlur stdDeviation="2" result="effect1_foregroundBlur_21228_55981"/>
</filter>
<filter id="filter1_f_21228_55981" x="3.19727" y="237.24" width="413.74" height="64.4863" filterUnits="userSpaceOnUse" color-interpolation-filters="sRGB">
<feFlood flood-opacity="0" result="BackgroundImageFix"/>
<feBlend mode="normal" in="SourceGraphic" in2="BackgroundImageFix" result="shape"/>
<feGaussianBlur stdDeviation="10" result="effect1_foregroundBlur_21228_55981"/>
</filter>
<linearGradient id="paint0_linear_21228_55981" x1="244.863" y1="22.3648" x2="202.842" y2="290.484" gradientUnits="userSpaceOnUse">
<stop offset="0.0128718" stop-color="white"/>
<stop offset="1" stop-color="#C1B0FF"/>
</linearGradient>
<linearGradient id="paint1_linear_21228_55981" x1="133.759" y1="109.766" x2="137.027" y2="111.664" gradientUnits="userSpaceOnUse">
<stop stop-color="#FC5E49"/>
<stop offset="1" stop-color="#FB9F02"/>
</linearGradient>
<linearGradient id="paint2_linear_21228_55981" x1="130.473" y1="110.392" x2="134.569" y2="111.995" gradientUnits="userSpaceOnUse">
<stop stop-color="#FC5E49"/>
<stop offset="1" stop-color="#FB9F02"/>
</linearGradient>
<linearGradient id="paint3_linear_21228_55981" x1="127.574" y1="115.87" x2="138.986" y2="124.445" gradientUnits="userSpaceOnUse">
<stop stop-color="#FC5E49"/>
<stop offset="1" stop-color="#FB9F02"/>
</linearGradient>
<linearGradient id="paint4_linear_21228_55981" x1="51.3156" y1="149.002" x2="66.6949" y2="144" gradientUnits="userSpaceOnUse">
<stop stop-color="#575DC7"/>
<stop offset="1" stop-color="#3B40A9"/>
</linearGradient>
<linearGradient id="paint5_linear_21228_55981" x1="88.7801" y1="140.998" x2="88.7801" y2="260.216" gradientUnits="userSpaceOnUse">
<stop stop-color="#2F349D"/>
<stop offset="1" stop-color="#6468BF"/>
</linearGradient>
<linearGradient id="paint6_linear_21228_55981" x1="117.965" y1="253.629" x2="119.458" y2="274.006" gradientUnits="userSpaceOnUse">
<stop stop-color="#EA7E25"/>
<stop offset="1" stop-color="#FC861F"/>
</linearGradient>
<linearGradient id="paint7_linear_21228_55981" x1="56.7286" y1="254.281" x2="55.2357" y2="274.658" gradientUnits="userSpaceOnUse">
<stop stop-color="#EA7E25"/>
<stop offset="1" stop-color="#FC861F"/>
</linearGradient>
<linearGradient id="paint8_linear_21228_55981" x1="140.384" y1="111.132" x2="145.37" y2="113.351" gradientUnits="userSpaceOnUse">
<stop stop-color="#FC5E49"/>
<stop offset="1" stop-color="#FB9F02"/>
</linearGradient>
<linearGradient id="paint9_linear_21228_55981" x1="137.356" y1="110.696" x2="142.727" y2="113.086" gradientUnits="userSpaceOnUse">
<stop stop-color="#FC5E49"/>
<stop offset="1" stop-color="#FB9F02"/>
</linearGradient>
<linearGradient id="paint10_linear_21228_55981" x1="134.025" y1="109.476" x2="140.162" y2="112.207" gradientUnits="userSpaceOnUse">
<stop stop-color="#FC5E49"/>
<stop offset="1" stop-color="#FB9F02"/>
</linearGradient>
<linearGradient id="paint11_linear_21228_55981" x1="130.517" y1="110.343" x2="136.655" y2="113.074" gradientUnits="userSpaceOnUse">
<stop stop-color="#FC5E49"/>
<stop offset="1" stop-color="#FB9F02"/>
</linearGradient>
<linearGradient id="paint12_linear_21228_55981" x1="382.722" y1="96.9134" x2="333.991" y2="116.041" gradientUnits="userSpaceOnUse">
<stop stop-color="#572EC7"/>
<stop offset="1" stop-color="#572EC7" stop-opacity="0"/>
</linearGradient>
<linearGradient id="paint13_linear_21228_55981" x1="52.5858" y1="186.144" x2="55.7151" y2="181.672" gradientUnits="userSpaceOnUse">
<stop stop-color="#FC5E49"/>
<stop offset="1" stop-color="#FB9F02"/>
</linearGradient>
<linearGradient id="paint14_linear_21228_55981" x1="51.2967" y1="189.709" x2="54.6668" y2="184.893" gradientUnits="userSpaceOnUse">
<stop stop-color="#FC5E49"/>
<stop offset="1" stop-color="#FB9F02"/>
</linearGradient>
<linearGradient id="paint15_linear_21228_55981" x1="51.123" y1="193.499" x2="54.9745" y2="187.995" gradientUnits="userSpaceOnUse">
<stop stop-color="#FC5E49"/>
<stop offset="1" stop-color="#FB9F02"/>
</linearGradient>
<linearGradient id="paint16_linear_21228_55981" x1="50.6093" y1="197.13" x2="54.4608" y2="191.626" gradientUnits="userSpaceOnUse">
<stop stop-color="#FC5E49"/>
<stop offset="1" stop-color="#FB9F02"/>
</linearGradient>
<linearGradient id="paint17_linear_21228_55981" x1="188.805" y1="67.0097" x2="296.093" y2="53.7999" gradientUnits="userSpaceOnUse">
<stop stop-color="#572EC7"/>
<stop offset="1" stop-color="#572EC7" stop-opacity="0"/>
</linearGradient>
<linearGradient id="paint18_linear_21228_55981" x1="45.7309" y1="31.417" x2="38.1972" y2="67.2962" gradientUnits="userSpaceOnUse">
<stop stop-color="#9978F2"/>
<stop offset="1" stop-color="#6141B7"/>
</linearGradient>
<linearGradient id="paint19_linear_21228_55981" x1="54.7762" y1="44.8271" x2="39.6015" y2="50.3308" gradientUnits="userSpaceOnUse">
<stop stop-color="#8462DE"/>
<stop offset="1" stop-color="#6B4BBE"/>
</linearGradient>
<linearGradient id="paint20_linear_21228_55981" x1="54.7762" y1="44.8271" x2="39.6015" y2="50.3308" gradientUnits="userSpaceOnUse">
<stop stop-color="#8462DE"/>
<stop offset="1" stop-color="#6B4BBE"/>
</linearGradient>
<linearGradient id="paint21_linear_21228_55981" x1="54.7762" y1="44.8271" x2="39.6015" y2="50.3308" gradientUnits="userSpaceOnUse">
<stop stop-color="#8462DE"/>
<stop offset="1" stop-color="#6B4BBE"/>
</linearGradient>
<linearGradient id="paint22_linear_21228_55981" x1="397.062" y1="216.572" x2="388.841" y2="252.3" gradientUnits="userSpaceOnUse">
<stop stop-color="#9978F2"/>
<stop offset="1" stop-color="#6141B7"/>
</linearGradient>
<linearGradient id="paint23_linear_21228_55981" x1="383.223" y1="224.947" x2="394.686" y2="236.311" gradientUnits="userSpaceOnUse">
<stop stop-color="#8462DE"/>
<stop offset="1" stop-color="#6B4BBE"/>
</linearGradient>
<linearGradient id="paint24_linear_21228_55981" x1="383.223" y1="224.947" x2="394.686" y2="236.311" gradientUnits="userSpaceOnUse">
<stop stop-color="#8462DE"/>
<stop offset="1" stop-color="#6B4BBE"/>
</linearGradient>
<linearGradient id="paint25_linear_21228_55981" x1="383.223" y1="224.947" x2="394.686" y2="236.311" gradientUnits="userSpaceOnUse">
<stop stop-color="#8462DE"/>
<stop offset="1" stop-color="#6B4BBE"/>
</linearGradient>
<clipPath id="clip0_21228_55981">
<rect x="126.299" y="96.791" width="239.685" height="171.203" rx="20.9667" fill="white"/>
</clipPath>
</defs>
</svg>
