<svg width="149" height="116" viewBox="0 0 149 116" fill="none" xmlns="http://www.w3.org/2000/svg">
<path d="M0 5.739C0 2.56944 2.56944 0 5.73901 0H132.548C135.718 0 138.287 2.56944 138.287 5.73901V101.366C138.287 104.536 135.718 107.105 132.548 107.105H5.73901C2.56945 107.105 0 104.536 0 101.366V5.739Z" fill="#C19AD6"/>
<path d="M4.86816 9.63549C4.86816 6.46592 7.4376 3.89648 10.6072 3.89648H137.416C140.586 3.89648 143.155 6.46593 143.155 9.63549V105.263C143.155 108.432 140.586 111.002 137.416 111.002H10.6072C7.43761 111.002 4.86816 108.432 4.86816 105.263V9.63549Z" fill="#D7B7E8"/>
<path d="M10.7129 13.5286C10.7129 10.359 13.2823 7.78955 16.4519 7.78955H143.261C146.431 7.78955 149 10.359 149 13.5286V109.156C149 112.326 146.431 114.895 143.261 114.895H16.4519C13.2823 114.895 10.7129 112.326 10.7129 109.156V13.5286Z" fill="#F7E8FF"/>
<path d="M92.7388 56.2642C99.8536 56.2642 105.621 50.4988 105.621 43.3867C105.621 36.2747 99.8536 30.5093 92.7388 30.5093C85.6241 30.5093 79.8564 36.2747 79.8564 43.3867C79.8564 50.4988 85.6241 56.2642 92.7388 56.2642Z" fill="#C1B0EF"/>
<path d="M49.9987 62.9319C51.7051 61.624 53.1867 61.13 54.8619 62.9319L87.2646 95.7019L114.577 81.1675C116.404 79.8976 117.391 79.8976 119.44 81.1675L148.62 95.7019V110.621C149.7 112.648 148.349 115.18 146.188 115.18H13.5248C11.3633 115.18 10.7129 112.966 10.7129 110.843L10.7129 95.9239L49.9987 62.9319Z" fill="#C1B0EF"/>
</svg>
