<svg width="80" height="81" viewBox="0 0 80 81" fill="none" xmlns="http://www.w3.org/2000/svg">
<path opacity="0.25" d="M0.973626 42.3357C-1.78004 54.0791 1.43209 64.9583 9.03096 72.2845C13.6237 76.7124 54.3126 82.5895 76.5503 75.7463C81.3043 74.2834 82.4956 49.49 71.2326 41.3696C64.2211 36.3146 61.215 39.0914 52.8619 36.8612C39.4431 33.2785 34.3145 17.8191 20.8749 21.3232C9.93428 24.1758 3.55298 31.3357 0.973626 42.3357Z" fill="#7E54F1"/>
<path opacity="0.25" d="M11.6223 33.9589C8.69388 38.3471 9.64413 41.9523 8.25167 47.0409C6.08456 54.9604 -1.30152 59.7745 2.23266 67.1856C4.32672 71.5767 11.6223 73.0683 11.6223 73.0683C11.6223 73.0683 79.9983 88.3371 79.9983 68.4697C79.9983 60.4014 79.5167 59.2401 76.6276 54.0233C72.1829 45.9975 82.0046 32.0753 66.1947 23.4452C56.558 18.1848 49.4461 26.0916 38.6677 28.1804C28.1083 30.2267 17.593 25.012 11.6223 33.9589Z" fill="#7E54F1"/>
<rect x="14.1484" y="8.49829" width="54.1972" height="61.7689" rx="4.63267" fill="url(#paint0_linear_27319_77784)"/>
<path fill-rule="evenodd" clip-rule="evenodd" d="M54.1982 13.679C54.1982 13.4589 54.3766 13.2805 54.5967 13.2805H64.1609V17.2656C64.1609 17.4857 63.9825 17.6641 63.7624 17.6641C63.5423 17.6641 63.3639 17.4857 63.3639 17.2656V14.0775H54.5967C54.3766 14.0775 54.1982 13.8991 54.1982 13.679ZM58.781 23.841C58.781 23.6209 58.9594 23.4425 59.1795 23.4425H63.7624C63.9825 23.4425 64.1609 23.6209 64.1609 23.841C64.1609 24.0611 63.9825 24.2395 63.7624 24.2395H59.1795C58.9594 24.2395 58.781 24.0611 58.781 23.841ZM58.781 30.4164C58.781 30.1963 58.9594 30.0179 59.1795 30.0179H63.7624C63.9825 30.0179 64.1609 30.1963 64.1609 30.4164C64.1609 30.6365 63.9825 30.8149 63.7624 30.8149H59.1795C58.9594 30.8149 58.781 30.6365 58.781 30.4164ZM58.781 36.9918C58.781 36.7717 58.9594 36.5933 59.1795 36.5933H63.7624C63.9825 36.5933 64.1609 36.7717 64.1609 36.9918C64.1609 37.2119 63.9825 37.3903 63.7624 37.3903H59.1795C58.9594 37.3903 58.781 37.2119 58.781 36.9918ZM32.8779 58.9098C32.8779 58.6897 33.0563 58.5113 33.2764 58.5113H42.2429C42.463 58.5113 42.6414 58.6897 42.6414 58.9098C42.6414 59.1299 42.463 59.3083 42.2429 59.3083H33.2764C33.0563 59.3083 32.8779 59.1299 32.8779 58.9098ZM45.0324 58.9098C45.0324 58.6897 45.2109 58.5113 45.431 58.5113H48.2205C48.4406 58.5113 48.619 58.6897 48.619 58.9098C48.619 59.1299 48.4406 59.3083 48.2205 59.3083H45.431C45.2109 59.3083 45.0324 59.1299 45.0324 58.9098ZM32.8779 62.8949C32.8779 62.6748 33.0563 62.4964 33.2764 62.4964H36.6638C36.8839 62.4964 37.0623 62.6748 37.0623 62.8949C37.0623 63.115 36.8839 63.2934 36.6638 63.2934H33.2764C33.0563 63.2934 32.8779 63.115 32.8779 62.8949ZM38.2578 62.8949C38.2578 62.6748 38.4362 62.4964 38.6563 62.4964H48.2205C48.4406 62.4964 48.619 62.6748 48.619 62.8949C48.619 63.115 48.4406 63.2934 48.2205 63.2934H38.6563C38.4362 63.2934 38.2578 63.115 38.2578 62.8949Z" fill="#333333"/>
<path d="M50.0613 16.2482C56.7889 24.0289 56.5004 35.4935 49.7561 42.9216C49.2128 43.52 48.6277 44.0922 48.0009 44.6341C47.4036 45.1505 46.7847 45.6256 46.1475 46.0596C37.8152 51.7349 26.3681 50.384 19.6149 42.5738C12.3453 34.1662 13.2678 21.4574 21.6753 14.1878C30.0828 6.91821 42.7917 7.84068 50.0613 16.2482ZM21.6854 40.7835C24.0885 43.5628 27.1796 45.3954 30.4872 46.2471C31.7915 46.5829 33.1295 46.7662 34.4723 46.7949C38.6243 46.8836 42.8219 45.4939 46.2107 42.5637C52.5421 37.0892 53.9605 28.0444 50.0613 21.0022C49.4869 19.9649 48.7972 18.971 47.9908 18.0384C46.5011 16.3155 44.7471 14.9565 42.841 13.9693C42.3843 13.7328 41.9188 13.5176 41.4462 13.3239C35.5746 10.9175 28.5939 11.824 23.4655 16.2582C17.554 21.3697 15.9255 29.5935 18.9092 36.3938C19.3631 37.4283 19.9237 38.4299 20.5923 39.3826C20.9292 39.8627 21.2935 40.3304 21.6854 40.7835Z" fill="url(#paint1_linear_27319_77784)"/>
<path d="M48.4506 49.9935C48.1863 49.6589 48.2322 49.1755 48.5548 48.8966L52.2246 45.7235C52.5471 45.4446 53.0321 45.469 53.325 45.7788L67.6632 60.0325C67.9751 60.3625 67.9488 60.886 67.6053 61.183L61.6311 66.3486C61.2876 66.6456 60.7658 66.596 60.4843 66.2397L48.4506 49.9935Z" fill="url(#paint2_linear_27319_77784)"/>
<path d="M48.581 48.8739L52.1984 45.7461L49.7561 42.9216C49.2128 43.52 48.6277 44.0922 48.0009 44.6341C47.4036 45.1505 46.7847 45.6256 46.1475 46.0596L48.581 48.8739Z" fill="url(#paint3_linear_27319_77784)"/>
<path fill-rule="evenodd" clip-rule="evenodd" d="M21.6854 40.7835C24.0885 43.5628 27.1796 45.3954 30.4872 46.2471L47.9908 18.0384C46.5011 16.3155 44.7471 14.9565 42.841 13.9693L20.5923 39.3826C20.9292 39.8627 21.2935 40.3304 21.6854 40.7835ZM18.9092 36.3938L41.4462 13.3239C35.5746 10.9175 28.5939 11.824 23.4655 16.2582C17.554 21.3697 15.9255 29.5935 18.9092 36.3938ZM46.2107 42.5637C42.8219 45.4939 38.6243 46.8836 34.4723 46.7949L50.0613 21.0022C53.9605 28.0444 52.5421 37.0892 46.2107 42.5637Z" fill="#96FFEC" fill-opacity="0.5"/>
<path d="M41.4462 13.3239L18.9092 36.3938C19.3631 37.4283 19.9237 38.4299 20.5923 39.3826L42.841 13.9693C42.3843 13.7328 41.9188 13.5176 41.4462 13.3239Z" fill="#D5FFDC"/>
<path d="M47.9908 18.0384L30.4872 46.2471C31.7915 46.5829 33.1295 46.7662 34.4723 46.7949L50.0613 21.0022C49.4869 19.9649 48.7972 18.971 47.9908 18.0384Z" fill="#D5FFDC"/>
<path fill-rule="evenodd" clip-rule="evenodd" d="M25.7052 55.5224C22.844 55.5224 20.5246 57.8418 20.5246 60.703C20.5246 63.5641 22.844 65.8836 25.7052 65.8836C28.5663 65.8836 30.8858 63.5641 30.8858 60.703C30.8858 57.8418 28.5663 55.5224 25.7052 55.5224ZM19.7275 60.703C19.7275 57.4016 22.4038 54.7253 25.7052 54.7253C29.0065 54.7253 31.6828 57.4016 31.6828 60.703C31.6828 64.0043 29.0065 66.6806 25.7052 66.6806C22.4038 66.6806 19.7275 64.0043 19.7275 60.703Z" fill="#333333"/>
<path fill-rule="evenodd" clip-rule="evenodd" d="M27.7899 59.037C27.9397 59.1983 27.9303 59.4504 27.7691 59.6002L26.0066 61.2367C25.2762 61.915 24.1402 61.8939 23.4354 61.1891L23.0318 60.7855C22.8761 60.6299 22.8761 60.3775 23.0318 60.2219C23.1874 60.0663 23.4397 60.0663 23.5953 60.2219L24.4029 61.0295C24.5791 61.2057 24.8631 61.2109 25.0457 61.0414L27.2267 59.0162C27.388 58.8664 27.6402 58.8757 27.7899 59.037Z" fill="#333333"/>
<path fill-rule="evenodd" clip-rule="evenodd" d="M45.2326 22.0475C44.5723 22.0475 44.0371 22.5828 44.0371 23.243C44.0371 23.6204 44.2114 23.9568 44.4856 24.1765C44.6903 24.3406 44.9495 24.4386 45.2326 24.4386C45.8929 24.4386 46.4281 23.9033 46.4281 23.243C46.4281 22.5828 45.8929 22.0475 45.2326 22.0475ZM43.24 23.243C43.24 22.1426 44.1321 21.2505 45.2326 21.2505C46.333 21.2505 47.2251 22.1426 47.2251 23.243C47.2251 24.3435 46.333 25.2356 45.2326 25.2356C44.8935 25.2356 44.5737 25.1506 44.2938 25.0009L40.118 29.3138C40.3281 29.6295 40.4505 30.0085 40.4505 30.4162C40.4505 31.5166 39.5584 32.4087 38.4579 32.4087C37.3575 32.4087 36.4654 31.5166 36.4654 30.4162C36.4654 30.1967 36.501 29.9851 36.5668 29.7871L33.1763 27.8562C32.9132 28.6489 32.1658 29.2207 31.2848 29.2207C30.7353 29.2207 30.2381 28.9981 29.8779 28.6391L26.2202 32.5812C26.3995 32.8803 26.5027 33.2305 26.5027 33.6043C26.5027 34.7047 25.6106 35.5968 24.5101 35.5968C23.4097 35.5968 22.5176 34.7047 22.5176 33.6043C22.5176 32.5038 23.4097 31.6117 24.5101 31.6117C24.9473 31.6117 25.3518 31.7528 25.6802 31.9914L29.428 27.9522C29.3403 27.7275 29.2922 27.4831 29.2922 27.2281C29.2922 26.1277 30.1843 25.2356 31.2848 25.2356C32.3041 25.2356 33.1446 26.0009 33.263 26.9883L36.965 29.0967C37.3297 28.6843 37.8632 28.4236 38.4579 28.4236C38.8625 28.4236 39.2389 28.5442 39.5531 28.7514L43.6788 24.4904C43.4046 24.1492 43.24 23.7152 43.24 23.243ZM31.2848 26.0326C30.6245 26.0326 30.0892 26.5678 30.0892 27.2281C30.0892 27.4465 30.1475 27.6502 30.2489 27.8256C30.4563 28.184 30.8428 28.4236 31.2848 28.4236C31.945 28.4236 32.4803 27.8884 32.4803 27.2281C32.4803 26.5678 31.945 26.0326 31.2848 26.0326ZM38.4579 29.2207C38.0159 29.2207 37.6294 29.4603 37.4221 29.8187C37.3206 29.9942 37.2624 30.1978 37.2624 30.4162C37.2624 31.0765 37.7977 31.6117 38.4579 31.6117C39.1182 31.6117 39.6535 31.0765 39.6535 30.4162C39.6535 29.7559 39.1182 29.2207 38.4579 29.2207ZM24.5101 32.4087C23.8499 32.4087 23.3146 32.944 23.3146 33.6043C23.3146 34.2645 23.8499 34.7998 24.5101 34.7998C25.1704 34.7998 25.7056 34.2645 25.7056 33.6043C25.7056 33.3008 25.5931 33.0246 25.4069 32.8136C25.1872 32.5647 24.8671 32.4087 24.5101 32.4087Z" fill="#8B58F8"/>
<defs>
<linearGradient id="paint0_linear_27319_77784" x1="26.5916" y1="12.3888" x2="72.0462" y2="84.8888" gradientUnits="userSpaceOnUse">
<stop stop-color="#FBFCBC"/>
<stop offset="1" stop-color="white"/>
</linearGradient>
<linearGradient id="paint1_linear_27319_77784" x1="21.6753" y1="14.1878" x2="64.5752" y2="63.8029" gradientUnits="userSpaceOnUse">
<stop stop-color="#7E7D9A"/>
<stop offset="1" stop-color="#5856A3"/>
</linearGradient>
<linearGradient id="paint2_linear_27319_77784" x1="21.6753" y1="14.1878" x2="64.5752" y2="63.8029" gradientUnits="userSpaceOnUse">
<stop stop-color="#7E7D9A"/>
<stop offset="1" stop-color="#5856A3"/>
</linearGradient>
<linearGradient id="paint3_linear_27319_77784" x1="21.6753" y1="14.1878" x2="64.5752" y2="63.8029" gradientUnits="userSpaceOnUse">
<stop stop-color="#7E7D9A"/>
<stop offset="1" stop-color="#5856A3"/>
</linearGradient>
</defs>
</svg>
