<svg width="80" height="81" viewBox="0 0 80 81" fill="none" xmlns="http://www.w3.org/2000/svg">
<circle opacity="0.2" cx="38.9277" cy="41.0938" r="35" fill="#D2C1FF"/>
<path d="M30.276 27.7739L30.6999 28.4799L32.8077 26.4583L31.6235 24.8713L30.276 27.7739Z" fill="url(#paint0_linear_27319_77829)"/>
<path d="M31.4267 26.765C31.1398 27.4328 29.5299 29.1411 27.8185 28.1991C27.1187 27.8135 27.0325 27.3567 27.325 26.9405C26.9452 26.6768 26.6119 26.3551 26.4508 25.9288C26.2985 25.5251 26.4007 24.8495 26.8861 24.8252C26.8155 24.6663 26.7926 24.4892 26.8352 24.3069C26.9299 23.917 27.3865 23.5464 27.7976 23.6723C27.8001 23.6719 27.801 23.6771 27.8066 23.6788C27.7597 23.4018 27.889 23.1127 28.1451 22.9682C28.3796 22.8377 28.7415 22.6896 29.0849 22.9246C29.0748 22.695 29.1274 22.5749 29.3592 22.4449C30.067 22.0476 31.2918 23.123 31.6097 23.5987C32.2696 24.5835 31.8553 25.7688 31.4241 26.7654L31.4267 26.765Z" fill="url(#paint1_linear_27319_77829)"/>
<path d="M29.0578 27.8074C28.7238 27.7144 28.396 27.6098 28.0857 27.4652C28.1058 27.6242 28.1726 27.7598 28.2658 27.8938C28.3077 27.9562 28.2287 28.0273 28.1747 27.9721C28.031 27.8222 27.9681 27.6116 27.9622 27.4078C27.7595 27.3046 27.5644 27.1815 27.3836 27.0322C27.3656 27.0191 27.3848 26.9895 27.4028 27.0025C27.9128 27.3652 28.5059 27.5152 29.1028 27.6726C29.1915 27.6957 29.144 27.8308 29.0552 27.8078L29.0578 27.8074Z" fill="url(#paint2_linear_27319_77829)"/>
<path d="M8.94213 46.4759C8.94213 46.4759 9.05974 38.602 15.1709 33.3135L15.3097 37.908C14.4246 39.2995 14.7718 40.1668 14.1643 41.0343L13.7605 46.476C13.1529 48.9047 8.94213 46.4759 8.94213 46.4759Z" fill="url(#paint3_linear_27319_77829)"/>
<path d="M28.0269 33.8052C28.1341 33.7935 31.2378 34.4976 33.7541 41.0045C34.3126 42.4487 34.6797 46.476 34.6797 46.476C34.6797 46.476 31.4421 47.1632 31.2372 47.1631C30.4563 43.7803 29.9358 40.0505 29.0681 38.4505C27.8433 38.9981 26.7385 39.3365 26.0224 39.4482C24.647 39.6623 23.2451 39.7265 21.8397 39.6185L18.0003 39.3247C17.0005 39.2464 16.465 38.2215 15.3097 37.908L15.1709 33.3135L17.502 32.1774L24.4003 31.8657L28.0269 33.8052Z" fill="url(#paint4_linear_27319_77829)"/>
<path d="M31.7146 24.7752L33.2549 26.3922L32.5583 28.5448L31.0832 25.9698L31.7146 24.7752Z" fill="#FC7234"/>
<mask id="path-7-outside-1_27319_77829" maskUnits="userSpaceOnUse" x="10.3289" y="28.6743" width="23.7141" height="27.4311" fill="black">
<rect fill="white" x="10.3289" y="28.6743" width="23.7141" height="27.4311"/>
<path d="M25.6456 54.4509C25.6456 54.4509 25.3859 49.8707 23.2824 49.5375C22.6385 49.4355 22.2496 49.5271 21.6209 49.6996C19.4279 50.3014 20.871 49.6781 18.8773 52.705C17.4404 54.8863 11.3811 53.8808 11.3811 53.8808C11.3811 53.8808 11.8965 49.68 12.9488 44.749C13.9164 40.2146 16.2791 33.353 16.2791 33.353C16.4216 32.7012 18.2805 31.956 18.8773 31.8797L25.3037 30.5985C25.9312 30.5173 26.5264 30.9107 26.7577 31.5669C26.7577 31.5669 29.4773 39.4942 30.4775 44.7486C31.4032 49.612 31.7419 53.1072 31.9413 53.6817C32.1384 54.2561 25.648 54.451 25.648 54.451L25.6456 54.4509Z"/>
</mask>
<path d="M25.6456 54.4509C25.6456 54.4509 25.3859 49.8707 23.2824 49.5375C22.6385 49.4355 22.2496 49.5271 21.6209 49.6996C19.4279 50.3014 20.871 49.6781 18.8773 52.705C17.4404 54.8863 11.3811 53.8808 11.3811 53.8808C11.3811 53.8808 11.8965 49.68 12.9488 44.749C13.9164 40.2146 16.2791 33.353 16.2791 33.353C16.4216 32.7012 18.2805 31.956 18.8773 31.8797L25.3037 30.5985C25.9312 30.5173 26.5264 30.9107 26.7577 31.5669C26.7577 31.5669 29.4773 39.4942 30.4775 44.7486C31.4032 49.612 31.7419 53.1072 31.9413 53.6817C32.1384 54.2561 25.648 54.451 25.648 54.451L25.6456 54.4509Z" fill="url(#paint5_linear_27319_77829)"/>
<path d="M25.6456 54.4509L25.4964 54.4594L25.5039 54.591L25.6355 54.6L25.6456 54.4509ZM21.6209 49.6996L21.6604 49.8437L21.6209 49.6996ZM18.8773 52.705L19.0021 52.7871L18.8773 52.705ZM11.3811 53.8808L11.2328 53.8626L11.2154 54.0048L11.3567 54.0282L11.3811 53.8808ZM12.9488 44.749L12.8026 44.7179L12.9488 44.749ZM16.2791 33.353L16.4204 33.4017L16.4232 33.3934L16.4251 33.3849L16.2791 33.353ZM18.8773 31.8797L18.8963 32.0282L18.9065 32.0262L18.8773 31.8797ZM25.3037 30.5985L25.2844 30.45L25.2745 30.452L25.3037 30.5985ZM26.7577 31.5669L26.8991 31.5184L26.8986 31.5172L26.7577 31.5669ZM30.4775 44.7486L30.6243 44.7206L30.4775 44.7486ZM31.9413 53.6817L32.0826 53.6332L32.0825 53.6327L31.9413 53.6817ZM25.648 54.451L25.6378 54.6001L25.6451 54.6006L25.6524 54.6004L25.648 54.451ZM23.2824 49.5375L23.259 49.6851L23.2824 49.5375ZM21.5814 49.5555C21.0435 49.7031 20.7082 49.7808 20.4968 49.8568C20.3872 49.8963 20.2971 49.9397 20.2214 50.0002C20.144 50.0622 20.0902 50.1352 20.0432 50.2213C19.8626 50.5521 19.7489 51.1101 18.7525 52.6228L19.0021 52.7871C19.9994 51.273 20.161 50.6292 20.3055 50.3645C20.3398 50.3017 20.3704 50.2637 20.4081 50.2336C20.4476 50.202 20.5033 50.1721 20.598 50.138C20.7951 50.0671 21.1018 49.997 21.6604 49.8437L21.5814 49.5555ZM18.7525 52.6228C18.4225 53.1238 17.8159 53.4564 17.0601 53.6649C16.3074 53.8726 15.4295 53.9509 14.5885 53.9615C13.7487 53.972 12.9524 53.915 12.3655 53.8552C12.0723 53.8253 11.8317 53.7948 11.6647 53.7717C11.5813 53.7602 11.5162 53.7506 11.4721 53.7438C11.4501 53.7405 11.4333 53.7378 11.4221 53.7361C11.4165 53.7352 11.4123 53.7345 11.4096 53.734C11.4082 53.7338 11.4072 53.7336 11.4065 53.7335C11.4062 53.7335 11.4059 53.7334 11.4058 53.7334C11.4057 53.7334 11.4057 53.7334 11.4056 53.7334C11.4056 53.7334 11.4056 53.7334 11.3811 53.8808C11.3567 54.0282 11.3567 54.0282 11.3568 54.0282C11.3569 54.0282 11.3569 54.0283 11.3571 54.0283C11.3573 54.0283 11.3576 54.0284 11.358 54.0284C11.3588 54.0286 11.36 54.0288 11.3615 54.029C11.3646 54.0295 11.3691 54.0302 11.375 54.0312C11.3868 54.0331 11.4043 54.0358 11.427 54.0393C11.4724 54.0462 11.5389 54.056 11.6239 54.0678C11.7939 54.0912 12.038 54.1222 12.3352 54.1525C12.9293 54.213 13.7376 54.271 14.5923 54.2603C15.4457 54.2496 16.3521 54.1703 17.1396 53.953C17.924 53.7366 18.6137 53.3768 19.0021 52.7871L18.7525 52.6228ZM11.3811 53.8808C11.5295 53.899 11.5295 53.899 11.5295 53.8989C11.5295 53.8989 11.5295 53.8989 11.5295 53.8988C11.5295 53.8987 11.5295 53.8985 11.5295 53.8983C11.5296 53.8978 11.5297 53.897 11.5298 53.896C11.5301 53.894 11.5304 53.891 11.5309 53.887C11.5319 53.879 11.5334 53.867 11.5354 53.8511C11.5395 53.8193 11.5455 53.7719 11.5535 53.7099C11.5696 53.5857 11.5938 53.4028 11.6261 53.1677C11.6908 52.6976 11.788 52.0194 11.918 51.1871C12.1781 49.5224 12.5695 47.2423 13.0949 44.7802L12.8026 44.7179C12.2758 47.1868 11.8834 49.4725 11.6227 51.141C11.4924 51.9753 11.395 52.6554 11.3301 53.127C11.2976 53.3629 11.2734 53.5466 11.2572 53.6715C11.2491 53.7339 11.243 53.7816 11.2389 53.8137C11.2369 53.8298 11.2354 53.842 11.2344 53.8502C11.2339 53.8543 11.2335 53.8574 11.2332 53.8594C11.2331 53.8605 11.233 53.8613 11.2329 53.8618C11.2329 53.8621 11.2329 53.8623 11.2329 53.8624C11.2329 53.8625 11.2328 53.8625 11.2328 53.8626C11.2328 53.8626 11.2328 53.8626 11.3811 53.8808ZM13.0949 44.7802C13.5772 42.5201 14.4081 39.6765 15.1194 37.3951C15.4749 36.255 15.8002 35.2565 16.0366 34.543C16.1548 34.1863 16.2508 33.9008 16.3172 33.7046C16.3504 33.6065 16.3762 33.5307 16.3937 33.4795C16.4025 33.4539 16.4091 33.4344 16.4136 33.4213C16.4159 33.4148 16.4176 33.4099 16.4187 33.4066C16.4193 33.4049 16.4197 33.4037 16.42 33.4029C16.4201 33.4025 16.4202 33.4022 16.4203 33.402C16.4203 33.4019 16.4203 33.4018 16.4204 33.4017C16.4204 33.4017 16.4204 33.4017 16.2791 33.353C16.1378 33.3044 16.1378 33.3044 16.1378 33.3045C16.1378 33.3045 16.1377 33.3046 16.1377 33.3047C16.1376 33.305 16.1375 33.3053 16.1374 33.3057C16.1371 33.3065 16.1366 33.3078 16.1361 33.3095C16.1349 33.3128 16.1332 33.3178 16.1309 33.3244C16.1264 33.3376 16.1197 33.3572 16.1109 33.3829C16.0933 33.4344 16.0674 33.5105 16.0341 33.6088C15.9676 33.8056 15.8714 34.0916 15.753 34.449C15.5161 35.1638 15.1903 36.1641 14.8341 37.3062C14.1223 39.5892 13.2879 42.4436 12.8026 44.7179L13.0949 44.7802ZM16.4251 33.3849C16.4491 33.2751 16.5559 33.134 16.7546 32.9753C16.9469 32.8216 17.201 32.6704 17.4744 32.5343C18.0249 32.2603 18.6216 32.063 18.8962 32.0279L18.8583 31.7314C18.5362 31.7727 17.9051 31.9861 17.3413 32.2668C17.0575 32.408 16.783 32.5701 16.568 32.7418C16.3593 32.9086 16.1804 33.105 16.1331 33.3211L16.4251 33.3849ZM18.9065 32.0262L25.3329 30.7451L25.2745 30.452L18.8481 31.7331L18.9065 32.0262ZM25.3228 30.7467C25.8718 30.6756 26.4059 31.0182 26.6168 31.6166L26.8986 31.5172C26.647 30.8031 25.9906 30.3589 25.2845 30.4503L25.3228 30.7467ZM26.7577 31.5669C26.6164 31.6154 26.6164 31.6154 26.6164 31.6155C26.6164 31.6155 26.6164 31.6156 26.6165 31.6157C26.6166 31.6159 26.6167 31.6163 26.6168 31.6168C26.6172 31.6177 26.6177 31.6191 26.6183 31.621C26.6196 31.6248 26.6216 31.6305 26.6241 31.6381C26.6293 31.6532 26.637 31.6757 26.647 31.7053C26.6671 31.7645 26.6968 31.852 26.7349 31.9654C26.8111 32.1921 26.9211 32.5219 27.0563 32.9342C27.3266 33.7587 27.6975 34.9128 28.0996 36.2309C28.9042 38.8686 29.8322 42.1577 30.3307 44.7765L30.6243 44.7206C30.1226 42.0851 29.1906 38.7833 28.3854 36.1437C27.9826 34.8232 27.6111 33.6671 27.3403 32.841C27.2048 32.428 27.0946 32.0975 27.0182 31.8701C26.9799 31.7565 26.9502 31.6686 26.93 31.6091C26.9199 31.5794 26.9122 31.5567 26.907 31.5415C26.9044 31.5339 26.9024 31.5281 26.9011 31.5242C26.9004 31.5223 26.8999 31.5209 26.8996 31.5199C26.8994 31.5194 26.8993 31.519 26.8992 31.5188C26.8991 31.5186 26.8991 31.5185 26.8991 31.5185C26.8991 31.5184 26.8991 31.5184 26.7577 31.5669ZM30.3307 44.7765C30.7929 47.2051 31.1087 49.2923 31.3339 50.8449C31.4464 51.6205 31.5365 52.2649 31.6109 52.7501C31.6843 53.2288 31.7447 53.5711 31.8001 53.7307L32.0825 53.6327C32.0381 53.505 31.9815 53.195 31.9063 52.7048C31.8322 52.2211 31.7425 51.58 31.6296 50.802C31.4042 49.2476 31.0877 47.1554 30.6243 44.7206L30.3307 44.7765ZM31.8 53.7302C31.7852 53.6873 31.8158 53.6626 31.8032 53.6739C31.7873 53.6882 31.7485 53.7119 31.6744 53.74C31.53 53.7949 31.3045 53.8478 31.016 53.897C30.4425 53.9948 29.6554 54.0726 28.8573 54.1328C28.0604 54.1929 27.2569 54.2351 26.6523 54.2623C26.3501 54.2759 26.0978 54.2858 25.921 54.2922C25.8327 54.2954 25.7632 54.2978 25.7159 54.2994C25.6922 54.3001 25.6741 54.3007 25.6619 54.3011C25.6558 54.3013 25.6512 54.3014 25.6481 54.3015C25.6465 54.3016 25.6454 54.3016 25.6446 54.3016C25.6442 54.3017 25.6439 54.3017 25.6437 54.3017C25.6437 54.3017 25.6436 54.3017 25.6435 54.3017C25.6435 54.3017 25.6435 54.3017 25.648 54.451C25.6524 54.6004 25.6525 54.6004 25.6525 54.6004C25.6526 54.6004 25.6526 54.6004 25.6527 54.6004C25.653 54.6004 25.6533 54.6004 25.6537 54.6004C25.6545 54.6003 25.6557 54.6003 25.6572 54.6002C25.6604 54.6002 25.6651 54.6 25.6712 54.5998C25.6836 54.5994 25.7019 54.5988 25.7257 54.5981C25.7734 54.5965 25.8432 54.5941 25.9319 54.5909C26.1093 54.5844 26.3625 54.5745 26.6657 54.5609C27.2719 54.5336 28.0787 54.4912 28.8798 54.4308C29.6797 54.3705 30.4782 54.2918 31.0662 54.1916C31.3585 54.1417 31.6078 54.0851 31.7806 54.0194C31.8651 53.9872 31.9455 53.9478 32.003 53.8962C32.0638 53.8415 32.122 53.748 32.0826 53.6332L31.8 53.7302ZM25.6581 54.302L25.6558 54.3018L25.6355 54.6L25.6378 54.6001L25.6581 54.302ZM25.6456 54.4509C25.7948 54.4424 25.7948 54.4424 25.7948 54.4423C25.7948 54.4422 25.7948 54.4422 25.7948 54.4421C25.7948 54.4419 25.7948 54.4416 25.7947 54.4413C25.7947 54.4407 25.7947 54.4397 25.7946 54.4385C25.7944 54.4362 25.7942 54.4327 25.7939 54.4282C25.7934 54.4191 25.7925 54.4059 25.7912 54.3886C25.7888 54.3542 25.7849 54.304 25.7792 54.2402C25.7678 54.1125 25.7492 53.9302 25.7203 53.7105C25.6626 53.2717 25.5632 52.6815 25.3969 52.0793C25.2309 51.4787 24.996 50.8576 24.6631 50.3624C24.33 49.867 23.8879 49.4821 23.3057 49.3899L23.259 49.6851C23.7286 49.7595 24.1078 50.072 24.4151 50.5291C24.7225 50.9864 24.9469 51.5728 25.1088 52.1589C25.2703 52.7435 25.3674 53.3192 25.424 53.7495C25.4523 53.9645 25.4705 54.1426 25.4815 54.2667C25.487 54.3287 25.4908 54.3772 25.4932 54.4101C25.4943 54.4265 25.4952 54.439 25.4957 54.4473C25.496 54.4514 25.4962 54.4545 25.4963 54.4566C25.4963 54.4576 25.4964 54.4583 25.4964 54.4588C25.4964 54.459 25.4964 54.4592 25.4964 54.4593C25.4964 54.4593 25.4964 54.4593 25.4964 54.4594C25.4964 54.4594 25.4964 54.4594 25.6456 54.4509ZM23.3057 49.3899C22.6294 49.2828 22.2151 49.3816 21.5814 49.5555L21.6604 49.8437C22.284 49.6726 22.6475 49.5882 23.259 49.6851L23.3057 49.3899Z" fill="#64EDFF" mask="url(#path-7-outside-1_27319_77829)"/>
<path d="M19.7859 51.829C19.9991 52.0974 20.2227 52.3453 20.4603 52.5581C20.5769 52.667 20.7018 52.7607 20.8244 52.8546C20.9447 52.9511 21.0707 53.0276 21.1912 53.1265L21.2094 53.1395C21.3142 53.2252 21.3299 53.377 21.2442 53.4818C21.1761 53.5656 21.0641 53.5924 20.9684 53.5545C20.7922 53.4873 20.6276 53.3849 20.4902 53.2607C20.348 53.137 20.2309 52.994 20.1276 52.8425C20.0243 52.691 19.9399 52.533 19.8694 52.3665C19.8015 52.2022 19.7477 52.0318 19.7224 51.854C19.7183 51.8349 19.7313 51.8168 19.7528 51.8125C19.7649 51.8114 19.7776 51.8176 19.7857 51.8266L19.7859 51.829Z" fill="#64EDFF"/>
<path d="M24.7534 52.3914C24.7206 52.545 24.6523 52.6823 24.5716 52.8158C24.488 52.9447 24.3891 53.0653 24.277 53.1748C24.1648 53.2819 24.0424 53.385 23.9079 53.46C23.7736 53.5374 23.6281 53.5987 23.4775 53.6289C23.3435 53.6552 23.2144 53.5692 23.1883 53.4377C23.1673 53.3374 23.2122 53.2386 23.2927 53.1854L23.3112 53.174C23.3661 53.1352 23.427 53.108 23.4853 53.0786C23.5409 53.047 23.6046 53.0244 23.6604 52.9952C23.7795 52.9385 23.8964 52.8846 24.0153 52.8255C24.2477 52.7006 24.4779 52.5516 24.6923 52.3602L24.6945 52.3576C24.7079 52.3443 24.7323 52.3446 24.7458 52.3604C24.7537 52.367 24.7547 52.3791 24.7534 52.3914Z" fill="#64EDFF"/>
<path d="M26.4761 44.4787C26.4685 44.4707 26.593 44.4895 26.7748 44.4084C26.8697 44.364 26.9734 44.2808 27.0549 44.1501C27.0878 44.0885 27.1211 44.0113 27.1389 43.9258C27.1488 43.848 27.1436 43.7464 27.146 43.6527C27.1668 42.8567 27.1887 41.7171 27.2254 40.3124C27.2346 39.9586 27.2417 39.5892 27.2465 39.2041C27.2514 39.0168 27.1702 38.835 27.0252 38.7063C26.9485 38.6497 26.8639 38.6006 26.7706 38.5825C26.6775 38.5567 26.5759 38.5619 26.4666 38.559C25.6391 38.5375 24.757 38.5145 23.8202 38.4902C21.9545 38.4416 19.9014 38.3882 17.7546 38.3324C17.497 38.3257 17.2505 38.491 17.1586 38.7229C17.1009 38.8386 17.1054 38.9636 17.1019 39.0963C17.0985 39.2264 17.0951 39.359 17.0915 39.4943C17.078 40.0146 17.0645 40.5296 17.0512 41.0395C17.0379 41.5493 17.0249 42.0462 17.0123 42.53C17.0059 42.7746 16.9996 43.0165 16.9934 43.2558C16.9903 43.3729 16.9793 43.4975 16.984 43.6148C16.989 43.7242 17.0251 43.8345 17.0854 43.922C17.2054 44.1125 17.4213 44.2197 17.6403 44.2097C17.8693 44.2157 18.0931 44.2215 18.3116 44.2272C18.7539 44.2439 19.1831 44.2577 19.5995 44.2685C20.427 44.2901 21.1998 44.3102 21.9102 44.3286C23.3151 44.373 24.4547 44.4105 25.2509 44.4312C25.6412 44.4413 25.9455 44.4571 26.1563 44.4625C26.2603 44.4653 26.3384 44.4673 26.3904 44.4686C26.4267 44.4748 26.4553 44.4781 26.4761 44.4787C26.4553 44.4781 26.4266 44.48 26.39 44.4842C26.338 44.4829 26.2599 44.4809 26.1558 44.4782C25.9451 44.4727 25.6404 44.4726 25.2501 44.4624C24.4539 44.4417 23.3139 44.4198 21.9086 44.3911C21.1982 44.3726 20.4253 44.3525 19.5979 44.331C19.1815 44.3201 18.7521 44.3116 18.3096 44.3052C18.091 44.2996 17.8672 44.2937 17.6382 44.2878C17.4036 44.2973 17.1569 44.1737 17.0217 43.9672C16.9541 43.8639 16.9105 43.7378 16.9059 43.6128C16.9092 43.4879 16.9121 43.3786 16.9153 43.2538C16.9216 43.0144 16.9279 42.7725 16.9343 42.528C16.9469 42.0442 16.9598 41.5473 16.9732 41.0374C16.9865 40.5276 16.9999 40.0125 17.0135 39.4923C17.017 39.357 17.0205 39.2243 17.0239 39.0943C17.0271 38.9694 17.0232 38.8209 17.0813 38.6897C17.1897 38.427 17.468 38.239 17.7567 38.2543C19.9034 38.3102 21.9565 38.3636 23.8222 38.4121C24.7588 38.4443 25.6409 38.4673 26.4684 38.4888C26.5699 38.4914 26.6794 38.4865 26.7881 38.5127C26.8889 38.5388 26.989 38.596 27.0654 38.6605C27.2259 38.7974 27.3143 39.0028 27.309 39.2057C27.2989 39.5907 27.2893 39.9601 27.2801 40.3138C27.2356 41.7183 27.2059 42.8577 27.1773 43.6535C27.1748 43.7472 27.1802 43.841 27.1621 43.9343C27.1443 44.0197 27.111 44.0969 27.0701 44.1661C26.9886 44.2968 26.8771 44.3798 26.7824 44.4164C26.6875 44.4607 26.609 44.4743 26.5542 44.4807C26.5177 44.4798 26.4917 44.4791 26.4761 44.4787Z" fill="#64EDFF"/>
<path d="M18.555 42.8113C18.7145 42.8155 18.8472 42.6896 18.8514 42.5301C18.8555 42.3706 18.7296 42.238 18.5701 42.2338C18.4106 42.2297 18.2779 42.3556 18.2737 42.5151C18.2696 42.6745 18.3955 42.8072 18.555 42.8113Z" fill="#64EDFF"/>
<path fill-rule="evenodd" clip-rule="evenodd" d="M18.558 42.6967C18.6542 42.6992 18.7342 42.6232 18.7367 42.5271C18.7392 42.431 18.6633 42.351 18.5671 42.3485C18.4709 42.346 18.3909 42.4219 18.3884 42.518C18.3859 42.6142 18.4618 42.6941 18.558 42.6967ZM18.8514 42.5301C18.8472 42.6896 18.7145 42.8155 18.555 42.8113C18.3955 42.8072 18.2696 42.6745 18.2737 42.5151C18.2779 42.3556 18.4106 42.2297 18.5701 42.2338C18.7296 42.238 18.8555 42.3706 18.8514 42.5301Z" fill="#64EDFF"/>
<path d="M19.5355 42.836C19.695 42.8401 19.8277 42.7142 19.8318 42.5547C19.836 42.3953 19.7101 42.2626 19.5506 42.2585C19.391 42.2543 19.2583 42.3802 19.2542 42.5397C19.25 42.6992 19.376 42.8318 19.5355 42.836Z" fill="#64EDFF"/>
<path fill-rule="evenodd" clip-rule="evenodd" d="M19.5385 42.7213C19.6346 42.7238 19.7146 42.6479 19.7171 42.5518C19.7197 42.4556 19.6437 42.3757 19.5476 42.3732C19.4514 42.3707 19.3714 42.4466 19.3689 42.5427C19.3664 42.6388 19.4423 42.7188 19.5385 42.7213ZM19.8318 42.5547C19.8277 42.7142 19.695 42.8401 19.5355 42.836C19.376 42.8318 19.25 42.6992 19.2542 42.5397C19.2583 42.3802 19.391 42.2543 19.5506 42.2585C19.7101 42.2626 19.836 42.3953 19.8318 42.5547Z" fill="#64EDFF"/>
<path d="M20.4886 42.8599C20.6481 42.8641 20.7808 42.7381 20.785 42.5787C20.7891 42.4192 20.6632 42.2866 20.5037 42.2824C20.3442 42.2783 20.2115 42.4042 20.2073 42.5636C20.2031 42.7231 20.3291 42.8558 20.4886 42.8599Z" fill="#64EDFF"/>
<path fill-rule="evenodd" clip-rule="evenodd" d="M20.4916 42.7452C20.5878 42.7477 20.6678 42.6718 20.6703 42.5757C20.6728 42.4796 20.5969 42.3996 20.5007 42.3971C20.4045 42.3946 20.3245 42.4705 20.322 42.5666C20.3195 42.6628 20.3954 42.7427 20.4916 42.7452ZM20.785 42.5787C20.7808 42.7381 20.6481 42.8641 20.4886 42.8599C20.3291 42.8558 20.2031 42.7231 20.2073 42.5636C20.2115 42.4042 20.3442 42.2783 20.5037 42.2824C20.6632 42.2866 20.7891 42.4192 20.785 42.5787Z" fill="#64EDFF"/>
<path d="M21.431 42.8846C21.5905 42.8887 21.7232 42.7628 21.7274 42.6033C21.7315 42.4439 21.6056 42.3112 21.4461 42.3071C21.2865 42.3029 21.1539 42.4288 21.1497 42.5883C21.1455 42.7478 21.2715 42.8804 21.431 42.8846Z" fill="#64EDFF"/>
<path fill-rule="evenodd" clip-rule="evenodd" d="M21.434 42.7699C21.5301 42.7724 21.6101 42.6965 21.6127 42.6003C21.6152 42.5042 21.5392 42.4242 21.4431 42.4217C21.3469 42.4192 21.2669 42.4951 21.2644 42.5913C21.2619 42.6874 21.3378 42.7674 21.434 42.7699ZM21.7274 42.6033C21.7232 42.7628 21.5905 42.8887 21.431 42.8846C21.2715 42.8804 21.1455 42.7478 21.1497 42.5883C21.1539 42.4288 21.2865 42.3029 21.4461 42.3071C21.6056 42.3112 21.7315 42.4439 21.7274 42.6033Z" fill="#64EDFF"/>
<path d="M21.3567 40.7677L18.7416 40.6997C18.5542 40.6948 18.402 40.5424 18.4071 40.3473C18.4119 40.16 18.5721 40.008 18.7595 40.0128L21.3747 40.0809C21.562 40.0858 21.7141 40.2459 21.7092 40.4332C21.7041 40.6284 21.5441 40.7726 21.3567 40.7677Z" fill="#64EDFF"/>
<path fill-rule="evenodd" clip-rule="evenodd" d="M18.7446 40.585L21.3597 40.653C21.4855 40.6563 21.5911 40.5603 21.5945 40.4303C21.5977 40.3063 21.4957 40.1988 21.3717 40.1956L18.7565 40.1275C18.6325 40.1243 18.525 40.2263 18.5218 40.3503C18.5184 40.4804 18.6189 40.5817 18.7446 40.585ZM18.7416 40.6997L21.3567 40.7677C21.5441 40.7726 21.7041 40.6284 21.7092 40.4332C21.7141 40.2459 21.562 40.0858 21.3747 40.0809L18.7595 40.0128C18.5721 40.008 18.4119 40.16 18.4071 40.3473C18.402 40.5424 18.5542 40.6948 18.7416 40.6997Z" fill="#64EDFF"/>
<path d="M18.6341 41.7224C18.7936 41.7266 18.9263 41.6007 18.9305 41.4412C18.9346 41.2818 18.8087 41.1491 18.6492 41.145C18.4897 41.1408 18.357 41.2667 18.3528 41.4262C18.3487 41.5857 18.4746 41.7183 18.6341 41.7224Z" fill="#64EDFF"/>
<path fill-rule="evenodd" clip-rule="evenodd" d="M18.6371 41.6078C18.7333 41.6103 18.8133 41.5344 18.8158 41.4382C18.8183 41.3421 18.7424 41.2621 18.6462 41.2596C18.55 41.2571 18.47 41.333 18.4675 41.4292C18.465 41.5253 18.5409 41.6053 18.6371 41.6078ZM18.9305 41.4412C18.9263 41.6007 18.7936 41.7266 18.6341 41.7224C18.4746 41.7183 18.3487 41.5857 18.3528 41.4262C18.357 41.2667 18.4897 41.1408 18.6492 41.145C18.8087 41.1491 18.9346 41.2818 18.9305 41.4412Z" fill="#64EDFF"/>
<path d="M19.6116 41.7474C19.7712 41.7515 19.9039 41.6256 19.908 41.4661C19.9122 41.3067 19.7862 41.174 19.6267 41.1699C19.4672 41.1657 19.3345 41.2916 19.3304 41.4511C19.3262 41.6106 19.4521 41.7432 19.6116 41.7474Z" fill="#64EDFF"/>
<path fill-rule="evenodd" clip-rule="evenodd" d="M19.6146 41.6327C19.7108 41.6352 19.7908 41.5593 19.7933 41.4631C19.7958 41.367 19.7199 41.287 19.6237 41.2845C19.5276 41.282 19.4476 41.3579 19.4451 41.4541C19.4425 41.5502 19.5185 41.6302 19.6146 41.6327ZM19.908 41.4661C19.9039 41.6256 19.7712 41.7515 19.6116 41.7474C19.4521 41.7432 19.3262 41.6106 19.3304 41.4511C19.3345 41.2916 19.4672 41.1657 19.6267 41.1699C19.7862 41.174 19.9122 41.3067 19.908 41.4661Z" fill="#64EDFF"/>
<path d="M20.5628 41.771C20.7223 41.7752 20.855 41.6493 20.8592 41.4898C20.8634 41.3303 20.7374 41.1977 20.5779 41.1935C20.4184 41.1894 20.2857 41.3153 20.2815 41.4748C20.2774 41.6342 20.4033 41.7669 20.5628 41.771Z" fill="#64EDFF"/>
<path fill-rule="evenodd" clip-rule="evenodd" d="M20.5658 41.6564C20.662 41.6589 20.742 41.583 20.7445 41.4868C20.747 41.3907 20.6711 41.3107 20.5749 41.3082C20.4787 41.3057 20.3987 41.3816 20.3962 41.4778C20.3937 41.5739 20.4696 41.6539 20.5658 41.6564ZM20.8592 41.4898C20.855 41.6493 20.7223 41.7752 20.5628 41.771C20.4033 41.7669 20.2774 41.6342 20.2815 41.4748C20.2857 41.3153 20.4184 41.1894 20.5779 41.1935C20.7374 41.1977 20.8634 41.3303 20.8592 41.4898Z" fill="#64EDFF"/>
<path d="M21.5159 41.7959C21.6755 41.8001 21.8082 41.6742 21.8123 41.5147C21.8165 41.3552 21.6905 41.2226 21.531 41.2185C21.3715 41.2143 21.2388 41.3402 21.2347 41.4997C21.2305 41.6591 21.3564 41.7918 21.5159 41.7959Z" fill="#64EDFF"/>
<path fill-rule="evenodd" clip-rule="evenodd" d="M21.5189 41.6813C21.6151 41.6838 21.6951 41.6079 21.6976 41.5117C21.7001 41.4156 21.6242 41.3356 21.528 41.3331C21.4319 41.3306 21.3519 41.4065 21.3494 41.5027C21.3468 41.5988 21.4228 41.6788 21.5189 41.6813ZM21.8123 41.5147C21.8082 41.6742 21.6755 41.8001 21.5159 41.7959C21.3564 41.7918 21.2305 41.6591 21.2347 41.4997C21.2388 41.3402 21.3715 41.2143 21.531 41.2185C21.6905 41.2226 21.8165 41.3552 21.8123 41.5147Z" fill="#64EDFF"/>
<path d="M25.5552 39.9639L23.9627 39.9225C23.8204 39.9188 23.7021 40.0311 23.6984 40.1733L23.6568 41.7653C23.6531 41.9075 23.7654 42.0258 23.9077 42.0295L25.5002 42.0709C25.6424 42.0746 25.7608 41.9623 25.7645 41.8201L25.8061 40.2281C25.8098 40.0859 25.6974 39.9676 25.5552 39.9639Z" fill="#64EDFF"/>
<path fill-rule="evenodd" clip-rule="evenodd" d="M25.5522 40.0786L23.9597 40.0371C23.8808 40.0351 23.8151 40.0974 23.8131 40.1763L23.7715 41.7683C23.7694 41.8472 23.8318 41.9128 23.9107 41.9148L25.5032 41.9563C25.5821 41.9583 25.6477 41.896 25.6498 41.8171L25.6914 40.2251C25.6934 40.1462 25.6311 40.0806 25.5522 40.0786ZM23.9627 39.9225L25.5552 39.9639C25.6974 39.9676 25.8098 40.0859 25.8061 40.2281L25.7645 41.8201C25.7608 41.9623 25.6424 42.0746 25.5002 42.0709L23.9077 42.0295C23.7654 42.0258 23.6531 41.9075 23.6568 41.7653L23.6984 40.1733C23.7021 40.0311 23.8204 39.9188 23.9627 39.9225Z" fill="#64EDFF"/>
<path d="M25.6149 43.075L23.7491 43.0264C23.5852 43.0221 23.456 42.886 23.46 42.7299C23.4643 42.566 23.6005 42.4368 23.7644 42.4411L25.6302 42.4896C25.7941 42.4939 25.9234 42.63 25.9191 42.7939C25.915 42.95 25.7788 43.0792 25.6149 43.075Z" fill="#64EDFF"/>
<path fill-rule="evenodd" clip-rule="evenodd" d="M23.7521 42.9117L25.6179 42.9603C25.7205 42.963 25.802 42.8817 25.8044 42.7909C25.807 42.6904 25.7278 42.6069 25.6272 42.6043L23.7614 42.5557C23.6608 42.5531 23.5774 42.6323 23.5747 42.7329C23.5724 42.8237 23.6496 42.9091 23.7521 42.9117ZM23.7491 43.0264L25.6149 43.075C25.7788 43.0792 25.915 42.95 25.9191 42.7939C25.9234 42.63 25.7941 42.4939 25.6302 42.4896L23.7644 42.4411C23.6005 42.4368 23.4643 42.566 23.46 42.7299C23.456 42.886 23.5852 43.0221 23.7491 43.0264Z" fill="#64EDFF"/>
<mask id="mask0_27319_77829" style="mask-type:alpha" maskUnits="userSpaceOnUse" x="13" y="50" width="18" height="6">
<path d="M19.5131 54.9079L13.3297 51.9689L14.135 50.0086L22.0279 50.0411L30.0653 50.4179L30.6967 53.4834L24.8751 55.1043C24.7788 54.8738 24.4615 54.2701 23.9628 53.6989C23.3395 52.9849 21.8119 53.2169 21.1203 53.5058C20.567 53.7369 19.8183 54.5368 19.5131 54.9079Z" fill="#D9D9D9"/>
</mask>
<g mask="url(#mask0_27319_77829)">
<path d="M20.6699 54.691C20.599 54.6924 20.5298 54.663 20.4814 54.6049C20.4548 54.5723 17.6712 51.2233 15.1709 51.0283C14.4653 50.9734 13.8429 51.184 13.32 51.6502C13.2224 51.7372 13.0733 51.7282 12.9863 51.6307C12.8993 51.5331 12.9082 51.3841 13.0058 51.2971C13.6287 50.7415 14.3709 50.4932 15.2091 50.5573C17.9106 50.7673 20.7282 54.1605 20.8468 54.3048C20.9292 54.4071 20.9155 54.5563 20.8154 54.6386C20.7712 54.6725 20.7195 54.6901 20.6699 54.691Z" fill="#64EDFF"/>
<path d="M24.1332 54.1264C24.1932 54.1357 24.2554 54.1188 24.3032 54.075C24.3296 54.0505 27.0823 51.5286 29.2282 51.6527C29.8338 51.6879 30.3379 51.9389 30.7278 52.3955C30.8006 52.4806 30.9283 52.4903 31.0135 52.4175C31.0987 52.3448 31.1084 52.2171 31.0356 52.132C30.5712 51.5879 29.9697 51.291 29.2505 51.2483C26.932 51.1135 24.1453 53.6691 24.0278 53.7778C23.946 53.8552 23.9403 53.9835 24.0157 54.065C24.0493 54.0989 24.0912 54.1198 24.1332 54.1264Z" fill="#64EDFF"/>
</g>
<path d="M33.0278 25.7075C33.283 26.7861 32.9156 27.9178 32.0759 28.6402C32.2922 26.8722 31.8865 25.1631 30.8588 23.513C31.9348 23.7819 32.771 24.6281 33.0278 25.7075Z" fill="white"/>
<path fill-rule="evenodd" clip-rule="evenodd" d="M32.1464 28.8736C32.087 28.8901 32.0241 28.8844 31.9683 28.855C31.8801 28.8073 31.8304 28.7122 31.8425 28.6135C32.0518 26.9087 31.6545 25.2363 30.6606 23.6426C30.6087 23.559 30.6133 23.4529 30.6701 23.3731C30.7285 23.2942 30.8288 23.2581 30.9236 23.2808C32.0919 23.573 32.9894 24.4826 33.2678 25.6541C33.5461 26.8256 33.1513 28.0399 32.2391 28.8247C32.2117 28.8486 32.1793 28.8644 32.1464 28.8736ZM31.4088 23.9767C32.0934 25.2669 32.4163 26.6031 32.3746 27.9657C32.8206 27.3365 32.983 26.5396 32.7988 25.7654C32.6135 24.982 32.1016 24.3371 31.4088 23.9767Z" fill="#64EDFF"/>
<path d="M18.7849 17.529C23.9489 16.0936 29.3002 19.1146 30.7372 24.2777C32.1739 29.4396 29.1523 34.7892 23.9883 36.2245C18.8255 37.6595 13.4739 34.6373 12.0372 29.4754C10.6002 24.3123 13.6222 18.964 18.7849 17.529Z" fill="white"/>
<path d="M18.9166 17.6419C24.1502 16.1872 29.3792 18.8321 31.0495 23.8351L31.2001 24.0384C31.5691 24.591 31.4655 24.331 31.8968 25.881C32.3282 27.431 31.9723 30.7089 30.1072 32.6615L29.9004 32.9219C23.7272 39.2184 14.2025 37.9717 11.9622 29.9223C10.4858 24.6175 13.6831 19.0965 18.9166 17.6419Z" fill="white"/>
<path fill-rule="evenodd" clip-rule="evenodd" d="M24.0446 36.7377C22.1567 37.2624 20.2366 37.299 18.4684 36.8439C15.1634 35.9919 12.7077 33.4927 11.732 29.9869C11.0029 27.3674 11.3523 24.6089 12.7153 22.2183C14.0711 19.8406 16.2509 18.1329 18.8531 17.4096C24.2169 15.9187 29.5467 18.6323 31.2675 23.7234L31.3947 23.8965C31.3973 23.8994 31.3995 23.9024 31.4013 23.9055C31.4407 23.964 31.4732 24.0122 31.503 24.0557C31.7399 24.4025 31.7494 24.4367 31.99 25.311C32.0297 25.4538 32.0762 25.6207 32.1307 25.8167C32.5888 27.4627 32.2032 30.8102 30.29 32.8198L30.0916 33.0711C30.0862 33.078 30.0803 33.0846 30.0739 33.091C28.4315 34.7665 26.4638 35.9931 24.3871 36.6371C24.2732 36.6715 24.159 36.705 24.0446 36.7377ZM18.9823 17.8735C13.8018 19.3135 10.7576 24.6898 12.1961 29.858C13.1246 33.1943 15.4547 35.5704 18.5879 36.3775C22.3212 37.3393 26.5867 35.9549 29.721 32.7627L29.9198 32.5127C29.9237 32.5071 29.9285 32.5017 29.9343 32.4964C31.7064 30.6405 32.084 27.445 31.6667 25.9457C31.6121 25.7497 31.5653 25.5816 31.5256 25.4387C31.2969 24.6074 31.2969 24.6074 31.1058 24.3268C31.0759 24.2833 31.0422 24.2355 31.0044 24.1779L30.8574 23.9777C30.8422 23.9574 30.8305 23.9348 30.8225 23.9111C29.1985 19.0451 24.1071 16.4491 18.9823 17.8735Z" fill="#64EDFF"/>
<path d="M20.8702 21.0806C25.837 19.7 30.7835 21.8829 31.9172 25.9563C33.0506 30.0285 29.9423 34.4501 24.9754 35.8307C20.0073 37.2116 15.0622 35.0284 13.9288 30.9562C12.7951 26.8828 15.9021 22.4615 20.8702 21.0806Z" fill="#00A4FF"/>
<path fill-rule="evenodd" clip-rule="evenodd" d="M25.0331 36.0241C19.9663 37.4324 14.9003 35.182 13.7391 31.01C12.5776 26.8367 15.7537 22.2967 20.8205 20.8884C25.886 19.4804 30.9529 21.7292 32.1144 25.9025C33.2756 30.0745 30.0985 34.6161 25.0331 36.0241ZM20.9278 21.274C16.0747 22.6229 13.0236 26.9415 14.126 30.9024C15.2281 34.8621 20.0723 36.9861 24.9254 35.6372C29.7784 34.2883 32.8296 29.9697 31.7275 26.01C30.6251 22.0491 25.7808 19.9251 20.9278 21.274Z" fill="#64EDFF"/>
<path d="M24.7381 34.9568C29.0951 33.7458 31.8475 29.9628 30.8858 26.5072C29.924 23.0517 25.6123 21.2321 21.2553 22.4432C16.8983 23.6542 14.1459 27.4373 15.1076 30.8928C16.0694 34.3484 20.3811 36.1679 24.7381 34.9568Z" fill="#6C6C6C"/>
<path fill-rule="evenodd" clip-rule="evenodd" d="M24.8011 35.1879C20.3223 36.4328 15.8693 34.5351 14.8735 30.9572C13.8777 27.3794 16.7103 23.4552 21.1891 22.2103C25.6679 20.9654 30.1212 22.8644 31.117 26.4423C32.1128 30.0201 29.2798 33.943 24.8011 35.1879ZM21.3183 22.6743C17.0962 23.8478 14.4129 27.5058 15.3376 30.8282C16.262 34.1494 20.4498 35.8975 24.6719 34.724C28.894 33.5504 31.5773 29.8925 30.6529 26.5713C29.7282 23.2488 25.5403 21.5007 21.3183 22.6743Z" fill="#6C6C6C"/>
<path d="M30.788 25.9276C30.8286 26.1711 30.8555 26.4197 30.8685 26.6721C30.9106 27.479 30.8058 28.2627 30.5788 28.9987C30.7224 29.1522 30.8476 29.3135 30.9536 29.4788C30.2499 31.9137 27.9552 34.0947 24.8408 34.9603C24.2857 35.1146 23.7315 35.2183 23.1854 35.2775C19.2525 35.2878 16.0852 33.6579 15.9735 31.4797C15.941 30.8635 16.1573 30.2654 16.5727 29.7168C16.2702 29.0068 16.0865 28.2392 16.0454 27.4307C16.0215 26.9729 16.045 26.5237 16.1111 26.0858C17.2064 24.4411 19.0592 23.0857 21.358 22.4467C25.4638 21.3055 29.5282 22.855 30.788 25.9276Z" fill="#B0401E"/>
<path fill-rule="evenodd" clip-rule="evenodd" d="M24.8916 35.1549C24.3365 35.3092 23.7691 35.4193 23.2042 35.4796C23.1972 35.4806 23.19 35.4808 23.1825 35.4801C19.0743 35.4915 15.8875 33.7771 15.7692 31.4918C15.7379 30.8753 15.9301 30.2689 16.3416 29.6914C16.0506 28.9741 15.8826 28.2186 15.8427 27.4438C15.8187 26.9805 15.8417 26.5151 15.9096 26.059C15.9148 26.029 15.9249 26.0016 15.9415 25.978C17.0998 24.2367 19.0532 22.8806 21.3015 22.2557C23.3196 21.6948 25.4162 21.7536 27.2082 22.4214C29.0005 23.0905 30.3384 24.3095 30.9712 25.8539C30.9771 25.8686 30.9812 25.8833 30.9835 25.8981C31.0252 26.1508 31.0534 26.4086 31.0659 26.6639C31.1058 27.4387 31.0172 28.207 30.8006 28.951C30.9217 29.0876 31.028 29.2296 31.12 29.3743C31.1512 29.4228 31.1595 29.4818 31.1438 29.538C30.782 30.7881 30.0184 31.9701 28.9338 32.9581C27.8243 33.9693 26.4267 34.7282 24.8916 35.1549ZM23.1719 35.0799C23.7114 35.0212 24.2545 34.9166 24.7843 34.7693C27.7191 33.9536 29.9893 31.9442 30.7327 29.5147C30.6449 29.3852 30.5431 29.2595 30.4288 29.1374C30.3803 29.0855 30.3633 29.0098 30.3851 28.9411C30.6106 28.2097 30.7045 27.4508 30.6655 26.6839C30.6539 26.4515 30.6279 26.2163 30.5922 25.9851C29.3391 22.9705 25.3973 21.5341 21.4092 22.6426C19.2684 23.2376 17.4098 24.5183 16.3008 26.1628C16.2408 26.5785 16.2211 27.0021 16.2431 27.4237C16.283 28.189 16.454 28.9355 16.7551 29.6405C16.783 29.7063 16.7729 29.7826 16.7302 29.8395C16.3299 30.3689 16.1418 30.9169 16.1708 31.4714C16.2758 33.503 19.3499 35.0867 23.1719 35.0799Z" fill="#6C6C6C"/>
<path d="M20.8199 23.2976C21.7628 23.2494 22.6357 23.591 23.2834 24.1806C23.8678 23.4951 24.7223 23.041 25.6935 22.9917C28.2509 22.8611 30.4511 26.1505 28.4924 28.5351C29.2206 28.2932 30.0224 28.4721 30.5796 29.001C30.7232 29.1545 30.8484 29.3158 30.9544 29.4812C30.2507 31.916 27.956 34.097 24.8416 34.9627C24.2865 35.1169 23.7323 35.2206 23.1862 35.2798C19.2534 35.2901 16.086 33.6602 15.9743 31.482C15.9418 30.8658 16.1581 30.2677 16.5735 29.7191C17.1303 29.2429 17.8217 29.0498 18.6478 29.1398C18.044 28.5612 17.6513 27.7619 17.6048 26.8609C17.5076 24.9892 18.9474 23.3931 20.8199 23.2976Z" fill="#FFCAA1"/>
<path fill-rule="evenodd" clip-rule="evenodd" d="M24.8838 35.1171C24.3312 35.2707 23.7647 35.3791 23.2027 35.44C23.1974 35.4405 23.1915 35.4408 23.1852 35.4407C19.0986 35.4516 15.9297 33.7526 15.8123 31.4902C15.7797 30.8495 15.9914 30.22 16.4446 29.6214C16.4512 29.6123 16.4589 29.6042 16.4679 29.5972C16.963 29.1736 17.5643 28.9601 18.2585 28.9579C17.7694 28.3705 17.4836 27.6423 17.4431 26.8703C17.3423 24.9125 18.853 23.2381 20.8113 23.1378C21.7126 23.0916 22.579 23.3806 23.2678 23.9561C23.9 23.2763 24.7516 22.8803 25.6837 22.8323C27.0145 22.7634 28.3527 23.5969 29.012 24.9037C29.5807 26.0315 29.5226 27.2667 28.8703 28.2856C29.5285 28.2035 30.1969 28.4168 30.6894 28.8846C30.6918 28.8867 30.6943 28.8892 30.697 28.8921C30.8468 29.0534 30.9795 29.2221 31.0892 29.396C31.1135 29.4342 31.1214 29.4823 31.108 29.527C30.7482 30.7697 29.9886 31.9465 28.9093 32.9289C27.8051 33.9346 26.4125 34.6921 24.8838 35.1171ZM23.176 35.1191C23.7184 35.061 24.264 34.9556 24.7976 34.8073C27.7526 33.986 30.0383 31.9586 30.7785 29.5082C30.688 29.374 30.5829 29.2411 30.4646 29.1146C29.9506 28.6283 29.2132 28.4654 28.5424 28.6887C28.4748 28.7102 28.4 28.686 28.3589 28.6266C28.3182 28.5685 28.3222 28.4897 28.3666 28.4338C29.1684 27.4577 29.3024 26.1919 28.7254 25.0488C28.1216 23.8532 26.9066 23.0904 25.7004 23.1519C24.8033 23.1983 23.9876 23.6007 23.4041 24.2845C23.3767 24.318 23.3358 24.3376 23.2916 24.3403C23.249 24.344 23.2053 24.3289 23.174 24.2995C22.5299 23.713 21.6972 23.4133 20.8281 23.4574C19.0472 23.5492 17.6717 25.0729 17.764 26.8534C17.8063 27.6806 18.1597 28.4514 18.7576 29.0234C18.8001 29.0634 18.8166 29.1228 18.8034 29.1782C18.7838 29.2545 18.7071 29.3071 18.6299 29.2987C17.849 29.2147 17.2148 29.3882 16.6906 29.8295C16.2922 30.3611 16.1044 30.9146 16.1331 31.4732C16.239 33.5277 19.3327 35.1277 23.176 35.1191Z" fill="#6C6C6C"/>
<path d="M30.9886 26.5115C31.2599 27.4861 31.236 28.487 30.9632 29.4495C30.8613 29.2939 30.7417 29.1433 30.607 28.9969C30.8343 28.2622 30.9378 27.479 30.8954 26.6709C30.8853 26.4585 30.8635 26.248 30.8341 26.0396C30.892 26.1937 30.9439 26.3509 30.9886 26.5115Z" fill="#FFCAA1"/>
<path fill-rule="evenodd" clip-rule="evenodd" d="M31.0156 29.6455C31.008 29.6476 31.0003 29.6493 30.9925 29.6506C30.9142 29.6628 30.8365 29.6286 30.7937 29.5628C30.6988 29.4176 30.5868 29.2744 30.4587 29.1371C30.4098 29.0839 30.3919 29.0099 30.4137 28.9412C30.6392 28.2098 30.7344 27.4506 30.6941 26.6841C30.6839 26.4813 30.6635 26.2759 30.6339 26.0716C30.6191 25.9695 30.6822 25.873 30.7815 25.8481C30.8808 25.8232 30.9825 25.8753 31.02 25.9711C31.0817 26.1338 31.1353 26.2973 31.1807 26.4603C31.4559 27.4489 31.447 28.4742 31.1543 29.5076C31.1351 29.5756 31.0826 29.6269 31.0156 29.6455ZM30.83 28.9494C30.8423 28.9642 30.855 28.9788 30.8681 28.9933C30.9037 28.8209 30.9308 28.649 30.9494 28.4777C30.9154 28.636 30.8756 28.7933 30.83 28.9494Z" fill="#6C6C6C"/>
<path d="M31.0268 29.2152C30.9074 29.1926 30.7965 29.1512 30.6947 29.0937C30.6664 29.0607 30.6389 29.0303 30.6094 28.9976C30.7956 28.3942 30.8988 27.7567 30.9069 27.1007C30.9723 27.0812 31.0416 27.066 31.1118 27.0588C31.2318 27.7786 31.1959 28.5063 31.0268 29.2152Z" fill="#FF9999"/>
<path fill-rule="evenodd" clip-rule="evenodd" d="M31.0749 29.4089C31.0458 29.417 31.015 29.4187 30.9833 29.4126C30.845 29.3856 30.712 29.3382 30.5888 29.2675C30.5694 29.2566 30.5531 29.242 30.5377 29.2259C30.5114 29.1951 30.4838 29.1646 30.4563 29.1341C30.4078 29.0822 30.3912 29.0078 30.4116 28.9395C30.5955 28.3422 30.6928 27.7227 30.7002 27.0983C30.7017 27.0107 30.7595 26.9347 30.8423 26.909C30.9228 26.8852 31.0039 26.8681 31.0845 26.8593C31.1903 26.8476 31.2868 26.9202 31.3039 27.0258C31.4261 27.7586 31.3957 28.5107 31.2153 29.2623C31.1975 29.3353 31.1419 29.3903 31.0749 29.4089ZM30.8304 28.9416C30.8442 28.9487 30.8579 28.9553 30.8714 28.9615C30.9027 28.803 30.9272 28.645 30.9451 28.4875C30.9114 28.6403 30.8732 28.7917 30.8304 28.9416Z" fill="#6C6C6C"/>
<path d="M23.7201 30.1494C23.648 30.1695 23.5672 30.1483 23.5153 30.0892C23.3495 29.8996 23.083 29.8429 22.8546 29.9473C22.7542 29.9929 22.6356 29.9482 22.5886 29.8482C22.543 29.7479 22.5873 29.6279 22.6877 29.5823C23.0794 29.404 23.5329 29.5013 23.8163 29.8244C23.8898 29.9075 23.8813 30.0338 23.7983 30.1073C23.7752 30.1273 23.7479 30.1417 23.7201 30.1494Z" fill="#6C6C6C"/>
<path d="M23.7197 30.1473C23.6628 30.1631 23.6005 30.1545 23.5492 30.117C23.4593 30.0535 23.4382 29.9286 23.5014 29.8375C23.7473 29.4926 24.1985 29.3467 24.5986 29.4821C24.704 29.5182 24.7602 29.632 24.7254 29.737C24.689 29.8411 24.5755 29.8985 24.4701 29.8624C24.2355 29.7832 23.9719 29.8688 23.8292 30.0706C23.8018 30.1095 23.7627 30.1353 23.7197 30.1473Z" fill="#6C6C6C"/>
<path d="M26.851 31.1636C27.2998 30.9109 27.7222 31.0838 27.4721 31.7726C26.3994 34.7297 20.9078 35.0442 19.5048 32.2277C19.1784 31.5722 19.5777 31.3522 20.0529 31.553C22.1303 32.4299 24.8866 32.272 26.851 31.1636Z" fill="white"/>
<path fill-rule="evenodd" clip-rule="evenodd" d="M24.8775 34.0641C24.4821 34.1766 24.0599 34.2472 23.6184 34.273C21.7195 34.3811 20.066 33.5973 19.4072 32.2749C19.1829 31.8245 19.2979 31.5987 19.3873 31.5032C19.5335 31.3478 19.8049 31.3275 20.0954 31.4502C22.1567 32.3195 24.8498 32.1656 26.7981 31.0665C27.0721 30.9111 27.3444 30.9008 27.507 31.0393C27.6064 31.123 27.747 31.335 27.5764 31.8081C27.189 32.8738 26.1837 33.6926 24.8775 34.0641ZM19.6384 31.6017C19.6012 31.6122 19.5698 31.6296 19.5468 31.6538C19.4624 31.7441 19.4831 31.9351 19.6033 32.1771C20.2231 33.421 21.794 34.1574 23.6064 34.0534C25.4181 33.9505 26.8955 33.0394 27.3692 31.7326C27.4613 31.4788 27.4599 31.2869 27.3652 31.2066C27.2754 31.1304 27.0955 31.1508 26.9055 31.2571C24.9018 32.3878 22.1307 32.5462 20.01 31.6518C19.8669 31.5917 19.7325 31.5749 19.6384 31.6017Z" fill="#6C6C6C"/>
<path d="M19.6155 32.1105C19.8836 32.318 20.1979 32.4749 20.5247 32.6003C20.8532 32.7252 21.1953 32.8192 21.5419 32.896C21.5777 32.9036 21.5999 32.9392 21.5921 32.9741C21.5841 33.0081 21.5521 33.0303 21.518 33.0251C21.1619 32.9705 20.8074 32.8987 20.459 32.7926C20.1112 32.6853 19.7675 32.5432 19.4548 32.3326C19.3913 32.29 19.3747 32.2052 19.4164 32.142C19.4593 32.0794 19.5441 32.0627 19.6073 32.1045C19.6097 32.1063 19.6121 32.1081 19.6144 32.1099L19.6155 32.1105Z" fill="#6C6C6C"/>
<path d="M27.5322 31.8741C27.2387 32.1181 26.9077 32.2962 26.5697 32.44C26.2309 32.5839 25.8814 32.6936 25.5298 32.7862C25.4976 32.7944 25.4652 32.7756 25.457 32.7434C25.4492 32.713 25.4657 32.6822 25.4954 32.6718C25.8355 32.5555 26.1702 32.423 26.4862 32.2612C26.8014 32.0997 27.1012 31.9071 27.3482 31.6699L27.349 31.6696C27.404 31.6167 27.4903 31.6182 27.5432 31.6732C27.5959 31.7272 27.5937 31.8146 27.5397 31.8673C27.5364 31.8692 27.5343 31.8716 27.5322 31.8741Z" fill="#6C6C6C"/>
<g opacity="0.3">
<g opacity="0.3">
<path opacity="0.3" d="M27.4649 31.4384C27.3855 31.9792 26.7738 32.3974 25.6299 32.6929C26.2241 32.2691 26.9038 31.8014 27.1387 31.1869C27.5776 31.021 27.5086 31.0704 27.4649 31.4384Z" fill="#6C6C6C"/>
</g>
</g>
<path d="M23.7419 31.4484C23.7275 31.4524 23.7132 31.4546 23.6987 31.4549C23.5875 31.4613 23.4929 31.376 23.4868 31.266C23.4542 30.6499 23.4448 30.4005 23.4342 29.9268C23.4319 29.8158 23.5192 29.7234 23.6303 29.7211C23.7413 29.7188 23.8328 29.8078 23.8348 29.9176C23.8453 30.3859 23.8556 30.6336 23.888 31.2443C23.8928 31.3397 23.8304 31.4238 23.7419 31.4484Z" fill="#6C6C6C"/>
<g opacity="0.3">
<g opacity="0.3">
<path opacity="0.3" d="M18.1886 30.5804C18.6271 31.4364 19.6908 32.0084 20.622 32.53C18.9119 32.2816 17.9559 31.7705 17.7541 30.9967C17.6319 30.4695 17.5252 30.4093 18.1886 30.5804Z" fill="#6C6C6C"/>
</g>
</g>
<path fill-rule="evenodd" clip-rule="evenodd" d="M24.8916 35.1549C24.3365 35.3092 23.7691 35.4193 23.2042 35.4796C23.1972 35.4806 23.19 35.4808 23.1825 35.4801C19.0743 35.4915 15.8875 33.7771 15.7692 31.4918C15.7379 30.8753 15.9301 30.2689 16.3416 29.6914C16.0506 28.9741 15.8826 28.2186 15.8427 27.4438C15.8187 26.9805 15.8417 26.5151 15.9096 26.059C15.9148 26.029 15.9249 26.0016 15.9415 25.978C17.0998 24.2367 19.0532 22.8806 21.3015 22.2557C23.3196 21.6948 25.4162 21.7536 27.2082 22.4214C29.0005 23.0905 30.3384 24.3095 30.9712 25.8539C30.9771 25.8686 30.9812 25.8833 30.9835 25.8981C31.0252 26.1508 31.0534 26.4086 31.0659 26.6639C31.1058 27.4387 31.0172 28.207 30.8006 28.951C30.9217 29.0876 31.028 29.2296 31.12 29.3743C31.1512 29.4228 31.1595 29.4818 31.1438 29.538C30.782 30.7881 30.0184 31.9701 28.9338 32.9581C27.8243 33.9693 26.4267 34.7282 24.8916 35.1549ZM23.1719 35.0799C23.7114 35.0212 24.2545 34.9166 24.7843 34.7693C27.7191 33.9536 29.9893 31.9442 30.7327 29.5147C30.6449 29.3852 30.5431 29.2595 30.4288 29.1374C30.3803 29.0855 30.3633 29.0098 30.3851 28.9411C30.6106 28.2097 30.7045 27.4508 30.6655 26.6839C30.6539 26.4515 30.6279 26.2163 30.5922 25.9851C29.3391 22.9705 25.3973 21.5341 21.4092 22.6426C19.2684 23.2376 17.4098 24.5183 16.3008 26.1628C16.2408 26.5785 16.2211 27.0021 16.2431 27.4237C16.283 28.189 16.454 28.9355 16.7551 29.6405C16.783 29.7063 16.7729 29.7826 16.7302 29.8395C16.3299 30.3689 16.1418 30.9169 16.1708 31.4714C16.2758 33.503 19.3499 35.0867 23.1719 35.0799Z" fill="#6C6C6C"/>
<path d="M11.6869 26.6132C12.7383 26.4749 13.7223 27.3577 13.8844 28.5862C14.0465 29.8146 13.3262 30.9219 12.2749 31.0602C11.2239 31.1998 10.2395 30.3157 10.0774 29.0873C9.91533 27.8588 10.6369 26.7512 11.6869 26.6132Z" fill="white"/>
<path fill-rule="evenodd" clip-rule="evenodd" d="M12.5715 31.2493C12.4856 31.2732 12.3974 31.2909 12.307 31.3024C11.7289 31.3786 11.1516 31.189 10.6833 30.769C10.2256 30.3582 9.92643 29.7726 9.84077 29.1222C9.66029 27.764 10.477 26.5332 11.6568 26.3769C12.8382 26.2215 13.9455 27.1995 14.1247 28.558C14.2104 29.2084 14.0732 29.8512 13.7385 30.3665C13.4484 30.8122 13.0406 31.1189 12.5715 31.2493ZM11.5256 26.8942C10.7151 27.1194 10.1835 28.0435 10.3177 29.0591C10.3883 29.5965 10.6322 30.0763 11.0047 30.4113C11.3673 30.7355 11.8075 30.8828 12.2451 30.8252C12.6814 30.7679 13.0692 30.5117 13.3345 30.1042C13.6071 29.6839 13.718 29.1573 13.6474 28.6198C13.5023 27.5256 12.6375 26.7336 11.72 26.8537C11.6536 26.8631 11.5888 26.8766 11.5256 26.8942Z" fill="#64EDFF"/>
<path d="M11.4603 30.9731C10.7563 30.7098 10.1963 29.9951 10.0767 29.0954C9.94311 28.0769 10.4158 27.142 11.1795 26.7731C11.2199 26.7618 11.2627 26.754 11.3062 26.7487C12.1433 26.6386 12.9456 27.4998 13.1017 28.6727C13.2563 29.8446 12.7039 30.8848 11.8668 30.9949C11.7291 31.0141 11.5933 31.0056 11.4603 30.9731Z" fill="white"/>
<path fill-rule="evenodd" clip-rule="evenodd" d="M12.0758 31.1551C12.016 31.1717 11.9554 31.1841 11.894 31.192C11.7351 31.2131 11.5734 31.2049 11.4141 31.1661C11.4064 31.1646 11.3985 31.1622 11.3904 31.159C10.5966 30.8621 10.0033 30.0614 9.87868 29.1194C9.73718 28.0433 10.2351 27.0033 11.0925 26.5892C11.1047 26.584 11.1175 26.5796 11.131 26.5758C11.1819 26.563 11.2323 26.5531 11.2808 26.5464C12.2246 26.423 13.1305 27.363 13.3004 28.6437C13.3811 29.2519 13.2857 29.8491 13.0337 30.3236C12.8041 30.7566 12.4678 31.0462 12.0758 31.1551ZM11.5188 30.7788C11.6265 30.8033 11.7355 30.8084 11.8405 30.7942C12.1794 30.749 12.4767 30.5152 12.6791 30.1362C12.8926 29.7336 12.9724 29.2225 12.9021 28.6958C12.7619 27.6343 12.0585 26.8492 11.3331 26.9446C11.3052 26.9487 11.2771 26.9538 11.2488 26.9598C10.5564 27.3062 10.1576 28.1689 10.2769 29.0673C10.3816 29.8595 10.8677 30.5293 11.5188 30.7788Z" fill="#64EDFF"/>
<path d="M17.3578 19.9872C17.8987 20.8733 17.4776 21.1321 16.5155 20.7102C15.8052 20.3997 15.0572 20.3556 14.3536 20.3727C13.5368 19.8315 14.0848 18.6972 15.387 18.8433C16.0315 18.878 16.8422 19.143 17.3578 19.9872Z" fill="white"/>
<path fill-rule="evenodd" clip-rule="evenodd" d="M17.4607 21.1212C17.2154 21.1894 16.8666 21.1256 16.4194 20.9285C15.7184 20.6221 14.9849 20.5958 14.3599 20.6115C14.3109 20.6115 14.2621 20.5978 14.2207 20.5712C13.7996 20.2919 13.6292 19.8312 13.7868 19.3992C13.9563 18.9312 14.5239 18.5037 15.4079 18.6013C15.9475 18.6311 16.9388 18.835 17.5646 19.8597C17.8682 20.3582 17.9197 20.7294 17.7154 20.9646C17.6485 21.0404 17.5635 21.0926 17.4607 21.1212ZM14.4296 20.1277C15.056 20.117 15.8541 20.1553 16.6128 20.4879C17.1203 20.7105 17.3255 20.6698 17.3533 20.6471C17.352 20.6475 17.4011 20.5153 17.1534 20.1102C16.6402 19.2694 15.8193 19.1053 15.3754 19.0816C15.3707 19.0811 15.3661 19.0805 15.3614 19.08C14.7328 19.0096 14.3455 19.2725 14.2386 19.5637C14.1642 19.771 14.2325 19.9727 14.4296 20.1277Z" fill="#64EDFF"/>
<path d="M27.9667 19.2813C28.0568 19.4973 27.9146 19.7452 27.7033 19.8475C27.4937 19.9507 27.2084 19.9143 27.0953 19.7087C26.6323 18.8676 25.7574 18.1615 24.8535 17.8162C25.7362 16.9497 26.9134 16.7206 27.9667 19.2813Z" fill="white"/>
<path fill-rule="evenodd" clip-rule="evenodd" d="M27.6813 20.1113C27.3943 20.1911 27.0445 20.114 26.8846 19.8234C26.4655 19.0614 25.6539 18.3771 24.7686 18.0402C24.6924 18.011 24.6359 17.945 24.6188 17.864C24.602 17.7842 24.6266 17.7011 24.6855 17.6438C25.2277 17.1104 25.7742 16.8958 26.3086 17.0047C27.021 17.1513 27.6543 17.8851 28.1912 19.1878C28.323 19.5094 28.1561 19.8935 27.8106 20.0618C27.77 20.0826 27.7256 20.099 27.6813 20.1113ZM25.3012 17.7464C26.1445 18.1577 26.8927 18.8391 27.3065 19.5917C27.3506 19.672 27.4995 19.6783 27.5992 19.6302C27.6985 19.5808 27.7823 19.4608 27.7452 19.3717C27.281 18.2422 26.7497 17.5863 26.2125 17.4768C25.9262 17.4175 25.6207 17.5092 25.3012 17.7464Z" fill="#64EDFF"/>
<g opacity="0.3">
<g opacity="0.3">
<path opacity="0.3" d="M10.921 29.0536C11.011 29.9057 11.5162 30.6587 12.2702 31.0675C11.1479 31.0975 10.1899 30.2592 10.0712 29.1427C9.95256 28.0262 10.7121 27.0061 11.8166 26.7998C11.1652 27.3568 10.8306 28.2003 10.921 29.0536Z" fill="#6C6C6C"/>
</g>
</g>
<g opacity="0.3">
<g opacity="0.3">
<path opacity="0.3" d="M26.9379 19.8653C26.2563 19.2403 25.3537 18.7511 24.23 18.3979C23.6364 17.6748 23.8453 17.4806 24.8578 17.8148C25.4823 17.9245 26.1764 18.6074 26.9379 19.8653Z" fill="#6C6C6C"/>
</g>
</g>
<g opacity="0.3">
<g opacity="0.3">
<path opacity="0.3" d="M14.0904 19.3264C14.2804 19.0107 14.6788 18.8904 15.0116 19.0485C14.7948 19.0135 14.5862 19.145 14.5249 19.3554C14.4652 19.5668 14.5535 19.8596 14.7717 19.8752C15.6718 19.9424 16.5609 20.1461 17.433 20.6951C17.0718 20.8364 16.0201 20.6946 14.278 20.2699C13.9815 20.0513 13.9003 19.6421 14.0904 19.3264Z" fill="#6C6C6C"/>
</g>
</g>
<g opacity="0.3">
<g opacity="0.3">
<path opacity="0.3" d="M25.296 17.5341C26.6442 18.1164 27.3706 18.8747 27.4753 19.809C26.7721 19.0738 25.9928 18.4369 25.1372 17.8983C25.1142 17.9038 25.1672 17.7824 25.296 17.5341Z" fill="#6C6C6C"/>
</g>
</g>
<g opacity="0.3">
<g opacity="0.3">
<path opacity="0.3" d="M30.8084 29.2691C30.129 31.7326 27.8193 33.9478 24.6746 34.8219C20.3171 36.0331 16.0056 34.2131 15.044 30.7578C14.6062 29.1851 14.937 27.5444 15.8401 26.1098C15.577 27.0587 15.5576 28.0462 15.825 29.007C16.7867 32.4623 21.0994 34.2819 25.4568 33.0708C26.1119 32.8887 26.7303 32.6487 27.3051 32.3595C27.0838 32.3379 26.8556 32.306 26.6207 32.2596C27.4463 32.0447 28.2543 31.6893 29.0445 31.1936C29.0415 31.2122 29.0369 31.2298 29.0348 31.2467C29.754 30.6641 30.3547 29.9931 30.8084 29.2691Z" fill="#6C6C6C"/>
</g>
</g>
<path fill-rule="evenodd" clip-rule="evenodd" d="M24.7148 34.9799C20.2791 36.2128 15.8697 34.3397 14.8859 30.8049C13.9021 27.27 16.7104 23.3907 21.1462 22.1578C25.5819 20.9248 29.9913 22.7979 30.9751 26.3328C31.9589 29.8677 29.1506 33.747 24.7148 34.9799ZM21.232 22.4663C16.9669 23.6517 14.2594 27.3546 15.1957 30.7188C16.132 34.083 20.3635 35.8557 24.6286 34.6702C28.8937 33.4847 31.6016 29.7831 30.6653 26.4189C29.729 23.0547 25.4971 21.2808 21.232 22.4663Z" fill="#6C6C6C"/>
<path d="M27.1739 27.4517C27.1143 28.231 26.6588 28.8017 26.1556 28.7263C25.6537 28.6506 25.2934 27.9581 25.353 27.1788C25.4126 26.3995 25.8681 25.8288 26.3713 25.9042C26.8745 25.9795 27.2335 26.6724 27.1739 27.4517Z" fill="#6C6C6C"/>
<path d="M26.7689 26.5788C26.8477 26.8375 26.7821 27.1009 26.6233 27.1668C26.4642 27.2315 26.2719 27.0738 26.1927 26.8139C26.1152 26.5549 26.1805 26.2902 26.3396 26.2255C26.4987 26.1609 26.691 26.3185 26.7689 26.5788Z" fill="white"/>
<path d="M26.0821 28.0028C26.1478 28.1262 26.1408 28.2725 26.0669 28.3298C25.9913 28.3862 25.8768 28.3322 25.8112 28.2088C25.7455 28.0854 25.7525 27.9391 25.8277 27.8815C25.902 27.8254 26.0164 27.8794 26.0821 28.0028Z" fill="white"/>
<path d="M20.68 26.3419C21.1595 26.229 21.6434 26.7442 21.7612 27.4906C21.8807 28.2378 21.588 28.9334 21.1095 29.0446C20.6314 29.1571 20.1462 28.6422 20.0283 27.8959C19.9101 27.1483 20.2015 26.4531 20.68 26.3419Z" fill="#6C6C6C"/>
<path d="M20.7426 26.648C20.9009 26.698 20.9852 26.947 20.9299 27.2034C20.8746 27.4599 20.702 27.6277 20.5433 27.5765C20.385 27.5265 20.3007 27.2775 20.3561 27.0211C20.4114 26.7646 20.5843 26.598 20.7426 26.648Z" fill="white"/>
<path d="M21.3618 28.217C21.4396 28.2662 21.4582 28.4067 21.4042 28.5307C21.3502 28.6547 21.2448 28.7167 21.1671 28.6674C21.0906 28.6179 21.0719 28.4773 21.126 28.3533C21.18 28.2294 21.2857 28.1687 21.3618 28.217Z" fill="white"/>
<g opacity="0.2">
<g opacity="0.2">
<g opacity="0.2">
<path opacity="0.2" d="M16.2681 28.845C16.1443 28.3904 16.0675 27.9187 16.0421 27.4312C16.0182 26.9734 16.0417 26.5242 16.1078 26.0862C17.2031 24.4414 19.056 23.0859 21.3549 22.447C25.4608 21.3057 29.5254 22.8553 30.7853 25.9283C30.8258 26.1717 30.8527 26.4203 30.8658 26.6728C30.8668 26.6861 30.8662 26.6986 30.8671 26.7119C29.4902 23.8105 25.5397 22.3776 21.5502 23.4865C19.2513 24.1255 17.3984 25.4809 16.3032 27.1258C16.237 27.5637 16.2136 28.0129 16.2375 28.4708C16.244 28.597 16.2552 28.7206 16.2681 28.845Z" fill="#6C6C6C"/>
</g>
</g>
<g opacity="0.2">
<g opacity="0.2">
<path opacity="0.2" d="M30.9288 29.4404C30.9378 29.4529 30.9467 29.4654 30.9543 29.4782C30.9114 29.6273 30.8626 29.7752 30.8081 29.922C30.8539 29.7636 30.8949 29.6024 30.9288 29.4404Z" fill="#6C6C6C"/>
</g>
</g>
<g opacity="0.2">
<g opacity="0.2">
<path opacity="0.2" d="M16.1658 32.3022C16.0535 32.0406 15.9867 31.7663 15.9723 31.4843C15.9431 30.9245 16.1188 30.3813 16.4614 29.8747C16.5433 30.1788 16.6447 30.4748 16.7666 30.761C16.4011 31.2439 16.1904 31.7642 16.1658 32.3022Z" fill="#6C6C6C"/>
</g>
</g>
</g>
<path fill-rule="evenodd" clip-rule="evenodd" d="M19.7925 15.2778C19.6183 16.0683 19.7663 16.8422 19.9579 17.3201L20.3947 17.1451C20.231 16.7366 20.1021 16.0598 20.2521 15.379C20.3995 14.7105 20.8173 14.0265 21.7727 13.5748L21.5715 13.1496C20.4773 13.6669 19.9695 14.475 19.7925 15.2778Z" fill="#64EDFF"/>
<path d="M20.7436 13.5438C20.8641 13.9767 21.3128 14.23 21.7458 14.1096C22.1789 13.9892 22.4323 13.5407 22.3118 13.1078C22.1914 12.6749 21.7427 12.4216 21.3096 12.542C20.8766 12.6624 20.6232 13.1109 20.7436 13.5438Z" fill="#64EDFF"/>
<path fill-rule="evenodd" clip-rule="evenodd" d="M17.7163 14.4313C17.7161 14.4312 17.7169 14.4333 17.7194 14.4375C17.7178 14.4334 17.7166 14.4313 17.7163 14.4313ZM17.8543 14.5806C17.9602 14.5597 18.1011 14.5448 18.2783 14.5416C18.7911 14.5324 19.5006 14.6229 20.2771 14.8256C21.0537 15.0283 21.7168 15.2962 22.1597 15.5549C22.3127 15.6443 22.4283 15.7262 22.5105 15.7961C22.4046 15.817 22.2637 15.8319 22.0865 15.8351C21.5736 15.8442 20.8641 15.7538 20.0876 15.5511C19.3111 15.3484 18.648 15.0805 18.2051 14.8218C18.0521 14.7324 17.9364 14.6505 17.8543 14.5806ZM22.7038 15.7333C22.7036 15.7332 22.7015 15.7345 22.6981 15.7373C22.7024 15.7348 22.704 15.7334 22.7038 15.7333ZM22.6484 15.9454C22.6486 15.9454 22.6479 15.9434 22.6454 15.9392C22.6469 15.9433 22.6482 15.9454 22.6484 15.9454ZM17.6666 14.6394C17.6624 14.6419 17.6607 14.6433 17.6609 14.6434C17.6612 14.6434 17.6633 14.6422 17.6666 14.6394ZM19.9687 16.0062C18.3569 15.5855 17.146 14.8782 17.264 14.4265C17.382 13.9747 18.7843 13.9497 20.3961 14.3704C22.0078 14.7912 23.2188 15.4985 23.1008 15.9502C22.9827 16.4019 21.5805 16.427 19.9687 16.0062Z" fill="#64EDFF"/>
<path fill-rule="evenodd" clip-rule="evenodd" d="M76.1849 11.9148C76.1849 11.5847 75.9173 11.3171 75.5872 11.3171H4.85844C4.52834 11.3171 4.26074 11.5847 4.26074 11.9148V56.5534C4.26074 56.8835 4.52834 57.1511 4.85845 57.1511H75.5872C75.9173 57.1511 76.1849 56.8835 76.1849 56.5534V11.9148ZM34.1116 16.6158C34.1116 16.2857 33.844 16.0181 33.5139 16.0181H9.08927C8.75917 16.0181 8.49157 16.2857 8.49157 16.6158V46.6815C8.49157 47.0116 8.75917 47.2792 9.08927 47.2792H33.5139C33.844 47.2792 34.1116 47.0116 34.1116 46.6815V16.6158Z" fill="#0FA0A4"/>
<path fill-rule="evenodd" clip-rule="evenodd" d="M77.1048 10.9952C77.1048 10.6651 76.8372 10.3975 76.5071 10.3975H5.77837C5.44826 10.3975 5.18066 10.6651 5.18066 10.9952V55.6338C5.18066 55.9639 5.44827 56.2315 5.77837 56.2315H76.5071C76.8372 56.2315 77.1048 55.9639 77.1048 55.6338V10.9952ZM35.0315 15.6961C35.0315 15.366 34.7639 15.0984 34.4338 15.0984H10.0092C9.67909 15.0984 9.41149 15.366 9.41149 15.6961V45.7618C9.41149 46.0919 9.67909 46.3595 10.0092 46.3595H34.4338C34.7639 46.3595 35.0315 46.0919 35.0315 45.7618V15.6961Z" fill="url(#paint6_linear_27319_77829)"/>
<path d="M39.5536 16.848H41.0805V21.9376H43.0806V23.1162H39.5536V16.848ZM46.0054 19.2856C45.5054 19.2856 45.1215 19.5892 45.0322 20.1428H46.943C46.943 19.5981 46.5144 19.2856 46.0054 19.2856ZM48.3895 21.4643C48.1484 22.4376 47.2645 23.1876 46.0233 23.1876C44.5589 23.1876 43.5053 22.2054 43.5053 20.625C43.5053 19.0445 44.5411 18.0623 46.0233 18.0623C47.4787 18.0623 48.5056 19.0267 48.5056 20.5446C48.5056 20.6875 48.4967 20.8393 48.4788 20.9911H45.0232C45.0768 21.6429 45.4786 21.9465 45.9697 21.9465C46.3983 21.9465 46.6394 21.7322 46.7644 21.4643H48.3895ZM49.0075 20.6161C49.0075 19.0445 49.9808 18.0623 51.2041 18.0623C51.9452 18.0623 52.472 18.4016 52.7399 18.8392V18.1338H54.2668V23.1162H52.7399V22.4108C52.4631 22.8483 51.9363 23.1876 51.1951 23.1876C49.9808 23.1876 49.0075 22.1876 49.0075 20.6161ZM52.7399 20.625C52.7399 19.8303 52.2309 19.3928 51.6505 19.3928C51.0791 19.3928 50.5612 19.8214 50.5612 20.6161C50.5612 21.4108 51.0791 21.8572 51.6505 21.8572C52.2309 21.8572 52.7399 21.4197 52.7399 20.625ZM56.8983 20.8036V23.1162H55.3714V18.1338H56.8983V18.9642C57.2465 18.4374 57.7912 18.0802 58.4609 18.0802V19.6964H58.0412C57.3179 19.6964 56.8983 19.9464 56.8983 20.8036ZM62.6284 23.1162V20.4107C62.6284 19.7321 62.2534 19.3571 61.673 19.3571C61.0926 19.3571 60.7176 19.7321 60.7176 20.4107V23.1162H59.1907V18.1338H60.7176V18.7945C61.0211 18.3749 61.5569 18.0802 62.2266 18.0802C63.3784 18.0802 64.1463 18.866 64.1463 20.2053V23.1162H62.6284ZM67.4039 19.2856C66.9039 19.2856 66.5199 19.5892 66.4306 20.1428H68.3415C68.3415 19.5981 67.9129 19.2856 67.4039 19.2856ZM69.788 21.4643C69.5469 22.4376 68.6629 23.1876 67.4218 23.1876C65.9574 23.1876 64.9038 22.2054 64.9038 20.625C64.9038 19.0445 65.9395 18.0623 67.4218 18.0623C68.8772 18.0623 69.9041 19.0267 69.9041 20.5446C69.9041 20.6875 69.8951 20.8393 69.8773 20.9911H66.4217C66.4753 21.6429 66.8771 21.9465 67.3682 21.9465C67.7968 21.9465 68.0379 21.7322 68.1629 21.4643H69.788ZM72.2365 20.8036V23.1162H70.7096V18.1338H72.2365V18.9642C72.5847 18.4374 73.1294 18.0802 73.799 18.0802V19.6964H73.3794C72.6561 19.6964 72.2365 19.9464 72.2365 20.8036Z" fill="white"/>
<path d="M72.6387 8.51758H78.9849V14.1587" stroke="black" stroke-width="0.597701" stroke-linecap="round" stroke-linejoin="round" stroke-dasharray="2.24 0.75"/>
<path d="M72.6387 58.3469H78.9849V52.7058" stroke="black" stroke-width="0.597701" stroke-linecap="round" stroke-linejoin="round" stroke-dasharray="2.24 0.75"/>
<path d="M9.41211 8.51758H3.06586V14.1587" stroke="black" stroke-width="0.597701" stroke-linecap="round" stroke-linejoin="round" stroke-dasharray="2.24 0.75"/>
<path d="M9.41211 58.3469H3.06586V52.7058" stroke="black" stroke-width="0.597701" stroke-linecap="round" stroke-linejoin="round" stroke-dasharray="2.24 0.75"/>
<rect x="38.9971" y="26.5952" width="21.3892" height="1.88037" rx="0.940185" fill="white"/>
<rect x="38.9971" y="32.0012" width="32.9065" height="1.88037" rx="0.940185" fill="white"/>
<rect x="38.9971" y="37.4072" width="32.9065" height="1.88037" rx="0.940185" fill="white"/>
<rect x="38.9971" y="42.8154" width="32.9065" height="1.88037" rx="0.940185" fill="white"/>
<defs>
<linearGradient id="paint0_linear_27319_77829" x1="31.7333" y1="28.3151" x2="31.1949" y2="24.9397" gradientUnits="userSpaceOnUse">
<stop stop-color="#FB9C07"/>
<stop offset="1" stop-color="#FC7333"/>
</linearGradient>
<linearGradient id="paint1_linear_27319_77829" x1="29.6903" y1="28.3707" x2="28.7541" y2="22.5004" gradientUnits="userSpaceOnUse">
<stop stop-color="#FB9C07"/>
<stop offset="1" stop-color="#FC7333"/>
</linearGradient>
<linearGradient id="paint2_linear_27319_77829" x1="28.3587" y1="27.9702" x2="28.1837" y2="26.8731" gradientUnits="userSpaceOnUse">
<stop stop-color="#FB9C07"/>
<stop offset="1" stop-color="#FC7333"/>
</linearGradient>
<linearGradient id="paint3_linear_27319_77829" x1="9.80899" y1="44.7364" x2="13.1495" y2="32.1266" gradientUnits="userSpaceOnUse">
<stop offset="0.402517" stop-color="#4950B8"/>
<stop offset="1" stop-color="#676DD8"/>
</linearGradient>
<linearGradient id="paint4_linear_27319_77829" x1="32.4899" y1="47.2333" x2="28.3368" y2="33.2879" gradientUnits="userSpaceOnUse">
<stop offset="0.110615" stop-color="#3D43AF"/>
<stop offset="1" stop-color="#4950B8"/>
</linearGradient>
<linearGradient id="paint5_linear_27319_77829" x1="23.3821" y1="30.4434" x2="21.4366" y2="59.0835" gradientUnits="userSpaceOnUse">
<stop stop-color="#2F349D"/>
<stop offset="1" stop-color="#5B60CA"/>
</linearGradient>
<linearGradient id="paint6_linear_27319_77829" x1="41.1427" y1="10.3975" x2="41.1427" y2="56.2315" gradientUnits="userSpaceOnUse">
<stop stop-color="#1FC1C6"/>
<stop offset="1" stop-color="#9AE6E9"/>
</linearGradient>
</defs>
</svg>
