<svg width="170" height="120" viewBox="0 0 170 120" fill="none" xmlns="http://www.w3.org/2000/svg">
<g opacity="0.3">
<mask id="mask0_7702_67934" style="mask-type:alpha" maskUnits="userSpaceOnUse" x="0" y="0" width="170" height="120">
<rect width="170" height="120" rx="10" fill="url(#paint0_linear_7702_67934)"/>
</mask>
<g mask="url(#mask0_7702_67934)">
<path d="M-93.0617 68.8149L-92.9997 68.8014L-92.9396 68.7828C-74.026 62.9306 -43.4187 56.0896 -13.1321 54.5938C2.00972 53.846 17.0157 54.4373 30.4124 57.1283C43.8178 59.8212 55.4976 64.593 64.1134 72.1212C86.3992 91.5937 103.783 105.91 119.414 114.663C135.131 123.465 149.168 126.696 164.686 123.93C188.62 119.665 215.454 120.9 225.839 122.049L228.329 122.325L227.281 120.098L151.351 -41.1552L150.822 -42.2782L149.6 -42.1021L-38.356 -15.0228L-38.6618 -14.9787L-38.9145 -14.8221L-148.208 52.924L-149.996 54.0325L-148.124 55.326L-120.671 74.2978L-120.063 74.7177L-119.375 74.5671L-93.0617 68.8149Z" stroke="white" stroke-width="3"/>
<path d="M-86.9484 87.5786L-86.8864 87.5651L-86.8263 87.5464C-67.9127 81.6942 -37.3054 74.8533 -7.01886 73.3575C8.123 72.6097 23.129 73.201 36.5256 75.892C49.9311 78.5848 61.6109 83.3567 70.2266 90.8848C92.5125 110.357 109.897 124.673 125.528 133.427C141.245 142.229 155.281 145.459 170.8 142.694C194.733 138.428 221.567 139.664 231.953 140.813L234.442 141.088L233.394 138.862L157.464 -22.3916L156.935 -23.5145L155.713 -23.3384L-32.2427 3.74087L-32.5486 3.78493L-32.8012 3.94153L-142.095 71.6876L-143.883 72.7962L-142.011 74.0897L-114.558 93.0615L-113.95 93.4813L-113.262 93.3308L-86.9484 87.5786Z" stroke="white" stroke-width="3"/>
<path d="M-98.4328 52.3247L-98.3708 52.3111L-98.3107 52.2925C-79.3971 46.4403 -48.7898 39.5994 -18.5032 38.1036C-3.36137 37.3558 11.6446 37.9471 25.0413 40.6381C38.4467 43.3309 50.1265 48.1028 58.7423 55.6309C81.0281 75.1035 98.4123 89.4193 114.043 98.1729C129.76 106.975 143.797 110.205 159.315 107.44C183.249 103.174 210.083 104.41 220.468 105.559L222.958 105.834L221.91 103.608L145.98 -57.6455L145.451 -58.7684L144.229 -58.5924L-43.7271 -31.513L-44.0329 -31.469L-44.2856 -31.3124L-153.579 36.4337L-155.367 37.5423L-153.496 38.8358L-126.042 57.8076L-125.435 58.2274L-124.746 58.0769L-98.4328 52.3247Z" stroke="white" stroke-width="3"/>
</g>
</g>
<defs>
<linearGradient id="paint0_linear_7702_67934" x1="85" y1="-1.26693e-06" x2="115.209" y2="126.932" gradientUnits="userSpaceOnUse">
<stop stop-color="#9F93EF"/>
<stop offset="1" stop-color="#B74CEA"/>
</linearGradient>
</defs>
</svg>
