<svg width="70" height="70" viewBox="0 0 70 70" fill="none" xmlns="http://www.w3.org/2000/svg">
<g clip-path="url(#clip0_26325_34885)">
<g clip-path="url(#clip1_26325_34885)">
<rect y="-0.00390625" width="70" height="70" rx="35" fill="#D2C1FF"/>
<path d="M11.691 52.4592C6.35915 58.3676 7.437 78.2198 7.437 78.2198L62.5031 77.2744C62.5031 77.2744 63.44 59.6967 56.5948 52.4592C52.3381 47.9586 40.7727 44.8965 40.7727 44.8965H26.7727C26.7727 44.8965 15.733 47.9802 11.691 52.4592Z" fill="url(#paint0_linear_26325_34885)"/>
<path d="M40.7725 44.8965H26.7725C26.7725 44.8965 26.3826 45.0054 25.7225 45.212C25.8168 45.3712 25.9241 45.524 26.0434 45.6704C28.8288 49.0893 38.1384 49.039 41.1225 45.8515C41.3293 45.6306 41.5057 45.3947 41.6475 45.1437C41.0932 44.9814 40.7725 44.8965 40.7725 44.8965Z" fill="#7E54F1"/>
<path d="M56.5946 52.4592C53.0467 48.708 44.4217 45.9562 41.6475 45.1437C41.5057 45.3947 41.3293 45.6306 41.1225 45.8515C47.2538 47.8332 50.5675 49.227 55.8225 53.1954C58.3767 55.9429 59.3572 57.6259 60.8094 60.7204C59.9206 57.5495 58.5873 54.5662 56.5946 52.4592Z" fill="#7E54F1"/>
<path d="M25.7225 45.212C22.8702 46.1048 14.9732 48.822 11.6908 52.4592C9.61666 54.7577 8.51248 59.1662 7.9375 63.6954C9.15221 59.2049 9.87681 56.7313 12.0725 53.1954C17.048 49.3651 20.198 47.8866 26.0434 45.6704C25.9241 45.524 25.8168 45.3712 25.7225 45.212Z" fill="#7E54F1"/>
<path fill-rule="evenodd" clip-rule="evenodd" d="M26.7671 45.3707V34.1133C30.0479 39.5076 32.6382 41.9242 40.7109 43.5667V45.3707C38.4958 48.2964 30.2708 48.4714 26.7671 45.3707Z" fill="#FADDCB"/>
<path d="M26.7671 34.1133H40.7109V43.5667C32.6382 41.9242 30.0479 39.5076 26.7671 34.1133Z" fill="#F5C6A9"/>
<path d="M48.0427 35.123C48.2718 32.5235 48.5132 24.0148 48.0428 21.6517C47.5724 19.2885 46.3489 18.0687 44.4978 16.4523C41.7714 14.0715 39.367 13.5866 35.7534 13.3799C31.0037 13.1083 28.0791 13.9708 25.3547 17.8709C23.1248 21.0631 22.5365 23.2553 23.2276 27.0874C24.4073 33.6277 29.3724 37.7225 32.6738 39.6134C35.9753 41.5043 39.7385 41.7069 42.3454 41.4705C43.9925 41.3212 47.751 38.4319 48.0427 35.123Z" fill="#FADDCB"/>
<path d="M27.9514 24.7299C29.7476 24.3045 31.8173 28.312 31.7327 27.5659C31.5279 25.759 31.5165 26.0881 31.7327 24.0456C38.8906 24.6577 42.7792 24.4978 49.5224 23.5206C50.9225 18.2706 47.0969 15.1093 44.0972 13.1208C39.7224 10.2206 31.4054 10.3504 27.9514 12.0708C24.4973 13.7911 24.1472 17.5706 24.1472 17.5706C24.1472 17.5706 22.8941 18.2508 22.0472 19.1456C19.6004 21.7311 19.4222 26.1456 20.9972 28.4207C21.3472 28.0707 21.3472 28.0707 21.5222 27.5659C21.4613 29.4014 21.5716 30.3486 22.2222 31.9207C22.3972 32.2706 22.8372 31.8588 23.0972 31.5707L25.1972 34.3706C25.1972 34.3706 27.9493 36.7779 28.422 36.3052C29.2066 35.5207 29.6879 34.7512 29.3674 33.4692C29.131 32.5239 24.6987 30.9639 25.588 27.5659C25.953 26.1712 26.5485 25.0622 27.9514 24.7299Z" fill="#6B4000"/>
<path d="M43.0562 58.7161C43.0659 58.9485 43.213 59.1567 43.4375 59.2556C43.2847 58.9103 43.2696 58.5418 43.3923 58.1504C43.1763 58.2652 43.0468 58.4834 43.0562 58.7161Z" fill="white"/>
<path fill-rule="evenodd" clip-rule="evenodd" d="M43.4786 59.348C43.492 59.348 43.5049 59.343 43.5149 59.3333C43.5307 59.3177 43.5356 59.2941 43.5272 59.2735C43.3835 58.9176 43.3692 58.5321 43.4849 58.1279C43.4909 58.1067 43.4837 58.084 43.4671 58.0702C43.4502 58.0566 43.427 58.0549 43.4084 58.0655C43.1799 58.1988 43.0445 58.4494 43.0545 58.7194C43.0645 58.9894 43.2186 59.2282 43.4562 59.343C43.4634 59.3466 43.4711 59.348 43.4786 59.348ZM43.3471 58.2451C43.2787 58.5651 43.289 58.8734 43.3775 59.1655C43.2469 59.0562 43.1662 58.8937 43.1596 58.7153C43.1527 58.5348 43.2226 58.3646 43.3471 58.2451Z" fill="black"/>
<path d="M45.6767 56.2148C44.4905 56.2148 43.5288 57.1425 43.5288 58.2872C43.5288 59.4315 44.4905 60.3595 45.6767 60.3595C46.8626 60.3595 47.8242 59.4315 47.8242 58.2872C47.8242 57.1425 46.8626 56.2148 45.6767 56.2148Z" fill="white"/>
<path d="M45.6654 56.2148C44.4388 56.2148 43.4614 57.0715 43.4009 58.2142L43.3805 58.2654C43.3337 58.4023 43.3405 58.342 43.3405 58.691C43.3405 59.04 43.6164 59.7045 44.1404 60.0043L44.2011 60.0467C45.9253 61.0041 47.9219 60.1902 47.9219 58.3776C47.9219 57.1831 46.892 56.2148 45.6654 56.2148Z" fill="#FF8B13"/>
<path fill-rule="evenodd" clip-rule="evenodd" d="M45.7046 60.5459C46.1368 60.5459 46.547 60.4401 46.8959 60.2386C47.5478 59.8618 47.9219 59.1846 47.9219 58.3807C47.9219 57.78 47.6845 57.2136 47.2534 56.7854C46.8247 56.3595 46.2604 56.125 45.6647 56.125C44.4366 56.125 43.4645 57.0179 43.3999 58.2033L43.3831 58.2476C43.3827 58.2484 43.3824 58.2492 43.3823 58.2499C43.3773 58.2647 43.3733 58.2769 43.3695 58.2879C43.3397 58.3758 43.3397 58.3836 43.3403 58.5839C43.3403 58.6167 43.3403 58.6549 43.3403 58.6999C43.3403 59.0773 43.6202 59.767 44.1457 60.0815L44.2027 60.1233C44.2042 60.1244 44.2059 60.1255 44.2076 60.1264C44.6558 60.3859 45.1465 60.5306 45.6259 60.5448C45.6521 60.5453 45.6784 60.5457 45.7046 60.5459ZM45.6647 56.2314C46.8507 56.2314 47.8156 57.1956 47.8156 58.3807C47.8156 59.1457 47.461 59.7893 46.8429 60.1464C46.1064 60.572 45.1181 60.5297 44.2632 60.0357L44.2062 59.9942C44.205 59.9933 44.2037 59.9924 44.2021 59.9916C43.7158 59.7015 43.4465 59.0437 43.4465 58.6999C43.4465 58.6549 43.4465 58.6164 43.4465 58.5836C43.4459 58.3932 43.4459 58.3932 43.47 58.3221C43.4737 58.3111 43.4781 58.2989 43.4827 58.2844L43.5021 58.2331C43.5041 58.2279 43.5053 58.2224 43.5056 58.2169C43.5629 57.0851 44.4913 56.2314 45.6647 56.2314Z" fill="black"/>
<path d="M45.4391 57.0449C44.2794 57.0449 43.3391 57.7872 43.3391 58.7029C43.3391 59.6183 44.2794 60.3606 45.4391 60.3606C46.5991 60.3606 47.5391 59.6183 47.5391 58.7029C47.5391 57.7872 46.5991 57.0449 45.4391 57.0449Z" fill="white"/>
<path fill-rule="evenodd" clip-rule="evenodd" d="M45.4391 60.3606C46.5972 60.3606 47.5391 59.6167 47.5391 58.7028C47.5391 57.7885 46.5972 57.0449 45.4391 57.0449C44.2813 57.0449 43.3391 57.7885 43.3391 58.7028C43.3391 59.6167 44.2813 60.3606 45.4391 60.3606ZM45.4391 57.1294C46.5483 57.1294 47.4506 57.8351 47.4506 58.7028C47.4506 59.5702 46.5483 60.2759 45.4391 60.2759C44.3299 60.2759 43.4276 59.5702 43.4276 58.7028C43.4276 57.8351 44.3299 57.1294 45.4391 57.1294Z" fill="black"/>
<path d="M45.4403 60.1774C44.4387 60.1774 43.6267 59.5383 43.6267 58.7499C43.6267 57.9614 44.4387 57.3223 45.4403 57.3223C46.4419 57.3223 47.2539 57.9614 47.2539 58.7499C47.2539 59.5383 46.4419 60.1774 45.4403 60.1774Z" fill="black"/>
<path fill-rule="evenodd" clip-rule="evenodd" d="M45.4386 60.1774C46.4914 60.1774 47.3477 59.5372 47.3477 58.75C47.3477 57.9628 46.4914 57.3223 45.4386 57.3223C44.3858 57.3223 43.5295 57.9628 43.5295 58.75C43.5295 59.5372 44.3858 60.1774 45.4386 60.1774ZM45.4386 57.4243C46.431 57.4243 47.2386 58.019 47.2386 58.75C47.2386 59.4807 46.431 60.0754 45.4386 60.0754C44.4462 60.0754 43.6386 59.4807 43.6386 58.75C43.6386 58.019 44.4462 57.4243 45.4386 57.4243Z" fill="black"/>
<path d="M43.6245 58.6361C43.6304 58.69 43.6394 58.7442 43.6518 58.7985C43.691 58.9718 43.7605 59.1316 43.8534 59.2741C43.8317 59.3151 43.8144 59.3566 43.8015 59.3979C44.0987 59.8721 44.7229 60.1989 45.4446 60.1989C45.5733 60.1989 45.6987 60.1883 45.8197 60.1686C46.6664 59.9393 47.2501 59.4077 47.1437 58.9398C47.1139 58.8074 47.0315 58.6935 46.9093 58.6017C46.9319 58.4336 46.9254 58.2602 46.8859 58.0865C46.8636 57.9882 46.8316 57.8944 46.7912 57.8056C46.4571 57.5217 45.9774 57.3438 45.4446 57.3438C44.4931 57.3438 43.7115 57.9112 43.6245 58.6361Z" fill="#B0401E"/>
<path fill-rule="evenodd" clip-rule="evenodd" d="M45.3969 60.1774C45.5257 60.1774 45.6546 60.1677 45.7799 60.1478C45.7815 60.1476 45.783 60.1472 45.7846 60.1467C46.6704 59.9144 47.2542 59.3802 47.1426 58.9039C47.1124 58.7755 47.0346 58.6618 46.9113 58.5667C46.931 58.4027 46.9219 58.2379 46.884 58.0764C46.8614 57.9799 46.8286 57.8856 46.7866 57.7958C46.7837 57.7899 46.7799 57.7848 46.7749 57.7809C46.4209 57.4893 45.9187 57.3223 45.3969 57.3223C44.9285 57.3223 44.4803 57.4541 44.1342 57.6936C43.7882 57.9334 43.5731 58.2603 43.5293 58.6137C43.5289 58.6171 43.5289 58.6203 43.5293 58.6235C43.5355 58.6778 43.5449 58.7324 43.5575 58.7855C43.5954 58.947 43.6605 59.0998 43.7518 59.2403C43.7339 59.2752 43.7195 59.3105 43.7084 59.3455C43.7046 59.3572 43.7063 59.3698 43.7131 59.3805C43.866 59.6167 44.1014 59.8159 44.3943 59.9569C44.6939 60.1013 45.0406 60.1774 45.3969 60.1774ZM45.7629 60.0638C45.6431 60.0826 45.5199 60.0921 45.3969 60.0921C44.7157 60.0921 44.1061 59.8089 43.8002 59.3522C43.8114 59.3206 43.8258 59.289 43.8431 59.2573C43.8504 59.2439 43.8495 59.2274 43.8407 59.2145C43.7483 59.0771 43.6825 58.9266 43.645 58.7668C43.6335 58.7184 43.625 58.6686 43.6189 58.619C43.7081 57.9281 44.4712 57.4079 45.3969 57.4079C45.8938 57.4079 46.371 57.5649 46.7085 57.8394C46.7464 57.9214 46.776 58.0073 46.7966 58.0952C46.8339 58.2547 46.8418 58.4178 46.8192 58.5799C46.8171 58.595 46.8239 58.6101 46.8365 58.6193C46.9545 58.7052 47.0279 58.8071 47.0549 58.9227C47.1541 59.346 46.5867 59.847 45.7629 60.0638Z" fill="black"/>
<path d="M45.5738 57.5237C45.3631 57.568 45.1917 57.6893 45.0851 57.8491C44.9143 57.7405 44.6982 57.6955 44.4812 57.7413C43.9097 57.8618 43.6266 58.6714 44.2044 59.0534C44.0291 59.0452 43.8634 59.1286 43.7731 59.2705C43.7509 59.3106 43.7332 59.3513 43.7199 59.3918C44.0243 59.8565 44.6637 60.1768 45.403 60.1768C45.5348 60.1768 45.6633 60.1664 45.7873 60.1472C46.6545 59.9224 47.2524 59.4014 47.1434 58.9428C47.1128 58.8131 47.0285 58.7014 46.9033 58.6115C46.7514 58.5448 46.5872 58.5446 46.4107 58.6109C46.5083 58.456 46.5458 58.2675 46.5008 58.0778C46.4074 57.6837 45.9923 57.4355 45.5738 57.5237Z" fill="#FFCAA1"/>
<path fill-rule="evenodd" clip-rule="evenodd" d="M45.4037 60.1771C45.5321 60.1771 45.6608 60.1669 45.7857 60.1469C45.7869 60.1467 45.7881 60.1464 45.7895 60.1461C46.6717 59.9106 47.2533 59.3706 47.1428 58.8902C47.1114 58.7542 47.0279 58.6347 46.8942 58.5358C46.8922 58.5343 46.8901 58.5331 46.8877 58.5321C46.7555 58.4722 46.613 58.4625 46.4631 58.5025C46.5333 58.3511 46.5512 58.182 46.5136 58.0181C46.4178 57.6024 45.9914 57.3398 45.5629 57.4328C45.3657 57.4755 45.1962 57.5864 45.0822 57.7469C44.9049 57.6415 44.6975 57.6081 44.4935 57.6523C44.2023 57.7153 43.9637 57.9676 43.8999 58.2795C43.8449 58.5486 43.9316 58.8038 44.1335 58.9791C43.9866 59.0002 43.8552 59.0838 43.7771 59.2104C43.7767 59.2109 43.7763 59.2116 43.7759 59.2124C43.7532 59.2548 43.7347 59.2979 43.7215 59.3407C43.7186 59.3501 43.7197 59.3606 43.7253 59.3692C43.8776 59.6084 44.1121 59.8105 44.4039 59.9533C44.7025 60.0996 45.0484 60.1771 45.4037 60.1771ZM45.7722 60.0782C45.6517 60.0976 45.5277 60.1073 45.4037 60.1073C44.7169 60.1073 44.1021 59.8159 43.7953 59.3461C43.8067 59.3127 43.8214 59.2788 43.8394 59.2454C43.9211 59.1137 44.0703 59.0367 44.2284 59.0444C44.2443 59.045 44.259 59.0356 44.2643 59.0208C44.2696 59.0062 44.264 58.99 44.2511 58.9809C44.0195 58.8232 43.9146 58.566 43.9704 58.2932C44.0289 58.0078 44.2452 57.7775 44.5091 57.7201C44.7054 57.6777 44.9055 57.7144 45.0725 57.8236C45.0804 57.8291 45.0904 57.8308 45.1001 57.8288C45.1095 57.8271 45.118 57.8214 45.123 57.8134C45.2267 57.6531 45.3884 57.542 45.5785 57.5006C45.9682 57.4162 46.3564 57.6551 46.4434 58.0332C46.4839 58.2088 46.454 58.3907 46.3593 58.5452C46.3526 58.5561 46.3526 58.5695 46.3588 58.5803C46.3676 58.5951 46.3873 58.6017 46.4034 58.5954C46.5668 58.5324 46.714 58.5318 46.8536 58.5937C46.9715 58.6818 47.0452 58.7867 47.0726 58.9053C47.1731 59.3415 46.6018 59.8564 45.7722 60.0782Z" fill="black"/>
<path d="M44.3066 59.3179C44.1453 59.28 44.0297 59.3687 44.1679 59.5559C44.7607 60.3594 46.4893 59.9814 46.6757 59.0071C46.719 58.7804 46.576 58.7482 46.4465 58.8499C45.8803 59.2947 45.0127 59.4844 44.3066 59.3179Z" fill="white"/>
<path fill-rule="evenodd" clip-rule="evenodd" d="M45.2136 60.0844C45.3472 60.0844 45.4855 60.0691 45.6259 60.0383C46.2292 59.905 46.6765 59.5182 46.7649 59.0525C46.7949 58.8939 46.7389 58.8343 46.7025 58.8127C46.6429 58.7776 46.5563 58.7952 46.4763 58.8585C45.9092 59.3075 45.0534 59.4963 44.3465 59.3282C44.247 59.3044 44.1609 59.3251 44.1224 59.3821C44.0988 59.4166 44.0737 59.4943 44.1691 59.6253C44.385 59.92 44.7722 60.0844 45.2136 60.0844ZM46.6327 58.8651C46.6453 58.8651 46.6566 58.8677 46.666 58.8732C46.7004 58.8936 46.7109 58.9544 46.6949 59.0396C46.6117 59.4776 46.186 59.8426 45.6101 59.9695C45.0345 60.0967 44.4915 59.9453 44.2272 59.5838C44.1758 59.5136 44.1592 59.4543 44.1817 59.4212C44.203 59.3898 44.261 59.3803 44.3299 59.3965C45.0569 59.5694 45.9375 59.3752 46.521 58.9132C46.5604 58.8821 46.6009 58.8651 46.6327 58.8651Z" fill="black"/>
<path d="M43.6255 58.7995C43.6255 58.9959 43.6793 59.1819 43.7755 59.3478C43.7859 59.3134 43.7997 59.279 43.8164 59.2446C43.7396 59.119 43.6824 58.9778 43.65 58.8244C43.6412 58.7842 43.6347 58.7436 43.6296 58.7031C43.6269 58.735 43.6255 58.7671 43.6255 58.7995Z" fill="#FFCAA1"/>
<path fill-rule="evenodd" clip-rule="evenodd" d="M43.8016 59.4403C43.8037 59.4403 43.8058 59.4402 43.8079 59.44C43.8288 59.4379 43.8463 59.4259 43.8526 59.4093C43.8665 59.3724 43.885 59.335 43.908 59.2979C43.9168 59.2836 43.9161 59.2666 43.9056 59.2532C43.7957 59.1097 43.7172 58.9524 43.6729 58.7855C43.661 58.7414 43.6516 58.6961 43.6446 58.6505C43.6411 58.6277 43.6181 58.6108 43.5909 58.6113C43.5636 58.6119 43.5413 58.6292 43.5385 58.652C43.5343 58.6906 43.5322 58.7288 43.5322 58.7665C43.5322 58.9951 43.6076 59.2146 43.7563 59.4189C43.766 59.4324 43.7831 59.4403 43.8016 59.4403ZM43.7995 59.2798C43.7974 59.2837 43.7952 59.2876 43.7929 59.2915C43.7715 59.2566 43.7523 59.2213 43.7353 59.1857C43.7553 59.2176 43.7767 59.249 43.7995 59.2798Z" fill="black"/>
<path d="M43.751 59.3472C43.7717 59.3353 43.79 59.3198 43.8057 59.3014C43.8092 59.2926 43.8127 59.2845 43.8164 59.2757C43.7515 59.1574 43.7001 59.0269 43.6652 58.8868C43.6522 58.8865 43.6387 58.8874 43.6255 58.89C43.6402 59.0515 43.6839 59.2053 43.751 59.3472Z" fill="#FF9999"/>
<path fill-rule="evenodd" clip-rule="evenodd" d="M43.7661 59.3472C43.7743 59.3472 43.7825 59.346 43.7904 59.3433C43.8246 59.3316 43.856 59.3164 43.8831 59.2976C43.8873 59.2947 43.8906 59.2912 43.8934 59.2876C43.898 59.2807 43.903 59.2739 43.908 59.267C43.9169 59.2553 43.9159 59.2411 43.9055 59.2299C43.8139 59.1318 43.7433 59.0254 43.6959 58.9137C43.6891 58.898 43.6684 58.8872 43.6449 58.8868C43.6221 58.8865 43.5996 58.8875 43.5779 58.8899C43.5493 58.8931 43.5294 58.911 43.5326 58.9308C43.554 59.0685 43.6167 59.202 43.7187 59.3279C43.7287 59.3401 43.7472 59.3472 43.7661 59.3472ZM43.7961 59.2511C43.793 59.2531 43.7899 59.255 43.7868 59.2568C43.7671 59.2299 43.7491 59.2027 43.733 59.1753C43.7529 59.2011 43.774 59.2263 43.7961 59.2511Z" fill="black"/>
<path d="M45.3937 59.0709C45.4114 59.0709 45.4285 59.0617 45.4365 59.046C45.4623 58.9959 45.5193 58.9681 45.578 58.9768C45.6037 58.9806 45.6279 58.9641 45.6322 58.9401C45.6363 58.916 45.6186 58.8932 45.5928 58.8894C45.4924 58.8746 45.3953 58.9221 45.3512 59.0075C45.3397 59.0295 45.3497 59.0559 45.3732 59.0666C45.3798 59.0695 45.3869 59.0709 45.3937 59.0709Z" fill="black"/>
<path d="M45.3976 59.0706C45.4105 59.0706 45.4231 59.0666 45.4317 59.0586C45.4468 59.0448 45.444 59.0245 45.4254 59.013C45.3536 58.9701 45.2503 58.9669 45.1742 59.0052C45.1542 59.0154 45.1491 59.0355 45.1625 59.0503C45.1762 59.0649 45.2034 59.0689 45.2234 59.0588C45.2681 59.0363 45.3284 59.0382 45.3702 59.0634C45.3782 59.0683 45.3879 59.0706 45.3976 59.0706Z" fill="black"/>
<path d="M45.4142 59.3469C45.4162 59.3469 45.4182 59.3465 45.4201 59.3458C45.4348 59.3407 45.444 59.3174 45.4408 59.294C45.4227 59.1635 45.4149 59.1109 45.3992 59.0114C45.3955 58.9881 45.3808 58.9739 45.3663 58.9799C45.3518 58.9858 45.3431 59.0097 45.3468 59.0328C45.3624 59.1311 45.37 59.1834 45.3879 59.3128C45.3907 59.333 45.4018 59.3469 45.4142 59.3469Z" fill="black"/>
<path d="M46.6871 58.9963C46.6172 59.0822 46.5269 59.1568 46.4295 59.2229C46.3315 59.2891 46.226 59.347 46.1173 59.4001C46.1061 59.4055 46.102 59.4182 46.108 59.4281C46.1139 59.4377 46.1267 59.4417 46.1376 59.4372C46.2516 59.39 46.3633 59.3377 46.4698 59.2755C46.5759 59.213 46.6774 59.1404 46.762 59.0497C46.7792 59.0313 46.7767 59.0042 46.7567 58.9886C46.7364 58.9734 46.7064 58.9756 46.6893 58.9937C46.6886 58.9945 46.688 58.9952 46.6874 58.996L46.6871 58.9963Z" fill="black"/>
<path opacity="0.3" d="M46.576 58.8429C46.5368 59.0651 46.36 59.2623 46.2063 59.4396C46.5271 59.2752 46.6862 59.0987 46.6836 58.9101C46.6788 58.7826 46.6963 58.7621 46.576 58.8429Z" fill="black"/>
<path d="M44.1305 59.6128C44.2456 59.6606 44.3667 59.6856 44.4868 59.6998C44.6073 59.714 44.7281 59.717 44.8479 59.7148C44.8589 59.7145 44.8675 59.7062 44.8672 59.6959C44.8669 59.6862 44.8589 59.6784 44.8485 59.6778C44.7301 59.672 44.612 59.6609 44.4972 59.6395C44.3827 59.6181 44.2702 59.5861 44.1704 59.5363H44.1702C44.148 59.5252 44.1207 59.533 44.1089 59.5538C44.097 59.5744 44.1056 59.6003 44.1275 59.6114C44.1287 59.6117 44.1296 59.6122 44.1305 59.6128Z" fill="black"/>
<path opacity="0.3" d="M44.1416 59.4684C44.2189 59.643 44.4607 59.7253 44.8672 59.7152C44.6306 59.6294 44.3616 59.537 44.226 59.3524C44.065 59.3386 44.0925 59.3486 44.1416 59.4684Z" fill="black"/>
<path fill-rule="evenodd" clip-rule="evenodd" d="M45.3969 60.1774C45.5257 60.1774 45.6546 60.1677 45.7799 60.1478C45.7815 60.1476 45.783 60.1472 45.7846 60.1467C46.6704 59.9144 47.2542 59.3802 47.1426 58.9039C47.1124 58.7755 47.0346 58.6618 46.9113 58.5667C46.931 58.4027 46.9219 58.2379 46.884 58.0764C46.8614 57.9799 46.8286 57.8856 46.7866 57.7958C46.7837 57.7899 46.7799 57.7848 46.7749 57.7809C46.4209 57.4893 45.9187 57.3223 45.3969 57.3223C44.9285 57.3223 44.4803 57.4541 44.1342 57.6936C43.7882 57.9334 43.5731 58.2603 43.5293 58.6137C43.5289 58.6171 43.5289 58.6203 43.5293 58.6235C43.5355 58.6778 43.5449 58.7324 43.5575 58.7855C43.5954 58.947 43.6605 59.0998 43.7518 59.2403C43.7339 59.2752 43.7195 59.3105 43.7084 59.3455C43.7046 59.3572 43.7063 59.3698 43.7131 59.3805C43.866 59.6167 44.1014 59.8159 44.3943 59.9569C44.6939 60.1013 45.0406 60.1774 45.3969 60.1774ZM45.7629 60.0638C45.6431 60.0826 45.5199 60.0921 45.3969 60.0921C44.7157 60.0921 44.1061 59.8089 43.8002 59.3522C43.8114 59.3206 43.8258 59.289 43.8431 59.2573C43.8504 59.2439 43.8495 59.2274 43.8407 59.2145C43.7483 59.0771 43.6825 58.9266 43.645 58.7668C43.6335 58.7184 43.625 58.6686 43.6189 58.619C43.7081 57.9281 44.4712 57.4079 45.3969 57.4079C45.8938 57.4079 46.371 57.5649 46.7085 57.8394C46.7464 57.9214 46.776 58.0073 46.7966 58.0952C46.8339 58.2547 46.8418 58.4178 46.8192 58.5799C46.8171 58.595 46.8239 58.6101 46.8365 58.6193C46.9545 58.7052 47.0279 58.8071 47.0549 58.9227C47.1541 59.346 46.5867 59.847 45.7629 60.0638Z" fill="black"/>
<path d="M47.7499 57.6928C47.4898 57.7233 47.3137 57.9527 47.3566 58.2052C47.3995 58.4577 47.6449 58.6376 47.9049 58.6071C48.165 58.5769 48.3412 58.3473 48.2983 58.0947C48.2553 57.8422 48.0096 57.6623 47.7499 57.6928Z" fill="white"/>
<path fill-rule="evenodd" clip-rule="evenodd" d="M47.8447 58.7029C47.8644 58.7029 47.8841 58.7014 47.9039 58.6985C48.0311 58.6804 48.1424 58.6052 48.2169 58.487C48.2897 58.3714 48.3186 58.2278 48.2984 58.083C48.2565 57.7805 48.0106 57.5649 47.7511 57.6018C47.4913 57.6389 47.3142 57.9151 47.3564 58.2176C47.3766 58.3624 47.4436 58.4923 47.545 58.5829C47.6329 58.6613 47.7375 58.7029 47.8447 58.7029ZM47.8095 57.705C47.9947 57.705 48.162 57.8718 48.1935 58.0979C48.2103 58.2176 48.1869 58.3352 48.1276 58.4294C48.0698 58.5206 47.9852 58.5786 47.8889 58.5923C47.793 58.6061 47.6956 58.5742 47.6153 58.5025C47.5326 58.4285 47.478 58.322 47.4612 58.2023C47.4274 57.9587 47.5641 57.7369 47.7658 57.708C47.7805 57.706 47.795 57.705 47.8095 57.705Z" fill="black"/>
<path d="M48.0929 58.5801C48.2434 58.4845 48.3295 58.3033 48.2983 58.1091C48.2626 57.8893 48.0877 57.7221 47.8809 57.6895C47.8705 57.6895 47.8598 57.6903 47.849 57.6917C47.6419 57.7172 47.5077 57.9429 47.5483 58.1961C47.5893 58.4491 47.7902 58.6336 47.9973 58.6081C48.0314 58.6042 48.0633 58.5945 48.0929 58.5801Z" fill="white"/>
<path fill-rule="evenodd" clip-rule="evenodd" d="M47.9542 58.6108C47.9678 58.6108 47.9814 58.6098 47.9948 58.6079C48.0296 58.6031 48.0633 58.592 48.0946 58.5746C48.0962 58.5738 48.0977 58.5729 48.0993 58.5717C48.2495 58.4634 48.3278 58.2614 48.2987 58.0571C48.2653 57.8237 48.099 57.635 47.8935 57.5982C47.8906 57.5978 47.8876 57.5977 47.8846 57.5977C47.873 57.5979 47.8618 57.5988 47.8512 57.6002C47.6445 57.6293 47.5084 57.8787 47.5478 58.1565C47.5666 58.2885 47.6218 58.4079 47.703 58.4925C47.7769 58.5697 47.865 58.6108 47.9542 58.6108ZM48.0498 58.4996C48.0285 58.511 48.0057 58.5184 47.9827 58.5216C47.9084 58.5318 47.8319 58.5002 47.7669 58.4327C47.6981 58.3609 47.6512 58.2585 47.635 58.1443C47.6022 57.914 47.7047 57.7088 47.8636 57.6866C47.8697 57.6858 47.8759 57.6852 47.8823 57.6849C48.0489 57.7171 48.1839 57.8744 48.2115 58.0693C48.236 58.2412 48.1726 58.4096 48.0498 58.4996Z" fill="black"/>
<path d="M46.1265 56.5836C46.061 56.7923 46.1708 56.8208 46.359 56.682C46.498 56.5798 46.6618 56.529 46.8196 56.4931C46.968 56.3384 46.7756 56.1407 46.4946 56.243C46.3532 56.2861 46.189 56.3848 46.1265 56.5836Z" fill="#FF8B13"/>
<path fill-rule="evenodd" clip-rule="evenodd" d="M46.1321 56.8596C46.19 56.8596 46.2624 56.8276 46.3482 56.7638C46.483 56.6643 46.6419 56.6186 46.7796 56.5872C46.7903 56.5845 46.8002 56.5791 46.8076 56.5715C46.8827 56.4928 46.892 56.3919 46.8312 56.3149C46.7656 56.2313 46.6153 56.1777 46.4278 56.2459C46.3116 56.2816 46.1071 56.3768 46.0326 56.6148C45.9965 56.7306 46.0078 56.8071 46.0668 56.8425C46.0861 56.8539 46.1079 56.8596 46.1321 56.8596ZM46.7349 56.495C46.5972 56.5274 46.4249 56.5791 46.2791 56.687C46.1816 56.7592 46.1342 56.7625 46.1268 56.7595C46.1271 56.7595 46.1083 56.736 46.1378 56.6418C46.1989 56.4466 46.3685 56.3687 46.4642 56.3395C46.4652 56.3391 46.4662 56.3387 46.4672 56.3384C46.6004 56.2897 46.7012 56.3205 46.7423 56.3725C46.7712 56.4095 46.7686 56.4533 46.7349 56.495Z" fill="black"/>
<path d="M43.8185 57.0338C43.8122 57.0833 43.8568 57.126 43.9075 57.1349C43.9579 57.1442 44.0161 57.1204 44.0279 57.0718C44.0763 56.8729 44.2198 56.6781 44.3906 56.5557C44.153 56.4283 43.8905 56.4485 43.8185 57.0338Z" fill="#FF8B13"/>
<path fill-rule="evenodd" clip-rule="evenodd" d="M43.883 57.229C43.9474 57.229 44.0158 57.1938 44.0322 57.126C44.0754 56.9483 44.2047 56.7643 44.3695 56.6464C44.3837 56.6362 44.3917 56.6197 44.3905 56.6024C44.3894 56.5853 44.3795 56.5699 44.3639 56.5616C44.22 56.4842 44.0938 56.4715 43.9888 56.5236C43.849 56.5933 43.7596 56.7773 43.7233 57.0709C43.7145 57.1433 43.7716 57.2117 43.8533 57.2263C43.8629 57.2282 43.8731 57.229 43.883 57.229ZM44.2416 56.617C44.0898 56.7475 43.9735 56.9274 43.931 57.1029C43.9264 57.1216 43.8958 57.1312 43.8723 57.1271C43.8487 57.1227 43.8243 57.1031 43.8269 57.083C43.8581 56.8285 43.9307 56.666 44.0362 56.6137C44.0924 56.5856 44.1613 56.5869 44.2416 56.617Z" fill="black"/>
<path opacity="0.3" d="M48.0912 58.1107C48.1259 58.2942 48.0561 58.4811 47.9051 58.6105C48.1718 58.5515 48.3427 58.3204 48.2974 58.0799C48.2521 57.8394 48.006 57.6701 47.732 57.6912C47.9222 57.7699 48.0565 57.9269 48.0912 58.1107Z" fill="black"/>
<path opacity="0.3" d="M44.1048 57.1369C44.2026 56.9623 44.3504 56.8036 44.5481 56.6609C44.6237 56.4705 44.573 56.4413 44.3957 56.5733C44.2812 56.634 44.1841 56.8218 44.1048 57.1369Z" fill="black"/>
<path opacity="0.3" d="M46.8156 56.2598C46.7491 56.2018 46.6459 56.1997 46.5768 56.255C46.6263 56.2339 46.685 56.2502 46.7136 56.2928C46.742 56.3358 46.7403 56.4059 46.6892 56.4227C46.4785 56.4927 46.2794 56.5922 46.1075 56.7669C46.2032 56.7759 46.4452 56.6801 46.8335 56.4795C46.8898 56.4131 46.882 56.3178 46.8156 56.2598Z" fill="black"/>
<path opacity="0.3" d="M44.242 56.584C43.9955 56.7676 43.8884 56.9518 43.9207 57.1366C44.0243 56.9581 44.1494 56.7943 44.296 56.6454C44.3011 56.6452 44.2831 56.6247 44.242 56.584Z" fill="black"/>
<path opacity="0.3" d="M43.8176 59.2905C44.1075 59.7594 44.7291 60.0838 45.4487 60.0838C46.4458 60.0838 47.2539 59.4615 47.2539 58.694C47.2539 58.3446 47.0867 58.0253 46.81 57.7812C46.922 57.9618 46.9845 58.1643 46.9845 58.3777C46.9845 59.1453 46.1761 59.7676 45.179 59.7676C45.0291 59.7676 44.8836 59.7536 44.7444 59.7269C44.7901 59.7097 44.8367 59.6901 44.8839 59.6671C44.6958 59.6701 44.5032 59.6431 44.306 59.5862C44.3078 59.5898 44.3098 59.5932 44.3112 59.5966C44.124 59.5177 43.9568 59.4137 43.8176 59.2905Z" fill="black"/>
<path fill-rule="evenodd" clip-rule="evenodd" d="M45.4863 60.1774C46.5127 60.1774 47.3477 59.537 47.3477 58.7499C47.3477 57.9627 46.5127 57.3223 45.4863 57.3223C44.46 57.3223 43.625 57.9627 43.625 58.7499C43.625 59.537 44.46 60.1774 45.4863 60.1774ZM45.4863 57.391C46.4732 57.391 47.276 58.0007 47.276 58.7499C47.276 59.499 46.4732 60.1085 45.4863 60.1085C44.4995 60.1085 43.6967 59.499 43.6967 58.7499C43.6967 58.0007 44.4995 57.391 45.4863 57.391Z" fill="black"/>
<path d="M45.7879 58.1505C45.6839 58.1545 45.6145 58.2817 45.6328 58.4342C45.6509 58.5869 45.7499 58.7072 45.8537 58.7029C45.9575 58.6989 46.0271 58.5717 46.0088 58.4192C45.9905 58.2665 45.8917 58.1462 45.7879 58.1505Z" fill="black"/>
<path d="M45.7597 58.2485C45.72 58.267 45.7159 58.3205 45.7507 58.3678C45.7855 58.4151 45.8457 58.4387 45.8854 58.42C45.925 58.4015 45.9291 58.348 45.8943 58.3007C45.8595 58.2533 45.7993 58.2301 45.7597 58.2485Z" fill="white"/>
<path d="M45.7339 58.5248C45.7184 58.5387 45.7233 58.5672 45.7448 58.5885C45.7663 58.6098 45.796 58.6162 45.8115 58.6023C45.8267 58.5885 45.8218 58.56 45.8003 58.5387C45.7788 58.5173 45.7491 58.5112 45.7339 58.5248Z" fill="white"/>
<path d="M44.62 58.3673C44.5159 58.3713 44.4465 58.4985 44.4649 58.651C44.4829 58.8037 44.582 58.924 44.6857 58.9197C44.7895 58.9157 44.8591 58.7885 44.8408 58.636C44.8225 58.4833 44.7237 58.363 44.62 58.3673Z" fill="black"/>
<path d="M44.5917 58.4673C44.5521 58.4857 44.5479 58.5392 44.5827 58.5866C44.6175 58.6339 44.6777 58.6574 44.7174 58.6387C44.757 58.6203 44.7611 58.5668 44.7264 58.5194C44.6916 58.4721 44.6314 58.4488 44.5917 58.4673Z" fill="white"/>
<path d="M44.5659 58.7435C44.5504 58.7574 44.5554 58.7859 44.5768 58.8072C44.5983 58.8286 44.628 58.8349 44.6435 58.8211C44.6587 58.8072 44.6538 58.7787 44.6323 58.7574C44.6109 58.7361 44.5811 58.73 44.5659 58.7435Z" fill="white"/>
<path opacity="0.2" d="M46.8711 58.3854C46.8705 58.2811 46.859 58.1759 46.8356 58.0704C46.8137 57.9713 46.7823 57.8769 46.7425 57.7874C46.4136 57.5015 45.9415 57.3223 45.4171 57.3223C44.4806 57.3223 43.7114 57.8938 43.6257 58.6239C43.6315 58.6782 43.6404 58.7329 43.6525 58.7875C43.6531 58.7904 43.654 58.793 43.6545 58.7959C43.7751 58.0954 44.527 57.5556 45.437 57.5556C45.9614 57.5556 46.4335 57.7348 46.7624 58.0207C46.8022 58.1102 46.8336 58.2046 46.8555 58.3037C46.8616 58.331 46.8665 58.3581 46.8711 58.3854Z" fill="black"/>
<path opacity="0.2" d="M43.7263 59.3477C43.7243 59.3507 43.7224 59.3538 43.721 59.3569C43.7508 59.3851 43.7827 59.4127 43.8164 59.4398C43.7846 59.4098 43.7542 59.379 43.7263 59.3477Z" fill="black"/>
<path opacity="0.2" d="M47.1499 59.0718C47.1606 59.0143 47.158 58.9568 47.1406 58.9007C47.1062 58.7892 47.0173 58.6921 46.8858 58.6113C46.8865 58.6755 46.8814 58.7392 46.8699 58.802C47.0058 58.8769 47.1025 58.9675 47.1499 59.0718Z" fill="black"/>
<path fill-rule="evenodd" clip-rule="evenodd" d="M45.3411 55.7513C45.4316 55.9165 45.4469 56.0973 45.4335 56.2156L45.2796 56.1992C45.2904 56.1046 45.2775 55.9552 45.2043 55.8217C45.1331 55.6917 45.0033 55.5735 44.7695 55.5345L44.7958 55.3867C45.0793 55.434 45.2486 55.5827 45.3411 55.7513Z" fill="black"/>
<path d="M45.0576 55.4791C45.0576 55.5809 44.9721 55.6633 44.8667 55.6633C44.7613 55.6633 44.6758 55.5809 44.6758 55.4791C44.6758 55.3774 44.7613 55.2949 44.8667 55.2949C44.9721 55.2949 45.0576 55.3774 45.0576 55.4791Z" fill="black"/>
<path fill-rule="evenodd" clip-rule="evenodd" d="M45.7007 55.4733C45.7008 55.4733 45.7007 55.474 45.7001 55.4754C45.7004 55.4741 45.7007 55.4734 45.7007 55.4733ZM45.6459 55.5505C45.6364 55.5524 45.6264 55.5547 45.6157 55.5574C45.5072 55.5845 45.3617 55.6434 45.2077 55.7298C45.0537 55.8162 44.9286 55.9092 44.8506 55.9867C44.8429 55.9944 44.8359 56.0017 44.8295 56.0086C44.8389 56.0066 44.8489 56.0044 44.8596 56.0017C44.9681 55.9746 45.1136 55.9157 45.2676 55.8293C45.4216 55.7428 45.5467 55.6499 45.6247 55.5723C45.6324 55.5647 45.6394 55.5574 45.6459 55.5505ZM44.7328 56.0165C44.7329 56.0164 44.7337 56.0166 44.735 56.017C44.7334 56.0167 44.7328 56.0165 44.7328 56.0165ZM44.7746 56.0857C44.7745 56.0858 44.7747 56.0851 44.7752 56.0837C44.7749 56.085 44.7746 56.0857 44.7746 56.0857ZM45.7403 55.5421C45.7419 55.5424 45.7426 55.5426 45.7425 55.5426C45.7424 55.5427 45.7417 55.5425 45.7403 55.5421ZM45.3329 55.9375C45.6553 55.7565 45.8741 55.5391 45.8215 55.4519C45.769 55.3647 45.4649 55.4406 45.1425 55.6216C44.82 55.8025 44.6012 56.0199 44.6538 56.1072C44.7064 56.1944 45.0104 56.1184 45.3329 55.9375Z" fill="black"/>
</g>
</g>
<defs>
<linearGradient id="paint0_linear_26325_34885" x1="34.947" y1="44.8965" x2="41.4727" y2="69.4704" gradientUnits="userSpaceOnUse">
<stop stop-color="#B59DF5"/>
<stop offset="1" stop-color="#6841D1"/>
</linearGradient>
<clipPath id="clip0_26325_34885">
<rect width="70" height="70" fill="white" transform="translate(0 -0.00390625)"/>
</clipPath>
<clipPath id="clip1_26325_34885">
<rect y="-0.00390625" width="70" height="70" rx="35" fill="white"/>
</clipPath>
</defs>
</svg>
