<svg width="119" height="86" viewBox="0 0 119 86" fill="none" xmlns="http://www.w3.org/2000/svg">
<path d="M106.262 47.4379C101.828 43.2435 95.0497 41.5504 91.9358 36.2882C87.2138 28.2714 93.7811 16.785 88.444 9.17873C82.0882 0.123009 66.8907 4.23721 59.8269 10.1888C49.6076 18.802 39.4589 25.9017 26.1898 29.0282C20.1288 30.4584 13.302 31.3819 9.33608 36.1856C7.54531 38.3565 6.57464 41.0918 5.96277 43.8368C3.84203 53.3543 6.51057 64.7348 14.9102 69.6668C21.4134 73.4859 29.4895 72.6233 37.0146 73.0691C43.8236 73.4729 50.5137 75.0378 56.7963 77.6963C57.7574 78.0972 58.68 78.5237 59.6155 78.963C77.8243 69.9521 92.3395 72.6201 92.3395 72.6201C83.9655 73.409 75.2359 78.7449 69.1363 83.3273C70.139 83.7185 71.1578 84.0777 72.1925 84.3855C80.928 86.9295 90.3199 85.8308 98.234 81.3391C104.077 77.9785 108.956 72.6201 110.821 66.1362C112.685 59.6522 111.16 52.0748 106.262 47.4379Z" fill="url(#paint0_linear_607_1393)"/>
<path d="M105.064 35.0682C106.124 35.0682 106.983 34.2082 106.983 33.1474C106.983 32.0865 106.124 31.2266 105.064 31.2266C104.004 31.2266 103.145 32.0865 103.145 33.1474C103.145 34.2082 104.004 35.0682 105.064 35.0682Z" fill="url(#paint1_linear_607_1393)"/>
<path d="M106.983 33.4396C106.983 34.5023 106.122 35.3637 105.061 35.3637C103.999 35.3637 103.139 34.5023 103.139 33.4396C103.139 32.377 103.999 31.5156 105.061 31.5156C106.122 31.5156 106.983 32.377 106.983 33.4396Z" fill="url(#paint2_linear_607_1393)"/>
<g style="mix-blend-mode:screen">
<path d="M103.626 33.0778C103.624 33.049 103.624 33.0201 103.626 32.9912C103.656 32.8736 103.699 32.7596 103.754 32.6513C103.903 32.3193 104.186 32.0663 104.532 31.9555C104.827 31.8846 105.134 31.8846 105.429 31.9555C105.429 31.9555 106.179 32.0773 106.188 32.3627C106.188 32.4429 105.705 32.4589 105.644 32.4621C105.045 32.4458 104.468 32.6889 104.061 33.1291C103.943 33.283 103.783 33.5524 103.638 33.2381C103.619 33.1869 103.615 33.1314 103.626 33.0778Z" fill="#4C4C4C"/>
</g>
<g style="mix-blend-mode:screen">
<path d="M103.626 36.6247C103.624 36.5969 103.624 36.5691 103.626 36.5413C103.655 36.4225 103.698 36.3074 103.754 36.1982C103.903 35.8662 104.186 35.6132 104.532 35.5023C104.827 35.4315 105.134 35.4315 105.429 35.5023C105.429 35.5023 106.179 35.6242 106.188 35.9096C106.188 35.9897 105.705 36.0058 105.644 36.009C105.045 35.9944 104.469 36.2372 104.061 36.676C103.943 36.8299 103.783 37.0993 103.638 36.785C103.619 36.7338 103.615 36.6783 103.626 36.6247Z" fill="#4C4C4C"/>
</g>
<path d="M40.9933 53.1944L71.0104 26.4473L95.889 43.8276C95.889 43.8276 81.0502 63.7091 66.7369 65.7839L40.9933 53.1944Z" fill="url(#paint3_linear_607_1393)"/>
<path d="M35.1405 20.5122C35.1405 20.5122 41.3778 25.2998 46.1606 24.7803C46.1606 24.7803 58.6352 23.3245 69.1396 28.7342C69.1396 28.7342 77.1484 31.0238 81.313 35.2919L92.3203 42.3787C92.3203 42.3787 95.6488 44.4631 95.7513 48.1059C95.7513 48.1059 96.8981 54.2435 92.5285 55.3883C92.5285 55.3883 90.6577 57.261 87.0185 49.6643L78.0774 43.8378C78.0774 43.8378 76.2065 44.1584 80.3647 46.6468L86.2913 50.915C86.2913 50.915 91.0741 55.7026 88.7868 58.0948C88.7868 58.0948 85.8748 62.2635 83.171 60.3843L74.3357 53.0089C74.3357 53.0089 71.9971 51.4473 73.5028 53.5284L82.1843 60.5543C82.1843 60.5543 83.5875 62.5296 81.8223 64.1939C81.8223 64.1939 79.9002 68.4107 74.4927 64.6621L68.406 59.929C68.406 59.929 66.2756 58.6271 67.9895 60.5543L73.7078 64.9763C73.7078 64.9763 76.1008 67.577 73.1888 69.5555C73.1888 69.5555 70.4658 72.5217 65.5004 68.462C65.5004 68.462 57.1712 63.5878 55.7808 63.5205C55.7808 63.5205 40.5353 56.5812 37.8988 54.7758C35.2622 52.9705 28.3362 49.4046 25.5652 45.5694L9.33289 36.286L23.1433 22.4459C26.2955 19.2963 31.1042 18.5117 35.0925 20.4962L35.1405 20.5122Z" fill="url(#paint4_linear_607_1393)"/>
<path d="M51.6547 32.1505C51.6547 32.1505 58.3565 33.4043 61.8099 28.1133C61.8099 28.1133 59.8974 35.447 51.6547 32.1505Z" fill="url(#paint5_linear_607_1393)"/>
<path d="M61.3101 28.1112C61.3101 28.1112 66.061 25.6035 73.9769 30.5579C73.9769 30.5579 64.802 27.271 61.5888 28.5729L61.3101 28.1112Z" fill="url(#paint6_linear_607_1393)"/>
<path d="M95.0561 45.4222C95.0561 45.4222 92.6086 41.805 87.3452 39.1723L81.518 35.4301C81.518 35.4301 76.5685 30.5912 70.0205 29.0167C70.0205 29.0167 66.0706 27.176 61.8099 28.1124C61.8099 28.1124 59.8333 31.8097 56.6618 32.3292C56.6618 32.3292 50.165 33.5381 51.9846 29.9883C52.4267 29.1193 53.7146 28.2535 55.2394 24.2996C55.2394 24.2996 56.0691 20.1309 60.7847 20.9005L67.9927 20.4099C67.9927 20.4099 70.4209 19.3004 73.8167 21.4521L84.9073 23.8795C84.9073 23.8795 87.1209 24.8415 88.3703 23.1837L99.8069 12.6016L113.842 29.9819" fill="#ECFDF6"/>
<path d="M55.2042 66.7206C55.2042 66.7206 55.1305 63.9725 58.0265 64.3573L64.3278 67.7532C64.3278 67.7532 55.7264 68.9044 55.2042 66.7206Z" fill="#ECFDF6"/>
<path d="M39.1898 53.6628C39.1898 53.6628 41.3041 51.9601 41.9031 55.0674C41.9031 55.0674 43.2486 56.908 43.1846 57.5558L41.1856 57.3826L39.1898 53.6628Z" fill="url(#paint7_linear_607_1393)"/>
<path d="M46.4842 55.4948C46.4842 55.4948 48.086 55.0555 48.5569 56.6973C48.5569 56.6973 49.393 57.8229 49.2617 58.5219L49.0246 60.3594L48.1084 59.9297L46.4842 55.4948Z" fill="url(#paint8_linear_607_1393)"/>
<path d="M50.1683 58.4921C51.7439 57.943 53.4925 58.5024 54.4578 59.8646L56.0307 63.5395L54.2752 62.8148L50.1683 58.4921Z" fill="url(#paint9_linear_607_1393)"/>
<path d="M55.2042 62.7812C55.2042 62.7812 62.8926 66.3086 64.5136 67.617L64.8596 68.0531C64.8596 68.0531 56.1877 63.2623 55.3612 63.243L55.2042 62.7812Z" fill="url(#paint10_linear_607_1393)"/>
<path d="M50.5783 64.5837C50.5783 64.5837 47.5638 60.3669 49.3834 59.2766C49.3834 59.2766 53.2276 57.0929 54.8294 61.9318C54.8294 61.9318 57.0142 66.1005 53.7882 66.4212C52.4716 66.4101 51.2556 65.714 50.5783 64.5837Z" fill="#ECFDF6"/>
<path d="M37.8443 57.0926C37.8443 57.0926 37.3766 54.4278 39.5582 54.3027C39.5582 54.3027 42.9891 55.7906 42.9891 58.2887C42.9891 58.2887 44.2481 61.2036 40.3975 60.1101C40.3975 60.1101 38.3632 59.0679 37.8443 57.0926Z" fill="#ECFDF6"/>
<path d="M43.6459 60.8177C43.223 59.8173 43.7324 57.191 45.2188 56.7292C45.2188 56.7292 48.6626 56.2514 48.7939 58.7847C48.7939 58.7847 47.9835 60.4169 49.6589 63.537C49.9024 63.9892 46.7757 66.0703 44.5333 62.5975C44.5365 62.5975 43.8509 61.2795 43.6459 60.8177Z" fill="#ECFDF6"/>
<path d="M51.2895 32.0683C51.5778 30.6958 53.0931 28.4608 54.147 27.6976C54.147 27.6976 56.0691 26.3796 56.5561 28.3902C56.5561 28.3902 55.9634 31.7765 54.147 32.684C54.147 32.684 51.014 33.335 51.2895 32.0683Z" fill="url(#paint11_linear_607_1393)"/>
<path d="M38.6292 56.6072C38.4722 56.0364 38.6292 55.5457 38.674 54.6094C38.7669 52.881 41.5892 53.006 41.3906 55.1417C41.3522 55.5554 41.4579 56.6072 41.3906 56.9791C41.2593 57.8001 39.2442 58.8647 38.6292 56.6072Z" fill="url(#paint12_linear_607_1393)"/>
<path d="M44.4307 59.1693C44.5195 58.2494 44.7163 57.3431 45.017 56.4693C45.2925 55.69 47.5253 54.3592 48.1084 57.3319C48.1084 57.3319 47.788 59.4034 47.6407 59.9293C47.3556 60.8913 44.3474 60.7759 44.4307 59.1693Z" fill="url(#paint13_linear_607_1393)"/>
<path d="M49.1431 58.7915C49.1431 58.7915 48.8644 61.5204 49.7294 62.4568C49.7294 62.4568 50.9595 63.8902 51.8885 62.6011C51.8885 62.6011 52.3114 62.1778 51.8885 59.5098C51.8885 59.5098 50.5911 57.8488 49.1431 58.7915Z" fill="url(#paint14_linear_607_1393)"/>
<path d="M55.2042 66.7188C55.2042 66.7188 55.4829 67.4467 57.1808 66.9945C57.1808 66.9945 59.8141 67.6198 59.5738 68.0527C59.5738 68.0527 55.2042 68.4183 55.2042 66.7188Z" fill="url(#paint15_linear_607_1393)"/>
<path d="M51.4913 31.4141L54.8582 32.1612L54.1566 32.6807C54.1566 32.6807 51.6355 33.306 51.2735 32.3151C51.265 32.0008 51.3402 31.6898 51.4913 31.4141Z" fill="#E6E6E6"/>
<g style="mix-blend-mode:screen">
<path d="M51.2735 32.3134C51.2735 32.3134 53.0738 28.8662 53.9164 28.3082C54.0157 28.2409 55.1241 27.3462 54.3264 28.7251L51.7636 32.7495C51.7636 32.7495 51.2735 32.5571 51.2735 32.3134Z" fill="#4C4C4C"/>
</g>
<path d="M38.6804 54.5653C38.6804 54.5653 39.7856 53.8919 41.397 55.0848C41.4668 54.4918 41.1787 53.9138 40.6634 53.6129C40.1187 53.3239 39.4512 53.41 38.9976 53.8278C38.8332 54.044 38.7243 54.2972 38.6804 54.5653Z" fill="#E6E6E6"/>
<path d="M44.9433 56.6915C44.9433 56.6915 46.7853 56.2105 48.086 57.4804C48.086 57.4804 48.0443 56.4093 47.4292 55.8417C47.4292 55.8417 46.6924 55.0465 45.552 55.8417C45.2445 56.033 45.0256 56.3387 44.9433 56.6915Z" fill="#E6E6E6"/>
<path d="M49.0919 59.6696C50.0943 59.4785 51.1316 59.6942 51.975 60.2692L51.8693 59.5028C51.8693 59.5028 50.7705 58.0919 49.3802 58.6402C49.3802 58.6402 49.0598 58.7493 49.079 58.9609L49.0919 59.6696Z" fill="#E6E6E6"/>
<path d="M55.2106 66.7969C55.2106 66.7969 55.6175 67.4029 57.1808 66.9957L57.7222 67.1368C57.7222 67.1368 56.4792 68.0763 55.4541 67.3324C55.3075 67.1916 55.2204 67 55.2106 66.7969Z" fill="#E6E6E6"/>
<g style="mix-blend-mode:screen">
<path d="M38.9975 53.8153C39.204 53.6255 39.4591 53.4967 39.7343 53.4434L39.5646 56.4865C39.5646 56.4865 39.0968 57.3652 38.9239 56.2877L38.9975 53.8153Z" fill="#4C4C4C"/>
</g>
<g style="mix-blend-mode:screen">
<path d="M45.3886 55.9636C45.6511 55.7087 45.9876 55.5437 46.3497 55.4922L45.8883 58.7887C45.8883 58.7887 45.0682 60.2638 44.9593 58.6636L45.3886 55.9636Z" fill="#4C4C4C"/>
</g>
<g style="mix-blend-mode:screen">
<path d="M49.2649 58.7141C49.2649 58.7141 49.4923 58.4704 50.1683 58.496L50.2708 61.7508C50.2708 61.7508 49.9184 62.7577 49.5083 61.3532C49.38 60.4785 49.2988 59.5975 49.2649 58.7141Z" fill="#4C4C4C"/>
</g>
<path d="M81.518 35.4297C81.518 35.4297 86.7109 37.7802 90.4526 36.3244C90.4526 36.3244 88.5465 38.0624 82.9243 36.3244L81.518 35.4297Z" fill="url(#paint16_linear_607_1393)"/>
<path d="M61.5505 28.4985V28.4696L62.0991 26.2441C62.0991 26.2441 62.3044 27.5525 61.7783 28.4888C61.2522 29.4252 61.5505 28.4985 61.5505 28.4985Z" fill="url(#paint17_linear_607_1393)"/>
<path d="M14.1222 80.3738C20.817 80.3738 26.2443 74.9411 26.2443 68.2396C26.2443 61.5381 20.817 56.1055 14.1222 56.1055C7.42727 56.1055 2 61.5381 2 68.2396C2 74.9411 7.42727 80.3738 14.1222 80.3738Z" stroke="#ECFDF6" stroke-width="2.8"/>
<path d="M34.5446 12.7228C35.5698 13.9028 37.2324 14.3261 38.7925 14.3454C40.0932 14.371 41.6501 13.983 42.0729 12.742C42.7393 10.7891 44.3795 9.30763 46.167 8.28469C47.9546 7.26176 49.9312 6.60759 51.802 5.74178C52.8688 5.24795 54.0221 4.52323 54.1951 3.3592C54.3296 2.43888 53.753 1.52176 52.9649 1.02793C52.1484 0.572373 51.2244 0.345299 50.29 0.370553C49.2905 0.3449 48.2365 0.457134 47.4068 1.01189C46.8777 1.43091 46.3944 1.90495 45.9652 2.42605C44.5123 3.9157 42.5515 4.80201 40.4744 4.90804C38.1871 5.01386 35.3263 4.6515 33.9392 7.0437C33.0037 8.65988 33.3433 11.3407 34.5446 12.7228Z" fill="#DDE6FA"/>
<path d="M40.1893 82.5537C41.1279 83.0199 42.1908 83.1739 43.223 82.993C44.2385 82.7685 45.174 82.0053 45.395 80.9888C45.6705 79.7061 44.8152 78.478 43.9566 77.4903C43.8017 77.2809 43.5953 77.1152 43.3575 77.0093C42.8866 76.8393 42.3773 77.1632 42.0473 77.5416C41.7173 77.92 41.4675 78.385 41.0414 78.6511C40.1732 79.1963 39.0232 78.7024 38.0269 78.9333C36.9185 79.1834 39.8913 82.419 40.1893 82.5537Z" fill="#64EDB2"/>
<path d="M114.707 51.8773C116.778 51.8773 118.458 50.1961 118.458 48.1222C118.458 46.0484 116.778 44.3672 114.707 44.3672C112.635 44.3672 110.955 46.0484 110.955 48.1222C110.955 50.1961 112.635 51.8773 114.707 51.8773Z" fill="#32BAAA"/>
<defs>
<linearGradient id="paint0_linear_607_1393" x1="5.27721" y1="44.8148" x2="111.586" y2="44.8148" gradientUnits="userSpaceOnUse">
<stop stop-color="#9CB7F0"/>
<stop offset="0.03" stop-color="#9FB9F1"/>
<stop offset="0.26" stop-color="#BACDF5"/>
<stop offset="0.5" stop-color="#CEDBF8"/>
<stop offset="0.75" stop-color="#D9E3F9"/>
<stop offset="1" stop-color="#DDE6FA"/>
</linearGradient>
<linearGradient id="paint1_linear_607_1393" x1="103.142" y1="33.1474" x2="106.983" y2="33.1474" gradientUnits="userSpaceOnUse">
<stop stop-color="#366FE0"/>
<stop offset="0.2" stop-color="#2C5ECB"/>
<stop offset="0.52" stop-color="#1E48AF"/>
<stop offset="0.79" stop-color="#153A9D"/>
<stop offset="1" stop-color="#123597"/>
</linearGradient>
<linearGradient id="paint2_linear_607_1393" x1="103.142" y1="33.4396" x2="106.983" y2="33.4396" gradientUnits="userSpaceOnUse">
<stop stop-color="#9CB7F0"/>
<stop offset="0.03" stop-color="#9FB9F1"/>
<stop offset="0.26" stop-color="#BACDF5"/>
<stop offset="0.5" stop-color="#CEDBF8"/>
<stop offset="0.75" stop-color="#D9E3F9"/>
<stop offset="1" stop-color="#DDE6FA"/>
</linearGradient>
<linearGradient id="paint3_linear_607_1393" x1="40.9933" y1="46.1172" x2="95.889" y2="46.1172" gradientUnits="userSpaceOnUse">
<stop stop-color="#366FE0"/>
<stop offset="0.2" stop-color="#2C5ECB"/>
<stop offset="0.52" stop-color="#1E48AF"/>
<stop offset="0.79" stop-color="#153A9D"/>
<stop offset="1" stop-color="#123597"/>
</linearGradient>
<linearGradient id="paint4_linear_607_1393" x1="9.33289" y1="44.9922" x2="95.889" y2="44.9922" gradientUnits="userSpaceOnUse">
<stop stop-color="#4E54C8"/>
<stop offset="1" stop-color="#8F94FB"/>
</linearGradient>
<linearGradient id="paint5_linear_607_1393" x1="51.6611" y1="30.56" x2="61.8099" y2="30.56" gradientUnits="userSpaceOnUse">
<stop stop-color="#366FE0"/>
<stop offset="0.2" stop-color="#2C5ECB"/>
<stop offset="0.52" stop-color="#1E48AF"/>
<stop offset="0.79" stop-color="#153A9D"/>
<stop offset="1" stop-color="#123597"/>
</linearGradient>
<linearGradient id="paint6_linear_607_1393" x1="61.3101" y1="29.0154" x2="73.9769" y2="29.0154" gradientUnits="userSpaceOnUse">
<stop stop-color="#366FE0"/>
<stop offset="0.2" stop-color="#2C5ECB"/>
<stop offset="0.52" stop-color="#1E48AF"/>
<stop offset="0.79" stop-color="#153A9D"/>
<stop offset="1" stop-color="#123597"/>
</linearGradient>
<linearGradient id="paint7_linear_607_1393" x1="39.1898" y1="55.3752" x2="43.1878" y2="55.3752" gradientUnits="userSpaceOnUse">
<stop stop-color="#366FE0"/>
<stop offset="0.2" stop-color="#2C5ECB"/>
<stop offset="0.52" stop-color="#1E48AF"/>
<stop offset="0.79" stop-color="#153A9D"/>
<stop offset="1" stop-color="#123597"/>
</linearGradient>
<linearGradient id="paint8_linear_607_1393" x1="46.4842" y1="57.8998" x2="49.2745" y2="57.8998" gradientUnits="userSpaceOnUse">
<stop stop-color="#366FE0"/>
<stop offset="0.2" stop-color="#2C5ECB"/>
<stop offset="0.52" stop-color="#1E48AF"/>
<stop offset="0.79" stop-color="#153A9D"/>
<stop offset="1" stop-color="#123597"/>
</linearGradient>
<linearGradient id="paint9_linear_607_1393" x1="50.1683" y1="60.9068" x2="56.0307" y2="60.9068" gradientUnits="userSpaceOnUse">
<stop stop-color="#366FE0"/>
<stop offset="0.2" stop-color="#2C5ECB"/>
<stop offset="0.52" stop-color="#1E48AF"/>
<stop offset="0.79" stop-color="#153A9D"/>
<stop offset="1" stop-color="#123597"/>
</linearGradient>
<linearGradient id="paint10_linear_607_1393" x1="55.2042" y1="65.4172" x2="64.8596" y2="65.4172" gradientUnits="userSpaceOnUse">
<stop stop-color="#366FE0"/>
<stop offset="0.2" stop-color="#2C5ECB"/>
<stop offset="0.52" stop-color="#1E48AF"/>
<stop offset="0.79" stop-color="#153A9D"/>
<stop offset="1" stop-color="#123597"/>
</linearGradient>
<linearGradient id="paint11_linear_607_1393" x1="51.2735" y1="30.0609" x2="56.5561" y2="30.0609" gradientUnits="userSpaceOnUse">
<stop stop-color="#9CB7F0"/>
<stop offset="0.03" stop-color="#9FB9F1"/>
<stop offset="0.26" stop-color="#BACDF5"/>
<stop offset="0.5" stop-color="#CEDBF8"/>
<stop offset="0.75" stop-color="#D9E3F9"/>
<stop offset="1" stop-color="#DDE6FA"/>
</linearGradient>
<linearGradient id="paint12_linear_607_1393" x1="38.5587" y1="55.69" x2="41.4162" y2="55.69" gradientUnits="userSpaceOnUse">
<stop stop-color="#9CB7F0"/>
<stop offset="0.03" stop-color="#9FB9F1"/>
<stop offset="0.26" stop-color="#BACDF5"/>
<stop offset="0.5" stop-color="#CEDBF8"/>
<stop offset="0.75" stop-color="#D9E3F9"/>
<stop offset="1" stop-color="#DDE6FA"/>
</linearGradient>
<linearGradient id="paint13_linear_607_1393" x1="44.4275" y1="58.0149" x2="48.1084" y2="58.0149" gradientUnits="userSpaceOnUse">
<stop stop-color="#9CB7F0"/>
<stop offset="0.03" stop-color="#9FB9F1"/>
<stop offset="0.26" stop-color="#BACDF5"/>
<stop offset="0.5" stop-color="#CEDBF8"/>
<stop offset="0.75" stop-color="#D9E3F9"/>
<stop offset="1" stop-color="#DDE6FA"/>
</linearGradient>
<linearGradient id="paint14_linear_607_1393" x1="49.0983" y1="60.8214" x2="52.0775" y2="60.8214" gradientUnits="userSpaceOnUse">
<stop stop-color="#9CB7F0"/>
<stop offset="0.03" stop-color="#9FB9F1"/>
<stop offset="0.26" stop-color="#BACDF5"/>
<stop offset="0.5" stop-color="#CEDBF8"/>
<stop offset="0.75" stop-color="#D9E3F9"/>
<stop offset="1" stop-color="#DDE6FA"/>
</linearGradient>
<linearGradient id="paint15_linear_607_1393" x1="55.2042" y1="67.4018" x2="59.5866" y2="67.4018" gradientUnits="userSpaceOnUse">
<stop stop-color="#9CB7F0"/>
<stop offset="0.03" stop-color="#9FB9F1"/>
<stop offset="0.26" stop-color="#BACDF5"/>
<stop offset="0.5" stop-color="#CEDBF8"/>
<stop offset="0.75" stop-color="#D9E3F9"/>
<stop offset="1" stop-color="#DDE6FA"/>
</linearGradient>
<linearGradient id="paint16_linear_607_1393" x1="81.518" y1="36.2634" x2="90.4526" y2="36.2634" gradientUnits="userSpaceOnUse">
<stop stop-color="#366FE0"/>
<stop offset="0.2" stop-color="#2C5ECB"/>
<stop offset="0.52" stop-color="#1E48AF"/>
<stop offset="0.79" stop-color="#153A9D"/>
<stop offset="1" stop-color="#123597"/>
</linearGradient>
<linearGradient id="paint17_linear_607_1393" x1="61.4703" y1="27.5813" x2="62.1472" y2="27.5813" gradientUnits="userSpaceOnUse">
<stop stop-color="#366FE0"/>
<stop offset="0.2" stop-color="#2C5ECB"/>
<stop offset="0.52" stop-color="#1E48AF"/>
<stop offset="0.79" stop-color="#153A9D"/>
<stop offset="1" stop-color="#123597"/>
</linearGradient>
</defs>
</svg>
