<svg width="509" height="306" viewBox="0 0 509 306" fill="none" xmlns="http://www.w3.org/2000/svg">
<path opacity="0.3" d="M362.182 158.19C363.458 118.579 331.675 85.1514 292.337 84.7953C292.113 84.7933 291.888 84.7925 291.663 84.7925C281.129 84.7969 270.949 80.7588 263.399 73.3569C247.48 57.748 225.634 48.2438 201.584 48.5983C154.283 49.2954 116.481 87.6448 116.102 135.301C115.894 161.356 127.001 184.799 144.767 200.949H346.189C355.746 189.243 361.661 174.403 362.182 158.19Z" fill="#EBE4FF"/>
<path d="M451.054 305.016H59.01L0 300.053C84.3687 220.452 169.818 182.078 258.94 182.078C341.799 182.078 459.754 231.399 509 300.053L451.054 305.016Z" fill="url(#paint0_linear_15739_105548)" style="mix-blend-mode:screen"/>
<path style="mix-blend-mode:screen" opacity="0.2" d="M123.858 214.583C161.018 194.222 207.959 182.078 258.938 182.078C308.157 182.078 353.546 193.395 390.137 212.464C396.4 221.507 396.969 230.809 385.013 237.423C354.84 254.167 308.778 231.687 243.256 237.682C177.683 243.728 120.235 241.248 122.046 221.507C122.305 219.13 122.926 216.805 123.858 214.583Z" fill="url(#paint1_linear_15739_105548)"/>
<g opacity="0.1">
<path style="mix-blend-mode:screen" fill-rule="evenodd" clip-rule="evenodd" d="M347.389 211.434C346.819 215.775 337.917 217.945 327.515 216.292C317.164 214.638 309.245 209.729 309.866 205.388C310.436 201.047 319.337 198.877 329.688 200.53C340.091 202.184 348.01 207.042 347.389 211.434ZM176.338 205.646C177.839 209.78 171.059 216.395 161.278 220.426C151.496 224.457 142.387 224.405 140.886 220.271C139.437 216.188 146.217 209.574 155.999 205.543C165.78 201.512 174.889 201.564 176.338 205.646ZM203.665 213.088C204.648 216.033 199.732 220.633 192.641 223.371C185.602 226.059 179.081 225.852 178.098 222.906C177.115 219.961 182.031 215.362 189.122 212.623C196.16 209.936 202.682 210.142 203.665 213.088ZM215.776 191.849C216.448 194.071 212.619 197.378 207.288 199.187C201.957 200.944 197.144 200.634 196.471 198.36C195.798 196.138 199.628 192.882 204.959 191.074C210.29 189.265 215.103 189.575 215.776 191.849ZM383.721 224.973C382.841 227.092 377.976 226.885 372.852 224.457C367.728 221.976 364.313 218.255 365.192 216.137C366.072 213.966 370.937 214.225 376.061 216.653C381.185 219.082 384.601 222.803 383.721 224.973ZM362.656 232.105C362.398 234.74 357.067 236.239 350.753 235.464C344.439 234.688 339.574 231.898 339.832 229.262C340.143 226.627 345.474 225.077 351.788 225.904C358.102 226.679 362.967 229.469 362.656 232.105Z" fill="url(#paint2_radial_15739_105548)"/>
<path style="mix-blend-mode:screen" fill-rule="evenodd" clip-rule="evenodd" d="M164.278 220.116C159.827 221.976 155.48 222.958 151.909 223.113C154.807 222.648 158.016 221.77 161.276 220.426C171.058 216.395 177.838 209.781 176.337 205.647C175.561 203.424 172.507 202.391 168.315 202.546C174.008 201.667 178.407 202.649 179.339 205.388C180.84 209.471 174.06 216.085 164.278 220.116ZM206.666 212.778C207.649 215.775 202.732 220.374 195.642 223.061C192.485 224.302 189.379 224.922 186.843 224.973C188.655 224.663 190.621 224.147 192.64 223.372C199.73 220.633 204.647 216.033 203.664 213.088C203.094 211.486 200.921 210.659 197.919 210.711C202.422 209.987 205.941 210.659 206.666 212.778ZM321.148 200.014C324.46 199.497 328.445 199.549 332.741 200.221C343.092 201.874 351.01 206.783 350.389 211.124C349.975 214.173 345.421 216.189 339.107 216.499C343.816 215.775 347.025 213.966 347.387 211.434C348.009 207.042 340.09 202.184 329.687 200.531C326.685 200.014 323.787 199.859 321.148 200.014ZM386.721 224.663C386.256 225.8 384.651 226.265 382.426 226.11C383.047 225.852 383.512 225.49 383.72 224.973C384.599 222.803 381.183 219.082 376.06 216.654C373.679 215.517 371.35 214.897 369.487 214.69C371.402 213.915 375.18 214.535 379.062 216.344C384.185 218.824 387.601 222.545 386.721 224.663ZM365.657 231.795C365.45 233.862 362.086 235.257 357.635 235.36C360.533 234.844 362.5 233.655 362.655 232.105C362.966 229.469 358.101 226.679 351.787 225.904C350.441 225.697 349.095 225.645 347.905 225.697C349.872 225.335 352.252 225.284 354.788 225.594C361.103 226.369 365.968 229.159 365.657 231.795ZM218.776 191.539C219.449 193.761 215.671 197.068 210.34 198.877C208.011 199.652 205.837 200.014 203.974 200.014C205.044 199.842 206.148 199.566 207.287 199.187C212.617 197.378 216.447 194.071 215.774 191.849C215.412 190.557 213.652 189.885 211.272 189.885C215.153 189.213 218.259 189.782 218.776 191.539Z" fill="url(#paint3_radial_15739_105548)"/>
<path opacity="0.5" d="M350.75 235.459C347.748 235.097 345.109 234.27 343.142 233.237C345.316 232.203 348.887 231.79 352.82 232.306C355.822 232.668 358.462 233.495 360.428 234.529C358.255 235.562 354.683 235.975 350.75 235.459Z" fill="url(#paint4_radial_15739_105548)"/>
<path opacity="0.5" d="M377.094 223.054C379.009 223.984 380.717 225.069 382.011 226.206C379.992 226.775 376.473 226.155 372.85 224.449C370.935 223.519 369.279 222.434 367.934 221.297C370.004 220.729 373.471 221.349 377.094 223.054Z" fill="url(#paint5_radial_15739_105548)"/>
<path opacity="0.5" d="M157.033 211.941C164.744 208.737 172.042 208.117 175.509 210.029C173.388 213.595 168.057 217.626 161.277 220.416C153.565 223.568 146.268 224.24 142.8 222.328C144.922 218.763 150.253 214.732 157.033 211.941Z" fill="url(#paint6_radial_15739_105548)"/>
<path opacity="0.5" d="M212.927 196.338C211.426 197.424 209.511 198.405 207.285 199.181C204.749 200.007 202.317 200.369 200.402 200.318C201.851 199.232 203.766 198.199 205.991 197.475C208.527 196.597 211.012 196.235 212.927 196.338Z" fill="url(#paint7_radial_15739_105548)"/>
<path opacity="0.3" d="M318.355 194.642C318.097 196.348 314.629 197.226 310.54 196.606C306.4 195.986 303.243 194.126 303.502 192.42C303.709 190.715 307.228 189.837 311.317 190.457C315.405 191.077 318.562 192.937 318.355 194.642Z" fill="url(#paint8_radial_15739_105548)"/>
<path opacity="0.3" d="M404.271 229.106C403.443 230.605 399.924 229.881 396.353 227.556C392.834 225.23 390.66 222.181 391.488 220.683C392.316 219.236 395.835 219.959 399.355 222.233C402.926 224.559 405.1 227.659 404.271 229.106Z" fill="url(#paint9_radial_15739_105548)"/>
<path opacity="0.3" d="M328.084 196.399C328.033 197.122 326.532 197.536 324.772 197.277C323.064 197.019 321.718 196.192 321.822 195.469C321.874 194.745 323.375 194.383 325.134 194.642C326.842 194.9 328.188 195.675 328.084 196.399Z" fill="url(#paint10_radial_15739_105548)"/>
<path opacity="0.3" d="M345.06 220.942C344.957 221.665 343.456 222.027 341.748 221.768C339.988 221.51 338.643 220.735 338.746 220.011C338.85 219.288 340.351 218.875 342.059 219.133C343.818 219.391 345.164 220.218 345.06 220.942Z" fill="url(#paint11_radial_15739_105548)"/>
<path opacity="0.3" d="M361.517 204.664C361.466 205.388 359.965 205.75 358.205 205.491C356.497 205.233 355.152 204.458 355.255 203.734C355.307 203.011 356.808 202.649 358.567 202.907C360.275 203.166 361.621 203.941 361.517 204.664Z" fill="url(#paint12_radial_15739_105548)"/>
<path opacity="0.3" d="M375.387 230.038C375.18 230.709 373.628 230.658 371.972 229.986C370.367 229.262 369.229 228.177 369.487 227.505C369.746 226.834 371.247 226.834 372.903 227.557C374.559 228.229 375.646 229.366 375.387 230.038Z" fill="url(#paint13_radial_15739_105548)"/>
<path opacity="0.3" d="M371.768 210.556C371.509 211.693 369.077 211.952 366.334 211.176C363.591 210.401 361.624 208.799 361.935 207.714C362.193 206.577 364.626 206.319 367.369 207.094C370.06 207.869 372.079 209.419 371.768 210.556Z" fill="url(#paint14_radial_15739_105548)"/>
<path opacity="0.3" d="M208.636 203.839C208.843 204.873 207.083 206.268 204.599 206.94C202.167 207.612 199.941 207.353 199.734 206.32C199.475 205.286 201.287 203.891 203.719 203.219C206.203 202.547 208.377 202.806 208.636 203.839Z" fill="url(#paint15_radial_15739_105548)"/>
<path opacity="0.3" d="M206.101 223.214C206.308 224.248 204.548 225.591 202.064 226.263C199.631 226.987 197.406 226.677 197.147 225.695C196.94 224.661 198.751 223.266 201.184 222.594C203.668 221.922 205.842 222.181 206.101 223.214Z" fill="url(#paint16_radial_15739_105548)"/>
<path opacity="0.3" d="M211.121 218.461C211.277 219.132 210.19 219.959 208.637 220.373C207.136 220.838 205.739 220.631 205.584 220.011C205.428 219.391 206.567 218.512 208.12 218.099C209.62 217.685 211.018 217.841 211.121 218.461Z" fill="url(#paint17_radial_15739_105548)"/>
<path opacity="0.3" d="M196.008 192.937C196.163 193.609 195.076 194.436 193.523 194.901C191.971 195.314 190.625 195.108 190.47 194.487C190.314 193.867 191.453 192.989 192.954 192.575C194.507 192.162 195.852 192.317 196.008 192.937Z" fill="url(#paint18_radial_15739_105548)"/>
<path opacity="0.3" d="M176.599 218.461C176.754 219.132 175.667 219.959 174.115 220.373C172.562 220.838 171.216 220.631 171.061 220.011C170.906 219.391 172.044 218.512 173.545 218.099C175.098 217.685 176.444 217.841 176.599 218.461Z" fill="url(#paint19_radial_15739_105548)"/>
<path opacity="0.3" d="M229.956 201.202C230.421 202.804 227.627 205.233 223.641 206.576C219.708 207.92 216.137 207.662 215.671 206.008C215.154 204.406 218 201.977 221.934 200.634C225.867 199.29 229.49 199.548 229.956 201.202Z" fill="url(#paint20_radial_15739_105548)"/>
<path opacity="0.3" d="M235.961 194.691C236.116 195.363 235.029 196.19 233.476 196.603C231.924 197.068 230.578 196.861 230.423 196.241C230.268 195.621 231.406 194.743 232.907 194.329C234.46 193.916 235.805 194.071 235.961 194.691Z" fill="url(#paint21_radial_15739_105548)"/>
<path opacity="0.3" d="M177.688 197.948C177.843 198.568 176.704 199.395 175.204 199.86C173.651 200.274 172.305 200.119 172.15 199.447C171.995 198.827 173.082 197.948 174.634 197.535C176.187 197.121 177.533 197.276 177.688 197.948Z" fill="url(#paint22_radial_15739_105548)"/>
</g>
<path d="M196.899 132.843C195.928 134.3 195.421 135.472 195.867 140.811C197.749 141.617 199.553 142.615 201.302 143.681C202.416 144.364 204.813 145.375 205.009 146.897C205.401 150.021 199.719 147.411 197.971 146.594C199.016 148.91 199.043 151.199 199.816 153.601C200.315 155.16 201.321 158.247 200.211 159.766C198.079 162.697 196.57 156.165 195.594 153.132C195.597 154.894 195.402 156.642 195.04 158.372C194.852 159.274 194.62 162.175 193.195 162.119C191.838 162.073 191.395 159.576 191.275 158.585C191.065 156.763 191.086 154.87 191.131 153.006C190.781 154.315 190.355 155.6 189.805 156.828C189.353 157.851 188.375 159.778 187.065 159.676C184.827 159.497 186.498 154.111 187.123 151.809C186.706 152.767 185.058 155.16 184.262 155.492C183.445 155.825 182.755 155.453 182.537 154.647C182.076 152.986 183.36 149.224 184.087 147.696C184.909 145.953 185.087 143.352 185.772 142.134C185.436 140.11 186.065 142.38 187.817 131.805C190.375 131.438 191.217 131.469 191.217 131.469L196.899 132.843Z" fill="url(#paint23_linear_15739_105548)"/>
<path fill-rule="evenodd" clip-rule="evenodd" d="M252.86 83.8846C254.106 84.3237 256.264 85.0845 258.217 85.0845L262.113 105.427C261.146 105.245 260.195 105.057 259.269 104.873C255.363 104.097 251.9 103.41 249.605 103.768C244.694 104.532 239.689 104.761 234.671 104.375L220.962 103.325C220.182 103.264 219.433 103.188 218.714 103.115C213.529 102.591 209.813 102.215 205.903 108.458C200.462 117.149 199.776 123.712 198.975 131.386C198.739 133.637 198.494 135.985 198.116 138.509L186.33 138.51C187.443 124.101 190.782 117.423 192.452 113.527C195.122 107.296 203.582 93.4928 209.703 87.3713L219.182 77.794L243.812 76.6818L251.853 83.5823C251.967 83.5697 252.331 83.6982 252.86 83.8846Z" fill="url(#paint24_linear_15739_105548)"/>
<path d="M258.217 85.0845C268.137 86.8146 276.026 101.523 288.269 108.458C292.76 111.002 291.051 120.701 281.592 120.701C272.739 120.701 264.895 107.901 262.113 105.427L258.217 85.0845Z" fill="#4B50A8"/>
<path d="M258.217 83.5845C258.262 83.5845 258.307 83.5865 258.351 83.5904C258.4 83.5947 258.449 83.6015 258.497 83.6106C261.287 84.1022 263.852 85.4876 266.271 87.2878C268.695 89.0911 271.062 91.3795 273.434 93.7607C273.934 94.2624 274.434 94.7683 274.937 95.276C279.266 99.6536 283.722 104.159 289.008 107.153C292.105 108.907 292.782 112.88 291.563 116.069C290.281 119.423 286.909 122.201 281.592 122.201C276.494 122.201 271.933 118.564 268.501 115.038C266.744 113.233 265.191 111.357 263.924 109.806C263.824 109.684 263.727 109.565 263.632 109.449C262.655 108.252 261.924 107.357 261.397 106.818C260.575 106.661 259.767 106.501 258.983 106.345L258.977 106.344C257.012 105.954 255.217 105.598 253.63 105.381C252.025 105.162 250.762 105.105 249.836 105.25L249.836 105.25C244.817 106.031 239.696 106.266 234.556 105.871C234.556 105.871 234.556 105.871 234.556 105.871L220.848 104.821L220.845 104.821C220.047 104.758 219.285 104.681 218.57 104.609L218.563 104.608C215.895 104.338 213.988 104.167 212.262 104.685C210.647 105.171 209.002 106.336 207.175 109.254C201.926 117.638 201.264 123.906 200.466 131.541L200.465 131.554C200.231 133.799 199.983 136.174 199.599 138.732C199.489 139.466 198.858 140.009 198.116 140.009L186.33 140.01C185.912 140.01 185.513 139.835 185.229 139.529C184.945 139.222 184.802 138.811 184.834 138.394C185.883 124.816 188.893 117.93 190.673 113.857C190.815 113.533 190.949 113.227 191.073 112.936C192.455 109.711 195.288 104.623 198.522 99.5965C201.751 94.5782 205.464 89.4901 208.64 86.3135C208.641 86.3126 208.642 86.3116 208.643 86.3106L218.116 76.7389C218.381 76.4708 218.737 76.3125 219.114 76.2955L243.745 75.1833C244.126 75.1661 244.499 75.2949 244.789 75.5435L252.538 82.1935C252.577 82.205 252.615 82.2165 252.65 82.2277C252.847 82.2895 253.091 82.3754 253.338 82.4626L253.359 82.4699C254.647 82.9241 256.559 83.5825 258.21 83.5845C258.212 83.5844 258.215 83.5845 258.217 83.5845Z" stroke="#64EDFF" stroke-width="3" stroke-linejoin="round"/>
<mask id="path-28-outside-1_15739_105548" maskUnits="userSpaceOnUse" x="192.722" y="64.861" width="88.0706" height="112.247" fill="black">
<rect fill="white" x="192.722" y="64.861" width="88.0706" height="112.247"/>
<path d="M247.881 170.464C247.881 170.464 246.954 154.104 239.442 152.914C237.143 152.55 235.755 152.877 233.51 153.493C225.679 155.642 230.832 153.416 223.714 164.227C218.583 172.019 196.948 168.427 196.948 168.427C196.948 168.427 199.151 140.311 202.907 122.699C206.362 106.503 214.798 81.9939 214.798 81.9939C215.307 79.6656 221.944 77.004 224.075 76.7314L247.021 72.1559C249.262 71.8657 251.387 73.271 252.213 75.6149C252.213 75.6149 261.925 103.93 265.497 122.699C268.803 140.07 269.649 165.665 270.361 167.717C271.065 169.769 247.89 170.465 247.89 170.465L247.881 170.464Z"/>
</mask>
<path d="M247.881 170.464C247.881 170.464 246.954 154.104 239.442 152.914C237.143 152.55 235.755 152.877 233.51 153.493C225.679 155.642 230.832 153.416 223.714 164.227C218.583 172.019 196.948 168.427 196.948 168.427C196.948 168.427 199.151 140.311 202.907 122.699C206.362 106.503 214.798 81.9939 214.798 81.9939C215.307 79.6656 221.944 77.004 224.075 76.7314L247.021 72.1559C249.262 71.8657 251.387 73.271 252.213 75.6149C252.213 75.6149 261.925 103.93 265.497 122.699C268.803 140.07 269.649 165.665 270.361 167.717C271.065 169.769 247.89 170.465 247.89 170.465L247.881 170.464Z" fill="url(#paint25_linear_15739_105548)"/>
<path d="M247.881 170.464L244.886 170.634L245.036 173.278L247.678 173.457L247.881 170.464ZM233.51 153.493L234.304 156.386L233.51 153.493ZM223.714 164.227L226.219 165.877L223.714 164.227ZM196.948 168.427L193.957 168.192L193.742 170.935L196.456 171.386L196.948 168.427ZM202.907 122.699L199.973 122.073L202.907 122.699ZM214.798 81.9939L217.635 82.9702L217.691 82.8051L217.729 82.6345L214.798 81.9939ZM224.075 76.7314L224.456 79.7071L224.559 79.6939L224.662 79.6735L224.075 76.7314ZM247.021 72.1559L246.636 69.1808L246.535 69.1939L246.435 69.2138L247.021 72.1559ZM252.213 75.6149L255.051 74.6416L255.047 74.6297L255.043 74.6179L252.213 75.6149ZM265.497 122.699L268.444 122.138L265.497 122.699ZM270.361 167.717L273.199 166.744L273.195 166.734L270.361 167.717ZM247.89 170.465L247.686 173.458L247.833 173.468L247.98 173.463L247.89 170.465ZM239.442 152.914L238.973 155.877L239.442 152.914ZM232.716 150.6C230.967 151.08 229.534 151.42 228.661 151.734C228.146 151.919 227.541 152.185 226.971 152.641C226.367 153.125 225.984 153.675 225.712 154.175C224.769 155.901 224.758 157.187 221.208 162.577L226.219 165.877C229.788 160.457 230.76 157.45 230.978 157.049C230.996 157.017 230.914 157.171 230.721 157.325C230.563 157.452 230.478 157.456 230.693 157.379C231.279 157.168 232.138 156.98 234.304 156.386L232.716 150.6ZM221.208 162.577C220.511 163.636 219.032 164.599 216.569 165.279C214.168 165.941 211.269 166.213 208.369 166.249C205.493 166.285 202.749 166.089 200.713 165.882C199.698 165.778 198.869 165.673 198.297 165.594C198.012 165.554 197.791 165.522 197.645 165.499C197.572 165.488 197.517 165.48 197.483 165.474C197.465 165.471 197.453 165.469 197.446 165.468C197.442 165.468 197.439 165.467 197.438 165.467C197.438 165.467 197.438 165.467 197.438 165.467C197.438 165.467 197.438 165.467 197.438 165.467C197.438 165.467 197.439 165.467 196.948 168.427C196.456 171.386 196.457 171.386 196.458 171.386C196.458 171.386 196.459 171.386 196.459 171.387C196.461 171.387 196.463 171.387 196.465 171.387C196.469 171.388 196.474 171.389 196.481 171.39C196.495 171.392 196.513 171.395 196.537 171.399C196.584 171.407 196.652 171.417 196.739 171.431C196.912 171.457 197.161 171.494 197.477 171.538C198.109 171.625 199.01 171.739 200.104 171.851C202.285 172.073 205.27 172.288 208.444 172.249C211.594 172.209 215.066 171.918 218.165 171.062C221.202 170.224 224.351 168.714 226.219 165.877L221.208 162.577ZM196.948 168.427C199.938 168.661 199.938 168.661 199.938 168.661C199.938 168.661 199.938 168.66 199.938 168.66C199.939 168.659 199.939 168.658 199.939 168.657C199.939 168.654 199.939 168.649 199.94 168.642C199.941 168.63 199.942 168.61 199.945 168.584C199.949 168.531 199.955 168.453 199.963 168.349C199.98 168.142 200.005 167.834 200.039 167.436C200.106 166.639 200.206 165.479 200.338 164.031C200.602 161.134 200.993 157.089 201.501 152.497C202.519 143.285 203.996 131.977 205.841 123.325L199.973 122.073C198.062 131.033 196.559 142.589 195.537 151.838C195.024 156.476 194.629 160.561 194.363 163.486C194.23 164.949 194.128 166.123 194.06 166.933C194.026 167.337 194 167.651 193.983 167.864C193.974 167.971 193.968 168.052 193.963 168.107C193.961 168.135 193.96 168.156 193.959 168.17C193.958 168.177 193.958 168.182 193.957 168.186C193.957 168.188 193.957 168.189 193.957 168.19C193.957 168.191 193.957 168.191 193.957 168.192C193.957 168.192 193.957 168.192 196.948 168.427ZM205.841 123.325C207.538 115.368 210.476 105.301 213.012 97.1654C214.276 93.1101 215.433 89.5577 216.274 87.0197C216.694 85.7509 217.035 84.7363 217.27 84.04C217.388 83.6918 217.48 83.4233 217.541 83.2423C217.572 83.1518 217.596 83.0832 217.611 83.0375C217.619 83.0147 217.625 82.9976 217.629 82.9863C217.631 82.9807 217.632 82.9765 217.633 82.9739C217.634 82.9725 217.634 82.9715 217.634 82.9709C217.634 82.9706 217.634 82.9705 217.634 82.9703C217.635 82.9702 217.635 82.9702 214.798 81.9939C211.961 81.0175 211.961 81.0177 211.961 81.018C211.961 81.0182 211.961 81.0186 211.961 81.0191C211.96 81.0199 211.96 81.0212 211.959 81.0228C211.958 81.0261 211.957 81.0308 211.954 81.0371C211.95 81.0495 211.944 81.0678 211.936 81.0918C211.919 81.1399 211.895 81.2109 211.863 81.3039C211.8 81.4898 211.706 81.7636 211.587 82.1172C211.348 82.8245 211.003 83.8512 210.578 85.1332C209.729 87.6967 208.561 91.2836 207.284 95.38C204.738 103.548 201.731 113.833 199.973 122.073L205.841 123.325ZM217.729 82.6345C217.623 83.1192 217.41 83.0714 218.036 82.5711C218.535 82.1716 219.275 81.7207 220.165 81.2773C222.021 80.3534 223.868 79.7824 224.456 79.7071L223.694 73.7556C222.151 73.953 219.614 74.8491 217.491 75.9062C216.392 76.4533 215.244 77.1214 214.289 77.8843C213.461 78.5464 212.227 79.7044 211.867 81.3532L217.729 82.6345ZM224.662 79.6735L247.608 75.098L246.435 69.2138L223.488 73.7893L224.662 79.6735ZM247.407 75.1311C248.068 75.0454 248.967 75.4296 249.384 76.6119L255.043 74.6179C253.808 71.1124 250.456 68.6861 246.636 69.1808L247.407 75.1311ZM252.213 75.6149C249.376 76.5881 249.376 76.5881 249.376 76.5882C249.376 76.5884 249.376 76.5886 249.376 76.5889C249.376 76.5896 249.377 76.5907 249.377 76.5923C249.378 76.5954 249.38 76.6002 249.382 76.6067C249.386 76.6197 249.393 76.6395 249.402 76.6658C249.42 76.7186 249.447 76.7978 249.483 76.9023C249.554 77.1114 249.659 77.4216 249.794 77.8239C250.064 78.6284 250.455 79.8007 250.936 81.2669C251.897 84.1998 253.216 88.3055 254.646 92.9938C257.515 102.4 260.795 114.043 262.55 123.26L268.444 122.138C266.626 112.587 263.265 100.688 260.385 91.2436C258.941 86.507 257.608 82.3608 256.637 79.398C256.152 77.9163 255.756 76.7298 255.481 75.9125C255.344 75.5039 255.237 75.1875 255.164 74.9726C255.127 74.8651 255.099 74.7831 255.08 74.7275C255.071 74.6997 255.064 74.6786 255.059 74.6642C255.056 74.6571 255.055 74.6516 255.053 74.6478C255.053 74.6459 255.052 74.6444 255.052 74.6434C255.052 74.6429 255.051 74.6424 255.051 74.6422C255.051 74.6418 255.051 74.6416 252.213 75.6149ZM262.55 123.26C264.17 131.774 265.198 142.375 265.911 151.195C266.269 155.618 266.54 159.487 266.775 162.494C266.89 163.976 266.997 165.247 267.1 166.22C267.151 166.705 267.203 167.145 267.259 167.514C267.305 167.817 267.382 168.284 267.527 168.701L273.195 166.734C273.251 166.894 273.238 166.921 273.192 166.615C273.155 166.375 273.114 166.038 273.067 165.593C272.974 164.706 272.872 163.504 272.756 162.027C272.529 159.115 272.248 155.114 271.892 150.711C271.177 141.877 270.129 130.995 268.444 122.138L262.55 123.26ZM267.523 168.691C267.024 167.236 267.866 166.172 268.219 165.855C268.506 165.598 268.71 165.553 268.531 165.62C268.25 165.727 267.64 165.885 266.642 166.055C264.714 166.384 261.998 166.655 259.164 166.869C256.352 167.081 253.51 167.23 251.365 167.327C250.294 167.375 249.4 167.41 248.775 167.433C248.462 167.444 248.217 167.453 248.051 167.458C247.968 167.461 247.904 167.463 247.862 167.464C247.841 167.465 247.825 167.465 247.814 167.466C247.809 167.466 247.805 167.466 247.803 167.466C247.802 167.466 247.801 167.466 247.8 167.466C247.8 167.466 247.8 167.466 247.8 167.466C247.8 167.466 247.8 167.466 247.89 170.465C247.98 173.463 247.98 173.463 247.98 173.463C247.98 173.463 247.981 173.463 247.981 173.463C247.982 173.463 247.983 173.463 247.985 173.463C247.988 173.463 247.993 173.463 247.999 173.463C248.01 173.462 248.028 173.462 248.05 173.461C248.096 173.46 248.162 173.458 248.249 173.455C248.421 173.449 248.674 173.44 248.993 173.429C249.633 173.406 250.544 173.37 251.635 173.321C253.813 173.223 256.721 173.07 259.615 172.852C262.486 172.635 265.433 172.348 267.651 171.97C268.727 171.786 269.813 171.552 270.664 171.229C271.052 171.081 271.682 170.81 272.23 170.318C272.845 169.765 273.786 168.455 273.199 166.744L267.523 168.691ZM248.093 167.472L248.085 167.471L247.678 173.457L247.686 173.458L248.093 167.472ZM247.881 170.464C250.877 170.294 250.877 170.294 250.877 170.293C250.876 170.292 250.876 170.292 250.876 170.291C250.876 170.29 250.876 170.288 250.876 170.286C250.876 170.282 250.876 170.277 250.875 170.272C250.875 170.26 250.874 170.245 250.872 170.225C250.87 170.187 250.866 170.133 250.861 170.065C250.852 169.929 250.837 169.736 250.815 169.493C250.772 169.007 250.702 168.321 250.593 167.498C250.378 165.86 250.005 163.633 249.37 161.337C248.745 159.071 247.819 156.567 246.42 154.485C245.018 152.399 242.919 150.427 239.912 149.951L238.973 155.877C239.721 155.996 240.555 156.515 241.44 157.832C242.327 159.152 243.042 160.961 243.587 162.934C244.124 164.877 244.452 166.813 244.645 168.281C244.741 169.01 244.802 169.611 244.839 170.025C244.857 170.232 244.869 170.391 244.877 170.495C244.881 170.547 244.883 170.585 244.885 170.609C244.885 170.621 244.886 170.629 244.886 170.633C244.886 170.635 244.886 170.636 244.886 170.636C244.886 170.636 244.886 170.636 244.886 170.636C244.886 170.636 244.886 170.635 244.886 170.635C244.886 170.635 244.886 170.634 247.881 170.464ZM239.912 149.951C236.961 149.483 235.063 149.955 232.716 150.6L234.304 156.386C236.446 155.798 237.326 155.616 238.973 155.877L239.912 149.951Z" fill="#64EDFF" mask="url(#path-28-outside-1_15739_105548)"/>
<path d="M227.313 147.984C228.075 148.943 228.873 149.828 229.722 150.588C230.138 150.977 230.584 151.312 231.022 151.647C231.451 151.992 231.901 152.265 232.331 152.618L232.396 152.665C232.77 152.971 232.827 153.513 232.52 153.887C232.277 154.186 231.877 154.282 231.536 154.147C230.906 153.907 230.319 153.541 229.828 153.098C229.32 152.656 228.902 152.145 228.533 151.604C228.165 151.063 227.863 150.499 227.612 149.904C227.369 149.317 227.177 148.708 227.087 148.073C227.072 148.005 227.119 147.94 227.195 147.925C227.238 147.921 227.284 147.943 227.313 147.975L227.313 147.984Z" fill="#64EDFF"/>
<path d="M274.604 54.697C275.515 58.5494 274.202 62.5921 271.203 65.1726C271.976 58.8574 270.528 52.7529 266.859 46.8593C270.701 47.8191 273.687 50.8414 274.604 54.697Z" fill="white"/>
<path fill-rule="evenodd" clip-rule="evenodd" d="M271.444 65.9949C271.232 66.054 271.007 66.0337 270.808 65.9287C270.493 65.7584 270.315 65.4186 270.358 65.0661C271.107 58.9766 269.689 53.0033 266.14 47.3112C265.955 47.0125 265.971 46.6334 266.174 46.3483C266.383 46.0665 266.741 45.9377 267.079 46.0186C271.252 47.0619 274.456 50.3104 275.45 54.4948C276.443 58.6793 275.033 63.0169 271.775 65.8202C271.677 65.9058 271.561 65.9623 271.444 65.9949ZM268.812 48.5042C271.256 53.1122 272.408 57.8849 272.259 62.7521C273.852 60.5043 274.432 57.6577 273.775 54.8925C273.114 52.0945 271.286 49.7911 268.812 48.5042Z" fill="#64EDFF"/>
<path d="M223.746 25.467C242.187 20.338 261.294 31.1254 266.423 49.5659C271.551 68.0018 260.759 87.1102 242.318 92.2391C223.882 97.3669 204.774 86.5749 199.646 68.139C194.517 49.6985 205.31 30.5947 223.746 25.467Z" fill="white"/>
<path d="M224.216 25.8782C242.905 20.6802 261.575 30.1248 267.538 47.993L268.075 48.7191C269.393 50.6925 269.023 49.7641 270.562 55.2999C272.102 60.8356 270.83 72.5436 264.169 79.5185L263.43 80.4488C241.384 102.94 207.374 98.492 199.378 69.7431C194.108 50.7969 205.528 31.0763 224.216 25.8782Z" fill="white"/>
<path fill-rule="evenodd" clip-rule="evenodd" d="M242.519 94.0754C235.778 95.9504 228.921 96.0819 222.608 94.4571C210.807 91.4155 202.039 82.4903 198.557 69.9694C195.954 60.6137 197.203 50.761 202.071 42.222C206.914 33.7291 214.698 27.6285 223.99 25.0439C243.144 19.7165 262.175 29.4064 268.317 47.5893L268.771 48.2073C268.78 48.2177 268.788 48.2285 268.794 48.2397C268.935 48.4486 269.051 48.6207 269.158 48.7759C270.003 50.0147 270.037 50.1366 270.896 53.2592C271.038 53.7694 271.204 54.3654 271.398 55.0653C273.033 60.9442 271.655 72.9005 264.822 80.079L264.114 80.9766C264.095 81.0014 264.074 81.0251 264.051 81.0477C258.185 87.0329 251.158 91.4148 243.742 93.7158C243.336 93.8387 242.928 93.9585 242.519 94.0754ZM224.451 26.701C205.952 31.8463 195.08 51.05 200.214 69.5085C203.528 81.4244 211.847 89.9099 223.035 92.7914C236.365 96.2249 251.597 91.2782 262.791 79.8755L263.501 78.9824C263.514 78.9623 263.532 78.9429 263.552 78.9242C269.881 72.2945 271.231 60.8814 269.741 55.5262C269.547 54.8264 269.38 54.2258 269.238 53.7156C268.422 50.7465 268.422 50.7465 267.739 49.7445C267.633 49.5893 267.512 49.4185 267.377 49.2128L266.852 48.4977C266.798 48.4252 266.756 48.3445 266.728 48.26C260.931 30.8809 242.752 21.611 224.451 26.701Z" fill="#64EDFF"/>
<path d="M231.197 38.1578C248.933 33.2247 266.595 41.0187 270.641 55.567C274.687 70.1107 263.586 85.9046 245.85 90.8377C228.109 95.772 210.452 87.9768 206.407 73.433C202.36 58.8848 213.457 43.0921 231.197 38.1578Z" fill="#00A4FF"/>
<path fill-rule="evenodd" clip-rule="evenodd" d="M246.049 91.5315C227.957 96.5638 209.868 88.5286 205.724 73.6281C201.578 58.7232 212.921 42.5067 231.014 37.4744C249.102 32.4434 267.194 40.4728 271.34 55.3778C275.484 70.2783 264.138 86.5005 246.049 91.5315ZM231.397 38.8516C214.068 43.6716 203.171 59.0974 207.105 73.2439C211.039 87.3857 228.335 94.9699 245.665 90.1498C262.995 85.3298 273.892 69.904 269.958 55.7621C266.024 41.6157 248.727 34.0316 231.397 38.8516Z" fill="#64EDFF"/>
<path d="M244.986 87.7212C260.544 83.3939 270.374 69.8811 266.941 57.5397C263.509 45.1982 248.114 38.7015 232.555 43.0289C216.997 47.3562 207.167 60.869 210.6 73.2104C214.032 85.5519 229.427 92.0486 244.986 87.7212Z" fill="#6C6C6C"/>
<path fill-rule="evenodd" clip-rule="evenodd" d="M245.214 88.5506C229.22 92.9989 213.321 86.2228 209.767 73.4446C206.213 60.6663 216.329 46.6494 232.322 42.2011C248.315 37.7528 264.216 44.5334 267.77 57.3116C271.324 70.0899 261.207 84.1023 245.214 88.5506ZM232.783 43.8582C217.706 48.0516 208.123 61.1175 211.424 72.9837C214.723 84.8453 229.676 91.0868 244.753 86.8935C259.829 82.7001 269.412 69.6342 266.113 57.7725C262.813 45.9064 247.859 39.6649 232.783 43.8582Z" fill="#6C6C6C"/>
<path d="M266.604 55.476C266.749 56.3455 266.845 57.2333 266.891 58.1349C267.041 61.0169 266.667 63.816 265.856 66.4446C266.368 66.9929 266.815 67.569 267.194 68.1594C264.68 76.856 256.485 84.6468 245.364 87.74C243.382 88.2914 241.403 88.6618 239.452 88.8735C225.409 88.912 214.1 83.092 213.702 75.3123C213.587 73.1117 214.359 70.9753 215.843 69.0157C214.763 66.48 214.107 63.7387 213.961 60.8509C213.876 59.2158 213.96 57.6114 214.196 56.0474C218.108 50.1727 224.725 45.3309 232.933 43.0477C247.594 38.9699 262.107 44.502 266.604 55.476Z" fill="#B0401E"/>
<path fill-rule="evenodd" clip-rule="evenodd" d="M245.56 88.4309C243.578 88.9823 241.552 89.3755 239.534 89.5912C239.509 89.5949 239.484 89.5956 239.457 89.5933C224.788 89.6358 213.409 83.514 212.988 75.3518C212.876 73.1499 213.563 70.9839 215.032 68.9212C213.994 66.3594 213.394 63.661 213.252 60.8936C213.166 59.2391 213.249 57.5768 213.491 55.9478C213.51 55.8405 213.546 55.7429 213.605 55.6583C217.742 49.4388 224.718 44.5943 232.746 42.3614C239.953 40.357 247.439 40.566 253.838 42.9504C260.237 45.3394 265.014 49.6927 267.273 55.2084C267.294 55.2609 267.309 55.3135 267.317 55.3664C267.466 56.2687 267.566 57.1894 267.611 58.1013C267.753 60.8686 267.436 63.6128 266.662 66.2701C267.095 66.7579 267.474 67.2652 267.803 67.7819C267.914 67.9552 267.944 68.166 267.887 68.3664C266.595 72.8317 263.868 77.0538 259.995 80.5828C256.032 84.195 251.042 86.9063 245.56 88.4309ZM239.42 88.1638C241.346 87.9539 243.285 87.58 245.177 87.0538C255.657 84.1389 263.764 76.961 266.42 68.2834C266.106 67.8209 265.743 67.3722 265.335 66.9361C265.161 66.7507 265.101 66.4806 265.179 66.2352C265.984 63.6226 266.32 60.912 266.181 58.173C266.14 57.3429 266.047 56.5028 265.92 55.6772C261.446 44.9107 247.372 39.7821 233.131 43.7431C225.486 45.8693 218.849 50.4444 214.888 56.3182C214.674 57.8032 214.603 59.3162 214.682 60.8219C214.824 63.5551 215.434 66.2214 216.509 68.7391C216.609 68.9741 216.572 69.2468 216.42 69.4498C214.99 71.3409 214.318 73.2984 214.422 75.2788C214.796 82.5349 225.772 88.1897 239.42 88.1638Z" fill="#6C6C6C"/>
<path d="M231.008 46.0768C234.375 45.9041 237.492 47.1241 239.805 49.2294C241.891 46.7809 244.943 45.1588 248.411 44.9822C257.543 44.5146 265.398 56.2621 258.402 64.7798C261.003 63.9154 263.866 64.5542 265.855 66.4429C266.368 66.9911 266.815 67.5672 267.193 68.1576C264.68 76.8542 256.485 84.645 245.364 87.7383C243.381 88.2896 241.402 88.66 239.452 88.8717C225.409 88.9102 214.1 83.0903 213.702 75.3106C213.586 73.1099 214.359 70.9735 215.842 69.0139C217.831 67.3129 220.3 66.6229 223.25 66.944C221.094 64.8778 219.692 62.0231 219.526 58.805C219.18 52.1201 224.322 46.4188 231.008 46.0768Z" fill="#FFCAA1"/>
<path fill-rule="evenodd" clip-rule="evenodd" d="M245.532 88.2942C243.558 88.843 241.535 89.2305 239.529 89.4482C239.51 89.4502 239.489 89.4511 239.466 89.451C224.874 89.4915 213.559 83.4249 213.141 75.3444C213.025 73.0562 213.781 70.8076 215.4 68.6694C215.423 68.637 215.451 68.6082 215.483 68.5831C217.251 67.0697 219.398 66.3071 221.877 66.2988C220.131 64.2013 219.111 61.6003 218.967 58.8433C218.607 51.8506 224.002 45.8697 230.995 45.5106C234.213 45.3453 237.307 46.3771 239.766 48.4319C242.024 46.0039 245.065 44.589 248.393 44.4173C253.146 44.1706 257.923 47.1469 260.277 51.8141C262.307 55.8417 262.099 60.2533 259.769 63.893C262.12 63.5992 264.506 64.3608 266.265 66.0316C266.274 66.0389 266.282 66.0478 266.292 66.0581C266.827 66.6342 267.301 67.2369 267.692 67.8577C267.779 67.9941 267.807 68.1662 267.759 68.3255C266.474 72.7644 263.761 76.9679 259.907 80.4772C255.963 84.0695 250.99 86.7758 245.532 88.2942ZM239.434 88.3022C241.37 88.0944 243.318 87.7179 245.224 87.1879C255.776 84.253 263.939 77.011 266.583 68.2587C266.26 67.7794 265.885 67.3049 265.462 66.8532C263.627 65.1163 260.994 64.5351 258.599 65.3327C258.357 65.4095 258.09 65.3233 257.943 65.1111C257.798 64.9034 257.812 64.6222 257.971 64.4225C260.834 60.9359 261.314 56.4147 259.254 52.3322C257.098 48.0623 252.76 45.3383 248.453 45.5585C245.25 45.7246 242.337 47.1624 240.253 49.6051C240.155 49.7248 240.009 49.7946 239.851 49.8044C239.699 49.8175 239.543 49.7636 239.431 49.6585C237.131 47.5642 234.158 46.494 231.055 46.6518C224.696 46.9806 219.783 52.4234 220.112 58.7824C220.263 61.7372 221.525 64.4898 223.659 66.5327C223.811 66.6754 223.87 66.8876 223.823 67.0856C223.753 67.3581 223.479 67.5461 223.203 67.5158C220.415 67.2162 218.15 67.8364 216.278 69.4127C214.855 71.3115 214.184 73.2884 214.287 75.2835C214.664 82.6215 225.71 88.3347 239.434 88.3022Z" fill="#6C6C6C"/>
<path d="M267.329 57.5609C268.297 61.0422 268.211 64.6172 267.236 68.0552C266.873 67.4996 266.446 66.9617 265.965 66.4387C266.777 63.8146 267.147 61.0167 266.996 58.1302C266.96 57.3716 266.882 56.6198 266.777 55.8755C266.984 56.4261 267.169 56.9875 267.329 57.5609Z" fill="#FFCAA1"/>
<path fill-rule="evenodd" clip-rule="evenodd" d="M267.425 68.7485C267.398 68.7561 267.37 68.7621 267.342 68.7666C267.063 68.8104 266.786 68.688 266.633 68.4533C266.294 67.9346 265.894 67.4232 265.436 66.9326C265.262 66.7428 265.198 66.4784 265.276 66.233C266.081 63.6204 266.422 60.9086 266.278 58.1709C266.242 57.4463 266.169 56.7126 266.064 55.9831C266.011 55.6183 266.236 55.2735 266.591 55.1846C266.945 55.0957 267.308 55.2817 267.442 55.6239C267.662 56.2048 267.854 56.7888 268.016 57.3712C268.998 60.9022 268.966 64.5645 267.92 68.2556C267.852 68.4985 267.664 68.682 267.425 68.7485ZM266.763 66.2621C266.806 66.3148 266.852 66.367 266.899 66.4189C267.026 65.803 267.123 65.1891 267.189 64.5771C267.068 65.1428 266.925 65.7044 266.763 66.2621Z" fill="#6C6C6C"/>
<path d="M267.456 67.2123C267.03 67.1314 266.634 66.9838 266.27 66.7785C266.169 66.6606 266.071 66.5517 265.966 66.4351C266.631 64.2799 267 62.0029 267.029 59.6597C267.263 59.5899 267.51 59.5356 267.761 59.5097C268.189 62.0807 268.06 64.6801 267.456 67.2123Z" fill="#FF9999"/>
<path fill-rule="evenodd" clip-rule="evenodd" d="M267.641 67.9077C267.537 67.9365 267.427 67.9428 267.314 67.9208C266.82 67.8246 266.345 67.6552 265.905 67.403C265.836 67.3639 265.777 67.312 265.722 67.2543C265.629 67.1442 265.53 67.0353 265.432 66.9265C265.259 66.7411 265.199 66.4755 265.273 66.2314C265.929 64.098 266.277 61.8852 266.304 59.6546C266.309 59.3418 266.516 59.0703 266.811 58.9784C267.099 58.8935 267.388 58.8324 267.676 58.801C268.054 58.7592 268.399 59.0185 268.46 59.3955C268.896 62.013 268.787 64.6994 268.142 67.3839C268.079 67.6449 267.88 67.8411 267.641 67.9077ZM266.768 66.2386C266.817 66.2639 266.866 66.2876 266.914 66.3098C267.026 65.7437 267.114 65.1793 267.178 64.6166C267.057 65.1626 266.921 65.7032 266.768 66.2386Z" fill="#6C6C6C"/>
<path d="M241.371 70.5413C241.114 70.6129 240.826 70.5375 240.64 70.3263C240.048 69.6494 239.097 69.447 238.281 69.8199C237.923 69.9828 237.499 69.8234 237.331 69.4662C237.169 69.1078 237.327 68.6795 237.685 68.5165C239.084 67.8793 240.703 68.2268 241.715 69.3804C241.977 69.6771 241.947 70.1282 241.651 70.3907C241.568 70.4623 241.471 70.5137 241.371 70.5413Z" fill="#6C6C6C"/>
<path d="M241.374 70.5461C241.171 70.6026 240.948 70.5721 240.765 70.4382C240.444 70.2112 240.369 69.7652 240.594 69.4397C241.473 68.2079 243.084 67.6868 244.512 68.17C244.889 68.2988 245.089 68.7052 244.965 69.0803C244.835 69.4521 244.43 69.6572 244.053 69.5284C243.216 69.2457 242.274 69.5513 241.765 70.272C241.667 70.411 241.527 70.5034 241.374 70.5461Z" fill="#6C6C6C"/>
<path d="M241.45 75.1922C241.399 75.2064 241.348 75.2142 241.296 75.2156C240.899 75.2386 240.561 74.9336 240.539 74.5407C240.423 72.3401 240.39 71.4495 240.352 69.7574C240.344 69.3608 240.656 69.0308 241.052 69.0226C241.449 69.0145 241.776 69.3322 241.783 69.7243C241.82 71.3971 241.857 72.282 241.972 74.4633C241.989 74.8039 241.766 75.1043 241.45 75.1922Z" fill="#6C6C6C"/>
<g opacity="0.3">
<g opacity="0.3">
<path opacity="0.3" d="M221.624 72.0803C223.189 75.1376 226.988 77.18 230.313 79.0426C224.206 78.1564 220.792 76.3313 220.072 73.5675C219.636 71.6846 219.255 71.4694 221.624 72.0803Z" fill="#6C6C6C"/>
</g>
</g>
<path fill-rule="evenodd" clip-rule="evenodd" d="M245.56 88.4309C243.578 88.9823 241.552 89.3755 239.534 89.5912C239.509 89.5949 239.484 89.5956 239.457 89.5933C224.788 89.6358 213.409 83.514 212.988 75.3518C212.876 73.1499 213.563 70.9839 215.032 68.9212C213.994 66.3594 213.394 63.661 213.252 60.8936C213.166 59.2391 213.249 57.5768 213.491 55.9478C213.51 55.8405 213.546 55.7429 213.605 55.6583C217.742 49.4388 224.718 44.5943 232.746 42.3614C239.953 40.357 247.439 40.566 253.838 42.9504C260.237 45.3394 265.014 49.6927 267.273 55.2084C267.294 55.2609 267.309 55.3135 267.317 55.3664C267.466 56.2687 267.566 57.1894 267.611 58.1013C267.753 60.8686 267.436 63.6128 266.662 66.2701C267.095 66.7579 267.474 67.2652 267.803 67.7819C267.914 67.9552 267.944 68.166 267.887 68.3664C266.595 72.8317 263.868 77.0538 259.995 80.5828C256.032 84.195 251.042 86.9063 245.56 88.4309ZM239.42 88.1638C241.346 87.9539 243.285 87.58 245.177 87.0538C255.657 84.1389 263.764 76.961 266.42 68.2834C266.106 67.8209 265.743 67.3722 265.335 66.9361C265.161 66.7507 265.101 66.4806 265.179 66.2352C265.984 63.6226 266.32 60.912 266.181 58.173C266.14 57.3429 266.047 56.5028 265.92 55.6772C261.446 44.9107 247.372 39.7821 233.131 43.7431C225.486 45.8693 218.849 50.4444 214.888 56.3182C214.674 57.8032 214.603 59.3162 214.682 60.8219C214.824 63.5551 215.434 66.2214 216.509 68.7391C216.609 68.9741 216.572 69.2468 216.42 69.4498C214.99 71.3409 214.318 73.2984 214.422 75.2788C214.796 82.5349 225.772 88.1897 239.42 88.1638Z" fill="#6C6C6C"/>
<path d="M198.399 57.9334C202.153 57.4389 205.667 60.5917 206.245 64.9793C206.823 69.3669 204.251 73.3222 200.496 73.8167C196.744 74.3157 193.229 71.1584 192.651 66.7708C192.072 62.3832 194.65 58.4266 198.399 57.9334Z" fill="white"/>
<path fill-rule="evenodd" clip-rule="evenodd" d="M201.555 74.4846C201.248 74.57 200.933 74.6333 200.61 74.6743C198.546 74.947 196.484 74.2701 194.812 72.7699C193.178 71.3028 192.11 69.2114 191.804 66.8884C191.161 62.0375 194.077 57.641 198.29 57.0822C202.509 56.5266 206.463 60.0192 207.102 64.8713C207.408 67.1943 206.918 69.4905 205.722 71.331C204.686 72.9229 203.23 74.0187 201.555 74.4846ZM197.822 58.9297C194.927 59.7348 193.029 63.0356 193.508 66.6628C193.759 68.5824 194.63 70.2959 195.96 71.4923C197.255 72.6499 198.826 73.176 200.389 72.97C201.947 72.7653 203.332 71.8499 204.279 70.3945C205.253 68.8929 205.649 67.012 205.398 65.0924C204.88 61.1842 201.792 58.3557 198.516 58.7853C198.279 58.8188 198.047 58.867 197.822 58.9297Z" fill="#64EDFF"/>
<path d="M197.589 73.4854C195.075 72.5452 193.076 69.9927 192.649 66.7792C192.172 63.1417 193.861 59.802 196.588 58.484C196.733 58.4438 196.885 58.4159 197.041 58.3971C200.03 58.0034 202.894 61.0789 203.451 65.2681C204.003 69.454 202.03 73.1695 199.041 73.5632C198.549 73.6318 198.064 73.6014 197.589 73.4854Z" fill="white"/>
<path fill-rule="evenodd" clip-rule="evenodd" d="M199.788 74.1425C199.574 74.202 199.358 74.246 199.138 74.2745C198.571 74.3497 197.994 74.3205 197.425 74.182C197.397 74.1766 197.369 74.1683 197.34 74.1569C194.506 73.0967 192.387 70.2369 191.943 66.8726C191.438 63.0289 193.216 59.3139 196.278 57.8347C196.322 57.8161 196.368 57.8002 196.416 57.7868C196.598 57.741 196.777 57.7056 196.951 57.6817C200.321 57.2406 203.556 60.5974 204.161 65.1719C204.449 67.3441 204.109 69.4771 203.208 71.1723C202.388 72.7187 201.187 73.7532 199.788 74.1425ZM197.799 72.7985C198.183 72.8862 198.573 72.9044 198.948 72.8536C200.158 72.6921 201.219 71.8569 201.942 70.5029C202.705 69.0649 202.99 67.2392 202.739 65.3582C202.239 61.5667 199.728 58.7628 197.137 59.1038C197.038 59.1186 196.937 59.1368 196.836 59.1584C194.364 60.3958 192.939 63.4772 193.365 66.6862C193.738 69.5157 195.474 71.908 197.799 72.7985Z" fill="#64EDFF"/>
<path d="M218.655 34.2561C220.586 37.421 219.082 38.3452 215.647 36.8391C213.111 35.7301 210.44 35.5729 207.927 35.6345C205.011 33.702 206.968 29.6502 211.618 30.1715C213.919 30.2951 216.814 31.2412 218.655 34.2561Z" fill="white"/>
<path fill-rule="evenodd" clip-rule="evenodd" d="M219.019 38.3153C218.143 38.5589 216.897 38.3313 215.3 37.6274C212.797 36.5334 210.178 36.4397 207.947 36.4961C207.772 36.4962 207.598 36.4473 207.449 36.3523C205.946 35.3548 205.338 33.7095 205.901 32.1665C206.506 30.495 208.533 28.968 211.69 29.3159C213.617 29.4221 217.156 30.15 219.39 33.8095C220.474 35.5901 220.658 36.9156 219.928 37.7558C219.689 38.0266 219.386 38.2131 219.019 38.3153ZM208.196 34.768C210.433 34.7296 213.282 34.8662 215.991 36.0537C217.803 36.8486 218.536 36.7031 218.635 36.622C218.631 36.6233 218.806 36.1513 217.922 34.7043C216.089 31.7017 213.159 31.1159 211.574 31.0314C211.557 31.0296 211.54 31.0277 211.523 31.0259C209.279 30.7745 207.896 31.7137 207.514 32.754C207.248 33.4944 207.492 34.2146 208.196 34.768Z" fill="#64EDFF"/>
<path d="M256.527 31.7255C256.848 32.4971 256.341 33.3826 255.586 33.7481C254.838 34.1169 253.819 33.9868 253.415 33.2526C251.762 30.2487 248.638 27.727 245.411 26.494C248.563 23.3989 252.767 22.5799 256.527 31.7255Z" fill="white"/>
<path fill-rule="evenodd" clip-rule="evenodd" d="M255.499 34.6945C254.474 34.9796 253.225 34.7043 252.654 33.6663C251.158 30.9449 248.26 28.5013 245.099 27.2984C244.827 27.1942 244.625 26.9584 244.564 26.6689C244.504 26.384 244.592 26.0872 244.803 25.8826C246.739 23.9771 248.691 23.2105 250.599 23.5992C253.142 24.1225 255.404 26.7431 257.32 31.3956C257.791 32.5442 257.194 33.9164 255.961 34.5174C255.816 34.5918 255.657 34.6505 255.499 34.6945ZM247.001 26.2489C250.012 27.7173 252.684 30.1508 254.161 32.8387C254.318 33.1257 254.85 33.1481 255.206 32.9761C255.561 32.7996 255.86 32.371 255.727 32.0527C254.07 28.0187 252.174 25.6762 250.255 25.2855C249.233 25.0736 248.142 25.4013 247.001 26.2489Z" fill="#64EDFF"/>
<g opacity="0.3">
<g opacity="0.3">
<path opacity="0.3" d="M195.677 66.631C195.998 69.6744 197.801 72.3639 200.494 73.8236C196.486 73.9313 193.066 70.9376 192.642 66.9496C192.219 62.9616 194.932 59.3175 198.876 58.5804C196.55 60.5701 195.354 63.583 195.677 66.631Z" fill="#6C6C6C"/>
</g>
</g>
<g opacity="0.3">
<g opacity="0.3">
<path opacity="0.3" d="M252.853 33.8038C250.419 31.5716 247.196 29.825 243.184 28.5637C241.064 25.9815 241.81 25.2876 245.426 26.4808C247.656 26.8724 250.134 29.311 252.853 33.8038Z" fill="#6C6C6C"/>
</g>
</g>
<g opacity="0.3">
<g opacity="0.3">
<path opacity="0.3" d="M206.983 31.8858C207.662 30.7582 209.084 30.3285 210.273 30.893C209.499 30.7679 208.754 31.2377 208.535 31.9894C208.321 32.7444 208.637 33.7902 209.416 33.8458C212.63 34.0854 215.804 34.8126 218.918 36.7729C217.628 37.2776 213.873 36.7718 207.653 35.2556C206.594 34.475 206.304 33.0135 206.983 31.8858Z" fill="#6C6C6C"/>
</g>
</g>
<g opacity="0.3">
<g opacity="0.3">
<path opacity="0.3" d="M246.998 25.4917C251.812 27.571 254.405 30.2792 254.779 33.6162C252.268 30.9904 249.485 28.7159 246.431 26.7927C246.349 26.8123 246.538 26.3786 246.998 25.4917Z" fill="#6C6C6C"/>
</g>
</g>
<g opacity="0.3">
<g opacity="0.3">
<path opacity="0.3" d="M266.671 67.4159C264.244 76.2148 255.996 84.1276 244.766 87.2509C229.206 91.5787 213.812 85.0804 210.38 72.7401C208.818 67.1231 210 61.2633 213.225 56.1389C212.285 59.5283 212.215 63.0551 213.17 66.4867C216.602 78.827 232.001 85.324 247.56 80.9962C249.899 80.3457 252.108 79.4882 254.16 78.4552C253.37 78.3782 252.555 78.2643 251.716 78.0988C254.665 77.3306 257.55 76.0612 260.372 74.2904C260.361 74.3566 260.344 74.4196 260.337 74.4801C262.905 72.3987 265.05 70.0022 266.671 67.4159Z" fill="#6C6C6C"/>
</g>
</g>
<path fill-rule="evenodd" clip-rule="evenodd" d="M244.92 87.8013C229.08 92.2069 213.336 85.5189 209.825 72.8941C206.314 60.2694 216.343 46.4128 232.183 42.0072C248.022 37.6016 263.766 44.2896 267.278 56.9144C270.789 69.5392 260.76 83.3957 244.92 87.8013ZM232.489 43.1089C217.259 47.345 207.589 60.5712 210.931 72.5864C214.273 84.6016 229.382 90.9311 244.612 86.6951C259.842 82.459 269.513 69.2373 266.171 57.2221C262.83 45.2069 247.719 38.8729 232.489 43.1089Z" fill="#6C6C6C"/>
<path d="M253.717 60.9011C253.503 63.6846 251.876 65.7229 250.079 65.4541C248.287 65.184 247.001 62.7106 247.214 59.9271C247.427 57.1436 249.054 55.1052 250.851 55.374C252.648 55.6429 253.93 58.1175 253.717 60.9011Z" fill="#6C6C6C"/>
<path d="M252.277 57.7961C252.558 58.7199 252.323 59.6608 251.757 59.8963C251.188 60.1273 250.502 59.5643 250.219 58.6359C249.942 57.7108 250.176 56.7654 250.744 56.5345C251.312 56.3035 251.999 56.8664 252.277 57.7961Z" fill="white"/>
<path d="M249.789 62.8984C250.024 63.3391 249.999 63.8617 249.735 64.0665C249.465 64.2681 249.056 64.0753 248.822 63.6346C248.587 63.1939 248.612 62.6713 248.881 62.4652C249.146 62.265 249.555 62.4577 249.789 62.8984Z" fill="white"/>
<path d="M230.517 56.9645C232.229 56.5613 233.957 58.4011 234.377 61.0668C234.803 63.7357 233.758 66.2204 232.049 66.6179C230.341 67.0198 228.609 65.1813 228.189 62.5156C227.767 59.8455 228.808 57.362 230.517 56.9645Z" fill="#6C6C6C"/>
<path d="M230.719 58.0626C231.285 58.2411 231.586 59.1303 231.388 60.0463C231.19 60.9623 230.574 61.5619 230.007 61.3789C229.442 61.2005 229.141 60.3112 229.339 59.3952C229.536 58.4792 230.154 57.8842 230.719 58.0626Z" fill="white"/>
<path d="M232.946 63.6463C233.224 63.8221 233.291 64.3241 233.098 64.7669C232.904 65.2098 232.528 65.4312 232.251 65.2554C231.978 65.0784 231.911 64.5764 232.104 64.1336C232.297 63.6907 232.675 63.4738 232.946 63.6463Z" fill="white"/>
<g opacity="0.2">
<g opacity="0.2">
<g opacity="0.2">
<path opacity="0.2" d="M214.765 65.8964C214.323 64.2729 214.049 62.5882 213.959 60.8474C213.874 59.2122 213.958 57.6079 214.194 56.0439C218.106 50.1691 224.723 45.3273 232.932 43.0441C247.593 38.9663 262.105 44.4985 266.602 55.4724C266.747 56.3419 266.843 57.2297 266.889 58.1313C266.893 58.179 266.891 58.2234 266.894 58.2711C261.979 47.9097 247.874 42.7943 233.628 46.7566C225.42 49.0398 218.803 53.8816 214.891 59.7563C214.655 61.3203 214.571 62.9247 214.656 64.5598C214.679 65.0106 214.719 65.4519 214.765 65.8964Z" fill="#6C6C6C"/>
</g>
</g>
<g opacity="0.2">
<g opacity="0.2">
<path opacity="0.2" d="M267.112 68.0259C267.144 68.0705 267.176 68.1152 267.203 68.1611C267.05 68.6935 266.875 69.2219 266.681 69.7463C266.844 69.1803 266.991 68.6044 267.112 68.0259Z" fill="#6C6C6C"/>
</g>
</g>
<g opacity="0.2">
<g opacity="0.2">
<path opacity="0.2" d="M214.404 78.2312C214.003 77.2968 213.764 76.3172 213.713 75.31C213.609 73.3103 214.237 71.3699 215.46 69.5604C215.753 70.6466 216.115 71.7037 216.55 72.7258C215.245 74.451 214.492 76.3095 214.404 78.2312Z" fill="#6C6C6C"/>
</g>
</g>
</g>
<path fill-rule="evenodd" clip-rule="evenodd" d="M227.337 17.4341C226.715 20.2579 227.244 23.022 227.928 24.7291L229.487 24.1039C228.903 22.6451 228.442 20.2275 228.978 17.7957C229.504 15.4078 230.996 12.9648 234.408 11.3513L233.689 9.83227C229.782 11.6801 227.969 14.5665 227.337 17.4341Z" fill="#64EDFF"/>
<path d="M230.733 11.2399C231.163 12.7861 232.765 13.691 234.311 13.2609C235.858 12.8308 236.762 11.2287 236.332 9.6825C235.902 8.13628 234.3 7.23145 232.754 7.66151C231.208 8.09158 230.303 9.69368 230.733 11.2399Z" fill="#64EDFF"/>
<path fill-rule="evenodd" clip-rule="evenodd" d="M219.925 14.409C219.924 14.4088 219.927 14.4161 219.936 14.4313C219.93 14.4167 219.926 14.4091 219.925 14.409ZM220.418 14.9422C220.796 14.8677 221.299 14.8144 221.932 14.8031C223.763 14.7704 226.296 15.0934 229.069 15.8175C231.841 16.5416 234.209 17.4985 235.79 18.4225C236.337 18.7418 236.75 19.0343 237.043 19.2841C236.665 19.3586 236.162 19.4119 235.529 19.4232C233.698 19.456 231.165 19.133 228.392 18.4089C225.619 17.6847 223.252 16.7278 221.67 15.8038C221.124 15.4846 220.711 15.1921 220.418 14.9422ZM237.733 19.0598C237.733 19.0595 237.725 19.0639 237.713 19.0739C237.728 19.0651 237.734 19.0601 237.733 19.0598ZM237.535 19.8174C237.536 19.8175 237.533 19.8102 237.525 19.7951C237.53 19.8097 237.535 19.8173 237.535 19.8174ZM219.748 15.1524C219.733 15.1613 219.727 15.1663 219.727 15.1666C219.728 15.1669 219.736 15.1624 219.748 15.1524ZM227.967 20.0347C222.212 18.5317 217.889 16.0053 218.31 14.3918C218.731 12.7783 223.738 12.6887 229.493 14.1917C235.248 15.6947 239.572 18.2211 239.151 19.8346C238.729 21.4481 233.722 21.5376 227.967 20.0347Z" fill="#64EDFF"/>
<path d="M262.377 86.0948L274.034 82.2739C274.017 86.4377 277.027 87.3346 277.848 93.2166L266.504 99.2839L262.377 86.0948Z" fill="#FC7135"/>
<path d="M268.453 81.4955C268.482 81.457 268.507 81.425 268.526 81.3993L271.573 78.6858C271.602 78.6473 271.637 78.6137 271.679 78.5849C272.394 78.0377 273.436 78.0995 274.11 78.729C274.288 78.8936 274.437 79.0968 274.538 79.3238C274.715 79.7296 274.728 80.1926 274.616 80.6214C274.519 80.9104 274.354 81.2089 274.112 81.4491L272.395 83.0825L271.181 84.2499C270.983 84.4324 270.761 84.5666 270.534 84.667C269.896 84.9106 269.178 84.8211 268.634 84.3802C268.582 84.3415 268.53 84.2914 268.475 84.2301C268.297 84.0655 268.148 83.8624 268.066 83.6499C267.74 82.9204 267.863 82.0769 268.453 81.4955Z" fill="#FC7135"/>
<path d="M265.427 81.7645L266.141 80.6308L266.9 79.4674L267.571 78.3636C268.105 77.5398 269.143 77.2593 269.957 77.6791C270.253 77.8521 270.493 78.0754 270.646 78.3584C270.783 78.5769 270.864 78.8459 270.874 79.101C270.915 79.4848 270.82 79.873 270.615 80.2241L269.228 82.5995L268.557 83.7033C268.039 84.5915 266.913 84.9315 266.052 84.4564C265.756 84.2835 265.516 84.0601 265.363 83.7772C265.019 83.1882 265.021 82.4139 265.427 81.7645Z" fill="url(#paint26_linear_15739_105548)"/>
<path d="M262.332 82.8264L262.965 81.3672L263.643 79.865L264.229 78.4489C264.705 77.3858 265.856 76.8628 266.867 77.2003C267.238 77.3467 267.553 77.5625 267.778 77.8644C267.973 78.094 268.113 78.3931 268.167 78.6893C268.28 79.1301 268.237 79.6014 268.06 80.0503L266.863 83.0869L266.276 84.503C265.829 85.6384 264.588 86.2474 263.513 85.8542C263.142 85.7079 262.826 85.4921 262.602 85.1901C262.104 84.5668 261.974 83.6616 262.332 82.8264Z" fill="url(#paint27_linear_15739_105548)"/>
<path d="M267.295 96.8251C267.295 96.8251 265.238 95.4566 264.295 93.1778C264.295 93.1778 263.404 90.8543 262.512 88.5307C261.317 85.4179 260.229 83.2759 260.229 83.2759C257.152 79.8869 260.119 76.4938 262.877 79.0612L267.617 86.3183C267.617 86.3183 276.734 90.3039 267.295 96.8251Z" fill="url(#paint28_linear_15739_105548)"/>
<rect x="258.223" y="76.2334" width="3.9439" height="18.5927" rx="1.97195" transform="rotate(-44.7226 258.223 76.2334)" fill="#A584FF"/>
<path d="M276.643 80.825C277.109 81.3482 277.288 82.0552 277.084 82.712L275.81 86.4846C275.487 87.4705 274.426 87.9459 273.414 87.6014C273.13 87.5124 272.874 87.3541 272.663 87.1425C272.613 87.0994 272.575 87.0671 272.55 87.0456C272.528 86.9955 272.49 86.9632 272.471 86.9471C272.035 86.3884 271.872 85.6636 272.129 85.0214L273.512 81.3118C273.712 80.7745 274.152 80.4133 274.683 80.2523C274.748 80.2265 274.82 80.2061 274.899 80.1911C275.186 80.1606 275.477 80.164 275.78 80.2691C276.134 80.3888 276.429 80.5795 276.643 80.825Z" fill="url(#paint29_linear_15739_105548)"/>
<path d="M269.815 84.5552L269.871 84.3112L270.604 80.5272C270.682 80.0428 270.95 79.6235 271.309 79.3475C271.473 79.2283 271.649 79.1303 271.837 79.0538C272.091 78.9476 272.355 78.9028 272.626 78.9195C273.119 78.9525 273.534 79.1467 273.839 79.5055C274.054 79.7549 274.188 80.0639 274.255 80.4138C274.286 80.5919 274.284 80.7848 274.249 80.9925L273.594 85.0063C273.425 86.0614 272.463 86.8261 271.46 86.7449C271.053 86.7199 270.706 86.5525 270.441 86.3254C270.406 86.2951 270.371 86.2648 270.335 86.2345C270.3 86.2042 270.265 86.174 270.229 86.1437C269.871 85.7394 269.692 85.1633 269.815 84.5552Z" fill="url(#paint30_linear_15739_105548)"/>
<path d="M270.784 77.4363C271.193 77.7875 271.475 78.2874 271.468 78.8612L271.565 83.0057C271.595 84.0631 270.761 84.9598 269.687 85.0061C269.22 85.024 268.792 84.8826 268.459 84.6298C268.406 84.6164 268.369 84.5845 268.35 84.5685C267.903 84.1853 267.6 83.635 267.621 83.008L267.665 78.8876C267.678 78.3829 267.869 77.9342 268.174 77.6158C268.493 77.2444 268.928 77.0378 269.447 76.9987C269.949 76.9781 270.395 77.1355 270.784 77.4363Z" fill="url(#paint31_linear_15739_105548)"/>
<path d="M267.241 77.2663C267.651 77.6176 267.933 78.1174 267.925 78.6913L268.022 82.8358C268.052 83.8931 267.218 84.7899 266.145 84.8362C265.677 84.8541 265.249 84.7127 264.917 84.4599C264.864 84.4465 264.826 84.4146 264.808 84.3986C264.361 84.0154 264.057 83.4651 264.078 82.8381L264.123 78.7177C264.135 78.213 264.326 77.7643 264.632 77.4459C264.95 77.0744 265.386 76.8679 265.904 76.8287C266.406 76.8082 266.853 76.9656 267.241 77.2663Z" fill="url(#paint32_linear_15739_105548)"/>
<path d="M279.33 90.4434C280.048 90.1358 280.881 90.4301 281.247 91.1201C281.733 92.0392 282.301 93.0722 282.925 94.2081C285.358 98.6359 288.65 104.627 291.362 111.532C292.265 113.832 291.74 115.941 290.404 117.535C289.128 119.058 287.169 120.067 285.145 120.556C283.108 121.048 280.832 121.059 278.811 120.4C276.764 119.732 274.926 118.352 274.008 116.076C273.47 114.743 272.895 113.336 272.313 111.91C271.438 109.769 270.546 107.588 269.742 105.56C268.409 102.201 267.256 99.1149 266.78 97.1918C266.603 96.4785 266.969 95.7422 267.645 95.4527L279.33 90.4434Z" fill="url(#paint33_linear_15739_105548)" stroke="#64EDFF" stroke-width="3" stroke-linejoin="round"/>
<path d="M245.056 150.001C244.939 150.549 244.695 151.04 244.406 151.517C244.108 151.977 243.755 152.408 243.355 152.799C242.954 153.181 242.517 153.55 242.036 153.817C241.557 154.094 241.037 154.313 240.5 154.421C240.021 154.515 239.56 154.208 239.467 153.738C239.392 153.38 239.552 153.027 239.84 152.837L239.906 152.796C240.102 152.658 240.32 152.56 240.528 152.455C240.726 152.342 240.954 152.262 241.153 152.157C241.578 151.955 241.996 151.762 242.42 151.551C243.25 151.105 244.072 150.573 244.837 149.889L244.845 149.88C244.893 149.832 244.98 149.833 245.029 149.89C245.057 149.914 245.061 149.957 245.056 150.001Z" fill="#64EDFF"/>
<path d="M195.651 169.903L201.51 157.517L225.712 161.142L219.538 172.509L195.651 169.903Z" fill="#5156C0"/>
<path d="M221.448 181.084C216.861 183.586 189.445 188.074 186.542 182.259C186.263 181.696 186.177 181.118 186.268 180.523C186.665 177.756 189.622 172.174 194.284 169.678C198.946 167.172 205.322 167.741 205.322 167.741L221.447 170.531C221.447 170.531 222.729 174.399 222.916 178.151C222.991 179.386 222.593 180.456 221.447 181.093L221.448 181.084Z" fill="url(#paint34_linear_15739_105548)"/>
<path d="M221.447 181.081C216.86 183.583 189.445 188.071 186.542 182.256C186.263 181.693 186.329 178.882 186.419 178.287C191.859 179.696 205.538 181.876 223.068 175.914C223.142 177.149 222.592 180.453 221.447 181.09L221.447 181.081Z" fill="#3167D5"/>
<path d="M251.215 121.736C251.188 121.708 251.633 121.775 252.282 121.485C252.621 121.327 252.991 121.03 253.282 120.563C253.4 120.343 253.518 120.067 253.582 119.762C253.617 119.484 253.599 119.121 253.607 118.786C253.682 115.943 253.76 111.873 253.89 106.856C253.923 105.592 253.948 104.272 253.966 102.897C253.983 102.228 253.693 101.579 253.175 101.119C252.902 100.917 252.599 100.741 252.266 100.677C251.934 100.585 251.571 100.603 251.181 100.593C248.226 100.516 245.076 100.434 241.731 100.347C235.07 100.173 227.739 99.982 220.074 99.7822C219.154 99.7582 218.274 100.349 217.945 101.177C217.739 101.59 217.756 102.037 217.743 102.511C217.731 102.975 217.719 103.449 217.706 103.932C217.658 105.791 217.61 107.63 217.562 109.451C217.515 111.272 217.469 113.047 217.424 114.775C217.401 115.649 217.378 116.513 217.356 117.367C217.345 117.786 217.306 118.231 217.323 118.65C217.34 119.041 217.47 119.434 217.685 119.747C218.113 120.427 218.884 120.81 219.666 120.775C220.484 120.796 221.283 120.817 222.063 120.837C223.642 120.897 225.175 120.946 226.662 120.985C229.616 121.062 232.376 121.134 234.912 121.2C239.929 121.359 243.998 121.493 246.841 121.567C248.234 121.603 249.321 121.659 250.073 121.679C250.445 121.688 250.724 121.696 250.91 121.701C251.039 121.722 251.141 121.734 251.215 121.736C251.141 121.734 251.039 121.741 250.908 121.756C250.722 121.751 250.444 121.744 250.072 121.734C249.319 121.715 248.232 121.714 246.838 121.678C243.995 121.604 239.924 121.526 234.906 121.423C232.37 121.357 229.61 121.285 226.656 121.208C225.169 121.169 223.636 121.139 222.056 121.116C221.275 121.096 220.476 121.075 219.659 121.054C218.821 121.087 217.94 120.646 217.457 119.908C217.216 119.539 217.06 119.089 217.044 118.642C217.055 118.196 217.066 117.806 217.077 117.36C217.1 116.505 217.122 115.641 217.145 114.768C217.19 113.04 217.236 111.265 217.284 109.444C217.331 107.623 217.379 105.783 217.427 103.925C217.44 103.442 217.452 102.968 217.464 102.503C217.476 102.058 217.462 101.527 217.669 101.058C218.056 100.12 219.05 99.4487 220.081 99.5035C227.746 99.7032 235.077 99.8942 241.739 100.068C245.083 100.183 248.233 100.265 251.187 100.342C251.55 100.351 251.941 100.334 252.329 100.427C252.689 100.521 253.046 100.725 253.319 100.955C253.892 101.444 254.208 102.178 254.189 102.903C254.153 104.278 254.118 105.597 254.086 106.861C253.927 111.877 253.821 115.947 253.719 118.789C253.71 119.124 253.729 119.459 253.665 119.792C253.601 120.097 253.482 120.373 253.336 120.62C253.045 121.087 252.647 121.383 252.309 121.514C251.97 121.672 251.69 121.721 251.494 121.744C251.364 121.74 251.271 121.738 251.215 121.736Z" fill="#64EDFF"/>
<path d="M222.923 115.781C223.493 115.796 223.967 115.346 223.982 114.776C223.996 114.207 223.547 113.733 222.977 113.718C222.408 113.703 221.934 114.153 221.919 114.723C221.904 115.292 222.354 115.766 222.923 115.781Z" fill="#64EDFF"/>
<path fill-rule="evenodd" clip-rule="evenodd" d="M222.934 115.371C223.277 115.38 223.563 115.109 223.572 114.766C223.581 114.422 223.31 114.137 222.966 114.128C222.623 114.119 222.337 114.39 222.328 114.733C222.32 115.077 222.591 115.362 222.934 115.371ZM223.982 114.776C223.967 115.346 223.493 115.796 222.923 115.781C222.354 115.766 221.904 115.292 221.919 114.723C221.934 114.153 222.408 113.703 222.977 113.718C223.547 113.733 223.996 114.207 223.982 114.776Z" fill="#64EDFF"/>
<path d="M226.43 115.873C227 115.888 227.474 115.438 227.488 114.868C227.503 114.299 227.054 113.825 226.484 113.81C225.914 113.795 225.441 114.245 225.426 114.815C225.411 115.384 225.861 115.858 226.43 115.873Z" fill="#64EDFF"/>
<path fill-rule="evenodd" clip-rule="evenodd" d="M226.441 115.463C226.784 115.472 227.07 115.201 227.079 114.858C227.088 114.514 226.817 114.229 226.473 114.22C226.13 114.211 225.844 114.482 225.835 114.825C225.826 115.169 226.098 115.454 226.441 115.463ZM227.488 114.868C227.474 115.438 227 115.888 226.43 115.873C225.861 115.858 225.411 115.384 225.426 114.815C225.441 114.245 225.914 113.795 226.484 113.81C227.054 113.825 227.503 114.299 227.488 114.868Z" fill="#64EDFF"/>
<path d="M229.836 115.958C230.406 115.973 230.879 115.523 230.894 114.953C230.909 114.384 230.459 113.91 229.89 113.895C229.32 113.88 228.846 114.33 228.832 114.899C228.817 115.469 229.266 115.943 229.836 115.958Z" fill="#64EDFF"/>
<path fill-rule="evenodd" clip-rule="evenodd" d="M229.847 115.548C230.19 115.557 230.476 115.286 230.485 114.943C230.494 114.599 230.222 114.314 229.879 114.305C229.536 114.296 229.25 114.567 229.241 114.91C229.232 115.254 229.503 115.539 229.847 115.548ZM230.894 114.953C230.879 115.523 230.406 115.973 229.836 115.958C229.266 115.943 228.817 115.469 228.832 114.899C228.846 114.33 229.32 113.88 229.89 113.895C230.459 113.91 230.909 114.384 230.894 114.953Z" fill="#64EDFF"/>
<path d="M233.203 116.048C233.772 116.062 234.246 115.613 234.261 115.043C234.276 114.473 233.826 114 233.256 113.985C232.687 113.97 232.213 114.42 232.198 114.989C232.183 115.559 232.633 116.033 233.203 116.048Z" fill="#64EDFF"/>
<path fill-rule="evenodd" clip-rule="evenodd" d="M233.213 115.638C233.557 115.647 233.842 115.376 233.851 115.032C233.86 114.689 233.589 114.403 233.246 114.394C232.902 114.385 232.617 114.657 232.608 115C232.599 115.343 232.87 115.629 233.213 115.638ZM234.261 115.043C234.246 115.613 233.772 116.062 233.203 116.048C232.633 116.033 232.183 115.559 232.198 114.989C232.213 114.42 232.687 113.97 233.256 113.985C233.826 114 234.276 114.473 234.261 115.043Z" fill="#64EDFF"/>
<path d="M232.935 108.49L223.598 108.247C222.929 108.229 222.385 107.685 222.403 106.988C222.421 106.319 222.993 105.776 223.662 105.794L232.999 106.037C233.668 106.054 234.211 106.626 234.194 107.295C234.176 107.992 233.604 108.507 232.935 108.49Z" fill="#64EDFF"/>
<path fill-rule="evenodd" clip-rule="evenodd" d="M223.608 107.837L232.946 108.08C233.395 108.092 233.772 107.749 233.784 107.285C233.796 106.842 233.431 106.458 232.989 106.447L223.651 106.203C223.208 106.192 222.824 106.556 222.813 106.999C222.801 107.463 223.159 107.825 223.608 107.837ZM223.598 108.247L232.935 108.49C233.604 108.507 234.176 107.992 234.194 107.295C234.211 106.626 233.668 106.054 232.999 106.037L223.662 105.794C222.993 105.776 222.421 106.319 222.403 106.988C222.385 107.685 222.929 108.229 223.598 108.247Z" fill="#64EDFF"/>
<path d="M223.217 111.893C223.786 111.908 224.26 111.458 224.275 110.889C224.29 110.319 223.84 109.845 223.271 109.831C222.701 109.816 222.227 110.265 222.212 110.835C222.198 111.405 222.647 111.878 223.217 111.893Z" fill="#64EDFF"/>
<path fill-rule="evenodd" clip-rule="evenodd" d="M223.228 111.484C223.571 111.493 223.857 111.222 223.865 110.878C223.874 110.535 223.603 110.249 223.26 110.24C222.917 110.231 222.631 110.502 222.622 110.846C222.613 111.189 222.884 111.475 223.228 111.484ZM224.275 110.889C224.26 111.458 223.786 111.908 223.217 111.893C222.647 111.878 222.198 111.405 222.212 110.835C222.227 110.265 222.701 109.816 223.271 109.831C223.84 109.845 224.29 110.319 224.275 110.889Z" fill="#64EDFF"/>
<path d="M226.703 111.983C227.273 111.998 227.747 111.548 227.761 110.979C227.776 110.409 227.326 109.935 226.757 109.92C226.187 109.906 225.714 110.355 225.699 110.925C225.684 111.494 226.134 111.968 226.703 111.983Z" fill="#64EDFF"/>
<path fill-rule="evenodd" clip-rule="evenodd" d="M226.714 111.574C227.057 111.582 227.343 111.311 227.352 110.968C227.361 110.625 227.09 110.339 226.746 110.33C226.403 110.321 226.117 110.592 226.108 110.936C226.099 111.279 226.37 111.565 226.714 111.574ZM227.761 110.979C227.747 111.548 227.273 111.998 226.703 111.983C226.134 111.968 225.684 111.494 225.699 110.925C225.714 110.355 226.187 109.906 226.757 109.92C227.326 109.935 227.776 110.409 227.761 110.979Z" fill="#64EDFF"/>
<path d="M230.098 112.07C230.668 112.085 231.142 111.635 231.156 111.066C231.171 110.496 230.722 110.022 230.152 110.007C229.582 109.993 229.109 110.442 229.094 111.012C229.079 111.581 229.529 112.055 230.098 112.07Z" fill="#64EDFF"/>
<path fill-rule="evenodd" clip-rule="evenodd" d="M230.109 111.66C230.452 111.669 230.738 111.398 230.747 111.055C230.756 110.711 230.485 110.426 230.141 110.417C229.798 110.408 229.512 110.679 229.503 111.022C229.494 111.366 229.765 111.651 230.109 111.66ZM231.156 111.066C231.142 111.635 230.668 112.085 230.098 112.07C229.529 112.055 229.079 111.581 229.094 111.012C229.109 110.442 229.582 109.993 230.152 110.007C230.722 110.022 231.171 110.496 231.156 111.066Z" fill="#64EDFF"/>
<path d="M233.503 112.159C234.073 112.174 234.547 111.724 234.562 111.154C234.577 110.585 234.127 110.111 233.557 110.096C232.988 110.081 232.514 110.531 232.499 111.101C232.484 111.67 232.934 112.144 233.503 112.159Z" fill="#64EDFF"/>
<path fill-rule="evenodd" clip-rule="evenodd" d="M233.514 111.749C233.858 111.758 234.143 111.487 234.152 111.144C234.161 110.8 233.89 110.515 233.547 110.506C233.203 110.497 232.918 110.768 232.909 111.111C232.9 111.455 233.171 111.74 233.514 111.749ZM234.562 111.154C234.547 111.724 234.073 112.174 233.503 112.159C232.934 112.144 232.484 111.67 232.499 111.101C232.514 110.531 232.988 110.081 233.557 110.096C234.127 110.111 234.577 110.585 234.562 111.154Z" fill="#64EDFF"/>
<path d="M247.922 105.609L242.236 105.46C241.728 105.447 241.305 105.848 241.292 106.356L241.144 112.043C241.131 112.551 241.532 112.973 242.04 112.986L247.726 113.135C248.234 113.148 248.656 112.747 248.67 112.239L248.818 106.552C248.831 106.044 248.43 105.622 247.922 105.609Z" fill="#64EDFF"/>
<path fill-rule="evenodd" clip-rule="evenodd" d="M247.911 106.018L242.225 105.87C241.943 105.863 241.709 106.085 241.702 106.367L241.553 112.053C241.546 112.335 241.768 112.57 242.05 112.577L247.737 112.725C248.018 112.732 248.253 112.51 248.26 112.228L248.408 106.542C248.416 106.26 248.193 106.026 247.911 106.018ZM242.236 105.46L247.922 105.609C248.43 105.622 248.831 106.044 248.818 106.552L248.67 112.239C248.656 112.747 248.234 113.148 247.726 113.135L242.04 112.986C241.532 112.973 241.131 112.551 241.144 112.043L241.292 106.356C241.305 105.848 241.728 105.447 242.236 105.46Z" fill="#64EDFF"/>
<path d="M248.135 116.724L241.473 116.551C240.888 116.535 240.426 116.049 240.441 115.492C240.456 114.906 240.942 114.445 241.527 114.46L248.189 114.634C248.775 114.649 249.236 115.135 249.221 115.721C249.206 116.278 248.72 116.74 248.135 116.724Z" fill="#64EDFF"/>
<path fill-rule="evenodd" clip-rule="evenodd" d="M241.484 116.141L248.145 116.315C248.512 116.324 248.803 116.034 248.811 115.71C248.821 115.351 248.538 115.053 248.179 115.043L241.517 114.87C241.158 114.86 240.86 115.143 240.85 115.502C240.842 115.827 241.117 116.132 241.484 116.141ZM241.473 116.551L248.135 116.724C248.72 116.74 249.206 116.278 249.221 115.721C249.236 115.135 248.775 114.649 248.189 114.634L241.527 114.46C240.942 114.445 240.456 114.906 240.441 115.492C240.426 116.049 240.888 116.535 241.473 116.551Z" fill="#64EDFF"/>
<mask id="mask0_15739_105548" style="mask-type:alpha" maskUnits="userSpaceOnUse" x="204" y="141" width="63" height="19">
<path d="M226.338 158.989L204.26 148.492L207.135 141.49L235.317 141.606L264.016 142.953L266.27 153.902L245.484 159.691C245.14 158.868 244.007 156.712 242.226 154.671C240.001 152.121 234.546 152.95 232.077 153.981C230.101 154.807 227.428 157.664 226.338 158.989Z" fill="#D9D9D9"/>
</mask>
<g mask="url(#mask0_15739_105548)">
<path d="M230.469 158.211C230.216 158.216 229.969 158.111 229.796 157.903C229.701 157.787 219.762 145.824 210.834 145.127C208.315 144.931 206.093 145.683 204.226 147.349C203.877 147.659 203.345 147.627 203.034 147.279C202.723 146.93 202.755 146.398 203.104 146.087C205.328 144.103 207.978 143.216 210.971 143.445C220.617 144.195 230.677 156.316 231.1 156.831C231.395 157.197 231.346 157.73 230.989 158.024C230.83 158.145 230.646 158.208 230.469 158.211Z" fill="#64EDFF"/>
<path d="M242.84 156.191C243.055 156.224 243.276 156.164 243.447 156.007C243.541 155.919 253.37 146.913 261.032 147.357C263.194 147.483 264.994 148.379 266.387 150.01C266.647 150.314 267.103 150.349 267.407 150.089C267.711 149.829 267.746 149.373 267.486 149.069C265.827 147.126 263.68 146.065 261.112 145.912C252.833 145.431 242.883 154.557 242.464 154.946C242.172 155.222 242.151 155.68 242.42 155.971C242.541 156.092 242.69 156.167 242.84 156.191Z" fill="#64EDFF"/>
</g>
<path d="M248.382 173.15L246.636 162.718L267.599 157.759L270.779 168.779L270.29 168.746L248.382 173.15Z" fill="#5156C0"/>
<path d="M246.467 182.203C251.337 184.06 279.092 184.872 281.22 178.777C281.425 178.187 281.435 177.608 281.269 177.035C280.519 174.368 276.868 169.272 271.925 167.43C266.98 165.579 260.733 166.976 260.733 166.976L247.839 169.912C247.839 169.912 244.336 175.803 244.633 179.514C244.718 180.738 245.251 181.736 246.469 182.212L246.467 182.203Z" fill="url(#paint35_linear_15739_105548)"/>
<path d="M246.472 182.205C251.342 184.061 279.098 184.873 281.226 178.778C281.43 178.189 281.002 175.435 280.836 174.862C275.625 176.961 262.346 180.898 244.2 177.341C244.285 178.564 245.257 181.738 246.474 182.214L246.472 182.205Z" fill="#3167D5"/>
<path opacity="0.5" d="M245.733 67.1833C247.416 72.8623 253.384 76.1022 259.063 74.4197C264.742 72.7371 267.982 66.7694 266.299 61.0903C264.617 55.4113 258.649 52.1714 252.97 53.8539C247.291 55.5364 244.051 61.5042 245.733 67.1833Z" fill="#EFE9FF"/>
<path d="M269.17 60.2394C271.377 67.6916 267.126 75.5226 259.674 77.7304C252.222 79.9383 244.391 75.6869 242.183 68.2347C239.975 60.7824 244.226 52.9514 251.679 50.7436C259.131 48.5357 266.962 52.7871 269.17 60.2394ZM245.478 67.2584C247.147 72.8907 253.065 76.1039 258.698 74.4352C264.33 72.7666 267.543 66.8479 265.874 61.2156C264.206 55.5833 258.287 52.3701 252.655 54.0388C247.022 55.7075 243.809 61.6261 245.478 67.2584Z" fill="#A584FF"/>
<path d="M238.797 79.5794C238.797 80.9499 237.926 81.8619 237.071 81.8619C236.216 81.8619 235.345 80.9499 235.345 79.5794C235.345 78.2089 236.216 77.2969 237.071 77.2969C237.926 77.2969 238.797 78.2089 238.797 79.5794Z" fill="#FF7E7E" stroke="#6C6C6C"/>
<path d="M195.565 123.121L181.043 122.493C182.395 127.237 179.248 129.224 180.194 136.197L195.078 139.489L195.565 123.121Z" fill="#FC7135"/>
<path d="M187.162 119.817C187.116 119.782 187.079 119.753 187.048 119.73L182.704 117.61C182.659 117.575 182.607 117.548 182.55 117.528C181.559 117.133 180.39 117.537 179.823 118.471C179.673 118.716 179.568 118.995 179.525 119.286C179.453 119.806 179.586 120.339 179.851 120.792C180.055 121.09 180.338 121.378 180.691 121.575L183.172 122.889L184.931 123.832C185.216 123.977 185.512 124.059 185.803 124.101C186.609 124.175 187.4 123.843 187.879 123.166C187.925 123.105 187.97 123.031 188.012 122.944C188.163 122.699 188.268 122.419 188.293 122.151C188.431 121.214 188.021 120.291 187.162 119.817Z" fill="#FC7135"/>
<path d="M190.698 119.155L189.519 118.091L188.281 117.006L187.163 115.962C186.29 115.193 185.016 115.205 184.222 115.944C183.94 116.236 183.737 116.568 183.654 116.939C183.567 117.233 183.56 117.566 183.631 117.86C183.707 118.311 183.939 118.723 184.285 119.058L186.628 121.324L187.747 122.369C188.623 123.216 190.015 123.244 190.846 122.427C191.128 122.134 191.331 121.803 191.414 121.431C191.619 120.649 191.368 119.766 190.698 119.155Z" fill="url(#paint36_linear_15739_105548)"/>
<path d="M194.57 119.379L193.381 117.917L192.127 116.42L191.005 114.992C190.121 113.932 188.642 113.703 187.596 114.412C187.219 114.697 186.929 115.045 186.77 115.461C186.62 115.785 186.556 116.171 186.589 116.527C186.602 117.065 186.801 117.589 187.147 118.045L189.484 121.126L190.606 122.554C191.48 123.706 193.091 124.004 194.192 123.211C194.569 122.925 194.859 122.578 195.018 122.162C195.387 121.292 195.245 120.217 194.57 119.379Z" fill="url(#paint37_linear_15739_105548)"/>
<path d="M194.724 139.042C194.724 139.042 196.291 134.841 196.638 131.94C196.638 131.94 197.362 127.086 196.498 124.182C195.501 120.831 191.416 116.811 191.416 116.811L188.556 121.565L189.66 125.051C189.66 125.051 181.868 134.623 194.724 139.042Z" fill="url(#paint38_linear_15739_105548)"/>
<path d="M249.283 106.161L163.62 126.747L229.934 147.289L249.283 142.819V106.161Z" fill="url(#paint39_linear_15739_105548)"/>
<path d="M249.28 143.348L317.678 126.747L249.28 106.161V143.348Z" fill="url(#paint40_linear_15739_105548)"/>
<path d="M230.025 147.331L317.681 126.745V219.049L230.025 242.955L230.025 147.331Z" fill="url(#paint41_linear_15739_105548)"/>
<path d="M317.551 172.77L251.835 181.242L230.377 146.842L317.551 126.725V172.77Z" fill="#B7A9E0"/>
<path d="M333.649 155.334L251.839 176.792L230.025 146.667L317.681 126.745L333.649 155.334Z" fill="url(#paint42_linear_15739_105548)"/>
<path d="M230.025 147.331L163.619 126.745V219.049L230.025 242.955V147.331Z" fill="url(#paint43_linear_15739_105548)"/>
<path d="M163.616 126.745L139.628 153.099L205.344 176.345L230.022 146.667L163.616 126.745Z" fill="url(#paint44_linear_15739_105548)"/>
<path d="M354.854 171.306L318.189 180.116L346.572 188.909L354.854 186.995V171.306Z" fill="url(#paint45_linear_15739_105548)"/>
<path d="M354.851 187.222L384.126 180.116L354.851 171.306V187.222Z" fill="url(#paint46_linear_15739_105548)"/>
<path d="M346.61 188.925L384.127 180.114V219.621L346.61 229.852L346.61 188.925Z" fill="url(#paint47_linear_15739_105548)"/>
<path d="M384.073 199.815L355.946 203.441L346.762 188.718L384.073 180.107V199.815Z" fill="#B7A9E0"/>
<path d="M390.961 192.35L355.947 201.535L346.61 188.641L384.127 180.114L390.961 192.35Z" fill="url(#paint48_linear_15739_105548)"/>
<path d="M346.61 188.925L318.189 180.114V219.621L346.61 229.852V188.925Z" fill="url(#paint49_linear_15739_105548)"/>
<path d="M318.188 180.114L307.921 191.394L336.048 201.343L346.61 188.641L318.188 180.114Z" fill="url(#paint50_linear_15739_105548)"/>
<path d="M156.128 186.593L119.464 195.404L147.847 204.196L156.128 202.282V186.593Z" fill="url(#paint51_linear_15739_105548)"/>
<path d="M156.126 202.509L185.401 195.404L156.126 186.593V202.509Z" fill="url(#paint52_linear_15739_105548)"/>
<path d="M147.885 204.213L185.402 195.402V234.909L147.885 245.141L147.885 204.213Z" fill="url(#paint53_linear_15739_105548)"/>
<path d="M185.347 215.102L157.221 218.728L148.037 204.005L185.347 195.395V215.102Z" fill="#B7A9E0"/>
<path d="M192.236 207.639L157.222 216.823L147.885 203.929L185.402 195.402L192.236 207.639Z" fill="url(#paint54_linear_15739_105548)"/>
<path d="M147.885 204.213L119.463 195.402V234.909L147.885 245.141V204.213Z" fill="url(#paint55_linear_15739_105548)"/>
<path d="M119.463 195.402L109.196 206.682L137.322 216.631L147.885 203.929L119.463 195.402Z" fill="url(#paint56_linear_15739_105548)"/>
<path d="M142.572 156.019L111.378 163.515L135.526 170.995L142.572 169.367V156.019Z" fill="url(#paint57_linear_15739_105548)"/>
<path d="M142.571 169.56L167.478 163.515L142.571 156.019V169.56Z" fill="url(#paint58_linear_15739_105548)"/>
<path d="M135.559 171.011L167.479 163.515V197.127L135.559 205.832L135.559 171.011Z" fill="url(#paint59_linear_15739_105548)"/>
<path d="M167.433 180.274L143.503 183.359L135.689 170.832L167.433 163.507V180.274Z" fill="#B7A9E0"/>
<path d="M173.293 173.925L143.503 181.739L135.559 170.769L167.479 163.515L173.293 173.925Z" fill="url(#paint60_linear_15739_105548)"/>
<path d="M135.559 171.011L111.378 163.515V197.127L135.559 205.832V171.011Z" fill="url(#paint61_linear_15739_105548)"/>
<path d="M111.377 163.515L102.642 173.111L126.572 181.576L135.558 170.769L111.377 163.515Z" fill="url(#paint62_linear_15739_105548)"/>
<path d="M363.028 153.836L342.156 158.852L358.314 163.857L363.028 162.768V153.836Z" fill="url(#paint63_linear_15739_105548)"/>
<path d="M363.026 162.897L379.692 158.852L363.026 153.836V162.897Z" fill="url(#paint64_linear_15739_105548)"/>
<path d="M358.333 163.867L379.691 158.852V181.342L358.333 187.167L358.333 163.867Z" fill="url(#paint65_linear_15739_105548)"/>
<path d="M379.663 170.066L363.651 172.13L358.422 163.748L379.663 158.847V170.066Z" fill="#B7A9E0"/>
<path d="M383.582 165.817L363.649 171.046L358.333 163.706L379.691 158.852L383.582 165.817Z" fill="url(#paint66_linear_15739_105548)"/>
<path d="M358.333 163.867L342.154 158.852V181.342L358.333 187.167V163.867Z" fill="url(#paint67_linear_15739_105548)"/>
<path d="M342.155 158.852L336.311 165.273L352.322 170.937L358.335 163.706L342.155 158.852Z" fill="url(#paint68_linear_15739_105548)"/>
<g opacity="0.5">
<path d="M178.337 122.684C177.972 123.43 177.995 124.294 178.438 124.978L181.099 128.874C181.783 129.896 183.146 130.098 184.19 129.381C184.485 129.189 184.727 128.927 184.899 128.618C184.943 128.553 184.976 128.504 184.997 128.471C185.007 128.407 185.04 128.358 185.056 128.333C185.374 127.556 185.328 126.677 184.83 126.027L182.064 122.238C181.665 121.688 181.047 121.417 180.39 121.403C180.307 121.395 180.218 121.395 180.124 121.403C179.787 121.46 179.455 121.557 179.144 121.774C178.778 122.024 178.503 122.335 178.337 122.684Z" fill="black"/>
<path d="M187.32 124.756L187.178 124.496L185.131 120.413C184.886 119.886 184.447 119.493 183.948 119.293C183.724 119.21 183.492 119.154 183.252 119.127C182.928 119.087 182.614 119.121 182.309 119.226C181.758 119.422 181.346 119.776 181.113 120.283C180.947 120.637 180.894 121.032 180.929 121.453C180.95 121.666 181.015 121.885 181.121 122.111L183.152 126.481C183.683 127.63 185.026 128.194 186.144 127.781C186.601 127.622 186.942 127.32 187.172 126.976C187.202 126.93 187.233 126.885 187.264 126.839C187.294 126.793 187.325 126.747 187.355 126.701C187.634 126.125 187.655 125.411 187.32 124.756Z" fill="black"/>
<path d="M183.933 116.944C183.578 117.476 183.416 118.137 183.609 118.789L184.825 123.548C185.129 124.764 186.367 125.52 187.607 125.23C188.146 125.1 188.589 124.802 188.887 124.407C188.944 124.375 188.976 124.327 188.992 124.303C189.379 123.722 189.549 122.997 189.325 122.289L187.956 117.602C187.779 117.03 187.418 116.58 186.968 116.314C186.485 115.992 185.922 115.896 185.319 116.017C184.739 116.155 184.28 116.477 183.933 116.944Z" fill="black"/>
<path d="M187.92 115.617C187.565 116.149 187.403 116.81 187.595 117.462L188.812 122.221C189.116 123.437 190.354 124.193 191.593 123.903C192.133 123.773 192.576 123.475 192.874 123.08C192.93 123.048 192.963 123 192.979 122.975C193.366 122.395 193.536 121.67 193.312 120.962L191.943 116.275C191.766 115.703 191.405 115.253 190.955 114.987C190.472 114.665 189.909 114.569 189.305 114.69C188.726 114.827 188.267 115.15 187.92 115.617Z" fill="black"/>
</g>
<path d="M177.926 122.403C177.562 123.149 177.585 124.013 178.027 124.697L180.688 128.593C181.372 129.614 182.735 129.817 183.779 129.1C184.074 128.908 184.316 128.645 184.489 128.337C184.532 128.271 184.565 128.222 184.587 128.19C184.596 128.126 184.629 128.077 184.645 128.052C184.964 127.275 184.918 126.396 184.42 125.746L181.654 121.956C181.254 121.407 180.636 121.136 179.98 121.122C179.896 121.114 179.808 121.113 179.714 121.121C179.376 121.179 179.045 121.276 178.734 121.492C178.367 121.742 178.093 122.054 177.926 122.403Z" fill="url(#paint69_linear_15739_105548)"/>
<path d="M186.909 124.475L186.767 124.214L184.72 120.132C184.476 119.604 184.036 119.212 183.538 119.012C183.313 118.928 183.081 118.873 182.842 118.846C182.518 118.806 182.203 118.839 181.899 118.945C181.347 119.14 180.935 119.495 180.702 120.002C180.537 120.355 180.483 120.75 180.518 121.171C180.54 121.384 180.604 121.603 180.711 121.829L182.742 126.199C183.273 127.348 184.615 127.913 185.733 127.499C186.19 127.34 186.532 127.038 186.761 126.695C186.792 126.649 186.823 126.603 186.853 126.557C186.884 126.511 186.914 126.465 186.945 126.42C187.224 125.844 187.245 125.129 186.909 124.475Z" fill="url(#paint70_linear_15739_105548)"/>
<path d="M183.522 116.663C183.167 117.195 183.005 117.855 183.197 118.508L184.413 123.267C184.717 124.483 185.956 125.239 187.195 124.948C187.735 124.819 188.178 124.521 188.476 124.126C188.532 124.094 188.565 124.045 188.581 124.021C188.968 123.441 189.138 122.716 188.914 122.007L187.544 117.321C187.368 116.749 187.007 116.298 186.556 116.033C186.074 115.711 185.511 115.615 184.907 115.736C184.328 115.873 183.869 116.196 183.522 116.663Z" fill="url(#paint71_linear_15739_105548)"/>
<path d="M187.509 115.336C187.154 115.868 186.992 116.528 187.184 117.181L188.4 121.94C188.704 123.156 189.942 123.912 191.182 123.621C191.721 123.492 192.164 123.194 192.463 122.799C192.519 122.767 192.551 122.718 192.567 122.694C192.955 122.114 193.125 121.389 192.9 120.68L191.531 115.994C191.355 115.422 190.994 114.971 190.543 114.706C190.061 114.384 189.498 114.288 188.894 114.409C188.315 114.546 187.855 114.869 187.509 115.336Z" fill="url(#paint72_linear_15739_105548)"/>
<defs>
<linearGradient id="paint0_linear_15739_105548" x1="253.994" y1="151.685" x2="253.994" y2="305.99" gradientUnits="userSpaceOnUse">
<stop stop-color="#9280C9"/>
<stop offset="1" stop-color="white" stop-opacity="0"/>
</linearGradient>
<linearGradient id="paint1_linear_15739_105548" x1="140.419" y1="170.348" x2="363.69" y2="170.348" gradientUnits="userSpaceOnUse">
<stop stop-color="#B8ABE1"/>
<stop offset="1" stop-color="#B5A8DF"/>
</linearGradient>
<radialGradient id="paint2_radial_15739_105548" cx="0" cy="0" r="1" gradientUnits="userSpaceOnUse" gradientTransform="translate(262.303 212.778) scale(22.9275 22.8926)">
<stop stop-color="#372D98"/>
<stop offset="1" stop-color="#131724"/>
</radialGradient>
<radialGradient id="paint3_radial_15739_105548" cx="0" cy="0" r="1" gradientUnits="userSpaceOnUse" gradientTransform="translate(269.393 212.468) scale(22.9275 22.8926)">
<stop stop-color="#372D98"/>
<stop offset="1" stop-color="#131724"/>
</radialGradient>
<radialGradient id="paint4_radial_15739_105548" cx="0" cy="0" r="1" gradientUnits="userSpaceOnUse" gradientTransform="translate(298.063 165.076) scale(90.0538 89.9169)">
<stop stop-color="#372D98"/>
<stop offset="1" stop-color="#131724"/>
</radialGradient>
<radialGradient id="paint5_radial_15739_105548" cx="0" cy="0" r="1" gradientUnits="userSpaceOnUse" gradientTransform="translate(298.064 162.438) scale(92.0203 91.8805)">
<stop stop-color="#372D98"/>
<stop offset="1" stop-color="#131724"/>
</radialGradient>
<radialGradient id="paint6_radial_15739_105548" cx="0" cy="0" r="1" gradientUnits="userSpaceOnUse" gradientTransform="translate(298.065 160.627) scale(93.5214 93.3791)">
<stop stop-color="#372D98"/>
<stop offset="1" stop-color="#131724"/>
</radialGradient>
<radialGradient id="paint7_radial_15739_105548" cx="0" cy="0" r="1" gradientUnits="userSpaceOnUse" gradientTransform="translate(298.064 155.979) scale(100.198 100.046)">
<stop stop-color="#372D98"/>
<stop offset="1" stop-color="#131724"/>
</radialGradient>
<radialGradient id="paint8_radial_15739_105548" cx="0" cy="0" r="1" gradientUnits="userSpaceOnUse" gradientTransform="translate(315.819 177.383) scale(28.6205 28.577)">
<stop stop-color="#372D98"/>
<stop offset="1" stop-color="#131724"/>
</radialGradient>
<radialGradient id="paint9_radial_15739_105548" cx="0" cy="0" r="1" gradientUnits="userSpaceOnUse" gradientTransform="translate(408.205 212.156) scale(29.1898 29.1454)">
<stop stop-color="#372D98"/>
<stop offset="1" stop-color="#131724"/>
</radialGradient>
<radialGradient id="paint10_radial_15739_105548" cx="0" cy="0" r="1" gradientUnits="userSpaceOnUse" gradientTransform="translate(327.049 189.061) scale(12.1624 12.1439)">
<stop stop-color="#372D98"/>
<stop offset="1" stop-color="#131724"/>
</radialGradient>
<radialGradient id="paint11_radial_15739_105548" cx="0" cy="0" r="1" gradientUnits="userSpaceOnUse" gradientTransform="translate(343.974 213.604) scale(12.1625 12.144)">
<stop stop-color="#372D98"/>
<stop offset="1" stop-color="#131724"/>
</radialGradient>
<radialGradient id="paint12_radial_15739_105548" cx="0" cy="0" r="1" gradientUnits="userSpaceOnUse" gradientTransform="translate(360.482 197.326) scale(12.1624 12.1439)">
<stop stop-color="#372D98"/>
<stop offset="1" stop-color="#131724"/>
</radialGradient>
<radialGradient id="paint13_radial_15739_105548" cx="0" cy="0" r="1" gradientUnits="userSpaceOnUse" gradientTransform="translate(376.009 222.441) scale(12.6283 12.6091)">
<stop stop-color="#372D98"/>
<stop offset="1" stop-color="#131724"/>
</radialGradient>
<radialGradient id="paint14_radial_15739_105548" cx="0" cy="0" r="1" gradientUnits="userSpaceOnUse" gradientTransform="translate(371.458 198.722) scale(19.5117 19.482)">
<stop stop-color="#372D98"/>
<stop offset="1" stop-color="#131724"/>
</radialGradient>
<radialGradient id="paint15_radial_15739_105548" cx="0" cy="0" r="1" gradientUnits="userSpaceOnUse" gradientTransform="translate(203.15 194.899) scale(17.1309 17.1049)">
<stop stop-color="#372D98"/>
<stop offset="1" stop-color="#131724"/>
</radialGradient>
<radialGradient id="paint16_radial_15739_105548" cx="0" cy="0" r="1" gradientUnits="userSpaceOnUse" gradientTransform="translate(200.615 214.223) scale(17.1309 17.1049)">
<stop stop-color="#372D98"/>
<stop offset="1" stop-color="#131724"/>
</radialGradient>
<radialGradient id="paint17_radial_15739_105548" cx="0" cy="0" r="1" gradientUnits="userSpaceOnUse" gradientTransform="translate(207.757 212.88) scale(10.6615 10.6453)">
<stop stop-color="#372D98"/>
<stop offset="1" stop-color="#131724"/>
</radialGradient>
<radialGradient id="paint18_radial_15739_105548" cx="0" cy="0" r="1" gradientUnits="userSpaceOnUse" gradientTransform="translate(192.643 187.356) scale(10.6615 10.6453)">
<stop stop-color="#372D98"/>
<stop offset="1" stop-color="#131724"/>
</radialGradient>
<radialGradient id="paint19_radial_15739_105548" cx="0" cy="0" r="1" gradientUnits="userSpaceOnUse" gradientTransform="translate(173.183 212.88) scale(10.6615 10.6453)">
<stop stop-color="#372D98"/>
<stop offset="1" stop-color="#131724"/>
</radialGradient>
<radialGradient id="paint20_radial_15739_105548" cx="0" cy="0" r="1" gradientUnits="userSpaceOnUse" gradientTransform="translate(220.277 186.888) scale(28.31 28.267)">
<stop stop-color="#372D98"/>
<stop offset="1" stop-color="#131724"/>
</radialGradient>
<radialGradient id="paint21_radial_15739_105548" cx="0" cy="0" r="1" gradientUnits="userSpaceOnUse" gradientTransform="translate(232.545 189.11) scale(10.6615 10.6453)">
<stop stop-color="#372D98"/>
<stop offset="1" stop-color="#131724"/>
</radialGradient>
<radialGradient id="paint22_radial_15739_105548" cx="0" cy="0" r="1" gradientUnits="userSpaceOnUse" gradientTransform="translate(174.272 192.315) scale(10.6615 10.6453)">
<stop stop-color="#372D98"/>
<stop offset="1" stop-color="#131724"/>
</radialGradient>
<linearGradient id="paint23_linear_15739_105548" x1="205.482" y1="153.538" x2="183.521" y2="134.99" gradientUnits="userSpaceOnUse">
<stop stop-color="#FB8F14"/>
<stop offset="1" stop-color="#FC7630"/>
</linearGradient>
<linearGradient id="paint24_linear_15739_105548" x1="235.42" y1="106.034" x2="226.392" y2="49.4641" gradientUnits="userSpaceOnUse">
<stop offset="0.110615" stop-color="#676DD8"/>
<stop offset="1" stop-color="#4950B8"/>
</linearGradient>
<linearGradient id="paint25_linear_15739_105548" x1="240.16" y1="71.6018" x2="233.206" y2="173.9" gradientUnits="userSpaceOnUse">
<stop stop-color="#2F349D"/>
<stop offset="1" stop-color="#5B60CA"/>
</linearGradient>
<linearGradient id="paint26_linear_15739_105548" x1="266.385" y1="80.1219" x2="269.584" y2="81.9901" gradientUnits="userSpaceOnUse">
<stop stop-color="#FC5E49"/>
<stop offset="1" stop-color="#FB9F02"/>
</linearGradient>
<linearGradient id="paint27_linear_15739_105548" x1="263.159" y1="80.7267" x2="267.17" y2="82.3079" gradientUnits="userSpaceOnUse">
<stop stop-color="#FC5E49"/>
<stop offset="1" stop-color="#FB9F02"/>
</linearGradient>
<linearGradient id="paint28_linear_15739_105548" x1="260.313" y1="86.0888" x2="271.483" y2="94.5224" gradientUnits="userSpaceOnUse">
<stop stop-color="#FC5E49"/>
<stop offset="1" stop-color="#FB9F02"/>
</linearGradient>
<linearGradient id="paint29_linear_15739_105548" x1="272.601" y1="82.216" x2="276.663" y2="85.6999" gradientUnits="userSpaceOnUse">
<stop stop-color="#FC5E49"/>
<stop offset="1" stop-color="#FB9F02"/>
</linearGradient>
<linearGradient id="paint30_linear_15739_105548" x1="269.875" y1="80.9592" x2="274.25" y2="84.7111" gradientUnits="userSpaceOnUse">
<stop stop-color="#FC5E49"/>
<stop offset="1" stop-color="#FB9F02"/>
</linearGradient>
<linearGradient id="paint31_linear_15739_105548" x1="267.089" y1="78.8772" x2="272.089" y2="83.165" gradientUnits="userSpaceOnUse">
<stop stop-color="#FC5E49"/>
<stop offset="1" stop-color="#FB9F02"/>
</linearGradient>
<linearGradient id="paint32_linear_15739_105548" x1="263.546" y1="78.7072" x2="268.546" y2="82.9951" gradientUnits="userSpaceOnUse">
<stop stop-color="#FC5E49"/>
<stop offset="1" stop-color="#FB9F02"/>
</linearGradient>
<linearGradient id="paint33_linear_15739_105548" x1="256.208" y1="82.5406" x2="280.761" y2="30.7827" gradientUnits="userSpaceOnUse">
<stop offset="0.110615" stop-color="#676DD8"/>
<stop offset="1" stop-color="#4950B8"/>
</linearGradient>
<linearGradient id="paint34_linear_15739_105548" x1="205.394" y1="167.745" x2="204.173" y2="185.703" gradientUnits="userSpaceOnUse">
<stop stop-color="#EA7E25"/>
<stop offset="1" stop-color="#FC861F"/>
</linearGradient>
<linearGradient id="paint35_linear_15739_105548" x1="260.662" y1="166.989" x2="264.187" y2="184.475" gradientUnits="userSpaceOnUse">
<stop stop-color="#FB9B08"/>
<stop offset="1" stop-color="#FC7432"/>
</linearGradient>
<linearGradient id="paint36_linear_15739_105548" x1="189.079" y1="117.588" x2="186.027" y2="120.743" gradientUnits="userSpaceOnUse">
<stop stop-color="#FC5E49"/>
<stop offset="1" stop-color="#FB9F02"/>
</linearGradient>
<linearGradient id="paint37_linear_15739_105548" x1="192.955" y1="117.248" x2="188.884" y2="120.336" gradientUnits="userSpaceOnUse">
<stop stop-color="#FC5E49"/>
<stop offset="1" stop-color="#FB9F02"/>
</linearGradient>
<linearGradient id="paint38_linear_15739_105548" x1="197.926" y1="122.453" x2="187.881" y2="135.649" gradientUnits="userSpaceOnUse">
<stop stop-color="#FC5E49"/>
<stop offset="1" stop-color="#FB9F02"/>
</linearGradient>
<linearGradient id="paint39_linear_15739_105548" x1="248.9" y1="126.775" x2="215.292" y2="165.072" gradientUnits="userSpaceOnUse">
<stop stop-color="#B5A7DF"/>
<stop offset="1" stop-color="#DFD8F8"/>
</linearGradient>
<linearGradient id="paint40_linear_15739_105548" x1="248.898" y1="128.338" x2="304.39" y2="135.373" gradientUnits="userSpaceOnUse">
<stop stop-color="#8672C1"/>
<stop offset="1" stop-color="#C8BCEA"/>
</linearGradient>
<linearGradient id="paint41_linear_15739_105548" x1="273.853" y1="126.745" x2="273.853" y2="242.955" gradientUnits="userSpaceOnUse">
<stop stop-color="#E2DBFA"/>
<stop offset="1" stop-color="#AFA0DB"/>
</linearGradient>
<linearGradient id="paint42_linear_15739_105548" x1="281.837" y1="126.745" x2="281.837" y2="176.792" gradientUnits="userSpaceOnUse">
<stop stop-color="#B2A3DD"/>
<stop offset="1" stop-color="#E2DAFA"/>
</linearGradient>
<linearGradient id="paint43_linear_15739_105548" x1="196.822" y1="126.745" x2="196.822" y2="242.955" gradientUnits="userSpaceOnUse">
<stop stop-color="#E9E2FF"/>
<stop offset="1" stop-color="#CBC1E9"/>
</linearGradient>
<linearGradient id="paint44_linear_15739_105548" x1="184.825" y1="126.745" x2="184.825" y2="176.345" gradientUnits="userSpaceOnUse">
<stop stop-color="#B2A3DD"/>
<stop offset="1" stop-color="#E2DAFA"/>
</linearGradient>
<linearGradient id="paint45_linear_15739_105548" x1="354.69" y1="180.129" x2="340.305" y2="196.52" gradientUnits="userSpaceOnUse">
<stop stop-color="#B5A7DF"/>
<stop offset="1" stop-color="#DFD8F8"/>
</linearGradient>
<linearGradient id="paint46_linear_15739_105548" x1="354.688" y1="180.798" x2="378.438" y2="183.808" gradientUnits="userSpaceOnUse">
<stop stop-color="#8672C1"/>
<stop offset="1" stop-color="#C8BCEA"/>
</linearGradient>
<linearGradient id="paint47_linear_15739_105548" x1="365.369" y1="180.114" x2="365.369" y2="229.852" gradientUnits="userSpaceOnUse">
<stop stop-color="#E2DBFA"/>
<stop offset="1" stop-color="#AFA0DB"/>
</linearGradient>
<linearGradient id="paint48_linear_15739_105548" x1="368.786" y1="180.114" x2="368.786" y2="201.535" gradientUnits="userSpaceOnUse">
<stop stop-color="#B2A3DD"/>
<stop offset="1" stop-color="#E2DAFA"/>
</linearGradient>
<linearGradient id="paint49_linear_15739_105548" x1="332.399" y1="180.114" x2="332.399" y2="229.852" gradientUnits="userSpaceOnUse">
<stop stop-color="#E9E2FF"/>
<stop offset="1" stop-color="#CBC1E9"/>
</linearGradient>
<linearGradient id="paint50_linear_15739_105548" x1="327.266" y1="180.114" x2="327.266" y2="201.343" gradientUnits="userSpaceOnUse">
<stop stop-color="#B2A3DD"/>
<stop offset="1" stop-color="#E2DAFA"/>
</linearGradient>
<linearGradient id="paint51_linear_15739_105548" x1="155.964" y1="195.416" x2="141.58" y2="211.807" gradientUnits="userSpaceOnUse">
<stop stop-color="#B5A7DF"/>
<stop offset="1" stop-color="#DFD8F8"/>
</linearGradient>
<linearGradient id="paint52_linear_15739_105548" x1="155.963" y1="196.085" x2="179.714" y2="199.095" gradientUnits="userSpaceOnUse">
<stop stop-color="#8672C1"/>
<stop offset="1" stop-color="#C8BCEA"/>
</linearGradient>
<linearGradient id="paint53_linear_15739_105548" x1="166.644" y1="195.402" x2="166.644" y2="245.141" gradientUnits="userSpaceOnUse">
<stop stop-color="#E2DBFA"/>
<stop offset="1" stop-color="#AFA0DB"/>
</linearGradient>
<linearGradient id="paint54_linear_15739_105548" x1="170.061" y1="195.402" x2="170.061" y2="216.823" gradientUnits="userSpaceOnUse">
<stop stop-color="#B2A3DD"/>
<stop offset="1" stop-color="#E2DAFA"/>
</linearGradient>
<linearGradient id="paint55_linear_15739_105548" x1="133.674" y1="195.402" x2="133.674" y2="245.141" gradientUnits="userSpaceOnUse">
<stop stop-color="#E9E2FF"/>
<stop offset="1" stop-color="#CBC1E9"/>
</linearGradient>
<linearGradient id="paint56_linear_15739_105548" x1="128.54" y1="195.402" x2="128.54" y2="216.631" gradientUnits="userSpaceOnUse">
<stop stop-color="#B2A3DD"/>
<stop offset="1" stop-color="#E2DAFA"/>
</linearGradient>
<linearGradient id="paint57_linear_15739_105548" x1="142.432" y1="163.525" x2="130.194" y2="177.471" gradientUnits="userSpaceOnUse">
<stop stop-color="#B5A7DF"/>
<stop offset="1" stop-color="#DFD8F8"/>
</linearGradient>
<linearGradient id="paint58_linear_15739_105548" x1="142.432" y1="164.094" x2="162.639" y2="166.656" gradientUnits="userSpaceOnUse">
<stop stop-color="#8672C1"/>
<stop offset="1" stop-color="#C8BCEA"/>
</linearGradient>
<linearGradient id="paint59_linear_15739_105548" x1="151.519" y1="163.515" x2="151.519" y2="205.832" gradientUnits="userSpaceOnUse">
<stop stop-color="#E2DBFA"/>
<stop offset="1" stop-color="#AFA0DB"/>
</linearGradient>
<linearGradient id="paint60_linear_15739_105548" x1="154.426" y1="163.515" x2="154.426" y2="181.739" gradientUnits="userSpaceOnUse">
<stop stop-color="#B2A3DD"/>
<stop offset="1" stop-color="#E2DAFA"/>
</linearGradient>
<linearGradient id="paint61_linear_15739_105548" x1="123.468" y1="163.515" x2="123.468" y2="205.832" gradientUnits="userSpaceOnUse">
<stop stop-color="#E9E2FF"/>
<stop offset="1" stop-color="#CBC1E9"/>
</linearGradient>
<linearGradient id="paint62_linear_15739_105548" x1="119.1" y1="163.515" x2="119.1" y2="181.576" gradientUnits="userSpaceOnUse">
<stop stop-color="#B2A3DD"/>
<stop offset="1" stop-color="#E2DAFA"/>
</linearGradient>
<linearGradient id="paint63_linear_15739_105548" x1="362.935" y1="158.859" x2="354.746" y2="168.19" gradientUnits="userSpaceOnUse">
<stop stop-color="#B5A7DF"/>
<stop offset="1" stop-color="#DFD8F8"/>
</linearGradient>
<linearGradient id="paint64_linear_15739_105548" x1="362.933" y1="159.239" x2="376.454" y2="160.953" gradientUnits="userSpaceOnUse">
<stop stop-color="#8672C1"/>
<stop offset="1" stop-color="#C8BCEA"/>
</linearGradient>
<linearGradient id="paint65_linear_15739_105548" x1="369.012" y1="158.852" x2="369.012" y2="187.167" gradientUnits="userSpaceOnUse">
<stop stop-color="#E2DBFA"/>
<stop offset="1" stop-color="#AFA0DB"/>
</linearGradient>
<linearGradient id="paint66_linear_15739_105548" x1="370.958" y1="158.852" x2="370.958" y2="171.046" gradientUnits="userSpaceOnUse">
<stop stop-color="#B2A3DD"/>
<stop offset="1" stop-color="#E2DAFA"/>
</linearGradient>
<linearGradient id="paint67_linear_15739_105548" x1="350.244" y1="158.852" x2="350.244" y2="187.167" gradientUnits="userSpaceOnUse">
<stop stop-color="#E9E2FF"/>
<stop offset="1" stop-color="#CBC1E9"/>
</linearGradient>
<linearGradient id="paint68_linear_15739_105548" x1="347.323" y1="158.852" x2="347.323" y2="170.937" gradientUnits="userSpaceOnUse">
<stop stop-color="#B2A3DD"/>
<stop offset="1" stop-color="#E2DAFA"/>
</linearGradient>
<linearGradient id="paint69_linear_15739_105548" x1="182.983" y1="122.696" x2="179.464" y2="127.971" gradientUnits="userSpaceOnUse">
<stop stop-color="#FC5E49"/>
<stop offset="1" stop-color="#FB9F02"/>
</linearGradient>
<linearGradient id="paint70_linear_15739_105548" x1="185.69" y1="120.392" x2="181.899" y2="126.072" gradientUnits="userSpaceOnUse">
<stop stop-color="#FC5E49"/>
<stop offset="1" stop-color="#FB9F02"/>
</linearGradient>
<linearGradient id="paint71_linear_15739_105548" x1="188.198" y1="117.125" x2="183.867" y2="123.616" gradientUnits="userSpaceOnUse">
<stop stop-color="#FC5E49"/>
<stop offset="1" stop-color="#FB9F02"/>
</linearGradient>
<linearGradient id="paint72_linear_15739_105548" x1="192.185" y1="115.797" x2="187.853" y2="122.289" gradientUnits="userSpaceOnUse">
<stop stop-color="#FC5E49"/>
<stop offset="1" stop-color="#FB9F02"/>
</linearGradient>
</defs>
</svg>
