<svg width="394" height="297" viewBox="0 0 394 297" fill="none" xmlns="http://www.w3.org/2000/svg">
<g opacity="0.8">
<path fill-rule="evenodd" clip-rule="evenodd" d="M319.628 138.675C320.097 138.206 320.851 138.187 321.343 138.631L324.084 141.107C324.345 141.343 324.494 141.679 324.494 142.031V149.831C324.494 150.518 323.937 151.075 323.25 151.075H318.078C317.39 151.075 316.833 150.518 316.833 149.831V141.986C316.833 141.656 316.964 141.339 317.198 141.106L319.628 138.675ZM321.677 138.262C320.988 137.64 319.933 137.667 319.276 138.323L316.845 140.754C316.519 141.081 316.335 141.524 316.335 141.986V149.831C316.335 150.793 317.115 151.573 318.078 151.573H323.25C324.212 151.573 324.992 150.793 324.992 149.831V142.031C324.992 141.538 324.783 141.068 324.418 140.738L321.677 138.262Z" fill="#585161"/>
<path d="M319.492 141.37C319.492 141.981 319.988 142.476 320.599 142.476C321.21 142.476 321.705 141.981 321.705 141.37C321.705 140.759 321.21 140.264 320.599 140.264C319.988 140.264 319.492 140.759 319.492 141.37Z" fill="#BCB9CE"/>
<path d="M323.362 149.531C323.362 148.996 322.929 148.562 322.394 148.562H318.799C318.264 148.562 317.831 148.996 317.831 149.531V149.531C317.831 150.065 318.264 150.499 318.799 150.499H322.394C322.929 150.499 323.362 150.065 323.362 149.531V149.531Z" fill="#BCB9CE"/>
<path d="M323.362 145.935C323.362 145.859 323.3 145.797 323.224 145.797H317.969C317.893 145.797 317.831 145.859 317.831 145.935V145.935C317.831 146.012 317.893 146.073 317.969 146.073H323.224C323.3 146.073 323.362 146.012 323.362 145.935V145.935Z" fill="#959498"/>
<path d="M323.362 144.826C323.362 144.749 323.3 144.688 323.224 144.688H317.969C317.893 144.688 317.831 144.749 317.831 144.826V144.826C317.831 144.902 317.893 144.964 317.969 144.964H323.224C323.3 144.964 323.362 144.902 323.362 144.826V144.826Z" fill="#959498"/>
<path fill-rule="evenodd" clip-rule="evenodd" d="M320.841 140.617V131.592H320.343V140.617H320.841Z" fill="#FFA673"/>
<path d="M295.368 104.282C295.368 102.985 296.42 101.934 297.717 101.934H310.401C311.698 101.934 312.749 102.985 312.749 104.282V116.966C312.749 118.263 311.698 119.315 310.401 119.315H297.717C296.42 119.315 295.368 118.263 295.368 116.966V104.282Z" fill="#5BB945"/>
<path d="M286.68 120.421C286.68 119.124 287.731 118.072 289.029 118.072H301.712C303.009 118.072 304.061 119.124 304.061 120.421V133.105C304.061 134.402 303.009 135.454 301.712 135.454H289.029C287.731 135.454 286.68 134.402 286.68 133.105V120.421Z" fill="#DF2A2B"/>
<path d="M304.061 120.421C304.061 119.124 305.112 118.072 306.409 118.072H319.093C320.39 118.072 321.442 119.124 321.442 120.421V133.105C321.442 134.402 320.39 135.454 319.093 135.454H306.409C305.112 135.454 304.061 134.402 304.061 133.105V120.421Z" fill="#C9BEEB"/>
<path d="M301.998 108.517V106.662H305.103V114.032H303.036V108.517H301.998Z" fill="white"/>
<path d="M293.076 129.044C293.728 128.533 294.262 128.093 294.679 127.723C295.096 127.353 295.445 126.973 295.727 126.584C296.01 126.187 296.151 125.811 296.151 125.454C296.151 125.239 296.1 125.071 296 124.95C295.905 124.829 295.764 124.769 295.576 124.769C295.381 124.769 295.23 124.853 295.122 125.021C295.015 125.182 294.964 125.421 294.971 125.737H293.056C293.076 125.139 293.207 124.645 293.449 124.255C293.691 123.858 294.007 123.569 294.397 123.388C294.786 123.2 295.22 123.105 295.697 123.105C296.524 123.105 297.139 123.31 297.542 123.72C297.945 124.13 298.147 124.661 298.147 125.313C298.147 126.012 297.912 126.668 297.441 127.279C296.977 127.891 296.396 128.439 295.697 128.923H298.217V130.526H293.076V129.044Z" fill="white"/>
<path d="M310.366 124.99C310.393 124.23 310.628 123.649 311.072 123.246C311.515 122.836 312.133 122.631 312.927 122.631C313.444 122.631 313.884 122.722 314.247 122.903C314.617 123.078 314.896 123.32 315.084 123.629C315.272 123.931 315.366 124.274 315.366 124.657C315.366 125.114 315.255 125.481 315.034 125.756C314.812 126.025 314.56 126.206 314.277 126.301V126.341C315.091 126.643 315.497 127.221 315.497 128.075C315.497 128.498 315.4 128.871 315.205 129.194C315.01 129.517 314.728 129.769 314.358 129.95C313.988 130.132 313.548 130.222 313.037 130.222C312.197 130.222 311.532 130.021 311.041 129.617C310.557 129.207 310.305 128.582 310.285 127.742H312.211C312.197 128.011 312.254 128.219 312.382 128.367C312.51 128.515 312.701 128.589 312.957 128.589C313.152 128.589 313.303 128.529 313.41 128.408C313.525 128.287 313.582 128.125 313.582 127.924C313.582 127.668 313.498 127.48 313.33 127.359C313.169 127.238 312.903 127.178 312.533 127.178H312.181V125.575H312.523C312.779 125.581 312.994 125.541 313.169 125.454C313.35 125.36 313.441 125.175 313.441 124.899C313.441 124.691 313.39 124.536 313.289 124.435C313.189 124.328 313.051 124.274 312.876 124.274C312.681 124.274 312.537 124.345 312.443 124.486C312.355 124.62 312.305 124.788 312.291 124.99H310.366Z" fill="white"/>
</g>
<path d="M348.571 296.271H45.6024L0 292.436C65.1994 230.92 131.233 201.266 200.106 201.266C264.14 201.266 355.294 239.381 393.351 292.436L348.571 296.271Z" fill="url(#paint0_linear_4484_18759)" style="mix-blend-mode:screen"/>
<path opacity="0.3" d="M296.265 206.259C297.354 172.426 270.208 143.875 236.608 143.57C236.416 143.569 236.224 143.568 236.032 143.568C227.035 143.572 218.34 140.123 211.892 133.8C198.294 120.468 179.634 112.351 159.093 112.653C118.692 113.249 86.4042 146.004 86.0796 186.709C85.902 208.963 95.3893 228.987 110.564 242.781H282.604C290.767 232.782 295.82 220.108 296.265 206.259Z" fill="#EBE4FF"/>
<path d="M206.187 133.035L130.741 151.165L189.146 169.258L206.187 165.32V133.035Z" fill="url(#paint1_linear_4484_18759)"/>
<path d="M206.185 165.787L266.424 151.165L206.185 133.035V165.787Z" fill="url(#paint2_linear_4484_18759)"/>
<path d="M189.226 169.294L266.426 151.164V232.458L189.226 253.513L189.226 169.294Z" fill="url(#paint3_linear_4484_18759)"/>
<path d="M266.313 191.7L208.436 199.161L189.537 168.864L266.313 151.146V191.7Z" fill="#B7A9E0"/>
<path d="M280.489 176.343L208.438 195.242L189.226 168.71L266.426 151.164L280.489 176.343Z" fill="url(#paint4_linear_4484_18759)"/>
<path d="M189.226 169.294L130.741 151.164V232.458L189.226 253.513V169.294Z" fill="url(#paint5_linear_4484_18759)"/>
<path d="M130.74 151.164L109.613 174.374L167.49 194.848L189.225 168.71L130.74 151.164Z" fill="url(#paint6_linear_4484_18759)"/>
<path d="M187.068 163.987L186.77 164.388L185.968 163.79L186.267 163.389L187.068 163.987ZM248.559 124.999L249.052 124.916L249.053 124.924L249.054 124.931L248.559 124.999ZM224.04 112.152L223.606 111.902L224.04 112.152ZM187.489 161.755C187.655 161.534 187.969 161.489 188.189 161.655C188.41 161.821 188.455 162.134 188.289 162.355L187.489 161.755ZM190.773 159.069C190.605 159.289 190.292 159.331 190.072 159.164C189.852 158.997 189.81 158.683 189.977 158.463L190.773 159.069ZM192.48 155.2C192.648 154.981 192.962 154.941 193.181 155.11C193.399 155.279 193.44 155.593 193.271 155.811L192.48 155.2ZM195.794 152.574C195.624 152.791 195.309 152.829 195.092 152.658C194.875 152.488 194.838 152.173 195.008 151.956L195.794 152.574ZM197.568 148.732C197.741 148.517 198.056 148.482 198.271 148.655C198.487 148.828 198.521 149.142 198.349 149.358L197.568 148.732ZM200.935 146.166C200.76 146.38 200.445 146.411 200.231 146.236C200.018 146.061 199.986 145.746 200.162 145.533L200.935 146.166ZM202.791 142.362C202.968 142.151 203.284 142.123 203.495 142.301C203.707 142.478 203.734 142.794 203.557 143.005L202.791 142.362ZM206.217 139.879C206.036 140.088 205.721 140.111 205.511 139.93C205.302 139.75 205.279 139.434 205.46 139.225L206.217 139.879ZM208.173 136.128C208.357 135.922 208.673 135.904 208.879 136.087C209.085 136.271 209.104 136.587 208.92 136.793L208.173 136.128ZM211.677 133.751C211.49 133.954 211.173 133.967 210.97 133.779C210.768 133.592 210.755 133.276 210.942 133.073L211.677 133.751ZM213.773 130.071C213.965 129.872 214.281 129.866 214.48 130.058C214.679 130.25 214.685 130.566 214.493 130.765L213.773 130.071ZM217.376 127.849C217.18 128.042 216.863 128.04 216.669 127.843C216.476 127.646 216.478 127.33 216.675 127.136L217.376 127.849ZM219.658 124.289C219.861 124.102 220.177 124.114 220.365 124.317C220.552 124.52 220.539 124.837 220.336 125.024L219.658 124.289ZM223.394 122.313C223.183 122.492 222.867 122.466 222.689 122.255C222.51 122.045 222.536 121.729 222.747 121.551L223.394 122.313ZM225.983 118.949C226.203 118.783 226.517 118.827 226.683 119.047C226.85 119.267 226.806 119.581 226.586 119.747L225.983 118.949ZM229.908 117.427C229.675 117.575 229.366 117.506 229.218 117.273C229.07 117.04 229.138 116.731 229.371 116.583L229.908 117.427ZM233.029 114.547C233.279 114.429 233.576 114.537 233.694 114.787C233.811 115.037 233.703 115.335 233.453 115.452L233.029 114.547ZM237.217 114.134C236.947 114.192 236.681 114.019 236.624 113.749C236.566 113.479 236.739 113.214 237.009 113.156L237.217 114.134ZM241.297 113.109C241.565 113.172 241.732 113.441 241.669 113.71C241.607 113.979 241.338 114.146 241.069 114.083L241.297 113.109ZM244.328 115.96C244.136 115.762 244.14 115.445 244.338 115.253C244.536 115.06 244.853 115.064 245.045 115.262L244.328 115.96ZM247.355 118.839C247.466 119.092 247.351 119.387 247.098 119.498C246.846 119.609 246.551 119.494 246.44 119.241L247.355 118.839ZM247.665 123.053C247.602 122.784 247.77 122.516 248.039 122.453C248.308 122.391 248.577 122.559 248.639 122.828L247.665 123.053ZM249.303 126.901C249.334 127.175 249.137 127.423 248.863 127.455C248.589 127.486 248.341 127.289 248.309 127.015L249.303 126.901ZM248.649 130.78C248.632 130.505 248.841 130.267 249.116 130.25C249.392 130.232 249.63 130.441 249.647 130.717L248.649 130.78ZM249.768 134.562C249.767 134.838 249.542 135.061 249.266 135.06C248.99 135.059 248.767 134.834 248.768 134.558L249.768 134.562ZM248.585 138.326C248.612 138.052 248.857 137.851 249.132 137.878C249.407 137.906 249.607 138.151 249.58 138.425L248.585 138.326ZM248.942 142.235C248.875 142.503 248.604 142.666 248.336 142.6C248.068 142.533 247.905 142.262 247.971 141.994L248.942 142.235ZM246.685 145.455C246.815 145.212 247.118 145.121 247.362 145.251C247.605 145.382 247.696 145.685 247.565 145.929L246.685 145.455ZM244.999 148.988C244.776 149.15 244.463 149.102 244.301 148.879C244.138 148.656 244.186 148.343 244.409 148.18L244.999 148.988ZM241.135 149.337C241.411 149.321 241.647 149.531 241.663 149.807C241.68 150.083 241.469 150.319 241.194 150.336L241.135 149.337ZM237.256 149.709C236.996 149.617 236.86 149.331 236.952 149.071C237.044 148.81 237.33 148.674 237.591 148.766L237.256 149.709ZM234.3 147.094C234.531 147.246 234.595 147.556 234.443 147.787C234.292 148.017 233.982 148.082 233.751 147.93L234.3 147.094ZM230.689 145.516C230.486 145.328 230.474 145.012 230.661 144.809C230.849 144.607 231.165 144.594 231.368 144.782L230.689 145.516ZM228.789 142.049C228.965 142.261 228.936 142.577 228.723 142.753C228.51 142.929 228.195 142.9 228.019 142.687L228.789 142.049ZM225.729 139.563C225.578 139.331 225.645 139.021 225.877 138.871C226.109 138.721 226.418 138.788 226.568 139.019L225.729 139.563ZM224.709 135.75C224.831 135.997 224.73 136.297 224.483 136.42C224.235 136.542 223.935 136.441 223.813 136.193L224.709 135.75ZM222.3 132.623C222.208 132.363 222.344 132.077 222.604 131.985C222.864 131.893 223.15 132.029 223.242 132.289L222.3 132.623ZM222.214 128.68C222.272 128.95 222.1 129.216 221.83 129.274C221.561 129.333 221.294 129.161 221.236 128.891L222.214 128.68ZM220.683 125.044C220.664 124.768 220.872 124.529 221.147 124.51C221.423 124.49 221.662 124.698 221.681 124.973L220.683 125.044ZM221.708 121.239C221.684 121.514 221.441 121.718 221.166 121.694C220.891 121.669 220.688 121.427 220.712 121.152L221.708 121.239ZM221.379 117.309C221.45 117.042 221.723 116.883 221.99 116.953C222.257 117.024 222.417 117.298 222.346 117.565L221.379 117.309ZM223.609 114.066C223.493 114.317 223.196 114.425 222.945 114.309C222.695 114.193 222.586 113.895 222.702 113.645L223.609 114.066ZM224.642 110.093C224.778 109.853 225.084 109.77 225.324 109.906C225.564 110.043 225.647 110.348 225.511 110.588L224.642 110.093ZM227.558 106.96C227.423 107.201 227.119 107.287 226.878 107.153C226.637 107.018 226.551 106.713 226.686 106.472L227.558 106.96ZM228.704 102.84C228.837 102.599 229.141 102.511 229.383 102.644C229.625 102.778 229.713 103.082 229.579 103.324L228.704 102.84ZM231.587 99.6722C231.454 99.9144 231.15 100.003 230.908 99.8705C230.666 99.7378 230.577 99.4339 230.71 99.1918L231.587 99.6722ZM232.706 95.5424C232.839 95.3002 233.143 95.2113 233.385 95.3438C233.627 95.4764 233.716 95.7803 233.584 96.0225L232.706 95.5424ZM235.584 92.3783C235.45 92.6201 235.146 92.7081 234.904 92.5748C234.663 92.4415 234.575 92.1374 234.708 91.8956L235.584 92.3783ZM236.73 88.2532C236.865 88.0123 237.17 87.9264 237.411 88.0614C237.652 88.1963 237.738 88.501 237.603 88.742L236.73 88.2532ZM239.654 85.1267C239.516 85.366 239.21 85.4484 238.971 85.3107C238.731 85.173 238.649 84.8673 238.787 84.628L239.654 85.1267ZM240.894 81.0302C241.035 80.7931 241.342 80.7157 241.579 80.8573C241.816 80.9988 241.894 81.3058 241.752 81.5429L240.894 81.0302ZM243.916 78.0012C243.769 78.2352 243.461 78.3062 243.227 78.1597C242.993 78.0132 242.922 77.7047 243.068 77.4706L243.916 78.0012ZM245.326 73.9608C245.479 73.7305 245.789 73.6675 246.019 73.8199C246.25 73.9724 246.313 74.2826 246.16 74.5129L245.326 73.9608ZM248.499 71.0898C248.34 71.3154 248.028 71.3692 247.802 71.21C247.577 71.0507 247.523 70.7388 247.682 70.5132L248.499 71.0898ZM250.146 67.1396C250.312 66.9194 250.626 66.8759 250.846 67.0425C251.067 67.209 251.11 67.5226 250.943 67.7429L250.146 67.1396ZM253.501 64.4817C253.326 64.6959 253.011 64.7284 252.797 64.5542C252.583 64.3799 252.551 64.065 252.725 63.8508L253.501 64.4817ZM255.42 60.656C255.602 60.4482 255.918 60.4272 256.126 60.6091C256.333 60.791 256.354 61.1068 256.173 61.3146L255.42 60.656ZM258.956 58.2493C258.767 58.4503 258.45 58.4598 258.249 58.2705C258.048 58.0812 258.039 57.7648 258.228 57.5637L258.956 58.2493ZM261.145 54.5743C261.341 54.3801 261.658 54.3818 261.852 54.5781C262.046 54.7744 262.045 55.091 261.848 55.2852L261.145 54.5743ZM264.846 52.42C264.643 52.6074 264.327 52.595 264.139 52.3922C263.952 52.1894 263.964 51.8731 264.167 51.6856L264.846 52.42ZM186.267 163.389C186.667 162.852 187.075 162.307 187.489 161.755L188.289 162.355C187.875 162.907 187.468 163.451 187.068 163.987L186.267 163.389ZM189.977 158.463C190.791 157.393 191.626 156.304 192.48 155.2L193.271 155.811C192.419 156.913 191.585 158.001 190.773 159.069L189.977 158.463ZM195.008 151.956C195.848 150.888 196.702 149.812 197.568 148.732L198.349 149.358C197.485 150.435 196.633 151.509 195.794 152.574L195.008 151.956ZM200.162 145.533C201.029 144.474 201.906 143.415 202.791 142.362L203.557 143.005C202.675 144.055 201.801 145.11 200.935 146.166L200.162 145.533ZM205.46 139.225C206.36 138.182 207.265 137.148 208.173 136.128L208.92 136.793C208.015 137.809 207.114 138.839 206.217 139.879L205.46 139.225ZM210.942 133.073C211.886 132.051 212.83 131.049 213.773 130.071L214.493 130.765C213.556 131.737 212.616 132.734 211.677 133.751L210.942 133.073ZM216.675 127.136C217.675 126.152 218.67 125.201 219.658 124.289L220.336 125.024C219.357 125.928 218.369 126.871 217.376 127.849L216.675 127.136ZM222.747 121.551C223.839 120.623 224.92 119.753 225.983 118.949L226.586 119.747C225.54 120.538 224.474 121.396 223.394 122.313L222.747 121.551ZM229.371 116.583C230.622 115.787 231.844 115.102 233.029 114.547L233.453 115.452C232.315 115.986 231.13 116.649 229.908 117.427L229.371 116.583ZM237.009 113.156C238.523 112.834 239.963 112.797 241.297 113.109L241.069 114.083C239.909 113.812 238.622 113.835 237.217 114.134L237.009 113.156ZM245.045 115.262C245.938 116.18 246.71 117.368 247.355 118.839L246.44 119.241C245.831 117.855 245.121 116.774 244.328 115.96L245.045 115.262ZM248.639 122.828C248.792 123.488 248.929 124.184 249.052 124.916L248.065 125.081C247.946 124.367 247.812 123.692 247.665 123.053L248.639 122.828ZM249.054 124.931C249.146 125.603 249.229 126.259 249.303 126.901L248.309 127.015C248.236 126.381 248.154 125.732 248.063 125.067L249.054 124.931ZM249.647 130.717C249.734 132.078 249.773 133.359 249.768 134.562L248.768 134.558C248.773 133.379 248.734 132.121 248.649 130.78L249.647 130.717ZM249.58 138.425C249.44 139.829 249.225 141.097 248.942 142.235L247.971 141.994C248.241 140.909 248.449 139.689 248.585 138.326L249.58 138.425ZM247.565 145.929C246.855 147.25 245.989 148.265 244.999 148.988L244.409 148.18C245.261 147.558 246.033 146.666 246.685 145.455L247.565 145.929ZM241.194 150.336C239.923 150.411 238.593 150.183 237.256 149.709L237.591 148.766C238.828 149.205 240.023 149.403 241.135 149.337L241.194 150.336ZM233.751 147.93C232.711 147.248 231.684 146.436 230.689 145.516L231.368 144.782C232.326 145.668 233.311 146.445 234.3 147.094L233.751 147.93ZM228.019 142.687C227.212 141.713 226.443 140.667 225.729 139.563L226.568 139.019C227.262 140.092 228.007 141.106 228.789 142.049L228.019 142.687ZM223.813 136.193C223.243 135.043 222.735 133.849 222.3 132.623L223.242 132.289C223.664 133.476 224.156 134.633 224.709 135.75L223.813 136.193ZM221.236 128.891C220.963 127.626 220.775 126.34 220.683 125.044L221.681 124.973C221.769 126.22 221.95 127.459 222.214 128.68L221.236 128.891ZM220.712 121.152C220.824 119.867 221.043 118.583 221.379 117.309L222.346 117.565C222.025 118.781 221.816 120.009 221.708 121.239L220.712 121.152ZM222.702 113.645C222.974 113.059 223.275 112.477 223.606 111.902L224.473 112.401C224.157 112.951 223.869 113.506 223.609 114.066L222.702 113.645ZM223.606 111.902C223.956 111.295 224.301 110.692 224.642 110.093L225.511 110.588C225.169 111.188 224.823 111.792 224.473 112.401L223.606 111.902ZM226.686 106.472C227.373 105.244 228.045 104.033 228.704 102.84L229.579 103.324C228.92 104.518 228.247 105.73 227.558 106.96L226.686 106.472ZM230.71 99.1918C231.386 97.9574 232.05 96.7418 232.706 95.5424L233.584 96.0225C232.928 97.2211 232.263 98.4377 231.587 99.6722L230.71 99.1918ZM234.708 91.8956C235.386 90.6647 236.059 89.451 236.73 88.2532L237.603 88.742C236.933 89.9372 236.261 91.1487 235.584 92.3783L234.708 91.8956ZM238.787 84.628C239.485 83.4139 240.186 82.2152 240.894 81.0302L241.752 81.5429C241.048 82.7226 240.35 83.9166 239.654 85.1267L238.787 84.628ZM243.068 77.4706C243.808 76.2887 244.559 75.1194 245.326 73.9608L246.16 74.5129C245.398 75.6638 244.651 76.8259 243.916 78.0012L243.068 77.4706ZM247.682 70.5132C248.482 69.3803 249.301 68.2564 250.146 67.1396L250.943 67.7429C250.106 68.8504 249.293 69.9654 248.499 71.0898L247.682 70.5132ZM252.725 63.8508C253.595 62.7811 254.492 61.7167 255.42 60.656L256.173 61.3146C255.252 62.3661 254.363 63.4213 253.501 64.4817L252.725 63.8508ZM258.228 57.5637C259.168 56.5658 260.139 55.5697 261.145 54.5743L261.848 55.2852C260.851 56.2724 259.887 57.2599 258.956 58.2493L258.228 57.5637ZM264.167 51.6856C264.675 51.2165 265.191 50.7471 265.716 50.2775L266.382 51.0228C265.861 51.4889 265.349 51.9545 264.846 52.42L264.167 51.6856Z" fill="url(#paint7_linear_4484_18759)"/>
<path d="M259.548 47.63L246.435 64.2321C246.102 64.6008 245.545 64.6662 245.182 64.3794C240.223 60.6314 233.305 61.4439 229.402 66.2798C229.292 66.4182 229.162 66.5119 229.011 66.5611C228.738 66.6402 228.454 66.6265 228.195 66.4216C227.779 66.0938 227.72 65.5831 228.047 65.168L241.078 48.6697C245.503 43.0665 253.715 42.0549 259.354 46.3819C259.354 46.3819 259.369 46.3801 259.4 46.3765C259.556 46.4994 259.676 46.7207 259.703 46.9528C259.731 47.1849 259.665 47.428 259.548 47.63V47.63Z" fill="#A5B5B6"/>
<path d="M259.171 48.0498L246.433 64.2314C246.1 64.6 245.543 64.6655 245.18 64.3787C240.221 60.6307 233.303 61.4432 229.4 66.2791C229.29 66.4175 229.16 66.5112 229.009 66.5603L241.466 50.7884C245.727 45.3927 253.546 44.239 259.171 48.0498V48.0498Z" fill="#95A5A6"/>
<path d="M269.773 56.1734C270.005 56.1461 270.242 56.1653 270.403 56.3346C275.925 60.8637 276.843 69.087 272.418 74.6902L259.388 91.1886C259.055 91.5572 258.544 91.6172 258.134 91.3358C257.875 91.1309 257.79 90.8114 257.804 90.5274C257.817 90.369 257.878 90.2206 257.987 90.0822C261.787 85.1644 260.974 78.2465 256.179 74.2911C255.816 74.0042 255.751 73.4471 256.038 73.0839L269.15 56.4819C269.314 56.2743 269.54 56.2006 269.773 56.1734Z" fill="#A5B5B6"/>
<path d="M270.261 74.7533L257.805 90.5253C257.818 90.3669 257.879 90.2185 257.988 90.0802C261.788 85.1623 260.975 78.2445 256.18 74.289C255.817 74.0022 255.752 73.4451 256.039 73.0819L268.823 56.8949C273.833 61.484 274.523 69.3576 270.261 74.7533V74.7533Z" fill="#95A5A6"/>
<path d="M292.583 17.5274L291.39 16.585L299.498 6.26601L300.696 7.25487L292.583 17.5274Z" fill="#F7B23F"/>
<path d="M301.94 7.06696C301.413 7.78785 300.345 7.91327 299.665 7.33416C298.939 6.7605 298.819 5.73906 299.398 5.05915C299.925 4.33826 300.993 4.21284 301.673 4.79195C302.394 5.31918 302.514 6.34062 301.94 7.06696Z" fill="#C52E25"/>
<path d="M248.992 84.0271C248.378 84.8053 247.217 84.9416 246.439 84.327L237.048 76.9105C236.27 76.2958 236.139 75.1815 236.754 74.4033L242.116 69.961C242.73 69.1828 243.891 69.0464 244.669 69.6611L251.777 75.2747C252.088 75.5205 252.312 75.8237 252.402 76.1897C252.561 76.736 252.446 77.3613 252.077 77.8283L248.992 84.0271Z" fill="#758586"/>
<path d="M250.231 74.5153L244.003 82.4013L239.437 78.7954L245.666 70.9094L250.231 74.5153Z" fill="#859596"/>
<path d="M257.178 77.182C256.317 78.2715 254.692 78.4624 253.603 77.6019L241.981 68.4234C240.892 67.5629 240.701 65.9379 241.562 64.8484L241.93 64.3814C242.791 63.2919 244.416 63.1011 245.505 63.9616L257.127 73.1401C258.216 74.0006 258.402 75.5791 257.547 76.7151L257.178 77.182Z" fill="#C8BCEA"/>
<path d="M275.349 32.2584L246.702 68.4772L241.773 64.5845L256.071 46.4546L270.368 28.3248C273.687 24.1224 277.793 21.0043 281.671 18.7602C282.669 18.1723 283.628 17.6518 284.547 17.1986C285.112 18.262 285.808 19.2471 286.636 20.154C286.578 20.1922 286.521 20.2459 286.467 20.3151C285.188 21.4537 283.839 22.7889 282.449 24.176C282.421 24.2105 282.378 24.247 282.32 24.2852C281.989 24.6693 281.64 25.0397 281.274 25.3965C281.192 25.5003 281.108 25.5885 281.023 25.6614C280.773 25.9417 280.508 26.2238 280.228 26.5078C280.118 26.6462 279.994 26.7864 279.854 26.9283C279.604 27.2087 279.339 27.4908 279.059 27.7748C278.977 27.8786 278.895 27.9823 278.813 28.0861C278.481 28.4702 278.134 28.8561 277.772 29.2438C277.694 29.3785 277.598 29.4996 277.485 29.607C277.208 29.9219 276.947 30.235 276.701 30.5463C276.592 30.6847 276.481 30.8075 276.368 30.9149C276.013 31.3646 275.673 31.8124 275.349 32.2584Z" fill="white"/>
<path d="M285.985 40.6588L257.389 76.9186L252.46 73.0259L281.056 36.7662C284.907 31.8893 287.959 27.0123 290.21 22.9353C291.284 23.5309 292.418 23.9626 293.61 24.2305C293.308 25.3956 292.966 26.6282 292.585 27.9281C291.284 32.0817 289.227 36.6066 285.985 40.6588V40.6588Z" fill="white"/>
<path d="M286.634 20.1559C286.576 20.1941 286.519 20.2478 286.465 20.317C286.519 20.2478 286.576 20.1941 286.634 20.1559Z" fill="#BEB0E4"/>
<path d="M281.055 36.7672L252.459 73.027L246.7 68.4787L275.348 32.2599C275.672 31.8139 276.012 31.3661 276.367 30.9165C276.48 30.8091 276.591 30.6862 276.7 30.5478C276.946 30.2365 277.207 29.9234 277.484 29.6085C277.597 29.5011 277.692 29.3801 277.771 29.2453C278.133 28.8576 278.48 28.4717 278.812 28.0876C278.893 27.9838 278.975 27.8801 279.057 27.7763C279.338 27.4923 279.603 27.2102 279.852 26.9299C279.992 26.7879 280.117 26.6477 280.227 26.5093C280.507 26.2253 280.772 25.9432 281.021 25.6629C281.107 25.5901 281.191 25.5018 281.273 25.398C281.639 25.0412 281.987 24.6708 282.319 24.2867C282.377 24.2485 282.42 24.2121 282.447 24.1775C283.176 23.433 283.892 22.7212 284.597 22.0422C285.247 21.4324 285.87 20.8572 286.465 20.3166C286.52 20.2474 286.576 20.1937 286.635 20.1555C287.106 20.6963 287.634 21.1835 288.218 21.6169C288.876 22.1359 289.539 22.5757 290.209 22.9364C287.958 27.0133 284.906 31.8904 281.055 36.7672Z" fill="white"/>
<path d="M286.638 20.1545C285.81 19.2477 285.113 18.2625 284.549 17.1992C290.102 14.3818 294.69 13.3722 294.917 13.2985C294.92 13.3295 294.878 13.3659 294.788 13.4078C294.757 13.4114 294.744 13.4287 294.747 13.4596C294.717 13.4633 294.672 13.4842 294.614 13.5224C294.617 13.5534 294.604 13.5707 294.573 13.5743C294.514 13.6125 294.456 13.6507 294.398 13.689C294.371 13.7236 294.357 13.7409 294.357 13.7409C294.268 13.7827 294.196 13.8382 294.141 13.9074C294.11 13.911 294.081 13.9301 294.054 13.9647C293.964 14.0066 293.877 14.0639 293.791 14.1368C293.764 14.1713 293.751 14.1886 293.751 14.1886C293.432 14.4143 293.057 14.6937 292.625 15.0268C292.598 15.0614 292.569 15.0805 292.538 15.0842C292.425 15.1916 292.312 15.299 292.199 15.4064C292.141 15.4446 292.083 15.4828 292.024 15.521C291.911 15.6284 291.781 15.7222 291.634 15.8023C291.579 15.8714 291.523 15.9251 291.464 15.9633C291.351 16.0707 291.223 16.18 291.079 16.291C291.025 16.3602 290.953 16.4157 290.863 16.4575C290.72 16.5686 290.577 16.6951 290.437 16.8371C290.379 16.8753 290.321 16.9135 290.262 16.9517C289.722 17.4232 289.138 17.9311 288.512 18.4753C288.481 18.479 288.451 18.4981 288.424 18.5327C288.253 18.6783 288.082 18.8239 287.911 18.9695C287.829 19.0733 287.745 19.1616 287.659 19.2344C287.488 19.38 287.332 19.5238 287.192 19.6658C287.076 19.7422 286.961 19.8342 286.848 19.9415C286.762 20.0144 286.692 20.0854 286.638 20.1545V20.1545Z" fill="#BEB0E4"/>
<path d="M286.846 19.9415C286.761 20.0143 286.691 20.0853 286.636 20.1545C286.691 20.0853 286.761 20.0143 286.846 19.9415Z" fill="#BEB0E4"/>
<g style="mix-blend-mode:multiply">
<path d="M286.846 19.9415C286.761 20.0143 286.691 20.0853 286.636 20.1545C286.691 20.0853 286.761 20.0143 286.846 19.9415Z" fill="#8F7CC7"/>
</g>
<path d="M288.509 18.4758C289.136 17.9315 289.719 17.4237 290.26 16.9522C289.719 17.4237 289.136 17.9315 288.509 18.4758Z" fill="#BEB0E4"/>
<g style="mix-blend-mode:multiply">
<path d="M288.509 18.4758C289.136 17.9315 289.719 17.4237 290.26 16.9522C289.719 17.4237 289.136 17.9315 288.509 18.4758Z" fill="#8F7CC7"/>
</g>
<path d="M287.909 18.971C288.08 18.8254 288.251 18.6798 288.422 18.5342C288.251 18.6798 288.08 18.8254 287.909 18.971Z" fill="#BEB0E4"/>
<g style="mix-blend-mode:multiply">
<path d="M287.909 18.971C288.08 18.8254 288.251 18.6798 288.422 18.5342C288.251 18.6798 288.08 18.8254 287.909 18.971Z" fill="#8F7CC7"/>
</g>
<path d="M287.191 19.6663C287.331 19.5244 287.487 19.3806 287.658 19.2349C287.487 19.3806 287.331 19.5244 287.191 19.6663Z" fill="#BEB0E4"/>
<g style="mix-blend-mode:multiply">
<path d="M287.191 19.6663C287.331 19.5244 287.487 19.3806 287.658 19.2349C287.487 19.3806 287.331 19.5244 287.191 19.6663Z" fill="#8F7CC7"/>
</g>
<path d="M290.437 16.8387C290.577 16.6967 290.719 16.5702 290.863 16.4591C290.719 16.5702 290.577 16.6967 290.437 16.8387Z" fill="#BEB0E4"/>
<g style="mix-blend-mode:multiply">
<path d="M290.437 16.8387C290.577 16.6967 290.719 16.5702 290.863 16.4591C290.719 16.5702 290.577 16.6967 290.437 16.8387Z" fill="#8F7CC7"/>
</g>
<path d="M291.08 16.2922C291.223 16.1812 291.352 16.072 291.465 15.9646C291.352 16.072 291.223 16.1812 291.08 16.2922Z" fill="#BEB0E4"/>
<g style="mix-blend-mode:multiply">
<path d="M291.08 16.2922C291.223 16.1812 291.352 16.072 291.465 15.9646C291.352 16.072 291.223 16.1812 291.08 16.2922Z" fill="#8F7CC7"/>
</g>
<path d="M294.611 13.5249C294.669 13.4867 294.714 13.4658 294.745 13.4622C294.714 13.4658 294.669 13.4867 294.611 13.5249Z" fill="#BEB0E4"/>
<g style="mix-blend-mode:multiply">
<path d="M294.611 13.5249C294.669 13.4867 294.714 13.4658 294.745 13.4622C294.714 13.4658 294.669 13.4867 294.611 13.5249Z" fill="#8F7CC7"/>
</g>
<path d="M290.212 22.9353C293.285 17.4438 294.851 13.5415 294.916 13.2984C294.949 13.577 294.973 18.187 293.611 24.2305C292.419 23.9626 291.286 23.5309 290.212 22.9353Z" fill="#BEB0E4"/>
<path d="M294.916 13.302C294.919 13.333 294.876 13.3693 294.787 13.4112C294.876 13.3693 294.919 13.333 294.916 13.302Z" fill="#BEB0E4"/>
<g style="mix-blend-mode:multiply">
<path d="M294.916 13.302C294.919 13.333 294.876 13.3693 294.787 13.4112C294.876 13.3693 294.919 13.333 294.916 13.302Z" fill="#8F7CC7"/>
</g>
<path d="M294.397 13.6886C294.455 13.6503 294.513 13.6121 294.571 13.5739C294.513 13.6121 294.455 13.6503 294.397 13.6886Z" fill="#BEB0E4"/>
<g style="mix-blend-mode:multiply">
<path d="M294.397 13.6886C294.455 13.6503 294.513 13.6121 294.571 13.5739C294.513 13.6121 294.455 13.6503 294.397 13.6886Z" fill="#8F7CC7"/>
</g>
<path d="M292.625 15.0265C293.056 14.6934 293.431 14.414 293.75 14.1883C293.431 14.414 293.056 14.6934 292.625 15.0265Z" fill="#BEB0E4"/>
<g style="mix-blend-mode:multiply">
<path d="M292.625 15.0265C293.056 14.6934 293.431 14.414 293.75 14.1883C293.431 14.414 293.056 14.6934 292.625 15.0265Z" fill="#8F7CC7"/>
</g>
<path d="M292.197 15.4075C292.31 15.3001 292.423 15.1927 292.536 15.0853C292.423 15.1927 292.31 15.3001 292.197 15.4075Z" fill="#BEB0E4"/>
<g style="mix-blend-mode:multiply">
<path d="M292.197 15.4075C292.31 15.3001 292.423 15.1927 292.536 15.0853C292.423 15.1927 292.31 15.3001 292.197 15.4075Z" fill="#8F7CC7"/>
</g>
<path d="M294.139 13.9088C294.194 13.8396 294.266 13.7841 294.355 13.7423C294.266 13.7841 294.194 13.8396 294.139 13.9088Z" fill="#BEB0E4"/>
<g style="mix-blend-mode:multiply">
<path d="M294.139 13.9088C294.194 13.8396 294.266 13.7841 294.355 13.7423C294.266 13.7841 294.194 13.8396 294.139 13.9088Z" fill="#8F7CC7"/>
</g>
<path d="M291.632 15.8044C291.779 15.7243 291.909 15.6306 292.022 15.5232C291.909 15.6306 291.779 15.7243 291.632 15.8044Z" fill="#BEB0E4"/>
<g style="mix-blend-mode:multiply">
<path d="M291.632 15.8044C291.779 15.7243 291.909 15.6306 292.022 15.5232C291.909 15.6306 291.779 15.7243 291.632 15.8044Z" fill="#8F7CC7"/>
</g>
<path d="M293.792 14.1393C293.877 14.0665 293.965 14.0091 294.054 13.9673C293.965 14.0091 293.877 14.0665 293.792 14.1393Z" fill="#BEB0E4"/>
<g style="mix-blend-mode:multiply">
<path d="M293.792 14.1393C293.877 14.0665 293.965 14.0091 294.054 13.9673C293.965 14.0091 293.877 14.0665 293.792 14.1393Z" fill="#8F7CC7"/>
</g>
<path d="M287.659 19.2341C287.745 19.1613 287.828 19.073 287.91 18.9692C287.828 19.073 287.745 19.1613 287.659 19.2341Z" fill="#907DC8"/>
<g style="mix-blend-mode:multiply">
<path d="M287.659 19.2341C287.745 19.1613 287.828 19.073 287.91 18.9692C287.828 19.073 287.745 19.1613 287.659 19.2341Z" fill="#8F7CC7"/>
</g>
<path d="M294.354 13.7433C294.354 13.7433 294.368 13.7254 294.397 13.6897C294.368 13.7254 294.354 13.7433 294.354 13.7433Z" fill="#907DC8"/>
<g style="mix-blend-mode:multiply">
<path d="M294.354 13.7433C294.354 13.7433 294.368 13.7254 294.397 13.6897C294.368 13.7254 294.354 13.7433 294.354 13.7433Z" fill="#8F7CC7"/>
</g>
<path d="M294.051 13.9645C294.079 13.9298 294.108 13.9107 294.139 13.907C294.108 13.9107 294.079 13.9298 294.051 13.9645Z" fill="#907DC8"/>
<g style="mix-blend-mode:multiply">
<path d="M294.051 13.9645C294.079 13.9298 294.108 13.9107 294.139 13.907C294.108 13.9107 294.079 13.9298 294.051 13.9645Z" fill="#8F7CC7"/>
</g>
<path d="M293.748 14.1906C293.748 14.1906 293.762 14.1727 293.79 14.1369C293.762 14.1727 293.748 14.1906 293.748 14.1906Z" fill="#907DC8"/>
<g style="mix-blend-mode:multiply">
<path d="M293.748 14.1906C293.748 14.1906 293.762 14.1727 293.79 14.1369C293.762 14.1727 293.748 14.1906 293.748 14.1906Z" fill="#8F7CC7"/>
</g>
<path d="M286.846 19.9431C286.959 19.8357 287.073 19.7438 287.19 19.6673C287.073 19.7438 286.959 19.8357 286.846 19.9431Z" fill="#907DC8"/>
<g style="mix-blend-mode:multiply">
<path d="M286.846 19.9431C286.959 19.8357 287.073 19.7438 287.19 19.6673C287.073 19.7438 286.959 19.8357 286.846 19.9431Z" fill="#8F7CC7"/>
</g>
<path d="M294.574 13.5773C294.606 13.5736 294.62 13.5557 294.616 13.5237C294.62 13.5557 294.606 13.5736 294.574 13.5773Z" fill="#907DC8"/>
<g style="mix-blend-mode:multiply">
<path d="M294.574 13.5773C294.606 13.5736 294.62 13.5557 294.616 13.5237C294.62 13.5557 294.606 13.5736 294.574 13.5773Z" fill="#8F7CC7"/>
</g>
<path d="M292.538 15.0856C292.569 15.082 292.598 15.0628 292.625 15.0281C292.598 15.0628 292.569 15.082 292.538 15.0856Z" fill="#907DC8"/>
<g style="mix-blend-mode:multiply">
<path d="M292.538 15.0856C292.569 15.082 292.598 15.0628 292.625 15.0281C292.598 15.0628 292.569 15.082 292.538 15.0856Z" fill="#8F7CC7"/>
</g>
<path d="M294.747 13.4621C294.743 13.4301 294.757 13.4122 294.789 13.4084C294.757 13.4122 294.743 13.4301 294.747 13.4621Z" fill="#907DC8"/>
<g style="mix-blend-mode:multiply">
<path d="M294.747 13.4621C294.743 13.4301 294.757 13.4122 294.789 13.4084C294.757 13.4122 294.743 13.4301 294.747 13.4621Z" fill="#8F7CC7"/>
</g>
<path d="M288.424 18.5348C288.452 18.5002 288.481 18.481 288.512 18.4773C288.481 18.481 288.452 18.5002 288.424 18.5348Z" fill="#907DC8"/>
<g style="mix-blend-mode:multiply">
<path d="M288.424 18.5348C288.452 18.5002 288.481 18.481 288.512 18.4773C288.481 18.481 288.452 18.5002 288.424 18.5348Z" fill="#8F7CC7"/>
</g>
<path d="M290.261 16.9522C290.319 16.914 290.377 16.8758 290.436 16.8376C290.377 16.8758 290.319 16.914 290.261 16.9522Z" fill="#907DC8"/>
<g style="mix-blend-mode:multiply">
<path d="M290.261 16.9522C290.319 16.914 290.377 16.8758 290.436 16.8376C290.377 16.8758 290.319 16.914 290.261 16.9522Z" fill="#8F7CC7"/>
</g>
<path d="M292.023 15.5206C292.081 15.4824 292.139 15.4441 292.197 15.4059C292.139 15.4441 292.081 15.4824 292.023 15.5206Z" fill="#907DC8"/>
<g style="mix-blend-mode:multiply">
<path d="M292.023 15.5206C292.081 15.4824 292.139 15.4441 292.197 15.4059C292.139 15.4441 292.081 15.4824 292.023 15.5206Z" fill="#8F7CC7"/>
</g>
<path d="M290.862 16.4576C290.951 16.4158 291.023 16.3603 291.078 16.2911C291.023 16.3603 290.951 16.4158 290.862 16.4576Z" fill="#907DC8"/>
<g style="mix-blend-mode:multiply">
<path d="M290.862 16.4576C290.951 16.4158 291.023 16.3603 291.078 16.2911C291.023 16.3603 290.951 16.4158 290.862 16.4576Z" fill="#8F7CC7"/>
</g>
<path d="M291.461 15.9635C291.519 15.9253 291.575 15.8716 291.63 15.8024C291.575 15.8716 291.519 15.9253 291.461 15.9635Z" fill="#907DC8"/>
<g style="mix-blend-mode:multiply">
<path d="M291.461 15.9635C291.519 15.9253 291.575 15.8716 291.63 15.8024C291.575 15.8716 291.519 15.9253 291.461 15.9635Z" fill="#8F7CC7"/>
</g>
<path d="M294.787 13.4103C294.877 13.3684 294.919 13.332 294.916 13.3011C294.947 13.2974 294.962 13.2956 294.962 13.2956C294.931 13.2993 294.916 13.3011 294.916 13.3011C294.85 13.5441 293.285 17.4465 290.211 22.938C289.541 22.5773 288.878 22.1375 288.22 21.6185C287.636 21.1851 287.108 20.6979 286.637 20.1571C286.691 20.0879 286.761 20.0169 286.847 19.9441C286.96 19.8367 287.075 19.7448 287.191 19.6683C287.331 19.5263 287.487 19.3825 287.658 19.2369C287.744 19.1641 287.828 19.0758 287.91 18.9721C288.081 18.8264 288.252 18.6808 288.423 18.5352C288.45 18.5006 288.48 18.4815 288.511 18.4779C289.137 17.9336 289.721 17.4257 290.261 16.9543C290.32 16.9161 290.378 16.8778 290.436 16.8396C290.576 16.6976 290.718 16.5711 290.862 16.4601C290.952 16.4182 291.023 16.3627 291.078 16.2935C291.222 16.1825 291.35 16.0733 291.463 15.9659C291.522 15.9277 291.578 15.874 291.633 15.8048C291.78 15.7247 291.91 15.631 292.023 15.5236C292.081 15.4854 292.14 15.4471 292.198 15.4089C292.311 15.3015 292.424 15.1941 292.537 15.0867C292.568 15.0831 292.597 15.064 292.624 15.0294C293.056 14.6963 293.431 14.4169 293.749 14.1912C293.749 14.1912 293.763 14.1739 293.79 14.1393C293.876 14.0665 293.963 14.0091 294.053 13.9673C294.08 13.9327 294.109 13.9136 294.14 13.9099C294.195 13.8408 294.267 13.7853 294.356 13.7434C294.356 13.7434 294.37 13.7261 294.397 13.6915C294.455 13.6533 294.513 13.6151 294.572 13.5769C294.603 13.5732 294.616 13.5559 294.613 13.525C294.671 13.4867 294.715 13.4658 294.746 13.4622C294.743 13.4312 294.756 13.4139 294.787 13.4103V13.4103Z" fill="#907DC8"/>
<path d="M294.775 13.4126C294.782 13.4107 294.791 13.4088 294.797 13.4057C294.88 13.3658 294.919 13.3309 294.916 13.3011C294.947 13.2974 294.962 13.2956 294.962 13.2956L294.916 13.3011V13.3011C294.859 13.5118 293.674 16.4738 291.357 20.8375C290.734 22.0094 289.262 22.4409 288.22 21.6185V21.6185C287.717 21.2455 287.256 20.8326 286.837 20.3801C286.719 20.2525 286.715 20.0567 286.847 19.9441V19.9441V19.9441C287.06 19.7417 287.293 19.56 287.512 19.3646C287.559 19.3222 287.608 19.2796 287.658 19.2369C287.666 19.2308 287.673 19.2245 287.68 19.2182C287.848 19.0697 287.996 18.8989 288.166 18.7536C288.245 18.6864 288.324 18.6193 288.403 18.5521C288.416 18.5409 288.431 18.5247 288.443 18.5127V18.5127C288.482 18.4761 288.532 18.4593 288.572 18.4246C289.175 17.9004 289.738 17.4103 290.261 16.9543V16.9543C290.378 16.878 290.484 16.7886 290.586 16.6941C290.644 16.6405 290.703 16.5895 290.761 16.541C290.827 16.4861 290.908 16.4435 290.977 16.3918V16.3918C291.054 16.3338 291.117 16.2642 291.192 16.2033C291.27 16.1398 291.343 16.077 291.411 16.0148C291.446 15.9826 291.48 15.9571 291.516 15.9266V15.9266C291.599 15.8576 291.683 15.7802 291.773 15.7213C291.834 15.6813 291.891 15.6387 291.945 15.5932C291.999 15.5485 292.052 15.5044 292.111 15.4662C292.112 15.4653 292.113 15.4644 292.115 15.4635C292.17 15.4272 292.222 15.3859 292.27 15.3403C292.34 15.2738 292.41 15.2072 292.48 15.1407C292.517 15.1057 292.564 15.0886 292.602 15.054V15.054C292.616 15.0409 292.632 15.0234 292.647 15.0117C293.055 14.6973 293.412 14.4314 293.718 14.2138C293.739 14.1988 293.748 14.1933 293.764 14.173V14.173C293.775 14.1589 293.797 14.1334 293.811 14.122C293.879 14.0666 293.948 14.0207 294.018 13.9845C294.04 13.9727 294.063 13.9519 294.083 13.9357V13.9357C294.117 13.9081 294.154 13.8898 294.186 13.8592C294.224 13.8214 294.269 13.7887 294.321 13.761C294.344 13.7488 294.354 13.7454 294.37 13.7252V13.7252C294.381 13.7112 294.404 13.6865 294.419 13.6767C294.464 13.6473 294.509 13.6178 294.554 13.5884C294.566 13.5808 294.581 13.5771 294.593 13.5707V13.5707C294.623 13.5551 294.63 13.5128 294.659 13.4963C294.668 13.4913 294.677 13.4869 294.685 13.4829C294.717 13.4672 294.741 13.4225 294.775 13.4126V13.4126Z" fill="#A291D3"/>
<path d="M245.316 61.6145C248.451 64.4467 255.609 69.5493 259.159 67.3014C263.597 64.4915 290.435 28.2304 290.105 25.9404C289.864 24.2632 289.501 23.6857 289.31 23.5764L289.262 23.5575C289.276 23.5602 289.292 23.5663 289.31 23.5764L293.33 25.1423C292.26 28.9145 289.1 37.5072 285.029 41.7005L257.535 76.8866L241.907 64.6101L244.567 61.0544L245.316 61.6145Z" fill="#E4E4E4"/>
<path d="M284.346 25.4328C287.757 27.9849 288.454 32.8188 285.902 36.2298C283.35 39.6407 278.516 40.337 275.105 37.7849C271.694 35.2329 270.998 30.399 273.55 26.988C276.102 23.5771 280.936 22.8808 284.346 25.4328Z" fill="#EAE3FF"/>
<path fill-rule="evenodd" clip-rule="evenodd" d="M285.323 35.7966C287.635 32.7054 287.004 28.3246 283.913 26.0119C280.822 23.6991 276.441 24.3301 274.129 27.4212C271.816 30.5124 272.447 34.8931 275.538 37.2059C278.629 39.5187 283.01 38.8877 285.323 35.7966ZM285.902 36.2298C288.454 32.8188 287.757 27.9849 284.346 25.4328C280.936 22.8808 276.102 23.5771 273.55 26.988C270.998 30.399 271.694 35.2329 275.105 37.7849C278.516 40.337 283.35 39.6407 285.902 36.2298Z" fill="#6C6C6C"/>
<path d="M275.9 37.3281C279.668 36.9863 286.605 35.4934 285.363 28.3022C287.68 31.2402 284.896 41.1985 275.9 37.3281Z" fill="#DBD0FA"/>
<path d="M283.047 27.1698C285.499 29.004 285.999 32.4784 284.165 34.93C282.331 37.3816 278.856 37.8821 276.405 36.0478C273.953 34.2135 273.453 30.7391 275.287 28.2875C277.121 25.8359 280.596 25.3355 283.047 27.1698Z" fill="#A291D3"/>
<path fill-rule="evenodd" clip-rule="evenodd" d="M283.586 34.4968C285.181 32.365 284.746 29.3438 282.614 27.7488C280.482 26.1537 277.461 26.5889 275.866 28.7207C274.271 30.8526 274.706 33.8738 276.838 35.4688C278.97 37.0638 281.991 36.6287 283.586 34.4968ZM284.165 34.93C285.999 32.4784 285.499 29.004 283.047 27.1698C280.596 25.3355 277.121 25.8359 275.287 28.2875C273.453 30.7391 273.953 34.2135 276.405 36.0478C278.856 37.8821 282.331 37.3816 284.165 34.93Z" fill="#6C6C6C"/>
<path d="M279.153 35.3945C280.446 34.8065 283.007 32.9796 282.908 30.3765C283.633 32.2237 283.898 35.8133 279.153 35.3945Z" fill="#917EC8"/>
<path d="M274.269 38.9061C276.232 40.3755 276.633 43.1586 275.164 45.1225C273.695 47.0864 270.911 47.4873 268.948 46.0179C266.984 44.5486 266.583 41.7654 268.052 39.8015C269.521 37.8376 272.305 37.4368 274.269 38.9061Z" fill="#EAE3FF"/>
<path fill-rule="evenodd" clip-rule="evenodd" d="M274.831 44.8731C276.162 43.0933 275.799 40.5711 274.019 39.2395C272.239 37.9079 269.717 38.2712 268.385 40.0509C267.054 41.8307 267.417 44.353 269.197 45.6846C270.977 47.0162 273.499 46.6529 274.831 44.8731ZM275.164 45.1225C276.633 43.1586 276.232 40.3755 274.269 38.9061C272.305 37.4368 269.521 37.8376 268.052 39.8015C266.583 41.7654 266.984 44.5486 268.948 46.0179C270.911 47.4873 273.695 47.0864 275.164 45.1225Z" fill="#6C6C6C"/>
<path d="M269.405 45.7559C271.575 45.5591 275.569 44.6995 274.853 40.5591C276.188 42.2507 274.584 47.9843 269.405 45.7559Z" fill="#DBD0FA"/>
<path d="M273.519 39.908C274.93 40.9641 275.219 42.9646 274.163 44.3761C273.106 45.7876 271.106 46.0758 269.694 45.0197C268.283 43.9636 267.995 41.9631 269.051 40.5516C270.107 39.1401 272.107 38.8519 273.519 39.908Z" fill="#A291D3"/>
<path fill-rule="evenodd" clip-rule="evenodd" d="M273.829 44.1267C274.747 42.8992 274.497 41.1598 273.27 40.2414C272.042 39.3231 270.303 39.5736 269.384 40.801C268.466 42.0285 268.716 43.7679 269.944 44.6863C271.171 45.6046 272.911 45.3541 273.829 44.1267ZM274.163 44.3761C275.219 42.9646 274.93 40.9641 273.519 39.908C272.107 38.8519 270.107 39.1401 269.051 40.5516C267.995 41.9631 268.283 43.9636 269.694 45.0197C271.106 46.0758 273.106 45.7876 274.163 44.3761Z" fill="#6C6C6C"/>
<path d="M271.278 44.6426C272.023 44.304 273.497 43.2522 273.44 41.7534C273.858 42.8169 274.01 44.8837 271.278 44.6426Z" fill="#917EC8"/>
<g opacity="0.8">
<path d="M117.83 103.028V130.032C117.83 131.686 116.76 133.252 115.429 133.542L74.0928 142.417C71.9233 142.882 70.1299 141.518 70.1299 139.343V104.101C70.1299 101.926 71.9233 100.157 74.0928 100.157L115.429 100.012C116.76 100.012 117.83 101.346 117.83 103.028Z" fill="#F5F9FD"/>
<path d="M115.496 104.877V105.188L72.7285 106.278V105.837C72.7285 103.891 74.3365 102.309 76.2817 102.309L113.344 102.18C114.537 102.18 115.496 103.373 115.496 104.877V104.877Z" fill="#C9BEEB"/>
<path d="M78.3288 104.231C78.3288 104.801 77.8619 105.268 77.2913 105.268C76.7207 105.294 76.2539 104.827 76.2539 104.257C76.2539 103.66 76.7207 103.193 77.2913 103.193C77.8619 103.193 78.3288 103.634 78.3288 104.231Z" fill="white"/>
<path d="M81.8838 104.178C81.8838 104.722 81.4429 105.189 80.8982 105.189C80.3536 105.215 79.8867 104.774 79.8867 104.203C79.8867 103.633 80.3536 103.166 80.8982 103.166C81.4429 103.166 81.8838 103.607 81.8838 104.178V104.178Z" fill="white"/>
<path d="M85.3089 104.125C85.3089 104.67 84.8939 105.111 84.3493 105.137C83.8305 105.137 83.3896 104.696 83.3896 104.151C83.3896 103.581 83.8305 103.14 84.3493 103.14C84.8939 103.114 85.3089 103.555 85.3089 104.125Z" fill="white"/>
<path d="M94.51 113.642L101.072 117.091C101.694 117.428 101.694 118.44 101.072 118.881L94.51 123.731C93.8616 124.198 93.0576 123.808 93.0576 122.979V114.679C93.0576 113.875 93.8616 113.305 94.51 113.642Z" fill="#E47272"/>
<path d="M113.193 132.21L76.5459 140.043C74.4711 140.484 72.7334 139.161 72.7334 137.086V134.415L115.501 126.764V128.813C115.501 130.421 114.49 131.925 113.193 132.21Z" fill="#C9BEEB"/>
<path d="M100.816 132.68L81.4679 136.466C81.4333 136.484 81.3987 136.492 81.3641 136.492C81.1048 136.492 80.8714 136.311 80.8195 136.051C80.7676 135.74 80.9751 135.455 81.2604 135.403L100.816 131.564C100.833 131.858 100.842 132.152 100.842 132.446C100.824 132.515 100.816 132.593 100.816 132.68V132.68Z" fill="#E47272"/>
<path d="M113.965 129.543C114.017 129.829 113.835 130.114 113.524 130.166L101.672 132.5C101.654 132.448 101.646 132.388 101.646 132.319C101.628 132.025 101.594 131.722 101.542 131.411L113.317 129.103C113.628 129.051 113.913 129.232 113.965 129.543Z" fill="#FFFFFD"/>
<path d="M76.0779 137.527C75.8185 137.527 75.5851 137.345 75.5332 137.086C75.4813 136.775 75.6629 136.49 75.9741 136.438L85.7778 134.518C86.089 134.441 86.3743 134.648 86.4262 134.933C86.478 135.245 86.2965 135.53 85.9853 135.582L76.1816 137.501C76.147 137.518 76.1124 137.527 76.0779 137.527Z" fill="#E47272"/>
<path d="M102.611 131.745C102.611 132.835 101.781 133.872 100.744 134.079C99.7065 134.287 98.8506 133.587 98.8506 132.497C98.8506 131.382 99.7065 130.345 100.744 130.137C101.781 129.956 102.611 130.682 102.611 131.745V131.745Z" fill="#E47272"/>
<path d="M101.649 131.927C101.649 132.471 101.26 132.99 100.741 133.094C100.223 133.198 99.8076 132.834 99.8076 132.29C99.8076 131.771 100.223 131.252 100.741 131.149C101.26 131.045 101.649 131.408 101.649 131.927Z" fill="#FFFFFD"/>
<path fill-rule="evenodd" clip-rule="evenodd" d="M71.3446 144.98C71.6289 144.696 72.0862 144.684 72.3846 144.954L74.0476 146.456C74.2061 146.599 74.2966 146.803 74.2966 147.016V151.748C74.2966 152.165 73.9585 152.503 73.5415 152.503H70.4037C69.9867 152.503 69.6486 152.165 69.6486 151.748V146.989C69.6486 146.789 69.7282 146.597 69.8698 146.455L71.3446 144.98ZM72.5871 144.73C72.1693 144.352 71.5291 144.369 71.131 144.767L69.6562 146.241C69.4579 146.44 69.3466 146.709 69.3466 146.989V151.748C69.3466 152.332 69.8199 152.805 70.4037 152.805H73.5415C74.1253 152.805 74.5986 152.332 74.5986 151.748V147.016C74.5986 146.717 74.472 146.432 74.2501 146.232L72.5871 144.73Z" fill="#585161"/>
<path d="M71.2611 146.615C71.2611 146.985 71.5616 147.286 71.9323 147.286C72.303 147.286 72.6035 146.985 72.6035 146.615C72.6035 146.244 72.303 145.943 71.9323 145.943C71.5616 145.943 71.2611 146.244 71.2611 146.615Z" fill="#BCB9CE"/>
<path d="M73.6064 151.564C73.6064 151.24 73.3435 150.977 73.0192 150.977H70.8378C70.5134 150.977 70.2505 151.24 70.2505 151.564V151.564C70.2505 151.888 70.5134 152.151 70.8378 152.151H73.0192C73.3435 152.151 73.6064 151.888 73.6064 151.564V151.564Z" fill="#BCB9CE"/>
<path d="M73.6064 149.385C73.6064 149.338 73.5689 149.301 73.5225 149.301H70.3344C70.2881 149.301 70.2505 149.338 70.2505 149.385V149.385C70.2505 149.431 70.2881 149.469 70.3344 149.469H73.5225C73.5689 149.469 73.6064 149.431 73.6064 149.385V149.385Z" fill="#959498"/>
<path d="M73.6064 148.711C73.6064 148.665 73.5689 148.627 73.5225 148.627H70.3344C70.2881 148.627 70.2505 148.665 70.2505 148.711V148.711C70.2505 148.757 70.2881 148.795 70.3344 148.795H73.5225C73.5689 148.795 73.6064 148.757 73.6064 148.711V148.711Z" fill="#959498"/>
<path fill-rule="evenodd" clip-rule="evenodd" d="M72.0801 146.157V140.682H71.778V146.157H72.0801Z" fill="#FFA673"/>
</g>
<path d="M187.934 66.0692L205.758 40.237L204.449 36.0303C192.67 40.2993 178.43 32.9142 178.43 32.9142L161.697 17.9883L143.094 45.6589C155.184 50.9562 164.189 57.5 164.189 57.5C173.631 65.8822 187.934 66.0692 187.934 66.0692Z" fill="#C9BEEB"/>
<path d="M179.266 31.4816L165.556 55.7557C165.556 55.7557 176.181 64.543 187.337 62.2371L204.039 34.7534C188.833 38.0876 188.677 26.4959 179.266 31.4816Z" fill="#F5F9FD"/>
<path d="M179.268 31.4823C179.923 23.6921 165.558 15.7773 165.558 15.7773L146.986 43.9466C146.986 43.9466 158.173 44.4451 165.558 55.7565L179.268 31.4823Z" fill="#F5F9FD"/>
<path fill-rule="evenodd" clip-rule="evenodd" d="M166.057 56.0408L179.768 31.7667L178.766 31.2012L165.056 55.4753L166.057 56.0408Z" fill="#C9BEEB"/>
<path fill-rule="evenodd" clip-rule="evenodd" d="M189.486 40.7379C190.338 41.1534 191.189 41.5689 192.041 41.9843C192.477 42.1713 192.882 42.3894 193.319 42.5764C193.661 42.7322 194.098 42.9191 194.472 42.8257C194.846 42.7322 195.095 42.4517 195.282 42.109C195.5 41.735 195.718 41.33 195.905 40.9249C196.3 40.177 196.684 39.4292 197.058 38.6813C197.338 38.5567 197.401 38.1204 197.151 37.9334C197.058 37.7776 196.871 37.7153 196.684 37.7465C195.064 37.2479 193.412 36.8428 191.823 36.1885C191.667 36.1261 191.48 36.2508 191.387 36.3754C190.608 37.5595 189.953 38.8371 189.299 40.0835C189.174 40.3017 189.237 40.6444 189.486 40.7379V40.7379ZM190.421 40.1147C190.95 39.1176 191.511 38.0892 191.948 37.0609C193.381 37.4349 194.752 37.9958 196.154 38.4632C195.843 39.0448 195.541 39.6265 195.251 40.2082C195.064 40.5613 194.877 40.9145 194.69 41.2676C194.596 41.4546 194.44 41.9532 194.191 42.0155C194.067 42.0155 193.848 41.8909 193.724 41.8285C193.558 41.7247 193.381 41.6208 193.194 41.5169C192.841 41.3507 192.488 41.1742 192.135 40.9872C191.553 40.6964 190.982 40.4055 190.421 40.1147V40.1147Z" fill="#CFE1EF"/>
<path d="M181.762 33.4756C182.946 33.0393 184.099 33.5067 185.159 34.0676C186.187 34.6597 187.184 35.3141 188.368 35.5633C188.804 35.6568 188.96 35.0336 188.555 34.909C186.187 34.3169 184.162 31.6371 181.513 32.4784C180.89 32.6966 181.139 33.6625 181.762 33.4756V33.4756Z" fill="#CFE1EF"/>
<path d="M180.171 35.562C180.171 35.8425 180.42 36.0917 180.732 36.0917C181.231 36.0917 181.76 36.0294 182.29 36.0917C182.757 36.1541 183.256 36.2787 183.723 36.4345C184.689 36.7149 185.593 37.2135 186.372 37.8679C186.777 38.2107 187.338 37.6498 186.933 37.307C186.092 36.528 185.126 35.9359 184.066 35.562C183.526 35.3543 182.976 35.2089 182.415 35.1258C181.854 35.0634 181.262 34.9699 180.732 35.0323C180.42 35.0634 180.171 35.2504 180.171 35.562Z" fill="#CFE1EF"/>
<path d="M178.831 39.7685C181.355 39.9555 183.629 41.1084 185.811 42.2925C188.023 43.4455 190.235 44.6919 192.728 45.1905C193.258 45.2839 193.476 44.5361 192.946 44.3803C187.929 43.165 184.066 39.1141 178.831 38.5844C178.083 38.5221 178.083 39.7062 178.831 39.7685V39.7685Z" fill="#CFE1EF"/>
<path d="M186.126 45.5037C186.437 45.8464 186.842 46.0334 187.279 46.2204C187.673 46.3866 188.078 46.532 188.494 46.6566C189.325 46.9059 190.177 47.0409 191.049 47.0617C191.298 47.0929 191.485 46.8747 191.485 46.6566C191.485 46.4073 191.298 46.2515 191.049 46.2204C190.27 46.1269 189.491 45.9399 188.743 45.7218C188.39 45.5972 188.037 45.4621 187.684 45.3167C187.31 45.1297 186.936 44.9116 186.5 44.8181C186.126 44.7247 185.814 45.2232 186.126 45.5037V45.5037Z" fill="#CFE1EF"/>
<path fill-rule="evenodd" clip-rule="evenodd" d="M172.629 49.3992C173.907 49.555 175.215 49.9289 176.462 50.2717C177.708 50.6248 178.944 51.0299 180.17 51.4869C182.632 52.4218 185 53.5747 187.243 54.9146C187.493 55.0704 187.804 54.9458 187.96 54.6965C188.646 53.6059 189.393 52.5464 190.017 51.3934C190.266 50.9884 189.892 50.6456 189.549 50.6768C189.611 50.4898 189.549 50.2405 189.3 50.147C187.711 49.5238 186.153 48.8071 184.595 48.0281C183.265 47.3633 181.977 46.6155 180.731 45.7845C179.515 44.9744 178.238 44.133 176.742 44.0707C174.187 43.9461 172.722 46.5636 172.099 48.7136C171.975 49.0876 172.286 49.368 172.629 49.3992V49.3992ZM173.377 48.4643C173.751 47.5607 174.125 46.657 174.81 45.9715C176.867 43.9461 179.671 46.4701 181.51 47.5607C183.909 48.9629 186.464 50.0847 189.113 50.8637C189.134 50.8637 189.144 50.8637 189.144 50.8637C189.123 50.8845 189.113 50.8949 189.113 50.8949C188.459 51.7985 187.898 52.7645 187.306 53.7305C185.124 52.4841 182.85 51.3935 180.513 50.521C179.266 50.0432 177.999 49.6277 176.711 49.2745C175.62 48.9629 174.499 48.7136 173.377 48.4643V48.4643Z" fill="#CFE1EF"/>
<path d="M172.445 51.3309C173.535 51.8294 174.719 52.1722 175.841 52.5773C176.942 52.9928 178.054 53.3979 179.175 53.7926C181.44 54.6235 183.704 55.4337 185.968 56.2231C186.498 56.41 186.716 55.5376 186.187 55.3506C183.985 54.4989 181.762 53.6575 179.518 52.8266C178.396 52.4319 177.285 52.0268 176.184 51.6113C175.062 51.2062 173.972 50.7077 172.819 50.3961C172.289 50.2402 171.915 51.0816 172.445 51.3309Z" fill="#CFE1EF"/>
<path d="M178.926 56.2539C179.175 56.6902 179.829 56.8771 180.265 57.0329C180.722 57.2407 181.18 57.4173 181.637 57.5627C182.571 57.8535 183.527 58.0716 184.503 58.2171C184.753 58.2482 185.002 58.1547 185.064 57.8743C185.127 57.6562 185.002 57.3445 184.753 57.3134C183.818 57.1472 182.904 56.9083 182.01 56.5967C181.574 56.4305 181.159 56.2539 180.764 56.067C180.556 55.9839 180.349 55.8904 180.141 55.7865C179.892 55.6619 179.642 55.5061 179.362 55.5372C179.019 55.5684 178.739 55.9112 178.926 56.2539Z" fill="#CFE1EF"/>
<path d="M167.146 21.6363C167.52 21.9791 168.175 22.1661 168.642 22.4154C169.099 22.6439 169.546 22.8932 169.982 23.1632C170.896 23.7449 171.748 24.3993 172.537 25.1263C174.126 26.622 175.466 28.3359 176.463 30.2678C176.713 30.7353 177.429 30.3302 177.211 29.8316C176.214 27.8062 174.843 25.9365 173.191 24.4096C172.35 23.6306 171.446 22.9139 170.48 22.2907C170.023 21.9999 169.556 21.7298 169.078 21.4805C168.611 21.2313 168.019 20.8573 167.489 20.8262C167.084 20.8262 166.866 21.3559 167.146 21.6363V21.6363Z" fill="#CFE1EF"/>
<path d="M172.32 28.3361C172.476 28.7101 172.756 29.0217 173.005 29.3333C173.255 29.6241 173.504 29.9149 173.753 30.2058C174.273 30.8082 174.792 31.4106 175.311 32.0131C175.436 32.1689 175.748 32.1377 175.872 32.0131C176.059 31.8261 176.028 31.5768 175.872 31.421C175.394 30.7978 174.906 30.185 174.408 29.5825C174.158 29.2709 173.909 28.9593 173.66 28.6477C173.379 28.3361 173.13 28.0557 172.818 27.8376C172.663 27.7441 172.476 27.7752 172.382 27.8999C172.258 27.9934 172.226 28.1803 172.32 28.3361V28.3361Z" fill="#CFE1EF"/>
<path fill-rule="evenodd" clip-rule="evenodd" d="M160.012 30.2042C163.845 32.3231 167.459 34.816 170.793 37.6204C170.98 37.8074 171.354 37.8697 171.541 37.6204C172.445 36.4675 173.473 35.3145 174.252 34.0993C174.502 33.6942 174.128 33.2891 173.754 33.2891C173.754 33.2683 173.743 33.2372 173.723 33.1956C172.881 31.918 171.728 30.7963 170.544 29.7991C169.391 28.8331 168.145 27.9295 166.836 27.2128C165.527 26.4961 164 25.8729 162.536 26.4961C161.258 27.057 160.479 28.3346 159.825 29.4875C159.7 29.7368 159.763 30.0796 160.012 30.2042ZM171.074 36.4987C167.927 33.8812 164.561 31.5441 160.978 29.5498C161.476 28.6773 162.068 27.7425 163.034 27.3997C164.343 26.87 165.808 27.7737 166.898 28.3969C168.082 29.0824 169.183 29.8718 170.201 30.7651C171.261 31.6688 172.165 32.6659 173.13 33.663C173.151 33.6838 173.182 33.7046 173.224 33.7254C172.445 34.5979 171.759 35.5638 171.074 36.4987Z" fill="#CFE1EF"/>
<path d="M158.736 32.1352C158.861 32.4468 159.266 32.5092 159.577 32.6338C159.847 32.7584 160.128 32.8935 160.419 33.0389C160.959 33.3089 161.488 33.6206 162.008 33.9737C163.036 34.6592 163.971 35.5006 164.781 36.4042C165.124 36.8093 165.654 36.2484 165.342 35.8433C164.511 34.8047 163.555 33.9114 162.475 33.1635C161.914 32.7688 161.343 32.4261 160.761 32.1352C160.471 31.9898 160.18 31.8548 159.889 31.7301C159.546 31.5743 159.234 31.3874 158.892 31.5743C158.642 31.6678 158.642 31.9483 158.736 32.1352Z" fill="#CFE1EF"/>
<path d="M157.424 34.2259C157.487 34.3194 157.549 34.3817 157.674 34.444C157.715 34.4855 157.767 34.5167 157.829 34.5375C157.913 34.5998 158.006 34.6517 158.11 34.6933C158.297 34.8179 158.494 34.9322 158.702 35.036C159.076 35.2853 159.481 35.5035 159.886 35.7216C160.073 35.8151 160.291 35.7527 160.416 35.5658C160.509 35.3788 160.416 35.1918 160.26 35.0672C159.886 34.8179 159.512 34.5686 159.138 34.3193C158.951 34.1947 158.764 34.0701 158.577 33.9454C158.494 33.9039 158.401 33.8519 158.297 33.7896C158.172 33.7273 158.048 33.6027 157.923 33.6027C157.736 33.5715 157.58 33.6027 157.456 33.7585C157.362 33.8831 157.331 34.1012 157.424 34.2259V34.2259Z" fill="#CFE1EF"/>
<path d="M156.429 37.3405C156.835 37.6521 157.458 37.7768 157.925 37.9949C158.424 38.1818 158.902 38.4 159.359 38.6493C160.293 39.1063 161.197 39.636 162.07 40.2385C163.846 41.4226 165.435 42.8248 166.868 44.414C167.211 44.8191 167.772 44.227 167.429 43.8531C165.996 42.1393 164.375 40.6435 162.537 39.3971C161.623 38.7531 160.667 38.1818 159.67 37.6833C159.192 37.4548 158.715 37.2366 158.237 37.0289C157.738 36.8108 157.177 36.4992 156.648 36.4992C156.149 36.468 156.087 37.0912 156.429 37.3405V37.3405Z" fill="#CFE1EF"/>
<path fill-rule="evenodd" clip-rule="evenodd" d="M165.869 40.3006C166.336 41.0485 167.209 41.5159 168.112 41.3912C169.016 41.2977 169.795 40.7057 170.076 39.8332C170.2 39.7397 170.262 39.6151 170.231 39.4593C170.013 38.431 169.421 37.465 168.393 37.0911C167.551 36.8106 166.617 37.0599 166.056 37.7766C165.464 38.4933 165.37 39.4904 165.869 40.3006ZM166.648 39.0542C166.648 39.023 166.648 38.9919 166.648 38.9919C166.648 38.9607 166.648 38.8672 166.648 38.8984C166.669 38.8153 166.689 38.7322 166.71 38.6491C166.731 38.6075 166.752 38.5764 166.772 38.5556C166.814 38.4933 166.856 38.431 166.897 38.3686C166.897 38.3375 166.897 38.3375 166.928 38.3375C166.949 38.3167 166.97 38.2855 166.991 38.244C167.115 38.1194 167.115 38.1194 167.271 38.0259C167.365 37.9947 167.333 37.9947 167.427 37.9636C167.458 37.9636 167.552 37.9324 167.583 37.9324C167.863 37.9012 168.175 37.9636 168.424 38.1194C168.86 38.3375 169.141 38.7426 169.328 39.1788C169.265 39.1996 169.213 39.2515 169.172 39.3346C169.151 39.4177 169.11 39.4904 169.047 39.5527L169.016 39.6151C168.974 39.6566 168.943 39.6878 168.923 39.7085C168.86 39.7709 168.798 39.8332 168.736 39.8955C168.736 39.8955 168.704 39.9267 168.673 39.9578C168.642 39.9578 168.642 39.989 168.642 39.989C168.559 40.0305 168.486 40.0721 168.424 40.1136C168.382 40.1344 168.341 40.1552 168.299 40.176C168.279 40.176 168.268 40.176 168.268 40.176C168.185 40.1967 168.102 40.2175 168.019 40.2383C167.998 40.2383 167.988 40.2383 167.988 40.2383C167.988 40.2383 167.977 40.2383 167.957 40.2383C167.936 40.2383 167.905 40.2383 167.863 40.2383C167.801 40.2383 167.749 40.2383 167.707 40.2383C167.707 40.2383 167.697 40.2383 167.676 40.2383C167.614 40.2175 167.552 40.1967 167.489 40.176C167.489 40.176 167.458 40.176 167.427 40.176C167.396 40.176 167.396 40.1448 167.365 40.1448C167.302 40.124 167.25 40.0929 167.209 40.0513C167.178 40.0513 167.115 39.989 167.115 39.989C167.084 39.9578 167.084 39.9578 167.053 39.9578C167.011 39.8955 166.97 39.8436 166.928 39.802C166.897 39.802 166.897 39.7709 166.866 39.7709C166.866 39.7397 166.835 39.7085 166.835 39.7085C166.793 39.6462 166.752 39.5839 166.71 39.5216C166.71 39.5008 166.71 39.4904 166.71 39.4904C166.71 39.4904 166.71 39.48 166.71 39.4593C166.689 39.4385 166.679 39.4073 166.679 39.3658C166.658 39.345 166.648 39.3138 166.648 39.2723C166.648 39.2723 166.648 39.2411 166.648 39.21C166.648 39.1788 166.648 39.1477 166.648 39.1477C166.627 39.1061 166.627 39.075 166.648 39.0542V39.0542Z" fill="#CFE1EF"/>
<path d="M162.943 44.0107C163.317 44.3846 163.722 44.6962 164.127 45.039C164.521 45.3714 164.926 45.7038 165.342 46.0361C165.529 46.1919 165.778 46.1919 165.965 46.0361C166.121 45.8803 166.121 45.5687 165.965 45.4129C165.155 44.6651 164.376 43.9172 163.503 43.2628C163.317 43.1382 163.036 43.2317 162.911 43.3875C162.756 43.5744 162.787 43.8549 162.943 44.0107Z" fill="#CFE1EF"/>
<path d="M153.561 41.3907C154.558 41.827 155.555 42.2009 156.49 42.6995C157.404 43.1773 158.287 43.6966 159.139 44.2575C160.915 45.4416 162.535 46.7815 164 48.2772C164.374 48.6823 164.966 48.0902 164.592 47.6852C163.158 46.096 161.507 44.6314 159.731 43.4162C158.817 42.7929 157.871 42.2217 156.895 41.7023C155.96 41.2037 154.994 40.7052 153.966 40.3624C153.405 40.1754 153 41.1103 153.561 41.3907Z" fill="#CFE1EF"/>
<path fill-rule="evenodd" clip-rule="evenodd" d="M187 70.6858C187.377 70.3089 187.984 70.2935 188.379 70.6508L190.584 72.6422C190.794 72.832 190.914 73.102 190.914 73.3851V79.6588C190.914 80.2117 190.466 80.6599 189.913 80.6599H185.753C185.2 80.6599 184.752 80.2117 184.752 79.6588V73.349C184.752 73.0835 184.857 72.8289 185.045 72.6411L187 70.6858ZM188.648 70.3536C188.094 69.8534 187.245 69.8749 186.717 70.4027L184.762 72.358C184.499 72.6208 184.351 72.9773 184.351 73.349V79.6588C184.351 80.4328 184.979 81.0603 185.753 81.0603H189.913C190.687 81.0603 191.314 80.4328 191.314 79.6588V73.3851C191.314 72.9887 191.147 72.6108 190.852 72.3451L188.648 70.3536Z" fill="#585161"/>
<path d="M186.888 72.8508C186.888 73.3422 187.287 73.7406 187.778 73.7406C188.27 73.7406 188.668 73.3422 188.668 72.8508C188.668 72.3593 188.27 71.9609 187.778 71.9609C187.287 71.9609 186.888 72.3593 186.888 72.8508Z" fill="#BCB9CE"/>
<path d="M190.003 79.4173C190.003 78.9873 189.654 78.6387 189.224 78.6387H186.332C185.902 78.6387 185.554 78.9873 185.554 79.4173V79.4173C185.554 79.8473 185.902 80.1959 186.332 80.1959H189.224C189.654 80.1959 190.003 79.8473 190.003 79.4173V79.4173Z" fill="#BCB9CE"/>
<path d="M190.003 76.5233C190.003 76.4619 189.953 76.4121 189.892 76.4121H185.665C185.603 76.4121 185.554 76.4619 185.554 76.5233V76.5233C185.554 76.5848 185.603 76.6346 185.665 76.6346H189.892C189.953 76.6346 190.003 76.5848 190.003 76.5233V76.5233Z" fill="#959498"/>
<path d="M190.003 75.6327C190.003 75.5713 189.953 75.5215 189.892 75.5215H185.665C185.603 75.5215 185.554 75.5713 185.554 75.6327V75.6327C185.554 75.6941 185.603 75.7439 185.665 75.7439H189.892C189.953 75.7439 190.003 75.6941 190.003 75.6327V75.6327Z" fill="#959498"/>
<path fill-rule="evenodd" clip-rule="evenodd" d="M187.975 72.2472V64.9883H187.574V72.2472H187.975Z" fill="#FFA673"/>
<defs>
<linearGradient id="paint0_linear_4484_18759" x1="196.284" y1="177.778" x2="196.284" y2="297.023" gradientUnits="userSpaceOnUse">
<stop stop-color="#9280C9"/>
<stop offset="1" stop-color="white" stop-opacity="0"/>
</linearGradient>
<linearGradient id="paint1_linear_4484_18759" x1="205.849" y1="151.19" x2="176.25" y2="184.919" gradientUnits="userSpaceOnUse">
<stop stop-color="#B5A7DF"/>
<stop offset="1" stop-color="#DFD8F8"/>
</linearGradient>
<linearGradient id="paint2_linear_4484_18759" x1="205.848" y1="152.567" x2="254.721" y2="158.762" gradientUnits="userSpaceOnUse">
<stop stop-color="#8672C1"/>
<stop offset="1" stop-color="#C8BCEA"/>
</linearGradient>
<linearGradient id="paint3_linear_4484_18759" x1="227.826" y1="151.164" x2="227.826" y2="253.513" gradientUnits="userSpaceOnUse">
<stop stop-color="#E2DBFA"/>
<stop offset="1" stop-color="#AFA0DB"/>
</linearGradient>
<linearGradient id="paint4_linear_4484_18759" x1="234.857" y1="151.164" x2="234.857" y2="195.242" gradientUnits="userSpaceOnUse">
<stop stop-color="#B2A3DD"/>
<stop offset="1" stop-color="#E2DAFA"/>
</linearGradient>
<linearGradient id="paint5_linear_4484_18759" x1="159.983" y1="151.164" x2="159.983" y2="253.513" gradientUnits="userSpaceOnUse">
<stop stop-color="#E9E2FF"/>
<stop offset="1" stop-color="#CBC1E9"/>
</linearGradient>
<linearGradient id="paint6_linear_4484_18759" x1="149.419" y1="151.164" x2="149.419" y2="194.848" gradientUnits="userSpaceOnUse">
<stop stop-color="#B2A3DD"/>
<stop offset="1" stop-color="#E2DAFA"/>
</linearGradient>
<linearGradient id="paint7_linear_4484_18759" x1="258.489" y1="124.005" x2="186.617" y2="156.398" gradientUnits="userSpaceOnUse">
<stop stop-color="#9481CA"/>
<stop offset="1" stop-color="white" stop-opacity="0"/>
</linearGradient>
</defs>
</svg>
