<svg width="448" height="448" viewBox="0 0 448 448" fill="none" xmlns="http://www.w3.org/2000/svg">
<rect width="448" height="448" fill="#ECECEC"/>
<rect x="69" y="70" width="311" height="311" fill="#CDCDCD"/>
<rect x="69" y="110" width="311" height="271" fill="url(#paint0_linear_11778_93015)"/>
<rect x="99" y="226" width="140" height="97" fill="url(#paint1_linear_11778_93015)"/>
<rect x="265" y="226" width="85" height="139" fill="url(#paint2_linear_11778_93015)"/>
<circle cx="279" cy="295" r="4" fill="#D9D9D9"/>
<path d="M68.9814 110H124L105.019 204H50L68.9814 110Z" fill="white"/>
<path d="M326.019 110H271L289.981 204H345L326.019 110Z" fill="white"/>
<path d="M123.725 110H178L159.275 204H105L123.725 110Z" fill="url(#paint3_linear_11778_93015)"/>
<path d="M380.275 110H326L344.725 204H399L380.275 110Z" fill="url(#paint4_linear_11778_93015)"/>
<path d="M176.981 110H232L213.019 204H158L176.981 110Z" fill="white"/>
<path d="M271.275 110H217L235.725 204H290L271.275 110Z" fill="url(#paint5_linear_11778_93015)"/>
<defs>
<linearGradient id="paint0_linear_11778_93015" x1="224.5" y1="110" x2="224.5" y2="381" gradientUnits="userSpaceOnUse">
<stop stop-color="#F1F1F1"/>
<stop offset="1" stop-color="#ECECEC" stop-opacity="0"/>
</linearGradient>
<linearGradient id="paint1_linear_11778_93015" x1="180.5" y1="247.397" x2="242.231" y2="354.284" gradientUnits="userSpaceOnUse">
<stop stop-color="white"/>
<stop offset="1" stop-color="#F3F3F3" stop-opacity="0.5"/>
</linearGradient>
<linearGradient id="paint2_linear_11778_93015" x1="314.482" y1="256.662" x2="411.899" y2="328.128" gradientUnits="userSpaceOnUse">
<stop stop-color="white"/>
<stop offset="1" stop-color="#F3F3F3" stop-opacity="0.5"/>
</linearGradient>
<linearGradient id="paint3_linear_11778_93015" x1="127.253" y1="222.984" x2="163.994" y2="9.07304" gradientUnits="userSpaceOnUse">
<stop stop-color="#D9D9D9"/>
<stop offset="1" stop-color="#C0C0C0"/>
</linearGradient>
<linearGradient id="paint4_linear_11778_93015" x1="376.747" y1="222.984" x2="340.006" y2="9.07304" gradientUnits="userSpaceOnUse">
<stop stop-color="#D9D9D9"/>
<stop offset="1" stop-color="#C0C0C0"/>
</linearGradient>
<linearGradient id="paint5_linear_11778_93015" x1="253.5" y1="110" x2="253.5" y2="204" gradientUnits="userSpaceOnUse">
<stop stop-color="#D9D9D9"/>
<stop offset="1" stop-color="#C0C0C0"/>
</linearGradient>
</defs>
</svg>
