<svg width="163" height="96" viewBox="0 0 163 96" fill="none" xmlns="http://www.w3.org/2000/svg">
<path d="M32.0073 37.8613C26.6073 63.5867 43.1074 88.8117 68.8074 94.217C94.5074 99.6224 119.707 83.106 125.107 57.3806C130.507 31.6551 114.007 6.43017 88.3074 1.02482C62.6074 -4.38053 37.4073 12.1358 32.0073 37.8613Z" fill="url(#paint0_linear_2595_4209)"/>
<path style="mix-blend-mode:multiply" opacity="0.1" d="M124.307 60.4844C124.107 60.818 123.874 61.1183 123.607 61.3853C119.707 65.4893 114.807 68.4923 109.907 71.195C103.707 74.6984 97.2073 78.0017 90.2073 79.7034C77.0073 82.9066 62.9073 80.1038 50.4073 74.5983C45.4073 72.3962 40.5073 69.6935 35.4073 67.6915C41.5073 80.8045 53.5074 91.0146 68.8074 94.2178C93.5074 99.4229 117.607 84.4081 124.307 60.4844Z" fill="url(#paint1_linear_2595_4209)"/>
<g style="mix-blend-mode:multiply">
<path style="mix-blend-mode:multiply" d="M110.407 82.8056C110.207 82.7388 110.041 82.7055 109.907 82.7055C108.174 82.3718 106.407 82.0048 104.607 81.6044C93.6074 79.202 81.9073 75.7986 69.9073 71.4944C56.0073 66.4894 42.8074 60.6837 31.6074 54.6777C32.1407 57.8142 32.974 60.8839 34.1074 63.8868C44.2074 68.9919 55.6073 73.8968 67.5073 78.201C79.6073 82.5053 91.4074 85.9086 102.607 88.4111C105.407 86.8095 108.007 84.941 110.407 82.8056Z" fill="url(#paint2_linear_2595_4209)"/>
</g>
<path opacity="0.3" d="M31.4073 52.9769C31.674 53.1104 31.9074 53.2438 32.1074 53.3773C44.0074 59.7836 58.2073 65.9898 73.2073 71.1949C85.5073 75.4992 97.5074 79.0026 108.807 81.405C109.007 81.4718 109.241 81.5385 109.507 81.6052C109.841 81.672 110.174 81.7387 110.507 81.8054C125.707 85.0086 157.407 90.0135 162.007 77.301C163.807 72.4962 160.407 66.5904 151.607 59.183C145.207 53.8778 136.307 48.072 126.107 42.5666C126.374 45.1024 126.407 47.705 126.207 50.3743C148.207 62.7866 156.307 72.4962 155.407 74.8986C154.207 78.2019 142.207 81.1047 115.507 75.8996C113.774 75.5659 112.007 75.1989 110.207 74.7985C99.2073 72.3961 87.5073 69.0928 75.5073 64.8887C60.5073 59.5834 46.5074 53.4774 34.8074 47.1711C33.6074 46.5038 32.474 45.8699 31.4073 45.2693C11.8073 34.0582 6.10733 25.85 7.20734 22.9472C7.40733 22.3466 9.80737 20.6449 17.8074 20.5448C23.3074 20.5448 30.3073 21.1454 37.9073 22.5468C39.2407 20.3446 40.7407 18.3093 42.4073 16.4407C29.2074 13.8382 4.20732 10.5349 0.507324 20.6449C-3.59268 31.9561 18.1073 45.7698 31.4073 52.9769Z" fill="url(#paint3_linear_2595_4209)"/>
<path opacity="0.3" d="M49.0073 10.3345C50.7073 13.8379 51.8074 17.5416 54.6074 20.3444C58.9074 24.7487 65.2073 27.3513 71.2073 28.052C71.8073 28.1187 72.4073 28.1521 73.0073 28.1521C73.1073 30.9549 74.6074 33.6575 78.1074 34.3582C84.1074 35.6595 87.2074 29.4534 85.6074 25.1491C87.3074 24.4484 88.9074 23.8478 90.6074 23.2472C98.8074 20.4445 107.907 20.6447 116.407 22.7467C117.474 23.0137 118.574 23.314 119.707 23.6476C113.107 12.4365 102.007 3.92812 88.3074 1.02524C73.9074 -1.97773 59.7073 1.82604 49.0073 10.3345Z" fill="url(#paint4_linear_2595_4209)"/>
<path d="M108.807 43.9672C117.207 45.769 114.507 58.882 106.007 57.1803C97.5073 55.3785 100.307 42.1654 108.807 43.9672Z" fill="url(#paint5_linear_2595_4209)"/>
<path d="M49.3074 37.0607C55.3074 38.362 53.4074 47.6712 47.4074 46.3699C41.4074 45.1687 43.3074 35.7594 49.3074 37.0607Z" fill="url(#paint6_linear_2595_4209)"/>
<path opacity="0.3" d="M71.0073 41.4648C72.8073 41.8652 72.2074 44.668 70.4074 44.2676C68.7074 43.8672 69.2073 41.0644 71.0073 41.4648Z" fill="url(#paint7_linear_2595_4209)"/>
<path opacity="0.3" d="M44.8074 22.2456V22.5459C44.7407 22.8129 44.7407 23.0464 44.8074 23.2466C44.874 23.3801 44.9407 23.5135 45.0073 23.647C45.1407 23.8472 45.3073 24.014 45.5073 24.1475C45.6407 24.1475 45.7407 24.1809 45.8074 24.2476C46.0074 24.3143 46.2073 24.3143 46.4073 24.2476C46.6073 24.1809 46.774 24.1141 46.9074 24.0474C47.1073 23.9139 47.2407 23.7805 47.3074 23.647C47.4407 23.5135 47.5073 23.3467 47.5073 23.1465L47.6074 22.8462C47.674 22.5793 47.6407 22.3457 47.5073 22.1455C47.5073 22.0121 47.474 21.8786 47.4073 21.7451C47.274 21.5449 47.074 21.4115 46.8074 21.3447L46.5073 21.1445C46.3073 21.1445 46.1073 21.1445 45.9073 21.1445C45.774 21.2113 45.6074 21.278 45.4074 21.3447C45.274 21.4782 45.1407 21.6117 45.0073 21.7451C44.9407 21.8786 44.874 22.0454 44.8074 22.2456Z" fill="url(#paint8_linear_2595_4209)"/>
<path opacity="0.3" d="M52.7073 72.3945C54.5073 72.7949 53.9074 75.4976 52.1074 75.1973C50.3074 74.7969 50.9073 71.9941 52.7073 72.3945Z" fill="url(#paint9_linear_2595_4209)"/>
<path opacity="0.3" d="M89.1073 60.0823L88.9073 60.6829C88.8407 60.9498 88.874 61.2501 89.0073 61.5838C89.074 61.7173 89.1407 61.8507 89.2073 61.9842C89.3407 62.2511 89.574 62.4513 89.9073 62.5848C90.0407 62.6515 90.174 62.7182 90.3074 62.785C90.574 62.785 90.8073 62.7516 91.0073 62.6849C91.2073 62.6849 91.4073 62.6181 91.6073 62.4847C91.8073 62.3512 91.974 62.1844 92.1073 61.9842C92.2407 61.784 92.3407 61.5838 92.4073 61.3836L92.5073 60.783C92.574 60.4493 92.574 60.149 92.5073 59.8821C92.4406 59.7486 92.374 59.6152 92.3074 59.4817C92.1074 59.2148 91.874 59.0146 91.6073 58.8811C91.474 58.8144 91.3073 58.7476 91.1073 58.6809C90.9073 58.6142 90.7073 58.6142 90.5073 58.6809C90.2406 58.7476 90.0074 58.8477 89.8074 58.9812C89.6074 59.1147 89.4407 59.2815 89.3074 59.4817C89.174 59.6152 89.1073 59.8154 89.1073 60.0823Z" fill="url(#paint10_linear_2595_4209)"/>
<path opacity="0.3" d="M112.807 30.2534C115.107 30.7539 114.307 34.2573 112.107 33.7568C109.907 33.2563 110.607 29.853 112.807 30.2534Z" fill="url(#paint11_linear_2595_4209)"/>
<path d="M90.5074 83.207C92.7074 83.7075 92.0074 87.1109 89.7074 86.7105C87.5074 86.21 88.2074 82.7065 90.5074 83.207Z" fill="url(#paint12_linear_2595_4209)"/>
<path d="M61.4073 86.0081C58.2073 85.4075 55.6073 86.5086 54.0073 88.4104C58.1073 90.9129 62.7073 92.7147 67.6073 93.9159C67.7073 90.4124 65.8073 87.0091 61.4073 86.0081Z" fill="url(#paint13_linear_2595_4209)"/>
<defs>
<linearGradient id="paint0_linear_2595_4209" x1="144.207" y1="-45.2209" x2="28.8562" y2="16.7452" gradientUnits="userSpaceOnUse">
<stop stop-color="#BD67B3"/>
<stop offset="1" stop-color="#5A4BA7"/>
</linearGradient>
<linearGradient id="paint1_linear_2595_4209" x1="123.707" y1="98.2217" x2="124.81" y2="81.3051" gradientUnits="userSpaceOnUse">
<stop stop-color="#BD67B3"/>
<stop offset="1" stop-color="#5A4BA7"/>
</linearGradient>
<linearGradient id="paint2_linear_2595_4209" x1="28.8074" y1="56.8799" x2="26.0024" y2="64.8861" gradientUnits="userSpaceOnUse">
<stop stop-color="#BD67B3"/>
<stop offset="1" stop-color="white" stop-opacity="0.1"/>
</linearGradient>
<linearGradient id="paint3_linear_2595_4209" x1="168.207" y1="42.5666" x2="6.79391" y2="8.79724" gradientUnits="userSpaceOnUse">
<stop stop-color="#E0E5F3"/>
<stop offset="1" stop-color="#7D84C4"/>
</linearGradient>
<linearGradient id="paint4_linear_2595_4209" x1="123.307" y1="8.23238" x2="53.0015" y2="-6.4543" gradientUnits="userSpaceOnUse">
<stop stop-color="#E0E5F3"/>
<stop offset="1" stop-color="#7D84C4"/>
</linearGradient>
<linearGradient id="paint5_linear_2595_4209" x1="58.2073" y1="38.662" x2="86.1136" y2="48.6543" gradientUnits="userSpaceOnUse">
<stop stop-color="#BD67B3"/>
<stop offset="1" stop-color="#5A4BA7"/>
</linearGradient>
<linearGradient id="paint6_linear_2595_4209" x1="30.0074" y1="18.142" x2="43.4284" y2="44.3572" gradientUnits="userSpaceOnUse">
<stop stop-color="#BD67B3"/>
<stop offset="1" stop-color="#5A4BA7"/>
</linearGradient>
<linearGradient id="paint7_linear_2595_4209" x1="72.1073" y1="40.3637" x2="70.3072" y2="39.9641" gradientUnits="userSpaceOnUse">
<stop stop-color="#E0E5F3"/>
<stop offset="1" stop-color="#7D84C4"/>
</linearGradient>
<linearGradient id="paint8_linear_2595_4209" x1="48.3073" y1="19.5429" x2="45.5071" y2="18.9435" gradientUnits="userSpaceOnUse">
<stop stop-color="#E0E5F3"/>
<stop offset="1" stop-color="#7D84C4"/>
</linearGradient>
<linearGradient id="paint9_linear_2595_4209" x1="53.7074" y1="71.2934" x2="52.0072" y2="70.8938" gradientUnits="userSpaceOnUse">
<stop stop-color="#E0E5F3"/>
<stop offset="1" stop-color="#7D84C4"/>
</linearGradient>
<linearGradient id="paint10_linear_2595_4209" x1="93.3073" y1="57.0793" x2="89.8071" y2="56.38" gradientUnits="userSpaceOnUse">
<stop stop-color="#E0E5F3"/>
<stop offset="1" stop-color="#7D84C4"/>
</linearGradient>
<linearGradient id="paint11_linear_2595_4209" x1="114.107" y1="29.2524" x2="111.907" y2="28.8527" gradientUnits="userSpaceOnUse">
<stop stop-color="#E0E5F3"/>
<stop offset="1" stop-color="#7D84C4"/>
</linearGradient>
<linearGradient id="paint12_linear_2595_4209" x1="112.007" y1="26.3507" x2="86.3661" y2="79.8839" gradientUnits="userSpaceOnUse">
<stop stop-color="#BD67B3"/>
<stop offset="1" stop-color="#5A4BA7"/>
</linearGradient>
<linearGradient id="paint13_linear_2595_4209" x1="54.2073" y1="74.797" x2="51.4019" y2="92.2133" gradientUnits="userSpaceOnUse">
<stop stop-color="#BD67B3"/>
<stop offset="1" stop-color="#5A4BA7"/>
</linearGradient>
</defs>
</svg>
