<svg width="1281" height="151" viewBox="0 0 1281 151" fill="none" xmlns="http://www.w3.org/2000/svg">
<path d="M636.094 93.8247L638.735 94.8527L647.245 91.7686C647.245 91.7686 648.997 93.234 650.033 94.2653C650.809 95.0381 651.413 95.3609 651.94 96.3214C652.15 96.7042 652.514 96.9336 652.38 97.3494C652.268 97.699 651.988 97.802 651.647 97.9369C651.22 98.1055 650.927 97.9964 650.473 97.9369C649.405 97.797 648.125 96.762 647.685 97.0557C647.245 97.3494 647.199 98.0484 646.952 98.9649C646.704 99.8815 648.464 102.405 647.685 104.399C647.47 104.949 647.481 105.46 646.952 105.721C646.54 105.924 646.218 105.85 645.778 105.721C644.96 105.481 644.817 104.791 644.311 104.105C643.366 102.826 642.55 100.434 642.55 100.434C642.55 100.434 643.117 102.291 643.284 103.518C643.4 104.372 643.641 104.885 643.43 105.721C643.323 106.144 643.356 106.51 642.99 106.749C642.745 106.909 642.549 106.896 642.256 106.896C641.964 106.896 641.788 106.871 641.523 106.749C641.043 106.528 640.931 106.163 640.643 105.721C640.235 105.097 640.187 104.65 639.909 103.958C639.293 102.426 638.442 99.993 638.442 99.993C638.442 99.993 638.728 102.702 638.442 104.399C638.354 104.92 638.594 105.437 638.148 105.721C637.949 105.848 637.798 105.868 637.561 105.868C637.325 105.868 637.188 105.822 636.975 105.721C636.414 105.455 636.378 104.95 636.094 104.399C635.654 103.545 635.537 102.994 635.361 102.049C635.088 100.583 634.996 99.7245 635.067 98.2306C635.111 97.3069 635.143 96.7795 635.361 95.8808C635.562 95.0522 636.094 93.8247 636.094 93.8247Z" fill="#C0C0C0"/>
<path d="M638.443 52.7017C638.443 52.7017 647.769 42.6416 655.462 38.8964C663.678 34.8966 678.35 34.0498 678.35 34.0498C678.35 34.0498 684.306 42.6854 687.154 48.7363C691.433 57.8311 694.489 73.4097 694.489 73.4097L662.358 92.3553C662.358 92.3553 653.63 82.3552 649.153 75.1721C644.012 66.9226 638.443 52.7017 638.443 52.7017Z" fill="#CACACA"/>
<path d="M649.886 37.1356C642.193 40.8808 632.867 50.941 632.867 50.941C632.867 50.941 638.437 65.1619 643.577 73.4113C648.054 80.5945 656.782 90.5946 656.782 90.5946L662.358 92.357C662.358 92.357 653.629 82.3569 649.153 75.1737C644.012 66.9243 638.442 52.7033 638.442 52.7033C638.442 52.7033 647.768 42.6432 655.462 38.898C663.678 34.8983 678.35 34.0514 678.35 34.0514C678.35 34.0514 684.306 42.687 687.153 48.738C691.107 57.1391 694.016 71.0726 694.437 73.1492L694.489 73.1176C694.489 73.1176 692.586 58.9083 688.914 50.6472C685.793 43.6259 678.35 34.0514 678.35 34.0514L672.775 32.2891C672.775 32.2891 658.102 33.1359 649.886 37.1356Z" fill="#ACAAAA"/>
<path d="M632.867 50.9414C632.867 50.9414 638.437 65.1623 643.577 73.4118C648.054 80.5949 656.782 90.595 656.782 90.595L662.358 92.3574C662.358 92.3574 653.629 82.3573 649.153 75.1742C644.012 66.9247 638.442 52.7038 638.442 52.7038L632.867 50.9414Z" fill="#BBB8B8"/>
<path d="M642.552 100.435C642.552 100.435 643.368 102.827 644.312 104.106C644.819 104.792 644.962 105.482 645.78 105.722C646.22 105.85 646.542 105.925 646.953 105.722C647.364 105.519 647.053 105.087 646.807 104.841C646.561 104.594 646.234 104.858 645.927 104.694C645.406 104.415 645.504 103.874 645.193 103.372C644.825 102.777 644.517 102.509 644.166 101.903C643.909 101.46 643.988 101.038 643.579 100.728C643.246 100.476 642.552 100.435 642.552 100.435Z" fill="#D6D6D6"/>
<path d="M638.443 99.9941C638.443 99.9941 639.294 102.427 639.91 103.959C640.188 104.651 640.236 105.098 640.643 105.722C640.932 106.165 641.044 106.529 641.524 106.75C641.789 106.872 641.965 106.897 642.257 106.897C642.55 106.897 642.421 106.545 642.404 106.309C642.374 105.862 642.522 105.789 642.258 105.428C641.862 104.889 641.647 104.99 641.331 104.4C640.944 103.676 640.56 102.79 640.203 102.05C639.925 101.473 640.195 101.055 639.763 100.582C639.516 100.31 639.004 100.054 638.443 99.9941Z" fill="#D6D6D6"/>
<path d="M635.361 95.8813C635.143 96.78 635.111 97.3074 635.067 98.2311C634.996 99.7251 635.088 100.584 635.361 102.05C635.537 102.995 635.654 103.545 636.094 104.399C636.378 104.951 636.414 105.456 636.975 105.721C637.188 105.823 637.325 105.868 637.561 105.868C637.561 105.868 636.915 103.924 636.681 102.637C636.496 101.615 636.322 101.03 636.388 99.9935C636.451 98.9939 636.594 98.4231 636.975 97.4968C637.446 96.3493 638.735 94.8533 638.735 94.8533L636.094 93.8252C636.094 93.8252 635.562 95.0527 635.361 95.8813Z" fill="#D6D6D6"/>
<path d="M647.47 47.7332C647.421 47.4199 647.69 47.1562 648.006 47.1813C649.025 47.2621 649.866 47.2353 651.061 47.1224C653.663 46.8767 655.083 46.3109 657.517 45.36C658.688 44.9027 659.331 44.6087 660.451 44.0382C662.562 42.9628 663.685 42.2214 665.587 40.8072C667.364 39.4848 668.523 38.8313 669.875 37.1707C670.028 36.9827 670.294 36.9203 670.497 37.0526C672.193 38.1572 672.245 39.9955 673.069 41.3946C673.069 41.3946 669.602 42.6823 667.641 44.4788C665.517 46.4244 664.049 47.1482 661.332 48.2973C658.774 49.3792 656.897 49.8572 654.142 50.2066C651.744 50.5107 649.154 51.9689 649.154 51.9689C648.276 50.2793 647.712 49.2555 647.47 47.7332Z" fill="url(#paint0_linear_2772_5445)"/>
<path d="M694.049 113.506C694.167 112.827 694.049 111.743 694.049 111.743L704.32 114.387L703.586 116.883C703.586 116.883 707.43 121.026 707.988 124.374C708.281 126.136 707.445 130.101 704.907 130.101C700.358 130.101 698.558 128.042 695.957 124.961C693.635 122.212 691.457 119.907 692.435 116.443C692.791 115.183 693.826 114.795 694.049 113.506Z" fill="#C0C0C0"/>
<path d="M703.586 116.883L704.319 114.387H700.651C700.651 114.387 699.949 115.707 700.065 116.59C700.214 117.727 700.89 118.276 701.825 118.94C702.801 119.632 703.777 119.138 704.76 119.821C705.664 120.449 705.884 121.125 706.52 122.024C707.145 122.907 707.987 124.374 707.987 124.374C707.43 121.026 703.586 116.883 703.586 116.883Z" fill="#9C9C9C"/>
<path d="M694.049 113.506C693.826 114.795 692.791 115.183 692.435 116.443C691.457 119.907 693.635 122.212 695.957 124.961C698.558 128.042 700.358 130.101 704.907 130.101C704.907 130.101 701.746 129.335 700.065 128.192C698.219 126.937 697.433 125.827 696.25 123.933C695.476 122.693 694.936 121.986 694.636 120.555C694.378 119.32 694.232 118.519 694.636 117.324C694.942 116.42 695.576 116.143 695.957 115.268C696.312 114.452 696.544 113.065 696.544 113.065L694.049 111.743C694.049 111.743 694.167 112.827 694.049 113.506Z" fill="#D6D6D6"/>
<path d="M647.597 48.4441C648.477 48.7378 650.397 48.8725 651.824 48.7378C654.425 48.4921 655.962 48.0732 658.396 47.1223C659.567 46.665 660.21 46.371 661.33 45.8005C663.441 44.7251 664.858 43.8368 666.759 42.4226C668.65 41.0162 670.837 39.4853 671.572 38.0166C671.865 38.3103 672.18 39.1736 672.511 40.3665C672.511 40.3665 670.364 44.004 668.403 45.8005C666.279 47.746 664.811 48.4699 662.094 49.619C659.536 50.7009 657.66 51.1789 654.905 51.5283C652.506 51.8323 648.742 50.9408 648.742 50.9408C648.448 50.9408 647.744 49.3253 647.597 48.4441Z" fill="url(#paint1_linear_2772_5445)"/>
<path d="M705.787 35.2275C705.787 35.2275 706.795 35.1418 707.401 34.9338C708.08 34.7006 708.436 34.4781 709.014 34.0526C709.667 33.5723 709.904 33.1527 710.482 32.5839C712.216 30.8767 715.03 28.3248 715.03 28.3248C715.03 28.3248 715.575 28.0812 715.91 28.178C716.186 28.2575 716.317 28.396 716.497 28.6186C716.659 28.8176 716.74 28.9546 716.791 29.206C716.859 29.548 716.726 29.7483 716.644 30.0872C716.272 31.6174 714.443 33.3991 714.737 33.612L715.03 33.7589C715.323 33.7589 716.729 32.3586 717.964 31.7027C718.576 31.3781 718.908 31.1406 719.578 30.9684C720.191 30.8111 720.66 30.4795 721.192 30.8216C721.54 31.0449 721.67 31.3037 721.779 31.7027C721.87 32.0347 721.819 32.2421 721.779 32.5839C721.56 34.4778 717.95 35.3744 718.258 35.9618C718.354 36.1449 718.366 36.3099 718.551 36.4024C718.845 36.5493 719.995 36.4206 720.899 36.2556C722.093 36.0375 722.623 35.3283 723.833 35.2275C724.233 35.1942 724.48 35.0983 724.86 35.2275C725.284 35.3716 725.649 35.5233 725.741 35.9618C725.814 36.3169 725.617 36.5224 725.447 36.843C725.144 37.4165 724.785 37.6196 724.273 38.0179C723.464 38.6478 722.875 38.8067 721.926 39.1929C720.548 39.7533 719.561 39.5028 718.258 40.2209C717.645 40.5585 716.791 40.5489 716.791 41.249C716.791 42.277 719.72 42.7207 720.018 44.48C720.105 44.9889 720.32 45.3829 720.018 45.8018C719.732 46.1995 719.328 46.1624 718.845 46.2424C717.647 46.4408 717.077 45.5523 715.91 45.2143C714.669 44.8544 713.968 44.6191 712.682 44.48C711.486 44.3505 709.601 44.48 709.601 44.48L709.161 37.4305L705.787 35.2275Z" fill="#C0C0C0"/>
<path d="M723.834 35.2257C722.625 35.3265 722.094 36.0357 720.9 36.2538C720.607 36.4006 720.606 36.4013 720.46 36.5475L720.46 36.5475C720.314 36.6937 720.126 36.7853 720.166 36.9881C720.207 37.1909 720.412 37.2123 720.607 37.2819C721.052 37.4409 721.339 37.1572 721.78 36.9881C722.139 36.8506 722.294 36.6638 722.661 36.5475C722.993 36.4421 723.196 36.452 723.541 36.4006C723.998 36.3326 724.263 36.348 724.715 36.2538C725.123 36.1687 725.833 36.3986 725.742 35.96C725.651 35.5215 725.285 35.3698 724.862 35.2257C724.482 35.0965 724.234 35.1924 723.834 35.2257Z" fill="#D6D6D6"/>
<path d="M717.966 31.7004C716.791 32.4347 716.058 33.0221 716.058 33.0221C716.058 33.0221 715.734 33.2933 715.911 33.6096C716.142 34.0221 716.634 34.0435 717.085 33.9033C717.437 33.7473 717.617 33.6253 717.966 33.4627C718.361 33.2782 718.618 33.2451 718.993 33.0221C719.517 32.7109 719.651 32.3191 720.167 31.9941C720.492 31.789 720.834 31.8741 721.047 31.5535C721.208 31.3098 721.726 31.1612 721.194 30.8192C720.661 30.4771 720.193 30.8087 719.58 30.966C718.909 31.1382 718.553 31.3332 717.966 31.7004Z" fill="#D6D6D6"/>
<path d="M707.401 34.9338C706.795 35.1418 706.331 34.8879 705.788 35.2275C704.453 36.0615 707.61 37.6904 709.162 37.4305C710.025 37.286 710.274 36.6189 711.069 36.2556C711.515 36.0522 711.847 36.1034 712.243 35.815C712.605 35.5513 712.828 35.3562 712.977 34.9338C713.213 34.2647 712.428 33.8725 712.537 33.1714C712.668 32.3212 713.347 32.1012 713.857 31.409C714.32 30.7813 714.49 30.3554 715.031 29.7935C715.54 29.2644 716.679 28.8411 716.498 28.6186C716.317 28.396 716.186 28.2575 715.911 28.178C715.576 28.0812 715.031 28.3248 715.031 28.3248C715.031 28.3248 712.217 30.8767 710.483 32.5839C709.905 33.1527 709.668 33.5723 709.015 34.0526C708.437 34.4781 708.081 34.7006 707.401 34.9338Z" fill="#D6D6D6"/>
<path d="M676.85 130.779C677.355 130.068 678.192 128.994 678.192 128.994L683.56 129.887L687.007 128.632L689.375 123.492C689.375 123.492 689.946 124.933 690.269 125.871C690.586 126.792 690.867 127.289 691.015 128.251C691.31 130.167 690.921 131.332 690.269 133.158C689.305 135.861 687.96 137.058 685.945 139.106C683.997 141.088 680.28 143.419 680.28 143.419C680.28 143.419 676.221 145.37 674.316 144.014C673.291 143.283 672.893 142.539 672.527 141.337C671.901 139.288 672.94 137.979 673.719 135.983C674.582 133.775 675.478 132.714 676.85 130.779Z" fill="#C0C0C0"/>
<path d="M690.269 125.871C689.946 124.933 689.374 123.492 689.374 123.492C689.374 123.492 686.225 126.565 687.007 128.632C687.422 129.733 688.659 129.729 689.061 130.835C689.674 132.524 688.581 133.654 687.74 135.241C687.069 136.508 686.498 137.114 685.539 138.179C684.453 139.385 683.964 139.912 682.898 140.969C681.904 141.955 680.279 143.419 680.279 143.419C680.279 143.419 683.996 141.088 685.945 139.106C687.959 137.057 689.305 135.861 690.269 133.158C690.92 131.332 691.31 130.167 691.014 128.251C690.866 127.289 690.586 126.792 690.269 125.871Z" fill="#9C9C9C"/>
<path d="M676.85 130.779C675.477 132.714 674.581 133.775 673.719 135.983C672.94 137.979 671.902 139.288 672.526 141.337C672.893 142.54 673.508 143.613 674.315 144.014C674.243 143.553 674.094 143.796 673.949 142.878C673.803 141.961 673.603 141.086 673.719 139.941C673.859 138.56 674.245 137.823 674.829 136.563C675.455 135.213 675.775 134.361 676.85 133.332C677.327 132.876 677.648 132.678 678.192 132.304C680.086 131.001 683.924 131.715 683.56 129.887C683.144 127.801 678.192 128.994 678.192 128.994C678.192 128.994 677.355 130.068 676.85 130.779Z" fill="#D6D6D6"/>
<path d="M648.022 49.8642C651.69 49.8642 652.646 49.8986 655.462 49.3263C658.303 48.749 659.896 48.2423 662.505 46.9764C664.893 45.8174 666.206 45.0274 668.227 43.3048C669.955 41.8314 671.308 40.3675 672.188 39.0457C672.775 39.78 672.746 40.1153 673.362 40.5144C673.577 40.6537 673.705 40.7283 673.949 40.8081C675.001 41.1526 675.516 40.0465 676.59 39.78C677.929 39.4478 678.735 39.5899 680.111 39.4863C683.087 39.2622 684.764 39.2638 687.741 39.0457C690.379 38.8524 691.882 38.9025 694.49 38.4582C698.688 37.7431 700.653 35.4404 704.907 35.2272C705.765 35.1842 706.269 35.0405 707.108 35.2272C708.97 35.6418 709.644 36.9201 710.776 38.4582C711.581 39.5532 712.173 40.2001 712.39 41.5424C712.642 43.1085 712.565 44.325 711.509 45.5078C710.324 46.8355 708.752 46.0022 707.108 46.6827C705.255 47.4495 704.625 48.747 702.706 49.3263C701.434 49.7103 700.618 49.4343 699.332 49.7669C697.024 50.3632 696.117 51.6754 693.903 52.5573C692.337 53.1809 691.451 53.5686 689.795 53.8791C688.607 54.1018 687.92 54.0976 686.714 54.1728C684.426 54.3154 684.219 53.5854 681.432 54.1728C681.432 54.9071 681.447 55.1729 681.872 55.7883C682.797 57.1301 683.511 57.7336 684.513 59.0194C688.128 63.6613 688.588 67.4711 692.729 71.6498C693.239 72.1646 693.663 72.3339 694.068 72.9349C694.629 73.7676 694.298 74.5366 694.82 75.3949C695.675 76.8007 696.827 77.0241 698.277 77.7998C699.352 78.3751 700.106 78.3941 701.147 79.0298C702.391 79.7892 702.916 80.4659 703.953 81.4898C704.812 82.3377 705.189 82.9147 706.044 83.7662C707.246 84.9627 708.278 85.2831 709.308 86.6301C710.212 87.8112 710.638 88.584 711.069 90.008C711.422 91.1723 711.574 91.8772 711.509 93.0921C711.433 94.524 710.878 95.2388 710.482 96.6169C709.595 99.7063 709.375 101.525 708.281 104.548C707.19 107.565 705.824 108.963 704.907 112.038C704.469 113.504 705.103 114.77 704.027 115.856C703.057 116.835 702.029 116.859 700.652 116.884C699.29 116.91 698.494 116.617 697.277 116.003C696.433 115.577 695.941 115.301 695.297 114.608C694.52 113.772 693.452 113.172 693.316 112.038C692.876 108.366 693.541 107.103 694.343 104.107C694.74 102.625 695.67 101.968 695.737 100.435C695.791 99.2048 695.612 98.4603 695.077 97.3512C692.289 95.7357 690.675 95.7357 685.393 94.7076C685.1 94.7076 684.219 94.7076 683.632 97.4981C683.339 99.4073 683.861 101.28 684.513 103.813C685.116 106.157 685.286 107.516 685.98 109.835C686.912 112.947 687.825 114.558 688.914 117.619C689.444 119.105 690.015 119.875 690.235 121.437C690.395 122.573 690.423 123.243 690.235 124.374C689.898 126.398 689.416 127.66 688.181 129.368C687.539 130.255 687.246 130.92 686.273 131.424C685.2 131.98 684.401 131.693 683.192 131.718C682.045 131.741 681.385 131.785 680.258 131.571C679.314 131.391 678.703 131.379 677.91 130.837C677.172 130.331 676.974 129.796 676.443 129.074C674.787 126.822 674.167 125.239 673.069 122.612C671.662 119.247 671.218 117.214 670.428 113.653C670.099 112.171 670.022 111.317 669.694 109.835C669.051 106.927 669.342 106.289 667.933 103.666C667.117 102.145 665.747 100.483 665.072 98.8933C664.423 97.3609 664.706 96.2014 663.972 94.7076C663.024 92.7786 663.092 94.7076 660.891 90.3017C658.917 86.3503 656.489 84.7205 655.316 80.4617C655.112 79.724 655.033 79.3012 654.875 78.5525C654.683 77.6389 654.616 77.1185 654.435 76.2026C653.933 73.6639 653.702 70.7686 652.968 69.7405C652.683 69.7105 652.521 69.726 652.234 69.7405C649.887 69.8599 651.833 78.5353 649.593 83.5459C649.175 84.4824 648.694 84.9072 648.42 85.8957C648.036 87.2773 648.721 88.1656 648.42 89.5674C648.085 91.1222 647.707 92.0437 646.659 93.239C645.736 94.2912 645.055 94.8609 643.725 95.2951C642.308 95.7575 641.393 95.4391 639.91 95.2951C638.635 95.1713 637.789 95.3529 636.682 94.7076C635.736 94.1563 635.194 93.6639 634.775 92.6515C634.314 91.5388 634.904 90.7648 634.775 89.5674C634.655 88.4602 634.365 87.8764 634.188 86.7769C634.032 85.8076 633.762 85.2529 633.894 84.2802C633.993 83.5614 634.312 83.2233 634.481 82.5178C634.737 81.4523 634.751 80.8229 634.775 79.7274C634.805 78.3464 634.413 77.5822 634.481 76.2026C634.524 75.3357 634.663 74.8603 634.775 73.9996C635.081 71.6505 634.844 70.2519 635.508 67.9782C635.747 67.1598 635.875 66.6913 636.242 65.922C636.619 65.1322 636.93 64.7411 637.416 64.0128C638.007 63.1252 638.446 62.7026 639.03 61.8098C640.292 59.8781 640.451 58.482 641.671 56.5227C642.259 55.5775 642.561 55.0186 643.285 54.1728C644.53 52.717 645.24 51.5485 647.099 51.0887C647.438 51.005 647.723 51.1776 647.98 50.9418C648.278 50.6677 647.912 50.2545 648.022 49.8642Z" fill="#464BB4"/>
<path d="M694.069 72.9339C693.664 72.3329 693.241 72.1636 692.73 71.6488C688.589 67.4701 688.13 63.6604 684.514 59.0184C683.513 57.7327 682.798 57.1291 681.873 55.7874C681.449 55.1719 681.433 54.1719 681.433 54.1719C681.433 54.1719 679.964 53.8577 679.232 53.2907C677.594 52.0225 678.204 48.1504 677.911 48.1504C674.791 48.1507 678.371 53.0101 678.939 56.0811C679.28 57.9285 679.418 58.9838 679.966 60.7808C680.945 63.9956 681.803 65.7472 683.634 68.5647C685.735 71.7989 686.866 74.0361 690.236 75.9079C693.057 77.4747 699.728 78.5745 698.278 77.7988C696.828 77.0231 695.676 76.7998 694.821 75.3939C694.299 74.5357 694.631 73.7666 694.069 72.9339Z" fill="#676DD8"/>
<path d="M681.433 54.1719C684.22 53.5844 684.427 54.3144 686.715 54.1719C689.002 54.0293 684.228 53.5902 682.9 52.7032C681.922 52.0499 681.48 51.5268 680.699 50.6471C679.854 49.6952 677.911 48.1504 677.911 48.1504C677.911 48.1504 677.851 49.7946 678.058 50.6471C678.298 51.6347 678.194 52.3978 678.939 53.1438C679.646 53.8524 681.433 54.1719 681.433 54.1719Z" fill="#676DD8"/>
<path d="M685.393 94.7067C690.675 95.7347 692.289 95.7347 695.076 97.3503C695.612 98.4593 695.79 99.2038 695.737 100.434C695.669 101.967 694.739 102.624 694.343 104.106C693.541 107.102 692.876 108.365 693.316 112.037C693.452 113.171 694.519 113.771 695.296 114.607C696.074 115.443 696.378 114.008 696.397 113.359C696.416 112.687 695.629 112.621 695.296 112.037C694.609 110.828 694.688 109.9 694.783 108.512C694.908 106.684 695.815 105.844 696.397 104.106C697.099 102.007 698.381 100.855 698.011 98.672C697.71 96.8973 697.021 95.8869 695.663 94.7067C693.98 93.2439 692.462 92.8659 690.235 92.9443C688.224 93.0151 685.833 93.6786 685.393 94.7067Z" fill="#676DD8"/>
<path d="M663.231 60.4865L663.818 60.0459C663.818 60.0459 664.021 62.3731 663.965 63.8644C663.908 65.3644 663.95 66.2433 663.525 67.6829C662.965 69.5794 661.808 70.2709 661.03 72.0888C660.552 73.206 660.003 75.0261 660.003 75.0261C660.003 75.0261 659.085 71.1499 659.563 70.0327C660.341 68.2148 661.497 67.5233 662.057 65.6268C662.483 64.1872 662.441 63.3083 662.498 61.8083C663.231 60.4865 663.231 60.4865 663.231 60.4865Z" fill="#676DD8"/>
<path d="M647.98 50.9414C647.723 51.1772 647.438 51.0046 647.099 51.0883C645.24 51.5482 644.53 52.7166 643.285 54.1724C642.561 55.0182 642.259 55.5771 641.671 56.5223C640.451 58.4816 640.292 59.8777 639.03 61.8094C638.446 62.7022 638.007 63.1249 637.416 64.0124C636.93 64.7408 636.619 65.1318 636.242 65.9217C635.875 66.6909 635.747 67.1594 635.508 67.9778C634.844 70.2515 635.081 71.6502 634.775 73.9993C634.663 74.8599 634.524 75.3354 634.481 76.2022C634.413 77.5818 634.805 78.346 634.775 79.727C634.751 80.8225 634.737 81.4519 634.481 82.5174C634.312 83.2229 633.993 83.561 633.894 84.2798C633.762 85.2525 634.032 85.8072 634.188 86.7765C634.365 87.876 634.655 88.4598 634.775 89.567C634.904 90.7644 634.314 91.5384 634.775 92.6511C635.194 93.6635 635.736 94.1559 636.682 94.7073C637.789 95.3526 638.635 95.1709 639.91 95.2947C641.185 95.4186 640.119 89.4505 640.644 85.7485C641.303 81.0919 642.004 78.5243 643.285 73.9993C644.539 69.5667 645.329 67.09 647.099 62.8375C649.1 58.0312 657.917 52.9433 653.115 50.9414H647.98Z" fill="#676DD8"/>
<path d="M680.257 131.568C681.384 131.782 683.191 131.715 683.191 131.715C686.11 130.712 681.334 127.266 680.257 124.372C679.283 121.754 678.712 120.291 677.909 117.616C677.261 115.457 677.473 114.038 676.442 112.035C675.618 110.434 674.498 109.954 673.654 108.363C672.174 105.571 672.332 103.58 672.041 100.432C671.792 97.7483 672.041 96.2254 672.041 93.5298C672.041 91.4077 672.224 90.2099 672.041 88.0958C671.885 86.3015 672.495 84.8952 671.307 83.5429C670.358 82.4628 669.367 72.9329 667.932 72.8532C666.285 72.7617 665.299 73.3422 663.971 74.3218C661.638 76.0423 658.689 85.8928 660.89 90.2987C663.091 94.7047 663.023 92.7757 663.971 94.7047C664.705 96.1985 664.421 97.358 665.071 98.8904C665.745 100.48 667.116 102.142 667.932 103.663C669.341 106.287 669.05 106.924 669.693 109.832C670.021 111.314 670.098 112.168 670.427 113.65L670.45 113.753C671.225 117.251 671.674 119.277 673.068 122.609C674.166 125.236 674.734 126.794 676.442 129.071C676.979 129.788 677.171 130.328 677.909 130.834C678.702 131.376 679.313 131.389 680.257 131.568Z" fill="#676DD8"/>
<path d="M664.671 50.3605L665.171 50.0518C665.171 50.0518 667.803 53.4009 669.28 55.6904C672.039 59.9647 672.695 62.865 675.15 67.3216C676.478 69.7339 677.347 71.0166 678.671 73.4309C680.616 76.9742 682.213 78.7799 683.367 82.6539C684.403 86.1336 684.541 91.877 684.541 91.877L684.041 92.1857C684.041 92.1857 683.903 86.4423 682.867 82.9627C681.714 79.0886 680.116 77.2829 678.172 73.7396C676.847 71.3253 675.979 70.0426 674.651 67.6303C672.196 63.1737 671.54 60.2734 668.781 55.9991C667.303 53.7097 664.671 50.3605 664.671 50.3605Z" fill="#676DD8"/>
<path d="M673.069 40.3675C673.069 40.3675 673.512 40.6474 673.803 40.7494C674.39 40.955 674.367 40.8662 674.683 40.8081C675.27 40.6613 675.53 40.1743 676.15 39.9269C676.538 39.7724 676.769 39.7186 677.177 39.6331C677.909 39.48 678.339 39.5344 679.085 39.4863C680.458 39.3976 681.231 39.4011 682.606 39.3394C683.809 39.2854 684.485 39.2621 685.687 39.1925C687.293 39.0996 688.19 39.001 689.795 38.8988C690.769 38.8368 692.29 38.752 692.29 38.752C692.556 39.0289 692.614 39.2662 692.73 39.6331C693.193 41.1061 692.366 42.2251 691.262 43.3048C690.019 44.5223 688.736 44.4273 687.008 44.6265C684.77 44.8845 683.527 44.1222 681.286 43.8922C677.232 43.4763 670.868 43.3048 670.868 43.3048L672.189 41.8361L673.069 40.3675Z" fill="#676DD8"/>
<path d="M648.127 50.6468C648.127 50.6468 657.16 51.1448 662.432 49.0312C667.507 46.9968 673.157 40.3662 673.157 40.3662C673.289 40.4695 673.366 40.523 673.51 40.61C673.51 40.61 667.79 47.3482 662.799 49.4718C657.39 51.7739 647.98 50.9405 647.98 50.9405C648.085 50.8431 648.106 50.7768 648.127 50.6468Z" fill="url(#paint2_linear_2772_5445)"/>
<path d="M648.127 50.6468C648.127 50.6468 657.16 51.1448 662.432 49.0312C667.507 46.9968 673.157 40.3662 673.157 40.3662C673.289 40.4695 673.366 40.523 673.51 40.61C673.51 40.61 667.79 47.3482 662.799 49.4718C657.39 51.7739 647.98 50.9405 647.98 50.9405C648.085 50.8431 648.106 50.7768 648.127 50.6468Z" fill="#676DD8"/>
<path d="M651.794 60.0459H652.088C652.088 60.0459 653.369 63.2051 653.408 65.3331C653.44 67.0703 652.675 69.7214 652.675 69.7214C652.39 69.7309 652.506 69.7302 652.381 69.7302C652.381 69.7302 653.17 66.9829 653.115 65.1862C653.051 63.1145 651.794 60.0459 651.794 60.0459Z" fill="#676DD8"/>
<path d="M629.636 22.7714C630.044 20.8487 630.517 19.7928 631.519 18.0717C632.463 16.45 633.179 15.6249 634.5 14.2532C636.366 12.3171 637.625 11.3678 639.992 9.9941C642.277 8.66849 643.71 8.1207 646.269 7.35053C649.061 6.51029 650.714 6.13834 653.644 6.02874C655.978 5.94144 657.316 6.04326 659.607 6.46934C660.977 6.72423 661.771 6.84364 663.059 7.35053C664.299 7.83855 664.967 8.20712 666.04 8.96605C668.78 10.9031 669.53 12.8454 671.062 15.7218C671.859 17.2184 672.211 18.1047 672.788 19.6872C673.383 21.3201 673.752 22.2425 674.043 23.9463C674.459 26.3816 674.729 27.8804 674.043 30.2615C673.486 32.1933 672.767 33.1809 671.532 34.8143C670.43 36.2726 669.693 37.0371 668.237 38.1922C666.434 39.6234 665.139 40.0768 663.059 41.1295C660.503 42.4234 659.078 43.2335 656.312 44.0668C652.31 45.2722 649.743 46.2478 645.641 45.3886C643.498 44.9396 642.324 44.4247 640.463 43.3325C638.987 42.4665 638.261 41.8243 637.011 40.6889C634.363 38.2837 633.008 36.6524 631.519 33.4925C629.689 29.6104 628.754 26.9333 629.636 22.7714Z" fill="url(#paint3_linear_2772_5445)"/>
<path d="M632.255 31.584L639.445 43.3332C639.445 43.3332 637.281 43.4405 636.07 42.8926C634.703 42.2745 634.162 41.4648 633.282 40.2491C632.425 39.0648 632.033 38.2872 631.668 36.8711C631.197 35.0383 632.255 31.584 632.255 31.584Z" fill="#B7B6B2"/>
<path d="M669.694 16.7236C669.694 16.7236 672.681 17.7698 673.483 18.3679C674.167 18.877 674.479 19.2736 674.951 19.9834C675.694 21.1011 675.929 21.8862 676.124 23.2144C676.266 24.179 676.266 24.7466 676.124 25.7112C675.929 27.0394 673.483 31.1164 673.483 31.1164L669.694 16.7236Z" fill="#B7B7C3"/>
<g filter="url(#filter0_f_2772_5445)">
<path d="M672.604 19.7116L673.255 19.25C673.255 19.25 673.893 20.2613 674.233 20.9424C674.696 21.8714 674.908 22.418 675.211 23.4042C675.357 23.8801 675.611 24.1445 675.537 24.6351C675.464 25.1146 674.885 25.7121 674.885 25.7121C674.885 25.7121 674.554 24.1939 674.233 23.2503C673.745 21.8154 672.604 19.7116 672.604 19.7116Z" fill="#62635E" fill-opacity="0.5"/>
</g>
<path d="M631.962 25.121C632.343 23.1983 632.785 22.1424 633.722 20.4213C634.605 18.7996 635.274 17.9745 636.51 16.6028C638.254 14.6667 639.432 13.7174 641.645 12.3437C643.781 11.0181 645.121 10.4703 647.514 9.70014C650.124 8.8599 651.67 8.48795 654.41 8.37835C656.592 8.29105 657.843 8.39287 659.985 8.81895C661.267 9.07384 662.008 9.19325 663.213 9.70014C664.373 10.1882 664.997 10.5567 666.001 11.3157C668.563 13.2527 669.263 15.195 670.696 18.0715C671.441 19.568 671.77 20.4543 672.31 22.0368C672.866 23.6697 673.211 24.5921 673.483 26.2959C673.872 28.7312 674.125 30.23 673.483 32.6111C672.963 34.5429 672.29 35.5305 671.136 37.1639C670.105 38.6222 669.416 39.3867 668.055 40.5418C666.368 41.973 665.158 42.4264 663.213 43.4791C660.823 44.773 659.491 45.5831 656.904 46.4164C653.163 47.6218 650.762 48.5975 646.927 47.7382C644.923 47.2892 643.825 46.7743 642.085 45.6821C640.705 44.8161 640.026 44.1739 638.857 43.0385C636.381 40.6333 635.115 39.002 633.722 35.8421C632.011 31.96 631.137 29.2829 631.962 25.121Z" fill="url(#paint4_linear_2772_5445)"/>
<path d="M637.538 27.7642C638.858 25.5612 639.378 24.8059 640.912 23.2114C642.669 21.3853 643.879 20.5563 646.047 19.246C648.154 17.9728 649.456 17.4443 651.769 16.6024C654.997 15.4275 656.611 15.1338 659.252 15.1338C661.118 15.1338 662.369 16.2965 663.507 17.7773C664.974 19.6866 665.306 20.124 666.441 22.3302C667.347 24.0913 668.349 27.0299 668.349 27.0299C668.349 27.0299 669.038 29.5263 668.349 30.8484C666.588 34.2263 663.464 36.9296 659.252 39.3665C654.857 41.9097 653.53 42.8913 646.781 42.5976C643.553 41.8633 638.619 37.1035 637.538 31.4358C637.311 30.2474 636.916 28.8017 637.538 27.7642Z" fill="url(#paint5_linear_2772_5445)"/>
<path d="M643.845 20.5678C645.97 18.9822 647.424 18.2361 649.86 17.1899C652.226 16.174 653.615 15.5968 656.169 15.2806C657.081 15.1678 658.517 15.1338 658.517 15.1338C658.517 15.1338 653.059 20.8527 651.181 25.4143C649.109 30.4464 649.273 39.2197 649.273 39.2197L643.111 39.8071C643.111 39.8071 637.653 30.4285 638.563 26.5893C638.856 25.3519 639.688 24.4041 640.764 23.2114C641.821 22.0384 642.579 21.5121 643.845 20.5678Z" fill="url(#paint6_linear_2772_5445)"/>
<path fill-rule="evenodd" clip-rule="evenodd" d="M640.463 22.9684C638.871 24.6311 638.332 25.4186 636.963 27.7156C636.389 28.6777 636.65 29.9764 636.88 31.1236C636.908 31.2664 636.937 31.4069 636.963 31.5441C638.084 37.4538 643.202 42.4168 646.551 43.1825C653.219 43.4742 654.784 42.5596 658.857 40.1809L659.488 39.8135C663.856 37.2725 667.097 34.4537 668.923 30.9315C669.638 29.553 668.923 26.95 668.923 26.95C668.923 26.95 667.885 23.886 666.945 22.0496C665.768 19.7492 665.423 19.2931 663.901 17.3024C662.721 15.7583 661.424 14.5459 659.488 14.5459C656.748 14.5459 655.074 14.8522 651.725 16.0772C649.326 16.9551 647.975 17.5061 645.79 18.8337C643.541 20.1999 642.286 21.0644 640.463 22.9684ZM640.911 23.211C639.377 24.8055 638.857 25.5608 637.537 27.7638C636.984 28.6862 637.235 29.9313 637.457 31.0314C637.484 31.1686 637.512 31.3036 637.537 31.4354C638.618 37.103 643.552 41.8629 646.78 42.5972C653.208 42.8769 654.718 41.9998 658.644 39.7186C658.84 39.6046 659.042 39.4871 659.251 39.3661C663.463 36.9292 666.587 34.2258 668.348 30.8479C669.037 29.5259 668.348 27.0294 668.348 27.0294C668.348 27.0294 667.347 24.0909 666.441 22.3297C665.306 20.1236 664.973 19.6862 663.506 17.7769C662.368 16.2961 661.118 15.1334 659.251 15.1334C656.61 15.1334 654.997 15.4271 651.769 16.602C649.456 17.4439 648.154 17.9724 646.047 19.2456C643.878 20.5558 642.669 21.3849 640.911 23.211Z" fill="url(#paint7_linear_2772_5445)"/>
<path d="M614.016 150.39C618.626 150.39 622.363 146.649 622.363 142.035C622.363 137.42 618.626 133.68 614.016 133.68C609.406 133.68 605.669 137.42 605.669 142.035C605.669 146.649 609.406 150.39 614.016 150.39Z" fill="#64AEE8" fill-opacity="0.3"/>
<path d="M479.972 110.828C483.198 110.828 485.814 108.209 485.814 104.979C485.814 101.749 483.198 99.1309 479.972 99.1309C476.745 99.1309 474.129 101.749 474.129 104.979C474.129 108.209 476.745 110.828 479.972 110.828Z" fill="#64AEE8" fill-opacity="0.3"/>
<path d="M777.605 11.6969C780.832 11.6969 783.448 9.07846 783.448 5.84845C783.448 2.61845 780.832 0 777.605 0C774.378 0 771.762 2.61845 771.762 5.84845C771.762 9.07846 774.378 11.6969 777.605 11.6969Z" fill="#64AEE8" fill-opacity="0.3"/>
<g opacity="0.5">
<path d="M168.327 76.2877C172.207 76.2877 175.353 73.1387 175.353 69.2542C175.353 65.3697 172.207 62.2207 168.327 62.2207C164.446 62.2207 161.3 65.3697 161.3 69.2542C161.3 73.1387 164.446 76.2877 168.327 76.2877Z" fill="#64AEE8" fill-opacity="0.7"/>
<path d="M81.7926 133.299C84.5091 133.299 86.7112 131.095 86.7112 128.376C86.7112 125.656 84.5091 123.452 81.7926 123.452C79.0762 123.452 76.874 125.656 76.874 128.376C76.874 131.095 79.0762 133.299 81.7926 133.299Z" fill="#64AEE8" fill-opacity="0.7"/>
<path d="M348.351 37.8469C351.067 37.8469 353.27 35.6426 353.27 32.9234C353.27 30.2043 351.067 28 348.351 28C345.635 28 343.432 30.2043 343.432 32.9234C343.432 35.6426 345.635 37.8469 348.351 37.8469Z" fill="#64AEE8" fill-opacity="0.7"/>
<path d="M69.0465 49.4495C70.9868 49.4495 72.5597 47.875 72.5597 45.9328C72.5597 43.9905 70.9868 42.416 69.0465 42.416C67.1061 42.416 65.5332 43.9905 65.5332 45.9328C65.5332 47.875 67.1061 49.4495 69.0465 49.4495Z" fill="#64AEE8" fill-opacity="0.7"/>
<path d="M225.742 120.487C225.742 121.894 224.689 122.597 223.283 122.597C222.229 122.597 221.175 121.894 221.175 120.487C221.175 119.08 222.229 118.025 223.283 118.025C224.689 118.025 225.742 119.08 225.742 120.487Z" fill="#64AEE8" fill-opacity="0.7"/>
<path d="M4.56719 91.2087C4.56719 92.6154 3.51323 93.6704 2.10792 93.6704C1.05395 93.6704 0 92.6154 0 91.2087C0 90.1537 1.05395 89.0986 2.10792 89.0986C3.51323 89.0986 4.56719 90.1537 4.56719 91.2087Z" fill="#64AEE8" fill-opacity="0.7"/>
<path d="M275.273 54.0246C275.976 53.3212 277.381 53.3212 278.435 54.0246C279.138 55.0796 279.138 56.4863 278.435 57.1896C277.381 58.2446 275.976 58.2446 275.273 57.1896C274.219 56.4863 274.219 55.0796 275.273 54.0246Z" fill="#64AEE8" fill-opacity="0.7"/>
</g>
<path d="M1085.99 138.603C1082.11 138.603 1078.97 135.454 1078.97 131.57C1078.97 127.685 1082.11 124.536 1085.99 124.536C1089.88 124.536 1093.02 127.685 1093.02 131.57C1093.02 135.454 1089.88 138.603 1085.99 138.603Z" fill="#64AEE8" fill-opacity="0.7"/>
<path d="M1226.22 129.847C1223.5 129.847 1221.3 127.643 1221.3 124.923C1221.3 122.204 1223.5 120 1226.22 120C1228.94 120 1231.14 122.204 1231.14 124.923C1231.14 127.643 1228.94 129.847 1226.22 129.847Z" fill="#64AEE8" fill-opacity="0.7"/>
<path d="M948.279 21.8469C945.563 21.8469 943.361 19.6426 943.361 16.9234C943.361 14.2043 945.563 12 948.279 12C950.996 12 953.198 14.2043 953.198 16.9234C953.198 19.6426 950.996 21.8469 948.279 21.8469Z" fill="#64AEE8" fill-opacity="0.7"/>
<path d="M1227.58 33.4495C1225.64 33.4495 1224.07 31.875 1224.07 29.9328C1224.07 27.9905 1225.64 26.416 1227.58 26.416C1229.52 26.416 1231.1 27.9905 1231.1 29.9328C1231.1 31.875 1229.52 33.4495 1227.58 33.4495Z" fill="#64AEE8" fill-opacity="0.7"/>
<path d="M1276.06 67.2087C1276.06 68.6154 1277.12 69.6704 1278.52 69.6704C1279.58 69.6704 1280.63 68.6154 1280.63 67.2087C1280.63 66.1537 1279.58 65.0986 1278.52 65.0986C1277.12 65.0986 1276.06 66.1537 1276.06 67.2087Z" fill="#64AEE8" fill-opacity="0.7"/>
<path d="M831.989 51.386C831.287 50.331 829.881 50.331 828.827 51.386C828.125 52.0893 828.125 53.496 828.827 54.551C829.881 55.2544 831.287 55.2544 831.989 54.551C833.043 53.496 833.043 52.0893 831.989 51.386Z" fill="#64AEE8" fill-opacity="0.7"/>
<path d="M1021.36 38.0246C1020.65 37.3212 1019.25 37.3212 1018.2 38.0246C1017.49 39.0796 1017.49 40.4863 1018.2 41.1896C1019.25 42.2446 1020.65 42.2446 1021.36 41.1896C1022.41 40.4863 1022.41 39.0796 1021.36 38.0246Z" fill="#64AEE8" fill-opacity="0.7"/>
<path d="M915.321 69.6718C912.23 84.3971 921.675 98.8359 936.386 101.93C951.096 105.024 965.521 95.57 968.612 80.8447C971.703 66.1194 962.258 51.6806 947.548 48.5866C932.837 45.4926 918.412 54.9466 915.321 69.6718Z" fill="url(#paint8_linear_2772_5445)"/>
<path style="mix-blend-mode:multiply" opacity="0.1" d="M968.154 82.6211C968.039 82.8121 967.906 82.984 967.753 83.1368C965.521 85.4859 962.716 87.2048 959.911 88.7519C956.362 90.7572 952.642 92.648 948.635 93.6221C941.079 95.4556 933.008 93.8513 925.853 90.7C922.991 89.4394 920.187 87.8924 917.267 86.7465C920.759 94.2523 927.628 100.097 936.386 101.93C950.524 104.91 964.319 96.315 968.154 82.6211Z" fill="url(#paint9_linear_2772_5445)"/>
<g style="mix-blend-mode:multiply">
<path style="mix-blend-mode:multiply" d="M960.198 95.3992C960.083 95.361 959.988 95.3419 959.911 95.3419C958.919 95.151 957.908 94.9409 956.878 94.7117C950.581 93.3366 943.884 91.3885 937.015 88.9247C929.059 86.0599 921.503 82.7366 915.092 79.2988C915.398 81.0941 915.875 82.8512 916.523 84.5701C922.305 87.4923 928.83 90.2998 935.641 92.7636C942.568 95.2273 949.322 97.1754 955.733 98.6079C957.336 97.6911 958.824 96.6216 960.198 95.3992Z" fill="url(#paint10_linear_2772_5445)"/>
</g>
<path opacity="0.3" d="M914.978 78.3232C915.13 78.3996 915.264 78.476 915.378 78.5524C922.19 82.2194 930.318 85.7718 938.904 88.7512C945.944 91.215 952.813 93.2204 959.281 94.5955C959.396 94.6337 959.529 94.6719 959.682 94.7101C959.873 94.7483 960.064 94.7865 960.254 94.8247C968.955 96.6582 987.1 99.523 989.733 92.2463C990.763 89.4961 988.817 86.1156 983.78 81.8756C980.117 78.8389 975.022 75.5157 969.184 72.3643C969.337 73.8159 969.356 75.3056 969.241 76.8335C981.834 83.9383 986.47 89.4961 985.955 90.8712C985.268 92.762 978.4 94.4236 963.116 91.4442C962.124 91.2532 961.113 91.0431 960.083 90.8139C953.786 89.4388 947.089 87.548 940.22 85.1415C931.634 82.1048 923.621 78.6097 916.924 75C916.237 74.618 915.588 74.2551 914.978 73.9114C903.758 67.4941 900.496 62.7958 901.125 61.1342C901.24 60.7904 902.614 59.8163 907.193 59.759C910.341 59.759 914.348 60.1028 918.698 60.905C919.461 59.6444 920.32 58.4794 921.274 57.4099C913.718 55.9201 899.408 54.0293 897.29 59.8163C894.943 66.2909 907.365 74.1978 914.978 78.3232Z" fill="url(#paint11_linear_2772_5445)"/>
<path opacity="0.3" d="M925.052 53.9149C926.025 55.9203 926.654 58.0403 928.257 59.6446C930.719 62.1656 934.325 63.6554 937.759 64.0564C938.102 64.0946 938.446 64.1137 938.789 64.1137C938.847 65.718 939.705 67.2651 941.709 67.6661C945.143 68.411 946.917 64.8586 946.002 62.3948C946.975 61.9937 947.891 61.65 948.864 61.3062C953.557 59.7019 958.766 59.8165 963.632 61.0197C964.242 61.1725 964.872 61.3444 965.521 61.5354C961.743 55.1181 955.389 50.2479 947.547 48.5863C939.305 46.8674 931.176 49.0447 925.052 53.9149Z" fill="url(#paint12_linear_2772_5445)"/>
<path d="M959.282 73.1667C964.09 74.198 962.544 81.7039 957.679 80.7299C952.814 79.6985 954.416 72.1353 959.282 73.1667Z" fill="url(#paint13_linear_2772_5445)"/>
<path d="M925.224 69.2141C928.658 69.9589 927.57 75.2875 924.136 74.5427C920.702 73.8551 921.789 68.4692 925.224 69.2141Z" fill="url(#paint14_linear_2772_5445)"/>
<path opacity="0.3" d="M937.645 71.7343C938.675 71.9634 938.332 73.5678 937.301 73.3386C936.328 73.1094 936.614 71.5051 937.645 71.7343Z" fill="url(#paint15_linear_2772_5445)"/>
<path opacity="0.3" d="M922.648 60.7338V60.9057C922.61 61.0585 922.61 61.1922 922.648 61.3068C922.686 61.3831 922.724 61.4595 922.762 61.5359C922.839 61.6505 922.934 61.746 923.048 61.8224C923.125 61.8224 923.182 61.8415 923.22 61.8797C923.335 61.9179 923.449 61.9179 923.564 61.8797C923.678 61.8415 923.773 61.8033 923.85 61.7651C923.964 61.6887 924.041 61.6123 924.079 61.5359C924.155 61.4595 924.193 61.364 924.193 61.2495L924.25 61.0776C924.289 60.9248 924.27 60.7911 924.193 60.6765C924.193 60.6001 924.174 60.5237 924.136 60.4473C924.06 60.3327 923.945 60.2563 923.793 60.2181L923.621 60.1035C923.506 60.1035 923.392 60.1035 923.277 60.1035C923.201 60.1417 923.106 60.1799 922.991 60.2181C922.915 60.2945 922.839 60.3709 922.762 60.4473C922.724 60.5237 922.686 60.6192 922.648 60.7338Z" fill="url(#paint16_linear_2772_5445)"/>
<path opacity="0.3" d="M927.17 89.4393C928.2 89.6685 927.857 91.2155 926.826 91.0436C925.796 90.8145 926.139 89.2101 927.17 89.4393Z" fill="url(#paint17_linear_2772_5445)"/>
<path opacity="0.3" d="M948.005 82.3923L947.89 82.7361C947.852 82.8889 947.871 83.0608 947.948 83.2518C947.986 83.3282 948.024 83.4046 948.062 83.481C948.139 83.6338 948.272 83.7484 948.463 83.8248C948.539 83.863 948.616 83.9011 948.692 83.9393C948.845 83.9393 948.978 83.9202 949.093 83.882C949.207 83.882 949.321 83.8438 949.436 83.7675C949.55 83.6911 949.646 83.5956 949.722 83.481C949.798 83.3664 949.856 83.2518 949.894 83.1372L949.951 82.7934C949.989 82.6024 949.989 82.4305 949.951 82.2777C949.913 82.2013 949.875 82.1249 949.837 82.0485C949.722 81.8958 949.589 81.7812 949.436 81.7048C949.36 81.6666 949.264 81.6284 949.15 81.5902C949.035 81.552 948.921 81.552 948.806 81.5902C948.654 81.6284 948.52 81.6857 948.406 81.7621C948.291 81.8385 948.196 81.934 948.119 82.0485C948.043 82.1249 948.005 82.2395 948.005 82.3923Z" fill="url(#paint18_linear_2772_5445)"/>
<path opacity="0.3" d="M961.571 65.3175C962.887 65.604 962.43 67.6094 961.17 67.3229C959.911 67.0364 960.312 65.0883 961.571 65.3175Z" fill="url(#paint19_linear_2772_5445)"/>
<path d="M948.806 95.6266C950.065 95.913 949.665 97.8611 948.348 97.6319C947.089 97.3455 947.49 95.3401 948.806 95.6266Z" fill="url(#paint20_linear_2772_5445)"/>
<path d="M932.15 97.2317C930.318 96.888 928.83 97.5182 927.914 98.6069C930.261 100.039 932.894 101.071 935.699 101.758C935.756 99.7528 934.668 97.8047 932.15 97.2317Z" fill="url(#paint21_linear_2772_5445)"/>
<g opacity="0.6">
<path d="M140.286 71.2155C142.313 80.8744 136.118 90.3455 126.469 92.375C116.819 94.4045 107.358 88.2032 105.33 78.5443C103.303 68.8853 109.498 59.4143 119.147 57.3848C128.797 55.3553 138.258 61.5565 140.286 71.2155Z" fill="url(#paint22_linear_2772_5445)"/>
<path style="mix-blend-mode:multiply" opacity="0.1" d="M105.63 79.709C105.705 79.8343 105.793 79.947 105.893 80.0472C107.357 81.5882 109.197 82.7157 111.037 83.7304C113.364 85.0458 115.805 86.2861 118.433 86.925C123.389 88.1277 128.683 87.0753 133.377 85.0083C135.254 84.1814 137.094 83.1667 139.009 82.415C136.718 87.3384 132.213 91.1719 126.468 92.3746C117.194 94.3289 108.145 88.6914 105.63 79.709Z" fill="url(#paint23_linear_2772_5445)"/>
<g style="mix-blend-mode:multiply">
<path style="mix-blend-mode:multiply" d="M110.849 88.0922C110.924 88.0671 110.986 88.0546 111.036 88.0546C111.687 87.9293 112.35 87.7915 113.026 87.6412C117.156 86.7392 121.549 85.4614 126.055 83.8453C131.274 81.9661 136.23 79.7863 140.435 77.5312C140.235 78.7089 139.922 79.8614 139.496 80.9889C135.704 82.9057 131.424 84.7473 126.956 86.3634C122.413 87.9794 117.982 89.2573 113.777 90.1969C112.726 89.5955 111.75 88.894 110.849 88.0922Z" fill="url(#paint24_linear_2772_5445)"/>
</g>
<path opacity="0.3" d="M140.511 76.8898C140.411 76.9399 140.323 76.9901 140.248 77.0402C135.78 79.4455 130.448 81.7757 124.816 83.73C120.198 85.3461 115.693 86.6615 111.45 87.5635C111.375 87.5886 111.287 87.6136 111.187 87.6387C111.062 87.6638 110.937 87.6888 110.812 87.7139C105.105 88.9165 93.2025 90.7957 91.4754 86.0226C90.7995 84.2186 92.0761 82.0012 95.3802 79.22C97.7831 77.2281 101.125 75.0483 104.954 72.9812C104.854 73.9333 104.842 74.9104 104.917 75.9127C96.6567 80.573 93.6155 84.2186 93.9534 85.1206C94.404 86.3609 98.9095 87.4508 108.934 85.4964C109.585 85.3712 110.248 85.2334 110.924 85.083C115.054 84.181 119.447 82.9408 123.953 81.3623C129.585 79.3703 134.841 77.0778 139.234 74.71C139.685 74.4594 140.11 74.2214 140.511 73.9959C147.87 69.7866 150.01 66.7047 149.597 65.6148C149.522 65.3893 148.621 64.7504 145.617 64.7128C143.552 64.7128 140.924 64.9383 138.07 65.4645C137.57 64.6376 137.006 63.8734 136.381 63.1719C141.337 62.1947 150.723 60.9545 152.113 64.7504C153.652 68.9973 145.504 74.1838 140.511 76.8898Z" fill="url(#paint25_linear_2772_5445)"/>
<path opacity="0.3" d="M133.903 60.8802C133.264 62.1956 132.851 63.5862 131.8 64.6385C130.186 66.2922 127.82 67.2694 125.567 67.5325C125.342 67.5575 125.117 67.57 124.892 67.57C124.854 68.6224 124.291 69.6371 122.977 69.9002C120.724 70.3888 119.56 68.0586 120.161 66.4425C119.522 66.1795 118.922 65.954 118.283 65.7285C115.205 64.6761 111.788 64.7513 108.596 65.5405C108.196 65.6408 107.783 65.7535 107.357 65.8788C109.835 61.6694 114.003 58.4749 119.147 57.3849C124.554 56.2574 129.885 57.6856 133.903 60.8802Z" fill="url(#paint26_linear_2772_5445)"/>
<path d="M111.45 73.5076C108.296 74.1841 109.31 79.1075 112.501 78.4686C115.693 77.7921 114.641 72.8311 111.45 73.5076Z" fill="url(#paint27_linear_2772_5445)"/>
<path d="M133.79 70.9154C131.537 71.404 132.25 74.8992 134.503 74.4107C136.756 73.9597 136.043 70.4268 133.79 70.9154Z" fill="url(#paint28_linear_2772_5445)"/>
<path opacity="0.3" d="M125.642 72.5684C124.966 72.7187 125.191 73.771 125.867 73.6207C126.506 73.4704 126.318 72.418 125.642 72.5684Z" fill="url(#paint29_linear_2772_5445)"/>
<path opacity="0.3" d="M135.48 65.3529V65.4656C135.505 65.5658 135.505 65.6535 135.48 65.7287C135.455 65.7788 135.43 65.8289 135.404 65.879C135.354 65.9542 135.292 66.0168 135.217 66.067C135.167 66.067 135.129 66.0795 135.104 66.1045C135.029 66.1296 134.954 66.1296 134.879 66.1045C134.804 66.0795 134.741 66.0544 134.691 66.0294C134.616 65.9793 134.566 65.9292 134.541 65.879C134.491 65.8289 134.466 65.7663 134.466 65.6911L134.428 65.5784C134.403 65.4781 134.416 65.3905 134.466 65.3153C134.466 65.2652 134.478 65.2151 134.503 65.165C134.553 65.0898 134.629 65.0397 134.729 65.0146L134.841 64.9395C134.916 64.9395 134.991 64.9395 135.067 64.9395C135.117 64.9645 135.179 64.9896 135.254 65.0146C135.304 65.0647 135.354 65.1148 135.404 65.165C135.43 65.2151 135.455 65.2777 135.48 65.3529Z" fill="url(#paint30_linear_2772_5445)"/>
<path opacity="0.3" d="M132.514 84.1816C131.838 84.332 132.063 85.3467 132.739 85.234C133.415 85.0837 133.189 84.0313 132.514 84.1816Z" fill="url(#paint31_linear_2772_5445)"/>
<path opacity="0.3" d="M118.847 79.5596L118.922 79.7851C118.947 79.8853 118.934 79.9981 118.884 80.1234C118.859 80.1735 118.834 80.2236 118.809 80.2737C118.759 80.3739 118.671 80.4491 118.546 80.4992C118.496 80.5243 118.446 80.5493 118.396 80.5744C118.296 80.5744 118.208 80.5618 118.133 80.5368C118.058 80.5368 117.983 80.5117 117.908 80.4616C117.833 80.4115 117.77 80.3489 117.72 80.2737C117.67 80.1985 117.633 80.1234 117.608 80.0482L117.57 79.8227C117.545 79.6974 117.545 79.5847 117.57 79.4844C117.595 79.4343 117.62 79.3842 117.645 79.3341C117.72 79.2339 117.808 79.1587 117.908 79.1086C117.958 79.0836 118.021 79.0585 118.096 79.0334C118.171 79.0084 118.246 79.0084 118.321 79.0334C118.421 79.0585 118.509 79.0961 118.584 79.1462C118.659 79.1963 118.721 79.2589 118.772 79.3341C118.822 79.3842 118.847 79.4594 118.847 79.5596Z" fill="url(#paint32_linear_2772_5445)"/>
<path opacity="0.3" d="M109.948 68.3589C109.085 68.5469 109.385 69.8623 110.211 69.6744C111.037 69.4864 110.774 68.2086 109.948 68.3589Z" fill="url(#paint33_linear_2772_5445)"/>
<path d="M118.321 88.241C117.495 88.4289 117.758 89.7067 118.621 89.5564C119.447 89.3685 119.184 88.0531 118.321 88.241Z" fill="url(#paint34_linear_2772_5445)"/>
<path d="M129.247 89.2931C130.449 89.0676 131.425 89.4811 132.026 90.1951C130.486 91.1347 128.759 91.8112 126.919 92.2622C126.882 90.9468 127.595 89.669 129.247 89.2931Z" fill="url(#paint35_linear_2772_5445)"/>
</g>
<path d="M374.123 94.2991C375.708 97.0205 384.431 94.9795 393.606 89.6501C402.782 84.3207 408.899 77.7441 407.2 75.0227C406.747 74.1156 405.501 73.7754 403.802 73.7754C400.177 73.8888 394.06 76.0432 387.829 79.6717C381.486 83.3002 376.615 87.6091 374.802 90.784C373.896 92.2581 373.669 93.392 374.123 94.2991Z" fill="#B4AEEB"/>
<path d="M343.425 100.082C346.483 105.411 367.893 98.7214 391.228 85.2279C414.451 71.621 430.763 56.3132 427.704 50.8704C427.025 49.7365 425.325 49.0562 422.946 49.0562C414.677 48.9428 397.912 55.2927 379.901 65.838C360.53 77.0637 345.917 89.6501 343.425 96.6804C342.858 98.0411 342.858 99.175 343.425 100.082Z" fill="url(#paint36_linear_2772_5445)"/>
<path d="M343.425 100.084C346.483 105.413 367.893 98.7228 391.228 85.2293C414.451 71.6224 430.763 56.3146 427.704 50.8719C427.025 49.738 425.325 49.0576 422.946 49.0576C423.06 49.3978 423.4 49.8514 423.286 51.4388C423.286 52.346 421.814 55.9745 414.337 62.7779C407.654 68.7876 398.252 75.4777 387.83 81.6008C377.295 87.7239 366.873 92.5997 358.264 95.4345C352.147 97.4755 348.409 97.9291 346.257 97.9291C345.237 97.9291 344.331 97.4756 343.651 96.7952C343.576 96.7196 343.5 96.6818 343.425 96.6818C342.858 98.0425 342.858 99.1764 343.425 100.084Z" fill="url(#paint37_linear_2772_5445)"/>
<path d="M360.415 73.8892L397.004 53.2521C395.872 51.6646 394.399 51.4378 392.7 50.5307C387.262 47.9227 379.22 48.6031 371.857 52.9119C364.493 57.2208 359.849 63.9108 359.509 69.9206C359.396 71.6214 359.736 72.3018 360.415 73.8892Z" fill="url(#paint38_linear_2772_5445)"/>
<path d="M356.111 88.8559C356.564 89.6496 357.584 89.9898 358.15 89.6496L365.513 85.3407L404.481 62.5492L411.165 58.6939C411.844 58.2403 411.958 57.1064 411.165 56.3127L410.145 54.952C409.805 54.6118 409.466 54.385 409.012 54.2716L397.798 51.777C396.552 51.4368 395.306 51.6636 394.286 52.2306L360.076 72.1874C359.17 72.7543 359.056 74.5686 358.717 75.8159L355.771 87.3818C355.658 87.8353 355.771 88.4023 356.111 88.8559Z" fill="url(#paint39_linear_2772_5445)"/>
<path d="M402.103 56.0865C402.556 56.7668 403.463 56.9936 404.142 56.5401C404.709 56.0865 404.822 55.1794 404.369 54.499C403.916 53.8187 403.009 53.7053 402.443 54.1589C401.763 54.6124 401.65 55.5195 402.103 56.0865Z" fill="url(#paint40_linear_2772_5445)"/>
<path d="M395.307 60.8498C395.76 61.5302 396.666 61.6436 397.232 61.3034C397.912 60.8498 398.025 59.9427 397.572 59.2624C397.119 58.582 396.326 58.4686 395.646 58.8088C394.967 59.2624 394.853 60.1695 395.307 60.8498Z" fill="url(#paint41_linear_2772_5445)"/>
<path d="M388.397 65.3858C388.85 66.0661 389.643 66.2929 390.323 65.8394C391.002 65.3858 391.116 64.5921 390.662 63.9117C390.209 63.2314 389.416 63.0046 388.737 63.3448C388.057 63.7983 387.944 64.7054 388.397 65.3858Z" fill="url(#paint42_linear_2772_5445)"/>
<path d="M381.261 69.6939C381.714 70.3742 382.62 70.601 383.187 70.2608C383.866 69.8073 384.093 69.0135 383.64 68.2198C383.3 67.5395 382.394 67.3127 381.714 67.7662C381.148 68.1064 380.921 69.0135 381.261 69.6939Z" fill="url(#paint43_linear_2772_5445)"/>
<path d="M374.124 73.776C374.464 74.5698 375.37 74.7965 376.05 74.4564C376.73 74.0028 376.956 73.2091 376.503 72.5287C376.163 71.735 375.257 71.5082 374.577 71.8484C374.011 72.302 373.784 73.0957 374.124 73.776Z" fill="url(#paint44_linear_2772_5445)"/>
<path d="M366.76 77.6309C367.1 78.4246 368.006 78.6514 368.686 78.3112C369.366 77.971 369.592 77.1773 369.253 76.3836C368.913 75.7032 368.006 75.4764 367.327 75.7032C366.647 76.0434 366.421 76.9505 366.76 77.6309Z" fill="url(#paint45_linear_2772_5445)"/>
<path d="M359.285 81.1468C359.512 81.8272 360.418 82.1674 361.098 81.9406C361.777 81.6004 362.117 80.6933 361.777 80.0129C361.437 79.3326 360.645 78.879 359.965 79.2192C359.285 79.5594 358.945 80.3531 359.285 81.1468Z" fill="url(#paint46_linear_2772_5445)"/>
<g opacity="0.6">
<path d="M1185.74 85.0423C1184.94 86.4265 1180.5 85.3883 1175.83 82.6775C1171.17 79.9666 1168.05 76.6213 1168.92 75.237C1169.15 74.7756 1169.78 74.6025 1170.65 74.6025C1172.49 74.6602 1175.6 75.7561 1178.77 77.6018C1182 79.4475 1184.48 81.6393 1185.4 83.2543C1185.86 84.0041 1185.97 84.5808 1185.74 85.0423Z" fill="#B4AEEB"/>
<path d="M1201.36 87.9832C1199.8 90.6941 1188.91 87.2911 1177.04 80.4274C1165.23 73.506 1156.93 65.7195 1158.49 62.951C1158.83 62.3742 1159.7 62.0281 1160.91 62.0281C1165.11 61.9704 1173.64 65.2004 1182.8 70.5645C1192.66 76.2746 1200.09 82.6769 1201.36 86.2529C1201.65 86.945 1201.65 87.5218 1201.36 87.9832Z" fill="url(#paint47_linear_2772_5445)"/>
<path d="M1201.36 87.9835C1199.8 90.6943 1188.91 87.2913 1177.04 80.4276C1165.23 73.5063 1156.93 65.7197 1158.49 62.9512C1158.83 62.3744 1159.7 62.0283 1160.91 62.0283C1160.85 62.2014 1160.68 62.4321 1160.74 63.2396C1160.74 63.701 1161.48 65.5467 1165.29 69.0074C1168.69 72.0643 1173.47 75.4673 1178.77 78.5819C1184.13 81.6966 1189.43 84.1767 1193.81 85.6187C1196.92 86.6569 1198.82 86.8876 1199.92 86.8876C1200.44 86.8876 1200.9 86.6569 1201.24 86.3108C1201.28 86.2723 1201.32 86.2531 1201.36 86.2531C1201.65 86.9453 1201.65 87.522 1201.36 87.9835Z" fill="url(#paint48_linear_2772_5445)"/>
<path d="M1192.72 74.6603L1174.1 64.1629C1174.68 63.3554 1175.43 63.24 1176.29 62.7786C1179.06 61.452 1183.15 61.7981 1186.9 63.9899C1190.64 66.1816 1193 69.5846 1193.18 72.6416C1193.23 73.5067 1193.06 73.8528 1192.72 74.6603Z" fill="url(#paint49_linear_2772_5445)"/>
<path d="M1194.9 82.2731C1194.67 82.6768 1194.16 82.8499 1193.87 82.6768L1190.12 80.4851L1170.3 68.8918L1166.9 66.9307C1166.56 66.7 1166.5 66.1232 1166.9 65.7195L1167.42 65.0273C1167.59 64.8543 1167.77 64.739 1168 64.6813L1173.7 63.4124C1174.33 63.2393 1174.97 63.3547 1175.49 63.6431L1192.89 73.7944C1193.35 74.0828 1193.41 75.0057 1193.58 75.6401L1195.08 81.5233C1195.14 81.754 1195.08 82.0424 1194.9 82.2731Z" fill="url(#paint50_linear_2772_5445)"/>
<path d="M1171.51 65.6043C1171.28 65.9504 1170.82 66.0657 1170.47 65.835C1170.18 65.6043 1170.13 65.1429 1170.36 64.7968C1170.59 64.4507 1171.05 64.3931 1171.34 64.6238C1171.68 64.8545 1171.74 65.3159 1171.51 65.6043Z" fill="url(#paint51_linear_2772_5445)"/>
<path d="M1174.97 68.0282C1174.74 68.3743 1174.28 68.4319 1173.99 68.2589C1173.64 68.0282 1173.58 67.5668 1173.82 67.2207C1174.05 66.8746 1174.45 66.817 1174.79 66.99C1175.14 67.2207 1175.2 67.6821 1174.97 68.0282Z" fill="url(#paint52_linear_2772_5445)"/>
<path d="M1178.48 70.3345C1178.25 70.6806 1177.85 70.7959 1177.5 70.5652C1177.16 70.3345 1177.1 69.9308 1177.33 69.5847C1177.56 69.2386 1177.96 69.1233 1178.31 69.2963C1178.65 69.527 1178.71 69.9884 1178.48 70.3345Z" fill="url(#paint53_linear_2772_5445)"/>
<path d="M1182.11 72.5254C1181.88 72.8714 1181.42 72.9868 1181.13 72.8138C1180.79 72.583 1180.67 72.1793 1180.9 71.7755C1181.07 71.4295 1181.54 71.3141 1181.88 71.5448C1182.17 71.7179 1182.28 72.1793 1182.11 72.5254Z" fill="url(#paint54_linear_2772_5445)"/>
<path d="M1185.74 74.6023C1185.57 75.0061 1185.11 75.1214 1184.76 74.9484C1184.42 74.7177 1184.3 74.3139 1184.53 73.9679C1184.7 73.5641 1185.17 73.4488 1185.51 73.6218C1185.8 73.8525 1185.91 74.2563 1185.74 74.6023Z" fill="url(#paint55_linear_2772_5445)"/>
<path d="M1189.49 76.5628C1189.32 76.9666 1188.85 77.0819 1188.51 76.9089C1188.16 76.7359 1188.05 76.3321 1188.22 75.9284C1188.39 75.5823 1188.85 75.467 1189.2 75.5823C1189.55 75.7554 1189.66 76.2168 1189.49 76.5628Z" fill="url(#paint56_linear_2772_5445)"/>
<path d="M1193.29 78.3519C1193.18 78.6979 1192.71 78.871 1192.37 78.7556C1192.02 78.5826 1191.85 78.1212 1192.02 77.7751C1192.2 77.429 1192.6 77.1983 1192.94 77.3713C1193.29 77.5444 1193.46 77.9481 1193.29 78.3519Z" fill="url(#paint57_linear_2772_5445)"/>
</g>
<defs>
<filter id="filter0_f_2772_5445" x="668.604" y="15.25" width="10.9463" height="14.4619" filterUnits="userSpaceOnUse" color-interpolation-filters="sRGB">
<feFlood flood-opacity="0" result="BackgroundImageFix"/>
<feBlend mode="normal" in="SourceGraphic" in2="BackgroundImageFix" result="shape"/>
<feGaussianBlur stdDeviation="2" result="effect1_foregroundBlur_2772_5445"/>
</filter>
<linearGradient id="paint0_linear_2772_5445" x1="667.201" y1="38.6042" x2="647.384" y2="49.4557" gradientUnits="userSpaceOnUse">
<stop stop-color="#778186"/>
<stop offset="1" stop-color="#474B4C"/>
</linearGradient>
<linearGradient id="paint1_linear_2772_5445" x1="667.493" y1="39.4853" x2="648.41" y2="49.75" gradientUnits="userSpaceOnUse">
<stop stop-color="#C1C1C1"/>
<stop offset="1" stop-color="#929292"/>
</linearGradient>
<linearGradient id="paint2_linear_2772_5445" x1="658.251" y1="48.0032" x2="659.133" y2="50.7931" gradientUnits="userSpaceOnUse">
<stop stop-color="#D48845"/>
<stop offset="1" stop-color="#4E3219"/>
</linearGradient>
<linearGradient id="paint3_linear_2772_5445" x1="631.061" y1="20.3928" x2="665.835" y2="25.9629" gradientUnits="userSpaceOnUse">
<stop stop-color="#9F9F9F"/>
<stop offset="1" stop-color="#787877"/>
</linearGradient>
<linearGradient id="paint4_linear_2772_5445" x1="631.648" y1="25.6797" x2="658.497" y2="26.4126" gradientUnits="userSpaceOnUse">
<stop stop-color="#CBCBCB"/>
<stop offset="1" stop-color="#828380"/>
</linearGradient>
<linearGradient id="paint5_linear_2772_5445" x1="638.124" y1="29.2329" x2="668.055" y2="29.9657" gradientUnits="userSpaceOnUse">
<stop stop-color="#1B0A5D"/>
<stop offset="0.390625" stop-color="#1B0A5D"/>
<stop offset="0.970597" stop-color="#010005"/>
</linearGradient>
<linearGradient id="paint6_linear_2772_5445" x1="658.663" y1="16.7493" x2="642.807" y2="28.1899" gradientUnits="userSpaceOnUse">
<stop stop-color="#FFF9FF" stop-opacity="0.36"/>
<stop offset="1" stop-color="#1B0A5D" stop-opacity="0"/>
</linearGradient>
<linearGradient id="paint7_linear_2772_5445" x1="636.636" y1="28.91" x2="669.208" y2="28.91" gradientUnits="userSpaceOnUse">
<stop stop-color="#5B5C59"/>
<stop offset="1" stop-color="#3F403E"/>
</linearGradient>
<linearGradient id="paint8_linear_2772_5445" x1="979.545" y1="22.1155" x2="913.518" y2="57.585" gradientUnits="userSpaceOnUse">
<stop stop-color="#BD67B3"/>
<stop offset="1" stop-color="#5A4BA7"/>
</linearGradient>
<linearGradient id="paint9_linear_2772_5445" x1="967.81" y1="104.222" x2="968.441" y2="94.5389" gradientUnits="userSpaceOnUse">
<stop stop-color="#BD67B3"/>
<stop offset="1" stop-color="#5A4BA7"/>
</linearGradient>
<linearGradient id="paint10_linear_2772_5445" x1="913.49" y1="80.5594" x2="911.884" y2="85.1421" gradientUnits="userSpaceOnUse">
<stop stop-color="#BD67B3"/>
<stop offset="1" stop-color="white" stop-opacity="0.1"/>
</linearGradient>
<linearGradient id="paint11_linear_2772_5445" x1="993.282" y1="72.3643" x2="900.889" y2="53.0347" gradientUnits="userSpaceOnUse">
<stop stop-color="#E0E5F3"/>
<stop offset="1" stop-color="#7D84C4"/>
</linearGradient>
<linearGradient id="paint12_linear_2772_5445" x1="967.581" y1="52.7117" x2="927.338" y2="44.305" gradientUnits="userSpaceOnUse">
<stop stop-color="#E0E5F3"/>
<stop offset="1" stop-color="#7D84C4"/>
</linearGradient>
<linearGradient id="paint13_linear_2772_5445" x1="930.318" y1="70.13" x2="946.292" y2="75.8496" gradientUnits="userSpaceOnUse">
<stop stop-color="#BD67B3"/>
<stop offset="1" stop-color="#5A4BA7"/>
</linearGradient>
<linearGradient id="paint14_linear_2772_5445" x1="914.176" y1="58.385" x2="921.858" y2="73.3906" gradientUnits="userSpaceOnUse">
<stop stop-color="#BD67B3"/>
<stop offset="1" stop-color="#5A4BA7"/>
</linearGradient>
<linearGradient id="paint15_linear_2772_5445" x1="938.274" y1="71.104" x2="937.244" y2="70.8752" gradientUnits="userSpaceOnUse">
<stop stop-color="#E0E5F3"/>
<stop offset="1" stop-color="#7D84C4"/>
</linearGradient>
<linearGradient id="paint16_linear_2772_5445" x1="924.651" y1="59.1868" x2="923.048" y2="58.8436" gradientUnits="userSpaceOnUse">
<stop stop-color="#E0E5F3"/>
<stop offset="1" stop-color="#7D84C4"/>
</linearGradient>
<linearGradient id="paint17_linear_2772_5445" x1="927.742" y1="88.8091" x2="926.769" y2="88.5803" gradientUnits="userSpaceOnUse">
<stop stop-color="#E0E5F3"/>
<stop offset="1" stop-color="#7D84C4"/>
</linearGradient>
<linearGradient id="paint18_linear_2772_5445" x1="950.409" y1="80.6734" x2="948.405" y2="80.2731" gradientUnits="userSpaceOnUse">
<stop stop-color="#E0E5F3"/>
<stop offset="1" stop-color="#7D84C4"/>
</linearGradient>
<linearGradient id="paint19_linear_2772_5445" x1="962.315" y1="64.7446" x2="961.056" y2="64.5158" gradientUnits="userSpaceOnUse">
<stop stop-color="#E0E5F3"/>
<stop offset="1" stop-color="#7D84C4"/>
</linearGradient>
<linearGradient id="paint20_linear_2772_5445" x1="961.113" y1="63.082" x2="946.436" y2="93.7244" gradientUnits="userSpaceOnUse">
<stop stop-color="#BD67B3"/>
<stop offset="1" stop-color="#5A4BA7"/>
</linearGradient>
<linearGradient id="paint21_linear_2772_5445" x1="928.028" y1="90.8145" x2="926.423" y2="100.784" gradientUnits="userSpaceOnUse">
<stop stop-color="#BD67B3"/>
<stop offset="1" stop-color="#5A4BA7"/>
</linearGradient>
<linearGradient id="paint22_linear_2772_5445" x1="98.1589" y1="40.0212" x2="141.469" y2="63.2872" gradientUnits="userSpaceOnUse">
<stop stop-color="#BD67B3"/>
<stop offset="1" stop-color="#5A4BA7"/>
</linearGradient>
<linearGradient id="paint23_linear_2772_5445" x1="105.855" y1="93.8779" x2="105.441" y2="87.5264" gradientUnits="userSpaceOnUse">
<stop stop-color="#BD67B3"/>
<stop offset="1" stop-color="#5A4BA7"/>
</linearGradient>
<linearGradient id="paint24_linear_2772_5445" x1="141.486" y1="78.3581" x2="142.54" y2="81.3641" gradientUnits="userSpaceOnUse">
<stop stop-color="#BD67B3"/>
<stop offset="1" stop-color="white" stop-opacity="0.1"/>
</linearGradient>
<linearGradient id="paint25_linear_2772_5445" x1="89.1475" y1="72.9812" x2="149.752" y2="60.302" gradientUnits="userSpaceOnUse">
<stop stop-color="#E0E5F3"/>
<stop offset="1" stop-color="#7D84C4"/>
</linearGradient>
<linearGradient id="paint26_linear_2772_5445" x1="106.006" y1="60.0909" x2="132.403" y2="54.5766" gradientUnits="userSpaceOnUse">
<stop stop-color="#E0E5F3"/>
<stop offset="1" stop-color="#7D84C4"/>
</linearGradient>
<linearGradient id="paint27_linear_2772_5445" x1="130.448" y1="71.5156" x2="119.971" y2="75.2674" gradientUnits="userSpaceOnUse">
<stop stop-color="#BD67B3"/>
<stop offset="1" stop-color="#5A4BA7"/>
</linearGradient>
<linearGradient id="paint28_linear_2772_5445" x1="141.036" y1="63.8121" x2="135.997" y2="73.6549" gradientUnits="userSpaceOnUse">
<stop stop-color="#BD67B3"/>
<stop offset="1" stop-color="#5A4BA7"/>
</linearGradient>
<linearGradient id="paint29_linear_2772_5445" x1="125.229" y1="72.1549" x2="125.905" y2="72.0049" gradientUnits="userSpaceOnUse">
<stop stop-color="#E0E5F3"/>
<stop offset="1" stop-color="#7D84C4"/>
</linearGradient>
<linearGradient id="paint30_linear_2772_5445" x1="134.165" y1="64.3381" x2="135.217" y2="64.113" gradientUnits="userSpaceOnUse">
<stop stop-color="#E0E5F3"/>
<stop offset="1" stop-color="#7D84C4"/>
</linearGradient>
<linearGradient id="paint31_linear_2772_5445" x1="132.138" y1="83.7682" x2="132.776" y2="83.6182" gradientUnits="userSpaceOnUse">
<stop stop-color="#E0E5F3"/>
<stop offset="1" stop-color="#7D84C4"/>
</linearGradient>
<linearGradient id="paint32_linear_2772_5445" x1="117.27" y1="78.4321" x2="118.584" y2="78.1695" gradientUnits="userSpaceOnUse">
<stop stop-color="#E0E5F3"/>
<stop offset="1" stop-color="#7D84C4"/>
</linearGradient>
<linearGradient id="paint33_linear_2772_5445" x1="109.46" y1="67.9831" x2="110.286" y2="67.8331" gradientUnits="userSpaceOnUse">
<stop stop-color="#E0E5F3"/>
<stop offset="1" stop-color="#7D84C4"/>
</linearGradient>
<linearGradient id="paint34_linear_2772_5445" x1="110.248" y1="66.8936" x2="119.876" y2="86.9933" gradientUnits="userSpaceOnUse">
<stop stop-color="#BD67B3"/>
<stop offset="1" stop-color="#5A4BA7"/>
</linearGradient>
<linearGradient id="paint35_linear_2772_5445" x1="131.951" y1="85.0838" x2="133.004" y2="91.623" gradientUnits="userSpaceOnUse">
<stop stop-color="#BD67B3"/>
<stop offset="1" stop-color="#5A4BA7"/>
</linearGradient>
<linearGradient id="paint36_linear_2772_5445" x1="335.835" y1="89.1966" x2="343.776" y2="101.889" gradientUnits="userSpaceOnUse">
<stop stop-color="#2851AB"/>
<stop offset="1" stop-color="#7D84C4"/>
</linearGradient>
<linearGradient id="paint37_linear_2772_5445" x1="430.196" y1="98.8362" x2="430.31" y2="49.0576" gradientUnits="userSpaceOnUse">
<stop stop-color="#2851AB"/>
<stop offset="1" stop-color="#7D84C4"/>
</linearGradient>
<linearGradient id="paint38_linear_2772_5445" x1="389.301" y1="41.1193" x2="353.147" y2="62.1788" gradientUnits="userSpaceOnUse">
<stop stop-color="#E0E5F3"/>
<stop offset="1" stop-color="#7D84C4"/>
</linearGradient>
<linearGradient id="paint39_linear_2772_5445" x1="415.243" y1="59.034" x2="405.713" y2="41.2395" gradientUnits="userSpaceOnUse">
<stop stop-color="#2851AB"/>
<stop offset="1" stop-color="#7D84C4"/>
</linearGradient>
<linearGradient id="paint40_linear_2772_5445" x1="408.22" y1="59.4882" x2="405.837" y2="52.5728" gradientUnits="userSpaceOnUse">
<stop stop-color="white"/>
<stop offset="1" stop-color="white" stop-opacity="0"/>
</linearGradient>
<linearGradient id="paint41_linear_2772_5445" x1="401.084" y1="61.5302" x2="398.474" y2="56.9968" gradientUnits="userSpaceOnUse">
<stop stop-color="white"/>
<stop offset="1" stop-color="white" stop-opacity="0"/>
</linearGradient>
<linearGradient id="paint42_linear_2772_5445" x1="394.627" y1="65.159" x2="390.772" y2="61.1941" gradientUnits="userSpaceOnUse">
<stop stop-color="white"/>
<stop offset="1" stop-color="white" stop-opacity="0"/>
</linearGradient>
<linearGradient id="paint43_linear_2772_5445" x1="386.925" y1="70.7144" x2="384.769" y2="66.1804" gradientUnits="userSpaceOnUse">
<stop stop-color="white"/>
<stop offset="1" stop-color="white" stop-opacity="0"/>
</linearGradient>
<linearGradient id="paint44_linear_2772_5445" x1="379.448" y1="74.2296" x2="377.86" y2="70.9425" gradientUnits="userSpaceOnUse">
<stop stop-color="white"/>
<stop offset="1" stop-color="white" stop-opacity="0"/>
</linearGradient>
<linearGradient id="paint45_linear_2772_5445" x1="372.651" y1="78.538" x2="370.382" y2="74.6846" gradientUnits="userSpaceOnUse">
<stop stop-color="white"/>
<stop offset="1" stop-color="white" stop-opacity="0"/>
</linearGradient>
<linearGradient id="paint46_linear_2772_5445" x1="365.969" y1="85.6825" x2="362.905" y2="77.8606" gradientUnits="userSpaceOnUse">
<stop stop-color="white"/>
<stop offset="1" stop-color="white" stop-opacity="0"/>
</linearGradient>
<linearGradient id="paint47_linear_2772_5445" x1="1205.22" y1="82.4461" x2="1201.18" y2="88.9025" gradientUnits="userSpaceOnUse">
<stop stop-color="#2851AB"/>
<stop offset="1" stop-color="#7D84C4"/>
</linearGradient>
<linearGradient id="paint48_linear_2772_5445" x1="1157.22" y1="87.349" x2="1157.16" y2="62.0283" gradientUnits="userSpaceOnUse">
<stop stop-color="#2851AB"/>
<stop offset="1" stop-color="#7D84C4"/>
</linearGradient>
<linearGradient id="paint49_linear_2772_5445" x1="1178.02" y1="57.9913" x2="1196.41" y2="68.7036" gradientUnits="userSpaceOnUse">
<stop stop-color="#E0E5F3"/>
<stop offset="1" stop-color="#7D84C4"/>
</linearGradient>
<linearGradient id="paint50_linear_2772_5445" x1="1164.83" y1="67.1038" x2="1169.67" y2="58.0523" gradientUnits="userSpaceOnUse">
<stop stop-color="#2851AB"/>
<stop offset="1" stop-color="#7D84C4"/>
</linearGradient>
<linearGradient id="paint51_linear_2772_5445" x1="1168.4" y1="67.3347" x2="1169.61" y2="63.817" gradientUnits="userSpaceOnUse">
<stop stop-color="white"/>
<stop offset="1" stop-color="white" stop-opacity="0"/>
</linearGradient>
<linearGradient id="paint52_linear_2772_5445" x1="1172.03" y1="68.3743" x2="1173.36" y2="66.0683" gradientUnits="userSpaceOnUse">
<stop stop-color="white"/>
<stop offset="1" stop-color="white" stop-opacity="0"/>
</linearGradient>
<linearGradient id="paint53_linear_2772_5445" x1="1175.31" y1="70.2191" x2="1177.27" y2="68.2023" gradientUnits="userSpaceOnUse">
<stop stop-color="white"/>
<stop offset="1" stop-color="white" stop-opacity="0"/>
</linearGradient>
<linearGradient id="paint54_linear_2772_5445" x1="1179.23" y1="73.0445" x2="1180.33" y2="70.7382" gradientUnits="userSpaceOnUse">
<stop stop-color="white"/>
<stop offset="1" stop-color="white" stop-opacity="0"/>
</linearGradient>
<linearGradient id="paint55_linear_2772_5445" x1="1183.03" y1="74.833" x2="1183.84" y2="73.161" gradientUnits="userSpaceOnUse">
<stop stop-color="white"/>
<stop offset="1" stop-color="white" stop-opacity="0"/>
</linearGradient>
<linearGradient id="paint56_linear_2772_5445" x1="1186.49" y1="77.0243" x2="1187.65" y2="75.0642" gradientUnits="userSpaceOnUse">
<stop stop-color="white"/>
<stop offset="1" stop-color="white" stop-opacity="0"/>
</linearGradient>
<linearGradient id="paint57_linear_2772_5445" x1="1189.89" y1="80.659" x2="1191.45" y2="76.6802" gradientUnits="userSpaceOnUse">
<stop stop-color="white"/>
<stop offset="1" stop-color="white" stop-opacity="0"/>
</linearGradient>
</defs>
</svg>
