<svg width="394" height="240" viewBox="0 0 394 240" fill="none" xmlns="http://www.w3.org/2000/svg">
<path opacity="0.3" d="M309.265 127.259C310.354 93.426 283.208 64.8746 249.608 64.5704C249.416 64.5687 249.224 64.568 249.032 64.568C240.035 64.5718 231.34 61.1227 224.892 54.8005C211.294 41.4685 192.634 33.3506 172.093 33.6534C131.692 34.2488 99.4042 67.0042 99.0796 107.709C98.902 129.963 108.389 149.987 123.564 163.781H295.604C303.767 153.782 308.82 141.108 309.265 127.259Z" fill="#EBE4FF"/>
<g opacity="0.8">
<path fill-rule="evenodd" clip-rule="evenodd" d="M311.628 91.671C312.097 91.2023 312.851 91.1832 313.343 91.6274L316.084 94.1033C316.345 94.3393 316.494 94.6749 316.494 95.027V102.827C316.494 103.514 315.937 104.071 315.25 104.071H310.078C309.39 104.071 308.833 103.514 308.833 102.827V94.982C308.833 94.6519 308.964 94.3354 309.198 94.1019L311.628 91.671ZM313.677 91.258C312.988 90.636 311.933 90.6628 311.276 91.319L308.845 93.7499C308.519 94.0767 308.335 94.5199 308.335 94.982V102.827C308.335 103.789 309.115 104.569 310.078 104.569H315.25C316.212 104.569 316.992 103.789 316.992 102.827V95.027C316.992 94.5341 316.783 94.0642 316.418 93.7339L313.677 91.258Z" fill="#585161"/>
<path d="M311.492 94.3661C311.492 94.9771 311.988 95.4724 312.599 95.4724C313.21 95.4724 313.705 94.9771 313.705 94.3661C313.705 93.7551 313.21 93.2598 312.599 93.2598C311.988 93.2598 311.492 93.7551 311.492 94.3661Z" fill="#BCB9CE"/>
<path d="M315.362 102.527C315.362 101.992 314.929 101.559 314.394 101.559H310.799C310.264 101.559 309.831 101.992 309.831 102.527V102.527C309.831 103.061 310.264 103.495 310.799 103.495H314.394C314.929 103.495 315.362 103.061 315.362 102.527V102.527Z" fill="#BCB9CE"/>
<path d="M315.362 98.9313C315.362 98.8549 315.3 98.793 315.224 98.793H309.969C309.893 98.793 309.831 98.8549 309.831 98.9313V98.9313C309.831 99.0076 309.893 99.0696 309.969 99.0696H315.224C315.3 99.0696 315.362 99.0076 315.362 98.9313V98.9313Z" fill="#959498"/>
<path d="M315.362 97.8219C315.362 97.7455 315.3 97.6836 315.224 97.6836H309.969C309.893 97.6836 309.831 97.7455 309.831 97.8219V97.8219C309.831 97.8983 309.893 97.9602 309.969 97.9602H315.224C315.3 97.9602 315.362 97.8983 315.362 97.8219V97.8219Z" fill="#959498"/>
<path fill-rule="evenodd" clip-rule="evenodd" d="M312.841 93.6128V84.5879H312.343V93.6128H312.841Z" fill="#FFA673"/>
<path d="M287.368 57.2785C287.368 55.9813 288.42 54.9297 289.717 54.9297H302.401C303.698 54.9297 304.749 55.9813 304.749 57.2785V69.9621C304.749 71.2593 303.698 72.311 302.401 72.311H289.717C288.42 72.311 287.368 71.2593 287.368 69.9621V57.2785Z" fill="#5BB945"/>
<path d="M278.68 73.4172C278.68 72.12 279.731 71.0684 281.029 71.0684H293.712C295.009 71.0684 296.061 72.12 296.061 73.4172V86.1008C296.061 87.398 295.009 88.4496 293.712 88.4496H281.029C279.731 88.4496 278.68 87.398 278.68 86.1008V73.4172Z" fill="#DF2A2B"/>
<path d="M296.061 73.4172C296.061 72.12 297.112 71.0684 298.409 71.0684H311.093C312.39 71.0684 313.442 72.12 313.442 73.4172V86.1008C313.442 87.398 312.39 88.4496 311.093 88.4496H298.409C297.112 88.4496 296.061 87.398 296.061 86.1008V73.4172Z" fill="#C9BEEB"/>
<path d="M293.998 61.5132V59.6582H297.103V67.0279H295.036V61.5132H293.998Z" fill="white"/>
<path d="M285.076 82.0397C285.728 81.5288 286.262 81.0886 286.679 80.719C287.096 80.3493 287.445 79.9696 287.727 79.5797C288.01 79.1832 288.151 78.8068 288.151 78.4506C288.151 78.2355 288.1 78.0675 288 77.9465C287.905 77.8255 287.764 77.765 287.576 77.765C287.381 77.765 287.23 77.849 287.122 78.0171C287.015 78.1784 286.964 78.417 286.971 78.7329H285.056C285.076 78.1347 285.207 77.6407 285.449 77.2509C285.691 76.8543 286.007 76.5653 286.397 76.3838C286.786 76.1957 287.22 76.1016 287.697 76.1016C288.524 76.1016 289.139 76.3066 289.542 76.7165C289.945 77.1265 290.147 77.6575 290.147 78.3094C290.147 79.0084 289.912 79.6637 289.441 80.2754C288.977 80.887 288.396 81.4348 287.697 81.9187H290.217V83.5217H285.076V82.0397Z" fill="white"/>
<path d="M302.366 77.9861C302.393 77.2266 302.628 76.6452 303.072 76.2419C303.515 75.8319 304.133 75.627 304.927 75.627C305.444 75.627 305.884 75.7177 306.247 75.8992C306.617 76.0739 306.896 76.3159 307.084 76.625C307.272 76.9275 307.366 77.2703 307.366 77.6534C307.366 78.1104 307.255 78.4767 307.034 78.7523C306.812 79.0211 306.56 79.2026 306.277 79.2967V79.337C307.091 79.6394 307.497 80.2175 307.497 81.071C307.497 81.4945 307.4 81.8675 307.205 82.1901C307.01 82.5127 306.728 82.7648 306.358 82.9462C305.988 83.1277 305.548 83.2184 305.037 83.2184C304.197 83.2184 303.532 83.0168 303.041 82.6135C302.557 82.2035 302.305 81.5785 302.285 80.7383H304.211C304.197 81.0072 304.254 81.2155 304.382 81.3634C304.51 81.5113 304.701 81.5852 304.957 81.5852C305.152 81.5852 305.303 81.5247 305.41 81.4037C305.525 81.2828 305.582 81.1214 305.582 80.9198C305.582 80.6644 305.498 80.4762 305.33 80.3552C305.169 80.2343 304.903 80.1738 304.533 80.1738H304.181V78.5708H304.523C304.779 78.5775 304.994 78.5372 305.169 78.4498C305.35 78.3557 305.441 78.1709 305.441 77.8953C305.441 77.687 305.39 77.5324 305.289 77.4316C305.189 77.324 305.051 77.2703 304.876 77.2703C304.681 77.2703 304.537 77.3408 304.443 77.482C304.355 77.6164 304.305 77.7844 304.291 77.9861H302.366Z" fill="white"/>
</g>
<path d="M348.571 239.265H45.6024L0 235.43C65.1994 173.915 131.233 144.26 200.106 144.26C264.14 144.26 355.294 182.375 393.351 235.43L348.571 239.265Z" fill="url(#paint0_linear_4485_20329)" style="mix-blend-mode:screen"/>
<path fill-rule="evenodd" clip-rule="evenodd" d="M192.799 119.223C178.571 107.505 176.537 86.471 188.255 72.2428C199.973 58.0146 221.007 55.98 235.235 67.6984C249.464 79.4167 251.498 100.451 239.78 114.679C228.061 128.907 207.028 130.942 192.799 119.223ZM188.047 124.994C170.632 110.651 168.142 84.9055 182.485 67.4904C196.828 50.0753 222.573 47.585 239.988 61.928C257.403 76.2711 259.893 102.016 245.55 119.431C231.207 136.846 205.462 139.337 188.047 124.994Z" fill="#8D75D6"/>
<path d="M195.972 128.121L183.458 117.815L174.834 128.286L187.347 138.593L195.972 128.121Z" fill="#8D75D6"/>
<path d="M192.137 132.777L179.623 122.471L174.832 128.289L187.345 138.595L192.137 132.777Z" fill="#9FB0FE"/>
<path d="M189.189 139.756C190.945 137.624 190.64 134.473 188.509 132.718L180.377 126.021C178.245 124.265 175.094 124.57 173.339 126.701L146.636 159.123C144.88 161.255 145.185 164.406 147.317 166.162L155.448 172.859C157.58 174.614 160.731 174.31 162.487 172.178L189.189 139.756Z" fill="#8D75D6"/>
<path fill-rule="evenodd" clip-rule="evenodd" d="M182.549 70.3725C169.021 86.7982 171.37 111.081 187.795 124.609C204.221 138.137 228.503 135.788 242.031 119.362C255.56 102.937 253.211 78.6543 236.785 65.1261C220.359 51.598 196.077 53.9468 182.549 70.3725ZM191.597 119.992C177.721 108.564 175.737 88.0506 187.165 74.1744C198.594 60.2983 219.107 58.314 232.983 69.7424C246.859 81.1708 248.844 101.684 237.415 115.56C225.987 129.437 205.473 131.421 191.597 119.992Z" fill="#9FB0FE"/>
<path opacity="0.5" d="M187.166 74.1766C175.738 88.0527 177.722 108.566 191.598 119.995C205.475 131.423 225.988 129.439 237.416 115.563C248.845 101.686 246.861 81.1729 232.984 69.7445C219.108 58.3161 198.595 60.3004 187.166 74.1766Z" fill="#BECAFF"/>
<path d="M231.526 88.3536C232.446 87.236 232.286 85.5839 231.169 84.6635L219.365 74.942C218.248 74.0216 216.596 74.1814 215.675 75.2989V75.2989C214.755 76.4165 214.915 78.0686 216.032 78.989L227.836 88.7105C228.953 89.6309 230.605 89.4711 231.526 88.3536V88.3536Z" fill="#F6FFFF"/>
<path d="M231.029 99.2657C231.949 98.1481 231.789 96.496 230.672 95.5756L208.751 77.5213C207.633 76.6009 205.981 76.7607 205.061 77.8783V77.8783C204.14 78.9958 204.3 80.6479 205.418 81.5683L227.339 99.6226C228.456 100.543 230.108 100.383 231.029 99.2657V99.2657Z" fill="#F6FFFF"/>
<g opacity="0.8">
<path d="M138.483 89.0166V116.021C138.483 117.674 137.413 119.24 136.082 119.53L94.7461 128.406C92.5767 128.87 90.7832 127.507 90.7832 125.331V90.0898C90.7832 87.9144 92.5767 86.145 94.7461 86.145L136.082 86C137.413 86 138.483 87.3342 138.483 89.0166Z" fill="#F5F9FD"/>
<path d="M136.15 90.8653V91.1765L93.3818 92.2658V91.8249C93.3818 89.8797 94.9898 88.2976 96.935 88.2976L133.997 88.168C135.19 88.168 136.15 89.361 136.15 90.8653V90.8653Z" fill="#C9BEEB"/>
<path d="M98.9821 90.2191C98.9821 90.7896 98.5152 91.2565 97.9447 91.2565C97.3741 91.2824 96.9072 90.8156 96.9072 90.245C96.9072 89.6485 97.3741 89.1816 97.9447 89.1816C98.5152 89.1816 98.9821 89.6225 98.9821 90.2191Z" fill="white"/>
<path d="M102.537 90.1658C102.537 90.7104 102.096 91.1773 101.552 91.1773C101.007 91.2032 100.54 90.7623 100.54 90.1917C100.54 89.6211 101.007 89.1543 101.552 89.1543C102.096 89.1543 102.537 89.5952 102.537 90.1658V90.1658Z" fill="white"/>
<path d="M105.962 90.1136C105.962 90.6582 105.547 91.0991 105.003 91.1251C104.484 91.1251 104.043 90.6842 104.043 90.1395C104.043 89.5689 104.484 89.128 105.003 89.128C105.547 89.1021 105.962 89.543 105.962 90.1136Z" fill="white"/>
<path d="M115.163 99.63L121.725 103.079C122.347 103.417 122.347 104.428 121.725 104.869L115.163 109.719C114.515 110.186 113.711 109.797 113.711 108.967V100.667C113.711 99.8634 114.515 99.2929 115.163 99.63Z" fill="#E47272"/>
<path d="M133.846 118.198L97.1993 126.031C95.1244 126.472 93.3867 125.149 93.3867 123.074V120.403L136.155 112.752V114.801C136.155 116.409 135.143 117.913 133.846 118.198Z" fill="#C9BEEB"/>
<path d="M121.469 118.668L102.121 122.455C102.087 122.472 102.052 122.48 102.017 122.48C101.758 122.48 101.525 122.299 101.473 122.04C101.421 121.728 101.628 121.443 101.914 121.391L121.469 117.553C121.486 117.847 121.495 118.141 121.495 118.435C121.478 118.504 121.469 118.582 121.469 118.668V118.668Z" fill="#E47272"/>
<path d="M134.618 115.532C134.67 115.817 134.489 116.102 134.178 116.154L122.325 118.488C122.308 118.437 122.299 118.376 122.299 118.307C122.282 118.013 122.247 117.71 122.195 117.399L133.97 115.091C134.281 115.039 134.567 115.22 134.618 115.532Z" fill="#FFFFFD"/>
<path d="M96.7312 123.515C96.4718 123.515 96.2384 123.334 96.1865 123.074C96.1347 122.763 96.3162 122.478 96.6274 122.426L106.431 120.507C106.742 120.429 107.028 120.636 107.079 120.922C107.131 121.233 106.95 121.518 106.639 121.57L96.8349 123.489C96.8003 123.507 96.7658 123.515 96.7312 123.515Z" fill="#E47272"/>
<path d="M123.265 117.733C123.265 118.823 122.435 119.86 121.397 120.068C120.36 120.275 119.504 119.575 119.504 118.486C119.504 117.37 120.36 116.333 121.397 116.125C122.435 115.944 123.265 116.67 123.265 117.733V117.733Z" fill="#E47272"/>
<path d="M122.302 117.915C122.302 118.46 121.913 118.978 121.395 119.082C120.876 119.186 120.461 118.823 120.461 118.278C120.461 117.759 120.876 117.241 121.395 117.137C121.913 117.033 122.302 117.396 122.302 117.915Z" fill="#FFFFFD"/>
<path fill-rule="evenodd" clip-rule="evenodd" d="M91.9979 130.969C92.2822 130.684 92.7395 130.673 93.038 130.942L94.701 132.444C94.8595 132.587 94.9499 132.791 94.9499 133.005V137.737C94.9499 138.154 94.6119 138.492 94.1948 138.492H91.057C90.64 138.492 90.3019 138.154 90.3019 137.737V132.977C90.3019 132.777 90.3815 132.585 90.5231 132.443L91.9979 130.969ZM93.2404 130.718C92.8226 130.341 92.1824 130.357 91.7843 130.755L90.3095 132.23C90.1113 132.428 89.9999 132.697 89.9999 132.977V137.737C89.9999 138.32 90.4732 138.794 91.057 138.794H94.1948C94.7787 138.794 95.252 138.32 95.252 137.737V133.005C95.252 132.705 95.1253 132.42 94.9034 132.22L93.2404 130.718Z" fill="#585161"/>
<path d="M91.9145 132.603C91.9145 132.974 92.215 133.274 92.5856 133.274C92.9563 133.274 93.2568 132.974 93.2568 132.603C93.2568 132.232 92.9563 131.932 92.5856 131.932C92.215 131.932 91.9145 132.232 91.9145 132.603Z" fill="#BCB9CE"/>
<path d="M94.2598 137.552C94.2598 137.228 93.9968 136.965 93.6725 136.965H91.4911C91.1668 136.965 90.9038 137.228 90.9038 137.552V137.552C90.9038 137.876 91.1668 138.139 91.4911 138.139H93.6725C93.9968 138.139 94.2598 137.876 94.2598 137.552V137.552Z" fill="#BCB9CE"/>
<path d="M94.2598 135.373C94.2598 135.327 94.2222 135.289 94.1759 135.289H90.9877C90.9414 135.289 90.9038 135.327 90.9038 135.373V135.373C90.9038 135.419 90.9414 135.457 90.9877 135.457H94.1759C94.2222 135.457 94.2598 135.419 94.2598 135.373V135.373Z" fill="#959498"/>
<path d="M94.2598 134.699C94.2598 134.653 94.2222 134.615 94.1759 134.615H90.9877C90.9414 134.615 90.9038 134.653 90.9038 134.699V134.699C90.9038 134.745 90.9414 134.783 90.9877 134.783H94.1759C94.2222 134.783 94.2598 134.745 94.2598 134.699V134.699Z" fill="#959498"/>
<path fill-rule="evenodd" clip-rule="evenodd" d="M92.7334 132.145V126.67H92.4314V132.145H92.7334Z" fill="#FFA673"/>
</g>
<path d="M158.426 50.6844L176.25 24.8522L174.941 20.6455C163.163 24.9145 148.922 17.5295 148.922 17.5295L132.189 2.60352L113.586 30.2742C125.676 35.5715 134.682 42.1152 134.682 42.1152C144.123 50.4974 158.426 50.6844 158.426 50.6844Z" fill="#C9BEEB"/>
<path d="M149.759 16.0968L136.048 40.371C136.048 40.371 146.674 49.1583 157.829 46.8524L174.531 19.3687C159.325 22.7029 159.169 11.1111 149.759 16.0968Z" fill="#F5F9FD"/>
<path d="M149.761 16.0975C150.415 8.30738 136.05 0.392578 136.05 0.392578L117.478 28.5618C117.478 28.5618 128.665 29.0604 136.05 40.3717L149.761 16.0975Z" fill="#F5F9FD"/>
<path fill-rule="evenodd" clip-rule="evenodd" d="M136.549 40.656L150.26 16.3819L149.259 15.8164L135.548 40.0906L136.549 40.656Z" fill="#C9BEEB"/>
<path fill-rule="evenodd" clip-rule="evenodd" d="M159.978 25.3531C160.83 25.7686 161.682 26.1841 162.533 26.5996C162.97 26.7865 163.375 27.0047 163.811 27.1916C164.154 27.3474 164.59 27.5344 164.964 27.4409C165.338 27.3474 165.587 27.067 165.774 26.7242C165.992 26.3503 166.21 25.9452 166.397 25.5401C166.792 24.7923 167.176 24.0444 167.55 23.2965C167.831 23.1719 167.893 22.7356 167.644 22.5487C167.55 22.3929 167.363 22.3306 167.176 22.3617C165.556 21.8631 163.904 21.4581 162.315 20.8037C162.159 20.7414 161.972 20.866 161.879 20.9907C161.1 22.1748 160.446 23.4523 159.791 24.6988C159.667 24.9169 159.729 25.2597 159.978 25.3531V25.3531ZM160.913 24.7299C161.443 23.7328 162.004 22.7045 162.44 21.6762C163.873 22.0501 165.244 22.611 166.646 23.0784C166.335 23.6601 166.034 24.2417 165.743 24.8234C165.556 25.1766 165.369 25.5297 165.182 25.8829C165.088 26.0698 164.933 26.5684 164.683 26.6307C164.559 26.6307 164.341 26.5061 164.216 26.4438C164.05 26.3399 163.873 26.236 163.686 26.1322C163.333 25.966 162.98 25.7894 162.627 25.6024C162.045 25.3116 161.474 25.0208 160.913 24.7299V24.7299Z" fill="#CFE1EF"/>
<path d="M152.254 18.0908C153.438 17.6546 154.591 18.122 155.651 18.6829C156.679 19.2749 157.676 19.9293 158.86 20.1786C159.297 20.2721 159.452 19.6488 159.047 19.5242C156.679 18.9322 154.654 16.2523 152.005 17.0937C151.382 17.3118 151.631 18.2778 152.254 18.0908V18.0908Z" fill="#CFE1EF"/>
<path d="M150.663 20.1772C150.663 20.4577 150.913 20.707 151.224 20.707C151.723 20.707 152.252 20.6447 152.782 20.707C153.25 20.7693 153.748 20.8939 154.216 21.0497C155.182 21.3302 156.085 21.8288 156.864 22.4831C157.269 22.8259 157.83 22.265 157.425 21.9222C156.584 21.1432 155.618 20.5512 154.558 20.1772C154.018 19.9695 153.468 19.8241 152.907 19.741C152.346 19.6787 151.754 19.5852 151.224 19.6475C150.913 19.6787 150.663 19.8656 150.663 20.1772Z" fill="#CFE1EF"/>
<path d="M149.323 24.3837C151.847 24.5707 154.121 25.7237 156.303 26.9078C158.515 28.0607 160.728 29.3071 163.22 29.8057C163.75 29.8992 163.968 29.1513 163.439 28.9955C158.422 27.7802 154.558 23.7294 149.323 23.1996C148.575 23.1373 148.575 24.3214 149.323 24.3837V24.3837Z" fill="#CFE1EF"/>
<path d="M156.618 30.1189C156.93 30.4617 157.335 30.6486 157.771 30.8356C158.166 31.0018 158.571 31.1472 158.986 31.2719C159.817 31.5211 160.669 31.6562 161.541 31.6769C161.791 31.7081 161.978 31.49 161.978 31.2719C161.978 31.0226 161.791 30.8668 161.541 30.8356C160.762 30.7421 159.983 30.5552 159.235 30.337C158.882 30.2124 158.529 30.0774 158.176 29.9319C157.802 29.745 157.428 29.5269 156.992 29.4334C156.618 29.3399 156.306 29.8385 156.618 30.1189V30.1189Z" fill="#CFE1EF"/>
<path fill-rule="evenodd" clip-rule="evenodd" d="M143.121 34.0144C144.399 34.1702 145.707 34.5441 146.954 34.8869C148.2 35.2401 149.436 35.6451 150.662 36.1022C153.124 37.037 155.492 38.1899 157.735 39.5298C157.985 39.6856 158.296 39.561 158.452 39.3117C159.138 38.2211 159.886 37.1616 160.509 36.0087C160.758 35.6036 160.384 35.2608 160.041 35.292C160.104 35.105 160.041 34.8557 159.792 34.7623C158.203 34.139 156.645 33.4224 155.087 32.6433C153.757 31.9786 152.469 31.2307 151.223 30.3998C150.008 29.5896 148.73 28.7482 147.234 28.6859C144.679 28.5613 143.215 31.1788 142.591 33.3289C142.467 33.7028 142.778 33.9832 143.121 34.0144V34.0144ZM143.869 33.0796C144.243 32.1759 144.617 31.2723 145.302 30.5867C147.359 28.5613 150.163 31.0853 152.002 32.1759C154.401 33.5782 156.956 34.6999 159.605 35.479C159.626 35.479 159.636 35.479 159.636 35.479C159.615 35.4997 159.605 35.5101 159.605 35.5101C158.951 36.4138 158.39 37.3798 157.798 38.3457C155.617 37.0993 153.342 36.0087 151.005 35.1362C149.758 34.6584 148.491 34.2429 147.203 33.8898C146.113 33.5782 144.991 33.3289 143.869 33.0796V33.0796Z" fill="#CFE1EF"/>
<path d="M142.937 35.9461C144.028 36.4447 145.212 36.7874 146.333 37.1925C147.434 37.608 148.546 38.0131 149.668 38.4078C151.932 39.2387 154.196 40.0489 156.461 40.8383C156.99 41.0253 157.209 40.1528 156.679 39.9658C154.477 39.1141 152.254 38.2728 150.01 37.4418C148.889 37.0471 147.777 36.642 146.676 36.2265C145.554 35.8215 144.464 35.3229 143.311 35.0113C142.781 34.8555 142.407 35.6968 142.937 35.9461Z" fill="#CFE1EF"/>
<path d="M149.418 40.8692C149.667 41.3054 150.321 41.4924 150.758 41.6482C151.215 41.8559 151.672 42.0325 152.129 42.1779C153.064 42.4687 154.019 42.6869 154.995 42.8323C155.245 42.8634 155.494 42.77 155.556 42.4895C155.619 42.2714 155.494 41.9598 155.245 41.9286C154.31 41.7624 153.396 41.5235 152.503 41.2119C152.066 41.0457 151.651 40.8692 151.256 40.6822C151.048 40.5991 150.841 40.5056 150.633 40.4018C150.384 40.2771 150.134 40.1213 149.854 40.1525C149.511 40.1836 149.231 40.5264 149.418 40.8692Z" fill="#CFE1EF"/>
<path d="M137.638 6.25158C138.012 6.59434 138.667 6.78131 139.134 7.03059C139.591 7.2591 140.038 7.5084 140.474 7.77846C141.388 8.36012 142.24 9.01449 143.029 9.74157C144.618 11.2373 145.958 12.9511 146.956 14.8831C147.205 15.3505 147.922 14.9454 147.703 14.4468C146.706 12.4214 145.335 10.5518 143.684 9.02488C142.842 8.24586 141.939 7.52916 140.973 6.90595C140.516 6.61512 140.048 6.34506 139.57 6.09577C139.103 5.84649 138.511 5.47257 137.981 5.44141C137.576 5.44141 137.358 5.97113 137.638 6.25158V6.25158Z" fill="#CFE1EF"/>
<path d="M142.812 12.9514C142.968 13.3253 143.248 13.6369 143.498 13.9485C143.747 14.2393 143.996 14.5302 144.245 14.821C144.765 15.4234 145.284 16.0259 145.803 16.6283C145.928 16.7841 146.24 16.753 146.364 16.6283C146.551 16.4414 146.52 16.1921 146.364 16.0363C145.887 15.4131 145.398 14.8002 144.9 14.1978C144.651 13.8862 144.401 13.5746 144.152 13.263C143.872 12.9514 143.622 12.6709 143.311 12.4528C143.155 12.3593 142.968 12.3905 142.874 12.5151C142.75 12.6086 142.719 12.7956 142.812 12.9514V12.9514Z" fill="#CFE1EF"/>
<path fill-rule="evenodd" clip-rule="evenodd" d="M130.504 14.8194C134.337 16.9384 137.951 19.4312 141.286 22.2357C141.473 22.4226 141.847 22.485 142.034 22.2357C142.937 21.0827 143.965 19.9298 144.744 18.7145C144.994 18.3094 144.62 17.9043 144.246 17.9043C144.246 17.8836 144.236 17.8524 144.215 17.8109C143.373 16.5333 142.22 15.4115 141.036 14.4143C139.883 13.4484 138.637 12.5447 137.328 11.828C136.019 11.1113 134.493 10.4881 133.028 11.1113C131.75 11.6722 130.971 12.9498 130.317 14.1027C130.192 14.352 130.255 14.6948 130.504 14.8194ZM141.566 21.1139C138.419 18.4964 135.054 16.1593 131.47 14.1651C131.969 13.2926 132.561 12.3577 133.527 12.015C134.835 11.4852 136.3 12.3889 137.391 13.0121C138.575 13.6977 139.676 14.4871 140.694 15.3803C141.753 16.284 142.657 17.2811 143.623 18.2783C143.643 18.299 143.675 18.3198 143.716 18.3406C142.937 19.2131 142.252 20.1791 141.566 21.1139Z" fill="#CFE1EF"/>
<path d="M129.228 16.7505C129.353 17.0621 129.758 17.1244 130.069 17.249C130.34 17.3737 130.62 17.5087 130.911 17.6541C131.451 17.9242 131.981 18.2358 132.5 18.5889C133.528 19.2745 134.463 20.1158 135.273 21.0195C135.616 21.4246 136.146 20.8637 135.834 20.4586C135.003 19.4199 134.048 18.5266 132.967 17.7788C132.406 17.3841 131.835 17.0413 131.254 16.7505C130.963 16.605 130.672 16.47 130.381 16.3454C130.038 16.1896 129.727 16.0026 129.384 16.1896C129.135 16.2831 129.135 16.5635 129.228 16.7505Z" fill="#CFE1EF"/>
<path d="M127.917 18.8411C127.979 18.9346 128.041 18.9969 128.166 19.0592C128.207 19.1008 128.259 19.1319 128.322 19.1527C128.405 19.215 128.498 19.267 128.602 19.3085C128.789 19.4332 128.986 19.5474 129.194 19.6513C129.568 19.9006 129.973 20.1187 130.378 20.3368C130.565 20.4303 130.783 20.368 130.908 20.181C131.001 19.994 130.908 19.8071 130.752 19.6824C130.378 19.4331 130.004 19.1839 129.63 18.9346C129.443 18.8099 129.256 18.6853 129.07 18.5606C128.986 18.5191 128.893 18.4672 128.789 18.4048C128.664 18.3425 128.54 18.2179 128.415 18.2179C128.228 18.1867 128.072 18.2179 127.948 18.3737C127.854 18.4983 127.823 18.7165 127.917 18.8411V18.8411Z" fill="#CFE1EF"/>
<path d="M126.922 21.9557C127.327 22.2674 127.95 22.392 128.417 22.6101C128.916 22.7971 129.394 23.0152 129.851 23.2645C130.786 23.7215 131.689 24.2512 132.562 24.8537C134.338 26.0378 135.927 27.44 137.36 29.0292C137.703 29.4343 138.264 28.8423 137.921 28.4683C136.488 26.7545 134.868 25.2588 133.029 24.0123C132.115 23.3684 131.159 22.7971 130.162 22.2985C129.685 22.07 129.207 21.8519 128.729 21.6441C128.23 21.426 127.67 21.1144 127.14 21.1144C126.641 21.0832 126.579 21.7065 126.922 21.9557V21.9557Z" fill="#CFE1EF"/>
<path fill-rule="evenodd" clip-rule="evenodd" d="M136.361 24.9158C136.828 25.6637 137.701 26.1311 138.605 26.0065C139.508 25.913 140.287 25.3209 140.568 24.4484C140.692 24.3549 140.755 24.2303 140.724 24.0745C140.505 23.0462 139.913 22.0802 138.885 21.7063C138.044 21.4258 137.109 21.6751 136.548 22.3918C135.956 23.1085 135.862 24.1057 136.361 24.9158ZM137.14 23.6694C137.14 23.6383 137.14 23.6071 137.14 23.6071C137.14 23.5759 137.14 23.4824 137.14 23.5136C137.161 23.4305 137.182 23.3474 137.202 23.2643C137.223 23.2228 137.244 23.1916 137.265 23.1708C137.306 23.1085 137.348 23.0462 137.389 22.9839C137.389 22.9527 137.389 22.9527 137.42 22.9527C137.441 22.9319 137.462 22.9008 137.483 22.8592C137.607 22.7346 137.607 22.7346 137.763 22.6411C137.857 22.6099 137.826 22.61 137.919 22.5788C137.95 22.5788 138.044 22.5476 138.075 22.5476C138.355 22.5165 138.667 22.5788 138.916 22.7346C139.352 22.9527 139.633 23.3578 139.82 23.7941C139.758 23.8148 139.706 23.8668 139.664 23.9499C139.643 24.033 139.602 24.1057 139.539 24.168L139.508 24.2303C139.467 24.2718 139.436 24.303 139.415 24.3238C139.352 24.3861 139.29 24.4484 139.228 24.5107C139.228 24.5107 139.197 24.5419 139.165 24.5731C139.134 24.5731 139.134 24.6042 139.134 24.6042C139.051 24.6458 138.979 24.6873 138.916 24.7289C138.875 24.7496 138.833 24.7704 138.792 24.7912C138.771 24.7912 138.76 24.7912 138.76 24.7912C138.677 24.812 138.594 24.8327 138.511 24.8535C138.49 24.8535 138.48 24.8535 138.48 24.8535C138.48 24.8535 138.47 24.8535 138.449 24.8535C138.428 24.8535 138.397 24.8535 138.355 24.8535C138.293 24.8535 138.241 24.8535 138.199 24.8535C138.199 24.8535 138.189 24.8535 138.168 24.8535C138.106 24.8327 138.044 24.812 137.981 24.7912C137.981 24.7912 137.95 24.7912 137.919 24.7912C137.888 24.7912 137.888 24.76 137.857 24.76C137.794 24.7393 137.742 24.7081 137.701 24.6665C137.67 24.6665 137.607 24.6042 137.607 24.6042C137.576 24.5731 137.576 24.5731 137.545 24.5731C137.504 24.5107 137.462 24.4588 137.42 24.4173C137.389 24.4173 137.389 24.3861 137.358 24.3861C137.358 24.3549 137.327 24.3238 137.327 24.3238C137.285 24.2615 137.244 24.1991 137.202 24.1368C137.202 24.1161 137.202 24.1057 137.202 24.1057C137.202 24.1057 137.202 24.0953 137.202 24.0745C137.182 24.0537 137.171 24.0226 137.171 23.981C137.15 23.9602 137.14 23.9291 137.14 23.8875C137.14 23.8875 137.14 23.8564 137.14 23.8252C137.14 23.7941 137.14 23.7629 137.14 23.7629C137.119 23.7213 137.119 23.6902 137.14 23.6694V23.6694Z" fill="#CFE1EF"/>
<path d="M133.435 28.6259C133.809 28.9999 134.214 29.3115 134.619 29.6542C135.014 29.9866 135.419 30.319 135.834 30.6514C136.021 30.8072 136.27 30.8072 136.457 30.6514C136.613 30.4956 136.613 30.184 136.457 30.0282C135.647 29.2803 134.868 28.5324 133.996 27.8781C133.809 27.7534 133.528 27.8469 133.404 28.0027C133.248 28.1897 133.279 28.4701 133.435 28.6259Z" fill="#CFE1EF"/>
<path d="M124.053 26.0059C125.05 26.4422 126.047 26.8161 126.982 27.3147C127.896 27.7925 128.779 28.3118 129.631 28.8727C131.407 30.0568 133.027 31.3967 134.492 32.8924C134.866 33.2975 135.458 32.7055 135.084 32.3004C133.651 30.7112 131.999 29.2467 130.223 28.0314C129.309 27.4082 128.364 26.8369 127.387 26.3176C126.452 25.819 125.486 25.3204 124.458 24.9776C123.897 24.7907 123.492 25.7255 124.053 26.0059Z" fill="#CFE1EF"/>
<path fill-rule="evenodd" clip-rule="evenodd" d="M157.492 55.3011C157.869 54.9241 158.476 54.9087 158.871 55.266L161.076 57.2575C161.286 57.4473 161.406 57.7172 161.406 58.0004V64.274C161.406 64.8269 160.958 65.2751 160.405 65.2751H156.245C155.692 65.2751 155.244 64.8269 155.244 64.274V57.9642C155.244 57.6987 155.349 57.4441 155.537 57.2563L157.492 55.3011ZM159.14 54.9689C158.586 54.4686 157.737 54.4902 157.209 55.0179L155.254 56.9732C154.991 57.236 154.844 57.5925 154.844 57.9642V64.274C154.844 65.048 155.471 65.6755 156.245 65.6755H160.405C161.179 65.6755 161.807 65.048 161.807 64.274V58.0004C161.807 57.6039 161.639 57.226 161.345 56.9603L159.14 54.9689Z" fill="#585161"/>
<path d="M157.38 57.466C157.38 57.9575 157.779 58.3559 158.27 58.3559C158.762 58.3559 159.16 57.9575 159.16 57.466C159.16 56.9746 158.762 56.5762 158.27 56.5762C157.779 56.5762 157.38 56.9746 157.38 57.466Z" fill="#BCB9CE"/>
<path d="M160.495 64.0325C160.495 63.6025 160.147 63.2539 159.716 63.2539H156.824C156.394 63.2539 156.046 63.6025 156.046 64.0325V64.0325C156.046 64.4625 156.394 64.8111 156.824 64.8111H159.716C160.147 64.8111 160.495 64.4625 160.495 64.0325V64.0325Z" fill="#BCB9CE"/>
<path d="M160.495 61.1386C160.495 61.0771 160.445 61.0273 160.384 61.0273H156.157C156.096 61.0273 156.046 61.0771 156.046 61.1386V61.1386C156.046 61.2 156.096 61.2498 156.157 61.2498H160.384C160.445 61.2498 160.495 61.2 160.495 61.1386V61.1386Z" fill="#959498"/>
<path d="M160.495 60.248C160.495 60.1865 160.445 60.1367 160.384 60.1367H156.157C156.096 60.1367 156.046 60.1865 156.046 60.248V60.248C156.046 60.3094 156.096 60.3592 156.157 60.3592H160.384C160.445 60.3592 160.495 60.3094 160.495 60.248V60.248Z" fill="#959498"/>
<path fill-rule="evenodd" clip-rule="evenodd" d="M158.467 56.8625V49.6035H158.066V56.8625H158.467Z" fill="#FFA673"/>
<defs>
<linearGradient id="paint0_linear_4485_20329" x1="196.284" y1="120.773" x2="196.284" y2="240.017" gradientUnits="userSpaceOnUse">
<stop stop-color="#9280C9"/>
<stop offset="1" stop-color="white" stop-opacity="0"/>
</linearGradient>
</defs>
</svg>
