<svg width="16" height="16" viewBox="0 0 16 16" fill="none" xmlns="http://www.w3.org/2000/svg">
<path opacity="0.4" d="M8.05758 14.6668C7.97503 14.6668 7.89248 14.6479 7.81798 14.6093L5.41725 13.3666C4.73602 13.0136 4.20312 12.6174 3.787 12.1559C2.87624 11.1465 2.36952 9.85083 2.36147 8.50677L2.33328 4.083C2.32992 3.57244 2.65946 3.11418 3.15209 2.9416L7.56025 1.40469C7.822 1.31121 8.11396 1.3099 8.38041 1.40011L12.8053 2.88472C13.3007 3.05012 13.6356 3.50511 13.6383 4.01502L13.6664 8.44205C13.6752 9.78415 13.1859 11.0851 12.2892 12.1055C11.8778 12.5736 11.3496 12.9756 10.6751 13.3352L8.29584 14.606C8.22201 14.6459 8.14013 14.6662 8.05758 14.6668Z" fill="white"/>
<path d="M7.54592 9.54728C7.41705 9.54793 7.28819 9.50152 7.18886 9.40607L5.91098 8.17707C5.71366 7.98618 5.71164 7.67631 5.90695 7.48412C6.10226 7.29127 6.42106 7.28931 6.61905 7.47954L7.53853 8.36338L9.78356 6.14986C9.97953 5.95701 10.2983 5.95505 10.4957 6.14528C10.6936 6.33617 10.6957 6.64669 10.5004 6.83823L7.90096 9.40149C7.80297 9.49825 7.67478 9.54662 7.54592 9.54728Z" fill="white"/>
</svg>
