<svg width="272" height="184" viewBox="0 0 272 184" fill="none" xmlns="http://www.w3.org/2000/svg">
<rect width="271" height="183" transform="translate(0.5 0.116211)" fill="white"/>
<path d="M138.538 153.789H119.986H101.433L103.659 138.349H140.765L138.538 153.789Z" fill="#6B4ABC"/>
<path d="M101.433 153.789L103.659 138.349H95.2465L90.8264 156.436V161.289H120.437C124.414 160.848 124.414 153.789 119.986 153.789H101.433Z" fill="#5F43A4"/>
<path d="M120.437 161.289H155.348C159.768 161.289 159.768 154.231 155.348 153.789H138.538H119.986C124.414 153.789 124.414 160.848 120.437 161.289Z" fill="#7E5DCE"/>
<path d="M196.117 45.4943C195.493 39.8408 190.716 35.562 185.028 35.562H46.2734C39.6272 35.562 34.455 41.3365 35.1843 47.9426L44.3115 130.623C44.9356 136.276 49.7128 140.555 55.4006 140.555H194.156C200.802 140.555 205.974 134.781 205.245 128.175L196.117 45.4943Z" fill="#57438A"/>
<path d="M197.885 43.7299C197.261 38.0764 192.484 33.7976 186.796 33.7976H48.041C41.3948 33.7976 36.2226 39.5721 36.9519 46.1782L46.0791 128.859C46.7032 134.512 51.4804 138.791 57.1682 138.791H195.923C202.569 138.791 207.741 133.016 207.012 126.41L197.885 43.7299Z" fill="url(#paint0_linear_27319_77205)"/>
<path d="M191.209 38.2086H42.2145L53.1981 134.379H202.192L191.209 38.2086Z" fill="url(#paint1_linear_27319_77205)"/>
<g opacity="0.8">
<path d="M225.101 42.7682H179.14V61.537H213.088L220.4 66.7506V61.537H225.101V42.7682Z" fill="#B3EDFF"/>
<ellipse cx="5.74506" cy="5.73492" rx="5.74506" ry="5.73492" transform="matrix(-1 0 0 1 221.967 45.896)" fill="white"/>
<rect width="21.9357" height="2.08543" rx="1.04271" transform="matrix(-1 0 0 1 209.433 46.9385)" fill="white"/>
<rect width="27.1585" height="2.08543" rx="1.04271" transform="matrix(-1 0 0 1 209.433 51.1096)" fill="white"/>
<rect width="27.1585" height="2.08543" rx="1.04271" transform="matrix(-1 0 0 1 209.433 55.2804)" fill="white"/>
</g>
<g opacity="0.8">
<path d="M187.537 75.6279H233.498V94.3968H199.55L192.238 99.6103V94.3968H187.537V75.6279Z" fill="#B3EDFF"/>
<ellipse cx="196.417" cy="84.4907" rx="5.74506" ry="5.73492" fill="white"/>
<rect x="203.206" y="79.798" width="21.9357" height="2.08543" rx="1.04271" fill="white"/>
<rect x="203.206" y="83.969" width="27.1585" height="2.08543" rx="1.04271" fill="white"/>
<rect x="203.206" y="88.14" width="27.1585" height="2.08543" rx="1.04271" fill="white"/>
</g>
<path opacity="0.5" d="M160.308 97.3459V103.977L132.353 104.253V113.371H124.88" stroke="#7E54F1" stroke-width="2.81892" stroke-linecap="round" stroke-linejoin="round"/>
<path d="M158.771 82.4881C158.771 82.1485 158.495 81.8733 158.156 81.8733C157.816 81.8733 157.541 82.1485 157.541 82.4881V87.6011H158.771V82.4881Z" fill="white"/>
<path d="M162.732 82.4881C162.732 82.1485 162.457 81.8733 162.118 81.8733C161.778 81.8733 161.503 82.1485 161.503 82.4881V87.6011H162.732V82.4881Z" fill="white"/>
<path d="M158.206 91.4196V95.2373C158.206 95.263 158.208 95.2887 158.212 95.314L158.661 97.9877C158.698 98.2111 158.892 98.3748 159.118 98.3748H161.17C161.392 98.3748 161.582 98.2186 161.625 98.0016L162.159 95.3208C162.165 95.291 162.168 95.2606 162.168 95.2302V91.4196H158.206Z" fill="url(#paint2_linear_27319_77205)"/>
<path d="M156.156 86.5101V89.7246C156.156 90.1172 156.281 90.4997 156.512 90.817L156.693 91.0661C157.043 91.5454 157.6 91.8289 158.193 91.8289H162.344C162.883 91.8289 163.395 91.5948 163.747 91.1875L164.038 90.8514C164.329 90.5142 164.49 90.0834 164.49 89.6376V86.5101H156.156Z" fill="url(#paint3_linear_27319_77205)"/>
<rect width="2.18204" height="6.55769" rx="1.09102" transform="matrix(0 1 1 0 156.976 92.3726)" fill="#886ED1"/>
<path d="M160.802 86.5101H159.709V89.3741H160.802V86.5101Z" fill="white"/>
<path d="M117.088 122.635H69.6216C65.47 122.635 62.1045 119.269 62.1045 115.118V105.416C62.1045 101.264 65.47 97.8986 69.6216 97.8986H120.099C122.587 97.8986 124.605 99.9122 124.605 102.396V115.118C124.605 119.269 121.239 122.635 117.088 122.635Z" stroke="#FFCC00" stroke-width="1.87928"/>
<path d="M117.088 122.635H69.6216C65.47 122.635 62.1045 119.269 62.1045 115.118V105.416C62.1045 101.264 65.47 97.8986 69.6216 97.8986H120.099C122.587 97.8986 124.605 99.9122 124.605 102.396V115.118C124.605 119.269 121.239 122.635 117.088 122.635Z" fill="white" stroke="#B69BFF" stroke-width="2.3491"/>
<g clip-path="url(#clip0_27319_77205)">
<path d="M96.3579 107.708L94.3732 112.739H94.9638L95.5816 111.146H97.5935L98.2182 112.739H98.8233L96.8489 107.708H96.3579ZM95.788 110.621L96.3786 109.069C96.4646 108.832 96.5368 108.591 96.5948 108.346C96.6748 108.631 96.7526 108.872 96.8282 109.069L97.4118 110.621H95.788ZM87.7928 107.729H87.208V112.739H90.0064V112.211H87.7917L87.7928 107.729ZM91.0065 112.739H93.8048V112.218H91.5891V110.375H93.6697V109.86H91.5891V108.245H93.8034V107.729H91.005L91.0065 112.739ZM119.368 110.113V110.634H120.491V112.177C120.157 112.257 119.816 112.297 119.473 112.297C118.832 112.297 118.346 112.122 118.015 111.772C117.685 111.422 117.519 110.909 117.519 110.233C117.519 109.589 117.691 109.085 118.034 108.722C118.378 108.359 118.855 108.177 119.466 108.178C119.885 108.178 120.321 108.274 120.774 108.466L121.001 107.952C120.527 107.753 120.018 107.652 119.504 107.657C118.976 107.657 118.514 107.76 118.12 107.967C117.733 108.166 117.416 108.48 117.213 108.865C117.003 109.257 116.899 109.713 116.899 110.234C116.899 111.048 117.11 111.68 117.533 112.131C117.957 112.582 118.548 112.807 119.308 112.808C119.628 112.811 119.947 112.789 120.263 112.743C120.538 112.7 120.808 112.635 121.073 112.551V110.113H119.368ZM115.086 110.604C115.082 110.748 115.088 110.987 115.104 111.322C115.12 111.657 115.13 111.855 115.135 111.917H115.107L112.371 107.729H111.712V112.739H112.251V109.891C112.251 109.48 112.232 109.028 112.196 108.534H112.223L114.967 112.739H115.633V107.729H115.088L115.086 110.604ZM109.604 112.739H110.187V107.729H109.604V112.739ZM107.53 110.604C107.525 110.748 107.531 110.987 107.547 111.322C107.563 111.657 107.573 111.855 107.578 111.917H107.551L104.814 107.729H104.155V112.739H104.694V109.891C104.694 109.48 104.676 109.028 104.639 108.534H104.666L107.41 112.739H108.076V107.729H107.531L107.53 110.604ZM102.844 109.144C102.844 108.671 102.696 108.317 102.402 108.082C102.108 107.847 101.653 107.729 101.037 107.729H99.6592V112.739H100.244V110.655H101.291L102.507 112.739H103.197L101.834 110.488C102.507 110.255 102.844 109.807 102.844 109.144ZM101.044 110.155H100.245V108.239H101.004C101.436 108.239 101.75 108.312 101.946 108.457C102.142 108.602 102.24 108.841 102.24 109.175C102.24 109.502 102.143 109.747 101.951 109.91C101.759 110.074 101.456 110.155 101.044 110.155Z" fill="url(#paint4_linear_27319_77205)"/>
<path d="M84.6146 115.435C84.5773 115.564 84.5471 115.696 84.5241 115.83H84.5165C84.4896 115.706 84.4554 115.578 84.4111 115.431L84.2272 114.821H84.0455L83.8514 115.444C83.8121 115.575 83.7729 115.706 83.746 115.83H83.7384C83.7166 115.704 83.6846 115.578 83.6501 115.442L83.4931 114.823H83.2725L83.6304 116.041H83.8267L84.0182 115.461C84.0621 115.329 84.0986 115.194 84.1272 115.058H84.1323C84.1618 115.201 84.1959 115.322 84.2377 115.457L84.4194 116.037H84.6146L84.9973 114.819H84.7839L84.6146 115.435ZM87.1538 115.435C87.1164 115.564 87.0861 115.696 87.063 115.83H87.0557C87.0288 115.706 86.9943 115.578 86.9503 115.431L86.766 114.821H86.5843L86.3906 115.443C86.3514 115.574 86.3121 115.705 86.2849 115.828H86.2776C86.2554 115.702 86.2238 115.576 86.1893 115.44L86.0319 114.823H85.811L86.1693 116.041H86.3655L86.5571 115.461C86.6009 115.329 86.6372 115.194 86.6661 115.058H86.6708C86.7003 115.201 86.7348 115.322 86.7762 115.457L86.9579 116.037H87.1542L87.5369 114.819H87.3235L87.1538 115.435ZM97.3071 114.793C97.2218 114.79 97.1373 114.811 97.0628 114.853C96.9884 114.894 96.9269 114.956 96.8852 115.03H96.8801L96.8703 114.821H96.6766C96.6817 114.937 96.6864 115.063 96.6864 115.22V116.539H96.8983V115.877H96.9033C96.9422 115.939 96.9964 115.988 97.0605 116.022C97.1247 116.055 97.1966 116.072 97.2689 116.069C97.5484 116.069 97.8086 115.851 97.8086 115.416C97.8101 115.044 97.5942 114.793 97.3071 114.793ZM97.2344 115.893C97.1591 115.893 97.0863 115.867 97.0275 115.82C96.9688 115.773 96.9276 115.708 96.9106 115.634C96.9048 115.605 96.9015 115.574 96.9008 115.544V115.338C96.902 115.307 96.907 115.276 96.9157 115.247C96.9317 115.171 96.9726 115.103 97.0319 115.054C97.0912 115.004 97.1654 114.975 97.2428 114.973C97.4706 114.973 97.596 115.182 97.596 115.426C97.5942 115.704 97.4616 115.895 97.2333 115.895L97.2344 115.893ZM90.945 115.75C90.9248 115.75 90.9049 115.755 90.8865 115.763C90.868 115.771 90.8515 115.783 90.8378 115.798C90.8242 115.813 90.8138 115.83 90.8072 115.849C90.8006 115.868 90.7981 115.889 90.7997 115.909C90.7997 115.999 90.8585 116.067 90.945 116.067C91.0315 116.067 91.0926 115.999 91.0926 115.909C91.0926 115.818 91.0297 115.752 90.9439 115.752L90.945 115.75ZM89.6941 115.433C89.6567 115.563 89.6264 115.695 89.6033 115.828H89.5935C89.5662 115.705 89.532 115.576 89.4877 115.429L89.3038 114.82H89.1221L88.9284 115.441C88.8892 115.572 88.8499 115.703 88.823 115.827H88.8157C88.7936 115.701 88.7616 115.575 88.7274 115.439L88.5704 114.82H88.3495L88.7078 116.038H88.9041L89.0952 115.458C89.1392 115.326 89.1756 115.191 89.2042 115.055H89.2093C89.2388 115.198 89.2729 115.319 89.3147 115.454L89.4964 116.035H89.693L90.0757 114.816H89.862L89.6941 115.433ZM95.579 114.34C95.5609 114.34 95.543 114.344 95.5262 114.351C95.5095 114.358 95.4944 114.368 95.4818 114.381C95.4692 114.394 95.4593 114.409 95.4529 114.426C95.4464 114.443 95.4435 114.461 95.4442 114.479C95.4452 114.505 95.4539 114.53 95.4691 114.552C95.4843 114.573 95.5055 114.589 95.5299 114.599C95.5544 114.608 95.581 114.61 95.6066 114.604C95.6322 114.599 95.6555 114.586 95.6738 114.567C95.692 114.548 95.7044 114.524 95.7092 114.499C95.7141 114.473 95.7113 114.447 95.7013 114.422C95.6912 114.398 95.6742 114.378 95.6525 114.363C95.6308 114.349 95.6052 114.341 95.579 114.34ZM92.8196 115.005H92.8148C92.7632 114.904 92.6506 114.793 92.4445 114.793C92.1719 114.793 91.9096 115.027 91.9096 115.44C91.9096 115.778 92.1207 116.035 92.4151 116.035C92.4902 116.037 92.5648 116.02 92.631 115.985C92.6972 115.949 92.7526 115.896 92.7916 115.832H92.7967V115.968C92.7967 116.275 92.6346 116.393 92.414 116.393C92.2911 116.395 92.1703 116.362 92.0655 116.298L92.0117 116.466C92.1073 116.532 92.2661 116.567 92.4064 116.567C92.5561 116.567 92.7229 116.531 92.8381 116.422C92.9533 116.313 93.0075 116.145 93.0075 115.866V115.156C93.0075 115.008 93.0125 114.91 93.0173 114.822H92.8279L92.8196 115.005ZM92.7952 115.521C92.7954 115.561 92.7896 115.601 92.7781 115.639C92.7589 115.704 92.7195 115.761 92.6656 115.802C92.6118 115.842 92.5462 115.865 92.4787 115.866C92.2457 115.866 92.128 115.667 92.128 115.428C92.128 115.146 92.2733 114.967 92.4812 114.967C92.5504 114.967 92.6175 114.99 92.6721 115.033C92.7267 115.075 92.7656 115.134 92.7829 115.201C92.7922 115.234 92.7964 115.268 92.7952 115.302V115.521ZM95.4711 116.04H95.687V114.823H95.47L95.4711 116.04ZM98.7056 115.44H99.3117V115.277H98.7056V115.44ZM94.2089 115.062H94.1991L94.1918 114.823H94.0029C94.0101 114.936 94.0127 115.059 94.0127 115.203V116.041H94.226V115.392C94.2266 115.357 94.2298 115.322 94.2358 115.288C94.2653 115.122 94.3732 115.004 94.5266 115.004C94.551 115.004 94.5754 115.006 94.5992 115.012V114.803C94.5787 114.797 94.5574 114.793 94.536 114.793C94.3906 114.793 94.262 114.898 94.2089 115.062ZM115.629 114.975C115.716 114.972 115.803 114.991 115.879 115.033L115.928 114.862C115.835 114.819 115.733 114.797 115.629 114.799C115.242 114.799 114.992 115.071 114.992 115.445C114.992 115.82 115.225 116.067 115.583 116.067C115.7 116.07 115.817 116.046 115.924 115.997L115.887 115.831C115.805 115.871 115.714 115.891 115.622 115.891C115.387 115.891 115.21 115.717 115.21 115.436C115.21 115.18 115.357 114.975 115.629 114.975ZM114.02 115.753C114 115.753 113.98 115.757 113.961 115.765C113.943 115.774 113.926 115.786 113.913 115.8C113.899 115.815 113.889 115.833 113.882 115.852C113.875 115.871 113.873 115.891 113.874 115.911C113.874 116.002 113.933 116.07 114.02 116.07C114.106 116.07 114.165 116.002 114.165 115.911C114.165 115.821 114.106 115.752 114.02 115.752V115.753ZM108.77 114.343C108.752 114.343 108.734 114.346 108.717 114.353C108.701 114.36 108.685 114.37 108.673 114.383C108.66 114.396 108.65 114.412 108.644 114.428C108.637 114.445 108.634 114.463 108.635 114.481C108.636 114.508 108.645 114.533 108.66 114.554C108.675 114.575 108.696 114.592 108.721 114.601C108.745 114.61 108.772 114.612 108.797 114.607C108.823 114.601 108.846 114.588 108.864 114.57C108.883 114.551 108.895 114.527 108.9 114.502C108.905 114.476 108.902 114.449 108.892 114.425C108.882 114.401 108.865 114.38 108.844 114.366C108.822 114.351 108.796 114.343 108.77 114.343ZM110.47 114.793C110.39 114.792 110.311 114.813 110.241 114.853C110.172 114.893 110.115 114.952 110.077 115.023H110.072L110.06 114.821H109.869C109.876 114.922 109.879 115.025 109.879 115.151V116.04H110.094V115.309C110.094 115.274 110.099 115.239 110.109 115.205C110.127 115.141 110.164 115.085 110.217 115.044C110.269 115.003 110.333 114.98 110.4 114.979C110.603 114.979 110.674 115.142 110.674 115.339V116.041H110.89V115.313C110.89 114.896 110.636 114.793 110.47 114.793ZM112.721 115.005H112.716C112.665 114.904 112.552 114.793 112.346 114.793C112.073 114.793 111.811 115.027 111.811 115.44C111.811 115.778 112.022 116.035 112.316 116.035C112.392 116.037 112.466 116.02 112.533 115.984C112.599 115.948 112.655 115.895 112.694 115.831H112.699V115.966C112.699 116.274 112.537 116.392 112.316 116.392C112.193 116.393 112.072 116.36 111.968 116.296L111.914 116.465C112.009 116.53 112.166 116.566 112.309 116.566C112.458 116.566 112.625 116.529 112.741 116.421C112.856 116.312 112.91 116.144 112.91 115.864V115.156C112.91 115.008 112.915 114.91 112.92 114.822H112.731L112.721 115.005ZM112.696 115.521C112.697 115.561 112.691 115.601 112.679 115.639C112.66 115.704 112.621 115.761 112.567 115.802C112.513 115.843 112.447 115.865 112.38 115.866C112.147 115.866 112.029 115.667 112.029 115.428C112.029 115.146 112.176 114.967 112.382 114.967C112.451 114.967 112.519 114.99 112.573 115.033C112.628 115.075 112.667 115.134 112.684 115.201C112.693 115.234 112.698 115.268 112.696 115.302V115.521ZM117.298 114.795C116.97 114.795 116.709 115.034 116.709 115.442C116.709 115.827 116.957 116.069 117.278 116.069C117.565 116.069 117.869 115.873 117.869 115.422C117.868 115.049 117.638 114.793 117.298 114.793V114.795ZM117.288 115.903C117.077 115.903 116.927 115.702 116.927 115.435C116.927 115.203 117.036 114.961 117.293 114.961C117.549 114.961 117.648 115.223 117.648 115.43C117.65 115.704 117.494 115.903 117.286 115.903L117.288 115.903ZM100.252 116.041H100.468V114.254H100.252V116.041ZM120.104 114.793C120.009 114.79 119.916 114.82 119.842 114.879C119.787 114.922 119.742 114.976 119.71 115.038H119.704C119.682 114.967 119.637 114.905 119.576 114.861C119.516 114.817 119.443 114.793 119.368 114.793C119.172 114.793 119.062 114.902 118.995 115.018H118.988L118.978 114.821H118.789C118.797 114.922 118.799 115.025 118.799 115.151V116.04H119.01V115.306C119.01 115.269 119.015 115.232 119.027 115.197C119.062 115.087 119.16 114.976 119.295 114.976C119.459 114.976 119.543 115.117 119.543 115.311V116.041H119.754V115.288C119.754 115.251 119.759 115.213 119.771 115.178C119.807 115.069 119.903 114.976 120.025 114.976C120.199 114.976 120.283 115.117 120.283 115.351V116.041H120.494V115.324C120.495 114.902 120.261 114.793 120.104 114.793ZM104.2 115.292C104.2 115.048 104.111 114.793 103.748 114.793C103.611 114.792 103.475 114.83 103.358 114.902L103.408 115.047C103.5 114.989 103.607 114.957 103.717 114.957C103.96 114.957 103.986 115.138 103.986 115.239V115.264C103.528 115.261 103.273 115.423 103.273 115.717C103.273 115.893 103.395 116.067 103.636 116.067C103.707 116.068 103.777 116.052 103.84 116.021C103.903 115.989 103.958 115.943 104 115.885H104.007L104.024 116.039H104.22C104.206 115.943 104.199 115.845 104.2 115.747L104.2 115.292ZM103.992 115.629C103.991 115.653 103.987 115.677 103.979 115.7C103.959 115.76 103.921 115.812 103.869 115.849C103.818 115.886 103.755 115.905 103.692 115.904C103.583 115.904 103.489 115.836 103.489 115.692C103.489 115.456 103.756 115.413 103.992 115.418V115.629ZM101.96 114.795C101.614 114.795 101.403 115.085 101.403 115.452C101.403 115.819 101.621 116.066 101.987 116.066C102.122 116.07 102.257 116.044 102.382 115.991L102.346 115.832C102.243 115.877 102.131 115.898 102.019 115.895C101.803 115.895 101.616 115.772 101.611 115.472H102.447C102.452 115.438 102.454 115.403 102.455 115.369C102.451 115.145 102.35 114.793 101.96 114.793V114.795ZM101.612 115.313C101.629 115.16 101.725 114.953 101.943 114.953C102.186 114.953 102.245 115.171 102.242 115.313H101.612ZM107.248 114.793C107.168 114.792 107.089 114.812 107.019 114.853C106.95 114.893 106.893 114.952 106.855 115.023H106.851L106.838 114.821H106.647C106.654 114.922 106.657 115.025 106.657 115.151V116.04H106.873V115.309C106.872 115.274 106.877 115.239 106.887 115.205C106.905 115.141 106.943 115.085 106.995 115.044C107.047 115.003 107.112 114.98 107.178 114.979C107.382 114.979 107.453 115.142 107.453 115.339V116.041H107.669V115.313C107.668 114.896 107.412 114.793 107.248 114.793ZM105.39 115.06H105.38L105.373 114.821H105.184C105.192 114.935 105.194 115.058 105.194 115.201V116.04H105.407V115.39C105.408 115.356 105.411 115.321 105.417 115.287C105.447 115.121 105.555 115.002 105.708 115.002C105.732 115.002 105.757 115.005 105.781 115.01V114.801C105.761 114.796 105.74 114.793 105.719 114.793C105.574 114.793 105.443 114.898 105.39 115.062V115.06ZM108.66 116.04H108.876V114.823H108.66V116.04Z" fill="url(#paint5_linear_27319_77205)"/>
<path d="M80.6937 117.445H66.4795V103.148H66.5038V117.42H80.6693V114.487H80.6937V117.445Z" fill="url(#paint6_linear_27319_77205)"/>
<path d="M69.7299 108.088C69.9804 108.088 70.1835 107.878 70.1835 107.619C70.1835 107.36 69.9804 107.15 69.7299 107.15C69.4794 107.15 69.2764 107.36 69.2764 107.619C69.2764 107.878 69.4794 108.088 69.7299 108.088Z" fill="#4783BC"/>
<path d="M84.989 108.183C84.6826 107.932 84.2222 107.807 83.608 107.806H82.1907V112.72H82.9953V110.881H83.5074C84.1288 110.881 84.6079 110.745 84.9447 110.471C85.2815 110.198 85.4499 109.805 85.4499 109.292C85.4499 108.803 85.2963 108.434 84.989 108.183ZM84.3309 109.991C84.1371 110.134 83.8342 110.206 83.4223 110.206H82.9942V108.478H83.5532C83.919 108.478 84.1884 108.548 84.3614 108.687C84.5344 108.826 84.6208 109.036 84.6205 109.318C84.6205 109.624 84.524 109.848 84.3309 109.991ZM72.0439 108.424C72.4591 108.428 72.8684 108.522 73.2432 108.7L73.5263 108.031C73.0646 107.834 72.5673 107.733 72.065 107.736C71.2655 107.736 70.6381 107.959 70.1829 108.406C69.7276 108.853 69.4999 109.472 69.4996 110.263C69.4996 111.065 69.7016 111.686 70.1054 112.127C70.5093 112.567 71.084 112.787 71.8295 112.787C72.1249 112.788 72.4199 112.768 72.7123 112.726C73.0021 112.682 73.2877 112.613 73.566 112.521V110.054H71.7547V110.744H72.7748V112.011C72.5005 112.073 72.2202 112.106 71.9389 112.109C71.4229 112.109 71.0273 111.952 70.7523 111.639C70.4773 111.327 70.3401 110.87 70.3406 110.27C70.3406 109.698 70.4932 109.248 70.7985 108.919C71.1038 108.589 71.5189 108.424 72.0439 108.424ZM79.7754 112.72H80.58V107.806H79.7754V112.72ZM78.317 109.237C78.317 108.758 78.1643 108.4 77.8591 108.162C77.5538 107.924 77.0835 107.805 76.4483 107.806H75.0578V112.72H75.8624V110.757H76.6572L77.8354 112.72H78.7513L77.3608 110.545C77.9983 110.286 78.317 109.85 78.317 109.238V109.237ZM77.2365 109.883C77.0684 110.022 76.7968 110.091 76.4217 110.091H75.8624V108.485H76.3945C76.7603 108.485 77.0341 108.546 77.2158 108.666C77.3975 108.787 77.4885 108.987 77.4887 109.265C77.4887 109.538 77.4047 109.744 77.2365 109.883ZM80.801 106.362C80.8009 106.234 80.7576 106.109 80.6781 106.008V105.978V103.148H66.4912V117.433H80.6796V114.662V114.547C80.7571 114.447 80.7993 114.324 80.7995 114.197C80.7957 114.04 80.7306 113.891 80.6182 113.782C80.5057 113.672 80.3549 113.611 80.1979 113.611C80.0408 113.611 79.89 113.672 79.7776 113.782C79.6652 113.891 79.6001 114.04 79.5962 114.197C79.5964 114.325 79.6396 114.45 79.7191 114.551V114.593V116.496H67.4517V104.085H79.7191V105.897H79.7172V106.012C79.6402 106.113 79.5985 106.236 79.5988 106.362C79.6026 106.519 79.6677 106.668 79.7801 106.778C79.8925 106.887 80.0434 106.948 80.2004 106.948C80.3575 106.948 80.5083 106.887 80.6207 106.778C80.7331 106.668 80.7982 106.519 80.8021 106.362H80.801ZM80.6443 114.591V114.593H80.6421L80.6443 114.591ZM80.1991 113.814C80.2746 113.816 80.348 113.84 80.4099 113.883C80.4719 113.926 80.5197 113.986 80.5474 114.056C80.5751 114.127 80.5815 114.203 80.5657 114.277C80.5499 114.351 80.5127 114.418 80.4587 114.471C80.4047 114.524 80.3363 114.559 80.2621 114.573C80.1879 114.587 80.1112 114.579 80.0416 114.55C79.972 114.521 79.9126 114.472 79.8708 114.409C79.829 114.346 79.8067 114.272 79.8066 114.197C79.8072 114.146 79.8178 114.096 79.8378 114.049C79.8579 114.002 79.887 113.96 79.9234 113.924C79.9598 113.889 80.003 113.861 80.0503 113.842C80.0976 113.823 80.1482 113.813 80.1991 113.814ZM80.1991 106.745C80.1236 106.743 80.0503 106.72 79.9883 106.676C79.9264 106.633 79.8785 106.573 79.8508 106.503C79.8231 106.433 79.8168 106.356 79.8326 106.282C79.8484 106.208 79.8856 106.141 79.9397 106.088C79.9937 106.035 80.0621 106 80.1364 105.986C80.2106 105.972 80.2873 105.98 80.3569 106.009C80.4265 106.038 80.4859 106.088 80.5277 106.15C80.5694 106.213 80.5917 106.287 80.5916 106.362C80.5904 106.465 80.5483 106.563 80.4747 106.635C80.4011 106.707 80.302 106.746 80.1991 106.745Z" fill="url(#paint7_linear_27319_77205)"/>
</g>
<path opacity="0.5" d="M160.034 67.7823V47.06L104.123 46.2311L104.123 53.4148" stroke="#7E54F1" stroke-width="2.81892" stroke-linecap="round" stroke-linejoin="round"/>
<path d="M157.723 74.4612L158.064 72.533V70.6434C158.064 70.6177 158.066 70.5921 158.071 70.5667L158.519 67.893C158.556 67.6696 158.75 67.5059 158.976 67.5059H161.029C161.25 67.5059 161.44 67.6622 161.483 67.8792L162.017 70.56C162.023 70.5898 162.026 70.6201 162.026 70.6505V72.533L162.504 74.4612H157.723Z" fill="url(#paint8_linear_27319_77205)"/>
<path d="M155.605 80.0527V76.4448C155.605 76.0533 155.729 75.6719 155.959 75.3551L156.25 74.954C156.599 74.4731 157.158 74.1885 157.752 74.1885H162.483C163.023 74.1885 163.536 74.4236 163.888 74.8325L164.309 75.3205C164.599 75.6573 164.759 76.0871 164.759 76.5317V80.0527H155.605Z" fill="url(#paint9_linear_27319_77205)"/>
<rect x="156.835" y="73.5066" width="2.18204" height="6.55769" rx="1.09102" transform="rotate(-90 156.835 73.5066)" fill="#886ED1"/>
<path d="M129.766 78.4273H82.3003C78.1487 78.4273 74.7832 75.0618 74.7832 70.9102V61.2082C74.7832 57.0566 78.1487 53.691 82.3003 53.691H132.778C135.266 53.691 137.283 55.7046 137.283 58.1885V70.9102C137.283 75.0618 133.918 78.4273 129.766 78.4273Z" stroke="#FFCC00" stroke-width="1.87928"/>
<path d="M129.766 78.4273H82.3003C78.1487 78.4273 74.7832 75.0618 74.7832 70.9102V61.2082C74.7832 57.0566 78.1487 53.691 82.3003 53.691H132.778C135.266 53.691 137.283 55.7046 137.283 58.1885V70.9102C137.283 75.0618 133.918 78.4273 129.766 78.4273Z" fill="white" stroke="#B69BFF" stroke-width="2.3491"/>
<path d="M78.1064 68.0271C78.1351 68.7385 78.5705 69.3756 79.2344 69.6782C78.7825 68.6213 78.7379 67.4939 79.1005 66.296C78.4618 66.6475 78.0786 67.315 78.1064 68.0271Z" fill="white"/>
<path fill-rule="evenodd" clip-rule="evenodd" d="M79.3608 69.9609C79.4006 69.9609 79.4387 69.9456 79.4683 69.9158C79.5149 69.8681 79.5293 69.796 79.5048 69.7329C79.0796 68.6436 79.0372 67.4641 79.3794 66.227C79.3972 66.1622 79.376 66.0928 79.3269 66.0504C79.2769 66.009 79.2083 66.0036 79.1533 66.036C78.4774 66.4442 78.0768 67.211 78.1064 68.0372C78.136 68.8634 78.5917 69.5942 79.2947 69.9456C79.3159 69.9564 79.3388 69.9609 79.3608 69.9609ZM78.972 66.5856C78.7696 67.5651 78.8001 68.5084 79.0618 69.4023C78.6756 69.068 78.4367 68.5706 78.4172 68.0246C78.3969 67.4723 78.6036 66.9515 78.972 66.5856Z" fill="black"/>
<path d="M85.8695 60.3778C82.3609 60.3778 79.5164 63.2167 79.5164 66.7194C79.5164 70.2213 82.3609 73.061 85.8695 73.061C89.3772 73.061 92.2217 70.2213 92.2217 66.7194C92.2217 63.2167 89.3772 60.3778 85.8695 60.3778Z" fill="white"/>
<path d="M85.8305 60.3778C82.2022 60.3778 79.3112 62.9992 79.1324 66.4961L79.0719 66.6529C78.9334 67.0719 78.9536 66.8872 78.9536 67.9553C78.9536 69.0234 79.7697 71.0567 81.3195 71.974L81.4992 72.1038C86.5992 75.0336 92.5049 72.5429 92.5049 66.9961C92.5049 63.3407 89.4587 60.3778 85.8305 60.3778Z" fill="#FF8B13"/>
<path fill-rule="evenodd" clip-rule="evenodd" d="M85.9464 73.6251C87.2249 73.6251 88.4383 73.3013 89.4701 72.6847C91.3985 71.5314 92.5049 69.4591 92.5049 66.9991C92.5049 65.1609 91.8027 63.4275 90.5277 62.1172C89.2595 60.814 87.5905 60.0963 85.8282 60.0963C82.1958 60.0963 79.3203 62.8287 79.1293 66.4562L79.0797 66.5919C79.0785 66.5943 79.0777 66.5966 79.0771 66.599C79.0625 66.6442 79.0506 66.6815 79.0394 66.7152C78.9512 66.984 78.9512 67.008 78.9529 67.621C78.9529 67.7212 78.9529 67.8383 78.9529 67.9758C78.9529 69.1309 79.781 71.2413 81.3352 72.2039L81.5039 72.3316C81.5084 72.3352 81.5133 72.3384 81.5184 72.3414C82.844 73.1354 84.2955 73.578 85.7135 73.6215C85.7911 73.6233 85.8688 73.6245 85.9464 73.6251ZM85.8282 60.4219C89.3365 60.4219 92.1906 63.3725 92.1906 66.9991C92.1906 69.3402 91.1416 71.3096 89.3134 72.4026C87.135 73.7049 84.2115 73.5754 81.6829 72.0637L81.5142 71.9369C81.5107 71.9339 81.5067 71.9312 81.5022 71.9289C80.0636 71.0408 79.2672 69.0279 79.2672 67.9758C79.2672 67.8383 79.2672 67.7203 79.2672 67.6201C79.2655 67.0372 79.2655 67.0372 79.3366 66.8199C79.3477 66.7862 79.3605 66.7489 79.3742 66.7046L79.4316 66.5475C79.4376 66.5316 79.441 66.5147 79.4419 66.4979C79.6114 63.0345 82.3576 60.4219 85.8282 60.4219Z" fill="black"/>
<path d="M85.1635 62.9149C81.7334 62.9149 78.952 65.1865 78.952 67.9886C78.952 70.7899 81.7334 73.0615 85.1635 73.0615C88.5945 73.0615 91.375 70.7899 91.375 67.9886C91.375 65.1865 88.5945 62.9149 85.1635 62.9149Z" fill="white"/>
<path fill-rule="evenodd" clip-rule="evenodd" d="M85.1635 73.0615C88.589 73.0615 91.375 70.785 91.375 67.9882C91.375 65.1905 88.589 62.9149 85.1635 62.9149C81.7389 62.9149 78.952 65.1905 78.952 67.9882C78.952 70.785 81.7389 73.0615 85.1635 73.0615ZM85.1635 63.1734C88.4445 63.1734 91.1134 65.3329 91.1134 67.9882C91.1134 70.6426 88.4445 72.8021 85.1635 72.8021C81.8825 72.8021 79.2136 70.6426 79.2136 67.9882C79.2136 65.3329 81.8825 63.1734 85.1635 63.1734Z" fill="black"/>
<path d="M85.1629 72.4978C82.2002 72.4978 79.7984 70.5419 79.7984 68.1292C79.7984 65.7164 82.2002 63.7605 85.1629 63.7605C88.1256 63.7605 90.5273 65.7164 90.5273 68.1292C90.5273 70.5419 88.1256 72.4978 85.1629 72.4978Z" fill="black"/>
<path fill-rule="evenodd" clip-rule="evenodd" d="M85.1628 72.4978C88.2767 72.4978 90.8096 70.5384 90.8096 68.1296C90.8096 65.7208 88.2767 63.7605 85.1628 63.7605C82.0488 63.7605 79.516 65.7208 79.516 68.1296C79.516 70.5384 82.0488 72.4978 85.1628 72.4978ZM85.1628 64.0729C88.0983 64.0729 90.4869 65.8927 90.4869 68.1296C90.4869 70.3656 88.0983 72.1854 85.1628 72.1854C82.2273 72.1854 79.8386 70.3656 79.8386 68.1296C79.8386 65.8927 82.2273 64.0729 85.1628 64.0729Z" fill="black"/>
<path d="M79.7985 67.7152C79.8159 67.8802 79.8427 68.0462 79.8791 68.2121C79.9953 68.7427 80.2007 69.2317 80.4755 69.6678C80.4114 69.7931 80.3602 69.9202 80.3221 70.0465C81.201 71.4977 83.0474 72.4978 85.1823 72.4978C85.5629 72.4978 85.9339 72.4652 86.2919 72.4051C88.7961 71.7034 90.5228 70.0765 90.2081 68.6447C90.1197 68.2395 89.8761 67.8908 89.5147 67.6101C89.5814 67.0955 89.5624 66.5649 89.4453 66.0335C89.3795 65.7325 89.285 65.4456 89.1654 65.1738C88.1772 64.3051 86.7582 63.7605 85.1823 63.7605C82.3678 63.7605 80.056 65.4968 79.7985 67.7152Z" fill="#B0401E"/>
<path fill-rule="evenodd" clip-rule="evenodd" d="M85.0411 72.4978C85.4222 72.4978 85.8033 72.4678 86.174 72.407C86.1786 72.4065 86.1833 72.4053 86.1879 72.4036C88.808 71.6928 90.5347 70.0581 90.2048 68.6006C90.1154 68.2075 89.8853 67.8598 89.5207 67.5687C89.5789 67.0669 89.552 66.5625 89.44 66.0684C89.3731 65.7729 89.2759 65.4843 89.1517 65.2094C89.1431 65.1915 89.1318 65.176 89.117 65.1641C88.07 64.2717 86.5846 63.7605 85.0411 63.7605C83.6555 63.7605 82.3298 64.1638 81.3063 64.8969C80.2828 65.6308 79.6464 66.631 79.517 67.7125C79.5159 67.7228 79.5159 67.7328 79.517 67.7425C79.5353 67.9086 79.5631 68.0756 79.6004 68.2383C79.7124 68.7325 79.9051 69.2 80.1751 69.6299C80.1221 69.7369 80.0796 69.8448 80.0466 69.9519C80.0353 69.9879 80.0405 70.0264 80.0605 70.0589C80.5128 70.7817 81.2091 71.3914 82.0755 71.823C82.9619 72.2649 83.9871 72.4978 85.0411 72.4978ZM86.1236 72.1501C85.7694 72.2075 85.4048 72.2366 85.0411 72.2366C83.0261 72.2366 81.223 71.37 80.3183 69.9724C80.3513 69.8757 80.3939 69.7789 80.4451 69.6821C80.4668 69.641 80.4642 69.5905 80.4382 69.5511C80.1647 69.1307 79.9702 68.6699 79.8591 68.181C79.8252 68.0328 79.8001 67.8804 79.7818 67.7288C80.0458 65.6145 82.3029 64.0225 85.0411 64.0225C86.5108 64.0225 87.9225 64.503 88.9208 65.343C89.0328 65.5939 89.1205 65.8568 89.1813 66.1257C89.2915 66.6138 89.315 67.1131 89.2481 67.6089C89.242 67.6552 89.262 67.7014 89.2993 67.7297C89.6483 67.9926 89.8654 68.3043 89.9452 68.658C90.2387 69.9536 88.5605 71.4865 86.1236 72.1501Z" fill="black"/>
<path d="M85.5645 64.3778C84.9412 64.5137 84.4342 64.8848 84.119 65.3736C83.6138 65.0414 82.9745 64.9038 82.3326 65.044C80.642 65.4125 79.8047 67.8902 81.5139 69.059C80.9954 69.0339 80.5053 69.2891 80.238 69.7234C80.1723 69.8463 80.1199 69.9708 80.0809 70.0945C80.9812 71.5168 82.8724 72.497 85.0593 72.497C85.449 72.497 85.8291 72.465 86.1958 72.4061C88.7609 71.7184 90.5295 70.124 90.2072 68.7207C90.1167 68.3236 89.8672 67.9819 89.4969 67.7068C89.0477 67.5026 88.562 67.5021 88.0399 67.7051C88.3285 67.231 88.4395 66.654 88.3063 66.0735C88.0301 64.8675 86.8022 64.1079 85.5645 64.3778Z" fill="#FFCAA1"/>
<path fill-rule="evenodd" clip-rule="evenodd" d="M85.0611 72.4972C85.441 72.4972 85.8217 72.4658 86.1911 72.4047C86.1946 72.4042 86.1984 72.4033 86.2024 72.4021C88.812 71.6815 90.5322 70.029 90.2054 68.559C90.1124 68.1428 89.8655 67.7772 89.47 67.4745C89.4642 67.4698 89.4578 67.4661 89.4509 67.4632C89.0597 67.2799 88.6381 67.2503 88.1948 67.3724C88.4025 66.9092 88.4556 66.3918 88.3443 65.8901C88.0609 64.6181 86.7996 63.8146 85.5322 64.099C84.949 64.2298 84.4474 64.5692 84.1101 65.0604C83.586 64.7376 82.9723 64.6355 82.369 64.7708C81.5076 64.9636 80.8017 65.7357 80.6131 66.6902C80.4506 67.5138 80.707 68.2946 81.3042 68.8312C80.8696 68.8957 80.481 69.1514 80.2498 69.5387C80.2486 69.5405 80.2475 69.5425 80.2463 69.5448C80.1794 69.6748 80.1246 69.8066 80.0855 69.9374C80.0768 69.9662 80.0803 69.9985 80.0968 70.0247C80.5471 70.7567 81.2407 71.3752 82.1039 71.8123C82.9871 72.2599 84.0102 72.4972 85.0611 72.4972ZM86.1512 72.1945C85.7948 72.2538 85.4279 72.2835 85.0611 72.2835C83.0297 72.2835 81.2112 71.3918 80.3037 69.954C80.3376 69.8519 80.381 69.7481 80.4341 69.646C80.6757 69.243 81.1173 69.0074 81.5849 69.031C81.6319 69.0327 81.6754 69.0039 81.691 68.9585C81.7066 68.914 81.6901 68.8643 81.6519 68.8364C80.9669 68.3539 80.6566 67.567 80.8217 66.732C80.9947 65.8587 81.6345 65.1538 82.4151 64.9784C82.9958 64.8484 83.5877 64.961 84.0815 65.2951C84.1049 65.3117 84.1345 65.3169 84.1632 65.3108C84.191 65.3056 84.2162 65.2881 84.231 65.2637C84.5378 64.7734 85.0159 64.4331 85.5783 64.3066C86.7309 64.0484 87.8792 64.7795 88.1365 65.9364C88.2565 66.4738 88.1678 67.0304 87.8879 67.5033C87.8679 67.5364 87.8679 67.5775 87.8862 67.6106C87.9123 67.656 87.9705 67.676 88.0183 67.6568C88.5016 67.464 88.9371 67.4623 89.35 67.6516C89.6986 67.9212 89.9168 68.2423 89.9976 68.6052C90.2949 69.9401 88.6051 71.5157 86.1512 72.1945Z" fill="black"/>
<path d="M81.8031 69.8698C81.3261 69.7539 80.9841 70.0255 81.3928 70.5983C83.1461 73.0571 88.2592 71.9003 88.8106 68.919C88.9388 68.2251 88.5157 68.1265 88.1327 68.4379C86.458 69.7988 83.8916 70.3794 81.8031 69.8698Z" fill="white"/>
<path fill-rule="evenodd" clip-rule="evenodd" d="M84.5024 72.2154C84.8976 72.2154 85.3067 72.1687 85.7218 72.0745C87.5065 71.6667 88.8294 70.4829 89.0909 69.0578C89.1798 68.5725 89.0141 68.3901 88.9062 68.3241C88.7302 68.2166 88.4739 68.2703 88.2374 68.4641C86.5598 69.8382 84.0286 70.416 81.9376 69.9016C81.6433 69.8285 81.3887 69.8919 81.2748 70.0663C81.2049 70.172 81.1307 70.4098 81.4129 70.8106C82.0515 71.7125 83.1967 72.2154 84.5024 72.2154ZM88.7 68.4844C88.7371 68.4844 88.7708 68.4923 88.7984 68.509C88.9002 68.5716 88.9313 68.7574 88.8838 69.0181C88.6379 70.3587 87.3788 71.4755 85.6752 71.864C83.9725 72.2533 82.3665 71.79 81.5846 70.6837C81.4327 70.4688 81.3835 70.2874 81.45 70.1861C81.513 70.0901 81.6847 70.061 81.8884 70.1103C84.039 70.6397 86.6435 70.0451 88.3695 68.6315C88.486 68.5363 88.6059 68.4844 88.7 68.4844Z" fill="black"/>
<path d="M79.7986 68.2832C79.7986 68.8844 79.9577 69.4537 80.2422 69.9613C80.273 69.8561 80.3138 69.7508 80.3633 69.6455C80.1361 69.2611 79.967 68.829 79.871 68.3596C79.8452 68.2364 79.8258 68.1124 79.8108 67.9884C79.8029 68.0859 79.7986 68.1841 79.7986 68.2832Z" fill="#FFCAA1"/>
<path fill-rule="evenodd" clip-rule="evenodd" d="M80.3129 70.2426C80.3191 70.2426 80.3253 70.2423 80.3315 70.2417C80.3934 70.2354 80.445 70.1987 80.4636 70.1478C80.5049 70.0351 80.5596 69.9206 80.6277 69.807C80.6535 69.7632 80.6514 69.7113 80.6205 69.6701C80.2954 69.231 80.0631 68.7498 79.9321 68.2391C79.897 68.104 79.8691 67.9654 79.8485 67.8258C79.8381 67.7561 79.77 67.7042 79.6895 67.706C79.609 67.7078 79.543 67.7605 79.5347 67.8303C79.5223 67.9484 79.5161 68.0655 79.5161 68.1809C79.5161 68.8804 79.7391 69.5521 80.1787 70.1773C80.2076 70.2184 80.2582 70.2426 80.3129 70.2426ZM80.3067 69.7515C80.3005 69.7635 80.294 69.7754 80.2871 69.7873C80.2238 69.6806 80.167 69.5726 80.1168 69.4635C80.176 69.5613 80.2393 69.6573 80.3067 69.7515Z" fill="black"/>
<path d="M80.1699 69.9604C80.2312 69.9238 80.285 69.8764 80.3315 69.8201C80.3419 69.7933 80.3522 69.7683 80.3633 69.7415C80.1714 69.3796 80.0193 68.9802 79.916 68.5513C79.8776 68.5504 79.8377 68.5531 79.7986 68.5611C79.8421 69.0553 79.9713 69.5261 80.1699 69.9604Z" fill="#FF9999"/>
<path fill-rule="evenodd" clip-rule="evenodd" d="M80.2079 69.9604C80.2322 69.9604 80.2564 69.9567 80.2796 69.9484C80.3809 69.9125 80.4737 69.8661 80.5538 69.8085C80.5665 69.7995 80.576 69.789 80.5844 69.7778C80.5981 69.7568 80.6129 69.7359 80.6277 69.7149C80.654 69.679 80.6509 69.6356 80.6203 69.6012C80.3492 69.3011 80.1404 68.9756 80.0001 68.6336C79.9801 68.5857 79.9189 68.5528 79.8493 68.5513C79.7818 68.5505 79.7154 68.5535 79.6511 68.561C79.5667 68.5707 79.5076 68.6253 79.5171 68.686C79.5804 69.1073 79.766 69.5159 80.0676 69.9013C80.0972 69.9387 80.152 69.9604 80.2079 69.9604ZM80.2965 69.6663C80.2874 69.6723 80.2782 69.678 80.2691 69.6835C80.2107 69.6012 80.1576 69.5181 80.1098 69.4343C80.1689 69.5131 80.2311 69.5905 80.2965 69.6663Z" fill="black"/>
<path d="M85.0213 69.1148C85.0736 69.1148 85.1241 69.0865 85.1479 69.0386C85.2241 68.8854 85.3929 68.8003 85.5663 68.8269C85.6424 68.8384 85.714 68.7879 85.7268 68.7144C85.7387 68.6408 85.6865 68.5708 85.6103 68.5593C85.313 68.5141 85.0259 68.6594 84.8956 68.9208C84.8617 68.9881 84.891 69.0688 84.9607 69.1016C84.98 69.1104 85.0011 69.1148 85.0213 69.1148Z" fill="black"/>
<path d="M85.0336 69.1158C85.0717 69.1158 85.1089 69.1035 85.1343 69.0789C85.1791 69.0368 85.1706 68.9746 85.1157 68.9397C84.9033 68.8082 84.5979 68.7985 84.3728 68.9157C84.3136 68.9468 84.2984 69.0083 84.3382 69.0537C84.3788 69.0983 84.4591 69.1107 84.5184 69.0796C84.6503 69.0109 84.8289 69.0167 84.9524 69.0938C84.9761 69.1087 85.0048 69.1158 85.0336 69.1158Z" fill="black"/>
<path d="M85.0827 69.9614C85.0886 69.9614 85.0944 69.9602 85.1 69.9579C85.1434 69.9422 85.1706 69.8709 85.1612 69.7996C85.1078 69.4002 85.0848 69.2392 85.0382 68.9347C85.0272 68.8634 84.9838 68.8199 84.9409 68.8382C84.8979 68.8564 84.8723 68.9295 84.8833 69C84.9293 69.301 84.9519 69.4611 85.0047 69.857C85.0131 69.9187 85.0461 69.9614 85.0827 69.9614Z" fill="black"/>
<path d="M88.8608 68.8883C88.6539 69.1512 88.3871 69.3795 88.099 69.5819C87.809 69.7843 87.4969 69.9616 87.1755 70.1242C87.1423 70.1406 87.1303 70.1796 87.1478 70.2098C87.1654 70.2392 87.2032 70.2514 87.2356 70.2375C87.5726 70.0931 87.9032 69.9331 88.2181 69.7428C88.532 69.5517 88.8322 69.3294 89.0824 69.0518C89.1332 68.9955 89.1258 68.9125 89.0667 68.8649C89.0067 68.8182 88.918 68.8252 88.8672 68.8805C88.8654 68.8828 88.8635 68.8851 88.8617 68.8874L88.8608 68.8883Z" fill="black"/>
<path opacity="0.3" d="M88.5156 68.4164C88.3998 69.0964 87.8768 69.6998 87.4222 70.2425C88.3712 69.7392 88.8418 69.199 88.8339 68.6219C88.8197 68.2317 88.8717 68.1692 88.5156 68.4164Z" fill="black"/>
<path d="M81.2906 70.774C81.6312 70.9203 81.9893 70.9969 82.3447 71.0403C82.701 71.0837 83.0582 71.093 83.4128 71.0862C83.4452 71.0854 83.4706 71.0599 83.4697 71.0284C83.4688 70.9986 83.4452 70.9748 83.4145 70.9731C83.0644 70.9552 82.715 70.9212 82.3754 70.8557C82.0365 70.7902 81.7039 70.6923 81.4088 70.54H81.408C81.3423 70.506 81.2617 70.5298 81.2267 70.5936C81.1917 70.6566 81.2171 70.7357 81.2819 70.7697C81.2854 70.7706 81.288 70.7723 81.2906 70.774Z" fill="black"/>
<path opacity="0.3" d="M81.3236 70.3303C81.552 70.8646 82.2674 71.1164 83.4697 71.0856C82.7699 70.8229 81.9741 70.54 81.5731 69.9753C81.0971 69.9329 81.1784 69.9637 81.3236 70.3303Z" fill="black"/>
<path fill-rule="evenodd" clip-rule="evenodd" d="M85.0411 72.4978C85.4222 72.4978 85.8033 72.4678 86.174 72.407C86.1786 72.4065 86.1833 72.4053 86.1879 72.4036C88.808 71.6928 90.5347 70.0581 90.2048 68.6006C90.1154 68.2075 89.8853 67.8598 89.5207 67.5687C89.5789 67.0669 89.552 66.5625 89.44 66.0684C89.3731 65.7729 89.2759 65.4843 89.1517 65.2094C89.1431 65.1915 89.1318 65.176 89.117 65.1641C88.07 64.2717 86.5846 63.7605 85.0411 63.7605C83.6555 63.7605 82.3298 64.1638 81.3063 64.8969C80.2828 65.6308 79.6464 66.631 79.517 67.7125C79.5159 67.7228 79.5159 67.7328 79.517 67.7425C79.5353 67.9086 79.5631 68.0756 79.6004 68.2383C79.7124 68.7325 79.9051 69.2 80.1751 69.6299C80.1221 69.7369 80.0796 69.8448 80.0466 69.9519C80.0353 69.9879 80.0405 70.0264 80.0605 70.0589C80.5128 70.7817 81.2091 71.3914 82.0755 71.823C82.9619 72.2649 83.9871 72.4978 85.0411 72.4978ZM86.1236 72.1501C85.7694 72.2075 85.4048 72.2366 85.0411 72.2366C83.0261 72.2366 81.223 71.37 80.3183 69.9724C80.3513 69.8757 80.3939 69.7789 80.4451 69.6821C80.4668 69.641 80.4642 69.5905 80.4382 69.5511C80.1647 69.1307 79.9702 68.6699 79.8591 68.181C79.8252 68.0328 79.8001 67.8804 79.7818 67.7288C80.0458 65.6145 82.3029 64.0225 85.0411 64.0225C86.5108 64.0225 87.9225 64.503 88.9208 65.343C89.0328 65.5939 89.1205 65.8568 89.1813 66.1257C89.2915 66.6138 89.315 67.1131 89.2481 67.6089C89.242 67.6552 89.262 67.7014 89.2993 67.7297C89.6483 67.9926 89.8654 68.3043 89.9452 68.658C90.2387 69.9536 88.5605 71.4865 86.1236 72.1501Z" fill="black"/>
<path d="M91.9927 64.8981C91.2236 64.9915 90.7024 65.6933 90.8294 66.4661C90.9563 67.2389 91.6822 67.7894 92.4514 67.696C93.2205 67.6034 93.7417 66.9008 93.6148 66.128C93.4878 65.3552 92.761 64.8047 91.9927 64.8981Z" fill="white"/>
<path fill-rule="evenodd" clip-rule="evenodd" d="M92.2732 67.9883C92.3313 67.9883 92.3898 67.9838 92.4484 67.9748C92.8245 67.9193 93.1536 67.6893 93.3741 67.3276C93.5895 66.974 93.675 66.5344 93.6152 66.0913C93.4912 65.1656 92.7638 64.5058 91.9963 64.6186C91.2279 64.7323 90.7039 65.5774 90.8287 66.5031C90.8885 66.9462 91.0868 67.3437 91.3868 67.6212C91.6467 67.8611 91.9561 67.9883 92.2732 67.9883ZM92.1689 64.9347C92.7168 64.9347 93.2117 65.4449 93.3049 66.1369C93.3545 66.5031 93.2852 66.863 93.11 67.1512C92.9391 67.4305 92.6886 67.6078 92.404 67.6499C92.1202 67.6919 91.8322 67.5944 91.5946 67.375C91.3501 67.1485 91.1885 66.8227 91.139 66.4565C91.039 65.7108 91.4433 65.0322 92.0399 64.9436C92.0832 64.9376 92.1262 64.9347 92.1689 64.9347Z" fill="black"/>
<path d="M93.0072 67.6132C93.4525 67.3208 93.7073 66.7663 93.615 66.172C93.5092 65.4995 92.9918 64.9876 92.3802 64.8878C92.3495 64.8878 92.3177 64.8904 92.286 64.8948C91.6734 64.9729 91.2763 65.6635 91.3965 66.4384C91.5176 67.2123 92.1119 67.7772 92.7245 67.6991C92.8255 67.6869 92.9197 67.6574 93.0072 67.6132Z" fill="white"/>
<path fill-rule="evenodd" clip-rule="evenodd" d="M92.5971 67.7064C92.6374 67.7064 92.6774 67.7035 92.7171 67.6977C92.8201 67.6829 92.9197 67.6489 93.0125 67.5957C93.0171 67.5933 93.0216 67.5904 93.0261 67.5869C93.4705 67.2555 93.702 66.6372 93.6161 66.0119C93.5173 65.2977 93.0253 64.7203 92.4175 64.6078C92.409 64.6067 92.4002 64.6061 92.3911 64.6061C92.357 64.607 92.3238 64.6096 92.2923 64.6139C91.6811 64.7029 91.2785 65.466 91.3951 66.3163C91.4505 66.7201 91.6139 67.0855 91.8539 67.3445C92.0727 67.5808 92.3332 67.7064 92.5971 67.7064ZM92.8797 67.3663C92.8167 67.4012 92.7495 67.4239 92.6814 67.4334C92.4617 67.4648 92.2353 67.368 92.0429 67.1614C91.8395 66.9416 91.7007 66.6285 91.6531 66.2788C91.556 65.5741 91.8591 64.9462 92.329 64.8782C92.3471 64.8759 92.3656 64.8741 92.3843 64.8729C92.8772 64.9715 93.2764 65.4529 93.3581 66.0494C93.4305 66.5753 93.2432 67.0907 92.8797 67.3663Z" fill="black"/>
<path d="M87.196 61.5062C87.0021 62.1448 87.3271 62.2321 87.8836 61.8075C88.2948 61.4945 88.7795 61.3392 89.2463 61.2293C89.6852 60.756 89.1161 60.151 88.2849 60.464C87.8666 60.5957 87.381 60.8978 87.196 61.5062Z" fill="#FF8B13"/>
<path fill-rule="evenodd" clip-rule="evenodd" d="M87.2127 62.3508C87.3837 62.3508 87.598 62.2531 87.8519 62.0578C88.2504 61.7532 88.7204 61.6133 89.1278 61.5173C89.1595 61.509 89.1886 61.4925 89.2106 61.4693C89.4328 61.2285 89.4602 60.9197 89.2803 60.6839C89.0863 60.4281 88.6419 60.2642 88.0873 60.4728C87.7435 60.5821 87.1386 60.8734 86.9182 61.6017C86.8115 61.956 86.845 62.1902 87.0196 62.2986C87.0766 62.3334 87.1409 62.3508 87.2127 62.3508ZM88.9955 61.2351C88.5881 61.3344 88.0785 61.4925 87.6473 61.8227C87.359 62.0437 87.2188 62.0536 87.1968 62.0445C87.1977 62.0445 87.1421 61.9725 87.2294 61.6845C87.4102 61.0869 87.9119 60.8486 88.1949 60.7592C88.1978 60.7581 88.2008 60.757 88.2037 60.7559C88.5978 60.6069 88.8959 60.7012 89.0175 60.8602C89.1031 60.9735 89.0951 61.1076 88.9955 61.2351Z" fill="black"/>
<path d="M80.3663 62.8805C80.3475 63.0318 80.4796 63.1626 80.6296 63.19C80.7787 63.2182 80.9508 63.1455 80.9858 62.9967C81.1289 62.388 81.5533 61.792 82.0586 61.4175C81.3556 61.0276 80.5793 61.0892 80.3663 62.8805Z" fill="#FF8B13"/>
<path fill-rule="evenodd" clip-rule="evenodd" d="M80.5572 63.4778C80.7477 63.4778 80.9499 63.3699 80.9985 63.1626C81.1261 62.6189 81.5087 62.0558 81.9962 61.6951C82.0381 61.6639 82.0616 61.6133 82.0583 61.5602C82.0549 61.5079 82.0256 61.4607 81.9794 61.4354C81.554 61.1986 81.1806 61.1598 80.8702 61.3191C80.4565 61.5324 80.1922 62.0954 80.0848 62.994C80.0588 63.2157 80.2274 63.4247 80.4691 63.4694C80.4976 63.4753 80.5278 63.4778 80.5572 63.4778ZM81.6178 61.6049C81.1689 62.0044 80.8249 62.5548 80.699 63.0918C80.6856 63.1491 80.595 63.1786 80.5253 63.1659C80.4557 63.1524 80.3835 63.0926 80.3911 63.0311C80.4834 62.2522 80.6982 61.7549 81.0103 61.5947C81.1764 61.5088 81.3803 61.513 81.6178 61.6049Z" fill="black"/>
<path opacity="0.3" d="M93.0022 66.1768C93.1048 66.7384 92.8986 67.3104 92.4519 67.7063C93.2407 67.5258 93.7463 66.8186 93.6123 66.0826C93.4783 65.3467 92.7503 64.8287 91.9397 64.8932C92.5023 65.1339 92.8995 65.6144 93.0022 66.1768Z" fill="black"/>
<path opacity="0.3" d="M81.2103 63.196C81.4998 62.6615 81.9369 62.1759 82.5216 61.7392C82.7454 61.1565 82.5954 61.0671 82.0711 61.4711C81.7324 61.657 81.4449 62.2317 81.2103 63.196Z" fill="black"/>
<path opacity="0.3" d="M89.2342 60.5153C89.0377 60.3378 88.7323 60.3314 88.528 60.5006C88.6745 60.4362 88.8479 60.4859 88.9327 60.6165C89.0165 60.7481 89.0117 60.9624 88.8604 61.0139C88.237 61.2282 87.6484 61.5327 87.1397 62.0671C87.4229 62.0947 88.1388 61.8016 89.2872 61.1877C89.4539 60.9845 89.4308 60.6929 89.2342 60.5153Z" fill="black"/>
<path opacity="0.3" d="M81.613 61.5056C80.8839 62.0674 80.5671 62.6311 80.6626 63.1967C80.969 62.6503 81.3392 62.1493 81.7729 61.6935C81.788 61.693 81.7347 61.6303 81.613 61.5056Z" fill="black"/>
<path opacity="0.3" d="M80.3631 69.7883C81.2207 71.2235 83.0591 72.2161 85.1876 72.2161C88.1369 72.2161 90.5273 70.3117 90.5273 67.963C90.5273 66.8939 90.0327 65.9167 89.2144 65.1699C89.5457 65.7225 89.7305 66.3421 89.7305 66.9953C89.7305 69.344 87.3392 71.2485 84.3899 71.2485C83.9466 71.2485 83.5161 71.2055 83.1044 71.1238C83.2397 71.0714 83.3774 71.0113 83.517 70.9408C82.9606 70.95 82.3909 70.8675 81.8078 70.6933C81.8129 70.7045 81.8189 70.7148 81.8232 70.7251C81.2695 70.4836 80.7748 70.1656 80.3631 69.7883Z" fill="black"/>
<path fill-rule="evenodd" clip-rule="evenodd" d="M85.3039 72.4978C88.3397 72.4978 90.8096 70.5379 90.8096 68.1292C90.8096 65.7204 88.3397 63.7605 85.3039 63.7605C82.2681 63.7605 79.7983 65.7204 79.7983 68.1292C79.7983 70.5379 82.2681 72.4978 85.3039 72.4978ZM85.3039 63.9707C88.2229 63.9707 90.5975 65.8367 90.5975 68.1292C90.5975 70.4216 88.2229 72.2867 85.3039 72.2867C82.385 72.2867 80.0103 70.4216 80.0103 68.1292C80.0103 65.8367 82.385 63.9707 85.3039 63.9707Z" fill="black"/>
<path d="M82.1518 68.1145C82.3458 68.6387 82.7769 68.9439 83.1152 68.796C83.4526 68.6481 83.5702 68.1033 83.3761 67.5791C83.1821 67.0549 82.7511 66.7498 82.4127 66.8977C82.0744 67.0455 81.9578 67.5903 82.1518 68.1145Z" fill="black"/>
<path d="M82.3398 67.4035C82.3338 67.5582 82.456 67.6933 82.6118 67.7053C82.7676 67.7165 82.8982 67.6002 82.9042 67.4448C82.909 67.2902 82.7867 67.1543 82.631 67.1431C82.4752 67.1318 82.3446 67.2482 82.3398 67.4035Z" fill="white"/>
<path d="M86.1955 66.2964C85.8877 66.3086 85.6825 66.6978 85.7367 67.1644C85.7901 67.6319 86.083 67.9998 86.39 67.9868C86.6969 67.9745 86.9029 67.5854 86.8488 67.1187C86.7946 66.6512 86.5024 66.2833 86.1955 66.2964Z" fill="black"/>
<path d="M86.107 66.598C85.9897 66.6545 85.9775 66.8181 86.0804 66.963C86.1833 67.1079 86.3614 67.1799 86.4787 67.1226C86.596 67.0661 86.6082 66.9024 86.5053 66.7576C86.4024 66.6127 86.2243 66.5415 86.107 66.598Z" fill="white"/>
<path d="M86.0374 67.4462C85.9915 67.4886 86.0061 67.5758 86.0696 67.6411C86.1331 67.7063 86.221 67.7259 86.2669 67.6835C86.3119 67.6411 86.2972 67.5538 86.2337 67.4886C86.1702 67.4233 86.0823 67.4046 86.0374 67.4462Z" fill="white"/>
<path opacity="0.2" d="M89.3984 67.0138C89.3967 66.6946 89.3626 66.3727 89.2935 66.05C89.2287 65.7468 89.1357 65.4578 89.0179 65.184C88.0454 64.3091 86.6488 63.7605 85.0977 63.7605C82.3276 63.7605 80.0522 65.5094 79.7989 67.7437C79.8159 67.91 79.8424 68.0771 79.8782 68.2443C79.8799 68.2532 79.8825 68.2612 79.8842 68.2701C80.2408 66.1264 82.4649 64.4745 85.1566 64.4745C86.7076 64.4745 88.1042 65.023 89.0768 65.8979C89.1945 66.1718 89.2875 66.4607 89.3524 66.7639C89.3703 66.8475 89.3848 66.9302 89.3984 67.0138Z" fill="black"/>
<path opacity="0.2" d="M80.0966 69.9607C80.0909 69.9701 80.0852 69.9795 80.0809 69.989C80.1693 70.0752 80.2635 70.1597 80.3633 70.2425C80.2692 70.1509 80.1793 70.0566 80.0966 69.9607Z" fill="black"/>
<path opacity="0.2" d="M90.2262 69.1152C90.258 68.9392 90.2503 68.7633 90.1988 68.5914C90.0969 68.2502 89.834 67.9531 89.4452 67.7059C89.4474 67.9023 89.432 68.0971 89.3981 68.2894C89.8001 68.5186 90.086 68.796 90.2262 69.1152Z" fill="black"/>
<path fill-rule="evenodd" clip-rule="evenodd" d="M84.877 58.9574C85.1447 59.4626 85.1903 60.016 85.1504 60.3782L84.6952 60.3278C84.7271 60.0383 84.689 59.581 84.4726 59.1726C84.262 58.775 83.878 58.4132 83.1865 58.2938L83.2642 57.8416C84.1029 57.9863 84.6036 58.4413 84.877 58.9574Z" fill="black"/>
<path d="M84.0337 58.123C84.0337 58.4343 83.7809 58.6867 83.469 58.6867C83.1571 58.6867 82.9043 58.4343 82.9043 58.123C82.9043 57.8117 83.1571 57.5593 83.469 57.5593C83.7809 57.5593 84.0337 57.8117 84.0337 58.123Z" fill="black"/>
<path fill-rule="evenodd" clip-rule="evenodd" d="M85.935 58.1085C85.9352 58.1084 85.9348 58.1105 85.9332 58.1149C85.934 58.1108 85.9348 58.1086 85.935 58.1085ZM85.7727 58.3446C85.7448 58.3506 85.7151 58.3576 85.6835 58.3658C85.3627 58.4487 84.9321 58.629 84.4766 58.8934C84.0211 59.1579 83.6512 59.4423 83.4203 59.6796C83.3976 59.703 83.3768 59.7253 83.3578 59.7465C83.3857 59.7406 83.4154 59.7336 83.4469 59.7254C83.7678 59.6424 84.1984 59.4622 84.6539 59.1977C85.1094 58.9333 85.4793 58.6489 85.7102 58.4115C85.7329 58.3881 85.7537 58.3658 85.7727 58.3446ZM83.072 59.7706C83.0722 59.7705 83.0745 59.7709 83.0784 59.7722C83.0738 59.7714 83.0718 59.7707 83.072 59.7706ZM83.1955 59.9826C83.1953 59.9827 83.1957 59.9807 83.1973 59.9763C83.1965 59.9803 83.1957 59.9825 83.1955 59.9826ZM86.0521 58.319C86.0567 58.3198 86.0587 58.3204 86.0585 58.3206C86.0583 58.3207 86.056 58.3203 86.0521 58.319ZM84.8468 59.5289C85.8006 58.9752 86.4478 58.3099 86.2923 58.043C86.1368 57.776 85.2375 58.0085 84.2837 58.5622C83.3299 59.1159 82.6827 59.7812 82.8382 60.0482C82.9937 60.3151 83.893 60.0826 84.8468 59.5289Z" fill="black"/>
<path d="M134.416 58.4441L102.679 61.7109L102.964 62.5942L126.548 62.4404L123.728 65.5779L123.58 66.3815L124.7 68.7059L121.104 71.4101L121.537 72.1544L127.104 69.1476L127.252 68.344L126.842 66.15L134.216 59.5289L134.416 58.4441Z" fill="black"/>
<path d="M134.569 57.6145L102.875 60.6467L103.164 61.5085L126.726 61.4704L123.924 64.5137L123.78 65.2959L124.91 67.5656L121.33 70.183L121.767 70.9101L127.314 68.0073L127.459 67.2251L127.038 65.0858L134.374 58.6704L134.569 57.6145Z" fill="#FF8B13"/>
<path d="M97.8372 67.7648C97.449 67.7648 97.0769 67.7141 96.721 67.6126C96.3651 67.5064 96.0786 67.3703 95.8613 67.2042L96.2426 66.3599C96.4506 66.5076 96.6956 66.6298 96.9775 66.7267C97.2641 66.819 97.5529 66.8651 97.8441 66.8651C98.066 66.8651 98.2439 66.8444 98.378 66.8028C98.5166 66.7567 98.6183 66.6944 98.683 66.616C98.7477 66.5375 98.7801 66.4476 98.7801 66.3461C98.7801 66.2169 98.7292 66.1154 98.6275 66.0416C98.5259 65.9631 98.3918 65.9008 98.2254 65.8547C98.059 65.804 97.8742 65.7578 97.6708 65.7163C97.4721 65.6702 97.271 65.6148 97.0676 65.5502C96.8689 65.4856 96.6863 65.4026 96.5199 65.3011C96.3536 65.1996 96.2172 65.0658 96.1109 64.8997C96.0092 64.7336 95.9584 64.5213 95.9584 64.263C95.9584 63.9861 96.0323 63.7347 96.1802 63.5086C96.3328 63.2779 96.5592 63.0957 96.8597 62.9619C97.1647 62.8235 97.546 62.7543 98.0036 62.7543C98.3086 62.7543 98.6091 62.7912 98.9049 62.865C99.2007 62.9342 99.4618 63.0403 99.6883 63.1834L99.3416 64.0346C99.1151 63.9054 98.8887 63.8108 98.6622 63.7508C98.4357 63.6862 98.2139 63.654 97.9966 63.654C97.7794 63.654 97.6015 63.6793 97.4628 63.7301C97.3242 63.7808 97.2248 63.8477 97.1647 63.9308C97.1046 64.0092 97.0746 64.1015 97.0746 64.2076C97.0746 64.3322 97.1254 64.4337 97.2271 64.5121C97.3288 64.5859 97.4628 64.6459 97.6292 64.692C97.7956 64.7382 97.9782 64.7843 98.1769 64.8305C98.3803 64.8766 98.5813 64.9297 98.7801 64.9896C98.9834 65.0496 99.1683 65.1304 99.3347 65.2319C99.5011 65.3334 99.6351 65.4672 99.7368 65.6333C99.8431 65.7993 99.8963 66.0093 99.8963 66.263C99.8963 66.5352 99.82 66.7844 99.6675 67.0105C99.5149 67.2365 99.2862 67.4188 98.9811 67.5572C98.6807 67.6956 98.2994 67.7648 97.8372 67.7648Z" fill="black"/>
<path d="M100.837 67.6818V62.8373H101.766L103.584 65.8454L105.371 62.8373H106.293L106.307 67.6818H105.253L105.247 64.7741L103.818 67.1696H103.312L101.891 64.8367V67.6818H100.837Z" fill="black"/>
<path fill-rule="evenodd" clip-rule="evenodd" d="M109.157 62.8373L106.994 67.6818H108.145L108.577 66.6437H110.827L111.258 67.6818H112.436L110.266 62.8373H109.157ZM110.474 65.7924L109.704 63.9384L108.932 65.7924H110.474Z" fill="black"/>
<path fill-rule="evenodd" clip-rule="evenodd" d="M113.113 67.6818V62.8373H115.214C115.648 62.8373 116.023 62.9088 116.337 63.0519C116.651 63.1903 116.894 63.391 117.065 63.654C117.236 63.9169 117.321 64.2307 117.321 64.5952C117.321 64.955 117.236 65.2665 117.065 65.5294C116.894 65.7878 116.651 65.9862 116.337 66.1246L116.327 66.1288L117.411 67.6818H116.198L115.266 66.3319C115.249 66.3321 115.231 66.3322 115.214 66.3322H114.236V67.6818H113.113ZM115.151 65.4395H114.236V63.7508H115.151C115.498 63.7508 115.757 63.8247 115.928 63.9723C116.099 64.1199 116.184 64.3276 116.184 64.5952C116.184 64.8581 116.099 65.0658 115.928 65.218C115.757 65.3657 115.498 65.4395 115.151 65.4395Z" fill="black"/>
<path d="M117.769 63.7508H119.322V67.6818H120.445V63.7508H121.998V62.8373H117.769V63.7508Z" fill="black"/>
<path d="M117.371 73.3029C117.727 73.4044 118.099 73.4551 118.488 73.4551C118.95 73.4551 119.331 73.3859 119.632 73.2475C119.937 73.1091 120.165 72.9269 120.318 72.7008C120.47 72.4747 120.547 72.2256 120.547 71.9534C120.547 71.6996 120.494 71.4897 120.387 71.3236C120.286 71.1575 120.152 71.0237 119.985 70.9222C119.819 70.8207 119.634 70.7399 119.431 70.68C119.232 70.62 119.031 70.5669 118.827 70.5208C118.629 70.4747 118.446 70.4285 118.28 70.3824C118.113 70.3362 117.979 70.2763 117.878 70.2024C117.776 70.124 117.725 70.0225 117.725 69.8979C117.725 69.7918 117.755 69.6995 117.815 69.6211C117.875 69.5381 117.975 69.4712 118.113 69.4204C118.252 69.3697 118.43 69.3443 118.647 69.3443C118.864 69.3443 119.086 69.3766 119.313 69.4412C119.539 69.5012 119.766 69.5957 119.992 69.7249L120.339 68.8737C120.112 68.7307 119.851 68.6245 119.555 68.5553C119.259 68.4815 118.959 68.4446 118.654 68.4446C118.196 68.4446 117.815 68.5138 117.51 68.6522C117.21 68.786 116.983 68.9683 116.831 69.1989C116.683 69.425 116.609 69.6765 116.609 69.9533C116.609 70.2117 116.66 70.4239 116.761 70.59C116.868 70.7561 117.004 70.8899 117.17 70.9914C117.337 71.0929 117.519 71.1759 117.718 71.2405C117.921 71.3051 118.123 71.3605 118.321 71.4066C118.525 71.4482 118.709 71.4943 118.876 71.545C119.042 71.5912 119.176 71.6535 119.278 71.7319C119.38 71.8057 119.431 71.9072 119.431 72.0364C119.431 72.1379 119.398 72.2279 119.333 72.3063C119.269 72.3847 119.167 72.447 119.028 72.4932C118.894 72.5347 118.716 72.5555 118.495 72.5555C118.203 72.5555 117.915 72.5093 117.628 72.417C117.346 72.3202 117.101 72.1979 116.893 72.0502L116.512 72.8946C116.729 73.0607 117.016 73.1968 117.371 73.3029Z" fill="black"/>
<path fill-rule="evenodd" clip-rule="evenodd" d="M102.929 68.5276L100.766 73.3721H101.917L102.349 72.334H104.599L105.03 73.3721H106.208L104.038 68.5276H102.929ZM104.246 71.4828L103.476 69.6287L102.704 71.4828H104.246Z" fill="black"/>
<path fill-rule="evenodd" clip-rule="evenodd" d="M106.885 68.5276V73.3721H108.008V72.0364H108.986C109.42 72.0364 109.795 71.9672 110.109 71.8288C110.423 71.6858 110.666 71.4828 110.837 71.2198C111.008 70.9568 111.093 70.6454 111.093 70.2855C111.093 69.921 111.008 69.6073 110.837 69.3443C110.666 69.0813 110.423 68.8806 110.109 68.7422C109.795 68.5992 109.42 68.5276 108.986 68.5276H106.885ZM108.008 71.1229H108.923C109.27 71.1229 109.529 71.0491 109.7 70.9014C109.871 70.7538 109.956 70.5485 109.956 70.2855C109.956 70.0179 109.871 69.8103 109.7 69.6626C109.529 69.515 109.27 69.4412 108.923 69.4412H108.008V71.1229Z" fill="black"/>
<path d="M113.185 72.4724V71.3513H115.438V70.4793H113.185V69.4273H115.736V68.5276H112.069V73.3721H115.826V72.4724H113.185Z" fill="black"/>
<path d="M148.994 114.437H246.684V135.58H148.994C150.037 127.409 150.268 122.799 148.994 114.437Z" fill="url(#paint10_linear_27319_77205)"/>
<path d="M148.129 115.3V111.2L243.021 111.98C248.638 112.026 253.167 116.593 253.167 122.21V128.154C253.167 133.804 248.587 138.384 242.937 138.384H148.129V134.501H236.454C241.268 134.501 245.171 130.599 245.171 125.785V124.016C245.171 119.202 241.268 115.3 236.454 115.3H148.129Z" fill="url(#paint11_linear_27319_77205)"/>
<rect x="117.007" y="138.6" width="131.839" height="31.4991" rx="9.54825" fill="url(#paint12_linear_27319_77205)"/>
<rect x="131.704" y="142.484" width="16.4258" height="24.5952" rx="1.36404" fill="url(#paint13_linear_27319_77205)"/>
<rect x="149.858" y="142.484" width="6.48386" height="24.5952" rx="1.36404" fill="url(#paint14_linear_27319_77205)"/>
<rect x="153.396" y="117.915" width="87.8374" height="1.10292" rx="0.551462" fill="#E8CC85"/>
<rect x="153.396" y="121.224" width="87.8374" height="1.10292" rx="0.551462" fill="#E8CC85"/>
<rect x="153.396" y="124.533" width="87.8374" height="1.10292" rx="0.551462" fill="#E8CC85"/>
<rect x="153.396" y="127.29" width="87.8374" height="1.10292" rx="0.551462" fill="#E8CC85"/>
<rect x="153.396" y="130.599" width="87.8374" height="1.10292" rx="0.551462" fill="#E8CC85"/>
<ellipse cx="22.9755" cy="26.5925" rx="22.9755" ry="26.5925" transform="matrix(-0.993316 0.115428 0.115831 0.993269 64.5703 16.5477)" fill="#BF3A3B"/>
<ellipse cx="22.9755" cy="26.5925" rx="22.9755" ry="26.5925" transform="matrix(-0.993316 0.115428 0.115831 0.993269 67.876 16.1638)" fill="#E94D3F"/>
<ellipse cx="2.33085" cy="2.65925" rx="2.33085" ry="2.65925" transform="matrix(-0.993316 0.115428 -0.115831 -0.993269 51.4199 47.5247)" fill="#BF3A3B"/>
<path d="M29.2821 47.42C30.7281 59.8196 40.4891 68.8735 51.084 67.6423C61.6789 66.4111 69.0955 55.3611 67.6495 42.9615C66.2035 30.5619 56.4424 21.5081 45.8476 22.7393C35.2527 23.9704 27.8361 35.0204 29.2821 47.42ZM62.0931 43.6072C63.1203 52.4154 57.8518 60.2649 50.3257 61.1395C42.7995 62.014 35.8656 55.5826 34.8384 46.7743C33.8112 37.9661 39.0797 30.1166 46.6059 29.2421C54.1321 28.3675 61.066 34.799 62.0931 43.6072Z" fill="white"/>
<path d="M37.882 46.4208C38.6475 52.9853 44.0068 57.7562 49.8522 57.0769C55.6976 56.3977 59.8157 50.5254 59.0502 43.9609C58.2846 37.3964 52.9254 32.6255 47.08 33.3048C41.2345 33.984 37.1165 39.8563 37.882 46.4208ZM54.1263 44.5331C54.5357 48.0437 52.3334 51.1841 49.2073 51.5473C46.0813 51.9106 43.2153 49.3592 42.8059 45.8486C42.3965 42.338 44.5988 39.1976 47.7248 38.8344C50.8508 38.4711 53.7169 41.0225 54.1263 44.5331Z" fill="white"/>
<path d="M86.525 38.0909L82.7381 38.7986L75.6982 40.1144L48.7579 44.8221L48.8349 45.4825L75.9499 41.1988L86.679 39.4116L85.279 38.905L86.525 38.0909Z" fill="#1B1E21"/>
<path d="M84.6402 36.302L82.7381 38.7986L75.6982 40.1144L78.3944 37.3625L84.6402 36.302Z" fill="#E94D3F"/>
<path d="M82.8378 40.0514L84.964 41.9534L78.3874 43.0522L75.9499 41.1988L82.8378 40.0514Z" fill="#E94D3F"/>
<rect x="104.683" y="13.5498" width="98.4784" height="15.089" rx="5.7548" fill="#3E8EB5"/>
<path d="M120.031 14.5173C120.246 13.8546 121.184 13.8546 121.399 14.5173L122.653 18.3764C122.749 18.6728 123.026 18.8735 123.337 18.8735H127.395C128.092 18.8735 128.382 19.7652 127.818 20.1748L124.535 22.5599C124.283 22.7431 124.177 23.0678 124.274 23.3642L125.528 27.2233C125.743 27.886 124.984 28.4371 124.421 28.0275L121.138 25.6425C120.886 25.4593 120.544 25.4593 120.292 25.6425L117.01 28.0275C116.446 28.4371 115.687 27.886 115.903 27.2233L117.156 23.3642C117.253 23.0678 117.147 22.7431 116.895 22.5599L113.612 20.1748C113.049 19.7652 113.338 18.8735 114.035 18.8735H118.093C118.405 18.8735 118.681 18.6728 118.777 18.3765L120.031 14.5173Z" fill="#F9C92F"/>
<path d="M136.634 14.5173C136.85 13.8546 137.787 13.8546 138.003 14.5173L139.257 18.3764C139.353 18.6728 139.629 18.8735 139.941 18.8735H143.999C144.695 18.8735 144.985 19.7652 144.421 20.1748L141.139 22.5599C140.886 22.7431 140.781 23.0678 140.877 23.3642L142.131 27.2233C142.347 27.886 141.588 28.4371 141.024 28.0275L137.741 25.6425C137.489 25.4593 137.148 25.4593 136.896 25.6425L133.613 28.0275C133.049 28.4371 132.291 27.886 132.506 27.2233L133.76 23.3642C133.856 23.0678 133.751 22.7431 133.499 22.5599L130.216 20.1748C129.652 19.7652 129.942 18.8735 130.639 18.8735H134.696C135.008 18.8735 135.284 18.6728 135.381 18.3765L136.634 14.5173Z" fill="#F9C92F"/>
<path d="M153.238 14.5173C153.453 13.8546 154.391 13.8546 154.606 14.5173L155.86 18.3764C155.956 18.6728 156.233 18.8735 156.544 18.8735H160.602C161.299 18.8735 161.589 19.7652 161.025 20.1748L157.742 22.5599C157.49 22.7431 157.384 23.0678 157.481 23.3642L158.735 27.2233C158.95 27.886 158.191 28.4371 157.628 28.0275L154.345 25.6425C154.093 25.4593 153.751 25.4593 153.499 25.6425L150.217 28.0275C149.653 28.4371 148.894 27.886 149.11 27.2233L150.363 23.3642C150.46 23.0678 150.354 22.7431 150.102 22.5599L146.819 20.1748C146.256 19.7652 146.545 18.8735 147.242 18.8735H151.3C151.612 18.8735 151.888 18.6728 151.984 18.3765L153.238 14.5173Z" fill="#F9C92F"/>
<path d="M169.841 14.5173C170.056 13.8546 170.993 13.8546 171.209 14.5173L172.463 18.3764C172.559 18.6728 172.835 18.8735 173.147 18.8735H177.205C177.901 18.8735 178.191 19.7652 177.627 20.1748L174.345 22.5599C174.093 22.7431 173.987 23.0678 174.083 23.3642L175.337 27.2233C175.553 27.886 174.794 28.4371 174.23 28.0275L170.947 25.6425C170.695 25.4593 170.354 25.4593 170.102 25.6425L166.819 28.0275C166.255 28.4371 165.497 27.886 165.712 27.2233L166.966 23.3642C167.062 23.0678 166.957 22.7431 166.705 22.5599L163.422 20.1748C162.858 19.7652 163.148 18.8735 163.845 18.8735H167.902C168.214 18.8735 168.49 18.6728 168.587 18.3765L169.841 14.5173Z" fill="#F9C92F"/>
<path d="M186.444 14.5173C186.659 13.8546 187.597 13.8546 187.812 14.5173L189.066 18.3764C189.163 18.6728 189.439 18.8735 189.75 18.8735H193.808C194.505 18.8735 194.795 19.7652 194.231 20.1748L190.948 22.5599C190.696 22.7431 190.591 23.0678 190.687 23.3642L191.941 27.2233C192.156 27.886 191.398 28.4371 190.834 28.0275L187.551 25.6425C187.299 25.4593 186.957 25.4593 186.705 25.6425L183.423 28.0275C182.859 28.4371 182.1 27.886 182.316 27.2233L183.57 23.3642C183.666 23.0678 183.56 22.7431 183.308 22.5599L180.025 20.1748C179.462 19.7652 179.751 18.8735 180.448 18.8735H184.506C184.818 18.8735 185.094 18.6728 185.19 18.3765L186.444 14.5173Z" fill="#F9C92F"/>
<path d="M161.347 28.2817H146.589L152.246 34.7978C153.4 35.931 154.535 35.931 155.689 34.7978L161.347 28.2817Z" fill="#3E8EB5"/>
<defs>
<linearGradient id="paint0_linear_27319_77205" x1="135.019" y1="156.878" x2="155.718" y2="19.229" gradientUnits="userSpaceOnUse">
<stop stop-color="#7253C2"/>
<stop offset="1" stop-color="#9B7CEF"/>
</linearGradient>
<linearGradient id="paint1_linear_27319_77205" x1="122.203" y1="38.2086" x2="122.203" y2="134.379" gradientUnits="userSpaceOnUse">
<stop stop-color="#DBEAFF"/>
<stop offset="1" stop-color="#C7DEFF"/>
</linearGradient>
<linearGradient id="paint2_linear_27319_77205" x1="160.187" y1="91.4196" x2="160.187" y2="98.3748" gradientUnits="userSpaceOnUse">
<stop stop-color="#8F70E2"/>
<stop offset="1" stop-color="#B69BFF"/>
</linearGradient>
<linearGradient id="paint3_linear_27319_77205" x1="160.323" y1="86.5101" x2="160.323" y2="91.8289" gradientUnits="userSpaceOnUse">
<stop stop-color="#8F70E2"/>
<stop offset="1" stop-color="#B69BFF"/>
</linearGradient>
<linearGradient id="paint4_linear_27319_77205" x1="106.113" y1="106.724" x2="106.113" y2="114.641" gradientUnits="userSpaceOnUse">
<stop stop-color="#5E56A5"/>
<stop offset="0.66" stop-color="#04ADCF"/>
<stop offset="1" stop-color="#D2EDF7"/>
</linearGradient>
<linearGradient id="paint5_linear_27319_77205" x1="102.996" y1="113.934" x2="102.996" y2="116.67" gradientUnits="userSpaceOnUse">
<stop stop-color="#5E56A5"/>
<stop offset="0.66" stop-color="#04ADCF"/>
<stop offset="1" stop-color="#D2EDF7"/>
</linearGradient>
<linearGradient id="paint6_linear_27319_77205" x1="63.3817" y1="108.504" x2="80.2288" y2="118.248" gradientUnits="userSpaceOnUse">
<stop stop-color="#5E56A5"/>
<stop offset="0.01" stop-color="#585CA8" stop-opacity="0.96"/>
<stop offset="0.09" stop-color="#3E75B4" stop-opacity="0.79"/>
<stop offset="0.17" stop-color="#288ABE" stop-opacity="0.64"/>
<stop offset="0.26" stop-color="#189AC6" stop-opacity="0.53"/>
<stop offset="0.38" stop-color="#0CA5CB" stop-opacity="0.46"/>
<stop offset="0.54" stop-color="#06ABCE" stop-opacity="0.41"/>
<stop offset="1" stop-color="#04ADCF" stop-opacity="0.4"/>
</linearGradient>
<linearGradient id="paint7_linear_27319_77205" x1="78.2388" y1="103.148" x2="78.2388" y2="117.433" gradientUnits="userSpaceOnUse">
<stop stop-color="#5E56A5"/>
<stop offset="0.66" stop-color="#04ADCF"/>
<stop offset="1" stop-color="#D2EDF7"/>
</linearGradient>
<linearGradient id="paint8_linear_27319_77205" x1="160.113" y1="74.4612" x2="160.113" y2="67.5059" gradientUnits="userSpaceOnUse">
<stop stop-color="#8F70E2"/>
<stop offset="1" stop-color="#B69BFF"/>
</linearGradient>
<linearGradient id="paint9_linear_27319_77205" x1="160.182" y1="80.0527" x2="160.182" y2="74.1885" gradientUnits="userSpaceOnUse">
<stop stop-color="#8F70E2"/>
<stop offset="1" stop-color="#B69BFF"/>
</linearGradient>
<linearGradient id="paint10_linear_27319_77205" x1="197.839" y1="114.437" x2="197.839" y2="135.58" gradientUnits="userSpaceOnUse">
<stop stop-color="#FFF3D5"/>
<stop offset="1" stop-color="#FFECBA"/>
</linearGradient>
<linearGradient id="paint11_linear_27319_77205" x1="153.617" y1="117.887" x2="246.926" y2="134.429" gradientUnits="userSpaceOnUse">
<stop stop-color="#FC877D"/>
<stop offset="1" stop-color="#EF746A"/>
</linearGradient>
<linearGradient id="paint12_linear_27319_77205" x1="182.926" y1="138.6" x2="182.926" y2="170.099" gradientUnits="userSpaceOnUse">
<stop stop-color="#8BDA96"/>
<stop offset="1" stop-color="#64B770"/>
</linearGradient>
<linearGradient id="paint13_linear_27319_77205" x1="139.917" y1="142.484" x2="139.917" y2="167.079" gradientUnits="userSpaceOnUse">
<stop stop-color="#61B56D"/>
<stop offset="1" stop-color="#50925A"/>
</linearGradient>
<linearGradient id="paint14_linear_27319_77205" x1="153.1" y1="142.484" x2="153.1" y2="167.079" gradientUnits="userSpaceOnUse">
<stop stop-color="#61B56D"/>
<stop offset="1" stop-color="#50925A"/>
</linearGradient>
<clipPath id="clip0_27319_77205">
<rect width="54.5955" height="14.2965" fill="white" transform="translate(66.4795 103.148)"/>
</clipPath>
</defs>
</svg>
