<svg width="22" height="21" viewBox="0 0 22 21" fill="none" xmlns="http://www.w3.org/2000/svg">
<path d="M11.0629 0.84375C3.97748 0.84375 1.61499 3.20858 1.61499 10.301C1.61499 17.3935 3.97748 19.7583 11.0629 19.7583C18.1483 19.7583 20.5108 17.3935 20.5108 10.301" stroke="#6D34E0" stroke-width="1.5" stroke-linecap="round" stroke-linejoin="round"/>
<path fill-rule="evenodd" clip-rule="evenodd" d="M18.7523 2.43142V2.43142C17.738 1.53272 16.1886 1.62678 15.2908 2.64203C15.2908 2.64203 10.8283 7.68762 9.28087 9.439C7.73141 11.1894 8.8672 13.6074 8.8672 13.6074C8.8672 13.6074 11.4248 14.4181 12.9507 12.6923C14.4777 10.9665 18.9627 5.89636 18.9627 5.89636C19.8605 4.88111 19.7655 3.33011 18.7523 2.43142Z" stroke="#6D34E0" stroke-width="1.5" stroke-linecap="round" stroke-linejoin="round"/>
<path d="M14.1361 3.96289L17.808 7.21722" stroke="#6D34E0" stroke-width="1.5" stroke-linecap="round" stroke-linejoin="round"/>
</svg>
