<svg width="354" height="305" viewBox="0 0 354 305" fill="none" xmlns="http://www.w3.org/2000/svg">
<path d="M266.237 105.634C266.237 115.408 274.166 123.332 283.946 123.332C293.726 123.332 301.652 115.408 301.652 105.634C301.652 95.8594 293.726 87.937 283.946 87.937C274.166 87.937 266.237 95.8594 266.237 105.634Z" fill="url(#paint0_radial_8842_63384)"/>
<path d="M269.776 105.455C269.776 106.16 269.827 106.859 269.925 107.537V107.541C270.02 108.22 270.165 108.885 270.354 109.531C270.66 110.605 271.093 111.626 271.626 112.582C272.011 113.275 272.451 113.931 272.939 114.546C275.625 117.939 279.778 120.114 284.444 120.114C285.265 120.114 286.073 120.045 286.857 119.914C287.448 119.818 288.025 119.687 288.585 119.519C290.12 119.069 291.553 118.375 292.835 117.475C293.059 117.32 293.279 117.155 293.493 116.987C294.434 116.254 295.277 115.403 296.012 114.464C296.088 114.368 296.161 114.269 296.233 114.171C296.738 113.492 297.185 112.763 297.569 112C298.172 110.794 298.616 109.492 298.867 108.124C298.98 107.505 299.055 106.873 299.089 106.227C299.101 105.97 299.107 105.712 299.107 105.455C299.107 104.839 299.069 104.232 298.996 103.64C298.953 103.3 298.9 102.967 298.835 102.634V102.631C298.491 100.871 297.832 99.2246 296.92 97.7478C296.711 97.4131 296.49 97.0867 296.256 96.7705C295.359 95.5544 294.279 94.4796 293.055 93.5898C290.639 91.8337 287.661 90.7959 284.444 90.7959C282.979 90.7959 281.562 91.0095 280.231 91.4115C278.797 91.8404 277.454 92.4796 276.244 93.3038C275.988 93.4754 275.734 93.6554 275.49 93.8438C274.596 94.5334 273.785 95.3206 273.08 96.1936C272.905 96.4038 272.737 96.6191 272.579 96.8395C272.035 97.583 271.564 98.3786 271.172 99.2179C270.976 99.6199 270.805 100.035 270.65 100.458C270.45 101.014 270.281 101.585 270.147 102.17V102.173C270.027 102.691 269.938 103.218 269.876 103.754C269.82 104.242 269.787 104.737 269.78 105.238C269.776 105.31 269.776 105.383 269.776 105.455Z" fill="url(#paint1_linear_8842_63384)"/>
<path style="mix-blend-mode:overlay" d="M273.081 96.1941C275.429 97.1814 278.418 98.0023 281.535 97.7264C286.974 97.242 294.312 98.6583 298.836 102.631C298.493 100.872 297.833 99.2251 296.921 97.7483C296.712 97.4136 296.492 97.0872 296.258 96.771C293.26 96.2698 289.654 95.7719 286.486 95.6205C282.418 95.4254 278.95 94.4313 276.245 93.3043C275.989 93.4759 275.735 93.6559 275.491 93.8443C274.598 94.5339 273.786 95.3211 273.081 96.1941Z" fill="url(#paint2_linear_8842_63384)"/>
<path style="mix-blend-mode:overlay" d="M270.146 102.171V102.174C271.189 102.781 272.488 103.42 274.107 104.046C276.692 105.047 281.413 105.947 284.875 106.953C286.329 107.373 289.768 106.243 291.063 106.633C293.578 107.38 295.909 109.684 297.568 112C298.171 110.794 298.615 109.493 298.866 108.125C298.978 107.506 299.054 106.874 299.088 106.228C297.218 103.826 293.849 101.232 288.218 101.923C282.181 102.665 275.519 100.81 271.171 99.2186C270.975 99.6206 270.804 100.036 270.649 100.458C270.449 101.015 270.28 101.585 270.146 102.171Z" fill="url(#paint3_linear_8842_63384)"/>
<path style="mix-blend-mode:overlay" d="M269.777 105.238L269.922 107.538V107.541C271.014 108.148 272.342 108.86 273.852 109.613C277.186 111.279 280.449 116.266 285.121 115.907C287.848 115.696 290.66 116.557 292.833 117.475C293.056 117.32 293.277 117.156 293.491 116.987C294.431 116.254 295.275 115.403 296.01 114.464C296.086 114.368 296.158 114.269 296.23 114.172C292.476 111.857 286.696 108.919 282.275 108.734C278.428 108.572 275.102 107.6 272.58 106.562C271.489 106.115 270.546 105.654 269.777 105.238Z" fill="url(#paint4_linear_8842_63384)"/>
<path style="mix-blend-mode:overlay" d="M280.232 91.4119C284.344 93.6927 289.756 93.7987 293.057 93.5901C290.64 91.8341 287.663 90.7963 284.445 90.7963C282.981 90.7963 281.564 91.0099 280.232 91.4119Z" fill="url(#paint5_linear_8842_63384)"/>
<path style="mix-blend-mode:overlay" d="M272.941 114.547C275.627 117.939 279.781 120.114 284.446 120.114C285.267 120.114 286.075 120.045 286.859 119.914C285.712 119.09 282.999 117.377 279.742 116.959C277.425 116.661 274.843 115.532 272.941 114.547Z" fill="url(#paint6_linear_8842_63384)"/>
<path d="M331.701 237.85C313.534 269.183 284.924 296.75 252.793 302.858C214.321 310.155 188.024 283.425 151.769 264.483C144.1 260.414 136.126 256.945 127.921 254.109C111.77 248.634 93.3976 245.683 71.4871 247.739C49.6906 249.802 33.1694 256 19.5081 244.498C15.2923 240.96 11.783 236.101 9.03136 230.358C-3.67286 203.981 -0.750326 158.952 20.7158 136.888C43.5037 113.485 76.7397 126.633 93.8477 97.9949C101.704 84.8178 114.072 92.2979 120.623 78.6879C137.714 43.1217 159.893 32.0013 202.625 53.8206C232.916 69.305 226.724 69.6354 271.98 108.511C304.761 136.689 323.726 128.354 331.052 145.245C340.298 166.638 349.755 206.733 331.701 237.85Z" fill="url(#paint7_linear_8842_63384)"/>
<mask id="mask0_8842_63384" style="mask-type:alpha" maskUnits="userSpaceOnUse" x="1" y="0" width="341" height="305">
<path d="M331.701 237.85C313.534 269.183 284.924 296.751 252.793 302.858C214.321 310.156 188.024 283.426 151.769 264.483C144.099 260.414 136.126 256.946 127.921 254.109C111.77 248.634 93.3976 245.683 71.4871 247.74C49.6905 249.802 33.1693 256.001 19.508 244.498C15.2923 240.961 11.7829 236.101 9.03131 230.359C-3.67291 203.982 -0.750237 116.278 20.7159 94.2141C43.5037 113.462 76.7397 83.983 93.8476 55.3443C101.704 42.1673 114.072 49.6474 120.623 36.0373C137.714 0.471217 159.892 -10.6492 202.625 11.1701C232.916 26.6544 226.723 26.9849 271.98 65.8609C304.76 94.0381 323.726 43.0523 331.052 145.246C340.298 166.638 349.755 206.733 331.701 237.85Z" fill="url(#paint8_linear_8842_63384)"/>
</mask>
<g mask="url(#mask0_8842_63384)">
<path d="M151.797 124.447L87.3535 182.615C148.949 214.474 180.357 225.496 189.449 225.335C222.274 206.606 250.271 178.914 260.167 167.409L226.859 148.824L194.276 131.446L151.797 124.447Z" fill="url(#paint9_linear_8842_63384)"/>
<path d="M105.455 297.744L86.6289 181.167C111.537 201.441 165.232 216.808 188.965 221.957C216.577 207.861 248.099 176.501 260.408 162.582C266.394 204.869 268.212 258.563 268.373 280.125C217.784 294.22 138.682 297.744 105.455 297.744Z" fill="url(#paint10_linear_8842_63384)"/>
<path d="M158.424 117.141C158.424 117.141 152.259 118.328 143.668 115.767C137.718 114.001 130.599 110.433 123.569 103.412C124.301 101.021 124.792 98.5498 125.175 96.0787C125.416 94.4997 126.362 91.4666 125.095 90.0838C122.49 87.2558 120.447 94.6157 119.831 96.8905C118.493 94.0893 116.379 92.2605 114.747 89.6467C113.685 87.9517 111.597 84.5796 109.305 84.419C104.889 84.0978 109.795 90.6547 111.856 93.9555C110.215 92.5638 108.43 91.3684 106.53 90.3425C105.54 89.8073 102.65 87.7376 101.579 89.1114C100.553 90.4139 102.534 92.7958 103.363 93.6879C104.898 95.3204 106.682 96.7924 108.457 98.2198C106.958 97.515 105.424 96.8995 103.845 96.4445C102.534 96.0609 99.9644 95.4542 99.0277 96.7567C97.4308 98.987 103.774 101.672 106.414 102.903C105.192 102.538 101.659 102.19 100.723 102.671C99.7681 103.171 98.1571 104.108 100.152 104.946C101.338 106.686 104.446 108.452 106.445 108.979C108.72 109.585 109.315 113.181 110.993 113.502C112.616 115.411 124.631 122.672 135.88 129.372C142.848 133.529 150.868 136.321 158.95 134.921L158.433 117.141L158.424 117.141Z" fill="url(#paint11_linear_8842_63384)"/>
<path d="M158.947 134.913C150.873 136.313 142.853 133.521 135.877 129.364C136.974 128.4 137.982 127.321 138.865 126.161C141.194 123.101 142.737 119.524 143.665 115.768C152.256 118.329 158.42 117.142 158.42 117.142L158.938 134.922L158.947 134.913Z" fill="#EFB3B1"/>
<path d="M212.512 148.732C220.708 148.46 227.99 144.103 233.967 138.614C243.623 129.774 252.046 119.181 253.245 116.974C254.828 116.319 255.159 114.013 257.271 112.955C259.116 112.027 263.197 109.385 264.006 107.436C264.4 106.498 264.02 105.617 262.983 105.321C261.966 105.041 258.581 106.091 257.452 106.707C259.783 104.959 265.447 101.045 263.434 99.1846C262.248 98.0953 259.864 99.2126 258.657 99.8621C257.201 100.631 255.82 101.546 254.499 102.537C255.951 100.774 257.399 98.967 258.569 97.0582C259.206 96.0188 260.654 93.2803 259.39 92.2156C258.068 91.0932 255.659 93.7079 254.79 94.427C253.135 95.8131 251.628 97.3479 250.305 99.0459C251.649 95.3942 255.125 87.9875 250.868 89.1935C248.656 89.8216 247.291 93.5378 246.602 95.4233C245.533 98.3172 243.834 100.54 243.089 103.549C242.032 101.455 238.531 94.6546 236.558 97.9573C235.603 99.5612 237.139 102.34 237.697 103.841C238.569 106.184 238.841 108.56 240.05 110.758C234.583 119.06 229.049 123.939 223.579 126.878C215.688 131.126 209.41 131.216 209.41 131.216L212.512 148.732Z" fill="url(#paint12_linear_8842_63384)"/>
<path d="M208.438 164.863L209.404 175.071C193.182 178.708 175.655 178.53 156.921 174.831L159.282 154.886L160.712 142.749C152.888 142.18 116.61 124.296 107.768 113.779L124.745 102.72C124.745 102.72 191.495 155.496 234.292 112.469L258.09 120.251C258.09 120.251 224.079 153.219 206.176 155.496L208.429 164.854L208.438 164.863Z" fill="url(#paint13_linear_8842_63384)"/>
<path d="M197.414 219.054C197.414 219.054 196.355 200.379 187.781 199.02C185.156 198.604 183.571 198.977 181.008 199.681C172.07 202.134 177.952 199.593 169.826 211.934C163.969 220.829 142.808 208.239 142.808 208.239C142.808 208.239 145.183 183.832 147.864 168.367C151.309 148.487 159.648 118.063 159.648 118.063C160.229 115.405 167.806 112.367 170.238 112.055L196.432 106.833C198.99 106.501 201.416 108.105 202.359 110.781C202.359 110.781 214.012 143.487 218.078 165.249C221.73 184.795 222.262 213.576 223.075 215.918C223.878 218.261 197.423 219.055 197.423 219.055L197.414 219.054Z" fill="url(#paint14_linear_8842_63384)"/>
<path d="M137.794 218.414L144.482 204.275L172.11 208.413L165.061 221.388L137.794 218.414Z" fill="#5156C0"/>
<path d="M167.244 231.178C162.007 234.034 130.712 239.157 127.398 232.519C127.08 231.877 126.981 231.217 127.085 230.538C127.538 227.379 130.913 221.008 136.235 218.158C141.557 215.297 148.835 215.947 148.835 215.947L167.243 219.131C167.243 219.131 168.706 223.547 168.92 227.83C169.005 229.24 168.55 230.461 167.243 231.189L167.244 231.178Z" fill="url(#paint15_linear_8842_63384)"/>
<path d="M167.243 231.174C162.007 234.03 130.711 239.153 127.397 232.515C127.079 231.873 127.154 228.663 127.258 227.984C133.467 229.593 149.082 232.081 169.093 225.276C169.178 226.686 168.55 230.457 167.242 231.185L167.243 231.174Z" fill="#3167D5"/>
<path d="M201.221 163.429C201.19 163.396 201.698 163.473 202.439 163.142C202.825 162.961 203.248 162.622 203.58 162.09C203.714 161.838 203.85 161.524 203.923 161.175C203.963 160.858 203.942 160.443 203.952 160.062C204.036 156.816 204.126 152.17 204.275 146.442C204.312 145 204.341 143.494 204.361 141.923C204.381 141.16 204.05 140.419 203.458 139.894C203.146 139.663 202.801 139.463 202.421 139.389C202.041 139.284 201.627 139.305 201.182 139.293C197.809 139.205 194.213 139.112 190.395 139.012C182.79 138.814 174.422 138.596 165.672 138.368C164.622 138.341 163.617 139.015 163.242 139.96C163.007 140.432 163.026 140.942 163.012 141.483C162.998 142.013 162.984 142.554 162.969 143.105C162.914 145.227 162.859 147.327 162.805 149.405C162.751 151.484 162.698 153.51 162.647 155.483C162.621 156.48 162.595 157.466 162.57 158.442C162.557 158.919 162.512 159.427 162.532 159.906C162.552 160.352 162.699 160.801 162.945 161.158C163.434 161.935 164.314 162.372 165.207 162.331C166.14 162.356 167.052 162.38 167.943 162.403C169.746 162.471 171.495 162.527 173.192 162.571C176.565 162.659 179.715 162.741 182.611 162.817C188.337 162.998 192.982 163.151 196.227 163.235C197.818 163.277 199.058 163.341 199.918 163.363C200.342 163.374 200.66 163.383 200.872 163.388C201.02 163.413 201.136 163.427 201.221 163.429C201.136 163.427 201.019 163.434 200.87 163.452C200.658 163.446 200.34 163.438 199.916 163.427C199.057 163.405 197.815 163.404 196.224 163.363C192.979 163.278 188.332 163.189 182.604 163.071C179.709 162.996 176.558 162.914 173.186 162.826C171.489 162.782 169.738 162.747 167.935 162.721C167.044 162.698 166.132 162.674 165.198 162.65C164.242 162.688 163.236 162.185 162.685 161.342C162.41 160.921 162.232 160.407 162.213 159.897C162.227 159.388 162.238 158.943 162.252 158.434C162.277 157.458 162.303 156.471 162.329 155.474C162.38 153.502 162.433 151.476 162.487 149.397C162.541 147.318 162.596 145.218 162.651 143.097C162.666 142.546 162.68 142.005 162.694 141.474C162.707 140.965 162.691 140.36 162.928 139.825C163.369 138.754 164.504 137.987 165.68 138.05C174.43 138.278 182.799 138.496 190.403 138.694C194.221 138.825 197.816 138.919 201.189 139.007C201.603 139.018 202.049 138.997 202.492 139.104C202.903 139.211 203.311 139.444 203.622 139.707C204.277 140.265 204.637 141.103 204.615 141.93C204.574 143.5 204.535 145.006 204.498 146.448C204.316 152.175 204.195 156.82 204.079 160.065C204.069 160.447 204.091 160.829 204.017 161.21C203.945 161.558 203.809 161.873 203.642 162.155C203.31 162.688 202.856 163.026 202.47 163.175C202.083 163.356 201.763 163.411 201.539 163.437C201.391 163.434 201.285 163.431 201.221 163.429Z" fill="#64EDFF"/>
<path d="M168.926 156.633C169.577 156.65 170.118 156.136 170.134 155.486C170.151 154.836 169.638 154.295 168.988 154.278C168.338 154.261 167.797 154.775 167.78 155.425C167.763 156.075 168.276 156.616 168.926 156.633Z" fill="#64EDFF"/>
<path fill-rule="evenodd" clip-rule="evenodd" d="M168.939 156.165C169.331 156.175 169.657 155.866 169.667 155.474C169.677 155.082 169.368 154.756 168.976 154.746C168.584 154.735 168.258 155.045 168.247 155.437C168.237 155.829 168.547 156.155 168.939 156.165ZM170.134 155.486C170.118 156.136 169.577 156.65 168.926 156.633C168.276 156.616 167.763 156.075 167.78 155.425C167.797 154.775 168.338 154.261 168.988 154.278C169.638 154.295 170.151 154.836 170.134 155.486Z" fill="#64EDFF"/>
<path d="M172.93 156.74C173.581 156.757 174.121 156.243 174.138 155.593C174.155 154.943 173.642 154.402 172.992 154.385C172.342 154.368 171.801 154.881 171.784 155.532C171.767 156.182 172.28 156.723 172.93 156.74Z" fill="#64EDFF"/>
<path fill-rule="evenodd" clip-rule="evenodd" d="M172.943 156.272C173.335 156.282 173.661 155.973 173.671 155.581C173.681 155.189 173.372 154.863 172.98 154.853C172.588 154.842 172.262 155.152 172.251 155.544C172.241 155.936 172.551 156.262 172.943 156.272ZM174.138 155.593C174.121 156.243 173.581 156.757 172.93 156.74C172.28 156.723 171.767 156.182 171.784 155.532C171.801 154.881 172.342 154.368 172.992 154.385C173.642 154.402 174.155 154.943 174.138 155.593Z" fill="#64EDFF"/>
<path d="M176.817 156.834C177.467 156.851 178.008 156.338 178.025 155.688C178.042 155.037 177.529 154.497 176.878 154.48C176.228 154.463 175.687 154.976 175.67 155.626C175.654 156.276 176.167 156.817 176.817 156.834Z" fill="#64EDFF"/>
<path fill-rule="evenodd" clip-rule="evenodd" d="M176.829 156.367C177.221 156.377 177.547 156.067 177.558 155.675C177.568 155.283 177.258 154.957 176.866 154.947C176.474 154.937 176.148 155.246 176.138 155.638C176.128 156.03 176.437 156.356 176.829 156.367ZM178.025 155.688C178.008 156.338 177.467 156.851 176.817 156.834C176.167 156.817 175.654 156.276 175.67 155.626C175.687 154.976 176.228 154.463 176.878 154.48C177.529 154.497 178.042 155.037 178.025 155.688Z" fill="#64EDFF"/>
<path d="M180.663 156.938C181.313 156.954 181.854 156.441 181.871 155.791C181.888 155.141 181.374 154.6 180.724 154.583C180.074 154.566 179.533 155.079 179.516 155.73C179.499 156.38 180.013 156.921 180.663 156.938Z" fill="#64EDFF"/>
<path fill-rule="evenodd" clip-rule="evenodd" d="M180.675 156.47C181.067 156.48 181.393 156.171 181.403 155.779C181.413 155.387 181.104 155.061 180.712 155.05C180.32 155.04 179.994 155.35 179.984 155.742C179.974 156.134 180.283 156.46 180.675 156.47ZM181.871 155.791C181.854 156.441 181.313 156.954 180.663 156.938C180.013 156.921 179.499 156.38 179.516 155.73C179.533 155.079 180.074 154.566 180.724 154.583C181.374 154.6 181.888 155.141 181.871 155.791Z" fill="#64EDFF"/>
<path d="M180.353 148.309L169.694 148.032C168.931 148.012 168.31 147.391 168.331 146.595C168.351 145.831 169.004 145.212 169.767 145.232L180.426 145.509C181.19 145.529 181.81 146.182 181.79 146.946C181.769 147.741 181.117 148.329 180.353 148.309Z" fill="#64EDFF"/>
<path fill-rule="evenodd" clip-rule="evenodd" d="M169.706 147.564L180.366 147.842C180.878 147.855 181.309 147.464 181.322 146.934C181.336 146.428 180.92 145.99 180.414 145.977L169.755 145.699C169.25 145.686 168.811 146.102 168.798 146.607C168.784 147.138 169.194 147.551 169.706 147.564ZM169.694 148.032L180.353 148.309C181.117 148.329 181.769 147.741 181.79 146.946C181.81 146.182 181.19 145.529 180.426 145.509L169.767 145.232C169.004 145.212 168.351 145.831 168.331 146.595C168.31 147.391 168.931 148.012 169.694 148.032Z" fill="#64EDFF"/>
<path d="M169.257 152.195C169.907 152.212 170.448 151.699 170.465 151.049C170.481 150.398 169.968 149.858 169.318 149.841C168.668 149.824 168.127 150.337 168.11 150.987C168.093 151.637 168.606 152.178 169.257 152.195Z" fill="#64EDFF"/>
<path fill-rule="evenodd" clip-rule="evenodd" d="M169.269 151.728C169.661 151.738 169.987 151.428 169.997 151.036C170.007 150.644 169.698 150.318 169.306 150.308C168.914 150.298 168.588 150.607 168.577 150.999C168.567 151.391 168.877 151.717 169.269 151.728ZM170.465 151.049C170.448 151.699 169.907 152.212 169.257 152.195C168.606 152.178 168.093 151.637 168.11 150.987C168.127 150.337 168.668 149.824 169.318 149.841C169.968 149.858 170.481 150.398 170.465 151.049Z" fill="#64EDFF"/>
<path d="M173.239 152.297C173.889 152.314 174.43 151.8 174.447 151.15C174.464 150.5 173.951 149.959 173.3 149.942C172.65 149.925 172.109 150.439 172.092 151.089C172.075 151.739 172.589 152.28 173.239 152.297Z" fill="#64EDFF"/>
<path fill-rule="evenodd" clip-rule="evenodd" d="M173.251 151.829C173.643 151.84 173.969 151.53 173.979 151.138C173.99 150.746 173.68 150.42 173.288 150.41C172.896 150.4 172.57 150.709 172.56 151.101C172.55 151.493 172.859 151.819 173.251 151.829ZM174.447 151.15C174.43 151.8 173.889 152.314 173.239 152.297C172.589 152.28 172.075 151.739 172.092 151.089C172.109 150.439 172.65 149.925 173.3 149.942C173.951 149.959 174.464 150.5 174.447 151.15Z" fill="#64EDFF"/>
<path d="M177.116 152.394C177.766 152.411 178.307 151.898 178.324 151.248C178.341 150.598 177.827 150.057 177.177 150.04C176.527 150.023 175.986 150.536 175.969 151.186C175.952 151.837 176.466 152.377 177.116 152.394Z" fill="#64EDFF"/>
<path fill-rule="evenodd" clip-rule="evenodd" d="M177.128 151.927C177.52 151.937 177.846 151.628 177.856 151.236C177.867 150.844 177.557 150.518 177.165 150.507C176.773 150.497 176.447 150.807 176.437 151.199C176.427 151.591 176.736 151.917 177.128 151.927ZM178.324 151.248C178.307 151.898 177.766 152.411 177.116 152.394C176.466 152.377 175.952 151.837 175.969 151.186C175.986 150.536 176.527 150.023 177.177 150.04C177.827 150.057 178.341 150.598 178.324 151.248Z" fill="#64EDFF"/>
<path d="M181.005 152.497C181.655 152.514 182.196 152 182.213 151.35C182.23 150.7 181.716 150.159 181.066 150.142C180.416 150.125 179.875 150.639 179.858 151.289C179.841 151.939 180.354 152.48 181.005 152.497Z" fill="#64EDFF"/>
<path fill-rule="evenodd" clip-rule="evenodd" d="M181.017 152.029C181.409 152.039 181.735 151.73 181.745 151.338C181.755 150.946 181.446 150.62 181.054 150.61C180.662 150.599 180.336 150.909 180.326 151.301C180.315 151.693 180.625 152.019 181.017 152.029ZM182.213 151.35C182.196 152 181.655 152.514 181.005 152.497C180.354 152.48 179.841 151.939 179.858 151.289C179.875 150.639 180.416 150.125 181.066 150.142C181.716 150.159 182.23 150.7 182.213 151.35Z" fill="#64EDFF"/>
<path d="M197.461 145.018L190.97 144.849C190.39 144.834 189.908 145.292 189.893 145.872L189.723 152.363C189.708 152.943 190.166 153.425 190.746 153.44L197.237 153.609C197.817 153.625 198.299 153.167 198.314 152.587L198.484 146.096C198.499 145.516 198.041 145.034 197.461 145.018Z" fill="#64EDFF"/>
<path fill-rule="evenodd" clip-rule="evenodd" d="M197.449 145.486L190.958 145.317C190.636 145.308 190.368 145.562 190.36 145.884L190.191 152.375C190.183 152.697 190.437 152.964 190.758 152.973L197.249 153.142C197.571 153.15 197.839 152.896 197.847 152.575L198.016 146.084C198.024 145.762 197.77 145.494 197.449 145.486ZM190.97 144.849L197.461 145.018C198.041 145.034 198.499 145.516 198.484 146.096L198.314 152.587C198.299 153.167 197.817 153.625 197.237 153.609L190.746 153.44C190.166 153.425 189.708 152.943 189.723 152.363L189.893 145.872C189.908 145.292 190.39 144.834 190.97 144.849Z" fill="#64EDFF"/>
<path d="M197.705 157.708L190.1 157.51C189.432 157.493 188.905 156.938 188.922 156.301C188.939 155.633 189.494 155.106 190.162 155.124L197.767 155.322C198.435 155.339 198.962 155.894 198.944 156.562C198.928 157.199 198.373 157.726 197.705 157.708Z" fill="#64EDFF"/>
<path fill-rule="evenodd" clip-rule="evenodd" d="M190.112 157.042L197.717 157.241C198.135 157.251 198.467 156.92 198.477 156.55C198.488 156.14 198.165 155.8 197.755 155.789L190.15 155.591C189.74 155.58 189.4 155.903 189.389 156.313C189.38 156.683 189.694 157.032 190.112 157.042ZM190.1 157.51L197.705 157.708C198.373 157.726 198.928 157.199 198.944 156.562C198.962 155.894 198.435 155.339 197.767 155.322L190.162 155.124C189.494 155.106 188.939 155.633 188.922 156.301C188.905 156.938 189.432 157.493 190.1 157.51Z" fill="#64EDFF"/>
<mask id="mask1_8842_63384" style="mask-type:alpha" maskUnits="userSpaceOnUse" x="144" y="186" width="78" height="21">
<path d="M172.827 205.958L144.313 194.892L145.658 186.115L183.076 186.115L220.533 186.115L221.878 200.241L194.682 206.759C194.289 205.819 192.996 203.358 190.963 201.029C188.422 198.117 182.196 199.064 179.377 200.241C177.122 201.183 174.071 204.445 172.827 205.958Z" fill="#D9D9D9"/>
</mask>
<g mask="url(#mask1_8842_63384)">
<path d="M177.454 205.071C177.139 205.077 176.832 204.947 176.616 204.688C176.498 204.543 164.119 189.644 153.001 188.776C149.863 188.532 147.095 189.469 144.77 191.543C144.336 191.93 143.673 191.89 143.286 191.456C142.899 191.022 142.939 190.359 143.373 189.972C146.143 187.5 149.443 186.396 153.171 186.681C165.184 187.615 177.713 202.711 178.241 203.353C178.607 203.808 178.546 204.472 178.101 204.838C177.905 204.989 177.675 205.067 177.454 205.071Z" fill="#64EDFF"/>
<path d="M191.754 202.776C192.026 202.819 192.308 202.742 192.525 202.544C192.644 202.432 205.119 191.001 214.844 191.564C217.589 191.724 219.873 192.862 221.641 194.932C221.971 195.318 222.549 195.362 222.935 195.032C223.321 194.702 223.365 194.123 223.036 193.737C220.931 191.271 218.205 189.925 214.945 189.731C204.437 189.119 191.809 200.703 191.276 201.196C190.906 201.547 190.88 202.129 191.222 202.498C191.374 202.652 191.564 202.747 191.754 202.776Z" fill="#64EDFF"/>
</g>
<path d="M137.309 133.349C140.313 135.347 154.228 140.105 160.811 142.234L162.063 123.819L151.321 116.923L150.98 121.945L141.784 125.244C139.041 127.113 134.305 131.351 137.309 133.349Z" fill="#575DC7"/>
<path d="M197.987 222.124L195.993 210.216L219.923 204.555L223.553 217.135L222.995 217.097L197.987 222.124Z" fill="#5156C0"/>
<path d="M195.801 232.457C201.36 234.576 233.044 235.503 235.473 228.546C235.706 227.873 235.718 227.211 235.528 226.558C234.672 223.513 230.505 217.695 224.862 215.593C219.217 213.48 212.086 215.075 212.086 215.075L197.367 218.426C197.367 218.426 193.368 225.151 193.708 229.387C193.805 230.784 194.413 231.924 195.803 232.468L195.801 232.457Z" fill="url(#paint16_linear_8842_63384)"/>
<path d="M195.809 232.458C201.368 234.577 233.052 235.504 235.481 228.546C235.714 227.873 235.226 224.729 235.036 224.076C229.087 226.472 213.929 230.966 193.215 226.905C193.313 228.302 194.421 231.925 195.811 232.468L195.809 232.458Z" fill="#3167D5"/>
<path d="M226.612 99.8108C226.969 103.931 224.998 107.911 221.507 110.123C223.264 103.713 222.694 97.1828 219.795 90.5339C223.621 92.109 226.249 95.6862 226.612 99.8108Z" fill="white"/>
<path fill-rule="evenodd" clip-rule="evenodd" d="M221.631 111.011C221.403 111.039 221.174 110.984 220.984 110.845C220.684 110.622 220.552 110.244 220.65 109.886C222.348 103.705 221.788 97.315 218.984 90.8927C218.838 90.5558 218.912 90.1664 219.165 89.9025C219.423 89.6429 219.813 89.5641 220.151 89.6991C224.305 91.4105 227.125 95.2547 227.517 99.7308C227.909 104.207 225.793 108.477 222 110.88C221.886 110.954 221.758 110.995 221.631 111.011ZM221.565 92.5312C223.392 97.6653 223.859 102.774 222.966 107.782C224.954 105.7 225.985 102.846 225.726 99.8878C225.466 96.8952 223.927 94.2369 221.565 92.5312Z" fill="#64EDFF"/>
<path d="M178.472 61.8802C198.312 59.3765 216.426 73.4264 218.93 93.2663C221.433 113.101 207.378 131.216 187.538 133.72C167.703 136.223 149.589 122.168 147.086 102.333C144.582 82.493 158.637 64.3834 178.472 61.8802Z" fill="white"/>
<path d="M178.899 62.3765C199.006 59.839 216.872 72.4347 220.324 91.8094L220.769 92.6415C221.832 94.8814 221.59 93.8656 222.342 99.8214C223.093 105.777 220.001 117.686 212.058 123.886L211.153 124.735C184.952 144.639 150.471 134.881 146.568 103.95C143.995 83.5662 158.792 64.9139 178.899 62.3765Z" fill="white"/>
<path fill-rule="evenodd" clip-rule="evenodd" d="M187.468 135.65C180.215 136.565 173.108 135.66 166.828 133.023C155.091 128.088 147.382 117.532 145.682 104.061C144.412 93.9953 147.198 84.0001 153.526 75.9121C159.82 67.8678 168.792 62.7429 178.79 61.4812C199.397 58.8806 217.598 71.7844 221.188 91.5118L221.564 92.2195C221.572 92.2317 221.578 92.244 221.583 92.2566C221.697 92.4939 221.791 92.6894 221.877 92.866C222.564 94.2748 222.58 94.406 222.994 97.764C223.063 98.313 223.144 98.9542 223.239 99.7072C224.037 106.032 220.798 118.182 212.646 124.566L211.778 125.386C211.754 125.409 211.729 125.43 211.702 125.45C204.73 130.747 196.802 134.21 188.787 135.463C188.348 135.529 187.908 135.591 187.468 135.65ZM179.015 63.2641C159.112 65.7758 144.959 83.9766 147.465 103.836C149.083 116.656 156.395 126.69 167.522 131.366C180.781 136.938 197.276 134.135 210.577 124.047L211.446 123.232C211.464 123.213 211.485 123.196 211.509 123.179C219.057 117.287 222.183 105.694 221.456 99.9322C221.361 99.1792 221.28 98.5331 221.211 97.9842C220.817 94.7913 220.817 94.7913 220.264 93.652C220.178 93.4753 220.079 93.2805 219.971 93.0474L219.537 92.2286C219.492 92.1455 219.46 92.0556 219.444 91.9639C216.089 73.1199 198.704 60.7793 179.015 63.2641Z" fill="#64EDFF"/>
<path d="M184.252 76.1306C203.334 73.7225 220.408 84.4589 222.383 100.111C224.358 115.759 210.486 130.4 191.404 132.808C172.318 135.217 155.249 124.48 153.274 108.833C151.299 93.1803 165.165 78.5393 184.252 76.1306Z" fill="#00A4FF"/>
<path fill-rule="evenodd" clip-rule="evenodd" d="M191.501 133.554C172.035 136.011 154.556 124.96 152.533 108.929C150.509 92.8927 164.695 77.8512 184.161 75.3946C203.622 72.9387 221.105 83.9837 223.129 100.02C225.152 116.051 210.962 131.098 191.501 133.554ZM184.348 76.8763C165.703 79.2292 152.099 93.5213 154.02 108.741C155.94 123.956 172.668 134.42 191.313 132.067C209.958 129.715 223.562 115.422 221.642 100.207C219.722 84.9874 202.993 74.5234 184.348 76.8763Z" fill="#64EDFF"/>
<path d="M190.984 129.453C207.723 127.34 219.935 114.864 218.259 101.586C216.583 88.3079 201.655 79.2564 184.916 81.3688C168.177 83.4813 155.966 95.9577 157.641 109.236C159.317 122.514 174.245 131.565 190.984 129.453Z" fill="#6C6C6C"/>
<path fill-rule="evenodd" clip-rule="evenodd" d="M191.093 130.347C173.886 132.518 158.479 123.102 156.745 109.354C155.01 95.6056 167.593 82.6515 184.8 80.48C202.007 78.3086 217.415 87.7302 219.15 101.478C220.885 115.226 208.3 128.175 191.093 130.347ZM185.025 82.2629C168.805 84.3099 156.916 96.3619 158.527 109.129C160.138 121.89 174.648 130.611 190.868 128.564C207.089 126.517 218.977 114.465 217.367 101.703C215.756 88.9365 201.246 80.2159 185.025 82.2629Z" fill="#6C6C6C"/>
<path d="M218.224 99.4021C218.242 100.323 218.207 101.255 218.118 102.194C217.835 105.196 217.024 108.032 215.787 110.627C216.233 111.271 216.608 111.934 216.909 112.602C212.991 121.21 203.338 128.02 191.373 129.53C189.241 129.799 187.139 129.882 185.091 129.805C170.569 127.714 159.762 119.982 160.531 111.88C160.745 109.587 161.868 107.496 163.699 105.696C162.967 102.911 162.706 99.9777 162.992 96.9704C163.153 95.2673 163.483 93.6216 163.964 92.0408C168.899 86.5617 176.474 82.5607 185.305 81.4462C201.079 79.4556 215.241 87.3761 218.224 99.4021Z" fill="#B0401E"/>
<path fill-rule="evenodd" clip-rule="evenodd" d="M191.464 130.275C189.331 130.544 187.177 130.644 185.059 130.56C185.033 130.56 185.006 130.557 184.979 130.551C169.809 128.369 158.976 120.314 159.778 111.813C159.997 109.52 161.036 107.386 162.868 105.476C162.183 102.671 161.973 99.7904 162.246 96.9082C162.408 95.185 162.746 93.4792 163.243 91.8322C163.279 91.724 163.331 91.6286 163.405 91.5502C168.625 85.7489 176.571 81.7997 185.209 80.7097C192.962 79.7312 200.669 81.0832 206.921 84.5188C213.174 87.9593 217.451 93.184 218.949 99.2282C218.963 99.2857 218.97 99.3424 218.97 99.3982C218.987 100.354 218.951 101.32 218.859 102.27C218.586 105.152 217.842 107.94 216.639 110.57C217.012 111.14 217.328 111.722 217.589 112.306C217.678 112.502 217.676 112.724 217.588 112.923C215.574 117.342 212.114 121.293 207.575 124.353C202.932 127.486 197.361 129.531 191.464 130.275ZM185.157 129.067C187.18 129.143 189.241 129.051 191.277 128.794C202.552 127.371 212.021 121.181 216.083 112.614C215.829 112.089 215.522 111.57 215.166 111.057C215.015 110.839 214.993 110.551 215.111 110.309C216.34 107.73 217.098 104.979 217.37 102.127C217.454 101.263 217.485 100.38 217.479 99.5075C214.488 87.6996 200.718 80.2626 185.396 82.1962C177.172 83.2341 169.617 86.9563 164.631 92.4269C164.184 93.9294 163.882 95.4827 163.734 97.051C163.467 99.8979 163.693 102.747 164.422 105.512C164.489 105.77 164.41 106.047 164.222 106.233C162.457 107.971 161.466 109.893 161.272 111.955C160.558 119.513 171.045 127.023 185.157 129.067Z" fill="#6C6C6C"/>
<path d="M182.851 84.2898C186.358 84.6222 189.395 86.3562 191.466 88.8833C193.994 86.669 197.395 85.4552 201.006 85.7989C210.517 86.7011 217.82 99.0697 209.297 106.813C212.116 106.314 214.012 108.375 215.782 110.629C216.229 111.274 216.604 111.937 216.905 112.605C212.987 121.213 203.334 128.023 191.369 129.533C189.236 129.802 187.134 129.885 185.086 129.807C170.564 127.717 159.757 119.985 160.527 111.882C160.741 109.59 161.864 107.499 163.694 105.698C166.008 104.242 168.665 103.903 171.665 104.683C169.75 102.22 168.734 99.0562 169.051 95.7045C169.708 88.7419 175.888 83.6288 182.851 84.2898Z" fill="#FFCAA1"/>
<path fill-rule="evenodd" clip-rule="evenodd" d="M191.456 130.129C189.333 130.397 187.183 130.491 185.076 130.411C185.056 130.411 185.034 130.408 185.011 130.405C169.921 128.233 159.146 120.245 159.939 111.829C160.167 109.446 161.289 107.236 163.287 105.272C163.316 105.242 163.349 105.216 163.386 105.195C165.443 103.899 167.779 103.436 170.342 103.804C168.855 101.371 168.195 98.5275 168.465 95.6557C169.155 88.3729 175.639 83.0092 182.922 83.6991C186.273 84.0164 189.315 85.5524 191.545 88.0495C194.247 85.8824 197.605 84.8812 201.072 85.2087C206.021 85.6748 210.509 89.4763 212.234 94.6578C213.721 99.1291 212.836 103.658 209.876 107.067C212.35 107.12 214.701 108.269 216.266 110.263C216.274 110.272 216.281 110.282 216.29 110.294C216.755 110.971 217.154 111.666 217.464 112.367C217.533 112.521 217.536 112.703 217.462 112.861C215.46 117.254 212.018 121.188 207.501 124.23C202.88 127.345 197.329 129.388 191.456 130.129ZM185.151 129.212C187.185 129.291 189.256 129.198 191.306 128.939C202.659 127.506 212.195 121.259 216.256 112.613C215.995 112.069 215.679 111.521 215.311 110.99C213.678 108.916 211.044 107.916 208.447 108.377C208.186 108.42 207.923 108.29 207.804 108.049C207.685 107.812 207.742 107.523 207.936 107.341C211.425 104.171 212.607 99.5707 211.097 95.0382C209.517 90.2974 205.446 86.8233 200.96 86.3974C197.624 86.0831 194.395 87.1273 191.87 89.3361C191.751 89.445 191.589 89.4949 191.424 89.4812C191.265 89.4716 191.112 89.3923 191.012 89.2667C188.953 86.7529 186.042 85.1955 182.81 84.8877C176.187 84.2627 170.283 89.1435 169.658 95.7666C169.366 98.8437 170.252 101.881 172.149 104.316C172.284 104.487 172.313 104.715 172.234 104.912C172.12 105.183 171.809 105.336 171.528 105.263C168.691 104.53 166.256 104.828 164.082 106.173C162.323 107.92 161.33 109.862 161.133 111.94C160.409 119.582 170.96 127.164 185.151 129.212Z" fill="#6C6C6C"/>
<path d="M218.652 101.669C219.124 105.414 218.493 109.097 216.964 112.503C216.672 111.873 216.313 111.252 215.895 110.639C217.132 108.05 217.939 105.214 218.221 102.207C218.299 101.417 218.333 100.628 218.337 99.843C218.467 100.444 218.574 101.052 218.652 101.669Z" fill="#FFCAA1"/>
<path fill-rule="evenodd" clip-rule="evenodd" d="M217.056 113.247C217.027 113.25 216.998 113.252 216.968 113.253C216.672 113.256 216.404 113.087 216.282 112.821C216.01 112.234 215.674 111.644 215.276 111.068C215.124 110.845 215.099 110.562 215.216 110.32C216.445 107.742 217.209 104.99 217.475 102.139C217.548 101.384 217.584 100.615 217.586 99.8445C217.587 99.4595 217.872 99.1372 218.252 99.0991C218.632 99.061 218.979 99.3084 219.066 99.6824C219.205 100.316 219.314 100.949 219.393 101.576C219.873 105.375 219.284 109.155 217.643 112.812C217.535 113.053 217.314 113.214 217.056 113.247ZM216.749 110.576C216.786 110.637 216.825 110.698 216.866 110.759C217.09 110.141 217.284 109.521 217.445 108.899C217.234 109.465 217.002 110.024 216.749 110.576Z" fill="#6C6C6C"/>
<path d="M217.322 111.666C216.893 111.518 216.506 111.305 216.162 111.038C216.075 110.901 215.99 110.773 215.899 110.637C216.914 108.51 217.64 106.212 218.026 103.795C218.278 103.758 218.542 103.739 218.805 103.751C218.858 106.473 218.331 109.141 217.322 111.666Z" fill="#FF9999"/>
<path fill-rule="evenodd" clip-rule="evenodd" d="M217.408 112.411C217.297 112.425 217.182 112.415 217.068 112.375C216.573 112.201 216.107 111.954 215.691 111.626C215.625 111.575 215.573 111.513 215.525 111.445C215.444 111.317 215.359 111.189 215.274 111.062C215.123 110.844 215.102 110.56 215.215 110.319C216.217 108.213 216.913 105.979 217.279 103.677C217.332 103.355 217.586 103.105 217.906 103.055C218.216 103.011 218.525 102.992 218.827 103.003C219.224 103.017 219.54 103.338 219.546 103.737C219.6 106.508 219.08 109.269 218.006 111.946C217.901 112.206 217.666 112.379 217.408 112.411ZM216.759 110.554C216.806 110.587 216.853 110.619 216.9 110.649C217.101 110.081 217.278 109.511 217.429 108.939C217.222 109.485 216.999 110.023 216.759 110.554Z" fill="#6C6C6C"/>
<path d="M189.85 111.149C189.573 111.184 189.286 111.062 189.126 110.816C188.617 110.026 187.665 109.673 186.765 109.934C186.37 110.048 185.956 109.819 185.837 109.425C185.723 109.029 185.951 108.611 186.346 108.497C187.889 108.05 189.51 108.655 190.381 110.001C190.607 110.348 190.508 110.809 190.161 111.036C190.065 111.097 189.956 111.135 189.85 111.149Z" fill="#6C6C6C"/>
<path d="M189.854 111.156C189.635 111.183 189.41 111.118 189.241 110.952C188.944 110.669 188.933 110.196 189.216 109.894C190.311 108.754 192.056 108.46 193.459 109.176C193.828 109.366 193.974 109.817 193.788 110.185C193.598 110.55 193.148 110.701 192.778 110.51C191.955 110.091 190.936 110.264 190.3 110.932C190.178 111.061 190.019 111.135 189.854 111.156Z" fill="#6C6C6C"/>
<path d="M189.228 115.967C189.173 115.974 189.119 115.975 189.065 115.968C188.651 115.932 188.348 115.565 188.385 115.156C188.599 112.864 188.7 111.938 188.917 110.183C188.969 109.772 189.342 109.478 189.753 109.53C190.164 109.581 190.454 109.959 190.401 110.366C190.186 112.101 190.09 113.021 189.878 115.293C189.844 115.648 189.568 115.925 189.228 115.967Z" fill="#6C6C6C"/>
<g opacity="0.3">
<g opacity="0.3">
<path opacity="0.3" d="M169.205 109.744C170.359 113.142 173.975 115.829 177.13 118.259C170.952 116.416 167.7 114.012 167.375 111.046C167.21 109.033 166.849 108.753 169.205 109.744Z" fill="#6C6C6C"/>
</g>
</g>
<path d="M201.717 113.581C203.46 112.88 204.906 113.705 203.676 116.079C198.396 126.268 178.381 124.807 174.638 113.954C173.768 111.428 175.316 110.821 176.94 111.773C184.04 115.928 194.086 116.661 201.717 113.581Z" fill="white"/>
<path fill-rule="evenodd" clip-rule="evenodd" d="M193.205 123.145C191.722 123.365 190.161 123.42 188.551 123.305C181.631 122.797 176.02 119.179 174.263 114.083C173.665 112.348 174.187 111.585 174.556 111.282C175.158 110.789 176.15 110.844 177.143 111.426C184.188 115.546 194.003 116.264 201.572 113.21C202.636 112.777 203.626 112.869 204.149 113.447C204.469 113.797 204.877 114.63 204.036 116.261C202.13 119.933 198.106 122.419 193.205 123.145ZM175.418 111.757C175.278 111.778 175.156 111.826 175.062 111.903C174.714 112.189 174.698 112.89 175.018 113.822C176.672 118.616 182.006 122.023 188.612 122.504C195.215 122.99 200.99 120.393 203.322 115.89C203.776 115.015 203.861 114.321 203.557 113.985C203.268 113.667 202.608 113.656 201.87 113.95C194.086 117.092 183.987 116.354 176.738 112.114C176.249 111.829 175.771 111.705 175.418 111.757Z" fill="#6C6C6C"/>
<path d="M175.098 113.575C175.969 114.452 177.032 115.169 178.155 115.777C179.284 116.384 180.478 116.886 181.695 117.328C181.821 117.373 181.884 117.512 181.84 117.635C181.794 117.754 181.668 117.819 181.547 117.784C180.285 117.418 179.037 116.99 177.826 116.441C176.619 115.889 175.443 115.212 174.411 114.302C174.202 114.118 174.182 113.803 174.363 113.595C174.547 113.388 174.862 113.368 175.071 113.549C175.079 113.557 175.087 113.565 175.094 113.572L175.098 113.575Z" fill="#6C6C6C"/>
<path d="M203.844 116.479C202.666 117.223 201.385 117.711 200.094 118.071C198.8 118.431 197.484 118.663 196.168 118.831C196.048 118.846 195.939 118.762 195.925 118.642C195.911 118.528 195.985 118.424 196.098 118.401C197.383 118.141 198.657 117.82 199.876 117.385C201.093 116.95 202.269 116.395 203.274 115.653L203.278 115.653C203.501 115.487 203.813 115.534 203.978 115.758C204.144 115.978 204.094 116.293 203.874 116.458C203.861 116.464 203.852 116.471 203.844 116.479Z" fill="#6C6C6C"/>
<g opacity="0.3">
<g opacity="0.3">
<path opacity="0.3" d="M203.801 114.873C203.258 116.791 200.847 118.015 196.569 118.542C198.919 117.291 201.599 115.92 202.74 113.808C204.406 113.416 204.133 113.562 203.801 114.873Z" fill="#6C6C6C"/>
</g>
</g>
<path fill-rule="evenodd" clip-rule="evenodd" d="M191.464 130.275C189.331 130.544 187.177 130.644 185.059 130.56C185.033 130.56 185.006 130.557 184.979 130.551C169.809 128.369 158.976 120.314 159.778 111.813C159.997 109.52 161.036 107.386 162.868 105.476C162.183 102.671 161.973 99.7904 162.246 96.9082C162.408 95.185 162.746 93.4792 163.243 91.8322C163.279 91.724 163.331 91.6286 163.405 91.5502C168.625 85.7489 176.571 81.7997 185.209 80.7097C192.962 79.7312 200.669 81.0832 206.921 84.5188C213.174 87.9593 217.451 93.184 218.949 99.2282C218.963 99.2857 218.97 99.3424 218.97 99.3982C218.987 100.354 218.951 101.32 218.859 102.27C218.586 105.152 217.842 107.94 216.639 110.57C217.012 111.14 217.328 111.722 217.589 112.306C217.678 112.502 217.676 112.724 217.588 112.923C215.574 117.342 212.114 121.293 207.575 124.353C202.932 127.486 197.361 129.531 191.464 130.275ZM185.157 129.067C187.18 129.143 189.241 129.051 191.277 128.794C202.552 127.371 212.021 121.181 216.083 112.614C215.829 112.089 215.522 111.57 215.166 111.057C215.015 110.839 214.993 110.551 215.111 110.309C216.34 107.73 217.098 104.979 217.37 102.127C217.454 101.263 217.485 100.38 217.479 99.5075C214.488 87.6996 200.718 80.2626 185.396 82.1962C177.172 83.2341 169.617 86.9563 164.631 92.4269C164.184 93.9294 163.882 95.4827 163.734 97.051C163.467 99.8979 163.693 102.747 164.422 105.512C164.489 105.77 164.41 106.047 164.222 106.233C162.457 107.971 161.466 109.893 161.272 111.955C160.558 119.513 171.045 127.023 185.157 129.067Z" fill="#6C6C6C"/>
<path d="M147.346 91.5958C151.302 91.6542 154.455 95.4464 154.387 100.069C154.319 104.693 151.06 108.391 147.104 108.332C143.149 108.279 139.995 104.482 140.063 99.8586C140.131 95.2355 143.395 91.5366 147.346 91.5958Z" fill="white"/>
<path fill-rule="evenodd" clip-rule="evenodd" d="M148.094 109.183C147.764 109.225 147.428 109.243 147.089 109.236C144.913 109.205 142.885 108.192 141.384 106.388C139.918 104.623 139.131 102.299 139.168 99.8518C139.238 94.7398 142.921 90.6377 147.36 90.6993C151.805 90.7651 155.362 94.9752 155.287 100.088C155.25 102.535 154.395 104.835 152.88 106.556C151.568 108.044 149.896 108.956 148.094 109.183ZM146.595 92.538C143.481 92.931 141.018 96.055 140.963 99.877C140.931 101.899 141.571 103.803 142.765 105.241C143.928 106.634 145.472 107.417 147.119 107.441C148.761 107.466 150.331 106.729 151.531 105.369C152.765 103.964 153.46 102.08 153.491 100.058C153.549 95.9394 150.787 92.547 147.335 92.494C147.085 92.4927 146.838 92.5074 146.595 92.538Z" fill="#64EDFF"/>
<path d="M144.151 107.547C141.696 106.194 140.016 103.252 140.063 99.8654C140.122 96.0331 142.374 92.837 145.393 91.8885C145.549 91.8688 145.711 91.8632 145.874 91.8673C149.024 91.9139 151.518 95.5277 151.458 99.9425C151.393 104.353 148.79 107.894 145.64 107.848C145.122 107.844 144.625 107.739 144.151 107.547Z" fill="white"/>
<path fill-rule="evenodd" clip-rule="evenodd" d="M146.324 108.561C146.094 108.59 145.864 108.603 145.633 108.599C145.035 108.591 144.442 108.473 143.876 108.243C143.848 108.234 143.82 108.221 143.792 108.205C141.023 106.679 139.267 103.401 139.318 99.8561C139.379 95.8063 141.781 92.236 145.171 91.1716C145.219 91.159 145.268 91.1494 145.32 91.1429C145.515 91.1232 145.707 91.1139 145.889 91.1155C149.44 91.1708 152.274 95.1315 152.206 99.952C152.174 102.241 151.499 104.394 150.311 106.01C149.228 107.484 147.83 108.371 146.324 108.561ZM144.472 106.87C144.856 107.019 145.256 107.097 145.651 107.101C146.927 107.118 148.151 106.416 149.103 105.126C150.11 103.755 150.682 101.911 150.708 99.9289C150.766 95.9338 148.596 92.6543 145.866 92.6138C145.761 92.6139 145.654 92.6175 145.547 92.6245C142.803 93.5284 140.863 96.4975 140.816 99.8792C140.773 102.861 142.204 105.597 144.472 106.87Z" fill="#64EDFF"/>
<path d="M171.876 70.1948C173.392 73.7593 171.697 74.4864 168.375 72.4084C165.922 70.8772 163.185 70.3095 160.578 69.9919C157.857 67.5518 160.495 63.6605 165.222 64.9049C167.582 65.3819 170.431 66.7991 171.876 70.1948Z" fill="white"/>
<path fill-rule="evenodd" clip-rule="evenodd" d="M171.639 74.4466C170.697 74.5655 169.444 74.1412 167.9 73.1713C165.479 71.6607 162.786 71.1665 160.47 70.8862C160.289 70.8597 160.117 70.7827 159.978 70.662C158.575 69.4029 158.196 67.6099 159.012 66.1003C159.892 64.4643 162.219 63.1934 165.429 64.032C167.404 64.4342 170.953 65.7236 172.707 69.8453C173.557 71.8504 173.546 73.2485 172.664 74.0062C172.376 74.2499 172.034 74.3967 171.639 74.4466ZM160.99 69.1376C163.308 69.4374 166.233 70.0109 168.853 71.6494C170.605 72.746 171.385 72.7068 171.5 72.6381C171.495 72.6387 171.747 72.1774 171.053 70.5476C169.615 67.1658 166.674 66.1155 165.048 65.7877C165.031 65.7832 165.014 65.7788 164.997 65.7744C162.715 65.174 161.143 65.935 160.591 66.9523C160.203 67.6773 160.346 68.4588 160.99 69.1376Z" fill="#64EDFF"/>
<path d="M211.411 73.3226C211.626 74.169 210.967 75.0073 210.131 75.2706C209.301 75.5382 208.268 75.2491 207.962 74.429C206.71 71.0731 203.863 67.9924 200.714 66.2282C204.442 63.5072 208.912 63.2985 211.411 73.3226Z" fill="white"/>
<path fill-rule="evenodd" clip-rule="evenodd" d="M209.893 76.2381C208.79 76.3773 207.541 75.9032 207.109 74.7437C205.975 71.7035 203.35 68.738 200.265 67.015C200 66.8659 199.827 66.5916 199.808 66.283C199.789 65.9794 199.925 65.6859 200.174 65.5064C202.464 63.8305 204.598 63.3343 206.511 64.0256C209.061 64.9524 211.001 68.0044 212.276 73.1045C212.588 74.3631 211.764 75.6911 210.397 76.1252C210.236 76.18 210.063 76.2167 209.893 76.2381ZM202.391 66.2187C205.28 68.1933 207.672 71.1142 208.791 74.1168C208.911 74.4373 209.457 74.5411 209.851 74.4174C210.244 74.2888 210.619 73.8911 210.53 73.542C209.429 69.1207 207.824 66.4115 205.9 65.7165C204.876 65.3424 203.698 65.5157 202.391 66.2187Z" fill="#64EDFF"/>
<g opacity="0.3">
<g opacity="0.3">
<path opacity="0.3" d="M143.209 100.172C143.079 103.366 144.536 106.42 147.097 108.338C142.938 107.841 139.857 104.227 140.024 100.041C140.192 95.854 143.549 92.4988 147.738 92.3353C145.031 94.039 143.338 96.972 143.209 100.172Z" fill="#6C6C6C"/>
</g>
</g>
<g opacity="0.3">
<g opacity="0.3">
<path opacity="0.3" d="M207.295 74.9145C205.118 72.238 202.052 69.9434 198.096 68.0309C196.297 65.0401 197.173 64.436 200.729 66.218C202.975 66.9611 205.166 69.858 207.295 74.9145Z" fill="#6C6C6C"/>
</g>
</g>
<g opacity="0.3">
<g opacity="0.3">
<path opacity="0.3" d="M160.172 65.9729C161.044 64.9102 162.58 64.6819 163.723 65.4458C162.941 65.1989 162.1 65.5716 161.759 66.3154C161.425 67.0634 161.592 68.1922 162.389 68.368C165.675 69.1033 168.846 70.3367 171.767 72.8354C170.357 73.1614 166.552 72.0689 160.352 69.5578C159.377 68.5902 159.299 67.0355 160.172 65.9729Z" fill="#6C6C6C"/>
</g>
</g>
<g opacity="0.3">
<g opacity="0.3">
<path opacity="0.3" d="M202.503 65.4347C207.163 68.3144 209.433 71.5073 209.313 75.0134C207.116 71.9182 204.585 69.1448 201.719 66.6934C201.631 66.7012 201.892 66.2816 202.503 65.4347Z" fill="#6C6C6C"/>
</g>
</g>
<g opacity="0.3">
<g opacity="0.3">
<path opacity="0.3" d="M216.48 111.755C212.636 120.482 202.909 127.41 190.827 128.935C174.087 131.047 159.16 121.994 157.485 108.718C156.722 102.674 158.833 96.7965 162.944 91.9889C161.458 95.3498 160.851 98.9848 161.317 102.677C162.993 115.954 177.924 125.006 194.665 122.893C197.181 122.576 199.594 122.024 201.872 121.268C201.068 121.069 200.242 120.827 199.4 120.529C202.565 120.182 205.739 119.308 208.925 117.905C208.904 117.972 208.877 118.035 208.86 118.096C211.831 116.335 214.412 114.183 216.48 111.755Z" fill="#6C6C6C"/>
</g>
</g>
<path fill-rule="evenodd" clip-rule="evenodd" d="M190.901 129.526C173.86 131.676 158.6 122.374 156.886 108.792C155.172 95.2087 167.642 82.4072 184.684 80.2566C201.725 78.1059 216.985 87.4081 218.699 100.991C220.413 114.574 207.943 127.375 190.901 129.526ZM184.833 81.4419C168.447 83.5098 156.445 95.7143 158.076 108.641C159.708 121.568 174.365 130.404 190.751 128.336C207.137 126.268 219.14 114.068 217.509 101.141C215.877 88.2141 201.219 79.374 184.833 81.4419Z" fill="#6C6C6C"/>
<path d="M204.067 103.052C203.424 105.897 201.433 107.757 199.617 107.206C197.805 106.655 196.85 103.903 197.493 101.058C198.136 98.2134 200.127 96.3532 201.944 96.9038C203.76 97.4543 204.71 100.207 204.067 103.052Z" fill="#6C6C6C"/>
<path d="M203.049 99.6287C203.199 100.626 202.814 101.563 202.193 101.721C201.57 101.873 200.946 101.187 200.794 100.185C200.649 99.1863 201.033 98.2445 201.656 98.092C202.278 97.9394 202.903 98.6255 203.049 99.6287Z" fill="white"/>
<path d="M199.711 104.523C199.887 105.015 199.782 105.551 199.477 105.723C199.168 105.89 198.775 105.629 198.599 105.137C198.424 104.646 198.529 104.11 198.838 103.938C199.142 103.771 199.536 104.032 199.711 104.523Z" fill="white"/>
<path d="M180.694 95.4698C182.525 95.3128 184.032 97.4768 184.062 100.296C184.097 103.119 182.639 105.529 180.813 105.681C178.987 105.837 177.475 103.674 177.445 100.855C177.414 98.0306 178.867 95.6214 180.694 95.4698Z" fill="#6C6C6C"/>
<path d="M180.733 96.6323C181.29 96.9026 181.466 97.8674 181.123 98.7843C180.779 99.7011 180.051 100.227 179.493 99.9523C178.936 99.6821 178.76 98.7172 179.103 97.8003C179.446 96.8835 180.175 96.3621 180.733 96.6323Z" fill="white"/>
<path d="M182.194 102.744C182.454 102.968 182.447 103.497 182.18 103.926C181.913 104.354 181.491 104.526 181.231 104.302C180.975 104.078 180.983 103.549 181.249 103.12C181.516 102.692 181.939 102.525 182.194 102.744Z" fill="white"/>
<g opacity="0.2">
<g opacity="0.2">
<g opacity="0.2">
<path opacity="0.2" d="M163.06 102.309C162.849 100.563 162.822 98.7803 162.993 96.9673C163.153 95.2641 163.483 93.6184 163.965 92.0376C168.899 86.5585 176.474 82.5575 185.305 81.443C201.079 79.4524 215.241 87.3729 218.225 99.3989C218.242 100.32 218.207 101.252 218.118 102.191C218.114 102.241 218.105 102.286 218.102 102.336C214.593 90.8798 200.789 83.452 185.462 85.3862C176.631 86.5008 169.056 90.5017 164.122 95.9808C163.64 97.5617 163.31 99.2073 163.15 100.91C163.105 101.38 163.08 101.842 163.06 102.309Z" fill="#6C6C6C"/>
</g>
</g>
<g opacity="0.2">
<g opacity="0.2">
<path opacity="0.2" d="M216.84 112.454C216.866 112.505 216.892 112.556 216.914 112.607C216.674 113.134 216.414 113.654 216.133 114.167C216.388 113.606 216.627 113.033 216.84 112.454Z" fill="#6C6C6C"/>
</g>
</g>
<g opacity="0.2">
<g opacity="0.2">
<path opacity="0.2" d="M160.813 115.006C160.541 113.979 160.443 112.931 160.542 111.882C160.739 109.799 161.682 107.888 163.221 106.204C163.359 107.371 163.573 108.518 163.867 109.641C162.256 111.226 161.196 113.033 160.813 115.006Z" fill="#6C6C6C"/>
</g>
</g>
</g>
<path fill-rule="evenodd" clip-rule="evenodd" d="M183.405 54.1225C182.333 56.9469 182.46 59.8843 182.909 61.7528L184.616 61.3432C184.233 59.7465 184.124 57.1776 185.046 54.7452C185.953 52.3567 187.865 50.0578 191.637 48.9075L191.124 47.2283C186.806 48.5456 184.493 51.2541 183.405 54.1225Z" fill="#64EDFF"/>
<path d="M187.854 48.2351C188.064 49.8986 189.583 51.077 191.246 50.8671C192.91 50.6571 194.088 49.1384 193.878 47.4748C193.668 45.8112 192.149 44.6328 190.486 44.8428C188.822 45.0527 187.644 46.5715 187.854 48.2351Z" fill="#64EDFF"/>
<path fill-rule="evenodd" clip-rule="evenodd" d="M176.201 49.8708C176.2 49.8706 176.202 49.8785 176.208 49.8955C176.205 49.8796 176.202 49.8711 176.201 49.8708ZM176.629 50.4968C177.031 50.4771 177.559 50.4984 178.215 50.5827C180.113 50.8267 182.682 51.545 185.438 52.7142C188.195 53.8834 190.497 55.2318 191.991 56.4268C192.508 56.8398 192.89 57.2048 193.155 57.5075C192.753 57.5272 192.225 57.5059 191.569 57.4216C189.671 57.1776 187.102 56.4594 184.346 55.2901C181.59 54.1209 179.287 52.7725 177.793 51.5775C177.277 51.1645 176.894 50.7995 176.629 50.4968ZM193.903 57.3804C193.902 57.38 193.894 57.3834 193.88 57.3919C193.897 57.385 193.904 57.3808 193.903 57.3804ZM193.583 58.1335C193.584 58.1337 193.583 58.1258 193.576 58.1088C193.579 58.1247 193.583 58.1332 193.583 58.1335ZM175.904 50.6124C175.887 50.6193 175.88 50.6235 175.881 50.6239C175.882 50.6243 175.89 50.6209 175.904 50.6124ZM183.66 56.9063C177.939 54.4795 173.853 51.2119 174.534 49.608C175.214 48.0041 180.403 48.6712 186.124 51.098C191.845 53.5249 195.931 56.7924 195.25 58.3963C194.57 60.0002 189.381 59.3331 183.66 56.9063Z" fill="#64EDFF"/>
<mask id="mask2_8842_63384" style="mask-type:alpha" maskUnits="userSpaceOnUse" x="77" y="52" width="190" height="175">
<path d="M77.9395 52.7643L91.9383 186.96C153.533 218.82 187.115 226.463 196.206 226.302C229.031 207.572 257.028 179.88 266.924 168.376L263.304 100.071L229.402 52.7643L77.9395 52.7643Z" fill="url(#paint17_linear_8842_63384)"/>
</mask>
<g mask="url(#mask2_8842_63384)">
</g>
<path d="M189.448 222.198C151.41 218.143 105.053 193.154 86.6289 181.166C89.9114 230.211 156.543 261.137 189.448 262.746C242.934 269.89 258.879 194.28 260.167 163.306C240.472 185.704 204.815 211.9 189.448 222.198Z" fill="url(#paint18_linear_8842_63384)"/>
<path d="M252.48 248.989C243.984 251.112 220.46 254.218 209.76 255.505C208.408 258.402 210.001 261.539 210.966 262.746C230.661 261.588 247.492 257.436 253.446 255.505C255.956 252.03 253.848 249.713 252.48 248.989Z" fill="#B88DF7"/>
<path d="M275.404 94.2879C275.404 94.2879 257.884 93.788 237.667 97.5078L235.557 92.1889L233.239 86.361C233.239 86.361 253.535 77.6301 265.733 65.4692L275.404 94.2879Z" fill="#AEC3FF"/>
<path d="M265.455 65.1839L275.515 94.8583C276.982 94.4229 277.787 92.8447 277.275 91.3976L268.424 66.4663C267.996 65.26 266.628 64.669 265.455 65.1839Z" fill="#F99746"/>
<path d="M255.853 116.37C253.898 116.763 251.979 115.483 251.588 113.528L248.127 96.209C247.732 94.2566 249.01 92.3371 250.969 91.9472C252.924 91.5573 254.843 92.837 255.238 94.7898L258.699 112.108C259.09 114.061 257.807 115.98 255.853 116.37Z" fill="#F99746"/>
<path d="M275.404 94.2858C275.404 94.2858 257.886 93.7863 237.667 97.5059L235.556 92.1869C254.551 88.3119 275.404 94.2858 275.404 94.2858Z" fill="#739AF0"/>
<path d="M243.26 96.439L237.785 97.4018C237.869 97.4048 232.7 98.407 231.005 93.8285C230.85 93.5144 230.75 93.207 230.683 92.8414C229.364 87.1357 232.499 86.0846 232.499 86.0846L239.547 83.3399L241.782 91.2574C241.782 91.2574 241.782 91.2574 241.782 91.2846L243.26 96.439Z" fill="#F99746"/>
<path d="M243.26 96.4392L237.786 97.4018C237.869 97.4048 232.7 98.407 231.005 93.8284C234.103 91.5772 241.786 91.2572 241.786 91.2572C241.786 91.2572 241.786 91.2572 241.786 91.2847L243.26 96.4392Z" fill="#ED7D2B"/>
<path d="M252.48 262.987C243.984 265.111 220.46 268.217 209.76 269.504C208.408 272.4 210.001 275.538 210.966 276.745C230.661 275.586 247.492 271.435 253.446 269.504C255.956 266.028 253.848 263.711 252.48 262.987Z" fill="url(#paint19_linear_8842_63384)"/>
</g>
<rect x="44.9238" y="44.9243" width="79.3067" height="49.2249" rx="24.6124" fill="#64EDB2"/>
<g clip-path="url(#clip0_8842_63384)">
<path d="M81.5011 79.0757L72.2715 70.2172L75.1337 67.274L81.4468 73.2979L93.9684 60.5446L96.8839 63.4334L81.5011 79.0757Z" fill="white"/>
</g>
<path d="M314.03 169.894C314.03 180.845 322.978 189.723 334.016 189.723C345.054 189.723 354 180.845 354 169.894C354 158.943 345.054 150.067 334.016 150.067C322.978 150.067 314.03 158.943 314.03 169.894Z" fill="url(#paint20_radial_8842_63384)"/>
<path d="M318.025 169.695C318.025 170.483 318.082 171.266 318.192 172.024C318.192 172.027 318.193 172.029 318.193 172.032C318.301 172.793 318.464 173.538 318.677 174.261C319.023 175.466 319.511 176.61 320.113 177.68C320.548 178.456 321.044 179.191 321.594 179.881C324.626 183.682 329.314 186.119 334.579 186.119C335.506 186.119 336.418 186.042 337.303 185.895C337.97 185.787 338.621 185.64 339.254 185.452C340.986 184.949 342.602 184.17 344.05 183.162C344.302 182.989 344.551 182.804 344.792 182.616C345.854 181.794 346.806 180.84 347.636 179.789C347.721 179.681 347.803 179.57 347.885 179.461C348.454 178.7 348.96 177.883 349.393 177.028C350.073 175.677 350.574 174.218 350.857 172.686C350.985 171.992 351.07 171.284 351.108 170.56C351.121 170.272 351.129 169.983 351.129 169.695C351.129 169.005 351.085 168.325 351.004 167.662C350.954 167.282 350.895 166.909 350.822 166.537C350.821 166.535 350.821 166.534 350.821 166.533C350.821 166.532 350.821 166.53 350.821 166.529C350.433 164.558 349.689 162.714 348.66 161.06C348.424 160.685 348.175 160.319 347.911 159.965C346.899 158.603 345.679 157.398 344.299 156.401C341.571 154.434 338.211 153.271 334.579 153.271C332.927 153.271 331.327 153.51 329.825 153.961C328.206 154.441 326.691 155.158 325.325 156.081C325.036 156.273 324.749 156.475 324.474 156.686C323.465 157.459 322.55 158.341 321.754 159.319C321.556 159.554 321.367 159.795 321.188 160.042C320.574 160.875 320.043 161.767 319.6 162.707C319.38 163.158 319.186 163.623 319.011 164.096C318.785 164.719 318.596 165.358 318.444 166.013C318.443 166.014 318.443 166.015 318.443 166.016C318.443 166.018 318.443 166.019 318.443 166.02C318.308 166.6 318.208 167.189 318.137 167.79C318.075 168.336 318.037 168.89 318.029 169.452C318.025 169.533 318.025 169.614 318.025 169.695Z" fill="url(#paint21_linear_8842_63384)"/>
<path style="mix-blend-mode:overlay" d="M324.473 156.686C322.97 157.838 323.51 160.063 325.349 160.516C327.202 160.974 329.223 161.218 331.294 161.036C335.688 160.647 341.18 161.35 345.82 163.413C347.583 164.197 349.678 162.698 348.659 161.06C348.206 160.339 347.442 159.886 346.601 159.754C343.509 159.269 340.006 158.824 336.882 158.676C332.764 158.48 329.19 157.564 326.294 156.466C325.684 156.234 324.991 156.289 324.473 156.686Z" fill="url(#paint22_linear_8842_63384)"/>
<path style="mix-blend-mode:overlay" d="M318.445 166.015C318.445 166.016 318.445 166.016 318.445 166.016C318.445 166.018 318.446 166.02 318.447 166.021C319.625 166.701 321.09 167.417 322.916 168.117C325.833 169.238 331.161 170.247 335.069 171.374C336.71 171.845 340.59 170.578 342.053 171.016C343.573 171.464 345.033 172.412 346.349 173.595C347.907 174.996 350.478 174.747 350.859 172.687C351.108 171.329 350.674 169.926 349.666 168.982C347.409 166.872 343.95 165.116 338.841 165.739C332.657 166.493 325.892 164.85 321.025 163.207C320.212 162.933 319.31 163.292 319.013 164.097C318.787 164.721 318.597 165.36 318.445 166.015Z" fill="url(#paint23_linear_8842_63384)"/>
<path style="mix-blend-mode:overlay" d="M320.353 170.579C319.322 170.127 318.123 170.904 318.195 172.028C318.195 172.03 318.196 172.032 318.198 172.033C319.43 172.713 320.928 173.51 322.63 174.353C326.393 176.219 330.076 181.807 335.348 181.405C338.079 181.195 340.885 181.931 343.196 182.818C343.733 183.024 344.341 182.969 344.794 182.615C345.856 181.794 346.808 180.84 347.638 179.788C347.775 179.615 347.725 179.361 347.536 179.247C343.295 176.69 336.99 173.569 332.137 173.368C327.794 173.187 324.041 172.097 321.194 170.935C320.904 170.817 320.623 170.698 320.353 170.579Z" fill="url(#paint24_linear_8842_63384)"/>
<path style="mix-blend-mode:overlay" d="M334.577 153.271C332.784 153.271 332.577 155.237 334.318 155.666C334.976 155.828 335.639 155.961 336.299 156.069C338.96 156.504 339.598 153.813 336.928 153.436C336.16 153.328 335.375 153.271 334.577 153.271Z" fill="url(#paint25_linear_8842_63384)"/>
<path style="mix-blend-mode:overlay" d="M329.272 182.585C327.398 182.346 326.298 184.044 328.035 184.787C330.042 185.645 332.255 186.121 334.581 186.121C335.589 186.121 335.867 184.936 334.975 184.466C333.461 183.67 331.477 182.867 329.272 182.585Z" fill="url(#paint26_linear_8842_63384)"/>
<path d="M274.1 254.771C274.1 271.428 287.608 284.925 304.27 284.925C320.932 284.925 334.44 271.428 334.44 254.771C334.44 238.119 320.932 224.622 304.27 224.622C287.608 224.622 274.1 238.119 274.1 254.771Z" fill="url(#paint27_radial_8842_63384)"/>
<path d="M281.387 249.439C281.176 250.738 281.086 252.026 281.112 253.296C281.158 256.379 281.863 259.349 283.102 262.039C283.617 263.144 284.208 264.196 284.891 265.197C288.156 269.995 293.317 273.49 299.499 274.484C303.919 275.196 308.232 274.534 312.019 272.806C316.407 270.814 320.072 267.394 322.349 263.055C323.412 261.016 324.174 258.78 324.557 256.39C324.64 255.882 324.701 255.374 324.751 254.866C324.804 254.229 324.84 253.596 324.84 252.963C324.84 251.468 324.697 250.005 324.403 248.577C323.745 245.293 322.331 242.238 320.334 239.627C317.059 235.348 312.198 232.265 306.453 231.338C300.848 230.436 295.4 231.753 290.994 234.629C290.224 235.141 289.484 235.699 288.775 236.3C287.902 237.04 287.082 237.859 286.327 238.743C283.814 241.691 282.049 245.34 281.387 249.439Z" fill="url(#paint28_linear_8842_63384)"/>
<g style="mix-blend-mode:overlay" opacity="0.38">
<path d="M288.773 236.299C292.364 237.465 297.056 239.057 301.312 240.714C306.294 242.653 316.728 246.09 324.402 248.577C323.743 245.293 322.33 242.238 320.332 239.626C316.982 238.549 313.231 237.784 309.666 237.977C303.882 238.295 296.347 236.342 290.993 234.629C290.223 235.14 289.482 235.698 288.773 236.299Z" fill="white"/>
</g>
<g style="mix-blend-mode:overlay" opacity="0.38">
<path d="M324.84 252.962C323.451 252.283 311.479 250.05 304.416 247.596C299.205 245.779 290.897 241.3 286.327 238.742C283.814 241.69 282.049 245.339 281.387 249.439C281.176 250.737 281.086 252.025 281.112 253.295C287.522 253.002 296.163 252.504 302.598 251.767C311.636 250.726 321.057 253.57 324.751 254.865L324.84 252.962Z" fill="white"/>
</g>
<g style="mix-blend-mode:overlay" opacity="0.38">
<path d="M283.102 262.039C283.617 263.145 284.208 264.196 284.891 265.198L300.551 267.631L312.019 272.807C316.407 270.814 320.073 267.394 322.349 263.055C320.456 262.186 317.381 261.492 312.366 261.631C304.245 261.853 295.325 262.032 285.604 262.164L283.102 262.039Z" fill="white"/>
</g>
<path d="M283.891 242.235C283.351 243.197 282.885 244.206 282.492 245.261C277.627 245.197 274.585 245.651 274.42 246.667C274.263 247.655 276.854 248.996 281.257 250.413C286.5 252.094 294.303 253.876 303.094 255.292C311.362 256.623 318.904 257.374 324.348 257.499C329.567 257.614 332.863 257.163 333.035 256.104C333.207 255.024 330.057 253.504 324.821 251.933C324.767 250.81 324.631 249.694 324.413 248.61C334.496 251.629 340.946 255.128 340.505 257.861C340.076 260.53 333.175 261.825 323.038 261.603C317.061 261.478 309.959 260.816 302.4 259.599C294.393 258.312 287.073 256.584 281.178 254.713C272.072 251.819 266.363 248.56 266.775 245.988C267.201 243.351 273.955 242.049 283.891 242.235Z" fill="url(#paint29_linear_8842_63384)"/>
<path d="M0.45105 162.824L0.501573 162.706C0.501573 162.677 0.523226 162.651 0.535255 162.622C0.547285 162.593 0.55931 162.562 0.573746 162.533C1.01883 161.474 1.71173 160.579 2.57063 160.084L2.81121 159.942L32.3025 142.908L61.7938 125.875L62.0344 125.735C62.7684 125.262 63.7 125.22 64.4739 125.624L64.5317 125.656L64.5918 125.687L68.4845 127.932L66.2398 128.894L74.0325 170.181C74.2143 171.298 74.0671 172.443 73.609 173.477L73.573 173.566L73.5369 173.651C73.0918 174.712 72.3965 175.607 71.5376 176.102L12.7186 210.071L13.26 212.662L9.56933 210.526L9.51159 210.494C8.78983 210.109 8.25091 209.349 8.04882 208.283L0.0757278 166.002C-0.0994013 164.929 0.0306512 163.827 0.45105 162.824Z" fill="url(#paint30_linear_8842_63384)"/>
<path d="M6.64062 162.153L36.1319 145.119L45.3729 194.115L16.139 212.525C14.2143 213.641 12.2896 212.737 11.8782 210.504L3.90514 168.216C3.48411 165.983 4.7087 163.269 6.64062 162.153Z" fill="url(#paint31_linear_8842_63384)"/>
<path d="M65.625 128.08L36.1289 145.121L45.3121 193.808L75.121 178.452C77.0457 177.335 78.2775 174.621 77.8565 172.389L69.881 130.108C69.46 127.875 67.5497 126.971 65.625 128.08Z" fill="url(#paint32_linear_8842_63384)"/>
<path d="M77.4802 175.569C77.0332 176.765 76.2035 177.78 75.1201 178.456L16.1351 212.525C15.091 213.129 14.0564 213.136 13.248 212.67L39.6839 163.975L77.4802 175.569Z" fill="url(#paint33_linear_8842_63384)"/>
<path d="M4.2793 165.035C4.72885 163.839 5.55901 162.825 6.64187 162.148L65.6292 128.078C66.6734 127.477 67.7103 127.467 68.5163 127.934L42.0781 176.631L4.2793 165.035Z" fill="url(#paint34_linear_8842_63384)"/>
<defs>
<radialGradient id="paint0_radial_8842_63384" cx="0" cy="0" r="1" gradientUnits="userSpaceOnUse" gradientTransform="translate(283.945 105.634) rotate(180) scale(17.7075 17.6976)">
<stop stop-color="#FEE7CA"/>
<stop offset="1" stop-color="#FEE7CA" stop-opacity="0"/>
</radialGradient>
<linearGradient id="paint1_linear_8842_63384" x1="278.576" y1="129.588" x2="302.143" y2="111.021" gradientUnits="userSpaceOnUse">
<stop offset="0.137" stop-color="#A8658F"/>
<stop offset="1" stop-color="#F7D3A1"/>
</linearGradient>
<linearGradient id="paint2_linear_8842_63384" x1="298.836" y1="92.6313" x2="273.081" y2="92.6313" gradientUnits="userSpaceOnUse">
<stop stop-color="white" stop-opacity="0.78"/>
<stop offset="1" stop-color="white" stop-opacity="0"/>
</linearGradient>
<linearGradient id="paint3_linear_8842_63384" x1="299.087" y1="98.546" x2="270.145" y2="98.546" gradientUnits="userSpaceOnUse">
<stop stop-color="white" stop-opacity="0.78"/>
<stop offset="1" stop-color="white" stop-opacity="0"/>
</linearGradient>
<linearGradient id="paint4_linear_8842_63384" x1="296.231" y1="104.565" x2="269.778" y2="104.565" gradientUnits="userSpaceOnUse">
<stop stop-color="white" stop-opacity="0.78"/>
<stop offset="1" stop-color="white" stop-opacity="0"/>
</linearGradient>
<linearGradient id="paint5_linear_8842_63384" x1="293.056" y1="90.1541" x2="280.232" y2="90.1541" gradientUnits="userSpaceOnUse">
<stop stop-color="white" stop-opacity="0.78"/>
<stop offset="1" stop-color="white" stop-opacity="0"/>
</linearGradient>
<linearGradient id="paint6_linear_8842_63384" x1="286.86" y1="113.873" x2="272.941" y2="113.873" gradientUnits="userSpaceOnUse">
<stop stop-color="white" stop-opacity="0.78"/>
<stop offset="1" stop-color="white" stop-opacity="0"/>
</linearGradient>
<linearGradient id="paint7_linear_8842_63384" x1="171.708" y1="304.082" x2="171.708" y2="42.6489" gradientUnits="userSpaceOnUse">
<stop stop-color="#774BF0" stop-opacity="0.31"/>
<stop offset="1" stop-color="#FCFBFF" stop-opacity="0"/>
</linearGradient>
<linearGradient id="paint8_linear_8842_63384" x1="171.708" y1="304.083" x2="171.708" y2="42.6494" gradientUnits="userSpaceOnUse">
<stop stop-color="#774BF0"/>
<stop offset="1" stop-color="#FCFBFF"/>
</linearGradient>
<linearGradient id="paint9_linear_8842_63384" x1="173.76" y1="124.447" x2="173.76" y2="225.337" gradientUnits="userSpaceOnUse">
<stop stop-color="#8640EC" stop-opacity="0"/>
<stop offset="1" stop-color="#D8CBFB"/>
</linearGradient>
<linearGradient id="paint10_linear_8842_63384" x1="177.501" y1="162.582" x2="177.501" y2="297.744" gradientUnits="userSpaceOnUse">
<stop stop-color="#CDC0CB"/>
<stop offset="1" stop-color="#E4D2D1"/>
</linearGradient>
<linearGradient id="paint11_linear_8842_63384" x1="102.858" y1="84.1451" x2="119.481" y2="120.222" gradientUnits="userSpaceOnUse">
<stop stop-color="#FC8124"/>
<stop offset="1" stop-color="#CC7500"/>
</linearGradient>
<linearGradient id="paint12_linear_8842_63384" x1="234.485" y1="90.5271" x2="239.274" y2="146.475" gradientUnits="userSpaceOnUse">
<stop stop-color="#FC8124"/>
<stop offset="1" stop-color="#FC8125"/>
</linearGradient>
<linearGradient id="paint13_linear_8842_63384" x1="182.929" y1="98.1221" x2="182.929" y2="177.704" gradientUnits="userSpaceOnUse">
<stop stop-color="#474CB6"/>
<stop offset="1" stop-color="#4B50B9"/>
</linearGradient>
<linearGradient id="paint14_linear_8842_63384" x1="188.6" y1="106.2" x2="180.662" y2="222.976" gradientUnits="userSpaceOnUse">
<stop stop-color="#2F349D"/>
<stop offset="1" stop-color="#5B60CA"/>
</linearGradient>
<linearGradient id="paint15_linear_8842_63384" x1="148.917" y1="215.951" x2="147.524" y2="236.451" gradientUnits="userSpaceOnUse">
<stop stop-color="#EA7E25"/>
<stop offset="1" stop-color="#FC861F"/>
</linearGradient>
<linearGradient id="paint16_linear_8842_63384" x1="212.005" y1="215.09" x2="216.029" y2="235.05" gradientUnits="userSpaceOnUse">
<stop stop-color="#FB9B08"/>
<stop offset="1" stop-color="#FC7432"/>
</linearGradient>
<linearGradient id="paint17_linear_8842_63384" x1="179.431" y1="125.414" x2="179.431" y2="226.305" gradientUnits="userSpaceOnUse">
<stop stop-color="#3E44AD"/>
<stop offset="1" stop-color="#3E44AD"/>
</linearGradient>
<linearGradient id="paint18_linear_8842_63384" x1="144.073" y1="192.752" x2="220.584" y2="246.092" gradientUnits="userSpaceOnUse">
<stop stop-color="#F6EAE9"/>
<stop offset="1" stop-color="#F6EAE9"/>
</linearGradient>
<linearGradient id="paint19_linear_8842_63384" x1="231.927" y1="262.987" x2="231.927" y2="276.745" gradientUnits="userSpaceOnUse">
<stop stop-color="#F8BB85"/>
<stop offset="1" stop-color="#F8BB85"/>
</linearGradient>
<radialGradient id="paint20_radial_8842_63384" cx="0" cy="0" r="1" gradientUnits="userSpaceOnUse" gradientTransform="translate(334.016 169.895) rotate(180) scale(19.985 19.8284)">
<stop stop-color="#FEE7CA"/>
<stop offset="1" stop-color="#FEE7CA" stop-opacity="0"/>
</radialGradient>
<linearGradient id="paint21_linear_8842_63384" x1="327.957" y1="196.734" x2="354.406" y2="175.743" gradientUnits="userSpaceOnUse">
<stop offset="0.137" stop-color="#3C74DA"/>
<stop offset="1" stop-color="#DD94FF"/>
</linearGradient>
<linearGradient id="paint22_linear_8842_63384" x1="350.82" y1="155.327" x2="321.753" y2="155.327" gradientUnits="userSpaceOnUse">
<stop stop-color="white" stop-opacity="0.78"/>
<stop offset="1" stop-color="white" stop-opacity="0"/>
</linearGradient>
<linearGradient id="paint23_linear_8842_63384" x1="351.109" y1="161.955" x2="318.444" y2="161.955" gradientUnits="userSpaceOnUse">
<stop stop-color="white" stop-opacity="0.78"/>
<stop offset="1" stop-color="white" stop-opacity="0"/>
</linearGradient>
<linearGradient id="paint24_linear_8842_63384" x1="347.887" y1="168.698" x2="318.031" y2="168.698" gradientUnits="userSpaceOnUse">
<stop stop-color="white" stop-opacity="0.78"/>
<stop offset="1" stop-color="white" stop-opacity="0"/>
</linearGradient>
<linearGradient id="paint25_linear_8842_63384" x1="344.296" y1="152.552" x2="329.823" y2="152.552" gradientUnits="userSpaceOnUse">
<stop stop-color="white" stop-opacity="0.78"/>
<stop offset="1" stop-color="white" stop-opacity="0"/>
</linearGradient>
<linearGradient id="paint26_linear_8842_63384" x1="337.305" y1="179.128" x2="321.596" y2="179.128" gradientUnits="userSpaceOnUse">
<stop stop-color="white" stop-opacity="0.78"/>
<stop offset="1" stop-color="white" stop-opacity="0"/>
</linearGradient>
<radialGradient id="paint27_radial_8842_63384" cx="0" cy="0" r="1" gradientUnits="userSpaceOnUse" gradientTransform="translate(304.27 254.773) scale(30.1698 30.153)">
<stop stop-color="#FBB53F"/>
<stop offset="1" stop-color="#FBB53F" stop-opacity="0"/>
</radialGradient>
<linearGradient id="paint28_linear_8842_63384" x1="296.803" y1="286.346" x2="333.523" y2="259.804" gradientUnits="userSpaceOnUse">
<stop stop-color="#FBB53F"/>
<stop offset="1" stop-color="#FD5E0F"/>
</linearGradient>
<linearGradient id="paint29_linear_8842_63384" x1="342.253" y1="263.546" x2="341.726" y2="249.047" gradientUnits="userSpaceOnUse">
<stop stop-color="#FBB53F"/>
<stop offset="1" stop-color="#F7D3A1"/>
</linearGradient>
<linearGradient id="paint30_linear_8842_63384" x1="-0.00607108" y1="169.002" x2="74.1143" y2="169.002" gradientUnits="userSpaceOnUse">
<stop stop-color="#9551EF"/>
<stop offset="0.06" stop-color="#AE6FFA"/>
<stop offset="0.2" stop-color="#D9B4FF"/>
<stop offset="0.432292" stop-color="#EADBFF"/>
<stop offset="1" stop-color="white"/>
</linearGradient>
<linearGradient id="paint31_linear_8842_63384" x1="15.5822" y1="246.184" x2="39.6504" y2="178.746" gradientUnits="userSpaceOnUse">
<stop stop-color="#984FEF"/>
<stop offset="1" stop-color="#FCFAFF"/>
</linearGradient>
<linearGradient id="paint32_linear_8842_63384" x1="74.0828" y1="187.503" x2="47.0826" y2="169.147" gradientUnits="userSpaceOnUse">
<stop stop-color="white"/>
<stop offset="1" stop-color="#DAC1FF"/>
</linearGradient>
<linearGradient id="paint33_linear_8842_63384" x1="37.0181" y1="174.456" x2="45.1667" y2="203.451" gradientUnits="userSpaceOnUse">
<stop stop-color="#F2EAFF"/>
<stop offset="0.83" stop-color="#C9A5FF"/>
<stop offset="1" stop-color="#9153F0"/>
</linearGradient>
<linearGradient id="paint34_linear_8842_63384" x1="35.3943" y1="165.838" x2="35.3017" y2="137.298" gradientUnits="userSpaceOnUse">
<stop stop-color="white"/>
<stop offset="1" stop-color="#D1AAFF"/>
</linearGradient>
<clipPath id="clip0_8842_63384">
<rect width="24.6124" height="24.6124" fill="white" transform="translate(72.2715 57.5039)"/>
</clipPath>
</defs>
</svg>
