<svg width="153" height="132" viewBox="0 0 153 132" fill="none" xmlns="http://www.w3.org/2000/svg">
<path d="M28.5979 75.1727L53.7337 131.129L152.572 65.5644L105.998 31.6562L28.5979 75.1727Z" fill="url(#paint0_linear_2535_17345)" fill-opacity="0.1"/>
<path d="M46.8396 68.1752C49.2263 72.2709 62.3536 69.1991 76.1628 61.1785C89.9719 53.1578 99.1781 43.2599 96.6208 39.1643C95.9389 37.7991 94.0635 37.2871 91.5063 37.2871C86.0508 37.4578 76.8447 40.7002 67.4681 46.1611C57.921 51.6219 50.5902 58.1067 47.8625 62.885C46.4986 65.1035 46.1576 66.81 46.8396 68.1752Z" fill="#B4AEEB"/>
<path d="M0.63942 76.8779C5.24248 84.8986 37.4639 74.8301 72.5835 54.5224C107.533 34.0441 132.082 11.006 127.479 2.81472C126.456 1.1082 123.899 0.084279 120.319 0.084279C107.874 -0.0863736 82.6421 9.47017 55.5352 25.3409C26.3825 42.2355 4.39006 61.1779 0.63942 71.7584C-0.212997 73.8062 -0.212997 75.5127 0.63942 76.8779Z" fill="url(#paint1_linear_2535_17345)"/>
<path d="M0.639297 76.8796C5.24236 84.9003 37.4638 74.8318 72.5834 54.5241C107.533 34.0458 132.082 11.0077 127.479 2.81638C126.456 1.10986 123.899 0.0859375 120.319 0.0859375C120.489 0.597895 121.001 1.28051 120.83 3.66965C120.83 5.03487 118.614 10.4957 107.362 20.7349C97.3035 29.7795 83.1534 39.848 67.4689 49.0632C51.6139 58.2785 35.9294 65.6165 22.9727 69.8828C13.7665 72.9546 8.14058 73.6372 4.90139 73.6372C3.36703 73.6372 2.00319 72.9546 0.980286 71.9307C0.866631 71.8169 0.752953 71.76 0.639297 71.76C-0.21312 73.8079 -0.21312 75.5144 0.639297 76.8796Z" fill="url(#paint2_linear_2535_17345)"/>
<path d="M26.2102 37.4581L81.2765 6.39938C79.5717 4.01025 77.3553 3.66894 74.7981 2.30372C66.6149 -1.62129 54.5105 -0.597369 43.4291 5.88743C32.3477 12.3722 25.3578 22.4407 24.8464 31.4853C24.6759 34.0451 25.1873 35.069 26.2102 37.4581Z" fill="url(#paint3_linear_2535_17345)"/>
<path d="M19.7325 59.9834C20.4144 61.1779 21.9487 61.6899 22.8011 61.1779L33.8826 54.6932L92.529 20.392L102.588 14.5898C103.61 13.9072 103.781 12.2007 102.588 11.0061L101.053 8.95827C100.542 8.44631 100.03 8.10501 99.3483 7.93435L82.4704 4.18C80.5951 3.66804 78.7198 4.00934 77.1855 4.8626L25.6994 34.8974C24.3355 35.7507 24.165 38.4812 23.6536 40.3583L19.221 57.7649C19.0505 58.4475 19.221 59.3008 19.7325 59.9834Z" fill="url(#paint4_linear_2535_17345)"/>
<path d="M88.9506 10.6661C89.6326 11.69 90.9964 12.0314 92.0193 11.3487C92.8717 10.6661 93.0422 9.30091 92.3603 8.27699C91.6784 7.25308 90.3145 7.08243 89.462 7.76504C88.4391 8.44765 88.2687 9.81287 88.9506 10.6661Z" fill="url(#paint5_linear_2535_17345)"/>
<path d="M78.7215 17.8337C79.4034 18.8576 80.7672 19.0283 81.6197 18.5163C82.6426 17.8337 82.8131 16.4685 82.1311 15.4446C81.4492 14.4207 80.2558 14.25 79.2329 14.762C78.21 15.4446 78.0395 16.8098 78.7215 17.8337Z" fill="url(#paint6_linear_2535_17345)"/>
<path d="M68.3221 24.6624C69.004 25.6863 70.1974 26.0276 71.2203 25.345C72.2432 24.6624 72.4137 23.4679 71.7318 22.4439C71.0498 21.42 69.8564 21.0787 68.8335 21.5907C67.8106 22.2733 67.6402 23.6385 68.3221 24.6624Z" fill="url(#paint7_linear_2535_17345)"/>
<path d="M57.5831 31.1449C58.265 32.1688 59.6289 32.5101 60.4813 31.9982C61.5042 31.3156 61.8452 30.121 61.1632 28.9264C60.6518 27.9025 59.2879 27.5612 58.265 28.2438C57.4126 28.7558 57.0717 30.121 57.5831 31.1449Z" fill="url(#paint8_linear_2535_17345)"/>
<path d="M46.8423 37.2897C47.3537 38.4842 48.7176 38.8255 49.7405 38.3136C50.7634 37.631 51.1044 36.4364 50.4224 35.4125C49.911 34.2179 48.5471 33.8766 47.5242 34.3886C46.6718 35.0712 46.3308 36.2658 46.8423 37.2897Z" fill="url(#paint9_linear_2535_17345)"/>
<path d="M35.7595 43.0896C36.271 44.2842 37.6349 44.6255 38.6578 44.1135C39.6807 43.6016 40.0217 42.407 39.5102 41.2124C38.9988 40.1885 37.6349 39.8472 36.612 40.1885C35.5891 40.7005 35.2481 42.0657 35.7595 43.0896Z" fill="url(#paint10_linear_2535_17345)"/>
<path d="M24.5093 48.3799C24.8503 49.4038 26.2142 49.9158 27.2371 49.5745C28.26 49.0625 28.7714 47.6973 28.26 46.6733C27.7485 45.6494 26.5551 44.9668 25.5322 45.4788C24.5093 45.9907 23.9979 47.1853 24.5093 48.3799Z" fill="url(#paint11_linear_2535_17345)"/>
<path d="M46.839 68.175L68.2457 113.07L129.039 68.175L96.6203 39.1641L46.839 68.175Z" fill="url(#paint12_linear_2535_17345)" fill-opacity="0.1"/>
<defs>
<linearGradient id="paint0_linear_2535_17345" x1="62.035" y1="32.0316" x2="117.603" y2="102.548" gradientUnits="userSpaceOnUse">
<stop stop-color="#B6BDFF"/>
<stop offset="1" stop-color="#7D84C4" stop-opacity="0"/>
</linearGradient>
<linearGradient id="paint1_linear_2535_17345" x1="-10.783" y1="60.4953" x2="1.16787" y2="79.5977" gradientUnits="userSpaceOnUse">
<stop stop-color="#2851AB"/>
<stop offset="1" stop-color="#7D84C4"/>
</linearGradient>
<linearGradient id="paint2_linear_2535_17345" x1="131.23" y1="75.0024" x2="131.401" y2="0.0859383" gradientUnits="userSpaceOnUse">
<stop stop-color="#2851AB"/>
<stop offset="1" stop-color="#7D84C4"/>
</linearGradient>
<linearGradient id="paint3_linear_2535_17345" x1="69.6836" y1="-11.8604" x2="15.272" y2="19.8341" gradientUnits="userSpaceOnUse">
<stop stop-color="#E0E5F3"/>
<stop offset="1" stop-color="#7D84C4"/>
</linearGradient>
<linearGradient id="paint4_linear_2535_17345" x1="108.725" y1="15.1018" x2="94.3823" y2="-11.6789" gradientUnits="userSpaceOnUse">
<stop stop-color="#2851AB"/>
<stop offset="1" stop-color="#7D84C4"/>
</linearGradient>
<linearGradient id="paint5_linear_2535_17345" x1="98.1567" y1="15.7857" x2="94.5702" y2="5.37809" gradientUnits="userSpaceOnUse">
<stop stop-color="white"/>
<stop offset="1" stop-color="white" stop-opacity="0"/>
</linearGradient>
<linearGradient id="paint6_linear_2535_17345" x1="87.4161" y1="18.8576" x2="83.4892" y2="12.0349" gradientUnits="userSpaceOnUse">
<stop stop-color="white"/>
<stop offset="1" stop-color="white" stop-opacity="0"/>
</linearGradient>
<linearGradient id="paint7_linear_2535_17345" x1="77.6987" y1="24.3211" x2="71.8964" y2="18.354" gradientUnits="userSpaceOnUse">
<stop stop-color="white"/>
<stop offset="1" stop-color="white" stop-opacity="0"/>
</linearGradient>
<linearGradient id="paint8_linear_2535_17345" x1="66.1072" y1="32.6808" x2="62.8628" y2="25.8572" gradientUnits="userSpaceOnUse">
<stop stop-color="white"/>
<stop offset="1" stop-color="white" stop-opacity="0"/>
</linearGradient>
<linearGradient id="paint9_linear_2535_17345" x1="54.855" y1="37.9723" x2="52.4644" y2="33.0252" gradientUnits="userSpaceOnUse">
<stop stop-color="white"/>
<stop offset="1" stop-color="white" stop-opacity="0"/>
</linearGradient>
<linearGradient id="paint10_linear_2535_17345" x1="44.6247" y1="44.4548" x2="41.2101" y2="38.6556" gradientUnits="userSpaceOnUse">
<stop stop-color="white"/>
<stop offset="1" stop-color="white" stop-opacity="0"/>
</linearGradient>
<linearGradient id="paint11_linear_2535_17345" x1="34.5679" y1="55.206" x2="29.9569" y2="43.434" gradientUnits="userSpaceOnUse">
<stop stop-color="white"/>
<stop offset="1" stop-color="white" stop-opacity="0"/>
</linearGradient>
<linearGradient id="paint12_linear_2535_17345" x1="68.5353" y1="14.0142" x2="53.5072" y2="76.0688" gradientUnits="userSpaceOnUse">
<stop stop-color="#7D84C4"/>
<stop offset="1" stop-color="#7D84C4" stop-opacity="0"/>
</linearGradient>
</defs>
</svg>
