<svg width="567" height="462" viewBox="0 0 567 462" fill="none" xmlns="http://www.w3.org/2000/svg">
<rect width="566" height="461" fill="white"/>
<path opacity="0.3" d="M532.105 193.17C514.965 142.39 481.562 93.9911 436.729 75.666C383.045 53.7458 337.01 84.7456 278.815 101.52C266.487 105.158 253.894 107.836 241.151 109.53C216.099 112.706 188.567 111.568 157.374 102.128C126.348 92.7134 104.197 78.8576 80.9832 91.5056C73.8233 95.3918 67.2993 101.402 61.615 108.916C35.4107 143.411 26.3929 225.552 51.0492 263.867C77.2295 304.513 129.336 287.248 145.732 333.809C153.253 355.228 173.405 348.03 178.905 369.692C193.236 426.291 221.894 393.06 290.591 397.915C339.111 384.396 330.221 406.091 407.348 363.072C463.219 331.885 488.288 349.559 503.894 327.23C523.612 298.943 549.143 243.603 532.105 193.17Z" fill="url(#paint0_linear_9598_59861)"/>
<g opacity="0.3">
<path d="M368.64 191.71C368.64 198.014 363.489 203.124 357.136 203.124C350.782 203.124 345.632 198.014 345.632 191.71C345.632 185.406 350.782 180.297 357.136 180.297C363.489 180.297 368.64 185.406 368.64 191.71Z" fill="url(#paint1_radial_9598_59861)"/>
<path d="M366.342 191.596C366.342 192.049 366.309 192.5 366.246 192.936C366.246 192.938 366.245 192.939 366.245 192.941V192.941C366.183 193.379 366.089 193.807 365.967 194.224C365.768 194.917 365.487 195.576 365.14 196.192C364.89 196.639 364.604 197.062 364.287 197.459C362.542 199.647 359.844 201.05 356.813 201.05C356.279 201.05 355.755 201.005 355.245 200.92C354.861 200.859 354.486 200.774 354.122 200.666C353.125 200.376 352.195 199.928 351.362 199.348C351.216 199.248 351.073 199.141 350.934 199.033C350.323 198.56 349.775 198.011 349.297 197.406C349.248 197.344 349.201 197.28 349.154 197.217C348.826 196.779 348.535 196.309 348.286 195.817C347.895 195.039 347.606 194.199 347.443 193.317C347.37 192.918 347.321 192.51 347.299 192.093C347.291 191.928 347.287 191.762 347.287 191.596C347.287 191.199 347.312 190.807 347.359 190.425C347.387 190.206 347.421 189.992 347.464 189.777C347.464 189.777 347.464 189.776 347.464 189.775V189.775C347.464 189.775 347.464 189.774 347.464 189.773C347.687 188.639 348.116 187.577 348.708 186.625C348.844 186.409 348.987 186.199 349.139 185.995C349.722 185.21 350.423 184.517 351.218 183.943C352.788 182.811 354.723 182.142 356.813 182.142C357.764 182.142 358.685 182.279 359.55 182.539C360.481 182.815 361.354 183.227 362.14 183.759C362.306 183.87 362.471 183.986 362.63 184.107C363.21 184.552 363.737 185.06 364.195 185.623C364.309 185.758 364.418 185.897 364.521 186.039C364.874 186.519 365.181 187.032 365.435 187.573C365.562 187.832 365.674 188.1 365.774 188.373C365.904 188.731 366.013 189.099 366.101 189.476C366.101 189.477 366.101 189.477 366.101 189.478V189.478C366.101 189.479 366.101 189.479 366.101 189.48C366.179 189.814 366.237 190.153 366.277 190.499C366.313 190.813 366.335 191.132 366.339 191.456C366.342 191.502 366.342 191.549 366.342 191.596Z" fill="url(#paint2_linear_9598_59861)"/>
<path style="mix-blend-mode:overlay" d="M362.629 184.108C363.494 184.771 363.183 186.052 362.125 186.313C361.058 186.576 359.895 186.716 358.703 186.612C356.173 186.388 353.012 186.792 350.341 187.98C349.327 188.431 348.12 187.569 348.707 186.626V186.626V186.626C348.968 186.211 349.408 185.95 349.892 185.874C351.671 185.595 353.688 185.339 355.486 185.254C357.856 185.141 359.914 184.613 361.58 183.981C361.932 183.848 362.331 183.879 362.629 184.108V184.108V184.108Z" fill="url(#paint3_linear_9598_59861)"/>
<path style="mix-blend-mode:overlay" d="M366.099 189.476C366.099 189.476 366.099 189.476 366.099 189.476V189.476C366.099 189.478 366.098 189.479 366.097 189.479C365.42 189.87 364.576 190.282 363.525 190.686C361.846 191.331 358.779 191.911 356.53 192.56C355.585 192.831 353.351 192.102 352.51 192.354C351.635 192.612 350.794 193.158 350.036 193.839C349.14 194.645 347.66 194.502 347.441 193.316V193.316V193.316C347.297 192.534 347.547 191.727 348.127 191.184C349.426 189.969 351.418 188.958 354.358 189.317C357.918 189.751 361.812 188.805 364.613 187.859C365.081 187.701 365.601 187.908 365.772 188.372V188.372C365.902 188.731 366.011 189.098 366.099 189.476Z" fill="url(#paint4_linear_9598_59861)"/>
<path style="mix-blend-mode:overlay" d="M365.004 192.105C365.597 191.845 366.287 192.292 366.246 192.939V192.939V192.939C366.246 192.94 366.245 192.942 366.244 192.942C365.535 193.334 364.673 193.792 363.693 194.278C361.527 195.352 359.407 198.568 356.372 198.337C354.8 198.216 353.185 198.639 351.855 199.15C351.546 199.269 351.196 199.237 350.935 199.033V199.033C350.324 198.56 349.776 198.011 349.298 197.406V197.406C349.219 197.307 349.248 197.16 349.357 197.095C351.798 195.623 355.427 193.826 358.221 193.71C360.72 193.606 362.881 192.979 364.52 192.31C364.687 192.242 364.848 192.173 365.004 192.105Z" fill="url(#paint5_linear_9598_59861)"/>
<path style="mix-blend-mode:overlay" d="M356.811 182.142C357.843 182.142 357.963 183.273 356.96 183.52C356.581 183.613 356.2 183.69 355.82 183.752C354.288 184.002 353.921 182.453 355.458 182.236C355.9 182.174 356.352 182.142 356.811 182.142V182.142Z" fill="url(#paint6_linear_9598_59861)"/>
<path style="mix-blend-mode:overlay" d="M359.868 199.016C360.947 198.878 361.58 199.855 360.581 200.283C359.425 200.777 358.151 201.051 356.813 201.051V201.051C356.232 201.051 356.072 200.369 356.586 200.098C357.457 199.64 358.599 199.178 359.868 199.016V199.016Z" fill="url(#paint7_linear_9598_59861)"/>
<path d="M471.451 187.877C471.412 188.92 471.469 189.943 471.615 190.941C471.958 193.364 472.812 195.632 474.061 197.629C474.58 198.448 475.153 199.218 475.794 199.939C478.859 203.395 483.3 205.639 488.301 205.814C491.878 205.939 495.233 204.994 498.065 203.261C501.348 201.26 503.915 198.207 505.29 194.566C505.931 192.856 506.314 191.02 506.38 189.101C506.395 188.693 506.393 188.287 506.382 187.882C506.362 187.376 506.327 186.874 506.264 186.375C506.116 185.198 505.857 184.06 505.483 182.965C504.635 180.444 503.21 178.178 501.367 176.318C498.345 173.272 494.183 171.322 489.535 171.158C485 171 480.81 172.573 477.601 175.271C477.041 175.749 476.509 176.262 476.006 176.805C475.387 177.474 474.818 178.199 474.307 178.969C472.607 181.538 471.569 184.584 471.451 187.877Z" fill="url(#paint8_linear_9598_59861)"/>
<g style="mix-blend-mode:overlay" opacity="0.38">
<path d="M477.254 175.578C476.688 176.087 476.98 176.993 477.728 177.141C480.387 177.666 483.502 178.326 486.39 179.048C489.211 179.754 494.105 180.757 498.94 181.706C501.868 182.28 504.143 179.472 502.193 177.212V177.212C501.674 176.61 500.951 176.235 500.165 176.117C497.736 175.75 495.151 175.64 492.745 176.071C488.343 176.864 482.436 176.147 478.058 175.356C477.769 175.304 477.472 175.382 477.254 175.578V175.578Z" fill="white"/>
</g>
<g style="mix-blend-mode:overlay" opacity="0.38">
<path d="M506.302 186.871C506.279 186.569 506.079 186.317 505.78 186.266C503.452 185.871 494.875 185.289 489.532 184.159C487.745 183.778 485.49 183.09 483.187 182.304C477.96 180.519 471.648 182.362 471.45 187.876V187.876V187.876C471.388 189.558 472.983 190.707 474.641 190.413C479.175 189.609 484.423 188.606 488.504 187.622C494.898 186.075 501.857 187.003 505.388 187.679C505.885 187.775 506.342 187.375 506.302 186.871V186.871Z" fill="white"/>
</g>
<g style="mix-blend-mode:overlay" opacity="0.38">
<path d="M476.058 197.48C475.153 197.546 474.654 198.55 475.221 199.259C475.282 199.335 475.344 199.411 475.406 199.486C475.648 199.779 476.009 199.945 476.389 199.956L486.136 200.244C487.675 200.289 489.201 200.541 490.674 200.993L494.782 202.252C496.87 202.893 499.189 202.68 500.794 201.204V201.204C504.024 198.236 501.571 193.765 497.231 194.426V194.426C490.811 195.4 483.755 196.419 476.058 197.48V197.48Z" fill="white"/>
</g>
<path d="M470.863 182.175C471.7 182.066 472.344 182.905 472.112 183.716V183.716C471.983 184.167 471.6 184.511 471.134 184.57C467.732 184.997 465.678 185.619 465.65 186.379C465.623 187.172 467.811 187.973 471.444 188.655C475.77 189.463 482.135 190.098 489.248 190.348C495.938 190.582 501.994 190.431 506.324 189.994C510.475 189.571 513.044 188.891 513.076 188.041C513.103 187.227 510.774 186.396 506.929 185.701C506.461 185.617 506.094 185.246 505.991 184.782V184.782C505.808 183.956 506.502 183.158 507.333 183.316C514.587 184.696 519.247 186.66 519.175 188.689C519.099 190.832 514.742 196.188 506.68 197.011C501.927 197.501 496.229 197.679 490.112 197.465C483.634 197.239 477.657 196.599 472.796 195.706C465.286 194.323 459.447 188.662 459.519 186.596C459.589 184.65 464.012 183.064 470.863 182.175Z" fill="url(#paint9_linear_9598_59861)"/>
<path d="M426.246 154.72C423.883 159.989 417.717 162.352 412.448 159.989C407.178 157.626 404.815 151.433 407.178 146.164C409.541 140.894 415.734 138.558 421.004 140.922C426.246 143.285 428.609 149.45 426.246 154.72Z" fill="#EBEBEB"/>
<path d="M426.709 153.498C426.192 153.037 425.16 152.195 423.449 151.461C421.385 150.538 415.762 149.533 413.155 148.229C409.488 146.382 409.026 144.372 409.053 143.367C409.977 142.362 411.063 141.574 412.258 141.004C412.53 142.063 413.508 145.35 419.592 147.496C422.743 148.609 425.758 147.876 426.763 147.604C427.306 149.506 427.306 151.516 426.709 153.498Z" fill="#DBDBDB"/>
<path d="M422.444 159.176C419.564 161.077 415.816 161.484 412.448 159.99C411.253 159.447 410.221 158.741 409.352 157.872C409.759 157.627 410.601 157.274 411.226 157.111C414.023 156.432 417.12 157.79 418.261 158.415C420.053 159.42 421.629 159.338 422.444 159.176V159.176Z" fill="#DBDBDB"/>
<path d="M426.084 155.046C426.048 155.137 426.012 155.227 425.975 155.318C425.921 155.39 425.876 155.463 425.84 155.535C425.749 155.716 425.649 155.888 425.541 156.051C425.45 156.196 425.36 156.332 425.269 156.459C425.233 156.513 425.188 156.567 425.133 156.622C425.097 156.676 425.061 156.739 425.025 156.812C424.97 156.866 424.925 156.921 424.889 156.975C424.835 157.047 424.78 157.111 424.726 157.165C424.672 157.237 424.617 157.301 424.563 157.355C424.509 157.409 424.454 157.464 424.4 157.518C424.291 157.645 424.183 157.763 424.074 157.871C423.422 158.089 422.553 157.98 421.276 157.491C419.375 156.73 417.338 154.938 413.671 153.634C410.194 152.385 407.315 153.064 406.636 153.172C406.093 151.162 406.147 148.962 406.908 146.871C407.56 146.843 409.705 147.142 414.296 150.918C416.034 152.357 417.555 153.39 418.913 154.096C422.825 156.133 425.079 155.535 426.03 155.046C426.048 155.046 426.066 155.046 426.084 155.046V155.046Z" fill="#DBDBDB"/>
<path d="M416.169 158.984C416.359 158.55 417.011 158.441 417.609 158.713C418.233 158.984 418.587 159.527 418.396 159.962C418.206 160.397 417.554 160.505 416.957 160.234C416.332 159.962 415.979 159.419 416.169 158.984Z" fill="#C7C7C7"/>
<path d="M419.128 158.248C419.209 158.004 419.617 157.95 419.97 158.113C420.35 158.248 420.567 158.574 420.459 158.819C420.35 159.063 419.97 159.118 419.589 158.955C419.236 158.819 419.019 158.493 419.128 158.248V158.248Z" fill="#C7C7C7"/>
<path d="M411.007 145.401C411.17 145.048 411.74 144.939 412.284 145.184C412.827 145.401 413.126 145.89 412.963 146.27C412.827 146.623 412.256 146.732 411.713 146.487C411.17 146.27 410.844 145.781 411.007 145.401V145.401Z" fill="#C7C7C7"/>
<path d="M412.936 145.048C413.017 144.858 413.289 144.776 413.56 144.912C413.805 145.021 413.941 145.265 413.859 145.455C413.778 145.646 413.506 145.7 413.262 145.591C412.99 145.483 412.854 145.238 412.936 145.048V145.048Z" fill="#C7C7C7"/>
<path d="M413.262 146.025C413.289 145.889 413.479 145.862 413.642 145.943C413.805 145.998 413.887 146.161 413.832 146.269C413.778 146.378 413.615 146.432 413.452 146.351C413.289 146.296 413.208 146.133 413.262 146.025Z" fill="#C7C7C7"/>
<path d="M419.781 146.053C419.917 145.727 420.378 145.618 420.813 145.808C421.248 145.999 421.492 146.406 421.329 146.732C421.193 147.058 420.731 147.166 420.297 146.976C419.862 146.786 419.618 146.379 419.781 146.053Z" fill="#C7C7C7"/>
<path d="M419.509 147.465C419.59 147.274 419.835 147.193 420.052 147.302C420.242 147.383 420.351 147.6 420.27 147.791C420.188 147.981 419.971 148.062 419.753 147.953C419.536 147.872 419.428 147.655 419.509 147.465V147.465Z" fill="#C7C7C7"/>
</g>
<g opacity="0.3">
<path d="M184.894 143.044C186.933 148.111 192.725 150.554 197.833 148.499C202.94 146.445 205.427 140.672 203.389 135.605C201.351 130.538 195.559 128.096 190.452 130.15C185.345 132.204 182.856 137.977 184.894 143.044Z" fill="url(#paint10_radial_9598_59861)"/>
<path d="M186.705 142.208C186.852 142.572 187.024 142.924 187.216 143.254C187.217 143.256 187.217 143.257 187.218 143.258V143.258C187.409 143.59 187.623 143.904 187.857 144.199C188.241 144.692 188.679 145.131 189.157 145.514C189.503 145.792 189.869 146.04 190.252 146.257C192.363 147.451 194.985 147.706 197.421 146.726C197.85 146.554 198.258 146.348 198.64 146.116C198.929 145.942 199.203 145.753 199.46 145.548C200.168 144.992 200.771 144.331 201.253 143.596C201.338 143.468 201.419 143.337 201.495 143.204C201.834 142.627 202.096 142.008 202.285 141.367C202.304 141.302 202.321 141.235 202.339 141.169C202.461 140.711 202.543 140.239 202.584 139.763C202.647 139.011 202.608 138.243 202.453 137.481C202.383 137.137 202.291 136.793 202.174 136.451C202.126 136.315 202.076 136.18 202.022 136.047C201.894 135.728 201.747 135.421 201.586 135.129C201.492 134.962 201.396 134.801 201.292 134.642C201.292 134.642 201.292 134.641 201.292 134.641V134.641C201.291 134.64 201.291 134.64 201.291 134.639C200.745 133.799 200.057 133.085 199.273 132.511C199.094 132.381 198.911 132.258 198.723 132.143C198.001 131.701 197.212 131.371 196.388 131.167C194.76 130.764 192.989 130.851 191.308 131.527C190.543 131.835 189.848 132.243 189.237 132.731C188.577 133.255 188.009 133.868 187.549 134.55C187.451 134.692 187.356 134.839 187.268 134.988C186.945 135.533 186.686 136.112 186.499 136.712C186.452 136.858 186.409 137.005 186.372 137.153C186.243 137.652 186.163 138.164 186.133 138.681C186.115 138.931 186.112 139.182 186.119 139.433C186.131 139.764 186.162 140.095 186.214 140.426C186.214 140.427 186.214 140.427 186.214 140.428V140.428C186.214 140.428 186.214 140.429 186.215 140.43C186.26 140.723 186.323 141.014 186.403 141.305C186.475 141.57 186.561 141.833 186.662 142.094C186.675 142.133 186.69 142.17 186.705 142.208Z" fill="url(#paint11_linear_9598_59861)"/>
<path style="mix-blend-mode:overlay" d="M187.267 134.988C186.786 135.801 187.45 136.73 188.386 136.597C189.328 136.464 190.308 136.201 191.233 135.731C193.194 134.734 195.866 134.037 198.396 134.128C199.358 134.163 200.049 133.079 199.272 132.511V132.511V132.511C198.929 132.262 198.49 132.194 198.077 132.289C196.556 132.64 194.853 133.087 193.379 133.599C191.437 134.275 189.613 134.516 188.069 134.547C187.744 134.554 187.433 134.708 187.267 134.988V134.988V134.988Z" fill="url(#paint12_linear_9598_59861)"/>
<path style="mix-blend-mode:overlay" d="M186.215 140.427C186.215 140.427 186.215 140.427 186.215 140.427V140.427C186.215 140.428 186.216 140.429 186.217 140.429C186.888 140.524 187.7 140.583 188.675 140.567C190.233 140.543 192.886 140.018 194.904 139.812C195.751 139.725 197.311 138.417 198.069 138.347C198.856 138.271 199.708 138.438 200.537 138.741C201.518 139.099 202.662 138.505 202.455 137.481V137.481V137.481C202.317 136.806 201.855 136.238 201.213 135.989C199.776 135.432 197.849 135.264 195.601 136.503C192.88 138.003 189.444 138.502 186.886 138.647C186.459 138.672 186.108 139.006 186.121 139.434V139.434C186.132 139.764 186.163 140.095 186.215 140.427Z" fill="url(#paint13_linear_9598_59861)"/>
<path style="mix-blend-mode:overlay" d="M187.946 142.184C187.384 142.167 186.975 142.75 187.217 143.256V143.256V143.256C187.217 143.257 187.218 143.258 187.219 143.258C187.916 143.343 188.757 143.433 189.702 143.507C191.79 143.67 194.534 145.57 196.899 144.403C198.123 143.797 199.559 143.615 200.793 143.596C201.08 143.591 201.351 143.453 201.495 143.204V143.204C201.834 142.627 202.096 142.008 202.285 141.367V141.367C202.316 141.262 202.245 141.153 202.137 141.136C199.699 140.742 196.201 140.471 193.917 141.281C191.874 142.006 189.935 142.2 188.401 142.192C188.245 142.192 188.093 142.189 187.946 142.184Z" fill="url(#paint14_linear_9598_59861)"/>
<path style="mix-blend-mode:overlay" d="M191.307 131.528C190.478 131.861 190.748 132.809 191.633 132.684C191.968 132.636 192.299 132.574 192.625 132.502C193.937 132.208 193.731 130.844 192.426 131.166C192.05 131.259 191.677 131.379 191.307 131.528V131.528Z" fill="url(#paint15_linear_9598_59861)"/>
<path style="mix-blend-mode:overlay" d="M194.308 146.078C193.396 146.317 193.203 147.307 194.145 147.327C195.233 147.351 196.346 147.159 197.422 146.726V146.726C197.889 146.539 197.797 145.939 197.297 145.888C196.448 145.801 195.38 145.798 194.308 146.078V146.078Z" fill="url(#paint16_linear_9598_59861)"/>
<path d="M101.015 173.203C101.383 174.029 101.668 174.87 101.873 175.719C102.381 177.778 102.428 179.877 102.069 181.886C101.917 182.712 101.706 183.516 101.423 184.304C100.077 188.072 97.2328 191.312 93.2689 193.069C90.4345 194.327 87.4318 194.651 84.5949 194.174C81.3093 193.627 78.2581 192.003 75.9759 189.521C74.9079 188.353 74.0068 187.002 73.3328 185.48C73.1889 185.157 73.0593 184.83 72.937 184.501C72.7898 184.087 72.6551 183.673 72.5445 183.252C72.2831 182.257 72.1232 181.259 72.0702 180.258C71.937 177.957 72.3494 175.675 73.2298 173.584C74.6742 170.158 77.3888 167.246 81.0723 165.611C84.6666 164.017 88.5433 163.927 91.9953 165.058C92.5998 165.262 93.1933 165.501 93.7728 165.775C94.4868 166.113 95.1786 166.512 95.8386 166.966C98.0357 168.481 99.8547 170.594 101.015 173.203Z" fill="url(#paint17_linear_9598_59861)"/>
<g style="mix-blend-mode:overlay" opacity="0.38">
<path d="M92.3725 165.192C92.9927 165.418 93.0507 166.241 92.4968 166.602C90.5297 167.884 88.2392 169.421 86.1508 170.936C84.1112 172.415 80.5022 174.804 76.9222 177.13C74.7538 178.538 72.0174 177.017 72.8542 174.569V174.569C73.077 173.918 73.5369 173.382 74.1301 173.033C75.9647 171.953 78.0068 171.029 80.0805 170.597C83.8745 169.811 88.3914 167.325 91.6551 165.274C91.8703 165.139 92.1341 165.105 92.3725 165.192V165.192Z" fill="white"/>
</g>
<g style="mix-blend-mode:overlay" opacity="0.38">
<path d="M72.6739 183.662C72.5953 183.412 72.6744 183.145 72.898 183.008C74.6413 181.937 81.3486 178.696 85.2773 176.06C86.5912 175.176 88.181 173.895 89.7783 172.518C93.4025 169.393 99.0726 168.834 101.014 173.202V173.202V173.202C101.608 174.534 100.698 175.973 99.2699 176.273C95.3649 177.093 90.8224 177.983 87.2235 178.512C81.5833 179.335 76.2895 182.331 73.67 184.017C73.3013 184.254 72.8052 184.08 72.6739 183.662V183.662Z" fill="white"/>
</g>
<g style="mix-blend-mode:overlay" opacity="0.38">
<path d="M100.416 182.412C101.165 182.173 101.89 182.818 101.664 183.572C101.64 183.653 101.615 183.733 101.589 183.814C101.489 184.127 101.252 184.377 100.95 184.509L93.2083 187.892C91.986 188.426 90.8405 189.122 89.8028 189.962L86.9084 192.302C85.4369 193.492 83.5038 194.071 81.7362 193.404V193.404C78.18 192.062 78.7063 187.675 82.4091 186.803V186.803C87.8841 185.51 93.8859 184.047 100.416 182.412V182.412Z" fill="white"/>
</g>
<path d="M99.643 168.43C98.9351 168.613 98.6884 169.496 99.1371 170.072V170.072C99.3867 170.393 99.8055 170.546 100.199 170.443C103.072 169.686 104.925 169.522 105.192 170.124C105.47 170.752 103.97 172.104 101.271 173.827C98.0549 175.875 93.1433 178.443 87.5067 180.944C82.2048 183.295 77.288 185.132 73.6657 186.181C70.1925 187.182 67.9072 187.467 67.6071 186.793C67.3221 186.148 68.9254 184.727 71.7912 182.925C72.1404 182.706 72.3156 182.29 72.248 181.883V181.883C72.128 181.16 71.3129 180.743 70.6959 181.139C65.3104 184.593 62.2001 187.679 62.9139 189.286C63.6679 190.984 68.902 193.881 75.6483 191.936C79.6276 190.793 84.2653 189.094 89.1128 186.944C94.2473 184.668 98.8448 182.221 102.464 179.931C108.053 176.392 110.916 169.954 110.191 168.316C109.506 166.774 105.437 166.93 99.643 168.43Z" fill="url(#paint18_linear_9598_59861)"/>
<path d="M126.626 131.937C130.229 135.409 135.95 135.315 139.421 131.712C142.893 128.109 142.79 122.366 139.187 118.895C135.584 115.423 129.85 115.548 126.379 119.151C122.929 122.745 123.023 128.466 126.626 131.937Z" fill="#EBEBEB"/>
<path d="M125.859 131.105C126.125 130.567 126.682 129.556 127.821 128.413C129.181 127.004 133.376 124.378 135.05 122.487C137.401 119.816 137.122 118.051 136.775 117.252C135.708 116.743 134.58 116.461 133.435 116.389C133.559 117.329 133.836 120.287 129.639 123.979C127.466 125.892 124.805 126.278 123.91 126.384C124.088 128.088 124.738 129.704 125.859 131.105Z" fill="#DBDBDB"/>
<path d="M131.123 134.289C134.053 134.887 137.197 134.002 139.422 131.713C140.207 130.89 140.808 129.988 141.226 129.008C140.819 128.944 140.028 128.932 139.473 129.003C137.005 129.362 134.955 131.455 134.24 132.326C133.124 133.713 131.831 134.157 131.123 134.289V134.289Z" fill="#DBDBDB"/>
<path d="M126.862 132.148C126.92 132.209 126.979 132.27 127.037 132.331C127.104 132.372 127.164 132.415 127.217 132.462C127.348 132.578 127.484 132.684 127.624 132.78C127.743 132.867 127.86 132.947 127.974 133.02C128.02 133.052 128.074 133.081 128.136 133.107C128.182 133.139 128.232 133.178 128.284 133.224C128.346 133.25 128.4 133.28 128.446 133.311C128.513 133.352 128.577 133.386 128.639 133.412C128.706 133.452 128.77 133.486 128.831 133.512C128.892 133.538 128.954 133.564 129.015 133.59C129.143 133.657 129.269 133.716 129.391 133.769C129.985 133.732 130.649 133.364 131.517 132.558C132.799 131.332 133.857 129.233 136.383 126.999C138.774 124.87 141.308 124.485 141.889 124.353C141.676 122.562 140.921 120.811 139.633 119.376C139.1 119.565 137.472 120.498 135.003 125.018C134.071 126.737 133.182 128.058 132.319 129.065C129.833 131.967 127.828 132.216 126.906 132.13C126.891 132.136 126.877 132.142 126.862 132.148V132.148Z" fill="#DBDBDB"/>
<path d="M136.107 132.105C135.813 131.817 135.254 131.941 134.862 132.352C134.447 132.772 134.339 133.323 134.632 133.611C134.926 133.899 135.485 133.776 135.877 133.364C136.292 132.944 136.4 132.393 136.107 132.105Z" fill="#C7C7C7"/>
<path d="M133.491 132.471C133.346 132.301 133.001 132.389 132.77 132.635C132.508 132.867 132.439 133.199 132.605 133.36C132.772 133.522 133.095 133.442 133.348 133.188C133.588 132.965 133.657 132.633 133.491 132.471V132.471Z" fill="#C7C7C7"/>
<path d="M135.865 119.521C135.62 119.29 135.126 119.387 134.768 119.759C134.402 120.109 134.32 120.599 134.574 120.852C134.797 121.092 135.291 120.995 135.648 120.623C136.015 120.272 136.119 119.774 135.865 119.521V119.521Z" fill="#C7C7C7"/>
<path d="M134.2 119.857C134.073 119.731 133.828 119.753 133.654 119.95C133.493 120.117 133.463 120.357 133.59 120.484C133.717 120.61 133.952 120.566 134.114 120.4C134.297 120.224 134.327 119.984 134.2 119.857V119.857Z" fill="#C7C7C7"/>
<path d="M134.255 120.748C134.189 120.648 134.027 120.688 133.923 120.806C133.809 120.902 133.796 121.06 133.875 121.129C133.954 121.199 134.103 121.19 134.207 121.072C134.321 120.976 134.334 120.818 134.255 120.748Z" fill="#C7C7C7"/>
<path d="M129.022 122.88C128.808 122.662 128.401 122.724 128.113 123.017C127.825 123.31 127.761 123.717 127.997 123.926C128.212 124.144 128.618 124.082 128.906 123.789C129.194 123.496 129.258 123.089 129.022 122.88Z" fill="#C7C7C7"/>
<path d="M129.699 123.926C129.572 123.799 129.349 123.813 129.209 123.971C129.083 124.098 129.066 124.307 129.193 124.434C129.32 124.56 129.521 124.556 129.66 124.398C129.808 124.262 129.826 124.052 129.699 123.926V123.926Z" fill="#C7C7C7"/>
<path d="M261.224 85.217C263.328 90.4498 260.759 96.4119 255.485 98.5333C250.211 100.655 244.229 98.1318 242.125 92.899C240.02 87.6662 242.589 81.7054 247.863 79.584C253.137 77.4626 259.119 79.9842 261.224 85.217Z" fill="url(#paint19_radial_9598_59861)"/>
<path d="M259.277 85.8899C259.429 86.2666 259.552 86.6515 259.645 87.0349C259.646 87.0362 259.646 87.0374 259.647 87.0386V87.0386C259.741 87.4232 259.806 87.8103 259.844 88.197C259.91 88.8389 259.896 89.4793 259.814 90.1065C259.756 90.5611 259.66 91.0076 259.53 91.4431C258.812 93.842 257.04 95.9073 254.524 96.9193C254.081 97.0974 253.631 97.2358 253.179 97.3356C252.84 97.4124 252.501 97.4674 252.162 97.4989C251.238 97.5914 250.316 97.5302 249.43 97.3266C249.276 97.2923 249.122 97.2519 248.97 97.2082C248.305 97.0197 247.667 96.7469 247.068 96.4039C247.007 96.369 246.947 96.3316 246.886 96.2951C246.468 96.0408 246.07 95.748 245.698 95.4224C245.114 94.9074 244.594 94.3068 244.164 93.6291C243.97 93.3222 243.793 93 243.636 92.6615C243.574 92.5263 243.515 92.39 243.459 92.2522C243.327 91.9226 243.217 91.5891 243.128 91.2565C243.079 91.0654 243.035 90.8761 242.999 90.6839C242.999 90.6832 242.999 90.6826 242.999 90.682V90.682C242.998 90.6814 242.998 90.6808 242.998 90.6802C242.805 89.6641 242.806 88.6397 242.98 87.6515C243.02 87.427 243.069 87.2045 243.127 86.9845C243.349 86.1388 243.7 85.329 244.168 84.5873C245.093 83.1229 246.475 81.9215 248.211 81.2235C249 80.9059 249.811 80.7129 250.615 80.6393C251.481 80.5579 252.343 80.6088 253.173 80.7876C253.348 80.8239 253.523 80.8652 253.696 80.9131C254.326 81.0884 254.933 81.3339 255.501 81.6483C255.641 81.7229 255.778 81.8017 255.911 81.8853C256.364 82.1654 256.79 82.4891 257.182 82.8534C257.374 83.0263 257.556 83.2115 257.73 83.4039C257.958 83.6583 258.171 83.9268 258.37 84.2107C258.37 84.2112 258.37 84.2118 258.371 84.2124V84.2124C258.371 84.213 258.371 84.2136 258.371 84.2141C258.547 84.4653 258.709 84.7275 258.858 85.001C258.993 85.2501 259.117 85.5075 259.229 85.7744C259.246 85.8124 259.262 85.8511 259.277 85.8899Z" fill="url(#paint20_linear_9598_59861)"/>
<path style="mix-blend-mode:overlay" d="M253.696 80.9118C254.636 81.1732 254.805 82.3402 254.014 82.9105C253.216 83.485 252.297 83.99 251.273 84.3011C249.098 84.96 246.609 86.3513 244.789 88.2288C244.097 88.9423 242.808 88.6289 242.98 87.6502V87.6502V87.6502C243.058 87.2188 243.336 86.8551 243.712 86.6305C245.096 85.8047 246.685 84.919 248.149 84.2477C250.079 83.3625 251.611 82.2377 252.783 81.1565C253.031 80.9287 253.372 80.8216 253.696 80.9118V80.9118V80.9118Z" fill="url(#paint21_linear_9598_59861)"/>
<path style="mix-blend-mode:overlay" d="M258.371 84.2123C258.371 84.2125 258.371 84.2126 258.371 84.2128V84.2128C258.371 84.2138 258.371 84.2148 258.371 84.2156C257.939 84.7667 257.376 85.3903 256.638 86.076C255.46 87.1725 253.108 88.6783 251.457 89.9677C250.764 90.5083 248.666 90.6489 248.051 91.139C247.411 91.6452 246.895 92.3791 246.494 93.1975C246.019 94.1659 244.742 94.5412 244.165 93.6301V93.6301V93.6301C243.784 93.029 243.722 92.2753 244.023 91.6306C244.695 90.1884 246.011 88.6846 248.572 88.0002C251.672 87.1721 254.588 85.087 256.598 83.3666C256.934 83.0791 257.434 83.0774 257.731 83.405V83.405C257.959 83.6595 258.172 83.9282 258.371 84.2123Z" fill="url(#paint22_linear_9598_59861)"/>
<path style="mix-blend-mode:overlay" d="M258.337 86.7575C258.742 86.3433 259.464 86.4845 259.646 87.0351V87.0351V87.0351C259.647 87.0362 259.647 87.0374 259.646 87.0384C259.188 87.6001 258.625 88.2685 257.974 88.9987C256.535 90.6134 255.849 93.9913 253.252 94.8129C251.907 95.2369 250.707 96.128 249.774 96.9962C249.557 97.1978 249.255 97.2885 248.971 97.2064V97.2064C248.306 97.0179 247.668 96.7451 247.069 96.4022V96.4022C246.97 96.346 246.945 96.2148 247.014 96.1239C248.549 94.0871 250.961 91.3841 253.242 90.3549C255.282 89.4339 256.866 88.192 258.003 87.0892C258.119 86.9771 258.23 86.8664 258.337 86.7575Z" fill="url(#paint23_linear_9598_59861)"/>
<path style="mix-blend-mode:overlay" d="M248.212 81.2228C249.069 80.8781 249.545 81.7776 248.796 82.3172C248.512 82.5211 248.221 82.712 247.927 82.8904C246.739 83.6097 245.917 82.4465 247.12 81.7533C247.466 81.5538 247.83 81.3762 248.212 81.2228V81.2228Z" fill="url(#paint24_linear_9598_59861)"/>
<path style="mix-blend-mode:overlay" d="M256.383 94.2084C257.233 93.7341 258.085 94.3338 257.397 95.0226C256.603 95.8186 255.637 96.4711 254.526 96.9181V96.9181C254.044 97.1119 253.683 96.5993 254.02 96.2034C254.59 95.5316 255.384 94.7666 256.383 94.2084V94.2084Z" fill="url(#paint25_linear_9598_59861)"/>
</g>
<g opacity="0.3">
<path d="M75.5078 402.416C75.5078 392.798 171.095 385 289.008 385C406.92 385 502.508 392.798 502.508 402.416C502.508 407.978 470.566 412.927 420.835 416.118C410.104 422.354 368.497 427 318.806 427C277.194 427 241.252 423.742 224.363 419.019C138.054 416.786 75.5091 410.196 75.5091 402.416H75.5078Z" fill="#D4D4D4"/>
</g>
<g opacity="0.5">
<path d="M399.746 390.285C399.511 390.858 399.615 391.517 400.022 391.99C400.446 392.483 401.12 392.68 401.744 392.497C410.329 389.953 417.298 392.743 421.972 396.835C417.474 391.692 409.709 387.381 399.753 390.237C399.751 390.251 399.75 390.273 399.746 390.286V390.285Z" fill="white"/>
</g>
<path d="M92.1874 402.074C100.39 400.634 108.591 400.29 116.793 400.113C124.995 399.913 133.196 400.018 141.399 400.127L153.702 400.215L166.004 400.22H436.663L448.966 400.215L455.116 400.148L461.267 400.033C465.368 399.972 469.469 400.066 473.57 400.298C477.67 400.6 481.772 401.022 485.873 402.074C486.308 402.186 486.584 402.691 486.489 403.202C486.42 403.576 486.171 403.85 485.873 403.926C481.772 404.978 477.67 405.4 473.57 405.702C469.469 405.935 465.368 406.028 461.267 405.967L455.116 405.852L448.966 405.785L436.663 405.78H166.004L153.702 405.785L141.399 405.873C133.196 405.982 124.995 406.087 116.793 405.887C108.591 405.71 100.39 405.366 92.1874 403.926C91.7521 403.85 91.4514 403.373 91.5167 402.86C91.5698 402.443 91.85 402.131 92.1874 402.072V402.074Z" fill="#D4D4D4"/>
<path d="M266.615 347.518L275.979 344.925L267.719 350.042C267.066 350.446 266.209 350.245 265.804 349.592C265.4 348.939 265.601 348.082 266.254 347.677C266.367 347.607 266.494 347.553 266.615 347.52V347.518Z" fill="#000072"/>
<path d="M284.051 348.169L290.849 345.475L285.529 350.491C284.966 351.023 284.078 350.997 283.548 350.434C283.016 349.871 283.042 348.983 283.606 348.453C283.738 348.328 283.893 348.233 284.051 348.169Z" fill="#000072"/>
<path style="mix-blend-mode:screen" d="M476.266 419H113.205L99.5078 385.156C131.161 318.898 215.845 266 298.372 266C375.074 266 449.109 309.516 483.508 368.401L476.266 419Z" fill="url(#paint26_radial_9598_59861)"/>
<path style="mix-blend-mode:screen" d="M452.916 409H136.463L107.508 394.956C135.071 337.377 225.913 276 297.829 276C364.73 276 451.493 336.446 481.508 387.596L452.916 409Z" fill="url(#paint27_radial_9598_59861)"/>
<path d="M435.399 402H153.792H106.508C135.431 341.684 233.385 291 297.402 291C356.921 291 456.102 338.4 477.508 402H435.399Z" fill="url(#paint28_linear_9598_59861)" style="mix-blend-mode:screen"/>
<path style="mix-blend-mode:screen" d="M176.888 320.318C210.468 301.919 252.888 290.945 298.955 290.945C343.433 290.945 384.449 301.172 417.515 318.404C423.174 326.576 423.689 334.982 412.885 340.959C385.619 356.089 343.994 335.775 284.784 341.192C225.528 346.656 173.614 344.415 175.251 326.576C175.485 324.428 176.046 322.326 176.888 320.318V320.318Z" fill="url(#paint29_radial_9598_59861)"/>
<g opacity="0.3">
<path style="mix-blend-mode:screen" fill-rule="evenodd" clip-rule="evenodd" d="M378.538 325.774C378.023 329.697 369.979 331.658 360.578 330.164C351.225 328.669 344.069 324.233 344.63 320.31C345.144 316.388 353.189 314.426 362.543 315.921C371.943 317.415 379.099 321.805 378.538 325.774ZM223.966 320.544C225.322 324.28 219.195 330.257 210.356 333.899C201.516 337.542 193.285 337.495 191.929 333.759C190.619 330.07 196.746 324.093 205.585 320.45C214.425 316.808 222.656 316.855 223.966 320.544ZM248.66 327.268C249.548 329.93 245.105 334.086 238.698 336.561C232.337 338.99 226.444 338.803 225.556 336.141C224.667 333.479 229.11 329.323 235.518 326.848C241.878 324.42 247.771 324.607 248.66 327.268ZM259.604 308.075C260.212 310.083 256.751 313.072 251.934 314.707C247.116 316.294 242.767 316.014 242.159 313.959C241.551 311.951 245.012 309.009 249.829 307.375C254.646 305.741 258.996 306.021 259.604 308.075V308.075ZM411.37 338.009C410.575 339.923 406.178 339.737 401.548 337.542C396.918 335.3 393.831 331.938 394.626 330.024C395.421 328.062 399.818 328.296 404.448 330.49C409.078 332.685 412.165 336.048 411.37 338.009ZM392.335 344.453C392.101 346.835 387.284 348.189 381.578 347.489C375.872 346.788 371.476 344.266 371.709 341.885C371.99 339.503 376.807 338.102 382.513 338.849C388.219 339.55 392.615 342.072 392.335 344.453Z" fill="url(#paint30_radial_9598_59861)"/>
<path style="mix-blend-mode:screen" fill-rule="evenodd" clip-rule="evenodd" d="M213.069 333.619C209.047 335.3 205.118 336.187 201.891 336.327C204.51 335.907 207.41 335.113 210.356 333.899C219.196 330.256 225.322 324.279 223.966 320.543C223.265 318.535 220.505 317.601 216.717 317.741C221.862 316.947 225.837 317.835 226.679 320.31C228.035 323.999 221.908 329.976 213.069 333.619ZM251.373 326.988C252.262 329.696 247.818 333.852 241.411 336.28C238.558 337.401 235.752 337.962 233.46 338.008C235.097 337.728 236.874 337.261 238.698 336.561C245.106 334.086 249.549 329.929 248.66 327.268C248.146 325.82 246.182 325.073 243.469 325.12C247.538 324.466 250.718 325.073 251.373 326.988V326.988ZM354.826 315.453C357.819 314.986 361.421 315.033 365.303 315.64C374.656 317.134 381.812 321.571 381.251 325.493C380.877 328.248 376.761 330.07 371.055 330.35C375.311 329.696 378.211 328.062 378.538 325.773C379.099 321.804 371.944 317.414 362.543 315.92C359.831 315.453 357.211 315.313 354.826 315.453V315.453ZM414.083 337.728C413.662 338.755 412.212 339.176 410.201 339.036C410.762 338.802 411.183 338.475 411.37 338.008C412.165 336.047 409.078 332.685 404.448 330.49C402.297 329.463 400.192 328.902 398.509 328.715C400.239 328.015 403.653 328.575 407.161 330.21C411.791 332.451 414.878 335.813 414.083 337.728ZM395.048 344.172C394.861 346.04 391.821 347.301 387.798 347.395C390.418 346.928 392.195 345.854 392.335 344.453C392.616 342.071 388.219 339.549 382.514 338.849C381.298 338.662 380.082 338.615 379.006 338.662C380.783 338.335 382.934 338.288 385.226 338.569C390.932 339.269 395.328 341.791 395.048 344.172ZM262.317 307.795C262.925 309.803 259.511 312.791 254.693 314.426C252.589 315.126 250.625 315.453 248.941 315.453C249.907 315.297 250.905 315.048 251.934 314.706C256.751 313.072 260.212 310.083 259.604 308.075C259.277 306.907 257.687 306.3 255.535 306.3C259.043 305.693 261.849 306.207 262.317 307.795V307.795Z" fill="url(#paint31_radial_9598_59861)"/>
<path opacity="0.5" d="M381.578 347.487C378.865 347.16 376.48 346.413 374.703 345.479C376.667 344.545 379.894 344.172 383.449 344.639C386.161 344.965 388.546 345.713 390.324 346.647C388.359 347.581 385.132 347.954 381.578 347.487Z" fill="url(#paint32_radial_9598_59861)"/>
<path opacity="0.5" d="M360.578 330.16C354.358 329.18 349.119 326.891 346.454 324.323C348.886 321.615 355.714 320.447 363.524 321.708C369.745 322.689 374.983 324.977 377.649 327.545C375.217 330.254 368.388 331.421 360.578 330.16Z" fill="url(#paint33_radial_9598_59861)"/>
<path opacity="0.5" d="M285.859 351.01C275.086 350.676 265.704 347.924 260.633 344.151C264.191 339.058 275.543 335.633 289.076 336.103C299.85 336.437 309.231 339.189 314.303 342.962C310.745 348.055 299.393 351.479 285.859 351.01Z" fill="url(#paint34_radial_9598_59861)"/>
<path opacity="0.5" d="M405.382 336.28C407.113 337.121 408.656 338.101 409.825 339.129C408.001 339.642 404.821 339.082 401.547 337.541C399.817 336.7 398.32 335.72 397.104 334.692C398.975 334.179 402.108 334.739 405.382 336.28Z" fill="url(#paint35_radial_9598_59861)"/>
<path opacity="0.5" d="M206.52 326.237C213.489 323.342 220.083 322.781 223.217 324.509C221.299 327.731 216.482 331.374 210.355 333.896C203.387 336.744 196.792 337.351 193.659 335.623C195.576 332.401 200.393 328.759 206.52 326.237Z" fill="url(#paint36_radial_9598_59861)"/>
<path opacity="0.5" d="M257.032 312.136C255.675 313.116 253.945 314.004 251.934 314.704C249.642 315.451 247.444 315.778 245.713 315.731C247.023 314.751 248.753 313.817 250.764 313.163C253.056 312.369 255.301 312.042 257.032 312.136Z" fill="url(#paint37_radial_9598_59861)"/>
<path opacity="0.5" d="M236.453 332.684C240.662 331.049 244.684 330.582 247.163 331.236C245.386 333.151 242.392 335.159 238.698 336.56C234.488 338.194 230.513 338.614 228.034 338.007C229.765 336.046 232.758 334.085 236.453 332.684Z" fill="url(#paint38_radial_9598_59861)"/>
<path opacity="0.3" d="M218.774 338.009C219.195 339.456 216.67 341.651 213.115 342.865C209.514 344.079 206.287 343.846 205.866 342.352C205.398 340.904 207.971 338.709 211.525 337.495C215.08 336.281 218.353 336.514 218.774 338.009Z" fill="url(#paint39_radial_9598_59861)"/>
<path opacity="0.3" d="M352.299 310.597C352.066 312.138 348.932 312.932 345.237 312.372C341.496 311.811 338.643 310.13 338.877 308.589C339.064 307.048 342.244 306.254 345.939 306.814C349.634 307.375 352.486 309.056 352.299 310.597Z" fill="url(#paint40_radial_9598_59861)"/>
<path opacity="0.3" d="M429.937 341.746C429.189 343.1 426.008 342.446 422.781 340.345C419.601 338.244 417.637 335.488 418.385 334.134C419.133 332.827 422.314 333.48 425.494 335.535C428.721 337.637 430.685 340.438 429.937 341.746Z" fill="url(#paint41_radial_9598_59861)"/>
<path opacity="0.3" d="M361.093 312.184C361.046 312.838 359.69 313.212 358.1 312.978C356.556 312.745 355.34 311.998 355.434 311.344C355.481 310.69 356.837 310.363 358.427 310.597C359.97 310.83 361.186 311.531 361.093 312.184V312.184Z" fill="url(#paint42_radial_9598_59861)"/>
<path opacity="0.3" d="M376.433 334.364C376.34 335.018 374.983 335.345 373.44 335.112C371.85 334.878 370.634 334.178 370.727 333.524C370.821 332.87 372.177 332.497 373.72 332.73C375.311 332.964 376.527 333.711 376.433 334.364V334.364Z" fill="url(#paint43_radial_9598_59861)"/>
<path opacity="0.3" d="M391.305 319.656C391.258 320.31 389.902 320.637 388.312 320.403C386.769 320.17 385.553 319.469 385.646 318.816C385.693 318.162 387.049 317.835 388.639 318.068C390.183 318.302 391.399 319.002 391.305 319.656Z" fill="url(#paint44_radial_9598_59861)"/>
<path opacity="0.3" d="M403.839 342.585C403.652 343.192 402.249 343.145 400.753 342.538C399.303 341.884 398.274 340.903 398.508 340.296C398.742 339.689 400.098 339.689 401.595 340.343C403.091 340.95 404.073 341.977 403.839 342.585Z" fill="url(#paint45_radial_9598_59861)"/>
<path opacity="0.3" d="M400.566 324.979C400.332 326.006 398.134 326.24 395.655 325.539C393.176 324.839 391.399 323.391 391.68 322.41C391.913 321.383 394.112 321.15 396.59 321.85C399.022 322.55 400.846 323.951 400.566 324.979Z" fill="url(#paint46_radial_9598_59861)"/>
<path opacity="0.3" d="M354.592 331.844C354.405 332.918 352.254 333.385 349.728 332.965C347.203 332.545 345.285 331.331 345.472 330.303C345.612 329.229 347.764 328.762 350.289 329.183C352.815 329.65 354.732 330.817 354.592 331.844Z" fill="url(#paint47_radial_9598_59861)"/>
<path opacity="0.3" d="M253.149 318.908C253.336 319.842 251.746 321.103 249.501 321.71C247.303 322.317 245.292 322.083 245.105 321.149C244.871 320.215 246.508 318.955 248.706 318.347C250.951 317.74 252.915 317.974 253.149 318.908V318.908Z" fill="url(#paint48_radial_9598_59861)"/>
<path opacity="0.3" d="M250.858 336.42C251.045 337.354 249.455 338.568 247.21 339.175C245.012 339.829 243.001 339.548 242.767 338.661C242.58 337.727 244.217 336.466 246.415 335.859C248.66 335.252 250.624 335.486 250.858 336.42V336.42Z" fill="url(#paint49_radial_9598_59861)"/>
<path opacity="0.3" d="M255.394 332.124C255.534 332.731 254.552 333.478 253.149 333.852C251.793 334.272 250.53 334.086 250.39 333.525C250.249 332.965 251.278 332.171 252.681 331.797C254.038 331.424 255.301 331.564 255.394 332.124Z" fill="url(#paint50_radial_9598_59861)"/>
<path opacity="0.3" d="M241.737 309.057C241.878 309.664 240.895 310.411 239.492 310.831C238.089 311.205 236.873 311.018 236.733 310.458C236.593 309.897 237.622 309.104 238.978 308.73C240.381 308.356 241.597 308.496 241.737 309.057Z" fill="url(#paint51_radial_9598_59861)"/>
<path opacity="0.3" d="M224.2 332.124C224.34 332.731 223.358 333.478 221.955 333.852C220.552 334.272 219.336 334.086 219.195 333.525C219.055 332.965 220.084 332.171 221.44 331.797C222.843 331.424 224.059 331.564 224.2 332.124Z" fill="url(#paint52_radial_9598_59861)"/>
<path opacity="0.3" d="M272.419 316.526C272.84 317.974 270.314 320.169 266.713 321.383C263.159 322.597 259.931 322.363 259.511 320.869C259.043 319.421 261.615 317.227 265.17 316.012C268.724 314.798 271.998 315.032 272.419 316.526Z" fill="url(#paint53_radial_9598_59861)"/>
<path opacity="0.3" d="M277.844 310.644C277.984 311.251 277.002 311.998 275.599 312.372C274.196 312.792 272.98 312.605 272.839 312.045C272.699 311.484 273.728 310.69 275.084 310.317C276.487 309.943 277.703 310.083 277.844 310.644Z" fill="url(#paint54_radial_9598_59861)"/>
<path opacity="0.3" d="M225.182 313.587C225.322 314.147 224.293 314.894 222.937 315.314C221.534 315.688 220.318 315.548 220.177 314.941C220.037 314.38 221.019 313.586 222.422 313.213C223.825 312.839 225.041 312.979 225.182 313.587Z" fill="url(#paint55_radial_9598_59861)"/>
</g>
<path d="M242.189 240.825L244.83 241.853L253.339 238.769C253.339 238.769 255.091 240.234 256.127 241.265C256.903 242.038 257.508 242.361 258.034 243.321C258.245 243.704 258.608 243.934 258.475 244.349C258.362 244.699 258.082 244.802 257.741 244.937C257.315 245.105 257.022 244.996 256.567 244.937C255.5 244.797 254.22 243.762 253.78 244.056C253.339 244.349 253.293 245.048 253.046 245.965C252.799 246.881 254.559 249.405 253.78 251.399C253.565 251.949 253.575 252.46 253.046 252.721C252.635 252.924 252.312 252.85 251.872 252.721C251.055 252.481 250.912 251.791 250.405 251.105C249.46 249.826 248.644 247.434 248.644 247.434C248.644 247.434 249.211 249.291 249.378 250.518C249.494 251.372 249.736 251.885 249.525 252.721C249.418 253.144 249.45 253.51 249.085 253.749C248.84 253.909 248.643 253.896 248.351 253.896C248.059 253.896 247.883 253.871 247.617 253.749C247.137 253.528 247.026 253.163 246.737 252.721C246.33 252.097 246.281 251.65 246.003 250.958C245.388 249.426 244.536 246.993 244.536 246.993C244.536 246.993 244.823 249.702 244.536 251.399C244.448 251.92 244.688 252.437 244.243 252.721C244.044 252.848 243.892 252.868 243.656 252.868C243.42 252.868 243.283 252.822 243.069 252.721C242.509 252.455 242.473 251.95 242.189 251.399C241.748 250.545 241.631 249.994 241.455 249.049C241.182 247.583 241.091 246.725 241.162 245.231C241.206 244.307 241.237 243.779 241.455 242.881C241.656 242.052 242.189 240.825 242.189 240.825Z" fill="#C0C0C0"/>
<path d="M244.537 199.702C244.537 199.702 253.863 189.642 261.557 185.896C269.773 181.897 284.445 181.05 284.445 181.05C284.445 181.05 290.401 189.685 293.248 195.736C297.528 204.831 300.584 220.41 300.584 220.41L268.452 239.355C268.452 239.355 259.724 229.355 255.248 222.172C250.107 213.923 244.537 199.702 244.537 199.702Z" fill="#CACACA"/>
<path d="M255.98 184.136C248.287 187.881 238.961 197.941 238.961 197.941C238.961 197.941 244.531 212.162 249.671 220.411C254.148 227.594 262.876 237.595 262.876 237.595L268.452 239.357C268.452 239.357 259.723 229.357 255.247 222.174C250.106 213.924 244.536 199.703 244.536 199.703C244.536 199.703 253.862 189.643 261.556 185.898C269.772 181.898 284.444 181.051 284.444 181.051C284.444 181.051 290.4 189.687 293.247 195.738C297.201 204.139 300.11 218.073 300.531 220.149L300.583 220.118C300.583 220.118 298.68 205.908 295.008 197.647C291.887 190.626 284.444 181.051 284.444 181.051L278.869 179.289C278.869 179.289 264.196 180.136 255.98 184.136Z" fill="#ACAAAA"/>
<path d="M238.961 197.941C238.961 197.941 244.531 212.162 249.671 220.412C254.148 227.595 262.876 237.595 262.876 237.595L268.452 239.357C268.452 239.357 259.723 229.357 255.247 222.174C250.106 213.925 244.536 199.704 244.536 199.704L238.961 197.941Z" fill="#BBB8B8"/>
<path d="M248.646 247.435C248.646 247.435 249.462 249.827 250.407 251.106C250.914 251.792 251.057 252.482 251.874 252.722C252.314 252.85 252.637 252.925 253.048 252.722C253.459 252.519 253.148 252.087 252.902 251.841C252.655 251.594 252.329 251.858 252.021 251.694C251.501 251.415 251.598 250.874 251.288 250.372C250.919 249.777 250.612 249.509 250.261 248.903C250.003 248.46 250.083 248.038 249.674 247.728C249.341 247.476 248.646 247.435 248.646 247.435Z" fill="#D6D6D6"/>
<path d="M244.537 246.994C244.537 246.994 245.389 249.427 246.004 250.959C246.282 251.651 246.331 252.098 246.738 252.722C247.027 253.165 247.138 253.529 247.618 253.75C247.884 253.872 248.06 253.897 248.352 253.897C248.644 253.897 248.515 253.545 248.499 253.309C248.468 252.862 248.617 252.789 248.352 252.428C247.957 251.889 247.742 251.99 247.426 251.4C247.038 250.676 246.655 249.79 246.298 249.05C246.019 248.473 246.29 248.055 245.858 247.582C245.611 247.31 245.098 247.054 244.537 246.994Z" fill="#D6D6D6"/>
<path d="M241.455 242.881C241.237 243.78 241.206 244.307 241.162 245.231C241.091 246.725 241.182 247.584 241.455 249.05C241.631 249.995 241.748 250.545 242.189 251.399C242.473 251.951 242.509 252.456 243.069 252.721C243.283 252.823 243.42 252.868 243.656 252.868C243.656 252.868 243.009 250.924 242.776 249.637C242.591 248.615 242.417 248.03 242.482 246.994C242.546 245.994 242.688 245.423 243.069 244.497C243.541 243.349 244.83 241.853 244.83 241.853L242.189 240.825C242.189 240.825 241.656 242.053 241.455 242.881Z" fill="#D6D6D6"/>
<path d="M253.565 194.733C253.516 194.42 253.785 194.156 254.101 194.181C255.12 194.262 255.961 194.235 257.156 194.122C259.758 193.877 261.178 193.311 263.612 192.36C264.783 191.903 265.426 191.609 266.546 191.038C268.657 189.963 269.78 189.221 271.682 187.807C273.459 186.485 274.618 185.831 275.97 184.171C276.123 183.983 276.389 183.92 276.592 184.053C278.288 185.157 278.34 186.996 279.164 188.395C279.164 188.395 275.697 189.682 273.736 191.479C271.612 193.424 270.144 194.148 267.427 195.297C264.869 196.379 262.992 196.857 260.237 197.207C257.839 197.511 255.249 198.969 255.249 198.969C254.371 197.279 253.807 196.255 253.565 194.733Z" fill="url(#paint56_linear_9598_59861)"/>
<path d="M300.143 260.506C300.261 259.827 300.143 258.743 300.143 258.743L310.414 261.387L309.68 263.883C309.68 263.883 313.524 268.026 314.082 271.374C314.375 273.136 313.539 277.101 311.001 277.101C306.452 277.101 304.652 275.042 302.051 271.961C299.729 269.212 297.55 266.907 298.529 263.443C298.885 262.183 299.92 261.795 300.143 260.506Z" fill="#C0C0C0"/>
<path d="M309.681 263.883L310.414 261.387H306.746C306.746 261.387 306.044 262.707 306.159 263.59C306.308 264.727 306.985 265.276 307.92 265.94C308.896 266.632 309.872 266.138 310.854 266.821C311.759 267.449 311.979 268.125 312.615 269.024C313.24 269.907 314.082 271.374 314.082 271.374C313.525 268.026 309.681 263.883 309.681 263.883Z" fill="#9C9C9C"/>
<path d="M300.143 260.506C299.92 261.795 298.885 262.183 298.529 263.443C297.55 266.907 299.729 269.212 302.051 271.961C304.652 275.042 306.452 277.101 311.001 277.101C311.001 277.101 307.84 276.335 306.159 275.192C304.313 273.937 303.527 272.827 302.344 270.933C301.57 269.693 301.03 268.986 300.73 267.555C300.472 266.32 300.326 265.519 300.73 264.324C301.036 263.42 301.67 263.143 302.051 262.268C302.406 261.452 302.638 260.065 302.638 260.065L300.143 258.743C300.143 258.743 300.261 259.827 300.143 260.506Z" fill="#D6D6D6"/>
<path d="M253.691 195.444C254.571 195.738 256.491 195.872 257.918 195.738C260.519 195.492 262.056 195.073 264.49 194.122C265.661 193.665 266.304 193.371 267.424 192.8C269.535 191.725 270.952 190.837 272.853 189.423C274.744 188.016 276.931 186.485 277.666 185.017C277.959 185.31 278.274 186.174 278.605 187.366C278.605 187.366 276.458 191.004 274.497 192.8C272.373 194.746 270.905 195.47 268.188 196.619C265.63 197.701 263.754 198.179 260.999 198.528C258.6 198.832 254.836 197.941 254.836 197.941C254.542 197.941 253.838 196.325 253.691 195.444Z" fill="url(#paint57_linear_9598_59861)"/>
<path d="M311.881 182.228C311.881 182.228 312.889 182.142 313.495 181.934C314.174 181.701 314.53 181.478 315.109 181.053C315.762 180.572 315.998 180.153 316.576 179.584C318.31 177.877 321.124 175.325 321.124 175.325C321.124 175.325 321.67 175.081 322.005 175.178C322.28 175.257 322.411 175.396 322.591 175.619C322.753 175.818 322.834 175.955 322.885 176.206C322.954 176.548 322.821 176.748 322.738 177.087C322.366 178.617 320.537 180.399 320.831 180.612L321.124 180.759C321.418 180.759 322.823 179.359 324.059 178.703C324.67 178.378 325.002 178.141 325.673 177.968C326.286 177.811 326.754 177.479 327.286 177.822C327.634 178.045 327.765 178.304 327.873 178.703C327.964 179.035 327.913 179.242 327.873 179.584C327.654 181.478 324.044 182.374 324.352 182.962C324.448 183.145 324.461 183.31 324.645 183.402C324.939 183.549 326.089 183.421 326.993 183.256C328.187 183.037 328.717 182.328 329.927 182.228C330.327 182.194 330.575 182.098 330.954 182.228C331.378 182.372 331.743 182.523 331.835 182.962C331.909 183.317 331.711 183.522 331.541 183.843C331.238 184.416 330.879 184.62 330.368 185.018C329.559 185.648 328.97 185.807 328.02 186.193C326.642 186.753 325.655 186.503 324.352 187.221C323.739 187.559 322.885 187.549 322.885 188.249C322.885 189.277 325.814 189.721 326.113 191.48C326.199 191.989 326.414 192.383 326.113 192.802C325.827 193.199 325.422 193.162 324.939 193.242C323.741 193.441 323.171 192.552 322.005 192.214C320.763 191.854 320.062 191.619 318.777 191.48C317.58 191.351 315.696 191.48 315.696 191.48L315.255 184.43L311.881 182.228Z" fill="#C0C0C0"/>
<path d="M329.929 182.226C328.72 182.326 328.189 183.036 326.995 183.254C326.702 183.401 326.701 183.401 326.555 183.548L326.555 183.548C326.409 183.694 326.221 183.785 326.261 183.988C326.302 184.191 326.507 184.212 326.702 184.282C327.147 184.441 327.434 184.157 327.875 183.988C328.234 183.851 328.389 183.664 328.756 183.548C329.088 183.442 329.291 183.452 329.636 183.401C330.093 183.333 330.358 183.348 330.81 183.254C331.218 183.169 331.928 183.399 331.837 182.96C331.745 182.522 331.38 182.37 330.956 182.226C330.577 182.097 330.329 182.192 329.929 182.226Z" fill="#D6D6D6"/>
<path d="M324.061 178.7C322.886 179.435 322.153 180.022 322.153 180.022C322.153 180.022 321.829 180.293 322.006 180.61C322.237 181.022 322.729 181.044 323.18 180.903C323.532 180.747 323.712 180.625 324.061 180.463C324.456 180.278 324.713 180.245 325.088 180.022C325.612 179.711 325.746 179.319 326.262 178.994C326.587 178.789 326.929 178.874 327.142 178.553C327.303 178.31 327.821 178.161 327.289 177.819C326.756 177.477 326.288 177.809 325.675 177.966C325.004 178.138 324.648 178.333 324.061 178.7Z" fill="#D6D6D6"/>
<path d="M313.496 181.934C312.89 182.142 312.425 181.888 311.882 182.228C310.547 183.062 313.705 184.69 315.256 184.43C316.119 184.286 316.368 183.619 317.164 183.256C317.609 183.052 317.942 183.103 318.337 182.815C318.699 182.551 318.922 182.356 319.071 181.934C319.307 181.265 318.522 180.872 318.631 180.171C318.762 179.321 319.441 179.101 319.951 178.409C320.414 177.781 320.585 177.355 321.125 176.793C321.634 176.264 322.773 175.841 322.592 175.619C322.412 175.396 322.281 175.257 322.005 175.178C321.671 175.081 321.125 175.325 321.125 175.325C321.125 175.325 318.311 177.877 316.577 179.584C315.999 180.153 315.763 180.572 315.11 181.053C314.531 181.478 314.175 181.701 313.496 181.934Z" fill="#D6D6D6"/>
<path d="M282.945 277.779C283.45 277.068 284.287 275.994 284.287 275.994L289.655 276.887L293.102 275.632L295.47 270.492C295.47 270.492 296.041 271.933 296.364 272.871C296.681 273.792 296.961 274.289 297.11 275.251C297.405 277.167 297.016 278.332 296.364 280.158C295.4 282.861 294.054 284.058 292.04 286.106C290.092 288.088 286.374 290.419 286.374 290.419C286.374 290.419 282.315 292.37 280.41 291.014C279.385 290.283 278.988 289.539 278.621 288.337C277.996 286.288 279.035 284.979 279.814 282.983C280.676 280.775 281.572 279.714 282.945 277.779Z" fill="#C0C0C0"/>
<path d="M296.363 272.871C296.04 271.933 295.468 270.492 295.468 270.492C295.468 270.492 292.319 273.565 293.1 275.632C293.516 276.733 294.753 276.729 295.154 277.835C295.768 279.524 294.675 280.654 293.834 282.241C293.163 283.508 292.592 284.114 291.633 285.179C290.547 286.385 290.057 286.912 288.992 287.969C287.998 288.955 286.373 290.419 286.373 290.419C286.373 290.419 290.09 288.088 292.039 286.106C294.053 284.057 295.398 282.861 296.363 280.158C297.014 278.332 297.403 277.167 297.108 275.251C296.96 274.289 296.68 273.792 296.363 272.871Z" fill="#9C9C9C"/>
<path d="M282.945 277.779C281.572 279.714 280.676 280.775 279.814 282.983C279.035 284.979 277.997 286.288 278.621 288.337C278.987 289.54 279.603 290.613 280.41 291.014C280.337 290.553 280.189 290.796 280.043 289.878C279.897 288.961 279.698 288.086 279.814 286.941C279.954 285.56 280.34 284.823 280.924 283.563C281.549 282.213 281.87 281.361 282.945 280.332C283.422 279.876 283.743 279.678 284.287 279.304C286.181 278.001 290.019 278.715 289.654 276.887C289.239 274.801 284.287 275.994 284.287 275.994C284.287 275.994 283.449 277.068 282.945 277.779Z" fill="#D6D6D6"/>
<path d="M254.116 196.864C257.784 196.864 258.74 196.899 261.557 196.326C264.398 195.749 265.99 195.242 268.599 193.976C270.988 192.817 272.3 192.027 274.321 190.305C276.05 188.831 277.402 187.367 278.283 186.046C278.869 186.78 278.84 187.115 279.456 187.514C279.671 187.654 279.8 187.728 280.043 187.808C281.095 188.153 281.61 187.046 282.684 186.78C284.024 186.448 284.829 186.59 286.205 186.486C289.181 186.262 290.858 186.264 293.835 186.046C296.473 185.852 297.976 185.902 300.584 185.458C304.783 184.743 306.747 182.44 311.001 182.227C311.86 182.184 312.363 182.04 313.202 182.227C315.065 182.642 315.739 183.92 316.87 185.458C317.675 186.553 318.267 187.2 318.484 188.542C318.736 190.108 318.66 191.325 317.604 192.508C316.418 193.835 314.846 193.002 313.202 193.683C311.349 194.449 310.72 195.747 308.8 196.326C307.528 196.71 306.713 196.434 305.426 196.767C303.118 197.363 302.212 198.675 299.997 199.557C298.431 200.181 297.545 200.569 295.889 200.879C294.701 201.102 294.014 201.098 292.808 201.173C290.52 201.315 290.314 200.585 287.526 201.173C287.526 201.907 287.542 202.173 287.966 202.788C288.891 204.13 289.606 204.734 290.607 206.019C294.223 210.661 294.682 214.471 298.823 218.65C299.334 219.165 299.757 219.334 300.162 219.935C300.724 220.768 300.392 221.537 300.914 222.395C301.769 223.801 302.921 224.024 304.371 224.8C305.447 225.375 306.201 225.394 307.241 226.03C308.485 226.789 309.01 227.466 310.047 228.49C310.906 229.338 311.283 229.915 312.138 230.766C313.34 231.963 314.372 232.283 315.403 233.63C316.307 234.811 316.732 235.584 317.163 237.008C317.516 238.172 317.668 238.877 317.604 240.092C317.527 241.524 316.972 242.239 316.576 243.617C315.69 246.706 315.469 248.525 314.376 251.548C313.284 254.565 311.919 255.963 311.001 259.038C310.564 260.504 311.197 261.77 310.121 262.856C309.151 263.835 308.124 263.859 306.746 263.884C305.385 263.91 304.588 263.617 303.372 263.003C302.527 262.577 302.035 262.301 301.391 261.608C300.614 260.772 299.546 260.172 299.41 259.038C298.97 255.366 299.635 254.103 300.437 251.107C300.834 249.625 301.764 248.968 301.831 247.435C301.885 246.205 301.706 245.46 301.171 244.351C298.383 242.736 296.769 242.736 291.487 241.708C291.194 241.708 290.314 241.708 289.727 244.498C289.433 246.407 289.955 248.28 290.607 250.813C291.21 253.157 291.38 254.516 292.074 256.835C293.006 259.947 293.919 261.558 295.009 264.619C295.538 266.105 296.109 266.875 296.329 268.437C296.489 269.573 296.518 270.243 296.329 271.374C295.992 273.398 295.51 274.66 294.275 276.368C293.633 277.255 293.34 277.92 292.368 278.424C291.294 278.98 290.495 278.693 289.287 278.718C288.139 278.741 287.479 278.785 286.352 278.571C285.409 278.391 284.797 278.379 284.005 277.837C283.266 277.331 283.068 276.796 282.537 276.074C280.882 273.822 280.261 272.239 279.163 269.612C277.756 266.247 277.312 264.214 276.522 260.653C276.193 259.171 276.116 258.317 275.788 256.835C275.145 253.927 275.436 253.289 274.028 250.666C273.211 249.145 271.841 247.483 271.167 245.893C270.517 244.361 270.8 243.201 270.066 241.708C269.118 239.779 269.186 241.708 266.985 237.302C265.011 233.35 262.583 231.72 261.41 227.462C261.207 226.724 261.128 226.301 260.97 225.552C260.777 224.639 260.711 224.118 260.529 223.203C260.027 220.664 259.796 217.769 259.062 216.741C258.777 216.71 258.615 216.726 258.329 216.741C255.981 216.86 257.928 225.535 255.688 230.546C255.269 231.482 254.788 231.907 254.514 232.896C254.131 234.277 254.815 235.166 254.514 236.567C254.18 238.122 253.802 239.044 252.753 240.239C251.83 241.291 251.149 241.861 249.819 242.295C248.403 242.758 247.487 242.439 246.004 242.295C244.729 242.171 243.884 242.353 242.776 241.708C241.83 241.156 241.288 240.664 240.869 239.652C240.408 238.539 240.999 237.765 240.869 236.567C240.749 235.46 240.459 234.876 240.282 233.777C240.126 232.808 239.856 232.253 239.989 231.28C240.087 230.561 240.407 230.223 240.576 229.518C240.831 228.452 240.845 227.823 240.869 226.727C240.899 225.346 240.507 224.582 240.576 223.203C240.618 222.336 240.757 221.86 240.869 221C241.175 218.651 240.938 217.252 241.603 214.978C241.842 214.16 241.969 213.691 242.336 212.922C242.713 212.132 243.025 211.741 243.51 211.013C244.101 210.125 244.54 209.703 245.124 208.81C246.387 206.878 246.545 205.482 247.765 203.523C248.353 202.577 248.655 202.019 249.379 201.173C250.625 199.717 251.334 198.549 253.193 198.089C253.532 198.005 253.817 198.178 254.074 197.942C254.372 197.668 254.006 197.255 254.116 196.864Z" fill="#464BB4"/>
<path d="M300.164 219.934C299.758 219.333 299.335 219.164 298.825 218.649C294.683 214.47 294.224 210.66 290.608 206.018C289.607 204.733 288.893 204.129 287.967 202.787C287.543 202.172 287.527 201.172 287.527 201.172C287.527 201.172 286.058 200.858 285.326 200.291C283.688 199.022 284.299 195.15 284.006 195.15C280.886 195.151 284.465 200.01 285.033 203.081C285.374 204.929 285.512 205.984 286.06 207.781C287.04 210.996 287.897 212.747 289.728 215.565C291.829 218.799 292.96 221.036 296.33 222.908C299.151 224.475 305.823 225.575 304.373 224.799C302.923 224.023 301.77 223.8 300.915 222.394C300.394 221.536 300.725 220.767 300.164 219.934Z" fill="#676DD8"/>
<path d="M287.527 201.172C290.315 200.584 290.522 201.314 292.809 201.172C295.097 201.029 290.322 200.59 288.995 199.703C288.017 199.05 287.575 198.527 286.794 197.647C285.949 196.695 284.006 195.15 284.006 195.15C284.006 195.15 283.946 196.795 284.153 197.647C284.393 198.635 284.289 199.398 285.033 200.144C285.741 200.852 287.527 201.172 287.527 201.172Z" fill="#676DD8"/>
<path d="M291.486 241.707C296.768 242.735 298.382 242.735 301.17 244.35C301.705 245.459 301.884 246.204 301.83 247.434C301.763 248.967 300.833 249.624 300.436 251.106C299.634 254.102 298.969 255.365 299.409 259.037C299.545 260.171 300.613 260.771 301.39 261.607C302.167 262.443 302.472 261.008 302.49 260.359C302.509 259.687 301.722 259.621 301.39 259.037C300.702 257.828 300.781 256.9 300.876 255.512C301.002 253.684 301.909 252.844 302.49 251.106C303.193 249.007 304.474 247.855 304.104 245.672C303.804 243.897 303.114 242.887 301.757 241.707C300.074 240.244 298.555 239.866 296.328 239.944C294.317 240.015 291.926 240.679 291.486 241.707Z" fill="#676DD8"/>
<path d="M269.325 207.486L269.912 207.046C269.912 207.046 270.116 209.373 270.059 210.864C270.002 212.364 270.044 213.243 269.619 214.683C269.059 216.579 267.903 217.271 267.125 219.089C266.647 220.206 266.098 222.026 266.098 222.026C266.098 222.026 265.179 218.15 265.657 217.033C266.435 215.215 267.592 214.523 268.152 212.627C268.577 211.187 268.535 210.308 268.592 208.808C269.325 207.486 269.325 207.486 269.325 207.486Z" fill="#676DD8"/>
<path d="M254.074 197.941C253.817 198.177 253.532 198.005 253.193 198.088C251.334 198.548 250.625 199.717 249.379 201.172C248.655 202.018 248.353 202.577 247.765 203.522C246.545 205.482 246.387 206.878 245.124 208.809C244.54 209.702 244.101 210.125 243.51 211.012C243.025 211.741 242.713 212.132 242.336 212.922C241.969 213.691 241.842 214.159 241.603 214.978C240.938 217.251 241.175 218.65 240.869 220.999C240.757 221.86 240.618 222.335 240.576 223.202C240.507 224.582 240.899 225.346 240.869 226.727C240.845 227.822 240.831 228.452 240.576 229.517C240.407 230.223 240.087 230.561 239.989 231.28C239.856 232.253 240.126 232.807 240.282 233.777C240.459 234.876 240.749 235.46 240.869 236.567C240.999 237.764 240.408 238.538 240.869 239.651C241.288 240.663 241.83 241.156 242.776 241.707C243.884 242.353 244.729 242.171 246.004 242.295C247.279 242.419 246.214 236.451 246.738 232.748C247.397 228.092 248.098 225.524 249.379 220.999C250.633 216.567 251.423 214.09 253.193 209.837C255.194 205.031 264.011 199.943 259.209 197.941H254.074Z" fill="#676DD8"/>
<path d="M286.351 278.568C287.478 278.782 289.285 278.715 289.285 278.715C292.204 277.712 287.428 274.266 286.351 271.372C285.377 268.754 284.807 267.291 284.004 264.616C283.356 262.457 283.568 261.038 282.536 259.035C281.712 257.434 280.592 256.954 279.749 255.363C278.268 252.571 278.426 250.58 278.135 247.432C277.886 244.748 278.135 243.225 278.135 240.53C278.135 238.408 278.318 237.21 278.135 235.096C277.979 233.302 278.589 231.895 277.401 230.543C276.452 229.463 275.461 219.933 274.027 219.853C272.379 219.762 271.393 220.342 270.065 221.322C267.733 223.042 264.783 232.893 266.984 237.299C269.185 241.705 269.117 239.776 270.065 241.705C270.799 243.198 270.516 244.358 271.166 245.89C271.84 247.48 273.21 249.142 274.027 250.663C275.435 253.287 275.144 253.924 275.787 256.832C276.115 258.314 276.192 259.168 276.521 260.65L276.544 260.753C277.319 264.251 277.769 266.277 279.162 269.609C280.26 272.236 280.829 273.794 282.536 276.071C283.074 276.788 283.265 277.328 284.004 277.834C284.796 278.376 285.407 278.389 286.351 278.568Z" fill="#676DD8"/>
<path d="M270.766 197.36L271.265 197.052C271.265 197.052 273.897 200.401 275.375 202.69C278.134 206.965 278.79 209.865 281.244 214.322C282.573 216.734 283.441 218.017 284.766 220.431C286.71 223.974 288.307 225.78 289.461 229.654C290.497 233.134 290.635 238.877 290.635 238.877L290.136 239.186C290.136 239.186 289.998 233.442 288.962 229.963C287.808 226.089 286.21 224.283 284.266 220.74C282.942 218.325 282.073 217.043 280.745 214.63C278.29 210.174 277.634 207.273 274.875 202.999C273.397 200.71 270.766 197.36 270.766 197.36Z" fill="#676DD8"/>
<path d="M279.164 187.368C279.164 187.368 279.606 187.647 279.897 187.749C280.484 187.955 280.461 187.866 280.778 187.808C281.364 187.661 281.624 187.174 282.245 186.927C282.632 186.772 282.864 186.719 283.272 186.633C284.003 186.48 284.434 186.534 285.179 186.486C286.553 186.398 287.326 186.401 288.7 186.339C289.904 186.285 290.579 186.262 291.782 186.193C293.387 186.1 294.285 186.001 295.89 185.899C296.864 185.837 298.384 185.752 298.384 185.752C298.651 186.029 298.709 186.266 298.824 186.633C299.288 188.106 298.46 189.225 297.357 190.305C296.113 191.522 294.83 191.427 293.102 191.627C290.864 191.885 289.621 191.122 287.38 190.892C283.327 190.476 276.963 190.305 276.963 190.305L278.283 188.836L279.164 187.368Z" fill="#676DD8"/>
<path d="M254.221 197.647C254.221 197.647 263.254 198.145 268.526 196.031C273.6 193.997 279.251 187.366 279.251 187.366C279.382 187.469 279.459 187.523 279.603 187.61C279.603 187.61 273.884 194.348 268.893 196.472C263.483 198.774 254.074 197.94 254.074 197.94C254.179 197.843 254.2 197.777 254.221 197.647Z" fill="url(#paint58_linear_9598_59861)"/>
<path d="M254.221 197.647C254.221 197.647 263.254 198.145 268.526 196.031C273.6 193.997 279.251 187.366 279.251 187.366C279.382 187.469 279.459 187.523 279.603 187.61C279.603 187.61 273.884 194.348 268.893 196.472C263.483 198.774 254.074 197.94 254.074 197.94C254.179 197.843 254.2 197.777 254.221 197.647Z" fill="#676DD8"/>
<path d="M257.889 207.046H258.182C258.182 207.046 259.463 210.205 259.503 212.333C259.535 214.07 258.769 216.721 258.769 216.721C258.485 216.731 258.6 216.73 258.476 216.73C258.476 216.73 259.265 213.983 259.209 212.186C259.145 210.114 257.889 207.046 257.889 207.046Z" fill="#676DD8"/>
<path d="M235.73 169.771C236.138 167.849 236.611 166.793 237.613 165.072C238.558 163.45 239.273 162.625 240.595 161.253C242.46 159.317 243.719 158.368 246.087 156.994C248.371 155.668 249.804 155.121 252.363 154.351C255.155 153.51 256.808 153.138 259.738 153.029C262.072 152.941 263.41 153.043 265.701 153.469C267.072 153.724 267.865 153.844 269.153 154.351C270.393 154.839 271.061 155.207 272.135 155.966C274.875 157.903 275.624 159.845 277.156 162.722C277.953 164.218 278.305 165.105 278.882 166.687C279.478 168.32 279.846 169.243 280.137 170.946C280.553 173.382 280.824 174.88 280.137 177.262C279.58 179.193 278.861 180.181 277.627 181.814C276.524 183.273 275.787 184.037 274.331 185.192C272.528 186.623 271.233 187.077 269.153 188.13C266.597 189.423 265.172 190.233 262.406 191.067C258.405 192.272 255.837 193.248 251.736 192.389C249.592 191.94 248.419 191.425 246.557 190.333C245.082 189.466 244.355 188.824 243.105 187.689C240.457 185.284 239.103 183.652 237.613 180.493C235.784 176.61 234.848 173.933 235.73 169.771Z" fill="url(#paint59_linear_9598_59861)"/>
<path d="M238.351 178.584L245.54 190.333C245.54 190.333 243.376 190.44 242.165 189.893C240.799 189.274 240.257 188.465 239.378 187.249C238.521 186.065 238.128 185.287 237.764 183.871C237.292 182.038 238.351 178.584 238.351 178.584Z" fill="#B7B6B2"/>
<path d="M275.789 163.724C275.789 163.724 278.776 164.77 279.578 165.368C280.262 165.877 280.574 166.274 281.045 166.983C281.789 168.101 282.023 168.886 282.219 170.214C282.361 171.179 282.361 171.747 282.219 172.711C282.023 174.039 279.578 178.116 279.578 178.116L275.789 163.724Z" fill="#B7B7C3"/>
<g filter="url(#filter0_f_9598_59861)">
<path d="M278.699 166.712L279.351 166.25C279.351 166.25 279.989 167.261 280.329 167.942C280.792 168.871 281.004 169.418 281.306 170.404C281.452 170.88 281.706 171.145 281.632 171.635C281.56 172.115 280.98 172.712 280.98 172.712C280.98 172.712 280.649 171.194 280.329 170.25C279.841 168.815 278.699 166.712 278.699 166.712Z" fill="#62635E" fill-opacity="0.5"/>
</g>
<path d="M238.056 172.121C238.437 170.198 238.88 169.142 239.817 167.421C240.7 165.8 241.369 164.975 242.604 163.603C244.348 161.667 245.526 160.717 247.74 159.344C249.876 158.018 251.216 157.47 253.608 156.7C256.219 155.86 257.764 155.488 260.504 155.378C262.687 155.291 263.937 155.393 266.08 155.819C267.361 156.074 268.103 156.193 269.307 156.7C270.467 157.188 271.091 157.557 272.095 158.316C274.657 160.253 275.358 162.195 276.79 165.071C277.535 166.568 277.864 167.454 278.404 169.037C278.961 170.67 279.306 171.592 279.578 173.296C279.967 175.731 280.22 177.23 279.578 179.611C279.057 181.543 278.385 182.531 277.23 184.164C276.2 185.622 275.51 186.387 274.149 187.542C272.463 188.973 271.252 189.426 269.307 190.479C266.917 191.773 265.585 192.583 262.998 193.416C259.257 194.622 256.857 195.597 253.022 194.738C251.017 194.289 249.92 193.774 248.18 192.682C246.8 191.816 246.121 191.174 244.952 190.039C242.476 187.633 241.209 186.002 239.817 182.842C238.106 178.96 237.231 176.283 238.056 172.121Z" fill="url(#paint60_linear_9598_59861)"/>
<path d="M243.631 174.764C244.951 172.561 245.471 171.806 247.005 170.211C248.762 168.385 249.972 167.556 252.141 166.246C254.248 164.973 255.55 164.444 257.863 163.602C261.09 162.428 262.704 162.134 265.345 162.134C267.212 162.134 268.462 163.297 269.6 164.777C271.067 166.687 271.4 167.124 272.535 169.33C273.441 171.091 274.442 174.03 274.442 174.03C274.442 174.03 275.131 176.526 274.442 177.848C272.681 181.226 269.557 183.93 265.345 186.367C260.95 188.91 259.623 189.891 252.874 189.598C249.646 188.863 244.712 184.103 243.631 178.436C243.404 177.247 243.009 175.802 243.631 174.764Z" fill="url(#paint61_linear_9598_59861)"/>
<path d="M249.939 167.568C252.064 165.982 253.518 165.236 255.954 164.19C258.32 163.174 259.709 162.597 262.263 162.281C263.175 162.168 264.611 162.134 264.611 162.134C264.611 162.134 259.153 167.853 257.275 172.414C255.203 177.446 255.368 186.22 255.368 186.22L249.205 186.807C249.205 186.807 243.747 177.428 244.657 173.589C244.95 172.352 245.782 171.404 246.858 170.211C247.916 169.038 248.673 168.512 249.939 167.568Z" fill="url(#paint62_linear_9598_59861)"/>
<path fill-rule="evenodd" clip-rule="evenodd" d="M246.558 169.968C244.966 171.631 244.427 172.419 243.057 174.716C242.484 175.678 242.744 176.976 242.975 178.124C243.003 178.266 243.031 178.407 243.057 178.544C244.179 184.454 249.297 189.417 252.646 190.182C259.313 190.474 260.879 189.56 264.952 187.181L265.582 186.813C269.951 184.273 273.192 181.454 275.018 177.932C275.733 176.553 275.018 173.95 275.018 173.95C275.018 173.95 273.98 170.886 273.04 169.05C271.862 166.749 271.518 166.293 269.996 164.302C268.816 162.758 267.518 161.546 265.582 161.546C262.842 161.546 261.168 161.852 257.82 163.077C255.421 163.955 254.07 164.506 251.885 165.834C249.635 167.2 248.381 168.064 246.558 169.968ZM247.006 170.211C245.472 171.806 244.952 172.561 243.632 174.764C243.079 175.686 243.33 176.931 243.552 178.031C243.579 178.169 243.606 178.304 243.632 178.435C244.713 184.103 249.647 188.863 252.875 189.597C259.303 189.877 260.813 189 264.739 186.719C264.935 186.605 265.137 186.487 265.346 186.366C269.558 183.929 272.682 181.226 274.443 177.848C275.132 176.526 274.443 174.029 274.443 174.029C274.443 174.029 273.442 171.091 272.535 169.33C271.4 167.124 271.068 166.686 269.601 164.777C268.463 163.296 267.213 162.133 265.346 162.133C262.705 162.133 261.091 162.427 257.863 163.602C255.551 164.444 254.248 164.972 252.141 166.246C249.973 167.556 248.763 168.385 247.006 170.211Z" fill="url(#paint63_linear_9598_59861)"/>
<defs>
<filter id="filter0_f_9598_59861" x="274.699" y="162.25" width="10.9463" height="14.4619" filterUnits="userSpaceOnUse" color-interpolation-filters="sRGB">
<feFlood flood-opacity="0" result="BackgroundImageFix"/>
<feBlend mode="normal" in="SourceGraphic" in2="BackgroundImageFix" result="shape"/>
<feGaussianBlur stdDeviation="2" result="effect1_foregroundBlur_9598_59861"/>
</filter>
<linearGradient id="paint0_linear_9598_59861" x1="319.413" y1="49.9889" x2="242.431" y2="428.997" gradientUnits="userSpaceOnUse">
<stop stop-color="#774BF0" stop-opacity="0.31"/>
<stop offset="1" stop-color="#FCFBFF" stop-opacity="0"/>
</linearGradient>
<radialGradient id="paint1_radial_9598_59861" cx="0" cy="0" r="1" gradientUnits="userSpaceOnUse" gradientTransform="translate(357.136 191.71) scale(11.5038 11.4136)">
<stop stop-color="#FEE7CA"/>
<stop offset="1" stop-color="#FEE7CA" stop-opacity="0"/>
</radialGradient>
<linearGradient id="paint2_linear_9598_59861" x1="360.625" y1="207.16" x2="345.4" y2="195.077" gradientUnits="userSpaceOnUse">
<stop offset="0.137" stop-color="#3C74DA"/>
<stop offset="1" stop-color="#DD94FF"/>
</linearGradient>
<linearGradient id="paint3_linear_9598_59861" x1="347.463" y1="183.326" x2="364.195" y2="183.326" gradientUnits="userSpaceOnUse">
<stop stop-color="white" stop-opacity="0.78"/>
<stop offset="1" stop-color="white" stop-opacity="0"/>
</linearGradient>
<linearGradient id="paint4_linear_9598_59861" x1="347.297" y1="187.138" x2="366.099" y2="187.138" gradientUnits="userSpaceOnUse">
<stop stop-color="white" stop-opacity="0.78"/>
<stop offset="1" stop-color="white" stop-opacity="0"/>
</linearGradient>
<linearGradient id="paint5_linear_9598_59861" x1="349.155" y1="191.022" x2="366.34" y2="191.022" gradientUnits="userSpaceOnUse">
<stop stop-color="white" stop-opacity="0.78"/>
<stop offset="1" stop-color="white" stop-opacity="0"/>
</linearGradient>
<linearGradient id="paint6_linear_9598_59861" x1="351.217" y1="181.727" x2="359.548" y2="181.727" gradientUnits="userSpaceOnUse">
<stop stop-color="white" stop-opacity="0.78"/>
<stop offset="1" stop-color="white" stop-opacity="0"/>
</linearGradient>
<linearGradient id="paint7_linear_9598_59861" x1="355.245" y1="197.026" x2="364.287" y2="197.026" gradientUnits="userSpaceOnUse">
<stop stop-color="white" stop-opacity="0.78"/>
<stop offset="1" stop-color="white" stop-opacity="0"/>
</linearGradient>
<linearGradient id="paint8_linear_9598_59861" x1="487.341" y1="215.419" x2="513.649" y2="190.714" gradientUnits="userSpaceOnUse">
<stop stop-color="#53E2E3"/>
<stop offset="1" stop-color="#4FADEB"/>
</linearGradient>
<linearGradient id="paint9_linear_9598_59861" x1="521.125" y1="192.993" x2="519.296" y2="181.625" gradientUnits="userSpaceOnUse">
<stop stop-color="#39D3E1"/>
<stop offset="1" stop-color="#25C1E1"/>
</linearGradient>
<radialGradient id="paint10_radial_9598_59861" cx="0" cy="0" r="1" gradientUnits="userSpaceOnUse" gradientTransform="translate(194.142 139.325) rotate(158.089) scale(9.96716 9.88907)">
<stop stop-color="#FEE7CA"/>
<stop offset="1" stop-color="#FEE7CA" stop-opacity="0"/>
</radialGradient>
<linearGradient id="paint11_linear_9598_59861" x1="196.333" y1="152.87" x2="204.665" y2="138.235" gradientUnits="userSpaceOnUse">
<stop offset="0.137" stop-color="#3C74DA"/>
<stop offset="1" stop-color="#DD94FF"/>
</linearGradient>
<linearGradient id="paint12_linear_9598_59861" x1="199.205" y1="129.456" x2="185.756" y2="134.866" gradientUnits="userSpaceOnUse">
<stop stop-color="white" stop-opacity="0.78"/>
<stop offset="1" stop-color="white" stop-opacity="0"/>
</linearGradient>
<linearGradient id="paint13_linear_9598_59861" x1="200.573" y1="132.469" x2="185.459" y2="138.548" gradientUnits="userSpaceOnUse">
<stop stop-color="white" stop-opacity="0.78"/>
<stop offset="1" stop-color="white" stop-opacity="0"/>
</linearGradient>
<linearGradient id="paint14_linear_9598_59861" x1="200.336" y1="136.189" x2="186.522" y2="141.746" gradientUnits="userSpaceOnUse">
<stop stop-color="white" stop-opacity="0.78"/>
<stop offset="1" stop-color="white" stop-opacity="0"/>
</linearGradient>
<linearGradient id="paint15_linear_9598_59861" x1="195.671" y1="129.386" x2="188.974" y2="132.08" gradientUnits="userSpaceOnUse">
<stop stop-color="white" stop-opacity="0.78"/>
<stop offset="1" stop-color="white" stop-opacity="0"/>
</linearGradient>
<linearGradient id="paint16_linear_9598_59861" x1="197.381" y1="142.984" x2="190.112" y2="145.908" gradientUnits="userSpaceOnUse">
<stop stop-color="white" stop-opacity="0.78"/>
<stop offset="1" stop-color="white" stop-opacity="0"/>
</linearGradient>
<linearGradient id="paint17_linear_9598_59861" x1="97.1464" y1="200.48" x2="68.0114" y2="189.127" gradientUnits="userSpaceOnUse">
<stop stop-color="#53E2E3"/>
<stop offset="1" stop-color="#4FADEB"/>
</linearGradient>
<linearGradient id="paint18_linear_9598_59861" x1="62.738" y1="193.377" x2="60.5327" y2="183.647" gradientUnits="userSpaceOnUse">
<stop stop-color="#39D3E1"/>
<stop offset="1" stop-color="#25C1E1"/>
</linearGradient>
<radialGradient id="paint19_radial_9598_59861" cx="0" cy="0" r="1" gradientUnits="userSpaceOnUse" gradientTransform="translate(251.674 89.0584) rotate(-21.9111) scale(10.293 10.2124)">
<stop stop-color="#FEE7CA"/>
<stop offset="1" stop-color="#FEE7CA" stop-opacity="0"/>
</radialGradient>
<linearGradient id="paint20_linear_9598_59861" x1="259.728" y1="100.719" x2="243.056" y2="95.7722" gradientUnits="userSpaceOnUse">
<stop offset="0.137" stop-color="#3C74DA"/>
<stop offset="1" stop-color="#F7D3A1"/>
</linearGradient>
<linearGradient id="paint21_linear_9598_59861" x1="240.845" y1="85.3262" x2="254.735" y2="79.7396" gradientUnits="userSpaceOnUse">
<stop stop-color="white" stop-opacity="0.78"/>
<stop offset="1" stop-color="white" stop-opacity="0"/>
</linearGradient>
<linearGradient id="paint22_linear_9598_59861" x1="241.982" y1="88.5499" x2="257.591" y2="82.2719" gradientUnits="userSpaceOnUse">
<stop stop-color="white" stop-opacity="0.78"/>
<stop offset="1" stop-color="white" stop-opacity="0"/>
</linearGradient>
<linearGradient id="paint23_linear_9598_59861" x1="244.818" y1="91.1506" x2="259.084" y2="85.4125" gradientUnits="userSpaceOnUse">
<stop stop-color="white" stop-opacity="0.78"/>
<stop offset="1" stop-color="white" stop-opacity="0"/>
</linearGradient>
<linearGradient id="paint24_linear_9598_59861" x1="243.429" y1="82.7469" x2="250.345" y2="79.9652" gradientUnits="userSpaceOnUse">
<stop stop-color="white" stop-opacity="0.78"/>
<stop offset="1" stop-color="white" stop-opacity="0"/>
</linearGradient>
<linearGradient id="paint25_linear_9598_59861" x1="251.88" y1="94.1006" x2="259.387" y2="91.0814" gradientUnits="userSpaceOnUse">
<stop stop-color="white" stop-opacity="0.78"/>
<stop offset="1" stop-color="white" stop-opacity="0"/>
</linearGradient>
<radialGradient id="paint26_radial_9598_59861" cx="0" cy="0" r="1" gradientUnits="userSpaceOnUse" gradientTransform="translate(292.435 264.787) scale(187.617 235.916)">
<stop stop-color="#372D98" stop-opacity="0"/>
<stop offset="1" stop-color="#131724"/>
</radialGradient>
<radialGradient id="paint27_radial_9598_59861" cx="0" cy="0" r="1" gradientUnits="userSpaceOnUse" gradientTransform="translate(292.665 274.929) scale(163.557 205.113)">
<stop stop-color="#372D98"/>
<stop offset="1" stop-color="#131724"/>
</radialGradient>
<linearGradient id="paint28_linear_9598_59861" x1="294.544" y1="291.057" x2="294.544" y2="433.255" gradientUnits="userSpaceOnUse">
<stop stop-color="white"/>
<stop offset="0.786458" stop-color="#DDC9FF"/>
</linearGradient>
<radialGradient id="paint29_radial_9598_59861" cx="0" cy="0" r="1" gradientUnits="userSpaceOnUse" gradientTransform="translate(292.735 280.345) scale(100.881 100.728)">
<stop stop-color="#372D98"/>
<stop offset="1" stop-color="#131724"/>
</radialGradient>
<radialGradient id="paint30_radial_9598_59861" cx="0" cy="0" r="1" gradientUnits="userSpaceOnUse" gradientTransform="translate(301.649 326.988) scale(20.7187 20.6872)">
<stop stop-color="#372D98"/>
<stop offset="1" stop-color="#131724"/>
</radialGradient>
<radialGradient id="paint31_radial_9598_59861" cx="0" cy="0" r="1" gradientUnits="userSpaceOnUse" gradientTransform="translate(308.057 326.707) scale(20.7187 20.6872)">
<stop stop-color="#372D98"/>
<stop offset="1" stop-color="#131724"/>
</radialGradient>
<radialGradient id="paint32_radial_9598_59861" cx="0" cy="0" r="1" gradientUnits="userSpaceOnUse" gradientTransform="translate(333.967 283.884) scale(81.3784 81.2546)">
<stop stop-color="#372D98"/>
<stop offset="1" stop-color="#131724"/>
</radialGradient>
<radialGradient id="paint33_radial_9598_59861" cx="0" cy="0" r="1" gradientUnits="userSpaceOnUse" gradientTransform="translate(333.966 281.174) scale(81.3783 81.2546)">
<stop stop-color="#372D98"/>
<stop offset="1" stop-color="#131724"/>
</radialGradient>
<radialGradient id="paint34_radial_9598_59861" cx="0" cy="0" r="1" gradientUnits="userSpaceOnUse" gradientTransform="translate(230.294 273.904) rotate(-7.13587) scale(139.31 138.357)">
<stop stop-color="#372D98"/>
<stop offset="1" stop-color="#131724"/>
</radialGradient>
<radialGradient id="paint35_radial_9598_59861" cx="0" cy="0" r="1" gradientUnits="userSpaceOnUse" gradientTransform="translate(333.966 281.503) scale(83.1554 83.0291)">
<stop stop-color="#372D98"/>
<stop offset="1" stop-color="#131724"/>
</radialGradient>
<radialGradient id="paint36_radial_9598_59861" cx="0" cy="0" r="1" gradientUnits="userSpaceOnUse" gradientTransform="translate(333.966 279.866) scale(84.5119 84.3833)">
<stop stop-color="#372D98"/>
<stop offset="1" stop-color="#131724"/>
</radialGradient>
<radialGradient id="paint37_radial_9598_59861" cx="0" cy="0" r="1" gradientUnits="userSpaceOnUse" gradientTransform="translate(333.967 275.664) scale(90.5451 90.4075)">
<stop stop-color="#372D98"/>
<stop offset="1" stop-color="#131724"/>
</radialGradient>
<radialGradient id="paint38_radial_9598_59861" cx="0" cy="0" r="1" gradientUnits="userSpaceOnUse" gradientTransform="translate(333.966 279.588) scale(85.6811 85.5507)">
<stop stop-color="#372D98"/>
<stop offset="1" stop-color="#131724"/>
</radialGradient>
<radialGradient id="paint39_radial_9598_59861" cx="0" cy="0" r="1" gradientUnits="userSpaceOnUse" gradientTransform="translate(210.028 325.073) scale(25.5828 25.5438)">
<stop stop-color="#372D98"/>
<stop offset="1" stop-color="#131724"/>
</radialGradient>
<radialGradient id="paint40_radial_9598_59861" cx="0" cy="0" r="1" gradientUnits="userSpaceOnUse" gradientTransform="translate(350.008 295) scale(25.8633 25.824)">
<stop stop-color="#372D98"/>
<stop offset="1" stop-color="#131724"/>
</radialGradient>
<radialGradient id="paint41_radial_9598_59861" cx="0" cy="0" r="1" gradientUnits="userSpaceOnUse" gradientTransform="translate(433.491 326.429) scale(26.3777 26.3377)">
<stop stop-color="#372D98"/>
<stop offset="1" stop-color="#131724"/>
</radialGradient>
<radialGradient id="paint42_radial_9598_59861" cx="0" cy="0" r="1" gradientUnits="userSpaceOnUse" gradientTransform="translate(360.157 305.553) scale(10.9907 10.974)">
<stop stop-color="#372D98"/>
<stop offset="1" stop-color="#131724"/>
</radialGradient>
<radialGradient id="paint43_radial_9598_59861" cx="0" cy="0" r="1" gradientUnits="userSpaceOnUse" gradientTransform="translate(375.451 327.733) scale(10.9908 10.9741)">
<stop stop-color="#372D98"/>
<stop offset="1" stop-color="#131724"/>
</radialGradient>
<radialGradient id="paint44_radial_9598_59861" cx="0" cy="0" r="1" gradientUnits="userSpaceOnUse" gradientTransform="translate(390.37 313.025) scale(10.9907 10.974)">
<stop stop-color="#372D98"/>
<stop offset="1" stop-color="#131724"/>
</radialGradient>
<radialGradient id="paint45_radial_9598_59861" cx="0" cy="0" r="1" gradientUnits="userSpaceOnUse" gradientTransform="translate(404.401 335.72) scale(11.4117 11.3943)">
<stop stop-color="#372D98"/>
<stop offset="1" stop-color="#131724"/>
</radialGradient>
<radialGradient id="paint46_radial_9598_59861" cx="0" cy="0" r="1" gradientUnits="userSpaceOnUse" gradientTransform="translate(400.285 314.285) scale(17.632 17.6052)">
<stop stop-color="#372D98"/>
<stop offset="1" stop-color="#131724"/>
</radialGradient>
<radialGradient id="paint47_radial_9598_59861" cx="0" cy="0" r="1" gradientUnits="userSpaceOnUse" gradientTransform="translate(353.236 321.244) scale(17.5384 17.5118)">
<stop stop-color="#372D98"/>
<stop offset="1" stop-color="#131724"/>
</radialGradient>
<radialGradient id="paint48_radial_9598_59861" cx="0" cy="0" r="1" gradientUnits="userSpaceOnUse" gradientTransform="translate(248.192 310.829) scale(15.4806 15.4571)">
<stop stop-color="#372D98"/>
<stop offset="1" stop-color="#131724"/>
</radialGradient>
<radialGradient id="paint49_radial_9598_59861" cx="0" cy="0" r="1" gradientUnits="userSpaceOnUse" gradientTransform="translate(245.901 328.294) scale(15.4806 15.457)">
<stop stop-color="#372D98"/>
<stop offset="1" stop-color="#131724"/>
</radialGradient>
<radialGradient id="paint50_radial_9598_59861" cx="0" cy="0" r="1" gradientUnits="userSpaceOnUse" gradientTransform="translate(252.354 327.081) scale(9.63446 9.61978)">
<stop stop-color="#372D98"/>
<stop offset="1" stop-color="#131724"/>
</radialGradient>
<radialGradient id="paint51_radial_9598_59861" cx="0" cy="0" r="1" gradientUnits="userSpaceOnUse" gradientTransform="translate(238.697 304.013) scale(9.63445 9.61979)">
<stop stop-color="#372D98"/>
<stop offset="1" stop-color="#131724"/>
</radialGradient>
<radialGradient id="paint52_radial_9598_59861" cx="0" cy="0" r="1" gradientUnits="userSpaceOnUse" gradientTransform="translate(221.113 327.081) scale(9.63445 9.61978)">
<stop stop-color="#372D98"/>
<stop offset="1" stop-color="#131724"/>
</radialGradient>
<radialGradient id="paint53_radial_9598_59861" cx="0" cy="0" r="1" gradientUnits="userSpaceOnUse" gradientTransform="translate(263.673 303.591) scale(25.5828 25.5438)">
<stop stop-color="#372D98"/>
<stop offset="1" stop-color="#131724"/>
</radialGradient>
<radialGradient id="paint54_radial_9598_59861" cx="0" cy="0" r="1" gradientUnits="userSpaceOnUse" gradientTransform="translate(274.757 305.6) scale(9.63445 9.61978)">
<stop stop-color="#372D98"/>
<stop offset="1" stop-color="#131724"/>
</radialGradient>
<radialGradient id="paint55_radial_9598_59861" cx="0" cy="0" r="1" gradientUnits="userSpaceOnUse" gradientTransform="translate(222.095 308.496) scale(9.63445 9.61979)">
<stop stop-color="#372D98"/>
<stop offset="1" stop-color="#131724"/>
</radialGradient>
<linearGradient id="paint56_linear_9598_59861" x1="273.295" y1="185.604" x2="253.479" y2="196.456" gradientUnits="userSpaceOnUse">
<stop stop-color="#778186"/>
<stop offset="1" stop-color="#474B4C"/>
</linearGradient>
<linearGradient id="paint57_linear_9598_59861" x1="273.587" y1="186.485" x2="254.504" y2="196.75" gradientUnits="userSpaceOnUse">
<stop stop-color="#C1C1C1"/>
<stop offset="1" stop-color="#929292"/>
</linearGradient>
<linearGradient id="paint58_linear_9598_59861" x1="264.345" y1="195.003" x2="265.227" y2="197.793" gradientUnits="userSpaceOnUse">
<stop stop-color="#D48845"/>
<stop offset="1" stop-color="#4E3219"/>
</linearGradient>
<linearGradient id="paint59_linear_9598_59861" x1="237.155" y1="167.393" x2="271.93" y2="172.963" gradientUnits="userSpaceOnUse">
<stop stop-color="#9F9F9F"/>
<stop offset="1" stop-color="#787877"/>
</linearGradient>
<linearGradient id="paint60_linear_9598_59861" x1="237.742" y1="172.68" x2="264.592" y2="173.413" gradientUnits="userSpaceOnUse">
<stop stop-color="#CBCBCB"/>
<stop offset="1" stop-color="#828380"/>
</linearGradient>
<linearGradient id="paint61_linear_9598_59861" x1="244.218" y1="176.233" x2="274.149" y2="176.966" gradientUnits="userSpaceOnUse">
<stop stop-color="#1B0A5D"/>
<stop offset="0.390625" stop-color="#1B0A5D"/>
<stop offset="0.970597" stop-color="#010005"/>
</linearGradient>
<linearGradient id="paint62_linear_9598_59861" x1="264.758" y1="163.749" x2="248.901" y2="175.19" gradientUnits="userSpaceOnUse">
<stop stop-color="#FFF9FF" stop-opacity="0.36"/>
<stop offset="1" stop-color="#1B0A5D" stop-opacity="0"/>
</linearGradient>
<linearGradient id="paint63_linear_9598_59861" x1="242.731" y1="175.91" x2="275.303" y2="175.91" gradientUnits="userSpaceOnUse">
<stop stop-color="#5B5C59"/>
<stop offset="1" stop-color="#3F403E"/>
</linearGradient>
</defs>
</svg>
