<svg width="329" height="283" viewBox="0 0 329 283" fill="none" xmlns="http://www.w3.org/2000/svg">
<path d="M247.436 98.1738C247.436 107.258 254.804 114.622 263.893 114.622C272.983 114.622 280.35 107.258 280.35 98.1738C280.35 89.0897 272.983 81.7268 263.893 81.7268C254.804 81.7268 247.436 89.0897 247.436 98.1738Z" fill="url(#paint0_radial_8571_62944)"/>
<path d="M250.725 98.0078C250.725 98.6628 250.772 99.3131 250.862 99.9431V99.9463C250.952 100.578 251.086 101.195 251.261 101.796C251.546 102.795 251.948 103.743 252.444 104.631C252.802 105.275 253.21 105.885 253.664 106.457C256.16 109.61 260.02 111.632 264.356 111.632C265.119 111.632 265.87 111.568 266.599 111.446C267.148 111.356 267.685 111.235 268.205 111.078C269.632 110.661 270.963 110.015 272.155 109.179C272.363 109.035 272.568 108.882 272.766 108.726C273.641 108.044 274.424 107.253 275.108 106.381C275.178 106.292 275.246 106.199 275.313 106.109C275.782 105.477 276.198 104.8 276.555 104.09C277.115 102.97 277.528 101.76 277.761 100.489C277.866 99.9134 277.936 99.3256 277.967 98.7253C277.978 98.4862 277.984 98.247 277.984 98.0078C277.984 97.4357 277.948 96.8713 277.881 96.3211C277.84 96.0053 277.792 95.6958 277.731 95.3862V95.3831C277.412 93.7479 276.799 92.2175 275.951 90.845C275.757 90.5339 275.552 90.2306 275.335 89.9367C274.501 88.8065 273.497 87.8076 272.36 86.9806C270.114 85.3486 267.347 84.384 264.356 84.384C262.995 84.384 261.678 84.5826 260.441 84.9562C259.108 85.3548 257.86 85.9489 256.736 86.7148C256.498 86.8743 256.262 87.0416 256.035 87.2167C255.204 87.8576 254.451 88.5892 253.795 89.4005C253.632 89.5959 253.476 89.796 253.329 90.0008C252.824 90.6918 252.386 91.4312 252.021 92.2113C251.84 92.5849 251.68 92.971 251.537 93.3634C251.35 93.8808 251.194 94.4108 251.069 94.9548V94.9579C250.958 95.4394 250.875 95.9287 250.817 96.4274C250.765 96.8807 250.734 97.3403 250.728 97.8062C250.725 97.8734 250.725 97.9406 250.725 98.0078Z" fill="url(#paint1_linear_8571_62944)"/>
<path style="mix-blend-mode:overlay" d="M253.795 89.4008C255.977 90.3184 258.754 91.0813 261.651 90.8249C266.706 90.3747 273.526 91.6909 277.73 95.3833C277.411 93.7482 276.798 92.2178 275.95 90.8452C275.757 90.5341 275.552 90.2309 275.334 89.937C272.549 89.4711 269.197 89.0084 266.253 88.8677C262.472 88.6864 259.249 87.7625 256.735 86.7151C256.497 86.8745 256.261 87.0418 256.034 87.2169C255.204 87.8578 254.45 88.5894 253.795 89.4008Z" fill="url(#paint2_linear_8571_62944)"/>
<path style="mix-blend-mode:overlay" d="M251.067 94.9551V94.9582C252.036 95.5225 253.244 96.1166 254.749 96.6981C257.151 97.6282 261.538 98.4646 264.756 99.3994C266.107 99.7902 269.303 98.7397 270.507 99.1024C272.844 99.7965 275.01 101.938 276.552 104.091C277.112 102.97 277.525 101.76 277.758 100.489C277.863 99.9137 277.934 99.3259 277.965 98.7256C276.227 96.4933 273.096 94.0828 267.862 94.7253C262.252 95.4147 256.061 93.6904 252.019 92.2115C251.838 92.5852 251.678 92.9713 251.534 93.3637C251.348 93.8811 251.192 94.411 251.067 94.9551Z" fill="url(#paint3_linear_8571_62944)"/>
<path style="mix-blend-mode:overlay" d="M250.728 97.806L250.862 99.943V99.9461C251.877 100.51 253.111 101.172 254.514 101.872C257.613 103.42 260.646 108.055 264.988 107.722C267.522 107.525 270.135 108.325 272.155 109.179C272.363 109.035 272.567 108.882 272.766 108.725C273.64 108.044 274.424 107.253 275.108 106.38C275.178 106.291 275.245 106.199 275.312 106.108C271.823 103.957 266.452 101.226 262.343 101.054C258.767 100.904 255.676 100.001 253.332 99.0363C252.318 98.6205 251.442 98.1922 250.728 97.806Z" fill="url(#paint4_linear_8571_62944)"/>
<path style="mix-blend-mode:overlay" d="M260.441 84.9562C264.262 87.076 269.292 87.1744 272.359 86.9806C270.113 85.3486 267.346 84.384 264.356 84.384C262.995 84.384 261.678 84.5826 260.441 84.9562Z" fill="url(#paint5_linear_8571_62944)"/>
<path style="mix-blend-mode:overlay" d="M253.664 106.457C256.161 109.61 260.021 111.632 264.357 111.632C265.12 111.632 265.871 111.568 266.6 111.446C265.533 110.68 263.012 109.088 259.985 108.699C257.831 108.422 255.432 107.373 253.664 106.457Z" fill="url(#paint6_linear_8571_62944)"/>
<path d="M308.277 221.052C291.392 250.173 264.802 275.793 234.941 281.469C199.186 288.252 174.746 263.409 141.051 245.805C133.923 242.023 126.513 238.799 118.888 236.163C103.877 231.075 86.8021 228.332 66.4389 230.244C46.1817 232.16 30.8273 237.921 18.1307 227.231C14.2127 223.943 10.9512 219.427 8.3939 214.09C-3.41313 189.576 -0.69699 147.727 19.2532 127.221C40.4317 105.47 71.3206 117.69 87.2204 91.0743C94.5217 78.8278 106.016 85.7796 112.105 73.1308C127.989 40.0764 148.601 29.7412 188.316 50.0197C216.468 64.4105 210.712 64.7176 252.773 100.848C283.238 127.035 300.864 119.289 307.673 134.988C316.266 154.869 325.055 192.133 308.277 221.052Z" fill="url(#paint7_linear_8571_62944)"/>
<mask id="mask0_8571_62944" style="mask-type:alpha" maskUnits="userSpaceOnUse" x="1" y="0" width="317" height="283">
<path d="M308.276 221.053C291.392 250.173 264.802 275.794 234.941 281.47C199.186 288.252 174.746 263.41 141.051 245.805C133.923 242.024 126.513 238.8 118.888 236.164C103.877 231.076 86.802 228.333 66.4389 230.244C46.1816 232.161 30.8272 237.921 18.1307 227.232C14.2127 223.944 10.9512 219.427 8.39385 214.09C-3.41317 189.576 -0.696906 108.067 19.2533 87.5606C40.4318 105.449 71.3205 78.052 87.2203 51.4358C94.5216 39.1893 106.016 46.1412 112.105 33.4923C127.989 0.437939 148.601 -9.89718 188.316 10.3813C216.468 24.7721 210.712 25.0792 252.773 61.2097C283.238 87.397 300.864 40.0119 307.673 134.989C316.266 154.87 325.055 192.133 308.276 221.053Z" fill="url(#paint8_linear_8571_62944)"/>
</mask>
<g mask="url(#mask0_8571_62944)">
<path d="M141.076 115.658L81.1836 169.718C138.429 199.327 167.619 209.571 176.069 209.421C206.575 192.015 232.596 166.278 241.793 155.586L210.837 138.314L180.555 122.163L141.076 115.658Z" fill="url(#paint9_linear_8571_62944)"/>
<path d="M98.0063 276.716L80.5098 168.372C103.659 187.215 153.562 201.496 175.619 206.281C201.281 193.181 230.576 164.035 242.016 151.1C247.579 190.4 249.269 240.302 249.419 260.341C202.402 273.441 128.887 276.716 98.0063 276.716Z" fill="url(#paint10_linear_8571_62944)"/>
<path d="M127.511 115.708C127.511 115.708 116.43 126.628 120.068 116.371C122.58 109.266 119.276 109.568 128.226 101.482C131.079 102.517 134.045 103.266 137.017 103.885C138.917 104.275 142.535 105.61 144.291 104.16C147.882 101.178 139.085 98.2431 136.365 97.3553C139.845 95.9071 142.194 93.4573 145.465 91.6405C147.586 90.4588 151.804 88.1375 152.142 85.3677C152.806 80.0335 144.55 85.5746 140.42 87.8679C142.209 85.9643 143.77 83.8753 145.132 81.6352C145.843 80.4679 148.532 77.0921 146.933 75.7087C145.417 74.3837 142.406 76.6368 141.273 77.5872C139.198 79.3461 137.302 81.4178 135.461 83.4815C136.409 81.7082 137.251 79.8861 137.901 77.9998C138.447 76.4337 139.343 73.3563 137.822 72.1395C135.217 70.0646 131.567 77.5881 129.91 80.7132C130.429 79.2541 131.071 74.9924 130.545 73.8267C129.999 72.6382 128.875 72.342 127.822 72.9929C125.639 74.3233 123.216 79.6973 122.454 82.0875C121.577 84.808 119.133 87.8034 118.639 89.8169C116.223 91.6668 119.206 89.8469 110.383 103.07C104.909 111.259 112.527 96.9941 113.723 106.881L129.476 115.534L127.511 115.708Z" fill="url(#paint11_linear_8571_62944)"/>
<path d="M195.871 93.6917L197.41 96.2555L205.062 88.9135L200.764 83.1507L195.871 93.6917Z" fill="url(#paint12_linear_8571_62944)"/>
<path d="M200.051 90.0258C199.009 92.4511 193.164 98.6551 186.952 95.2347C184.411 93.8348 184.098 92.176 185.16 90.6646C183.781 89.7069 182.572 88.5387 181.987 86.9909C181.434 85.5247 181.805 83.0713 183.567 82.9831C183.311 82.4062 183.228 81.763 183.383 81.1011C183.727 79.685 185.385 78.3391 186.877 78.7961C186.886 78.7946 186.889 78.8134 186.909 78.8198C186.739 77.814 187.209 76.764 188.139 76.2391C188.99 75.7653 190.304 75.2274 191.55 76.0807C191.514 75.2467 191.705 74.8107 192.547 74.3385C195.116 72.8954 199.562 76.8005 200.717 78.5278C203.112 82.1037 201.607 86.4082 200.042 90.0273L200.051 90.0258Z" fill="url(#paint13_linear_8571_62944)"/>
<path d="M191.445 93.8139C190.233 93.4764 189.042 93.0967 187.916 92.5718C187.989 93.149 188.232 93.6413 188.57 94.1279C188.722 94.3547 188.435 94.6129 188.239 94.4125C187.717 93.8681 187.489 93.1033 187.468 92.3634C186.732 91.9884 186.024 91.5415 185.367 90.9994C185.302 90.952 185.372 90.8443 185.437 90.8918C187.288 92.2085 189.441 92.7531 191.608 93.3244C191.93 93.4082 191.758 93.8991 191.436 93.8154L191.445 93.8139Z" fill="url(#paint14_linear_8571_62944)"/>
<path d="M119.956 86.7687C118.821 85.7874 118.821 85.7876 118.821 85.7879L118.82 85.7888L118.817 85.7918L118.808 85.8025L118.774 85.8423C118.744 85.8771 118.701 85.928 118.644 85.9943C118.532 86.1269 118.368 86.3209 118.161 86.5697C117.747 87.0674 117.158 87.7849 116.457 88.6696C115.057 90.4369 113.201 92.8803 111.386 95.5753C109.577 98.2627 107.781 101.24 106.525 104.069C105.299 106.83 104.458 109.728 104.902 112.139L119.956 86.7687ZM119.956 86.7687L118.821 85.7874C119.169 85.3853 119.704 85.1974 120.226 85.2933C120.749 85.3892 121.182 85.7548 121.365 86.2542L127.052 101.829C127.232 102.323 127.141 102.874 126.812 103.284L119.956 86.7687ZM196.134 97.4845C196.134 97.4845 200.018 103.671 199.906 105.088C199.526 109.966 183.123 115.529 182.734 115.572M196.134 97.4845L194.864 98.282L194.864 98.2825L194.866 98.2853L194.873 98.2974L194.904 98.3469C194.931 98.3908 194.972 98.4561 195.024 98.5401C195.127 98.7082 195.276 98.9508 195.454 99.2466C195.811 99.8395 196.283 100.641 196.75 101.483C197.221 102.33 197.672 103.193 197.994 103.914C198.156 104.277 198.273 104.576 198.344 104.803C198.383 104.925 198.398 104.997 198.404 105.027M196.134 97.4845L194.863 98.2819M196.134 97.4845L205.307 88.6809C205.287 88.6565 205.271 88.6365 205.258 88.621L205.233 88.5903L205.228 88.5833L205.227 88.582L205.227 88.5819L194.863 98.2819M198.404 105.027C198.407 105.008 198.409 104.989 198.41 104.972C198.407 105.019 198.409 105.045 198.408 105.045C198.407 105.045 198.406 105.039 198.404 105.027ZM198.404 105.027C198.373 105.238 198.246 105.564 197.895 106.012C197.517 106.493 196.952 107.022 196.212 107.582C194.733 108.701 192.739 109.804 190.677 110.79C188.627 111.769 186.57 112.605 184.998 113.198C184.213 113.495 183.554 113.729 183.084 113.889C183.083 113.89 183.081 113.89 183.079 113.891M183.079 113.891L183.711 114.433L182.734 115.572M183.079 113.891C182.846 113.97 182.664 114.03 182.539 114.069C182.475 114.089 182.434 114.101 182.411 114.107C182.333 114.129 182.434 114.096 182.57 114.081L182.734 115.572M183.079 113.891L175.536 107.418C175.246 107.169 174.873 107.04 174.491 107.057L149.45 108.188C149.277 108.196 149.108 108.233 148.948 108.299L139.23 112.283M182.734 115.572L174.559 108.556L149.517 109.687L139.273 113.887M139.23 112.283C139.373 112.335 139.49 112.376 139.575 112.406C139.662 112.436 139.694 112.446 139.694 112.447C139.694 112.447 139.675 112.441 139.647 112.434L139.273 113.887M139.23 112.283C139.196 112.271 139.16 112.258 139.123 112.245C138.737 112.106 138.194 111.907 137.544 111.662C136.244 111.174 134.526 110.507 132.791 109.778C131.049 109.046 129.321 108.264 127.988 107.547C127.318 107.187 126.784 106.862 126.408 106.586C126.113 106.369 126.012 106.251 125.994 106.236M139.23 112.283L138.704 112.499L139.273 113.887M139.273 113.887L125.994 106.236M125.994 106.236C126.001 106.255 126.009 106.273 126.017 106.291M125.994 106.236L126.019 106.297L126.017 106.291M125.994 106.236C125.794 105.717 125.882 105.075 126.172 104.392C126.313 104.059 126.48 103.771 126.613 103.566C126.679 103.465 126.734 103.388 126.769 103.34C126.787 103.316 126.8 103.299 126.807 103.29L126.81 103.286L126.809 103.288L125.994 106.236ZM125.994 106.236C125.993 106.235 125.992 106.234 125.991 106.235C125.99 106.236 126.001 106.255 126.017 106.291M125.994 106.236L126.017 106.291M194.863 98.2819C194.485 97.6796 194.582 96.8947 195.095 96.4023L205.244 86.6624M194.863 98.2819L205.244 86.6624M205.244 86.6624C205.385 86.4955 205.564 86.3579 205.774 86.2639C206.392 85.9863 207.12 86.1579 207.549 86.6825L206.388 87.6323C207.549 86.6825 207.549 86.6828 207.549 86.6831L207.55 86.6841L207.553 86.6871L207.561 86.6975L207.592 86.7353C207.618 86.7681 207.656 86.8156 207.706 86.8774C207.804 87.0008 207.946 87.1808 208.125 87.4116C208.483 87.873 208.987 88.5381 209.581 89.3599C210.765 91.0006 212.313 93.2794 213.753 95.8178C215.188 98.3462 216.548 101.187 217.318 103.945C218.079 106.666 218.332 109.545 217.24 111.978C213.771 119.712 206.586 125.785 199.427 130.05C192.26 134.319 184.866 136.923 180.68 137.576L180.679 137.576C175.579 138.371 170.373 138.609 165.15 138.208L151.213 137.14L151.21 137.14C144.571 136.619 135.911 134.812 128.982 131.255M205.244 86.6624L104.902 112.139C105.294 114.265 106.483 116.199 108.062 117.942C109.646 119.69 111.698 121.329 113.963 122.866C118.151 125.707 123.263 128.325 127.891 130.695C128.258 130.883 128.622 131.07 128.982 131.255M128.982 131.255C128.982 131.255 128.983 131.255 128.983 131.255L129.668 129.92L128.982 131.255Z" fill="url(#paint15_linear_8571_62944)" stroke="#64EDFF" stroke-width="3" stroke-linejoin="round"/>
<path d="M201.115 82.8043L206.707 88.6768L204.179 96.4937L198.823 87.1422L201.115 82.8043Z" fill="#FC7234"/>
<mask id="path-18-outside-1_8571_62944" maskUnits="userSpaceOnUse" x="122.671" y="96.6096" width="89.204" height="114.311" fill="black">
<rect fill="white" x="122.671" y="96.6096" width="89.204" height="114.311"/>
<path d="M178.704 203.905C178.704 203.905 177.761 187.272 170.124 186.062C167.787 185.692 166.375 186.024 164.093 186.651C156.132 188.836 161.371 186.573 154.133 197.564C148.917 205.486 126.92 201.834 126.92 201.834C126.92 201.834 129.16 173.249 132.979 155.342C136.491 138.876 145.068 113.958 145.068 113.958C145.586 111.59 152.334 108.884 154.5 108.607L177.83 103.955C180.108 103.66 182.269 105.089 183.109 107.472C183.109 107.472 192.982 136.261 196.614 155.342C199.975 173.004 200.835 199.026 201.559 201.113C202.275 203.199 178.713 203.906 178.713 203.906L178.704 203.905Z"/>
</mask>
<path d="M178.704 203.905C178.704 203.905 177.761 187.272 170.124 186.062C167.787 185.692 166.375 186.024 164.093 186.651C156.132 188.836 161.371 186.573 154.133 197.564C148.917 205.486 126.92 201.834 126.92 201.834C126.92 201.834 129.16 173.249 132.979 155.342C136.491 138.876 145.068 113.958 145.068 113.958C145.586 111.59 152.334 108.884 154.5 108.607L177.83 103.955C180.108 103.66 182.269 105.089 183.109 107.472C183.109 107.472 192.982 136.261 196.614 155.342C199.975 173.004 200.835 199.026 201.559 201.113C202.275 203.199 178.713 203.906 178.713 203.906L178.704 203.905Z" fill="url(#paint16_linear_8571_62944)"/>
<path d="M178.704 203.905L175.709 204.075L175.859 206.719L178.501 206.899L178.704 203.905ZM164.093 186.651L164.887 189.544L164.093 186.651ZM154.133 197.564L156.639 199.214L154.133 197.564ZM126.92 201.834L123.929 201.6L123.714 204.343L126.428 204.793L126.92 201.834ZM132.979 155.342L130.045 154.716L132.979 155.342ZM145.068 113.958L147.905 114.934L147.962 114.769L147.999 114.598L145.068 113.958ZM154.5 108.607L154.881 111.583L154.985 111.57L155.087 111.549L154.5 108.607ZM177.83 103.955L177.445 100.98L177.343 100.993L177.243 101.013L177.83 103.955ZM183.109 107.472L185.946 106.499L185.942 106.487L185.938 106.475L183.109 107.472ZM196.614 155.342L199.561 154.781L196.614 155.342ZM201.56 201.113L204.397 200.139L204.394 200.129L201.56 201.113ZM178.713 203.906L178.509 206.899L178.656 206.909L178.803 206.905L178.713 203.906ZM170.124 186.062L169.655 189.025L170.124 186.062ZM163.299 183.758C161.517 184.247 160.065 184.591 159.18 184.909C158.659 185.097 158.049 185.365 157.476 185.824C156.869 186.31 156.483 186.864 156.208 187.368C155.256 189.112 155.236 190.433 151.627 195.915L156.639 199.214C160.267 193.704 161.247 190.661 161.475 190.242C161.495 190.206 161.416 190.356 161.226 190.508C161.071 190.632 160.991 190.634 161.212 190.555C161.81 190.34 162.688 190.147 164.887 189.544L163.299 183.758ZM151.627 195.915C150.909 197.006 149.391 197.989 146.882 198.682C144.436 199.357 141.484 199.633 138.533 199.67C135.606 199.707 132.814 199.507 130.743 199.296C129.711 199.191 128.867 199.084 128.285 199.003C127.995 198.963 127.77 198.93 127.621 198.907C127.547 198.896 127.491 198.887 127.456 198.882C127.438 198.879 127.425 198.877 127.418 198.876C127.414 198.875 127.412 198.875 127.411 198.874C127.41 198.874 127.41 198.874 127.41 198.874C127.41 198.874 127.41 198.874 127.41 198.874C127.411 198.874 127.411 198.874 126.92 201.834C126.428 204.793 126.429 204.793 126.43 204.794C126.43 204.794 126.431 204.794 126.432 204.794C126.433 204.794 126.435 204.794 126.437 204.795C126.441 204.795 126.447 204.796 126.454 204.797C126.467 204.8 126.486 204.803 126.51 204.807C126.558 204.814 126.627 204.825 126.715 204.839C126.891 204.865 127.144 204.903 127.465 204.947C128.107 205.036 129.022 205.152 130.134 205.265C132.35 205.491 135.383 205.71 138.608 205.67C141.809 205.629 145.334 205.333 148.479 204.465C151.561 203.615 154.749 202.084 156.639 199.214L151.627 195.915ZM126.92 201.834C129.911 202.068 129.911 202.068 129.911 202.068C129.911 202.068 129.911 202.068 129.911 202.067C129.911 202.067 129.911 202.066 129.911 202.064C129.911 202.061 129.912 202.056 129.912 202.049C129.913 202.036 129.915 202.016 129.917 201.99C129.921 201.936 129.927 201.856 129.936 201.751C129.953 201.54 129.979 201.227 130.013 200.822C130.081 200.012 130.183 198.832 130.317 197.36C130.585 194.415 130.983 190.302 131.499 185.633C132.534 176.267 134.036 164.767 135.913 155.968L130.045 154.716C128.103 163.824 126.575 175.571 125.535 184.974C125.014 189.689 124.613 193.841 124.342 196.816C124.206 198.303 124.103 199.496 124.034 200.319C123.999 200.731 123.973 201.049 123.956 201.266C123.947 201.374 123.94 201.457 123.936 201.513C123.934 201.541 123.932 201.562 123.931 201.577C123.93 201.584 123.93 201.59 123.929 201.593C123.929 201.595 123.929 201.597 123.929 201.598C123.929 201.598 123.929 201.599 123.929 201.599C123.929 201.599 123.929 201.6 126.92 201.834ZM135.913 155.968C137.639 147.876 140.627 137.639 143.205 129.368C144.49 125.244 145.666 121.632 146.521 119.051C146.948 117.761 147.295 116.73 147.535 116.022C147.654 115.668 147.747 115.395 147.81 115.211C147.842 115.119 147.865 115.049 147.881 115.002C147.889 114.979 147.895 114.962 147.899 114.95C147.901 114.945 147.903 114.94 147.904 114.938C147.904 114.936 147.904 114.935 147.905 114.935C147.905 114.934 147.905 114.934 147.905 114.934C147.905 114.934 147.905 114.934 145.068 113.958C142.232 112.981 142.231 112.981 142.231 112.982C142.231 112.982 142.231 112.982 142.231 112.983C142.231 112.984 142.23 112.985 142.23 112.987C142.229 112.99 142.227 112.995 142.225 113.001C142.22 113.014 142.214 113.032 142.206 113.057C142.189 113.105 142.164 113.178 142.132 113.272C142.067 113.461 141.973 113.74 141.851 114.099C141.608 114.818 141.257 115.862 140.825 117.165C139.962 119.771 138.775 123.418 137.477 127.582C134.888 135.886 131.832 146.341 130.045 154.716L135.913 155.968ZM147.999 114.598C147.895 115.073 147.691 115.015 148.329 114.505C148.841 114.096 149.596 113.636 150.503 113.184C152.392 112.244 154.275 111.66 154.881 111.583L154.12 105.631C152.559 105.831 149.985 106.739 147.829 107.813C146.713 108.368 145.549 109.046 144.582 109.818C143.742 110.49 142.5 111.658 142.137 113.317L147.999 114.598ZM155.087 111.549L178.417 106.897L177.243 101.013L153.914 105.665L155.087 111.549ZM178.215 106.93C178.914 106.84 179.849 107.248 180.279 108.469L185.938 106.475C184.689 102.93 181.302 100.481 177.445 100.98L178.215 106.93ZM183.109 107.472C180.271 108.445 180.271 108.445 180.271 108.445C180.271 108.445 180.271 108.446 180.271 108.446C180.271 108.447 180.272 108.448 180.272 108.449C180.273 108.453 180.275 108.458 180.277 108.464C180.282 108.477 180.289 108.497 180.298 108.524C180.316 108.578 180.344 108.658 180.38 108.765C180.452 108.977 180.559 109.293 180.696 109.702C180.971 110.52 181.369 111.712 181.857 113.203C182.835 116.185 184.176 120.36 185.63 125.127C188.546 134.69 191.883 146.529 193.667 155.903L199.561 154.781C197.713 145.073 194.297 132.978 191.369 123.376C189.9 118.561 188.546 114.346 187.559 111.334C187.065 109.828 186.663 108.621 186.384 107.791C186.244 107.375 186.135 107.053 186.061 106.835C186.024 106.726 185.996 106.642 185.976 106.586C185.967 106.558 185.959 106.536 185.954 106.522C185.952 106.514 185.95 106.509 185.949 106.505C185.948 106.503 185.947 106.502 185.947 106.501C185.947 106.5 185.947 106.5 185.947 106.499C185.946 106.499 185.946 106.499 183.109 107.472ZM193.667 155.903C195.315 164.562 196.36 175.343 197.085 184.31C197.449 188.807 197.724 192.742 197.963 195.798C198.081 197.305 198.19 198.596 198.293 199.585C198.345 200.078 198.399 200.524 198.455 200.898C198.502 201.207 198.58 201.678 198.725 202.096L204.394 200.129C204.448 200.287 204.435 200.31 204.388 200C204.351 199.755 204.308 199.411 204.261 198.958C204.166 198.055 204.062 196.833 203.945 195.331C203.714 192.37 203.428 188.303 203.066 183.826C202.339 174.845 201.274 163.784 199.561 154.781L193.667 155.903ZM198.722 202.086C198.223 200.634 199.065 199.572 199.416 199.257C199.7 199.001 199.9 198.958 199.717 199.028C199.426 199.138 198.803 199.299 197.787 199.472C195.824 199.807 193.061 200.083 190.179 200.3C187.32 200.516 184.429 200.668 182.248 200.766C181.159 200.815 180.25 200.85 179.615 200.874C179.297 200.885 179.047 200.894 178.878 200.899C178.794 200.902 178.729 200.904 178.686 200.905C178.664 200.906 178.648 200.907 178.638 200.907C178.632 200.907 178.629 200.907 178.626 200.907C178.625 200.907 178.624 200.907 178.623 200.907C178.623 200.907 178.623 200.907 178.623 200.907C178.623 200.907 178.623 200.907 178.713 203.906C178.803 206.905 178.803 206.905 178.803 206.905C178.804 206.905 178.804 206.905 178.804 206.905C178.805 206.905 178.807 206.905 178.808 206.905C178.811 206.904 178.816 206.904 178.822 206.904C178.834 206.904 178.852 206.903 178.875 206.902C178.921 206.901 178.988 206.899 179.076 206.896C179.252 206.89 179.508 206.881 179.833 206.87C180.483 206.846 181.409 206.81 182.518 206.76C184.733 206.66 187.688 206.505 190.63 206.283C193.549 206.063 196.543 205.771 198.796 205.387C199.889 205.2 200.989 204.963 201.85 204.636C202.242 204.487 202.876 204.214 203.426 203.719C204.044 203.164 204.985 201.853 204.397 200.139L198.722 202.086ZM178.916 200.913L178.908 200.912L178.501 206.899L178.509 206.899L178.916 200.913ZM178.704 203.905C181.7 203.736 181.699 203.735 181.699 203.734C181.699 203.734 181.699 203.733 181.699 203.732C181.699 203.731 181.699 203.729 181.699 203.727C181.699 203.723 181.699 203.719 181.698 203.713C181.697 203.701 181.697 203.686 181.695 203.666C181.693 203.627 181.689 203.573 181.684 203.503C181.674 203.365 181.659 203.169 181.637 202.922C181.593 202.429 181.522 201.733 181.412 200.896C181.193 199.233 180.814 196.97 180.17 194.639C179.534 192.338 178.595 189.797 177.177 187.687C175.756 185.573 173.632 183.581 170.594 183.099L169.655 189.025C170.435 189.149 171.293 189.689 172.197 191.034C173.103 192.383 173.832 194.227 174.386 196.236C174.933 198.215 175.267 200.186 175.463 201.679C175.561 202.421 175.623 203.033 175.661 203.454C175.679 203.665 175.692 203.827 175.7 203.933C175.703 203.986 175.706 204.025 175.708 204.049C175.708 204.061 175.709 204.07 175.709 204.074C175.709 204.076 175.709 204.077 175.709 204.078C175.709 204.078 175.709 204.078 175.709 204.077C175.709 204.077 175.709 204.077 175.709 204.076C175.709 204.076 175.709 204.075 178.704 203.905ZM170.594 183.099C167.604 182.625 165.683 183.103 163.299 183.758L164.887 189.544C167.067 188.945 167.969 188.758 169.655 189.025L170.594 183.099Z" fill="#64EDFF" mask="url(#path-18-outside-1_8571_62944)"/>
<path d="M157.796 181.05C158.571 182.025 159.382 182.925 160.245 183.697C160.668 184.093 161.122 184.433 161.566 184.774C162.003 185.124 162.46 185.402 162.898 185.762L162.964 185.809C163.345 186.12 163.402 186.671 163.09 187.052C162.843 187.356 162.437 187.453 162.089 187.316C161.449 187.072 160.852 186.7 160.353 186.249C159.837 185.8 159.412 185.28 159.037 184.73C158.662 184.18 158.356 183.607 158.1 183.002C157.853 182.405 157.658 181.786 157.566 181.141C157.551 181.072 157.598 181.006 157.676 180.99C157.72 180.986 157.766 181.009 157.796 181.041L157.796 181.05Z" fill="#64EDFF"/>
<path d="M175.833 183.103C175.714 183.661 175.466 184.159 175.173 184.644C174.87 185.112 174.511 185.55 174.104 185.948C173.696 186.337 173.252 186.711 172.764 186.983C172.276 187.264 171.748 187.487 171.201 187.597C170.715 187.692 170.246 187.38 170.151 186.903C170.075 186.538 170.238 186.18 170.53 185.986L170.597 185.945C170.797 185.804 171.018 185.705 171.229 185.598C171.431 185.484 171.663 185.402 171.865 185.296C172.298 185.09 172.722 184.894 173.154 184.679C173.997 184.226 174.833 183.685 175.611 182.99L175.619 182.98C175.668 182.932 175.757 182.933 175.806 182.99C175.834 183.014 175.838 183.058 175.833 183.103V183.103Z" fill="#64EDFF"/>
<path d="M125.603 203.335L131.559 190.742L156.166 194.428L149.888 205.984L125.603 203.335Z" fill="#5156C0"/>
<path d="M151.829 214.702C147.166 217.246 119.292 221.809 116.341 215.897C116.057 215.325 115.97 214.737 116.062 214.133C116.465 211.319 119.472 205.644 124.211 203.106C128.952 200.558 135.434 201.137 135.434 201.137L151.829 203.973C151.829 203.973 153.132 207.906 153.322 211.72C153.398 212.976 152.993 214.064 151.829 214.712L151.829 214.702Z" fill="url(#paint17_linear_8571_62944)"/>
<path d="M151.832 214.7C147.169 217.243 119.295 221.807 116.344 215.895C116.06 215.323 116.127 212.464 116.219 211.859C121.75 213.292 135.657 215.508 153.48 209.447C153.555 210.703 152.996 214.061 151.832 214.709L151.832 214.7Z" fill="#3167D5"/>
<path d="M182.092 154.363C182.065 154.334 182.517 154.403 183.177 154.108C183.521 153.947 183.898 153.645 184.194 153.17C184.313 152.947 184.434 152.666 184.498 152.356C184.534 152.073 184.515 151.704 184.524 151.364C184.6 148.473 184.679 144.335 184.812 139.234C184.845 137.949 184.871 136.608 184.889 135.209C184.906 134.529 184.612 133.869 184.085 133.402C183.807 133.196 183.499 133.018 183.161 132.952C182.823 132.858 182.454 132.877 182.057 132.867C179.053 132.788 175.851 132.705 172.45 132.616C165.677 132.44 158.224 132.246 150.43 132.042C149.495 132.018 148.6 132.619 148.266 133.461C148.057 133.881 148.074 134.335 148.061 134.817C148.049 135.289 148.036 135.771 148.023 136.262C147.974 138.151 147.925 140.022 147.877 141.873C147.829 143.725 147.782 145.529 147.736 147.286C147.713 148.174 147.69 149.052 147.667 149.921C147.656 150.347 147.616 150.799 147.633 151.225C147.651 151.623 147.783 152.023 148.001 152.341C148.437 153.033 149.221 153.422 150.016 153.386C150.847 153.407 151.66 153.429 152.453 153.449C154.058 153.51 155.617 153.56 157.128 153.599C160.132 153.678 162.938 153.751 165.517 153.818C170.617 153.979 174.754 154.115 177.645 154.191C179.062 154.228 180.166 154.285 180.931 154.305C181.309 154.315 181.592 154.322 181.781 154.327C181.913 154.349 182.017 154.361 182.092 154.363C182.017 154.361 181.913 154.368 181.78 154.384C181.591 154.379 181.308 154.371 180.93 154.361C180.165 154.341 179.059 154.341 177.642 154.304C174.751 154.229 170.613 154.149 165.511 154.045C162.932 153.978 160.126 153.904 157.122 153.826C155.611 153.787 154.052 153.756 152.446 153.733C151.652 153.712 150.84 153.691 150.009 153.669C149.157 153.704 148.261 153.255 147.77 152.505C147.525 152.13 147.367 151.672 147.35 151.218C147.362 150.764 147.372 150.368 147.384 149.914C147.407 149.045 147.429 148.166 147.453 147.279C147.498 145.521 147.545 143.717 147.594 141.866C147.642 140.014 147.691 138.144 147.74 136.255C147.753 135.763 147.765 135.282 147.778 134.809C147.789 134.356 147.775 133.817 147.986 133.34C148.38 132.386 149.39 131.703 150.438 131.759C158.231 131.962 165.684 132.156 172.457 132.333C175.857 132.45 179.06 132.533 182.064 132.612C182.432 132.621 182.83 132.603 183.224 132.699C183.59 132.793 183.954 133.001 184.231 133.235C184.814 133.733 185.134 134.478 185.115 135.215C185.079 136.613 185.044 137.954 185.01 139.239C184.849 144.34 184.741 148.477 184.638 151.367C184.629 151.707 184.648 152.048 184.583 152.386C184.518 152.697 184.397 152.977 184.249 153.229C183.953 153.703 183.548 154.004 183.204 154.137C182.86 154.298 182.575 154.348 182.376 154.371C182.243 154.367 182.149 154.365 182.092 154.363Z" fill="#64EDFF"/>
<path d="M153.326 148.309C153.905 148.324 154.387 147.867 154.402 147.288C154.417 146.708 153.96 146.227 153.381 146.212C152.801 146.197 152.32 146.654 152.305 147.233C152.29 147.812 152.747 148.294 153.326 148.309Z" fill="#64EDFF"/>
<path fill-rule="evenodd" clip-rule="evenodd" d="M153.337 147.892C153.686 147.901 153.976 147.626 153.985 147.277C153.995 146.928 153.719 146.637 153.37 146.628C153.021 146.619 152.73 146.895 152.721 147.244C152.712 147.593 152.988 147.883 153.337 147.892ZM154.402 147.288C154.387 147.867 153.905 148.324 153.326 148.309C152.747 148.294 152.29 147.812 152.305 147.233C152.32 146.654 152.801 146.197 153.381 146.212C153.96 146.227 154.417 146.708 154.402 147.288Z" fill="#64EDFF"/>
<path d="M156.892 148.404C157.471 148.419 157.953 147.961 157.968 147.382C157.983 146.803 157.526 146.322 156.947 146.306C156.368 146.291 155.886 146.749 155.871 147.328C155.856 147.907 156.313 148.389 156.892 148.404Z" fill="#64EDFF"/>
<path fill-rule="evenodd" clip-rule="evenodd" d="M156.903 147.987C157.252 147.996 157.543 147.721 157.552 147.372C157.561 147.022 157.285 146.732 156.936 146.723C156.587 146.714 156.297 146.989 156.288 147.339C156.278 147.688 156.554 147.978 156.903 147.987ZM157.968 147.382C157.953 147.961 157.471 148.419 156.892 148.404C156.313 148.389 155.856 147.907 155.871 147.328C155.886 146.749 156.368 146.291 156.947 146.306C157.526 146.322 157.983 146.803 157.968 147.382Z" fill="#64EDFF"/>
<path d="M160.353 148.49C160.932 148.505 161.414 148.048 161.429 147.469C161.444 146.889 160.987 146.408 160.408 146.393C159.829 146.378 159.347 146.835 159.332 147.414C159.317 147.993 159.774 148.475 160.353 148.49Z" fill="#64EDFF"/>
<path fill-rule="evenodd" clip-rule="evenodd" d="M160.364 148.073C160.713 148.082 161.004 147.807 161.013 147.458C161.022 147.109 160.746 146.818 160.397 146.809C160.048 146.8 159.758 147.076 159.748 147.425C159.739 147.774 160.015 148.064 160.364 148.073ZM161.429 147.469C161.414 148.048 160.932 148.505 160.353 148.49C159.774 148.475 159.317 147.993 159.332 147.414C159.347 146.835 159.829 146.378 160.408 146.393C160.987 146.408 161.444 146.889 161.429 147.469Z" fill="#64EDFF"/>
<path d="M163.779 148.581C164.358 148.596 164.84 148.139 164.855 147.56C164.87 146.981 164.413 146.499 163.834 146.484C163.255 146.469 162.773 146.926 162.758 147.505C162.743 148.084 163.2 148.566 163.779 148.581Z" fill="#64EDFF"/>
<path fill-rule="evenodd" clip-rule="evenodd" d="M163.79 148.164C164.139 148.174 164.429 147.898 164.439 147.549C164.448 147.2 164.172 146.909 163.823 146.9C163.474 146.891 163.183 147.167 163.174 147.516C163.165 147.865 163.441 148.155 163.79 148.164ZM164.855 147.56C164.84 148.139 164.358 148.596 163.779 148.581C163.2 148.566 162.743 148.084 162.758 147.505C162.773 146.926 163.255 146.469 163.834 146.484C164.413 146.499 164.87 146.981 164.855 147.56Z" fill="#64EDFF"/>
<path d="M163.506 140.897L154.012 140.65C153.332 140.632 152.779 140.079 152.798 139.37C152.815 138.69 153.397 138.138 154.077 138.156L163.571 138.403C164.251 138.421 164.803 139.003 164.785 139.683C164.767 140.391 164.186 140.915 163.506 140.897Z" fill="#64EDFF"/>
<path fill-rule="evenodd" clip-rule="evenodd" d="M154.023 140.233L163.517 140.481C163.973 140.493 164.356 140.144 164.369 139.672C164.38 139.222 164.01 138.832 163.56 138.82L154.066 138.572C153.616 138.561 153.226 138.931 153.214 139.381C153.202 139.854 153.566 140.222 154.023 140.233ZM154.012 140.65L163.506 140.897C164.186 140.915 164.767 140.391 164.785 139.683C164.803 139.003 164.251 138.421 163.571 138.403L154.077 138.156C153.397 138.138 152.815 138.69 152.798 139.37C152.779 140.079 153.332 140.632 154.012 140.65Z" fill="#64EDFF"/>
<path d="M153.623 144.357C154.202 144.372 154.684 143.915 154.699 143.336C154.714 142.757 154.257 142.275 153.677 142.26C153.098 142.245 152.617 142.702 152.602 143.281C152.586 143.86 153.044 144.342 153.623 144.357Z" fill="#64EDFF"/>
<path fill-rule="evenodd" clip-rule="evenodd" d="M153.634 143.941C153.983 143.95 154.273 143.674 154.282 143.325C154.291 142.976 154.016 142.685 153.667 142.676C153.317 142.667 153.027 142.943 153.018 143.292C153.009 143.641 153.285 143.931 153.634 143.941ZM154.699 143.336C154.684 143.915 154.202 144.372 153.623 144.357C153.044 144.342 152.586 143.86 152.602 143.281C152.617 142.702 153.098 142.245 153.677 142.26C154.257 142.275 154.714 142.757 154.699 143.336Z" fill="#64EDFF"/>
<path d="M157.172 144.449C157.751 144.464 158.232 144.006 158.248 143.427C158.263 142.848 157.805 142.367 157.226 142.351C156.647 142.336 156.166 142.794 156.15 143.373C156.135 143.952 156.593 144.433 157.172 144.449Z" fill="#64EDFF"/>
<path fill-rule="evenodd" clip-rule="evenodd" d="M157.182 144.032C157.532 144.041 157.822 143.766 157.831 143.416C157.84 143.067 157.565 142.777 157.215 142.768C156.866 142.759 156.576 143.034 156.567 143.383C156.558 143.733 156.833 144.023 157.182 144.032ZM158.248 143.427C158.232 144.006 157.751 144.464 157.172 144.449C156.593 144.433 156.135 143.952 156.15 143.373C156.166 142.794 156.647 142.336 157.226 142.351C157.805 142.367 158.263 142.848 158.248 143.427Z" fill="#64EDFF"/>
<path d="M160.625 144.536C161.204 144.552 161.686 144.094 161.701 143.515C161.716 142.936 161.259 142.454 160.679 142.439C160.1 142.424 159.619 142.881 159.604 143.461C159.588 144.04 160.046 144.521 160.625 144.536Z" fill="#64EDFF"/>
<path fill-rule="evenodd" clip-rule="evenodd" d="M160.636 144.12C160.985 144.129 161.275 143.853 161.284 143.504C161.293 143.155 161.018 142.865 160.669 142.856C160.319 142.847 160.029 143.122 160.02 143.471C160.011 143.821 160.286 144.111 160.636 144.12ZM161.701 143.515C161.686 144.094 161.204 144.552 160.625 144.536C160.046 144.521 159.588 144.04 159.604 143.461C159.619 142.881 160.1 142.424 160.679 142.439C161.259 142.454 161.716 142.936 161.701 143.515Z" fill="#64EDFF"/>
<path d="M164.084 144.627C164.663 144.642 165.145 144.185 165.16 143.606C165.175 143.027 164.718 142.545 164.138 142.53C163.559 142.515 163.078 142.972 163.063 143.551C163.047 144.13 163.505 144.612 164.084 144.627Z" fill="#64EDFF"/>
<path fill-rule="evenodd" clip-rule="evenodd" d="M164.095 144.21C164.444 144.22 164.734 143.944 164.743 143.595C164.752 143.246 164.477 142.955 164.128 142.946C163.778 142.937 163.488 143.213 163.479 143.562C163.47 143.911 163.745 144.201 164.095 144.21ZM165.16 143.606C165.145 144.185 164.663 144.642 164.084 144.627C163.505 144.612 163.047 144.13 163.063 143.551C163.078 142.972 163.559 142.515 164.138 142.53C164.718 142.545 165.175 143.027 165.16 143.606Z" fill="#64EDFF"/>
<path d="M178.746 137.967L172.965 137.816C172.448 137.802 172.018 138.21 172.005 138.727L171.854 144.508C171.841 145.024 172.249 145.454 172.765 145.467L178.546 145.618C179.063 145.632 179.492 145.224 179.506 144.707L179.657 138.926C179.67 138.41 179.262 137.98 178.746 137.967Z" fill="#64EDFF"/>
<path fill-rule="evenodd" clip-rule="evenodd" d="M178.735 138.383L172.954 138.232C172.667 138.225 172.429 138.451 172.421 138.738L172.271 144.519C172.263 144.805 172.489 145.044 172.776 145.051L178.557 145.202C178.844 145.209 179.082 144.983 179.089 144.696L179.24 138.915C179.248 138.629 179.021 138.39 178.735 138.383ZM172.965 137.816L178.746 137.967C179.262 137.98 179.67 138.41 179.657 138.926L179.506 144.707C179.492 145.224 179.063 145.632 178.546 145.618L172.765 145.467C172.249 145.454 171.841 145.024 171.854 144.508L172.005 138.727C172.018 138.21 172.448 137.802 172.965 137.816Z" fill="#64EDFF"/>
<path d="M178.961 149.268L172.188 149.091C171.592 149.076 171.123 148.581 171.138 148.014C171.153 147.419 171.648 146.95 172.243 146.966L179.016 147.142C179.611 147.158 180.08 147.652 180.065 148.247C180.05 148.814 179.556 149.283 178.961 149.268Z" fill="#64EDFF"/>
<path fill-rule="evenodd" clip-rule="evenodd" d="M172.198 148.675L178.971 148.851C179.344 148.861 179.64 148.566 179.648 148.236C179.658 147.871 179.37 147.568 179.005 147.558L172.232 147.382C171.867 147.372 171.564 147.66 171.554 148.025C171.546 148.355 171.826 148.665 172.198 148.675ZM172.188 149.091L178.961 149.268C179.556 149.283 180.05 148.814 180.065 148.247C180.08 147.652 179.611 147.158 179.016 147.142L172.243 146.966C171.648 146.95 171.153 147.419 171.138 148.014C171.123 148.581 171.592 149.076 172.188 149.091Z" fill="#64EDFF"/>
<mask id="mask1_8571_62944" style="mask-type:alpha" maskUnits="userSpaceOnUse" x="134" y="174" width="64" height="19">
<path d="M156.802 192.241L134.355 181.568L137.278 174.449L165.931 174.567L195.109 175.936L197.401 187.068L176.267 192.954C175.918 192.117 174.766 189.925 172.956 187.851C170.693 185.257 165.147 186.1 162.637 187.149C160.628 187.988 157.91 190.893 156.802 192.241Z" fill="#D9D9D9"/>
</mask>
<g mask="url(#mask1_8571_62944)">
<path d="M161.003 191.448C160.746 191.453 160.495 191.346 160.319 191.135C160.222 191.017 150.117 178.854 141.041 178.146C138.479 177.947 136.22 178.711 134.321 180.404C133.967 180.72 133.426 180.688 133.11 180.333C132.794 179.979 132.827 179.438 133.181 179.122C135.442 177.104 138.136 176.202 141.179 176.435C150.986 177.198 161.214 189.522 161.645 190.045C161.944 190.417 161.895 190.959 161.531 191.258C161.371 191.381 161.183 191.445 161.003 191.448Z" fill="#64EDFF"/>
<path d="M173.58 189.394C173.798 189.428 174.023 189.366 174.197 189.207C174.293 189.118 184.285 179.961 192.076 180.412C194.274 180.54 196.104 181.452 197.52 183.11C197.784 183.419 198.247 183.454 198.557 183.19C198.866 182.926 198.901 182.462 198.637 182.153C196.951 180.177 194.767 179.099 192.156 178.944C183.739 178.454 173.624 187.733 173.197 188.128C172.9 188.409 172.879 188.875 173.153 189.171C173.275 189.294 173.427 189.37 173.58 189.394Z" fill="#64EDFF"/>
</g>
<path d="M125.172 127.57C127.847 129.35 140.241 133.588 146.104 135.484L147.218 119.083L137.652 112.94L137.348 117.413L129.157 120.352C126.714 122.016 122.497 125.791 125.172 127.57Z" fill="#575DC7"/>
<path d="M205.878 86.2041C206.804 90.1208 205.47 94.2311 202.421 96.8546C203.207 90.4339 201.735 84.2275 198.004 78.2355C201.91 79.2113 204.946 82.2841 205.878 86.2041V86.2041Z" fill="white"/>
<path fill-rule="evenodd" clip-rule="evenodd" d="M202.665 97.6915C202.449 97.7515 202.221 97.7309 202.018 97.6241C201.698 97.451 201.518 97.1055 201.561 96.7471C202.322 90.5559 200.88 84.4829 197.273 78.6957C197.084 78.3919 197.101 78.0065 197.307 77.7167C197.519 77.4302 197.883 77.2992 198.228 77.3815C202.469 78.4422 205.727 81.7449 206.738 85.9993C207.748 90.2537 206.313 94.6637 203.001 97.5138C202.902 97.6008 202.784 97.6583 202.665 97.6915V97.6915ZM199.989 79.9086C202.474 84.5935 203.646 89.446 203.494 94.3945C205.113 92.1091 205.703 89.215 205.035 86.4036C204.362 83.5589 202.504 81.217 199.989 79.9086V79.9086Z" fill="#64EDFF"/>
<path d="M154.172 56.4857C172.921 51.2711 192.347 62.2387 197.562 80.9871C202.775 99.731 191.803 119.159 173.054 124.373C154.31 129.587 134.883 118.614 129.67 99.8705C124.455 81.122 135.428 61.6991 154.172 56.4857V56.4857Z" fill="white"/>
<path d="M154.649 56.9032C173.65 51.6183 192.632 61.2207 198.694 79.3873L199.24 80.1256C200.58 82.132 200.204 81.1881 201.769 86.8163C203.335 92.4445 202.041 104.348 195.269 111.439L194.518 112.385C172.103 135.252 137.525 130.73 129.396 101.501C124.038 82.2381 135.648 62.1881 154.649 56.9032V56.9032Z" fill="white"/>
<path fill-rule="evenodd" clip-rule="evenodd" d="M173.257 126.242C166.403 128.148 159.432 128.282 153.013 126.63C141.015 123.538 132.101 114.463 128.56 101.733C125.915 92.2214 127.184 82.2042 132.134 73.5225C137.057 64.8877 144.971 58.6852 154.419 56.0575C173.893 50.6411 193.241 60.4928 199.486 78.9795L199.947 79.6078C199.957 79.6183 199.965 79.6293 199.971 79.6407C200.114 79.8531 200.232 80.028 200.34 80.1859C201.2 81.4454 201.235 81.5693 202.108 84.744C202.252 85.2628 202.421 85.8688 202.619 86.5803C204.281 92.5574 202.879 104.713 195.933 112.012L195.212 112.924C195.193 112.95 195.171 112.974 195.148 112.997C189.184 119.082 182.04 123.537 174.501 125.876C174.087 126.001 173.673 126.123 173.257 126.242V126.242ZM154.887 57.7423C136.079 62.9735 125.025 82.4979 130.245 101.265C133.615 113.38 142.073 122.007 153.447 124.937C167 128.427 182.486 123.398 193.867 111.805L194.589 110.897C194.603 110.876 194.621 110.857 194.642 110.838C201.076 104.097 202.448 92.4935 200.934 87.0489C200.736 86.3374 200.566 85.7268 200.422 85.2081C199.592 82.1894 199.592 82.1894 198.898 81.1707C198.79 81.0128 198.667 80.8392 198.53 80.6301L197.997 79.903C197.941 79.8294 197.899 79.7472 197.87 79.6613C191.976 61.992 173.494 52.5672 154.887 57.7423V57.7423Z" fill="#64EDFF"/>
<path d="M161.742 69.3895C179.774 64.374 197.73 72.2982 201.844 87.0894C205.957 101.876 194.671 117.934 176.639 122.949C158.602 127.966 140.65 120.041 136.537 105.254C132.423 90.4626 143.705 74.4062 161.742 69.3895V69.3895Z" fill="#00A4FF"/>
<path fill-rule="evenodd" clip-rule="evenodd" d="M176.844 123.654C158.449 128.77 140.058 120.601 135.844 105.451C131.63 90.2975 143.162 73.8102 161.557 68.6938C179.948 63.5788 198.342 71.7423 202.557 86.8963C206.77 102.046 195.234 118.539 176.844 123.654ZM161.947 70.094C144.328 74.9946 133.249 90.678 137.249 105.061C141.248 119.439 158.834 127.15 176.453 122.249C194.072 117.349 205.151 101.665 201.152 87.287C197.151 72.9043 179.566 65.1935 161.947 70.094Z" fill="#64EDFF"/>
<path d="M175.768 119.78C191.586 115.38 201.58 101.642 198.09 89.0943C194.6 76.5467 178.948 69.9415 163.13 74.3411C147.311 78.7408 137.317 92.4792 140.807 105.027C144.297 117.574 159.95 124.18 175.768 119.78Z" fill="#6C6C6C"/>
<path fill-rule="evenodd" clip-rule="evenodd" d="M175.997 120.624C159.737 125.147 143.572 118.258 139.958 105.266C136.345 92.2744 146.63 78.0234 162.89 73.5008C179.151 68.9782 195.317 75.872 198.931 88.8637C202.544 101.855 192.258 116.102 175.997 120.624ZM163.359 75.1856C148.031 79.449 138.288 92.7331 141.643 104.798C144.997 116.857 160.2 123.203 175.529 118.94C190.857 114.676 200.6 101.392 197.246 89.3323C193.89 77.268 178.687 70.9222 163.359 75.1856Z" fill="#6C6C6C"/>
<path d="M197.745 86.9952C197.892 87.8792 197.99 88.7819 198.037 89.6986C198.189 92.6287 197.809 95.4745 196.984 98.1471C197.505 98.7045 197.96 99.2902 198.345 99.8905C195.789 108.732 187.457 116.653 176.15 119.798C174.135 120.359 172.123 120.735 170.14 120.951C155.862 120.99 144.364 115.073 143.96 107.163C143.842 104.926 144.628 102.753 146.136 100.761C145.038 98.1831 144.372 95.396 144.223 92.46C144.136 90.7975 144.222 89.1664 144.462 87.5762C148.439 81.6034 155.166 76.6807 163.512 74.3594C178.418 70.2134 193.173 75.838 197.745 86.9952V86.9952Z" fill="#B0401E"/>
<path fill-rule="evenodd" clip-rule="evenodd" d="M176.343 120.503C174.328 121.063 172.268 121.463 170.217 121.682C170.192 121.686 170.166 121.687 170.138 121.684C155.224 121.728 143.656 115.503 143.227 107.205C143.114 104.966 143.812 102.764 145.306 100.667C144.25 98.0623 143.64 95.3188 143.496 92.5053C143.409 90.8232 143.492 89.1331 143.739 87.4769C143.758 87.3677 143.795 87.2685 143.855 87.1825C148.061 80.8591 155.153 75.9338 163.316 73.6635C170.642 71.6257 178.254 71.8381 184.759 74.2624C191.266 76.6912 196.122 81.1172 198.419 86.7251C198.44 86.7784 198.455 86.832 198.464 86.8857C198.615 87.8031 198.717 88.7392 198.762 89.6663C198.907 92.4799 198.585 95.2699 197.798 97.9715C198.238 98.4675 198.623 98.9833 198.958 99.5086C199.071 99.6848 199.101 99.8991 199.044 100.103C197.73 104.643 194.957 108.935 191.019 112.523C186.991 116.196 181.916 118.952 176.343 120.503V120.503ZM170.1 120.231C172.059 120.018 174.03 119.637 175.954 119.102C186.609 116.139 194.852 108.841 197.551 100.018C197.233 99.5482 196.863 99.0921 196.448 98.6486C196.272 98.4602 196.211 98.1855 196.29 97.936C197.109 95.2798 197.45 92.524 197.309 89.7392C197.267 88.8953 197.173 88.0411 197.043 87.2017C192.495 76.2554 178.185 71.0411 163.706 75.0683C155.934 77.23 149.186 81.8815 145.159 87.8534C144.941 89.3632 144.87 90.9015 144.949 92.4324C145.094 95.2112 145.714 97.9221 146.807 100.482C146.908 100.721 146.872 100.998 146.716 101.204C145.263 103.127 144.58 105.117 144.685 107.131C145.065 114.508 156.225 120.257 170.1 120.231V120.231Z" fill="#6C6C6C"/>
<path d="M161.554 77.4428C164.978 77.2672 168.147 78.5075 170.498 80.648C172.62 78.1586 175.722 76.5094 179.248 76.3299C188.532 75.8545 196.518 87.7982 189.406 96.4582C192.05 95.5793 194.961 96.2288 196.984 98.149C197.505 98.7064 197.96 99.2921 198.344 99.8924C195.788 108.734 187.457 116.655 176.15 119.8C174.134 120.361 172.122 120.737 170.14 120.952C155.862 120.992 144.364 115.074 143.959 107.165C143.842 104.927 144.627 102.755 146.136 100.763C148.157 99.0335 150.667 98.332 153.666 98.6585C151.475 96.5578 150.049 93.6554 149.881 90.3835C149.529 83.587 154.757 77.7904 161.554 77.4428Z" fill="#FFCAA1"/>
<path fill-rule="evenodd" clip-rule="evenodd" d="M176.315 120.363C174.309 120.921 172.252 121.315 170.212 121.536C170.192 121.538 170.171 121.539 170.148 121.539C155.312 121.58 143.809 115.412 143.383 107.197C143.266 104.87 144.034 102.584 145.68 100.41C145.704 100.377 145.732 100.348 145.764 100.322C147.562 98.7838 149.745 98.0085 152.265 98C150.49 95.8675 149.453 93.2231 149.306 90.42C148.941 83.3105 154.426 77.2297 161.536 76.8646C164.808 76.6965 167.953 77.7455 170.453 79.8347C172.749 77.3662 175.841 75.9276 179.225 75.753C184.056 75.5022 188.914 78.5282 191.307 83.2734C193.371 87.3682 193.159 91.8536 190.791 95.554C193.181 95.2553 195.607 96.0297 197.395 97.7283C197.403 97.7358 197.412 97.7448 197.422 97.7553C197.966 98.341 198.448 98.9538 198.846 99.5849C198.934 99.7237 198.963 99.8986 198.914 100.061C197.607 104.574 194.849 108.847 190.93 112.415C186.921 116.068 181.865 118.819 176.315 120.363V120.363ZM170.115 120.371C172.084 120.16 174.065 119.777 176.002 119.238C186.731 116.254 195.029 108.891 197.718 99.9926C197.389 99.5053 197.008 99.0229 196.579 98.5636C194.712 96.7977 192.036 96.2069 189.6 97.0177C189.355 97.0959 189.083 97.0082 188.934 96.7925C188.786 96.5813 188.801 96.2954 188.962 96.0923C191.873 92.5475 192.361 87.9509 190.266 83.8002C188.075 79.4589 183.664 76.6894 179.285 76.9133C176.028 77.0822 173.067 78.5439 170.948 81.0274C170.849 81.1491 170.7 81.2201 170.54 81.2301C170.385 81.2434 170.227 81.1886 170.113 81.0818C167.775 78.9525 164.752 77.8644 161.596 78.0249C155.131 78.3591 150.137 83.8929 150.471 90.3581C150.624 93.3622 151.907 96.1608 154.077 98.2378C154.231 98.3829 154.291 98.5987 154.244 98.7999C154.172 99.077 153.894 99.2681 153.613 99.2373C150.779 98.9327 148.476 99.5632 146.573 101.166C145.126 103.096 144.444 105.106 144.548 107.135C144.932 114.595 156.162 120.404 170.115 120.371V120.371Z" fill="#6C6C6C"/>
<path d="M198.479 89.1162C199.463 92.6556 199.376 96.2903 198.385 99.7858C198.015 99.2209 197.581 98.674 197.092 98.1423C197.918 95.4744 198.294 92.6298 198.141 89.6951C198.104 88.9238 198.025 88.1594 197.918 87.4026C198.128 87.9624 198.317 88.5332 198.479 89.1162V89.1162Z" fill="#FFCAA1"/>
<path fill-rule="evenodd" clip-rule="evenodd" d="M198.577 100.49C198.55 100.498 198.522 100.504 198.493 100.509C198.209 100.553 197.927 100.429 197.772 100.19C197.427 99.6628 197.02 99.1428 196.555 98.6441C196.378 98.4511 196.313 98.1822 196.392 97.9328C197.211 95.2765 197.557 92.5194 197.411 89.736C197.374 88.9994 197.3 88.2533 197.193 87.5116C197.139 87.1408 197.368 86.7903 197.729 86.6999C198.089 86.6094 198.459 86.7986 198.595 87.1464C198.819 87.7371 199.013 88.3308 199.178 88.923C200.177 92.5129 200.144 96.2364 199.081 99.9892C199.011 100.236 198.82 100.423 198.577 100.49V100.49ZM197.904 97.9624C197.948 98.0159 197.994 98.069 198.042 98.1217C198.171 97.4956 198.27 96.8714 198.337 96.2492C198.214 96.8243 198.069 97.3954 197.904 97.9624Z" fill="#6C6C6C"/>
<path d="M198.607 98.9293C198.174 98.8471 197.771 98.697 197.401 98.4882C197.299 98.3683 197.199 98.2577 197.092 98.1391C197.768 95.9479 198.143 93.6328 198.173 91.2505C198.41 91.1795 198.662 91.1244 198.917 91.098C199.352 93.712 199.222 96.3547 198.607 98.9293V98.9293Z" fill="#FF9999"/>
<path fill-rule="evenodd" clip-rule="evenodd" d="M198.798 99.6352C198.692 99.6646 198.58 99.671 198.465 99.6486C197.963 99.5508 197.48 99.3786 197.033 99.1221C196.962 99.0823 196.903 99.0296 196.847 98.9709C196.752 98.859 196.652 98.7483 196.552 98.6376C196.376 98.4492 196.315 98.1791 196.39 97.9309C197.058 95.7619 197.411 93.5121 197.438 91.2443C197.444 90.9263 197.654 90.6502 197.954 90.5568C198.247 90.4705 198.541 90.4084 198.834 90.3764C199.218 90.3339 199.568 90.5976 199.63 90.9809C200.073 93.6421 199.963 96.3733 199.307 99.1027C199.243 99.368 199.041 99.5675 198.798 99.6352V99.6352ZM197.91 97.9383C197.96 97.964 198.01 97.9881 198.059 98.0107C198.172 97.4351 198.262 96.8612 198.327 96.2892C198.204 96.8443 198.065 97.394 197.91 97.9383Z" fill="#6C6C6C"/>
<path d="M172.084 102.315C171.822 102.388 171.528 102.311 171.34 102.096C170.738 101.408 169.771 101.202 168.942 101.581C168.577 101.747 168.146 101.585 167.976 101.222C167.81 100.857 167.971 100.422 168.336 100.256C169.758 99.6085 171.404 99.9617 172.433 101.135C172.7 101.436 172.669 101.895 172.367 102.162C172.284 102.235 172.185 102.287 172.084 102.315Z" fill="#6C6C6C"/>
<path d="M172.092 102.32C171.886 102.377 171.659 102.346 171.473 102.21C171.147 101.98 171.07 101.526 171.3 101.195C172.193 99.9427 173.831 99.4129 175.283 99.9042C175.666 100.035 175.87 100.448 175.743 100.83C175.611 101.208 175.199 101.416 174.817 101.285C173.965 100.998 173.008 101.309 172.49 102.041C172.39 102.183 172.248 102.277 172.092 102.32V102.32Z" fill="#6C6C6C"/>
<path d="M172.168 107.042C172.116 107.057 172.064 107.064 172.011 107.066C171.607 107.089 171.264 106.779 171.242 106.38C171.124 104.142 171.09 103.237 171.052 101.517C171.043 101.113 171.36 100.778 171.764 100.769C172.167 100.761 172.499 101.084 172.506 101.483C172.544 103.184 172.582 104.083 172.699 106.301C172.716 106.647 172.489 106.953 172.168 107.042V107.042Z" fill="#6C6C6C"/>
<g opacity="0.3">
<g opacity="0.3">
<path opacity="0.3" d="M152.01 103.879C153.602 106.988 157.463 109.064 160.844 110.958C154.635 110.057 151.165 108.201 150.433 105.391C149.989 103.477 149.602 103.258 152.01 103.879V103.879Z" fill="#6C6C6C"/>
</g>
</g>
<path fill-rule="evenodd" clip-rule="evenodd" d="M176.343 120.503C174.328 121.063 172.268 121.463 170.217 121.682C170.192 121.686 170.166 121.687 170.138 121.684C155.224 121.728 143.656 115.503 143.227 107.205C143.114 104.966 143.812 102.764 145.306 100.667C144.25 98.0623 143.64 95.3188 143.496 92.5053C143.409 90.8232 143.492 89.1331 143.739 87.4769C143.758 87.3677 143.795 87.2685 143.855 87.1825C148.061 80.8591 155.153 75.9338 163.316 73.6635C170.642 71.6257 178.254 71.8381 184.759 74.2624C191.266 76.6912 196.122 81.1172 198.419 86.7251C198.44 86.7784 198.455 86.832 198.464 86.8857C198.615 87.8031 198.717 88.7392 198.762 89.6663C198.907 92.4799 198.585 95.2699 197.798 97.9715C198.238 98.4675 198.623 98.9833 198.958 99.5086C199.071 99.6848 199.101 99.8991 199.044 100.103C197.73 104.643 194.957 108.935 191.019 112.523C186.991 116.196 181.916 118.952 176.343 120.503V120.503ZM170.1 120.231C172.059 120.018 174.03 119.637 175.954 119.102C186.609 116.139 194.852 108.841 197.551 100.018C197.233 99.5482 196.863 99.0921 196.448 98.6486C196.272 98.4602 196.211 98.1855 196.29 97.936C197.109 95.2798 197.45 92.524 197.309 89.7392C197.267 88.8953 197.173 88.0411 197.043 87.2017C192.495 76.2554 178.185 71.0411 163.706 75.0683C155.934 77.23 149.186 81.8815 145.159 87.8534C144.941 89.3632 144.87 90.9015 144.949 92.4324C145.094 95.2112 145.714 97.9221 146.807 100.482C146.908 100.721 146.872 100.998 146.716 101.204C145.263 103.127 144.58 105.117 144.685 107.131C145.065 114.508 156.225 120.257 170.1 120.231V120.231Z" fill="#6C6C6C"/>
<path d="M128.402 89.4952C132.219 88.9925 135.791 92.198 136.379 96.6588C136.967 101.12 134.351 105.141 130.535 105.644C126.719 106.151 123.145 102.941 122.558 98.4802C121.97 94.0194 124.59 89.9967 128.402 89.4952Z" fill="white"/>
<path fill-rule="evenodd" clip-rule="evenodd" d="M131.61 106.322C131.298 106.409 130.978 106.473 130.65 106.515C128.551 106.792 126.455 106.104 124.755 104.578C123.094 103.087 122.008 100.96 121.697 98.5987C121.042 93.6667 124.008 89.1968 128.291 88.6286C132.58 88.0637 136.6 91.6147 137.25 96.5479C137.561 98.9097 137.062 101.244 135.847 103.115C134.794 104.734 133.313 105.848 131.61 106.322V106.322ZM127.815 90.5071C124.872 91.3255 122.942 94.6815 123.428 98.3693C123.684 100.321 124.569 102.063 125.922 103.279C127.238 104.456 128.836 104.991 130.425 104.782C132.009 104.574 133.417 103.643 134.38 102.163C135.37 100.637 135.773 98.7243 135.517 96.7727C134.991 92.7992 131.851 89.9234 128.521 90.3602C128.279 90.3942 128.044 90.4432 127.815 90.5071V90.5071Z" fill="#64EDFF"/>
<path d="M127.576 105.306C125.02 104.35 122.988 101.755 122.554 98.4882C122.069 94.7899 123.786 91.3944 126.558 90.0544C126.705 90.0136 126.861 89.9852 127.019 89.966C130.058 89.5658 132.97 92.6927 133.536 96.9518C134.097 101.208 132.091 104.985 129.052 105.385C128.552 105.455 128.059 105.424 127.576 105.306Z" fill="white"/>
<path fill-rule="evenodd" clip-rule="evenodd" d="M129.812 105.974C129.594 106.035 129.374 106.079 129.151 106.108C128.574 106.185 127.987 106.155 127.409 106.014C127.381 106.009 127.352 106 127.323 105.989C124.441 104.911 122.287 102.003 121.836 98.583C121.322 94.6751 123.13 90.898 126.244 89.3941C126.288 89.3752 126.334 89.359 126.383 89.3454C126.568 89.2989 126.751 89.2629 126.927 89.2386C130.354 88.79 133.642 92.203 134.258 96.8538C134.551 99.0623 134.205 101.231 133.289 102.955C132.456 104.527 131.235 105.579 129.812 105.974V105.974ZM127.789 104.608C128.18 104.697 128.576 104.716 128.957 104.664C130.188 104.5 131.267 103.65 132.002 102.274C132.777 100.812 133.067 98.9557 132.812 97.0433C132.304 93.1885 129.75 90.3377 127.117 90.6845C127.015 90.6995 126.913 90.7179 126.811 90.7399C124.297 91.998 122.849 95.1309 123.281 98.3935C123.661 101.27 125.426 103.702 127.789 104.608V104.608Z" fill="#64EDFF"/>
<path d="M148.994 65.4239C150.957 68.6416 149.428 69.5812 145.936 68.05C143.357 66.9224 140.642 66.7627 138.088 66.8252C135.123 64.8605 137.112 60.741 141.84 61.271C144.179 61.3967 147.123 62.3586 148.994 65.4239V65.4239Z" fill="white"/>
<path fill-rule="evenodd" clip-rule="evenodd" d="M149.365 69.5492C148.475 69.797 147.209 69.5655 145.585 68.8499C143.04 67.7376 140.378 67.6423 138.109 67.6997C137.931 67.6998 137.754 67.6501 137.603 67.5535C136.075 66.5394 135.456 64.8666 136.029 63.2978C136.644 61.5983 138.705 60.0458 141.914 60.3996C143.873 60.5076 147.472 61.2476 149.743 64.9682C150.845 66.7785 151.032 68.1262 150.29 68.9804C150.047 69.2558 149.739 69.4454 149.365 69.5492V69.5492ZM138.362 65.9428C140.636 65.9037 143.533 66.0425 146.288 67.2499C148.13 68.058 148.875 67.9101 148.976 67.8277C148.971 67.829 149.149 67.3491 148.25 65.878C146.387 62.8253 143.408 62.2297 141.796 62.1437C141.779 62.1419 141.762 62.14 141.745 62.1381C139.463 61.8826 138.057 62.8375 137.669 63.8951C137.398 64.6479 137.646 65.3801 138.362 65.9428Z" fill="#64EDFF"/>
<path d="M187.497 62.8488C187.824 63.6333 187.307 64.5336 186.54 64.9052C185.779 65.2801 184.743 65.1479 184.333 64.4014C182.652 61.3474 179.476 58.7835 176.195 57.5299C179.4 54.3832 183.674 53.5505 187.497 62.8488V62.8488Z" fill="white"/>
<path fill-rule="evenodd" clip-rule="evenodd" d="M186.454 65.8687C185.412 66.1585 184.142 65.8786 183.562 64.8234C182.041 62.0565 179.094 59.5721 175.881 58.3491C175.604 58.2431 175.399 58.0034 175.337 57.7091C175.276 57.4194 175.365 57.1176 175.579 56.9097C177.548 54.9723 179.532 54.1929 181.472 54.5881C184.058 55.1201 186.357 57.7845 188.306 62.5148C188.784 63.6825 188.178 65.0777 186.924 65.6887C186.776 65.7643 186.615 65.824 186.454 65.8687V65.8687ZM177.814 57.2821C180.876 58.775 183.592 61.2492 185.094 63.9819C185.254 64.2737 185.794 64.2964 186.156 64.1216C186.517 63.9422 186.821 63.5064 186.687 63.1828C185.002 59.0814 183.073 56.6998 181.123 56.3025C180.084 56.0871 178.974 56.4203 177.814 57.2821V57.2821Z" fill="#64EDFF"/>
<g opacity="0.3">
<g opacity="0.3">
<path opacity="0.3" d="M125.632 98.3365C125.958 101.431 127.792 104.165 130.529 105.649C126.455 105.759 122.977 102.715 122.547 98.6605C122.116 94.6059 124.874 90.9009 128.885 90.1515C126.519 92.1744 125.304 95.2376 125.632 98.3365V98.3365Z" fill="#6C6C6C"/>
</g>
</g>
<g opacity="0.3">
<g opacity="0.3">
<path opacity="0.3" d="M183.763 64.9619C181.289 62.6925 178.012 60.9167 173.933 59.6344C171.778 57.009 172.536 56.3035 176.212 57.5166C178.479 57.9148 180.999 60.3941 183.763 64.9619Z" fill="#6C6C6C"/>
</g>
</g>
<g opacity="0.3">
<g opacity="0.3">
<path opacity="0.3" d="M137.128 63.0128C137.818 61.8663 139.264 61.4294 140.472 62.0034C139.685 61.8762 138.928 62.3539 138.705 63.1181C138.488 63.8857 138.809 64.9489 139.601 65.0055C142.869 65.2491 146.096 65.9884 149.262 67.9815C147.95 68.4946 144.133 67.9804 137.808 66.4388C136.732 65.6452 136.437 64.1593 137.128 63.0128V63.0128Z" fill="#6C6C6C"/>
</g>
</g>
<g opacity="0.3">
<g opacity="0.3">
<path opacity="0.3" d="M177.812 56.5109C182.707 58.6249 185.344 61.3783 185.723 64.771C183.171 62.1013 180.341 59.7889 177.236 57.8336C177.152 57.8535 177.344 57.4126 177.812 56.5109Z" fill="#6C6C6C"/>
</g>
</g>
<g opacity="0.3">
<g opacity="0.3">
<path opacity="0.3" d="M197.815 99.1352C195.347 108.081 186.961 116.126 175.544 119.302C159.724 123.702 144.073 117.095 140.583 104.548C138.995 98.8375 140.197 92.8798 143.476 87.6699C142.52 91.1158 142.449 94.7015 143.42 98.1905C146.909 110.737 162.565 117.342 178.385 112.942C180.763 112.281 183.008 111.409 185.095 110.359C184.292 110.281 183.463 110.165 182.61 109.996C185.608 109.215 188.541 107.925 191.41 106.124C191.399 106.192 191.382 106.256 191.375 106.317C193.986 104.201 196.167 101.765 197.815 99.1352V99.1352Z" fill="#6C6C6C"/>
</g>
</g>
<path fill-rule="evenodd" clip-rule="evenodd" d="M175.699 119.861C159.595 124.34 143.588 117.541 140.018 104.705C136.448 91.8693 146.645 77.7813 162.749 73.3021C178.853 68.8229 194.86 75.6227 198.43 88.4583C202 101.294 191.803 115.382 175.699 119.861V119.861ZM163.061 74.4222C147.576 78.729 137.745 92.1762 141.143 104.392C144.54 116.608 159.902 123.043 175.386 118.736C190.871 114.43 200.703 100.987 197.305 88.7711C193.908 76.5552 178.545 70.1154 163.061 74.4222V74.4222Z" fill="#6C6C6C"/>
<path d="M184.629 92.5125C184.412 95.3425 182.758 97.4149 180.931 97.1416C179.109 96.867 177.801 94.3522 178.018 91.5222C178.235 88.6922 179.889 86.6198 181.716 86.8931C183.543 87.1665 184.846 89.6825 184.629 92.5125Z" fill="#6C6C6C"/>
<path d="M183.172 89.3572C183.458 90.2965 183.219 91.2531 182.643 91.4925C182.065 91.7274 181.367 91.155 181.08 90.2111C180.798 89.2705 181.035 88.3094 181.613 88.0745C182.191 87.8397 182.889 88.4121 183.172 89.3572V89.3572Z" fill="white"/>
<path d="M180.658 94.5424C180.897 94.9904 180.871 95.5217 180.603 95.73C180.328 95.9349 179.913 95.7389 179.675 95.2908C179.436 94.8427 179.461 94.3114 179.735 94.1019C180.004 93.8983 180.42 94.0943 180.658 94.5424V94.5424Z" fill="white"/>
<path d="M161.051 88.5102C162.791 88.1002 164.548 89.9708 164.976 92.6809C165.409 95.3944 164.346 97.9206 162.608 98.3247C160.872 98.7334 159.111 96.8641 158.684 94.154C158.255 91.4392 159.313 88.9142 161.051 88.5102Z" fill="#6C6C6C"/>
<path d="M161.262 89.6277C161.837 89.8091 162.143 90.7132 161.942 91.6445C161.741 92.5758 161.114 93.1854 160.538 92.9994C159.963 92.8179 159.657 91.9138 159.858 90.9825C160.059 90.0512 160.687 89.4463 161.262 89.6277Z" fill="white"/>
<path d="M163.527 95.3036C163.809 95.4824 163.877 95.9927 163.68 96.443C163.484 96.8932 163.102 97.1183 162.819 96.9396C162.542 96.7596 162.474 96.2493 162.67 95.799C162.867 95.3488 163.25 95.1283 163.527 95.3036Z" fill="white"/>
<g opacity="0.2">
<g opacity="0.2">
<g opacity="0.2">
<path opacity="0.2" d="M145.037 97.5912C144.588 95.9406 144.309 94.2277 144.218 92.4578C144.131 90.7954 144.217 89.1642 144.457 87.5741C148.434 81.6012 155.161 76.6785 163.507 74.3572C178.413 70.2113 193.168 75.8359 197.74 86.9931C197.887 87.8771 197.985 88.7797 198.032 89.6964C198.036 89.7449 198.033 89.79 198.037 89.8385C193.04 79.304 178.699 74.1032 164.216 78.1317C155.87 80.453 149.142 85.3756 145.165 91.3485C144.925 92.9387 144.84 94.5698 144.926 96.2323C144.95 96.6906 144.991 97.1393 145.037 97.5912V97.5912Z" fill="#6C6C6C"/>
</g>
</g>
<g opacity="0.2">
<g opacity="0.2">
<path opacity="0.2" d="M198.259 99.7562C198.291 99.8016 198.324 99.847 198.351 99.8937C198.195 100.435 198.018 100.972 197.82 101.505C197.987 100.93 198.136 100.344 198.259 99.7562V99.7562Z" fill="#6C6C6C"/>
</g>
</g>
<g opacity="0.2">
<g opacity="0.2">
<path opacity="0.2" d="M144.665 110.133C144.257 109.183 144.015 108.187 143.962 107.163C143.857 105.13 144.495 103.157 145.739 101.317C146.036 102.422 146.405 103.496 146.847 104.536C145.52 106.29 144.754 108.179 144.665 110.133Z" fill="#6C6C6C"/>
</g>
</g>
</g>
<path fill-rule="evenodd" clip-rule="evenodd" d="M157.819 48.3194C157.187 51.1904 157.724 54.0006 158.42 55.7363L160.005 55.1007C159.411 53.6174 158.943 51.1595 159.488 48.6871C160.023 46.2593 161.539 43.7755 165.008 42.135L164.277 40.5906C160.305 42.4693 158.462 45.4039 157.819 48.3194Z" fill="#64EDFF"/>
<path d="M161.271 42.0218C161.708 43.5938 163.337 44.5138 164.909 44.0765C166.481 43.6393 167.401 42.0104 166.964 40.4384C166.526 38.8663 164.897 37.9464 163.325 38.3836C161.753 38.8209 160.833 40.4497 161.271 42.0218Z" fill="#64EDFF"/>
<path fill-rule="evenodd" clip-rule="evenodd" d="M150.283 45.2436C150.282 45.2435 150.285 45.2509 150.294 45.2663C150.289 45.2514 150.284 45.2437 150.283 45.2436ZM150.784 45.7858C151.168 45.71 151.68 45.6559 152.323 45.6443C154.185 45.611 156.76 45.9394 159.579 46.6757C162.398 47.4119 164.806 48.3848 166.413 49.3242C166.969 49.6488 167.389 49.9462 167.687 50.2002C167.303 50.2759 166.791 50.3301 166.148 50.3416C164.286 50.3749 161.71 50.0465 158.891 49.3103C156.072 48.5741 153.665 47.6012 152.057 46.6618C151.502 46.3372 151.082 46.0398 150.784 45.7858ZM168.389 49.9721C168.388 49.9718 168.38 49.9763 168.368 49.9865C168.383 49.9775 168.39 49.9724 168.389 49.9721ZM168.188 50.7424C168.188 50.7425 168.186 50.7351 168.177 50.7197C168.182 50.7345 168.187 50.7422 168.188 50.7424ZM150.103 45.9995C150.087 46.0085 150.081 46.0136 150.082 46.0139C150.083 46.0141 150.091 46.0096 150.103 45.9995ZM158.46 50.9633C152.609 49.4352 148.213 46.8666 148.641 45.2261C149.07 43.5857 154.16 43.4946 160.011 45.0227C165.862 46.5508 170.258 49.1194 169.83 50.7598C169.401 52.4003 164.311 52.4914 158.46 50.9633Z" fill="#64EDFF"/>
<path d="M179.217 206.638L177.442 196.032L198.755 190.99L201.988 202.195L201.491 202.161L179.217 206.638Z" fill="#5156C0"/>
<path d="M177.272 215.841C182.223 217.728 210.442 218.554 212.606 212.357C212.813 211.758 212.824 211.169 212.655 210.587C211.892 207.875 208.181 202.693 203.155 200.821C198.128 198.939 191.776 200.359 191.776 200.359L178.667 203.344C178.667 203.344 175.105 209.334 175.407 213.107C175.494 214.351 176.036 215.366 177.274 215.85L177.272 215.841Z" fill="url(#paint18_linear_8571_62944)"/>
<path d="M177.274 215.842C182.225 217.73 210.444 218.555 212.608 212.358C212.815 211.759 212.381 208.959 212.211 208.377C206.913 210.511 193.413 214.513 174.964 210.897C175.051 212.141 176.038 215.368 177.276 215.852L177.274 215.842Z" fill="#3167D5"/>
<path d="M167.006 113.004C167.831 112.709 168.66 112.418 169.502 112.174C169.908 112.056 170.273 111.913 170.692 111.863C171.162 111.807 171.612 111.622 172.069 111.508C172.72 111.345 173.398 111.263 174.04 111.076C174.659 110.897 175.361 110.701 175.914 110.377C176.074 110.283 176.308 110.153 176.493 110.153" stroke="#6C6C6C" stroke-width="2" stroke-linecap="round"/>
<path d="M176.068 206.505C140.716 202.737 97.6324 179.513 80.5098 168.372C83.5604 213.952 145.486 242.695 176.068 244.19C225.776 250.83 240.596 180.56 241.792 151.772C223.488 172.589 190.349 196.934 176.068 206.505Z" fill="url(#paint19_linear_8571_62944)"/>
<path d="M234.649 231.404C226.753 233.378 204.89 236.264 194.945 237.461C193.689 240.152 195.17 243.069 196.067 244.19C214.371 243.113 230.013 239.255 235.546 237.461C237.879 234.231 235.92 232.077 234.649 231.404Z" fill="#B88DF7"/>
<path d="M234.649 244.414C226.753 246.388 204.89 249.274 194.945 250.471C193.689 253.163 195.17 256.079 196.067 257.2C214.371 256.124 230.013 252.265 235.546 250.471C237.879 247.241 235.92 245.087 234.649 244.414Z" fill="url(#paint20_linear_8571_62944)"/>
</g>
<path opacity="0.8" d="M57.6109 68.3383C55.2294 55.9318 63.3563 43.9438 75.7627 41.5624L103.219 36.2921C115.625 33.9106 127.613 42.0375 129.995 54.4439C132.376 66.8504 124.249 78.8384 111.843 81.2199L84.3868 86.4901C71.9803 88.8716 59.9923 80.7447 57.6109 68.3383Z" fill="#EDA664"/>
<g clip-path="url(#clip0_8571_62944)">
<path d="M91.8843 52.5608C97.0453 51.5701 102.05 54.963 103.041 60.1241C104.032 65.2852 100.639 70.29 95.4776 71.2807C90.3165 72.2714 85.3117 68.8785 84.321 63.7175C83.3303 58.5564 86.7232 53.5515 91.8843 52.5608ZM91.5249 50.6888C85.3221 51.8795 81.2583 57.874 82.449 64.0768C83.6396 70.2796 89.6341 74.3434 95.8369 73.1527C102.04 71.9621 106.104 65.9676 104.913 59.7648C103.722 53.5619 97.7278 49.4982 91.5249 50.6888ZM94.6169 61.7411L93.5389 56.1251L91.6669 56.4845L93.1043 63.9724L99.6562 62.7148L99.2969 60.8428L94.6169 61.7411Z" fill="white"/>
</g>
<path d="M291.849 157.896C291.849 168.074 300.165 176.325 310.423 176.325C320.682 176.325 328.996 168.074 328.996 157.896C328.996 147.718 320.682 139.469 310.423 139.469C300.165 139.469 291.849 147.718 291.849 157.896Z" fill="url(#paint21_radial_8571_62944)"/>
<path d="M295.561 157.711C295.561 158.444 295.613 159.171 295.715 159.876C295.716 159.878 295.716 159.88 295.716 159.883C295.816 160.59 295.968 161.282 296.166 161.955C296.487 163.074 296.941 164.137 297.501 165.132C297.905 165.854 298.366 166.537 298.878 167.178C301.695 170.71 306.052 172.975 310.945 172.975C311.807 172.975 312.654 172.903 313.477 172.767C314.096 172.667 314.702 172.53 315.29 172.355C316.899 171.887 318.402 171.164 319.747 170.227C319.982 170.066 320.213 169.894 320.437 169.719C321.424 168.955 322.308 168.069 323.08 167.092C323.159 166.992 323.235 166.889 323.311 166.787C323.841 166.08 324.31 165.321 324.713 164.526C325.345 163.27 325.811 161.915 326.074 160.491C326.192 159.846 326.271 159.187 326.307 158.515C326.319 158.247 326.326 157.979 326.326 157.711C326.326 157.07 326.286 156.438 326.21 155.821C326.164 155.468 326.109 155.122 326.041 154.775C326.04 154.774 326.04 154.773 326.04 154.772C326.04 154.771 326.04 154.77 326.04 154.769C325.68 152.937 324.988 151.223 324.031 149.686C323.812 149.337 323.581 148.997 323.336 148.668C322.395 147.402 321.262 146.283 319.978 145.356C317.443 143.528 314.32 142.447 310.945 142.447C309.409 142.447 307.923 142.669 306.527 143.088C305.023 143.535 303.614 144.2 302.345 145.058C302.076 145.237 301.81 145.424 301.554 145.621C300.616 146.339 299.765 147.158 299.026 148.067C298.842 148.286 298.666 148.51 298.5 148.74C297.93 149.514 297.435 150.343 297.024 151.217C296.819 151.635 296.639 152.068 296.477 152.507C296.267 153.087 296.09 153.68 295.949 154.289C295.949 154.29 295.949 154.291 295.949 154.292C295.949 154.293 295.949 154.294 295.948 154.296C295.823 154.834 295.73 155.382 295.665 155.94C295.606 156.448 295.571 156.963 295.564 157.485C295.561 157.56 295.561 157.636 295.561 157.711Z" fill="url(#paint22_linear_8571_62944)"/>
<path style="mix-blend-mode:overlay" d="M301.555 145.62C300.157 146.691 300.66 148.758 302.369 149.18C304.091 149.605 305.969 149.832 307.894 149.662C311.978 149.301 317.082 149.954 321.394 151.872C323.032 152.601 324.979 151.208 324.032 149.685C323.611 149.015 322.901 148.594 322.119 148.471C319.246 148.021 315.991 147.607 313.087 147.47C309.26 147.287 305.938 146.436 303.247 145.415C302.68 145.2 302.036 145.251 301.555 145.62Z" fill="url(#paint23_linear_8571_62944)"/>
<path style="mix-blend-mode:overlay" d="M295.949 154.291C295.949 154.291 295.949 154.291 295.949 154.292C295.949 154.294 295.95 154.295 295.951 154.296C297.045 154.928 298.407 155.593 300.104 156.244C302.816 157.286 307.767 158.223 311.399 159.271C312.924 159.708 316.53 158.531 317.89 158.938C319.302 159.354 320.659 160.236 321.883 161.335C323.331 162.637 325.72 162.406 326.074 160.491C326.305 159.229 325.902 157.925 324.965 157.048C322.868 155.087 319.653 153.455 314.905 154.034C309.157 154.735 302.87 153.208 298.347 151.681C297.592 151.426 296.753 151.76 296.477 152.508C296.267 153.088 296.09 153.681 295.949 154.291Z" fill="url(#paint24_linear_8571_62944)"/>
<path style="mix-blend-mode:overlay" d="M297.723 158.532C296.765 158.112 295.651 158.834 295.717 159.878C295.717 159.881 295.718 159.883 295.72 159.884C296.865 160.515 298.257 161.256 299.839 162.04C303.336 163.774 306.759 168.967 311.66 168.594C314.197 168.398 316.806 169.082 318.953 169.907C319.452 170.098 320.018 170.047 320.439 169.718C321.425 168.955 322.31 168.068 323.081 167.091C323.209 166.93 323.162 166.694 322.986 166.588C319.045 164.212 313.186 161.311 308.675 161.124C304.639 160.956 301.151 159.943 298.505 158.863C298.235 158.753 297.975 158.642 297.723 158.532Z" fill="url(#paint25_linear_8571_62944)"/>
<path style="mix-blend-mode:overlay" d="M310.945 142.447C309.279 142.447 309.086 144.274 310.705 144.672C311.316 144.823 311.932 144.946 312.546 145.047C315.018 145.451 315.611 142.95 313.13 142.6C312.417 142.499 311.687 142.447 310.945 142.447Z" fill="url(#paint26_linear_8571_62944)"/>
<path style="mix-blend-mode:overlay" d="M306.011 169.691C304.27 169.469 303.247 171.046 304.861 171.737C306.727 172.535 308.784 172.976 310.945 172.976C311.882 172.976 312.141 171.875 311.311 171.439C309.904 170.699 308.06 169.952 306.011 169.691Z" fill="url(#paint27_linear_8571_62944)"/>
<path d="M254.746 236.779C254.746 252.259 267.3 264.803 282.786 264.803C298.271 264.803 310.825 252.259 310.825 236.779C310.825 221.303 298.271 208.759 282.786 208.759C267.3 208.759 254.746 221.303 254.746 236.779Z" fill="url(#paint28_radial_8571_62944)"/>
<path d="M261.52 231.824C261.323 233.031 261.24 234.228 261.264 235.408C261.307 238.274 261.962 241.033 263.113 243.533C263.592 244.561 264.141 245.538 264.776 246.469C267.81 250.928 272.607 254.176 278.352 255.1C282.46 255.762 286.469 255.147 289.988 253.541C294.067 251.689 297.473 248.511 299.589 244.478C300.577 242.583 301.285 240.505 301.641 238.284C301.718 237.812 301.774 237.34 301.821 236.867C301.871 236.276 301.904 235.687 301.904 235.099C301.904 233.709 301.771 232.349 301.498 231.023C300.886 227.971 299.572 225.131 297.716 222.704C294.672 218.728 290.155 215.862 284.816 215.001C279.606 214.163 274.543 215.387 270.448 218.06C269.733 218.535 269.044 219.054 268.386 219.612C267.574 220.3 266.812 221.062 266.11 221.883C263.775 224.623 262.135 228.014 261.52 231.824Z" fill="url(#paint29_linear_8571_62944)"/>
<g style="mix-blend-mode:overlay" opacity="0.38">
<path d="M268.385 219.612C271.721 220.696 276.082 222.175 280.038 223.715C284.668 225.517 294.365 228.712 301.497 231.022C300.885 227.97 299.571 225.131 297.715 222.704C294.601 221.703 291.115 220.992 287.802 221.171C282.426 221.467 275.424 219.652 270.447 218.059C269.732 218.535 269.043 219.053 268.385 219.612Z" fill="white"/>
</g>
<g style="mix-blend-mode:overlay" opacity="0.38">
<path d="M301.904 235.098C300.613 234.466 289.486 232.392 282.923 230.111C278.079 228.422 270.358 224.259 266.11 221.882C263.775 224.622 262.135 228.013 261.52 231.823C261.323 233.03 261.24 234.227 261.264 235.407C267.221 235.134 275.252 234.672 281.233 233.987C289.632 233.02 298.388 235.663 301.821 236.867L301.904 235.098Z" fill="white"/>
</g>
<g style="mix-blend-mode:overlay" opacity="0.38">
<path d="M263.111 243.534C263.59 244.561 264.139 245.539 264.775 246.47L279.328 248.73L289.987 253.541C294.065 251.689 297.471 248.511 299.587 244.478C297.827 243.67 294.97 243.025 290.309 243.155C282.761 243.361 274.472 243.527 265.437 243.65L263.111 243.534Z" fill="white"/>
</g>
<path d="M263.847 225.128C263.345 226.023 262.912 226.96 262.546 227.941C258.025 227.881 255.198 228.303 255.045 229.248C254.898 230.165 257.307 231.412 261.399 232.729C266.272 234.291 273.524 235.947 281.694 237.263C289.378 238.5 296.387 239.198 301.447 239.315C306.297 239.421 309.361 239.002 309.52 238.018C309.68 237.014 306.753 235.601 301.886 234.142C301.836 233.098 301.71 232.06 301.507 231.053C310.878 233.859 316.872 237.111 316.463 239.651C316.064 242.131 309.65 243.334 300.229 243.128C294.674 243.012 288.074 242.397 281.048 241.266C273.607 240.07 266.804 238.464 261.325 236.725C252.863 234.035 247.557 231.006 247.939 228.616C248.335 226.166 254.612 224.955 263.847 225.128Z" fill="url(#paint30_linear_8571_62944)"/>
<path d="M0.419196 151.325L0.466151 151.216C0.466151 151.189 0.486275 151.164 0.497455 151.137C0.508635 151.111 0.519811 151.082 0.533227 151.055C0.946882 150.071 1.59084 149.239 2.38908 148.778L2.61268 148.647L30.0212 132.816L57.4298 116.985L57.6534 116.855C58.3356 116.416 59.2014 116.377 59.9207 116.753L59.9743 116.782L60.0302 116.811L63.648 118.897L61.5619 119.791L68.8042 158.163C68.9731 159.2 68.8364 160.265 68.4107 161.226L68.3771 161.309L68.3436 161.387C67.9299 162.373 67.2837 163.205 66.4855 163.666L11.8204 195.235L12.3235 197.643L8.89353 195.658L8.83987 195.629C8.16908 195.271 7.66822 194.564 7.4804 193.574L0.0703798 154.279C-0.0923814 153.281 0.0284865 152.258 0.419196 151.325Z" fill="url(#paint31_linear_8571_62944)"/>
<path d="M6.1701 150.701L33.5787 134.871L42.167 180.406L14.9977 197.516C13.2089 198.553 11.4202 197.713 11.0378 195.638L3.6278 156.336C3.2365 154.261 4.37461 151.739 6.1701 150.701Z" fill="url(#paint32_linear_8571_62944)"/>
<path d="M60.9892 119.035L33.5762 134.872L42.1109 180.121L69.8146 165.849C71.6034 164.812 72.7482 162.29 72.3569 160.215L64.9446 120.92C64.5533 118.845 62.778 118.004 60.9892 119.035Z" fill="url(#paint33_linear_8571_62944)"/>
<path d="M72.0085 163.17C71.5931 164.281 70.8219 165.225 69.815 165.853L14.9957 197.516C14.0253 198.078 13.0638 198.084 12.3125 197.651L36.8814 152.395L72.0085 163.17Z" fill="url(#paint34_linear_8571_62944)"/>
<path d="M3.97656 153.38C4.39437 152.269 5.1659 151.326 6.17228 150.697L60.9939 119.033C61.9643 118.474 62.928 118.465 63.677 118.899L39.1059 164.157L3.97656 153.38Z" fill="url(#paint35_linear_8571_62944)"/>
<defs>
<radialGradient id="paint0_radial_8571_62944" cx="0" cy="0" r="1" gradientUnits="userSpaceOnUse" gradientTransform="translate(263.893 98.1743) rotate(180) scale(16.457 16.4478)">
<stop stop-color="#FEE7CA"/>
<stop offset="1" stop-color="#FEE7CA" stop-opacity="0"/>
</radialGradient>
<linearGradient id="paint1_linear_8571_62944" x1="258.903" y1="120.437" x2="280.806" y2="103.181" gradientUnits="userSpaceOnUse">
<stop offset="0.137" stop-color="#A8658F"/>
<stop offset="1" stop-color="#F7D3A1"/>
</linearGradient>
<linearGradient id="paint2_linear_8571_62944" x1="277.73" y1="86.0896" x2="253.794" y2="86.0896" gradientUnits="userSpaceOnUse">
<stop stop-color="white" stop-opacity="0.78"/>
<stop offset="1" stop-color="white" stop-opacity="0"/>
</linearGradient>
<linearGradient id="paint3_linear_8571_62944" x1="277.964" y1="91.5864" x2="251.066" y2="91.5864" gradientUnits="userSpaceOnUse">
<stop stop-color="white" stop-opacity="0.78"/>
<stop offset="1" stop-color="white" stop-opacity="0"/>
</linearGradient>
<linearGradient id="paint4_linear_8571_62944" x1="275.313" y1="97.1807" x2="250.728" y2="97.1807" gradientUnits="userSpaceOnUse">
<stop stop-color="white" stop-opacity="0.78"/>
<stop offset="1" stop-color="white" stop-opacity="0"/>
</linearGradient>
<linearGradient id="paint5_linear_8571_62944" x1="272.359" y1="83.7872" x2="260.44" y2="83.7872" gradientUnits="userSpaceOnUse">
<stop stop-color="white" stop-opacity="0.78"/>
<stop offset="1" stop-color="white" stop-opacity="0"/>
</linearGradient>
<linearGradient id="paint6_linear_8571_62944" x1="266.6" y1="105.832" x2="253.664" y2="105.832" gradientUnits="userSpaceOnUse">
<stop stop-color="white" stop-opacity="0.78"/>
<stop offset="1" stop-color="white" stop-opacity="0"/>
</linearGradient>
<linearGradient id="paint7_linear_8571_62944" x1="159.582" y1="282.608" x2="159.582" y2="39.6369" gradientUnits="userSpaceOnUse">
<stop stop-color="#774BF0" stop-opacity="0.31"/>
<stop offset="1" stop-color="#FCFBFF" stop-opacity="0"/>
</linearGradient>
<linearGradient id="paint8_linear_8571_62944" x1="159.582" y1="282.608" x2="159.582" y2="39.6375" gradientUnits="userSpaceOnUse">
<stop stop-color="#774BF0"/>
<stop offset="1" stop-color="#FCFBFF"/>
</linearGradient>
<linearGradient id="paint9_linear_8571_62944" x1="161.488" y1="115.658" x2="161.488" y2="209.423" gradientUnits="userSpaceOnUse">
<stop stop-color="#8640EC" stop-opacity="0"/>
<stop offset="1" stop-color="#D8CBFB"/>
</linearGradient>
<linearGradient id="paint10_linear_8571_62944" x1="164.964" y1="151.1" x2="164.964" y2="276.716" gradientUnits="userSpaceOnUse">
<stop stop-color="#CDC0CB"/>
<stop offset="1" stop-color="#E4D2D1"/>
</linearGradient>
<linearGradient id="paint11_linear_8571_62944" x1="151.535" y1="97.4525" x2="108.962" y2="95.268" gradientUnits="userSpaceOnUse">
<stop stop-color="#FB8F14"/>
<stop offset="1" stop-color="#FC7630"/>
</linearGradient>
<linearGradient id="paint12_linear_8571_62944" x1="201.162" y1="95.6567" x2="199.205" y2="83.3993" gradientUnits="userSpaceOnUse">
<stop stop-color="#FB9C07"/>
<stop offset="1" stop-color="#FC7333"/>
</linearGradient>
<linearGradient id="paint13_linear_8571_62944" x1="193.747" y1="95.8575" x2="190.345" y2="74.5411" gradientUnits="userSpaceOnUse">
<stop stop-color="#FB9C07"/>
<stop offset="1" stop-color="#FC7333"/>
</linearGradient>
<linearGradient id="paint14_linear_8571_62944" x1="188.907" y1="94.4054" x2="188.271" y2="90.4216" gradientUnits="userSpaceOnUse">
<stop stop-color="#FB9C07"/>
<stop offset="1" stop-color="#FC7333"/>
</linearGradient>
<linearGradient id="paint15_linear_8571_62944" x1="166.021" y1="138.397" x2="156.841" y2="80.8819" gradientUnits="userSpaceOnUse">
<stop offset="0.110615" stop-color="#676DD8"/>
<stop offset="1" stop-color="#4950B8"/>
</linearGradient>
<linearGradient id="paint16_linear_8571_62944" x1="170.854" y1="103.392" x2="163.784" y2="207.398" gradientUnits="userSpaceOnUse">
<stop stop-color="#2F349D"/>
<stop offset="1" stop-color="#5B60CA"/>
</linearGradient>
<linearGradient id="paint17_linear_8571_62944" x1="135.507" y1="201.141" x2="134.266" y2="219.399" gradientUnits="userSpaceOnUse">
<stop stop-color="#EA7E25"/>
<stop offset="1" stop-color="#FC861F"/>
</linearGradient>
<linearGradient id="paint18_linear_8571_62944" x1="191.704" y1="200.373" x2="195.288" y2="218.151" gradientUnits="userSpaceOnUse">
<stop stop-color="#FB9B08"/>
<stop offset="1" stop-color="#FC7432"/>
</linearGradient>
<linearGradient id="paint19_linear_8571_62944" x1="133.897" y1="179.139" x2="205.004" y2="228.712" gradientUnits="userSpaceOnUse">
<stop stop-color="#F6EAE9"/>
<stop offset="1" stop-color="#F6EAE9"/>
</linearGradient>
<linearGradient id="paint20_linear_8571_62944" x1="215.547" y1="244.414" x2="215.547" y2="257.2" gradientUnits="userSpaceOnUse">
<stop stop-color="#F8BB85"/>
<stop offset="1" stop-color="#F8BB85"/>
</linearGradient>
<radialGradient id="paint21_radial_8571_62944" cx="0" cy="0" r="1" gradientUnits="userSpaceOnUse" gradientTransform="translate(310.423 157.896) rotate(180) scale(18.5736 18.4281)">
<stop stop-color="#FEE7CA"/>
<stop offset="1" stop-color="#FEE7CA" stop-opacity="0"/>
</radialGradient>
<linearGradient id="paint22_linear_8571_62944" x1="304.791" y1="182.84" x2="329.372" y2="163.332" gradientUnits="userSpaceOnUse">
<stop offset="0.137" stop-color="#3C74DA"/>
<stop offset="1" stop-color="#DD94FF"/>
</linearGradient>
<linearGradient id="paint23_linear_8571_62944" x1="326.041" y1="144.357" x2="299.026" y2="144.357" gradientUnits="userSpaceOnUse">
<stop stop-color="white" stop-opacity="0.78"/>
<stop offset="1" stop-color="white" stop-opacity="0"/>
</linearGradient>
<linearGradient id="paint24_linear_8571_62944" x1="326.306" y1="150.517" x2="295.948" y2="150.517" gradientUnits="userSpaceOnUse">
<stop stop-color="white" stop-opacity="0.78"/>
<stop offset="1" stop-color="white" stop-opacity="0"/>
</linearGradient>
<linearGradient id="paint25_linear_8571_62944" x1="323.313" y1="156.784" x2="295.566" y2="156.784" gradientUnits="userSpaceOnUse">
<stop stop-color="white" stop-opacity="0.78"/>
<stop offset="1" stop-color="white" stop-opacity="0"/>
</linearGradient>
<linearGradient id="paint26_linear_8571_62944" x1="319.978" y1="141.778" x2="306.527" y2="141.778" gradientUnits="userSpaceOnUse">
<stop stop-color="white" stop-opacity="0.78"/>
<stop offset="1" stop-color="white" stop-opacity="0"/>
</linearGradient>
<linearGradient id="paint27_linear_8571_62944" x1="313.477" y1="166.478" x2="298.877" y2="166.478" gradientUnits="userSpaceOnUse">
<stop stop-color="white" stop-opacity="0.78"/>
<stop offset="1" stop-color="white" stop-opacity="0"/>
</linearGradient>
<radialGradient id="paint28_radial_8571_62944" cx="0" cy="0" r="1" gradientUnits="userSpaceOnUse" gradientTransform="translate(282.786 236.781) scale(28.0392 28.0236)">
<stop stop-color="#FBB53F"/>
<stop offset="1" stop-color="#FBB53F" stop-opacity="0"/>
</radialGradient>
<linearGradient id="paint29_linear_8571_62944" x1="275.847" y1="266.124" x2="309.974" y2="241.457" gradientUnits="userSpaceOnUse">
<stop stop-color="#FBB53F"/>
<stop offset="1" stop-color="#FD5E0F"/>
</linearGradient>
<linearGradient id="paint30_linear_8571_62944" x1="318.087" y1="244.935" x2="317.597" y2="231.46" gradientUnits="userSpaceOnUse">
<stop stop-color="#FBB53F"/>
<stop offset="1" stop-color="#F7D3A1"/>
</linearGradient>
<linearGradient id="paint31_linear_8571_62944" x1="-0.00564233" y1="157.067" x2="68.8802" y2="157.067" gradientUnits="userSpaceOnUse">
<stop stop-color="#9551EF"/>
<stop offset="0.06" stop-color="#AE6FFA"/>
<stop offset="0.2" stop-color="#D9B4FF"/>
<stop offset="0.432292" stop-color="#EADBFF"/>
<stop offset="1" stop-color="white"/>
</linearGradient>
<linearGradient id="paint32_linear_8571_62944" x1="14.4802" y1="228.798" x2="36.8487" y2="166.123" gradientUnits="userSpaceOnUse">
<stop stop-color="#984FEF"/>
<stop offset="1" stop-color="#FCFAFF"/>
</linearGradient>
<linearGradient id="paint33_linear_8571_62944" x1="68.8497" y1="174.262" x2="43.7563" y2="157.201" gradientUnits="userSpaceOnUse">
<stop stop-color="white"/>
<stop offset="1" stop-color="#DAC1FF"/>
</linearGradient>
<linearGradient id="paint34_linear_8571_62944" x1="34.4039" y1="162.136" x2="41.977" y2="189.083" gradientUnits="userSpaceOnUse">
<stop stop-color="#F2EAFF"/>
<stop offset="0.83" stop-color="#C9A5FF"/>
<stop offset="1" stop-color="#9153F0"/>
</linearGradient>
<linearGradient id="paint35_linear_8571_62944" x1="32.8942" y1="154.126" x2="32.8081" y2="127.602" gradientUnits="userSpaceOnUse">
<stop stop-color="white"/>
<stop offset="1" stop-color="#D1AAFF"/>
</linearGradient>
<clipPath id="clip0_8571_62944">
<rect width="22.874" height="22.874" fill="white" transform="translate(80.293 52.8448) rotate(-10.866)"/>
</clipPath>
</defs>
</svg>
