<svg width="24" height="24" viewBox="0 0 24 24" fill="none" xmlns="http://www.w3.org/2000/svg">
<path opacity="0.7" d="M12.2295 11.6969L2.32282 5.93359V17.0378C2.31618 17.9784 2.48653 18.2136 2.91473 18.4352L11.3573 23.4529C11.6832 23.5992 11.923 23.5917 12.0678 23.4529C12.1721 23.3529 12.2271 23.1848 12.2295 22.957V11.6969Z" fill="#ADADAD"/>
<path d="M15.5225 2.16172C15.4904 2.14282 15.4504 2.14375 15.4192 2.16411L6.12415 8.23826L8.80332 9.86431L17.8048 3.66846C17.8637 3.62789 17.8607 3.53986 17.799 3.50353L15.5225 2.16172Z" fill="#ADADAD"/>
<path d="M8.80332 9.86431L6.12415 8.23826V11.3672C6.12415 11.413 6.15601 11.4528 6.20079 11.4627L7.21889 11.689C7.2364 11.6928 7.2525 11.7015 7.26544 11.7139L8.63767 13.0312C8.69988 13.0909 8.80332 13.0469 8.80332 12.9606V9.86431Z" fill="#ADADAD"/>
<path fill-rule="evenodd" clip-rule="evenodd" d="M21.523 17.459C21.5309 18.0116 21.3848 18.1477 21.1799 18.3001L12.068 23.4523C12.1723 23.3523 12.2273 23.1841 12.2298 22.9563V11.6963L21.2586 6.30616C21.4176 6.20659 21.5105 6.10052 21.523 5.98633V17.459Z" fill="#ADADAD"/>
<g opacity="0.4">
<path fill-rule="evenodd" clip-rule="evenodd" d="M12.7379 0.479362L15.4692 2.13391L6.22214 8.22211L2.32251 5.9346L11.6996 0.479362C12.0829 0.262777 12.3106 0.243377 12.7379 0.479362Z" fill="#ADADAD"/>
<path d="M17.9303 3.5845L8.88881 9.77767L12.2292 11.698L21.2581 6.30778C21.4171 6.20821 21.51 6.10215 21.5225 5.98795V5.9346C21.5094 5.81365 21.4077 5.68369 21.2014 5.54292L17.9303 3.5845Z" fill="#ADADAD"/>
</g>
</svg>
