<svg width="32" height="32" viewBox="0 0 32 32" fill="none" xmlns="http://www.w3.org/2000/svg">
<path fill-rule="evenodd" clip-rule="evenodd" d="M8.44531 5.37165C8.44531 2.75851 10.5637 0.640137 13.1768 0.640137C15.79 0.640137 17.9083 2.75851 17.9083 5.37165V8.7383H17.1804V5.37165C17.1804 3.16053 15.3879 1.36806 13.1768 1.36806C10.9657 1.36806 9.17324 3.16053 9.17324 5.37165V8.7383H8.44531V5.37165Z" fill="#7E54F1"/>
<path opacity="0.7" fill-rule="evenodd" clip-rule="evenodd" d="M13.9647 14.3097C14.0467 13.5724 14.6697 13.0146 15.4115 13.0146H25.4566C26.2033 13.0146 26.8289 13.5796 26.9049 14.3224L28.3004 27.971C28.3882 28.8291 27.7148 29.5749 26.8522 29.5749H15.004C15.3237 29.3117 15.5139 28.8961 15.4606 28.4419L15.3689 27.6608C15.3171 27.2214 15.4972 26.7867 15.8444 26.5125L16.4616 26.0251C17.1075 25.5151 17.1075 24.5357 16.4616 24.0257L15.8444 23.5383C15.4972 23.2641 15.3171 22.8294 15.3689 22.39L15.4606 21.6089C15.5565 20.7916 14.864 20.0991 14.0468 20.1951L13.3008 20.2827L13.9647 14.3097ZM16.8176 17.6306C16.8176 19.7111 18.5352 21.3858 20.6392 21.3858C22.7432 21.3858 24.4608 19.7111 24.4608 17.6306V15.3804C24.4608 15.1794 24.2978 15.0164 24.0968 15.0164C23.8958 15.0164 23.7329 15.1794 23.7329 15.3804V17.6306C23.7329 19.2959 22.3545 20.6579 20.6392 20.6579C18.9239 20.6579 17.5455 19.2959 17.5455 17.6306V15.3804C17.5455 15.1794 17.3826 15.0164 17.1816 15.0164C16.9806 15.0164 16.8176 15.1794 16.8176 15.3804V17.6306Z" fill="#7E54F1"/>
<path d="M5.41941 9.39747C5.50098 8.65981 6.12423 8.10156 6.86637 8.10156H19.4709C20.2178 8.10156 20.8437 8.66692 20.9193 9.41013L21.2859 13.0151H15.4104C14.6686 13.0151 14.0456 13.5728 13.9635 14.3101L13.2997 20.2831L13.2647 20.2872C12.8252 20.3389 12.3905 20.1588 12.1163 19.8116L11.6288 19.1944C11.1188 18.5486 10.1395 18.5486 9.6295 19.1944L9.14202 19.8116C8.86781 20.1588 8.43311 20.3389 7.99362 20.2872L7.21256 20.1955C6.39542 20.0995 5.70286 20.792 5.79883 21.6093L5.89053 22.3904C5.94225 22.8298 5.76222 23.2645 5.41496 23.5387L4.79776 24.0261C4.15194 24.5361 4.15194 25.5155 4.79776 26.0255L5.41496 26.5129C5.76222 26.7871 5.94225 27.2218 5.89053 27.6612L5.83668 28.1195H4.97547C4.10822 28.1195 3.43325 27.3658 3.52851 26.5037L5.41941 9.39747Z" fill="#7E54F1"/>
<g opacity="0.4">
<path d="M11.6707 26.8621V26.5439C11.6707 26.4005 11.705 26.267 11.7738 26.1432C11.8426 26.0195 11.9654 25.9576 12.142 25.9576C12.3267 25.9576 12.4506 26.0195 12.5135 26.1432C12.5762 26.267 12.6077 26.4005 12.6077 26.5439V26.8621C12.6077 27.0056 12.5742 27.1381 12.5074 27.2599C12.4427 27.3817 12.3208 27.4426 12.142 27.4426C11.9634 27.4426 11.8396 27.3807 11.7708 27.257C11.7042 27.1332 11.6707 27.0016 11.6707 26.8621Z" fill="#7E54F1"/>
<path d="M8.5799 23.4089V23.0907C8.5799 22.9512 8.61331 22.8186 8.68014 22.6929C8.74678 22.5672 8.86763 22.5043 9.0425 22.5043C9.2291 22.5043 9.35386 22.5662 9.41659 22.69C9.4795 22.8137 9.51096 22.9473 9.51096 23.0907V23.4089C9.51096 23.4917 9.49976 23.5709 9.47755 23.6465C9.4612 23.7018 9.43898 23.7552 9.41073 23.8067C9.34586 23.9285 9.22324 23.9894 9.0425 23.9894C8.86958 23.9894 8.74873 23.9285 8.68014 23.8067C8.61331 23.6849 8.5799 23.5523 8.5799 23.4089Z" fill="#7E54F1"/>
<path fill-rule="evenodd" clip-rule="evenodd" d="M11.6279 19.1943C11.1179 18.5485 10.1387 18.5485 9.62861 19.1943L9.14113 19.8115C8.86692 20.1587 8.43222 20.3388 7.99273 20.2871L7.21167 20.1954C6.39453 20.0994 5.70197 20.7919 5.79794 21.6092L5.88964 22.3903C5.94136 22.8297 5.76133 23.2644 5.41407 23.5386L4.79686 24.026C4.15105 24.536 4.15105 25.5154 4.79686 26.0254L5.41407 26.5128C5.76133 26.787 5.94136 27.2218 5.88964 27.6612L5.79794 28.4422C5.70197 29.2595 6.39453 29.952 7.21167 29.856L7.99273 29.7643C8.43222 29.7127 8.86692 29.8927 9.14113 30.2399L9.62861 30.8571C10.1387 31.5029 11.1179 31.5029 11.6279 30.8571L12.1154 30.2399C12.3896 29.8927 12.8243 29.7127 13.2638 29.7643L14.0448 29.856C14.862 29.952 15.5545 29.2595 15.4586 28.4422L15.3669 27.6612C15.3152 27.2218 15.4952 26.787 15.8424 26.5128L16.4597 26.0254C17.1055 25.5154 17.1055 24.536 16.4597 24.026L15.8424 23.5386C15.4952 23.2644 15.3152 22.8297 15.3669 22.3903L15.4586 21.6092C15.5545 20.7919 14.862 20.0994 14.0448 20.1954L13.2638 20.2871C12.8243 20.3388 12.3896 20.1587 12.1154 19.8115L11.6279 19.1943ZM10.8133 26.5439V26.8621C10.8133 27.013 10.8332 27.1566 10.873 27.2928C10.897 27.3749 10.9281 27.4543 10.9665 27.531C11.0686 27.7333 11.2179 27.8954 11.4143 28.0172C11.6108 28.1409 11.8534 28.2028 12.142 28.2028C12.4269 28.2028 12.6686 28.1409 12.8669 28.0172C13.0653 27.8954 13.2156 27.7333 13.3178 27.531C13.4198 27.3267 13.471 27.1038 13.471 26.8621V26.5439C13.471 26.3003 13.4198 26.0774 13.3178 25.8751C13.2176 25.6708 13.0683 25.5078 12.87 25.386C12.6734 25.2642 12.4308 25.2033 12.142 25.2033C11.8573 25.2033 11.6156 25.2652 11.4173 25.3889C11.2209 25.5107 11.0706 25.6738 10.9665 25.878C10.8643 26.0804 10.8133 26.3023 10.8133 26.5439ZM7.71656 23.0907V23.4089C7.71656 23.6505 7.76668 23.8725 7.86691 24.0748C7.96892 24.2752 8.1182 24.4372 8.31475 24.561C8.51308 24.6828 8.75566 24.7436 9.0425 24.7436C9.32933 24.7436 9.57085 24.6837 9.76722 24.5639C9.96573 24.4421 10.1159 24.2801 10.2181 24.0777C10.3222 23.8755 10.3743 23.6525 10.3743 23.4089V23.0907C10.3743 22.8471 10.3231 22.6242 10.2211 22.4219C10.1189 22.2175 9.96964 22.0545 9.77327 21.9328C9.57671 21.811 9.33324 21.7501 9.0425 21.7501C8.76153 21.7501 8.52197 21.811 8.32346 21.9328C8.12708 22.0545 7.97691 22.2175 7.87277 22.4219C7.76863 22.6242 7.71656 22.8471 7.71656 23.0907ZM12.2542 21.9593L8.10558 27.9936H8.8774L13.026 21.9593H12.2542Z" fill="#7E54F1"/>
</g>
</svg>
