<svg width="18" height="18" viewBox="0 0 18 18" fill="none" xmlns="http://www.w3.org/2000/svg">
<path opacity="0.4" fill-rule="evenodd" clip-rule="evenodd" d="M5.18525 15.5166C5.53692 15.5166 5.82275 15.8024 5.82275 16.1541C5.82275 16.5058 5.53692 16.7908 5.18525 16.7908C4.83358 16.7908 4.54858 16.5058 4.54858 16.1541C4.54858 15.8024 4.83358 15.5166 5.18525 15.5166Z" stroke="#774BF0" stroke-width="1.5" stroke-linecap="round" stroke-linejoin="round"/>
<path opacity="0.4" fill-rule="evenodd" clip-rule="evenodd" d="M14.5622 15.5166C14.9139 15.5166 15.1997 15.8024 15.1997 16.1541C15.1997 16.5058 14.9139 16.7908 14.5622 16.7908C14.2106 16.7908 13.9247 16.5058 13.9247 16.1541C13.9247 15.8024 14.2106 15.5166 14.5622 15.5166Z" stroke="#774BF0" stroke-width="1.5" stroke-linecap="round" stroke-linejoin="round"/>
<path d="M1.29158 1.70801L3.02491 2.00801L3.82741 11.5688C3.89241 12.348 4.54325 12.9463 5.32491 12.9463H14.4182C15.1649 12.9463 15.7982 12.398 15.9057 11.658L16.6966 6.19301C16.7941 5.51884 16.2716 4.91551 15.5907 4.91551H3.30325" stroke="#774BF0" stroke-width="1.5" stroke-linecap="round" stroke-linejoin="round"/>
<path opacity="0.4" d="M10.7712 7.99577H13.082" stroke="#774BF0" stroke-width="1.5" stroke-linecap="round" stroke-linejoin="round"/>
</svg>
