<svg width="24" height="24" viewBox="0 0 24 24" fill="none" xmlns="http://www.w3.org/2000/svg">
<path opacity="0.4" d="M3.09375 9.4025H20.9177" stroke="#475467" stroke-width="1.5" stroke-linecap="round" stroke-linejoin="round"/>
<path opacity="0.4" fill-rule="evenodd" clip-rule="evenodd" d="M6.80859 13.3086C6.80859 12.8944 7.14438 12.5586 7.55859 12.5586H7.56786C7.98207 12.5586 8.31786 12.8944 8.31786 13.3086C8.31786 13.7228 7.98207 14.0586 7.56786 14.0586H7.55859C7.14438 14.0586 6.80859 13.7228 6.80859 13.3086ZM12.0053 12.5586C11.5911 12.5586 11.2553 12.8944 11.2553 13.3086C11.2553 13.7228 11.5911 14.0586 12.0053 14.0586H12.0146C12.4288 14.0586 12.7646 13.7228 12.7646 13.3086C12.7646 12.8944 12.4288 12.5586 12.0146 12.5586H12.0053ZM16.4428 12.5586C16.0286 12.5586 15.6928 12.8944 15.6928 13.3086C15.6928 13.7228 16.0286 14.0586 16.4428 14.0586H16.452C16.8663 14.0586 17.202 13.7228 17.202 13.3086C17.202 12.8944 16.8663 12.5586 16.452 12.5586H16.4428ZM16.4428 16.4451C16.0286 16.4451 15.6928 16.7809 15.6928 17.1951C15.6928 17.6093 16.0286 17.9451 16.4428 17.9451H16.452C16.8663 17.9451 17.202 17.6093 17.202 17.1951C17.202 16.7809 16.8663 16.4451 16.452 16.4451H16.4428ZM11.2553 17.1951C11.2553 16.7809 11.5911 16.4451 12.0053 16.4451H12.0146C12.4288 16.4451 12.7646 16.7809 12.7646 17.1951C12.7646 17.6093 12.4288 17.9451 12.0146 17.9451H12.0053C11.5911 17.9451 11.2553 17.6093 11.2553 17.1951ZM7.55859 16.4451C7.14438 16.4451 6.80859 16.7809 6.80859 17.1951C6.80859 17.6093 7.14438 17.9451 7.55859 17.9451H7.56786C7.98207 17.9451 8.31786 17.6093 8.31786 17.1951C8.31786 16.7809 7.98207 16.4451 7.56786 16.4451H7.55859Z" fill="#475467"/>
<path d="M16.0452 2V5.29078" stroke="#475467" stroke-width="1.5" stroke-linecap="round" stroke-linejoin="round"/>
<path d="M7.96711 2V5.29078" stroke="#475467" stroke-width="1.5" stroke-linecap="round" stroke-linejoin="round"/>
<path fill-rule="evenodd" clip-rule="evenodd" d="M16.2383 3.57812H7.77096C4.83427 3.57812 3 5.21406 3 8.22115V17.2708C3 20.3252 4.83427 21.9989 7.77096 21.9989H16.229C19.175 21.9989 21 20.3535 21 17.3464V8.22115C21.0092 5.21406 19.1842 3.57812 16.2383 3.57812Z" stroke="#475467" stroke-width="1.5" stroke-linecap="round" stroke-linejoin="round"/>
</svg>
