<svg width="15" height="15" viewBox="0 0 15 15" fill="none" xmlns="http://www.w3.org/2000/svg">
<path opacity="0.4" d="M7.5125 1.25C3.88125 1.25 1.25 4.2125 1.25 7.5C1.25 8.55 1.55625 9.63125 2.09375 10.6187C2.19375 10.7812 2.20625 10.9875 2.1375 11.1813L1.71875 12.5812C1.625 12.9187 1.9125 13.1687 2.23125 13.0688L3.49375 12.6937C3.8375 12.5812 4.10625 12.725 4.42562 12.9187C5.33812 13.4563 6.475 13.7312 7.5 13.7312C10.6 13.7312 13.75 11.3375 13.75 7.48125C13.75 4.15625 11.0625 1.25 7.5125 1.25Z" fill="#7E54F1"/>
<path fill-rule="evenodd" clip-rule="evenodd" d="M7.48814 8.30711C7.04439 8.30086 6.68814 7.94461 6.68814 7.50086C6.68814 7.06336 7.05064 6.70086 7.48814 6.70711C7.93189 6.70711 8.28814 7.06336 8.28814 7.50711C8.28814 7.94461 7.93189 8.30711 7.48814 8.30711ZM4.60664 8.30716C4.16914 8.30716 3.80664 7.94466 3.80664 7.50716C3.80664 7.06341 4.16289 6.70716 4.60664 6.70716C5.05039 6.70716 5.40664 7.06341 5.40664 7.50716C5.40664 7.94466 5.05039 8.30091 4.60664 8.30716ZM9.56927 7.50711C9.56927 7.94461 9.92552 8.30711 10.3693 8.30711C10.813 8.30711 11.1693 7.94461 11.1693 7.50711C11.1693 7.06336 10.813 6.70711 10.3693 6.70711C9.92552 6.70711 9.56927 7.06336 9.56927 7.50711Z" fill="#7E54F1"/>
</svg>
