<svg width="58" height="58" viewBox="0 0 58 58" fill="none" xmlns="http://www.w3.org/2000/svg">
<g filter="url(#filter0_d_19355_32380)">
<rect x="4" y="2" width="50" height="50" rx="25" fill="#7E54F1"/>
<path d="M31.4382 34.9856L27.377 39.0456C24.7715 41.65 20.5562 41.65 17.9519 39.0456C16.6919 37.7879 16 36.1139 16 34.3342C16 32.5545 16.6919 30.8805 17.9507 29.6216L23.4249 24.1485C26.0743 21.4992 30.3031 21.6038 32.849 24.1485C33.3586 24.6582 33.7602 25.2431 34.0741 25.8664L32.282 27.6574C32.0795 26.9678 31.7195 26.3198 31.1975 25.7989C29.5685 24.1699 26.7763 24.1002 25.0787 25.7978L25.0775 25.8L19.6022 31.2731C17.9147 32.9594 17.9147 35.7067 19.6022 37.393C21.3088 39.0996 24.0549 39.067 25.7244 37.393L28.4525 34.6661C29.5696 34.9856 30.4674 35.0429 31.4382 34.9856ZM31.6194 15.953L27.5986 19.9759C28.5515 19.9197 29.4605 19.9759 30.5832 20.2943L33.2753 17.6067C34.9606 15.917 37.7078 15.9192 39.3953 17.6056C41.1019 19.3133 41.067 22.0594 39.3953 23.7278L33.9605 29.1626L33.9571 29.1649C32.3393 30.7815 29.5854 30.9108 27.8383 29.1626C27.3061 28.6294 26.9551 27.9904 26.7628 27.3143L26.6683 27.3908L24.9617 29.0951C25.2767 29.7206 25.676 30.3045 26.1857 30.8141C28.7113 33.3397 32.9401 33.4848 35.6108 30.8141L41.0468 25.3793C43.65 22.7738 43.6522 18.5596 41.0456 15.9552C38.439 13.3441 34.2203 13.3531 31.6194 15.953Z" fill="white"/>
</g>
<defs>
<filter id="filter0_d_19355_32380" x="0" y="0" width="58" height="58" filterUnits="userSpaceOnUse" color-interpolation-filters="sRGB">
<feFlood flood-opacity="0" result="BackgroundImageFix"/>
<feColorMatrix in="SourceAlpha" type="matrix" values="0 0 0 0 0 0 0 0 0 0 0 0 0 0 0 0 0 0 127 0" result="hardAlpha"/>
<feOffset dy="2"/>
<feGaussianBlur stdDeviation="2"/>
<feComposite in2="hardAlpha" operator="out"/>
<feColorMatrix type="matrix" values="0 0 0 0 0 0 0 0 0 0 0 0 0 0 0 0 0 0 0.25 0"/>
<feBlend mode="normal" in2="BackgroundImageFix" result="effect1_dropShadow_19355_32380"/>
<feBlend mode="normal" in="SourceGraphic" in2="effect1_dropShadow_19355_32380" result="shape"/>
</filter>
</defs>
</svg>
