<svg width="16" height="16" viewBox="0 0 16 16" fill="none" xmlns="http://www.w3.org/2000/svg">
<path opacity="0.4" d="M3.14932 14.112C3.14065 14.112 3.13265 14.112 3.12332 14.1113C2.91332 14.1007 2.70732 14.0553 2.51132 13.976C1.54665 13.584 1.08132 12.482 1.47265 11.518L6.35332 2.96732C6.52132 2.66332 6.77599 2.40865 7.08665 2.23665C7.99665 1.73265 9.14732 2.06399 9.65065 2.97332L14.4993 11.4587C14.6073 11.7127 14.6533 11.9193 14.6647 12.13C14.6907 12.634 14.5187 13.1173 14.1813 13.4913C13.844 13.8653 13.3807 14.086 12.8773 14.1113L3.19732 14.112H3.14932Z" fill="#DC2626"/>
<path fill-rule="evenodd" clip-rule="evenodd" d="M7.41797 6.68099C7.41797 6.35966 7.67997 6.09766 8.0013 6.09766C8.32264 6.09766 8.58464 6.35966 8.58464 6.68099V8.56632C8.58464 8.88832 8.32264 9.14966 8.0013 9.14966C7.67997 9.14966 7.41797 8.88832 7.41797 8.56632V6.68099ZM7.41797 10.8471C7.41797 10.5237 7.67997 10.2604 8.0013 10.2604C8.32264 10.2604 8.58464 10.5204 8.58464 10.8397C8.58464 11.1684 8.32264 11.4304 8.0013 11.4304C7.67997 11.4304 7.41797 11.1684 7.41797 10.8471Z" fill="#DC2626"/>
</svg>
