<svg width="21" height="21" viewBox="0 0 21 21" fill="none" xmlns="http://www.w3.org/2000/svg">
<path opacity="0.5" d="M10.2323 0.402218C10.5635 -0.0455313 11.2333 -0.0455307 11.5646 0.402218L12.5845 1.78086C12.8139 2.09108 13.2272 2.20182 13.5811 2.0479L15.1536 1.36391C15.6644 1.14176 16.2444 1.47666 16.3074 2.03004L16.5013 3.73392C16.545 4.11733 16.8475 4.41986 17.2309 4.4635L18.9348 4.65742C19.4882 4.7204 19.8231 5.30047 19.6009 5.8112L18.9169 7.38376C18.763 7.73763 18.8738 8.1509 19.184 8.38039L20.5626 9.40027C21.0104 9.7315 21.0104 10.4013 20.5626 10.7325L19.184 11.7524C18.8738 11.9819 18.763 12.3952 18.9169 12.7491L19.6009 14.3216C19.8231 14.8323 19.4882 15.4124 18.9348 15.4754L17.2309 15.6693C16.8475 15.7129 16.545 16.0155 16.5013 16.3989L16.3074 18.1028C16.2444 18.6562 15.6644 18.9911 15.1536 18.7689L13.5811 18.0849C13.2272 17.931 12.8139 18.0417 12.5845 18.352L11.5646 19.7306C11.2333 20.1783 10.5635 20.1783 10.2323 19.7306L9.21243 18.352C8.98293 18.0417 8.56966 17.931 8.21579 18.0849L6.64323 18.7689C6.1325 18.9911 5.55243 18.6562 5.48945 18.1028L5.29553 16.3989C5.2519 16.0155 4.94936 15.7129 4.56595 15.6693L2.86207 15.4754C2.30869 15.4124 1.97379 14.8323 2.19594 14.3216L2.87993 12.7491C3.03385 12.3952 2.92311 11.9819 2.61289 11.7524L1.23425 10.7325C0.7865 10.4013 0.786501 9.7315 1.23425 9.40027L2.61289 8.38039C2.92312 8.1509 3.03385 7.73763 2.87993 7.38376L2.19594 5.8112C1.97379 5.30047 2.3087 4.7204 2.86207 4.65742L4.56595 4.4635C4.94936 4.41986 5.2519 4.11733 5.29553 3.73392L5.48945 2.03004C5.55243 1.47666 6.1325 1.14176 6.64323 1.36391L8.21579 2.0479C8.56966 2.20182 8.98293 2.09108 9.21243 1.78086L10.2323 0.402218Z" fill="#7E54F1"/>
<path d="M14.1896 5.37395C14.5801 4.98342 15.2133 4.98342 15.6038 5.37395C15.9943 5.76447 15.9943 6.39764 15.6038 6.78816L7.58992 14.802C7.19939 15.1926 6.56623 15.1926 6.17571 14.802C5.78518 14.4115 5.78518 13.7783 6.17571 13.3878L14.1896 5.37395Z" fill="#7E54F1"/>
<path d="M11.8967 13.4002C11.8967 12.6638 12.4936 12.0668 13.23 12.0668C13.9664 12.0668 14.5634 12.6638 14.5634 13.4002C14.5634 14.1366 13.9664 14.7335 13.23 14.7335C12.4936 14.7335 11.8967 14.1366 11.8967 13.4002Z" fill="#7E54F1"/>
<path d="M8.56336 5.40017C7.82698 5.40017 7.23002 5.99713 7.23002 6.73351C7.23002 7.46989 7.82698 8.06684 8.56336 8.06684C9.29974 8.06684 9.89669 7.46989 9.89669 6.73351C9.89669 5.99713 9.29974 5.40017 8.56336 5.40017Z" fill="#7E54F1"/>
</svg>
