<svg width="16" height="16" viewBox="0 0 16 16" fill="none" xmlns="http://www.w3.org/2000/svg">
<path opacity="0.4" d="M7.9982 14.6654C7.48554 14.6654 6.97354 14.4708 6.5822 14.0821L6.09554 13.5954C5.90687 13.4074 5.6542 13.3034 5.3862 13.3028H4.70154C3.59487 13.3028 2.6942 12.4021 2.6942 11.2954V10.6101C2.69354 10.3428 2.58954 10.0901 2.40087 9.9001L1.9222 9.4221C1.1382 8.64277 1.13487 7.36877 1.91487 6.5841L2.40154 6.09677C2.58954 5.9081 2.69354 5.65543 2.6942 5.38743V4.70343C2.6942 3.5961 3.59487 2.69543 4.70154 2.69543H5.38687C5.6542 2.69543 5.9062 2.59143 6.0962 2.40143L6.57554 1.92343C7.35487 1.13943 8.6282 1.13543 9.41354 1.9161L9.90021 2.40277C10.0895 2.59143 10.3415 2.69543 10.6089 2.69543H11.2942C12.4009 2.69543 13.3015 3.5961 13.3015 4.70343V5.3881C13.3022 5.65543 13.4062 5.9081 13.5949 6.0981L14.0735 6.57677C14.4529 6.9541 14.6629 7.45677 14.6649 7.99343C14.6662 8.52677 14.4609 9.02877 14.0869 9.4081C14.0802 9.41477 14.0742 9.4221 14.0675 9.4281L13.5942 9.90143C13.4062 10.0901 13.3022 10.3428 13.3015 10.6108V11.2954C13.3015 12.4021 12.4009 13.3028 11.2942 13.3028H10.6089C10.3415 13.3034 10.0889 13.4074 9.89954 13.5961L9.42021 14.0748C9.02954 14.4681 8.51354 14.6654 7.9982 14.6654Z" fill="white"/>
<path fill-rule="evenodd" clip-rule="evenodd" d="M6.69712 6.70055C6.58712 6.81055 6.44446 6.86989 6.28646 6.86989C6.13846 6.86989 5.99312 6.80922 5.87646 6.69989C5.76579 6.58989 5.70312 6.43922 5.70312 6.28655C5.70312 6.14122 5.76446 5.99189 5.87246 5.87655C5.93179 5.81655 6.00246 5.77122 6.07312 5.74722C6.27446 5.65522 6.54179 5.70922 6.70046 5.87589C6.75712 5.93255 6.80046 5.99455 6.82912 6.05922C6.86046 6.12855 6.87646 6.20722 6.87646 6.28655C6.87646 6.44522 6.81312 6.59255 6.69712 6.70055ZM10.1289 5.87315C9.90159 5.64649 9.53159 5.64649 9.30426 5.87315L5.87759 9.29982C5.65026 9.52715 5.65026 9.89715 5.87759 10.1252C5.98826 10.2352 6.13426 10.2958 6.29026 10.2958C6.44626 10.2958 6.59226 10.2352 6.70226 10.1252L10.1289 6.69849C10.3563 6.47049 10.3563 6.10115 10.1289 5.87315ZM9.93912 9.17589C9.72312 9.08522 9.46712 9.13455 9.29646 9.30522C9.26112 9.34655 9.21112 9.41055 9.17712 9.48589C9.14112 9.56722 9.13646 9.65455 9.13646 9.71322C9.13646 9.77189 9.14112 9.85855 9.17712 9.93989C9.21046 10.0146 9.25046 10.0752 9.30312 10.1279C9.42379 10.2399 9.56379 10.2966 9.71979 10.2966C9.86779 10.2966 10.0131 10.2366 10.1325 10.1252C10.2385 10.0192 10.2965 9.87255 10.2965 9.71322C10.2965 9.55322 10.2385 9.40722 10.1318 9.30055C10.0731 9.24255 10.0025 9.19722 9.93912 9.17589Z" fill="white"/>
</svg>
