<svg width="20" height="20" viewBox="0 0 20 20" fill="none" xmlns="http://www.w3.org/2000/svg">
<path d="M7.63166 17.3108V14.7552C7.63165 14.1052 8.16158 13.577 8.81816 13.5726H11.2232C11.8829 13.5726 12.4177 14.1021 12.4177 14.7552V14.7552V17.3187C12.4176 17.8706 12.8625 18.3217 13.4198 18.3346H15.0232C16.6216 18.3346 17.9173 17.0519 17.9173 15.4695V15.4695V8.1995C17.9088 7.57699 17.6135 6.99243 17.1156 6.61216L11.6321 2.23905C10.6714 1.47761 9.30582 1.47761 8.34517 2.23905L2.88567 6.6201C2.38587 6.99882 2.09014 7.58436 2.08398 8.20744V15.4695C2.08398 17.0519 3.37971 18.3346 4.97808 18.3346H6.58145C7.15261 18.3346 7.61563 17.8763 7.61563 17.3108V17.3108" stroke="#130F26" stroke-width="1.5" stroke-linecap="round" stroke-linejoin="round"/>
</svg>
