<svg width="20" height="21" viewBox="0 0 20 21" fill="none" xmlns="http://www.w3.org/2000/svg">
<path opacity="0.4" d="M18.3327 13.7846C18.3327 16.1096 16.466 17.993 14.141 18.0013H14.1327H5.87435C3.55768 18.0013 1.66602 16.1263 1.66602 13.8013V13.793C1.66602 13.793 1.67102 10.1046 1.67768 8.24964C1.67852 7.9013 2.07852 7.7063 2.35102 7.92297C4.33102 9.4938 7.87185 12.358 7.91602 12.3955C8.50768 12.8696 9.25768 13.1371 10.0243 13.1371C10.791 13.1371 11.541 12.8696 12.1327 12.3863C12.1768 12.3571 15.6385 9.5788 17.6485 7.98214C17.9219 7.76464 18.3235 7.95964 18.3243 8.30714C18.3327 10.148 18.3327 13.7846 18.3327 13.7846Z" fill="white"/>
<path d="M17.8967 5.22833C17.1751 3.86833 15.7551 3 14.1917 3H5.87507C4.31173 3 2.89173 3.86833 2.17007 5.22833C2.0084 5.5325 2.08507 5.91167 2.35423 6.12667L8.54173 11.0758C8.97507 11.4258 9.50007 11.6 10.0251 11.6C10.0284 11.6 10.0309 11.6 10.0334 11.6C10.0359 11.6 10.0392 11.6 10.0417 11.6C10.5667 11.6 11.0917 11.4258 11.5251 11.0758L17.7126 6.12667C17.9817 5.91167 18.0584 5.5325 17.8967 5.22833Z" fill="white"/>
</svg>
