<svg width="30" height="30" viewBox="0 0 30 30" fill="none" xmlns="http://www.w3.org/2000/svg">
<g clip-path="url(#clip0_19086_2971)">
<path fill-rule="evenodd" clip-rule="evenodd" d="M16.7537 30H0V2.5H3.75C5.28875 2.5 6.47625 1.145 7.5 0H17.5C18.5263 1.145 19.715 2.5 21.25 2.5H25V13.9375C24.3937 13.815 23.7663 13.75 23.125 13.75L22.5 13.77V5H17.5L15 7.5H10.1287L7.5 5H2.5V27.5H14.8325C15.3288 28.4387 15.9812 29.2838 16.7537 30ZM23.125 16.25C26.9188 16.25 30 19.33 30 23.125C30 26.92 26.9188 30 23.125 30C19.33 30 16.25 26.92 16.25 23.125C16.25 19.33 19.33 16.25 23.125 16.25ZM23.125 18.75C25.5387 18.75 27.5 20.71 27.5 23.125C27.5 25.54 25.5387 27.5 23.125 27.5C20.71 27.5 18.75 25.54 18.75 23.125C18.75 20.71 20.71 18.75 23.125 18.75ZM26.25 23.75H22.5V20H23.75V22.5H26.25V23.75ZM7.31125 18.685L6 17.455L5 18.4837L7.33 20.7038L11.25 16.7138L10.2313 15.7037L7.31125 18.685ZM15 20H12.5V18.75H15V20ZM17.5 17.5H12.5V16.25H17.5V17.5ZM7.31125 12.4688L6 11.24L5 12.2687L7.33 14.4887L11.25 10.4988L10.2313 9.48875L7.31125 12.4688ZM17.5 13.75H12.5V12.5H17.5V13.75ZM17.5 11.25H12.5V10H17.5V11.25ZM11.25 3.75C11.25 4.44 11.8112 5 12.5 5C13.1912 5 13.75 4.44 13.75 3.75C13.75 3.06 13.1912 2.5 12.5 2.5C11.8112 2.5 11.25 3.06 11.25 3.75Z" fill="#7E54F1"/>
</g>
<defs>
<clipPath id="clip0_19086_2971">
<rect width="30" height="30" fill="white"/>
</clipPath>
</defs>
</svg>
