<svg width="30" height="30" viewBox="0 0 30 30" fill="none" xmlns="http://www.w3.org/2000/svg">
<g clip-path="url(#clip0_19086_2974)">
<path d="M12.5 3.7525C18.0138 3.7525 22.5 7.31375 22.5 11.69C22.5 15.4838 18.7137 19.5788 12.5938 19.5788C10.6187 19.5788 9.19625 19.1825 7.94625 18.8775C6.73875 19.6187 6.37625 19.8938 4.18875 20.5938C4.7075 18.6963 4.64125 17.8663 4.6025 16.6138C3.55625 15.3625 2.5 14.0275 2.5 11.69C2.5 7.31375 6.98625 3.7525 12.5 3.7525ZM12.5 1.25C5.89875 1.25 0 5.6575 0 11.69C0 13.8288 0.76875 15.9288 2.13125 17.5588C2.19 19.4675 1.0675 22.2062 0.055 24.1987C2.765 23.71 6.62 22.6262 8.36625 21.555C9.8425 21.9163 11.2562 22.0813 12.5938 22.0813C19.9725 22.0813 25 17.0338 25 11.69C25 5.625 19.0613 1.25 12.5 1.25ZM26.9188 15.2175C26.7175 15.8275 26.4675 16.4187 26.1675 16.9875C28.2638 18.565 28.9888 21.02 26.7475 23.6938C26.7213 24.625 26.6862 25.005 26.92 26.025C25.805 25.6412 25.6963 25.535 24.8388 25.0088C22.18 25.6575 19.5075 25.8787 17.2275 23.94C16.525 24.1388 15.7962 24.2875 15.0525 24.395C16.9438 26.7413 20.425 28.0162 24.5238 27.02C25.6663 27.7212 28.19 28.4287 29.9638 28.7512C29.3013 27.445 28.5675 25.6525 28.6037 24.4025C30.7975 21.78 30.5325 17.6075 26.9188 15.2175ZM8.125 10.5138C7.38625 10.5138 6.78625 11.1125 6.78625 11.8525C6.78625 12.5925 7.38625 13.1913 8.125 13.1913C8.86375 13.1913 9.46375 12.5925 9.46375 11.8525C9.46375 11.1125 8.86375 10.5138 8.125 10.5138ZM12.5 10.5138C11.7612 10.5138 11.1613 11.1125 11.1613 11.8525C11.1613 12.5925 11.7612 13.1913 12.5 13.1913C13.2388 13.1913 13.8387 12.5925 13.8387 11.8525C13.8387 11.1125 13.2388 10.5138 12.5 10.5138ZM16.875 10.5138C16.1362 10.5138 15.5363 11.1125 15.5363 11.8525C15.5363 12.5925 16.1362 13.1913 16.875 13.1913C17.6138 13.1913 18.2138 12.5925 18.2138 11.8525C18.2138 11.1125 17.6138 10.5138 16.875 10.5138Z" fill="#7E54F1"/>
</g>
<defs>
<clipPath id="clip0_19086_2974">
<rect width="30" height="30" fill="white"/>
</clipPath>
</defs>
</svg>
