<svg width="14" height="14" viewBox="0 0 14 14" fill="none" xmlns="http://www.w3.org/2000/svg">
<path opacity="0.4" d="M12.8332 7.00033C12.8332 10.2227 10.2216 12.8337 6.99984 12.8337C3.77809 12.8337 1.1665 10.2227 1.1665 7.00033C1.1665 3.77916 3.77809 1.16699 6.99984 1.16699C10.2216 1.16699 12.8332 3.77916 12.8332 7.00033Z" fill="#475467"/>
<path fill-rule="evenodd" clip-rule="evenodd" d="M7.50741 7.36805C7.50741 7.64921 7.27816 7.87846 6.99699 7.87846C6.71582 7.87846 6.48657 7.64921 6.48657 7.36805V4.78971C6.48657 4.50855 6.71582 4.2793 6.99699 4.2793C7.27816 4.2793 7.50741 4.50855 7.50741 4.78971V7.36805ZM6.48949 9.21885C6.48949 8.93768 6.71757 8.70843 6.99699 8.70843C7.28457 8.70843 7.51324 8.93768 7.51324 9.21885C7.51324 9.50001 7.28457 9.72926 7.00282 9.72926C6.71991 9.72926 6.48949 9.50001 6.48949 9.21885Z" fill="#475467"/>
</svg>
