<svg width="25" height="24" viewBox="0 0 25 24" fill="none" xmlns="http://www.w3.org/2000/svg">
<path opacity="0.5" d="M11.2323 2.40222C11.5635 1.95447 12.2333 1.95447 12.5646 2.40222L13.5845 3.78086C13.8139 4.09108 14.2272 4.20182 14.5811 4.0479L16.1536 3.36391C16.6644 3.14176 17.2444 3.47666 17.3074 4.03004L17.5013 5.73392C17.545 6.11733 17.8475 6.41986 18.2309 6.4635L19.9348 6.65742C20.4882 6.7204 20.8231 7.30047 20.6009 7.8112L19.9169 9.38376C19.763 9.73763 19.8738 10.1509 20.184 10.3804L21.5626 11.4003C22.0104 11.7315 22.0104 12.4013 21.5626 12.7325L20.184 13.7524C19.8738 13.9819 19.763 14.3952 19.9169 14.7491L20.6009 16.3216C20.8231 16.8323 20.4882 17.4124 19.9348 17.4754L18.2309 17.6693C17.8475 17.7129 17.545 18.0155 17.5013 18.3989L17.3074 20.1028C17.2444 20.6562 16.6644 20.9911 16.1536 20.7689L14.5811 20.0849C14.2272 19.931 13.8139 20.0417 13.5845 20.352L12.5646 21.7306C12.2333 22.1783 11.5635 22.1783 11.2323 21.7306L10.2124 20.352C9.98293 20.0417 9.56966 19.931 9.21579 20.0849L7.64323 20.7689C7.1325 20.9911 6.55243 20.6562 6.48945 20.1028L6.29553 18.3989C6.2519 18.0155 5.94936 17.7129 5.56595 17.6693L3.86207 17.4754C3.30869 17.4124 2.97379 16.8323 3.19594 16.3216L3.87993 14.7491C4.03385 14.3952 3.92311 13.9819 3.61289 13.7524L2.23425 12.7325C1.7865 12.4013 1.7865 11.7315 2.23425 11.4003L3.61289 10.3804C3.92312 10.1509 4.03385 9.73763 3.87993 9.38376L3.19594 7.8112C2.97379 7.30047 3.3087 6.7204 3.86207 6.65742L5.56595 6.4635C5.94936 6.41986 6.2519 6.11733 6.29553 5.73392L6.48945 4.03004C6.55243 3.47666 7.1325 3.14176 7.64323 3.36391L9.21579 4.0479C9.56966 4.20182 9.98293 4.09108 10.2124 3.78086L11.2323 2.40222Z" fill="#7E54F1"/>
<path d="M15.1896 7.37395C15.5801 6.98342 16.2133 6.98342 16.6038 7.37395C16.9943 7.76447 16.9943 8.39764 16.6038 8.78816L8.58992 16.802C8.19939 17.1926 7.56623 17.1926 7.17571 16.802C6.78518 16.4115 6.78518 15.7783 7.17571 15.3878L15.1896 7.37395Z" fill="#7E54F1"/>
<path d="M12.8967 15.4002C12.8967 14.6638 13.4936 14.0668 14.23 14.0668C14.9664 14.0668 15.5634 14.6638 15.5634 15.4002C15.5634 16.1366 14.9664 16.7335 14.23 16.7335C13.4936 16.7335 12.8967 16.1366 12.8967 15.4002Z" fill="#7E54F1"/>
<path d="M9.56336 7.40017C8.82698 7.40017 8.23002 7.99713 8.23002 8.73351C8.23002 9.46989 8.82698 10.0668 9.56336 10.0668C10.2997 10.0668 10.8967 9.46989 10.8967 8.73351C10.8967 7.99713 10.2997 7.40017 9.56336 7.40017Z" fill="#7E54F1"/>
</svg>
