<svg width="70" height="70" viewBox="0 0 70 70" fill="none" xmlns="http://www.w3.org/2000/svg">
<circle cx="36.578" cy="34.9979" r="31.1815" fill="#CD7B0C"/>
<circle cx="33.4218" cy="34.9979" r="31.1815" fill="#F8DC61"/>
<circle cx="33.3943" cy="35.0271" r="26.6677" fill="#CD7B0C"/>
<ellipse cx="35.3057" cy="35.0271" rx="24.7569" ry="26.6677" fill="#F5C039"/>
<ellipse cx="35.3057" cy="35.0271" rx="24.7569" ry="26.6677" fill="url(#paint0_linear_15568_116809)"/>
<path fill-rule="evenodd" clip-rule="evenodd" d="M19.563 44.9086C19.6592 44.9086 19.7513 44.8715 19.8229 44.7995C19.9354 44.684 19.9702 44.5095 19.9109 44.3569C18.8837 41.7206 18.7814 38.8663 19.608 35.8725C19.651 35.7155 19.5999 35.5476 19.4812 35.4451C19.3605 35.3448 19.1947 35.3317 19.0617 35.4102C17.4289 36.398 16.4611 38.2536 16.5327 40.2531C16.6044 42.2527 17.7052 44.0211 19.4034 44.8715C19.4546 44.8977 19.5098 44.9086 19.563 44.9086ZM18.6239 36.7403C18.1348 39.1105 18.2085 41.3936 18.8407 43.5566C17.9077 42.7477 17.3307 41.544 17.2837 40.2226C17.2346 38.886 17.7338 37.6256 18.6239 36.7403Z" fill="white"/>
<path fill-rule="evenodd" clip-rule="evenodd" d="M35.4727 53.7752C38.5612 53.7752 41.4924 52.9916 43.9851 51.4995C48.6437 48.7086 51.3164 43.6934 51.3164 37.7401C51.3164 33.2918 49.6201 29.0967 46.5399 25.9258C43.4762 22.772 39.4445 21.0352 35.1872 21.0352C26.412 21.0352 19.4655 27.6476 19.0042 36.4262L18.8842 36.7547C18.8815 36.7604 18.8794 36.7661 18.878 36.7719C18.8428 36.8814 18.8139 36.9715 18.787 37.0531C18.5739 37.7036 18.5739 37.7616 18.5781 39.2451C18.5781 39.4877 18.5781 39.7711 18.5781 40.1038C18.5781 42.8991 20.5784 48.0065 24.333 50.3359L24.7405 50.6451C24.7516 50.6537 24.7633 50.6615 24.7757 50.6687C27.978 52.5902 31.4843 53.6615 34.91 53.7667C35.0976 53.771 35.2851 53.7738 35.4727 53.7752ZM35.1872 21.8231C43.6624 21.8231 50.5572 28.9636 50.5572 37.7401C50.5572 43.4058 48.0231 48.1719 43.6066 50.8168C38.3439 53.9685 31.2816 53.655 25.1729 49.9967L24.7654 49.6897C24.7571 49.6826 24.7474 49.6761 24.7364 49.6704C21.2611 47.5214 19.3373 42.6501 19.3373 40.1038C19.3373 39.7711 19.3373 39.4855 19.3373 39.2429C19.3331 37.8324 19.3331 37.8324 19.5048 37.3064C19.5317 37.2249 19.5627 37.1347 19.5958 37.0273L19.7344 36.6473C19.7489 36.6087 19.7572 36.5679 19.7593 36.5271C20.1688 28.1457 26.803 21.8231 35.1872 21.8231Z" fill="white"/>
<path fill-rule="evenodd" clip-rule="evenodd" d="M33.5824 52.4105C41.8575 52.4105 48.5879 46.9014 48.5879 40.133C48.5879 33.3625 41.8575 27.8555 33.5824 27.8555C25.3093 27.8555 18.5769 33.3625 18.5769 40.133C18.5769 46.9014 25.3093 52.4105 33.5824 52.4105ZM33.5824 28.481C41.5085 28.481 47.9559 33.7071 47.9559 40.133C47.9559 46.5569 41.5085 51.7829 33.5824 51.7829C25.6563 51.7829 19.2088 46.5569 19.2088 40.133C19.2088 33.7071 25.6563 28.481 33.5824 28.481Z" fill="white"/>
<path fill-rule="evenodd" clip-rule="evenodd" d="M33.5832 51.047C41.1058 51.047 47.2246 46.3051 47.2246 40.4757C47.2246 34.6462 41.1058 29.9023 33.5832 29.9023C26.0606 29.9023 19.9419 34.6462 19.9419 40.4757C19.9419 46.3051 26.0606 51.047 33.5832 51.047ZM33.5832 30.6583C40.6747 30.6583 46.4452 35.0623 46.4452 40.4757C46.4452 45.887 40.6747 50.291 33.5832 50.291C26.4918 50.291 20.7213 45.887 20.7213 40.4757C20.7213 35.0623 26.4918 30.6583 33.5832 30.6583Z" fill="white"/>
<path fill-rule="evenodd" clip-rule="evenodd" d="M33.2876 51.047C34.2083 51.047 35.129 50.9744 36.0245 50.8273C36.0357 50.8259 36.0469 50.8232 36.0581 50.819C42.3875 49.0989 46.5589 45.1427 45.762 41.6155C45.546 40.6643 44.9902 39.8229 44.1094 39.1183C44.2499 37.9039 44.1849 36.6832 43.9143 35.4874C43.7528 34.7725 43.518 34.0741 43.218 33.4088C43.1971 33.3653 43.1698 33.328 43.1342 33.299C40.6049 31.1396 37.0165 29.9023 33.2876 29.9023C29.9404 29.9023 26.7379 30.8784 24.2653 32.6524C21.7926 34.4285 20.2554 36.849 19.9429 39.4664C19.9401 39.4913 19.9401 39.5155 19.9429 39.539C19.9869 39.941 20.054 40.3451 20.1442 40.7389C20.4147 41.9347 20.8803 43.0662 21.5326 44.1065C21.4046 44.3656 21.2437 44.51 21.164 44.7691C21.1367 44.8561 21.3357 45.1156 21.3839 45.1944C22.5425 46.8956 24.0677 48.2448 26.1234 49.4139C28.2647 50.4833 30.7416 51.047 33.2876 51.047ZM35.9029 50.2056C35.0472 50.3444 34.1663 50.4149 33.2876 50.4149C28.4199 50.4149 24.0639 48.3176 21.8786 44.9355C21.9583 44.7013 22.0611 44.4671 22.1848 44.2329C22.2372 44.1335 22.2309 44.0112 22.168 43.9159C21.5074 42.8983 21.0376 41.7834 20.7692 40.6C20.6874 40.2415 20.6266 39.8726 20.5825 39.5058C21.2201 34.3891 26.6729 30.5365 33.2876 30.5365C36.8382 30.5365 40.2484 31.6991 42.6602 33.7321C42.9307 34.3393 43.1425 34.9756 43.2894 35.6263C43.5557 36.8076 43.6123 38.0158 43.4508 39.2157C43.4362 39.3276 43.4844 39.4395 43.5746 39.5079C44.4177 40.1441 44.942 40.8985 45.1349 41.7544C45.8438 44.8899 41.7898 48.5995 35.9029 50.2056Z" fill="white"/>
<path fill-rule="evenodd" clip-rule="evenodd" d="M33.336 51.0446C34.2537 51.0446 35.1734 50.9686 36.0659 50.8208C36.0743 50.8194 36.0834 50.8173 36.0932 50.8144C42.3972 49.0705 46.5529 45.0715 45.7634 41.5139C45.5387 40.5067 44.9423 39.6221 43.9868 38.8894C43.9728 38.8782 43.9574 38.869 43.9406 38.862C42.9957 38.4186 41.9772 38.3468 40.9062 38.6424C41.4081 37.5213 41.5362 36.2692 41.2674 35.0552C40.5828 31.9768 37.5359 30.0322 34.4742 30.7205C33.0651 31.0372 31.8535 31.8586 31.0387 33.0473C29.7724 32.2661 28.2899 32.019 26.8326 32.3463C24.7515 32.8129 23.0464 34.6815 22.5907 36.9913C22.198 38.9844 22.8175 40.8741 24.2601 42.1726C23.2102 42.3289 22.2715 42.9475 21.7129 43.8849C21.7101 43.8892 21.7073 43.8941 21.7045 43.8997C21.5429 44.2143 21.4106 44.5331 21.3161 44.8498C21.2951 44.9195 21.3035 44.9976 21.3434 45.061C22.4311 46.8324 24.1069 48.3294 26.1921 49.3872C28.3256 50.4703 30.7972 51.0446 33.336 51.0446ZM35.9693 50.3119C35.1083 50.4555 34.2222 50.5273 33.336 50.5273C28.4285 50.5273 24.0355 48.3695 21.8431 44.8899C21.925 44.6429 22.03 44.3917 22.1581 44.1446C22.7419 43.1692 23.8087 42.5991 24.9384 42.6561C25.0518 42.6603 25.1568 42.5907 25.1946 42.4809C25.2324 42.3732 25.1925 42.2528 25.1001 42.1853C23.4454 41.0177 22.6957 39.1132 23.0947 37.0927C23.5126 34.9792 25.0581 33.2732 26.9439 32.8488C28.3466 32.5342 29.7766 32.8066 30.9694 33.6152C31.0261 33.6553 31.0975 33.668 31.1668 33.6532C31.234 33.6406 31.2949 33.5983 31.3306 33.5392C32.0719 32.3526 33.2268 31.5292 34.5855 31.223C37.37 30.5981 40.144 32.3674 40.7655 35.1671C41.0553 36.4677 40.8411 37.8147 40.165 38.9591C40.1167 39.0393 40.1167 39.1386 40.1608 39.2188C40.2238 39.3286 40.3645 39.3772 40.48 39.3307C41.6475 38.8641 42.6996 38.8599 43.697 39.318C44.5391 39.9705 45.0662 40.7474 45.2615 41.6258C45.9796 44.8562 41.8974 48.6693 35.9693 50.3119Z" fill="white"/>
<path fill-rule="evenodd" clip-rule="evenodd" d="M31.985 50.3617C32.9398 50.3617 33.928 50.2487 34.9308 50.0206C39.2421 49.0337 42.4381 46.1689 43.0698 42.7201C43.2845 41.5456 42.8842 41.1044 42.6236 40.9445C42.1983 40.6844 41.5792 40.8145 41.0079 41.2834C36.9551 44.6086 30.8404 46.0069 25.789 44.7621C25.078 44.5852 24.463 44.7387 24.1878 45.1607C24.019 45.4165 23.8397 45.992 24.5214 46.9619C26.0641 49.1446 28.8307 50.3617 31.985 50.3617ZM42.1254 41.3324C42.215 41.3324 42.2963 41.3516 42.363 41.3921C42.609 41.5435 42.6841 41.9932 42.5694 42.6242C41.9753 45.8684 38.9336 48.5712 34.8182 49.5112C30.7049 50.4534 26.8251 49.3322 24.9363 46.6549C24.5694 46.1348 24.4505 45.6957 24.611 45.4506C24.7632 45.2183 25.1781 45.1479 25.6701 45.2673C30.8654 46.5483 37.1573 45.1095 41.3269 41.6884C41.6083 41.4582 41.8981 41.3324 42.1254 41.3324Z" fill="white"/>
<path d="M33.2368 42.8603C33.3632 42.8603 33.4851 42.7917 33.5427 42.6759C33.7267 42.3049 34.1345 42.0991 34.5534 42.1634C34.7373 42.1913 34.9102 42.0691 34.9412 41.8911C34.97 41.7131 34.8437 41.5437 34.6597 41.5159C33.9416 41.4065 33.2479 41.7582 32.9332 42.3907C32.8512 42.5536 32.9221 42.7488 33.0906 42.8281C33.1371 42.8495 33.1881 42.8603 33.2368 42.8603Z" fill="white"/>
<path d="M33.2692 42.8618C33.3612 42.8618 33.4511 42.832 33.5124 42.7724C33.6207 42.6705 33.6003 42.5201 33.4675 42.4354C32.9545 42.1172 32.2166 42.0937 31.673 42.3774C31.5299 42.4527 31.4931 42.6016 31.5892 42.7113C31.6873 42.8195 31.8815 42.8492 32.0245 42.774C32.3434 42.6078 32.7746 42.622 33.073 42.8085C33.1302 42.8445 33.1997 42.8618 33.2692 42.8618Z" fill="white"/>
<path d="M33.3879 44.908C33.4022 44.908 33.4161 44.9052 33.4296 44.8996C33.5345 44.8617 33.6003 44.6891 33.5775 44.5164C33.4486 43.55 33.3929 43.1604 33.2804 42.4235C33.2538 42.2508 33.1489 42.1456 33.0452 42.1898C32.9415 42.234 32.8795 42.4109 32.9061 42.5814C33.0174 43.3099 33.0717 43.6973 33.1994 44.6554C33.2197 44.8049 33.2993 44.908 33.3879 44.908Z" fill="white"/>
<path d="M42.5138 42.3111C42.0141 42.9474 41.3694 43.5 40.6734 43.9897C39.9729 44.4795 39.2189 44.9086 38.4426 45.3021C38.3623 45.3419 38.3333 45.4361 38.3757 45.5093C38.4181 45.5805 38.5095 45.6098 38.5876 45.5763C39.4019 45.2267 40.2005 44.8395 40.9612 44.3791C41.7196 43.9165 42.4446 43.3786 43.0492 42.7067C43.1719 42.5706 43.154 42.3697 43.0113 42.2546C42.8663 42.1416 42.6521 42.1583 42.5294 42.2923C42.5249 42.2978 42.5205 42.3034 42.516 42.309L42.5138 42.3111Z" fill="white"/>
<path d="M24.2261 46.8732C25.0488 47.2274 25.9138 47.4127 26.7725 47.5177C27.6333 47.6227 28.4962 47.6453 29.3527 47.6288C29.431 47.6268 29.4923 47.565 29.4902 47.4888C29.4881 47.4168 29.431 47.3591 29.3569 47.355C28.511 47.3118 27.6671 47.2294 26.8465 47.0709C26.028 46.9124 25.2243 46.6756 24.5116 46.307H24.5095C24.3509 46.2247 24.1563 46.2823 24.0717 46.4368C23.9871 46.5891 24.0484 46.7806 24.2049 46.8629C24.2134 46.865 24.2197 46.8691 24.2261 46.8732Z" fill="white"/>
<path fill-rule="evenodd" clip-rule="evenodd" d="M33.2876 51.047C34.2083 51.047 35.129 50.9744 36.0245 50.8273C36.0357 50.8259 36.0469 50.8232 36.0581 50.819C42.3875 49.0989 46.5589 45.1427 45.762 41.6155C45.546 40.6643 44.9902 39.8229 44.1094 39.1183C44.2499 37.9039 44.1849 36.6832 43.9143 35.4874C43.7528 34.7725 43.518 34.0741 43.218 33.4088C43.1971 33.3653 43.1698 33.328 43.1342 33.299C40.6049 31.1396 37.0165 29.9023 33.2876 29.9023C29.9404 29.9023 26.7379 30.8784 24.2653 32.6524C21.7926 34.4285 20.2554 36.849 19.9429 39.4664C19.9401 39.4913 19.9401 39.5155 19.9429 39.539C19.9869 39.941 20.054 40.3451 20.1442 40.7389C20.4147 41.9347 20.8803 43.0662 21.5326 44.1065C21.4046 44.3656 21.3019 44.6267 21.2222 44.8858C21.1949 44.9728 21.3064 45.0716 21.3546 45.1504C22.5865 46.8662 24.0384 48.1715 26.1234 49.4139C28.2647 50.4833 30.7416 51.047 33.2876 51.047ZM35.9029 50.2056C35.0472 50.3444 34.1663 50.4149 33.2876 50.4149C28.4199 50.4149 24.0639 48.3176 21.8786 44.9355C21.9583 44.7013 22.0611 44.4671 22.1848 44.2329C22.2372 44.1335 22.2309 44.0112 22.168 43.9159C21.5074 42.8983 21.0376 41.7834 20.7692 40.6C20.6874 40.2415 20.6266 39.8726 20.5825 39.5058C21.2201 34.3891 26.6729 30.5365 33.2876 30.5365C36.8382 30.5365 40.2484 31.6991 42.6602 33.7321C42.9307 34.3393 43.1425 34.9756 43.2894 35.6263C43.5557 36.8076 43.6123 38.0158 43.4508 39.2157C43.4362 39.3276 43.4844 39.4395 43.5746 39.5079C44.4177 40.1441 44.942 40.8985 45.1349 41.7544C45.8438 44.8899 41.7898 48.5995 35.9029 50.2056Z" fill="white"/>
<path fill-rule="evenodd" clip-rule="evenodd" d="M50.7562 40.1342C50.8966 40.1342 51.0377 40.1234 51.1795 40.1017C52.088 39.9674 52.883 39.4106 53.4157 38.5354C53.9361 37.6796 54.1425 36.6159 53.998 35.5435C53.6986 33.3033 51.9414 31.7066 50.0871 31.9796C48.2308 32.2547 46.965 34.2999 47.2665 36.54C47.4111 37.6125 47.8901 38.5744 48.6149 39.246C49.2426 39.8266 49.9901 40.1342 50.7562 40.1342ZM50.5042 32.7444C51.8278 32.7444 53.0234 33.9793 53.2485 35.654C53.3682 36.5401 53.201 37.411 52.7777 38.1086C52.3647 38.7845 51.7597 39.2135 51.0721 39.3153C50.3865 39.4171 49.6907 39.181 49.1166 38.6502C48.5261 38.1021 48.1358 37.3135 48.0161 36.4274C47.7745 34.6227 48.7512 32.9805 50.1924 32.766C50.2971 32.7516 50.401 32.7444 50.5042 32.7444Z" fill="white"/>
<path fill-rule="evenodd" clip-rule="evenodd" d="M51.5386 39.4522C51.6359 39.4522 51.7326 39.4451 51.8285 39.431C52.0774 39.3952 52.318 39.3129 52.5421 39.1841C52.5531 39.1785 52.5641 39.1715 52.575 39.163C53.6485 38.361 54.2078 36.8646 54.0001 35.3514C53.7616 33.6229 52.573 32.2257 51.1047 31.9534C51.0841 31.9506 51.0628 31.9492 51.0409 31.9492C50.9587 31.9513 50.8784 31.9577 50.8024 31.9682C49.3258 32.1835 48.3531 34.0302 48.6349 36.088C48.7685 37.0651 49.1634 37.9495 49.7433 38.5763C50.2718 39.1482 50.9011 39.4522 51.5386 39.4522ZM52.2213 38.629C52.0691 38.7135 51.9067 38.7683 51.7422 38.7916C51.2116 38.8675 50.6646 38.6333 50.1998 38.1331C49.7083 37.6012 49.3731 36.8435 49.258 35.9972C49.0235 34.2919 49.7556 32.7723 50.8908 32.6077C50.9347 32.6021 50.9792 32.5979 51.0245 32.595C52.2151 32.8335 53.1796 33.9985 53.377 35.4421C53.5518 36.7148 53.0994 37.9621 52.2213 38.629Z" fill="white"/>
<path fill-rule="evenodd" clip-rule="evenodd" d="M38.5322 26.4894C38.9454 26.4894 39.463 26.2531 40.0764 25.7804C41.0392 25.0433 42.1745 24.7048 43.1586 24.4725C43.2353 24.4524 43.3056 24.4124 43.3588 24.3563C43.8956 23.7735 43.9616 23.0264 43.5271 22.4555C43.0585 21.8366 41.985 21.44 40.6452 21.9448C39.8144 22.2092 38.3532 22.9142 37.8207 24.6768C37.563 25.534 37.6439 26.1009 38.0657 26.3633C38.2034 26.4474 38.3589 26.4894 38.5322 26.4894ZM42.8391 23.7895C41.855 24.0298 40.6239 24.4124 39.5823 25.2116C38.8857 25.7463 38.5471 25.7704 38.4938 25.7484C38.4959 25.7484 38.3618 25.5741 38.5726 24.8771C39.0093 23.4309 40.2213 22.8541 40.905 22.6378C40.9121 22.6351 40.9192 22.6324 40.9263 22.6298C41.8785 22.2692 42.5984 22.4976 42.8924 22.8821C43.099 23.1565 43.0798 23.481 42.8391 23.7895Z" fill="white"/>
<path fill-rule="evenodd" clip-rule="evenodd" d="M22.4531 29.2184C22.9132 29.2184 23.4017 28.9573 23.5192 28.4555C23.8273 27.1398 24.7516 25.7771 25.9293 24.9041C26.0307 24.8286 26.0874 24.7062 26.0793 24.5777C26.0712 24.4512 26.0003 24.337 25.8888 24.2758C24.8611 23.7026 23.9591 23.6087 23.2091 23.9943C22.2098 24.5104 21.5713 25.873 21.3119 28.0475C21.249 28.584 21.6565 29.0899 22.2402 29.198C22.3091 29.2123 22.3821 29.2184 22.4531 29.2184ZM25.0152 24.6858C23.9307 25.6527 23.0997 26.9847 22.7956 28.2841C22.7632 28.4228 22.5443 28.4942 22.376 28.4636C22.2078 28.431 22.0335 28.2862 22.0517 28.1373C22.2747 26.2524 22.7936 25.0489 23.5476 24.6613C23.949 24.4532 24.4415 24.4634 25.0152 24.6858Z" fill="white"/>
<path opacity="0.3" d="M25.0041 24.4453C23.2429 25.805 22.4776 27.1691 22.7082 28.5378C23.4485 27.2156 24.3426 26.003 25.3905 24.9C25.4269 24.8987 25.2981 24.7472 25.0041 24.4453Z" fill="white"/>
<path fill-rule="evenodd" clip-rule="evenodd" d="M33.4379 50.9689C40.7717 50.9689 46.7383 46.2258 46.7383 40.3965C46.7383 34.5673 40.7717 29.8242 33.4379 29.8242C26.1041 29.8242 20.1376 34.5673 20.1376 40.3965C20.1376 46.2258 26.1041 50.9689 33.4379 50.9689ZM33.4379 30.3329C40.4895 30.3329 46.2261 34.8487 46.2261 40.3965C46.2261 45.9443 40.4895 50.4581 33.4379 50.4581C26.3864 50.4581 20.6498 45.9443 20.6498 40.3965C20.6498 34.8487 26.3864 30.3329 33.4379 30.3329Z" fill="white"/>
<path d="M26.3064 40.4375C26.7751 41.7061 27.8164 42.4446 28.6338 42.0867C29.4489 41.7288 29.7328 40.4103 29.2641 39.1418C28.7954 37.8732 27.7541 37.1347 26.9367 37.4926C26.1194 37.8505 25.8377 39.1689 26.3064 40.4375Z" fill="white"/>
<path d="M26.7613 38.7181C26.7469 39.0923 27.0421 39.4192 27.4184 39.4483C27.7947 39.4755 28.1102 39.194 28.1247 38.818C28.1362 38.4438 27.841 38.115 27.4647 38.0878C27.0884 38.0605 26.7729 38.3421 26.7613 38.7181Z" fill="#F5C039"/>
<path d="M36.0747 36.0399C35.3313 36.0695 34.8356 37.0113 34.9664 38.1406C35.0953 39.2719 35.8031 40.1623 36.5446 40.1308C37.2861 40.1011 37.7838 39.1594 37.6529 38.03C37.5221 36.8987 36.8163 36.0083 36.0747 36.0399Z" fill="white"/>
<path d="M35.863 36.7695C35.5797 36.9062 35.5503 37.3023 35.7989 37.6529C36.0475 38.0035 36.4778 38.1778 36.7611 38.0392C37.0444 37.9025 37.0738 37.5063 36.8252 37.1558C36.5767 36.8052 36.1463 36.6328 35.863 36.7695Z" fill="#F5C039"/>
<path d="M35.6932 38.8191C35.5822 38.9217 35.6176 39.1329 35.771 39.2907C35.9244 39.4486 36.1368 39.496 36.2477 39.3934C36.3562 39.2907 36.3208 39.0796 36.1675 38.9217C36.0141 38.7639 35.8017 38.7185 35.6932 38.8191Z" fill="#F5C039"/>
<path fill-rule="evenodd" clip-rule="evenodd" d="M32.8905 18.2784C33.5372 19.5012 33.6472 20.8404 33.5508 21.7169L32.4513 21.595C32.5284 20.8943 32.4364 19.7878 31.9136 18.7993C31.4047 17.8371 30.4772 16.9615 28.8066 16.6727L28.9943 15.5781C31.0204 15.9284 32.23 17.0294 32.8905 18.2784Z" fill="white"/>
<path d="M30.8533 16.2587C30.8533 17.0121 30.2426 17.6229 29.4892 17.6229C28.7358 17.6229 28.125 17.0121 28.125 16.2587C28.125 15.5053 28.7358 14.8945 29.4892 14.8945C30.2426 14.8945 30.8533 15.5053 30.8533 16.2587Z" fill="white"/>
<path fill-rule="evenodd" clip-rule="evenodd" d="M35.4464 16.2218C35.4469 16.2216 35.4459 16.2265 35.4421 16.2372C35.444 16.2274 35.446 16.222 35.4464 16.2218ZM35.0543 16.7932C34.9871 16.8076 34.9153 16.8246 34.839 16.8443C34.0638 17.0451 33.0238 17.4814 31.9234 18.1213C30.823 18.7613 29.9294 19.4495 29.3716 20.024C29.3167 20.0805 29.2664 20.1345 29.2206 20.1858C29.2879 20.1714 29.3597 20.1544 29.4359 20.1347C30.2111 19.9339 31.2512 19.4977 32.3516 18.8577C33.452 18.2177 34.3456 17.5295 34.9034 16.955C34.9583 16.8985 35.0085 16.8445 35.0543 16.7932ZM28.5301 20.2441C28.5306 20.2438 28.5361 20.2447 28.5456 20.2479C28.5345 20.2459 28.5297 20.2444 28.5301 20.2441ZM28.8285 20.7572C28.8281 20.7574 28.829 20.7525 28.8329 20.7418C28.8309 20.7516 28.829 20.757 28.8285 20.7572ZM35.7293 16.7311C35.7405 16.7331 35.7453 16.7347 35.7448 16.735C35.7444 16.7353 35.7388 16.7343 35.7293 16.7311ZM32.8177 19.6592C35.1219 18.3192 36.6853 16.7092 36.3096 16.0632C35.9339 15.4172 33.7614 15.9798 31.4573 17.3198C29.1531 18.6598 27.5897 20.2698 27.9654 20.9158C28.3411 21.5618 30.5135 20.9992 32.8177 19.6592Z" fill="white"/>
<path d="M54.8468 48.4389L55.5429 52.9293L59.6511 54.8711L55.1607 55.5672L53.2189 59.6755L52.5228 55.1851L48.4146 53.2433L52.905 52.5472L54.8468 48.4389Z" fill="white"/>
<path d="M7.24355 46.5664L7.47409 48.0536L8.83472 48.6968L7.34752 48.9273L6.70441 50.2879L6.47387 48.8007L5.11324 48.1576L6.60044 47.9271L7.24355 46.5664Z" fill="white"/>
<path d="M9.23769 41.7461L9.46823 43.2333L10.8289 43.8764L9.34166 44.107L8.69855 45.4676L8.46801 43.9804L7.10738 43.3373L8.59458 43.1068L9.23769 41.7461Z" fill="white"/>
<path d="M4.86074 39.586L5.09128 41.0732L6.45191 41.7163L4.96471 41.9468L4.3216 43.3075L4.09106 41.8203L2.73043 41.1771L4.21763 40.9466L4.86074 39.586Z" fill="white"/>
<defs>
<linearGradient id="paint0_linear_15568_116809" x1="35.3057" y1="-1.77601" x2="35.3057" y2="61.6948" gradientUnits="userSpaceOnUse">
<stop stop-color="#FDF0CE"/>
<stop offset="1" stop-color="#D79C04" stop-opacity="0"/>
</linearGradient>
</defs>
</svg>
