<svg width="30" height="30" viewBox="0 0 30 30" fill="none" xmlns="http://www.w3.org/2000/svg">
<path d="M18.5314 24.0691L19.0325 24.8351L21.5239 22.6417L20.1242 20.92L18.5314 24.0691Z" fill="url(#paint0_linear_27733_592)"/>
<path d="M19.8863 23.0092C19.5583 23.7356 17.6922 25.5843 15.6738 24.5364C14.8485 24.1075 14.7417 23.6075 15.0794 23.1561C14.6308 22.8637 14.236 22.5086 14.0417 22.0412C13.8582 21.5985 13.9695 20.8615 14.5383 20.8403C14.4536 20.666 14.4244 20.4722 14.4722 20.2736C14.5782 19.8486 15.109 19.4488 15.5925 19.5908C15.5955 19.5903 15.5965 19.596 15.6031 19.598C15.5447 19.2949 15.6927 18.9804 15.9912 18.8254C16.2644 18.6854 16.6869 18.5276 17.0924 18.7881C17.0777 18.5371 17.1379 18.4065 17.4081 18.267C18.2329 17.8407 19.6824 19.029 20.0611 19.5522C20.8472 20.6352 20.3762 21.9256 19.8832 23.0096L19.8863 23.0092Z" fill="url(#paint1_linear_27733_592)"/>
<path d="M17.0899 24.1202C16.696 24.0146 16.3091 23.8963 15.9423 23.7343C15.9679 23.9089 16.0483 24.0583 16.1596 24.2063C16.2096 24.2752 16.1175 24.3523 16.0533 24.2912C15.8825 24.1252 15.8059 23.8935 15.7963 23.67C15.5567 23.5545 15.3256 23.4174 15.1111 23.2517C15.0898 23.2372 15.112 23.2049 15.1334 23.2194C15.7377 23.6227 16.4371 23.7937 17.1411 23.9729C17.2458 23.9992 17.1916 24.1469 17.0869 24.1206L17.0899 24.1202Z" fill="url(#paint2_linear_27733_592)"/>
<path d="M28.37 14.7824C28.6891 15.9593 28.2975 17.1799 27.3556 17.9453C27.5582 16.0304 27.0511 14.1654 25.8341 12.3504C27.0714 12.6667 28.049 13.6044 28.37 14.7824Z" fill="white"/>
<path fill-rule="evenodd" clip-rule="evenodd" d="M27.4416 18.201C27.3739 18.2176 27.3016 18.21 27.2368 18.1767C27.1344 18.1228 27.075 18.0183 27.0863 17.9113C27.2824 16.0629 26.7837 14.2359 25.6028 12.4806C25.5412 12.3885 25.5436 12.2732 25.6067 12.1878C25.6717 12.1034 25.7858 12.0665 25.8951 12.0933C27.2425 12.4378 28.2951 13.4472 28.6446 14.7271C28.994 16.007 28.5725 17.3179 27.5466 18.15C27.5158 18.1754 27.479 18.1918 27.4416 18.201ZM26.4695 12.861C27.2879 14.2792 27.6925 15.7391 27.6799 17.2194C28.1751 16.5456 28.3408 15.6831 28.1097 14.8373C27.8769 13.9815 27.2733 13.2686 26.4695 12.861Z" fill="#64EDFF"/>
<path d="M11.3528 5.69565C17.336 4.245 23.6605 7.69476 25.4791 13.4023C27.2972 19.1084 23.9209 24.9118 17.9378 26.3624C11.9561 27.8127 5.6311 24.3615 3.81298 18.6554C1.99442 12.9479 5.37118 7.14594 11.3528 5.69565Z" fill="white"/>
<path d="M11.5088 5.81055C17.5761 4.33953 23.7512 7.37499 25.8387 12.9154L26.0201 13.1426C26.466 13.759 26.3378 13.4708 26.8841 15.1851C27.4303 16.8995 27.1055 20.4941 24.983 22.5949L24.7489 22.8761C17.7188 29.6464 6.56936 28.0429 3.73252 19.1397C1.86298 13.2723 5.44158 7.28157 11.5088 5.81055Z" fill="white"/>
<path fill-rule="evenodd" clip-rule="evenodd" d="M18.0216 26.9253C15.833 27.4559 13.5933 27.4491 11.5173 26.9055C7.63697 25.8881 4.7023 23.0808 3.4668 19.2033C2.54362 16.306 2.87503 13.2822 4.39961 10.6877C5.91603 8.10727 8.41253 6.28336 11.4293 5.55195C17.6474 4.04434 23.942 7.15772 26.0908 12.7962L26.2439 12.9895C26.2471 12.9928 26.2497 12.9961 26.2519 12.9996C26.2995 13.0649 26.3388 13.1186 26.3748 13.1672C26.6608 13.5542 26.6728 13.592 26.9777 14.5589C27.0281 14.717 27.0869 14.9015 27.1559 15.1183C27.736 16.9389 27.3785 20.6091 25.2014 22.7714L24.9768 23.0427C24.9708 23.0502 24.9641 23.0574 24.9568 23.0641C23.0864 24.8658 20.8241 26.166 18.4185 26.823C18.2865 26.858 18.1542 26.8921 18.0216 26.9253ZM11.5928 6.06513C5.58717 7.5212 2.18337 13.3565 4.00476 19.0728C5.18056 22.763 7.96534 25.4319 11.6439 26.3958C16.027 27.5444 20.9664 26.1269 24.5359 22.6947L24.7609 22.4247C24.7653 22.4187 24.7708 22.4128 24.7775 22.4072C26.7941 20.4104 27.1464 16.9071 26.618 15.2487C26.5489 15.032 26.4897 14.846 26.4393 14.688C26.1495 13.7686 26.1495 13.7686 25.9187 13.4555C25.8827 13.407 25.842 13.3536 25.7963 13.2893L25.6192 13.0657C25.6009 13.043 25.5866 13.0178 25.5767 12.9916C23.547 7.60296 17.5339 4.6247 11.5928 6.06513Z" fill="#64EDFF"/>
<path d="M13.8541 9.56429C19.6257 8.16456 25.4719 10.6912 26.9107 15.2079C28.349 19.7233 24.8355 24.5199 19.0639 25.9196C13.2909 27.3197 7.44607 24.7927 6.00774 20.2774C4.56897 15.7606 8.08099 10.9644 13.8541 9.56429Z" fill="#00A4FF"/>
<path fill-rule="evenodd" clip-rule="evenodd" d="M19.1402 26.1351C13.2529 27.5629 7.2653 24.9591 5.79178 20.3333C4.31781 15.7062 7.90719 10.7813 13.7945 9.35349C19.6803 7.92607 25.669 10.5281 27.143 15.1553C28.6165 19.781 25.0261 24.7077 19.1402 26.1351ZM13.9307 9.78102C8.29169 11.1486 4.84242 15.8326 6.24137 20.2243C7.63987 24.6146 13.3646 27.0738 19.0036 25.7062C24.6426 24.3387 28.0919 19.6546 26.6934 15.2643C25.2944 10.8727 19.5697 8.41346 13.9307 9.78102Z" fill="#64EDFF"/>
<path d="M18.76 24.9508C23.8254 23.7222 26.9418 19.6184 25.7207 15.7848C24.4997 11.9511 19.4036 9.83927 14.3383 11.0679C9.273 12.2965 6.15659 16.4003 7.37762 20.234C8.59865 24.0676 13.6947 26.1795 18.76 24.9508Z" fill="#6C6C6C"/>
<path fill-rule="evenodd" clip-rule="evenodd" d="M18.8379 25.2072C13.6315 26.4699 8.36852 24.2687 7.10439 20.2998C5.84025 16.3309 9.04627 12.074 14.2526 10.8112C19.4589 9.5484 24.7224 11.7511 25.9865 15.72C27.2507 19.6889 24.0442 23.9444 18.8379 25.2072ZM14.4165 11.3259C9.50859 12.5163 6.46993 16.4833 7.64384 20.1689C8.81729 23.8531 13.766 25.8829 18.6739 24.6925C23.5819 23.5021 26.6206 19.535 25.4471 15.8508C24.2732 12.1652 19.3245 10.1355 14.4165 11.3259Z" fill="#6C6C6C"/>
<path d="M25.5874 15.137C25.6415 15.4063 25.6799 15.6809 25.7021 15.9594C25.7736 16.8496 25.6728 17.7107 25.4276 18.5161C25.5997 18.6888 25.7507 18.8696 25.8792 19.0544C25.1234 21.7203 22.4997 24.0676 18.8808 24.9452C18.2357 25.1017 17.5904 25.2023 16.9532 25.2542C12.3533 25.1692 8.60345 23.2955 8.41253 20.8924C8.35744 20.2126 8.59393 19.5588 9.06464 18.9644C8.69117 18.1746 8.45512 17.3243 8.38467 16.4323C8.34406 15.9272 8.35909 15.4327 8.42432 14.9518C9.65995 13.1662 11.7897 11.7179 14.4609 11.0701C19.2318 9.91308 24.0288 11.7201 25.5874 15.137Z" fill="#B0401E"/>
<path fill-rule="evenodd" clip-rule="evenodd" d="M18.9505 25.1623C18.3055 25.3188 17.6449 25.4261 16.9858 25.4787C16.9777 25.4797 16.9692 25.4797 16.9605 25.4788C12.1558 25.3908 8.3812 23.4236 8.17954 20.9025C8.12592 20.2225 8.33397 19.559 8.79923 18.9327C8.43914 18.1352 8.22169 17.2986 8.15358 16.4438C8.11266 15.9328 8.12674 15.4205 8.19351 14.9196C8.19882 14.8866 8.20989 14.8568 8.22861 14.8311C9.53521 12.9408 11.7825 11.4944 14.3947 10.8608C16.7396 10.2922 19.1934 10.4083 21.3078 11.1881C23.4226 11.9692 25.0211 13.3452 25.8039 15.0625C25.8113 15.0788 25.8165 15.0952 25.8196 15.1116C25.8753 15.391 25.9154 15.6757 25.937 15.9573C26.0052 16.8121 25.9228 17.6565 25.69 18.471C25.8354 18.6244 25.9637 18.7836 26.0753 18.9453C26.1132 18.9995 26.1245 19.0647 26.1076 19.1262C25.719 20.4949 24.8587 21.7786 23.6174 22.8407C22.3478 23.9277 20.7341 24.7298 18.9505 25.1623ZM16.9371 25.0376C17.5664 24.9861 18.1987 24.8841 18.8143 24.7348C22.2243 23.9078 24.824 21.7493 25.6262 19.0904C25.5199 18.9456 25.3975 18.8047 25.2603 18.6673C25.2022 18.6089 25.1802 18.5251 25.2038 18.45C25.4473 17.6495 25.5362 16.8156 25.4693 15.9696C25.4494 15.7132 25.4125 15.4534 25.3643 15.1978C23.8152 11.8453 19.1652 10.166 14.5313 11.2898C12.044 11.893 9.90554 13.2587 8.65397 15.0435C8.59527 15.5002 8.58396 15.9665 8.62132 16.4316C8.68924 17.2758 8.90989 18.1026 9.28155 18.8867C9.31594 18.9599 9.30626 19.0438 9.25782 19.1054C8.80428 19.6789 8.5995 20.2782 8.64874 20.8899C8.82772 23.1311 12.467 24.9514 16.9371 25.0376Z" fill="#6C6C6C"/>
<path d="M13.8409 11.9968C14.9424 11.9667 15.9729 12.3646 16.7468 13.0301C17.4113 12.2891 18.3981 11.8097 19.5327 11.7791C22.5203 11.6978 25.1846 15.3763 22.9596 17.9559C23.8046 17.7072 24.7474 17.924 25.4138 18.5204C25.5859 18.6931 25.7369 18.8739 25.8654 19.0587C25.1096 21.7244 22.4861 24.0714 18.8674 24.949C18.2224 25.1054 17.5771 25.2061 16.94 25.2579C12.3404 25.1729 8.59082 23.2994 8.3999 20.8965C8.34481 20.2167 8.58129 19.5629 9.05196 18.9686C9.69001 18.4575 10.4934 18.2617 11.462 18.3811C10.7399 17.7288 10.2584 16.8384 10.1792 15.8444C10.0137 13.7796 11.6535 12.0561 13.8409 11.9968Z" fill="#FFCAA1"/>
<path fill-rule="evenodd" clip-rule="evenodd" d="M18.9256 25.1204C18.2835 25.2761 17.624 25.3817 16.9684 25.435C16.9622 25.4355 16.9554 25.4356 16.9479 25.4354C12.1688 25.3473 8.41576 23.3977 8.21582 20.902C8.16005 20.1954 8.3902 19.5069 8.90372 18.8584C8.91113 18.8486 8.91997 18.8399 8.93024 18.8324C9.49758 18.3777 10.1949 18.1573 11.0067 18.1718C10.4185 17.5127 10.0641 16.7033 9.99542 15.8517C9.82337 13.692 11.5439 11.8842 13.8314 11.8217C14.8842 11.7928 15.9055 12.1325 16.7269 12.7834C17.4476 12.0499 18.4326 11.6344 19.5213 11.6044C21.0759 11.5611 22.664 12.5122 23.4713 13.9682C24.1675 15.2247 24.1337 16.5843 23.399 17.691C24.1666 17.6166 24.9541 17.868 25.5431 18.3956C25.546 18.3979 25.549 18.4007 25.5521 18.4039C25.7318 18.5853 25.8918 18.7745 26.0248 18.9688C26.0543 19.0114 26.0649 19.0647 26.0504 19.1135C25.664 20.474 24.8082 21.7521 23.573 22.8081C22.3094 23.8891 20.7017 24.6897 18.9256 25.1204ZM16.9283 25.0808C17.561 25.0301 18.1962 24.9274 18.8162 24.777C22.2495 23.9444 24.8666 21.7666 25.6646 19.0848C25.555 18.9347 25.4284 18.7857 25.2866 18.6435C24.6719 18.095 23.805 17.8975 23.0267 18.1271C22.9483 18.1491 22.8601 18.1207 22.8104 18.0542C22.7612 17.9891 22.7637 17.9025 22.814 17.8419C23.7248 16.7861 23.8465 15.3947 23.1401 14.121C22.4008 12.7889 20.9588 11.9186 19.5497 11.9569C18.5018 11.986 17.559 12.4094 16.8955 13.1486C16.8643 13.1849 16.8171 13.2054 16.7654 13.2074C16.7158 13.2103 16.6642 13.1926 16.6267 13.1595C15.8572 12.4975 14.8751 12.1468 13.8598 12.1741C11.7796 12.2317 10.213 13.8769 10.3702 15.8409C10.4425 16.7534 10.8772 17.6113 11.5923 18.2563C11.643 18.3013 11.664 18.3672 11.6501 18.4279C11.6293 18.5115 11.5411 18.5676 11.4505 18.5564C10.535 18.4447 9.79804 18.6204 9.1971 19.0938C8.74594 19.6698 8.5415 20.275 8.59061 20.8912C8.77129 23.1575 12.4336 24.9962 16.9283 25.0808Z" fill="#6C6C6C"/>
<path d="M25.9514 15.6366C26.2859 16.7008 26.2838 17.7868 25.9961 18.8255C25.8758 18.6544 25.7354 18.4881 25.5777 18.3262C25.819 17.5338 25.9176 16.6858 25.8488 15.8075C25.832 15.5767 25.8018 15.3477 25.763 15.1208C25.833 15.2895 25.8963 15.4613 25.9514 15.6366Z" fill="#FFCAA1"/>
<path fill-rule="evenodd" clip-rule="evenodd" d="M26.0705 19.042C26.0618 19.0441 26.053 19.0458 26.0441 19.047C25.9546 19.0585 25.8646 19.0194 25.8138 18.947C25.7012 18.7869 25.569 18.6287 25.4185 18.4764C25.3611 18.4175 25.3386 18.3366 25.3618 18.2624C25.6016 17.4725 25.6912 16.6493 25.6252 15.8151C25.6083 15.5944 25.5796 15.3706 25.5404 15.1479C25.5208 15.0365 25.5906 14.933 25.7039 14.9083C25.8172 14.8835 25.9352 14.9425 25.9807 15.0475C26.0556 15.2257 26.1214 15.4047 26.1777 15.583C26.5188 16.6641 26.5351 17.7785 26.226 18.8952C26.2057 18.9687 26.1469 19.0233 26.0705 19.042ZM25.8396 18.2809C25.8541 18.2972 25.8691 18.3134 25.8845 18.3295C25.9208 18.1429 25.9475 17.9567 25.9644 17.7708C25.9294 17.9422 25.8879 18.1122 25.8396 18.2809Z" fill="#6C6C6C"/>
<path d="M26.0666 18.5744C25.9285 18.5469 25.7997 18.4993 25.6809 18.4342C25.6474 18.3976 25.6149 18.3638 25.58 18.3275C25.7786 17.6747 25.8806 16.9828 25.8726 16.2685C25.9474 16.2488 26.0268 16.2339 26.1075 16.2276C26.2647 17.0145 26.2427 17.8062 26.0666 18.5744Z" fill="#FF9999"/>
<path fill-rule="evenodd" clip-rule="evenodd" d="M26.1262 18.7881C26.0928 18.7962 26.0572 18.7974 26.0205 18.7899C25.86 18.7572 25.705 18.7023 25.5608 18.6223C25.5381 18.6099 25.5189 18.5936 25.5007 18.5756C25.4695 18.5414 25.4369 18.5075 25.4042 18.4736C25.3468 18.4158 25.3256 18.3343 25.3474 18.2602C25.5438 17.6131 25.6396 16.9396 25.6313 16.2586C25.6307 16.1631 25.6955 16.0815 25.7904 16.0554C25.8828 16.0314 25.976 16.0147 26.0689 16.0071C26.1907 15.9968 26.3041 16.0783 26.3268 16.1939C26.4876 16.9962 26.4726 17.8159 26.2844 18.6315C26.2658 18.7107 26.2031 18.7693 26.1262 18.7881ZM25.8312 18.2725C25.8473 18.2805 25.8633 18.2881 25.8791 18.2952C25.911 18.123 25.9351 17.9513 25.9516 17.7798C25.9167 17.9458 25.8766 18.11 25.8312 18.2725Z" fill="#6C6C6C"/>
<path d="M17.4083 19.5953C17.3243 19.6157 17.229 19.5904 17.1665 19.5237C16.9669 19.3102 16.6529 19.241 16.388 19.3508C16.2716 19.3987 16.1312 19.3465 16.0734 19.2348C16.0171 19.1227 16.0657 18.9913 16.1822 18.9433C16.6365 18.7558 17.1709 18.8745 17.512 19.2384C17.6005 19.3321 17.5941 19.4714 17.4988 19.5506C17.4723 19.5722 17.4407 19.5874 17.4083 19.5953Z" fill="#6C6C6C"/>
<path d="M17.4155 19.5818C17.3489 19.5981 17.2752 19.5871 17.2137 19.5441C17.1061 19.4711 17.0779 19.3314 17.1499 19.2314C17.4304 18.853 17.958 18.7013 18.433 18.8617C18.5582 18.9044 18.6275 19.0326 18.5893 19.1488C18.5492 19.2639 18.4171 19.3252 18.2919 19.2824C18.0134 19.1885 17.7051 19.2775 17.5424 19.499C17.5112 19.5417 17.4658 19.5696 17.4155 19.5818Z" fill="#6C6C6C"/>
<path d="M17.4481 20.9927C17.4317 20.9967 17.4153 20.9987 17.3987 20.9988C17.2711 21.0032 17.1602 20.9081 17.1503 20.7883C17.0969 20.1174 17.0796 19.8459 17.055 19.3304C17.0495 19.2095 17.1474 19.1111 17.2749 19.1112C17.4024 19.1113 17.5099 19.2102 17.515 19.3296C17.5392 19.8393 17.5576 20.109 17.6107 20.7741C17.6186 20.8779 17.5491 20.968 17.4481 20.9927Z" fill="#6C6C6C"/>
<g opacity="0.3">
<g opacity="0.3">
<path opacity="0.3" d="M10.8592 20.0117C11.393 20.9608 12.6463 21.6138 13.7441 22.2083C11.7475 21.8944 10.6212 21.3108 10.3651 20.4575C10.2085 19.8766 10.0827 19.8079 10.8592 20.0117Z" fill="#6C6C6C"/>
</g>
</g>
<path fill-rule="evenodd" clip-rule="evenodd" d="M18.9505 25.1623C18.3055 25.3188 17.6449 25.4261 16.9858 25.4787C16.9777 25.4797 16.9692 25.4797 16.9605 25.4788C12.1558 25.3908 8.3812 23.4236 8.17954 20.9025C8.12592 20.2225 8.33397 19.559 8.79923 18.9327C8.43914 18.1352 8.22169 17.2986 8.15358 16.4438C8.11266 15.9328 8.12674 15.4205 8.19351 14.9196C8.19882 14.8866 8.20989 14.8568 8.22861 14.8311C9.53521 12.9408 11.7825 11.4944 14.3947 10.8608C16.7396 10.2922 19.1934 10.4083 21.3078 11.1881C23.4226 11.9692 25.0211 13.3452 25.8039 15.0625C25.8113 15.0788 25.8165 15.0952 25.8196 15.1116C25.8753 15.391 25.9154 15.6757 25.937 15.9573C26.0052 16.8121 25.9228 17.6565 25.69 18.471C25.8354 18.6244 25.9637 18.7836 26.0753 18.9453C26.1132 18.9995 26.1245 19.0647 26.1076 19.1262C25.719 20.4949 24.8587 21.7786 23.6174 22.8407C22.3478 23.9277 20.7341 24.7298 18.9505 25.1623ZM16.9371 25.0376C17.5664 24.9861 18.1987 24.8841 18.8143 24.7348C22.2243 23.9078 24.824 21.7493 25.6262 19.0904C25.5199 18.9456 25.3975 18.8047 25.2603 18.6673C25.2022 18.6089 25.1802 18.5251 25.2038 18.45C25.4473 17.6495 25.5362 16.8156 25.4693 15.9696C25.4494 15.7132 25.4125 15.4534 25.3643 15.1978C23.8152 11.8453 19.1652 10.166 14.5313 11.2898C12.044 11.893 9.90554 13.2587 8.65397 15.0435C8.59527 15.5002 8.58396 15.9665 8.62132 16.4316C8.68924 17.2758 8.90989 18.1026 9.28155 18.8867C9.31594 18.9599 9.30626 19.0438 9.25782 19.1054C8.80428 19.6789 8.5995 20.2782 8.64874 20.8899C8.82772 23.1311 12.467 24.9514 16.9371 25.0376Z" fill="#6C6C6C"/>
<path d="M3.12507 15.7146C4.34448 15.5886 5.51372 16.5804 5.73609 17.9311C5.95846 19.2818 5.15082 20.4782 3.93141 20.6042C2.71245 20.7316 1.54277 19.7384 1.3204 18.3877C1.09803 17.037 1.90713 15.8403 3.12507 15.7146Z" fill="white"/>
<path fill-rule="evenodd" clip-rule="evenodd" d="M4.28456 20.8157C4.18515 20.8398 4.08303 20.857 3.97821 20.8674C3.30743 20.9369 2.63043 20.715 2.07377 20.243C1.52989 19.7813 1.16555 19.1319 1.04797 18.4167C0.80055 16.923 1.71718 15.5933 3.08593 15.4507C4.45659 15.309 5.77212 16.4084 6.01808 17.9024C6.13566 18.6177 5.99377 19.3193 5.61838 19.8761C5.29303 20.3577 4.82692 20.6841 4.28456 20.8157ZM2.94746 16.0146C2.01039 16.2419 1.4172 17.2423 1.60129 18.3591C1.69821 18.9502 1.99523 19.4822 2.43797 19.8586C2.86896 20.2229 3.38526 20.3952 3.89295 20.3427C4.39918 20.2905 4.84341 20.019 5.14096 19.5787C5.44666 19.1244 5.56123 18.5497 5.46431 17.9586C5.26526 16.7552 4.23703 15.8657 3.17265 15.9751C3.09562 15.9837 3.02055 15.9969 2.94746 16.0146Z" fill="#64EDFF"/>
<path d="M2.97415 20.4871C2.15027 20.1821 1.48124 19.3868 1.31791 18.3998C1.13514 17.2826 1.65796 16.2713 2.53386 15.8863C2.58049 15.875 2.62991 15.8675 2.68021 15.8627C3.64831 15.7626 4.60251 16.7239 4.81566 18.0106C5.0269 19.2962 4.4145 20.4206 3.4464 20.5208C3.28719 20.5385 3.12933 20.5259 2.97415 20.4871Z" fill="white"/>
<path fill-rule="evenodd" clip-rule="evenodd" d="M3.69309 20.7026C3.62408 20.7194 3.55407 20.7314 3.48308 20.7386C3.29913 20.7578 3.11126 20.7449 2.92531 20.6986C2.91636 20.6967 2.9071 20.694 2.89756 20.6903C1.96814 20.3462 1.25751 19.4556 1.08717 18.4219C0.89353 17.2409 1.44304 16.1149 2.42693 15.6826C2.44092 15.6772 2.45569 15.6726 2.47125 15.6688C2.53001 15.6561 2.5882 15.6464 2.64436 15.6403C3.73641 15.5281 4.81364 16.5786 5.04577 17.9842C5.15608 18.6516 5.06173 19.3028 4.78212 19.816C4.52745 20.2841 4.14508 20.5929 3.69309 20.7026ZM3.03627 20.2773C3.16188 20.3068 3.28859 20.315 3.4101 20.302C3.80222 20.2608 4.14089 20.0121 4.36542 19.6023C4.60227 19.1669 4.68091 18.6095 4.58494 18.0316C4.39325 16.8666 3.55527 15.9905 2.71588 16.0773C2.6836 16.0811 2.65112 16.086 2.61845 16.0919C1.82431 16.4541 1.385 17.3885 1.54801 18.3745C1.69117 19.2439 2.27372 19.9886 3.03627 20.2773Z" fill="#64EDFF"/>
<path d="M9.86001 8.59658C10.5174 9.58679 10.0318 9.86169 8.89447 9.37311C8.05467 9.0133 7.17832 8.94637 6.35549 8.94804C5.38481 8.33142 5.99464 7.09428 7.52232 7.28725C8.27739 7.3413 9.23338 7.65329 9.86001 8.59658Z" fill="white"/>
<path fill-rule="evenodd" clip-rule="evenodd" d="M10.0182 9.84936C9.73316 9.91848 9.32346 9.83966 8.79497 9.61149C7.96659 9.25672 7.10807 9.20975 6.37752 9.21176C6.32016 9.21057 6.26275 9.1943 6.21352 9.16396C5.71336 8.84587 5.50127 8.33409 5.67373 7.86194C5.85897 7.35044 6.51103 6.89334 7.54765 7.02245C8.17957 7.06852 9.34459 7.31748 10.1048 8.46186C10.4737 9.01866 10.5442 9.42886 10.3118 9.68302C10.2355 9.76493 10.1377 9.82038 10.0182 9.84936ZM6.44564 8.68036C7.17797 8.68395 8.11243 8.74572 9.00901 9.13076C9.60864 9.38849 9.8476 9.34866 9.87942 9.32433C9.87795 9.32469 9.93166 9.1803 9.63083 8.7278C9.00728 7.78884 8.04273 7.5879 7.5229 7.55089C7.51741 7.55021 7.51192 7.54953 7.50643 7.54885C6.76934 7.45581 6.32366 7.73603 6.20664 8.05432C6.1253 8.2809 6.21086 8.50476 6.44564 8.68036Z" fill="#64EDFF"/>
<path d="M22.4111 7.83204C22.5218 8.07107 22.3633 8.33938 22.1202 8.4464C21.8791 8.55446 21.5462 8.50753 21.4089 8.27941C20.8472 7.34606 19.8097 6.5506 18.7485 6.15001C19.7517 5.22164 21.1152 4.9991 22.4111 7.83204Z" fill="white"/>
<path fill-rule="evenodd" clip-rule="evenodd" d="M22.1046 8.7379C21.7727 8.8184 21.3635 8.7253 21.1694 8.4027C20.6605 7.55685 19.697 6.78671 18.6574 6.39568C18.5678 6.3618 18.5002 6.28803 18.4781 6.19873C18.4564 6.11082 18.4827 6.02029 18.5498 5.95894C19.1662 5.38717 19.7963 5.16521 20.4213 5.29766C21.2545 5.47577 22.0119 6.29591 22.6727 7.73756C22.8348 8.09344 22.6512 8.51067 22.2537 8.68672C22.2071 8.70854 22.1558 8.72549 22.1046 8.7379ZM19.2692 6.0865C20.262 6.558 21.1516 7.32353 21.654 8.15894C21.7076 8.24812 21.881 8.25865 21.9957 8.20829C22.11 8.15654 22.2042 8.027 22.1586 7.92836C21.5872 6.67842 20.9507 5.94617 20.3224 5.81303C19.9876 5.74096 19.6345 5.8341 19.2692 6.0865Z" fill="#64EDFF"/>
<g opacity="0.3">
<g opacity="0.3">
<path opacity="0.3" d="M2.2831 18.3805C2.40985 19.3118 3.01324 20.145 3.89469 20.6087C2.59981 20.6148 1.47135 19.6778 1.30445 18.4574C1.13755 17.237 1.98713 16.1426 3.25684 15.944C2.51968 16.5359 2.15591 17.4477 2.2831 18.3805Z" fill="#6C6C6C"/>
</g>
</g>
<g opacity="0.3">
<g opacity="0.3">
<path opacity="0.3" d="M21.2073 8.46732C20.3976 7.76594 19.3348 7.20807 18.0187 6.7937C17.3087 5.98706 17.5462 5.77932 18.7326 6.17011C19.4616 6.30551 20.2874 7.07055 21.2073 8.46732Z" fill="#6C6C6C"/>
</g>
</g>
<g opacity="0.3">
<g opacity="0.3">
<path opacity="0.3" d="M6.02049 7.78751C6.2342 7.444 6.69715 7.32113 7.09105 7.50365C6.8363 7.45965 6.59577 7.5996 6.52984 7.8302C6.46581 8.06183 6.57727 8.38692 6.83312 8.40948C7.88849 8.50561 8.93471 8.75205 9.9706 9.37881C9.55175 9.52575 8.31696 9.34368 6.26623 8.83262C5.91314 8.58428 5.80679 8.13101 6.02049 7.78751Z" fill="#6C6C6C"/>
</g>
</g>
<g opacity="0.3">
<g opacity="0.3">
<path opacity="0.3" d="M19.2598 5.86027C20.8361 6.52865 21.6975 7.3743 21.844 8.39722C21.0101 7.57731 20.0907 6.86298 19.0859 6.25424C19.0594 6.25968 19.1174 6.12835 19.2598 5.86027Z" fill="#6C6C6C"/>
</g>
</g>
<g opacity="0.3">
<g opacity="0.3">
<path opacity="0.3" d="M25.6933 18.8143C24.9647 21.5203 22.3179 23.912 18.6551 24.8012C13.5799 26.0332 8.47493 23.9164 7.25217 20.0742C6.69559 18.3254 7.03816 16.5203 8.05735 14.9568C7.77506 15.9991 7.77952 17.09 8.11955 18.1584C9.34231 22.0006 14.4487 24.117 19.524 22.885C20.2869 22.6998 21.0053 22.4497 21.6712 22.1441C21.4112 22.1149 21.1428 22.074 20.866 22.017C21.8281 21.7996 22.7655 21.4267 23.6783 20.8982C23.6753 20.9186 23.6704 20.938 23.6684 20.9566C24.4955 20.3303 25.1813 19.6034 25.6933 18.8143Z" fill="#6C6C6C"/>
</g>
</g>
<path fill-rule="evenodd" clip-rule="evenodd" d="M18.7357 24.9782C13.5792 26.2289 8.36774 24.0557 7.11875 20.1344C5.86977 16.213 9.04872 12.0048 14.2053 10.7541C19.3618 9.50337 24.5733 11.6765 25.8222 15.5979C27.0712 19.5192 23.8923 23.7274 18.7357 24.9782ZM14.3143 11.0963C9.35616 12.2989 6.29021 16.315 7.47889 20.047C8.66757 23.7791 13.6682 25.8371 18.6263 24.6345C23.5844 23.432 26.6508 19.4172 25.4621 15.6852C24.2734 11.9532 19.2724 9.89371 14.3143 11.0963Z" fill="#6C6C6C"/>
<g opacity="0.2">
<g opacity="0.2">
<g opacity="0.2">
<path opacity="0.2" d="M8.73674 18.0948C8.57694 17.5835 8.47193 17.0543 8.42706 16.509C8.38478 15.9967 8.39851 15.4954 8.46281 15.0079C9.70137 13.1997 11.8408 11.7353 14.5274 11.0837C19.3257 9.91979 24.1587 11.7615 25.7369 15.2293C25.7922 15.5024 25.8316 15.7809 25.8547 16.0634C25.8563 16.0783 25.856 16.0922 25.8575 16.1071C24.1468 12.8278 19.4518 11.1196 14.7895 12.2505C12.1028 12.9022 9.96345 14.3665 8.72489 16.1747C8.66059 16.6622 8.64686 17.1636 8.68915 17.6758C8.70073 17.817 8.71777 17.9554 8.73674 18.0948Z" fill="#6C6C6C"/>
</g>
</g>
<g opacity="0.2">
<g opacity="0.2">
<path opacity="0.2" d="M25.9155 18.8123C25.9262 18.8262 25.9369 18.8401 25.9461 18.8543C25.9012 19.016 25.8496 19.1763 25.7913 19.3352C25.8392 19.1633 25.8814 18.9883 25.9155 18.8123Z" fill="#6C6C6C"/>
</g>
</g>
<g opacity="0.2">
<g opacity="0.2">
<path opacity="0.2" d="M8.51918 21.9139C8.38267 21.6261 8.29795 21.3257 8.27297 21.0183C8.2229 20.4079 8.40812 19.821 8.78567 19.2784C8.88861 19.6117 9.01368 19.9366 9.16189 20.2514C8.75738 20.7677 8.53137 21.3287 8.51918 21.9139Z" fill="#6C6C6C"/>
</g>
</g>
</g>
<path fill-rule="evenodd" clip-rule="evenodd" d="M12.7621 3.44616C12.5561 4.30383 12.7311 5.14339 12.9576 5.66191L13.4739 5.47202C13.2804 5.02891 13.128 4.2946 13.3054 3.55599C13.4795 2.8307 13.9734 2.08868 15.1027 1.59859L14.8649 1.13722C13.5715 1.69847 12.9713 2.57517 12.7621 3.44616Z" fill="#64EDFF"/>
<path d="M13.8871 1.56546C14.0294 2.0351 14.5598 2.30993 15.0717 2.17931C15.5835 2.04868 15.8831 1.56207 15.7407 1.09243C15.5983 0.622785 15.068 0.347958 14.5561 0.478583C14.0442 0.609208 13.7447 1.09582 13.8871 1.56546Z" fill="#64EDFF"/>
<path fill-rule="evenodd" clip-rule="evenodd" d="M10.3085 2.52689C10.3083 2.52685 10.3092 2.52906 10.3121 2.53366C10.3103 2.52922 10.3088 2.52693 10.3085 2.52689ZM10.4716 2.68886C10.5967 2.66623 10.7633 2.65005 10.9727 2.64661C11.5789 2.63666 12.4175 2.73477 13.3354 2.95471C14.2533 3.17465 15.0371 3.4653 15.5606 3.74594C15.7415 3.84291 15.8781 3.93176 15.9752 4.00764C15.8501 4.03027 15.6835 4.04645 15.474 4.04989C14.8679 4.05984 14.0292 3.96173 13.1114 3.74179C12.1935 3.52185 11.4097 3.2312 10.8862 2.95056C10.7053 2.85359 10.5687 2.76474 10.4716 2.68886ZM16.2038 3.9395C16.2035 3.93942 16.201 3.94076 16.197 3.9438C16.202 3.94111 16.204 3.93959 16.2038 3.9395ZM16.1383 4.16961C16.1385 4.16965 16.1376 4.16743 16.1347 4.16284C16.1365 4.16728 16.138 4.16957 16.1383 4.16961ZM10.2498 2.7527C10.2448 2.75539 10.2428 2.75691 10.243 2.757C10.2433 2.75708 10.2458 2.75574 10.2498 2.7527ZM12.9708 4.2356C11.0657 3.7791 9.63433 3.01174 9.77383 2.52167C9.91333 2.0316 11.5708 2.00439 13.476 2.46089C15.3811 2.9174 16.8125 3.68476 16.673 4.17483C16.5335 4.6649 14.876 4.69211 12.9708 4.2356Z" fill="#64EDFF"/>
<path d="M21.2096 16.7463C21.1676 17.5983 20.6617 18.2097 20.0786 18.112C19.497 18.014 19.0576 17.2445 19.0997 16.3926C19.1417 15.5407 19.6476 14.9293 20.2307 15.0269C20.8138 15.1246 21.2517 15.8944 21.2096 16.7463Z" fill="#6C6C6C"/>
<path d="M20.7363 15.7828C20.8357 16.068 20.7691 16.3541 20.5886 16.4215C20.4077 16.4876 20.1809 16.3095 20.081 16.0229C19.983 15.7373 20.0492 15.4498 20.2301 15.3838C20.411 15.3177 20.6378 15.4958 20.7363 15.7828Z" fill="white"/>
<path d="M19.9252 17.3277C20.005 17.4647 20.002 17.6246 19.9188 17.6851C19.8336 17.7446 19.6999 17.6822 19.6201 17.5452C19.5402 17.4082 19.5432 17.2483 19.6279 17.1874C19.7116 17.1282 19.8453 17.1907 19.9252 17.3277Z" fill="white"/>
<path d="M13.5458 15.5012C14.0944 15.392 14.6696 15.9703 14.8307 16.7907C14.9938 17.6122 14.6802 18.3648 14.1326 18.4723C13.5854 18.5811 13.0088 18.0031 12.8476 17.1827C12.686 16.3609 12.9982 15.6086 13.5458 15.5012Z" fill="#6C6C6C"/>
<path d="M13.6308 15.8525C13.8154 15.912 13.9213 16.1876 13.8663 16.4671C13.8113 16.7466 13.6178 16.9254 13.4328 16.8645C13.2482 16.8049 13.1423 16.5294 13.1973 16.2499C13.2523 15.9704 13.4463 15.7929 13.6308 15.8525Z" fill="white"/>
<path d="M14.3727 17.5533C14.4645 17.6097 14.491 17.7647 14.4328 17.8992C14.3746 18.0338 14.2548 18.0987 14.1631 18.0423C14.0728 17.9855 14.0463 17.8305 14.1045 17.6959C14.1627 17.5614 14.2829 17.4979 14.3727 17.5533Z" fill="white"/>
<path d="M17.9006 22.1542C18.3279 22.0693 18.6245 22.2971 18.2453 22.755C16.6183 24.7206 12.1042 23.6784 11.6964 21.242C11.6016 20.675 11.9806 20.6032 12.3125 20.8641C13.7639 22.0044 16.0296 22.5275 17.9006 22.1542Z" fill="white"/>
<path fill-rule="evenodd" clip-rule="evenodd" d="M15.5594 23.8711C15.2113 23.8634 14.8523 23.8181 14.4893 23.7346C12.9286 23.3738 11.7956 22.402 11.6041 21.2583C11.539 20.8688 11.6899 20.7264 11.7867 20.6757C11.9447 20.5933 12.169 20.6413 12.3719 20.8008C13.8121 21.9315 16.0256 22.4427 17.8812 22.0728C18.1424 22.0202 18.3648 22.0758 18.4604 22.2174C18.5191 22.3032 18.578 22.4947 18.3186 22.8093C17.7316 23.5174 16.7093 23.8967 15.5594 23.8711ZM11.964 20.8079C11.9313 20.8071 11.9015 20.8128 11.8767 20.8256C11.7853 20.8736 11.7529 21.0215 11.7876 21.2307C11.9677 22.3066 13.0463 23.2236 14.536 23.5673C16.025 23.9118 17.4521 23.5731 18.1708 22.7046C18.3104 22.5359 18.3587 22.3919 18.3029 22.3097C18.25 22.2317 18.0996 22.2051 17.9188 22.2405C16.0104 22.6213 13.7327 22.0952 12.2511 20.9319C12.1511 20.8536 12.0468 20.8097 11.964 20.8079Z" fill="#6C6C6C"/>
<path d="M11.8096 21.1766C11.9724 21.3938 12.1855 21.584 12.4168 21.7535C12.6496 21.9231 12.9013 22.0727 13.161 22.2106C13.1879 22.2245 13.1967 22.2564 13.1814 22.2806C13.1662 22.3042 13.1347 22.3133 13.1085 22.3015C12.8354 22.1781 12.568 22.0421 12.3144 21.8819C12.0615 21.7211 11.8209 21.5351 11.6228 21.3052C11.5826 21.2586 11.591 21.1914 11.6409 21.1538C11.6916 21.117 11.7643 21.1243 11.8045 21.1701C11.8059 21.172 11.8074 21.1739 11.8089 21.1758L11.8096 21.1766Z" fill="#6C6C6C"/>
<path d="M18.274 22.8505C17.9739 22.9655 17.6606 23.0222 17.3505 23.0514C17.0397 23.0805 16.7291 23.0814 16.4211 23.0688C16.393 23.0675 16.3717 23.0457 16.3733 23.0196C16.3749 22.9948 16.3961 22.9755 16.4228 22.9747C16.7276 22.9666 17.0321 22.9451 17.3291 22.8973C17.6254 22.8494 17.9172 22.7745 18.1779 22.6536L18.1786 22.6536C18.2366 22.6266 18.3059 22.648 18.3346 22.7017C18.3632 22.7548 18.339 22.8201 18.2817 22.8471C18.2786 22.8477 18.2763 22.8491 18.274 22.8505Z" fill="#6C6C6C"/>
<g opacity="0.3">
<g opacity="0.3">
<path opacity="0.3" d="M18.3302 22.5119C18.1269 22.8985 17.5255 23.0695 16.526 23.0247C17.1147 22.8455 17.7838 22.6533 18.1316 22.2476C18.5286 22.2254 18.4602 22.2464 18.3302 22.5119Z" fill="#6C6C6C"/>
</g>
</g>
<defs>
<linearGradient id="paint0_linear_27733_592" x1="20.254" y1="24.6562" x2="19.7157" y2="20.9798" gradientUnits="userSpaceOnUse">
<stop stop-color="#FB9C07"/>
<stop offset="1" stop-color="#FC7333"/>
</linearGradient>
<linearGradient id="paint1_linear_27733_592" x1="17.8705" y1="24.7444" x2="16.9693" y2="18.2833" gradientUnits="userSpaceOnUse">
<stop stop-color="#FB9C07"/>
<stop offset="1" stop-color="#FC7333"/>
</linearGradient>
<linearGradient id="paint2_linear_27733_592" x1="16.2697" y1="24.2911" x2="16.1005" y2="23.079" gradientUnits="userSpaceOnUse">
<stop stop-color="#FB9C07"/>
<stop offset="1" stop-color="#FC7333"/>
</linearGradient>
</defs>
</svg>
