<svg width="20" height="20" viewBox="0 0 20 20" fill="none" xmlns="http://www.w3.org/2000/svg">
<path d="M19.9999 12.7024V14.0859C19.9999 14.3155 19.9899 14.5471 19.9699 14.7767C19.6893 17.9357 17.4949 20 14.3286 20H5.67126C4.06806 20 2.71535 19.4797 1.74341 18.5363C1.36265 18.1864 1.042 17.7753 0.791504 17.3041C1.12217 16.9021 1.49291 16.462 1.85363 16.0208C2.46485 15.289 3.05603 14.5661 3.42677 14.0959C3.97788 13.4142 5.43078 11.6196 7.44481 12.4617C7.85563 12.6322 8.21635 12.8728 8.54701 13.0833C9.35864 13.6247 9.69932 13.7851 10.2705 13.4743C10.9017 13.1335 11.3125 12.4617 11.7434 11.76C11.9739 11.388 12.2043 11.0281 12.4548 10.6972C13.547 9.2736 15.2304 8.89262 16.6332 9.73478C17.3346 10.1559 17.9358 10.6872 18.4969 11.2276C18.6172 11.3479 18.7374 11.4592 18.8476 11.5695C18.9979 11.7198 19.4989 12.2211 19.9999 12.7024Z" fill="#130F26"/>
<path opacity="0.4" d="M14.3387 0H5.67134C2.27455 0 0 2.37607 0 5.91411V14.086C0 15.3181 0.280561 16.4119 0.791583 17.3042C1.12224 16.9022 1.49299 16.4621 1.85371 16.0199C2.46493 15.2891 3.05611 14.5662 3.42685 14.096C3.97796 13.4143 5.43086 11.6197 7.44489 12.4618C7.85571 12.6323 8.21643 12.8729 8.54709 13.0834C9.35872 13.6248 9.6994 13.7852 10.2705 13.4734C10.9018 13.1336 11.3126 12.4618 11.7435 11.759C11.9739 11.3881 12.2044 11.0282 12.4549 10.6973C13.5471 9.27369 15.2305 8.89272 16.6333 9.73487C17.3347 10.1559 17.9359 10.6873 18.497 11.2277C18.6172 11.348 18.7375 11.4593 18.8477 11.5696C18.998 11.7189 19.499 12.2202 20 12.7025V5.91411C20 2.37607 17.7255 0 14.3387 0Z" fill="#130F26"/>
<path d="M9.45429 6.79668C9.45429 8.20528 8.28094 9.37828 6.87313 9.37828C5.46632 9.37828 4.29297 8.20528 4.29297 6.79668C4.29297 5.38909 5.46632 4.21509 6.87313 4.21509C8.28094 4.21509 9.45429 5.38909 9.45429 6.79668Z" fill="#130F26"/>
</svg>
