<svg width="30" height="30" viewBox="0 0 30 30" fill="none" xmlns="http://www.w3.org/2000/svg">
<g clip-path="url(#clip0_26455_6781)">
<path fill-rule="evenodd" clip-rule="evenodd" d="M8.4 25.615C10.315 26.81 12.5775 27.5 15 27.5C17.4175 27.5 19.6762 26.8125 21.59 25.6213L23.14 27.5988C20.795 29.1175 18 30 15 30C11.9963 30 9.1975 29.115 6.85 27.5925L8.4 25.615ZM15.2712 25H14.7125C14.5663 25 14.425 24.95 14.3275 24.8638L13.5863 24.375H16.3988L15.6562 24.8638C15.56 24.95 15.4187 25 15.2712 25ZM1.75375 23.9525H0C0 22.5725 1.11875 21.4525 2.5 21.4525H5C5.6625 21.4525 6.29875 21.7162 6.7675 22.185C7.23625 22.6537 7.5 23.29 7.5 23.9525H5.74625C5.50125 23.195 4.8025 23.045 3.75 23.045C2.6975 23.045 2 23.1888 1.75375 23.9525ZM16.425 23.75H13.5763C13.4038 23.75 13.2638 23.61 13.2638 23.4375C13.2638 23.265 13.4038 23.125 13.5763 23.125H16.425C16.5975 23.125 16.7375 23.265 16.7375 23.4375C16.7375 23.61 16.5975 23.75 16.425 23.75ZM24.2537 23.75H22.5C22.5 22.3687 23.6187 21.25 25 21.25H27.5C28.1625 21.25 28.7987 21.5138 29.2675 21.9825C29.7362 22.4513 30 23.0863 30 23.75H28.2463C28.0012 22.9925 27.3025 22.8425 26.25 22.8425C25.1975 22.8425 24.5 22.9862 24.2537 23.75ZM14.7713 22.5175H13.0037C12.9875 19.305 11.25 18.92 11.25 16.7087C11.25 14.59 12.9087 13.1438 15 13.1438H15.025C17.1038 13.155 18.75 14.5975 18.75 16.7087C18.75 18.92 17.0112 19.305 16.995 22.5175H15.2275C15.2275 19.0987 16.875 18 16.875 16.7038C16.875 15.6337 16.0075 15.0375 15 15.0188H14.9762C13.9788 15.0463 13.125 15.6425 13.125 16.7038C13.125 18 14.7713 19.0987 14.7713 22.5175ZM3.75 15.2025C5.3025 15.2025 6.5625 16.4625 6.5625 18.015C6.5625 19.5675 5.3025 20.8275 3.75 20.8275C2.1975 20.8275 0.9375 19.5675 0.9375 18.015C0.9375 16.4625 2.1975 15.2025 3.75 15.2025ZM26.25 15C27.8025 15 29.0625 16.26 29.0625 17.8125C29.0625 19.365 27.8025 20.625 26.25 20.625C24.6975 20.625 23.4375 19.365 23.4375 17.8125C23.4375 16.26 24.6975 15 26.25 15ZM19.8375 17.9825L21.5238 18.7475L21.0075 19.885L19.385 19.15C19.5725 18.775 19.7288 18.39 19.8375 17.9825ZM10.1637 17.9813C10.2725 18.3962 10.4237 18.77 10.6138 19.15L8.99375 19.885L8.47625 18.7475L10.1637 17.9813ZM3.75 16.89C4.37125 16.89 4.875 17.3937 4.875 18.015C4.875 18.6362 4.37125 19.14 3.75 19.14C3.12875 19.14 2.625 18.6362 2.625 18.015C2.625 17.3937 3.12875 16.89 3.75 16.89ZM26.25 16.6875C26.8713 16.6875 27.375 17.1912 27.375 17.8125C27.375 18.4338 26.8713 18.9375 26.25 18.9375C25.6287 18.9375 25.125 18.4338 25.125 17.8125C25.125 17.1912 25.6287 16.6875 26.25 16.6875ZM21.875 16.875H19.9987C20.0112 16.4562 19.9738 16.0338 19.8825 15.625H21.875V16.875ZM10.0025 16.875H8.125V15.625H10.1175C10.0275 16.0338 9.99 16.4538 10.0025 16.8725V16.875ZM18.7775 13.4825L20.33 12.38L21.0538 13.4L19.4888 14.51C19.3062 14.1462 19.07 13.8025 18.7775 13.4825ZM11.2225 13.4812C10.935 13.7962 10.7 14.1375 10.5113 14.51L8.9475 13.4L9.67 12.38L11.2225 13.4812ZM16.7663 12.1737L17.595 10.4925L18.7162 11.0462L17.8862 12.7275C17.5387 12.4975 17.1613 12.3125 16.7663 12.1737ZM13.2337 12.1725C12.84 12.31 12.4612 12.495 12.1125 12.725L11.2838 11.0462L12.405 10.4925L13.2337 12.1725ZM10 0.855V3.54125C6.3275 5.1475 3.57375 8.46875 2.7525 12.4888L0.21 12.485C1.125 7.075 4.94125 2.645 10 0.855ZM20 0.855C25.0588 2.645 28.875 7.075 29.79 12.485L27.2475 12.4888C26.4263 8.46875 23.6725 5.1475 20 3.54125V0.855ZM15.625 11.9137C15.2075 11.8638 14.8075 11.8612 14.375 11.9113V10H15.625V11.9137ZM13.0037 8.75H11.25C11.25 7.36875 12.3687 6.25 13.75 6.25H16.25C16.9125 6.25 17.5487 6.51375 18.0175 6.9825C18.4862 7.45125 18.75 8.08625 18.75 8.75H16.9963C16.7512 7.9925 16.0525 7.8425 15 7.8425C13.9475 7.8425 13.25 7.98625 13.0037 8.75ZM15 0C16.5525 0 17.8125 1.26 17.8125 2.8125C17.8125 4.365 16.5525 5.625 15 5.625C13.4475 5.625 12.1875 4.365 12.1875 2.8125C12.1875 1.26 13.4475 0 15 0ZM15 1.6875C15.6213 1.6875 16.125 2.19125 16.125 2.8125C16.125 3.43375 15.6213 3.9375 15 3.9375C14.3787 3.9375 13.875 3.43375 13.875 2.8125C13.875 2.19125 14.3787 1.6875 15 1.6875Z" fill="#7E54F1"/>
</g>
<defs>
<clipPath id="clip0_26455_6781">
<rect width="30" height="30" fill="white"/>
</clipPath>
</defs>
</svg>
