<svg width="25" height="15" viewBox="0 0 25 15" fill="none" xmlns="http://www.w3.org/2000/svg">
<rect x="0.5" y="0.5" width="24" height="14" rx="4.5" fill="white"/>
<path d="M8.75 7.5C8.75 8.53562 7.91062 9.375 6.875 9.375C5.83938 9.375 5 8.53562 5 7.5C5 6.46438 5.83938 5.625 6.875 5.625C7.91062 5.625 8.75 6.46438 8.75 7.5ZM14.375 7.5C14.375 8.53562 13.5356 9.375 12.5 9.375C11.4644 9.375 10.625 8.53562 10.625 7.5C10.625 6.46438 11.4644 5.625 12.5 5.625C13.5356 5.625 14.375 6.46438 14.375 7.5ZM20 7.5C20 8.53562 19.1606 9.375 18.125 9.375C17.0894 9.375 16.25 8.53562 16.25 7.5C16.25 6.46438 17.0894 5.625 18.125 5.625C19.1606 5.625 20 6.46438 20 7.5Z" fill="#ADADAD"/>
<rect x="0.5" y="0.5" width="24" height="14" rx="4.5" stroke="#BCC2CE"/>
</svg>
