<svg width="24" height="24" viewBox="0 0 24 24" fill="none" xmlns="http://www.w3.org/2000/svg">
<g clip-path="url(#clip0_24692_86373)">
<path d="M23.873 9.81C23.959 9.559 24 9.302 24 9.047C24 8.277 23.621 7.533 22.945 7.065C20.793 5.573 21.077 5.948 20.265 3.521C19.926 2.507 18.944 1.821 17.836 1.825C15.182 1.833 15.643 1.978 13.501 0.471C13.055 0.157 12.527 0 12 0C11.473 0 10.945 0.157 10.498 0.471C8.344 1.986 8.811 1.833 6.163 1.825C5.056 1.822 4.073 2.508 3.734 3.521C2.922 5.954 3.201 5.576 1.054 7.065C0.379 7.534 0 8.277 0 9.047C0 9.302 0.041 9.559 0.127 9.81C0.957 12.238 0.954 11.773 0.127 14.19C0.041 14.441 0 14.699 0 14.953C0 15.723 0.379 16.467 1.055 16.935C3.202 18.424 2.924 18.049 3.735 20.479C4.074 21.493 5.056 22.179 6.164 22.175C8.818 22.166 8.357 22.023 10.499 23.529C10.945 23.843 11.473 24 12 24C12.527 24 13.055 23.843 13.502 23.529C15.643 22.023 15.183 22.167 17.837 22.175C18.944 22.178 19.927 21.492 20.266 20.479C21.078 18.051 20.794 18.426 22.946 16.935C23.621 16.467 24 15.723 24 14.953C24 14.699 23.959 14.441 23.873 14.19C23.042 11.763 23.046 12.227 23.873 9.81ZM16.323 12.667C16.584 12.747 17 12.917 17 13.422C17 13.758 16.75 14.203 15.864 14.167C15.25 14.142 14.031 14.266 13.375 14.609C13.828 16.438 13.719 19 12.531 19C11.734 19 11.583 18.097 11.343 17.266C10.484 14.281 8.766 13.734 7 13.464V8.5C10.344 8.5 11.25 7 13.752 7C15.352 7 16.178 7.867 16.178 8.333C16.178 8.5 16.042 8.619 15.699 8.645C15.294 8.676 15.332 9.051 15.715 9.122C16.349 9.239 16.628 9.579 16.628 9.893C16.628 10.158 16.43 10.404 16.079 10.484C15.661 10.579 15.747 10.863 16.095 10.89C16.661 10.935 16.939 11.272 16.939 11.595C16.939 11.877 16.727 12.149 16.309 12.205C15.879 12.263 16.019 12.573 16.323 12.667Z" fill="black"/>
</g>
<defs>
<clipPath id="clip0_24692_86373">
<rect width="24" height="24" fill="white"/>
</clipPath>
</defs>
</svg>
