<svg width="24" height="24" viewBox="0 0 24 24" fill="none" xmlns="http://www.w3.org/2000/svg">
<g clip-path="url(#clip0_24692_86369)">
<path d="M23.873 9.81C23.959 9.559 24 9.302 24 9.047C24 8.277 23.621 7.533 22.945 7.065C20.793 5.573 21.077 5.948 20.265 3.521C19.926 2.507 18.944 1.821 17.836 1.825C15.182 1.833 15.643 1.978 13.501 0.471C13.055 0.157 12.527 0 12 0C11.473 0 10.945 0.157 10.498 0.471C8.344 1.986 8.811 1.833 6.163 1.825C5.056 1.822 4.073 2.508 3.734 3.521C2.922 5.954 3.201 5.576 1.054 7.065C0.379 7.534 0 8.277 0 9.047C0 9.302 0.041 9.559 0.127 9.81C0.957 12.238 0.954 11.773 0.127 14.19C0.041 14.441 0 14.699 0 14.953C0 15.723 0.379 16.467 1.055 16.935C3.202 18.424 2.924 18.049 3.735 20.479C4.074 21.493 5.056 22.179 6.164 22.175C8.818 22.166 8.357 22.023 10.499 23.529C10.945 23.843 11.473 24 12 24C12.527 24 13.055 23.843 13.502 23.529C15.643 22.023 15.183 22.167 17.837 22.175C18.944 22.178 19.927 21.492 20.266 20.479C21.078 18.051 20.794 18.426 22.946 16.935C23.621 16.467 24 15.723 24 14.953C24 14.699 23.959 14.441 23.873 14.19C23.042 11.763 23.046 12.227 23.873 9.81ZM16.308 11.794C16.726 11.85 16.938 12.122 16.938 12.404C16.938 12.727 16.661 13.064 16.094 13.109C15.746 13.136 15.66 13.421 16.078 13.515C16.429 13.595 16.627 13.841 16.627 14.106C16.627 14.42 16.348 14.76 15.714 14.877C15.331 14.947 15.293 15.322 15.698 15.354C16.042 15.38 16.177 15.5 16.177 15.666C16.177 16.132 15.351 16.999 13.751 16.999C11.25 17 10.344 15.5 7 15.5V10.536C8.766 10.265 10.484 9.719 11.344 6.734C11.583 5.903 11.734 5 12.531 5C13.719 5 13.828 7.562 13.375 9.391C14.031 9.735 15.25 9.859 15.864 9.833C16.75 9.797 17 10.242 17 10.578C17 11.083 16.584 11.253 16.323 11.333C16.019 11.427 15.879 11.737 16.308 11.794Z" fill="black"/>
</g>
<defs>
<clipPath id="clip0_24692_86369">
<rect width="24" height="24" fill="white"/>
</clipPath>
</defs>
</svg>
