<svg width="428" height="90" viewBox="0 0 428 90" fill="none" xmlns="http://www.w3.org/2000/svg">
<g clip-path="url(#clip0_28351_62521)">
<g opacity="0.5">
<rect width="341.498" height="400.524" rx="34.7045" transform="matrix(0.65959 -0.751625 -0.867807 -0.496902 602.406 128.246)" fill="url(#paint0_linear_28351_62521)"/>
<rect width="341.498" height="400.524" rx="34.7045" transform="matrix(0.65959 -0.751625 -0.867807 -0.496902 515.492 136.993)" fill="url(#paint1_linear_28351_62521)"/>
</g>
<g opacity="0.2">
<path opacity="0.5" d="M358.09 2.3982C358.478 2.07043 359.073 2.21173 359.273 2.67926L359.888 4.11881C360.026 4.44274 360.37 4.62827 360.717 4.56623L362.258 4.29051C362.758 4.20097 363.203 4.62077 363.142 5.12552L362.955 6.67967C362.912 7.02939 363.117 7.3619 363.449 7.48154L364.921 8.01321C365.399 8.18589 365.574 8.77171 365.269 9.17843L364.33 10.4307C364.119 10.7125 364.13 11.1029 364.357 11.3722L365.366 12.5688C365.694 12.9574 365.552 13.5523 365.085 13.752L363.645 14.3669C363.321 14.5053 363.136 14.849 363.198 15.1957L363.474 16.7366C363.563 17.2371 363.143 17.6816 362.639 17.6208L361.085 17.4336C360.735 17.3914 360.402 17.5963 360.283 17.9276L359.751 19.3999C359.578 19.8781 358.993 20.0532 358.586 19.7481L357.333 18.8089C357.052 18.5976 356.661 18.6087 356.392 18.8358L355.195 19.845C354.807 20.1728 354.212 20.0315 354.012 19.564L353.397 18.1244C353.259 17.8005 352.915 17.615 352.568 17.677L351.028 17.9527C350.527 18.0423 350.083 17.6225 350.143 17.1177L350.331 15.5636C350.373 15.2139 350.168 14.8814 349.837 14.7617L348.364 14.23C347.886 14.0574 347.711 13.4715 348.016 13.0648L348.955 11.8125C349.167 11.5307 349.155 11.1403 348.928 10.871L347.919 9.67444C347.591 9.28581 347.733 8.69094 348.2 8.49123L349.64 7.87631C349.964 7.73793 350.149 7.39426 350.087 7.04752L349.811 5.50661C349.722 5.00616 350.142 4.56165 350.646 4.62246L352.201 4.80969C352.55 4.85182 352.883 4.64696 353.003 4.31565L353.534 2.84333C353.707 2.36515 354.293 2.19009 354.699 2.49513L355.952 3.43435C356.234 3.64569 356.624 3.63453 356.893 3.40743L358.09 2.3982Z" fill="#7E54F1"/>
<path d="M360.558 7.64829C360.987 7.38385 361.549 7.51742 361.814 7.94664C362.078 8.37585 361.945 8.93817 361.515 9.20262L352.708 14.6292C352.278 14.8937 351.716 14.7601 351.452 14.3309C351.187 13.9016 351.321 13.3393 351.75 13.0749L360.558 7.64829Z" fill="#7E54F1"/>
<path d="M356.828 14.2928C356.984 13.6388 357.64 13.2346 358.294 13.3899C358.948 13.5453 359.352 14.2014 359.196 14.8553C359.041 15.5093 358.385 15.9136 357.731 15.7582C357.077 15.6029 356.673 14.9468 356.828 14.2928Z" fill="#7E54F1"/>
<path d="M355.555 6.48465C354.902 6.3293 354.245 6.73353 354.09 7.38752C353.935 8.04151 354.339 8.69761 354.993 8.85295C355.647 9.0083 356.303 8.60408 356.458 7.95009C356.614 7.2961 356.209 6.64 355.555 6.48465Z" fill="#7E54F1"/>
</g>
<g opacity="0.2">
<path opacity="0.5" d="M421.368 39.7976C421.792 39.44 422.441 39.5942 422.658 40.1042L423.329 41.6745C423.48 42.0279 423.855 42.2302 424.233 42.1626L425.914 41.8618C426.46 41.7641 426.945 42.2221 426.879 42.7727L426.674 44.468C426.629 44.8495 426.852 45.2122 427.213 45.3428L428.82 45.9227C429.341 46.1111 429.532 46.7502 429.199 47.1938L428.175 48.5599C427.944 48.8673 427.956 49.2932 428.204 49.5869L429.305 50.8922C429.663 51.3162 429.508 51.9651 428.998 52.183L427.428 52.8537C427.075 53.0047 426.872 53.3796 426.94 53.7578L427.241 55.4387C427.339 55.9847 426.881 56.4696 426.33 56.4032L424.635 56.199C424.253 56.153 423.89 56.3765 423.76 56.7379L423.18 58.344C422.992 58.8656 422.352 59.0566 421.909 58.7238L420.543 57.6993C420.235 57.4687 419.809 57.4809 419.516 57.7287L418.21 58.8296C417.786 59.1871 417.138 59.033 416.92 58.523L416.249 56.9526C416.098 56.5993 415.723 56.3969 415.345 56.4646L413.664 56.7653C413.118 56.863 412.633 56.4051 412.699 55.8545L412.904 54.1591C412.95 53.7776 412.726 53.4149 412.365 53.2844L410.759 52.7044C410.237 52.516 410.046 51.877 410.379 51.4333L411.403 50.0672C411.634 49.7598 411.622 49.334 411.374 49.0402L410.273 47.7349C409.916 47.311 410.07 46.662 410.58 46.4442L412.15 45.7734C412.503 45.6224 412.706 45.2476 412.638 44.8693L412.337 43.1884C412.24 42.6425 412.698 42.1576 413.248 42.2239L414.944 42.4282C415.325 42.4741 415.688 42.2506 415.818 41.8892L416.398 40.2831C416.587 39.7615 417.226 39.5705 417.669 39.9033L419.035 40.9279C419.343 41.1584 419.769 41.1462 420.062 40.8985L421.368 39.7976Z" fill="#7E54F1"/>
<path d="M424.058 45.5245C424.527 45.236 425.14 45.3817 425.428 45.85C425.717 46.3182 425.571 46.9316 425.103 47.2201L415.495 53.1397C415.027 53.4282 414.413 53.2824 414.125 52.8142C413.836 52.346 413.982 51.7326 414.45 51.4441L424.058 45.5245Z" fill="#7E54F1"/>
<path d="M419.99 52.7727C420.159 52.0593 420.875 51.6183 421.588 51.7878C422.302 51.9572 422.743 52.673 422.573 53.3864C422.404 54.0998 421.688 54.5407 420.975 54.3713C420.261 54.2018 419.82 53.4861 419.99 52.7727Z" fill="#7E54F1"/>
<path d="M418.602 44.2551C417.888 44.0857 417.172 44.5266 417.003 45.24C416.834 45.9534 417.275 46.6692 417.988 46.8386C418.701 47.0081 419.417 46.5671 419.587 45.8537C419.756 45.1403 419.315 44.4246 418.602 44.2551Z" fill="#7E54F1"/>
</g>
<g opacity="0.2" clip-path="url(#clip1_28351_62521)">
<path d="M397.181 77.8406C397.292 77.4238 397.045 76.9954 396.628 76.8837L393.986 76.1757C393.569 76.0641 393.141 76.3114 393.029 76.7282L391.329 83.0734C391.165 83.6859 391.76 84.2284 392.355 84.0082L395.499 82.8435C395.737 82.7555 395.917 82.5578 395.982 82.3131L397.181 77.8406Z" fill="url(#paint2_linear_28351_62521)"/>
<path d="M401.013 78.8669C401.124 78.4502 401.553 78.2028 401.969 78.3145L404.612 79.0225C405.029 79.1342 405.276 79.5626 405.164 79.9793L403.464 86.3245C403.3 86.9371 402.513 87.1092 402.108 86.6211L399.968 84.0404C399.806 83.8454 399.749 83.5841 399.814 83.3394L401.013 78.8669Z" fill="url(#paint3_linear_28351_62521)"/>
<path d="M400.932 65.5907C401.761 65.3559 402.652 65.5946 403.252 66.2123L405.354 68.3753L407.515 70.4941C408.126 71.0931 408.362 71.9775 408.131 72.8013L407.308 75.7315L406.555 78.6807C406.344 79.5097 405.697 80.1577 404.869 80.371L401.938 81.1254L399.036 81.9476C398.207 82.1824 397.316 81.9437 396.716 81.326L394.614 79.163L392.453 77.0442C391.842 76.4452 391.606 75.5608 391.837 74.737L392.66 71.8068L393.413 68.8577C393.624 68.0286 394.271 67.3807 395.1 67.1674L398.03 66.4129L400.932 65.5907Z" fill="url(#paint4_radial_28351_62521)"/>
<path d="M400.317 67.0312C401.146 66.7964 402.037 67.0351 402.637 67.6528L404.2 69.2618L405.81 70.8398C406.421 71.4389 406.657 72.3233 406.425 73.147L405.812 75.3307L405.251 77.5285C405.04 78.3575 404.393 79.0055 403.565 79.2188L401.382 79.7806L399.223 80.3923C398.395 80.6271 397.504 80.3884 396.904 79.7707L395.34 78.1617L393.73 76.5837C393.119 75.9846 392.884 75.1002 393.115 74.2765L393.728 72.0928L394.289 69.8951C394.5 69.066 395.147 68.418 395.976 68.2047L398.158 67.6429L400.317 67.0312Z" fill="#808080"/>
<path d="M400.475 67.3013C401.304 67.0665 402.195 67.3052 402.795 67.9229L404.282 69.4528L405.812 70.9535C406.423 71.5526 406.659 72.437 406.428 73.2608L405.845 75.3378L405.311 77.4282C405.1 78.2573 404.453 78.9052 403.625 79.1185L401.549 79.6528L399.496 80.2344C398.667 80.4692 397.777 80.2305 397.176 79.6128L395.69 78.0829L394.159 76.5822C393.548 75.9832 393.312 75.0988 393.543 74.275L394.127 72.198L394.66 70.1076C394.872 69.2785 395.518 68.6306 396.347 68.4173L398.423 67.8829L400.475 67.3013Z" fill="url(#paint5_linear_28351_62521)"/>
<path fill-rule="evenodd" clip-rule="evenodd" d="M396.431 77.9757C396.373 78.0231 396.294 77.9874 396.217 77.8765C396.161 77.7949 396.107 77.7107 396.055 77.624L396.254 77.5008C396.302 77.5815 396.352 77.6598 396.404 77.7359C396.476 77.8402 396.49 77.9279 396.431 77.9757ZM396.737 77.6862C396.681 77.7311 396.611 77.7031 396.543 77.6042C396.498 77.5383 396.455 77.4706 396.414 77.4011L396.602 77.2842C396.641 77.3497 396.682 77.4135 396.724 77.4756C396.787 77.5683 396.794 77.6408 396.737 77.6863L396.737 77.6862ZM396.659 78.298C396.746 78.2125 396.744 78.0548 396.654 77.9021C396.77 77.9974 396.903 78.0175 396.996 77.9283C397.117 77.8092 397.083 77.6246 396.928 77.407C396.811 77.2412 396.709 77.0653 396.622 76.8813L395.675 77.3491C395.792 77.5981 395.931 77.8358 396.091 78.0593C396.307 78.3576 396.536 78.4207 396.659 78.2981L396.659 78.298ZM397.632 79.3954C397.758 79.4606 397.886 79.5195 398.017 79.5721C397.966 79.1777 397.961 78.7784 398.003 78.3826C397.9 78.3238 397.8 78.2595 397.704 78.19C397.365 78.3961 397.003 78.5591 396.625 78.6752C396.729 78.7741 396.836 78.8673 396.948 78.9546C397.012 78.9253 397.075 78.8949 397.138 78.8632C397.296 78.9814 397.462 79.0883 397.635 79.1831C397.633 79.2536 397.632 79.3244 397.632 79.3955L397.632 79.3954ZM397.648 78.9602C397.541 78.8982 397.436 78.8311 397.335 78.7588C397.459 78.6878 397.58 78.6124 397.697 78.5325C397.675 78.6732 397.658 78.8158 397.648 78.9603L397.648 78.9602ZM399.48 79.5687C399.49 79.2307 398.793 79.2174 398.839 79.0186C398.854 78.9535 398.918 78.936 398.994 78.9521C399.078 78.9699 399.131 79.0189 399.127 79.0876C399.246 79.1052 399.365 79.1171 399.485 79.123C399.48 78.9177 399.303 78.7988 399.039 78.7485C398.785 78.7003 398.568 78.7402 398.499 78.9317C398.365 79.307 399.114 79.3771 399.09 79.5524C399.081 79.614 399.005 79.6426 398.895 79.6223C398.789 79.6026 398.724 79.5462 398.732 79.464C398.604 79.434 398.478 79.398 398.353 79.3558C398.29 79.5618 398.516 79.7651 398.868 79.8292C399.25 79.8966 399.475 79.7455 399.48 79.5687L399.48 79.5687ZM399.828 79.8873C399.962 79.8822 400.096 79.8708 400.23 79.8532L400.104 78.7951C400.001 78.8085 399.899 78.8172 399.796 78.8211L399.828 79.8873ZM400.466 79.2711C400.518 79.5824 400.907 79.7459 401.386 79.5434C401.769 79.3795 401.97 79.0755 401.921 78.8333C401.8 78.9147 401.675 78.9896 401.546 79.0577C401.528 79.1696 401.434 79.2683 401.294 79.328C401.066 79.4249 400.874 79.3571 400.823 79.1771C400.772 78.9956 400.874 78.8433 401.065 78.7618C401.185 78.7108 401.299 78.7034 401.394 78.7555C401.512 78.693 401.628 78.6242 401.739 78.5495C401.54 78.4071 401.265 78.4204 400.981 78.5417C400.633 78.691 400.413 78.9545 400.466 79.2711Z" fill="#959595"/>
<g opacity="0.8">
<path fill-rule="evenodd" clip-rule="evenodd" d="M396.044 74.9117C396.065 74.9173 396.087 74.9145 396.107 74.903C396.138 74.8844 396.156 74.8484 396.152 74.8117C396.083 74.1775 396.228 73.5495 396.582 72.9451C396.6 72.9134 396.599 72.8738 396.579 72.8446C396.559 72.8157 396.524 72.8032 396.49 72.8126C396.078 72.933 395.76 73.2811 395.659 73.721C395.558 74.1609 395.693 74.6103 396.012 74.8943C396.021 74.903 396.033 74.9086 396.044 74.9117ZM396.318 73.077C396.073 73.5651 395.956 74.0669 395.967 74.5751C395.811 74.3446 395.757 74.0487 395.824 73.758C395.891 73.4639 396.073 73.2182 396.318 73.077Z" fill="#808080"/>
<path fill-rule="evenodd" clip-rule="evenodd" d="M398.977 77.7672C399.647 77.9467 400.328 77.9462 400.956 77.7658C402.129 77.4282 403.001 76.4906 403.349 75.1932C403.609 74.2238 403.486 73.211 403.003 72.341C402.523 71.4758 401.75 70.863 400.827 70.6157C398.925 70.1059 397.032 71.1434 396.42 73.0297L396.375 73.0943C396.374 73.0954 396.373 73.0965 396.372 73.0977C396.358 73.1195 396.347 73.1375 396.336 73.1537C396.252 73.2831 396.248 73.2957 396.163 73.6192C396.149 73.6721 396.132 73.7338 396.113 73.8064C395.949 74.4155 396.085 75.6448 396.763 76.3705L396.833 76.4616C396.835 76.4641 396.837 76.4665 396.839 76.4688C397.422 77.0736 398.119 77.5107 398.856 77.7327C398.896 77.7445 398.937 77.756 398.977 77.7672ZM400.781 70.7874C402.619 71.2798 403.697 73.2365 403.184 75.1491C402.853 76.3838 402.026 77.2752 400.914 77.595C399.589 77.9761 398.076 77.4975 396.965 76.3454L396.894 76.2548C396.893 76.2528 396.891 76.2508 396.889 76.2489C396.261 75.5787 396.129 74.4054 396.277 73.8505C396.297 73.778 396.313 73.7157 396.327 73.6629C396.409 73.3552 396.409 73.3552 396.477 73.2506C396.487 73.2344 396.499 73.2165 396.513 73.195L396.565 73.1203C396.571 73.1127 396.575 73.1043 396.578 73.0955C397.156 71.2928 398.963 70.3003 400.781 70.7874Z" fill="#808080"/>
<path fill-rule="evenodd" clip-rule="evenodd" d="M398.649 77.3603C400.443 77.8411 402.224 77.0315 402.619 75.5565C403.014 74.081 401.877 72.4899 400.083 72.0091C398.289 71.5285 396.508 72.3375 396.112 73.813C395.717 75.288 396.855 76.8797 398.649 77.3603ZM400.046 72.1454C401.764 72.6059 402.857 74.1194 402.482 75.5197C402.107 76.9197 400.404 77.684 398.685 77.2235C396.967 76.7631 395.874 75.2496 396.249 73.8497C396.624 72.4493 398.327 71.685 400.046 72.1454Z" fill="#808080"/>
<path fill-rule="evenodd" clip-rule="evenodd" d="M398.726 77.0625C400.357 77.4996 401.96 76.8217 402.301 75.5513C402.641 74.2809 401.591 72.8916 399.96 72.4546C398.329 72.0175 396.726 72.6959 396.385 73.9663C396.045 75.2367 397.095 76.6255 398.726 77.0625ZM399.916 72.6193C401.454 73.0313 402.448 74.3263 402.132 75.506C401.816 76.6853 400.307 77.3098 398.77 76.8978C397.232 76.4858 396.238 75.1908 396.554 74.0116C396.87 72.8319 398.379 72.2073 399.916 72.6193Z" fill="#808080"/>
<path fill-rule="evenodd" clip-rule="evenodd" d="M398.665 77.0456C398.864 77.0991 399.068 77.1368 399.271 77.1567C399.273 77.1571 399.276 77.1571 399.279 77.1569C400.751 77.1497 401.887 76.5299 401.92 75.7149C401.929 75.4951 401.857 75.2794 401.707 75.0747C401.809 74.8182 401.866 74.5484 401.877 74.2721C401.884 74.1069 401.874 73.9411 401.848 73.7787C401.846 73.768 401.842 73.7583 401.836 73.7499C401.414 73.1323 400.708 72.6542 399.899 72.4376C399.174 72.2432 398.422 72.2698 397.782 72.5128C397.143 72.7562 396.668 73.1944 396.447 73.7466C396.445 73.7519 396.444 73.7571 396.443 73.7624C396.429 73.8526 396.42 73.9446 396.417 74.0356C396.406 74.3119 396.44 74.5856 396.521 74.8502C396.478 74.8992 396.435 74.9213 396.403 74.9731C396.392 74.9905 396.42 75.0586 396.425 75.0786C396.577 75.5166 396.829 75.8993 397.207 76.2735C397.608 76.6309 398.113 76.8977 398.665 77.0456ZM399.281 77.0142C399.087 76.9947 398.892 76.9589 398.701 76.9078C397.646 76.625 396.824 75.9149 396.548 75.0509C396.579 75.0045 396.615 74.9595 396.655 74.9156C396.672 74.897 396.678 74.87 396.67 74.8455C396.586 74.5854 396.55 74.3151 396.56 74.0417C396.564 73.9588 396.572 73.8749 396.584 73.7924C397.021 72.7143 398.428 72.1915 399.862 72.5758C400.632 72.7821 401.304 73.2336 401.708 73.8167C401.731 73.9648 401.74 74.1157 401.734 74.2661C401.722 74.539 401.664 74.8056 401.559 75.0577C401.549 75.0812 401.553 75.1084 401.569 75.1285C401.714 75.3162 401.784 75.511 401.776 75.7088C401.746 76.4333 400.651 77.0062 399.281 77.0142Z" fill="#808080"/>
<path fill-rule="evenodd" clip-rule="evenodd" d="M398.672 77.0482C398.871 77.1015 399.075 77.1384 399.277 77.158C399.279 77.1582 399.281 77.1583 399.283 77.1582C400.752 77.1444 401.886 76.5143 401.923 75.6932C401.933 75.4606 401.855 75.2332 401.691 75.018C401.689 75.0148 401.686 75.0119 401.683 75.0094C401.504 74.8578 401.287 74.783 401.037 74.7852C401.212 74.5701 401.313 74.3046 401.325 74.0245C401.357 73.3138 400.809 72.713 400.105 72.6852C399.781 72.6723 399.471 72.7809 399.225 72.9926C398.996 72.7488 398.689 72.6089 398.354 72.5955C397.875 72.5763 397.396 72.8845 397.163 73.3614C396.961 73.7729 396.985 74.2207 397.222 74.5875C396.985 74.5605 396.746 74.6408 396.57 74.8127C396.569 74.8134 396.568 74.8143 396.567 74.8154C396.514 74.8746 396.467 74.9364 396.428 74.9999C396.419 75.0139 396.416 75.0314 396.421 75.0475C396.554 75.4967 396.829 75.9203 397.22 76.272C397.619 76.632 398.121 76.9007 398.672 77.0482ZM399.286 77.0415C399.091 77.0228 398.894 76.9869 398.702 76.9355C397.638 76.6504 396.812 75.9249 396.539 75.0393C396.572 74.9902 396.609 74.9415 396.651 74.8951C396.835 74.7165 397.099 74.6542 397.341 74.7323C397.365 74.7398 397.392 74.7307 397.407 74.709C397.421 74.6877 397.42 74.6591 397.404 74.639C397.113 74.2885 397.062 73.8299 397.266 73.4127C397.48 72.9764 397.915 72.6944 398.349 72.7115C398.671 72.7244 398.965 72.8669 399.177 73.1124C399.186 73.1244 399.201 73.1313 399.217 73.1321C399.232 73.1333 399.248 73.1276 399.259 73.1168C399.489 72.9013 399.788 72.7889 400.1 72.8011C400.74 72.8267 401.239 73.3734 401.21 74.0197C401.197 74.32 401.072 74.6011 400.858 74.8112C400.843 74.8259 400.837 74.8475 400.842 74.8675C400.849 74.8951 400.877 74.9139 400.905 74.9105C401.185 74.8766 401.414 74.9368 401.603 75.0946C401.748 75.2857 401.816 75.4856 401.808 75.6884C401.775 76.4341 400.667 77.0279 399.286 77.0415Z" fill="#808080"/>
<path fill-rule="evenodd" clip-rule="evenodd" d="M398.42 76.8202C398.627 76.8757 398.848 76.9085 399.079 76.917C400.071 76.9524 400.932 76.5138 401.27 75.7989C401.385 75.5554 401.324 75.436 401.277 75.386C401.2 75.3046 401.058 75.297 400.907 75.366C399.834 75.8552 398.426 75.8047 397.404 75.24C397.26 75.1601 397.118 75.1578 397.034 75.2338C396.982 75.2797 396.909 75.3947 397.001 75.6457C397.208 76.211 397.736 76.637 398.42 76.8202ZM401.146 75.4416C401.166 75.4468 401.182 75.4557 401.194 75.4684C401.239 75.5157 401.229 75.6181 401.167 75.7489C400.849 76.4214 400.031 76.8337 399.084 76.7995C398.137 76.7658 397.362 76.2961 397.109 75.6029C397.059 75.4683 397.059 75.3657 397.108 75.3216C397.155 75.2798 397.249 75.2886 397.349 75.3431C398.4 75.9241 399.848 75.9761 400.952 75.4728C401.027 75.439 401.097 75.4284 401.146 75.4416Z" fill="#808080"/>
<path d="M399.132 75.2583C399.159 75.2657 399.19 75.2578 399.209 75.2359C399.27 75.1658 399.371 75.1447 399.458 75.1831C399.496 75.1998 399.541 75.1833 399.558 75.1463C399.575 75.1092 399.557 75.065 399.519 75.0483C399.37 74.9827 399.199 75.019 399.093 75.1384C399.066 75.1691 399.07 75.2157 399.102 75.2428C399.111 75.2502 399.121 75.2555 399.132 75.2583Z" fill="#808080"/>
<path d="M399.138 75.2612C399.158 75.2666 399.18 75.2653 399.196 75.2559C399.226 75.24 399.23 75.206 399.206 75.1799C399.114 75.0808 398.955 75.0328 398.82 75.063C398.785 75.071 398.768 75.1013 398.783 75.1308C398.798 75.1601 398.838 75.1778 398.874 75.1698C398.952 75.1521 399.045 75.1802 399.099 75.2382C399.109 75.2494 399.123 75.2572 399.138 75.2612Z" fill="#808080"/>
<path d="M399.045 75.7141C399.048 75.715 399.051 75.7152 399.054 75.7147C399.079 75.7126 399.104 75.6788 399.109 75.6398C399.137 75.4217 399.148 75.3336 399.166 75.1664C399.171 75.1272 399.154 75.0982 399.129 75.1018C399.104 75.1054 399.08 75.1403 399.076 75.179C399.057 75.3443 399.047 75.4319 399.018 75.6481C399.014 75.6818 399.025 75.709 399.045 75.7141Z" fill="#808080"/>
<path d="M401.175 75.6783C401.029 75.788 400.857 75.8709 400.678 75.9372C400.497 76.0033 400.309 76.053 400.118 76.0936C400.098 76.0976 400.086 76.1165 400.091 76.1349C400.096 76.1529 400.114 76.1646 400.133 76.1618C400.33 76.1329 400.526 76.095 400.718 76.0388C400.909 75.9821 401.098 75.9069 401.268 75.7956C401.302 75.7731 401.31 75.7283 401.286 75.6949C401.261 75.6619 401.214 75.6531 401.179 75.6751C401.178 75.6761 401.177 75.6771 401.176 75.678L401.175 75.6783Z" fill="#808080"/>
<path d="M396.941 75.6088C397.098 75.7338 397.275 75.8244 397.455 75.8971C397.636 75.97 397.821 76.025 398.008 76.0712C398.025 76.0753 398.042 76.0654 398.046 76.0487C398.05 76.0329 398.041 76.017 398.025 76.0118C397.844 75.9533 397.666 75.8863 397.497 75.8041C397.329 75.722 397.169 75.6238 397.036 75.5021L397.035 75.502C397.006 75.4749 396.96 75.4761 396.933 75.5048C396.905 75.5331 396.908 75.5783 396.937 75.6054C396.938 75.6063 396.939 75.6076 396.941 75.6088Z" fill="#808080"/>
<path fill-rule="evenodd" clip-rule="evenodd" d="M398.665 77.0456C398.864 77.0991 399.068 77.1368 399.271 77.1567C399.273 77.1571 399.276 77.1571 399.279 77.1569C400.751 77.1497 401.887 76.5299 401.92 75.7149C401.929 75.4951 401.857 75.2794 401.707 75.0747C401.809 74.8182 401.866 74.5484 401.877 74.2721C401.884 74.1069 401.874 73.9411 401.848 73.7787C401.846 73.768 401.842 73.7583 401.836 73.7499C401.414 73.1323 400.708 72.6542 399.899 72.4376C399.174 72.2432 398.422 72.2698 397.782 72.5128C397.143 72.7562 396.668 73.1944 396.447 73.7466C396.445 73.7519 396.444 73.7571 396.443 73.7624C396.429 73.8526 396.42 73.9446 396.417 74.0356C396.406 74.3119 396.44 74.5856 396.521 74.8502C396.478 74.8992 396.441 74.9501 396.408 75.0019C396.397 75.0193 396.416 75.0473 396.422 75.0673C396.589 75.5128 396.827 75.8816 397.207 76.2735C397.608 76.6309 398.113 76.8977 398.665 77.0456ZM399.281 77.0142C399.087 76.9947 398.892 76.9589 398.701 76.9078C397.646 76.625 396.824 75.9149 396.548 75.0509C396.579 75.0045 396.615 74.9595 396.655 74.9156C396.672 74.897 396.678 74.87 396.67 74.8455C396.586 74.5854 396.55 74.3151 396.56 74.0417C396.564 73.9588 396.572 73.8749 396.584 73.7924C397.021 72.7143 398.428 72.1915 399.862 72.5758C400.632 72.7821 401.304 73.2336 401.708 73.8167C401.731 73.9648 401.74 74.1157 401.734 74.2661C401.722 74.539 401.664 74.8056 401.559 75.0577C401.549 75.0812 401.553 75.1084 401.569 75.1285C401.714 75.3162 401.784 75.511 401.776 75.7088C401.746 76.4333 400.651 77.0062 399.281 77.0142Z" fill="#808080"/>
<path fill-rule="evenodd" clip-rule="evenodd" d="M403.087 75.6826C403.117 75.6908 403.148 75.6966 403.18 75.7001C403.385 75.7236 403.59 75.6485 403.757 75.4887C403.92 75.3324 404.026 75.1126 404.058 74.8705C404.124 74.3649 403.836 73.9149 403.418 73.8667C402.999 73.8188 402.605 74.1909 402.54 74.6966C402.509 74.9387 402.556 75.1762 402.674 75.3647C402.777 75.5277 402.921 75.6381 403.087 75.6826ZM403.464 74.0575C403.751 74.1344 403.938 74.473 403.889 74.851C403.863 75.0511 403.776 75.2312 403.643 75.3586C403.514 75.4819 403.358 75.5403 403.203 75.5225C403.049 75.5049 402.911 75.413 402.818 75.264C402.722 75.1102 402.683 74.9157 402.709 74.7156C402.762 74.3083 403.07 74.0072 403.395 74.0442C403.418 74.0471 403.441 74.0515 403.464 74.0575Z" fill="#808080"/>
<path fill-rule="evenodd" clip-rule="evenodd" d="M403.296 75.5794C403.317 75.5851 403.339 75.5892 403.36 75.5917C403.416 75.5983 403.473 75.5944 403.529 75.5793C403.532 75.5787 403.535 75.5778 403.538 75.5766C403.817 75.4642 404.026 75.1706 404.069 74.8288C404.119 74.4382 403.942 74.0647 403.64 73.9201C403.636 73.9183 403.631 73.9167 403.626 73.9154C403.608 73.9111 403.591 73.9078 403.574 73.9057C403.241 73.8669 402.922 74.2128 402.863 74.6776C402.835 74.8983 402.869 75.114 402.958 75.2843C403.039 75.4396 403.158 75.5424 403.296 75.5794ZM403.492 75.4397C403.454 75.4493 403.416 75.4518 403.379 75.4473C403.259 75.433 403.155 75.3502 403.083 75.2142C403.007 75.0697 402.979 74.8852 403.004 74.694C403.052 74.3088 403.3 74.0201 403.555 74.0502C403.565 74.0515 403.575 74.0532 403.585 74.0552C403.829 74.1764 403.97 74.4863 403.929 74.8124C403.893 75.0999 403.722 75.3454 403.492 75.4397Z" fill="#808080"/>
<path fill-rule="evenodd" clip-rule="evenodd" d="M401.233 71.9984C401.322 72.0224 401.448 72.001 401.609 71.9336C401.861 71.8289 402.127 71.8211 402.353 71.8276C402.371 71.8277 402.389 71.8231 402.404 71.8139C402.554 71.7181 402.612 71.5591 402.551 71.4095C402.486 71.2474 402.276 71.0986 401.956 71.1307C401.761 71.1401 401.403 71.2089 401.184 71.562C401.078 71.7339 401.063 71.8621 401.139 71.9438C401.164 71.9701 401.195 71.9883 401.233 71.9984ZM402.324 71.6602C402.097 71.6554 401.807 71.6673 401.535 71.7809C401.353 71.857 401.278 71.8426 401.268 71.8347C401.268 71.8348 401.249 71.789 401.336 71.6494C401.515 71.3596 401.811 71.3043 401.972 71.2969C401.974 71.2967 401.975 71.2965 401.977 71.2964C402.205 71.2731 402.347 71.3647 402.389 71.4656C402.417 71.5374 402.394 71.607 402.324 71.6602Z" fill="#808080"/>
<path fill-rule="evenodd" clip-rule="evenodd" d="M397.59 71.6591C397.69 71.6858 397.811 71.6573 397.866 71.5548C398.01 71.286 398.29 71.0427 398.596 70.9209C398.622 70.9103 398.642 70.8869 398.648 70.8584C398.653 70.8304 398.644 70.8014 398.624 70.7816C398.434 70.597 398.244 70.5241 398.059 70.5646C397.812 70.619 397.594 70.8788 397.411 71.3376C397.366 71.4509 397.425 71.5848 397.545 71.6423C397.559 71.6494 397.575 71.655 397.59 71.6591ZM398.41 70.8202C398.119 70.9679 397.861 71.2099 397.719 71.4754C397.704 71.5038 397.652 71.5066 397.618 71.4902C397.583 71.4733 397.554 71.4316 397.566 71.4002C397.725 71.0024 397.908 70.7702 398.094 70.7296C398.193 70.7076 398.299 70.7384 398.41 70.8202Z" fill="#808080"/>
<path opacity="0.3" d="M398.423 70.7663C397.961 70.9602 397.716 71.213 397.686 71.5247C397.924 71.2796 398.188 71.0673 398.48 70.8878C398.488 70.8896 398.469 70.8491 398.423 70.7663Z" fill="#808080"/>
<path fill-rule="evenodd" clip-rule="evenodd" d="M398.702 77.0365C400.292 77.4625 401.863 76.7755 402.203 75.5052C402.543 74.2348 401.527 72.8545 399.937 72.4285C398.347 72.0024 396.776 72.6894 396.436 73.9598C396.095 75.2301 397.112 76.6104 398.702 77.0365ZM399.907 72.5393C401.436 72.949 402.416 74.2664 402.092 75.4754C401.768 76.6844 400.261 77.3348 398.732 76.9251C397.203 76.5155 396.223 75.1986 396.547 73.9895C396.871 72.7805 398.378 72.1297 399.907 72.5393Z" fill="#808080"/>
<path fill-rule="evenodd" clip-rule="evenodd" d="M398.179 74.8236C397.981 74.8541 397.798 74.6326 397.77 74.3289C397.743 74.0252 397.881 73.7543 398.079 73.7238C398.277 73.6933 398.46 73.9147 398.488 74.2184C398.515 74.5221 398.377 74.7929 398.179 74.8236ZM398.069 74.1777C397.99 74.1495 397.945 74.0611 397.97 73.9804C397.994 73.8991 398.079 73.8561 398.159 73.8839C398.239 73.9117 398.284 74.0005 398.259 74.0814C398.234 74.1625 398.149 74.2055 398.069 74.1777Z" fill="#808080"/>
<path fill-rule="evenodd" clip-rule="evenodd" d="M400.143 73.9379C399.98 73.9011 399.818 74.0776 399.78 74.3313C399.742 74.5853 399.844 74.8205 400.006 74.8567C400.169 74.8933 400.332 74.717 400.369 74.4633C400.407 74.2092 400.306 73.9741 400.143 73.9379ZM400.054 74.0846C399.985 74.0979 399.956 74.1825 399.989 74.2734C400.022 74.3642 400.106 74.4272 400.175 74.4135C400.245 74.4001 400.274 74.3155 400.241 74.2247C400.207 74.1338 400.124 74.0713 400.054 74.0846ZM399.887 74.6292C399.863 74.5859 399.868 74.5378 399.898 74.5219C399.927 74.5063 399.971 74.5285 399.995 74.5718C400.019 74.6151 400.014 74.6632 399.985 74.6793C399.955 74.6952 399.911 74.6725 399.887 74.6292Z" fill="#808080"/>
<path fill-rule="evenodd" clip-rule="evenodd" d="M400.489 69.8804C400.558 70.1844 400.504 70.4827 400.432 70.6681L400.201 70.5777C400.258 70.4294 400.303 70.183 400.247 69.9372C400.193 69.6979 400.043 69.4532 399.698 69.2932L399.802 69.0656C400.221 69.2596 400.419 69.5698 400.489 69.8804Z" fill="#808080"/>
<path d="M400.168 69.323C400.124 69.4872 399.956 69.5848 399.793 69.5411C399.629 69.4973 399.533 69.3287 399.577 69.1645C399.621 69.0003 399.789 68.9027 399.952 68.9465C400.116 68.9903 400.212 69.1589 400.168 69.323Z" fill="#808080"/>
<path fill-rule="evenodd" clip-rule="evenodd" d="M401.167 69.5821C401.167 69.5821 401.166 69.5831 401.165 69.5852C401.166 69.5831 401.167 69.5821 401.167 69.5821ZM401.048 69.6838C401.033 69.683 401.016 69.6826 400.999 69.6824C400.819 69.6812 400.568 69.7158 400.292 69.7914C400.016 69.8669 399.782 69.965 399.628 70.0577C399.612 70.0669 399.598 70.0757 399.585 70.0842C399.601 70.085 399.617 70.0855 399.635 70.0856C399.815 70.0869 400.066 70.0522 400.342 69.9767C400.618 69.9012 400.852 69.8031 401.006 69.7103C401.021 69.7012 401.035 69.6923 401.048 69.6838ZM399.432 70.0568C399.432 70.0568 399.434 70.0573 399.435 70.0586C399.433 70.0575 399.432 70.0569 399.432 70.0568ZM399.467 70.186C399.467 70.186 399.467 70.185 399.469 70.1829C399.468 70.1849 399.467 70.186 399.467 70.186ZM401.198 69.7095C401.201 69.7106 401.202 69.7112 401.201 69.7112C401.201 69.7113 401.2 69.7107 401.198 69.7095ZM400.396 70.1785C400.974 70.0203 401.407 69.7603 401.363 69.5976C401.319 69.435 400.815 69.4314 400.238 69.5896C399.66 69.7478 399.227 70.0078 399.271 70.1704C399.314 70.333 399.818 70.3366 400.396 70.1785Z" fill="#808080"/>
</g>
<path fill-rule="evenodd" clip-rule="evenodd" d="M407.635 80.9584L408.806 81.2918C409.065 81.3655 409.173 81.6726 409.018 81.8925L407.8 83.6214C407.745 83.6987 407.721 83.7931 407.73 83.8872L407.938 85.872C407.967 86.1445 407.713 86.3609 407.449 86.29L403.516 85.2363C403.308 85.1805 403.184 84.9663 403.24 84.7579L403.352 84.3405C403.405 84.1427 403.602 84.0194 403.803 84.0581L406.631 84.6016L407.635 80.9584ZM390.212 76.2898L389.005 75.9864C388.744 75.9207 388.497 76.1324 388.521 76.4003L388.711 78.5069C388.72 78.6009 388.694 78.6949 388.638 78.7713L387.467 80.3868C387.306 80.6085 387.417 80.9226 387.682 80.9935L391.615 82.0473C391.823 82.1032 392.037 81.9795 392.093 81.7711L392.205 81.3537C392.258 81.1559 392.149 80.9507 391.956 80.8836L389.234 79.94L390.212 76.2898Z" fill="#C9C9C9"/>
<path d="M407.635 80.9584L407.83 80.1651C407.881 79.9587 407.757 79.7496 407.552 79.6945L390.9 75.2325C390.691 75.1767 390.477 75.3004 390.421 75.5087L390.212 76.2898L389.234 79.94L406.631 84.6016L407.635 80.9584Z" fill="#DDDDDD"/>
<path d="M394.399 78.6754C394.555 78.7549 394.666 78.8732 394.731 79.0301C394.797 79.1844 394.808 79.3442 394.764 79.5095C394.7 79.7481 394.565 79.9153 394.359 80.0112C394.157 80.1051 393.907 80.1121 393.609 80.0322L392.279 79.676L393.044 76.8219L394.329 77.1662C394.619 77.2439 394.827 77.3709 394.954 77.5473C395.084 77.7244 395.118 77.9268 395.057 78.1545C395.012 78.3225 394.93 78.4501 394.811 78.5373C394.694 78.6252 394.557 78.6712 394.399 78.6754ZM393.43 78.1628L393.885 78.2849C393.999 78.3154 394.092 78.3142 394.165 78.2814C394.241 78.2466 394.292 78.1804 394.318 78.0828C394.344 77.9853 394.333 77.9024 394.285 77.8342C394.239 77.7667 394.159 77.7177 394.045 77.6872L393.59 77.5652L393.43 78.1628ZM393.637 79.4385C393.753 79.4697 393.85 79.4679 393.926 79.4332C394.005 79.3964 394.059 79.3278 394.086 79.2276C394.112 79.1273 394.1 79.0396 394.047 78.9645C393.997 78.8902 393.914 78.8374 393.798 78.8061L393.293 78.6711L393.125 79.3012L393.637 79.4385Z" fill="#808080"/>
<path d="M396.871 80.366L395.806 80.0806L395.5 80.539L394.772 80.344L396.569 77.7666L397.374 77.9823L397.642 81.1131L396.907 80.9159L396.871 80.366ZM396.836 79.7814L396.762 78.6418L396.132 79.593L396.836 79.7814Z" fill="#808080"/>
<path d="M398.982 81.5025C398.773 81.4466 398.595 81.3626 398.448 81.2505C398.301 81.1385 398.195 81.0026 398.13 80.8429C398.068 80.6839 398.059 80.5102 398.104 80.3218L398.844 80.52C398.827 80.6286 398.841 80.7198 398.889 80.7934C398.936 80.8643 399.01 80.9132 399.111 80.9401C399.214 80.9677 399.301 80.9664 399.373 80.9363C399.446 80.9035 399.493 80.8451 399.516 80.7611C399.535 80.6906 399.526 80.6258 399.49 80.5666C399.456 80.5082 399.408 80.4546 399.345 80.4059C399.286 80.358 399.197 80.2979 399.08 80.2259C398.911 80.1196 398.776 80.0223 398.674 79.9342C398.573 79.846 398.495 79.7351 398.441 79.6015C398.387 79.4679 398.384 79.3116 398.431 79.1327C398.503 78.8671 398.654 78.6855 398.887 78.588C399.12 78.4878 399.391 78.4791 399.7 78.5619C400.014 78.6461 400.247 78.7899 400.399 78.9932C400.552 79.1939 400.599 79.4302 400.54 79.7022L399.788 79.5006C399.808 79.407 399.793 79.3261 399.744 79.2579C399.697 79.187 399.624 79.1385 399.526 79.1123C399.442 79.0898 399.368 79.0947 399.305 79.127C399.241 79.1565 399.199 79.2133 399.176 79.2973C399.151 79.3895 399.176 79.473 399.248 79.5477C399.321 79.6224 399.442 79.7143 399.61 79.8233C399.778 79.9351 399.911 80.0346 400.01 80.122C400.111 80.2102 400.189 80.3197 400.244 80.4507C400.299 80.5816 400.304 80.7324 400.258 80.9032C400.214 81.0658 400.133 81.2023 400.013 81.3126C399.896 81.4236 399.749 81.4974 399.57 81.5339C399.392 81.5703 399.196 81.5599 398.982 81.5025Z" fill="#808080"/>
<path d="M401.918 79.1998L401.153 82.0539L400.458 81.8676L401.223 79.0135L401.918 79.1998Z" fill="#808080"/>
<path d="M401.923 80.7261C401.998 80.4443 402.126 80.2099 402.307 80.023C402.489 79.8334 402.704 79.7067 402.954 79.6429C403.207 79.577 403.471 79.5811 403.748 79.6552C404.087 79.746 404.353 79.9131 404.546 80.1567C404.739 80.4002 404.835 80.6873 404.834 81.0181L404.069 80.8133C404.044 80.6788 403.987 80.5662 403.898 80.4755C403.812 80.3856 403.703 80.3228 403.57 80.2873C403.356 80.2299 403.162 80.2579 402.989 80.3714C402.817 80.4849 402.697 80.6663 402.63 80.9157C402.563 81.1651 402.576 81.3821 402.669 81.5667C402.762 81.7514 402.916 81.8724 403.13 81.9298C403.262 81.9654 403.389 81.9658 403.508 81.9311C403.631 81.897 403.736 81.828 403.825 81.724L404.59 81.9288C404.426 82.216 404.199 82.4168 403.91 82.531C403.621 82.6426 403.308 82.6529 402.969 82.5622C402.692 82.4881 402.461 82.3606 402.274 82.1798C402.091 81.9971 401.967 81.7796 401.904 81.5273C401.841 81.2751 401.847 81.008 401.923 80.7261Z" fill="#808080"/>
<path d="M389.203 79.9385L392.362 80.7848L392.024 82.1851L389.203 79.9385Z" fill="#808080"/>
<path d="M406.658 84.6164L403.465 83.7607L403.113 85.1572L406.658 84.6164Z" fill="#808080"/>
</g>
<g opacity="0.2" clip-path="url(#clip2_28351_62521)">
<path d="M373.664 48.448C373.554 48.0382 373.133 47.7951 372.723 47.9048L368.671 48.9905C368.262 49.1002 368.019 49.5214 368.128 49.9312L370.603 59.1669C370.764 59.7691 371.538 59.9383 371.936 59.4584L375.218 55.5013C375.377 55.3096 375.433 55.0527 375.369 54.8122L373.664 48.448Z" fill="url(#paint6_linear_28351_62521)"/>
<path d="M378.773 47.0788C378.663 46.6691 378.906 46.2479 379.316 46.1381L383.368 45.0525C383.777 44.9427 384.199 45.1859 384.308 45.5956L386.783 54.8313C386.944 55.4335 386.359 55.9669 385.774 55.7504L380.953 53.9645C380.72 53.878 380.543 53.6836 380.478 53.443L378.773 47.0788Z" fill="url(#paint7_linear_28351_62521)"/>
<path d="M370.24 31.7149C370.83 31.1076 371.706 30.8729 372.521 31.1038L376.861 32.3335L381.24 33.4605C382.054 33.6703 382.69 34.3073 382.898 35.1224L384.021 39.5253L385.25 43.9001C385.477 44.71 385.245 45.5795 384.645 46.1684L381.416 49.3336L378.272 52.5688C377.682 53.1761 376.807 53.4107 375.992 53.1799L371.651 51.9501L367.273 50.8231C366.458 50.6134 365.823 49.9764 365.615 49.1613L364.491 44.7583L363.263 40.3836C363.035 39.5737 363.267 38.7042 363.868 38.1152L367.096 34.95L370.24 31.7149Z" fill="url(#paint8_radial_28351_62521)"/>
<path d="M370.492 33.7883C371.082 33.181 371.957 32.9464 372.772 33.1772L376.121 34.1262L379.502 34.9965C380.317 35.2062 380.953 35.8432 381.161 36.6583L382.028 40.0594L382.978 43.4387C383.205 44.2486 382.973 45.1181 382.372 45.7071L379.879 48.1513L377.453 50.6478C376.863 51.255 375.987 51.4897 375.173 51.2588L371.823 50.3099L368.442 49.4396C367.628 49.2299 366.992 48.5929 366.784 47.7778L365.916 44.3766L364.967 40.9973C364.74 40.1874 364.972 39.3179 365.573 38.729L368.065 36.2848L370.492 33.7883Z" fill="#C89A25"/>
<path d="M370.852 33.9972C371.442 33.3899 372.318 33.1552 373.133 33.3861L376.341 34.295L379.579 35.1286C380.394 35.3383 381.029 35.9753 381.237 36.7904L382.069 40.0484L382.978 43.2855C383.205 44.0954 382.973 44.9649 382.372 45.5539L379.985 47.895L377.661 50.286C377.071 50.8933 376.195 51.1279 375.38 50.8971L372.173 49.9882L368.934 49.1546C368.12 48.9449 367.484 48.3079 367.276 47.4928L366.445 44.2348L365.536 40.9977C365.308 40.1878 365.54 39.3183 366.141 38.7293L368.529 36.3882L370.852 33.9972Z" fill="url(#paint9_linear_28351_62521)"/>
<g opacity="0.8">
<path fill-rule="evenodd" clip-rule="evenodd" d="M370.471 46.0822C370.498 46.0747 370.522 46.0568 370.537 46.0304C370.561 45.9881 370.557 45.9347 370.528 45.8949C370.026 45.2085 369.774 44.387 369.78 43.4531C369.78 43.4041 369.752 43.3593 369.71 43.3387C369.667 43.3189 369.618 43.328 369.586 43.3611C369.191 43.7746 369.056 44.3887 369.232 44.9642C369.409 45.5396 369.864 45.9682 370.422 46.0838C370.438 46.0874 370.455 46.0863 370.471 46.0822ZM369.563 43.7815C369.606 44.5081 369.805 45.1657 370.157 45.7453C369.824 45.5825 369.563 45.2775 369.447 44.8971C369.329 44.5126 369.375 44.1077 369.563 43.7815Z" fill="#C89A25"/>
<path fill-rule="evenodd" clip-rule="evenodd" d="M375.762 47.427C376.655 47.1878 377.441 46.733 378.045 46.1064C379.175 44.9346 379.557 43.2703 379.094 41.5405C378.747 40.2479 377.93 39.1604 376.793 38.4776C375.662 37.7985 374.361 37.6061 373.13 37.9359C370.593 38.6156 369.1 41.0751 369.65 43.6616L369.641 43.7663C369.641 43.7682 369.641 43.77 369.641 43.7718C369.639 43.8063 369.638 43.8348 369.636 43.8606C369.625 44.0661 369.63 44.0829 369.747 44.5137C369.765 44.5842 369.788 44.6665 369.813 44.7632C370.031 45.5754 371.007 46.9045 372.274 47.2906L372.416 47.3488C372.419 47.3505 372.423 47.3518 372.428 47.353C373.503 47.6632 374.6 47.7029 375.599 47.4681C375.653 47.4548 375.707 47.4411 375.762 47.427ZM373.192 38.1648C375.642 37.5083 378.191 39.0491 378.874 41.5993C379.315 43.2455 378.954 44.8267 377.883 45.9374C376.607 47.2608 374.541 47.7167 372.49 47.1269L372.348 47.0693C372.345 47.0679 372.342 47.0667 372.339 47.0659C371.167 46.7107 370.231 45.4443 370.033 44.7044C370.007 44.6077 369.985 44.5247 369.966 44.4543C369.855 44.0447 369.855 44.0447 369.864 43.8786C369.865 43.8528 369.867 43.8242 369.868 43.7904L369.879 43.6693C369.88 43.6569 369.879 43.6444 369.876 43.6324C369.342 41.1653 370.768 38.8143 373.192 38.1648Z" fill="#C89A25"/>
<path fill-rule="evenodd" clip-rule="evenodd" d="M375.109 47.1762C377.501 46.5352 379.018 44.4131 378.491 42.4464C377.964 40.4791 375.589 39.4002 373.197 40.0412C370.806 40.6821 369.288 42.8037 369.815 44.771C370.342 46.7377 372.717 47.817 375.109 47.1762ZM373.246 40.223C375.537 39.609 377.808 40.6282 378.308 42.4953C378.809 44.3619 377.352 46.3798 375.06 46.9938C372.769 47.6078 370.498 46.5887 369.998 44.7221C369.498 42.8549 370.955 40.837 373.246 40.223Z" fill="#C89A25"/>
<path fill-rule="evenodd" clip-rule="evenodd" d="M375.004 46.7807C377.178 46.198 378.578 44.3462 378.124 42.6524C377.67 40.9585 375.532 40.054 373.357 40.6367C371.183 41.2194 369.783 43.0718 370.237 44.7657C370.691 46.4596 372.829 47.3634 375.004 46.7807ZM373.416 40.8564C375.466 40.3071 377.477 41.1398 377.899 42.7127C378.32 44.2851 376.995 46.0117 374.945 46.5611C372.895 47.1104 370.884 46.2777 370.462 44.7053C370.041 43.1324 371.366 41.4057 373.416 40.8564Z" fill="#C89A25"/>
<path fill-rule="evenodd" clip-rule="evenodd" d="M374.918 46.8033C375.184 46.732 375.445 46.6396 375.692 46.5275C375.695 46.5262 375.698 46.5246 375.701 46.5225C377.397 45.5324 378.295 44.0597 377.79 43.0966C377.654 42.8369 377.427 42.6355 377.118 42.499C377.064 42.1352 376.95 41.7856 376.779 41.4591C376.676 41.2638 376.554 41.0791 376.416 40.909C376.406 40.898 376.395 40.8893 376.383 40.8836C375.484 40.4521 374.35 40.3705 373.272 40.6594C372.304 40.9186 371.454 41.4503 370.878 42.1573C370.301 42.8649 370.045 43.6873 370.159 44.4721C370.16 44.4795 370.162 44.4865 370.164 44.4932C370.208 44.6066 370.259 44.7188 370.316 44.8262C370.487 45.1527 370.71 45.4454 370.98 45.6972C370.963 45.7824 370.928 45.8368 370.925 45.9183C370.924 45.9457 371.001 46.0057 371.021 46.0248C371.489 46.4294 372.035 46.7033 372.72 46.8838C373.422 47.0286 374.182 47.0005 374.918 46.8033ZM375.609 46.3563C375.372 46.4629 375.123 46.5516 374.869 46.6197C373.462 46.9967 372.039 46.7247 371.144 45.9113C371.149 45.837 371.16 45.761 371.178 45.6834C371.185 45.6504 371.174 45.6154 371.148 45.5926C370.878 45.3481 370.656 45.0605 370.486 44.7375C370.434 44.6396 370.388 44.5371 370.347 44.434C370.133 42.8978 371.409 41.356 373.321 40.8436C374.348 40.5686 375.424 40.6423 376.28 41.0462C376.405 41.2017 376.516 41.3701 376.609 41.5478C376.778 41.8704 376.888 42.2171 376.935 42.5783C376.94 42.6119 376.962 42.6407 376.994 42.6536C377.287 42.7732 377.497 42.9517 377.62 43.1855C378.069 44.0417 377.186 45.4336 375.609 46.3563Z" fill="#C89A25"/>
<path fill-rule="evenodd" clip-rule="evenodd" d="M374.93 46.7996C375.195 46.7285 375.455 46.6352 375.702 46.5231C375.704 46.5221 375.706 46.5208 375.709 46.5192C377.396 45.5241 378.286 44.0403 377.78 43.0677C377.637 42.7924 377.396 42.5816 377.062 42.4427C377.058 42.4405 377.052 42.4391 377.047 42.4383C376.739 42.3827 376.439 42.4407 376.153 42.6096C376.211 42.2449 376.15 41.8712 375.978 41.5392C375.54 40.6978 374.508 40.3688 373.677 40.8059C373.294 41.0071 373.008 41.3396 372.865 41.7481C372.438 41.6192 371.99 41.6623 371.594 41.8703C371.029 42.167 370.681 42.8421 370.729 43.5485C370.771 44.1581 371.097 44.6592 371.615 44.9247C371.324 45.0515 371.101 45.3039 371.012 45.6196C371.012 45.621 371.011 45.6227 371.011 45.6245C370.989 45.7285 370.975 45.8314 370.973 45.9307C370.972 45.9526 370.981 45.9746 370.997 45.9899C371.449 46.4204 372.05 46.7256 372.736 46.8714C373.437 47.0209 374.196 46.9963 374.93 46.7996ZM375.634 46.3828C375.396 46.4912 375.146 46.5807 374.89 46.6493C373.471 47.0295 372.033 46.7428 371.128 45.9015C371.133 45.8234 371.143 45.7423 371.161 45.6606C371.254 45.3319 371.518 45.0836 371.849 45.0127C371.882 45.0051 371.907 44.9767 371.91 44.9419C371.912 44.9077 371.891 44.8758 371.859 44.8633C371.29 44.6523 370.925 44.157 370.883 43.5389C370.839 42.8925 371.153 42.277 371.665 42.0076C372.046 41.8076 372.481 41.7759 372.889 41.9185C372.908 41.9258 372.93 41.9239 372.949 41.9143C372.967 41.9054 372.981 41.8884 372.987 41.8685C373.109 41.4663 373.379 41.1375 373.748 40.9433C374.504 40.546 375.444 40.8453 375.841 41.6106C376.026 41.9661 376.069 42.3741 375.963 42.759C375.955 42.786 375.963 42.8149 375.982 42.8348C376.009 42.8618 376.053 42.865 376.083 42.8426C376.384 42.6165 376.688 42.5338 377.012 42.5897C377.306 42.714 377.519 42.899 377.644 43.1391C378.103 44.0221 377.22 45.4463 375.634 46.3828Z" fill="#C89A25"/>
<path fill-rule="evenodd" clip-rule="evenodd" d="M374.486 46.7054C374.762 46.6315 375.039 46.5221 375.311 46.3782C376.481 45.7574 377.182 44.6775 377.096 43.6264C377.066 43.2685 376.916 43.1713 376.828 43.145C376.685 43.1024 376.516 43.1881 376.388 43.3687C375.475 44.6488 373.816 45.5287 372.259 45.5583C372.04 45.562 371.874 45.6542 371.827 45.7982C371.798 45.8856 371.791 46.0667 372.064 46.2957C372.68 46.8104 373.574 46.9498 374.486 46.7054ZM376.715 43.2963C376.741 43.2894 376.766 43.2887 376.788 43.2953C376.871 43.3202 376.928 43.4451 376.944 43.6373C377.024 44.626 376.356 45.6469 375.239 46.2389C374.123 46.8312 372.914 46.806 372.16 46.1744C372.013 46.0517 371.945 45.9333 371.972 45.8496C371.998 45.7703 372.112 45.7177 372.264 45.7143C373.866 45.6841 375.573 44.7787 376.512 43.4616C376.575 43.3729 376.649 43.3139 376.715 43.2963Z" fill="#C89A25"/>
<path d="M374.265 44.4291C374.301 44.4193 374.331 44.3899 374.339 44.3518C374.363 44.2298 374.465 44.1384 374.591 44.1247C374.646 44.1185 374.687 44.0696 374.682 44.0155C374.676 43.9615 374.627 43.9221 374.571 43.9283C374.355 43.9521 374.182 44.108 374.14 44.3162C374.129 44.3699 374.165 44.4211 374.22 44.4311C374.235 44.4337 374.251 44.4329 374.265 44.4291Z" fill="#C89A25"/>
<path d="M374.275 44.4275C374.302 44.4204 374.325 44.4048 374.339 44.3827C374.362 44.3447 374.344 44.3026 374.299 44.2883C374.126 44.2355 373.911 44.2859 373.776 44.4104C373.741 44.4434 373.741 44.4895 373.778 44.5139C373.815 44.5377 373.873 44.5314 373.909 44.4984C373.988 44.4254 374.114 44.3961 374.214 44.4272C374.234 44.4333 374.255 44.4329 374.275 44.4275Z" fill="#C89A25"/>
<path d="M374.469 45.0129C374.473 45.0118 374.477 45.0099 374.48 45.0072C374.508 44.9881 374.513 44.9328 374.493 44.8844C374.381 44.6136 374.334 44.5047 374.244 44.2993C374.223 44.2512 374.185 44.2287 374.158 44.2496C374.132 44.2705 374.127 44.3267 374.148 44.3742C374.237 44.5772 374.283 44.6856 374.395 44.9541C374.412 44.9959 374.443 45.0197 374.469 45.0129Z" fill="#C89A25"/>
<path d="M376.902 43.5508C376.807 43.7744 376.664 43.9849 376.501 44.1811C376.336 44.3777 376.152 44.5608 375.958 44.7353C375.938 44.753 375.937 44.7827 375.955 44.8007C375.973 44.8181 376.001 44.8195 376.021 44.8037C376.23 44.6391 376.43 44.4647 376.614 44.272C376.798 44.0788 376.965 43.8664 377.088 43.6243C377.113 43.5753 377.092 43.5183 377.042 43.4959C376.991 43.4743 376.93 43.4957 376.905 43.5441C376.904 43.5461 376.903 43.5481 376.903 43.55L376.902 43.5508Z" fill="#C89A25"/>
<path d="M371.974 46.2931C372.24 46.3323 372.504 46.3192 372.761 46.2831C373.018 46.247 373.269 46.1867 373.515 46.1156C373.538 46.1089 373.551 46.0862 373.544 46.0643C373.538 46.0435 373.517 46.0312 373.495 46.0357C373.247 46.0887 372.997 46.1301 372.747 46.1476C372.498 46.1649 372.248 46.1584 372.013 46.1065L372.012 46.1067C371.96 46.095 371.908 46.1269 371.896 46.1783C371.883 46.2291 371.916 46.28 371.968 46.2918C371.97 46.2917 371.972 46.2924 371.974 46.2931Z" fill="#C89A25"/>
<path fill-rule="evenodd" clip-rule="evenodd" d="M374.918 46.8033C375.184 46.732 375.445 46.6396 375.692 46.5275C375.695 46.5262 375.698 46.5246 375.701 46.5225C377.397 45.5324 378.295 44.0597 377.79 43.0966C377.654 42.8369 377.427 42.6355 377.118 42.499C377.064 42.1352 376.95 41.7856 376.779 41.4591C376.676 41.2638 376.554 41.0791 376.416 40.909C376.406 40.898 376.395 40.8893 376.383 40.8836C375.484 40.4521 374.35 40.3705 373.272 40.6594C372.304 40.9186 371.454 41.4503 370.878 42.1573C370.301 42.8649 370.045 43.6873 370.159 44.4721C370.16 44.4795 370.162 44.4865 370.164 44.4932C370.208 44.6066 370.259 44.7188 370.316 44.8262C370.487 45.1527 370.71 45.4454 370.98 45.6972C370.963 45.7824 370.953 45.8662 370.951 45.9477C370.949 45.9751 370.989 45.9952 371.009 46.0143C371.499 46.4174 372.021 46.6842 372.72 46.8838C373.422 47.0286 374.182 47.0005 374.918 46.8033ZM375.609 46.3563C375.372 46.4629 375.123 46.5516 374.869 46.6197C373.462 46.9967 372.039 46.7247 371.144 45.9113C371.149 45.837 371.16 45.761 371.178 45.6834C371.185 45.6504 371.174 45.6154 371.148 45.5926C370.878 45.3481 370.656 45.0605 370.486 44.7375C370.434 44.6396 370.388 44.5371 370.347 44.434C370.133 42.8978 371.409 41.356 373.321 40.8436C374.348 40.5686 375.424 40.6423 376.28 41.0462C376.405 41.2017 376.516 41.3701 376.609 41.5478C376.778 41.8704 376.888 42.2171 376.935 42.5783C376.94 42.6119 376.962 42.6407 376.994 42.6536C377.287 42.7732 377.497 42.9517 377.62 43.1855C378.069 44.0417 377.186 45.4336 375.609 46.3563Z" fill="#C89A25"/>
<path fill-rule="evenodd" clip-rule="evenodd" d="M379.117 42.2794C379.157 42.2685 379.197 42.2544 379.237 42.2372C379.489 42.1278 379.675 41.9044 379.761 41.6088C379.845 41.3198 379.822 40.9948 379.697 40.6943C379.436 40.0666 378.803 39.7388 378.288 39.9617C377.773 40.1855 377.567 40.8778 377.828 41.5053C377.953 41.8058 378.167 42.0481 378.429 42.1872C378.655 42.3072 378.895 42.3387 379.117 42.2794ZM378.469 40.1516C378.851 40.0491 379.293 40.3153 379.488 40.7845C379.592 41.0327 379.612 41.2987 379.543 41.5342C379.477 41.7626 379.335 41.9341 379.144 42.017C378.954 42.0997 378.735 42.0849 378.527 41.9752C378.314 41.8617 378.14 41.6627 378.036 41.4145C377.826 40.9089 377.98 40.3561 378.38 40.1821C378.409 40.1698 378.439 40.1596 378.469 40.1516Z" fill="#C89A25"/>
<path fill-rule="evenodd" clip-rule="evenodd" d="M379.29 42.0206C379.318 42.0131 379.345 42.0035 379.372 41.992C379.441 41.9623 379.504 41.9197 379.559 41.865C379.562 41.8625 379.564 41.8596 379.567 41.8563C379.815 41.5401 379.86 41.062 379.682 40.6384C379.479 40.1546 379.026 39.8407 378.581 39.8753C378.574 39.8761 378.568 39.8773 378.562 39.879C378.538 39.886 378.516 39.8941 378.494 39.903C378.084 40.0799 377.947 40.6919 378.189 41.268C378.303 41.5416 378.486 41.7679 378.703 41.9052C378.9 42.0304 379.106 42.07 379.29 42.0206ZM379.423 41.7285C379.386 41.7649 379.343 41.7934 379.297 41.8129C379.15 41.8761 378.973 41.8504 378.8 41.741C378.617 41.6245 378.461 41.4303 378.362 41.1934C378.161 40.716 378.254 40.2178 378.57 40.082C378.582 40.077 378.594 40.0723 378.607 40.068C378.97 40.045 379.34 40.3088 379.509 40.713C379.659 41.0693 379.625 41.4667 379.423 41.7285Z" fill="#C89A25"/>
<path fill-rule="evenodd" clip-rule="evenodd" d="M374.521 39.2612C374.641 39.2292 374.772 39.1204 374.912 38.9356C375.133 38.6468 375.435 38.4605 375.701 38.3168C375.722 38.305 375.739 38.2879 375.75 38.2675C375.86 38.0566 375.821 37.8344 375.651 37.7022C375.467 37.5586 375.126 37.5266 374.778 37.777C374.558 37.9182 374.191 38.2362 374.174 38.7896C374.166 39.0587 374.234 39.2171 374.376 39.2607C374.423 39.2745 374.471 39.2746 374.521 39.2612ZM375.556 38.1431C375.29 38.2891 374.964 38.4957 374.725 38.8086C374.565 39.0179 374.469 39.0511 374.452 39.0488C374.453 39.0487 374.401 39.0084 374.407 38.7896C374.421 38.3355 374.726 38.0741 374.907 37.9582C374.909 37.9569 374.911 37.9556 374.913 37.9543C375.16 37.7757 375.386 37.7863 375.501 37.8753C375.582 37.939 375.601 38.0348 375.556 38.1431Z" fill="#C89A25"/>
<path fill-rule="evenodd" clip-rule="evenodd" d="M370.087 41.3001C370.22 41.2644 370.341 41.1507 370.336 40.9958C370.323 40.5896 370.484 40.1221 370.756 39.7772C370.78 39.7474 370.787 39.7075 370.774 39.6707C370.762 39.6346 370.733 39.6069 370.696 39.5978C370.354 39.5108 370.086 39.5534 369.899 39.7236C369.65 39.9509 369.572 40.3963 369.666 41.0483C369.69 41.209 369.847 41.3244 370.024 41.3106C370.045 41.3095 370.067 41.3056 370.087 41.3001ZM370.475 39.7846C370.237 40.1495 370.1 40.601 370.114 41.0021C370.115 41.0449 370.057 41.0826 370.006 41.0867C369.955 41.0903 369.893 41.0617 369.887 41.017C369.805 40.4521 369.861 40.0622 370.049 39.8912C370.149 39.7996 370.292 39.7644 370.475 39.7846Z" fill="#C89A25"/>
<path opacity="0.3" d="M370.453 39.715C370.05 40.2465 369.935 40.7021 370.108 41.082C370.219 40.6404 370.383 40.2188 370.6 39.8172C370.61 39.814 370.561 39.7799 370.453 39.715Z" fill="#C89A25"/>
<path fill-rule="evenodd" clip-rule="evenodd" d="M374.954 46.768C377.074 46.1999 378.429 44.3595 377.975 42.6657C377.522 40.9719 375.427 40.0559 373.307 40.624C371.187 41.1921 369.832 43.0324 370.286 44.7262C370.739 46.42 372.834 47.336 374.954 46.768ZM373.347 40.7718C375.386 40.2256 377.395 41.0934 377.827 42.7054C378.259 44.3174 376.952 46.0733 374.914 46.6196C372.875 47.1658 370.866 46.2986 370.434 44.6866C370.002 43.0745 371.308 41.318 373.347 40.7718Z" fill="#C89A25"/>
<path fill-rule="evenodd" clip-rule="evenodd" d="M372.873 44.5607C372.664 44.7281 372.306 44.5941 372.071 44.2618C371.837 43.9295 371.816 43.5246 372.024 43.3573C372.233 43.19 372.591 43.3239 372.826 43.6562C373.06 43.9885 373.08 44.3936 372.873 44.5607ZM372.316 43.8879C372.205 43.9086 372.094 43.8364 372.069 43.7266C372.043 43.6164 372.112 43.5102 372.223 43.4889C372.334 43.4677 372.445 43.5404 372.471 43.65C372.496 43.7604 372.427 43.8666 372.316 43.8879Z" fill="#C89A25"/>
<path fill-rule="evenodd" clip-rule="evenodd" d="M374.553 42.2262C374.34 42.2924 374.27 42.6045 374.396 42.9225C374.522 43.2412 374.796 43.4451 375.007 43.3785C375.219 43.3125 375.29 43.0003 375.164 42.6823C375.038 42.3637 374.765 42.1596 374.553 42.2262ZM374.548 42.4549C374.477 42.5165 374.499 42.6339 374.599 42.7165C374.698 42.7991 374.836 42.8165 374.907 42.7542C374.978 42.6926 374.956 42.5752 374.857 42.4926C374.757 42.41 374.62 42.3932 374.548 42.4549ZM374.718 43.1952C374.662 43.1612 374.635 43.1026 374.659 43.0642C374.683 43.0265 374.748 43.0232 374.804 43.0572C374.861 43.0912 374.888 43.1498 374.864 43.1881C374.84 43.2265 374.775 43.2292 374.718 43.1952Z" fill="#C89A25"/>
<path fill-rule="evenodd" clip-rule="evenodd" d="M372.25 37.313C372.532 37.6182 372.668 37.9988 372.709 38.261L372.381 38.3107C372.349 38.1011 372.236 37.7868 372.008 37.54C371.786 37.2999 371.45 37.1173 370.945 37.1628L370.914 36.8302C371.527 36.775 371.962 37.0013 372.25 37.313Z" fill="#C89A25"/>
<path d="M371.504 36.8833C371.563 37.1022 371.434 37.327 371.216 37.3853C370.998 37.4437 370.774 37.3135 370.716 37.0946C370.657 36.8757 370.786 36.6509 371.004 36.5926C371.222 36.5342 371.446 36.6644 371.504 36.8833Z" fill="#C89A25"/>
<path fill-rule="evenodd" clip-rule="evenodd" d="M372.831 36.5176C372.831 36.5175 372.831 36.519 372.831 36.5224C372.831 36.5194 372.831 36.5177 372.831 36.5176ZM372.762 36.714C372.744 36.7234 372.724 36.7339 372.704 36.7455C372.495 36.8639 372.229 37.0712 371.96 37.3424C371.692 37.6136 371.487 37.8828 371.371 38.093C371.359 38.1136 371.349 38.1332 371.34 38.1517C371.358 38.1423 371.378 38.1318 371.398 38.1201C371.607 38.0018 371.873 37.7944 372.142 37.5232C372.41 37.252 372.615 36.9829 372.731 36.7727C372.743 36.752 372.753 36.7325 372.762 36.714ZM371.145 38.2221C371.145 38.222 371.147 38.2218 371.15 38.222C371.146 38.2223 371.145 38.2222 371.145 38.2221ZM371.271 38.3481C371.271 38.3482 371.271 38.3467 371.271 38.3433C371.271 38.3463 371.271 38.348 371.271 38.3481ZM372.952 36.6437C372.956 36.6434 372.957 36.6435 372.957 36.6436C372.957 36.6437 372.955 36.6439 372.952 36.6437ZM372.339 37.72C372.9 37.1522 373.227 36.5633 373.068 36.4047C372.909 36.246 372.325 36.5778 371.763 37.1456C371.202 37.7135 370.875 38.3024 371.034 38.461C371.193 38.6196 371.777 38.2879 372.339 37.72Z" fill="#C89A25"/>
</g>
<path fill-rule="evenodd" clip-rule="evenodd" d="M388.093 44.9827L389.854 44.5403C390.11 44.4758 390.354 44.684 390.33 44.9474L390.053 47.9993C390.045 48.0919 390.07 48.1844 390.125 48.2596L391.835 50.6156C391.993 50.8336 391.884 51.1424 391.624 51.2121L386.056 52.7039C385.852 52.7588 385.641 52.6372 385.586 52.4323L385.369 51.6207C385.316 51.4262 385.423 51.2244 385.614 51.1585L389.362 49.8589L388.093 44.9827ZM364.862 51.2075L363.081 51.7143C362.826 51.7867 362.719 52.0886 362.872 52.3048L364.636 54.8099C364.69 54.8858 364.714 54.9786 364.704 55.0709L364.402 57.9663C364.374 58.2341 364.624 58.4468 364.884 58.3771L370.452 56.8851C370.657 56.8302 370.778 56.6196 370.723 56.4147L370.506 55.6031C370.454 55.4086 370.26 55.2874 370.063 55.3254L366.166 56.0744L364.862 51.2075Z" fill="#EACE46"/>
<path d="M388.093 44.9827L387.752 43.808C387.693 43.6073 387.485 43.4901 387.284 43.5442L364.819 49.5636C364.614 49.6185 364.492 49.829 364.547 50.0339L364.862 51.2075L366.166 56.0744L389.362 49.8589L388.093 44.9827Z" fill="#F5DA4C"/>
<path d="M369.01 51.5036C369.059 51.6875 369.062 51.8677 369.019 52.044C368.975 52.2174 368.878 52.3742 368.728 52.5145C368.578 52.6548 368.374 52.7597 368.114 52.8292L367.635 52.9576L367.94 54.0972L367.167 54.3044L366.316 51.1299L367.569 50.7942C367.822 50.7264 368.048 50.7127 368.246 50.7533C368.445 50.7939 368.608 50.8793 368.737 51.0097C368.865 51.14 368.956 51.3046 369.01 51.5036ZM367.891 52.2299C368.038 52.1904 368.139 52.1262 368.193 52.0375C368.247 51.9487 368.257 51.8411 368.223 51.7145C368.189 51.5878 368.126 51.4996 368.035 51.4496C367.945 51.3996 367.825 51.3945 367.677 51.434L367.257 51.5467L367.47 52.3426L367.891 52.2299Z" fill="#C89A25"/>
<path d="M371.608 53.1145L370.626 52.093L370.441 52.1427L370.762 53.3411L369.989 53.5483L369.138 50.3738L370.436 50.026C370.686 49.959 370.911 49.9457 371.109 49.9863C371.31 50.0261 371.475 50.1111 371.604 50.2414C371.732 50.3687 371.821 50.5259 371.871 50.7128C371.927 50.9238 371.917 51.1284 371.841 51.3265C371.768 51.5238 371.625 51.6882 371.411 51.8198L372.481 52.8806L371.608 53.1145ZM370.294 51.5955L370.774 51.4671C370.916 51.4291 371.012 51.3662 371.062 51.2783C371.116 51.1895 371.126 51.0819 371.092 50.9553C371.06 50.8347 370.998 50.7494 370.907 50.6994C370.819 50.6487 370.705 50.6423 370.563 50.6803L370.084 50.8087L370.294 51.5955Z" fill="#C89A25"/>
<path d="M373.028 49.9956L373.2 50.6378L374.235 50.3603L374.395 50.9572L373.36 51.2347L373.546 51.9311L374.717 51.6173L374.883 52.2368L372.939 52.7578L372.088 49.5833L374.033 49.0623L374.199 49.6818L373.028 49.9956Z" fill="#C89A25"/>
<path d="M378.13 47.9645L378.98 51.139L378.207 51.3462L377.697 49.4424L377.497 51.5364L376.873 51.7036L375.647 49.9868L376.159 51.8951L375.385 52.1023L374.535 48.9278L375.448 48.683L376.928 50.642L377.221 48.208L378.13 47.9645Z" fill="#C89A25"/>
<path d="M379.459 47.6083L380.31 50.7828L379.537 50.99L378.686 47.8155L379.459 47.6083Z" fill="#C89A25"/>
<path d="M380.779 47.2546L381.288 49.1538C381.339 49.3438 381.425 49.4775 381.546 49.5549C381.667 49.6324 381.818 49.6469 381.999 49.5984C382.18 49.5499 382.304 49.4615 382.373 49.3332C382.443 49.2048 382.452 49.0457 382.401 48.8558L381.892 46.9565L382.665 46.7493L383.173 48.644C383.249 48.9274 383.253 49.1833 383.185 49.4115C383.116 49.6398 382.993 49.8311 382.815 49.9856C382.64 50.1392 382.427 50.2495 382.177 50.3165C381.926 50.3836 381.689 50.3955 381.464 50.3524C381.241 50.3054 381.047 50.1993 380.879 50.034C380.712 49.8657 380.59 49.6399 380.514 49.3565L380.006 47.4618L380.779 47.2546Z" fill="#C89A25"/>
<path d="M386.803 45.6405L387.654 48.815L386.88 49.0222L386.37 47.1184L386.17 49.2124L385.546 49.3797L384.321 47.6628L384.832 49.5711L384.059 49.7783L383.208 46.6038L384.122 46.359L385.601 48.3181L385.894 45.884L386.803 45.6405Z" fill="#C89A25"/>
<path d="M366.129 56.0938L370.34 54.9654L370.884 56.8074L366.129 56.0938Z" fill="#C89A25"/>
<path d="M389.406 49.8562L385.148 50.9971L385.673 52.8442L389.406 49.8562Z" fill="#C89A25"/>
</g>
<g opacity="0.2" clip-path="url(#clip3_28351_62521)">
<path d="M402.29 15.4596C402.406 15.044 402.163 14.6131 401.747 14.4973L398.422 13.5706C398.007 13.4547 397.576 13.6978 397.46 14.1134L395.3 21.8639C395.13 22.4748 395.72 23.0233 396.317 22.809L400.298 21.3791C400.537 21.2934 400.719 21.0975 400.787 20.8535L402.29 15.4596Z" fill="url(#paint10_linear_28351_62521)"/>
<path d="M406.747 16.7028C406.863 16.2871 407.294 16.0441 407.71 16.1599L411.035 17.0867C411.45 17.2025 411.693 17.6333 411.577 18.049L409.417 25.7995C409.247 26.4104 408.458 26.5746 408.058 26.0825L405.39 22.7991C405.23 22.6026 405.176 22.3407 405.244 22.0967L406.747 16.7028Z" fill="url(#paint11_linear_28351_62521)"/>
<path d="M406.997 1.27659C407.828 1.0501 408.716 1.29767 409.31 1.92134L411.898 4.63804L414.557 7.29861C415.162 7.90374 415.39 8.79045 415.15 9.61188L414.091 13.2427L413.119 16.8978C412.899 17.7248 412.246 18.3662 411.416 18.5712L407.763 19.4725L404.143 20.4591C403.312 20.6855 402.424 20.438 401.83 19.8143L399.242 17.0976L396.582 14.437C395.978 13.8319 395.75 12.9452 395.99 12.1238L397.049 8.49297L398.021 4.83782C398.24 4.01088 398.893 3.36946 399.724 3.16447L403.377 2.26319L406.997 1.27659Z" fill="url(#paint12_radial_28351_62521)"/>
<path d="M406.263 2.95056C407.094 2.72407 407.982 2.97164 408.576 3.59531L410.542 5.65942L412.565 7.68266C413.17 8.28779 413.397 9.1745 413.157 9.99593L412.352 12.7582L411.612 15.5391C411.393 16.366 410.74 17.0074 409.909 17.2124L407.131 17.8978L404.381 18.6474C403.55 18.8739 402.662 18.6263 402.068 18.0027L400.101 15.9386L398.079 13.9153C397.474 13.3102 397.247 12.4235 397.486 11.602L398.292 8.83973L399.031 6.05889C399.251 5.23196 399.904 4.59054 400.735 4.38555L403.512 3.70016L406.263 2.95056Z" fill="#6053AD"/>
<path d="M406.441 3.26824C407.272 3.04175 408.16 3.28932 408.754 3.91299L410.631 5.88387L412.563 7.81607C413.168 8.4212 413.395 9.30791 413.156 10.1293L412.386 12.7676L411.68 15.4235C411.46 16.2504 410.807 16.8919 409.976 17.0969L407.324 17.7514L404.698 18.4671C403.867 18.6936 402.978 18.4461 402.384 17.8224L400.507 15.8515L398.575 13.9193C397.971 13.3142 397.743 12.4275 397.983 11.6061L398.752 8.96781L399.459 6.31188C399.678 5.48494 400.331 4.84352 401.162 4.63853L403.815 3.98399L406.441 3.26824Z" fill="url(#paint13_linear_28351_62521)"/>
<path fill-rule="evenodd" clip-rule="evenodd" d="M402.558 15.3811C402.342 15.1406 402.163 14.8693 402.026 14.576L400.92 15.1199C401.108 15.523 401.354 15.8958 401.65 16.2263C401.709 16.1713 401.768 16.1163 401.827 16.0613C401.66 15.8753 401.51 15.6748 401.379 15.4621L401.606 15.3146C401.715 15.4909 401.838 15.6584 401.974 15.8154C402.031 15.7636 402.089 15.7118 402.147 15.66C402.02 15.512 401.904 15.3542 401.801 15.188L402.011 15.0519C402.119 15.2272 402.243 15.3925 402.381 15.5458L402.558 15.3807L402.558 15.3811ZM402.805 15.6282L401.99 16.5657C402.279 16.8238 402.6 17.0428 402.946 17.217C402.98 17.1471 403.015 17.0773 403.05 17.0074C402.865 16.9141 402.687 16.8072 402.518 16.6876L403.092 15.8569C402.992 15.7862 402.896 15.7098 402.805 15.6281L402.805 15.6282ZM403.295 17.3749C403.449 17.4364 403.606 17.4894 403.766 17.5334L404.097 16.3325C403.981 16.3004 403.867 16.2619 403.755 16.2172L403.295 17.3749ZM404.333 16.6357C404.471 16.661 404.611 16.6779 404.752 16.6863C404.73 17.0196 404.709 17.3529 404.687 17.6863C404.853 17.6961 405.02 17.6966 405.186 17.6877L405.142 16.6873C405.285 16.6796 405.427 16.6631 405.567 16.6378C405.554 16.5581 405.541 16.4784 405.528 16.3986C405.147 16.467 404.757 16.4663 404.377 16.3966C404.362 16.4762 404.347 16.5559 404.333 16.6356L404.333 16.6357ZM406.692 15.9431C406.42 16.1158 406.125 16.2472 405.815 16.3331L406.126 17.5344C406.552 17.4163 406.958 17.2357 407.331 16.9985C407.29 16.9299 407.248 16.8612 407.206 16.7925C406.991 16.929 406.765 17.0459 406.529 17.142L406.432 16.8885C406.626 16.8091 406.815 16.7145 406.995 16.6055L406.879 16.4045C406.709 16.5072 406.532 16.5964 406.348 16.6712L406.258 16.4373C406.453 16.3581 406.64 16.2616 406.817 16.1491L406.692 15.9431Z" fill="#7063BD"/>
<g opacity="0.8">
<path fill-rule="evenodd" clip-rule="evenodd" d="M400.969 12.1496C400.993 12.1564 401.019 12.1535 401.042 12.1403C401.078 12.1189 401.099 12.0771 401.095 12.0342C401.022 11.2936 401.198 10.5627 401.618 9.86168C401.64 9.82489 401.639 9.77872 401.617 9.74439C401.593 9.71047 401.552 9.6955 401.513 9.70606C401.032 9.84171 400.656 10.2442 400.533 10.7562C400.41 11.2682 400.563 11.794 400.931 12.129C400.942 12.1393 400.955 12.1459 400.969 12.1496ZM401.309 10.0125C401.018 10.5791 400.875 11.1632 400.882 11.7561C400.704 11.4854 400.643 11.1396 400.725 10.8013C400.807 10.4589 401.022 10.1744 401.309 10.0125Z" fill="#6053AD"/>
<path fill-rule="evenodd" clip-rule="evenodd" d="M404.354 15.5146C405.133 15.7317 405.928 15.7391 406.662 15.536C408.034 15.1559 409.063 14.0722 409.484 12.5627C409.798 11.4348 409.666 10.2519 409.114 9.23136C408.564 8.21631 407.669 7.49247 406.595 7.19316C404.382 6.5762 402.162 7.76442 401.425 9.95784L401.372 10.0327C401.371 10.0339 401.37 10.0352 401.369 10.0366C401.353 10.0619 401.339 10.0827 401.326 10.1015C401.227 10.2515 401.222 10.2662 401.119 10.6426C401.102 10.7041 401.081 10.776 401.058 10.8603C400.86 11.5691 401.004 13.0047 401.787 13.8593L401.868 13.9664C401.87 13.9693 401.872 13.9721 401.875 13.9748C402.547 14.6872 403.356 15.2053 404.212 15.4728C404.259 15.4871 404.306 15.501 404.354 15.5146ZM406.54 7.39294C408.678 7.9888 409.912 10.2841 409.292 12.5094C408.892 13.9459 407.916 14.9762 406.615 15.3363C405.064 15.7654 403.305 15.1894 402.022 13.8324L401.941 13.7259C401.94 13.7235 401.938 13.7212 401.935 13.7189C401.211 12.9297 401.07 11.5593 401.249 10.9137C401.273 10.8293 401.293 10.7569 401.31 10.6954C401.409 10.3375 401.409 10.3375 401.489 10.2162C401.502 10.1974 401.516 10.1767 401.532 10.1518L401.594 10.0652C401.6 10.0565 401.605 10.0467 401.609 10.0365C402.304 7.94016 404.425 6.80347 406.54 7.39294Z" fill="#6053AD"/>
<path fill-rule="evenodd" clip-rule="evenodd" d="M403.976 15.0372C406.063 15.619 408.15 14.6954 408.628 12.9792C409.107 11.2625 407.798 9.39302 405.711 8.81122C403.624 8.22957 401.536 9.15256 401.058 10.8692C400.58 12.5854 401.889 14.4556 403.976 15.0372ZM405.667 8.96984C407.666 9.5271 408.923 11.3055 408.469 12.9348C408.015 14.5636 406.019 15.4354 404.02 14.8781C402.02 14.3208 400.763 12.5425 401.217 10.9137C401.671 9.28436 403.667 8.41258 405.667 8.96984Z" fill="#6053AD"/>
<path fill-rule="evenodd" clip-rule="evenodd" d="M404.072 14.6913C405.97 15.2202 407.849 14.448 408.261 12.97C408.673 11.4919 407.464 9.85887 405.567 9.32998C403.669 8.80109 401.79 9.57373 401.378 11.0518C400.966 12.5299 402.175 14.1624 404.072 14.6913ZM405.513 9.52166C407.302 10.0202 408.447 11.5426 408.064 12.9152C407.682 14.2872 405.915 14.9982 404.126 14.4996C402.337 14.001 401.193 12.4787 401.575 11.1066C401.957 9.73404 403.724 9.02309 405.513 9.52166Z" fill="#6053AD"/>
<path fill-rule="evenodd" clip-rule="evenodd" d="M403.998 14.6698C404.231 14.7345 404.468 14.7809 404.704 14.8065C404.707 14.8069 404.71 14.807 404.713 14.8068C406.432 14.8156 407.764 14.1058 407.812 13.1554C407.824 12.8991 407.744 12.6467 407.571 12.4061C407.693 12.108 407.762 11.794 407.779 11.4718C407.789 11.2791 407.779 11.0855 407.75 10.8958C407.748 10.8833 407.744 10.8719 407.737 10.862C407.251 10.1367 406.433 9.57067 405.493 9.3085C404.648 9.07317 403.772 9.09551 403.022 9.37146C402.273 9.64794 401.714 10.1536 401.451 10.7953C401.448 10.8014 401.446 10.8075 401.445 10.8137C401.428 10.9187 401.416 11.0259 401.411 11.1321C401.395 11.4543 401.433 11.7739 401.524 12.0836C401.473 12.1402 401.422 12.1656 401.384 12.2256C401.371 12.2458 401.403 12.3256 401.409 12.3489C401.581 12.8617 401.871 13.3111 402.307 13.752C402.771 14.1737 403.356 14.4908 403.998 14.6698ZM404.718 14.6403C404.492 14.6154 404.265 14.5713 404.043 14.5095C402.815 14.1673 401.865 13.3293 401.552 12.3181C401.589 12.2643 401.631 12.2121 401.679 12.1615C401.699 12.1399 401.707 12.1085 401.697 12.0799C401.603 11.7754 401.563 11.4597 401.579 11.1408C401.584 11.0442 401.594 10.9463 401.609 10.8502C402.132 9.5977 403.779 9.00424 405.448 9.4693C406.344 9.71893 407.122 10.2535 407.586 10.9385C407.612 11.1115 407.62 11.2877 407.611 11.463C407.595 11.7813 407.524 12.0916 407.398 12.3845C407.387 12.4118 407.391 12.4436 407.409 12.4673C407.577 12.6879 407.656 12.916 407.644 13.1466C407.601 13.9914 406.316 14.647 404.718 14.6403Z" fill="#6053AD"/>
<path fill-rule="evenodd" clip-rule="evenodd" d="M404.008 14.6741C404.24 14.7386 404.477 14.784 404.713 14.8093C404.715 14.8095 404.717 14.8096 404.72 14.8096C406.433 14.8106 407.764 14.0888 407.817 13.1313C407.831 12.8601 407.743 12.5939 407.554 12.3409C407.551 12.3371 407.548 12.3337 407.544 12.3307C407.337 12.1519 407.085 12.062 406.794 12.0617C407 11.8127 407.121 11.5043 407.139 11.1775C407.184 10.3489 406.552 9.64161 405.731 9.60087C405.354 9.58211 404.99 9.70517 404.7 9.94929C404.436 9.66218 404.08 9.49532 403.689 9.47583C403.131 9.44783 402.569 9.80173 402.291 10.3554C402.051 10.8331 402.073 11.3558 402.346 11.7865C402.07 11.7523 401.789 11.8431 401.582 12.0415C401.581 12.0424 401.58 12.0435 401.579 12.0447C401.516 12.1131 401.46 12.1846 401.414 12.2583C401.404 12.2745 401.4 12.2949 401.406 12.3137C401.555 12.8394 401.872 13.3368 402.323 13.7516C402.785 14.1762 403.368 14.4956 404.008 14.6741ZM404.724 14.6734C404.497 14.6493 404.268 14.6052 404.045 14.5429C402.807 14.1979 401.851 13.3419 401.544 12.3055C401.582 12.2486 401.626 12.1923 401.676 12.1387C401.892 11.9324 402.202 11.8629 402.483 11.9567C402.511 11.9658 402.542 11.9555 402.56 11.9303C402.577 11.9057 402.575 11.8724 402.557 11.8487C402.222 11.4363 402.167 10.9008 402.411 10.4165C402.665 9.90999 403.176 9.5861 403.681 9.61107C404.058 9.62993 404.399 9.79953 404.643 10.0884C404.654 10.1026 404.671 10.1108 404.69 10.1119C404.708 10.1134 404.726 10.107 404.739 10.0945C405.01 9.8458 405.36 9.71821 405.724 9.73611C406.471 9.77342 407.045 10.4171 407.004 11.1706C406.985 11.5208 406.836 11.8473 406.585 12.0899C406.567 12.1068 406.56 12.132 406.565 12.1554C406.574 12.1877 406.606 12.2099 406.638 12.2063C406.966 12.17 407.231 12.2429 407.45 12.4292C407.617 12.6538 407.695 12.8879 407.682 13.1243C407.635 13.9939 406.336 14.6737 404.724 14.6734Z" fill="#6053AD"/>
<path fill-rule="evenodd" clip-rule="evenodd" d="M403.717 14.4042C403.958 14.4713 404.215 14.5122 404.484 14.5248C405.641 14.5777 406.65 14.076 407.053 13.246C407.19 12.9633 407.12 12.8233 407.066 12.7644C406.977 12.6686 406.812 12.658 406.634 12.7367C405.377 13.2949 403.736 13.2196 402.549 12.5488C402.383 12.4539 402.217 12.4496 402.117 12.5373C402.057 12.5903 401.971 12.7236 402.074 13.0174C402.309 13.6793 402.921 14.1824 403.717 14.4042ZM406.913 12.8277C406.935 12.834 406.955 12.8446 406.968 12.8596C407.02 12.9152 407.007 13.0346 406.933 13.1865C406.554 13.9673 405.596 14.4387 404.491 14.3877C403.387 14.3374 402.488 13.7804 402.201 12.9688C402.145 12.8111 402.146 12.6914 402.204 12.6405C402.258 12.5923 402.368 12.6037 402.484 12.6685C403.704 13.3586 405.393 13.4361 406.686 12.8619C406.773 12.8233 406.855 12.8118 406.913 12.8277Z" fill="#6053AD"/>
<path d="M404.562 12.5897C404.594 12.5986 404.63 12.5898 404.653 12.5645C404.725 12.4835 404.843 12.46 404.944 12.5058C404.988 12.5258 405.041 12.507 405.061 12.464C405.081 12.421 405.061 12.3692 405.016 12.3492C404.843 12.271 404.643 12.3113 404.519 12.4494C404.487 12.4849 404.491 12.5393 404.528 12.5713C404.538 12.58 404.55 12.5863 404.562 12.5897Z" fill="#6053AD"/>
<path d="M404.572 12.5932C404.595 12.5997 404.62 12.5984 404.64 12.5877C404.674 12.5695 404.68 12.5299 404.652 12.4991C404.545 12.3824 404.361 12.3246 404.203 12.3582C404.162 12.3672 404.142 12.4023 404.159 12.4369C404.176 12.4712 404.223 12.4924 404.264 12.4834C404.356 12.4637 404.464 12.4976 404.526 12.5659C404.538 12.579 404.555 12.5883 404.572 12.5932Z" fill="#6053AD"/>
<path d="M404.457 13.1205C404.461 13.1215 404.465 13.1218 404.469 13.1213C404.498 13.1191 404.526 13.0799 404.533 13.0345C404.569 12.7804 404.582 12.6778 404.606 12.483C404.611 12.4374 404.592 12.4033 404.563 12.4072C404.534 12.4112 404.506 12.4516 404.5 12.4968C404.477 12.6893 404.463 12.7913 404.428 13.0432C404.422 13.0825 404.435 13.1143 404.457 13.1205Z" fill="#6053AD"/>
<path d="M406.941 13.1042C406.77 13.2304 406.568 13.3252 406.358 13.4004C406.146 13.4754 405.926 13.5311 405.702 13.5763C405.679 13.5808 405.665 13.6026 405.671 13.6242C405.676 13.6452 405.697 13.6591 405.719 13.6561C405.949 13.6247 406.178 13.5826 406.403 13.5194C406.627 13.4554 406.848 13.37 407.048 13.2421C407.088 13.2163 407.098 13.1641 407.07 13.1248C407.041 13.086 406.986 13.0752 406.946 13.1005C406.944 13.1016 406.943 13.1027 406.941 13.1038L406.941 13.1042Z" fill="#6053AD"/>
<path d="M402.004 12.9743C402.187 13.1218 402.392 13.2296 402.601 13.3166C402.811 13.4037 403.027 13.4701 403.244 13.5261C403.264 13.5311 403.284 13.5198 403.289 13.5003C403.293 13.4819 403.283 13.4633 403.265 13.4571C403.054 13.3866 402.847 13.3064 402.652 13.2086C402.456 13.1109 402.27 12.9944 402.116 12.8509L402.116 12.8507C402.082 12.8187 402.029 12.8196 401.996 12.8528C401.964 12.8855 401.966 12.9383 402 12.9702C402.002 12.9713 402.003 12.9728 402.004 12.9743Z" fill="#6053AD"/>
<path fill-rule="evenodd" clip-rule="evenodd" d="M403.998 14.6698C404.231 14.7345 404.468 14.7809 404.704 14.8065C404.707 14.8069 404.71 14.807 404.713 14.8068C406.432 14.8156 407.764 14.1058 407.812 13.1554C407.824 12.8991 407.744 12.6467 407.571 12.4061C407.693 12.108 407.762 11.794 407.779 11.4718C407.789 11.2791 407.779 11.0855 407.75 10.8958C407.748 10.8833 407.744 10.8719 407.737 10.862C407.251 10.1367 406.433 9.57067 405.493 9.3085C404.648 9.07317 403.772 9.09551 403.022 9.37146C402.273 9.64794 401.714 10.1536 401.451 10.7953C401.448 10.8014 401.446 10.8075 401.445 10.8137C401.428 10.9187 401.416 11.0259 401.411 11.1321C401.395 11.4543 401.433 11.7739 401.524 12.0836C401.473 12.1402 401.429 12.1992 401.39 12.2593C401.377 12.2795 401.398 12.3124 401.405 12.3357C401.594 12.8574 401.868 13.2904 402.307 13.752C402.771 14.1737 403.356 14.4908 403.998 14.6698ZM404.718 14.6403C404.492 14.6154 404.265 14.5713 404.043 14.5095C402.815 14.1673 401.865 13.3293 401.552 12.3181C401.589 12.2643 401.631 12.2121 401.679 12.1615C401.699 12.1399 401.707 12.1085 401.697 12.0799C401.603 11.7754 401.563 11.4597 401.579 11.1408C401.584 11.0442 401.594 10.9463 401.609 10.8502C402.132 9.5977 403.779 9.00424 405.448 9.4693C406.344 9.71893 407.122 10.2535 407.586 10.9385C407.612 11.1115 407.62 11.2877 407.611 11.463C407.595 11.7813 407.524 12.0916 407.398 12.3845C407.387 12.4118 407.391 12.4436 407.409 12.4673C407.577 12.6879 407.656 12.916 407.644 13.1466C407.601 13.9914 406.316 14.647 404.718 14.6403Z" fill="#6053AD"/>
<path fill-rule="evenodd" clip-rule="evenodd" d="M409.174 13.1314C409.21 13.1412 409.246 13.1484 409.284 13.1529C409.522 13.1827 409.762 13.0974 409.958 12.9129C410.15 12.7326 410.277 12.4774 410.317 12.1953C410.399 11.6062 410.069 11.0778 409.582 11.0167C409.094 10.9559 408.63 11.3855 408.548 11.9747C408.509 12.2568 408.562 12.5344 408.697 12.7556C408.814 12.9469 408.981 13.0775 409.174 13.1314ZM409.633 11.2399C409.967 11.333 410.181 11.7302 410.12 12.1706C410.087 12.4037 409.984 12.6128 409.828 12.7599C409.676 12.9022 409.493 12.9685 409.312 12.9459C409.132 12.9236 408.973 12.8148 408.866 12.6398C408.756 12.4593 408.713 12.2319 408.745 11.9988C408.812 11.5243 409.174 11.1765 409.553 11.2235C409.58 11.2272 409.607 11.2327 409.633 11.2399Z" fill="#6053AD"/>
<path fill-rule="evenodd" clip-rule="evenodd" d="M409.42 13.0134C409.445 13.0203 409.469 13.0253 409.495 13.0285C409.56 13.0369 409.627 13.0329 409.692 13.016C409.695 13.0154 409.699 13.0143 409.702 13.013C410.029 12.8851 410.276 12.545 410.331 12.1467C410.393 11.6917 410.192 11.2539 409.841 11.0816C409.836 11.0794 409.83 11.0776 409.825 11.076C409.804 11.0708 409.783 11.0668 409.763 11.0641C409.376 11.0149 409 11.4147 408.925 11.9563C408.89 12.2134 408.927 12.4654 409.029 12.6651C409.122 12.8473 409.259 12.9686 409.42 13.0134ZM409.65 12.8527C409.606 12.8634 409.561 12.8659 409.518 12.8602C409.379 12.8422 409.257 12.7443 409.176 12.5848C409.089 12.4154 409.058 12.1998 409.089 11.9771C409.15 11.5282 409.442 11.1944 409.74 11.2325C409.752 11.2341 409.763 11.2362 409.775 11.2386C410.058 11.3828 410.219 11.746 410.167 12.1259C410.121 12.4609 409.919 12.7454 409.65 12.8527Z" fill="#6053AD"/>
<path fill-rule="evenodd" clip-rule="evenodd" d="M407.053 8.81398C407.157 8.84303 407.305 8.8195 407.493 8.74277C407.788 8.62357 408.098 8.61757 408.363 8.62784C408.384 8.62816 408.404 8.62294 408.422 8.61246C408.598 8.50242 408.668 8.31763 408.598 8.14234C408.524 7.95247 408.281 7.77644 407.907 7.81022C407.679 7.81885 407.261 7.89488 407.002 8.30435C406.876 8.50359 406.857 8.65301 406.944 8.74919C406.973 8.7802 407.01 8.8018 407.053 8.81398ZM408.33 8.4322C408.065 8.42396 407.728 8.4344 407.408 8.5638C407.195 8.65042 407.108 8.63271 407.096 8.62338C407.096 8.62353 407.075 8.56991 407.177 8.408C407.39 8.07203 407.736 8.01098 407.924 8.00421C407.926 8.00403 407.928 8.00385 407.93 8.00367C408.196 7.9792 408.361 8.08771 408.408 8.20589C408.441 8.28999 408.413 8.37091 408.33 8.4322Z" fill="#6053AD"/>
<path fill-rule="evenodd" clip-rule="evenodd" d="M402.805 8.37367C402.921 8.40602 403.063 8.37416 403.128 8.25519C403.298 7.94325 403.628 7.66273 403.987 7.52416C404.018 7.51215 404.041 7.48511 404.048 7.45195C404.055 7.41931 404.045 7.38536 404.021 7.36201C403.802 7.14442 403.581 7.05721 403.365 7.10223C403.076 7.16283 402.819 7.46344 402.6 7.99656C402.546 8.12817 402.613 8.28508 402.753 8.35353C402.769 8.362 402.787 8.36868 402.805 8.37367ZM403.772 7.40455C403.43 7.57346 403.126 7.85278 402.957 8.16087C402.939 8.19376 402.879 8.19647 402.839 8.17688C402.799 8.15678 402.765 8.1078 402.78 8.07133C402.97 7.6091 403.185 7.34042 403.403 7.29516C403.519 7.27062 403.643 7.30784 403.772 7.40455Z" fill="#6053AD"/>
<path opacity="0.3" d="M403.788 7.34252C403.247 7.56337 402.958 7.85543 402.919 8.21868C403.199 7.9355 403.511 7.69094 403.853 7.48499C403.862 7.48722 403.841 7.43973 403.788 7.34252Z" fill="#6053AD"/>
<path fill-rule="evenodd" clip-rule="evenodd" d="M404.041 14.6606C405.891 15.1762 407.732 14.393 408.144 12.915C408.555 11.437 407.386 9.81489 405.535 9.29927C403.685 8.78366 401.845 9.56679 401.433 11.0448C401.021 12.5228 402.191 14.1449 404.041 14.6606ZM405.5 9.42826C407.278 9.92403 408.406 11.4723 408.014 12.879C407.622 14.2857 405.856 15.0268 404.077 14.531C402.299 14.0353 401.17 12.4875 401.562 11.0808C401.954 9.67416 403.721 8.93249 405.5 9.42826Z" fill="#6053AD"/>
<path fill-rule="evenodd" clip-rule="evenodd" d="M403.458 12.0714C403.226 12.1047 403.016 11.8442 402.987 11.4896C402.959 11.135 403.123 10.8205 403.354 10.7872C403.586 10.754 403.796 11.0144 403.825 11.369C403.853 11.7236 403.689 12.0379 403.458 12.0714ZM403.338 11.3166C403.245 11.2828 403.194 11.1792 403.224 11.0853C403.253 10.9908 403.353 10.9416 403.446 10.9749C403.539 11.0083 403.59 11.1124 403.56 11.2065C403.53 11.3008 403.431 11.35 403.338 11.3166Z" fill="#6053AD"/>
<path fill-rule="evenodd" clip-rule="evenodd" d="M405.762 11.0621C405.572 11.0173 405.38 11.2212 405.333 11.5167C405.286 11.8127 405.402 12.0882 405.591 12.1324C405.78 12.177 405.972 11.9732 406.019 11.6777C406.066 11.3816 405.951 11.1062 405.762 11.0621ZM405.656 11.2322C405.575 11.2469 405.54 11.3453 405.578 11.4516C405.615 11.558 405.712 11.6325 405.793 11.6172C405.874 11.6025 405.91 11.5042 405.872 11.3978C405.834 11.2914 405.737 11.2174 405.656 11.2322ZM405.455 11.8656C405.427 11.8147 405.433 11.7587 405.468 11.7405C405.503 11.7226 405.553 11.7491 405.581 11.7999C405.608 11.8507 405.602 11.9067 405.568 11.9251C405.533 11.9433 405.482 11.9164 405.455 11.8656Z" fill="#6053AD"/>
<path fill-rule="evenodd" clip-rule="evenodd" d="M406.214 6.33312C406.291 6.68862 406.224 7.03592 406.138 7.25138L405.869 7.14318C405.938 6.97092 405.993 6.68389 405.931 6.39651C405.871 6.11675 405.699 5.82953 405.298 5.63885L405.422 5.37452C405.909 5.60578 406.136 5.97 406.214 6.33312Z" fill="#6053AD"/>
<path d="M405.842 5.67844C405.789 5.86946 405.592 5.98136 405.402 5.92836C405.211 5.87537 405.1 5.67754 405.154 5.48651C405.207 5.29548 405.404 5.18359 405.594 5.23659C405.784 5.28958 405.895 5.48741 405.842 5.67844Z" fill="#6053AD"/>
<path fill-rule="evenodd" clip-rule="evenodd" d="M407.003 5.99173C407.003 5.9917 407.003 5.99288 407.001 5.99532C407.002 5.99297 407.003 5.99175 407.003 5.99173ZM406.864 6.10903C406.846 6.10796 406.827 6.10721 406.806 6.10686C406.596 6.10326 406.303 6.14076 405.98 6.22565C405.657 6.31055 405.383 6.42223 405.202 6.52867C405.184 6.53915 405.168 6.5493 405.152 6.55909C405.17 6.56016 405.19 6.56091 405.21 6.56126C405.42 6.56487 405.713 6.52737 406.036 6.44247C406.359 6.35758 406.633 6.2459 406.814 6.13945C406.832 6.12898 406.849 6.11882 406.864 6.10903ZM404.974 6.52531C404.974 6.52527 404.976 6.52591 404.978 6.52738C404.975 6.52609 404.974 6.52536 404.974 6.52531ZM405.013 6.6764C405.013 6.67642 405.014 6.67524 405.015 6.6728C405.014 6.67516 405.013 6.67638 405.013 6.6764ZM407.038 6.14075C407.041 6.14203 407.042 6.14277 407.042 6.14281C407.042 6.14286 407.041 6.14222 407.038 6.14075ZM406.097 6.67847C406.773 6.50071 407.281 6.2024 407.232 6.01219C407.183 5.82197 406.595 5.81188 405.919 5.98965C405.243 6.16742 404.735 6.46572 404.784 6.65594C404.833 6.84615 405.421 6.85624 406.097 6.67847Z" fill="#6053AD"/>
</g>
<path fill-rule="evenodd" clip-rule="evenodd" d="M414.413 19.3468L415.863 19.7755C416.121 19.8518 416.226 20.16 416.069 20.3783L414.559 22.4753C414.504 22.552 414.478 22.6462 414.487 22.7403L414.718 25.1769C414.743 25.4496 414.488 25.6635 414.224 25.5899L409.495 24.2719C409.287 24.214 409.165 23.9986 409.223 23.7908L409.393 23.1841C409.447 22.9868 409.646 22.8654 409.846 22.9061L413.199 23.5853L414.413 19.3468ZM394.141 13.6969L392.648 13.3056C392.388 13.2373 392.138 13.4465 392.16 13.7146L392.366 16.2901C392.374 16.3843 392.347 16.478 392.291 16.5539L390.834 18.5205C390.671 18.7406 390.779 19.0558 391.043 19.1293L395.773 20.4475C395.981 20.5055 396.196 20.384 396.254 20.1761L396.423 19.5695C396.478 19.3721 396.371 19.1658 396.179 19.0968L392.957 17.9439L394.141 13.6969Z" fill="#8C7EDC"/>
<path d="M414.413 19.3468L414.665 18.3619C414.718 18.1559 414.597 17.9456 414.392 17.8885L394.893 12.4541C394.685 12.3961 394.47 12.5176 394.412 12.7255L394.141 13.6969L392.957 17.9439L413.199 23.5853L414.413 19.3468Z" fill="#BAAEFF"/>
<path d="M399.492 15.8569L399.304 16.5286L400.388 16.8305L400.214 17.4549L399.13 17.153L398.927 17.8815L400.152 18.223L399.972 18.871L397.938 18.3041L398.863 14.9834L400.897 15.5503L400.717 16.1984L399.492 15.8569Z" fill="#6053AD"/>
<path d="M401.48 18.6184L402.539 18.9137L402.365 19.5381L400.497 19.0174L401.422 15.6967L402.231 15.9221L401.48 18.6184Z" fill="#6053AD"/>
<path d="M404.486 16.5504L403.56 19.8711L402.751 19.6457L403.677 16.325L404.486 16.5504Z" fill="#6053AD"/>
<path d="M407.461 17.3796L407.28 18.0276L406.4 17.7824L405.655 20.4551L404.846 20.2296L405.591 17.557L404.712 17.3117L404.892 16.6637L407.461 17.3796Z" fill="#6053AD"/>
<path d="M408.495 18.3662L408.308 19.0379L409.391 19.3398L409.217 19.9643L408.134 19.6623L407.931 20.3908L409.156 20.7323L408.975 21.3803L406.941 20.8134L407.867 17.4927L409.901 18.0596L409.72 18.7077L408.495 18.3662Z" fill="#6053AD"/>
<path d="M392.922 17.9414L396.597 18.9656L396.186 20.5953L392.922 17.9414Z" fill="#6053AD"/>
<path d="M413.231 23.6029L409.516 22.5674L409.089 24.1924L413.231 23.6029Z" fill="#6053AD"/>
</g>
</g>
<defs>
<linearGradient id="paint0_linear_28351_62521" x1="-50.9045" y1="616.626" x2="268.779" y2="347.606" gradientUnits="userSpaceOnUse">
<stop stop-color="#A66FED"/>
<stop offset="1" stop-color="#F4EBFF" stop-opacity="0"/>
</linearGradient>
<linearGradient id="paint1_linear_28351_62521" x1="-50.9045" y1="616.626" x2="268.779" y2="347.606" gradientUnits="userSpaceOnUse">
<stop stop-color="#A66FED"/>
<stop offset="1" stop-color="#F4EBFF" stop-opacity="0"/>
</linearGradient>
<linearGradient id="paint2_linear_28351_62521" x1="392.187" y1="79.7271" x2="390.615" y2="85.5934" gradientUnits="userSpaceOnUse">
<stop stop-color="#919194"/>
<stop offset="1" stop-color="#DDDDDD"/>
</linearGradient>
<linearGradient id="paint3_linear_28351_62521" x1="404.394" y1="82.9976" x2="402.822" y2="88.8639" gradientUnits="userSpaceOnUse">
<stop stop-color="#919194"/>
<stop offset="1" stop-color="#DDDDDD"/>
</linearGradient>
<radialGradient id="paint4_radial_28351_62521" cx="0" cy="0" r="1" gradientUnits="userSpaceOnUse" gradientTransform="translate(399.984 73.7692) rotate(105) scale(8.86154 8.81633)">
<stop offset="0.28" stop-color="#E6E6E6"/>
<stop offset="1" stop-color="#A7A7A7"/>
</radialGradient>
<linearGradient id="paint5_linear_28351_62521" x1="401.821" y1="66.9202" x2="398.151" y2="80.6155" gradientUnits="userSpaceOnUse">
<stop stop-color="#D6D6D6"/>
<stop offset="1" stop-color="#F7F7F7"/>
</linearGradient>
<linearGradient id="paint6_linear_28351_62521" x1="369.226" y1="54.2198" x2="371.322" y2="62.0415" gradientUnits="userSpaceOnUse">
<stop stop-color="#E6C208"/>
<stop offset="1" stop-color="#EBEBEB"/>
</linearGradient>
<linearGradient id="paint7_linear_28351_62521" x1="385.502" y1="49.8585" x2="387.598" y2="57.6802" gradientUnits="userSpaceOnUse">
<stop stop-color="#E6C208"/>
<stop offset="1" stop-color="#EBEBEB"/>
</linearGradient>
<radialGradient id="paint8_radial_28351_62521" cx="0" cy="0" r="1" gradientUnits="userSpaceOnUse" gradientTransform="translate(374.256 42.1418) rotate(75) scale(11.8154 11.7551)">
<stop stop-color="#FFF4BE"/>
<stop offset="1" stop-color="#FCDE48"/>
</radialGradient>
<linearGradient id="paint9_linear_28351_62521" x1="371.81" y1="33.0114" x2="376.703" y2="51.2718" gradientUnits="userSpaceOnUse">
<stop stop-color="#FFF6C9"/>
<stop offset="1" stop-color="#E7CD4D"/>
</linearGradient>
<linearGradient id="paint10_linear_28351_62521" x1="396.407" y1="17.7276" x2="394.505" y2="24.5529" gradientUnits="userSpaceOnUse">
<stop stop-color="#6955E8"/>
<stop offset="1" stop-color="#E5E1FF"/>
</linearGradient>
<linearGradient id="paint11_linear_28351_62521" x1="410.609" y1="21.6866" x2="408.707" y2="28.5119" gradientUnits="userSpaceOnUse">
<stop stop-color="#6955E8"/>
<stop offset="1" stop-color="#E5E1FF"/>
</linearGradient>
<radialGradient id="paint12_radial_28351_62521" cx="0" cy="0" r="1" gradientUnits="userSpaceOnUse" gradientTransform="translate(405.57 10.8678) rotate(105.574) scale(10.3385 10.2857)">
<stop stop-color="#DAD4FF"/>
<stop offset="1" stop-color="#8F7EFC"/>
</radialGradient>
<linearGradient id="paint13_linear_28351_62521" x1="407.79" y1="2.90058" x2="403.349" y2="18.8348" gradientUnits="userSpaceOnUse">
<stop stop-color="#C0B6FF"/>
<stop offset="1" stop-color="#A293FF"/>
</linearGradient>
<clipPath id="clip0_28351_62521">
<rect width="428" height="90" rx="5" fill="white"/>
</clipPath>
<clipPath id="clip1_28351_62521">
<rect width="24" height="24" fill="white" transform="translate(391.211 61) rotate(15)"/>
</clipPath>
<clipPath id="clip2_28351_62521">
<rect width="32" height="32" fill="white" transform="translate(356 33.2822) rotate(-15)"/>
</clipPath>
<clipPath id="clip3_28351_62521">
<rect width="28" height="28" fill="white" transform="translate(395.516 -4) rotate(15.5736)"/>
</clipPath>
</defs>
</svg>
