<svg width="320" height="73" viewBox="0 0 320 73" fill="none" xmlns="http://www.w3.org/2000/svg">
<g clip-path="url(#clip0_32558_34480)">
<g opacity="0.5">
<rect width="341.498" height="400.524" rx="34.7045" transform="matrix(0.65959 -0.751625 -0.867807 -0.496902 499.405 128.246)" fill="url(#paint0_linear_32558_34480)"/>
<rect width="341.498" height="400.524" rx="34.7045" transform="matrix(0.65959 -0.751625 -0.867807 -0.496902 412.492 136.994)" fill="url(#paint1_linear_32558_34480)"/>
</g>
<g opacity="0.2">
<path opacity="0.5" d="M255.09 2.3982C255.478 2.07043 256.073 2.21173 256.273 2.67926L256.888 4.11881C257.026 4.44274 257.37 4.62827 257.717 4.56623L259.258 4.29051C259.758 4.20097 260.203 4.62077 260.142 5.12552L259.955 6.67967C259.912 7.02939 260.117 7.3619 260.449 7.48154L261.921 8.01321C262.399 8.18589 262.574 8.77171 262.269 9.17843L261.33 10.4307C261.119 10.7125 261.13 11.1029 261.357 11.3722L262.366 12.5688C262.694 12.9574 262.552 13.5523 262.085 13.752L260.645 14.3669C260.321 14.5053 260.136 14.849 260.198 15.1957L260.474 16.7366C260.563 17.2371 260.143 17.6816 259.639 17.6208L258.085 17.4336C257.735 17.3914 257.402 17.5963 257.283 17.9276L256.751 19.3999C256.578 19.8781 255.993 20.0532 255.586 19.7481L254.333 18.8089C254.052 18.5976 253.661 18.6087 253.392 18.8358L252.195 19.845C251.807 20.1728 251.212 20.0315 251.012 19.564L250.397 18.1244C250.259 17.8005 249.915 17.615 249.568 17.677L248.028 17.9527C247.527 18.0423 247.083 17.6225 247.143 17.1177L247.331 15.5636C247.373 15.2139 247.168 14.8814 246.837 14.7617L245.364 14.23C244.886 14.0574 244.711 13.4715 245.016 13.0648L245.955 11.8125C246.167 11.5307 246.155 11.1403 245.928 10.871L244.919 9.67444C244.591 9.28581 244.733 8.69094 245.2 8.49123L246.64 7.87631C246.964 7.73793 247.149 7.39426 247.087 7.04752L246.811 5.50661C246.722 5.00616 247.142 4.56165 247.646 4.62246L249.201 4.80969C249.55 4.85182 249.883 4.64696 250.003 4.31565L250.534 2.84333C250.707 2.36515 251.293 2.19009 251.699 2.49513L252.952 3.43435C253.234 3.64569 253.624 3.63453 253.893 3.40743L255.09 2.3982Z" fill="#7E54F1"/>
<path d="M257.557 7.64829C257.986 7.38385 258.548 7.51742 258.813 7.94664C259.077 8.37585 258.944 8.93817 258.514 9.20262L249.707 14.6292C249.277 14.8937 248.715 14.7601 248.451 14.3309C248.186 13.9016 248.32 13.3393 248.749 13.0749L257.557 7.64829Z" fill="#7E54F1"/>
<path d="M253.827 14.2928C253.983 13.6388 254.639 13.2346 255.293 13.3899C255.947 13.5453 256.351 14.2014 256.195 14.8553C256.04 15.5093 255.384 15.9136 254.73 15.7582C254.076 15.6029 253.672 14.9468 253.827 14.2928Z" fill="#7E54F1"/>
<path d="M252.555 6.48465C251.901 6.3293 251.244 6.73353 251.089 7.38752C250.934 8.04151 251.338 8.69761 251.992 8.85295C252.646 9.0083 253.302 8.60408 253.457 7.95009C253.613 7.2961 253.209 6.64 252.555 6.48465Z" fill="#7E54F1"/>
</g>
<g opacity="0.2">
<path opacity="0.5" d="M318.37 39.7976C318.794 39.44 319.443 39.5942 319.66 40.1042L320.331 41.6745C320.482 42.0279 320.857 42.2302 321.235 42.1626L322.916 41.8618C323.462 41.7641 323.947 42.2221 323.881 42.7727L323.676 44.468C323.63 44.8495 323.854 45.2122 324.215 45.3428L325.821 45.9227C326.343 46.1111 326.534 46.7502 326.201 47.1938L325.177 48.5599C324.946 48.8673 324.958 49.2932 325.206 49.5869L326.307 50.8922C326.665 51.3162 326.51 51.9651 326 52.183L324.43 52.8537C324.077 53.0047 323.874 53.3796 323.942 53.7578L324.243 55.4387C324.34 55.9847 323.883 56.4696 323.332 56.4032L321.637 56.199C321.255 56.153 320.892 56.3765 320.762 56.7379L320.182 58.344C319.993 58.8656 319.354 59.0566 318.911 58.7238L317.545 57.6993C317.237 57.4687 316.811 57.4809 316.518 57.7287L315.212 58.8296C314.788 59.1871 314.14 59.033 313.922 58.523L313.251 56.9526C313.1 56.5993 312.725 56.3969 312.347 56.4646L310.666 56.7653C310.12 56.863 309.635 56.4051 309.701 55.8545L309.906 54.1591C309.952 53.7776 309.728 53.4149 309.367 53.2844L307.761 52.7044C307.239 52.516 307.048 51.877 307.381 51.4333L308.405 50.0672C308.636 49.7598 308.624 49.334 308.376 49.0402L307.275 47.7349C306.917 47.311 307.072 46.662 307.582 46.4442L309.152 45.7734C309.505 45.6224 309.708 45.2476 309.64 44.8693L309.339 43.1884C309.242 42.6425 309.7 42.1576 310.25 42.2239L311.945 42.4282C312.327 42.4741 312.69 42.2506 312.82 41.8892L313.4 40.2831C313.589 39.7615 314.228 39.5705 314.671 39.9033L316.037 40.9279C316.345 41.1584 316.771 41.1462 317.064 40.8985L318.37 39.7976Z" fill="#7E54F1"/>
<path d="M321.061 45.525C321.529 45.2365 322.143 45.3822 322.431 45.8504C322.72 46.3187 322.574 46.9321 322.106 47.2205L312.498 53.1402C312.03 53.4286 311.416 53.2829 311.128 52.8147C310.839 52.3465 310.985 51.7331 311.453 51.4446L321.061 45.525Z" fill="#7E54F1"/>
<path d="M316.993 52.7732C317.162 52.0598 317.878 51.6188 318.591 51.7883C319.305 51.9577 319.746 52.6734 319.576 53.3868C319.407 54.1003 318.691 54.5412 317.978 54.3717C317.264 54.2023 316.823 53.4866 316.993 52.7732Z" fill="#7E54F1"/>
<path d="M315.605 44.2556C314.891 44.0862 314.175 44.5271 314.006 45.2405C313.836 45.9539 314.277 46.6696 314.991 46.8391C315.704 47.0086 316.42 46.5676 316.589 45.8542C316.759 45.1408 316.318 44.4251 315.605 44.2556Z" fill="#7E54F1"/>
</g>
<g opacity="0.2" clip-path="url(#clip1_32558_34480)">
<path d="M294.182 63.8401C294.293 63.4233 294.046 62.9949 293.629 62.8833L290.987 62.1753C290.57 62.0636 290.142 62.3109 290.03 62.7277L288.33 69.0729C288.166 69.6854 288.761 70.228 289.356 70.0077L292.5 68.843C292.737 68.755 292.918 68.5573 292.983 68.3126L294.182 63.8401Z" fill="url(#paint2_linear_32558_34480)"/>
<path d="M298.015 64.8669C298.126 64.4502 298.555 64.2028 298.971 64.3145L301.614 65.0225C302.03 65.1342 302.278 65.5626 302.166 65.9793L300.466 72.3245C300.302 72.9371 299.515 73.1092 299.11 72.6211L296.969 70.0404C296.808 69.8454 296.751 69.5841 296.816 69.3394L298.015 64.8669Z" fill="url(#paint3_linear_32558_34480)"/>
<path d="M297.932 51.5907C298.761 51.3559 299.652 51.5946 300.252 52.2123L302.354 54.3753L304.515 56.4941C305.126 57.0931 305.362 57.9775 305.131 58.8013L304.308 61.7315L303.555 64.6807C303.344 65.5097 302.697 66.1577 301.869 66.371L298.938 67.1254L296.036 67.9476C295.207 68.1824 294.316 67.9437 293.716 67.326L291.614 65.163L289.453 63.0442C288.842 62.4452 288.606 61.5608 288.837 60.737L289.66 57.8068L290.413 54.8577C290.624 54.0286 291.271 53.3807 292.1 53.1674L295.03 52.4129L297.932 51.5907Z" fill="url(#paint4_radial_32558_34480)"/>
<path d="M297.318 53.0308C298.147 52.796 299.037 53.0346 299.638 53.6523L301.201 55.2613L302.811 56.8394C303.422 57.4384 303.658 58.3228 303.426 59.1466L302.813 61.3302L302.252 63.528C302.041 64.3571 301.394 65.005 300.566 65.2183L298.383 65.7801L296.224 66.3918C295.396 66.6266 294.505 66.3879 293.905 65.7702L292.341 64.1612L290.731 62.5832C290.12 61.9841 289.885 61.0998 290.116 60.276L290.729 58.0923L291.29 55.8946C291.501 55.0655 292.148 54.4176 292.977 54.2043L295.159 53.6424L297.318 53.0308Z" fill="#808080"/>
<path d="M297.474 53.3009C298.303 53.0661 299.194 53.3047 299.794 53.9224L301.281 55.4523L302.811 56.9531C303.422 57.5521 303.658 58.4365 303.427 59.2603L302.844 61.3373L302.31 63.4277C302.099 64.2568 301.452 64.9047 300.624 65.118L298.548 65.6524L296.495 66.2339C295.666 66.4687 294.776 66.23 294.175 65.6123L292.689 64.0825L291.158 62.5817C290.547 61.9827 290.311 61.0983 290.542 60.2745L291.126 58.1975L291.659 56.1071C291.871 55.278 292.517 54.6301 293.346 54.4168L295.422 53.8824L297.474 53.3009Z" fill="url(#paint5_linear_32558_34480)"/>
<path fill-rule="evenodd" clip-rule="evenodd" d="M293.43 63.9757C293.372 64.0231 293.293 63.9874 293.216 63.8765C293.16 63.7949 293.106 63.7107 293.054 63.624L293.253 63.5008C293.301 63.5815 293.351 63.6598 293.403 63.7359C293.475 63.8402 293.489 63.9279 293.43 63.9757ZM293.736 63.6862C293.68 63.7311 293.61 63.7031 293.542 63.6042C293.497 63.5383 293.454 63.4706 293.413 63.4011L293.601 63.2842C293.64 63.3497 293.681 63.4135 293.723 63.4756C293.786 63.5683 293.793 63.6408 293.736 63.6863L293.736 63.6862ZM293.658 64.298C293.745 64.2125 293.743 64.0548 293.653 63.9021C293.769 63.9974 293.902 64.0175 293.995 63.9283C294.116 63.8092 294.082 63.6246 293.927 63.407C293.81 63.2412 293.708 63.0653 293.621 62.8813L292.674 63.3491C292.791 63.5981 292.93 63.8358 293.09 64.0593C293.306 64.3576 293.535 64.4207 293.658 64.2981L293.658 64.298ZM294.631 65.3954C294.757 65.4606 294.885 65.5195 295.016 65.5721C294.965 65.1777 294.96 64.7784 295.002 64.3826C294.899 64.3238 294.799 64.2595 294.703 64.19C294.364 64.3961 294.002 64.5591 293.624 64.6752C293.728 64.7741 293.835 64.8673 293.947 64.9546C294.011 64.9253 294.074 64.8949 294.137 64.8632C294.295 64.9814 294.461 65.0883 294.634 65.1831C294.632 65.2536 294.631 65.3244 294.631 65.3955L294.631 65.3954ZM294.647 64.9602C294.54 64.8982 294.435 64.8311 294.334 64.7588C294.458 64.6878 294.579 64.6124 294.696 64.5325C294.674 64.6732 294.657 64.8158 294.647 64.9603L294.647 64.9602ZM296.479 65.5687C296.489 65.2307 295.792 65.2174 295.838 65.0186C295.853 64.9535 295.917 64.936 295.993 64.9521C296.077 64.9699 296.13 65.0189 296.126 65.0876C296.245 65.1052 296.364 65.1171 296.484 65.123C296.479 64.9177 296.302 64.7988 296.038 64.7485C295.784 64.7003 295.567 64.7402 295.499 64.9317C295.364 65.307 296.113 65.3771 296.089 65.5524C296.08 65.614 296.004 65.6426 295.894 65.6223C295.788 65.6026 295.723 65.5462 295.731 65.464C295.603 65.434 295.477 65.398 295.352 65.3558C295.289 65.5618 295.515 65.7651 295.867 65.8292C296.249 65.8966 296.474 65.7455 296.479 65.5687L296.479 65.5687ZM296.827 65.8873C296.961 65.8822 297.095 65.8708 297.229 65.8532L297.103 64.7951C297 64.8085 296.898 64.8172 296.795 64.8211L296.827 65.8873ZM297.465 65.2711C297.517 65.5824 297.906 65.7459 298.385 65.5434C298.768 65.3795 298.969 65.0755 298.92 64.8333C298.799 64.9147 298.674 64.9896 298.545 65.0577C298.527 65.1696 298.433 65.2683 298.293 65.328C298.065 65.4249 297.873 65.3571 297.822 65.1771C297.771 64.9956 297.873 64.8433 298.065 64.7618C298.184 64.7108 298.298 64.7034 298.393 64.7555C298.511 64.693 298.627 64.6242 298.738 64.5495C298.539 64.4071 298.264 64.4204 297.98 64.5417C297.632 64.691 297.412 64.9545 297.465 65.2711Z" fill="#959595"/>
<g opacity="0.8">
<path fill-rule="evenodd" clip-rule="evenodd" d="M293.048 60.9117C293.069 60.9173 293.091 60.9145 293.111 60.903C293.142 60.8844 293.16 60.8484 293.156 60.8117C293.087 60.1775 293.232 59.5495 293.586 58.9451C293.604 58.9134 293.603 58.8738 293.583 58.8446C293.563 58.8157 293.528 58.8032 293.494 58.8126C293.082 58.933 292.764 59.2811 292.663 59.721C292.562 60.1609 292.697 60.6103 293.016 60.8943C293.025 60.903 293.037 60.9086 293.048 60.9117ZM293.321 59.077C293.077 59.5651 292.96 60.0669 292.971 60.5751C292.815 60.3446 292.76 60.0487 292.827 59.758C292.895 59.4639 293.077 59.2182 293.321 59.077Z" fill="#808080"/>
<path fill-rule="evenodd" clip-rule="evenodd" d="M295.98 63.7667C296.65 63.9462 297.331 63.9457 297.959 63.7653C299.132 63.4278 300.004 62.4901 300.352 61.1927C300.611 60.2233 300.489 59.2105 300.006 58.3405C299.526 57.4753 298.753 56.8625 297.83 56.6152C295.928 56.1054 294.035 57.1429 293.423 59.0292L293.377 59.0938C293.377 59.0949 293.376 59.096 293.375 59.0972C293.361 59.119 293.35 59.137 293.339 59.1532C293.255 59.2826 293.251 59.2952 293.166 59.6187C293.151 59.6716 293.135 59.7334 293.116 59.8059C292.952 60.415 293.088 61.6443 293.766 62.3701L293.836 62.4611C293.838 62.4636 293.84 62.466 293.842 62.4683C294.424 63.0731 295.122 63.5102 295.859 63.7322C295.899 63.744 295.94 63.7555 295.98 63.7667ZM297.784 56.7869C299.622 57.2793 300.7 59.236 300.187 61.1486C299.856 62.3833 299.029 63.2747 297.916 63.5946C296.591 63.9757 295.079 63.4971 293.968 62.3449L293.897 62.2543C293.896 62.2523 293.894 62.2503 293.892 62.2485C293.264 61.5782 293.131 60.4049 293.28 59.85C293.3 59.7775 293.316 59.7152 293.33 59.6624C293.412 59.3547 293.412 59.3547 293.48 59.2501C293.49 59.2339 293.502 59.216 293.516 59.1946L293.568 59.1198C293.573 59.1122 293.578 59.1038 293.58 59.095C294.159 57.2923 295.966 56.2998 297.784 56.7869Z" fill="#808080"/>
<path fill-rule="evenodd" clip-rule="evenodd" d="M295.65 63.3603C297.444 63.8411 299.225 63.0315 299.62 61.5565C300.015 60.081 298.878 58.4899 297.083 58.0091C295.29 57.5285 293.509 58.3375 293.113 59.813C292.718 61.288 293.856 62.8797 295.65 63.3603ZM297.047 58.1454C298.765 58.6059 299.858 60.1194 299.483 61.5197C299.108 62.9197 297.405 63.684 295.686 63.2235C293.968 62.7631 292.875 61.2496 293.25 59.8497C293.625 58.4493 295.328 57.685 297.047 58.1454Z" fill="#808080"/>
<path fill-rule="evenodd" clip-rule="evenodd" d="M295.73 63.063C297.361 63.5001 298.964 62.8222 299.304 61.5518C299.645 60.2814 298.595 58.8921 296.964 58.4551C295.333 58.018 293.73 58.6964 293.389 59.9668C293.049 61.2372 294.099 62.626 295.73 63.063ZM296.92 58.6198C298.458 59.0318 299.452 60.3268 299.135 61.5065C298.819 62.6858 297.311 63.3103 295.774 62.8983C294.236 62.4863 293.242 61.1913 293.558 60.0121C293.874 58.8323 295.383 58.2078 296.92 58.6198Z" fill="#808080"/>
<path fill-rule="evenodd" clip-rule="evenodd" d="M295.666 63.0456C295.865 63.0991 296.069 63.1368 296.272 63.1567C296.274 63.1571 296.277 63.1571 296.28 63.1569C297.752 63.1497 298.888 62.5299 298.921 61.7149C298.93 61.4951 298.858 61.2794 298.708 61.0747C298.81 60.8182 298.867 60.5484 298.878 60.2721C298.885 60.1069 298.875 59.9411 298.849 59.7787C298.847 59.768 298.843 59.7583 298.837 59.7499C298.414 59.1323 297.709 58.6542 296.9 58.4376C296.175 58.2432 295.423 58.2698 294.783 58.5128C294.144 58.7562 293.669 59.1944 293.448 59.7466C293.446 59.7519 293.445 59.7571 293.444 59.7624C293.43 59.8526 293.421 59.9446 293.418 60.0356C293.407 60.3119 293.441 60.5856 293.522 60.8502C293.479 60.8992 293.436 60.9213 293.404 60.9731C293.393 60.9905 293.421 61.0586 293.426 61.0786C293.578 61.5166 293.83 61.8993 294.208 62.2735C294.609 62.6309 295.114 62.8977 295.666 63.0456ZM296.282 63.0142C296.088 62.9947 295.893 62.9589 295.702 62.9078C294.647 62.625 293.825 61.9149 293.549 61.0509C293.58 61.0045 293.616 60.9595 293.656 60.9156C293.673 60.897 293.679 60.87 293.671 60.8455C293.587 60.5854 293.55 60.3151 293.561 60.0417C293.565 59.9588 293.573 59.8749 293.585 59.7924C294.022 58.7143 295.429 58.1915 296.863 58.5758C297.633 58.7821 298.305 59.2336 298.709 59.8167C298.732 59.9648 298.741 60.1157 298.735 60.2661C298.723 60.539 298.665 60.8056 298.56 61.0577C298.55 61.0812 298.554 61.1084 298.57 61.1285C298.715 61.3162 298.785 61.511 298.777 61.7088C298.747 62.4333 297.652 63.0062 296.282 63.0142Z" fill="#808080"/>
<path fill-rule="evenodd" clip-rule="evenodd" d="M295.676 63.0487C295.875 63.102 296.079 63.1389 296.281 63.1585C296.283 63.1587 296.285 63.1588 296.287 63.1587C297.756 63.1449 298.89 62.5148 298.927 61.6937C298.937 61.4611 298.859 61.2337 298.695 61.0185C298.692 61.0152 298.69 61.0124 298.686 61.0098C298.507 60.8583 298.291 60.7835 298.041 60.7857C298.216 60.5705 298.317 60.3051 298.329 60.0249C298.36 59.3143 297.813 58.7135 297.109 58.6857C296.785 58.6728 296.475 58.7814 296.229 58.9931C296 58.7493 295.693 58.6094 295.358 58.596C294.879 58.5768 294.4 58.8849 294.167 59.3618C293.965 59.7734 293.989 60.2212 294.226 60.588C293.989 60.561 293.75 60.6413 293.574 60.8132C293.573 60.8139 293.572 60.8148 293.571 60.8159C293.518 60.8751 293.47 60.9368 293.431 61.0004C293.423 61.0143 293.42 61.0319 293.425 61.048C293.557 61.4972 293.833 61.9208 294.224 62.2725C294.623 62.6324 295.125 62.9012 295.676 63.0487ZM296.29 63.042C296.094 63.0233 295.898 62.9874 295.706 62.936C294.642 62.6508 293.816 61.9254 293.543 61.0397C293.576 60.9907 293.613 60.942 293.655 60.8956C293.839 60.717 294.103 60.6547 294.345 60.7327C294.369 60.7403 294.396 60.7312 294.411 60.7094C294.425 60.6882 294.424 60.6596 294.407 60.6395C294.117 60.289 294.066 59.8304 294.27 59.4132C294.484 58.9769 294.919 58.6949 295.352 58.712C295.675 58.7249 295.969 58.8674 296.18 59.1129C296.19 59.1249 296.205 59.1318 296.221 59.1326C296.236 59.1338 296.252 59.1281 296.263 59.1173C296.493 58.9018 296.792 58.7894 297.104 58.8016C297.744 58.8272 298.242 59.3739 298.214 60.0202C298.201 60.3204 298.076 60.6016 297.862 60.8117C297.847 60.8263 297.841 60.848 297.846 60.868C297.853 60.8956 297.881 60.9144 297.909 60.9109C298.189 60.8771 298.417 60.9373 298.607 61.0951C298.751 61.2862 298.82 61.4861 298.811 61.6889C298.779 62.4346 297.671 63.0284 296.29 63.042Z" fill="#808080"/>
<path fill-rule="evenodd" clip-rule="evenodd" d="M295.422 62.8207C295.629 62.8762 295.85 62.909 296.081 62.9175C297.073 62.9529 297.934 62.5143 298.272 61.7994C298.387 61.5559 298.326 61.4365 298.279 61.3865C298.202 61.3051 298.06 61.2975 297.909 61.3665C296.836 61.8557 295.428 61.8052 294.406 61.2404C294.262 61.1606 294.12 61.1583 294.035 61.2343C293.984 61.2802 293.911 61.3952 294.003 61.6462C294.21 62.2115 294.738 62.6375 295.422 62.8207ZM298.148 61.4421C298.168 61.4473 298.184 61.4562 298.196 61.4689C298.241 61.5162 298.231 61.6186 298.169 61.7494C297.851 62.4219 297.033 62.8342 296.086 62.8C295.139 62.7663 294.364 62.2966 294.11 61.6034C294.061 61.4687 294.061 61.3662 294.11 61.3221C294.157 61.2803 294.251 61.289 294.351 61.3436C295.402 61.9246 296.85 61.9766 297.954 61.4733C298.029 61.4395 298.099 61.4289 298.148 61.4421Z" fill="#808080"/>
<path d="M296.132 61.2588C296.159 61.2661 296.19 61.2583 296.209 61.2364C296.27 61.1663 296.371 61.1452 296.458 61.1836C296.496 61.2003 296.541 61.1838 296.558 61.1468C296.575 61.1097 296.557 61.0655 296.519 61.0487C296.37 60.9832 296.199 61.0194 296.093 61.1389C296.066 61.1696 296.07 61.2162 296.102 61.2433C296.111 61.2507 296.121 61.256 296.132 61.2588Z" fill="#808080"/>
<path d="M296.139 61.2607C296.159 61.2661 296.181 61.2648 296.197 61.2554C296.227 61.2395 296.231 61.2056 296.207 61.1794C296.115 61.0803 295.956 61.0323 295.821 61.0625C295.786 61.0705 295.769 61.1008 295.784 61.1303C295.799 61.1596 295.839 61.1773 295.875 61.1693C295.953 61.1516 296.046 61.1798 296.1 61.2377C296.11 61.2489 296.124 61.2567 296.139 61.2607Z" fill="#808080"/>
<path d="M296.046 61.7136C296.049 61.7145 296.052 61.7147 296.055 61.7142C296.08 61.7121 296.105 61.6783 296.11 61.6393C296.138 61.4212 296.149 61.3331 296.167 61.1659C296.172 61.1268 296.155 61.0977 296.13 61.1013C296.105 61.1049 296.081 61.1398 296.077 61.1785C296.058 61.3438 296.048 61.4314 296.019 61.6476C296.015 61.6814 296.026 61.7085 296.046 61.7136Z" fill="#808080"/>
<path d="M298.176 61.6778C298.03 61.7875 297.858 61.8705 297.679 61.9368C297.498 62.0028 297.31 62.0525 297.119 62.0932C297.099 62.0972 297.087 62.116 297.092 62.1344C297.097 62.1524 297.115 62.1641 297.134 62.1613C297.331 62.1325 297.527 62.0945 297.719 62.0383C297.91 61.9816 298.099 61.9065 298.269 61.7952C298.303 61.7726 298.311 61.7278 298.287 61.6944C298.262 61.6614 298.215 61.6526 298.18 61.6747C298.179 61.6756 298.178 61.6766 298.177 61.6775L298.176 61.6778Z" fill="#808080"/>
<path d="M293.945 61.6088C294.102 61.7338 294.279 61.8244 294.459 61.8971C294.64 61.97 294.825 62.025 295.012 62.0712C295.029 62.0753 295.046 62.0654 295.05 62.0487C295.054 62.0329 295.045 62.017 295.029 62.0118C294.848 61.9533 294.67 61.8863 294.501 61.8041C294.333 61.722 294.172 61.6238 294.039 61.5021L294.039 61.502C294.009 61.4749 293.964 61.4761 293.937 61.5048C293.909 61.5331 293.911 61.5783 293.941 61.6054C293.942 61.6063 293.943 61.6076 293.945 61.6088Z" fill="#808080"/>
<path fill-rule="evenodd" clip-rule="evenodd" d="M295.666 63.0456C295.865 63.0991 296.069 63.1368 296.272 63.1567C296.274 63.1571 296.277 63.1571 296.28 63.1569C297.752 63.1497 298.888 62.5299 298.921 61.7149C298.93 61.4951 298.858 61.2794 298.708 61.0747C298.81 60.8182 298.867 60.5484 298.878 60.2721C298.885 60.1069 298.875 59.9411 298.849 59.7787C298.847 59.768 298.843 59.7583 298.837 59.7499C298.414 59.1323 297.709 58.6542 296.9 58.4376C296.175 58.2432 295.423 58.2698 294.783 58.5128C294.144 58.7562 293.669 59.1944 293.448 59.7466C293.446 59.7519 293.445 59.7571 293.444 59.7624C293.43 59.8526 293.421 59.9446 293.418 60.0356C293.407 60.3119 293.441 60.5856 293.522 60.8502C293.479 60.8992 293.442 60.9501 293.409 61.0019C293.398 61.0193 293.417 61.0473 293.423 61.0673C293.59 61.5128 293.828 61.8816 294.208 62.2735C294.609 62.6309 295.114 62.8977 295.666 63.0456ZM296.282 63.0142C296.088 62.9947 295.893 62.9589 295.702 62.9078C294.647 62.625 293.825 61.9149 293.549 61.0509C293.58 61.0045 293.616 60.9595 293.656 60.9156C293.673 60.897 293.679 60.87 293.671 60.8455C293.587 60.5854 293.55 60.3151 293.561 60.0417C293.565 59.9588 293.573 59.8749 293.585 59.7924C294.022 58.7143 295.429 58.1915 296.863 58.5758C297.633 58.7821 298.305 59.2336 298.709 59.8167C298.732 59.9648 298.741 60.1157 298.735 60.2661C298.723 60.539 298.665 60.8056 298.56 61.0577C298.55 61.0812 298.554 61.1084 298.57 61.1285C298.715 61.3162 298.785 61.511 298.777 61.7088C298.747 62.4333 297.652 63.0062 296.282 63.0142Z" fill="#808080"/>
<path fill-rule="evenodd" clip-rule="evenodd" d="M300.09 61.6821C300.12 61.6903 300.151 61.6961 300.183 61.6997C300.388 61.7232 300.593 61.648 300.76 61.4882C300.922 61.332 301.029 61.1121 301.061 60.87C301.127 60.3644 300.839 59.9144 300.421 59.8662C300.002 59.8183 299.608 60.1904 299.543 60.6961C299.512 60.9382 299.559 61.1757 299.677 61.3642C299.779 61.5272 299.924 61.6376 300.09 61.6821ZM300.467 60.0571C300.754 60.134 300.941 60.4725 300.892 60.8506C300.866 61.0506 300.779 61.2307 300.646 61.3581C300.517 61.4814 300.361 61.5398 300.206 61.522C300.051 61.5044 299.914 61.4125 299.821 61.2635C299.725 61.1097 299.686 60.9152 299.712 60.7151C299.765 60.3078 300.073 60.0067 300.398 60.0437C300.421 60.0466 300.444 60.0511 300.467 60.0571Z" fill="#808080"/>
<path fill-rule="evenodd" clip-rule="evenodd" d="M300.299 61.579C300.32 61.5846 300.342 61.5887 300.363 61.5912C300.419 61.5978 300.476 61.5939 300.532 61.5788C300.535 61.5783 300.538 61.5774 300.541 61.5762C300.82 61.4637 301.029 61.1701 301.072 60.8283C301.122 60.4377 300.945 60.0642 300.643 59.9196C300.639 59.9178 300.634 59.9162 300.629 59.9149C300.611 59.9106 300.594 59.9074 300.577 59.9052C300.244 59.8664 299.925 60.2123 299.866 60.6771C299.838 60.8978 299.872 61.1135 299.961 61.2838C300.042 61.4391 300.161 61.5419 300.299 61.579ZM300.495 61.4392C300.457 61.4488 300.419 61.4513 300.382 61.4468C300.262 61.4326 300.157 61.3497 300.086 61.2137C300.01 61.0693 299.982 60.8847 300.006 60.6935C300.055 60.3083 300.303 60.0197 300.558 60.0497C300.568 60.0511 300.578 60.0527 300.588 60.0547C300.832 60.1759 300.973 60.4858 300.932 60.8119C300.896 61.0994 300.725 61.3449 300.495 61.4392Z" fill="#808080"/>
<path fill-rule="evenodd" clip-rule="evenodd" d="M298.236 57.9989C298.326 58.0229 298.452 58.0015 298.613 57.9341C298.865 57.8294 299.13 57.8216 299.357 57.8281C299.375 57.8282 299.393 57.8236 299.408 57.8144C299.558 57.7186 299.616 57.5596 299.555 57.41C299.49 57.2479 299.28 57.0991 298.96 57.1312C298.764 57.1406 298.406 57.2093 298.188 57.5625C298.082 57.7344 298.067 57.8626 298.143 57.9443C298.168 57.9706 298.199 57.9888 298.236 57.9989ZM299.328 57.6607C299.101 57.6559 298.811 57.6678 298.539 57.7814C298.357 57.8575 298.282 57.843 298.271 57.8352C298.272 57.8353 298.253 57.7895 298.339 57.6499C298.519 57.3601 298.815 57.3048 298.976 57.2974C298.978 57.2972 298.979 57.297 298.981 57.2969C299.208 57.2736 299.351 57.3652 299.392 57.4661C299.421 57.5379 299.398 57.6075 299.328 57.6607Z" fill="#808080"/>
<path fill-rule="evenodd" clip-rule="evenodd" d="M294.591 57.6591C294.691 57.6858 294.812 57.6573 294.867 57.5548C295.011 57.286 295.291 57.0427 295.597 56.9209C295.623 56.9103 295.643 56.8869 295.648 56.8584C295.654 56.8304 295.645 56.8014 295.625 56.7816C295.435 56.597 295.245 56.5241 295.06 56.5646C294.813 56.619 294.595 56.8788 294.412 57.3376C294.367 57.4509 294.426 57.5848 294.546 57.6423C294.56 57.6494 294.576 57.655 294.591 57.6591ZM295.411 56.8202C295.12 56.9679 294.862 57.2099 294.72 57.4754C294.705 57.5038 294.653 57.5066 294.619 57.4902C294.584 57.4733 294.555 57.4316 294.567 57.4002C294.726 57.0024 294.909 56.7702 295.095 56.7296C295.194 56.7076 295.3 56.7384 295.411 56.8202Z" fill="#808080"/>
<path opacity="0.3" d="M295.423 56.7667C294.961 56.9607 294.716 57.2135 294.686 57.5252C294.924 57.28 295.188 57.0678 295.48 56.8883C295.488 56.8901 295.469 56.8496 295.423 56.7667Z" fill="#808080"/>
<path fill-rule="evenodd" clip-rule="evenodd" d="M295.702 63.037C297.292 63.463 298.863 62.776 299.203 61.5056C299.543 60.2353 298.527 58.855 296.937 58.429C295.347 58.0029 293.776 58.6899 293.436 59.9603C293.095 61.2306 294.112 62.6109 295.702 63.037ZM296.907 58.5398C298.436 58.9495 299.416 60.2669 299.092 61.4759C298.768 62.6849 297.261 63.3353 295.732 62.9256C294.203 62.516 293.223 61.199 293.547 59.99C293.871 58.781 295.378 58.1302 296.907 58.5398Z" fill="#808080"/>
<path fill-rule="evenodd" clip-rule="evenodd" d="M295.18 60.8236C294.982 60.8541 294.799 60.6326 294.771 60.3289C294.744 60.0252 294.882 59.7543 295.08 59.7238C295.278 59.6933 295.461 59.9147 295.489 60.2184C295.516 60.5221 295.378 60.7929 295.18 60.8236ZM295.07 60.1777C294.99 60.1495 294.946 60.0611 294.971 59.9804C294.995 59.8991 295.08 59.8561 295.16 59.8839C295.24 59.9117 295.285 60.0005 295.26 60.0814C295.235 60.1625 295.15 60.2055 295.07 60.1777Z" fill="#808080"/>
<path fill-rule="evenodd" clip-rule="evenodd" d="M297.146 59.9379C296.983 59.9011 296.821 60.0776 296.783 60.3313C296.745 60.5853 296.847 60.8205 297.009 60.8567C297.172 60.8933 297.335 60.717 297.372 60.4633C297.41 60.2092 297.309 59.9741 297.146 59.9379ZM297.057 60.0846C296.988 60.0979 296.958 60.1825 296.992 60.2734C297.025 60.3642 297.108 60.4272 297.178 60.4135C297.247 60.4001 297.277 60.3155 297.244 60.2247C297.21 60.1338 297.127 60.0713 297.057 60.0846ZM296.89 60.6292C296.866 60.5859 296.871 60.5378 296.901 60.5219C296.93 60.5063 296.974 60.5285 296.998 60.5718C297.022 60.6151 297.017 60.6632 296.988 60.6793C296.958 60.6952 296.914 60.6725 296.89 60.6292Z" fill="#808080"/>
<path fill-rule="evenodd" clip-rule="evenodd" d="M297.492 55.8809C297.561 56.1849 297.507 56.4832 297.435 56.6686L297.204 56.5782C297.261 56.4299 297.306 56.1834 297.25 55.9377C297.196 55.6984 297.046 55.4537 296.701 55.2937L296.805 55.0661C297.224 55.2601 297.422 55.5703 297.492 55.8809Z" fill="#808080"/>
<path d="M297.169 55.3235C297.125 55.4877 296.957 55.5853 296.794 55.5415C296.63 55.4978 296.534 55.3292 296.578 55.165C296.622 55.0008 296.79 54.9032 296.953 54.947C297.117 54.9908 297.213 55.1594 297.169 55.3235Z" fill="#808080"/>
<path fill-rule="evenodd" clip-rule="evenodd" d="M298.167 55.5821C298.167 55.5821 298.166 55.5831 298.165 55.5852C298.166 55.5831 298.167 55.5821 298.167 55.5821ZM298.048 55.6838C298.033 55.683 298.016 55.6826 297.999 55.6824C297.819 55.6812 297.568 55.7158 297.292 55.7914C297.016 55.8669 296.782 55.965 296.628 56.0577C296.612 56.0669 296.598 56.0757 296.585 56.0842C296.601 56.085 296.617 56.0855 296.635 56.0856C296.815 56.0869 297.066 56.0522 297.342 55.9767C297.618 55.9012 297.852 55.8031 298.006 55.7103C298.021 55.7012 298.035 55.6923 298.048 55.6838ZM296.432 56.0568C296.432 56.0568 296.434 56.0573 296.435 56.0586C296.433 56.0575 296.432 56.0569 296.432 56.0568ZM296.467 56.186C296.467 56.186 296.467 56.185 296.469 56.1829C296.468 56.1849 296.467 56.186 296.467 56.186ZM298.198 55.7095C298.201 55.7106 298.202 55.7112 298.201 55.7112C298.201 55.7113 298.2 55.7107 298.198 55.7095ZM297.396 56.1785C297.974 56.0203 298.407 55.7603 298.363 55.5976C298.319 55.435 297.815 55.4314 297.238 55.5896C296.66 55.7478 296.227 56.0078 296.271 56.1704C296.314 56.333 296.818 56.3366 297.396 56.1785Z" fill="#808080"/>
</g>
<path fill-rule="evenodd" clip-rule="evenodd" d="M304.637 66.9584L305.808 67.2918C306.067 67.3655 306.175 67.6726 306.02 67.8925L304.802 69.6214C304.747 69.6987 304.723 69.7931 304.732 69.8872L304.94 71.872C304.969 72.1445 304.715 72.3609 304.45 72.29L300.518 71.2363C300.31 71.1805 300.186 70.9663 300.242 70.7579L300.354 70.3405C300.407 70.1427 300.604 70.0194 300.805 70.0581L303.633 70.6016L304.637 66.9584ZM287.214 62.2898L286.007 61.9864C285.746 61.9207 285.499 62.1324 285.523 62.4003L285.713 64.5069C285.722 64.6009 285.696 64.6949 285.64 64.7713L284.469 66.3868C284.308 66.6085 284.419 66.9226 284.684 66.9935L288.617 68.0473C288.825 68.1032 289.039 67.9795 289.095 67.7711L289.207 67.3537C289.26 67.1559 289.151 66.9507 288.958 66.8836L286.236 65.94L287.214 62.2898Z" fill="#C9C9C9"/>
<path d="M304.637 66.9584L304.832 66.1651C304.883 65.9587 304.759 65.7496 304.554 65.6945L287.902 61.2325C287.693 61.1767 287.479 61.3004 287.423 61.5087L287.214 62.2898L286.236 65.94L303.633 70.6016L304.637 66.9584Z" fill="#DDDDDD"/>
<path d="M291.402 64.6749C291.558 64.7544 291.669 64.8727 291.734 65.0296C291.8 65.1839 291.811 65.3437 291.767 65.509C291.703 65.7476 291.568 65.9148 291.362 66.0107C291.16 66.1046 290.91 66.1116 290.611 66.0318L289.282 65.6755L290.047 62.8214L291.331 63.1657C291.621 63.2434 291.83 63.3704 291.957 63.5468C292.087 63.7239 292.121 63.9263 292.06 64.154C292.015 64.3221 291.933 64.4497 291.814 64.5368C291.697 64.6247 291.56 64.6707 291.402 64.6749ZM290.433 64.1624L290.888 64.2844C291.002 64.3149 291.095 64.3137 291.168 64.2809C291.244 64.2461 291.295 64.1799 291.321 64.0824C291.347 63.9848 291.336 63.9019 291.288 63.8337C291.242 63.7662 291.162 63.7172 291.048 63.6867L290.593 63.5647L290.433 64.1624ZM290.64 65.438C290.756 65.4692 290.853 65.4675 290.929 65.4327C291.008 65.3959 291.062 65.3274 291.089 65.2271C291.115 65.1268 291.103 65.0391 291.05 64.964C291 64.8897 290.917 64.8369 290.801 64.8057L290.296 64.6706L290.128 65.3008L290.64 65.438Z" fill="#808080"/>
<path d="M293.874 66.3656L292.809 66.0801L292.503 66.5385L291.775 66.3435L293.572 63.7661L294.377 63.9818L294.645 67.1126L293.909 66.9155L293.874 66.3656ZM293.839 65.781L293.765 64.6413L293.135 65.5925L293.839 65.781Z" fill="#808080"/>
<path d="M295.985 67.502C295.776 67.4461 295.598 67.3621 295.451 67.25C295.304 67.138 295.198 67.0021 295.133 66.8424C295.071 66.6835 295.062 66.5097 295.107 66.3213L295.847 66.5195C295.83 66.6282 295.844 66.7193 295.891 66.7929C295.939 66.8638 296.013 66.9127 296.114 66.9396C296.217 66.9672 296.304 66.9659 296.376 66.9358C296.449 66.903 296.496 66.8446 296.519 66.7606C296.538 66.6901 296.529 66.6253 296.493 66.5661C296.459 66.5077 296.411 66.4542 296.348 66.4055C296.288 66.3575 296.2 66.2975 296.083 66.2254C295.914 66.1191 295.779 66.0218 295.677 65.9337C295.576 65.8455 295.498 65.7346 295.444 65.601C295.39 65.4674 295.386 65.3111 295.434 65.1322C295.506 64.8666 295.657 64.685 295.89 64.5875C296.123 64.4873 296.394 64.4786 296.703 64.5614C297.017 64.6456 297.25 64.7894 297.402 64.9928C297.555 65.1934 297.602 65.4297 297.543 65.7017L296.791 65.5001C296.811 65.4065 296.796 65.3256 296.747 65.2574C296.7 65.1865 296.627 65.138 296.529 65.1118C296.445 65.0893 296.371 65.0942 296.307 65.1265C296.244 65.156 296.202 65.2128 296.179 65.2969C296.154 65.389 296.178 65.4725 296.251 65.5472C296.324 65.6219 296.445 65.7138 296.613 65.8228C296.781 65.9346 296.914 66.0341 297.013 66.1216C297.114 66.2097 297.192 66.3192 297.247 66.4502C297.302 66.5811 297.307 66.732 297.261 66.9027C297.217 67.0653 297.136 67.2018 297.016 67.3121C296.899 67.4231 296.752 67.4969 296.573 67.5334C296.395 67.5698 296.199 67.5594 295.985 67.502Z" fill="#808080"/>
<path d="M298.921 65.1993L298.156 68.0534L297.461 67.8671L298.226 65.013L298.921 65.1993Z" fill="#808080"/>
<path d="M298.926 66.7257C299.001 66.4438 299.129 66.2094 299.31 66.0225C299.492 65.833 299.707 65.7062 299.957 65.6424C300.21 65.5765 300.474 65.5806 300.751 65.6547C301.09 65.7455 301.356 65.9126 301.549 66.1562C301.742 66.3997 301.838 66.6869 301.837 67.0176L301.072 66.8128C301.047 66.6783 300.99 66.5657 300.901 66.4751C300.815 66.3851 300.706 66.3224 300.573 66.2868C300.359 66.2294 300.165 66.2575 299.992 66.3709C299.82 66.4844 299.7 66.6659 299.633 66.9152C299.566 67.1646 299.579 67.3816 299.672 67.5663C299.765 67.7509 299.918 67.8719 300.133 67.9293C300.265 67.9649 300.392 67.9653 300.511 67.9306C300.634 67.8966 300.739 67.8275 300.828 67.7235L301.593 67.9283C301.429 68.2155 301.202 68.4163 300.913 68.5305C300.624 68.6421 300.311 68.6525 299.972 68.5617C299.695 68.4876 299.464 68.3601 299.277 68.1794C299.093 67.9966 298.97 67.7791 298.907 67.5268C298.844 67.2746 298.85 67.0075 298.926 66.7257Z" fill="#808080"/>
<path d="M286.204 65.9385L289.363 66.7848L289.025 68.1851L286.204 65.9385Z" fill="#808080"/>
<path d="M303.661 70.6164L300.468 69.7607L300.116 71.1572L303.661 70.6164Z" fill="#808080"/>
</g>
<g opacity="0.2" clip-path="url(#clip2_32558_34480)">
<path d="M270.661 48.448C270.551 48.0382 270.13 47.7951 269.72 47.9048L265.668 48.9905C265.259 49.1002 265.016 49.5214 265.125 49.9312L267.6 59.1669C267.761 59.7691 268.535 59.9383 268.933 59.4584L272.215 55.5013C272.374 55.3096 272.43 55.0527 272.366 54.8122L270.661 48.448Z" fill="url(#paint6_linear_32558_34480)"/>
<path d="M275.77 47.0788C275.66 46.6691 275.903 46.2479 276.313 46.1381L280.365 45.0525C280.774 44.9427 281.196 45.1859 281.305 45.5956L283.78 54.8313C283.941 55.4335 283.356 55.9669 282.771 55.7504L277.95 53.9645C277.717 53.878 277.54 53.6836 277.475 53.443L275.77 47.0788Z" fill="url(#paint7_linear_32558_34480)"/>
<path d="M267.237 31.7149C267.828 31.1076 268.703 30.8729 269.518 31.1038L273.858 32.3335L278.237 33.4605C279.051 33.6703 279.687 34.3073 279.895 35.1224L281.018 39.5253L282.247 43.9001C282.474 44.71 282.242 45.5795 281.642 46.1684L278.413 49.3336L275.269 52.5688C274.679 53.1761 273.804 53.4107 272.989 53.1799L268.649 51.9501L264.27 50.8231C263.456 50.6134 262.82 49.9764 262.612 49.1613L261.489 44.7583L260.26 40.3836C260.032 39.5737 260.264 38.7042 260.865 38.1152L264.093 34.95L267.237 31.7149Z" fill="url(#paint8_radial_32558_34480)"/>
<path d="M267.489 33.7883C268.079 33.181 268.954 32.9464 269.769 33.1772L273.119 34.1262L276.499 34.9965C277.314 35.2062 277.95 35.8432 278.158 36.6583L279.026 40.0594L279.975 43.4387C280.202 44.2486 279.97 45.1181 279.369 45.7071L276.877 48.1513L274.45 50.6478C273.86 51.255 272.985 51.4897 272.17 51.2588L268.82 50.3099L265.44 49.4396C264.625 49.2299 263.989 48.5929 263.781 47.7778L262.913 44.3766L261.964 40.9973C261.737 40.1874 261.969 39.3179 262.57 38.729L265.062 36.2848L267.489 33.7883Z" fill="#C89A25"/>
<path d="M267.848 33.9967C268.438 33.3894 269.314 33.1548 270.129 33.3856L273.337 34.2945L276.575 35.1281C277.39 35.3378 278.025 35.9748 278.233 36.7899L279.065 40.0479L279.974 43.285C280.201 44.0949 279.969 44.9644 279.369 45.5534L276.981 47.8945L274.657 50.2855C274.067 50.8928 273.191 51.1274 272.377 50.8966L269.169 49.9877L265.93 49.1541C265.116 48.9444 264.48 48.3074 264.272 47.4923L263.441 44.2343L262.532 40.9972C262.304 40.1873 262.536 39.3178 263.137 38.7288L265.525 36.3877L267.848 33.9967Z" fill="url(#paint9_linear_32558_34480)"/>
<g opacity="0.8">
<path fill-rule="evenodd" clip-rule="evenodd" d="M267.469 46.0822C267.496 46.0747 267.52 46.0568 267.535 46.0304C267.559 45.9881 267.555 45.9347 267.526 45.8949C267.024 45.2085 266.772 44.387 266.778 43.4531C266.778 43.4041 266.75 43.3593 266.708 43.3387C266.665 43.3189 266.617 43.328 266.584 43.3611C266.189 43.7746 266.054 44.3887 266.23 44.9642C266.407 45.5396 266.862 45.9682 267.42 46.0838C267.436 46.0874 267.453 46.0863 267.469 46.0822ZM266.561 43.7815C266.604 44.5081 266.803 45.1657 267.155 45.7453C266.822 45.5825 266.561 45.2775 266.445 44.8971C266.327 44.5126 266.373 44.1077 266.561 43.7815Z" fill="#C89A25"/>
<path fill-rule="evenodd" clip-rule="evenodd" d="M272.759 47.427C273.652 47.1878 274.438 46.733 275.043 46.1064C276.172 44.9346 276.554 43.2703 276.091 41.5405C275.744 40.2479 274.927 39.1604 273.79 38.4776C272.659 37.7985 271.358 37.6061 270.127 37.9359C267.591 38.6156 266.097 41.0751 266.647 43.6616L266.638 43.7663C266.638 43.7682 266.638 43.77 266.638 43.7718C266.636 43.8063 266.635 43.8348 266.633 43.8606C266.622 44.0661 266.627 44.0829 266.744 44.5137C266.763 44.5842 266.785 44.6665 266.81 44.7632C267.028 45.5754 268.004 46.9045 269.271 47.2906L269.413 47.3488C269.417 47.3505 269.421 47.3518 269.425 47.353C270.5 47.6632 271.597 47.7029 272.596 47.4681C272.65 47.4548 272.705 47.4411 272.759 47.427ZM270.189 38.1648C272.639 37.5083 275.188 39.0491 275.871 41.5993C276.312 43.2455 275.951 44.8267 274.88 45.9374C273.604 47.2608 271.538 47.7167 269.487 47.1269L269.345 47.0693C269.343 47.0679 269.339 47.0667 269.336 47.0659C268.164 46.7107 267.228 45.4443 267.03 44.7044C267.004 44.6077 266.982 44.5247 266.963 44.4543C266.852 44.0447 266.852 44.0447 266.861 43.8786C266.862 43.8528 266.864 43.8242 266.865 43.7904L266.876 43.6693C266.877 43.6569 266.876 43.6444 266.873 43.6324C266.339 41.1653 267.765 38.8143 270.189 38.1648Z" fill="#C89A25"/>
<path fill-rule="evenodd" clip-rule="evenodd" d="M272.105 47.1762C274.497 46.5352 276.014 44.4131 275.487 42.4464C274.96 40.4791 272.586 39.4002 270.193 40.0412C267.802 40.6821 266.284 42.8037 266.811 44.771C267.338 46.7377 269.714 47.817 272.105 47.1762ZM270.242 40.223C272.533 39.609 274.804 40.6282 275.304 42.4953C275.805 44.3619 274.348 46.3798 272.056 46.9938C269.765 47.6078 267.494 46.5887 266.994 44.7221C266.494 42.8549 267.951 40.837 270.242 40.223Z" fill="#C89A25"/>
<path fill-rule="evenodd" clip-rule="evenodd" d="M272 46.7802C274.174 46.1975 275.574 44.3457 275.12 42.6519C274.666 40.958 272.528 40.0536 270.353 40.6363C268.179 41.219 266.779 43.0714 267.233 44.7652C267.687 46.4591 269.825 47.3629 272 46.7802ZM270.412 40.8559C272.462 40.3066 274.473 41.1393 274.895 42.7123C275.316 44.2846 273.991 46.0113 271.941 46.5606C269.891 47.1099 267.88 46.2772 267.458 44.7048C267.037 43.1319 268.362 41.4052 270.412 40.8559Z" fill="#C89A25"/>
<path fill-rule="evenodd" clip-rule="evenodd" d="M271.914 46.8033C272.18 46.732 272.441 46.6396 272.688 46.5275C272.692 46.5262 272.695 46.5246 272.697 46.5225C274.393 45.5324 275.291 44.0597 274.786 43.0966C274.65 42.8369 274.423 42.6355 274.114 42.499C274.06 42.1352 273.946 41.7856 273.775 41.4591C273.673 41.2638 273.55 41.0791 273.412 40.909C273.402 40.898 273.392 40.8893 273.379 40.8836C272.48 40.4521 271.346 40.3705 270.268 40.6594C269.3 40.9186 268.451 41.4503 267.874 42.1573C267.297 42.8649 267.041 43.6873 267.155 44.4721C267.156 44.4795 267.158 44.4865 267.161 44.4932C267.205 44.6066 267.255 44.7188 267.312 44.8262C267.483 45.1527 267.706 45.4454 267.976 45.6972C267.959 45.7824 267.924 45.8368 267.921 45.9183C267.92 45.9457 267.997 46.0057 268.017 46.0248C268.485 46.4294 269.031 46.7033 269.716 46.8838C270.418 47.0286 271.178 47.0005 271.914 46.8033ZM272.605 46.3563C272.368 46.4629 272.119 46.5516 271.865 46.6197C270.458 46.9967 269.035 46.7247 268.14 45.9113C268.145 45.837 268.157 45.761 268.174 45.6834C268.182 45.6504 268.17 45.6154 268.145 45.5926C267.874 45.3481 267.652 45.0605 267.482 44.7375C267.43 44.6396 267.384 44.5371 267.343 44.434C267.129 42.8978 268.405 41.356 270.317 40.8436C271.344 40.5686 272.42 40.6423 273.276 41.0462C273.401 41.2017 273.512 41.3701 273.605 41.5478C273.774 41.8704 273.884 42.2171 273.931 42.5783C273.936 42.6119 273.958 42.6407 273.99 42.6536C274.283 42.7732 274.493 42.9517 274.616 43.1855C275.065 44.0417 274.182 45.4336 272.605 46.3563Z" fill="#C89A25"/>
<path fill-rule="evenodd" clip-rule="evenodd" d="M271.928 46.7991C272.193 46.7281 272.453 46.6347 272.7 46.5227C272.702 46.5216 272.704 46.5203 272.707 46.5187C274.394 45.5236 275.284 44.0398 274.778 43.0672C274.635 42.792 274.394 42.5811 274.061 42.4422C274.056 42.44 274.05 42.4386 274.045 42.4378C273.737 42.3822 273.437 42.4402 273.151 42.6091C273.209 42.2444 273.148 41.8707 272.976 41.5388C272.538 40.6973 271.506 40.3683 270.675 40.8054C270.292 41.0066 270.006 41.3391 269.863 41.7476C269.436 41.6187 268.988 41.6618 268.592 41.8698C268.027 42.1665 267.679 42.8416 267.727 43.548C267.769 44.1576 268.095 44.6587 268.613 44.9242C268.322 45.051 268.099 45.3034 268.01 45.6191C268.01 45.6205 268.01 45.6222 268.009 45.624C267.987 45.728 267.973 45.8309 267.971 45.9302C267.97 45.9521 267.979 45.9741 267.995 45.9894C268.448 46.4199 269.048 46.7251 269.734 46.8709C270.435 47.0204 271.194 46.9958 271.928 46.7991ZM272.632 46.3823C272.394 46.4907 272.144 46.5802 271.888 46.6488C270.469 47.029 269.031 46.7423 268.126 45.901C268.131 45.8229 268.142 45.7418 268.159 45.6601C268.252 45.3314 268.516 45.0831 268.847 45.0122C268.88 45.0046 268.905 44.9763 268.908 44.9414C268.91 44.9072 268.889 44.8753 268.857 44.8629C268.288 44.6518 267.923 44.1565 267.881 43.5384C267.837 42.892 268.151 42.2765 268.663 42.0072C269.044 41.8071 269.479 41.7755 269.887 41.918C269.906 41.9253 269.928 41.9235 269.947 41.9138C269.965 41.9049 269.98 41.8879 269.985 41.868C270.107 41.4658 270.377 41.137 270.746 40.9428C271.502 40.5456 272.442 40.8448 272.84 41.6101C273.025 41.9656 273.067 42.3736 272.961 42.7585C272.953 42.7856 272.961 42.8144 272.98 42.8343C273.007 42.8613 273.051 42.8645 273.081 42.8421C273.382 42.6161 273.686 42.5333 274.01 42.5892C274.304 42.7136 274.517 42.8985 274.642 43.1386C275.101 44.0216 274.218 45.4458 272.632 46.3823Z" fill="#C89A25"/>
<path fill-rule="evenodd" clip-rule="evenodd" d="M271.484 46.7059C271.76 46.632 272.037 46.5226 272.309 46.3787C273.479 45.7579 274.18 44.6779 274.094 43.6269C274.064 43.269 273.914 43.1718 273.827 43.1455C273.683 43.1029 273.514 43.1886 273.386 43.3691C272.473 44.6493 270.814 45.5292 269.257 45.5588C269.038 45.5625 268.872 45.6547 268.825 45.7987C268.796 45.8861 268.789 46.0672 269.062 46.2962C269.678 46.8109 270.572 46.9503 271.484 46.7059ZM273.713 43.2968C273.739 43.2899 273.764 43.2892 273.786 43.2958C273.869 43.3207 273.926 43.4456 273.942 43.6378C274.022 44.6265 273.354 45.6474 272.237 46.2393C271.121 46.8317 269.912 46.8065 269.158 46.1749C269.011 46.0522 268.943 45.9338 268.97 45.8501C268.996 45.7708 269.111 45.7182 269.262 45.7148C270.864 45.6846 272.571 44.7792 273.51 43.4621C273.573 43.3734 273.647 43.3144 273.713 43.2968Z" fill="#C89A25"/>
<path d="M271.263 44.4291C271.299 44.4193 271.329 44.3899 271.337 44.3518C271.361 44.2298 271.463 44.1384 271.589 44.1247C271.644 44.1185 271.685 44.0696 271.68 44.0155C271.674 43.9615 271.625 43.9221 271.569 43.9283C271.353 43.9521 271.18 44.108 271.138 44.3162C271.127 44.3699 271.163 44.4211 271.218 44.4311C271.233 44.4337 271.249 44.4329 271.263 44.4291Z" fill="#C89A25"/>
<path d="M271.271 44.427C271.298 44.4199 271.322 44.4043 271.335 44.3822C271.358 44.3442 271.34 44.3021 271.295 44.2878C271.122 44.2351 270.907 44.2854 270.772 44.4099C270.737 44.4429 270.738 44.489 270.774 44.5134C270.811 44.5373 270.869 44.5309 270.905 44.4979C270.984 44.4249 271.11 44.3956 271.21 44.4267C271.23 44.4328 271.251 44.4324 271.271 44.427Z" fill="#C89A25"/>
<path d="M271.465 45.0124C271.469 45.0113 271.473 45.0094 271.476 45.0067C271.504 44.9876 271.509 44.9323 271.489 44.8839C271.377 44.6131 271.33 44.5042 271.24 44.2988C271.219 44.2507 271.181 44.2282 271.154 44.2491C271.128 44.27 271.124 44.3262 271.144 44.3737C271.233 44.5767 271.279 44.6851 271.391 44.9536C271.408 44.9954 271.439 45.0193 271.465 45.0124Z" fill="#C89A25"/>
<path d="M273.901 43.5508C273.806 43.7744 273.663 43.9849 273.5 44.1811C273.335 44.3777 273.151 44.5608 272.957 44.7353C272.937 44.753 272.936 44.7827 272.954 44.8007C272.972 44.8181 273 44.8195 273.02 44.8037C273.229 44.6391 273.429 44.4647 273.613 44.272C273.797 44.0788 273.964 43.8664 274.087 43.6243C274.112 43.5753 274.091 43.5183 274.041 43.4959C273.99 43.4743 273.929 43.4957 273.904 43.5441C273.903 43.5461 273.903 43.5481 273.902 43.55L273.901 43.5508Z" fill="#C89A25"/>
<path d="M268.97 46.2931C269.235 46.3323 269.499 46.3192 269.756 46.2831C270.013 46.247 270.264 46.1867 270.51 46.1156C270.533 46.1089 270.546 46.0862 270.539 46.0643C270.533 46.0435 270.512 46.0312 270.49 46.0357C270.242 46.0887 269.992 46.1301 269.742 46.1476C269.494 46.1649 269.243 46.1584 269.008 46.1065L269.007 46.1067C268.955 46.095 268.903 46.1269 268.891 46.1783C268.878 46.2291 268.911 46.28 268.963 46.2918C268.965 46.2917 268.967 46.2924 268.97 46.2931Z" fill="#C89A25"/>
<path fill-rule="evenodd" clip-rule="evenodd" d="M271.914 46.8033C272.18 46.732 272.441 46.6396 272.688 46.5275C272.692 46.5262 272.695 46.5246 272.697 46.5225C274.393 45.5324 275.291 44.0597 274.786 43.0966C274.65 42.8369 274.423 42.6355 274.114 42.499C274.06 42.1352 273.946 41.7856 273.775 41.4591C273.673 41.2638 273.55 41.0791 273.412 40.909C273.402 40.898 273.392 40.8893 273.379 40.8836C272.48 40.4521 271.346 40.3705 270.268 40.6594C269.3 40.9186 268.451 41.4503 267.874 42.1573C267.297 42.8649 267.041 43.6873 267.155 44.4721C267.156 44.4795 267.158 44.4865 267.161 44.4932C267.205 44.6066 267.255 44.7188 267.312 44.8262C267.483 45.1527 267.706 45.4454 267.976 45.6972C267.959 45.7824 267.95 45.8662 267.947 45.9477C267.946 45.9751 267.985 45.9952 268.006 46.0143C268.495 46.4174 269.017 46.6842 269.716 46.8838C270.418 47.0286 271.178 47.0005 271.914 46.8033ZM272.605 46.3563C272.368 46.4629 272.119 46.5516 271.865 46.6197C270.458 46.9967 269.035 46.7247 268.14 45.9113C268.145 45.837 268.157 45.761 268.174 45.6834C268.182 45.6504 268.17 45.6154 268.145 45.5926C267.874 45.3481 267.652 45.0605 267.482 44.7375C267.43 44.6396 267.384 44.5371 267.343 44.434C267.129 42.8978 268.405 41.356 270.317 40.8436C271.344 40.5686 272.42 40.6423 273.276 41.0462C273.401 41.2017 273.512 41.3701 273.605 41.5478C273.774 41.8704 273.884 42.2171 273.931 42.5783C273.936 42.6119 273.958 42.6407 273.99 42.6536C274.283 42.7732 274.493 42.9517 274.616 43.1855C275.065 44.0417 274.182 45.4336 272.605 46.3563Z" fill="#C89A25"/>
<path fill-rule="evenodd" clip-rule="evenodd" d="M276.115 42.2789C276.155 42.268 276.195 42.254 276.235 42.2367C276.487 42.1273 276.673 41.9039 276.759 41.6083C276.843 41.3194 276.82 40.9943 276.695 40.6939C276.434 40.0661 275.801 39.7383 275.287 39.9612C274.771 40.185 274.565 40.8773 274.826 41.5049C274.951 41.8053 275.165 42.0477 275.427 42.1867C275.653 42.3068 275.893 42.3382 276.115 42.2789ZM275.467 40.1512C275.849 40.0486 276.291 40.3148 276.486 40.784C276.59 41.0322 276.61 41.2982 276.542 41.5337C276.475 41.7621 276.333 41.9336 276.142 42.0165C275.952 42.0992 275.733 42.0845 275.525 41.9747C275.312 41.8612 275.138 41.6623 275.034 41.4141C274.824 40.9084 274.978 40.3556 275.378 40.1816C275.407 40.1693 275.437 40.1592 275.467 40.1512Z" fill="#C89A25"/>
<path fill-rule="evenodd" clip-rule="evenodd" d="M276.288 42.0201C276.316 42.0126 276.343 42.003 276.37 41.9915C276.439 41.9618 276.502 41.9193 276.557 41.8645C276.56 41.862 276.563 41.8591 276.565 41.8558C276.813 41.5396 276.858 41.0615 276.68 40.6379C276.477 40.1541 276.024 39.8402 275.579 39.8748C275.572 39.8756 275.566 39.8768 275.56 39.8785C275.536 39.8855 275.514 39.8936 275.492 39.9025C275.082 40.0795 274.945 40.6914 275.187 41.2675C275.301 41.5411 275.484 41.7675 275.701 41.9047C275.898 42.0299 276.104 42.0695 276.288 42.0201ZM276.421 41.7281C276.384 41.7644 276.341 41.7929 276.295 41.8124C276.148 41.8756 275.971 41.8499 275.798 41.7405C275.615 41.6241 275.459 41.4299 275.36 41.1929C275.159 40.7155 275.252 40.2173 275.568 40.0815C275.58 40.0765 275.593 40.0718 275.605 40.0675C275.968 40.0445 276.338 40.3083 276.507 40.7125C276.657 41.0688 276.623 41.4662 276.421 41.7281Z" fill="#C89A25"/>
<path fill-rule="evenodd" clip-rule="evenodd" d="M271.518 39.2612C271.638 39.2292 271.769 39.1204 271.909 38.9356C272.13 38.6468 272.432 38.4605 272.699 38.3168C272.719 38.305 272.736 38.2879 272.747 38.2675C272.857 38.0566 272.818 37.8344 272.648 37.7022C272.464 37.5586 272.123 37.5266 271.775 37.777C271.556 37.9182 271.188 38.2362 271.171 38.7896C271.164 39.0587 271.231 39.2171 271.373 39.2607C271.42 39.2745 271.468 39.2746 271.518 39.2612ZM272.553 38.1431C272.287 38.2891 271.961 38.4957 271.722 38.8086C271.562 39.0179 271.466 39.0511 271.449 39.0488C271.45 39.0487 271.398 39.0084 271.404 38.7896C271.418 38.3355 271.723 38.0741 271.904 37.9582C271.906 37.9569 271.908 37.9556 271.91 37.9543C272.157 37.7757 272.383 37.7863 272.498 37.8753C272.579 37.939 272.599 38.0348 272.553 38.1431Z" fill="#C89A25"/>
<path fill-rule="evenodd" clip-rule="evenodd" d="M267.082 41.3001C267.215 41.2644 267.336 41.1507 267.331 40.9958C267.318 40.5896 267.479 40.1221 267.751 39.7772C267.775 39.7474 267.782 39.7075 267.769 39.6707C267.757 39.6346 267.728 39.6069 267.691 39.5978C267.349 39.5108 267.081 39.5534 266.894 39.7236C266.646 39.9509 266.567 40.3963 266.661 41.0483C266.685 41.209 266.842 41.3244 267.019 41.3106C267.04 41.3095 267.062 41.3056 267.082 41.3001ZM267.47 39.7846C267.232 40.1495 267.095 40.601 267.109 41.0021C267.11 41.0449 267.052 41.0826 267.001 41.0867C266.95 41.0903 266.889 41.0617 266.882 41.017C266.8 40.4521 266.856 40.0622 267.044 39.8912C267.144 39.7996 267.287 39.7644 267.47 39.7846Z" fill="#C89A25"/>
<path opacity="0.3" d="M267.448 39.715C267.045 40.2465 266.93 40.7021 267.103 41.082C267.214 40.6404 267.378 40.2188 267.595 39.8172C267.606 39.814 267.557 39.7799 267.448 39.715Z" fill="#C89A25"/>
<path fill-rule="evenodd" clip-rule="evenodd" d="M271.951 46.768C274.071 46.1999 275.426 44.3595 274.973 42.6657C274.519 40.9719 272.425 40.0559 270.304 40.624C268.184 41.1921 266.829 43.0324 267.283 44.7262C267.737 46.42 269.831 47.336 271.951 46.768ZM270.344 40.7718C272.383 40.2256 274.393 41.0934 274.824 42.7054C275.256 44.3174 273.949 46.0733 271.911 46.6196C269.872 47.1658 267.863 46.2986 267.431 44.6866C266.999 43.0745 268.306 41.318 270.344 40.7718Z" fill="#C89A25"/>
<path fill-rule="evenodd" clip-rule="evenodd" d="M269.872 44.5607C269.663 44.7281 269.305 44.5941 269.07 44.2618C268.836 43.9295 268.815 43.5246 269.023 43.3573C269.232 43.19 269.59 43.3239 269.825 43.6562C270.059 43.9885 270.079 44.3936 269.872 44.5607ZM269.315 43.8879C269.204 43.9086 269.093 43.8364 269.068 43.7266C269.042 43.6164 269.111 43.5102 269.222 43.4889C269.333 43.4677 269.444 43.5404 269.47 43.65C269.495 43.7604 269.426 43.8666 269.315 43.8879Z" fill="#C89A25"/>
<path fill-rule="evenodd" clip-rule="evenodd" d="M271.552 42.2267C271.339 42.2929 271.27 42.605 271.395 42.923C271.521 43.2417 271.795 43.4456 272.006 43.379C272.219 43.313 272.289 43.0008 272.163 42.6828C272.037 42.3642 271.764 42.1601 271.552 42.2267ZM271.547 42.4554C271.476 42.517 271.498 42.6344 271.598 42.717C271.697 42.7996 271.835 42.8169 271.906 42.7547C271.977 42.6931 271.955 42.5757 271.856 42.4931C271.756 42.4104 271.619 42.3937 271.547 42.4554ZM271.717 43.1956C271.661 43.1617 271.634 43.103 271.658 43.0646C271.682 43.027 271.747 43.0237 271.803 43.0577C271.86 43.0917 271.887 43.1503 271.863 43.1885C271.839 43.227 271.774 43.2296 271.717 43.1956Z" fill="#C89A25"/>
<path fill-rule="evenodd" clip-rule="evenodd" d="M269.248 37.3125C269.53 37.6177 269.666 37.9983 269.707 38.2605L269.38 38.3102C269.347 38.1007 269.234 37.7863 269.006 37.5396C268.784 37.2994 268.448 37.1168 267.943 37.1623L267.912 36.8297C268.525 36.7745 268.96 37.0008 269.248 37.3125Z" fill="#C89A25"/>
<path d="M268.502 36.8833C268.561 37.1022 268.432 37.327 268.214 37.3853C267.996 37.4437 267.772 37.3135 267.714 37.0946C267.655 36.8757 267.784 36.6509 268.002 36.5926C268.22 36.5342 268.444 36.6644 268.502 36.8833Z" fill="#C89A25"/>
<path fill-rule="evenodd" clip-rule="evenodd" d="M269.827 36.5176C269.827 36.5175 269.827 36.519 269.827 36.5224C269.827 36.5194 269.827 36.5177 269.827 36.5176ZM269.758 36.714C269.74 36.7234 269.72 36.7339 269.7 36.7455C269.492 36.8639 269.225 37.0712 268.957 37.3424C268.688 37.6136 268.484 37.8828 268.367 38.093C268.356 38.1136 268.345 38.1332 268.336 38.1517C268.354 38.1423 268.374 38.1318 268.394 38.1201C268.603 38.0018 268.869 37.7944 269.138 37.5232C269.406 37.252 269.611 36.9829 269.727 36.7727C269.739 36.752 269.749 36.7325 269.758 36.714ZM268.141 38.2221C268.141 38.222 268.143 38.2218 268.146 38.222C268.142 38.2223 268.141 38.2222 268.141 38.2221ZM268.267 38.3481C268.267 38.3482 268.267 38.3467 268.267 38.3433C268.267 38.3463 268.267 38.348 268.267 38.3481ZM269.949 36.6437C269.952 36.6434 269.953 36.6435 269.953 36.6436C269.953 36.6437 269.952 36.6439 269.949 36.6437ZM269.335 37.72C269.897 37.1522 270.223 36.5633 270.064 36.4047C269.905 36.246 269.321 36.5778 268.759 37.1456C268.198 37.7135 267.871 38.3024 268.03 38.461C268.189 38.6196 268.773 38.2879 269.335 37.72Z" fill="#C89A25"/>
</g>
<path fill-rule="evenodd" clip-rule="evenodd" d="M285.091 44.9832L286.852 44.5408C287.108 44.4763 287.352 44.6845 287.328 44.9479L287.051 47.9998C287.043 48.0924 287.068 48.1849 287.123 48.2601L288.833 50.6161C288.991 50.834 288.882 51.1429 288.622 51.2126L283.054 52.7044C282.85 52.7592 282.639 52.6377 282.584 52.4328L282.367 51.6212C282.315 51.4267 282.422 51.2249 282.612 51.159L286.36 49.8594L285.091 44.9832ZM261.86 51.2079L260.079 51.7148C259.824 51.7872 259.717 52.0891 259.87 52.3053L261.634 54.8104C261.688 54.8863 261.712 54.979 261.702 55.0714L261.4 57.9668C261.372 58.2346 261.622 58.4473 261.882 58.3776L267.45 56.8856C267.655 56.8307 267.776 56.6201 267.722 56.4152L267.504 55.6036C267.452 55.4091 267.258 55.2879 267.061 55.3259L263.164 56.0749L261.86 51.2079Z" fill="#EACE46"/>
<path d="M285.091 44.9832L284.75 43.8085C284.692 43.6078 284.483 43.4905 284.282 43.5446L261.817 49.5641C261.612 49.619 261.49 49.8295 261.545 50.0344L261.86 51.2079L263.164 56.0749L286.36 49.8594L285.091 44.9832Z" fill="#F5DA4C"/>
<path d="M266.006 51.5041C266.055 51.688 266.058 51.8681 266.015 52.0445C265.971 52.2179 265.874 52.3747 265.724 52.515C265.574 52.6553 265.37 52.7602 265.11 52.8297L264.631 52.9581L264.936 54.0977L264.163 54.3049L263.312 51.1304L264.565 50.7947C264.818 50.7269 265.044 50.7132 265.242 50.7538C265.441 50.7944 265.604 50.8798 265.733 51.0102C265.861 51.1405 265.952 51.3051 266.006 51.5041ZM264.887 52.2304C265.035 52.1908 265.135 52.1267 265.189 52.038C265.243 51.9492 265.253 51.8416 265.219 51.7149C265.185 51.5883 265.122 51.5 265.032 51.4501C264.941 51.4001 264.821 51.395 264.674 51.4345L264.253 51.5472L264.466 52.3431L264.887 52.2304Z" fill="#C89A25"/>
<path d="M268.604 53.115L267.623 52.0935L267.437 52.1432L267.758 53.3416L266.985 53.5488L266.134 50.3742L267.432 50.0265C267.682 49.9594 267.907 49.9462 268.105 49.9868C268.306 50.0265 268.471 50.1116 268.6 50.2419C268.728 50.3692 268.817 50.5263 268.867 50.7133C268.923 50.9243 268.913 51.1289 268.837 51.327C268.764 51.5243 268.621 51.6887 268.407 51.8203L269.477 52.8811L268.604 53.115ZM267.291 51.596L267.77 51.4676C267.912 51.4296 268.008 51.3667 268.059 51.2788C268.112 51.19 268.122 51.0824 268.088 50.9557C268.056 50.8352 267.994 50.7499 267.903 50.6999C267.816 50.6492 267.701 50.6428 267.559 50.6807L267.08 50.8092L267.291 51.596Z" fill="#C89A25"/>
<path d="M270.024 49.9961L270.196 50.6383L271.231 50.3608L271.391 50.9577L270.356 51.2352L270.542 51.9316L271.713 51.6178L271.879 52.2373L269.935 52.7583L269.084 49.5838L271.029 49.0628L271.195 49.6823L270.024 49.9961Z" fill="#C89A25"/>
<path d="M275.126 47.965L275.977 51.1395L275.203 51.3467L274.693 49.4429L274.493 51.5369L273.869 51.7041L272.643 49.9872L273.155 51.8956L272.381 52.1028L271.531 48.9283L272.444 48.6835L273.924 50.6425L274.217 48.2085L275.126 47.965Z" fill="#C89A25"/>
<path d="M276.455 47.6088L277.306 50.7833L276.533 50.9905L275.682 47.816L276.455 47.6088Z" fill="#C89A25"/>
<path d="M277.775 47.255L278.284 49.1543C278.335 49.3443 278.421 49.4779 278.542 49.5554C278.663 49.6329 278.814 49.6474 278.995 49.5989C279.176 49.5504 279.301 49.462 279.37 49.3337C279.439 49.2053 279.448 49.0462 279.397 48.8563L278.888 46.957L279.661 46.7498L280.169 48.6445C280.245 48.9279 280.249 49.1837 280.181 49.412C280.113 49.6403 279.989 49.8316 279.811 49.986C279.636 50.1396 279.423 50.25 279.173 50.317C278.922 50.3841 278.685 50.396 278.46 50.3529C278.237 50.3059 278.043 50.1998 277.876 50.0345C277.708 49.8662 277.586 49.6404 277.51 49.357L277.002 47.4622L277.775 47.255Z" fill="#C89A25"/>
<path d="M283.799 45.641L284.65 48.8155L283.877 49.0227L283.366 47.1189L283.167 49.2129L282.543 49.3801L281.317 47.6633L281.828 49.5716L281.055 49.7788L280.204 46.6043L281.118 46.3595L282.597 48.3185L282.89 45.8845L283.799 45.641Z" fill="#C89A25"/>
<path d="M263.126 56.0938L267.337 54.9654L267.881 56.8074L263.126 56.0938Z" fill="#C89A25"/>
<path d="M286.402 49.8566L282.145 50.9976L282.669 52.8447L286.402 49.8566Z" fill="#C89A25"/>
</g>
<g opacity="0.2" clip-path="url(#clip3_32558_34480)">
<path d="M299.291 15.4601C299.407 15.0445 299.164 14.6136 298.748 14.4978L295.423 13.5711C295.008 13.4552 294.577 13.6982 294.461 14.1139L292.301 21.8644C292.131 22.4753 292.721 23.0238 293.317 22.8094L297.299 21.3795C297.538 21.2939 297.72 21.098 297.788 20.854L299.291 15.4601Z" fill="url(#paint10_linear_32558_34480)"/>
<path d="M303.75 16.7028C303.866 16.2871 304.297 16.0441 304.713 16.1599L308.038 17.0867C308.453 17.2025 308.696 17.6333 308.58 18.049L306.42 25.7995C306.25 26.4104 305.461 26.5746 305.061 26.0825L302.393 22.7991C302.233 22.6026 302.179 22.3407 302.247 22.0967L303.75 16.7028Z" fill="url(#paint11_linear_32558_34480)"/>
<path d="M304 1.27659C304.831 1.0501 305.719 1.29767 306.313 1.92134L308.901 4.63804L311.56 7.29861C312.165 7.90374 312.392 8.79045 312.153 9.61188L311.094 13.2427L310.122 16.8978C309.902 17.7248 309.249 18.3662 308.419 18.5712L304.766 19.4725L301.146 20.4591C300.315 20.6855 299.427 20.438 298.833 19.8143L296.245 17.0976L293.585 14.437C292.98 13.8319 292.753 12.9452 292.993 12.1238L294.052 8.49297L295.024 4.83782C295.243 4.01088 295.896 3.36946 296.727 3.16447L300.38 2.26319L304 1.27659Z" fill="url(#paint12_radial_32558_34480)"/>
<path d="M303.267 2.95056C304.098 2.72407 304.986 2.97164 305.58 3.59531L307.546 5.65942L309.569 7.68266C310.174 8.28779 310.401 9.1745 310.161 9.99593L309.355 12.7582L308.616 15.5391C308.396 16.366 307.743 17.0074 306.913 17.2124L304.135 17.8978L301.385 18.6474C300.554 18.8739 299.666 18.6263 299.071 18.0027L297.105 15.9386L295.083 13.9153C294.478 13.3102 294.251 12.4235 294.49 11.602L295.296 8.83973L296.035 6.05889C296.255 5.23196 296.908 4.59054 297.739 4.38555L300.516 3.70016L303.267 2.95056Z" fill="#6053AD"/>
<path d="M303.445 3.26824C304.276 3.04175 305.164 3.28932 305.758 3.91299L307.635 5.88387L309.567 7.81607C310.172 8.4212 310.399 9.30791 310.159 10.1293L309.39 12.7676L308.684 15.4235C308.464 16.2504 307.811 16.8919 306.98 17.0969L304.328 17.7514L301.702 18.4671C300.871 18.6936 299.982 18.4461 299.388 17.8224L297.511 15.8515L295.579 13.9193C294.974 13.3142 294.747 12.4275 294.987 11.6061L295.756 8.96781L296.462 6.31188C296.682 5.48494 297.335 4.84352 298.166 4.63853L300.819 3.98399L303.445 3.26824Z" fill="url(#paint13_linear_32558_34480)"/>
<path fill-rule="evenodd" clip-rule="evenodd" d="M299.561 15.3816C299.345 15.1411 299.166 14.8698 299.029 14.5765L297.923 15.1204C298.111 15.5235 298.357 15.8963 298.653 16.2268C298.712 16.1718 298.771 16.1168 298.83 16.0617C298.663 15.8758 298.513 15.6753 298.382 15.4626L298.609 15.315C298.718 15.4914 298.841 15.6589 298.976 15.8159C299.034 15.7641 299.092 15.7123 299.15 15.6605C299.023 15.5125 298.907 15.3547 298.804 15.1885L299.014 15.0524C299.122 15.2277 299.246 15.393 299.384 15.5463L299.561 15.3812L299.561 15.3816ZM299.808 15.6287L298.993 16.5661C299.282 16.8243 299.603 17.0433 299.949 17.2175C299.983 17.1476 300.018 17.0778 300.053 17.0079C299.868 16.9146 299.69 16.8077 299.521 16.6881L300.095 15.8574C299.995 15.7867 299.899 15.7103 299.808 15.6286L299.808 15.6287ZM300.298 17.3754C300.452 17.4369 300.609 17.4899 300.769 17.5339L301.1 16.333C300.984 16.3009 300.87 16.2624 300.758 16.2177L300.298 17.3754ZM301.336 16.6362C301.474 16.6615 301.614 16.6784 301.755 16.6868C301.733 17.0201 301.711 17.3534 301.69 17.6867C301.856 17.6966 302.023 17.6971 302.189 17.6882L302.145 16.6878C302.288 16.6801 302.43 16.6636 302.57 16.6383C302.557 16.5586 302.544 16.4789 302.53 16.3991C302.15 16.4675 301.76 16.4668 301.38 16.3971C301.365 16.4767 301.35 16.5564 301.335 16.6361L301.336 16.6362ZM303.695 15.9436C303.423 16.1162 303.128 16.2477 302.818 16.3336L303.129 17.5349C303.555 17.4168 303.961 17.2362 304.334 16.999C304.293 16.9303 304.251 16.8617 304.209 16.793C303.994 16.9295 303.768 17.0464 303.532 17.1425L303.435 16.889C303.629 16.8096 303.818 16.715 303.998 16.6059L303.882 16.4049C303.712 16.5077 303.535 16.5968 303.351 16.6717L303.261 16.4378C303.456 16.3586 303.643 16.2621 303.82 16.1496L303.695 15.9436Z" fill="#7063BD"/>
<g opacity="0.8">
<path fill-rule="evenodd" clip-rule="evenodd" d="M297.969 12.1506C297.993 12.1574 298.019 12.1545 298.042 12.1412C298.078 12.1199 298.099 12.0781 298.095 12.0352C298.022 11.2946 298.198 10.5636 298.618 9.86265C298.64 9.82587 298.639 9.7797 298.617 9.74537C298.593 9.71145 298.552 9.69648 298.513 9.70703C298.032 9.84269 297.656 10.2451 297.533 10.7572C297.41 11.2692 297.563 11.795 297.931 12.13C297.942 12.1402 297.955 12.1469 297.969 12.1506ZM298.309 10.0135C298.018 10.5801 297.875 11.1641 297.882 11.7571C297.704 11.4863 297.643 11.1406 297.725 10.8022C297.807 10.4599 298.022 10.1754 298.309 10.0135Z" fill="#6053AD"/>
<path fill-rule="evenodd" clip-rule="evenodd" d="M301.356 15.5155C302.135 15.7327 302.93 15.7401 303.664 15.537C305.036 15.1569 306.065 14.0732 306.486 12.5637C306.8 11.4358 306.668 10.2529 306.115 9.23234C305.566 8.21729 304.671 7.49345 303.597 7.19413C301.384 6.57718 299.164 7.7654 298.427 9.95881L298.374 10.0337C298.373 10.0349 298.372 10.0362 298.371 10.0376C298.354 10.0629 298.341 10.0837 298.328 10.1025C298.229 10.2524 298.224 10.2671 298.121 10.6436C298.103 10.7051 298.083 10.7769 298.06 10.8613C297.862 11.5701 298.006 13.0057 298.789 13.8603L298.87 13.9673C298.872 13.9703 298.874 13.9731 298.877 13.9758C299.549 14.6881 300.358 15.2063 301.214 15.4738C301.261 15.4881 301.308 15.502 301.356 15.5155ZM303.542 7.39391C305.68 7.98978 306.914 10.285 306.294 12.5103C305.894 13.9469 304.918 14.9772 303.617 15.3373C302.066 15.7664 300.307 15.1904 299.024 13.8334L298.943 13.7269C298.942 13.7245 298.94 13.7221 298.937 13.7199C298.213 12.9307 298.072 11.5603 298.251 10.9147C298.275 10.8303 298.295 10.7579 298.312 10.6964C298.411 10.3385 298.411 10.3385 298.491 10.2172C298.504 10.1984 298.518 10.1777 298.534 10.1528L298.596 10.0662C298.602 10.0574 298.607 10.0477 298.611 10.0375C299.306 7.94113 301.427 6.80445 303.542 7.39391Z" fill="#6053AD"/>
<path fill-rule="evenodd" clip-rule="evenodd" d="M300.975 15.0377C303.062 15.6195 305.149 14.6959 305.627 12.9797C306.106 11.263 304.797 9.39351 302.71 8.81171C300.623 8.23006 298.535 9.15305 298.057 10.8697C297.579 12.5859 298.888 14.4561 300.975 15.0377ZM302.666 8.97033C304.665 9.52759 305.922 11.306 305.468 12.9353C305.014 14.5641 303.018 15.4358 301.019 14.8786C299.02 14.3213 297.762 12.5429 298.216 10.9142C298.67 9.28485 300.666 8.41307 302.666 8.97033Z" fill="#6053AD"/>
<path fill-rule="evenodd" clip-rule="evenodd" d="M301.071 14.6913C302.969 15.2202 304.848 14.448 305.26 12.97C305.672 11.4919 304.463 9.85887 302.566 9.32998C300.668 8.80109 298.789 9.57373 298.377 11.0518C297.965 12.5299 299.174 14.1624 301.071 14.6913ZM302.512 9.52166C304.301 10.0202 305.446 11.5426 305.063 12.9152C304.681 14.2872 302.914 14.9982 301.125 14.4996C299.336 14.001 298.192 12.4787 298.574 11.1066C298.956 9.73404 300.723 9.02309 302.512 9.52166Z" fill="#6053AD"/>
<path fill-rule="evenodd" clip-rule="evenodd" d="M300.997 14.6708C301.229 14.7355 301.466 14.7818 301.702 14.8075C301.705 14.8079 301.708 14.808 301.712 14.8077C303.43 14.8166 304.762 14.1068 304.81 13.1564C304.823 12.9 304.742 12.6476 304.569 12.4071C304.691 12.109 304.761 11.7949 304.777 11.4727C304.787 11.2801 304.777 11.0865 304.748 10.8967C304.746 10.8842 304.742 10.8729 304.735 10.863C304.249 10.1376 303.431 9.57165 302.491 9.30948C301.646 9.07415 300.77 9.09649 300.02 9.37244C299.271 9.64892 298.712 10.1546 298.449 10.7963C298.446 10.8024 298.444 10.8085 298.443 10.8147C298.426 10.9197 298.415 11.0269 298.409 11.1331C298.393 11.4553 298.431 11.7749 298.522 12.0845C298.471 12.1412 298.42 12.1665 298.382 12.2266C298.369 12.2468 298.401 12.3266 298.407 12.3499C298.579 12.8627 298.869 13.312 299.305 13.753C299.769 14.1747 300.354 14.4918 300.997 14.6708ZM301.716 14.6413C301.49 14.6163 301.263 14.5723 301.041 14.5105C299.813 14.1683 298.863 13.3302 298.55 12.3191C298.587 12.2653 298.63 12.2131 298.677 12.1624C298.698 12.1409 298.705 12.1095 298.695 12.0809C298.601 11.7764 298.561 11.4607 298.577 11.1418C298.582 11.0451 298.592 10.9473 298.607 10.8512C299.13 9.59868 300.777 9.00521 302.446 9.47027C303.342 9.7199 304.12 10.2544 304.584 10.9395C304.61 11.1125 304.618 11.2887 304.609 11.464C304.593 11.7822 304.522 12.0926 304.396 12.3854C304.385 12.4128 304.389 12.4446 304.407 12.4682C304.575 12.6888 304.654 12.917 304.642 13.1475C304.599 13.9924 303.314 14.648 301.716 14.6413Z" fill="#6053AD"/>
<path fill-rule="evenodd" clip-rule="evenodd" d="M301.009 14.6741C301.241 14.7386 301.478 14.784 301.714 14.8093C301.716 14.8095 301.718 14.8096 301.721 14.8096C303.434 14.8106 304.765 14.0888 304.818 13.1313C304.832 12.8601 304.744 12.5939 304.555 12.3409C304.552 12.3371 304.549 12.3337 304.545 12.3307C304.338 12.1519 304.086 12.062 303.795 12.0617C304.001 11.8127 304.122 11.5043 304.14 11.1775C304.185 10.3489 303.553 9.64161 302.732 9.60087C302.355 9.58211 301.991 9.70517 301.701 9.94929C301.437 9.66218 301.081 9.49532 300.69 9.47583C300.132 9.44783 299.57 9.80173 299.292 10.3554C299.052 10.8331 299.074 11.3558 299.347 11.7865C299.071 11.7523 298.79 11.8431 298.583 12.0415C298.582 12.0424 298.581 12.0435 298.58 12.0447C298.517 12.1131 298.461 12.1846 298.415 12.2583C298.404 12.2745 298.401 12.2949 298.407 12.3137C298.556 12.8394 298.873 13.3368 299.324 13.7516C299.786 14.1762 300.369 14.4956 301.009 14.6741ZM301.725 14.6734C301.498 14.6493 301.269 14.6052 301.046 14.5429C299.808 14.1979 298.852 13.3419 298.545 12.3055C298.583 12.2486 298.627 12.1923 298.677 12.1387C298.893 11.9324 299.203 11.8629 299.484 11.9567C299.512 11.9658 299.543 11.9555 299.561 11.9303C299.578 11.9057 299.576 11.8724 299.558 11.8487C299.223 11.4363 299.168 10.9008 299.412 10.4165C299.666 9.90999 300.177 9.5861 300.682 9.61107C301.059 9.62993 301.4 9.79953 301.644 10.0884C301.655 10.1026 301.672 10.1108 301.691 10.1119C301.709 10.1134 301.727 10.107 301.74 10.0945C302.011 9.8458 302.361 9.71821 302.725 9.73611C303.472 9.77342 304.046 10.4171 304.005 11.1706C303.986 11.5208 303.837 11.8473 303.586 12.0899C303.568 12.1068 303.561 12.132 303.566 12.1554C303.575 12.1877 303.607 12.2099 303.639 12.2063C303.967 12.17 304.232 12.2429 304.451 12.4292C304.618 12.6538 304.696 12.8879 304.683 13.1243C304.636 13.9939 303.337 14.6737 301.725 14.6734Z" fill="#6053AD"/>
<path fill-rule="evenodd" clip-rule="evenodd" d="M300.717 14.4052C300.958 14.4723 301.215 14.5131 301.484 14.5258C302.641 14.5787 303.65 14.077 304.053 13.247C304.19 12.9643 304.12 12.8242 304.066 12.7654C303.977 12.6695 303.812 12.659 303.634 12.7377C302.377 13.2959 300.736 13.2205 299.549 12.5498C299.383 12.4549 299.217 12.4506 299.117 12.5383C299.057 12.5912 298.971 12.7246 299.074 13.0184C299.309 13.6803 299.921 14.1834 300.717 14.4052ZM303.913 12.8287C303.935 12.835 303.955 12.8456 303.968 12.8606C304.02 12.9162 304.007 13.0355 303.933 13.1875C303.554 13.9683 302.596 14.4397 301.491 14.3887C300.387 14.3384 299.488 13.7814 299.201 12.9697C299.145 12.8121 299.146 12.6924 299.204 12.6415C299.258 12.5933 299.368 12.6046 299.484 12.6695C300.704 13.3596 302.393 13.4371 303.686 12.8628C303.773 12.8243 303.855 12.8127 303.913 12.8287Z" fill="#6053AD"/>
<path d="M301.563 12.5902C301.595 12.5991 301.631 12.5903 301.654 12.565C301.726 12.4839 301.844 12.4605 301.945 12.5062C301.989 12.5262 302.041 12.5074 302.062 12.4645C302.082 12.4215 302.062 12.3697 302.017 12.3497C301.844 12.2714 301.644 12.3117 301.52 12.4499C301.488 12.4854 301.492 12.5398 301.529 12.5718C301.539 12.5805 301.551 12.5868 301.563 12.5902Z" fill="#6053AD"/>
<path d="M301.57 12.5942C301.593 12.6006 301.618 12.5994 301.638 12.5886C301.672 12.5704 301.678 12.5309 301.65 12.5001C301.543 12.3834 301.359 12.3255 301.201 12.3592C301.16 12.3682 301.14 12.4033 301.157 12.4379C301.174 12.4722 301.221 12.4934 301.262 12.4844C301.354 12.4647 301.462 12.4986 301.524 12.5669C301.536 12.58 301.553 12.5893 301.57 12.5942Z" fill="#6053AD"/>
<path d="M301.456 13.1215C301.459 13.1225 301.463 13.1228 301.467 13.1223C301.496 13.1201 301.525 13.0809 301.531 13.0355C301.567 12.7814 301.58 12.6787 301.604 12.484C301.61 12.4383 301.59 12.4043 301.561 12.4082C301.532 12.4121 301.504 12.4526 301.498 12.4977C301.475 12.6903 301.461 12.7923 301.426 13.0442C301.42 13.0835 301.433 13.1153 301.456 13.1215Z" fill="#6053AD"/>
<path d="M303.941 13.1042C303.77 13.2304 303.569 13.3252 303.359 13.4004C303.147 13.4754 302.927 13.5311 302.703 13.5763C302.68 13.5808 302.666 13.6026 302.672 13.6242C302.677 13.6452 302.698 13.6591 302.72 13.6561C302.95 13.6247 303.179 13.5826 303.404 13.5194C303.628 13.4554 303.849 13.37 304.049 13.2421C304.089 13.2163 304.099 13.1641 304.071 13.1248C304.042 13.086 303.987 13.0752 303.947 13.1005C303.945 13.1016 303.944 13.1027 303.942 13.1038L303.941 13.1042Z" fill="#6053AD"/>
<path d="M299.006 12.9743C299.189 13.1218 299.394 13.2296 299.603 13.3166C299.813 13.4037 300.029 13.4701 300.246 13.5261C300.266 13.5311 300.286 13.5198 300.291 13.5003C300.295 13.4819 300.285 13.4633 300.267 13.4571C300.056 13.3866 299.849 13.3064 299.653 13.2086C299.458 13.1109 299.272 12.9944 299.118 12.8509L299.118 12.8507C299.084 12.8187 299.031 12.8196 298.998 12.8528C298.966 12.8855 298.968 12.9383 299.002 12.9702C299.004 12.9713 299.005 12.9728 299.006 12.9743Z" fill="#6053AD"/>
<path fill-rule="evenodd" clip-rule="evenodd" d="M300.997 14.6708C301.229 14.7355 301.466 14.7818 301.702 14.8075C301.705 14.8079 301.708 14.808 301.712 14.8077C303.43 14.8166 304.762 14.1068 304.81 13.1564C304.823 12.9 304.742 12.6476 304.569 12.4071C304.691 12.109 304.761 11.7949 304.777 11.4727C304.787 11.2801 304.777 11.0865 304.748 10.8967C304.746 10.8842 304.742 10.8729 304.735 10.863C304.249 10.1376 303.431 9.57165 302.491 9.30948C301.646 9.07415 300.77 9.09649 300.02 9.37244C299.271 9.64892 298.712 10.1546 298.449 10.7963C298.446 10.8024 298.444 10.8085 298.443 10.8147C298.426 10.9197 298.415 11.0269 298.409 11.1331C298.393 11.4553 298.431 11.7749 298.522 12.0845C298.471 12.1412 298.427 12.2002 298.388 12.2603C298.375 12.2804 298.396 12.3133 298.403 12.3367C298.593 12.8584 298.867 13.2914 299.305 13.753C299.769 14.1747 300.354 14.4918 300.997 14.6708ZM301.716 14.6413C301.49 14.6163 301.263 14.5723 301.041 14.5105C299.813 14.1683 298.863 13.3302 298.55 12.3191C298.587 12.2653 298.63 12.2131 298.677 12.1624C298.698 12.1409 298.705 12.1095 298.695 12.0809C298.601 11.7764 298.561 11.4607 298.577 11.1418C298.582 11.0451 298.592 10.9473 298.607 10.8512C299.13 9.59868 300.777 9.00521 302.446 9.47027C303.342 9.7199 304.12 10.2544 304.584 10.9395C304.61 11.1125 304.618 11.2887 304.609 11.464C304.593 11.7822 304.522 12.0926 304.396 12.3854C304.385 12.4128 304.389 12.4446 304.407 12.4682C304.575 12.6888 304.654 12.917 304.642 13.1475C304.599 13.9924 303.314 14.648 301.716 14.6413Z" fill="#6053AD"/>
<path fill-rule="evenodd" clip-rule="evenodd" d="M306.174 13.1318C306.21 13.1417 306.246 13.1489 306.284 13.1534C306.522 13.1832 306.762 13.0979 306.958 12.9134C307.15 12.733 307.277 12.4778 307.317 12.1958C307.399 11.6067 307.069 11.0783 306.582 11.0172C306.094 10.9564 305.63 11.386 305.548 11.9752C305.509 12.2573 305.562 12.5348 305.697 12.7561C305.814 12.9474 305.981 13.078 306.174 13.1318ZM306.633 11.2404C306.967 11.3335 307.181 11.7306 307.12 12.1711C307.087 12.4042 306.984 12.6132 306.828 12.7604C306.676 12.9027 306.493 12.9689 306.312 12.9464C306.132 12.924 305.973 12.8152 305.866 12.6403C305.756 12.4598 305.713 12.2324 305.745 11.9993C305.812 11.5248 306.174 11.177 306.553 11.224C306.58 11.2277 306.607 11.2332 306.633 11.2404Z" fill="#6053AD"/>
<path fill-rule="evenodd" clip-rule="evenodd" d="M306.42 13.0139C306.445 13.0208 306.469 13.0258 306.495 13.0289C306.56 13.0373 306.627 13.0334 306.692 13.0165C306.695 13.0159 306.699 13.0148 306.702 13.0135C307.029 12.8856 307.276 12.5455 307.331 12.1472C307.393 11.6922 307.192 11.2543 306.841 11.0821C306.836 11.0799 306.83 11.0781 306.825 11.0765C306.804 11.0713 306.783 11.0673 306.763 11.0646C306.376 11.0154 306 11.4152 305.925 11.9568C305.89 12.2139 305.927 12.4659 306.029 12.6656C306.122 12.8478 306.259 12.9691 306.42 13.0139ZM306.65 12.8532C306.606 12.8639 306.561 12.8664 306.518 12.8607C306.379 12.8427 306.257 12.7448 306.176 12.5853C306.089 12.4159 306.058 12.2002 306.089 11.9776C306.15 11.5287 306.442 11.1949 306.74 11.2329C306.752 11.2346 306.763 11.2367 306.775 11.2391C307.058 11.3833 307.219 11.7465 307.167 12.1264C307.121 12.4614 306.919 12.7458 306.65 12.8532Z" fill="#6053AD"/>
<path fill-rule="evenodd" clip-rule="evenodd" d="M304.055 8.81398C304.159 8.84303 304.307 8.8195 304.495 8.74277C304.79 8.62357 305.1 8.61757 305.365 8.62784C305.386 8.62816 305.406 8.62294 305.424 8.61246C305.6 8.50242 305.67 8.31763 305.6 8.14234C305.526 7.95247 305.283 7.77644 304.909 7.81022C304.681 7.81885 304.263 7.89488 304.004 8.30435C303.878 8.50359 303.859 8.65301 303.946 8.74919C303.975 8.7802 304.011 8.8018 304.055 8.81398ZM305.332 8.4322C305.067 8.42396 304.73 8.4344 304.41 8.5638C304.197 8.65042 304.11 8.63271 304.098 8.62338C304.098 8.62353 304.077 8.56991 304.179 8.408C304.392 8.07203 304.738 8.01098 304.926 8.00421C304.928 8.00403 304.93 8.00385 304.932 8.00367C305.198 7.9792 305.363 8.08771 305.41 8.20589C305.443 8.28999 305.415 8.37091 305.332 8.4322Z" fill="#6053AD"/>
<path fill-rule="evenodd" clip-rule="evenodd" d="M299.807 8.37367C299.923 8.40602 300.065 8.37416 300.13 8.25519C300.3 7.94325 300.63 7.66273 300.989 7.52416C301.02 7.51215 301.043 7.48511 301.05 7.45195C301.056 7.41931 301.047 7.38536 301.023 7.36201C300.804 7.14442 300.583 7.05721 300.367 7.10223C300.078 7.16283 299.821 7.46344 299.602 7.99656C299.548 8.12817 299.615 8.28508 299.755 8.35353C299.771 8.362 299.789 8.36868 299.807 8.37367ZM300.773 7.40455C300.432 7.57346 300.128 7.85278 299.959 8.16087C299.941 8.19376 299.881 8.19647 299.841 8.17688C299.801 8.15678 299.767 8.1078 299.782 8.07133C299.971 7.6091 300.187 7.34042 300.405 7.29516C300.521 7.27062 300.644 7.30784 300.773 7.40455Z" fill="#6053AD"/>
<path opacity="0.3" d="M300.788 7.34252C300.247 7.56337 299.958 7.85543 299.919 8.21868C300.199 7.9355 300.511 7.69094 300.853 7.48499C300.862 7.48722 300.841 7.43973 300.788 7.34252Z" fill="#6053AD"/>
<path fill-rule="evenodd" clip-rule="evenodd" d="M301.04 14.6606C302.89 15.1762 304.731 14.393 305.143 12.915C305.554 11.437 304.385 9.81489 302.535 9.29927C300.684 8.78366 298.844 9.56679 298.432 11.0448C298.02 12.5228 299.19 14.1449 301.04 14.6606ZM302.499 9.42826C304.277 9.92403 305.405 11.4723 305.013 12.879C304.621 14.2857 302.855 15.0268 301.076 14.531C299.298 14.0353 298.169 12.4875 298.561 11.0808C298.954 9.67416 300.72 8.93249 302.499 9.42826Z" fill="#6053AD"/>
<path fill-rule="evenodd" clip-rule="evenodd" d="M300.456 12.0724C300.224 12.1057 300.014 11.8452 299.985 11.4906C299.957 11.136 300.121 10.8215 300.352 10.7882C300.584 10.7549 300.794 11.0154 300.823 11.37C300.852 11.7246 300.687 12.0389 300.456 12.0724ZM300.336 11.3176C300.243 11.2838 300.192 11.1801 300.222 11.0863C300.251 10.9918 300.351 10.9426 300.444 10.9759C300.537 11.0093 300.588 11.1134 300.559 11.2075C300.528 11.3018 300.429 11.351 300.336 11.3176Z" fill="#6053AD"/>
<path fill-rule="evenodd" clip-rule="evenodd" d="M302.761 11.0626C302.571 11.0178 302.379 11.2217 302.332 11.5172C302.285 11.8131 302.401 12.0887 302.59 12.1329C302.779 12.1775 302.971 11.9737 303.018 11.6782C303.065 11.3821 302.95 11.1067 302.761 11.0626ZM302.655 11.2326C302.574 11.2474 302.539 11.3457 302.577 11.4521C302.614 11.5585 302.711 11.633 302.792 11.6177C302.873 11.603 302.909 11.5046 302.871 11.3983C302.833 11.2919 302.736 11.2179 302.655 11.2326ZM302.454 11.866C302.426 11.8152 302.432 11.7592 302.467 11.741C302.502 11.7231 302.552 11.7495 302.58 11.8004C302.607 11.8512 302.601 11.9072 302.567 11.9256C302.532 11.9438 302.481 11.9169 302.454 11.866Z" fill="#6053AD"/>
<path fill-rule="evenodd" clip-rule="evenodd" d="M303.212 6.33312C303.289 6.68862 303.222 7.03592 303.136 7.25138L302.867 7.14318C302.936 6.97092 302.991 6.68389 302.929 6.39651C302.869 6.11675 302.697 5.82953 302.296 5.63885L302.42 5.37452C302.907 5.60578 303.134 5.97 303.212 6.33312Z" fill="#6053AD"/>
<path d="M302.841 5.67892C302.788 5.86995 302.591 5.98185 302.401 5.92885C302.21 5.87585 302.099 5.67803 302.153 5.487C302.206 5.29597 302.403 5.18408 302.593 5.23707C302.783 5.29007 302.894 5.48789 302.841 5.67892Z" fill="#6053AD"/>
<path fill-rule="evenodd" clip-rule="evenodd" d="M304.002 5.9927C304.002 5.99268 304.002 5.99386 304 5.9963C304.001 5.99394 304.002 5.99272 304.002 5.9927ZM303.863 6.11001C303.845 6.10894 303.826 6.10819 303.805 6.10784C303.595 6.10424 303.302 6.14173 302.979 6.22663C302.656 6.31152 302.382 6.4232 302.201 6.52965C302.183 6.54012 302.167 6.55028 302.152 6.56007C302.169 6.56114 302.189 6.56189 302.209 6.56224C302.419 6.56584 302.712 6.52835 303.035 6.44345C303.358 6.35855 303.632 6.24687 303.813 6.14043C303.831 6.12996 303.848 6.1198 303.863 6.11001ZM301.973 6.52629C301.973 6.52624 301.975 6.52688 301.977 6.52835C301.974 6.52707 301.973 6.52634 301.973 6.52629ZM302.012 6.67738C302.012 6.6774 302.013 6.67622 302.014 6.67378C302.013 6.67613 302.012 6.67735 302.012 6.67738ZM304.038 6.14172C304.04 6.14301 304.041 6.14374 304.041 6.14379C304.041 6.14384 304.04 6.14319 304.038 6.14172ZM303.096 6.67945C303.772 6.50169 304.28 6.20338 304.231 6.01316C304.182 5.82295 303.594 5.81286 302.918 5.99063C302.242 6.16839 301.734 6.4667 301.783 6.65691C301.832 6.84713 302.42 6.85722 303.096 6.67945Z" fill="#6053AD"/>
</g>
<path fill-rule="evenodd" clip-rule="evenodd" d="M311.417 19.3473L312.867 19.776C313.125 19.8523 313.23 20.1604 313.073 20.3788L311.563 22.4758C311.508 22.5525 311.482 22.6467 311.491 22.7408L311.721 25.1774C311.747 25.4501 311.492 25.6639 311.228 25.5904L306.499 24.2724C306.291 24.2145 306.169 23.9991 306.227 23.7913L306.396 23.1846C306.451 22.9872 306.649 22.8659 306.85 22.9066L310.203 23.5858L311.417 19.3473ZM291.145 13.6974L289.652 13.306C289.392 13.2378 289.142 13.447 289.164 13.7151L289.37 16.2906C289.378 16.3848 289.351 16.4785 289.295 16.5544L287.838 18.521C287.675 18.7411 287.783 19.0563 288.047 19.1298L292.777 20.448C292.985 20.506 293.2 20.3844 293.258 20.1766L293.427 19.5699C293.482 19.3726 293.375 19.1663 293.183 19.0973L289.961 17.9443L291.145 13.6974Z" fill="#8C7EDC"/>
<path d="M311.417 19.3473L311.669 18.3623C311.722 18.1564 311.601 17.9461 311.396 17.889L291.897 12.4545C291.689 12.3966 291.474 12.5181 291.416 12.7259L291.145 13.6974L289.961 17.9443L310.203 23.5858L311.417 19.3473Z" fill="#BAAEFF"/>
<path d="M296.497 15.8579L296.31 16.5296L297.393 16.8315L297.219 17.4559L296.136 17.154L295.933 17.8825L297.158 18.2239L296.978 18.872L294.944 18.3051L295.869 14.9844L297.903 15.5513L297.723 16.1993L296.497 15.8579Z" fill="#6053AD"/>
<path d="M298.486 18.6194L299.545 18.9147L299.371 19.5391L297.503 19.0184L298.428 15.6976L299.237 15.9231L298.486 18.6194Z" fill="#6053AD"/>
<path d="M301.492 16.5514L300.566 19.8721L299.757 19.6467L300.683 16.3259L301.492 16.5514Z" fill="#6053AD"/>
<path d="M304.467 17.3805L304.286 18.0286L303.406 17.7834L302.661 20.456L301.852 20.2306L302.597 17.5579L301.717 17.3127L301.898 16.6647L304.467 17.3805Z" fill="#6053AD"/>
<path d="M305.501 18.3672L305.314 19.0389L306.397 19.3408L306.223 19.9652L305.14 19.6633L304.937 20.3918L306.162 20.7333L305.981 21.3813L303.947 20.8144L304.873 17.4937L306.907 18.0606L306.726 18.7087L305.501 18.3672Z" fill="#6053AD"/>
<path d="M289.924 17.9424L293.599 18.9666L293.188 20.5963L289.924 17.9424Z" fill="#6053AD"/>
<path d="M310.236 23.6034L306.521 22.5679L306.094 24.1929L310.236 23.6034Z" fill="#6053AD"/>
</g>
</g>
<defs>
<linearGradient id="paint0_linear_32558_34480" x1="-50.9045" y1="616.626" x2="268.779" y2="347.606" gradientUnits="userSpaceOnUse">
<stop stop-color="#A66FED"/>
<stop offset="1" stop-color="#F4EBFF" stop-opacity="0"/>
</linearGradient>
<linearGradient id="paint1_linear_32558_34480" x1="-50.9045" y1="616.626" x2="268.779" y2="347.606" gradientUnits="userSpaceOnUse">
<stop stop-color="#A66FED"/>
<stop offset="1" stop-color="#F4EBFF" stop-opacity="0"/>
</linearGradient>
<linearGradient id="paint2_linear_32558_34480" x1="289.188" y1="65.7267" x2="287.616" y2="71.5929" gradientUnits="userSpaceOnUse">
<stop stop-color="#919194"/>
<stop offset="1" stop-color="#DDDDDD"/>
</linearGradient>
<linearGradient id="paint3_linear_32558_34480" x1="301.396" y1="68.9976" x2="299.824" y2="74.8639" gradientUnits="userSpaceOnUse">
<stop stop-color="#919194"/>
<stop offset="1" stop-color="#DDDDDD"/>
</linearGradient>
<radialGradient id="paint4_radial_32558_34480" cx="0" cy="0" r="1" gradientUnits="userSpaceOnUse" gradientTransform="translate(296.984 59.7692) rotate(105) scale(8.86154 8.81633)">
<stop offset="0.28" stop-color="#E6E6E6"/>
<stop offset="1" stop-color="#A7A7A7"/>
</radialGradient>
<linearGradient id="paint5_linear_32558_34480" x1="298.82" y1="52.9197" x2="295.15" y2="66.6151" gradientUnits="userSpaceOnUse">
<stop stop-color="#D6D6D6"/>
<stop offset="1" stop-color="#F7F7F7"/>
</linearGradient>
<linearGradient id="paint6_linear_32558_34480" x1="266.223" y1="54.2198" x2="268.319" y2="62.0415" gradientUnits="userSpaceOnUse">
<stop stop-color="#E6C208"/>
<stop offset="1" stop-color="#EBEBEB"/>
</linearGradient>
<linearGradient id="paint7_linear_32558_34480" x1="282.499" y1="49.8585" x2="284.595" y2="57.6802" gradientUnits="userSpaceOnUse">
<stop stop-color="#E6C208"/>
<stop offset="1" stop-color="#EBEBEB"/>
</linearGradient>
<radialGradient id="paint8_radial_32558_34480" cx="0" cy="0" r="1" gradientUnits="userSpaceOnUse" gradientTransform="translate(271.253 42.1418) rotate(75) scale(11.8154 11.7551)">
<stop stop-color="#FFF4BE"/>
<stop offset="1" stop-color="#FCDE48"/>
</radialGradient>
<linearGradient id="paint9_linear_32558_34480" x1="268.806" y1="33.0109" x2="273.699" y2="51.2713" gradientUnits="userSpaceOnUse">
<stop stop-color="#FFF6C9"/>
<stop offset="1" stop-color="#E7CD4D"/>
</linearGradient>
<linearGradient id="paint10_linear_32558_34480" x1="293.408" y1="17.7281" x2="291.506" y2="24.5534" gradientUnits="userSpaceOnUse">
<stop stop-color="#6955E8"/>
<stop offset="1" stop-color="#E5E1FF"/>
</linearGradient>
<linearGradient id="paint11_linear_32558_34480" x1="307.612" y1="21.6866" x2="305.71" y2="28.5119" gradientUnits="userSpaceOnUse">
<stop stop-color="#6955E8"/>
<stop offset="1" stop-color="#E5E1FF"/>
</linearGradient>
<radialGradient id="paint12_radial_32558_34480" cx="0" cy="0" r="1" gradientUnits="userSpaceOnUse" gradientTransform="translate(302.573 10.8678) rotate(105.574) scale(10.3385 10.2857)">
<stop stop-color="#DAD4FF"/>
<stop offset="1" stop-color="#8F7EFC"/>
</radialGradient>
<linearGradient id="paint13_linear_32558_34480" x1="304.794" y1="2.90058" x2="300.353" y2="18.8348" gradientUnits="userSpaceOnUse">
<stop stop-color="#C0B6FF"/>
<stop offset="1" stop-color="#A293FF"/>
</linearGradient>
<clipPath id="clip0_32558_34480">
<rect width="320" height="73" rx="5" fill="white"/>
</clipPath>
<clipPath id="clip1_32558_34480">
<rect width="24" height="24" fill="white" transform="translate(288.211 47) rotate(15)"/>
</clipPath>
<clipPath id="clip2_32558_34480">
<rect width="32" height="32" fill="white" transform="translate(253 33.2822) rotate(-15)"/>
</clipPath>
<clipPath id="clip3_32558_34480">
<rect width="28" height="28" fill="white" transform="translate(292.518 -4) rotate(15.5736)"/>
</clipPath>
</defs>
</svg>
