<svg width="1280" height="580" viewBox="0 0 1280 580" fill="none" xmlns="http://www.w3.org/2000/svg">
<g clip-path="url(#clip0_26378_18532)">
<rect width="1280" height="580" fill="white"/>
<mask id="mask0_26378_18532" style="mask-type:alpha" maskUnits="userSpaceOnUse" x="-253" y="-159" width="1853" height="801">
<path d="M1478.5 -10.1933C1478.5 -10.1933 1713.47 448.241 1527.67 596.5C1367.23 724.522 1211.28 538.698 1006.17 531C807.508 523.544 695.902 570.053 497.67 555C395.24 547.221 339.896 518.418 237.17 518.5C91.1158 518.617 -129.331 593 -129.331 593L-252.831 -159L1478.5 -10.1933Z" fill="url(#paint0_linear_26378_18532)"/>
</mask>
<g mask="url(#mask0_26378_18532)">
<path d="M1478.5 -10.1933C1478.5 -10.1933 1719.8 382.741 1534 531C1373.56 659.022 1211.28 538.698 1006.17 531C807.507 523.544 695.901 570.053 497.669 555C395.239 547.221 339.895 518.418 237.169 518.5C91.1148 518.617 -129.332 593 -129.332 593L-252.832 -159L1478.5 -10.1933Z" fill="url(#paint1_linear_26378_18532)"/>
<path opacity="0.25" d="M248.131 488.896C102.138 484.664 -120.425 552.451 -120.425 552.451L-64.1705 690.187L1513.63 737.187L1535.74 605.287C1371.55 728.475 1221.21 538.09 1016.42 524.288C818.065 510.92 705.125 554.086 507.429 533.137C405.276 522.312 350.813 491.873 248.131 488.896Z" fill="white"/>
<g opacity="0.25" filter="url(#filter0_f_26378_18532)">
<path d="M248.131 488.896C102.138 484.665 -120.426 552.451 -120.426 552.451L-64.1709 690.187L1513.63 737.187L1533.5 509C1369.32 632.188 1221.21 538.09 1016.42 524.288C818.065 510.92 705.124 554.086 507.429 533.137C405.275 522.312 350.813 491.873 248.131 488.896Z" fill="white"/>
</g>
<g opacity="0.4" filter="url(#filter1_f_26378_18532)">
<path d="M1267.92 263.892L1153.49 316.139C1152.26 316.697 1150.8 316.181 1150.23 314.985C1149.66 313.788 1150.19 312.365 1151.42 311.807C1151.44 311.796 1151.47 311.78 1151.5 311.771L1267.81 263.647C1267.88 263.618 1267.96 263.649 1267.99 263.718C1268.02 263.785 1267.99 263.861 1267.92 263.892Z" fill="url(#paint2_linear_26378_18532)"/>
</g>
<g opacity="0.4" filter="url(#filter2_f_26378_18532)">
<path d="M1043.88 27.3216L866.404 108.471C864.504 109.338 862.246 108.536 861.36 106.68C860.474 104.82 861.293 102.61 863.193 101.743C863.23 101.725 863.281 101.701 863.318 101.686L1043.71 26.9414C1043.82 26.8969 1043.94 26.9444 1043.99 27.0513C1044.03 27.1553 1043.98 27.2741 1043.88 27.3216Z" fill="url(#paint3_linear_26378_18532)"/>
</g>
<g opacity="0.4" filter="url(#filter3_f_26378_18532)">
<path d="M587.877 384.072L410.401 465.221C408.501 466.089 406.243 465.287 405.357 463.43C404.471 461.571 405.29 459.361 407.19 458.493C407.227 458.476 407.278 458.452 407.315 458.437L587.704 383.692C587.813 383.647 587.937 383.695 587.983 383.802C588.028 383.906 587.98 384.025 587.877 384.072Z" fill="url(#paint4_linear_26378_18532)"/>
</g>
<g opacity="0.4" filter="url(#filter4_f_26378_18532)">
<path d="M595.877 68.8303L418.401 149.979C416.501 150.847 414.243 150.045 413.357 148.188C412.471 146.329 413.29 144.119 415.19 143.252C415.227 143.234 415.278 143.21 415.315 143.195L595.704 68.4501C595.813 68.4055 595.937 68.4531 595.983 68.56C596.028 68.664 595.98 68.7828 595.877 68.8303Z" fill="url(#paint5_linear_26378_18532)"/>
</g>
<g opacity="0.4" filter="url(#filter5_f_26378_18532)">
<path d="M208.877 209.062L31.4011 290.211C29.5013 291.079 27.2433 290.277 26.3572 288.42C25.471 286.561 26.2904 284.351 28.1902 283.484C28.2266 283.466 28.2782 283.442 28.3146 283.427L208.704 208.682C208.813 208.638 208.937 208.685 208.983 208.792C209.028 208.896 208.98 209.015 208.877 209.062Z" fill="url(#paint6_linear_26378_18532)"/>
</g>
<path d="M928.294 197.197C928.294 196.928 928.609 196.94 928.609 197.197C928.609 197.197 928.754 199.589 929.466 200.6C930.193 201.632 931.952 201.91 931.952 201.91C932.016 201.943 932.016 202.068 931.952 202.101C931.952 202.101 930.235 202.359 929.509 203.351C928.768 204.363 928.644 206.813 928.644 206.813C928.706 207.083 928.39 207.04 928.39 206.813C928.39 206.813 928.232 204.363 927.491 203.351C926.765 202.359 925.048 202.101 925.048 202.101C924.984 202.068 924.984 201.943 925.048 201.91C925.048 201.91 926.807 201.632 927.534 200.6C928.246 199.589 928.294 197.197 928.294 197.197Z" fill="white"/>
<path d="M825.294 271.197C825.294 270.928 825.609 270.94 825.609 271.197C825.609 271.197 825.754 273.589 826.466 274.6C827.193 275.632 828.952 275.91 828.952 275.91C829.016 275.943 829.016 276.068 828.952 276.101C828.952 276.101 827.235 276.359 826.509 277.351C825.768 278.363 825.644 280.813 825.644 280.813C825.706 281.083 825.39 281.04 825.39 280.813C825.39 280.813 825.232 278.363 824.491 277.351C823.765 276.359 822.048 276.101 822.048 276.101C821.984 276.068 821.984 275.943 822.048 275.91C822.048 275.91 823.807 275.632 824.534 274.6C825.246 273.589 825.294 271.197 825.294 271.197Z" fill="white"/>
<path d="M686.294 432.197C686.294 431.928 686.609 431.94 686.609 432.197C686.609 432.197 686.754 434.589 687.466 435.6C688.193 436.632 689.952 436.91 689.952 436.91C690.016 436.943 690.016 437.068 689.952 437.101C689.952 437.101 688.235 437.359 687.509 438.351C686.768 439.363 686.644 441.813 686.644 441.813C686.706 442.083 686.39 442.04 686.39 441.813C686.39 441.813 686.232 439.363 685.491 438.351C684.765 437.359 683.048 437.101 683.048 437.101C682.984 437.068 682.984 436.943 683.048 436.91C683.048 436.91 684.807 436.632 685.534 435.6C686.246 434.589 686.294 432.197 686.294 432.197Z" fill="white"/>
<path d="M1095.29 243.197C1095.29 242.928 1095.61 242.94 1095.61 243.197C1095.61 243.197 1095.75 245.589 1096.47 246.6C1097.19 247.632 1098.95 247.91 1098.95 247.91C1099.02 247.943 1099.02 248.068 1098.95 248.101C1098.95 248.101 1097.23 248.359 1096.51 249.351C1095.77 250.363 1095.64 252.813 1095.64 252.813C1095.71 253.083 1095.39 253.04 1095.39 252.813C1095.39 252.813 1095.23 250.363 1094.49 249.351C1093.77 248.359 1092.05 248.101 1092.05 248.101C1091.98 248.068 1091.98 247.943 1092.05 247.91C1092.05 247.91 1093.81 247.632 1094.53 246.6C1095.25 245.589 1095.29 243.197 1095.29 243.197Z" fill="white"/>
<path d="M518.294 262.197C518.294 261.928 518.609 261.94 518.609 262.197C518.609 262.197 518.754 264.589 519.466 265.6C520.193 266.632 521.952 266.91 521.952 266.91C522.016 266.943 522.016 267.068 521.952 267.101C521.952 267.101 520.235 267.359 519.509 268.351C518.768 269.363 518.644 271.813 518.644 271.813C518.706 272.083 518.39 272.04 518.39 271.813C518.39 271.813 518.232 269.363 517.491 268.351C516.765 267.359 515.048 267.101 515.048 267.101C514.984 267.068 514.984 266.943 515.048 266.91C515.048 266.91 516.807 266.632 517.534 265.6C518.246 264.589 518.294 262.197 518.294 262.197Z" fill="white"/>
<path d="M491.294 478.197C491.294 477.928 491.609 477.94 491.609 478.197C491.609 478.197 491.754 480.589 492.466 481.6C493.193 482.632 494.952 482.91 494.952 482.91C495.016 482.943 495.016 483.068 494.952 483.101C494.952 483.101 493.235 483.359 492.509 484.351C491.768 485.363 491.644 487.813 491.644 487.813C491.706 488.083 491.39 488.04 491.39 487.813C491.39 487.813 491.232 485.363 490.491 484.351C489.765 483.359 488.048 483.101 488.048 483.101C487.984 483.068 487.984 482.943 488.048 482.91C488.048 482.91 489.807 482.632 490.534 481.6C491.246 480.589 491.294 478.197 491.294 478.197Z" fill="white"/>
<path d="M25.2941 158.197C25.2941 157.928 25.6091 157.94 25.6091 158.197C25.6091 158.197 25.7542 160.589 26.466 161.6C27.193 162.632 28.9523 162.91 28.9523 162.91C29.0159 162.943 29.0159 163.068 28.9523 163.101C28.9523 163.101 27.2348 163.359 26.5092 164.351C25.768 165.363 25.6445 167.813 25.6445 167.813C25.7059 168.083 25.3899 168.04 25.3899 167.813C25.3899 167.813 25.232 165.363 24.4908 164.351C23.7652 163.359 22.0477 163.101 22.0477 163.101C21.9841 163.068 21.9841 162.943 22.0477 162.91C22.0477 162.91 23.807 162.632 24.534 161.6C25.2458 160.589 25.2941 158.197 25.2941 158.197Z" fill="white"/>
<path d="M47.2941 488.197C47.2941 487.928 47.6091 487.94 47.6091 488.197C47.6091 488.197 47.7542 490.589 48.466 491.6C49.193 492.632 50.9523 492.91 50.9523 492.91C51.0159 492.943 51.0159 493.068 50.9523 493.101C50.9523 493.101 49.2348 493.359 48.5092 494.351C47.768 495.363 47.6445 497.813 47.6445 497.813C47.7059 498.083 47.3899 498.04 47.3899 497.813C47.3899 497.813 47.232 495.363 46.4908 494.351C45.7652 493.359 44.0477 493.101 44.0477 493.101C43.9841 493.068 43.9841 492.943 44.0477 492.91C44.0477 492.91 45.807 492.632 46.534 491.6C47.2458 490.589 47.2941 488.197 47.2941 488.197Z" fill="white"/>
<path d="M416.294 262.197C416.294 261.928 416.609 261.94 416.609 262.197C416.609 262.197 416.754 264.589 417.466 265.6C418.193 266.632 419.952 266.91 419.952 266.91C420.016 266.943 420.016 267.068 419.952 267.101C419.952 267.101 418.235 267.359 417.509 268.351C416.768 269.363 416.644 271.813 416.644 271.813C416.706 272.083 416.39 272.04 416.39 271.813C416.39 271.813 416.232 269.363 415.491 268.351C414.765 267.359 413.048 267.101 413.048 267.101C412.984 267.068 412.984 266.943 413.048 266.91C413.048 266.91 414.807 266.632 415.534 265.6C416.246 264.589 416.294 262.197 416.294 262.197Z" fill="white"/>
<path d="M32.2941 46.1975C32.2941 45.9282 32.6091 45.9402 32.6091 46.1975C32.6091 46.1975 32.7542 48.5894 33.466 49.6C34.193 50.6322 35.9523 50.9104 35.9523 50.9104C36.0159 50.9429 36.0159 51.0681 35.9523 51.1006C35.9523 51.1006 34.2348 51.3595 33.5092 52.3508C32.768 53.3632 32.6445 55.8135 32.6445 55.8135C32.7059 56.0832 32.3899 56.0403 32.3899 55.8135C32.3899 55.8135 32.232 53.3632 31.4908 52.3508C30.7652 51.3595 29.0477 51.1006 29.0477 51.1006C28.9841 51.0681 28.9841 50.9429 29.0477 50.9104C29.0477 50.9104 30.807 50.6322 31.534 49.6C32.2458 48.5894 32.2941 46.1975 32.2941 46.1975Z" fill="white"/>
<path d="M660.294 526.197C660.294 525.928 660.609 525.94 660.609 526.197C660.609 526.197 660.754 528.589 661.466 529.6C662.193 530.632 663.952 530.91 663.952 530.91C664.016 530.943 664.016 531.068 663.952 531.101C663.952 531.101 662.235 531.359 661.509 532.351C660.768 533.363 660.644 535.813 660.644 535.813C660.706 536.083 660.39 536.04 660.39 535.813C660.39 535.813 660.232 533.363 659.491 532.351C658.765 531.359 657.048 531.101 657.048 531.101C656.984 531.068 656.984 530.943 657.048 530.91C657.048 530.91 658.807 530.632 659.534 529.6C660.246 528.589 660.294 526.197 660.294 526.197Z" fill="white"/>
<path d="M135.294 520.197C135.294 519.928 135.609 519.94 135.609 520.197C135.609 520.197 135.754 522.589 136.466 523.6C137.193 524.632 138.952 524.91 138.952 524.91C139.016 524.943 139.016 525.068 138.952 525.101C138.952 525.101 137.235 525.359 136.509 526.351C135.768 527.363 135.644 529.813 135.644 529.813C135.706 530.083 135.39 530.04 135.39 529.813C135.39 529.813 135.232 527.363 134.491 526.351C133.765 525.359 132.048 525.101 132.048 525.101C131.984 525.068 131.984 524.943 132.048 524.91C132.048 524.91 133.807 524.632 134.534 523.6C135.246 522.589 135.294 520.197 135.294 520.197Z" fill="white"/>
<path d="M1203.29 302.197C1203.29 301.928 1203.61 301.94 1203.61 302.197C1203.61 302.197 1203.75 304.589 1204.47 305.6C1205.19 306.632 1206.95 306.91 1206.95 306.91C1207.02 306.943 1207.02 307.068 1206.95 307.101C1206.95 307.101 1205.23 307.359 1204.51 308.351C1203.77 309.363 1203.64 311.813 1203.64 311.813C1203.71 312.083 1203.39 312.04 1203.39 311.813C1203.39 311.813 1203.23 309.363 1202.49 308.351C1201.77 307.359 1200.05 307.101 1200.05 307.101C1199.98 307.068 1199.98 306.943 1200.05 306.91C1200.05 306.91 1201.81 306.632 1202.53 305.6C1203.25 304.589 1203.29 302.197 1203.29 302.197Z" fill="white"/>
<path d="M1231.29 73.1975C1231.29 72.9282 1231.61 72.9402 1231.61 73.1975C1231.61 73.1975 1231.75 75.5894 1232.47 76.6C1233.19 77.6322 1234.95 77.9104 1234.95 77.9104C1235.02 77.9429 1235.02 78.0681 1234.95 78.1006C1234.95 78.1006 1233.23 78.3595 1232.51 79.3508C1231.77 80.3632 1231.64 82.8135 1231.64 82.8135C1231.71 83.0832 1231.39 83.0403 1231.39 82.8135C1231.39 82.8135 1231.23 80.3632 1230.49 79.3508C1229.77 78.3595 1228.05 78.1006 1228.05 78.1006C1227.98 78.0681 1227.98 77.9429 1228.05 77.9104C1228.05 77.9104 1229.81 77.6322 1230.53 76.6C1231.25 75.5894 1231.29 73.1975 1231.29 73.1975Z" fill="white"/>
<path d="M798.294 64.1975C798.294 63.9282 798.609 63.9402 798.609 64.1975C798.609 64.1975 798.754 66.5894 799.466 67.6C800.193 68.6322 801.952 68.9104 801.952 68.9104C802.016 68.9429 802.016 69.0681 801.952 69.1006C801.952 69.1006 800.235 69.3595 799.509 70.3508C798.768 71.3632 798.644 73.8135 798.644 73.8135C798.706 74.0832 798.39 74.0403 798.39 73.8135C798.39 73.8135 798.232 71.3632 797.491 70.3508C796.765 69.3595 795.048 69.1006 795.048 69.1006C794.984 69.0681 794.984 68.9429 795.048 68.9104C795.048 68.9104 796.807 68.6322 797.534 67.6C798.246 66.5894 798.294 64.1975 798.294 64.1975Z" fill="white"/>
<path d="M1102.29 138.197C1102.29 137.928 1102.61 137.94 1102.61 138.197C1102.61 138.197 1102.75 140.589 1103.47 141.6C1104.19 142.632 1105.95 142.91 1105.95 142.91C1106.02 142.943 1106.02 143.068 1105.95 143.101C1105.95 143.101 1104.23 143.359 1103.51 144.351C1102.77 145.363 1102.64 147.813 1102.64 147.813C1102.71 148.083 1102.39 148.04 1102.39 147.813C1102.39 147.813 1102.23 145.363 1101.49 144.351C1100.77 143.359 1099.05 143.101 1099.05 143.101C1098.98 143.068 1098.98 142.943 1099.05 142.91C1099.05 142.91 1100.81 142.632 1101.53 141.6C1102.25 140.589 1102.29 138.197 1102.29 138.197Z" fill="white"/>
<path d="M1224.29 493.197C1224.29 492.928 1224.61 492.94 1224.61 493.197C1224.61 493.197 1224.75 495.589 1225.47 496.6C1226.19 497.632 1227.95 497.91 1227.95 497.91C1228.02 497.943 1228.02 498.068 1227.95 498.101C1227.95 498.101 1226.23 498.359 1225.51 499.351C1224.77 500.363 1224.64 502.813 1224.64 502.813C1224.71 503.083 1224.39 503.04 1224.39 502.813C1224.39 502.813 1224.23 500.363 1223.49 499.351C1222.77 498.359 1221.05 498.101 1221.05 498.101C1220.98 498.068 1220.98 497.943 1221.05 497.91C1221.05 497.91 1222.81 497.632 1223.53 496.6C1224.25 495.589 1224.29 493.197 1224.29 493.197Z" fill="white"/>
<path d="M1060.29 363.197C1060.29 362.928 1060.61 362.94 1060.61 363.197C1060.61 363.197 1060.75 365.589 1061.47 366.6C1062.19 367.632 1063.95 367.91 1063.95 367.91C1064.02 367.943 1064.02 368.068 1063.95 368.101C1063.95 368.101 1062.23 368.359 1061.51 369.351C1060.77 370.363 1060.64 372.813 1060.64 372.813C1060.71 373.083 1060.39 373.04 1060.39 372.813C1060.39 372.813 1060.23 370.363 1059.49 369.351C1058.77 368.359 1057.05 368.101 1057.05 368.101C1056.98 368.068 1056.98 367.943 1057.05 367.91C1057.05 367.91 1058.81 367.632 1059.53 366.6C1060.25 365.589 1060.29 363.197 1060.29 363.197Z" fill="white"/>
<path d="M1249.29 241.197C1249.29 240.928 1249.61 240.94 1249.61 241.197C1249.61 241.197 1249.75 243.589 1250.47 244.6C1251.19 245.632 1252.95 245.91 1252.95 245.91C1253.02 245.943 1253.02 246.068 1252.95 246.101C1252.95 246.101 1251.23 246.359 1250.51 247.351C1249.77 248.363 1249.64 250.813 1249.64 250.813C1249.71 251.083 1249.39 251.04 1249.39 250.813C1249.39 250.813 1249.23 248.363 1248.49 247.351C1247.77 246.359 1246.05 246.101 1246.05 246.101C1245.98 246.068 1245.98 245.943 1246.05 245.91C1246.05 245.91 1247.81 245.632 1248.53 244.6C1249.25 243.589 1249.29 241.197 1249.29 241.197Z" fill="white"/>
<path d="M1008.29 67.1975C1008.29 66.9282 1008.61 66.9402 1008.61 67.1975C1008.61 67.1975 1008.75 69.5894 1009.47 70.6C1010.19 71.6322 1011.95 71.9104 1011.95 71.9104C1012.02 71.9429 1012.02 72.0681 1011.95 72.1006C1011.95 72.1006 1010.23 72.3595 1009.51 73.3508C1008.77 74.3632 1008.64 76.8135 1008.64 76.8135C1008.71 77.0832 1008.39 77.0403 1008.39 76.8135C1008.39 76.8135 1008.23 74.3632 1007.49 73.3508C1006.77 72.3595 1005.05 72.1006 1005.05 72.1006C1004.98 72.0681 1004.98 71.9429 1005.05 71.9104C1005.05 71.9104 1006.81 71.6322 1007.53 70.6C1008.25 69.5894 1008.29 67.1975 1008.29 67.1975Z" fill="white"/>
<path d="M639.294 64.1975C639.294 63.9282 639.609 63.9402 639.609 64.1975C639.609 64.1975 639.754 66.5894 640.466 67.6C641.193 68.6322 642.952 68.9104 642.952 68.9104C643.016 68.9429 643.016 69.0681 642.952 69.1006C642.952 69.1006 641.235 69.3595 640.509 70.3508C639.768 71.3632 639.644 73.8135 639.644 73.8135C639.706 74.0832 639.39 74.0403 639.39 73.8135C639.39 73.8135 639.232 71.3632 638.491 70.3508C637.765 69.3595 636.048 69.1006 636.048 69.1006C635.984 69.0681 635.984 68.9429 636.048 68.9104C636.048 68.9104 637.807 68.6322 638.534 67.6C639.246 66.5894 639.294 64.1975 639.294 64.1975Z" fill="white"/>
<path d="M268.294 51.1975C268.294 50.9282 268.609 50.9402 268.609 51.1975C268.609 51.1975 268.754 53.5894 269.466 54.6C270.193 55.6322 271.952 55.9104 271.952 55.9104C272.016 55.9429 272.016 56.0681 271.952 56.1006C271.952 56.1006 270.235 56.3595 269.509 57.3508C268.768 58.3632 268.644 60.8135 268.644 60.8135C268.706 61.0832 268.39 61.0403 268.39 60.8135C268.39 60.8135 268.232 58.3632 267.491 57.3508C266.765 56.3595 265.048 56.1006 265.048 56.1006C264.984 56.0681 264.984 55.9429 265.048 55.9104C265.048 55.9104 266.807 55.6322 267.534 54.6C268.246 53.5894 268.294 51.1975 268.294 51.1975Z" fill="white"/>
</g>
</g>
<defs>
<filter id="filter0_f_26378_18532" x="-128.426" y="480.706" width="1669.93" height="264.481" filterUnits="userSpaceOnUse" color-interpolation-filters="sRGB">
<feFlood flood-opacity="0" result="BackgroundImageFix"/>
<feBlend mode="normal" in="SourceGraphic" in2="BackgroundImageFix" result="shape"/>
<feGaussianBlur stdDeviation="4" result="effect1_foregroundBlur_26378_18532"/>
</filter>
<filter id="filter1_f_26378_18532" x="1146" y="259.636" width="126" height="60.7273" filterUnits="userSpaceOnUse" color-interpolation-filters="sRGB">
<feFlood flood-opacity="0" result="BackgroundImageFix"/>
<feBlend mode="normal" in="SourceGraphic" in2="BackgroundImageFix" result="shape"/>
<feGaussianBlur stdDeviation="2" result="effect1_foregroundBlur_26378_18532"/>
</filter>
<filter id="filter2_f_26378_18532" x="857.003" y="22.9248" width="191" height="89.8955" filterUnits="userSpaceOnUse" color-interpolation-filters="sRGB">
<feFlood flood-opacity="0" result="BackgroundImageFix"/>
<feBlend mode="normal" in="SourceGraphic" in2="BackgroundImageFix" result="shape"/>
<feGaussianBlur stdDeviation="2" result="effect1_foregroundBlur_26378_18532"/>
</filter>
<filter id="filter3_f_26378_18532" x="401" y="379.675" width="191" height="89.8955" filterUnits="userSpaceOnUse" color-interpolation-filters="sRGB">
<feFlood flood-opacity="0" result="BackgroundImageFix"/>
<feBlend mode="normal" in="SourceGraphic" in2="BackgroundImageFix" result="shape"/>
<feGaussianBlur stdDeviation="2" result="effect1_foregroundBlur_26378_18532"/>
</filter>
<filter id="filter4_f_26378_18532" x="409" y="64.4335" width="191" height="89.8955" filterUnits="userSpaceOnUse" color-interpolation-filters="sRGB">
<feFlood flood-opacity="0" result="BackgroundImageFix"/>
<feBlend mode="normal" in="SourceGraphic" in2="BackgroundImageFix" result="shape"/>
<feGaussianBlur stdDeviation="2" result="effect1_foregroundBlur_26378_18532"/>
</filter>
<filter id="filter5_f_26378_18532" x="22" y="204.666" width="191" height="89.8955" filterUnits="userSpaceOnUse" color-interpolation-filters="sRGB">
<feFlood flood-opacity="0" result="BackgroundImageFix"/>
<feBlend mode="normal" in="SourceGraphic" in2="BackgroundImageFix" result="shape"/>
<feGaussianBlur stdDeviation="2" result="effect1_foregroundBlur_26378_18532"/>
</filter>
<linearGradient id="paint0_linear_26378_18532" x1="488.67" y1="-285" x2="954.17" y2="700" gradientUnits="userSpaceOnUse">
<stop stop-color="#F9BDBD"/>
<stop offset="1" stop-color="#A562CE"/>
</linearGradient>
<linearGradient id="paint1_linear_26378_18532" x1="488.669" y1="-285" x2="954.169" y2="700" gradientUnits="userSpaceOnUse">
<stop stop-color="#F9BDBD"/>
<stop offset="1" stop-color="#A562CE"/>
</linearGradient>
<linearGradient id="paint2_linear_26378_18532" x1="1121.27" y1="334.664" x2="1258.78" y2="280.8" gradientUnits="userSpaceOnUse">
<stop stop-color="white"/>
<stop offset="1" stop-color="white" stop-opacity="0"/>
</linearGradient>
<linearGradient id="paint3_linear_26378_18532" x1="816.449" y1="137.244" x2="1029.78" y2="53.8017" gradientUnits="userSpaceOnUse">
<stop stop-color="white"/>
<stop offset="1" stop-color="white" stop-opacity="0"/>
</linearGradient>
<linearGradient id="paint4_linear_26378_18532" x1="360.446" y1="493.994" x2="573.775" y2="410.552" gradientUnits="userSpaceOnUse">
<stop stop-color="white"/>
<stop offset="1" stop-color="white" stop-opacity="0"/>
</linearGradient>
<linearGradient id="paint5_linear_26378_18532" x1="368.446" y1="178.752" x2="581.775" y2="95.3104" gradientUnits="userSpaceOnUse">
<stop stop-color="white"/>
<stop offset="1" stop-color="white" stop-opacity="0"/>
</linearGradient>
<linearGradient id="paint6_linear_26378_18532" x1="-18.5539" y1="318.984" x2="194.775" y2="235.542" gradientUnits="userSpaceOnUse">
<stop stop-color="white"/>
<stop offset="1" stop-color="white" stop-opacity="0"/>
</linearGradient>
<clipPath id="clip0_26378_18532">
<rect width="1280" height="580" fill="white"/>
</clipPath>
</defs>
</svg>
