<svg width="1064" height="172" viewBox="0 0 1064 172" fill="none" xmlns="http://www.w3.org/2000/svg">
<g clip-path="url(#clip0_26744_11044)">
<rect width="1064" height="172" fill="url(#paint0_linear_26744_11044)"/>
<g opacity="0.3">
<rect x="-29.6973" y="-232.587" width="410.828" height="410.828" rx="52.5191" transform="rotate(-25.5845 -29.6973 -232.587)" fill="url(#paint1_linear_26744_11044)"/>
<rect x="-59" y="-149.587" width="410.828" height="410.828" rx="52.5191" transform="rotate(-25.5845 -59 -149.587)" fill="url(#paint2_linear_26744_11044)"/>
</g>
<g opacity="0.1">
<path d="M776.931 161.528L810.065 64.1115C810.514 62.7914 811.948 62.0852 813.268 62.5342L908.294 94.8546C909.615 95.3036 911.049 94.5974 911.498 93.2772L943.818 -1.74912C944.267 -3.06928 945.701 -3.77548 947.022 -3.32646L1042.05 28.9939C1043.37 29.443 1044.8 28.7368 1045.25 27.4166L1078.38 -70.0001" stroke="url(#paint3_linear_26744_11044)" stroke-width="15" stroke-linecap="round"/>
<path d="M793.927 196.045L827.061 98.6281C827.51 97.308 828.944 96.6018 830.264 97.0508L925.291 129.371C926.611 129.82 928.045 129.114 928.494 127.794L960.814 32.7675C961.263 31.4473 962.697 30.7411 964.018 31.1901L1059.04 63.5105C1060.36 63.9596 1061.8 63.2534 1062.25 61.9332L1095.38 -35.4835" stroke="url(#paint4_linear_26744_11044)" stroke-width="15" stroke-linecap="round"/>
<path d="M810.923 230.563L844.057 133.147C844.506 131.826 845.94 131.12 847.26 131.569L942.287 163.89C943.607 164.339 945.041 163.632 945.49 162.312L977.81 67.2859C978.259 65.9658 979.694 65.2596 981.014 65.7086L1076.04 98.029C1077.36 98.478 1078.79 97.7718 1079.24 96.4516L1112.38 -0.965083" stroke="url(#paint5_linear_26744_11044)" stroke-width="15" stroke-linecap="round"/>
</g>
</g>
<defs>
<linearGradient id="paint0_linear_26744_11044" x1="78" y1="-16" x2="1064" y2="86" gradientUnits="userSpaceOnUse">
<stop stop-color="#2F91CF"/>
<stop offset="1" stop-color="#34CDD7"/>
</linearGradient>
<linearGradient id="paint1_linear_26744_11044" x1="-90.9364" y1="399.904" x2="241.837" y2="71.4658" gradientUnits="userSpaceOnUse">
<stop stop-color="white"/>
<stop offset="1" stop-color="white" stop-opacity="0"/>
</linearGradient>
<linearGradient id="paint2_linear_26744_11044" x1="-120.239" y1="482.904" x2="212.535" y2="154.466" gradientUnits="userSpaceOnUse">
<stop stop-color="white"/>
<stop offset="1" stop-color="white" stop-opacity="0"/>
</linearGradient>
<linearGradient id="paint3_linear_26744_11044" x1="911.193" y1="12.3257" x2="944.123" y2="79.2024" gradientUnits="userSpaceOnUse">
<stop stop-color="white"/>
<stop offset="1" stop-color="white" stop-opacity="0"/>
</linearGradient>
<linearGradient id="paint4_linear_26744_11044" x1="928.189" y1="46.8423" x2="961.119" y2="113.719" gradientUnits="userSpaceOnUse">
<stop stop-color="white"/>
<stop offset="1" stop-color="white" stop-opacity="0"/>
</linearGradient>
<linearGradient id="paint5_linear_26744_11044" x1="945.185" y1="81.3607" x2="978.115" y2="148.237" gradientUnits="userSpaceOnUse">
<stop stop-color="white"/>
<stop offset="1" stop-color="white" stop-opacity="0"/>
</linearGradient>
<clipPath id="clip0_26744_11044">
<rect width="1064" height="172" fill="white"/>
</clipPath>
</defs>
</svg>
