<svg width="1113" height="296" viewBox="0 0 1113 296" fill="none" xmlns="http://www.w3.org/2000/svg">
<g clip-path="url(#clip0_25462_76926)">
<rect y="-39" width="1155" height="442" rx="8" fill="url(#paint0_linear_25462_76926)"/>
<g opacity="0.9" filter="url(#filter0_f_25462_76926)">
<path d="M754.148 349.382C754.148 548.904 917.045 710.614 1117.92 710.614C1318.84 710.614 1481.69 548.904 1481.69 349.382C1481.69 149.911 1318.84 -11.7998 1117.92 -11.7998C917.045 -11.7998 754.148 149.911 754.148 349.382Z" fill="url(#paint1_radial_25462_76926)"/>
<g filter="url(#filter1_f_25462_76926)">
<path d="M820.594 324.742C820.594 423.902 872.085 511.143 949.953 561.374C977.64 579.353 1008.66 592.624 1041.89 599.986C1062.17 604.643 1083.25 607.047 1104.88 607.047C1179.77 607.047 1247.91 578.301 1298.69 531.175C1316.24 514.999 1331.73 496.619 1344.64 476.387C1357.2 456.905 1367.43 435.821 1374.85 413.435C1384.18 385.54 1389.17 355.742 1389.17 324.742C1389.17 295.696 1384.78 267.65 1376.61 241.308C1347.36 147.407 1270.15 74.4893 1173.42 50.7009C1151.48 45.3423 1128.48 42.4375 1104.88 42.4375C1046.38 42.4375 991.913 60.066 946.826 90.2646C941.38 93.7703 936.034 97.6265 930.94 101.533C864.571 152.415 821.653 231.843 820.695 321.287C820.594 322.439 820.594 323.591 820.594 324.742Z" fill="url(#paint2_linear_25462_76926)"/>
<g style="mix-blend-mode:overlay" opacity="0.302">
<path d="M820.594 324.738C820.594 379.594 836.352 430.802 863.617 474.115C903.4 537.313 1010 527.956 998.641 454.131C995.082 430.995 982.777 408.127 959.031 388.841C861.948 309.864 953.181 295.34 1056.06 166.833C1118.29 89.1466 1038.85 81.8402 966.192 88.238C953.425 89.3623 941.114 93.7258 930.94 101.528C864.571 152.41 821.653 231.838 820.695 321.282C820.594 322.434 820.594 323.586 820.594 324.738Z" fill="white"/>
</g>
<g style="mix-blend-mode:overlay" opacity="0.302">
<path d="M1043.9 536.619C1038.67 574.307 1066.88 607.056 1104.89 607.056C1168.34 607.056 1226.93 586.426 1274.24 551.47C1286.88 542.123 1284.43 523.653 1269.45 518.864C1145.84 479.3 1206.11 216.426 1138.53 295.353C1108.03 330.933 1056.93 442.59 1043.9 536.619Z" fill="white"/>
</g>
<g style="mix-blend-mode:overlay" opacity="0.302">
<path d="M1106.1 171.254C1121.13 139.804 1163.14 129.988 1188.05 154.527C1200.31 166.547 1204.7 183.925 1182.66 207.713C1141.61 251.934 1082.8 220.083 1106.1 171.254Z" fill="white"/>
</g>
</g>
<path d="M823.984 324.742C823.984 423.902 875.476 511.143 953.344 561.374C981.031 579.353 1012.05 592.624 1045.28 599.986C1065.56 604.643 1086.64 607.047 1108.27 607.047C1183.16 607.047 1251.3 578.301 1302.08 531.175C1319.63 514.999 1335.12 496.619 1348.03 476.387C1360.59 456.905 1370.82 435.821 1378.24 413.435C1387.57 385.54 1392.56 355.742 1392.56 324.742C1392.56 295.696 1388.17 267.65 1380 241.308C1350.75 147.407 1273.54 74.4893 1176.81 50.7009C1154.87 45.3423 1131.87 42.4375 1108.27 42.4375C1049.77 42.4375 995.304 60.066 950.217 90.2646C944.77 93.7703 939.424 97.6265 934.331 101.533C867.962 152.415 825.043 231.843 824.085 321.287C823.984 322.439 823.984 323.591 823.984 324.742Z" fill="url(#paint3_linear_25462_76926)"/>
<g style="mix-blend-mode:overlay" opacity="0.302">
<path d="M823.984 324.738C823.984 379.594 839.743 430.802 867.008 474.115C906.791 537.313 1013.39 527.956 1002.03 454.131C998.473 430.995 986.168 408.127 962.422 388.841C865.339 309.864 956.571 295.34 1059.45 166.833C1121.68 89.1466 1042.24 81.8402 969.583 88.238C956.815 89.3623 944.504 93.7258 934.331 101.528C867.962 152.41 825.043 231.838 824.085 321.282C823.984 322.434 823.984 323.586 823.984 324.738Z" fill="white"/>
</g>
<g style="mix-blend-mode:overlay" opacity="0.302">
<path d="M1047.29 536.619C1042.06 574.307 1070.27 607.056 1108.28 607.056C1171.73 607.056 1230.32 586.426 1277.63 551.47C1290.28 542.123 1287.82 523.653 1272.84 518.864C1149.23 479.3 1209.5 216.426 1141.92 295.353C1111.42 330.933 1060.32 442.59 1047.29 536.619Z" fill="white"/>
</g>
<g style="mix-blend-mode:overlay" opacity="0.302">
<path d="M1109.49 171.254C1124.52 139.804 1166.53 129.988 1191.45 154.527C1203.7 166.547 1208.09 183.925 1186.05 207.713C1145 251.934 1086.19 220.083 1109.49 171.254Z" fill="white"/>
</g>
</g>
<g filter="url(#filter2_f_25462_76926)">
<ellipse cx="512.96" cy="199" rx="3.39706" ry="3.4" fill="white"/>
</g>
<g filter="url(#filter3_f_25462_76926)">
<ellipse cx="1070.08" cy="148" rx="3.39706" ry="3.4" fill="white"/>
</g>
<g filter="url(#filter4_f_25462_76926)">
<ellipse cx="81.5299" cy="49.4" rx="3.39706" ry="3.4" fill="white"/>
</g>
<g filter="url(#filter5_f_25462_76926)">
<ellipse cx="937.585" cy="25.6002" rx="3.39706" ry="3.4" fill="white"/>
</g>
<g filter="url(#filter6_f_25462_76926)">
<ellipse cx="448.413" cy="1.7999" rx="3.39706" ry="3.4" fill="white"/>
</g>
<g filter="url(#filter7_f_25462_76926)">
<ellipse cx="234.397" cy="182" rx="3.39706" ry="3.4" fill="white"/>
</g>
<g filter="url(#filter8_f_25462_76926)">
<ellipse cx="866.397" cy="42.4" rx="3.39706" ry="3.4" fill="white"/>
</g>
<g filter="url(#filter9_f_25462_76926)">
<ellipse cx="420.397" cy="262.4" rx="3.39706" ry="3.4" fill="white"/>
</g>
<g filter="url(#filter10_f_25462_76926)">
<ellipse cx="241.397" cy="32.4" rx="3.39706" ry="3.4" fill="white"/>
</g>
<g filter="url(#filter11_f_25462_76926)">
<ellipse cx="74.3971" cy="262.4" rx="3.39706" ry="3.4" fill="white"/>
</g>
<g filter="url(#filter12_f_25462_76926)">
<ellipse cx="25.3971" cy="154.4" rx="3.39706" ry="3.4" fill="white"/>
</g>
</g>
<defs>
<filter id="filter0_f_25462_76926" x="748.148" y="-17.7998" width="739.539" height="734.414" filterUnits="userSpaceOnUse" color-interpolation-filters="sRGB">
<feFlood flood-opacity="0" result="BackgroundImageFix"/>
<feBlend mode="normal" in="SourceGraphic" in2="BackgroundImageFix" result="shape"/>
<feGaussianBlur stdDeviation="3" result="effect1_foregroundBlur_25462_76926"/>
</filter>
<filter id="filter1_f_25462_76926" x="819.594" y="41.4375" width="570.586" height="566.618" filterUnits="userSpaceOnUse" color-interpolation-filters="sRGB">
<feFlood flood-opacity="0" result="BackgroundImageFix"/>
<feBlend mode="normal" in="SourceGraphic" in2="BackgroundImageFix" result="shape"/>
<feGaussianBlur stdDeviation="0.5" result="effect1_foregroundBlur_25462_76926"/>
</filter>
<filter id="filter2_f_25462_76926" x="506.562" y="192.6" width="12.7969" height="12.7998" filterUnits="userSpaceOnUse" color-interpolation-filters="sRGB">
<feFlood flood-opacity="0" result="BackgroundImageFix"/>
<feBlend mode="normal" in="SourceGraphic" in2="BackgroundImageFix" result="shape"/>
<feGaussianBlur stdDeviation="1.5" result="effect1_foregroundBlur_25462_76926"/>
</filter>
<filter id="filter3_f_25462_76926" x="1063.68" y="141.6" width="12.7969" height="12.7998" filterUnits="userSpaceOnUse" color-interpolation-filters="sRGB">
<feFlood flood-opacity="0" result="BackgroundImageFix"/>
<feBlend mode="normal" in="SourceGraphic" in2="BackgroundImageFix" result="shape"/>
<feGaussianBlur stdDeviation="1.5" result="effect1_foregroundBlur_25462_76926"/>
</filter>
<filter id="filter4_f_25462_76926" x="75.1328" y="43" width="12.7969" height="12.7998" filterUnits="userSpaceOnUse" color-interpolation-filters="sRGB">
<feFlood flood-opacity="0" result="BackgroundImageFix"/>
<feBlend mode="normal" in="SourceGraphic" in2="BackgroundImageFix" result="shape"/>
<feGaussianBlur stdDeviation="1.5" result="effect1_foregroundBlur_25462_76926"/>
</filter>
<filter id="filter5_f_25462_76926" x="931.188" y="19.2002" width="12.7969" height="12.7998" filterUnits="userSpaceOnUse" color-interpolation-filters="sRGB">
<feFlood flood-opacity="0" result="BackgroundImageFix"/>
<feBlend mode="normal" in="SourceGraphic" in2="BackgroundImageFix" result="shape"/>
<feGaussianBlur stdDeviation="1.5" result="effect1_foregroundBlur_25462_76926"/>
</filter>
<filter id="filter6_f_25462_76926" x="442.016" y="-4.6001" width="12.7969" height="12.7998" filterUnits="userSpaceOnUse" color-interpolation-filters="sRGB">
<feFlood flood-opacity="0" result="BackgroundImageFix"/>
<feBlend mode="normal" in="SourceGraphic" in2="BackgroundImageFix" result="shape"/>
<feGaussianBlur stdDeviation="1.5" result="effect1_foregroundBlur_25462_76926"/>
</filter>
<filter id="filter7_f_25462_76926" x="228" y="175.6" width="12.7969" height="12.7998" filterUnits="userSpaceOnUse" color-interpolation-filters="sRGB">
<feFlood flood-opacity="0" result="BackgroundImageFix"/>
<feBlend mode="normal" in="SourceGraphic" in2="BackgroundImageFix" result="shape"/>
<feGaussianBlur stdDeviation="1.5" result="effect1_foregroundBlur_25462_76926"/>
</filter>
<filter id="filter8_f_25462_76926" x="860" y="36" width="12.7969" height="12.7998" filterUnits="userSpaceOnUse" color-interpolation-filters="sRGB">
<feFlood flood-opacity="0" result="BackgroundImageFix"/>
<feBlend mode="normal" in="SourceGraphic" in2="BackgroundImageFix" result="shape"/>
<feGaussianBlur stdDeviation="1.5" result="effect1_foregroundBlur_25462_76926"/>
</filter>
<filter id="filter9_f_25462_76926" x="414" y="256" width="12.7969" height="12.7998" filterUnits="userSpaceOnUse" color-interpolation-filters="sRGB">
<feFlood flood-opacity="0" result="BackgroundImageFix"/>
<feBlend mode="normal" in="SourceGraphic" in2="BackgroundImageFix" result="shape"/>
<feGaussianBlur stdDeviation="1.5" result="effect1_foregroundBlur_25462_76926"/>
</filter>
<filter id="filter10_f_25462_76926" x="235" y="26" width="12.7969" height="12.7998" filterUnits="userSpaceOnUse" color-interpolation-filters="sRGB">
<feFlood flood-opacity="0" result="BackgroundImageFix"/>
<feBlend mode="normal" in="SourceGraphic" in2="BackgroundImageFix" result="shape"/>
<feGaussianBlur stdDeviation="1.5" result="effect1_foregroundBlur_25462_76926"/>
</filter>
<filter id="filter11_f_25462_76926" x="68" y="256" width="12.7969" height="12.7998" filterUnits="userSpaceOnUse" color-interpolation-filters="sRGB">
<feFlood flood-opacity="0" result="BackgroundImageFix"/>
<feBlend mode="normal" in="SourceGraphic" in2="BackgroundImageFix" result="shape"/>
<feGaussianBlur stdDeviation="1.5" result="effect1_foregroundBlur_25462_76926"/>
</filter>
<filter id="filter12_f_25462_76926" x="19" y="148" width="12.7969" height="12.7998" filterUnits="userSpaceOnUse" color-interpolation-filters="sRGB">
<feFlood flood-opacity="0" result="BackgroundImageFix"/>
<feBlend mode="normal" in="SourceGraphic" in2="BackgroundImageFix" result="shape"/>
<feGaussianBlur stdDeviation="1.5" result="effect1_foregroundBlur_25462_76926"/>
</filter>
<linearGradient id="paint0_linear_25462_76926" x1="577.5" y1="-39" x2="577.5" y2="403" gradientUnits="userSpaceOnUse">
<stop stop-color="#172554"/>
<stop offset="1" stop-color="#314588"/>
</linearGradient>
<radialGradient id="paint1_radial_25462_76926" cx="0" cy="0" r="1" gradientUnits="userSpaceOnUse" gradientTransform="translate(1117.93 349.402) scale(363.759 361.222)">
<stop stop-color="#5EFFF5"/>
<stop offset="1" stop-color="#5EFFF5" stop-opacity="0"/>
</radialGradient>
<linearGradient id="paint2_linear_25462_76926" x1="1139.77" y1="773.145" x2="1490.74" y2="320.741" gradientUnits="userSpaceOnUse">
<stop offset="0.137" stop-color="#B353E9"/>
<stop offset="1" stop-color="#F7D3A1"/>
</linearGradient>
<linearGradient id="paint3_linear_25462_76926" x1="1143.16" y1="773.145" x2="1494.13" y2="320.741" gradientUnits="userSpaceOnUse">
<stop offset="0.137" stop-color="#B353E9"/>
<stop offset="1" stop-color="#F7D3A1"/>
</linearGradient>
<clipPath id="clip0_25462_76926">
<rect y="-39" width="1155" height="442" rx="8" fill="white"/>
</clipPath>
</defs>
</svg>
