<svg width="201" height="200" viewBox="0 0 201 200" fill="none" xmlns="http://www.w3.org/2000/svg">
<rect width="200" height="200" transform="translate(0.335938)" fill="white"/>
<g filter="url(#filter0_f_25461_74553)">
<path d="M169.442 73.5776C139.729 46.3491 110.279 77.8516 85.1769 65.1665C67.3269 56.146 57.8778 48.6812 40.2736 55.3592C20.8431 60.3295 -0.653361 88.0098 13.5683 119.51C27.146 144.523 57.5925 138.675 70.4217 148.018C85.0002 158.635 88.5691 169.894 101.786 175.969C123.344 185.856 161.818 176.593 177.738 151.832C187.687 136.356 199.681 95.4811 169.442 73.5776Z" fill="url(#paint0_linear_25461_74553)"/>
<path d="M44.0431 156.76C42.6305 160.337 47.0517 161.11 49.4663 164.43C51.7776 167.608 51.2777 172.415 55.4691 172.506C60.567 172.617 65.9432 165.287 62.0601 158.134C58.2885 151.186 46.8463 149.661 44.0431 156.76Z" fill="url(#paint1_linear_25461_74553)"/>
<path d="M71.3979 170.696C70.1128 168.689 65.0764 173.734 67.0861 175.015C68.2502 175.758 70.0003 175.628 71.1119 174.809C72.455 173.82 72.2973 172.101 71.3979 170.696Z" fill="url(#paint2_linear_25461_74553)"/>
</g>
<mask id="mask0_25461_74553" style="mask-type:alpha" maskUnits="userSpaceOnUse" x="8" y="52" width="181" height="128">
<path d="M169.442 73.5786C139.729 46.35 110.279 77.8526 85.1769 65.1675C67.3269 56.147 57.8778 48.6821 40.2736 55.3602C20.8431 60.3305 -0.653361 88.0108 13.5683 119.511C27.146 144.524 57.5925 138.676 70.4217 148.019C85.0002 158.636 88.5691 169.895 101.786 175.97C123.344 185.857 161.818 176.594 177.738 151.832C187.687 136.357 199.681 95.482 169.442 73.5786Z" fill="url(#paint3_linear_25461_74553)"/>
<path d="M44.0431 156.761C42.6305 160.338 47.0517 161.111 49.4663 164.431C51.7776 167.609 51.2777 172.415 55.4691 172.507C60.567 172.618 65.9432 165.288 62.0601 158.135C58.2885 151.187 46.8463 149.662 44.0431 156.761Z" fill="url(#paint4_linear_25461_74553)"/>
<path d="M71.3979 170.697C70.1128 168.69 65.0764 173.735 67.0861 175.016C68.2502 175.759 70.0003 175.629 71.1119 174.81C72.455 173.821 72.2973 172.102 71.3979 170.697Z" fill="url(#paint5_linear_25461_74553)"/>
</mask>
<g mask="url(#mask0_25461_74553)">
<g opacity="0.15" filter="url(#filter1_f_25461_74553)">
<path d="M147.843 117.214C162.129 97.821 165.592 45.3391 172.834 60.8254C180.077 76.3116 203.59 111.443 202.899 112.424C202.899 112.424 166.433 159.289 152.333 181.362L76.2785 227.649C76.2785 227.649 81.4754 183.052 96.8301 160.19C111.354 138.566 132.393 138.187 147.843 117.214Z" fill="#FF64D4"/>
</g>
<g opacity="0.8" filter="url(#filter2_f_25461_74553)">
<path d="M-26.7674 102.02C-32.5558 69.3908 -10.5841 38.2148 22.2949 32.3822C55.1822 26.5481 86.5285 48.2657 92.3169 80.8953C98.1038 113.517 76.1403 144.691 43.2531 150.525C10.3741 156.358 -20.9805 134.642 -26.7674 102.02Z" fill="url(#paint6_radial_25461_74553)"/>
<path d="M-15.5103 99.02C-18.3871 82.8035 -12.4899 67.0411 -1.20165 56.5653C2.80866 52.8211 7.50037 49.7502 12.7267 47.5812C15.91 46.2308 19.2908 45.2256 22.8322 44.5974C35.0906 42.4228 47.0768 45.1455 56.7566 51.3778C60.0986 53.5137 63.1661 56.0699 65.8663 59.0038C68.4869 61.8252 70.7743 64.976 72.6372 68.4217C74.9736 72.7127 76.6553 77.4409 77.5547 82.5106C78.3974 87.2609 78.4928 91.9748 77.9198 96.5201C75.8562 112.726 65.3334 126.893 50.1908 133.592C46.7554 135.105 43.0755 136.248 39.2122 136.933C29.6366 138.632 20.21 137.331 11.954 133.701C10.9608 133.286 9.97391 132.81 9.02685 132.32C-3.31267 125.925 -12.6418 114.182 -15.3936 99.5822C-15.4435 99.3968 -15.4769 99.2084 -15.5103 99.02Z" fill="url(#paint7_linear_25461_74553)"/>
<g style="mix-blend-mode:overlay" opacity="0.302">
<path d="M-15.507 99.0189C-17.5333 87.5969 -15.2067 76.4001 -9.70939 67.1173C-5.52614 60.0533 4.76684 58.5497 8.26461 65.977C10.8813 71.5333 10.6297 78.3507 5.2928 84.5158C-8.30653 100.251 7.0478 99.9767 27.6158 118.005C40.0546 128.903 27.2639 132.405 15.1859 133.468C13.0634 133.655 10.9217 133.299 9.03016 132.318C-3.30936 125.924 -12.6385 114.181 -15.3903 99.5811C-15.4402 99.3957 -15.4736 99.2073 -15.507 99.0189Z" fill="white"/>
</g>
<g style="mix-blend-mode:overlay" opacity="0.302">
<path d="M51.5265 121.164C65.0415 104.954 67.7508 110.387 58.2738 94.8342C54.1918 88.1019 55.3896 77.7708 59.6033 68.7544C62.2317 63.1305 69.6816 62.9521 72.634 68.4129C74.9704 72.704 76.6521 77.4321 77.5514 82.5018C78.3941 87.2521 78.4896 91.966 77.9165 96.5113C76.406 108.374 70.3633 119.143 61.2939 126.692C55.1742 131.785 46.0504 128.178 50.9381 121.893C51.1245 121.653 51.3206 121.41 51.5265 121.164Z" fill="white"/>
</g>
<g style="mix-blend-mode:overlay" opacity="0.302">
<path d="M14.8785 57.8933C12.93 51.8815 16.5963 45.7068 22.8188 44.603C33.2034 42.7608 43.3925 44.4332 52.1497 48.7763C54.4912 49.9376 54.6254 53.0295 52.3129 54.2476C33.2281 64.307 50.7189 105.547 37.3677 94.6019C31.3429 89.6689 19.7399 72.8923 14.8785 57.8933Z" fill="white"/>
</g>
<g style="mix-blend-mode:overlay" opacity="0.302">
<path d="M35.66 115.833C39.0324 120.54 46.1935 120.925 49.5594 116.189C51.2167 113.867 51.4307 110.898 47.1332 107.648C39.1308 101.608 30.4297 108.524 35.66 115.833Z" fill="white"/>
</g>
</g>
<g filter="url(#filter3_f_25461_74553)">
<g opacity="0.3" filter="url(#filter4_f_25461_74553)">
<path d="M251.863 224.32H-7.4186L-46.4453 221.037C9.3526 168.383 65.8648 143 124.806 143C179.606 143 257.616 175.625 290.186 221.037L251.863 224.32Z" fill="white"/>
</g>
<path d="M234.556 218.904H9.80574L-24.0234 216.059C24.3434 170.417 73.3294 148.415 124.421 148.415C171.923 148.415 239.544 176.694 267.775 216.059L234.556 218.904Z" fill="url(#paint8_linear_25461_74553)" style="mix-blend-mode:screen"/>
<path style="mix-blend-mode:screen" d="M45.8358 168.228C67.1389 156.554 94.0497 149.591 123.275 149.591C151.491 149.591 177.512 156.08 198.488 167.013C202.078 172.199 202.405 177.532 195.551 181.325C178.253 190.925 151.847 178.036 114.285 181.473C76.6927 184.939 43.7589 183.517 44.7974 172.199C44.9457 170.836 45.3017 169.502 45.8358 168.228Z" fill="url(#paint9_radial_25461_74553)"/>
<path style="mix-blend-mode:screen" fill-rule="evenodd" clip-rule="evenodd" d="M175.12 165.249C174.794 167.738 169.691 168.982 163.727 168.034C157.793 167.086 153.254 164.271 153.61 161.782C153.936 159.293 159.039 158.049 164.973 158.997C170.937 159.945 175.476 162.731 175.12 165.249ZM77.0609 161.931C77.9213 164.301 74.0345 168.094 68.4269 170.405C62.8192 172.716 57.5973 172.686 56.7369 170.316C55.9061 167.975 59.7929 164.182 65.4005 161.871C71.0082 159.56 76.2301 159.59 77.0609 161.931ZM92.7266 166.197C93.2904 167.886 90.4717 170.523 86.4069 172.094C82.3718 173.634 78.6334 173.516 78.0696 171.827C77.5059 170.138 80.3246 167.501 84.3894 165.931C88.4245 164.39 92.1629 164.508 92.7266 166.197ZM99.6694 154.019C100.055 155.293 97.8596 157.19 94.8036 158.227C91.7475 159.234 88.9882 159.056 88.6025 157.753C88.2168 156.479 90.4124 154.612 93.4684 153.575C96.5244 152.538 99.2837 152.716 99.6694 154.019ZM195.949 173.012C195.444 174.227 192.655 174.108 189.718 172.716C186.781 171.294 184.823 169.16 185.327 167.945C185.831 166.701 188.62 166.849 191.558 168.242C194.495 169.634 196.453 171.768 195.949 173.012ZM183.873 177.101C183.725 178.612 180.669 179.471 177.049 179.027C173.429 178.583 170.64 176.983 170.789 175.471C170.967 173.96 174.023 173.071 177.642 173.545C181.262 173.99 184.051 175.59 183.873 177.101Z" fill="url(#paint10_radial_25461_74553)"/>
<path style="mix-blend-mode:screen" fill-rule="evenodd" clip-rule="evenodd" d="M70.1458 170.225C67.5942 171.292 65.1019 171.855 63.0547 171.944C64.7162 171.677 66.5558 171.173 68.425 170.403C74.0326 168.092 77.9194 164.299 77.059 161.929C76.6139 160.655 74.8634 160.062 72.4601 160.151C75.7238 159.647 78.2458 160.21 78.7798 161.78C79.6403 164.121 75.7535 167.914 70.1458 170.225ZM94.4456 166.018C95.0094 167.736 92.1907 170.373 88.1259 171.914C86.316 172.625 84.5358 172.981 83.082 173.01C84.1204 172.832 85.2479 172.536 86.405 172.092C90.4698 170.521 93.2885 167.884 92.7248 166.195C92.3984 165.277 91.1522 164.803 89.4314 164.832C92.0127 164.418 94.0303 164.803 94.4456 166.018ZM160.076 158.699C161.975 158.403 164.259 158.432 166.722 158.817C172.656 159.766 177.195 162.58 176.839 165.069C176.602 166.818 173.991 167.973 170.371 168.151C173.071 167.736 174.911 166.699 175.119 165.247C175.475 162.729 170.935 159.943 164.971 158.995C163.25 158.699 161.589 158.61 160.076 158.699ZM197.668 172.832C197.401 173.484 196.481 173.751 195.205 173.662C195.561 173.514 195.828 173.307 195.947 173.01C196.451 171.766 194.493 169.632 191.556 168.24C190.191 167.588 188.856 167.232 187.788 167.114C188.885 166.669 191.051 167.025 193.277 168.062C196.214 169.484 198.172 171.618 197.668 172.832ZM185.592 176.921C185.473 178.107 183.545 178.907 180.993 178.966C182.655 178.67 183.782 177.988 183.871 177.099C184.049 175.588 181.26 173.988 177.641 173.544C176.869 173.425 176.098 173.395 175.415 173.425C176.543 173.218 177.908 173.188 179.361 173.366C182.981 173.81 185.77 175.41 185.592 176.921ZM101.388 153.84C101.774 155.114 99.6082 157.01 96.5522 158.047C95.217 158.492 93.9709 158.699 92.9028 158.699C93.516 158.6 94.1489 158.442 94.8017 158.225C97.8577 157.188 100.053 155.291 99.6676 154.017C99.4599 153.277 98.4511 152.891 97.0863 152.891C99.3115 152.506 101.092 152.832 101.388 153.84Z" fill="url(#paint11_radial_25461_74553)"/>
<path opacity="0.5" d="M177.049 179.024C175.328 178.817 173.815 178.343 172.688 177.75C173.934 177.158 175.981 176.921 178.236 177.217C179.957 177.424 181.47 177.898 182.597 178.491C181.351 179.084 179.304 179.321 177.049 179.024Z" fill="url(#paint12_radial_25461_74553)"/>
<path opacity="0.5" d="M163.734 168.03C159.788 167.408 156.465 165.956 154.773 164.327C156.316 162.608 160.648 161.867 165.603 162.667C169.549 163.29 172.872 164.741 174.563 166.371C173.021 168.09 168.689 168.83 163.734 168.03Z" fill="url(#paint13_radial_25461_74553)"/>
<path opacity="0.5" d="M192.15 171.911C193.248 172.445 194.227 173.067 194.969 173.719C193.812 174.045 191.794 173.689 189.717 172.711C188.619 172.178 187.67 171.556 186.898 170.904C188.085 170.578 190.073 170.934 192.15 171.911Z" fill="url(#paint14_radial_25461_74553)"/>
<path opacity="0.5" d="M65.9952 165.54C70.416 163.703 74.5995 163.347 76.5874 164.444C75.371 166.488 72.3149 168.799 68.4282 170.399C64.0073 172.207 59.8238 172.592 57.8359 171.495C59.0524 169.451 62.1084 167.14 65.9952 165.54Z" fill="url(#paint15_radial_25461_74553)"/>
<path opacity="0.5" d="M98.0395 156.593C97.1791 157.216 96.0813 157.779 94.8055 158.223C93.3517 158.697 91.9572 158.904 90.8594 158.875C91.6901 158.253 92.7879 157.66 94.0637 157.245C95.5176 156.741 96.9417 156.534 98.0395 156.593Z" fill="url(#paint16_radial_25461_74553)"/>
<path opacity="0.5" d="M84.989 169.632C87.6594 168.595 90.211 168.299 91.7835 168.713C90.656 169.928 88.7571 171.202 86.4132 172.091C83.7429 173.128 81.221 173.395 79.6484 173.01C80.7462 171.765 82.6451 170.521 84.989 169.632Z" fill="url(#paint17_radial_25461_74553)"/>
<path opacity="0.3" d="M73.7707 173.011C74.0377 173.93 72.4355 175.322 70.1806 176.093C67.896 176.863 65.8488 176.715 65.5817 175.767C65.285 174.848 66.9169 173.455 69.1718 172.685C71.4267 171.915 73.5036 172.063 73.7707 173.011Z" fill="url(#paint18_radial_25461_74553)"/>
<path opacity="0.3" d="M158.477 155.618C158.329 156.595 156.341 157.099 153.997 156.744C151.623 156.388 149.813 155.321 149.962 154.343C150.08 153.366 152.098 152.862 154.442 153.218C156.786 153.573 158.596 154.64 158.477 155.618Z" fill="url(#paint19_radial_25461_74553)"/>
<path opacity="0.3" d="M164.054 156.624C164.025 157.039 163.164 157.276 162.155 157.128C161.176 156.98 160.405 156.506 160.464 156.091C160.494 155.676 161.354 155.469 162.363 155.617C163.342 155.765 164.114 156.21 164.054 156.624Z" fill="url(#paint20_radial_25461_74553)"/>
<path opacity="0.3" d="M173.787 170.699C173.728 171.113 172.867 171.321 171.888 171.173C170.879 171.025 170.108 170.58 170.167 170.165C170.227 169.75 171.087 169.513 172.066 169.662C173.075 169.81 173.846 170.284 173.787 170.699Z" fill="url(#paint21_radial_25461_74553)"/>
<path opacity="0.3" d="M183.218 161.367C183.189 161.782 182.328 161.989 181.319 161.841C180.34 161.693 179.569 161.249 179.628 160.834C179.658 160.419 180.518 160.212 181.527 160.36C182.506 160.508 183.278 160.952 183.218 161.367Z" fill="url(#paint22_radial_25461_74553)"/>
<path opacity="0.3" d="M191.169 175.914C191.05 176.299 190.16 176.269 189.211 175.884C188.291 175.469 187.638 174.847 187.787 174.462C187.935 174.077 188.795 174.077 189.745 174.492C190.694 174.877 191.317 175.529 191.169 175.914Z" fill="url(#paint23_radial_25461_74553)"/>
<path opacity="0.3" d="M189.093 164.743C188.945 165.395 187.55 165.543 185.978 165.099C184.405 164.654 183.278 163.736 183.456 163.113C183.604 162.462 184.999 162.313 186.571 162.758C188.114 163.202 189.271 164.091 189.093 164.743Z" fill="url(#paint24_radial_25461_74553)"/>
<path opacity="0.3" d="M159.926 169.101C159.808 169.782 158.443 170.078 156.841 169.812C155.239 169.545 154.022 168.775 154.141 168.123C154.23 167.441 155.595 167.145 157.197 167.412C158.799 167.708 160.015 168.449 159.926 169.101Z" fill="url(#paint25_radial_25461_74553)"/>
<path opacity="0.3" d="M95.5783 160.892C95.697 161.485 94.6882 162.285 93.264 162.67C91.8696 163.055 90.5937 162.907 90.4751 162.315C90.3267 161.722 91.3652 160.922 92.7597 160.537C94.1838 160.152 95.43 160.3 95.5783 160.892Z" fill="url(#paint26_radial_25461_74553)"/>
<path opacity="0.3" d="M94.1265 172.003C94.2452 172.595 93.2364 173.366 91.8123 173.751C90.4178 174.166 89.142 173.988 88.9936 173.425C88.8749 172.832 89.9134 172.032 91.3079 171.647C92.732 171.262 93.9782 171.41 94.1265 172.003Z" fill="url(#paint27_radial_25461_74553)"/>
<path opacity="0.3" d="M97.0031 169.277C97.0921 169.662 96.4691 170.136 95.579 170.373C94.7185 170.64 93.9174 170.521 93.8284 170.166C93.7394 169.81 94.3922 169.306 95.2823 169.069C96.1427 168.832 96.9438 168.921 97.0031 169.277Z" fill="url(#paint28_radial_25461_74553)"/>
<path opacity="0.3" d="M88.3391 154.641C88.4281 155.026 87.805 155.5 86.9149 155.767C86.0248 156.004 85.2534 155.885 85.1644 155.53C85.0754 155.174 85.7281 154.671 86.5886 154.434C87.4787 154.197 88.2501 154.285 88.3391 154.641Z" fill="url(#paint29_radial_25461_74553)"/>
<path opacity="0.3" d="M77.2063 169.277C77.2953 169.662 76.6722 170.136 75.7821 170.373C74.892 170.64 74.1206 170.521 74.0316 170.166C73.9426 169.81 74.5953 169.306 75.4557 169.069C76.3458 168.832 77.1173 168.921 77.2063 169.277Z" fill="url(#paint30_radial_25461_74553)"/>
<path opacity="0.3" d="M107.802 159.379C108.069 160.298 106.467 161.69 104.182 162.461C101.927 163.231 99.88 163.083 99.613 162.135C99.3163 161.216 100.948 159.824 103.203 159.053C105.458 158.283 107.535 158.431 107.802 159.379Z" fill="url(#paint31_radial_25461_74553)"/>
<path opacity="0.3" d="M111.238 155.647C111.327 156.033 110.703 156.507 109.813 156.744C108.923 157.01 108.152 156.892 108.063 156.536C107.974 156.181 108.627 155.677 109.487 155.44C110.377 155.203 111.149 155.292 111.238 155.647Z" fill="url(#paint32_radial_25461_74553)"/>
<path opacity="0.3" d="M77.8316 157.514C77.9206 157.87 77.2678 158.344 76.4074 158.611C75.5173 158.848 74.7459 158.759 74.6569 158.374C74.5679 158.018 75.191 157.514 76.0811 157.277C76.9712 157.04 77.7426 157.129 77.8316 157.514Z" fill="url(#paint33_radial_25461_74553)"/>
</g>
<g opacity="0.15" filter="url(#filter5_f_25461_74553)">
<path d="M34.6057 79.6715C11.2666 85.6272 -24.6587 124.042 -20.4525 107.472C-16.2464 90.901 -12.1854 48.823 -11.0294 48.5009C-11.0294 48.5009 46.8744 35.3393 71.7675 27.1913L159.937 39.5554C159.937 39.5554 127.665 70.7705 101.302 78.7333C76.3654 86.2651 59.8458 73.2306 34.6057 79.6715Z" fill="#64EDFF"/>
</g>
<path d="M19.6406 124.592V169.069L61.6515 186.771V135.246L19.6406 124.592Z" fill="url(#paint34_linear_25461_74553)"/>
<path fill-rule="evenodd" clip-rule="evenodd" d="M65.6638 136.263L185.324 124.16V166.237L61.6515 186.771V135.246L65.6638 136.263Z" fill="url(#paint35_linear_25461_74553)"/>
</g>
<g opacity="0.85">
<path d="M15.1749 70.3679C15.1373 70.1558 15.4048 70.1181 15.4408 70.3208C15.4408 70.3208 15.8974 72.1832 16.6394 72.8727C17.3972 73.5769 18.9209 73.5326 18.9209 73.5326C18.9791 73.5487 18.9965 73.6473 18.9475 73.6824C18.9475 73.6824 17.5341 74.1435 17.0602 75.033C16.5762 75.9415 16.8143 77.89 16.8143 77.89C16.9038 78.0933 16.6311 78.1068 16.5994 77.9281C16.5994 77.9281 16.1238 76.0217 15.3568 75.3352C14.6058 74.663 13.1202 74.7162 13.1202 74.7162C13.062 74.7001 13.0445 74.6015 13.0936 74.5663C13.0936 74.5663 14.5395 74.0838 15.0089 73.1619C15.4684 72.2593 15.1749 70.3679 15.1749 70.3679Z" fill="#E2FF30"/>
<path d="M44.5445 89.4518C44.5257 89.3457 44.6594 89.3269 44.6774 89.4282C44.6774 89.4282 44.9057 90.3594 45.2767 90.7042C45.6556 91.0563 46.4175 91.0341 46.4175 91.0341C46.4466 91.0422 46.4553 91.0915 46.4308 91.109C46.4308 91.109 45.7241 91.3396 45.4871 91.7843C45.2451 92.2386 45.3642 93.2128 45.3642 93.2128C45.4089 93.3145 45.2726 93.3212 45.2568 93.2319C45.2568 93.2319 45.0189 92.2787 44.6354 91.9354C44.2599 91.5993 43.5171 91.6259 43.5171 91.6259C43.488 91.6179 43.4793 91.5686 43.5038 91.551C43.5038 91.551 44.2268 91.3097 44.4615 90.8488C44.6912 90.3975 44.5445 89.4518 44.5445 89.4518Z" fill="#E2FF30"/>
<path d="M40.1773 127.804C40.1585 127.698 40.2923 127.679 40.3102 127.781C40.3102 127.781 40.5386 128.712 40.9095 129.057C41.2884 129.409 42.0503 129.387 42.0503 129.387C42.0794 129.395 42.0881 129.444 42.0636 129.462C42.0636 129.462 41.3569 129.692 41.12 130.137C40.8779 130.591 40.997 131.565 40.997 131.565C41.0417 131.667 40.9054 131.674 40.8896 131.584C40.8896 131.584 40.6517 130.631 40.2682 130.288C39.8928 129.952 39.1499 129.978 39.1499 129.978C39.1208 129.97 39.1121 129.921 39.1366 129.904C39.1366 129.904 39.8596 129.662 40.0943 129.201C40.324 128.75 40.1773 127.804 40.1773 127.804Z" fill="#E2FF30"/>
<path d="M177.169 115.69C177.151 115.584 177.284 115.565 177.302 115.666C177.302 115.666 177.531 116.598 177.902 116.942C178.281 117.295 179.042 117.272 179.042 117.272C179.072 117.28 179.08 117.33 179.056 117.347C179.056 117.347 178.349 117.578 178.112 118.023C177.87 118.477 177.989 119.451 177.989 119.451C178.034 119.553 177.898 119.559 177.882 119.47C177.882 119.47 177.644 118.517 177.26 118.174C176.885 117.838 176.142 117.864 176.142 117.864C176.113 117.856 176.104 117.807 176.129 117.789C176.129 117.789 176.852 117.548 177.086 117.087C177.316 116.636 177.169 115.69 177.169 115.69Z" fill="#E2FF30"/>
<path d="M171.802 73.9865C171.783 73.8804 171.917 73.8615 171.935 73.9629C171.935 73.9629 172.164 74.8941 172.535 75.2388C172.913 75.5909 173.675 75.5688 173.675 75.5688C173.704 75.5768 173.713 75.6261 173.689 75.6437C173.689 75.6437 172.982 75.8742 172.745 76.319C172.503 76.7732 172.622 77.7475 172.622 77.7475C172.667 77.8491 172.53 77.8559 172.515 77.7666C172.515 77.7666 172.277 76.8134 171.893 76.4701C171.518 76.134 170.775 76.1606 170.775 76.1606C170.746 76.1525 170.737 76.1032 170.762 76.0857C170.762 76.0857 171.485 75.8444 171.719 75.3834C171.949 74.9321 171.802 73.9865 171.802 73.9865Z" fill="#E2FF30"/>
<path d="M79.8179 145.147C79.7991 145.041 79.9329 145.022 79.9509 145.124C79.9509 145.124 80.1792 146.055 80.5502 146.399C80.929 146.752 81.6909 146.729 81.6909 146.729C81.72 146.737 81.7287 146.787 81.7042 146.804C81.7042 146.804 80.9975 147.035 80.7606 147.48C80.5186 147.934 80.6376 148.908 80.6376 148.908C80.6824 149.01 80.546 149.017 80.5302 148.927C80.5302 148.927 80.2923 147.974 79.9089 147.631C79.5334 147.295 78.7905 147.321 78.7905 147.321C78.7615 147.313 78.7527 147.264 78.7773 147.246C78.7773 147.246 79.5002 147.005 79.7349 146.544C79.9647 146.093 79.8179 145.147 79.8179 145.147Z" fill="#E2FF30"/>
<path d="M50.3804 65.0587C50.3616 64.9527 50.4954 64.9338 50.5134 65.0351C50.5134 65.0351 50.7417 65.9663 51.1127 66.3111C51.4915 66.6632 52.2534 66.641 52.2534 66.641C52.2825 66.6491 52.2912 66.6984 52.2667 66.716C52.2667 66.716 51.56 66.9465 51.3231 67.3913C51.0811 67.8455 51.2001 68.8198 51.2001 68.8198C51.2449 68.9214 51.1085 68.9281 51.0927 68.8388C51.0927 68.8388 50.8548 67.8856 50.4714 67.5423C50.0959 67.2062 49.353 67.2328 49.353 67.2328C49.324 67.2248 49.3152 67.1755 49.3398 67.1579C49.3398 67.1579 50.0627 66.9167 50.2974 66.4557C50.5272 66.0044 50.3804 65.0587 50.3804 65.0587Z" fill="#E2FF30"/>
<path d="M85.0289 77.1925C85.01 77.0865 85.1438 77.0676 85.1618 77.1689C85.1618 77.1689 85.3901 78.1001 85.7611 78.4449C86.14 78.797 86.9018 78.7748 86.9018 78.7748C86.9309 78.7829 86.9397 78.8322 86.9151 78.8498C86.9151 78.8498 86.2085 79.0803 85.9715 79.525C85.7295 79.9793 85.8486 80.9536 85.8486 80.9536C85.8933 81.0552 85.757 81.0619 85.7411 80.9726C85.7411 80.9726 85.5033 80.0194 85.1198 79.6761C84.7443 79.34 84.0015 79.3666 84.0015 79.3666C83.9724 79.3586 83.9636 79.3093 83.9882 79.2917C83.9882 79.2917 84.7112 79.0505 84.9458 78.5895C85.1756 78.1382 85.0289 77.1925 85.0289 77.1925Z" fill="#E2FF30"/>
<path d="M51.9664 154.151C51.9475 154.045 52.0813 154.026 52.0993 154.127C52.0993 154.127 52.3276 155.059 52.6986 155.403C53.0775 155.755 53.8393 155.733 53.8393 155.733C53.8684 155.741 53.8772 155.791 53.8526 155.808C53.8526 155.808 53.146 156.039 52.909 156.484C52.667 156.938 52.7861 157.912 52.7861 157.912C52.8308 158.014 52.6945 158.02 52.6786 157.931C52.6786 157.931 52.4408 156.978 52.0573 156.635C51.6818 156.299 50.939 156.325 50.939 156.325C50.9099 156.317 50.9011 156.268 50.9257 156.25C50.9257 156.25 51.6487 156.009 51.8833 155.548C52.1131 155.097 51.9664 154.151 51.9664 154.151Z" fill="#E2FF30"/>
<path d="M20.0601 105.984C20.0413 105.877 20.1751 105.859 20.193 105.96C20.193 105.96 20.4214 106.891 20.7923 107.236C21.1712 107.588 21.9331 107.566 21.9331 107.566C21.9622 107.574 21.9709 107.623 21.9464 107.641C21.9464 107.641 21.2397 107.871 21.0028 108.316C20.7607 108.77 20.8798 109.745 20.8798 109.745C20.9246 109.846 20.7882 109.853 20.7724 109.764C20.7724 109.764 20.5345 108.81 20.151 108.467C19.7756 108.131 19.0327 108.158 19.0327 108.158C19.0036 108.15 18.9949 108.1 19.0194 108.083C19.0194 108.083 19.7424 107.841 19.9771 107.381C20.2068 106.929 20.0601 105.984 20.0601 105.984Z" fill="#E2FF30"/>
</g>
<path d="M65.6634 128.239L16.3359 116.674V123.755L19.6402 124.593L61.6511 135.246L65.6634 136.264V128.239Z" fill="url(#paint36_linear_25461_74553)"/>
<path d="M189.336 116.674L65.6634 128.239V136.264L185.324 124.16L189.336 123.755V116.674Z" fill="url(#paint37_linear_25461_74553)"/>
<path d="M16.3359 116.674L65.6634 128.239L189.336 116.674L113.103 108.414L16.3359 116.674Z" fill="url(#paint38_linear_25461_74553)"/>
<g opacity="0.2" filter="url(#filter6_f_25461_74553)">
<path d="M81.1949 121.394L72.9844 117.289V116.116L109.638 112.89L120.195 114.943V116.217L81.1949 121.394Z" fill="black"/>
</g>
<path d="M81.1949 121.394L72.9844 117.289V116.116L109.638 112.89L120.195 114.943V116.217L81.1949 121.394Z" fill="#E4E1E1"/>
<path d="M81.1949 120.221L72.9844 116.116L109.638 111.717L120.195 115.044L81.1949 120.221Z" fill="#F8F8F8"/>
<path d="M105.183 112.749L99.9177 112.131L100.997 107.478L107.507 107.927L111.348 108.533C112.907 109.402 115.866 112.848 115.721 113.132C115.582 113.404 115.028 113.5 114.631 113.166C114.615 113.152 114.598 113.137 114.582 113.121C114.435 113.547 114.09 113.576 113.441 113.253C113.294 113.679 112.725 113.674 112.3 113.385C112.153 113.811 111.726 113.807 111.16 113.375C111.16 113.375 109.234 112.315 107.928 111.953C107.478 111.828 106.984 111.717 106.825 112.064C106.71 112.314 107.692 113.369 108.4 114.077C108.661 114.338 109.108 115.729 108.4 115.257L105.183 112.749Z" fill="url(#paint39_linear_25461_74553)"/>
<path fill-rule="evenodd" clip-rule="evenodd" d="M114.58 113.121C113.224 111.639 111.974 110.768 110.34 109.521C110.199 109.377 110.343 109.236 110.484 109.38C112.129 110.635 113.071 111.338 114.441 112.835C114.541 112.964 114.563 112.927 114.58 113.121ZM113.44 113.253C112.013 111.922 111.141 111.3 109.411 110.35C109.264 110.269 109.195 110.08 109.338 110.081C111.081 111.038 111.85 111.614 113.3 112.967C113.382 113.044 113.396 113.13 113.44 113.253ZM108.474 111.07C110.219 111.811 110.98 112.045 112.159 113.099C112.223 113.156 112.258 113.273 112.299 113.385C111.15 112.357 110.144 111.934 108.419 111.202C108.33 111.069 108.331 111.069 108.474 111.07Z" fill="#D7631E"/>
<path d="M93.2569 101.333C93.2569 101.333 91.9317 85.5611 89.3129 83.1176C88.0035 81.8959 85.0314 79.6051 82.8906 79.147L84.7788 106.997L101.536 112.897L106.492 106.997L93.2569 101.333Z" fill="url(#paint40_linear_25461_74553)" stroke="#64EDFF" stroke-width="0.944066"/>
<path d="M76.1578 76.8468L62.0773 76.3145C56.8964 77.6847 54.2304 78.6378 50.1395 80.8398L48.4375 112.661L85.9574 111.413C86.6752 99.4648 85.9574 88.3513 84.1164 79.656C81.1786 78.4358 78.1856 77.4384 76.1578 76.8468Z" fill="url(#paint41_linear_25461_74553)" stroke="#64EDFF" stroke-width="0.944066"/>
<path d="M85.4882 111.481C85.9027 112.62 85.4881 113.605 85.0162 114.549L75.8115 114.313C75.4446 112.871 75.1028 111.717 75.8115 110.773C76.0475 110.459 79.8237 109.357 82.4199 109.357C83.7808 109.357 84.9899 110.112 85.4882 111.481Z" fill="url(#paint42_linear_25461_74553)"/>
<path d="M90.5732 60.0715C91.0577 62.119 90.3601 64.2675 88.7662 65.6387C89.1767 62.2824 88.4065 59.0381 86.4556 55.9056C88.4982 56.4159 90.0856 58.0223 90.5732 60.0715Z" fill="white"/>
<path fill-rule="evenodd" clip-rule="evenodd" d="M88.8978 66.0792C88.785 66.1105 88.6656 66.0997 88.5596 66.0439C88.3922 65.9534 88.2979 65.7728 88.3208 65.5854C88.7182 62.3491 87.9639 59.1744 86.0772 56.149C85.9787 55.9902 85.9873 55.7888 86.0951 55.6373C86.206 55.4875 86.3964 55.4191 86.5764 55.4621C88.7943 56.0168 90.498 57.7435 91.0265 59.9675C91.5549 62.1915 90.8053 64.4967 89.0736 65.9863C89.0216 66.0318 88.9602 66.0618 88.8978 66.0792ZM87.4975 56.7832C88.7971 59.2324 89.41 61.769 89.3309 64.3558C90.1776 63.1612 90.4858 61.6484 90.1362 60.1788C89.7844 58.6917 88.8127 57.4673 87.4975 56.7832Z" fill="#64EDFF"/>
<path d="M63.5375 44.5341C73.3407 41.8092 83.4993 47.544 86.2273 57.3455C88.9546 67.1446 83.2185 77.3 73.4154 80.0248C63.6146 82.749 53.4553 77.0117 50.728 67.2127C48 57.4112 53.7367 47.2582 63.5375 44.5341Z" fill="white"/>
<path d="M63.7844 44.752C73.7196 41.9905 83.646 47.0116 86.8169 56.509L87.1028 56.8949C87.8033 57.9439 87.6065 57.4505 88.4255 60.3928C89.2444 63.3352 88.5687 69.5579 85.0281 73.2647L84.6356 73.7591C72.9165 85.7119 54.8353 83.3453 50.5824 68.0647C47.7796 57.9944 53.8492 47.5135 63.7844 44.752Z" fill="white"/>
<path fill-rule="evenodd" clip-rule="evenodd" d="M73.5164 81.0018C69.9326 81.9979 66.2875 82.0674 62.9308 81.2033C56.6567 79.5859 51.995 74.8416 50.1428 68.1864C48.7587 63.2137 49.4219 57.977 52.0094 53.4388C54.5832 48.9251 58.7212 45.6832 63.6612 44.3101C73.8436 41.4798 83.9615 46.6313 87.2281 56.296L87.4695 56.6245C87.4745 56.63 87.4787 56.6358 87.4821 56.6417C87.5569 56.7528 87.6186 56.8442 87.6752 56.9268C88.1248 57.5852 88.1428 57.65 88.5996 59.3098C88.6751 59.581 88.7633 59.8978 88.8668 60.2698C89.7365 63.3945 89.0044 69.7493 85.3724 73.5642L84.9958 74.0412C84.9856 74.0544 84.9745 74.067 84.9623 74.079C81.8443 77.2598 78.109 79.5883 74.1666 80.8107C73.9503 80.876 73.7336 80.9397 73.5164 81.0018ZM63.9063 45.1909C54.0719 47.9244 48.2931 58.1305 51.0237 67.9416C52.7865 74.2751 57.2098 78.7857 63.1576 80.3181C70.2448 82.1439 78.3422 79.5157 84.2923 73.4559L84.6697 72.9812C84.6771 72.9706 84.6863 72.9603 84.6973 72.9503C88.0613 69.427 88.7781 63.361 87.9859 60.5146C87.8823 60.1426 87.7935 59.8234 87.718 59.5522C87.2839 57.9741 87.2839 57.9741 86.9211 57.4415C86.8645 57.359 86.8004 57.2682 86.7286 57.1589L86.4496 56.7788C86.4207 56.7402 86.3984 56.6973 86.3833 56.6524C83.3003 47.415 73.6351 42.4867 63.9063 45.1909Z" fill="#64EDFF"/>
<path d="M67.4961 51.28C76.9249 48.6593 86.315 52.803 88.4673 60.5359C90.6188 68.2663 84.7182 76.6602 75.2893 79.281C65.8581 81.9024 56.4704 77.758 54.3188 70.0275C52.1666 62.2947 58.0648 53.9015 67.4961 51.28Z" fill="#00A4FF"/>
<path fill-rule="evenodd" clip-rule="evenodd" d="M75.3994 79.6487C65.7809 82.3222 56.1638 78.0502 53.9594 70.1301C51.7544 62.2077 57.7839 53.5892 67.4024 50.9158C77.0185 48.2429 86.6374 52.5119 88.8424 60.4343C91.0467 68.3543 85.0155 76.9758 75.3994 79.6487ZM67.6061 51.6478C58.3933 54.2085 52.6012 62.4067 54.694 69.926C56.7861 77.4428 65.9822 81.475 75.195 78.9143C84.4078 76.3535 90.1999 68.1553 88.1079 60.6385C86.0151 53.1192 76.819 49.087 67.6061 51.6478Z" fill="#64EDFF"/>
<path d="M74.8301 77.6244C83.1013 75.3254 88.3263 68.1439 86.5005 61.584C84.6748 55.0241 76.4896 51.57 68.2185 53.869C59.9473 56.168 54.7223 63.3496 56.548 69.9094C58.3738 76.4693 66.5589 79.9234 74.8301 77.6244Z" fill="#6C6C6C"/>
<path fill-rule="evenodd" clip-rule="evenodd" d="M74.9544 78.0655C66.4521 80.4288 57.9988 76.8262 56.1084 70.0341C54.218 63.2421 59.5953 55.7926 68.0976 53.4294C76.5999 51.0661 85.0539 54.6711 86.9443 61.4632C88.8347 68.2552 83.4567 75.7023 74.9544 78.0655ZM68.3428 54.3102C60.3278 56.538 55.2339 63.482 56.9894 69.7893C58.7441 76.0941 66.6942 79.4125 74.7093 77.1847C82.7243 74.9569 87.8181 68.0129 86.0633 61.708C84.3079 55.4008 76.3578 52.0824 68.3428 54.3102Z" fill="#6C6C6C"/>
<path d="M86.3279 60.4875C86.4048 60.9496 86.4559 61.4215 86.4807 61.9007C86.5605 63.4325 86.3616 64.9203 85.9307 66.3174C86.2032 66.6088 86.441 66.915 86.6421 67.2289C85.3062 71.8511 80.9502 75.9914 75.0379 77.6347C73.9841 77.9276 72.932 78.1244 71.8952 78.2368C64.4294 78.2563 58.4167 75.1622 58.2046 71.0272C58.1428 69.8575 58.5535 68.722 59.342 67.6806C58.7678 66.3328 58.4191 64.8757 58.3411 63.3408C58.2957 62.4717 58.3403 61.619 58.4658 60.7877C60.545 57.6654 64.0623 55.0924 68.4263 53.8794C76.2205 51.713 83.9363 54.6544 86.3279 60.4875Z" fill="#B0401E"/>
<path fill-rule="evenodd" clip-rule="evenodd" d="M75.1342 78.0044C74.0804 78.2973 73.0032 78.5062 71.9308 78.6207C71.9176 78.6226 71.9039 78.623 71.8898 78.6218C64.0909 78.6434 58.0413 75.3888 57.8165 71.0505C57.7572 69.8801 58.1221 68.7289 58.9032 67.6327C58.3509 66.271 58.0319 64.8367 57.9561 63.3658C57.9105 62.4865 57.9542 61.6029 58.0831 60.7371C58.093 60.68 58.1122 60.6282 58.1437 60.5832C60.3426 57.2778 64.0509 54.7034 68.3189 53.5171C72.1499 52.4522 76.13 52.5638 79.5319 53.8316C82.9344 55.1017 85.4741 57.4159 86.6754 60.3477C86.6867 60.3756 86.6944 60.4036 86.6988 60.4317C86.778 60.9113 86.8314 61.4007 86.8551 61.8853C86.9309 63.3562 86.7627 64.8147 86.3515 66.2271C86.5814 66.4864 86.7832 66.7561 86.9579 67.0307C87.0172 67.1228 87.0329 67.2348 87.003 67.3414C86.3162 69.7146 84.8666 71.9585 82.8077 73.834C80.7015 75.7536 78.0483 77.1944 75.1342 78.0044ZM71.8697 77.862C72.8938 77.7506 73.9247 77.5519 74.9305 77.2724C80.5018 75.7238 84.8115 71.9092 86.2226 67.2971C86.0559 67.0513 85.8628 66.8128 85.6457 66.581C85.5537 66.4824 85.5214 66.3388 85.5627 66.2084C85.9909 64.8198 86.1692 63.3792 86.0951 61.9234C86.0731 61.4822 86.0238 61.0356 85.956 60.5968C83.577 54.874 76.0942 52.1471 68.5233 54.2515C64.4593 55.3811 60.931 57.8123 58.8258 60.934C58.7118 61.7233 58.6745 62.5275 58.7162 63.3278C58.7921 64.7806 59.1167 66.1978 59.6883 67.536C59.7412 67.6609 59.722 67.8059 59.6408 67.9138C58.8809 68.9188 58.524 69.9592 58.579 71.0118C58.7783 74.8685 64.614 77.8748 71.8697 77.862Z" fill="#6C6C6C"/>
<path d="M67.3994 55.4893C69.1894 55.3977 70.8466 56.0463 72.0761 57.1655C73.1855 55.8642 74.8075 55.0023 76.6513 54.9087C81.5062 54.6607 85.6829 60.9052 81.9645 65.432C83.347 64.9727 84.8691 65.3124 85.9269 66.3164C86.1994 66.6078 86.4372 66.914 86.6384 67.2279C85.3025 71.8501 80.9464 75.9904 75.0342 77.6337C73.9804 77.9266 72.9283 78.1234 71.8915 78.2358C64.4256 78.2553 58.4129 75.1612 58.2008 71.0262C58.1391 69.8565 58.5497 68.721 59.3383 67.6796C60.3953 66.7756 61.7078 66.409 63.276 66.5799C62.1298 65.4815 61.3843 63.9641 61.2961 62.2536C61.1115 58.7005 63.8448 55.6706 67.3994 55.4893Z" fill="#FFCAA1"/>
<path fill-rule="evenodd" clip-rule="evenodd" d="M75.1173 77.9303C74.0683 78.2219 72.9929 78.4277 71.926 78.5433C71.9159 78.5443 71.9049 78.5448 71.8928 78.5447C64.1349 78.5653 58.1194 75.3401 57.8964 71.0452C57.8346 69.829 58.2365 68.6339 59.0969 67.4975C59.1093 67.4803 59.124 67.465 59.141 67.4516C60.0809 66.6474 61.2224 66.2422 62.5401 66.2379C61.6117 65.123 61.0692 63.7405 60.9924 62.2751C60.801 58.5584 63.6688 55.3798 67.3864 55.1894C69.0972 55.1018 70.7421 55.6504 72.0496 56.7427C73.2499 55.4524 74.8664 54.7005 76.6358 54.6095C79.1623 54.4787 81.7026 56.0609 82.9542 58.5418C84.0337 60.6826 83.9234 63.0274 82.6851 64.9618C83.9348 64.8058 85.2035 65.2108 86.1386 66.0989C86.1431 66.1028 86.1479 66.1075 86.1528 66.113C86.4372 66.4193 86.6893 66.7396 86.8975 67.0696C86.9435 67.1421 86.9587 67.2336 86.9331 67.3183C86.2501 69.6775 84.8082 71.9115 82.7592 73.7765C80.663 75.6856 78.0194 77.1237 75.1173 77.9303ZM71.8754 77.9342C72.905 77.8238 73.9407 77.6239 74.9537 77.3423C80.5635 75.783 84.9025 71.9344 86.3077 67.2827C86.1359 67.0279 85.9364 66.7756 85.7118 66.5355C84.7359 65.6122 83.3361 65.3032 82.0627 65.7269C81.9345 65.7677 81.7924 65.7219 81.7145 65.6091C81.6372 65.4987 81.6447 65.3492 81.729 65.2431C83.2511 63.3901 83.5055 60.9871 82.4102 58.8171C81.2639 56.5475 78.9574 55.0993 76.6676 55.2161C74.9646 55.3041 73.4161 56.0681 72.3085 57.3663C72.2563 57.4299 72.1787 57.467 72.0948 57.4722C72.014 57.4792 71.9311 57.4505 71.8715 57.3947C70.6488 56.2814 69.0681 55.7123 67.4181 55.796C64.0374 55.9703 61.4263 58.8629 61.6015 62.2428C61.6817 63.8133 62.3527 65.2764 63.4877 66.3624C63.5683 66.4383 63.5997 66.5511 63.5746 66.6563C63.5374 66.8011 63.3919 66.901 63.2452 66.8849C61.7629 66.7255 60.559 67.0549 59.5637 67.8927C58.8075 68.9018 58.4509 69.9525 58.5055 71.0129C58.7065 74.9131 64.5793 77.9505 71.8754 77.9342Z" fill="#6C6C6C"/>
<path d="M86.7062 61.5938C87.2212 63.4441 87.1759 65.344 86.6579 67.1712C86.4645 66.8759 86.2375 66.5899 85.9818 66.312C86.4133 64.9174 86.6097 63.4305 86.5293 61.8964C86.5101 61.4932 86.4687 61.0936 86.413 60.698C86.5228 60.9907 86.6214 61.289 86.7062 61.5938Z" fill="#FFCAA1"/>
<path fill-rule="evenodd" clip-rule="evenodd" d="M86.7536 67.5392C86.7392 67.5432 86.7246 67.5465 86.7098 67.5489C86.5611 67.5721 86.4137 67.5071 86.3324 67.3823C86.1523 67.1066 85.9396 66.8348 85.6963 66.574C85.6036 66.4731 85.5696 66.3326 85.6109 66.2022C86.039 64.8137 86.2197 63.3725 86.1432 61.9175C86.1239 61.5324 86.0852 61.1424 86.029 60.7547C86.0009 60.5609 86.1206 60.3776 86.3092 60.3304C86.4977 60.2832 86.6907 60.3821 86.762 60.5639C86.879 60.8727 86.9809 61.183 87.0671 61.4926C87.5894 63.3693 87.5725 65.3157 87.0169 67.2773C86.9804 67.4064 86.8809 67.5039 86.7536 67.5392ZM86.4014 66.2177C86.4247 66.2457 86.4488 66.2735 86.4737 66.3011C86.5412 65.9738 86.5926 65.6475 86.6279 65.3222C86.5633 65.6229 86.4878 65.9214 86.4014 66.2177Z" fill="#6C6C6C"/>
<path d="M86.7761 66.7221C86.5495 66.679 86.3388 66.6005 86.1456 66.4914C86.0919 66.4287 86.0396 66.3709 85.9836 66.3089C86.3371 65.1635 86.533 63.9533 86.5484 62.708C86.6725 62.6709 86.8041 62.6421 86.9374 62.6283C87.1651 63.9948 87.0971 65.3763 86.7761 66.7221Z" fill="#FF9999"/>
<path fill-rule="evenodd" clip-rule="evenodd" d="M86.8709 67.0921C86.8157 67.1074 86.7572 67.1108 86.697 67.0991C86.4346 67.0479 86.1819 66.9578 85.9481 66.8238C85.9113 66.803 85.8803 66.7754 85.8511 66.7447C85.8012 66.6862 85.7489 66.6283 85.6966 66.5705C85.6045 66.472 85.573 66.3308 85.6118 66.201C85.9609 65.0672 86.1456 63.8912 86.1595 62.7057C86.1624 62.5394 86.2722 62.3952 86.4293 62.3463C86.5822 62.3012 86.7361 62.2688 86.8892 62.2521C87.0899 62.2299 87.2731 62.3677 87.3056 62.5681C87.5377 63.9593 87.4799 65.387 87.1374 66.8138C87.1036 66.9525 86.9982 67.0567 86.8709 67.0921ZM86.4068 66.205C86.433 66.2184 86.4589 66.231 86.4846 66.2428C86.5439 65.9419 86.5906 65.642 86.6246 65.3429C86.5606 65.6331 86.488 65.9204 86.4068 66.205Z" fill="#6C6C6C"/>
<path d="M72.9082 68.4936C72.7714 68.5317 72.618 68.4916 72.5195 68.3793C72.2047 68.0195 71.6989 67.9118 71.2652 68.1099C71.0747 68.1965 70.8494 68.1117 70.7603 67.9219C70.6737 67.7313 70.7577 67.5037 70.9483 67.4171C71.6919 67.0785 72.5528 67.2633 73.0907 67.8766C73.2303 68.0343 73.2143 68.2741 73.0566 68.4136C73.0129 68.4516 72.961 68.479 72.9082 68.4936Z" fill="#6C6C6C"/>
<path d="M72.9159 68.4985C72.8079 68.5285 72.6896 68.5123 72.5922 68.4411C72.4215 68.3204 72.3814 68.0833 72.5014 67.9104C72.9683 67.2556 73.8249 66.9788 74.5843 67.2357C74.7844 67.3042 74.8911 67.5202 74.825 67.7196C74.7559 67.9173 74.5405 68.0262 74.3404 67.9577C73.8951 67.8074 73.3946 67.9698 73.1237 68.3528C73.0718 68.4267 72.9975 68.4758 72.9159 68.4985Z" fill="#6C6C6C"/>
<path d="M69.2868 73.469C69.1294 73.4252 68.9629 73.4281 68.8326 73.4902C68.6039 73.5947 68.5748 73.8348 68.7659 74.0276C69.5079 74.7588 70.76 75.1456 71.8109 74.9697C72.0877 74.9225 72.214 74.7119 72.0965 74.4982C71.9748 74.286 71.6553 74.1481 71.3785 74.1952C70.7623 74.2981 70.0306 74.0714 69.5997 73.6439C69.5172 73.5615 69.4056 73.502 69.2868 73.469Z" fill="#6C6C6C"/>
<path d="M72.9528 70.9667C72.9256 70.9743 72.8983 70.9784 72.8709 70.9791C72.6597 70.9913 72.4801 70.8292 72.4685 70.6204C72.4068 69.4509 72.3888 68.9775 72.3687 68.0782C72.3643 67.8674 72.5301 67.692 72.7409 67.6877C72.9518 67.6834 73.1255 67.8523 73.1292 68.0607C73.1491 68.9498 73.1688 69.42 73.2303 70.5793C73.2393 70.7604 73.1208 70.92 72.9528 70.9667Z" fill="#6C6C6C"/>
<g opacity="0.3">
<g opacity="0.3">
<path opacity="0.3" d="M62.4096 69.3115C63.242 70.9366 65.2614 72.0223 67.0291 73.0125C63.7826 72.5411 61.9678 71.5708 61.5848 70.1018C61.3528 69.101 61.1502 68.9867 62.4096 69.3115Z" fill="#6C6C6C"/>
</g>
</g>
<path fill-rule="evenodd" clip-rule="evenodd" d="M75.1342 78.0044C74.0804 78.2973 73.0032 78.5062 71.9308 78.6207C71.9176 78.6226 71.9039 78.623 71.8898 78.6218C64.0909 78.6434 58.0413 75.3888 57.8165 71.0505C57.7572 69.8801 58.1221 68.7289 58.9032 67.6327C58.3509 66.271 58.0319 64.8367 57.9561 63.3658C57.9105 62.4865 57.9542 61.6029 58.0831 60.7371C58.093 60.68 58.1122 60.6282 58.1437 60.5832C60.3426 57.2778 64.0509 54.7034 68.3189 53.5171C72.1499 52.4522 76.13 52.5638 79.5319 53.8316C82.9344 55.1017 85.4741 57.4159 86.6754 60.3477C86.6867 60.3756 86.6944 60.4036 86.6988 60.4317C86.778 60.9113 86.8314 61.4007 86.8551 61.8853C86.9309 63.3562 86.7627 64.8147 86.3515 66.2271C86.5814 66.4864 86.7832 66.7561 86.9579 67.0307C87.0172 67.1228 87.0329 67.2348 87.003 67.3414C86.3162 69.7146 84.8666 71.9585 82.8077 73.834C80.7015 75.7536 78.0483 77.1944 75.1342 78.0044ZM71.8697 77.862C72.8938 77.7506 73.9247 77.5519 74.9305 77.2724C80.5018 75.7238 84.8115 71.9092 86.2226 67.2971C86.0559 67.0513 85.8628 66.8128 85.6457 66.581C85.5537 66.4824 85.5214 66.3388 85.5627 66.2084C85.9909 64.8198 86.1692 63.3792 86.0951 61.9234C86.0731 61.4822 86.0238 61.0356 85.956 60.5968C83.577 54.874 76.0942 52.1471 68.5233 54.2515C64.4593 55.3811 60.931 57.8123 58.8258 60.934C58.7118 61.7233 58.6745 62.5275 58.7162 63.3278C58.7921 64.7806 59.1167 66.1978 59.6883 67.536C59.7412 67.6609 59.722 67.8059 59.6408 67.9138C58.8809 68.9188 58.524 69.9592 58.579 71.0118C58.7783 74.8685 64.614 77.8748 71.8697 77.862Z" fill="#6C6C6C"/>
<path d="M50.0584 61.7892C52.0542 61.5266 53.9222 63.2026 54.2299 65.5346C54.5376 67.8666 53.1702 69.9687 51.1745 70.2312C49.1794 70.4962 47.3106 68.8179 47.0029 66.4858C46.6952 64.1538 48.065 62.0511 50.0584 61.7892Z" fill="white"/>
<path fill-rule="evenodd" clip-rule="evenodd" d="M51.735 70.588C51.5718 70.6334 51.4044 70.667 51.2329 70.6888C50.1354 70.8336 49.0396 70.4737 48.1504 69.6762C47.2817 68.8964 46.7137 67.7847 46.5511 66.55C46.2084 63.9718 47.7589 61.6352 49.9985 61.3385C52.2413 61.0435 54.3433 62.9 54.6835 65.479C54.8461 66.7137 54.5858 67.934 53.9503 68.9122C53.3996 69.7582 52.6255 70.3405 51.735 70.588ZM49.7495 62.3204C48.2108 62.7481 47.2018 64.5024 47.4565 66.4303C47.5904 67.4505 48.0534 68.3613 48.7605 68.9973C49.449 69.6126 50.2846 69.8923 51.1153 69.7829C51.9436 69.6742 52.6797 69.1878 53.1833 68.4143C53.7009 67.6163 53.9114 66.6167 53.7774 65.5964C53.5019 63.5192 51.8602 62.0156 50.1186 62.2437C49.9925 62.2615 49.8695 62.2871 49.7495 62.3204Z" fill="#64EDFF"/>
<path d="M49.6385 70.058C48.3021 69.5581 47.2392 68.2014 47.012 66.4934C46.7584 64.5601 47.6557 62.7852 49.1055 62.0849C49.1823 62.0635 49.2635 62.0487 49.3461 62.0387C50.9352 61.8297 52.4582 63.4645 52.7546 65.691C53.048 67.9158 51.9994 69.8904 50.4103 70.0994C50.1489 70.1359 49.891 70.1197 49.6385 70.058Z" fill="white"/>
<path fill-rule="evenodd" clip-rule="evenodd" d="M50.8055 70.4067C50.6919 70.4383 50.5769 70.4616 50.4604 70.4768C50.1586 70.5167 49.8517 70.5012 49.5494 70.4275C49.5348 70.4246 49.5197 70.4202 49.5043 70.4142C47.9975 69.8505 46.871 68.3304 46.6345 66.5423C46.3659 64.4993 47.3111 62.525 48.9388 61.739C48.9619 61.7291 48.9863 61.7206 49.0119 61.7135C49.1086 61.6892 49.2042 61.6704 49.2963 61.6577C51.0879 61.4235 52.8077 63.2078 53.1301 65.6392C53.2833 66.7937 53.1023 67.9274 52.6238 68.8283C52.188 69.6501 51.5496 70.1999 50.8055 70.4067ZM49.7481 69.6922C49.9525 69.7388 50.1595 69.7485 50.3588 69.7216C51.0022 69.6358 51.5665 69.192 51.9507 68.4724C52.356 67.7082 52.5075 66.7378 52.3741 65.7381C52.108 63.7229 50.7726 62.2325 49.3955 62.4136C49.3425 62.4214 49.2892 62.4311 49.2355 62.4426C47.9212 63.1001 47.1641 64.7377 47.3906 66.4433C47.5893 67.9472 48.5121 69.2187 49.7481 69.6922Z" fill="#64EDFF"/>
<path d="M60.8268 49.2109C61.8536 50.8932 61.0541 51.3844 59.2279 50.5836C57.8793 49.994 56.4595 49.9103 55.1238 49.9428C53.5732 48.9155 54.6135 46.7621 57.0854 47.0394C58.3089 47.1053 59.848 47.6084 60.8268 49.2109Z" fill="white"/>
<path fill-rule="evenodd" clip-rule="evenodd" d="M61.0273 51.365C60.5616 51.4944 59.8995 51.3733 59.0505 50.9991C57.7197 50.4175 56.3274 50.3675 55.1409 50.3973C55.0478 50.3974 54.9553 50.3714 54.8765 50.3209C54.0773 49.7906 53.7537 48.9161 54.053 48.096C54.3747 47.2076 55.4522 46.3961 57.1304 46.5812C58.1548 46.6378 60.0366 47.0249 61.2245 48.9701C61.8009 49.9166 61.8987 50.6212 61.5109 51.0677C61.3837 51.2116 61.2225 51.3107 61.0273 51.365ZM55.2732 49.4789C56.4624 49.4586 57.9774 49.5314 59.4177 50.1627C60.381 50.5853 60.7707 50.508 60.8234 50.465C60.821 50.4656 60.9141 50.2148 60.444 49.4457C59.4696 47.8496 57.9114 47.5381 57.0687 47.493C57.0598 47.4921 57.0509 47.4911 57.042 47.4901C55.8488 47.3563 55.1136 47.8555 54.9106 48.4083C54.7693 48.8019 54.8991 49.1847 55.2732 49.4789Z" fill="#64EDFF"/>
<path d="M80.9682 47.8634C81.1392 48.2735 80.8694 48.7441 80.4683 48.9383C80.0703 49.1343 79.5286 49.065 79.314 48.6748C78.4351 47.0781 76.7742 45.7376 75.0582 45.0821C76.7339 43.4373 78.9687 43.0023 80.9682 47.8634Z" fill="white"/>
<path fill-rule="evenodd" clip-rule="evenodd" d="M80.4179 49.4413C79.873 49.5928 79.209 49.4464 78.9055 48.8947C78.1098 47.4482 76.569 46.1492 74.8885 45.5097C74.7438 45.4542 74.6365 45.3289 74.604 45.1751C74.5722 45.0236 74.6188 44.8659 74.7308 44.7572C75.7601 43.7445 76.7975 43.3372 77.8119 43.5439C79.1643 43.8222 80.3666 45.2152 81.3859 47.6882C81.6359 48.2987 81.3191 49.0279 80.6632 49.3473C80.5863 49.3868 80.5019 49.418 80.4179 49.4413ZM75.8996 44.952C77.5004 45.7326 78.9207 47.0262 79.7063 48.4549C79.7901 48.6074 80.0727 48.6194 80.2619 48.528C80.4505 48.4342 80.6095 48.2065 80.5391 48.0373C79.6579 45.8931 78.6493 44.6479 77.6295 44.4401C77.0861 44.3275 76.5061 44.5016 75.8996 44.952Z" fill="#64EDFF"/>
<g opacity="0.3">
<g opacity="0.3">
<path opacity="0.3" d="M48.6138 66.4147C48.7848 68.0322 49.7438 69.4618 51.1752 70.2378C49.0447 70.2947 47.226 68.7034 47.0007 66.5838C46.7754 64.4643 48.2173 62.5277 50.3141 62.1362C49.0775 63.1935 48.4423 64.7947 48.6138 66.4147Z" fill="#6C6C6C"/>
</g>
</g>
<g opacity="0.3">
<g opacity="0.3">
<path opacity="0.3" d="M79.0165 48.9684C77.7225 47.7819 76.009 46.8533 73.8759 46.1827C72.7491 44.8101 73.1455 44.4413 75.0677 45.0758C76.2532 45.2841 77.5708 46.5804 79.0165 48.9684Z" fill="#6C6C6C"/>
</g>
</g>
<g opacity="0.3">
<g opacity="0.3">
<path opacity="0.3" d="M54.6261 47.9512C54.9869 47.3519 55.7432 47.1235 56.375 47.4237C55.9633 47.3571 55.5673 47.6068 55.451 48.0063C55.3376 48.4076 55.5053 48.9634 55.9196 48.9931C57.6283 49.1206 59.316 49.5074 60.9716 50.5495C60.2859 50.8176 58.2895 50.5486 54.9824 49.7423C54.4195 49.3273 54.2654 48.5505 54.6261 47.9512Z" fill="#6C6C6C"/>
</g>
</g>
<g opacity="0.3">
<g opacity="0.3">
<path opacity="0.3" d="M75.8953 44.5478C78.4545 45.6533 79.8335 47.0928 80.0323 48.8664C78.6974 47.4706 77.2179 46.2616 75.5938 45.2392C75.5501 45.2496 75.6506 45.0192 75.8953 44.5478Z" fill="#6C6C6C"/>
</g>
</g>
<g opacity="0.3">
<g opacity="0.3">
<path opacity="0.3" d="M86.3553 66.8334C85.0656 71.51 80.6809 75.7152 74.711 77.3746C66.4391 79.6738 58.2543 76.2189 56.4288 69.6595C55.5978 66.6739 56.2258 63.5594 57.9401 60.8359C57.4406 62.6373 57.4038 64.5119 57.9114 66.3359C59.737 72.8952 67.9241 76.3495 76.1961 74.0503C77.4395 73.7047 78.6136 73.2491 79.7047 72.7001C79.2847 72.6592 78.8515 72.5986 78.4054 72.5105C79.9728 72.1024 81.5066 71.4279 83.0067 70.4869C83.001 70.5221 82.9922 70.5555 82.9882 70.5877C84.3536 69.4816 85.4939 68.2079 86.3553 66.8334Z" fill="#6C6C6C"/>
</g>
</g>
<path fill-rule="evenodd" clip-rule="evenodd" d="M74.7961 77.6685C66.3754 80.009 58.005 76.4532 56.1373 69.7428C54.2696 63.0323 59.6008 55.6681 68.0215 53.3275C76.4422 50.9869 84.8127 54.5427 86.6803 61.2532C88.548 67.9637 83.2168 75.3279 74.7961 77.6685ZM68.1845 53.9131C60.0879 56.1636 54.9479 63.1928 56.7254 69.5793C58.5029 75.9657 66.5358 79.331 74.6325 77.0805C82.7291 74.83 87.8697 67.8031 86.0922 61.4167C84.3148 55.0302 76.2812 51.6626 68.1845 53.9131Z" fill="#6C6C6C"/>
<path d="M79.4625 63.368C79.3494 64.8474 78.4847 65.9306 77.5294 65.7876C76.5766 65.6439 75.8926 64.3291 76.0058 62.8497C76.1189 61.3703 76.9837 60.2871 77.9389 60.4301C78.8941 60.5732 79.5757 61.8886 79.4625 63.368Z" fill="#6C6C6C"/>
<path d="M78.6992 61.7176C78.8488 62.2087 78.7241 62.7087 78.4228 62.8338C78.1208 62.9566 77.7556 62.6573 77.6054 62.1639C77.4582 61.6722 77.5821 61.1697 77.8841 61.047C78.1862 60.9242 78.5513 61.2235 78.6992 61.7176Z" fill="white"/>
<path d="M77.381 64.4252C77.5057 64.6595 77.4924 64.9372 77.3521 65.046C77.2086 65.1531 76.9913 65.0506 76.8666 64.8164C76.742 64.5822 76.7552 64.3044 76.898 64.1949C77.039 64.0885 77.2563 64.191 77.381 64.4252Z" fill="white"/>
<path d="M67.1392 61.2784C68.0493 61.0642 68.968 62.0422 69.1917 63.459C69.4185 64.8776 68.8629 66.1981 67.9545 66.4092C67.0468 66.6227 66.1257 65.6453 65.902 64.2285C65.6777 62.8093 66.2309 61.4895 67.1392 61.2784Z" fill="#6C6C6C"/>
<path d="M67.2504 61.855C67.5509 61.9498 67.7109 62.4225 67.6058 62.9093C67.5008 63.3962 67.1732 63.7148 66.872 63.6175C66.5715 63.5226 66.4115 63.05 66.5165 62.5632C66.6215 62.0763 66.9498 61.7601 67.2504 61.855Z" fill="white"/>
<path d="M68.4352 64.8309C68.5827 64.9243 68.6182 65.1911 68.5156 65.4265C68.413 65.6619 68.213 65.7795 68.0655 65.6861C67.9203 65.592 67.8849 65.3252 67.9874 65.0898C68.09 64.8544 68.2907 64.7392 68.4352 64.8309Z" fill="white"/>
<g opacity="0.2">
<g opacity="0.2">
<g opacity="0.2">
<path opacity="0.2" d="M58.7646 66.0231C58.5296 65.1601 58.3838 64.2645 58.3357 63.3392C58.2904 62.47 58.3349 61.6172 58.4604 60.7859C60.5397 57.6634 64.0571 55.0902 68.4212 53.8772C76.2156 51.7107 83.9318 54.6524 86.3235 60.486C86.4004 60.9482 86.4516 61.4201 86.4763 61.8993C86.4782 61.9247 86.477 61.9483 86.4789 61.9736C83.8649 56.4656 76.3656 53.7455 68.792 55.8506C64.4279 57.0636 60.9105 59.6368 58.8312 62.7593C58.7057 63.5906 58.6612 64.4434 58.7065 65.3126C58.7189 65.5522 58.7402 65.7868 58.7646 66.0231Z" fill="#6C6C6C"/>
</g>
</g>
<g opacity="0.2">
<g opacity="0.2">
<path opacity="0.2" d="M86.5973 67.156C86.6142 67.1797 86.6312 67.2035 86.6457 67.2278C86.5641 67.5108 86.4716 67.7916 86.3682 68.0703C86.4551 67.7695 86.5329 67.4635 86.5973 67.156Z" fill="#6C6C6C"/>
</g>
</g>
<g opacity="0.2">
<g opacity="0.2">
<path opacity="0.2" d="M58.5745 72.5815C58.3613 72.0849 58.2345 71.5642 58.207 71.0289C58.1517 69.9661 58.4852 68.9349 59.1355 67.9733C59.2911 68.5506 59.4836 69.1124 59.715 69.6557C59.0212 70.5725 58.6212 71.5602 58.5745 72.5815Z" fill="#6C6C6C"/>
</g>
</g>
</g>
<path fill-rule="evenodd" clip-rule="evenodd" d="M65.4456 40.2677C65.1148 41.7684 65.3957 43.2375 65.7596 44.1448L66.5888 43.8125C66.2779 43.0372 66.0332 41.7523 66.318 40.4599C66.5978 39.1908 67.3909 37.8924 69.2047 37.0349L68.8227 36.2276C66.7455 37.2097 65.7815 38.7437 65.4456 40.2677Z" fill="#64EDFF"/>
<path d="M67.2495 36.9768C67.4781 37.7985 68.3299 38.2794 69.152 38.0509C69.9741 37.8223 70.4552 36.9708 70.2265 36.1491C69.9979 35.3273 69.1461 34.8464 68.324 35.075C67.5019 35.3035 67.0208 36.155 67.2495 36.9768Z" fill="#64EDFF"/>
<path fill-rule="evenodd" clip-rule="evenodd" d="M61.4978 38.6594C61.4974 38.6593 61.4989 38.6632 61.5036 38.6712C61.5006 38.6635 61.4982 38.6595 61.4978 38.6594ZM61.7597 38.9428C61.9606 38.9032 62.2281 38.8749 62.5646 38.8689C63.5381 38.8515 64.885 39.0231 66.3591 39.408C67.8333 39.7928 69.0921 40.3014 69.9328 40.7924C70.2233 40.9621 70.4428 41.1176 70.5987 41.2504C70.3978 41.29 70.1303 41.3183 69.7939 41.3243C68.8203 41.3417 67.4734 41.17 65.9993 40.7852C64.5252 40.4003 63.2663 39.8918 62.4256 39.4007C62.1351 39.231 61.9156 39.0756 61.7597 38.9428ZM70.9658 41.1311C70.9654 41.131 70.9614 41.1333 70.955 41.1386C70.963 41.1339 70.9662 41.1313 70.9658 41.1311ZM70.8606 41.5338C70.861 41.5338 70.8596 41.53 70.8549 41.5219C70.8578 41.5297 70.8602 41.5337 70.8606 41.5338ZM61.4034 39.0545C61.3954 39.0592 61.3922 39.0619 61.3926 39.062C61.393 39.0622 61.397 39.0598 61.4034 39.0545ZM65.7735 41.6492C62.7138 40.8505 60.415 39.5078 60.6391 38.6503C60.8631 37.7927 63.5251 37.7451 66.5849 38.5439C69.6446 39.3427 71.9434 40.6854 71.7193 41.5429C71.4953 42.4004 68.8333 42.448 65.7735 41.6492Z" fill="#64EDFF"/>
<path d="M75.52 113.383L69.2475 113.488L69.7797 107.861L77.4846 107.361L82.0845 107.465C84.0499 108.238 88.0648 111.813 87.9394 112.168C87.8191 112.509 87.1851 112.71 86.6668 112.381C86.6448 112.367 86.6229 112.352 86.6013 112.336C86.4968 112.859 86.0966 112.946 85.2841 112.671C85.1796 113.193 84.5106 113.277 83.9669 113.005C83.8624 113.528 83.3607 113.591 82.6288 113.173C82.6288 113.173 80.3209 112.009 78.7606 112.128C77.4074 112.231 75.52 113.383 75.52 113.383Z" fill="url(#paint43_linear_25461_74553)"/>
<path fill-rule="evenodd" clip-rule="evenodd" d="M86.5992 112.335C84.7742 110.81 83.1706 109.986 81.058 108.782C80.8698 108.636 81.0162 108.447 81.2044 108.594C83.3312 109.806 84.5472 110.482 86.3901 112.022C86.5285 112.157 86.5477 112.11 86.5992 112.335ZM85.282 112.67C83.3988 111.334 82.2777 110.742 80.0988 109.901C79.9136 109.83 79.8036 109.618 79.9709 109.598C82.1659 110.445 83.1595 110.999 85.0729 112.357C85.1811 112.433 85.2113 112.532 85.282 112.67ZM79.1144 110.894C81.2778 111.487 82.2069 111.641 83.7563 112.691C83.8398 112.748 83.899 112.88 83.9654 113.005C82.4552 111.981 81.209 111.642 79.0697 111.056C78.9452 110.915 78.9466 110.915 79.1144 110.894Z" fill="#D7631E"/>
<g opacity="0.3" filter="url(#filter7_f_25461_74553)">
<ellipse cx="23.6016" cy="0.944066" rx="23.6016" ry="0.944066" transform="matrix(0.998211 -0.0597916 -0.0597916 -0.998211 110.367 121.624)" fill="black"/>
</g>
<path d="M45.2926 109.822C44.4381 106.683 45.2529 83.9518 49.3779 81.2715C51.845 79.0984 59.2938 83.1228 58.7837 88.7288L56.3365 103.436L71.9451 106.487L72.9783 114.744C64.396 115.001 59.5796 115.036 50.9065 114.125C48.2043 113.666 45.8266 111.784 45.2926 109.822Z" fill="url(#paint44_linear_25461_74553)" stroke="#64EDFF" stroke-width="0.944066"/>
<g opacity="0.3" filter="url(#filter8_f_25461_74553)">
<ellipse cx="17.7012" cy="0.944066" rx="17.7012" ry="0.944066" transform="matrix(1 0 0 -1 47.4922 115.493)" fill="black"/>
</g>
<path d="M157.477 62.6255H109.857C109.393 62.6255 108.998 62.962 108.925 63.4196L101.481 109.679C101.388 110.253 101.832 110.773 102.413 110.773H151.112L157.477 62.6255Z" fill="#F6F7FB"/>
<path d="M160.308 62.6255H112.28C111.817 62.6255 111.423 62.9613 111.348 63.4183L103.842 109.678C103.749 110.252 104.192 110.773 104.774 110.773H153.89L160.308 62.6255Z" fill="#D9DEED"/>
<path d="M131.281 90.0034H126.797L128.685 110.773H137.182L139.542 90.0034H131.281Z" fill="#6B7179"/>
<path fill-rule="evenodd" clip-rule="evenodd" d="M139.535 90.0034H131.274L134.106 112.897C134.578 117.617 132.454 119.269 127.97 120.214H142.131C147.559 119.977 149.683 114.313 148.031 109.829L139.535 90.0034Z" fill="#F6F7FB"/>
<path d="M131.274 90.0034H126.79V91.6555H129.622C130.094 91.6555 130.33 91.8915 130.33 92.3636L132.218 113.369C132.218 115.729 130.33 118.325 127.734 118.325H115.461V120.214H127.97C132.454 119.269 134.578 117.617 134.106 112.897L131.274 90.0034Z" fill="#AFB9C8"/>
<path d="M80.3425 101.711C80.3277 101.695 80.5705 101.732 80.925 101.574C81.11 101.487 81.3123 101.325 81.4713 101.07C81.5353 100.95 81.6002 100.799 81.635 100.632C81.6542 100.481 81.6441 100.282 81.6489 100.1C81.6893 98.5469 81.732 96.324 81.8034 93.584C81.8214 92.8939 81.8351 92.1732 81.8445 91.422C81.854 91.0566 81.6957 90.7022 81.4128 90.4511C81.2634 90.3405 81.0983 90.2448 80.9164 90.2096C80.735 90.1592 80.5367 90.1693 80.3236 90.1637C78.71 90.1217 76.9898 90.0768 75.1631 90.0292C71.5249 89.9344 67.5214 89.8301 63.3352 89.721C62.8328 89.7079 62.3522 90.0305 62.1728 90.4828C62.0603 90.7084 62.0692 90.9524 62.0625 91.2111C62.0558 91.4648 62.0491 91.7236 62.0422 91.9875C62.0158 93.0023 61.9896 94.007 61.9637 95.0016C61.9378 95.9961 61.9125 96.9653 61.8879 97.9091C61.8755 98.386 61.8632 98.8579 61.851 99.3248C61.8451 99.5531 61.8235 99.7963 61.8328 100.025C61.8424 100.239 61.913 100.454 62.0304 100.624C62.2645 100.996 62.6855 101.205 63.1126 101.186C63.5591 101.197 63.9955 101.209 64.4217 101.22C65.2841 101.252 66.1212 101.279 66.933 101.3C68.5466 101.342 70.0537 101.382 71.4389 101.418C74.1786 101.504 76.4007 101.578 77.9534 101.618C78.7145 101.638 79.3078 101.669 79.7188 101.679C79.9218 101.685 80.074 101.689 80.1755 101.691C80.2463 101.703 80.3019 101.71 80.3425 101.711C80.3019 101.71 80.246 101.713 80.1747 101.722C80.0732 101.719 79.921 101.715 79.718 101.71C79.307 101.699 78.7129 101.699 77.9518 101.679C76.3991 101.638 74.1762 101.596 71.4357 101.54C70.0505 101.503 68.5435 101.464 66.9299 101.422C66.118 101.401 65.2806 101.384 64.4177 101.372C63.9915 101.361 63.5551 101.349 63.1086 101.338C62.6511 101.356 62.17 101.115 61.9063 100.712C61.7744 100.511 61.6894 100.265 61.6806 100.021C61.6869 99.7775 61.6925 99.5644 61.6988 99.3208C61.711 98.854 61.7233 98.3821 61.7357 97.9051C61.7603 96.9613 61.7855 95.9921 61.8115 94.9976C61.8374 94.0031 61.8636 92.9984 61.89 91.9835C61.8969 91.7197 61.9036 91.4609 61.9102 91.2072C61.9166 90.9636 61.9089 90.674 62.0222 90.418C62.2336 89.9056 62.7763 89.5389 63.3391 89.5688C67.5253 89.6779 71.5289 89.7822 75.1671 89.877C76.9934 89.9398 78.7135 89.9847 80.3271 90.0267C80.525 90.0319 80.7385 90.0222 80.9505 90.0734C81.1472 90.1242 81.3423 90.236 81.4913 90.3617C81.8043 90.6288 81.9766 91.0294 81.9663 91.4251C81.9467 92.1761 81.928 92.8967 81.91 93.5868C81.8234 96.3264 81.7654 98.5489 81.7098 100.101C81.705 100.284 81.7155 100.467 81.6803 100.649C81.6454 100.815 81.5806 100.966 81.5009 101.101C81.3419 101.356 81.1244 101.518 80.9398 101.589C80.7547 101.676 80.6017 101.702 80.4948 101.715C80.4237 101.713 80.373 101.712 80.3425 101.711Z" fill="#64EDFF"/>
<path d="M80.3425 101.711C80.3277 101.695 80.5705 101.732 80.925 101.574C81.11 101.487 81.3123 101.325 81.4713 101.07C81.5353 100.95 81.6002 100.799 81.635 100.632C81.6542 100.481 81.6441 100.282 81.6489 100.1C81.6893 98.5469 81.732 96.324 81.8034 93.584C81.8214 92.8939 81.8351 92.1732 81.8445 91.422C81.854 91.0566 81.6957 90.7022 81.4128 90.4511C81.2634 90.3405 81.0983 90.2448 80.9164 90.2096C80.735 90.1592 80.5367 90.1693 80.3236 90.1637C78.71 90.1217 76.9898 90.0768 75.1631 90.0292C71.5249 89.9344 67.5214 89.8301 63.3352 89.721C62.8328 89.7079 62.3522 90.0305 62.1728 90.4828C62.0603 90.7084 62.0692 90.9524 62.0625 91.2111C62.0558 91.4648 62.0491 91.7236 62.0422 91.9875C62.0158 93.0023 61.9896 94.007 61.9637 95.0016C61.9378 95.9961 61.9125 96.9653 61.8879 97.9091C61.8755 98.386 61.8632 98.8579 61.851 99.3248C61.8451 99.5531 61.8235 99.7963 61.8328 100.025C61.8424 100.239 61.913 100.454 62.0304 100.624C62.2645 100.996 62.6855 101.205 63.1126 101.186C63.5591 101.197 63.9955 101.209 64.4217 101.22C65.2841 101.252 66.1212 101.279 66.933 101.3C68.5466 101.342 70.0537 101.382 71.4389 101.418C74.1786 101.504 76.4007 101.578 77.9534 101.618C78.7145 101.638 79.3078 101.669 79.7188 101.679C79.9218 101.685 80.074 101.689 80.1755 101.691C80.2463 101.703 80.3019 101.71 80.3425 101.711ZM80.3425 101.711C80.3019 101.71 80.246 101.713 80.1747 101.722C80.0732 101.719 79.921 101.715 79.718 101.71C79.307 101.699 78.7129 101.699 77.9518 101.679C76.3991 101.638 74.1762 101.596 71.4357 101.54C70.0505 101.503 68.5435 101.464 66.9299 101.422C66.118 101.401 65.2806 101.384 64.4177 101.372C63.9915 101.361 63.5551 101.349 63.1086 101.338C62.6511 101.356 62.17 101.115 61.9063 100.712C61.7744 100.511 61.6894 100.265 61.6806 100.021C61.6869 99.7775 61.6925 99.5644 61.6988 99.3208C61.711 98.854 61.7233 98.3821 61.7357 97.9051C61.7603 96.9613 61.7855 95.9921 61.8115 94.9976C61.8374 94.0031 61.8636 92.9984 61.89 91.9835C61.8969 91.7197 61.9036 91.4609 61.9102 91.2072C61.9166 90.9636 61.9089 90.674 62.0222 90.418C62.2336 89.9056 62.7763 89.5389 63.3391 89.5688C67.5253 89.6779 71.5289 89.7822 75.1671 89.877C76.9934 89.9398 78.7135 89.9847 80.3271 90.0267C80.525 90.0319 80.7385 90.0222 80.9505 90.0734C81.1472 90.1242 81.3423 90.236 81.4913 90.3617C81.8043 90.6288 81.9766 91.0294 81.9663 91.4251C81.9467 92.1761 81.928 92.8967 81.91 93.5868C81.8234 96.3264 81.7654 98.5489 81.7098 100.101C81.705 100.284 81.7155 100.467 81.6803 100.649C81.6454 100.815 81.5806 100.966 81.5009 101.101C81.3419 101.356 81.1244 101.518 80.9398 101.589C80.7547 101.676 80.6017 101.702 80.4948 101.715C80.4237 101.713 80.373 101.712 80.3425 101.711Z" stroke="#64EDFF" stroke-width="0.236016"/>
<path d="M64.8933 98.4576C65.2043 98.4657 65.4631 98.2201 65.4712 97.909C65.4793 97.5979 65.2337 97.3392 64.9226 97.3311C64.6115 97.323 64.3528 97.5686 64.3447 97.8796C64.3366 98.1907 64.5822 98.4494 64.8933 98.4576Z" fill="#64EDFF"/>
<path fill-rule="evenodd" clip-rule="evenodd" d="M64.8991 98.2339C65.0866 98.2388 65.2426 98.0907 65.2475 97.9032C65.2524 97.7156 65.1043 97.5596 64.9168 97.5548C64.7292 97.5499 64.5733 97.6979 64.5684 97.8855C64.5635 98.073 64.7116 98.229 64.8991 98.2339ZM65.4712 97.909C65.4631 98.2201 65.2043 98.4657 64.8933 98.4576C64.5822 98.4494 64.3366 98.1907 64.3447 97.8796C64.3528 97.5686 64.6115 97.323 64.9226 97.3311C65.2337 97.3392 65.4793 97.5979 65.4712 97.909Z" fill="#64EDFF"/>
<path d="M66.8073 98.5083C67.1184 98.5164 67.3771 98.2708 67.3852 97.9598C67.3933 97.6487 67.1477 97.39 66.8367 97.3819C66.5256 97.3738 66.2669 97.6194 66.2588 97.9304C66.2507 98.2415 66.4963 98.5002 66.8073 98.5083Z" fill="#64EDFF"/>
<path fill-rule="evenodd" clip-rule="evenodd" d="M66.8131 98.2847C67.0007 98.2895 67.1567 98.1415 67.1616 97.9539C67.1664 97.7664 67.0184 97.6104 66.8308 97.6055C66.6433 97.6007 66.4873 97.7487 66.4824 97.9362C66.4775 98.1238 66.6256 98.2798 66.8131 98.2847ZM67.3852 97.9598C67.3771 98.2708 67.1184 98.5164 66.8073 98.5083C66.4963 98.5002 66.2507 98.2415 66.2588 97.9304C66.2669 97.6194 66.5256 97.3738 66.8367 97.3819C67.1477 97.39 67.3933 97.6487 67.3852 97.9598Z" fill="#64EDFF"/>
<path d="M68.6667 98.5552C68.9778 98.5633 69.2365 98.3177 69.2446 98.0066C69.2527 97.6956 69.0071 97.4368 68.696 97.4287C68.385 97.4206 68.1262 97.6662 68.1181 97.9773C68.11 98.2884 68.3556 98.5471 68.6667 98.5552Z" fill="#64EDFF"/>
<path fill-rule="evenodd" clip-rule="evenodd" d="M68.6725 98.3315C68.8601 98.3364 69.016 98.1884 69.0209 98.0008C69.0258 97.8133 68.8778 97.6573 68.6902 97.6524C68.5027 97.6475 68.3467 97.7956 68.3418 97.9831C68.3369 98.1707 68.485 98.3266 68.6725 98.3315ZM69.2446 98.0066C69.2365 98.3177 68.9778 98.5633 68.6667 98.5552C68.3556 98.5471 68.11 98.2884 68.1181 97.9773C68.1262 97.6662 68.385 97.4206 68.696 97.4287C69.0071 97.4368 69.2527 97.6956 69.2446 98.0066Z" fill="#64EDFF"/>
<path d="M70.5026 98.6045C70.8137 98.6126 71.0724 98.367 71.0805 98.056C71.0887 97.7449 70.8431 97.4862 70.532 97.4781C70.2209 97.47 69.9622 97.7155 69.9541 98.0266C69.946 98.3377 70.1916 98.5964 70.5026 98.6045Z" fill="#64EDFF"/>
<path fill-rule="evenodd" clip-rule="evenodd" d="M70.5085 98.3809C70.696 98.3857 70.852 98.2377 70.8569 98.0501C70.8618 97.8626 70.7137 97.7066 70.5262 97.7017C70.3386 97.6968 70.1826 97.8449 70.1777 98.0324C70.1729 98.22 70.3209 98.376 70.5085 98.3809ZM71.0805 98.056C71.0724 98.367 70.8137 98.6126 70.5026 98.6045C70.1916 98.5964 69.946 98.3377 69.9541 98.0266C69.9622 97.7155 70.2209 97.47 70.532 97.4781C70.8431 97.4862 71.0887 97.7449 71.0805 98.056Z" fill="#64EDFF"/>
<path d="M70.3673 94.4763L65.2677 94.3434C64.9024 94.3338 64.6054 94.0367 64.6154 93.6561C64.6249 93.2908 64.9373 92.9943 65.3026 93.0038L70.4022 93.1367C70.7675 93.1462 71.064 93.4586 71.0545 93.8239C71.0446 94.2045 70.7326 94.4858 70.3673 94.4763Z" fill="#64EDFF"/>
<path fill-rule="evenodd" clip-rule="evenodd" d="M65.2735 94.1197L70.3731 94.2526C70.6182 94.259 70.8242 94.0718 70.8308 93.8181C70.8371 93.5763 70.6382 93.3666 70.3963 93.3603L65.2968 93.2275C65.055 93.2212 64.8453 93.4201 64.839 93.6619C64.8324 93.9157 65.0284 94.1133 65.2735 94.1197ZM65.2677 94.3434L70.3673 94.4763C70.7326 94.4858 71.0446 94.2045 71.0545 93.8239C71.064 93.4586 70.7675 93.1462 70.4022 93.1367L65.3026 93.0038C64.9373 92.9943 64.6249 93.2908 64.6154 93.6561C64.6054 94.0367 64.9024 94.3338 65.2677 94.3434Z" fill="#64EDFF"/>
<path d="M65.0573 96.3355C65.3684 96.3436 65.6271 96.098 65.6352 95.7869C65.6433 95.4759 65.3977 95.2171 65.0867 95.209C64.7756 95.2009 64.5169 95.4465 64.5088 95.7576C64.5007 96.0686 64.7462 96.3274 65.0573 96.3355Z" fill="#64EDFF"/>
<path fill-rule="evenodd" clip-rule="evenodd" d="M65.0631 96.1118C65.2507 96.1167 65.4067 95.9686 65.4116 95.7811C65.4164 95.5936 65.2684 95.4376 65.0808 95.4327C64.8933 95.4278 64.7373 95.5759 64.7324 95.7634C64.7275 95.9509 64.8756 96.1069 65.0631 96.1118ZM65.6352 95.7869C65.6271 96.098 65.3684 96.3436 65.0573 96.3355C64.7462 96.3274 64.5007 96.0686 64.5088 95.7576C64.5169 95.4465 64.7756 95.2009 65.0867 95.209C65.3977 95.2171 65.6433 95.4759 65.6352 95.7869Z" fill="#64EDFF"/>
<path d="M66.9558 96.3853C67.2668 96.3934 67.5256 96.1478 67.5337 95.8367C67.5418 95.5257 67.2962 95.2669 66.9851 95.2588C66.674 95.2507 66.4153 95.4963 66.4072 95.8074C66.3991 96.1184 66.6447 96.3772 66.9558 96.3853Z" fill="#64EDFF"/>
<path fill-rule="evenodd" clip-rule="evenodd" d="M66.9616 96.1616C67.1491 96.1665 67.3051 96.0184 67.31 95.8309C67.3149 95.6434 67.1668 95.4874 66.9793 95.4825C66.7917 95.4776 66.6358 95.6257 66.6309 95.8132C66.626 96.0007 66.774 96.1567 66.9616 96.1616ZM67.5337 95.8367C67.5256 96.1478 67.2668 96.3934 66.9558 96.3853C66.6447 96.3772 66.3991 96.1184 66.4072 95.8074C66.4153 95.4963 66.674 95.2507 66.9851 95.2588C67.2962 95.2669 67.5418 95.5257 67.5337 95.8367Z" fill="#64EDFF"/>
<path d="M68.8151 96.4336C69.1262 96.4417 69.3849 96.1961 69.393 95.8851C69.4012 95.574 69.1556 95.3153 68.8445 95.3072C68.5334 95.2991 68.2747 95.5446 68.2666 95.8557C68.2585 96.1668 68.5041 96.4255 68.8151 96.4336Z" fill="#64EDFF"/>
<path fill-rule="evenodd" clip-rule="evenodd" d="M68.821 96.21C69.0085 96.2148 69.1645 96.0668 69.1694 95.8792C69.1743 95.6917 69.0262 95.5357 68.8387 95.5308C68.6511 95.5259 68.4951 95.674 68.4902 95.8615C68.4854 96.0491 68.6334 96.2051 68.821 96.21ZM69.393 95.8851C69.3849 96.1961 69.1262 96.4417 68.8151 96.4336C68.5041 96.4255 68.2585 96.1668 68.2666 95.8557C68.2747 95.5446 68.5334 95.2991 68.8445 95.3072C69.1556 95.3153 69.4012 95.574 69.393 95.8851Z" fill="#64EDFF"/>
<path d="M70.6745 96.4805C70.9856 96.4886 71.2443 96.243 71.2524 95.9319C71.2605 95.6209 71.0149 95.3621 70.7039 95.354C70.3928 95.3459 70.1341 95.5915 70.1259 95.9026C70.1178 96.2137 70.3634 96.4724 70.6745 96.4805Z" fill="#64EDFF"/>
<path fill-rule="evenodd" clip-rule="evenodd" d="M70.6803 96.2568C70.8679 96.2617 71.0239 96.1137 71.0287 95.9261C71.0336 95.7386 70.8856 95.5826 70.698 95.5777C70.5105 95.5728 70.3545 95.7209 70.3496 95.9084C70.3447 96.096 70.4928 96.2519 70.6803 96.2568ZM71.2524 95.9319C71.2443 96.243 70.9856 96.4886 70.6745 96.4805C70.3634 96.4724 70.1178 96.2137 70.1259 95.9026C70.1341 95.5915 70.3928 95.3459 70.7039 95.354C71.0149 95.3621 71.2605 95.6209 71.2524 95.9319Z" fill="#64EDFF"/>
<path d="M78.5453 92.9016L75.4399 92.8207C75.1624 92.8135 74.9316 93.0325 74.9244 93.31L74.8435 96.4154C74.8363 96.6928 75.0553 96.9236 75.3327 96.9308L78.4381 97.0117C78.7156 97.019 78.9464 96.7999 78.9536 96.5225L79.0345 93.4171C79.0417 93.1396 78.8227 92.9089 78.5453 92.9016Z" fill="#64EDFF"/>
<path fill-rule="evenodd" clip-rule="evenodd" d="M78.5394 93.1253L75.434 93.0444C75.2801 93.0404 75.1521 93.1619 75.1481 93.3158L75.0672 96.4212C75.0631 96.5751 75.1847 96.7031 75.3386 96.7071L78.444 96.7881C78.5979 96.7921 78.7259 96.6706 78.7299 96.5166L78.8108 93.4112C78.8148 93.2573 78.6933 93.1293 78.5394 93.1253ZM75.4399 92.8207L78.5453 92.9016C78.8227 92.9089 79.0417 93.1396 79.0345 93.4171L78.9536 96.5225C78.9464 96.7999 78.7156 97.019 78.4381 97.0117L75.3327 96.9308C75.0553 96.9236 74.8363 96.6928 74.8435 96.4154L74.9244 93.31C74.9316 93.0325 75.1624 92.8135 75.4399 92.8207Z" fill="#64EDFF"/>
<path d="M78.6557 98.9742L75.0175 98.8794C74.6978 98.8711 74.4457 98.6056 74.4537 98.3011C74.462 97.9814 74.7275 97.7294 75.0472 97.7377L78.6854 97.8325C79.0051 97.8409 79.2571 98.1064 79.2488 98.4261C79.2409 98.7305 78.9753 98.9826 78.6557 98.9742Z" fill="#64EDFF"/>
<path fill-rule="evenodd" clip-rule="evenodd" d="M75.0233 98.6558L78.6615 98.7506C78.8615 98.7558 79.0205 98.5973 79.0251 98.4202C79.0302 98.2241 78.8757 98.0613 78.6796 98.0562L75.0414 97.9614C74.8452 97.9563 74.6825 98.1108 74.6773 98.3069C74.6727 98.484 74.8233 98.6505 75.0233 98.6558ZM75.0175 98.8794L78.6557 98.9742C78.9753 98.9826 79.2409 98.7305 79.2488 98.4261C79.2571 98.1064 79.0051 97.8409 78.6854 97.8325L75.0472 97.7377C74.7275 97.7294 74.462 97.9814 74.4537 98.3011C74.4457 98.6056 74.6978 98.8711 75.0175 98.8794Z" fill="#64EDFF"/>
<defs>
<filter id="filter0_f_25461_74553" x="6.96094" y="50.7949" width="183.734" height="131.067" filterUnits="userSpaceOnUse" color-interpolation-filters="sRGB">
<feFlood flood-opacity="0" result="BackgroundImageFix"/>
<feBlend mode="normal" in="SourceGraphic" in2="BackgroundImageFix" result="shape"/>
<feGaussianBlur stdDeviation="1" result="effect1_foregroundBlur_25461_74553"/>
</filter>
<filter id="filter1_f_25461_74553" x="72.2812" y="54.0068" width="134.633" height="177.642" filterUnits="userSpaceOnUse" color-interpolation-filters="sRGB">
<feFlood flood-opacity="0" result="BackgroundImageFix"/>
<feBlend mode="normal" in="SourceGraphic" in2="BackgroundImageFix" result="shape"/>
<feGaussianBlur stdDeviation="2" result="effect1_foregroundBlur_25461_74553"/>
</filter>
<filter id="filter2_f_25461_74553" x="-28.6953" y="30.4351" width="122.938" height="122.037" filterUnits="userSpaceOnUse" color-interpolation-filters="sRGB">
<feFlood flood-opacity="0" result="BackgroundImageFix"/>
<feBlend mode="normal" in="SourceGraphic" in2="BackgroundImageFix" result="shape"/>
<feGaussianBlur stdDeviation="0.5" result="effect1_foregroundBlur_25461_74553"/>
</filter>
<filter id="filter3_f_25461_74553" x="-46.9803" y="142.465" width="337.703" height="82.3898" filterUnits="userSpaceOnUse" color-interpolation-filters="sRGB">
<feFlood flood-opacity="0" result="BackgroundImageFix"/>
<feBlend mode="normal" in="SourceGraphic" in2="BackgroundImageFix" result="shape"/>
<feGaussianBlur stdDeviation="0.267491" result="effect1_foregroundBlur_25461_74553"/>
</filter>
<filter id="filter4_f_25461_74553" x="-50.4453" y="139" width="344.633" height="89.3198" filterUnits="userSpaceOnUse" color-interpolation-filters="sRGB">
<feFlood flood-opacity="0" result="BackgroundImageFix"/>
<feBlend mode="normal" in="SourceGraphic" in2="BackgroundImageFix" result="shape"/>
<feGaussianBlur stdDeviation="2" result="effect1_foregroundBlur_25461_74553"/>
</filter>
<filter id="filter5_f_25461_74553" x="-24.7891" y="23.1914" width="188.727" height="92.3965" filterUnits="userSpaceOnUse" color-interpolation-filters="sRGB">
<feFlood flood-opacity="0" result="BackgroundImageFix"/>
<feBlend mode="normal" in="SourceGraphic" in2="BackgroundImageFix" result="shape"/>
<feGaussianBlur stdDeviation="2" result="effect1_foregroundBlur_25461_74553"/>
</filter>
<filter id="filter6_f_25461_74553" x="71.0962" y="111.002" width="50.9872" height="12.2802" filterUnits="userSpaceOnUse" color-interpolation-filters="sRGB">
<feFlood flood-opacity="0" result="BackgroundImageFix"/>
<feBlend mode="normal" in="SourceGraphic" in2="BackgroundImageFix" result="shape"/>
<feGaussianBlur stdDeviation="0.944066" result="effect1_foregroundBlur_25461_74553"/>
</filter>
<filter id="filter7_f_25461_74553" x="107.48" y="114.741" width="52.7816" height="9.05892" filterUnits="userSpaceOnUse" color-interpolation-filters="sRGB">
<feFlood flood-opacity="0" result="BackgroundImageFix"/>
<feBlend mode="normal" in="SourceGraphic" in2="BackgroundImageFix" result="shape"/>
<feGaussianBlur stdDeviation="1.4161" result="effect1_foregroundBlur_25461_74553"/>
</filter>
<filter id="filter8_f_25461_74553" x="44.66" y="110.773" width="41.0706" height="7.55258" filterUnits="userSpaceOnUse" color-interpolation-filters="sRGB">
<feFlood flood-opacity="0" result="BackgroundImageFix"/>
<feBlend mode="normal" in="SourceGraphic" in2="BackgroundImageFix" result="shape"/>
<feGaussianBlur stdDeviation="1.4161" result="effect1_foregroundBlur_25461_74553"/>
</filter>
<linearGradient id="paint0_linear_25461_74553" x1="7.78036" y1="24.8015" x2="132.467" y2="180.923" gradientUnits="userSpaceOnUse">
<stop stop-color="#8264D4"/>
<stop offset="1" stop-color="#644E9F"/>
</linearGradient>
<linearGradient id="paint1_linear_25461_74553" x1="7.78036" y1="24.8015" x2="132.467" y2="180.923" gradientUnits="userSpaceOnUse">
<stop stop-color="#8264D4"/>
<stop offset="1" stop-color="#644E9F"/>
</linearGradient>
<linearGradient id="paint2_linear_25461_74553" x1="7.78036" y1="24.8015" x2="132.467" y2="180.923" gradientUnits="userSpaceOnUse">
<stop stop-color="#8264D4"/>
<stop offset="1" stop-color="#644E9F"/>
</linearGradient>
<linearGradient id="paint3_linear_25461_74553" x1="7.78036" y1="24.8024" x2="132.467" y2="180.924" gradientUnits="userSpaceOnUse">
<stop stop-color="#DC92FF"/>
<stop offset="1" stop-color="#8264D5"/>
</linearGradient>
<linearGradient id="paint4_linear_25461_74553" x1="7.78036" y1="24.8024" x2="132.467" y2="180.924" gradientUnits="userSpaceOnUse">
<stop stop-color="#DC92FF"/>
<stop offset="1" stop-color="#8264D5"/>
</linearGradient>
<linearGradient id="paint5_linear_25461_74553" x1="7.78036" y1="24.8024" x2="132.467" y2="180.924" gradientUnits="userSpaceOnUse">
<stop stop-color="#DC92FF"/>
<stop offset="1" stop-color="#8264D5"/>
</linearGradient>
<radialGradient id="paint6_radial_25461_74553" cx="0" cy="0" r="1" gradientUnits="userSpaceOnUse" gradientTransform="translate(32.7758 91.4543) rotate(-10.0594) scale(60.4701 59.9963)">
<stop stop-color="#FEE7CA"/>
<stop offset="1" stop-color="#FEE7CA" stop-opacity="0"/>
</radialGradient>
<linearGradient id="paint7_linear_25461_74553" x1="23.7242" y1="16.4208" x2="94.2431" y2="80.2748" gradientUnits="userSpaceOnUse">
<stop offset="0.137" stop-color="#3F7BDC"/>
<stop offset="1" stop-color="#F7D3A1"/>
</linearGradient>
<linearGradient id="paint8_linear_25461_74553" x1="122.141" y1="148.451" x2="122.141" y2="238.753" gradientUnits="userSpaceOnUse">
<stop stop-color="white"/>
<stop offset="1" stop-color="#709CFA"/>
</linearGradient>
<radialGradient id="paint9_radial_25461_74553" cx="0" cy="0" r="1" gradientUnits="userSpaceOnUse" gradientTransform="translate(119.329 142.865) scale(63.9983 63.9119)">
<stop stop-color="#372D98"/>
<stop offset="1" stop-color="#131724"/>
</radialGradient>
<radialGradient id="paint10_radial_25461_74553" cx="0" cy="0" r="1" gradientUnits="userSpaceOnUse" gradientTransform="translate(126.343 166.019) scale(13.1438 13.1261)">
<stop stop-color="#372D98"/>
<stop offset="1" stop-color="#131724"/>
</radialGradient>
<radialGradient id="paint11_radial_25461_74553" cx="0" cy="0" r="1" gradientUnits="userSpaceOnUse" gradientTransform="translate(130.406 165.84) scale(13.1438 13.1261)">
<stop stop-color="#372D98"/>
<stop offset="1" stop-color="#131724"/>
</radialGradient>
<radialGradient id="paint12_radial_25461_74553" cx="0" cy="0" r="1" gradientUnits="userSpaceOnUse" gradientTransform="translate(146.845 138.668) scale(51.6259 51.5562)">
<stop stop-color="#372D98"/>
<stop offset="1" stop-color="#131724"/>
</radialGradient>
<radialGradient id="paint13_radial_25461_74553" cx="0" cy="0" r="1" gradientUnits="userSpaceOnUse" gradientTransform="translate(146.852 136.949) scale(51.6259 51.5562)">
<stop stop-color="#372D98"/>
<stop offset="1" stop-color="#131724"/>
</radialGradient>
<radialGradient id="paint14_radial_25461_74553" cx="0" cy="0" r="1" gradientUnits="userSpaceOnUse" gradientTransform="translate(146.844 137.155) scale(52.7533 52.6821)">
<stop stop-color="#372D98"/>
<stop offset="1" stop-color="#131724"/>
</radialGradient>
<radialGradient id="paint15_radial_25461_74553" cx="0" cy="0" r="1" gradientUnits="userSpaceOnUse" gradientTransform="translate(146.846 136.117) scale(53.6138 53.5414)">
<stop stop-color="#372D98"/>
<stop offset="1" stop-color="#131724"/>
</radialGradient>
<radialGradient id="paint16_radial_25461_74553" cx="0" cy="0" r="1" gradientUnits="userSpaceOnUse" gradientTransform="translate(146.847 133.452) scale(57.4413 57.3638)">
<stop stop-color="#372D98"/>
<stop offset="1" stop-color="#131724"/>
</radialGradient>
<radialGradient id="paint17_radial_25461_74553" cx="0" cy="0" r="1" gradientUnits="userSpaceOnUse" gradientTransform="translate(146.851 135.943) scale(54.3556 54.2821)">
<stop stop-color="#372D98"/>
<stop offset="1" stop-color="#131724"/>
</radialGradient>
<radialGradient id="paint18_radial_25461_74553" cx="0" cy="0" r="1" gradientUnits="userSpaceOnUse" gradientTransform="translate(68.2224 164.804) scale(16.2295 16.2076)">
<stop stop-color="#372D98"/>
<stop offset="1" stop-color="#131724"/>
</radialGradient>
<radialGradient id="paint19_radial_25461_74553" cx="0" cy="0" r="1" gradientUnits="userSpaceOnUse" gradientTransform="translate(157.023 145.721) scale(16.4075 16.3854)">
<stop stop-color="#372D98"/>
<stop offset="1" stop-color="#131724"/>
</radialGradient>
<radialGradient id="paint20_radial_25461_74553" cx="0" cy="0" r="1" gradientUnits="userSpaceOnUse" gradientTransform="translate(163.461 152.417) scale(6.97245 6.96303)">
<stop stop-color="#372D98"/>
<stop offset="1" stop-color="#131724"/>
</radialGradient>
<radialGradient id="paint21_radial_25461_74553" cx="0" cy="0" r="1" gradientUnits="userSpaceOnUse" gradientTransform="translate(173.164 166.491) scale(6.97251 6.96306)">
<stop stop-color="#372D98"/>
<stop offset="1" stop-color="#131724"/>
</radialGradient>
<radialGradient id="paint22_radial_25461_74553" cx="0" cy="0" r="1" gradientUnits="userSpaceOnUse" gradientTransform="translate(182.625 157.16) scale(6.97245 6.96305)">
<stop stop-color="#372D98"/>
<stop offset="1" stop-color="#131724"/>
</radialGradient>
<radialGradient id="paint23_radial_25461_74553" cx="0" cy="0" r="1" gradientUnits="userSpaceOnUse" gradientTransform="translate(191.525 171.558) scale(7.23951 7.22974)">
<stop stop-color="#372D98"/>
<stop offset="1" stop-color="#131724"/>
</radialGradient>
<radialGradient id="paint24_radial_25461_74553" cx="0" cy="0" r="1" gradientUnits="userSpaceOnUse" gradientTransform="translate(188.915 157.958) scale(11.1856 11.1705)">
<stop stop-color="#372D98"/>
<stop offset="1" stop-color="#131724"/>
</radialGradient>
<radialGradient id="paint25_radial_25461_74553" cx="0" cy="0" r="1" gradientUnits="userSpaceOnUse" gradientTransform="translate(159.066 162.375) scale(11.1263 11.1113)">
<stop stop-color="#372D98"/>
<stop offset="1" stop-color="#131724"/>
</radialGradient>
<radialGradient id="paint26_radial_25461_74553" cx="0" cy="0" r="1" gradientUnits="userSpaceOnUse" gradientTransform="translate(92.4333 155.766) scale(9.8208 9.80753)">
<stop stop-color="#372D98"/>
<stop offset="1" stop-color="#131724"/>
</radialGradient>
<radialGradient id="paint27_radial_25461_74553" cx="0" cy="0" r="1" gradientUnits="userSpaceOnUse" gradientTransform="translate(90.9815 166.847) scale(9.82079 9.80753)">
<stop stop-color="#372D98"/>
<stop offset="1" stop-color="#131724"/>
</radialGradient>
<radialGradient id="paint28_radial_25461_74553" cx="0" cy="0" r="1" gradientUnits="userSpaceOnUse" gradientTransform="translate(95.0746 166.077) scale(6.11204 6.10377)">
<stop stop-color="#372D98"/>
<stop offset="1" stop-color="#131724"/>
</radialGradient>
<radialGradient id="paint29_radial_25461_74553" cx="0" cy="0" r="1" gradientUnits="userSpaceOnUse" gradientTransform="translate(86.4105 151.441) scale(6.11204 6.10378)">
<stop stop-color="#372D98"/>
<stop offset="1" stop-color="#131724"/>
</radialGradient>
<radialGradient id="paint30_radial_25461_74553" cx="0" cy="0" r="1" gradientUnits="userSpaceOnUse" gradientTransform="translate(75.248 166.077) scale(6.11204 6.10377)">
<stop stop-color="#372D98"/>
<stop offset="1" stop-color="#131724"/>
</radialGradient>
<radialGradient id="paint31_radial_25461_74553" cx="0" cy="0" r="1" gradientUnits="userSpaceOnUse" gradientTransform="translate(102.254 151.172) scale(16.2295 16.2076)">
<stop stop-color="#372D98"/>
<stop offset="1" stop-color="#131724"/>
</radialGradient>
<radialGradient id="paint32_radial_25461_74553" cx="0" cy="0" r="1" gradientUnits="userSpaceOnUse" gradientTransform="translate(109.279 152.447) scale(6.11204 6.10377)">
<stop stop-color="#372D98"/>
<stop offset="1" stop-color="#131724"/>
</radialGradient>
<radialGradient id="paint33_radial_25461_74553" cx="0" cy="0" r="1" gradientUnits="userSpaceOnUse" gradientTransform="translate(75.8734 154.285) scale(6.11204 6.10378)">
<stop stop-color="#372D98"/>
<stop offset="1" stop-color="#131724"/>
</radialGradient>
<linearGradient id="paint34_linear_25461_74553" x1="47.2169" y1="146.79" x2="56.2348" y2="184.621" gradientUnits="userSpaceOnUse">
<stop stop-color="#CCD3E8"/>
<stop offset="1" stop-color="#B4BBD1"/>
</linearGradient>
<linearGradient id="paint35_linear_25461_74553" x1="124.069" y1="145.282" x2="137.854" y2="186.982" gradientUnits="userSpaceOnUse">
<stop stop-color="#D9DEED"/>
<stop offset="1" stop-color="#B3B8C8"/>
</linearGradient>
<linearGradient id="paint36_linear_25461_74553" x1="56.9308" y1="122.339" x2="51.0303" y2="139.332" gradientUnits="userSpaceOnUse">
<stop stop-color="#D9DEED"/>
<stop offset="1" stop-color="#B8BECF"/>
</linearGradient>
<linearGradient id="paint37_linear_25461_74553" x1="104.134" y1="115.73" x2="108.618" y2="144.288" gradientUnits="userSpaceOnUse">
<stop stop-color="#B5B9C6"/>
<stop offset="1" stop-color="#C9CDDA"/>
</linearGradient>
<linearGradient id="paint38_linear_25461_74553" x1="73.2159" y1="113.37" x2="169.511" y2="113.606" gradientUnits="userSpaceOnUse">
<stop stop-color="#C6CBDB"/>
<stop offset="1" stop-color="#E4EBFF"/>
</linearGradient>
<linearGradient id="paint39_linear_25461_74553" x1="107.865" y1="107.931" x2="107.812" y2="113.664" gradientUnits="userSpaceOnUse">
<stop stop-color="#FE6C17"/>
<stop offset="1" stop-color="#FA9E57"/>
</linearGradient>
<linearGradient id="paint40_linear_25461_74553" x1="80.6165" y1="76.2454" x2="80.6165" y2="118.263" gradientUnits="userSpaceOnUse">
<stop stop-color="#595FDF"/>
<stop offset="1" stop-color="#474CB6"/>
</linearGradient>
<linearGradient id="paint41_linear_25461_74553" x1="80.4628" y1="76.3145" x2="80.4628" y2="118.388" gradientUnits="userSpaceOnUse">
<stop stop-color="#595FDF"/>
<stop offset="1" stop-color="#474CB6"/>
</linearGradient>
<linearGradient id="paint42_linear_25461_74553" x1="80.5285" y1="109.357" x2="80.5285" y2="114.549" gradientUnits="userSpaceOnUse">
<stop stop-color="#727272"/>
<stop offset="1" stop-color="white"/>
</linearGradient>
<linearGradient id="paint43_linear_25461_74553" x1="77.9057" y1="107.308" x2="78.7481" y2="114.041" gradientUnits="userSpaceOnUse">
<stop stop-color="#FE6C17"/>
<stop offset="1" stop-color="#FA9E57"/>
</linearGradient>
<linearGradient id="paint44_linear_25461_74553" x1="55.2211" y1="81.1907" x2="59.6286" y2="116.414" gradientUnits="userSpaceOnUse">
<stop offset="0.0001" stop-color="#696FE1"/>
<stop offset="1" stop-color="#474CB6"/>
</linearGradient>
</defs>
</svg>
