<svg width="982" height="44" viewBox="0 0 982 44" fill="none" xmlns="http://www.w3.org/2000/svg">
<rect x="0.5" width="44" height="44" rx="22" fill="#9876F4"/>
<path d="M20.5455 17.76V16.432H23.5535V28H22.0815V17.76H20.5455Z" fill="white"/>
<path d="M64.5 22H292.833" stroke="#9876F4" stroke-width="4" stroke-dasharray="8 8"/>
<rect x="312.836" width="44" height="44" rx="22" fill="#9876F4"/>
<path d="M331.05 26.832C332.405 25.744 333.466 24.8533 334.234 24.16C335.002 23.456 335.648 22.7253 336.17 21.968C336.704 21.2 336.97 20.448 336.97 19.712C336.97 19.0187 336.8 18.4747 336.458 18.08C336.128 17.6747 335.589 17.472 334.842 17.472C334.117 17.472 333.552 17.7013 333.146 18.16C332.752 18.608 332.538 19.2107 332.506 19.968H331.098C331.141 18.7733 331.504 17.8507 332.186 17.2C332.869 16.5493 333.749 16.224 334.826 16.224C335.925 16.224 336.794 16.528 337.434 17.136C338.085 17.744 338.41 18.5813 338.41 19.648C338.41 20.5333 338.144 21.3973 337.61 22.24C337.088 23.072 336.49 23.808 335.818 24.448C335.146 25.0773 334.288 25.8133 333.242 26.656H338.746V27.872H331.05V26.832Z" fill="white"/>
<path d="M376.836 22H605.169" stroke="#9876F4" stroke-width="4" stroke-dasharray="8 8"/>
<rect x="625.164" width="44" height="44" rx="22" fill="#9876F4"/>
<path d="M643.413 19.344C643.488 18.3627 643.866 17.5947 644.549 17.04C645.232 16.4853 646.117 16.208 647.205 16.208C647.93 16.208 648.554 16.3413 649.077 16.608C649.61 16.864 650.01 17.216 650.277 17.664C650.554 18.112 650.693 18.6187 650.693 19.184C650.693 19.8453 650.501 20.416 650.117 20.896C649.744 21.376 649.253 21.6853 648.645 21.824V21.904C649.338 22.0747 649.888 22.4107 650.293 22.912C650.698 23.4133 650.901 24.0693 650.901 24.88C650.901 25.488 650.762 26.0373 650.485 26.528C650.208 27.008 649.792 27.3867 649.237 27.664C648.682 27.9413 648.016 28.08 647.237 28.08C646.106 28.08 645.178 27.7867 644.453 27.2C643.728 26.6027 643.322 25.76 643.237 24.672H644.645C644.72 25.312 644.981 25.8347 645.429 26.24C645.877 26.6453 646.474 26.848 647.221 26.848C647.968 26.848 648.533 26.656 648.917 26.272C649.312 25.8773 649.509 25.3707 649.509 24.752C649.509 23.952 649.242 23.376 648.709 23.024C648.176 22.672 647.37 22.496 646.293 22.496H645.925V21.28H646.309C647.29 21.2693 648.032 21.1093 648.533 20.8C649.034 20.48 649.285 19.9893 649.285 19.328C649.285 18.7627 649.098 18.3093 648.725 17.968C648.362 17.6267 647.84 17.456 647.157 17.456C646.496 17.456 645.962 17.6267 645.557 17.968C645.152 18.3093 644.912 18.768 644.837 19.344H643.413Z" fill="white"/>
<path d="M689.164 22H917.497" stroke="#9876F4" stroke-width="4" stroke-dasharray="8 8"/>
<rect x="937.5" width="44" height="44" rx="22" fill="#9876F4"/>
<path d="M955.109 25.424V24.32L960.725 16.544H962.469V24.16H964.069V25.424H962.469V28H961.029V25.424H955.109ZM961.093 18.064L956.789 24.16H961.093V18.064Z" fill="white"/>
</svg>
