<svg width="201" height="200" viewBox="0 0 201 200" fill="none" xmlns="http://www.w3.org/2000/svg">
<rect width="200" height="200" transform="translate(0.335938)" fill="white"/>
<g filter="url(#filter0_f_25461_73189)">
<path d="M175.492 138.36C150.992 170.36 116.492 144.486 93.9922 161.361C77.9922 173.36 69.9922 182.361 51.4922 178.86C31.4922 177.36 5.49132 153.86 13.9922 120.36C22.9922 93.3604 53.9922 93.8007 64.9922 82.3605C77.4922 69.3604 79.0395 57.6503 90.9922 49.3604C110.492 35.8603 149.992 38.2606 169.992 59.8605C182.492 73.3604 201.441 111.512 175.492 138.36Z" fill="url(#paint0_linear_25461_73189)"/>
<path d="M37.4922 78.3604C35.4764 75.0847 39.6946 73.551 41.4922 69.8604C43.2129 66.3275 41.8811 61.6826 45.9922 60.8604C50.9922 59.8604 57.5661 66.1386 54.9922 73.8604C52.4922 81.3604 41.4922 84.8604 37.4922 78.3604Z" fill="url(#paint1_linear_25461_73189)"/>
<path d="M61.9922 59.8604C61.0775 62.0613 55.2372 57.9731 56.9922 56.3604C58.0088 55.4261 59.7546 55.2481 60.9922 55.8604C62.4875 56.6001 62.6324 58.3198 61.9922 59.8604Z" fill="url(#paint2_linear_25461_73189)"/>
</g>
<mask id="mask0_25461_73189" style="mask-type:alpha" maskUnits="userSpaceOnUse" x="12" y="41" width="177" height="139">
<path d="M175.492 138.36C150.992 170.359 116.492 144.485 93.9922 161.36C77.9922 173.359 69.9922 182.36 51.4922 178.86C31.4922 177.36 5.49132 153.86 13.9922 120.36C22.9922 93.3594 53.9922 93.7997 64.9922 82.3595C77.4922 69.3594 79.0395 57.6493 90.9922 49.3594C110.492 35.8593 149.992 38.2596 169.992 59.8595C182.492 73.3594 201.441 111.511 175.492 138.36Z" fill="url(#paint3_linear_25461_73189)"/>
<path d="M37.4922 78.3594C35.4764 75.0837 39.6946 73.55 41.4922 69.8594C43.2129 66.3266 41.8811 61.6816 45.9922 60.8594C50.9922 59.8594 57.5661 66.1376 54.9922 73.8594C52.4922 81.3594 41.4922 84.8594 37.4922 78.3594Z" fill="url(#paint4_linear_25461_73189)"/>
<path d="M61.9922 59.8594C61.0775 62.0604 55.2372 57.9721 56.9922 56.3594C58.0088 55.4251 59.7546 55.2471 60.9922 55.8594C62.4875 56.5991 62.6324 58.3188 61.9922 59.8594Z" fill="url(#paint5_linear_25461_73189)"/>
</mask>
<g mask="url(#mask0_25461_73189)">
<g opacity="0.15" filter="url(#filter1_f_25461_73189)">
<path d="M146.607 99.1671C164.061 115.767 176.638 166.837 181.064 150.324C185.49 133.81 202.505 95.1125 201.654 94.2667C201.654 94.2667 157.563 54.4922 139.824 35.2205L56.8536 2.93018C56.8536 2.93018 69.7602 45.9335 88.8722 65.7618C106.95 84.5169 127.732 81.2153 146.607 99.1671Z" fill="#FF64D4"/>
</g>
<g opacity="0.8" filter="url(#filter2_f_25461_73189)">
<path d="M252.281 73.9897C252.281 107.129 225.202 133.988 191.809 133.988C158.409 133.988 131.338 107.129 131.338 73.9897C131.338 40.859 158.409 14 191.809 14C225.202 14 252.281 40.859 252.281 73.9897Z" fill="url(#paint6_radial_25461_73189)"/>
<path d="M240.672 74.9777C240.672 91.4474 232.112 105.937 219.168 114.28C214.565 117.267 209.409 119.471 203.884 120.694C200.514 121.467 197.009 121.866 193.413 121.866C180.963 121.866 169.637 117.092 161.194 109.265C158.277 106.578 155.703 103.525 153.557 100.165C151.469 96.929 149.767 93.4271 148.535 89.7089C146.984 85.0758 146.154 80.1265 146.154 74.9777C146.154 70.1532 146.883 65.4951 148.241 61.1198C153.104 45.5235 165.939 33.4124 182.019 29.4614C185.666 28.5713 189.489 28.0889 193.413 28.0889C203.138 28.0889 212.192 31.0168 219.687 36.0326C220.593 36.6149 221.482 37.2554 222.328 37.9042C233.361 46.3553 240.496 59.5477 240.655 74.4037C240.672 74.595 240.672 74.7863 240.672 74.9777Z" fill="url(#paint7_linear_25461_73189)"/>
<g style="mix-blend-mode:overlay" opacity="0.302">
<path d="M178.529 41.4648C162.39 55.0648 160.671 49.2422 167.286 66.211C170.129 73.5527 167.146 83.5159 161.422 91.6576C157.851 96.736 150.485 95.6103 148.532 89.7178C146.981 85.0846 146.151 80.1354 146.151 74.9865C146.151 70.1621 146.88 65.504 148.238 61.1287C151.798 49.7126 159.629 40.1639 169.877 34.3158C176.792 30.3697 185.146 35.5147 179.235 40.8496C179.01 41.053 178.775 41.2581 178.529 41.4648Z" fill="white"/>
</g>
<g style="mix-blend-mode:overlay" opacity="0.302">
<path d="M203.571 110.164C204.439 116.424 199.751 121.863 193.431 121.863C182.884 121.863 173.144 118.437 165.28 112.631C163.177 111.079 163.585 108.011 166.075 107.215C186.623 100.644 176.605 56.9828 187.839 70.092C192.91 76.0015 201.404 94.5468 203.571 110.164Z" fill="white"/>
</g>
<g style="mix-blend-mode:overlay" opacity="0.302">
<path d="M193.222 49.4855C190.724 44.2618 183.74 42.6314 179.599 46.7073C177.562 48.7036 176.832 51.59 180.496 55.541C187.32 62.8859 197.096 57.5956 193.222 49.4855Z" fill="white"/>
</g>
</g>
<g filter="url(#filter3_f_25461_73189)">
<g opacity="0.3" filter="url(#filter4_f_25461_73189)">
<path d="M240.254 212.32H-19.028L-58.0547 209.037C-2.25677 156.383 54.2554 131 113.197 131C167.997 131 246.007 163.625 278.576 209.037L240.254 212.32Z" fill="white"/>
</g>
<path d="M222.947 206.904H-1.80363L-35.6328 204.059C12.734 158.417 61.72 136.415 112.812 136.415C160.314 136.415 227.934 164.694 256.166 204.059L222.947 206.904Z" fill="url(#paint8_linear_25461_73189)" style="mix-blend-mode:screen"/>
<path style="mix-blend-mode:screen" d="M34.2264 156.228C55.5295 144.554 82.4403 137.591 111.665 137.591C139.882 137.591 165.902 144.08 186.879 155.013C190.469 160.199 190.795 165.532 183.942 169.325C166.644 178.925 140.238 166.036 102.675 169.473C65.0833 172.939 32.1495 171.517 33.188 160.199C33.3363 158.836 33.6924 157.502 34.2264 156.228Z" fill="url(#paint9_radial_25461_73189)"/>
<path style="mix-blend-mode:screen" fill-rule="evenodd" clip-rule="evenodd" d="M163.511 153.249C163.185 155.738 158.081 156.982 152.118 156.034C146.184 155.086 141.644 152.271 142 149.782C142.327 147.293 147.43 146.049 153.364 146.997C159.328 147.945 163.867 150.731 163.511 153.249ZM65.4515 149.931C66.3119 152.301 62.4251 156.094 56.8175 158.405C51.2099 160.716 45.9879 160.686 45.1275 158.316C44.2967 155.975 48.1835 152.182 53.7911 149.871C59.3988 147.56 64.6207 147.59 65.4515 149.931ZM81.1173 154.197C81.681 155.886 78.8624 158.523 74.7976 160.094C70.7624 161.634 67.024 161.516 66.4603 159.827C65.8965 158.138 68.7152 155.501 72.78 153.931C76.8151 152.39 80.5535 152.508 81.1173 154.197ZM88.0601 142.019C88.4458 143.293 86.2502 145.19 83.1942 146.227C80.1382 147.234 77.3789 147.056 76.9931 145.753C76.6074 144.479 78.803 142.612 81.859 141.575C84.915 140.538 87.6744 140.716 88.0601 142.019ZM184.339 161.012C183.835 162.227 181.046 162.108 178.109 160.716C175.171 159.294 173.213 157.16 173.718 155.945C174.222 154.701 177.011 154.849 179.948 156.242C182.886 157.634 184.844 159.768 184.339 161.012ZM172.264 165.101C172.115 166.612 169.059 167.471 165.44 167.027C161.82 166.583 159.031 164.983 159.179 163.471C159.357 161.96 162.413 161.071 166.033 161.545C169.653 161.99 172.442 163.59 172.264 165.101Z" fill="url(#paint10_radial_25461_73189)"/>
<path style="mix-blend-mode:screen" fill-rule="evenodd" clip-rule="evenodd" d="M58.5365 158.225C55.9848 159.292 53.4925 159.855 51.4453 159.944C53.1068 159.677 54.9464 159.173 56.8156 158.403C62.4232 156.092 66.31 152.299 65.4496 149.929C65.0045 148.655 63.254 148.062 60.8507 148.151C64.1144 147.647 66.6364 148.21 67.1704 149.78C68.0309 152.121 64.1441 155.914 58.5365 158.225ZM82.8363 154.018C83.4 155.736 80.5813 158.373 76.5165 159.914C74.7066 160.625 72.9264 160.981 71.4726 161.01C72.5111 160.832 73.6385 160.536 74.7957 160.092C78.8605 158.521 81.6791 155.884 81.1154 154.195C80.789 153.277 79.5429 152.803 77.822 152.832C80.4033 152.418 82.4209 152.803 82.8363 154.018ZM148.466 146.699C150.365 146.403 152.65 146.432 155.113 146.817C161.047 147.766 165.586 150.58 165.23 153.069C164.993 154.818 162.382 155.973 158.762 156.151C161.462 155.736 163.301 154.699 163.509 153.247C163.865 150.729 159.326 147.943 153.362 146.995C151.641 146.699 149.98 146.61 148.466 146.699ZM186.058 160.832C185.791 161.484 184.872 161.751 183.596 161.662C183.952 161.514 184.219 161.307 184.338 161.01C184.842 159.766 182.884 157.632 179.946 156.24C178.582 155.588 177.246 155.232 176.178 155.114C177.276 154.669 179.442 155.025 181.667 156.062C184.605 157.484 186.563 159.618 186.058 160.832ZM173.983 164.921C173.864 166.107 171.935 166.907 169.384 166.966C171.045 166.67 172.173 165.988 172.262 165.099C172.44 163.588 169.651 161.988 166.031 161.544C165.26 161.425 164.488 161.395 163.806 161.425C164.933 161.218 166.298 161.188 167.752 161.366C171.372 161.81 174.161 163.41 173.983 164.921ZM89.779 141.84C90.1648 143.114 87.9988 145.01 84.9428 146.047C83.6077 146.492 82.3615 146.699 81.2934 146.699C81.9066 146.6 82.5395 146.442 83.1923 146.225C86.2483 145.188 88.4439 143.291 88.0582 142.017C87.8505 141.277 86.8417 140.891 85.4769 140.891C87.7021 140.506 89.4823 140.832 89.779 141.84Z" fill="url(#paint11_radial_25461_73189)"/>
<path opacity="0.5" d="M165.44 167.024C163.719 166.817 162.206 166.343 161.078 165.75C162.324 165.158 164.372 164.921 166.626 165.217C168.347 165.424 169.86 165.898 170.988 166.491C169.742 167.084 167.695 167.321 165.44 167.024Z" fill="url(#paint12_radial_25461_73189)"/>
<path opacity="0.5" d="M152.124 156.03C148.178 155.408 144.855 153.956 143.164 152.327C144.707 150.608 149.039 149.867 153.994 150.667C157.94 151.29 161.263 152.741 162.954 154.371C161.411 156.09 157.079 156.83 152.124 156.03Z" fill="url(#paint13_radial_25461_73189)"/>
<path opacity="0.5" d="M180.541 159.911C181.638 160.445 182.618 161.067 183.359 161.719C182.202 162.045 180.185 161.689 178.108 160.711C177.01 160.178 176.06 159.556 175.289 158.904C176.476 158.578 178.464 158.934 180.541 159.911Z" fill="url(#paint14_radial_25461_73189)"/>
<path opacity="0.5" d="M54.3858 153.54C58.8067 151.703 62.9902 151.347 64.978 152.444C63.7616 154.488 60.7056 156.799 56.8188 158.399C52.3979 160.207 48.2145 160.592 46.2266 159.495C47.443 157.451 50.4991 155.14 54.3858 153.54Z" fill="url(#paint15_radial_25461_73189)"/>
<path opacity="0.5" d="M86.4302 144.593C85.5697 145.216 84.4719 145.779 83.1961 146.223C81.7423 146.697 80.3478 146.904 79.25 146.875C80.0808 146.253 81.1786 145.66 82.4544 145.245C83.9082 144.741 85.3324 144.534 86.4302 144.593Z" fill="url(#paint16_radial_25461_73189)"/>
<path opacity="0.5" d="M73.3797 157.632C76.05 156.595 78.6016 156.299 80.1741 156.713C79.0467 157.928 77.1478 159.202 74.8038 160.091C72.1335 161.128 69.6116 161.395 68.0391 161.01C69.1369 159.765 71.0357 158.521 73.3797 157.632Z" fill="url(#paint17_radial_25461_73189)"/>
<path opacity="0.3" d="M62.1613 161.011C62.4283 161.93 60.8261 163.322 58.5712 164.093C56.2866 164.863 54.2394 164.715 53.9724 163.767C53.6757 162.848 55.3075 161.455 57.5624 160.685C59.8174 159.915 61.8943 160.063 62.1613 161.011Z" fill="url(#paint18_radial_25461_73189)"/>
<path opacity="0.3" d="M146.868 143.618C146.719 144.595 144.731 145.099 142.387 144.744C140.014 144.388 138.204 143.321 138.352 142.343C138.471 141.366 140.488 140.862 142.832 141.218C145.176 141.573 146.986 142.64 146.868 143.618Z" fill="url(#paint19_radial_25461_73189)"/>
<path opacity="0.3" d="M196.117 163.382C195.642 164.242 193.625 163.827 191.577 162.493C189.56 161.16 188.314 159.412 188.788 158.553C189.263 157.723 191.281 158.138 193.298 159.441C195.345 160.775 196.592 162.553 196.117 163.382Z" fill="url(#paint20_radial_25461_73189)"/>
<path opacity="0.3" d="M152.445 144.624C152.415 145.039 151.555 145.276 150.546 145.128C149.567 144.98 148.795 144.506 148.855 144.091C148.884 143.676 149.745 143.469 150.754 143.617C151.733 143.765 152.504 144.21 152.445 144.624Z" fill="url(#paint21_radial_25461_73189)"/>
<path opacity="0.3" d="M162.178 158.699C162.118 159.113 161.258 159.321 160.279 159.173C159.27 159.025 158.499 158.58 158.558 158.165C158.617 157.75 159.478 157.513 160.457 157.662C161.466 157.81 162.237 158.284 162.178 158.699Z" fill="url(#paint22_radial_25461_73189)"/>
<path opacity="0.3" d="M171.609 149.367C171.579 149.782 170.719 149.989 169.71 149.841C168.731 149.693 167.959 149.249 168.019 148.834C168.049 148.419 168.909 148.212 169.918 148.36C170.897 148.508 171.668 148.952 171.609 149.367Z" fill="url(#paint23_radial_25461_73189)"/>
<path opacity="0.3" d="M179.56 163.914C179.441 164.299 178.551 164.269 177.601 163.884C176.682 163.469 176.029 162.847 176.177 162.462C176.326 162.077 177.186 162.077 178.136 162.492C179.085 162.877 179.708 163.529 179.56 163.914Z" fill="url(#paint24_radial_25461_73189)"/>
<path opacity="0.3" d="M177.484 152.743C177.336 153.395 175.941 153.543 174.369 153.099C172.796 152.654 171.669 151.736 171.847 151.113C171.995 150.462 173.389 150.313 174.962 150.758C176.505 151.202 177.662 152.091 177.484 152.743Z" fill="url(#paint25_radial_25461_73189)"/>
<path opacity="0.3" d="M148.317 157.101C148.198 157.782 146.834 158.078 145.231 157.812C143.629 157.545 142.413 156.775 142.531 156.123C142.62 155.441 143.985 155.145 145.587 155.412C147.19 155.708 148.406 156.449 148.317 157.101Z" fill="url(#paint26_radial_25461_73189)"/>
<path opacity="0.3" d="M83.9689 148.892C84.0876 149.485 83.0788 150.285 81.6547 150.67C80.2602 151.055 78.9844 150.907 78.8657 150.315C78.7173 149.722 79.7558 148.922 81.1503 148.537C82.5744 148.152 83.8206 148.3 83.9689 148.892Z" fill="url(#paint27_radial_25461_73189)"/>
<path opacity="0.3" d="M82.5172 160.003C82.6358 160.595 81.6271 161.366 80.2029 161.751C78.8084 162.166 77.5326 161.988 77.3842 161.425C77.2656 160.832 78.304 160.032 79.6985 159.647C81.1227 159.262 82.3688 159.41 82.5172 160.003Z" fill="url(#paint28_radial_25461_73189)"/>
<path opacity="0.3" d="M85.3938 157.277C85.4828 157.662 84.8597 158.136 83.9696 158.373C83.1092 158.64 82.3081 158.521 82.2191 158.166C82.1301 157.81 82.7828 157.306 83.6729 157.069C84.5333 156.832 85.3344 156.921 85.3938 157.277Z" fill="url(#paint29_radial_25461_73189)"/>
<path opacity="0.3" d="M76.7297 142.641C76.8187 143.026 76.1956 143.5 75.3055 143.767C74.4154 144.004 73.644 143.885 73.555 143.53C73.466 143.174 74.1188 142.671 74.9792 142.434C75.8693 142.197 76.6407 142.285 76.7297 142.641Z" fill="url(#paint30_radial_25461_73189)"/>
<path opacity="0.3" d="M65.5969 157.277C65.6859 157.662 65.0628 158.136 64.1727 158.373C63.2826 158.64 62.5112 158.521 62.4222 158.166C62.3332 157.81 62.9859 157.306 63.8464 157.069C64.7365 156.832 65.5079 156.921 65.5969 157.277Z" fill="url(#paint31_radial_25461_73189)"/>
<path opacity="0.3" d="M96.1926 147.379C96.4596 148.298 94.8574 149.69 92.5728 150.461C90.3179 151.231 88.2706 151.083 88.0036 150.135C87.7069 149.216 89.3388 147.824 91.5937 147.053C93.8486 146.283 95.9255 146.431 96.1926 147.379Z" fill="url(#paint32_radial_25461_73189)"/>
<path opacity="0.3" d="M99.6281 143.647C99.7172 144.033 99.0941 144.507 98.204 144.744C97.3139 145.01 96.5425 144.892 96.4534 144.536C96.3644 144.181 97.0172 143.677 97.8776 143.44C98.7677 143.203 99.5391 143.292 99.6281 143.647Z" fill="url(#paint33_radial_25461_73189)"/>
<path opacity="0.3" d="M66.2222 145.514C66.3112 145.87 65.6585 146.344 64.798 146.611C63.9079 146.848 63.1365 146.759 63.0475 146.374C62.9585 146.018 63.5816 145.514 64.4717 145.277C65.3618 145.04 66.1332 145.129 66.2222 145.514Z" fill="url(#paint34_radial_25461_73189)"/>
</g>
<g opacity="0.15" filter="url(#filter5_f_25461_73189)">
<path d="M41.6674 155.911C17.6469 154.124 -24.4361 122.574 -17.4002 138.156C-10.3643 153.737 0.984007 194.459 2.17846 194.574C2.17846 194.574 61.491 197.419 87.4246 201.094L172.079 173.519C172.079 173.519 134.851 148.421 107.502 145.185C81.6335 142.125 67.6446 157.845 41.6674 155.911Z" fill="#64EDFF"/>
</g>
<path d="M21.192 51.1244C20.7314 45.6764 25.029 41 30.4964 41H87.9024C92.7499 41 96.7913 44.7094 97.2058 49.5392L107.704 171.863C108.163 177.213 104.026 181.847 98.6578 181.995L41.2314 183.579C36.2821 183.716 32.0867 179.965 31.6695 175.032L21.192 51.1244Z" fill="url(#paint35_linear_25461_73189)"/>
<path d="M23.3004 51.1302C22.8362 45.6802 27.1346 41 32.6043 41H90.0094C94.8547 41 98.8949 44.706 99.3123 49.5332L109.798 170.807C110.261 176.159 106.123 180.797 100.753 180.945L43.3275 182.529C38.3804 182.666 34.1861 178.919 33.7661 173.988L23.3004 51.1302Z" fill="url(#paint36_linear_25461_73189)"/>
<path d="M26.4032 52.6666C25.9629 47.2302 30.2561 42.5752 35.7104 42.5752H43.5434C45.7869 42.5752 47.8951 43.6487 49.2147 45.4632C50.5343 47.2776 52.6424 48.3511 54.8859 48.3511H69.6711C71.603 48.3511 73.3566 47.2219 74.1561 45.4632C74.9555 43.7044 76.7092 42.5752 78.6411 42.5752H87.6825C92.5432 42.5752 96.5909 46.304 96.9888 51.1484L106.692 169.269C107.13 174.608 102.997 179.221 97.6421 179.368L45.6495 180.798C40.6877 180.935 36.4863 177.165 36.0856 172.218L26.4032 52.6666Z" fill="url(#paint37_linear_25461_73189)"/>
<path d="M32.4956 63.9275L41.5824 161.907C41.5824 161.907 46.011 159.896 49.0197 159.896C52.0284 159.896 53.4484 161.907 56.457 161.907C59.4657 161.907 60.8857 159.896 63.8944 159.896C66.903 159.896 68.323 161.907 71.3317 161.907C74.3404 161.907 75.7604 159.896 78.769 159.896C81.7777 159.896 83.1977 161.907 86.2064 161.907C89.215 161.907 90.635 159.896 93.6437 159.896C96.6524 159.896 101.081 161.907 101.081 161.907L92.3679 62.4976C92.294 61.6547 91.5796 61.0132 90.7336 61.0303L34.0644 62.1713C33.1307 62.1901 32.4093 62.9976 32.4956 63.9275Z" fill="#FFF9F4"/>
<path d="M57.7553 76.2591L56.8036 76.3226L57.9738 72.025L59.1183 71.9487L60.8465 76.0531L59.8948 76.1165L58.6264 72.9457L58.5936 72.9479L57.7553 76.2591ZM57.5858 74.6119L59.8339 74.462L59.8801 75.1553L57.632 75.3052L57.5858 74.6119Z" fill="#646464"/>
<path d="M62.6256 75.9345L61.1436 71.8137L62.1138 71.749L63.0037 74.6216L63.0386 74.6192L63.6112 71.6492L64.4419 71.5938L65.402 74.4679L65.4389 74.4654L65.9393 71.494L66.9096 71.4293L65.9876 75.7104L65.122 75.7681L64.1389 73.0748L64.1061 73.077L63.4912 75.8768L62.6256 75.9345Z" fill="#646464"/>
<path d="M68.4159 75.5485L68.1358 71.3476L69.8178 71.2355C70.1269 71.2149 70.3877 71.2435 70.6003 71.3214C70.8129 71.3992 70.9766 71.516 71.0914 71.6718C71.2061 71.8263 71.2704 72.0088 71.2845 72.2194C71.2954 72.3835 71.2722 72.5299 71.2149 72.6588C71.1574 72.7862 71.0739 72.8934 70.9643 72.9804C70.856 73.0659 70.7298 73.1299 70.5857 73.1725L70.5884 73.2135C70.7489 73.2097 70.9016 73.2449 71.0466 73.319C71.1931 73.393 71.315 73.5023 71.4126 73.6469C71.51 73.7901 71.5656 73.965 71.5794 74.1715C71.5943 74.3944 71.5522 74.597 71.4531 74.7795C71.3552 74.9604 71.2023 75.1086 70.9944 75.2242C70.7864 75.3397 70.5252 75.4079 70.2107 75.4289L68.4159 75.5485ZM69.2556 74.7632L69.9797 74.7149C70.2272 74.6984 70.4046 74.6392 70.5118 74.5373C70.6189 74.434 70.6672 74.303 70.6566 74.1444C70.6489 74.0282 70.614 73.9275 70.552 73.8423C70.49 73.7572 70.4054 73.6928 70.2981 73.6491C70.1922 73.6053 70.0681 73.5882 69.9259 73.5977L69.1813 73.6473L69.2556 74.7632ZM69.1412 73.0463L69.7996 73.0024C69.9213 72.9943 70.028 72.9659 70.1195 72.9172C70.2123 72.8671 70.2834 72.8005 70.3328 72.7176C70.3836 72.6345 70.4053 72.5376 70.3979 72.4268C70.3878 72.275 70.3256 72.1563 70.2114 72.0705C70.0985 71.9846 69.9436 71.9482 69.7467 71.9613L69.0719 72.0063L69.1412 73.0463Z" fill="#646464"/>
<path d="M53.8958 78.128L54.784 78.0688L54.9659 80.7969C54.9863 81.1033 54.931 81.3762 54.8 81.6157C54.6704 81.8551 54.4792 82.0477 54.2266 82.1937C53.9739 82.3383 53.6739 82.4221 53.3265 82.4453C52.9778 82.4685 52.6686 82.4253 52.399 82.3155C52.1292 82.2044 51.9142 82.0388 51.7539 81.8187C51.5937 81.5986 51.5033 81.3354 51.4829 81.0291L51.3011 78.301L52.1892 78.2418L52.366 80.894C52.3767 81.054 52.421 81.1939 52.4991 81.3137C52.5785 81.4334 52.6848 81.5245 52.8181 81.5871C52.9514 81.6496 53.1035 81.6752 53.2744 81.6638C53.4467 81.6523 53.5941 81.6068 53.7165 81.5272C53.8404 81.4475 53.933 81.3431 53.9944 81.214C54.0572 81.0848 54.0833 80.9402 54.0726 80.7803L53.8958 78.128Z" fill="#646464"/>
<path d="M56.5457 82.171L56.2657 77.97L57.9231 77.8596C58.2417 77.8383 58.5172 77.8811 58.7496 77.9878C58.9819 78.0932 59.164 78.2494 59.2959 78.4562C59.4291 78.6616 59.505 78.9038 59.5236 79.1828C59.5422 79.4617 59.4984 79.7119 59.3923 79.9332C59.2862 80.1546 59.1229 80.3323 58.9024 80.4665C58.6834 80.6006 58.4125 80.6785 58.0898 80.7L57.0334 80.7704L56.9859 80.0586L57.8987 79.9978C58.0697 79.9864 58.2085 79.9476 58.3154 79.8814C58.4235 79.8137 58.5014 79.7255 58.5491 79.6165C58.5981 79.5061 58.6179 79.3819 58.6087 79.2437C58.5994 79.1043 58.5633 78.9844 58.5003 78.8842C58.4386 78.7826 58.3497 78.7068 58.2338 78.6568C58.1177 78.6055 57.9735 78.5856 57.8012 78.597L57.2023 78.637L57.4339 82.1117L56.5457 82.171Z" fill="#646464"/>
<path d="M62.5257 81.7723L61.0365 81.8716L60.7565 77.6707L62.258 77.5706C62.6805 77.5424 63.0499 77.6023 63.3661 77.7502C63.6821 77.8967 63.9326 78.121 64.1176 78.4232C64.304 78.7254 64.4117 79.0945 64.4407 79.5308C64.4699 79.9684 64.4122 80.3499 64.2678 80.6755C64.1246 81.0009 63.9048 81.258 63.6083 81.4467C63.3132 81.6354 62.9524 81.7439 62.5257 81.7723ZM61.874 81.0514L62.4381 81.0138C62.7006 80.9963 62.9184 80.9351 63.0913 80.8301C63.2655 80.7237 63.3912 80.5691 63.4683 80.3662C63.5467 80.1618 63.5755 79.903 63.5546 79.5898C63.5339 79.2794 63.4712 79.0288 63.3665 78.838C63.2631 78.6471 63.1187 78.5111 62.9334 78.4301C62.748 78.349 62.5241 78.3172 62.2615 78.3347L61.6954 78.3725L61.874 81.0514Z" fill="#646464"/>
<path d="M66.477 81.5089L65.5253 81.5724L66.6955 77.2748L67.84 77.1985L69.5682 81.3029L68.6165 81.3663L67.3481 78.1955L67.3153 78.1977L66.477 81.5089ZM66.3075 79.8617L68.5556 79.7118L68.6018 80.4051L66.3537 80.555L66.3075 79.8617Z" fill="#646464"/>
<path d="M69.9202 77.7954L69.8714 77.0631L73.3216 76.8331L73.3704 77.5654L72.0843 77.6511L72.3155 81.1197L71.4376 81.1783L71.2064 77.7096L69.9202 77.7954Z" fill="#646464"/>
<path d="M74.9207 80.9461L74.6407 76.7452L77.4714 76.5565L77.5202 77.2888L75.5777 77.4182L75.6444 78.4192L77.4413 78.2995L77.4901 79.0318L75.6932 79.1515L75.7601 80.1546L77.7108 80.0245L77.7596 80.7568L74.9207 80.9461Z" fill="#646464"/>
<path d="M51.0441 91.2094L51.9867 92.5847L52.0195 92.5825L52.7753 91.094L53.7784 91.0272L52.6364 93.2131L54.0871 95.2262L53.0656 95.2943L52.1085 93.9179L52.0757 93.9201L51.3098 95.4113L50.2924 95.4791L51.4672 93.291L50.037 91.2766L51.0441 91.2094ZM55.1732 90.9342L56.1158 92.3095L56.1486 92.3073L56.9045 90.8188L57.9075 90.7519L56.7655 92.9378L58.2163 94.9509L57.1947 95.019L56.2377 93.6426L56.2048 93.6448L55.4389 95.136L54.4215 95.2039L55.5963 93.0158L54.1661 91.0013L55.1732 90.9342ZM59.3023 90.6589L60.2449 92.0342L60.2778 92.032L61.0336 90.5435L62.0366 90.4767L60.8946 92.6626L62.3454 94.6757L61.3239 94.7438L60.3668 93.3674L60.3339 93.3696L59.568 94.8608L58.5506 94.9286L59.7254 92.7405L58.2952 90.7261L59.3023 90.6589ZM63.4314 90.3837L64.374 91.759L64.4069 91.7568L65.1627 90.2683L66.1657 90.2014L65.0237 92.3873L66.4745 94.4004L65.453 94.4685L64.4959 93.0921L64.4631 93.0943L63.6971 94.5856L62.6797 94.6534L63.8545 92.4653L62.4243 90.4508L63.4314 90.3837ZM67.5606 90.1084L68.5032 91.4837L68.536 91.4815L69.2918 89.993L70.2948 89.9262L69.1528 92.1121L70.6036 94.1252L69.5821 94.1933L68.625 92.8169L68.5922 92.8191L67.8262 94.3103L66.8088 94.3781L67.9836 92.19L66.5534 90.1756L67.5606 90.1084ZM71.6897 89.8332L72.6323 91.2085L72.6651 91.2063L73.4209 89.7178L74.424 89.6509L73.282 91.8368L74.7327 93.8499L73.7112 93.918L72.7541 92.5416L72.7213 92.5438L71.9553 94.0351L70.9379 94.1029L72.1128 91.9148L70.6825 89.9003L71.6897 89.8332ZM75.8188 89.558L76.7614 90.9332L76.7942 90.931L77.55 89.4425L78.5531 89.3757L77.4111 91.5616L78.8618 93.5747L77.8403 93.6428L76.8832 92.2664L76.8504 92.2686L76.0845 93.7598L75.067 93.8276L76.2419 91.6395L74.8116 89.6251L75.8188 89.558ZM79.9479 89.2827L80.8905 90.658L80.9233 90.6558L81.6791 89.1673L82.6822 89.1004L81.5402 91.2863L82.9909 93.2994L81.9694 93.3675L81.0123 91.9911L80.9795 91.9933L80.2136 93.4846L79.1962 93.5524L80.371 91.3643L78.9407 89.3498L79.9479 89.2827Z" fill="#BBBBBB"/>
<rect x="42.8438" y="106.575" width="52.2624" height="1.60807" rx="0.804036" transform="rotate(-2.2531 42.8438 106.575)" fill="#BBBBBB"/>
<rect x="43.1562" y="114.609" width="52.2624" height="1.60807" rx="0.804036" transform="rotate(-2.2531 43.1562 114.609)" fill="#BBBBBB"/>
<rect x="43.4766" y="122.643" width="52.2624" height="1.60807" rx="0.804036" transform="rotate(-2.2531 43.4766 122.643)" fill="#BBBBBB"/>
<rect x="43.7891" y="130.677" width="52.2624" height="1.60807" rx="0.804036" transform="rotate(-2.2531 43.7891 130.677)" fill="#BBBBBB"/>
<rect x="44.1094" y="138.71" width="52.2624" height="1.60807" rx="0.804036" transform="rotate(-2.2531 44.1094 138.71)" fill="#BBBBBB"/>
</g>
<g opacity="0.85">
<path d="M24.1595 168.466C24.1595 168.681 24.4295 168.672 24.4295 168.466C24.4295 168.466 24.5538 166.553 25.1639 165.744C25.7871 164.918 27.2951 164.696 27.2951 164.696C27.3496 164.67 27.3496 164.57 27.2951 164.544C27.2951 164.544 25.8229 164.336 25.201 163.543C24.5657 162.733 24.4598 160.773 24.4598 160.773C24.5124 160.557 24.2416 160.592 24.2416 160.773C24.2416 160.773 24.1062 162.733 23.4709 163.543C22.8489 164.336 21.3768 164.544 21.3768 164.544C21.3223 164.57 21.3223 164.67 21.3768 164.696C21.3768 164.696 22.8848 164.918 23.508 165.744C24.1181 166.553 24.1595 168.466 24.1595 168.466Z" fill="#E2FF30"/>
<path d="M49.7477 144.545C49.7477 144.653 49.8827 144.648 49.8827 144.545C49.8827 144.545 49.9449 143.588 50.2499 143.184C50.5615 142.771 51.3155 142.66 51.3155 142.66C51.3427 142.647 51.3427 142.597 51.3155 142.584C51.3155 142.584 50.5794 142.48 50.2684 142.084C49.9508 141.679 49.8979 140.699 49.8979 140.699C49.9242 140.591 49.7888 140.608 49.7888 140.699C49.7888 140.699 49.7211 141.679 49.4034 142.084C49.0924 142.48 48.3564 142.584 48.3564 142.584C48.3291 142.597 48.3291 142.647 48.3564 142.66C48.3564 142.66 49.1104 142.771 49.4219 143.184C49.727 143.588 49.7477 144.545 49.7477 144.545Z" fill="#E2FF30"/>
<path d="M38.7477 107.545C38.7477 107.653 38.8827 107.648 38.8827 107.545C38.8827 107.545 38.9449 106.588 39.2499 106.184C39.5615 105.771 40.3155 105.66 40.3155 105.66C40.3427 105.647 40.3427 105.597 40.3155 105.584C40.3155 105.584 39.5794 105.48 39.2684 105.084C38.9508 104.679 38.8979 103.699 38.8979 103.699C38.9242 103.591 38.7888 103.608 38.7888 103.699C38.7888 103.699 38.7211 104.679 38.4034 105.084C38.0924 105.48 37.3564 105.584 37.3564 105.584C37.3291 105.597 37.3291 105.647 37.3564 105.66C37.3564 105.66 38.1104 105.771 38.4219 106.184C38.727 106.588 38.7477 107.545 38.7477 107.545Z" fill="#E2FF30"/>
<path d="M175.748 95.545C175.748 95.6527 175.883 95.6479 175.883 95.545C175.883 95.545 175.945 94.5883 176.25 94.184C176.561 93.7711 177.316 93.6599 177.316 93.6599C177.343 93.6469 177.343 93.5968 177.316 93.5838C177.316 93.5838 176.579 93.4802 176.268 93.0837C175.951 92.6787 175.898 91.6986 175.898 91.6986C175.924 91.5908 175.789 91.6079 175.789 91.6986C175.789 91.6986 175.721 92.6787 175.403 93.0837C175.092 93.4802 174.356 93.5838 174.356 93.5838C174.329 93.5968 174.329 93.6469 174.356 93.6599C174.356 93.6599 175.11 93.7711 175.422 94.184C175.727 94.5883 175.748 95.545 175.748 95.545Z" fill="#E2FF30"/>
<path d="M177.748 137.545C177.748 137.653 177.883 137.648 177.883 137.545C177.883 137.545 177.945 136.588 178.25 136.184C178.561 135.771 179.316 135.66 179.316 135.66C179.343 135.647 179.343 135.597 179.316 135.584C179.316 135.584 178.579 135.48 178.268 135.084C177.951 134.679 177.898 133.699 177.898 133.699C177.924 133.591 177.789 133.608 177.789 133.699C177.789 133.699 177.721 134.679 177.403 135.084C177.092 135.48 176.356 135.584 176.356 135.584C176.329 135.597 176.329 135.647 176.356 135.66C176.356 135.66 177.11 135.771 177.422 136.184C177.727 136.588 177.748 137.545 177.748 137.545Z" fill="#E2FF30"/>
<path d="M74.7477 83.545C74.7477 83.6527 74.8827 83.6479 74.8827 83.545C74.8827 83.545 74.9449 82.5883 75.2499 82.184C75.5615 81.7711 76.3155 81.6599 76.3155 81.6599C76.3427 81.6469 76.3427 81.5968 76.3155 81.5838C76.3155 81.5838 75.5794 81.4802 75.2684 81.0837C74.9508 80.6787 74.8979 79.6986 74.8979 79.6986C74.9242 79.5908 74.7888 79.6079 74.7888 79.6986C74.7888 79.6986 74.7211 80.6787 74.4034 81.0837C74.0924 81.4802 73.3564 81.5838 73.3564 81.5838C73.3291 81.5968 73.3291 81.6469 73.3564 81.6599C73.3564 81.6599 74.1104 81.7711 74.4219 82.184C74.727 82.5883 74.7477 83.545 74.7477 83.545Z" fill="#E2FF30"/>
<path d="M59.7477 167.545C59.7477 167.653 59.8827 167.648 59.8827 167.545C59.8827 167.545 59.9449 166.588 60.2499 166.184C60.5615 165.771 61.3155 165.66 61.3155 165.66C61.3427 165.647 61.3427 165.597 61.3155 165.584C61.3155 165.584 60.5794 165.48 60.2684 165.084C59.9508 164.679 59.8979 163.699 59.8979 163.699C59.9242 163.591 59.7888 163.608 59.7888 163.699C59.7888 163.699 59.7211 164.679 59.4034 165.084C59.0924 165.48 58.3564 165.584 58.3564 165.584C58.3291 165.597 58.3291 165.647 58.3564 165.66C58.3564 165.66 59.1104 165.771 59.4219 166.184C59.727 166.588 59.7477 167.545 59.7477 167.545Z" fill="#E2FF30"/>
<path d="M91.7477 149.545C91.7477 149.653 91.8827 149.648 91.8827 149.545C91.8827 149.545 91.9449 148.588 92.2499 148.184C92.5615 147.771 93.3155 147.66 93.3155 147.66C93.3427 147.647 93.3427 147.597 93.3155 147.584C93.3155 147.584 92.5794 147.48 92.2684 147.084C91.9508 146.679 91.8979 145.699 91.8979 145.699C91.9242 145.591 91.7888 145.608 91.7888 145.699C91.7888 145.699 91.7211 146.679 91.4034 147.084C91.0924 147.48 90.3564 147.584 90.3564 147.584C90.3291 147.597 90.3291 147.647 90.3564 147.66C90.3564 147.66 91.1104 147.771 91.4219 148.184C91.727 148.588 91.7477 149.545 91.7477 149.545Z" fill="#E2FF30"/>
<path d="M45.7477 79.545C45.7477 79.6527 45.8827 79.6479 45.8827 79.545C45.8827 79.545 45.9449 78.5883 46.2499 78.184C46.5615 77.7711 47.3155 77.6599 47.3155 77.6599C47.3427 77.6469 47.3427 77.5968 47.3155 77.5838C47.3155 77.5838 46.5794 77.4802 46.2684 77.0837C45.9508 76.6787 45.8979 75.6986 45.8979 75.6986C45.9242 75.5908 45.7888 75.6079 45.7888 75.6986C45.7888 75.6986 45.7211 76.6787 45.4034 77.0837C45.0924 77.4802 44.3564 77.5838 44.3564 77.5838C44.3291 77.5968 44.3291 77.6469 44.3564 77.6599C44.3564 77.6599 45.1104 77.7711 45.4219 78.184C45.727 78.5883 45.7477 79.545 45.7477 79.545Z" fill="#E2FF30"/>
<path d="M22.7477 132.545C22.7477 132.653 22.8827 132.648 22.8827 132.545C22.8827 132.545 22.9449 131.588 23.2499 131.184C23.5615 130.771 24.3155 130.66 24.3155 130.66C24.3427 130.647 24.3427 130.597 24.3155 130.584C24.3155 130.584 23.5794 130.48 23.2684 130.084C22.9508 129.679 22.8979 128.699 22.8979 128.699C22.9242 128.591 22.7888 128.608 22.7888 128.699C22.7888 128.699 22.7211 129.679 22.4034 130.084C22.0924 130.48 21.3564 130.584 21.3564 130.584C21.3291 130.597 21.3291 130.647 21.3564 130.66C21.3564 130.66 22.1104 130.771 22.4219 131.184C22.727 131.588 22.7477 132.545 22.7477 132.545Z" fill="#E2FF30"/>
</g>
<path fill-rule="evenodd" clip-rule="evenodd" d="M30.4945 41C25.0271 41 20.7294 45.6764 21.1901 51.1244L26.4289 113.078L102.453 110.701L97.2038 49.5392C96.7893 44.7094 92.748 41 87.9004 41H30.4945Z" fill="url(#paint38_linear_25461_73189)"/>
<path fill-rule="evenodd" clip-rule="evenodd" d="M32.6039 41C27.1342 41 22.8357 45.6802 23.3 51.1302L28.5328 112.559L104.627 111L99.3119 49.5332C98.8945 44.706 94.8542 41 90.009 41H32.6039Z" fill="url(#paint39_linear_25461_73189)"/>
<path fill-rule="evenodd" clip-rule="evenodd" d="M35.7054 42.5752C30.2512 42.5752 25.958 47.2302 26.3983 52.6666L33.3903 139H104.2L96.9838 51.1484C96.5859 46.304 92.5382 42.5752 87.6776 42.5752H78.6361C76.7042 42.5752 74.9506 43.7044 74.1511 45.4632C73.3517 47.2219 71.5981 48.3511 69.6661 48.3511H54.881C52.6374 48.3511 50.5293 47.2776 49.2097 45.4632C47.8901 43.6487 45.782 42.5752 43.5384 42.5752H35.7054Z" fill="url(#paint40_linear_25461_73189)"/>
<path fill-rule="evenodd" clip-rule="evenodd" d="M91.593 71.0303L34.9238 72.1713C33.9901 72.1901 33.2687 72.9976 33.355 73.9275L39.8536 144H99.4944L93.2273 72.4976C93.1534 71.6547 92.4389 71.0132 91.593 71.0303Z" fill="#FFF9F4"/>
<circle cx="120.468" cy="51.7516" r="16.1324" fill="#70C07C"/>
<circle cx="122.328" cy="51.1324" r="16.1324" fill="#91E49D"/>
<path d="M114.797 51.4243L120.868 56.9532L130.93 45.905" stroke="white" stroke-width="3.43103" stroke-linecap="round" stroke-linejoin="round"/>
<path d="M57.7475 85.5086L56.7958 85.5721L57.9659 81.2745L59.1105 81.1982L60.8387 85.3026L59.887 85.366L58.6186 82.1952L58.5858 82.1974L57.7475 85.5086ZM57.578 83.8614L59.8261 83.7115L59.8723 84.4048L57.6242 84.5547L57.578 83.8614Z" fill="#646464"/>
<path d="M62.6178 85.184L61.1358 81.0632L62.106 80.9985L62.9959 83.8711L63.0308 83.8688L63.6034 80.8987L64.4341 80.8433L65.3942 83.7174L65.4311 83.7149L65.9315 80.7435L66.9017 80.6789L65.9798 84.9599L65.1141 85.0176L64.1311 82.3243L64.0983 82.3265L63.4834 85.1263L62.6178 85.184Z" fill="#646464"/>
<path d="M68.4081 84.798L68.128 80.5971L69.81 80.485C70.1191 80.4644 70.3799 80.493 70.5925 80.5709C70.8051 80.6487 70.9688 80.7656 71.0836 80.9214C71.1982 81.0758 71.2626 81.2583 71.2766 81.4689C71.2876 81.633 71.2644 81.7795 71.207 81.9083C71.1496 82.0357 71.0661 82.1429 70.9565 82.2299C70.8482 82.3154 70.722 82.3795 70.5779 82.422L70.5806 82.4631C70.741 82.4592 70.8938 82.4944 71.0388 82.5685C71.1852 82.6425 71.3072 82.7518 71.4048 82.8964C71.5022 83.0396 71.5578 83.2145 71.5716 83.421C71.5865 83.6439 71.5443 83.8465 71.4452 84.029C71.3474 84.2099 71.1945 84.3582 70.9866 84.4737C70.7786 84.5892 70.5174 84.6574 70.2029 84.6784L68.4081 84.798ZM69.2478 84.0127L69.9719 83.9644C70.2194 83.9479 70.3968 83.8887 70.504 83.7868C70.6111 83.6835 70.6594 83.5525 70.6488 83.3939C70.6411 83.2777 70.6062 83.177 70.5442 83.0918C70.4822 83.0067 70.3976 82.9423 70.2903 82.8986C70.1843 82.8548 70.0603 82.8377 69.918 82.8472L69.1735 82.8968L69.2478 84.0127ZM69.1334 82.2958L69.7918 82.2519C69.9135 82.2438 70.0202 82.2154 70.1117 82.1667C70.2045 82.1166 70.2756 82.05 70.325 81.9671C70.3758 81.884 70.3975 81.7871 70.3901 81.6763C70.38 81.5246 70.3178 81.4058 70.2036 81.32C70.0907 81.2341 69.9358 81.1977 69.7389 81.2108L69.0641 81.2558L69.1334 82.2958Z" fill="#646464"/>
<path d="M53.888 87.3775L54.7762 87.3183L54.9581 90.0465C54.9785 90.3528 54.9232 90.6257 54.7922 90.8652C54.6626 91.1046 54.4714 91.2972 54.2188 91.4432C53.9661 91.5878 53.6661 91.6717 53.3187 91.6948C52.97 91.7181 52.6608 91.6748 52.3912 91.565C52.1214 91.4539 51.9064 91.2883 51.7461 91.0682C51.5859 90.8481 51.4955 90.5849 51.4751 90.2786L51.2932 87.5505L52.1814 87.4913L52.3582 90.1435C52.3689 90.3035 52.4132 90.4434 52.4913 90.5632C52.5707 90.6829 52.677 90.774 52.8103 90.8366C52.9436 90.8991 53.0957 90.9247 53.2666 90.9133C53.4389 90.9018 53.5863 90.8563 53.7087 90.7767C53.8325 90.697 53.9252 90.5926 53.9866 90.4635C54.0494 90.3343 54.0755 90.1898 54.0648 90.0298L53.888 87.3775Z" fill="#646464"/>
<path d="M56.5379 91.4205L56.2579 87.2196L57.9153 87.1091C58.2339 87.0878 58.5094 87.1306 58.7418 87.2374C58.9741 87.3427 59.1562 87.4989 59.2881 87.7057C59.4213 87.9111 59.4972 88.1533 59.5158 88.4323C59.5343 88.7112 59.4906 88.9614 59.3845 89.1827C59.2784 89.4041 59.1151 89.5819 58.8946 89.7161C58.6756 89.8502 58.4047 89.928 58.0819 89.9495L57.0256 90.0199L56.9781 89.3081L57.8909 89.2473C58.0618 89.2359 58.2007 89.1971 58.3076 89.1309C58.4157 89.0633 58.4936 88.975 58.5413 88.866C58.5902 88.7556 58.6101 88.6314 58.6009 88.4932C58.5916 88.3538 58.5555 88.2339 58.4925 88.1337C58.4307 88.0321 58.3419 87.9563 58.2259 87.9063C58.1099 87.855 57.9657 87.8351 57.7934 87.8466L57.1945 87.8865L57.4261 91.3613L56.5379 91.4205Z" fill="#646464"/>
<path d="M62.5179 91.0218L61.0287 91.1211L60.7487 86.9202L62.2502 86.8201C62.6727 86.7919 63.0421 86.8518 63.3582 86.9997C63.6743 87.1462 63.9248 87.3705 64.1098 87.6727C64.2961 87.9749 64.4039 88.344 64.4329 88.7803C64.4621 89.2179 64.4044 89.5994 64.2599 89.925C64.1168 90.2505 63.897 90.5075 63.6005 90.6962C63.3054 90.8849 62.9446 90.9934 62.5179 91.0218ZM61.8662 90.3009L62.4302 90.2633C62.6928 90.2458 62.9106 90.1846 63.0835 90.0796C63.2577 89.9733 63.3834 89.8186 63.4605 89.6157C63.5389 89.4113 63.5677 89.1525 63.5468 88.8393C63.5261 88.5289 63.4634 88.2783 63.3586 88.0875C63.2553 87.8966 63.1109 87.7606 62.9256 87.6796C62.7402 87.5985 62.5163 87.5668 62.2537 87.5843L61.6876 87.622L61.8662 90.3009Z" fill="#646464"/>
<path d="M66.4692 90.7584L65.5175 90.8219L66.6876 86.5243L67.8322 86.448L69.5604 90.5524L68.6087 90.6158L67.3403 87.445L67.3075 87.4472L66.4692 90.7584ZM66.2997 89.1112L68.5478 88.9613L68.594 89.6546L66.3459 89.8045L66.2997 89.1112Z" fill="#646464"/>
<path d="M69.9124 87.0449L69.8636 86.3126L73.3138 86.0826L73.3626 86.8149L72.0765 86.9006L72.3077 90.3692L71.4298 90.4278L71.1985 86.9592L69.9124 87.0449Z" fill="#646464"/>
<path d="M74.9129 90.1956L74.6329 85.9947L77.4636 85.806L77.5124 86.5383L75.5699 86.6678L75.6366 87.6688L77.4335 87.549L77.4823 88.2813L75.6854 88.401L75.7523 89.4041L77.703 89.2741L77.7518 90.0063L74.9129 90.1956Z" fill="#646464"/>
<path d="M51.0441 100.459L51.9867 101.835L52.0195 101.833L52.7753 100.344L53.7784 100.277L52.6364 102.463L54.0871 104.476L53.0656 104.544L52.1085 103.168L52.0757 103.17L51.3098 104.661L50.2924 104.729L51.4672 102.541L50.037 100.527L51.0441 100.459ZM55.1732 100.184L56.1158 101.559L56.1486 101.557L56.9045 100.069L57.9075 100.002L56.7655 102.188L58.2163 104.201L57.1947 104.269L56.2377 102.893L56.2048 102.895L55.4389 104.386L54.4215 104.454L55.5963 102.266L54.1661 100.251L55.1732 100.184ZM59.3023 99.9089L60.2449 101.284L60.2778 101.282L61.0336 99.7935L62.0366 99.7267L60.8946 101.913L62.3454 103.926L61.3239 103.994L60.3668 102.617L60.3339 102.62L59.568 104.111L58.5506 104.179L59.7254 101.991L58.2952 99.9761L59.3023 99.9089ZM63.4314 99.6337L64.374 101.009L64.4069 101.007L65.1627 99.5183L66.1657 99.4514L65.0237 101.637L66.4745 103.65L65.453 103.719L64.4959 102.342L64.4631 102.344L63.6971 103.836L62.6797 103.903L63.8545 101.715L62.4243 99.7008L63.4314 99.6337ZM67.5606 99.3584L68.5032 100.734L68.536 100.732L69.2918 99.243L70.2948 99.1762L69.1528 101.362L70.6036 103.375L69.5821 103.443L68.625 102.067L68.5922 102.069L67.8262 103.56L66.8088 103.628L67.9836 101.44L66.5534 99.4256L67.5606 99.3584ZM71.6897 99.0832L72.6323 100.458L72.6651 100.456L73.4209 98.9678L74.424 98.9009L73.282 101.087L74.7327 103.1L73.7112 103.168L72.7541 101.792L72.7213 101.794L71.9553 103.285L70.9379 103.353L72.1128 101.165L70.6825 99.1503L71.6897 99.0832ZM75.8188 98.808L76.7614 100.183L76.7942 100.181L77.55 98.6925L78.5531 98.6257L77.4111 100.812L78.8618 102.825L77.8403 102.893L76.8832 101.516L76.8504 101.519L76.0845 103.01L75.067 103.078L76.2419 100.89L74.8116 98.8751L75.8188 98.808ZM79.9479 98.5327L80.8905 99.908L80.9233 99.9058L81.6791 98.4173L82.6822 98.3504L81.5402 100.536L82.9909 102.549L81.9694 102.618L81.0123 101.241L80.9795 101.243L80.2136 102.735L79.1962 102.802L80.371 100.614L78.9407 98.5998L79.9479 98.5327Z" fill="#BBBBBB"/>
<rect x="42.8438" y="115.825" width="52.2624" height="1.60807" rx="0.804036" transform="rotate(-2.2531 42.8438 115.825)" fill="#BBBBBB"/>
<rect x="43.1562" y="123.859" width="52.2624" height="1.60807" rx="0.804036" transform="rotate(-2.2531 43.1562 123.859)" fill="#BBBBBB"/>
<rect x="43.4766" y="131.893" width="52.2624" height="1.60807" rx="0.804036" transform="rotate(-2.2531 43.4766 131.893)" fill="#BBBBBB"/>
<rect x="43.7969" y="139.926" width="52.2624" height="1.60807" rx="0.804036" transform="rotate(-2.2531 43.7969 139.926)" fill="#BBBBBB"/>
<rect x="44.1094" y="147.96" width="52.2624" height="1.60807" rx="0.804036" transform="rotate(-2.2531 44.1094 147.96)" fill="#BBBBBB"/>
<defs>
<filter id="filter0_f_25461_73189" x="10.3359" y="39.001" width="180.125" height="142.623" filterUnits="userSpaceOnUse" color-interpolation-filters="sRGB">
<feFlood flood-opacity="0" result="BackgroundImageFix"/>
<feBlend mode="normal" in="SourceGraphic" in2="BackgroundImageFix" result="shape"/>
<feGaussianBlur stdDeviation="1" result="effect1_foregroundBlur_25461_73189"/>
</filter>
<filter id="filter1_f_25461_73189" x="52.8516" y="-1.06982" width="152.836" height="158.638" filterUnits="userSpaceOnUse" color-interpolation-filters="sRGB">
<feFlood flood-opacity="0" result="BackgroundImageFix"/>
<feBlend mode="normal" in="SourceGraphic" in2="BackgroundImageFix" result="shape"/>
<feGaussianBlur stdDeviation="2" result="effect1_foregroundBlur_25461_73189"/>
</filter>
<filter id="filter2_f_25461_73189" x="130.336" y="13" width="122.945" height="121.988" filterUnits="userSpaceOnUse" color-interpolation-filters="sRGB">
<feFlood flood-opacity="0" result="BackgroundImageFix"/>
<feBlend mode="normal" in="SourceGraphic" in2="BackgroundImageFix" result="shape"/>
<feGaussianBlur stdDeviation="0.5" result="effect1_foregroundBlur_25461_73189"/>
</filter>
<filter id="filter3_f_25461_73189" x="-58.5897" y="130.465" width="337.703" height="82.3898" filterUnits="userSpaceOnUse" color-interpolation-filters="sRGB">
<feFlood flood-opacity="0" result="BackgroundImageFix"/>
<feBlend mode="normal" in="SourceGraphic" in2="BackgroundImageFix" result="shape"/>
<feGaussianBlur stdDeviation="0.267491" result="effect1_foregroundBlur_25461_73189"/>
</filter>
<filter id="filter4_f_25461_73189" x="-62.0547" y="127" width="344.633" height="89.3198" filterUnits="userSpaceOnUse" color-interpolation-filters="sRGB">
<feFlood flood-opacity="0" result="BackgroundImageFix"/>
<feBlend mode="normal" in="SourceGraphic" in2="BackgroundImageFix" result="shape"/>
<feGaussianBlur stdDeviation="2" result="effect1_foregroundBlur_25461_73189"/>
</filter>
<filter id="filter5_f_25461_73189" x="-22.1797" y="129.847" width="198.258" height="75.2471" filterUnits="userSpaceOnUse" color-interpolation-filters="sRGB">
<feFlood flood-opacity="0" result="BackgroundImageFix"/>
<feBlend mode="normal" in="SourceGraphic" in2="BackgroundImageFix" result="shape"/>
<feGaussianBlur stdDeviation="2" result="effect1_foregroundBlur_25461_73189"/>
</filter>
<linearGradient id="paint0_linear_25461_73189" x1="24.8359" y1="214.624" x2="120.336" y2="39.124" gradientUnits="userSpaceOnUse">
<stop stop-color="#8264D4"/>
<stop offset="1" stop-color="#644E9F"/>
</linearGradient>
<linearGradient id="paint1_linear_25461_73189" x1="24.8359" y1="214.624" x2="120.336" y2="39.124" gradientUnits="userSpaceOnUse">
<stop stop-color="#8264D4"/>
<stop offset="1" stop-color="#644E9F"/>
</linearGradient>
<linearGradient id="paint2_linear_25461_73189" x1="24.8359" y1="214.624" x2="120.336" y2="39.124" gradientUnits="userSpaceOnUse">
<stop stop-color="#8264D4"/>
<stop offset="1" stop-color="#644E9F"/>
</linearGradient>
<linearGradient id="paint3_linear_25461_73189" x1="24.8359" y1="214.623" x2="120.336" y2="39.123" gradientUnits="userSpaceOnUse">
<stop stop-color="#DC92FF"/>
<stop offset="1" stop-color="#8264D5"/>
</linearGradient>
<linearGradient id="paint4_linear_25461_73189" x1="24.8359" y1="214.623" x2="120.336" y2="39.123" gradientUnits="userSpaceOnUse">
<stop stop-color="#DC92FF"/>
<stop offset="1" stop-color="#8264D5"/>
</linearGradient>
<linearGradient id="paint5_linear_25461_73189" x1="24.8359" y1="214.623" x2="120.336" y2="39.123" gradientUnits="userSpaceOnUse">
<stop stop-color="#DC92FF"/>
<stop offset="1" stop-color="#8264D5"/>
</linearGradient>
<radialGradient id="paint6_radial_25461_73189" cx="0" cy="0" r="1" gradientUnits="userSpaceOnUse" gradientTransform="translate(191.808 73.993) rotate(180) scale(60.4701 59.9963)">
<stop stop-color="#FEE7CA"/>
<stop offset="1" stop-color="#FEE7CA" stop-opacity="0"/>
</radialGradient>
<linearGradient id="paint7_linear_25461_73189" x1="187.613" y1="149.454" x2="129.331" y2="74.2642" gradientUnits="userSpaceOnUse">
<stop offset="0.137" stop-color="#3F7BDC"/>
<stop offset="1" stop-color="#F7D3A1"/>
</linearGradient>
<linearGradient id="paint8_linear_25461_73189" x1="110.531" y1="136.451" x2="110.531" y2="226.753" gradientUnits="userSpaceOnUse">
<stop stop-color="white"/>
<stop offset="1" stop-color="#709CFA"/>
</linearGradient>
<radialGradient id="paint9_radial_25461_73189" cx="0" cy="0" r="1" gradientUnits="userSpaceOnUse" gradientTransform="translate(107.719 130.865) scale(63.9983 63.9119)">
<stop stop-color="#372D98"/>
<stop offset="1" stop-color="#131724"/>
</radialGradient>
<radialGradient id="paint10_radial_25461_73189" cx="0" cy="0" r="1" gradientUnits="userSpaceOnUse" gradientTransform="translate(114.733 154.019) scale(13.1438 13.1261)">
<stop stop-color="#372D98"/>
<stop offset="1" stop-color="#131724"/>
</radialGradient>
<radialGradient id="paint11_radial_25461_73189" cx="0" cy="0" r="1" gradientUnits="userSpaceOnUse" gradientTransform="translate(118.796 153.84) scale(13.1438 13.1261)">
<stop stop-color="#372D98"/>
<stop offset="1" stop-color="#131724"/>
</radialGradient>
<radialGradient id="paint12_radial_25461_73189" cx="0" cy="0" r="1" gradientUnits="userSpaceOnUse" gradientTransform="translate(135.235 126.668) scale(51.6259 51.5562)">
<stop stop-color="#372D98"/>
<stop offset="1" stop-color="#131724"/>
</radialGradient>
<radialGradient id="paint13_radial_25461_73189" cx="0" cy="0" r="1" gradientUnits="userSpaceOnUse" gradientTransform="translate(135.242 124.949) scale(51.6259 51.5562)">
<stop stop-color="#372D98"/>
<stop offset="1" stop-color="#131724"/>
</radialGradient>
<radialGradient id="paint14_radial_25461_73189" cx="0" cy="0" r="1" gradientUnits="userSpaceOnUse" gradientTransform="translate(135.235 125.155) scale(52.7533 52.6821)">
<stop stop-color="#372D98"/>
<stop offset="1" stop-color="#131724"/>
</radialGradient>
<radialGradient id="paint15_radial_25461_73189" cx="0" cy="0" r="1" gradientUnits="userSpaceOnUse" gradientTransform="translate(135.237 124.117) scale(53.6138 53.5414)">
<stop stop-color="#372D98"/>
<stop offset="1" stop-color="#131724"/>
</radialGradient>
<radialGradient id="paint16_radial_25461_73189" cx="0" cy="0" r="1" gradientUnits="userSpaceOnUse" gradientTransform="translate(135.237 121.452) scale(57.4413 57.3638)">
<stop stop-color="#372D98"/>
<stop offset="1" stop-color="#131724"/>
</radialGradient>
<radialGradient id="paint17_radial_25461_73189" cx="0" cy="0" r="1" gradientUnits="userSpaceOnUse" gradientTransform="translate(135.242 123.943) scale(54.3556 54.2821)">
<stop stop-color="#372D98"/>
<stop offset="1" stop-color="#131724"/>
</radialGradient>
<radialGradient id="paint18_radial_25461_73189" cx="0" cy="0" r="1" gradientUnits="userSpaceOnUse" gradientTransform="translate(56.613 152.804) scale(16.2295 16.2076)">
<stop stop-color="#372D98"/>
<stop offset="1" stop-color="#131724"/>
</radialGradient>
<radialGradient id="paint19_radial_25461_73189" cx="0" cy="0" r="1" gradientUnits="userSpaceOnUse" gradientTransform="translate(145.414 133.721) scale(16.4075 16.3854)">
<stop stop-color="#372D98"/>
<stop offset="1" stop-color="#131724"/>
</radialGradient>
<radialGradient id="paint20_radial_25461_73189" cx="0" cy="0" r="1" gradientUnits="userSpaceOnUse" gradientTransform="translate(198.372 153.664) scale(16.7339 16.7113)">
<stop stop-color="#372D98"/>
<stop offset="1" stop-color="#131724"/>
</radialGradient>
<radialGradient id="paint21_radial_25461_73189" cx="0" cy="0" r="1" gradientUnits="userSpaceOnUse" gradientTransform="translate(151.851 140.417) scale(6.97245 6.96303)">
<stop stop-color="#372D98"/>
<stop offset="1" stop-color="#131724"/>
</radialGradient>
<radialGradient id="paint22_radial_25461_73189" cx="0" cy="0" r="1" gradientUnits="userSpaceOnUse" gradientTransform="translate(161.555 154.491) scale(6.97251 6.96306)">
<stop stop-color="#372D98"/>
<stop offset="1" stop-color="#131724"/>
</radialGradient>
<radialGradient id="paint23_radial_25461_73189" cx="0" cy="0" r="1" gradientUnits="userSpaceOnUse" gradientTransform="translate(171.016 145.16) scale(6.97245 6.96305)">
<stop stop-color="#372D98"/>
<stop offset="1" stop-color="#131724"/>
</radialGradient>
<radialGradient id="paint24_radial_25461_73189" cx="0" cy="0" r="1" gradientUnits="userSpaceOnUse" gradientTransform="translate(179.916 159.558) scale(7.23951 7.22974)">
<stop stop-color="#372D98"/>
<stop offset="1" stop-color="#131724"/>
</radialGradient>
<radialGradient id="paint25_radial_25461_73189" cx="0" cy="0" r="1" gradientUnits="userSpaceOnUse" gradientTransform="translate(177.306 145.958) scale(11.1856 11.1705)">
<stop stop-color="#372D98"/>
<stop offset="1" stop-color="#131724"/>
</radialGradient>
<radialGradient id="paint26_radial_25461_73189" cx="0" cy="0" r="1" gradientUnits="userSpaceOnUse" gradientTransform="translate(147.457 150.375) scale(11.1263 11.1113)">
<stop stop-color="#372D98"/>
<stop offset="1" stop-color="#131724"/>
</radialGradient>
<radialGradient id="paint27_radial_25461_73189" cx="0" cy="0" r="1" gradientUnits="userSpaceOnUse" gradientTransform="translate(80.8239 143.766) scale(9.8208 9.80753)">
<stop stop-color="#372D98"/>
<stop offset="1" stop-color="#131724"/>
</radialGradient>
<radialGradient id="paint28_radial_25461_73189" cx="0" cy="0" r="1" gradientUnits="userSpaceOnUse" gradientTransform="translate(79.3721 154.847) scale(9.82079 9.80753)">
<stop stop-color="#372D98"/>
<stop offset="1" stop-color="#131724"/>
</radialGradient>
<radialGradient id="paint29_radial_25461_73189" cx="0" cy="0" r="1" gradientUnits="userSpaceOnUse" gradientTransform="translate(83.4652 154.077) scale(6.11204 6.10377)">
<stop stop-color="#372D98"/>
<stop offset="1" stop-color="#131724"/>
</radialGradient>
<radialGradient id="paint30_radial_25461_73189" cx="0" cy="0" r="1" gradientUnits="userSpaceOnUse" gradientTransform="translate(74.8011 139.441) scale(6.11204 6.10378)">
<stop stop-color="#372D98"/>
<stop offset="1" stop-color="#131724"/>
</radialGradient>
<radialGradient id="paint31_radial_25461_73189" cx="0" cy="0" r="1" gradientUnits="userSpaceOnUse" gradientTransform="translate(63.6387 154.077) scale(6.11204 6.10377)">
<stop stop-color="#372D98"/>
<stop offset="1" stop-color="#131724"/>
</radialGradient>
<radialGradient id="paint32_radial_25461_73189" cx="0" cy="0" r="1" gradientUnits="userSpaceOnUse" gradientTransform="translate(90.6442 139.172) scale(16.2295 16.2076)">
<stop stop-color="#372D98"/>
<stop offset="1" stop-color="#131724"/>
</radialGradient>
<radialGradient id="paint33_radial_25461_73189" cx="0" cy="0" r="1" gradientUnits="userSpaceOnUse" gradientTransform="translate(97.6699 140.447) scale(6.11204 6.10377)">
<stop stop-color="#372D98"/>
<stop offset="1" stop-color="#131724"/>
</radialGradient>
<radialGradient id="paint34_radial_25461_73189" cx="0" cy="0" r="1" gradientUnits="userSpaceOnUse" gradientTransform="translate(64.264 142.285) scale(6.11204 6.10378)">
<stop stop-color="#372D98"/>
<stop offset="1" stop-color="#131724"/>
</radialGradient>
<linearGradient id="paint35_linear_25461_73189" x1="64.4429" y1="41" x2="64.4429" y2="183.822" gradientUnits="userSpaceOnUse">
<stop stop-color="#8365D2"/>
<stop offset="1" stop-color="#5C39B7"/>
</linearGradient>
<linearGradient id="paint36_linear_25461_73189" x1="66.5444" y1="41" x2="66.5444" y2="182.772" gradientUnits="userSpaceOnUse">
<stop stop-color="#9C7DF0"/>
<stop offset="1" stop-color="#6944CE"/>
</linearGradient>
<linearGradient id="paint37_linear_25461_73189" x1="66.5424" y1="42.5752" x2="66.5424" y2="181.041" gradientUnits="userSpaceOnUse">
<stop stop-color="#ECF4FF"/>
<stop offset="1" stop-color="#C6DDFF"/>
</linearGradient>
<linearGradient id="paint38_linear_25461_73189" x1="64.4409" y1="41" x2="64.4409" y2="183.822" gradientUnits="userSpaceOnUse">
<stop stop-color="#8365D2"/>
<stop offset="1" stop-color="#5C39B7"/>
</linearGradient>
<linearGradient id="paint39_linear_25461_73189" x1="66.5445" y1="41" x2="66.5445" y2="182.772" gradientUnits="userSpaceOnUse">
<stop stop-color="#9C7DF0"/>
<stop offset="1" stop-color="#6944CE"/>
</linearGradient>
<linearGradient id="paint40_linear_25461_73189" x1="66.5365" y1="42.5752" x2="66.5365" y2="181.041" gradientUnits="userSpaceOnUse">
<stop stop-color="#ECF4FF"/>
<stop offset="1" stop-color="#C6DDFF"/>
</linearGradient>
</defs>
</svg>
