<svg width="200" height="200" viewBox="0 0 200 200" fill="none" xmlns="http://www.w3.org/2000/svg">
<rect width="200" height="200" fill="white"/>
<g filter="url(#filter0_f_25461_74921)">
<path d="M24.9687 142.36C49.4688 174.36 83.9688 148.486 106.469 165.361C122.469 177.36 130.469 186.361 148.969 182.86C168.969 181.36 194.97 157.86 186.469 124.36C177.469 97.3604 146.469 97.8007 135.469 86.3605C122.969 73.3604 121.421 61.6503 109.469 53.3604C89.9688 39.8603 50.4688 42.2606 30.4687 63.8605C17.9688 77.3604 -0.98027 115.512 24.9687 142.36Z" fill="url(#paint0_linear_25461_74921)"/>
<path d="M162.969 82.3604C164.985 79.0847 160.766 77.551 158.969 73.8604C157.248 70.3275 158.58 65.6826 154.469 64.8604C149.469 63.8604 142.895 70.1386 145.469 77.8604C147.969 85.3604 158.969 88.8604 162.969 82.3604Z" fill="url(#paint1_linear_25461_74921)"/>
<path d="M138.469 63.8604C139.383 66.0613 145.224 61.9731 143.469 60.3604C142.452 59.4261 140.706 59.2481 139.469 59.8604C137.973 60.6001 137.829 62.3198 138.469 63.8604Z" fill="url(#paint2_linear_25461_74921)"/>
</g>
<mask id="mask0_25461_74921" style="mask-type:alpha" maskUnits="userSpaceOnUse" x="12" y="45" width="177" height="139">
<path d="M24.9687 142.36C49.4688 174.359 83.9688 148.485 106.469 165.36C122.469 177.359 130.469 186.36 148.969 182.86C168.969 181.36 194.97 157.86 186.469 124.36C177.469 97.3594 146.469 97.7997 135.469 86.3595C122.969 73.3594 121.421 61.6493 109.469 53.3594C89.9688 39.8593 50.4688 42.2596 30.4687 63.8595C17.9688 77.3594 -0.98027 115.511 24.9687 142.36Z" fill="url(#paint3_linear_25461_74921)"/>
<path d="M162.969 82.3594C164.985 79.0837 160.766 77.55 158.969 73.8594C157.248 70.3266 158.58 65.6816 154.469 64.8594C149.469 63.8594 142.895 70.1376 145.469 77.8594C147.969 85.3594 158.969 88.8594 162.969 82.3594Z" fill="url(#paint4_linear_25461_74921)"/>
<path d="M138.469 63.8594C139.383 66.0604 145.224 61.9721 143.469 60.3594C142.452 59.4251 140.706 59.2471 139.469 59.8594C137.973 60.5991 137.829 62.3188 138.469 63.8594Z" fill="url(#paint5_linear_25461_74921)"/>
</mask>
<g mask="url(#mask0_25461_74921)">
<g opacity="0.15" filter="url(#filter1_f_25461_74921)">
<path d="M53.8537 103.167C36.3998 119.767 23.8233 170.837 19.3972 154.324C14.971 137.81 -2.04434 99.1125 -1.19314 98.2667C-1.19314 98.2667 42.8984 58.4922 60.637 39.2205L143.607 6.93018C143.607 6.93018 130.701 49.9335 111.589 69.7618C93.5113 88.5169 72.7293 85.2153 53.8537 103.167Z" fill="#FF64D4"/>
</g>
<g opacity="0.8" filter="url(#filter2_f_25461_74921)">
<path d="M-51.8203 77.9897C-51.8203 111.129 -24.7409 137.988 8.65144 137.988C42.0522 137.988 69.1232 111.129 69.1232 77.9897C69.1232 44.859 42.0522 18 8.65144 18C-24.7409 18 -51.8203 44.859 -51.8203 77.9897Z" fill="url(#paint6_radial_25461_74921)"/>
<path d="M-40.2109 78.9777C-40.2109 95.4474 -31.6512 109.937 -18.7067 118.28C-14.104 121.267 -8.94805 123.471 -3.42318 124.694C-0.0529251 125.467 3.45148 125.866 7.04809 125.866C19.4979 125.866 30.8243 121.092 39.2667 113.265C42.1842 110.578 44.7581 107.525 46.9043 104.165C48.9918 100.929 50.6937 97.4271 51.9261 93.7089C53.4771 89.0758 54.3071 84.1265 54.3071 78.9777C54.3071 74.1532 53.5777 69.4951 52.2196 65.1198C47.357 49.5235 34.5215 37.4124 18.4416 33.4614C14.7946 32.5713 10.9717 32.0889 7.04809 32.0889C-2.67702 32.0889 -11.7314 35.0168 -19.2265 40.0326C-20.1319 40.6149 -21.0206 41.2554 -21.8674 41.9042C-32.9003 50.3553 -40.0349 63.5477 -40.1942 78.4037C-40.2109 78.595 -40.2109 78.7863 -40.2109 78.9777Z" fill="url(#paint7_linear_25461_74921)"/>
<g style="mix-blend-mode:overlay" opacity="0.302">
<path d="M21.9322 45.4648C38.0709 59.0648 39.7895 53.2422 33.1748 70.211C30.3315 77.5527 33.3154 87.5159 39.0392 95.6576C42.6095 100.736 49.976 99.6103 51.9292 93.7178C53.4801 89.0846 54.3101 84.1354 54.3101 78.9865C54.3101 74.1621 53.5808 69.504 52.2226 65.1287C48.6633 53.7126 40.8323 44.1639 30.584 38.3158C23.6686 34.3697 15.3152 39.5147 21.2256 44.8496C21.451 45.053 21.6864 45.2581 21.9322 45.4648Z" fill="white"/>
</g>
<g style="mix-blend-mode:overlay" opacity="0.302">
<path d="M-3.10974 114.164C-3.97821 120.424 0.71027 125.863 7.02994 125.863C17.5766 125.863 27.317 122.437 35.181 116.631C37.2836 115.079 36.8756 112.011 34.386 111.215C13.8375 104.644 23.856 60.9828 12.6219 74.092C7.55134 80.0015 -0.942961 98.5468 -3.10974 114.164Z" fill="white"/>
</g>
<g style="mix-blend-mode:overlay" opacity="0.302">
<path d="M7.23865 53.4855C9.737 48.2618 16.7206 46.6314 20.8622 50.7073C22.8994 52.7036 23.6288 55.59 19.9651 59.541C13.1408 66.8859 3.36537 61.5956 7.23865 53.4855Z" fill="white"/>
</g>
</g>
<g filter="url(#filter3_f_25461_74921)">
<g opacity="0.3" filter="url(#filter4_f_25461_74921)">
<path d="M-39.7926 216.32H219.489L258.516 213.037C202.718 160.383 146.206 135 87.2639 135C32.4639 135 -45.5461 167.625 -78.1154 213.037L-39.7926 216.32Z" fill="white"/>
</g>
<path d="M-22.4861 210.904H202.265L236.094 208.059C187.727 162.417 138.741 140.415 87.6491 140.415C40.1474 140.415 -27.4734 168.694 -55.7052 208.059L-22.4861 210.904Z" fill="url(#paint8_linear_25461_74921)" style="mix-blend-mode:screen"/>
<path style="mix-blend-mode:screen" d="M166.235 160.228C144.931 148.554 118.021 141.591 88.7956 141.591C60.5794 141.591 34.5587 148.08 13.582 159.013C9.99194 164.199 9.66556 169.532 16.5193 173.325C33.817 182.925 60.2234 170.036 97.7857 173.473C135.378 176.939 168.311 175.517 167.273 164.199C167.125 162.836 166.769 161.502 166.235 160.228Z" fill="url(#paint9_radial_25461_74921)"/>
<path style="mix-blend-mode:screen" fill-rule="evenodd" clip-rule="evenodd" d="M36.9499 157.249C37.2762 159.738 42.3795 160.982 48.3432 160.034C54.2772 159.086 58.8167 156.271 58.4607 153.782C58.1343 151.293 53.0311 150.049 47.0971 150.997C41.1334 151.945 36.5938 154.731 36.9499 157.249ZM135.009 153.931C134.149 156.301 138.036 160.094 143.643 162.405C149.251 164.716 154.473 164.686 155.333 162.316C156.164 159.975 152.277 156.182 146.67 153.871C141.062 151.56 135.84 151.59 135.009 153.931ZM119.344 158.197C118.78 159.886 121.599 162.523 125.663 164.094C129.699 165.634 133.437 165.516 134.001 163.827C134.564 162.138 131.746 159.501 127.681 157.931C123.646 156.39 119.907 156.508 119.344 158.197ZM112.401 146.019C112.015 147.293 114.211 149.19 117.267 150.227C120.323 151.234 123.082 151.056 123.468 149.753C123.854 148.479 121.658 146.612 118.602 145.575C115.546 144.538 112.787 144.716 112.401 146.019ZM16.1215 165.012C16.6259 166.227 19.4149 166.108 22.3522 164.716C25.2896 163.294 27.2478 161.16 26.7434 159.945C26.239 158.701 23.45 158.849 20.5127 160.242C17.5753 161.634 15.6171 163.768 16.1215 165.012ZM28.1972 169.101C28.3456 170.612 31.4016 171.471 35.0213 171.027C38.6411 170.583 41.4301 168.983 41.2817 167.471C41.1037 165.96 38.0477 165.071 34.4279 165.545C30.8082 165.99 28.0192 167.59 28.1972 169.101Z" fill="url(#paint10_radial_25461_74921)"/>
<path style="mix-blend-mode:screen" fill-rule="evenodd" clip-rule="evenodd" d="M141.924 162.225C144.476 163.292 146.968 163.855 149.016 163.944C147.354 163.677 145.515 163.173 143.645 162.403C138.038 160.092 134.151 156.299 135.011 153.929C135.456 152.655 137.207 152.062 139.61 152.151C136.347 151.647 133.825 152.21 133.29 153.78C132.43 156.121 136.317 159.914 141.924 162.225ZM117.625 158.018C117.061 159.736 119.88 162.373 123.944 163.914C125.754 164.625 127.534 164.981 128.988 165.01C127.95 164.832 126.822 164.536 125.665 164.092C121.6 162.521 118.782 159.884 119.346 158.195C119.672 157.277 120.918 156.803 122.639 156.832C120.058 156.418 118.04 156.803 117.625 158.018ZM51.9945 150.699C50.0956 150.403 47.811 150.432 45.3484 150.817C39.4144 151.766 34.8749 154.58 35.2309 157.069C35.4683 158.818 38.0792 159.973 41.699 160.151C38.999 159.736 37.1595 158.699 36.9518 157.247C36.5957 154.729 41.1353 151.943 47.099 150.995C48.8198 150.699 50.4813 150.61 51.9945 150.699ZM14.4025 164.832C14.6695 165.484 15.5893 165.751 16.8651 165.662C16.5091 165.514 16.2421 165.307 16.1234 165.01C15.619 163.766 17.5772 161.632 20.5146 160.24C21.8794 159.588 23.2145 159.232 24.2827 159.114C23.1849 158.669 21.019 159.025 18.7937 160.062C15.8564 161.484 13.8981 163.618 14.4025 164.832ZM26.4783 168.921C26.5969 170.107 28.5255 170.907 31.0771 170.966C29.4156 170.67 28.2881 169.988 28.1991 169.099C28.0211 167.588 30.8101 165.988 34.4298 165.544C35.2012 165.425 35.9727 165.395 36.6551 165.425C35.5276 165.218 34.1628 165.188 32.709 165.366C29.0892 165.81 26.3002 167.41 26.4783 168.921ZM110.682 145.84C110.296 147.114 112.462 149.01 115.518 150.047C116.853 150.492 118.099 150.699 119.168 150.699C118.554 150.6 117.921 150.442 117.269 150.225C114.213 149.188 112.017 147.291 112.403 146.017C112.61 145.277 113.619 144.891 114.984 144.891C112.759 144.506 110.979 144.832 110.682 145.84Z" fill="url(#paint11_radial_25461_74921)"/>
<path opacity="0.5" d="M35.0213 171.024C36.7422 170.817 38.2554 170.343 39.3828 169.75C38.1367 169.158 36.0894 168.921 33.8345 169.217C32.1136 169.424 30.6005 169.898 29.473 170.491C30.7191 171.084 32.7664 171.321 35.0213 171.024Z" fill="url(#paint12_radial_25461_74921)"/>
<path opacity="0.5" d="M48.3365 160.03C52.2826 159.408 55.6057 157.956 57.2969 156.327C55.754 154.608 51.4222 153.867 46.4673 154.667C42.5212 155.29 39.1981 156.741 37.5069 158.371C39.0498 160.09 43.3816 160.83 48.3365 160.03Z" fill="url(#paint13_radial_25461_74921)"/>
<path opacity="0.5" d="M19.9203 163.911C18.8225 164.445 17.8434 165.067 17.1016 165.719C18.2588 166.045 20.2763 165.689 22.3532 164.711C23.451 164.178 24.4005 163.556 25.1719 162.904C23.9851 162.578 21.9972 162.934 19.9203 163.911Z" fill="url(#paint14_radial_25461_74921)"/>
<path opacity="0.5" d="M146.075 157.54C141.654 155.703 137.471 155.347 135.483 156.444C136.699 158.488 139.755 160.799 143.642 162.399C148.063 164.207 152.246 164.592 154.234 163.495C153.018 161.451 149.962 159.14 146.075 157.54Z" fill="url(#paint15_radial_25461_74921)"/>
<path opacity="0.5" d="M114.031 148.593C114.891 149.216 115.989 149.779 117.265 150.223C118.719 150.697 120.113 150.904 121.211 150.875C120.38 150.253 119.282 149.66 118.007 149.245C116.553 148.741 115.129 148.534 114.031 148.593Z" fill="url(#paint16_radial_25461_74921)"/>
<path opacity="0.5" d="M127.081 161.632C124.411 160.595 121.859 160.299 120.287 160.713C121.414 161.928 123.313 163.202 125.657 164.091C128.327 165.128 130.849 165.395 132.422 165.01C131.324 163.765 129.425 162.521 127.081 161.632Z" fill="url(#paint17_radial_25461_74921)"/>
<path opacity="0.3" d="M138.3 165.011C138.033 165.93 139.635 167.322 141.89 168.093C144.174 168.863 146.222 168.715 146.489 167.767C146.785 166.848 145.153 165.455 142.898 164.685C140.644 163.915 138.567 164.063 138.3 165.011Z" fill="url(#paint18_radial_25461_74921)"/>
<path opacity="0.3" d="M53.5934 147.618C53.7417 148.595 55.7296 149.099 58.0736 148.744C60.4472 148.388 62.257 147.321 62.1087 146.343C61.99 145.366 59.9724 144.862 57.6285 145.218C55.2846 145.573 53.4747 146.64 53.5934 147.618Z" fill="url(#paint19_radial_25461_74921)"/>
<path opacity="0.3" d="M4.34408 167.382C4.8188 168.242 6.83635 167.827 8.88358 166.493C10.9011 165.16 12.1473 163.412 11.6726 162.553C11.1979 161.723 9.1803 162.138 7.16274 163.441C5.1155 164.775 3.86936 166.553 4.34408 167.382Z" fill="url(#paint20_radial_25461_74921)"/>
<path opacity="0.3" d="M48.0161 148.624C48.0458 149.039 48.9062 149.276 49.915 149.128C50.8941 148.98 51.6655 148.506 51.6062 148.091C51.5765 147.676 50.7161 147.469 49.7073 147.617C48.7282 147.765 47.9568 148.21 48.0161 148.624Z" fill="url(#paint21_radial_25461_74921)"/>
<path opacity="0.3" d="M38.2833 162.699C38.3426 163.113 39.2031 163.321 40.1822 163.173C41.1909 163.025 41.9624 162.58 41.903 162.165C41.8437 161.75 40.9833 161.513 40.0042 161.662C38.9954 161.81 38.2239 162.284 38.2833 162.699Z" fill="url(#paint22_radial_25461_74921)"/>
<path opacity="0.3" d="M28.852 153.367C28.8817 153.782 29.7421 153.989 30.7509 153.841C31.73 153.693 32.5014 153.249 32.4421 152.834C32.4124 152.419 31.552 152.212 30.5432 152.36C29.5641 152.508 28.7927 152.952 28.852 153.367Z" fill="url(#paint23_radial_25461_74921)"/>
<path opacity="0.3" d="M20.9012 167.914C21.0199 168.299 21.91 168.269 22.8595 167.884C23.7792 167.469 24.432 166.847 24.2836 166.462C24.1353 166.077 23.2749 166.077 22.3254 166.492C21.376 166.877 20.7529 167.529 20.9012 167.914Z" fill="url(#paint24_radial_25461_74921)"/>
<path opacity="0.3" d="M22.977 156.743C23.1254 157.395 24.5199 157.543 26.0924 157.099C27.6649 156.654 28.7923 155.736 28.6143 155.113C28.466 154.462 27.0715 154.313 25.499 154.758C23.9561 155.202 22.799 156.091 22.977 156.743Z" fill="url(#paint25_radial_25461_74921)"/>
<path opacity="0.3" d="M52.1438 161.101C52.2625 161.782 53.6273 162.078 55.2295 161.812C56.8317 161.545 58.0482 160.775 57.9295 160.123C57.8405 159.441 56.4757 159.145 54.8735 159.412C53.2713 159.708 52.0548 160.449 52.1438 161.101Z" fill="url(#paint26_radial_25461_74921)"/>
<path opacity="0.3" d="M116.492 152.892C116.373 153.485 117.382 154.285 118.806 154.67C120.201 155.055 121.477 154.907 121.595 154.315C121.744 153.722 120.705 152.922 119.311 152.537C117.886 152.152 116.64 152.3 116.492 152.892Z" fill="url(#paint27_radial_25461_74921)"/>
<path opacity="0.3" d="M117.944 164.003C117.825 164.595 118.834 165.366 120.258 165.751C121.653 166.166 122.928 165.988 123.077 165.425C123.195 164.832 122.157 164.032 120.762 163.647C119.338 163.262 118.092 163.41 117.944 164.003Z" fill="url(#paint28_radial_25461_74921)"/>
<path opacity="0.3" d="M115.067 161.277C114.978 161.662 115.601 162.136 116.491 162.373C117.352 162.64 118.153 162.521 118.242 162.166C118.331 161.81 117.678 161.306 116.788 161.069C115.928 160.832 115.127 160.921 115.067 161.277Z" fill="url(#paint29_radial_25461_74921)"/>
<path opacity="0.3" d="M123.731 146.641C123.642 147.026 124.265 147.5 125.155 147.767C126.045 148.004 126.817 147.885 126.906 147.53C126.995 147.174 126.342 146.671 125.482 146.434C124.592 146.197 123.82 146.285 123.731 146.641Z" fill="url(#paint30_radial_25461_74921)"/>
<path opacity="0.3" d="M134.864 161.277C134.775 161.662 135.398 162.136 136.288 162.373C137.178 162.64 137.95 162.521 138.039 162.166C138.128 161.81 137.475 161.306 136.615 161.069C135.724 160.832 134.953 160.921 134.864 161.277Z" fill="url(#paint31_radial_25461_74921)"/>
<path opacity="0.3" d="M104.268 151.379C104.001 152.298 105.604 153.69 107.888 154.461C110.143 155.231 112.19 155.083 112.457 154.135C112.754 153.216 111.122 151.824 108.867 151.053C106.612 150.283 104.535 150.431 104.268 151.379Z" fill="url(#paint32_radial_25461_74921)"/>
<path opacity="0.3" d="M100.833 147.647C100.744 148.033 101.367 148.507 102.257 148.744C103.147 149.01 103.918 148.892 104.007 148.536C104.097 148.181 103.444 147.677 102.583 147.44C101.693 147.203 100.922 147.292 100.833 147.647Z" fill="url(#paint33_radial_25461_74921)"/>
<path opacity="0.3" d="M134.239 149.514C134.15 149.87 134.802 150.344 135.663 150.611C136.553 150.848 137.324 150.759 137.413 150.374C137.502 150.018 136.879 149.514 135.989 149.277C135.099 149.04 134.328 149.129 134.239 149.514Z" fill="url(#paint34_radial_25461_74921)"/>
</g>
<g opacity="0.15" filter="url(#filter5_f_25461_74921)">
<path d="M158.794 159.911C182.814 158.124 224.897 126.574 217.861 142.156C210.825 157.737 199.477 198.459 198.282 198.574C198.282 198.574 138.97 201.419 113.036 205.094L28.3818 177.519C28.3818 177.519 65.61 152.421 92.9588 149.185C118.827 146.125 132.816 161.845 158.794 159.911Z" fill="#64EDFF"/>
</g>
<path d="M42.386 111.25C42.6796 108.64 45.1792 106.879 47.7283 107.512C60.8946 110.784 97.5817 119.777 111.361 121.867C112.057 121.973 112.695 122.061 113.269 122.13C101.353 120.701 61.5592 110.95 47.7269 107.512C45.9215 107.671 45.922 109.841 47.4559 110.222C62.397 113.935 107.628 125.015 115.298 125.015C122.709 125.015 159.573 114.672 173.718 110.623C176.002 109.969 175.462 107.915 173.99 107.913C176.77 107.118 179.528 109.209 179.528 112.1V170.574C179.528 172.733 177.938 174.564 175.8 174.867L111.361 184C110.918 184.063 110.468 184.057 110.027 183.982L39.6657 172.043C37.3978 171.658 35.825 169.57 36.0822 167.284L42.386 111.25Z" fill="url(#paint35_linear_25461_74921)"/>
<g opacity="0.5" filter="url(#filter6_f_25461_74921)">
<path d="M110.025 183.982C110.466 184.057 110.916 184.063 111.359 184L117.466 183.135L122.344 126.1C119.302 126.698 116.935 127.05 115.569 127.05C114.658 127.05 113.216 126.894 111.359 126.612L105.031 183.135L110.025 183.982Z" fill="url(#paint36_radial_25461_74921)"/>
</g>
</g>
<g opacity="0.85">
<path d="M176.301 172.466C176.301 172.681 176.031 172.672 176.031 172.466C176.031 172.466 175.907 170.553 175.297 169.744C174.674 168.918 173.166 168.696 173.166 168.696C173.111 168.67 173.111 168.57 173.166 168.544C173.166 168.544 174.638 168.336 175.26 167.543C175.895 166.733 176.001 164.773 176.001 164.773C175.949 164.557 176.219 164.592 176.219 164.773C176.219 164.773 176.355 166.733 176.99 167.543C177.612 168.336 179.084 168.544 179.084 168.544C179.139 168.57 179.139 168.67 179.084 168.696C179.084 168.696 177.576 168.918 176.953 169.744C176.343 170.553 176.301 172.466 176.301 172.466Z" fill="#E2FF30"/>
<path d="M150.713 148.545C150.713 148.653 150.578 148.648 150.578 148.545C150.578 148.545 150.516 147.588 150.211 147.184C149.899 146.771 149.145 146.66 149.145 146.66C149.118 146.647 149.118 146.597 149.145 146.584C149.145 146.584 149.881 146.48 150.192 146.084C150.51 145.679 150.563 144.699 150.563 144.699C150.537 144.591 150.672 144.608 150.672 144.699C150.672 144.699 150.74 145.679 151.058 146.084C151.369 146.48 152.105 146.584 152.105 146.584C152.132 146.597 152.132 146.647 152.105 146.66C152.105 146.66 151.351 146.771 151.039 147.184C150.734 147.588 150.713 148.545 150.713 148.545Z" fill="#E2FF30"/>
<path d="M161.713 111.545C161.713 111.653 161.578 111.648 161.578 111.545C161.578 111.545 161.516 110.588 161.211 110.184C160.899 109.771 160.145 109.66 160.145 109.66C160.118 109.647 160.118 109.597 160.145 109.584C160.145 109.584 160.881 109.48 161.192 109.084C161.51 108.679 161.563 107.699 161.563 107.699C161.537 107.591 161.672 107.608 161.672 107.699C161.672 107.699 161.74 108.679 162.058 109.084C162.369 109.48 163.105 109.584 163.105 109.584C163.132 109.597 163.132 109.647 163.105 109.66C163.105 109.66 162.351 109.771 162.039 110.184C161.734 110.588 161.713 111.545 161.713 111.545Z" fill="#E2FF30"/>
<path d="M24.7132 99.545C24.7132 99.6527 24.5782 99.6479 24.5782 99.545C24.5782 99.545 24.5161 98.5883 24.211 98.184C23.8994 97.7711 23.1454 97.6599 23.1454 97.6599C23.1182 97.6469 23.1182 97.5968 23.1454 97.5838C23.1454 97.5838 23.8815 97.4802 24.1925 97.0837C24.5101 96.6787 24.5631 95.6986 24.5631 95.6986C24.5368 95.5908 24.6722 95.6079 24.6722 95.6986C24.6722 95.6986 24.7399 96.6787 25.0575 97.0837C25.3685 97.4802 26.1046 97.5838 26.1046 97.5838C26.1318 97.5968 26.1318 97.6469 26.1046 97.6599C26.1046 97.6599 25.3506 97.7711 25.039 98.184C24.7339 98.5883 24.7132 99.545 24.7132 99.545Z" fill="#E2FF30"/>
<path d="M22.7132 141.545C22.7132 141.653 22.5782 141.648 22.5782 141.545C22.5782 141.545 22.5161 140.588 22.211 140.184C21.8994 139.771 21.1454 139.66 21.1454 139.66C21.1182 139.647 21.1182 139.597 21.1454 139.584C21.1454 139.584 21.8815 139.48 22.1925 139.084C22.5101 138.679 22.5631 137.699 22.5631 137.699C22.5368 137.591 22.6722 137.608 22.6722 137.699C22.6722 137.699 22.7399 138.679 23.0575 139.084C23.3685 139.48 24.1046 139.584 24.1046 139.584C24.1318 139.597 24.1318 139.647 24.1046 139.66C24.1046 139.66 23.3506 139.771 23.039 140.184C22.7339 140.588 22.7132 141.545 22.7132 141.545Z" fill="#E2FF30"/>
<path d="M125.713 87.545C125.713 87.6527 125.578 87.6479 125.578 87.545C125.578 87.545 125.516 86.5883 125.211 86.184C124.899 85.7711 124.145 85.6599 124.145 85.6599C124.118 85.6469 124.118 85.5968 124.145 85.5838C124.145 85.5838 124.881 85.4802 125.192 85.0837C125.51 84.6787 125.563 83.6986 125.563 83.6986C125.537 83.5908 125.672 83.6079 125.672 83.6986C125.672 83.6986 125.74 84.6787 126.058 85.0837C126.369 85.4802 127.105 85.5838 127.105 85.5838C127.132 85.5968 127.132 85.6469 127.105 85.6599C127.105 85.6599 126.351 85.7711 126.039 86.184C125.734 86.5883 125.713 87.545 125.713 87.545Z" fill="#E2FF30"/>
<path d="M140.713 171.545C140.713 171.653 140.578 171.648 140.578 171.545C140.578 171.545 140.516 170.588 140.211 170.184C139.899 169.771 139.145 169.66 139.145 169.66C139.118 169.647 139.118 169.597 139.145 169.584C139.145 169.584 139.881 169.48 140.192 169.084C140.51 168.679 140.563 167.699 140.563 167.699C140.537 167.591 140.672 167.608 140.672 167.699C140.672 167.699 140.74 168.679 141.058 169.084C141.369 169.48 142.105 169.584 142.105 169.584C142.132 169.597 142.132 169.647 142.105 169.66C142.105 169.66 141.351 169.771 141.039 170.184C140.734 170.588 140.713 171.545 140.713 171.545Z" fill="#E2FF30"/>
<path d="M108.713 153.545C108.713 153.653 108.578 153.648 108.578 153.545C108.578 153.545 108.516 152.588 108.211 152.184C107.899 151.771 107.145 151.66 107.145 151.66C107.118 151.647 107.118 151.597 107.145 151.584C107.145 151.584 107.881 151.48 108.192 151.084C108.51 150.679 108.563 149.699 108.563 149.699C108.537 149.591 108.672 149.608 108.672 149.699C108.672 149.699 108.74 150.679 109.058 151.084C109.369 151.48 110.105 151.584 110.105 151.584C110.132 151.597 110.132 151.647 110.105 151.66C110.105 151.66 109.351 151.771 109.039 152.184C108.734 152.588 108.713 153.545 108.713 153.545Z" fill="#E2FF30"/>
<path d="M154.713 83.545C154.713 83.6527 154.578 83.6479 154.578 83.545C154.578 83.545 154.516 82.5883 154.211 82.184C153.899 81.7711 153.145 81.6599 153.145 81.6599C153.118 81.6469 153.118 81.5968 153.145 81.5838C153.145 81.5838 153.881 81.4802 154.192 81.0837C154.51 80.6787 154.563 79.6986 154.563 79.6986C154.537 79.5908 154.672 79.6079 154.672 79.6986C154.672 79.6986 154.74 80.6787 155.058 81.0837C155.369 81.4802 156.105 81.5838 156.105 81.5838C156.132 81.5968 156.132 81.6469 156.105 81.6599C156.105 81.6599 155.351 81.7711 155.039 82.184C154.734 82.5883 154.713 83.545 154.713 83.545Z" fill="#E2FF30"/>
<path d="M177.713 136.545C177.713 136.653 177.578 136.648 177.578 136.545C177.578 136.545 177.516 135.588 177.211 135.184C176.899 134.771 176.145 134.66 176.145 134.66C176.118 134.647 176.118 134.597 176.145 134.584C176.145 134.584 176.881 134.48 177.192 134.084C177.51 133.679 177.563 132.699 177.563 132.699C177.537 132.591 177.672 132.608 177.672 132.699C177.672 132.699 177.74 133.679 178.058 134.084C178.369 134.48 179.105 134.584 179.105 134.584C179.132 134.597 179.132 134.647 179.105 134.66C179.105 134.66 178.351 134.771 178.039 135.184C177.734 135.588 177.713 136.545 177.713 136.545Z" fill="#E2FF30"/>
</g>
<path d="M43.0391 108.379C43.0391 108.379 78.7935 98.6169 100.227 88.6929C121.294 78.9388 151.398 58.4376 151.398 58.4376L173.861 107.176C173.861 107.176 144.434 128.677 123.414 138.443C101.863 148.455 65.5017 157.117 65.5017 157.117L43.0391 108.379Z" fill="url(#paint37_linear_25461_74921)"/>
<path d="M55.2587 108.77C56.6073 111.696 55.3977 115.147 52.5593 116.606L65.2129 144.061C68.1654 142.85 71.575 144.172 72.9235 147.098C73.1107 147.504 73.2487 147.921 73.3398 148.341C73.3398 148.341 103.182 142.543 120.65 134.435C137.802 126.474 161.137 107.876 161.137 107.876C160.943 107.622 160.768 107.349 160.614 107.058C160.561 106.959 160.511 106.857 160.463 106.753C159.078 103.747 160.391 100.188 163.396 98.8031C163.637 98.6923 163.881 98.5987 164.127 98.522L151.436 70.9853C151.218 71.1226 150.988 71.2476 150.747 71.3584C147.742 72.7435 144.183 71.43 142.798 68.4248C142.687 68.1842 142.593 67.9399 142.517 67.6938C142.517 67.6938 119.613 86.7016 102.548 94.6559C85.0207 102.825 54.8856 108.082 54.8856 108.082C55.0229 108.3 55.1479 108.53 55.2587 108.77Z" fill="url(#paint38_linear_25461_74921)"/>
<path d="M124.599 108.278C128.721 117.222 128.25 129.286 117.271 133.066C109.16 135.858 101.681 132.316 97.5596 123.373C93.4377 114.429 95.1784 106.218 102.344 100.679C109.804 94.9125 119.218 96.6029 124.599 108.278Z" fill="url(#paint39_linear_25461_74921)"/>
<path fill-rule="evenodd" clip-rule="evenodd" d="M105.91 106.274C105.666 106.423 105.547 106.743 105.643 106.989L106.425 108.983C104.04 110.946 103.196 113.835 104.088 116.11C105.305 119.214 107.771 118.974 110.121 118.41L112.174 123.645C110.816 123.959 109.713 123.398 109.136 122.235L106.718 123.712C107.879 126.254 110.366 127.149 113.13 126.082L113.735 127.627C113.832 127.873 114.108 127.952 114.352 127.803L116.059 126.76C116.303 126.611 116.423 126.291 116.326 126.045L115.722 124.505C117.931 122.562 118.699 119.778 117.772 117.415C116.602 114.587 114.323 114.738 112.089 115.239L110.063 110.071C111.121 110.033 111.97 110.641 112.473 111.708L114.814 110.278C113.633 107.667 111.506 106.709 109.057 107.506L108.234 105.407C108.137 105.161 107.861 105.082 107.617 105.231L105.91 106.274ZM107.362 111.371C106.335 112.364 106.008 113.605 106.429 114.68C106.901 115.883 107.902 116.065 109.136 115.898L107.362 111.371ZM113.066 117.73L114.764 122.062C115.658 121.042 115.881 119.831 115.482 118.814C115.071 117.765 114.183 117.585 113.066 117.73Z" fill="#F5D784"/>
<path d="M47.6172 92.708C47.6172 92.708 84.6141 90.4941 107.628 85.1817C130.249 79.9601 163.921 66.0759 163.921 66.0759L175.9 118.387C175.9 118.387 142.686 133.39 120.108 138.632C96.961 144.007 59.5958 145.019 59.5958 145.019L47.6172 92.708Z" fill="url(#paint40_linear_25461_74921)"/>
<path d="M59.5033 95.5983C60.2224 98.7388 58.3301 101.868 55.2528 102.713L62.0005 132.18C65.1388 131.602 68.2042 133.596 68.9234 136.736C69.0232 137.172 69.0727 137.608 69.0757 138.038C69.0757 138.038 99.4729 138.49 118.233 134.141C136.654 129.87 163.31 116.459 163.31 116.459C163.173 116.171 163.057 115.868 162.966 115.552C162.935 115.443 162.906 115.333 162.881 115.221C162.142 111.996 164.158 108.782 167.384 108.043C167.642 107.984 167.9 107.943 168.157 107.918L161.389 78.3626C161.147 78.4522 160.897 78.5273 160.639 78.5864C157.413 79.325 154.199 77.3088 153.461 74.0833C153.401 73.8251 153.36 73.5668 153.335 73.3101C153.335 73.3101 127.018 87.2112 108.683 91.4926C89.8518 95.8899 59.2795 94.8478 59.2795 94.8478C59.369 95.0895 59.4442 95.3401 59.5033 95.5983Z" fill="url(#paint41_linear_25461_74921)"/>
<path d="M127.463 109.355C129.661 118.954 126.723 130.664 115.202 132.109C106.691 133.177 100.099 128.175 97.9005 118.576C95.7025 108.977 99.0917 101.298 107.242 97.3478C115.726 93.2358 124.594 96.823 127.463 109.355Z" fill="url(#paint42_linear_25461_74921)"/>
<path fill-rule="evenodd" clip-rule="evenodd" d="M109.588 103.555C109.319 103.651 109.136 103.94 109.18 104.201L109.536 106.313C106.798 107.744 105.379 110.398 105.785 112.808C106.339 116.096 108.802 116.367 111.218 116.297L112.152 121.842C110.759 121.871 109.794 121.095 109.469 119.839L106.798 120.788C107.413 123.514 109.664 124.901 112.587 124.423L112.863 126.06C112.907 126.321 113.161 126.455 113.43 126.359L115.315 125.689C115.585 125.593 115.767 125.304 115.723 125.043L115.449 123.413C118.009 121.964 119.332 119.398 118.91 116.894C118.346 113.886 116.084 113.566 113.795 113.598L112.873 108.124C113.916 108.304 114.622 109.074 114.895 110.221L117.481 109.302C116.861 106.504 114.975 105.13 112.415 105.407L112.04 103.184C111.996 102.923 111.742 102.789 111.473 102.885L109.588 103.555ZM109.962 108.842C108.753 109.603 108.179 110.751 108.371 111.889C108.585 113.163 109.527 113.547 110.77 113.637L109.962 108.842ZM114.239 116.237L115.013 120.825C116.096 120.011 116.563 118.871 116.382 117.793C116.194 116.682 115.363 116.324 114.239 116.237Z" fill="#F5D784"/>
<path d="M46.1875 90.564C46.1875 90.564 84.6622 93.0682 109.105 90.564C133.13 88.1026 169.684 78.1304 169.684 78.1304L175.276 133.677C175.276 133.677 139.05 144.863 115.067 147.351C90.4793 149.902 51.7799 146.11 51.7799 146.11L46.1875 90.564Z" fill="url(#paint43_linear_25461_74921)"/>
<path d="M58.0839 95.0857C58.4196 98.4204 56.0613 101.406 52.7756 101.879L55.9258 133.169C59.24 132.978 62.146 135.433 62.4818 138.768C62.5284 139.231 62.523 139.687 62.4706 140.131C62.4706 140.131 93.7879 144.533 113.714 142.472C133.281 140.449 162.532 130.057 162.532 130.057C162.428 129.741 162.348 129.413 162.295 129.075C162.277 128.959 162.261 128.842 162.249 128.723C161.905 125.298 164.402 122.242 167.827 121.897C168.101 121.869 168.373 121.86 168.641 121.868L165.481 90.4846C165.22 90.5458 164.952 90.5909 164.678 90.6185C161.253 90.9633 158.196 88.4662 157.851 85.0411C157.824 84.767 157.815 84.495 157.822 84.2269C157.822 84.2269 128.858 95.1686 109.378 97.2144C89.3718 99.3154 57.95 94.2821 57.95 94.2821C58.0112 94.5432 58.0563 94.8116 58.0839 95.0857Z" fill="url(#paint44_linear_25461_74921)"/>
<path d="M126.451 118.083C127.477 128.276 122.928 139.983 110.85 139.983C101.926 139.983 95.7692 133.967 94.743 123.775C93.7168 113.582 98.2092 106.095 107.133 103.072C116.423 99.9262 125.111 104.777 126.451 118.083Z" fill="url(#paint45_linear_25461_74921)"/>
<path fill-rule="evenodd" clip-rule="evenodd" d="M108.746 109.785C108.456 109.849 108.23 110.123 108.241 110.398L108.335 112.625C105.324 113.748 103.516 116.303 103.623 118.843C103.769 122.308 106.276 122.907 108.779 123.148L109.026 128.992C107.584 128.842 106.689 127.916 106.515 126.577L103.636 127.211C103.917 130.105 106.061 131.828 109.14 131.713L109.213 133.438C109.225 133.713 109.47 133.884 109.76 133.82L111.793 133.372C112.083 133.309 112.309 133.034 112.297 132.759L112.225 131.04C115.055 129.877 116.753 127.399 116.642 124.76C116.449 121.582 114.155 120.959 111.788 120.696L111.545 114.926C112.599 115.247 113.228 116.133 113.361 117.352L116.149 116.738C115.871 113.77 114.103 112.107 111.424 112.062L111.325 109.719C111.314 109.444 111.069 109.273 110.779 109.337L108.746 109.785ZM108.448 115.291C107.102 115.919 106.36 117.03 106.411 118.229C106.467 119.572 107.39 120.09 108.661 120.344L108.448 115.291ZM111.906 123.477L112.11 128.313C113.334 127.612 113.963 126.497 113.915 125.36C113.866 124.19 113.054 123.712 111.906 123.477Z" fill="#F5D784"/>
<path d="M115.297 125.015C107.627 125.015 62.3959 113.935 47.4548 110.222C45.921 109.841 45.9204 107.671 47.7258 107.512C62.6669 111.225 107.898 122.305 115.568 122.305C122.979 122.305 159.843 111.962 173.988 107.913C175.46 107.913 176.002 109.969 173.717 110.623C159.572 114.672 122.708 125.015 115.297 125.015Z" fill="#875D24"/>
<path fill-rule="evenodd" clip-rule="evenodd" d="M47.7283 107.512C45.1792 106.879 42.6796 108.64 42.386 111.25L38.3078 147.5L111.361 161L179.528 154V112.1C179.528 109.209 176.77 107.118 173.99 107.913C175.462 107.915 176.002 109.969 173.718 110.623C159.573 114.672 122.709 125.015 115.298 125.015C107.628 125.015 62.397 113.935 47.4559 110.222C45.922 109.841 45.9215 107.671 47.7269 107.512C60.8936 110.784 97.5827 119.777 111.361 121.867C97.5816 119.777 60.8946 110.784 47.7283 107.512Z" fill="url(#paint46_linear_25461_74921)"/>
<g opacity="0.5" filter="url(#filter7_f_25461_74921)">
<path fill-rule="evenodd" clip-rule="evenodd" d="M107.565 160.5L111.359 161L119.402 160.5L122.344 126.1C119.302 126.698 116.935 127.05 115.569 127.05C114.658 127.05 113.216 126.894 111.359 126.612L107.565 160.5Z" fill="url(#paint47_radial_25461_74921)"/>
</g>
<rect x="51.7812" y="120.84" width="60.7052" height="2.16804" rx="1.08402" transform="rotate(11.4758 51.7812 120.84)" fill="#A37331"/>
<rect x="49.625" y="131.466" width="60.7052" height="2.16804" rx="1.08402" transform="rotate(11.4758 49.625 131.466)" fill="#A37331"/>
<rect x="47.4688" y="142.088" width="60.7052" height="2.16804" rx="1.08402" transform="rotate(11.4758 47.4688 142.088)" fill="#A37331"/>
<path fill-rule="evenodd" clip-rule="evenodd" d="M186.379 128.512L165.783 125.154C164.463 124.939 163.266 125.957 163.266 127.294V139.432C163.266 140.495 164.036 141.401 165.085 141.572L177.707 143.63L179.526 143.981C182.767 144.795 182.24 149.626 179.554 149.676L179.526 149.676C179.535 149.676 179.545 149.676 179.554 149.676L180.881 149.66H186.301C187.498 149.66 188.198 148.706 188.198 147.508V130.652C188.198 129.589 187.428 128.683 186.379 128.512Z" fill="url(#paint48_linear_25461_74921)"/>
<path d="M179.526 143.981V149.676L179.554 149.676C182.24 149.626 182.767 144.795 179.526 143.981Z" fill="#7C5D33"/>
<circle cx="171.131" cy="134.229" r="4.60709" fill="#76471B"/>
<circle cx="171.936" cy="43.4577" r="12.8737" fill="#D2AD34"/>
<circle cx="173.108" cy="42.8737" r="12.8737" fill="url(#paint49_linear_25461_74921)"/>
<path fill-rule="evenodd" clip-rule="evenodd" d="M172.597 34.0679C172.385 34.0679 172.213 34.2312 172.213 34.4326V36.0644C170 36.3983 168.613 37.9651 168.613 39.8263C168.613 42.3665 170.409 43.2023 172.213 43.7774V48.0612C171.174 47.7212 170.555 46.9059 170.47 45.9055H168.367C168.482 48.0519 169.981 49.6458 172.213 50.0553V51.3198C172.213 51.5212 172.385 51.6845 172.597 51.6845H174.081C174.293 51.6845 174.465 51.5212 174.465 51.3198V50.0601C176.549 49.6677 177.853 48.1398 177.853 46.2057C177.81 43.8671 176.17 43.0479 174.465 42.478V38.2491C175.218 38.6509 175.646 39.3948 175.705 40.3017H177.741C177.631 38.1017 176.402 36.6114 174.465 36.1503V34.4326C174.465 34.2312 174.293 34.0679 174.081 34.0679H172.597ZM172.213 38.0184C171.22 38.2598 170.649 38.9474 170.649 39.8263C170.649 40.8109 171.301 41.3346 172.213 41.7223V38.0184ZM174.465 44.5162V48.061C175.372 47.748 175.862 47.0385 175.862 46.2057C175.862 45.3476 175.289 44.8712 174.465 44.5162Z" fill="#DD9800"/>
<circle cx="55.8581" cy="63.3092" r="12.8737" fill="#D2AD34"/>
<circle cx="57.0299" cy="62.7243" r="12.8737" fill="url(#paint50_linear_25461_74921)"/>
<path fill-rule="evenodd" clip-rule="evenodd" d="M56.5188 53.915C56.3067 53.915 56.1348 54.0783 56.1348 54.2798V55.9116C53.9216 56.2455 52.5352 57.8123 52.5352 59.6735C52.5352 62.2137 54.3309 63.0495 56.1348 63.6246V67.9083C55.0958 67.5684 54.4765 66.7531 54.3921 65.7526H52.2891C52.4042 67.8991 53.9028 69.493 56.1348 69.9024V71.167C56.1348 71.3684 56.3067 71.5317 56.5188 71.5317H58.0032C58.2152 71.5317 58.3871 71.3684 58.3871 71.167V69.9073C60.4708 69.5149 61.7749 67.9869 61.7749 66.0528C61.7323 63.7143 60.0917 62.8951 58.3871 62.3251V58.0963C59.1399 58.4981 59.5682 59.2419 59.6272 60.1488H61.6631C61.5528 57.9488 60.3242 56.4585 58.3871 55.9974V54.2798C58.3871 54.0783 58.2152 53.915 58.0032 53.915H56.5188ZM56.1348 57.8656C55.1417 58.107 54.571 58.7945 54.571 59.6735C54.571 60.6581 55.2231 61.1818 56.1348 61.5695V57.8656ZM58.3871 64.3634V67.9081C59.2941 67.5952 59.7838 66.8856 59.7838 66.0528C59.7838 65.1948 59.2109 64.7183 58.3871 64.3634Z" fill="#DD9800"/>
<circle cx="22.8737" cy="114.989" r="12.8737" fill="#D2AD34"/>
<circle cx="24.0456" cy="114.404" r="12.8737" fill="url(#paint51_linear_25461_74921)"/>
<path fill-rule="evenodd" clip-rule="evenodd" d="M23.5344 105.595C23.3223 105.595 23.1504 105.758 23.1504 105.959V107.591C20.9372 107.925 19.5508 109.492 19.5508 111.353C19.5508 113.893 21.3465 114.729 23.1504 115.304V119.588C22.1115 119.248 21.4921 118.433 21.4077 117.432H19.3047C19.4199 119.579 20.9184 121.173 23.1504 121.582V122.847C23.1504 123.048 23.3223 123.211 23.5344 123.211H25.0188C25.2309 123.211 25.4028 123.048 25.4028 122.847V121.587C27.4864 121.195 28.7906 119.667 28.7906 117.733C28.7479 115.394 27.1073 114.575 25.4028 114.005V109.776C26.1555 110.178 26.5838 110.922 26.6428 111.829H28.6787C28.5684 109.629 27.3398 108.138 25.4028 107.677V105.959C25.4028 105.758 25.2309 105.595 25.0188 105.595H23.5344ZM23.1504 109.545C22.1573 109.787 21.5867 110.474 21.5867 111.353C21.5867 112.338 22.2387 112.861 23.1504 113.249V109.545ZM25.4028 116.043V119.588C26.3097 119.275 26.7994 118.565 26.7994 117.733C26.7994 116.874 26.2265 116.398 25.4028 116.043Z" fill="#DD9800"/>
<defs>
<filter id="filter0_f_25461_74921" x="10" y="43.001" width="180.125" height="142.623" filterUnits="userSpaceOnUse" color-interpolation-filters="sRGB">
<feFlood flood-opacity="0" result="BackgroundImageFix"/>
<feBlend mode="normal" in="SourceGraphic" in2="BackgroundImageFix" result="shape"/>
<feGaussianBlur stdDeviation="1" result="effect1_foregroundBlur_25461_74921"/>
</filter>
<filter id="filter1_f_25461_74921" x="-5.22656" y="2.93018" width="152.836" height="158.638" filterUnits="userSpaceOnUse" color-interpolation-filters="sRGB">
<feFlood flood-opacity="0" result="BackgroundImageFix"/>
<feBlend mode="normal" in="SourceGraphic" in2="BackgroundImageFix" result="shape"/>
<feGaussianBlur stdDeviation="2" result="effect1_foregroundBlur_25461_74921"/>
</filter>
<filter id="filter2_f_25461_74921" x="-52.8203" y="17" width="122.945" height="121.988" filterUnits="userSpaceOnUse" color-interpolation-filters="sRGB">
<feFlood flood-opacity="0" result="BackgroundImageFix"/>
<feBlend mode="normal" in="SourceGraphic" in2="BackgroundImageFix" result="shape"/>
<feGaussianBlur stdDeviation="0.5" result="effect1_foregroundBlur_25461_74921"/>
</filter>
<filter id="filter3_f_25461_74921" x="-78.6522" y="134.465" width="337.703" height="82.3898" filterUnits="userSpaceOnUse" color-interpolation-filters="sRGB">
<feFlood flood-opacity="0" result="BackgroundImageFix"/>
<feBlend mode="normal" in="SourceGraphic" in2="BackgroundImageFix" result="shape"/>
<feGaussianBlur stdDeviation="0.267491" result="effect1_foregroundBlur_25461_74921"/>
</filter>
<filter id="filter4_f_25461_74921" x="-82.1172" y="131" width="344.633" height="89.3198" filterUnits="userSpaceOnUse" color-interpolation-filters="sRGB">
<feFlood flood-opacity="0" result="BackgroundImageFix"/>
<feBlend mode="normal" in="SourceGraphic" in2="BackgroundImageFix" result="shape"/>
<feGaussianBlur stdDeviation="2" result="effect1_foregroundBlur_25461_74921"/>
</filter>
<filter id="filter5_f_25461_74921" x="24.3828" y="133.847" width="198.258" height="75.2471" filterUnits="userSpaceOnUse" color-interpolation-filters="sRGB">
<feFlood flood-opacity="0" result="BackgroundImageFix"/>
<feBlend mode="normal" in="SourceGraphic" in2="BackgroundImageFix" result="shape"/>
<feGaussianBlur stdDeviation="2" result="effect1_foregroundBlur_25461_74921"/>
</filter>
<filter id="filter6_f_25461_74921" x="100.695" y="121.764" width="25.9847" height="66.6155" filterUnits="userSpaceOnUse" color-interpolation-filters="sRGB">
<feFlood flood-opacity="0" result="BackgroundImageFix"/>
<feBlend mode="normal" in="SourceGraphic" in2="BackgroundImageFix" result="shape"/>
<feGaussianBlur stdDeviation="2.16804" result="effect1_foregroundBlur_25461_74921"/>
</filter>
<filter id="filter7_f_25461_74921" x="103.226" y="121.764" width="23.4534" height="43.5726" filterUnits="userSpaceOnUse" color-interpolation-filters="sRGB">
<feFlood flood-opacity="0" result="BackgroundImageFix"/>
<feBlend mode="normal" in="SourceGraphic" in2="BackgroundImageFix" result="shape"/>
<feGaussianBlur stdDeviation="2.16804" result="effect1_foregroundBlur_25461_74921"/>
</filter>
<linearGradient id="paint0_linear_25461_74921" x1="175.625" y1="218.624" x2="80.125" y2="43.124" gradientUnits="userSpaceOnUse">
<stop stop-color="#8264D4"/>
<stop offset="1" stop-color="#644E9F"/>
</linearGradient>
<linearGradient id="paint1_linear_25461_74921" x1="175.625" y1="218.624" x2="80.125" y2="43.124" gradientUnits="userSpaceOnUse">
<stop stop-color="#8264D4"/>
<stop offset="1" stop-color="#644E9F"/>
</linearGradient>
<linearGradient id="paint2_linear_25461_74921" x1="175.625" y1="218.624" x2="80.125" y2="43.124" gradientUnits="userSpaceOnUse">
<stop stop-color="#8264D4"/>
<stop offset="1" stop-color="#644E9F"/>
</linearGradient>
<linearGradient id="paint3_linear_25461_74921" x1="175.625" y1="218.623" x2="80.125" y2="43.123" gradientUnits="userSpaceOnUse">
<stop stop-color="#DC92FF"/>
<stop offset="1" stop-color="#8264D5"/>
</linearGradient>
<linearGradient id="paint4_linear_25461_74921" x1="175.625" y1="218.623" x2="80.125" y2="43.123" gradientUnits="userSpaceOnUse">
<stop stop-color="#DC92FF"/>
<stop offset="1" stop-color="#8264D5"/>
</linearGradient>
<linearGradient id="paint5_linear_25461_74921" x1="175.625" y1="218.623" x2="80.125" y2="43.123" gradientUnits="userSpaceOnUse">
<stop stop-color="#DC92FF"/>
<stop offset="1" stop-color="#8264D5"/>
</linearGradient>
<radialGradient id="paint6_radial_25461_74921" cx="0" cy="0" r="1" gradientUnits="userSpaceOnUse" gradientTransform="translate(8.65312 77.993) scale(60.4701 59.9963)">
<stop stop-color="#FEE7CA"/>
<stop offset="1" stop-color="#FEE7CA" stop-opacity="0"/>
</radialGradient>
<linearGradient id="paint7_linear_25461_74921" x1="12.8479" y1="153.454" x2="71.1295" y2="78.2642" gradientUnits="userSpaceOnUse">
<stop offset="0.137" stop-color="#3F7BDC"/>
<stop offset="1" stop-color="#F7D3A1"/>
</linearGradient>
<linearGradient id="paint8_linear_25461_74921" x1="89.9297" y1="140.451" x2="89.9297" y2="230.753" gradientUnits="userSpaceOnUse">
<stop stop-color="white"/>
<stop offset="1" stop-color="#709CFA"/>
</linearGradient>
<radialGradient id="paint9_radial_25461_74921" cx="0" cy="0" r="1" gradientUnits="userSpaceOnUse" gradientTransform="translate(92.7418 134.865) rotate(180) scale(63.9983 63.9119)">
<stop stop-color="#372D98"/>
<stop offset="1" stop-color="#131724"/>
</radialGradient>
<radialGradient id="paint10_radial_25461_74921" cx="0" cy="0" r="1" gradientUnits="userSpaceOnUse" gradientTransform="translate(85.7275 158.019) rotate(180) scale(13.1438 13.1261)">
<stop stop-color="#372D98"/>
<stop offset="1" stop-color="#131724"/>
</radialGradient>
<radialGradient id="paint11_radial_25461_74921" cx="0" cy="0" r="1" gradientUnits="userSpaceOnUse" gradientTransform="translate(81.6646 157.84) rotate(180) scale(13.1438 13.1261)">
<stop stop-color="#372D98"/>
<stop offset="1" stop-color="#131724"/>
</radialGradient>
<radialGradient id="paint12_radial_25461_74921" cx="0" cy="0" r="1" gradientUnits="userSpaceOnUse" gradientTransform="translate(65.2255 130.668) rotate(180) scale(51.6259 51.5562)">
<stop stop-color="#372D98"/>
<stop offset="1" stop-color="#131724"/>
</radialGradient>
<radialGradient id="paint13_radial_25461_74921" cx="0" cy="0" r="1" gradientUnits="userSpaceOnUse" gradientTransform="translate(65.2188 128.949) rotate(180) scale(51.6259 51.5562)">
<stop stop-color="#372D98"/>
<stop offset="1" stop-color="#131724"/>
</radialGradient>
<radialGradient id="paint14_radial_25461_74921" cx="0" cy="0" r="1" gradientUnits="userSpaceOnUse" gradientTransform="translate(65.2264 129.155) rotate(180) scale(52.7533 52.6821)">
<stop stop-color="#372D98"/>
<stop offset="1" stop-color="#131724"/>
</radialGradient>
<radialGradient id="paint15_radial_25461_74921" cx="0" cy="0" r="1" gradientUnits="userSpaceOnUse" gradientTransform="translate(65.2242 128.117) rotate(180) scale(53.6138 53.5414)">
<stop stop-color="#372D98"/>
<stop offset="1" stop-color="#131724"/>
</radialGradient>
<radialGradient id="paint16_radial_25461_74921" cx="0" cy="0" r="1" gradientUnits="userSpaceOnUse" gradientTransform="translate(65.2235 125.452) rotate(180) scale(57.4413 57.3638)">
<stop stop-color="#372D98"/>
<stop offset="1" stop-color="#131724"/>
</radialGradient>
<radialGradient id="paint17_radial_25461_74921" cx="0" cy="0" r="1" gradientUnits="userSpaceOnUse" gradientTransform="translate(65.2191 127.943) rotate(180) scale(54.3556 54.2821)">
<stop stop-color="#372D98"/>
<stop offset="1" stop-color="#131724"/>
</radialGradient>
<radialGradient id="paint18_radial_25461_74921" cx="0" cy="0" r="1" gradientUnits="userSpaceOnUse" gradientTransform="translate(143.848 156.804) rotate(180) scale(16.2295 16.2076)">
<stop stop-color="#372D98"/>
<stop offset="1" stop-color="#131724"/>
</radialGradient>
<radialGradient id="paint19_radial_25461_74921" cx="0" cy="0" r="1" gradientUnits="userSpaceOnUse" gradientTransform="translate(55.0472 137.721) rotate(180) scale(16.4075 16.3854)">
<stop stop-color="#372D98"/>
<stop offset="1" stop-color="#131724"/>
</radialGradient>
<radialGradient id="paint20_radial_25461_74921" cx="0" cy="0" r="1" gradientUnits="userSpaceOnUse" gradientTransform="translate(2.08916 157.664) rotate(180) scale(16.7339 16.7113)">
<stop stop-color="#372D98"/>
<stop offset="1" stop-color="#131724"/>
</radialGradient>
<radialGradient id="paint21_radial_25461_74921" cx="0" cy="0" r="1" gradientUnits="userSpaceOnUse" gradientTransform="translate(48.6095 144.417) rotate(180) scale(6.97245 6.96303)">
<stop stop-color="#372D98"/>
<stop offset="1" stop-color="#131724"/>
</radialGradient>
<radialGradient id="paint22_radial_25461_74921" cx="0" cy="0" r="1" gradientUnits="userSpaceOnUse" gradientTransform="translate(38.9063 158.491) rotate(180) scale(6.97251 6.96306)">
<stop stop-color="#372D98"/>
<stop offset="1" stop-color="#131724"/>
</radialGradient>
<radialGradient id="paint23_radial_25461_74921" cx="0" cy="0" r="1" gradientUnits="userSpaceOnUse" gradientTransform="translate(29.4454 149.16) rotate(180) scale(6.97245 6.96305)">
<stop stop-color="#372D98"/>
<stop offset="1" stop-color="#131724"/>
</radialGradient>
<radialGradient id="paint24_radial_25461_74921" cx="0" cy="0" r="1" gradientUnits="userSpaceOnUse" gradientTransform="translate(20.5452 163.558) rotate(180) scale(7.23951 7.22974)">
<stop stop-color="#372D98"/>
<stop offset="1" stop-color="#131724"/>
</radialGradient>
<radialGradient id="paint25_radial_25461_74921" cx="0" cy="0" r="1" gradientUnits="userSpaceOnUse" gradientTransform="translate(23.155 149.958) rotate(180) scale(11.1856 11.1705)">
<stop stop-color="#372D98"/>
<stop offset="1" stop-color="#131724"/>
</radialGradient>
<radialGradient id="paint26_radial_25461_74921" cx="0" cy="0" r="1" gradientUnits="userSpaceOnUse" gradientTransform="translate(53.0043 154.375) rotate(180) scale(11.1263 11.1113)">
<stop stop-color="#372D98"/>
<stop offset="1" stop-color="#131724"/>
</radialGradient>
<radialGradient id="paint27_radial_25461_74921" cx="0" cy="0" r="1" gradientUnits="userSpaceOnUse" gradientTransform="translate(119.637 147.766) rotate(180) scale(9.8208 9.80753)">
<stop stop-color="#372D98"/>
<stop offset="1" stop-color="#131724"/>
</radialGradient>
<radialGradient id="paint28_radial_25461_74921" cx="0" cy="0" r="1" gradientUnits="userSpaceOnUse" gradientTransform="translate(121.089 158.847) rotate(180) scale(9.82079 9.80753)">
<stop stop-color="#372D98"/>
<stop offset="1" stop-color="#131724"/>
</radialGradient>
<radialGradient id="paint29_radial_25461_74921" cx="0" cy="0" r="1" gradientUnits="userSpaceOnUse" gradientTransform="translate(116.996 158.077) rotate(180) scale(6.11204 6.10377)">
<stop stop-color="#372D98"/>
<stop offset="1" stop-color="#131724"/>
</radialGradient>
<radialGradient id="paint30_radial_25461_74921" cx="0" cy="0" r="1" gradientUnits="userSpaceOnUse" gradientTransform="translate(125.66 143.441) rotate(180) scale(6.11204 6.10378)">
<stop stop-color="#372D98"/>
<stop offset="1" stop-color="#131724"/>
</radialGradient>
<radialGradient id="paint31_radial_25461_74921" cx="0" cy="0" r="1" gradientUnits="userSpaceOnUse" gradientTransform="translate(136.822 158.077) rotate(180) scale(6.11204 6.10377)">
<stop stop-color="#372D98"/>
<stop offset="1" stop-color="#131724"/>
</radialGradient>
<radialGradient id="paint32_radial_25461_74921" cx="0" cy="0" r="1" gradientUnits="userSpaceOnUse" gradientTransform="translate(109.817 143.172) rotate(180) scale(16.2295 16.2076)">
<stop stop-color="#372D98"/>
<stop offset="1" stop-color="#131724"/>
</radialGradient>
<radialGradient id="paint33_radial_25461_74921" cx="0" cy="0" r="1" gradientUnits="userSpaceOnUse" gradientTransform="translate(102.791 144.447) rotate(180) scale(6.11204 6.10377)">
<stop stop-color="#372D98"/>
<stop offset="1" stop-color="#131724"/>
</radialGradient>
<radialGradient id="paint34_radial_25461_74921" cx="0" cy="0" r="1" gradientUnits="userSpaceOnUse" gradientTransform="translate(136.197 146.285) rotate(180) scale(6.11204 6.10378)">
<stop stop-color="#372D98"/>
<stop offset="1" stop-color="#131724"/>
</radialGradient>
<linearGradient id="paint35_linear_25461_74921" x1="107.791" y1="107.383" x2="107.791" y2="184.043" gradientUnits="userSpaceOnUse">
<stop stop-color="#E6B167"/>
<stop offset="1" stop-color="#E1A147"/>
</linearGradient>
<radialGradient id="paint36_radial_25461_74921" cx="0" cy="0" r="1" gradientUnits="userSpaceOnUse" gradientTransform="translate(113.943 152.929) rotate(93.7314) scale(49.9709 13.8005)">
<stop stop-color="#B37827"/>
<stop offset="0.522245" stop-color="#CB8E38" stop-opacity="0.75"/>
<stop offset="1" stop-color="#E1A147" stop-opacity="0"/>
</radialGradient>
<linearGradient id="paint37_linear_25461_74921" x1="97.2187" y1="83.4083" x2="122.729" y2="138.759" gradientUnits="userSpaceOnUse">
<stop stop-color="#46A067"/>
<stop offset="1" stop-color="#408B5C"/>
</linearGradient>
<linearGradient id="paint38_linear_25461_74921" x1="99.1743" y1="87.6697" x2="117.961" y2="128.357" gradientUnits="userSpaceOnUse">
<stop stop-color="#F5D784"/>
<stop offset="1" stop-color="#C09F43"/>
</linearGradient>
<linearGradient id="paint39_linear_25461_74921" x1="103.606" y1="99.6101" x2="114.392" y2="125.177" gradientUnits="userSpaceOnUse">
<stop stop-color="#46A067"/>
<stop offset="1" stop-color="#458E60"/>
</linearGradient>
<linearGradient id="paint40_linear_25461_74921" x1="105.769" y1="79.392" x2="119.373" y2="138.801" gradientUnits="userSpaceOnUse">
<stop stop-color="#46A067"/>
<stop offset="1" stop-color="#408B5C"/>
</linearGradient>
<linearGradient id="paint41_linear_25461_74921" x1="106.815" y1="83.9627" x2="116.849" y2="127.64" gradientUnits="userSpaceOnUse">
<stop stop-color="#F5D784"/>
<stop offset="1" stop-color="#C09F43"/>
</linearGradient>
<linearGradient id="paint42_linear_25461_74921" x1="108.697" y1="96.561" x2="114.004" y2="123.797" gradientUnits="userSpaceOnUse">
<stop stop-color="#46A067"/>
<stop offset="1" stop-color="#458E60"/>
</linearGradient>
<linearGradient id="paint43_linear_25461_74921" x1="107.936" y1="84.3472" x2="114.287" y2="147.43" gradientUnits="userSpaceOnUse">
<stop stop-color="#46A067"/>
<stop offset="1" stop-color="#408B5C"/>
</linearGradient>
<linearGradient id="paint44_linear_25461_74921" x1="108.425" y1="89.2002" x2="113.128" y2="135.583" gradientUnits="userSpaceOnUse">
<stop stop-color="#F5D784"/>
<stop offset="1" stop-color="#D7B24D"/>
</linearGradient>
<linearGradient id="paint45_linear_25461_74921" x1="108.736" y1="102.448" x2="110.689" y2="131.248" gradientUnits="userSpaceOnUse">
<stop stop-color="#46A067"/>
<stop offset="1" stop-color="#458E60"/>
</linearGradient>
<linearGradient id="paint46_linear_25461_74921" x1="107.791" y1="107.383" x2="107.791" y2="184.043" gradientUnits="userSpaceOnUse">
<stop stop-color="#E6B167"/>
<stop offset="1" stop-color="#E1A147"/>
</linearGradient>
<radialGradient id="paint47_radial_25461_74921" cx="0" cy="0" r="1" gradientUnits="userSpaceOnUse" gradientTransform="translate(113.943 152.929) rotate(93.7314) scale(49.9709 13.8005)">
<stop stop-color="#B37827"/>
<stop offset="0.522245" stop-color="#CB8E38" stop-opacity="0.75"/>
<stop offset="1" stop-color="#E1A147" stop-opacity="0"/>
</radialGradient>
<linearGradient id="paint48_linear_25461_74921" x1="175.732" y1="125.125" x2="186.572" y2="148.592" gradientUnits="userSpaceOnUse">
<stop stop-color="#CE974B"/>
<stop offset="1" stop-color="#B48340"/>
</linearGradient>
<linearGradient id="paint49_linear_25461_74921" x1="173.108" y1="30" x2="173.108" y2="55.7474" gradientUnits="userSpaceOnUse">
<stop stop-color="#FDD450"/>
<stop offset="1" stop-color="#E4B92B"/>
</linearGradient>
<linearGradient id="paint50_linear_25461_74921" x1="57.0299" y1="49.8506" x2="57.0299" y2="75.598" gradientUnits="userSpaceOnUse">
<stop stop-color="#FDD450"/>
<stop offset="1" stop-color="#E4B92B"/>
</linearGradient>
<linearGradient id="paint51_linear_25461_74921" x1="24.0456" y1="101.53" x2="24.0456" y2="127.278" gradientUnits="userSpaceOnUse">
<stop stop-color="#FDD450"/>
<stop offset="1" stop-color="#E4B92B"/>
</linearGradient>
</defs>
</svg>
