<svg width="165" height="47" viewBox="0 0 165 47" fill="none" xmlns="http://www.w3.org/2000/svg">
<g clip-path="url(#clip0_7702_67107)">
<path d="M165 0V47H117.857V0H165ZM106.071 0V47H58.9286V0H106.071ZM47.1429 0V47H0V0H47.1429ZM143.617 10.0155C141.485 10.0155 139.577 10.3512 137.893 10.9667C136.265 11.5262 134.75 12.4774 133.515 13.7083C132.281 14.8833 131.327 16.3381 130.709 17.9607C130.036 19.6393 129.755 21.4857 129.755 23.5C129.755 25.6262 130.092 27.4726 130.709 29.1512C131.327 30.8298 132.224 32.2286 133.403 33.4036C134.582 34.5786 135.985 35.4738 137.724 36.0893C139.408 36.7048 141.316 37.0405 143.449 37.0405C145.02 37.0405 146.592 36.8726 147.995 36.5369C149.342 36.2571 150.633 35.7536 151.811 35.0821V30.0464C149.51 31.4452 146.872 32.2286 144.235 32.1726C142.439 32.1726 140.923 31.8369 139.633 31.1655C138.398 30.494 137.388 29.4869 136.77 28.2C136.097 26.9131 135.76 25.3464 135.76 23.5C135.76 21.6536 136.097 20.0869 136.77 18.8C137.444 17.569 138.454 16.506 139.745 15.8905C141.036 15.219 142.607 14.8833 144.403 14.8833C145.75 14.8833 146.985 15.0512 148.163 15.3869C149.342 15.7226 150.464 16.2262 151.474 16.9536V11.75C150.296 11.1345 149.117 10.6869 147.827 10.4071C146.423 10.1274 145.02 10.0155 143.617 10.0155ZM82.1633 10.2952H72.2296V36.7048H82.7806C84.8571 36.7048 86.6531 36.425 88.1684 35.7536C89.6837 35.1381 90.8061 34.2429 91.5918 33.1238C92.3775 32.0048 92.8265 30.606 92.8265 29.0393C92.8265 27.4167 92.4337 26.0738 91.5918 24.9548C90.75 23.8357 89.5714 22.9964 88 22.4929C89.1224 21.9333 89.9643 21.206 90.5816 20.3107C91.1429 19.3595 91.4235 18.2964 91.4235 17.0655C91.4235 14.8833 90.6378 13.2048 89.0102 12.0298C87.3827 10.8548 85.0816 10.2952 82.1633 10.2952ZM23.2347 10.2952H13.2449V36.7048H23.7959C25.8724 36.7048 27.6684 36.425 29.1837 35.7536C30.699 35.1381 31.8214 34.2429 32.6071 33.1238C33.3929 32.0048 33.8418 30.606 33.8418 29.0393C33.8418 27.4167 33.449 26.0738 32.6071 24.9548C31.7653 23.8357 30.5867 22.9964 29.0153 22.4929C30.1378 21.9333 30.9796 21.206 31.5969 20.3107C32.1582 19.3595 32.4388 18.2964 32.4388 17.0655C32.4388 14.8833 31.6531 13.2048 30.0255 12.0298C28.398 10.8548 26.1531 10.2952 23.2347 10.2952ZM82.3316 25.2905C85.6429 25.2905 87.2704 26.5214 87.2704 28.9274C87.2704 30.0464 86.8214 30.9417 85.9796 31.5571C85.1377 32.1726 83.8469 32.4524 82.2755 32.4524H77.5612V25.2905H82.3316ZM23.4031 25.2905C26.7143 25.2905 28.3418 26.5214 28.3418 28.9274C28.3418 30.0464 27.8929 30.9417 27.051 31.5571C26.2092 32.1726 24.9184 32.4524 23.3469 32.4524H18.6327V25.2905H23.4031ZM81.6582 14.5476C84.5204 14.5476 85.9235 15.6107 85.9235 17.681C85.9235 18.744 85.5306 19.5833 84.801 20.1988C84.0714 20.8143 83.0051 21.094 81.602 21.094H77.5051V14.5476H81.6582ZM22.7296 14.5476C25.5918 14.5476 26.9949 15.6107 26.9949 17.681C26.9949 18.744 26.602 19.5833 25.8724 20.1988C25.1429 20.8143 24.0765 21.094 22.6735 21.094H18.5765V14.5476H22.7296Z" fill="black"/>
</g>
<defs>
<clipPath id="clip0_7702_67107">
<rect width="165" height="47" fill="white"/>
</clipPath>
</defs>
</svg>
