<svg width="183" height="50" viewBox="0 0 183 50" fill="none" xmlns="http://www.w3.org/2000/svg">
<path d="M103.67 16.8516C103.67 11.4812 103.761 6.48119 104.036 1.85156L90.036 4.53675V5.83304L91.4085 6.01823C92.415 6.11082 93.0555 6.48119 93.4215 7.03675C93.7875 7.6849 94.062 8.61082 94.245 9.99971C94.428 12.6849 94.6111 18.796 94.5195 28.4256C94.5195 37.9627 94.428 43.9812 94.245 46.296C99.2775 47.4071 103.212 47.8701 106.14 47.8701C111.63 47.8701 115.931 46.296 119.042 43.0553C122.153 39.9071 123.8 35.4627 123.8 29.9997C123.8 25.6479 122.61 22.0367 120.231 19.1664C117.852 16.296 114.833 14.9071 111.264 14.9071C108.885 14.9071 106.415 15.5553 103.67 16.8516ZM103.944 45.3701C103.761 42.4071 103.578 33.5182 103.578 18.9812C104.402 18.7034 105.5 18.5182 106.872 18.5182C109.068 18.5182 110.807 19.6293 112.088 21.9442C113.369 24.259 114.009 27.0367 114.009 30.5553C114.009 34.9071 113.277 38.4256 111.813 41.3886C110.349 44.259 108.519 45.7405 106.232 45.7405C105.5 45.5553 104.768 45.4627 103.944 45.3701ZM37.515 2.77749H0.915039V4.62934L2.83654 4.81453C4.30054 5.0923 5.30704 5.64786 5.94754 6.48119C6.58804 7.40712 6.95404 8.8886 7.04554 10.9256C7.77754 20.9256 7.77754 30.2775 7.04554 38.8886C6.86254 40.9256 6.49654 42.4071 5.94754 43.333C5.30704 44.259 4.30054 44.8145 2.83654 44.9997L0.915039 45.2775V47.1293H24.522V45.2775L22.0515 45.0923C20.5875 44.9071 19.581 44.259 18.9405 43.4256C18.3 42.4997 17.934 41.0182 17.8425 38.9812C17.568 35.2775 17.385 31.0182 17.385 26.296L22.326 26.3886C24.9795 26.4812 26.8095 28.5182 27.7245 32.5923H29.5545V17.4997H27.7245C26.8095 21.4812 25.071 23.5182 22.326 23.6108L17.385 23.7034C17.385 15.3701 17.568 9.44416 17.8425 5.83304H25.071C30.195 5.83304 33.672 9.16638 35.685 15.833L37.881 15.1849L37.515 2.77749ZM33.2145 31.296C33.2145 36.1108 34.587 40.0923 37.2405 43.2405C39.894 46.3886 43.8285 47.8701 48.7695 47.8701C53.7105 47.8701 57.7365 46.296 60.6645 43.0553C63.5925 39.9071 64.965 35.9256 64.965 31.1108C64.965 26.296 63.5925 22.3145 60.939 19.1664C58.2855 16.0182 54.351 14.5367 49.41 14.5367C44.469 14.5367 40.443 16.1108 37.515 19.3516C34.587 22.4997 33.2145 26.4812 33.2145 31.296ZM53.619 20.7405C54.717 23.4256 55.1745 26.9442 55.1745 31.2034C55.1745 41.0182 53.1615 45.833 49.227 45.833C47.214 45.833 45.6585 44.4442 44.5605 41.6664C43.4625 38.8886 43.005 35.3701 43.005 31.2034C43.005 21.4812 45.018 16.6664 48.9525 16.6664C50.9655 16.5738 52.521 17.9627 53.619 20.7405ZM130.937 43.2405C133.956 46.296 137.799 47.8701 142.374 47.8701C145.211 47.8701 147.681 47.3145 149.877 46.1108C152.073 44.9997 153.812 43.6108 155.001 41.9442L154.086 40.833C152.073 42.4071 149.786 43.1479 147.132 43.1479C143.472 43.1479 140.636 41.9442 138.714 39.4442C136.701 36.9442 135.786 33.796 135.969 29.7219H155.55C155.55 25.2775 154.452 21.6664 152.165 18.796C149.877 16.0182 146.675 14.6293 142.557 14.6293C137.433 14.6293 133.499 16.296 130.662 19.5367C127.826 22.7775 126.453 26.759 126.453 31.4812C126.453 36.296 127.917 40.1849 130.937 43.2405ZM137.708 19.9997C138.714 17.7775 139.995 16.6664 141.734 16.6664C144.479 16.6664 145.851 20.1849 145.851 27.3145L136.152 27.4997C136.244 24.7219 136.701 22.2219 137.708 19.9997ZM180.164 16.296C177.693 15.1849 174.582 14.5367 170.831 14.5367C166.988 14.5367 163.968 15.5553 161.681 17.4997C159.393 19.4442 158.204 21.8516 158.204 24.7219C158.204 27.2219 158.936 29.1664 160.308 30.5553C161.681 31.9442 163.877 33.1479 166.713 34.1664C169.275 35.0923 171.105 36.0182 172.02 36.8516C172.935 37.7775 173.484 38.796 173.484 40.1849C173.484 41.4812 173.027 42.6849 172.02 43.6108C171.105 44.6293 169.824 45.0923 168.177 45.0923C164.151 45.0923 161.132 42.1293 159.027 36.2034L157.472 36.6664L157.838 45.9256C161.132 47.2219 164.792 47.8701 168.818 47.8701C173.027 47.8701 176.229 46.9442 178.608 44.9997C180.987 43.1479 182.177 40.4627 182.177 37.1293C182.177 34.9071 181.628 33.0553 180.438 31.6664C179.249 30.2775 177.327 29.0738 174.582 27.9627C171.563 26.8516 169.458 25.833 168.36 24.9071C167.262 23.9812 166.713 22.8701 166.713 21.4812C166.713 20.0923 167.079 18.9812 167.903 18.0553C168.726 17.1293 169.733 16.759 171.014 16.759C174.674 16.759 177.327 19.4442 178.974 24.7219L180.53 24.259L180.164 16.296ZM92.1405 15.4627C90.8595 14.8145 89.487 14.5367 87.9315 14.5367C86.376 14.5367 84.8205 15.1849 83.082 16.4812C81.3436 17.7775 80.0625 19.5367 79.056 21.9442L79.1475 14.5367L65.2395 17.3145V18.6108L66.612 18.7034C68.3505 18.8886 69.357 20.2775 69.54 22.7775C70.089 28.5182 70.089 34.6293 69.54 41.1108C69.357 43.6108 68.3505 44.9071 66.612 45.1849L65.2395 45.3701V47.1293H84.6375V45.3701L82.167 45.1849C80.4286 44.9997 79.422 43.6108 79.239 41.1108C78.69 35.7405 78.5985 29.9997 79.056 24.0738C79.605 23.1479 80.7945 22.5923 82.6245 22.4071C84.4546 22.2219 86.559 22.7775 88.7551 24.0738L92.1405 15.4627Z" fill="black"/>
</svg>
