<svg width="110" height="55" viewBox="0 0 110 55" fill="none" xmlns="http://www.w3.org/2000/svg">
<g clip-path="url(#clip0_7702_67106)">
<path d="M108.743 20.9316C107.968 20.6848 105.876 20.0482 104.828 19.7298C103.09 19.2005 102.457 19.0431 102.081 19.0431C101.374 19.0431 100.991 19.4365 100.747 20.2485C98.308 28.3571 94.5948 37.4671 91.2816 43.1399C90.1948 41.0726 88.1913 37.4743 86.3258 34.2337C83.4444 29.2262 80.602 24.1543 79.1719 21.8294C78.8561 21.2966 78.5011 20.7884 78.11 20.3093C77.1613 19.1933 76.2657 18.8535 74.8711 18.8535C70.956 18.8535 65.1543 22.3588 65.1543 25.6315C65.1543 26.7403 65.4658 27.5737 66.6198 29.5374L75.9472 44.1164C76.0711 43.9054 76.1879 43.6943 76.3012 43.4833C76.1832 43.6955 76.0652 43.9066 75.9472 44.1164C77.802 46.9778 79.1684 49.1239 80.4852 51.0482C82.4179 53.9097 84.1807 54.9541 88.124 54.9541C91.8585 54.9541 94.1028 54.0599 96.1205 50.9767C101.43 42.8896 105.933 33.3252 109.189 24.5084C109.596 23.4103 109.897 22.6056 109.897 22.1012C109.897 21.5969 109.547 21.1749 108.743 20.9316Z" fill="#7B8386"/>
<path d="M7.50206 14.5844C3.01714 14.5844 0.249023 11.4047 0.249023 7.39867C0.249023 3.39266 3.01714 0.212891 7.50206 0.212891C11.987 0.212891 14.7586 3.39266 14.7586 7.39867C14.7586 11.4047 11.9905 14.5844 7.50206 14.5844ZM37.2116 49.3509C33.4735 52.7989 27.1479 54.945 21.0807 54.945C15.0135 54.945 8.61356 53.2746 4.872 49.5404C1.99414 46.679 0.344583 43.02 0.344583 36.6354V20.64C0.344583 19.8495 0.624246 19.5168 1.47026 19.5168H13.5056C14.3622 19.5168 14.6525 19.8745 14.6525 20.6328V38.3451C14.6525 41.1743 15.2613 43.0879 16.571 44.4685C17.8241 45.7884 19.9267 46.5789 22.2984 46.5789C24.7302 46.5789 26.9391 45.7598 28.3444 44.2539C29.9444 42.5371 30.6665 40.087 30.6665 35.5695V34.1745C30.6665 40.0262 32.7444 45.4915 37.1974 49.3652L37.2116 49.3509Z" fill="#19BEC8"/>
<path d="M66.617 29.5282C67.9303 31.7637 68.5887 33.5771 68.5887 35.809C68.5887 41.3709 64.4294 46.4071 56.3941 46.4071C52.5817 46.4071 49.6402 45.334 47.7216 43.3596C45.8951 41.4854 45.0066 38.9638 45.0066 34.7539V27.6897C46.5854 28.3068 48.2701 28.5998 49.9623 28.5517H56.3339C57.1906 28.5517 57.4915 28.194 57.4915 27.4358V20.6399C57.4915 19.8673 57.1906 19.5239 56.3339 19.5239H45.0066V8.38933C45.0066 7.05519 44.6526 6.14311 43.9092 5.45994C42.8084 4.45486 40.5287 3.96484 37.8456 3.96484C35.1624 3.96484 32.8899 4.45486 31.7819 5.45994C31.0315 6.14311 30.6846 7.06234 30.6846 8.38933V34.1422C30.6846 39.9939 32.7624 45.4664 37.2155 49.34C40.8863 52.6772 47.5517 54.9306 54.9145 54.9306C64.6383 54.9306 71.7851 50.9174 75.955 44.0965L66.617 29.5282Z" fill="#151824"/>
</g>
<defs>
<clipPath id="clip0_7702_67106">
<rect width="110" height="55" fill="white"/>
</clipPath>
</defs>
</svg>
