<svg width="91" height="50" viewBox="0 0 91 50" fill="none" xmlns="http://www.w3.org/2000/svg">
<path d="M80.1456 42.0211C73.5132 42.0211 67.975 37.2868 66.9701 30.6321H79.4757C80.8602 30.6321 83.8861 30.9235 83.8861 30.9235V25.363C83.8861 25.363 80.9272 25.583 79.2635 25.583H66.9813C68.2207 19.0175 73.636 14.4843 80.1568 14.4843C83.6182 14.4843 87.8723 16.0698 87.8723 16.0698L87.9482 10.2301C87.9482 10.2301 84.9223 9.08008 80.1546 9.08008C69.1229 9.08008 59.498 17.5102 59.498 28.2851C59.498 39.8974 69.1452 47.7133 80.1546 47.7133C85.3354 47.7133 88.4395 46.3288 88.4395 46.3288L88.291 40.2882C88.2921 40.2871 84.4723 42.0747 80.1624 42.0747L80.1456 42.0211Z" fill="#003775"/>
<path d="M42.6288 47.4923C42.6288 47.4923 43.0475 44.6897 43.0475 42.2333V15.5473H41.2498C38.7934 15.5473 34.997 15.5473 32.1833 15.822L31.9443 9.625H61.1984L61.0566 15.822C58.1535 15.5473 54.4242 15.5473 51.9008 15.5473H49.6788V42.2333C49.6788 44.6897 50.169 47.4923 50.169 47.4923H42.6098H42.6288Z" fill="#003775"/>
<path d="M88.0733 6.6046C85.9183 6.00054 83.0934 5.58629 80.7375 5.58629C74.306 5.58629 68.7902 7.52912 64.1006 11.6493L64.1709 7.10483C69.0615 3.77745 74.622 2.28125 80.6961 2.28125C83.3536 2.28125 85.6649 2.64525 88.099 3.2817L88.0298 6.60907L88.0733 6.6046Z" fill="#019A67"/>
<path d="M29.5652 42.3572L19.3932 32.5649C25.6572 31.9608 30.8939 27.3617 30.8939 21.3992C30.8939 15.0459 27.2315 9.45194 16.2668 9.00532C15.8124 8.98299 15.3401 8.9707 14.8488 8.9707C7.28962 8.9707 2.1199 9.33247 2.1199 9.33247C2.1199 9.33247 2.46492 13.0618 2.46492 14.9376V42.4052C2.46381 44.9398 1.97363 47.5861 1.97363 47.5861H9.5998C9.5998 47.5861 9.10962 44.9287 9.10962 41.9028V30.7371L16.278 38.2404L19.9068 41.9921C22.14 44.4374 26.0368 47.5973 26.0368 47.5973H36.1194C36.1194 47.5973 31.6085 44.4374 29.5093 42.4164L29.5652 42.3572ZM14.6031 28.0651H9.14312V14.3313C9.14312 14.3313 11.8006 14.2565 14.9716 14.2565C15.4461 14.2565 15.9051 14.2956 16.3227 14.3157C21.403 14.7344 23.5022 17.4979 23.5022 20.8253C23.5022 24.5546 20.5544 27.3796 16.3227 27.9825C15.7767 28.0551 15.1949 28.0852 14.6143 28.0852L14.6031 28.0651Z" fill="#003775"/>
</svg>
