<svg width="212" height="50" viewBox="0 0 212 50" fill="none" xmlns="http://www.w3.org/2000/svg">
<path d="M3.33874 0C1.49943 0 0 1.5 0 3.34V46.66C0 48.5 1.49943 50 3.33874 50H83.5285V0H3.33874Z" fill="white"/>
<path d="M3.33874 50H84.0683V48.96H3.33874C2.07922 48.96 1.03961 47.94 1.03961 46.66V3.34C1.03961 2.08 2.05922 1.06 3.33874 1.06H84.0683V0H3.33874C1.49943 0 0 1.5 0 3.34V46.68C0 48.5 1.49943 50 3.33874 50Z" fill="#9D9D9C"/>
<path d="M84.0683 0H3.33874C1.49943 0 0 1.5 0 3.34V34.14C0 32.98 0.379857 31.94 1.03961 31.1V3.34C1.03961 2.08 2.05922 1.04 3.31875 1.04H84.0483V0" fill="#B2B2B2"/>
<path d="M208.661 0H83.1885V50H208.661C210.5 50 212 48.5 212 46.68V3.34C212 1.5 210.48 0 208.661 0Z" fill="#AB0000"/>
<path d="M56.2388 44.4808C56.7785 44.7608 57.8781 45.0808 59.2576 45.1208C61.6167 45.1608 62.9162 44.2608 63.8759 42.1408L76.6111 13.7208C76.0913 13.4408 74.9317 13.1208 73.9721 13.1008C72.3327 13.0608 70.1335 13.4008 68.734 16.7608L64.6156 26.5008L56.5187 13.3208C55.9988 13.1608 54.7193 12.9408 53.7997 12.9408C50.9408 12.9408 49.3614 14.0008 47.702 15.8008L39.8449 24.4008L46.1626 34.3608C47.3221 36.1808 48.8615 37.1008 51.3806 37.1008C53.02 37.1008 54.3795 36.7208 55.0192 36.4408L47.3821 24.9208L52.7801 19.2008L61.6367 33.1008L56.2388 44.4808ZM39.5251 33.7208C39.5251 35.8208 38.7054 37.0208 34.6069 37.0208L33.1475 36.9208V9.12078C33.1475 7.02078 33.8672 4.80078 37.9856 4.80078L39.5051 4.96078V33.7208H39.5251ZM31.0882 29.5408C31.0882 33.4408 28.5292 36.3008 23.3512 36.8608C19.5926 37.2608 14.1546 36.7808 11.5756 36.4808L11.3957 35.1208C11.3957 31.7008 13.235 30.9208 14.9743 30.9208C16.7736 30.9208 19.6126 31.2208 21.7118 31.2208C24.0309 31.2208 24.7306 30.4408 24.7306 29.6808C24.7306 28.7008 23.791 28.3008 21.9917 27.9408L17.0735 27.0008C12.9751 26.2208 10.7959 23.3808 10.7959 20.3808C10.7959 16.7408 13.3749 13.6608 18.473 13.1008C22.3116 12.6808 26.9898 13.1408 29.5688 13.4808L29.7088 14.8008C29.7088 18.2008 27.9094 18.9408 26.1901 18.9408C24.8706 18.9408 22.7914 18.7008 20.4323 18.7008C18.0332 18.7008 17.0335 19.3608 17.0335 20.1808C17.0335 21.0208 17.9932 21.3808 19.4926 21.6408L24.1908 22.5208C29.029 23.4208 31.0882 26.1608 31.0882 29.5408Z" fill="black"/>
<path d="M208.661 0H83.1885V25.94L212 20.7V3.36C212 1.48 210.5 0 208.661 0Z" fill="#CB0002"/>
<path d="M181.931 35.5595C181.691 33.6195 182.311 32.5995 183.351 32.5995C184.43 32.5995 187.149 33.8595 190.988 33.8595C195.066 33.8595 196.626 32.3595 196.626 30.3995C196.626 29.0795 196.046 27.9595 192.347 26.9395L188.169 25.7795C183.691 24.5595 181.891 22.3195 181.891 19.4995C181.891 16.0995 184.61 12.9395 190.848 12.9395C193.667 12.9395 197.166 13.6195 199.265 14.4395C199.465 16.3395 198.885 17.3595 197.905 17.3595C196.926 17.3595 194.347 16.1995 190.908 16.1995C187.109 16.1995 185.71 17.5595 185.71 19.3595C185.71 20.5195 186.25 21.5995 189.648 22.5795L193.887 23.7395C198.565 25.0995 200.504 27.2995 200.504 30.2995C200.504 33.8995 197.645 37.1195 190.928 37.1195C187.849 37.1195 184.111 36.4395 181.931 35.5595Z" fill="white"/>
<path d="M178.812 13.8202L172.595 35.1602C172.215 36.4802 171.235 36.8202 169.876 36.8202C169.096 36.8202 168.316 36.6802 167.637 36.4802L161.659 17.5002L156.021 35.1602C155.581 36.5202 154.561 36.8202 153.302 36.8202C152.522 36.8202 151.703 36.6802 151.023 36.4802L144.405 13.8202C144.945 13.5202 145.905 13.2402 146.784 13.2402C147.804 13.2402 148.384 13.5802 148.684 14.6002L153.442 32.5002H153.482L159.36 13.8202C159.999 13.4802 160.859 13.2402 161.739 13.2402C163.198 13.2402 163.978 13.6202 164.418 15.0002L169.856 32.5002H169.916L174.534 14.6002C174.834 13.5802 175.354 13.2402 176.433 13.2402C177.313 13.2402 178.292 13.5202 178.812 13.8202Z" fill="white"/>
<path d="M141.986 26.5595H123.893C124.473 31.0795 127.632 33.6595 132.31 33.6595C134.309 33.6595 135.869 33.2195 137.328 32.7395C138.308 32.3995 138.827 32.1995 139.227 32.1995C140.207 32.1995 140.927 33.1195 140.687 35.2195C138.648 36.1395 135.489 37.1195 132.19 37.1195C124.953 37.1195 119.975 32.1995 119.975 24.9595C119.975 17.9995 125.173 12.9395 131.55 12.9395C138.708 12.9395 142.206 18.6195 142.206 24.1795C142.186 24.8995 142.126 25.6795 141.986 26.5595ZM123.913 23.3995H138.448C138.308 19.4195 135.729 16.2395 131.55 16.2395C127.852 16.2395 124.533 18.7195 123.913 23.3995Z" fill="white"/>
<path d="M115.556 22.8591V35.3591C115.556 36.2791 115.077 36.8191 113.557 36.8191C112.917 36.8191 112.198 36.7191 111.798 36.6191V23.3391C111.798 18.5791 109.419 16.2791 105.96 16.2791C103.181 16.2791 100.222 18.2191 99.0027 20.4591V35.3391C99.0027 36.2591 98.5229 36.7991 97.0035 36.7991C96.3237 36.7991 95.584 36.6991 95.2441 36.5991V13.4791C95.584 13.3791 96.3237 13.2391 97.0035 13.2391C98.5029 13.2391 99.0027 13.8191 99.0027 14.6991V16.6991C100.702 14.6591 103.281 12.9591 106.78 12.9591C111.578 12.9391 115.556 15.9991 115.556 22.8591Z" fill="white"/>
<path d="M22.0122 27.9805C22.6319 28.1005 23.1318 28.2205 23.5516 28.3805H23.5716C23.1518 28.2205 22.6319 28.1005 22.0122 27.9805ZM25.7908 22.9205C25.8107 22.9205 25.8107 22.9205 25.8307 22.9405C25.8307 22.9205 25.8107 22.9205 25.7908 22.9205ZM25.7108 22.8805C25.7308 22.8805 25.7508 22.9005 25.7508 22.9005C25.7308 22.9005 25.7108 22.9005 25.7108 22.8805ZM25.5908 22.8605C25.6108 22.8605 25.6308 22.8805 25.6508 22.8805C25.6508 22.8805 25.6108 22.8605 25.5908 22.8605ZM25.4909 22.8205C25.5109 22.8205 25.5508 22.8405 25.5708 22.8405C25.5508 22.8405 25.5109 22.8405 25.4909 22.8205ZM25.271 22.7805C25.3309 22.8005 25.4109 22.8205 25.4709 22.8205C25.4109 22.8005 25.3509 22.7805 25.271 22.7805ZM25.171 22.7405C25.211 22.7605 25.231 22.7605 25.251 22.7605C25.231 22.7605 25.211 22.7605 25.171 22.7405ZM25.071 22.7205C25.111 22.7205 25.131 22.7405 25.151 22.7405C25.131 22.7205 25.111 22.7205 25.071 22.7205ZM24.6312 22.6205C24.7711 22.6605 24.9111 22.6805 25.051 22.7205C24.9311 22.6805 24.7911 22.6405 24.6312 22.6205ZM24.5312 22.6005C24.5712 22.6005 24.5912 22.6205 24.6312 22.6205C24.5912 22.6005 24.5712 22.6005 24.5312 22.6005ZM24.4313 22.5805C24.4513 22.5805 24.4912 22.6005 24.5112 22.6005C24.4912 22.5805 24.4513 22.5805 24.4313 22.5805ZM24.3313 22.5405C24.3513 22.5405 24.3913 22.5605 24.4113 22.5605C24.3713 22.5605 24.3513 22.5605 24.3313 22.5405ZM20.3328 18.7205C18.0137 18.7405 17.0541 19.4005 17.0541 20.2005C17.0541 21.0605 18.0137 21.4005 19.5131 21.6605L24.2113 22.5405C24.2513 22.5405 24.2713 22.5605 24.3113 22.5605C24.2713 22.5405 24.2313 22.5405 24.2113 22.5405L19.5131 21.6605C18.0137 21.4005 17.074 21.0405 17.074 20.2005C17.0541 19.3805 18.0137 18.7405 20.3328 18.7205ZM29.4694 13.5005C29.5093 13.5005 29.5293 13.5005 29.5693 13.5205L29.7093 14.8405L29.5693 13.5205C29.5293 13.5005 29.5093 13.5005 29.4694 13.5005ZM18.4735 13.1405C13.3954 13.7005 10.8164 16.7605 10.8164 20.4005C10.8164 16.7605 13.3954 13.7005 18.4735 13.1405ZM21.8522 12.9805C20.8126 12.9805 19.773 13.0205 18.7934 13.1205C19.773 13.0205 20.8126 12.9805 21.8522 12.9805ZM21.8722 12.9805H21.9322H21.8722Z" fill="white"/>
<path d="M21.8722 12.9805C20.8126 12.9805 19.773 13.0205 18.7934 13.1205C18.6934 13.1405 18.5935 13.1405 18.4935 13.1605C13.3954 13.7005 10.8164 16.7605 10.8164 20.4205C10.8164 23.4205 12.9956 26.2605 17.094 27.0405L22.0122 27.9805C22.6319 28.1005 23.1518 28.2205 23.5716 28.3805L30.9688 28.0805C30.509 25.7805 28.8896 23.9005 25.8507 22.9405C25.8307 22.9405 25.8307 22.9405 25.8107 22.9205C25.7908 22.9205 25.7708 22.9005 25.7708 22.9005C25.7508 22.9005 25.7308 22.8805 25.7308 22.8805C25.7308 22.8805 25.6908 22.8805 25.6908 22.8605C25.6708 22.8605 25.6508 22.8405 25.6308 22.8405C25.6108 22.8405 25.6108 22.8405 25.6108 22.8405C25.5708 22.8405 25.5508 22.8205 25.5309 22.8205C25.5309 22.8205 25.5309 22.8205 25.5109 22.8205C25.4509 22.8005 25.3909 22.7805 25.3109 22.7805C25.3109 22.7805 25.3109 22.7805 25.2909 22.7805C25.271 22.7805 25.231 22.7605 25.211 22.7605H25.191C25.171 22.7405 25.131 22.7405 25.111 22.7405C25.111 22.7405 25.111 22.7405 25.091 22.7405C24.9511 22.7005 24.8111 22.6805 24.6712 22.6405H24.6512C24.6112 22.6405 24.5912 22.6205 24.5512 22.6205H24.5312C24.5112 22.6205 24.4713 22.6005 24.4513 22.6005C24.4313 22.6005 24.4313 22.6005 24.4113 22.6005C24.3913 22.6005 24.3513 22.5805 24.3313 22.5805C24.3113 22.5805 24.3113 22.5805 24.3113 22.5805C24.2713 22.5605 24.2513 22.5605 24.2114 22.5605L19.5131 21.6805C18.0137 21.4205 17.0541 21.0605 17.0541 20.2205C17.0541 19.4205 18.0337 18.7805 20.3328 18.7405C20.3728 18.7405 20.4128 18.7405 20.4528 18.7405C22.8119 18.7405 24.8711 19.0005 26.2106 19.0005C27.9499 19.0005 29.7293 18.2605 29.7293 14.8605L29.5893 13.5405C29.5493 13.5405 29.5293 13.5405 29.4894 13.5205C27.6501 13.3005 24.8111 13.0005 21.9522 13.0005H21.8722" fill="#3C3A38"/>
<path d="M47.3829 24.9199L48.9823 27.3399L47.3829 24.9199ZM53.8004 12.9199C50.9415 12.9199 49.3621 13.9799 47.7027 15.7799L39.8457 24.3799L47.7027 15.7799C49.3421 13.9799 50.9415 12.9199 53.8004 12.9199C54.7401 12.9199 55.9996 13.1399 56.5394 13.2999L64.6363 26.4799L68.7548 16.7399C70.1143 13.5199 72.1935 13.0799 73.8129 13.0799C73.8729 13.0799 73.9328 13.0799 73.9928 13.0799C74.9525 13.0999 76.112 13.4199 76.6318 13.6999L70.934 26.4199L76.6318 13.6999C76.112 13.4199 74.9525 13.0999 73.9928 13.0799C73.9328 13.0799 73.8729 13.0799 73.8129 13.0799C72.1935 13.0799 70.1143 13.4999 68.7548 16.7399L64.6363 26.4799L56.5394 13.2999C55.9996 13.1599 54.7201 12.9199 53.8004 12.9199Z" fill="white"/>
<path d="M53.8004 12.9199C50.9415 12.9199 49.3621 13.9799 47.7027 15.7799L39.8457 24.3799L41.9049 27.6199L49.0022 27.3199L47.4029 24.8999L52.7808 19.1999L57.7389 26.9999L70.914 26.4599L76.6118 13.7399C76.092 13.4599 74.9325 13.1399 73.9728 13.1199C73.9128 13.1199 73.8529 13.1199 73.7929 13.1199C72.1735 13.1199 70.0943 13.5399 68.7348 16.7799L64.6164 26.5199L56.5194 13.3399C55.9996 13.1599 54.7201 12.9199 53.8004 12.9199Z" fill="#3C3A38"/>
<path d="M37.9866 4.82031C33.8482 4.82031 33.1484 7.02031 33.1484 9.14031V28.0003L39.526 27.7403V4.98031L37.9866 4.82031Z" fill="#3C3A38"/>
</svg>
