<svg width="275" height="23" viewBox="0 0 275 23" fill="none" xmlns="http://www.w3.org/2000/svg">
<g clip-path="url(#clip0_7702_67111)">
<path d="M19.2286 0.501953V6.33673H18.6811C18.3463 4.99339 17.9743 4.02838 17.5669 3.44106C17.1589 2.85437 16.5996 2.3854 15.8884 2.03729C15.4904 1.84781 14.7941 1.75213 13.8008 1.75213H12.2501V18.3305C12.2501 19.4333 12.3084 20.1239 12.4268 20.3984C12.5446 20.6747 12.7746 20.9145 13.1181 21.1216C13.461 21.3287 13.9291 21.4326 14.5237 21.4326H15.2151V21.9885H4.17658V21.4326H4.87164C5.47866 21.4326 5.96787 21.3212 6.33865 21.0984C6.6065 20.9498 6.81732 20.6942 6.97233 20.3341C7.08517 20.0798 7.1416 19.4126 7.1416 18.3298V1.75213H5.59088C4.14806 1.75213 3.10082 2.05869 2.44792 2.67308C1.53151 3.52919 0.953012 4.75103 0.710578 6.33673H0.163086V0.501953H19.2286Z" fill="black"/>
<path d="M29.1083 11.6622V18.3305C29.1083 19.4333 29.1672 20.1239 29.2856 20.3984C29.4034 20.6747 29.6353 20.9145 29.9807 21.1216C30.3254 21.3287 30.7911 21.4326 31.3782 21.4326H32.0733V21.9885H21.0348V21.4326H21.733C22.3431 21.4326 22.8348 21.3212 23.2074 21.0984C23.4759 20.9498 23.683 20.6942 23.8281 20.3341C23.9422 20.0798 23.9992 19.4126 23.9992 18.3298V4.15994C23.9992 3.0577 23.9422 2.36714 23.8281 2.09268C23.714 1.81634 23.4839 1.57461 23.1373 1.36751C22.7907 1.16103 22.3226 1.0578 21.7323 1.0578H21.0342V0.501953H32.0721V1.05717H31.377C30.77 1.05717 30.2808 1.16922 29.91 1.39143C29.6421 1.54062 29.4307 1.7943 29.2769 2.15437C29.1635 2.40869 29.1077 3.07784 29.1077 4.15994V10.273H36.5425V4.15994C36.5425 3.0577 36.4855 2.36714 36.3714 2.09268C36.2573 1.81634 36.0248 1.57461 35.6732 1.36751C35.3211 1.16103 34.8504 1.0578 34.2608 1.0578H33.5781V0.501953H44.616V1.05717H43.9334C43.3121 1.05717 42.821 1.16922 42.4589 1.39143C42.1892 1.54062 41.9771 1.7943 41.8228 2.15437C41.7087 2.40869 41.6516 3.07784 41.6516 4.15994V18.3305C41.6516 19.4333 41.7081 20.1239 41.8221 20.3984C41.9362 20.6747 42.1687 20.9145 42.5203 21.1216C42.8719 21.3287 43.3437 21.4326 43.9334 21.4326H44.616V21.9885H33.5781V21.4326H34.2608C34.8815 21.4326 35.3731 21.3212 35.7352 21.0984C36.0043 20.9498 36.2158 20.6942 36.3714 20.3341C36.4855 20.0798 36.5425 19.4126 36.5425 18.3298V11.6622H29.1083Z" fill="black"/>
<path d="M53.9797 1.75213V10.458H54.4032C55.7512 10.458 56.7284 10.0281 57.3354 9.16882C57.9412 8.30893 58.3281 7.04113 58.4955 5.36416H59.043V16.6629H58.4955C58.3702 15.4361 58.1061 14.4301 57.7037 13.6458C57.3013 12.8633 56.8338 12.3364 56.3005 12.067C55.7673 11.7963 54.9935 11.6616 53.9797 11.6616V17.7117C53.9797 18.8939 54.0293 19.6172 54.1279 19.8809C54.2265 20.1453 54.4107 20.3612 54.6816 20.5299C54.952 20.6999 55.3885 20.783 55.9918 20.783H57.2548C59.2302 20.783 60.8132 20.3203 62.0036 19.3956C63.1941 18.4708 64.0491 17.057 64.5693 15.1559H65.1553L64.2029 21.9878H45.9062V21.432H46.6044C47.2145 21.432 47.7062 21.3206 48.0789 21.0977C48.348 20.9492 48.5544 20.6936 48.6995 20.3335C48.8136 20.0792 48.8706 19.4119 48.8706 18.3292V4.15994C48.8706 3.18485 48.8446 2.58432 48.7931 2.36148C48.689 1.99133 48.498 1.70492 48.219 1.50411C47.8253 1.20699 47.2877 1.0578 46.6044 1.0578H45.9062V0.501953H63.6033V6.84599H63.0558C62.7508 5.29995 62.323 4.19016 61.7717 3.51723C61.2199 2.84493 60.4399 2.35078 59.4323 2.0354C58.8433 1.84529 57.7409 1.7515 56.1232 1.7515H53.9797V1.75213Z" fill="black"/>
<path d="M86.2651 21.4326V21.9885H75.2272V21.4326H75.9253C76.5355 21.4326 77.0271 21.3212 77.4004 21.0984C77.6683 20.9498 77.8747 20.6942 78.0204 20.3341C78.1345 20.0798 78.1916 19.4126 78.1916 18.3298V4.15994C78.1916 3.0577 78.1345 2.36714 78.0204 2.09268C77.9064 1.81634 77.6769 1.57461 77.3303 1.36751C76.9837 1.16103 76.515 1.0578 75.9247 1.0578H75.2266V0.501953H86.2645V1.05717H85.57C84.963 1.05717 84.4738 1.16922 84.1036 1.39143C83.8358 1.54062 83.6231 1.7943 83.4693 2.15437C83.3565 2.40869 83.2994 3.07784 83.2994 4.15994V18.3305C83.2994 19.4333 83.3596 20.1239 83.478 20.3984C83.5958 20.6747 83.8271 20.9145 84.1725 21.1216C84.5172 21.3287 84.9835 21.4326 85.5706 21.4326H86.2651Z" fill="black"/>
<path d="M95.5175 12.2181V18.2379C95.5175 19.405 95.5882 20.1384 95.7302 20.4393C95.8722 20.7414 96.1214 20.9832 96.4792 21.1626C96.837 21.3432 97.5047 21.4332 98.4825 21.4332V21.9891H87.5811V21.4332C88.5688 21.4332 89.2396 21.3407 89.5918 21.1556C89.944 20.9706 90.1914 20.7288 90.3328 20.4323C90.4741 20.1359 90.5461 19.405 90.5461 18.2386V4.25248C90.5461 3.08602 90.4748 2.35203 90.3328 2.04988C90.1908 1.74898 89.9415 1.50788 89.5838 1.32848C89.226 1.14718 88.5589 1.05717 87.5811 1.05717V0.501953H97.4359C100.001 0.501953 101.878 0.680729 103.067 1.04143C104.256 1.39961 105.225 2.06436 105.976 3.03063C106.727 3.99879 107.103 5.13188 107.103 6.43304C107.103 8.01936 106.539 9.32997 105.413 10.3661C104.693 11.0214 103.687 11.5137 102.394 11.841L107.474 19.1224C108.142 20.049 108.617 20.6262 108.899 20.8547C109.327 21.1777 109.823 21.3539 110.387 21.386V21.9878H103.719L96.9039 12.2175H95.5175V12.2181ZM95.5175 1.70554V11.1064H96.4048C97.8482 11.1064 98.9277 10.9717 99.6439 10.7023C100.36 10.4328 100.923 9.94876 101.334 9.24625C101.744 8.54436 101.949 7.62971 101.949 6.49977C101.949 4.86434 101.573 3.6576 100.82 2.87577C100.068 2.09646 98.8552 1.70554 97.1842 1.70554H95.5175Z" fill="black"/>
<path d="M121.801 21.4326V21.9885H110.763V21.4326H111.461C112.072 21.4326 112.563 21.3212 112.937 21.0984C113.204 20.9498 113.411 20.6942 113.557 20.3341C113.671 20.0798 113.728 19.4126 113.728 18.3298V4.15994C113.728 3.0577 113.671 2.36714 113.557 2.09268C113.442 1.81634 113.213 1.57461 112.866 1.36751C112.52 1.16103 112.051 1.0578 111.461 1.0578H110.763V0.501953H121.801V1.05717H121.106C120.499 1.05717 120.01 1.16922 119.639 1.39143C119.371 1.54062 119.159 1.7943 119.005 2.15437C118.893 2.40869 118.836 3.07784 118.836 4.15994V18.3305C118.836 19.4333 118.896 20.1239 119.014 20.3984C119.132 20.6747 119.363 20.9145 119.708 21.1216C120.053 21.3287 120.519 21.4326 121.106 21.4326H121.801Z" fill="black"/>
<path d="M137.529 0.0390625L137.712 7.21655H137.073C136.77 5.4206 136.026 3.97717 134.842 2.88248C133.658 1.79031 132.376 1.24328 130.999 1.24328C129.934 1.24328 129.092 1.5297 128.471 2.10254C127.85 2.67538 127.54 3.33572 127.54 4.0823C127.54 4.55568 127.65 4.97681 127.87 5.34443C128.173 5.83922 128.661 6.32833 129.331 6.81178C129.823 7.15926 130.959 7.77365 132.741 8.65683C135.234 9.88875 136.909 11.0508 137.765 12.1449C138.61 13.2402 139.033 14.4922 139.033 15.9017C139.033 17.6901 138.341 19.2298 136.957 20.519C135.573 21.8088 133.815 22.4522 131.685 22.4522C131.016 22.4522 130.384 22.3829 129.788 22.247C129.192 22.1091 128.446 21.8516 127.548 21.4714C127.046 21.2618 126.633 21.1561 126.31 21.1561C126.037 21.1561 125.75 21.2631 125.447 21.4758C125.144 21.6905 124.899 22.014 124.711 22.4528H124.163V14.3481H124.711C125.171 16.6212 126.059 18.3548 127.374 19.549C128.688 20.7431 130.106 21.3405 131.625 21.3405C132.798 21.3405 133.732 21.0195 134.429 20.3786C135.126 19.7378 135.474 18.9906 135.474 18.1383C135.474 17.6328 135.34 17.1443 135.073 16.6709C134.806 16.1975 134.4 15.7474 133.856 15.3219C133.311 14.8964 132.346 14.3405 130.964 13.6575C129.026 12.7007 127.635 11.8849 126.79 11.2101C125.946 10.5359 125.297 9.78299 124.843 8.95143C124.39 8.11924 124.163 7.20207 124.163 6.20054C124.163 4.49399 124.783 3.04112 126.024 1.84004C127.266 0.63897 128.833 0.0390625 130.721 0.0390625C131.409 0.0390625 132.077 0.124674 132.724 0.294007C133.214 0.421165 133.811 0.658484 134.515 1.00282C135.219 1.34904 135.711 1.52089 135.993 1.52089C136.264 1.52089 136.478 1.43528 136.635 1.26595C136.791 1.09535 136.938 0.687441 137.073 0.0390625H137.529Z" fill="black"/>
<path d="M149.064 11.6622V18.3305C149.064 19.4333 149.123 20.1239 149.241 20.3984C149.359 20.6747 149.591 20.9145 149.936 21.1216C150.281 21.3287 150.747 21.4326 151.334 21.4326H152.029V21.9885H140.99V21.4326H141.689C142.299 21.4326 142.79 21.3212 143.163 21.0984C143.433 20.9498 143.639 20.6942 143.784 20.3341C143.898 20.0798 143.955 19.4126 143.955 18.3298V4.15994C143.955 3.0577 143.898 2.36714 143.784 2.09268C143.67 1.81634 143.439 1.57461 143.093 1.36751C142.747 1.16103 142.279 1.0578 141.689 1.0578H140.99V0.501953H152.029V1.05717H151.334C150.727 1.05717 150.237 1.16922 149.867 1.39143C149.599 1.54062 149.388 1.7943 149.234 2.15437C149.12 2.40869 149.064 3.07784 149.064 4.15994V10.273H156.499V4.15994C156.499 3.0577 156.442 2.36714 156.328 2.09268C156.214 1.81634 155.981 1.57461 155.63 1.36751C155.278 1.16103 154.808 1.0578 154.217 1.0578H153.534V0.501953H164.573V1.05717H163.889C163.268 1.05717 162.777 1.16922 162.415 1.39143C162.145 1.54062 161.933 1.7943 161.779 2.15437C161.665 2.40869 161.608 3.07784 161.608 4.15994V18.3305C161.608 19.4333 161.665 20.1239 161.778 20.3984C161.892 20.6747 162.125 20.9145 162.476 21.1216C162.829 21.3287 163.3 21.4326 163.889 21.4326H164.573V21.9885H153.534V21.4326H154.217C154.838 21.4326 155.33 21.3212 155.692 21.0984C155.962 20.9498 156.173 20.6942 156.328 20.3341C156.443 20.0798 156.499 19.4126 156.499 18.3298V11.6622H149.064Z" fill="black"/>
<path d="M193.379 0.501953V6.33673H192.831C192.496 4.99339 192.124 4.02838 191.717 3.44106C191.309 2.85437 190.749 2.3854 190.038 2.03729C189.64 1.84781 188.944 1.75213 187.95 1.75213H186.4V18.3305C186.4 19.4333 186.459 20.1239 186.576 20.3984C186.693 20.6747 186.925 20.9145 187.268 21.1216C187.611 21.3287 188.079 21.4326 188.673 21.4326H189.365V21.9885H178.326V21.4326H179.021C179.628 21.4326 180.118 21.3212 180.488 21.0984C180.756 20.9498 180.966 20.6942 181.121 20.3341C181.234 20.0798 181.291 19.4126 181.291 18.3298V1.75213H179.739C178.297 1.75213 177.249 2.05869 176.597 2.67308C175.68 3.52919 175.101 4.75103 174.859 6.33673H174.312V0.501953H193.379Z" fill="black"/>
<path d="M206.223 21.4326V21.9885H195.185V21.4326H195.883C196.493 21.4326 196.985 21.3212 197.358 21.0984C197.627 20.9498 197.833 20.6942 197.978 20.3341C198.093 20.0798 198.15 19.4126 198.15 18.3298V4.15994C198.15 3.0577 198.092 2.36714 197.978 2.09268C197.864 1.81634 197.634 1.57461 197.288 1.36751C196.941 1.16103 196.474 1.0578 195.883 1.0578H195.185V0.501953H206.223V1.05717H205.528C204.921 1.05717 204.432 1.16922 204.062 1.39143C203.793 1.54062 203.582 1.7943 203.428 2.15437C203.314 2.40869 203.259 3.07784 203.259 4.15994V18.3305C203.259 19.4333 203.318 20.1239 203.436 20.3984C203.554 20.6747 203.786 20.9145 204.131 21.1216C204.476 21.3287 204.941 21.4326 205.529 21.4326H206.223Z" fill="black"/>
<path d="M222.188 14.6385L227.897 0.501953H236.501V1.05717H235.818C235.197 1.05717 234.699 1.17048 234.328 1.39457C234.069 1.54502 233.862 1.79682 233.707 2.14997C233.592 2.40743 233.536 3.07784 233.536 4.15931V18.3298C233.536 19.4327 233.592 20.1233 233.707 20.3977C233.821 20.6741 234.053 20.9139 234.405 21.121C234.756 21.3281 235.228 21.432 235.818 21.432H236.501V21.9878H225.463V21.432H226.146C226.767 21.432 227.263 21.3206 227.636 21.0977C227.894 20.9492 228.101 20.6936 228.256 20.3335C228.371 20.0792 228.428 19.4119 228.428 18.3292V2.40051L220.371 21.9885H219.996L211.737 2.5434V17.6815C211.737 18.7415 211.762 19.3937 211.816 19.6367C211.951 20.1661 212.246 20.5973 212.701 20.9322C213.155 21.2658 213.868 21.4326 214.839 21.4326V21.9885H207.587V21.4326H207.806C208.274 21.4433 208.71 21.3665 209.117 21.1997C209.522 21.0348 209.828 20.8119 210.037 20.5337C210.244 20.2561 210.406 19.8664 210.52 19.3635C210.541 19.2458 210.552 18.7006 210.552 17.728V4.15994C210.552 3.05581 210.494 2.36714 210.38 2.09394C210.265 1.82011 210.031 1.58028 209.677 1.37065C209.324 1.16229 208.851 1.0578 208.258 1.0578H207.587V0.501953H216.24L222.188 14.6385Z" fill="black"/>
<path d="M245.883 1.75213V10.458H246.307C247.655 10.458 248.632 10.0281 249.239 9.16882C249.845 8.30893 250.232 7.04113 250.399 5.36416H250.946V16.6629H250.399C250.274 15.4361 250.009 14.4301 249.608 13.6458C249.205 12.8633 248.738 12.3364 248.204 12.067C247.671 11.7963 246.897 11.6616 245.884 11.6616V17.7117C245.884 18.8939 245.933 19.6172 246.032 19.8809C246.13 20.1453 246.315 20.3612 246.586 20.5299C246.856 20.6999 247.293 20.783 247.896 20.783H249.158C251.134 20.783 252.716 20.3203 253.907 19.3956C255.097 18.4708 255.952 17.057 256.473 15.1559H257.058L256.106 21.9878H237.81V21.432H238.508C239.118 21.432 239.61 21.3206 239.982 21.0977C240.252 20.9492 240.458 20.6936 240.604 20.3335C240.718 20.0792 240.775 19.4119 240.775 18.3292V4.15994C240.775 3.18485 240.747 2.58432 240.697 2.36148C240.593 1.99133 240.401 1.70492 240.122 1.50411C239.729 1.20699 239.191 1.0578 238.508 1.0578H237.81V0.501953H255.507V6.84599H254.959C254.654 5.29995 254.226 4.19016 253.675 3.51723C253.123 2.84493 252.343 2.35078 251.336 2.0354C250.747 1.84529 249.644 1.7515 248.027 1.7515H245.883V1.75213Z" fill="black"/>
<path d="M273.459 0.0390625L273.641 7.21655H273.003C272.699 5.4206 271.956 3.97717 270.772 2.88248C269.587 1.79031 268.306 1.24328 266.929 1.24328C265.864 1.24328 265.022 1.5297 264.401 2.10254C263.78 2.67538 263.47 3.33572 263.47 4.0823C263.47 4.55568 263.58 4.97681 263.8 5.34443C264.103 5.83922 264.59 6.32833 265.261 6.81178C265.753 7.15926 266.889 7.77365 268.671 8.65683C271.165 9.88875 272.839 11.0508 273.695 12.1449C274.541 13.2402 274.964 14.4922 274.964 15.9017C274.964 17.6901 274.271 19.2298 272.887 20.519C271.503 21.8088 269.746 22.4522 267.614 22.4522C266.946 22.4522 266.313 22.3829 265.717 22.247C265.122 22.1091 264.376 21.8516 263.478 21.4714C262.976 21.2618 262.563 21.1561 262.24 21.1561C261.968 21.1561 261.681 21.2631 261.377 21.4758C261.075 21.6905 260.829 22.014 260.641 22.4528H260.094V14.3481H260.641C261.101 16.6212 261.99 18.3548 263.304 19.549C264.619 20.7425 266.036 21.3405 267.555 21.3405C268.728 21.3405 269.662 21.0195 270.36 20.3786C271.057 19.7372 271.405 18.9906 271.405 18.1383C271.405 17.6328 271.271 17.1443 271.005 16.6709C270.737 16.1975 270.331 15.7474 269.786 15.3219C269.242 14.8964 268.277 14.3405 266.895 13.6575C264.956 12.7007 263.565 11.8849 262.721 11.2101C261.876 10.5352 261.227 9.78299 260.774 8.95143C260.321 8.11924 260.094 7.20207 260.094 6.20054C260.094 4.49399 260.714 3.04112 261.955 1.84004C263.196 0.63897 264.762 0.0390625 266.651 0.0390625C267.339 0.0390625 268.007 0.124674 268.653 0.294007C269.143 0.421165 269.74 0.658484 270.444 1.00282C271.148 1.34904 271.64 1.52089 271.922 1.52089C272.194 1.52089 272.408 1.43528 272.565 1.26595C272.721 1.09535 272.867 0.687441 273.003 0.0390625H273.459Z" fill="black"/>
</g>
<defs>
<clipPath id="clip0_7702_67111">
<rect width="275" height="23" fill="white"/>
</clipPath>
</defs>
</svg>
