<svg width="262" height="44" viewBox="0 0 262 44" fill="none" xmlns="http://www.w3.org/2000/svg">
<g clip-path="url(#clip0_7702_67109)">
<path d="M6.53817 43.557C7.29021 41.8077 8.0421 40.0423 8.77766 38.2932C9.21913 37.2629 9.66043 36.2168 10.1019 35.203C10.1997 34.9905 10.1997 34.7457 10.1019 34.5332C6.76714 26.7513 3.45451 18.9588 0.16353 11.1555C0.101853 11.0277 0.0473951 10.8968 0 10.7631C0.11221 10.7326 0.230854 10.7326 0.343221 10.7631H8.81031C9.0454 10.7402 9.26134 10.8935 9.31721 11.1228L14.5151 24.4136C14.5151 24.5117 14.5151 24.6263 14.6622 24.7897L14.8095 24.4789C16.5748 20.0324 18.3293 15.5858 20.0729 11.1391C20.1872 10.8612 20.3016 10.7631 20.5958 10.7631H29.1776L28.491 12.3979L15.692 43.1972C15.6228 43.3049 15.5831 43.4291 15.5778 43.5568H6.53817V43.557Z" fill="#6101D3"/>
<path d="M64.6966 13.0523C65.0544 12.6323 65.4421 12.239 65.8572 11.8753C67.5634 10.5613 69.7194 9.97365 71.8564 10.2403C73.8432 10.3361 75.7065 11.2324 77.0218 12.7252C78.0983 14.0146 78.7996 15.5757 79.0485 17.2372C79.1953 18.1507 79.261 19.075 79.2447 20.0001C79.2447 24.7737 79.2447 29.5472 79.2447 34.3209C79.2447 34.6476 79.1466 34.7132 78.836 34.7132C76.2533 34.7132 73.6869 34.7132 71.1044 34.7132C70.8101 34.7132 70.7446 34.6316 70.7446 34.3533V21.7492C70.7672 21.1308 70.69 20.5124 70.5158 19.9183C70.2581 18.8473 69.3418 18.0623 68.2437 17.973C67.1384 17.7903 66.029 18.2775 65.4158 19.2155C65.032 19.8078 64.8068 20.489 64.7619 21.1936C64.7619 21.6677 64.7619 22.1254 64.7619 22.5994C64.7619 26.4902 64.7619 30.3866 64.7619 34.2881C64.7619 34.5988 64.7619 34.6804 64.3534 34.6804C61.787 34.6804 59.2041 34.6804 56.6217 34.6804C56.3601 34.6804 56.2783 34.6804 56.2783 34.337C56.2783 23.0463 56.2783 11.7499 56.2783 0.448033C56.2783 0.186545 56.2783 0.121094 56.6052 0.121094H64.3695C64.6476 0.121094 64.7292 0.121094 64.7292 0.464512C64.7292 4.51882 64.7292 8.63843 64.7292 12.6108L64.6966 13.0523Z" fill="#6101D3"/>
<path d="M53.451 11.0895C53.451 10.877 53.451 10.7134 53.1568 10.7297H45.5395C45.3107 10.7297 45.2452 10.7297 45.2452 11.024C45.2452 11.6289 45.2452 12.2502 45.2452 12.8387C45.0001 12.6097 44.7713 12.3972 44.526 12.2012C42.5392 10.5122 39.8993 9.80418 37.334 10.2721C34.39 10.639 31.7343 12.2219 30.0109 14.637C27.6543 17.7706 26.7936 21.7817 27.6571 25.6063C28.1777 28.8104 29.9997 31.6564 32.6917 33.4694C35.4775 35.415 39.0457 35.8559 42.2212 34.6466C43.4139 34.23 44.4552 33.4672 45.2126 32.456C45.2126 33.1426 45.2126 33.7312 45.2126 34.3198C45.2126 34.5813 45.2126 34.6794 45.556 34.6794C48.0731 34.6794 50.5905 34.6794 53.1076 34.6794C53.3854 34.6794 53.4182 34.5978 53.4182 34.336C53.4182 33.3715 53.4182 32.4233 53.4182 31.459L53.451 11.0895ZM40.5049 27.6333C37.7967 27.6333 35.6011 25.4375 35.6011 22.729C35.6011 20.0204 37.7967 17.8246 40.5049 17.8246C43.2134 17.8246 45.4088 20.0204 45.4088 22.729C45.4086 25.4375 43.2132 27.6333 40.5049 27.6333Z" fill="#6101D3"/>
<path d="M106.527 20.8659C106.087 17.0481 103.819 13.6824 100.446 11.8419C97.8597 10.3741 94.8498 9.83211 91.9138 10.3052C88.4819 10.6921 85.3752 12.5159 83.3646 15.324C81.5771 17.8017 80.7683 20.8524 81.0925 23.8903C81.2747 26.6018 82.3693 29.1717 84.1981 31.1815C86.6641 33.8742 90.1762 35.3653 93.8261 35.2684C94.153 35.2684 94.4799 35.2684 94.7905 35.2684C95.101 35.2684 95.5425 35.2684 95.9184 35.1539C102.703 34.2597 107.478 28.0347 106.584 21.2497C106.567 21.1213 106.548 20.9934 106.527 20.8659ZM93.8096 27.5522C91.1015 27.5522 88.9058 25.3564 88.9058 22.6478C88.9058 19.9391 91.1015 17.7433 93.8096 17.7433C96.518 17.7433 98.7134 19.9389 98.7134 22.6478C98.8148 25.2552 96.7834 27.4508 94.1765 27.5522C94.0543 27.5569 93.932 27.5569 93.8096 27.5522Z" fill="#6101D3"/>
<path d="M133.676 21.2415C133.418 18.2925 132.058 15.5491 129.868 13.558C126.897 10.7792 122.788 9.5669 118.785 10.2883C112.542 11.1217 107.931 16.5296 108.095 22.8271C108.095 23.0559 108.095 23.4319 108.095 23.8081C108.095 24.184 108.095 24.1512 108.095 24.3147C108.482 28.184 110.734 31.6204 114.127 33.5186C116.761 35.0691 119.856 35.6474 122.872 35.1531C126.212 34.7491 129.233 32.9721 131.208 30.2489C133.163 27.6781 134.048 24.4503 133.676 21.2415ZM120.96 27.5519C118.252 27.6053 116.013 25.4534 115.96 22.7452C115.906 20.0372 118.058 17.7984 120.766 17.7451C123.474 17.6917 125.712 19.8437 125.766 22.5518C125.767 22.622 125.767 22.692 125.765 22.762C125.802 25.371 123.716 27.5157 121.108 27.5522C121.058 27.5527 121.009 27.5527 120.96 27.5519Z" fill="#6101D3"/>
<path d="M137.878 21.8143L138.94 19.2317L146.738 0.431709C146.738 0.251838 146.868 0.121094 147.13 0.121094H156.937C156.529 1.10191 156.136 2.08288 155.728 3.04721C153.178 9.18322 150.633 15.3244 148.094 21.4714C148.038 21.6985 147.819 21.8467 147.587 21.8145H137.878V21.8143Z" fill="#6101D3"/>
<path d="M140.313 35.1047C137.298 35.1323 134.831 32.7099 134.804 29.6946C134.803 29.6453 134.804 29.5955 134.805 29.5463C134.831 26.4136 137.392 23.8954 140.524 23.9221C140.541 23.9221 140.558 23.9222 140.575 23.9226C143.572 23.886 146.031 26.286 146.068 29.2835C146.068 29.3381 146.068 29.3932 146.067 29.4482C146.068 32.5722 143.536 35.1047 140.412 35.1053C140.379 35.1053 140.346 35.105 140.313 35.1047Z" fill="#6101D3"/>
<path d="M261.971 27.2899C261.868 27.5007 261.809 27.73 261.795 27.9639C261.29 30.268 259.68 32.1746 257.492 33.0575C256.047 33.7194 254.485 34.0874 252.896 34.1411C249.601 34.3645 246.301 33.8024 243.265 32.5012C242.65 32.2086 242.065 31.8862 241.479 31.5646C241.479 31.5646 241.304 31.3597 241.479 31.2133C242.387 29.3977 243.294 27.5535 244.172 25.738C244.172 25.5041 244.407 25.5623 244.553 25.738C246.247 26.6695 248.089 27.3031 249.998 27.6123C250.91 27.7447 251.837 27.7447 252.749 27.6123C252.976 27.5887 253.195 27.5184 253.394 27.4071C253.765 27.2488 253.938 26.8185 253.78 26.4469C253.706 26.2735 253.567 26.1346 253.394 26.061C252.927 25.8074 252.423 25.6295 251.9 25.5339C250.332 25.2171 248.787 24.7961 247.275 24.2746C246.211 23.8904 245.221 23.326 244.348 22.6061C243.021 21.3994 242.32 19.6519 242.445 17.8633C242.429 14.7438 244.447 11.9785 247.421 11.0414C249.016 10.4643 250.703 10.1866 252.398 10.2217C255.564 10.274 258.677 11.0447 261.502 12.476C261.707 12.476 261.707 12.6517 261.502 12.8274C260.741 14.6429 259.951 16.4284 259.19 18.2439C259.19 18.4778 259.014 18.5076 258.78 18.4196C257.416 17.7003 255.957 17.1778 254.447 16.8677C253.488 16.646 252.498 16.5867 251.52 16.6921C251.296 16.7086 251.082 16.7899 250.905 16.9265C250.582 17.1103 250.468 17.521 250.652 17.8445C250.712 17.9505 250.799 18.0373 250.905 18.098C251.315 18.3013 251.747 18.4587 252.193 18.5663C253.873 18.9672 255.525 19.4754 257.14 20.0881C258.198 20.4856 259.187 21.0489 260.068 21.7572C261.129 22.6202 261.82 23.8561 262 25.2115C262 25.2115 262 25.358 262 25.4167L261.971 27.2899Z" fill="#222A31"/>
<path d="M223.623 21.5228C223.125 22.9575 222.657 24.45 222.188 25.8555C221.398 28.3144 220.579 30.7739 219.788 33.2329C219.744 33.4488 219.537 33.5913 219.32 33.555H212.88C212.695 33.5918 212.513 33.4755 212.47 33.2914L205.063 11.1586C205.063 10.8654 205.063 10.8067 205.298 10.8359H213.026C213.289 10.8359 213.407 10.8359 213.465 11.1291C214.577 14.8765 215.719 18.5944 216.832 22.3127C216.832 22.3127 216.832 22.4883 216.832 22.5471L217.71 19.8537C218.676 16.9259 219.613 13.9981 220.637 11.0703C220.637 10.8359 220.637 10.719 221.047 10.719H226.551C226.814 10.719 226.902 10.719 226.99 11.0411C228.19 14.7298 229.361 18.419 230.561 22.1077C230.561 22.1077 230.561 22.3127 230.561 22.4591C230.657 22.3202 230.718 22.1589 230.737 21.9908L234.074 11.07C234.074 10.8064 234.25 10.6895 234.572 10.6895H242.037C242.417 10.6895 242.417 10.6895 242.3 11.0408L234.835 33.2911C234.848 33.4684 234.715 33.6233 234.537 33.636C234.467 33.641 234.397 33.6228 234.338 33.5837H227.956C227.722 33.5837 227.605 33.5837 227.546 33.2911L223.77 21.8736C223.769 21.8742 223.74 21.6102 223.623 21.5228Z" fill="#222A31"/>
<path d="M165.281 13.4418C165.65 12.8779 166.093 12.3663 166.598 11.9194C167.706 10.8918 169.131 10.272 170.638 10.1626C174.633 9.55969 178.383 12.246 179.098 16.2231C179.311 17.1845 179.408 18.1666 179.391 19.1504V33.0867C179.391 33.3503 179.391 33.438 179.069 33.438H171.369C171.106 33.438 171.048 33.438 171.048 33.1159V21.2585C171.065 20.6618 170.976 20.0673 170.784 19.5017C170.462 18.4862 169.537 17.7823 168.471 17.7461C167.432 17.6182 166.417 18.1255 165.895 19.0334C165.489 19.7044 165.276 20.4746 165.281 21.2585V33.2328C165.281 33.4968 165.281 33.5549 164.988 33.5549H157.26C156.996 33.5549 156.938 33.5549 156.938 33.2328C156.938 25.8751 156.938 18.507 156.938 11.129C156.938 10.8654 156.937 10.8358 157.26 10.8358H164.959C165.222 10.8358 165.31 10.8358 165.281 11.1585V13.4418Z" fill="#222A31"/>
<path d="M205.063 18.9458C204.359 15.5913 202.097 12.7746 198.975 11.3624C196.744 10.3325 194.256 9.99602 191.832 10.3966C188.021 10.9011 184.721 13.2881 183.05 16.7497C181.719 19.3919 181.366 22.4203 182.054 25.2987C182.693 29.2108 185.495 32.422 189.285 33.5837C192.409 34.6367 195.792 34.6367 198.916 33.5837C201.284 32.786 203.294 31.1796 204.595 29.0456C204.595 28.8994 204.771 28.8117 204.595 28.6942L197.95 26.1771C197.85 26.0717 197.683 26.0683 197.577 26.1689C197.575 26.1717 197.572 26.1745 197.57 26.1771C196.46 27.5853 194.617 28.1958 192.886 27.7287C191.407 27.4366 190.25 26.2805 189.959 24.8009C189.959 24.5372 189.959 24.4203 190.251 24.4203H205.063C205.561 24.4203 205.561 24.4203 205.59 23.9225C205.685 22.2461 205.508 20.5649 205.063 18.9458ZM197.101 19.6486H190.134C189.841 19.6486 189.812 19.6486 189.87 19.3259C190.171 17.8957 191.347 16.8135 192.798 16.633C193.732 16.463 194.696 16.5962 195.549 17.0136C196.472 17.4353 197.136 18.2735 197.335 19.268C197.511 19.4436 197.511 19.5901 197.159 19.5901L197.101 19.6486Z" fill="#222A31"/>
</g>
<defs>
<clipPath id="clip0_7702_67109">
<rect width="262" height="44" fill="white"/>
</clipPath>
</defs>
</svg>
