<svg width="230" height="262" viewBox="0 0 230 262" fill="none" xmlns="http://www.w3.org/2000/svg">
<path d="M22.5079 149.155C10.0778 165.258 13.1679 188.477 29.4096 201.014C45.6513 213.552 68.8929 210.659 81.323 194.557C93.7531 178.454 90.6637 155.24 74.422 142.703C58.1803 130.165 34.9381 133.053 22.5079 149.155Z" fill="url(#paint0_radial_14017_92236)"/>
<path d="M28.6117 153.4C27.7169 154.559 26.9121 155.774 26.2129 157.014C26.2107 157.018 26.2081 157.022 26.2052 157.026C25.5004 158.268 24.8958 159.548 24.3874 160.854C23.5293 163.017 22.9492 165.254 22.6202 167.512C22.379 169.147 22.2742 170.791 22.3019 172.431C22.4482 181.464 26.5804 190.372 34.3281 196.352C35.6921 197.405 37.1214 198.327 38.5907 199.117C39.6937 199.716 40.8192 200.24 41.9638 200.681C45.084 201.909 48.346 202.601 51.6202 202.762C52.1887 202.794 52.7645 202.805 53.3333 202.802C55.8284 202.8 58.311 202.479 60.726 201.875C60.9737 201.814 61.2201 201.744 61.4644 201.676C63.1671 201.204 64.8368 200.578 66.4451 199.811C68.9795 198.597 71.373 197.022 73.5285 195.09C74.5029 194.215 75.433 193.27 76.3103 192.249C76.6572 191.841 76.9956 191.425 77.3229 191.001C78.1058 189.987 78.8137 188.937 79.4465 187.869C79.8053 187.254 80.1417 186.64 80.4557 186.008C80.4568 186.006 80.458 186.004 80.4595 186.002C80.4609 186 80.4621 185.998 80.4631 185.996C82.1295 182.658 83.1275 179.101 83.4906 175.5C83.5697 174.681 83.6185 173.86 83.6322 173.039C83.689 169.886 83.2615 166.73 82.3611 163.696C80.5806 157.705 76.9561 152.178 71.6121 148.053C69.1804 146.176 66.5554 144.711 63.8333 143.667C60.9065 142.535 57.8632 141.866 54.8055 141.673C54.1625 141.628 53.5115 141.598 52.8667 141.596C50.5055 141.586 48.1573 141.843 45.876 142.377C45.3179 142.499 44.7646 142.638 44.2217 142.799C42.3734 143.326 40.5791 144.033 38.8604 144.913C38.025 145.325 37.2115 145.79 36.4175 146.287C35.3778 146.946 34.3741 147.669 33.4069 148.46C33.4051 148.462 33.4035 148.463 33.4021 148.465C33.4007 148.467 33.399 148.469 33.3972 148.47C32.5409 149.17 31.7242 149.922 30.9392 150.725C30.2266 151.458 29.5419 152.229 28.8932 153.046C28.7957 153.161 28.7037 153.28 28.6117 153.4Z" fill="url(#paint1_linear_14017_92236)"/>
<path style="mix-blend-mode:overlay" d="M52.8682 141.599C49.3495 141.585 47.6189 145.47 49.8084 148.225C52.016 151.002 54.7134 153.657 57.9681 155.742C64.8763 160.163 72.1615 167.436 76.646 175.741C78.3494 178.896 83.1324 179.07 83.4921 175.503C83.6441 173.928 83.0346 172.393 81.9474 171.245C77.9481 167.02 73.2983 162.387 68.8691 158.62C63.0318 153.654 58.8127 148.247 55.7982 143.343C55.1629 142.31 54.0813 141.604 52.8682 141.599Z" fill="url(#paint2_linear_14017_92236)"/>
<path style="mix-blend-mode:overlay" d="M33.404 148.462C33.4034 148.463 33.4028 148.463 33.4024 148.464C33.4002 148.467 33.3996 148.471 33.401 148.474C34.3616 150.811 35.7058 153.528 37.5974 156.632C40.6178 161.594 47.3134 169.129 51.7835 175.224C53.6636 177.781 60.8112 180.327 62.4671 182.631C64.1952 185.016 65.2674 188.071 65.8615 191.307C66.5644 195.135 70.6284 197.689 73.5274 195.091C75.4359 193.377 76.3905 190.822 75.9774 188.29C75.0526 182.623 71.9552 176.111 63.7302 171.223C53.7737 165.308 45.684 155.208 40.3875 147.264C39.5028 145.937 37.7681 145.441 36.4163 146.287C35.376 146.947 34.3717 147.671 33.404 148.462Z" fill="url(#paint3_linear_14017_92236)"/>
<path style="mix-blend-mode:overlay" d="M31.0311 157.337C30.028 155.501 27.3833 155.285 26.2127 157.018C26.21 157.022 26.2094 157.026 26.2112 157.03C27.2524 159.43 28.5519 162.302 30.0994 165.476C33.5186 172.493 32.5957 184.893 40.8103 190.292C45.0671 193.083 48.3617 197.354 50.7551 201.284C51.3108 202.196 52.2681 202.806 53.3365 202.8C55.8315 202.798 58.3142 202.477 60.7292 201.874C61.1277 201.776 61.3418 201.344 61.193 200.962C57.8552 192.385 52.1207 180.635 45.207 174.825C39.023 169.627 34.7365 163.762 31.8666 158.818C31.5736 158.314 31.2953 157.82 31.0311 157.337Z" fill="url(#paint4_linear_14017_92236)"/>
<path style="mix-blend-mode:overlay" d="M71.6121 148.054C68.9743 146.017 66.4386 148.673 68.5133 151.281C69.2976 152.267 70.1225 153.215 70.9712 154.123C74.391 157.784 78.3826 154.551 74.8841 150.966C73.8773 149.934 72.7862 148.96 71.6121 148.054Z" fill="url(#paint5_linear_14017_92236)"/>
<path style="mix-blend-mode:overlay" d="M30.5266 185.127C28.041 182.647 24.4956 183.896 26.2084 186.961C28.1878 190.502 30.9042 193.714 34.3257 196.356C35.8089 197.5 37.5627 196.074 36.7827 194.37C35.4589 191.478 33.451 188.045 30.5266 185.127Z" fill="url(#paint6_linear_14017_92236)"/>
<path d="M184.745 69.1099C176.223 80.1497 160.288 82.1286 149.156 73.5351C138.02 64.9394 135.902 49.025 144.424 37.9851C152.944 26.948 168.876 24.967 180.012 33.5626C191.144 42.1561 193.265 58.0727 184.745 69.1099Z" fill="url(#paint7_radial_14017_92236)"/>
<path d="M180.618 66.4525C176.383 71.9392 169.803 74.5635 163.342 74.0116C161.039 73.8219 158.753 73.2294 156.597 72.2149C155.275 71.6053 154.004 70.8364 152.805 69.9108C148.654 66.7069 146.106 62.2015 145.304 57.4212C145.022 55.7754 144.949 54.096 145.098 52.4242C145.234 50.809 145.567 49.2044 146.113 47.6486C146.787 45.706 147.783 43.8436 149.107 42.1283C150.348 40.5211 151.789 39.157 153.367 38.049C158.999 34.1046 166.392 33.3732 172.769 36.1951C174.214 36.8371 175.612 37.6602 176.92 38.6699C180.163 41.1727 182.428 44.4783 183.637 48.0781C183.789 48.505 183.921 48.9471 184.036 49.3812C185.541 55.0359 184.527 61.2669 180.76 66.257C180.716 66.325 180.667 66.3887 180.618 66.4525Z" fill="url(#paint8_linear_14017_92236)"/>
<g style="mix-blend-mode:overlay" opacity="0.302">
<path d="M180.619 66.451C179.345 68.1004 177.86 69.4911 176.23 70.6146C169.475 75.2708 161.505 64.7521 169.684 64.1024C169.856 64.0888 170.03 64.0797 170.208 64.0755C178.962 63.8588 174.526 59.1522 174.313 47.6403C174.183 40.6795 178.898 43.674 182.651 47.1364C183.311 47.7447 183.806 48.5127 184.037 49.3797C185.542 55.0344 184.528 61.2654 180.761 66.2555C180.717 66.3235 180.668 66.3873 180.619 66.451Z" fill="white"/>
</g>
<g style="mix-blend-mode:overlay" opacity="0.302">
<path d="M168.522 39.2966C159.645 39.674 160.569 37.292 158.411 44.6473C157.47 47.825 153.913 50.3764 149.911 51.6156C147.414 52.3886 145.249 50.1183 146.113 47.6518C146.788 45.7092 147.784 43.8468 149.108 42.1316C150.348 40.5243 151.789 39.1603 153.367 38.0522C157.382 35.2407 162.291 34.0616 167.089 34.6381C170.654 35.0664 172.11 39.1476 168.522 39.2966Z" fill="white"/>
</g>
<g style="mix-blend-mode:overlay" opacity="0.302">
<path d="M159.194 68.6211C157.873 70.9317 154.91 71.5381 152.804 69.9118C149.288 67.1977 146.921 63.5497 145.793 59.5919C145.491 58.5338 146.416 57.6163 147.45 57.9919C155.991 61.0909 163.879 43.9674 164.253 51.2257C164.424 54.4987 162.487 62.8608 159.194 68.6211Z" fill="white"/>
</g>
<g style="mix-blend-mode:overlay" opacity="0.302">
<path d="M171.353 45.7476C171.863 43.3644 169.954 41.024 167.525 41.316C166.333 41.4568 165.347 42.2306 165.553 44.4897C165.939 48.6928 170.558 49.4461 171.353 45.7476Z" fill="white"/>
</g>
<path d="M138.327 138.989C129.805 150.029 131.926 165.945 143.058 174.539C154.193 183.134 170.126 181.153 178.648 170.114C187.167 159.076 185.049 143.162 173.914 134.566C162.782 125.973 146.847 127.952 138.327 138.989Z" fill="url(#paint9_radial_14017_92236)"/>
<path d="M141.942 142.304C137.707 147.791 136.834 154.821 139.004 160.931C139.771 163.111 140.923 165.172 142.45 167.001C143.375 168.126 144.441 169.161 145.64 170.087C149.79 173.291 154.794 174.615 159.621 174.18C161.285 174.036 162.928 173.681 164.508 173.114C166.036 172.573 167.504 171.845 168.871 170.923C170.579 169.779 172.129 168.343 173.453 166.628C174.694 165.021 175.648 163.281 176.321 161.474C178.71 155.027 177.546 147.689 173.201 142.235C172.214 141 171.063 139.855 169.755 138.846C166.513 136.343 162.742 134.988 158.953 134.73C158.501 134.691 158.04 134.676 157.591 134.674C151.74 134.65 145.969 137.209 142.095 142.117C142.04 142.177 141.991 142.24 141.942 142.304Z" fill="url(#paint10_linear_14017_92236)"/>
<g style="mix-blend-mode:overlay" opacity="0.302">
<path d="M141.943 142.303C140.67 143.952 139.7 145.741 139.026 147.602C136.232 155.317 148.426 160.363 146.984 152.286C146.954 152.117 146.918 151.945 146.877 151.772C144.87 143.249 150.547 146.348 161.737 143.639C168.504 142.002 164.413 138.2 160.113 135.445C159.358 134.961 158.489 134.676 157.592 134.673C151.741 134.649 145.97 137.208 142.096 142.116C142.041 142.175 141.992 142.239 141.943 142.303Z" fill="white"/>
</g>
<g style="mix-blend-mode:overlay" opacity="0.302">
<path d="M171.277 147.129C173.16 155.813 175.231 154.315 168.662 158.266C165.825 159.98 164.258 164.068 164.073 168.253C163.957 170.864 166.702 172.384 168.869 170.923C170.578 169.779 172.127 168.344 173.451 166.628C174.692 165.021 175.646 163.282 176.319 161.475C178.022 156.879 177.92 151.831 176.147 147.336C174.83 143.995 170.513 143.621 171.277 147.129Z" fill="white"/>
</g>
<g style="mix-blend-mode:overlay" opacity="0.302">
<path d="M145.269 163.578C143.368 165.441 143.532 168.461 145.638 170.087C149.154 172.801 153.283 174.167 157.397 174.256C158.497 174.28 159.151 173.153 158.525 172.248C153.365 164.77 167.933 152.803 160.816 154.279C157.607 154.943 150.007 158.934 145.269 163.578Z" fill="white"/>
</g>
<g style="mix-blend-mode:overlay" opacity="0.302">
<path d="M164.322 146.024C166.498 144.927 169.245 146.181 169.578 148.605C169.744 149.794 169.245 150.943 167.007 151.317C162.843 152.007 160.945 147.729 164.322 146.024Z" fill="white"/>
</g>
<defs>
<radialGradient id="paint0_radial_14017_92236" cx="0" cy="0" r="1" gradientUnits="userSpaceOnUse" gradientTransform="translate(51.9157 171.857) rotate(-142.334) scale(37.15 36.8318)">
<stop stop-color="#FEE7CA"/>
<stop offset="1" stop-color="#FEE7CA" stop-opacity="0"/>
</radialGradient>
<linearGradient id="paint1_linear_14017_92236" x1="12.5354" y1="204.439" x2="75.2797" y2="203.572" gradientUnits="userSpaceOnUse">
<stop offset="0.137" stop-color="#3C74DA"/>
<stop offset="1" stop-color="#DD94FF"/>
</linearGradient>
<linearGradient id="paint2_linear_14017_92236" x1="93.1795" y1="169.528" x2="50.408" y2="136.511" gradientUnits="userSpaceOnUse">
<stop stop-color="white" stop-opacity="0.78"/>
<stop offset="1" stop-color="white" stop-opacity="0"/>
</linearGradient>
<linearGradient id="paint3_linear_14017_92236" x1="86.077" y1="179.594" x2="38.0111" y2="142.491" gradientUnits="userSpaceOnUse">
<stop stop-color="white" stop-opacity="0.78"/>
<stop offset="1" stop-color="white" stop-opacity="0"/>
</linearGradient>
<linearGradient id="paint4_linear_14017_92236" x1="73.6843" y1="185.849" x2="29.7523" y2="151.937" gradientUnits="userSpaceOnUse">
<stop stop-color="white" stop-opacity="0.78"/>
<stop offset="1" stop-color="white" stop-opacity="0"/>
</linearGradient>
<linearGradient id="paint5_linear_14017_92236" x1="86.7302" y1="158.035" x2="65.4323" y2="141.595" gradientUnits="userSpaceOnUse">
<stop stop-color="white" stop-opacity="0.78"/>
<stop offset="1" stop-color="white" stop-opacity="0"/>
</linearGradient>
<linearGradient id="paint6_linear_14017_92236" x1="46.2704" y1="189.169" x2="23.1547" y2="171.325" gradientUnits="userSpaceOnUse">
<stop stop-color="white" stop-opacity="0.78"/>
<stop offset="1" stop-color="white" stop-opacity="0"/>
</linearGradient>
<radialGradient id="paint7_radial_14017_92236" cx="0" cy="0" r="1" gradientUnits="userSpaceOnUse" gradientTransform="translate(164.583 53.5482) rotate(-142.334) scale(25.4674 25.2493)">
<stop stop-color="#FEE7CA"/>
<stop offset="1" stop-color="#FEE7CA" stop-opacity="0"/>
</radialGradient>
<linearGradient id="paint8_linear_14017_92236" x1="143.777" y1="77.6087" x2="143.711" y2="37.5613" gradientUnits="userSpaceOnUse">
<stop offset="0.137" stop-color="#3F7BDC"/>
<stop offset="1" stop-color="#F7D3A1"/>
</linearGradient>
<radialGradient id="paint9_radial_14017_92236" cx="0" cy="0" r="1" gradientUnits="userSpaceOnUse" gradientTransform="translate(158.487 154.553) rotate(37.6657) scale(25.4674 25.2493)">
<stop stop-color="#FEE7CA"/>
<stop offset="1" stop-color="#FEE7CA" stop-opacity="0"/>
</radialGradient>
<linearGradient id="paint10_linear_14017_92236" x1="140.479" y1="180.77" x2="179.237" y2="170.692" gradientUnits="userSpaceOnUse">
<stop offset="0.137" stop-color="#B353E9"/>
<stop offset="1" stop-color="#F7D3A1"/>
</linearGradient>
</defs>
</svg>
