<svg width="44" height="34" viewBox="0 0 44 34" fill="none" xmlns="http://www.w3.org/2000/svg">
<path opacity="0.1" d="M28.0052 0H44V11.2401C44 15.7884 43.6016 19.3673 42.8047 21.977C41.9698 24.6239 40.4519 26.9912 38.251 29.0789C36.05 31.1667 33.2419 32.807 29.8266 34L26.696 27.5132C29.8836 26.4693 32.1794 25.0154 33.5834 23.1513C34.9495 21.2873 35.6705 18.8081 35.7464 15.7138H28.0052V0ZM1.30919 0H17.304V11.2401C17.304 15.8257 16.9056 19.4232 16.1087 22.0329C15.2738 24.6425 13.7559 26.9912 11.555 29.0789C9.31609 31.1667 6.50798 32.807 3.13066 34L0 27.5132C3.18758 26.4693 5.4834 25.0154 6.88745 23.1513C8.25356 21.2873 8.97456 18.8081 9.05045 15.7138H1.30919V0Z" fill="black"/>
</svg>
