<svg width="1440" height="820" viewBox="0 0 1440 820" fill="none" xmlns="http://www.w3.org/2000/svg">
<g opacity="0.2">
<path d="M978.901 578.126C983.511 578.126 987.248 574.472 987.248 569.964C987.248 565.455 983.511 561.801 978.901 561.801C974.292 561.801 970.555 565.455 970.555 569.964C970.555 574.472 974.292 578.126 978.901 578.126Z" fill="white"/>
<path d="M768.979 78.1536C773.589 78.1536 777.326 74.499 777.326 69.9909C777.326 65.4827 773.589 61.8281 768.979 61.8281C764.37 61.8281 760.633 65.4827 760.633 69.9909C760.633 74.499 764.37 78.1536 768.979 78.1536Z" fill="white"/>
<path d="M700.948 151.62C705.558 151.62 709.295 147.966 709.295 143.458C709.295 138.95 705.558 135.295 700.948 135.295C696.338 135.295 692.602 138.95 692.602 143.458C692.602 147.966 696.338 151.62 700.948 151.62Z" fill="white"/>
<path d="M382.534 427.115C387.144 427.115 390.881 423.46 390.881 418.952C390.881 414.444 387.144 410.789 382.534 410.789C377.924 410.789 374.188 414.444 374.188 418.952C374.188 423.46 377.924 427.115 382.534 427.115Z" fill="white"/>
<path d="M19.8662 129.171C24.4759 129.171 28.2128 125.517 28.2128 121.008C28.2128 116.5 24.4759 112.846 19.8662 112.846C15.2565 112.846 11.5195 116.5 11.5195 121.008C11.5195 125.517 15.2565 129.171 19.8662 129.171Z" fill="white"/>
<path d="M50.7529 380.177C55.3626 380.177 59.0996 376.522 59.0996 372.014C59.0996 367.506 55.3626 363.852 50.7529 363.852C46.1432 363.852 42.4062 367.506 42.4062 372.014C42.4062 376.522 46.1432 380.177 50.7529 380.177Z" fill="white"/>
<path d="M970.558 427.115C975.167 427.115 978.904 423.46 978.904 418.952C978.904 414.444 975.167 410.789 970.558 410.789C965.948 410.789 962.211 414.444 962.211 418.952C962.211 423.46 965.948 427.115 970.558 427.115Z" fill="white"/>
<path d="M374.601 286.306C379.21 286.306 382.947 282.651 382.947 278.143C382.947 273.635 379.21 269.98 374.601 269.98C369.991 269.98 366.254 273.635 366.254 278.143C366.254 282.651 369.991 286.306 374.601 286.306Z" fill="white"/>
<path d="M1087.41 608.326C1090.63 608.326 1093.25 605.768 1093.25 602.612C1093.25 599.457 1090.63 596.898 1087.41 596.898C1084.18 596.898 1081.56 599.457 1081.56 602.612C1081.56 605.768 1084.18 608.326 1087.41 608.326Z" fill="white"/>
<path d="M291.972 424.662C295.198 424.662 297.814 422.104 297.814 418.948C297.814 415.793 295.198 413.234 291.972 413.234C288.745 413.234 286.129 415.793 286.129 418.948C286.129 422.104 288.745 424.662 291.972 424.662Z" fill="white"/>
<path d="M852.858 523.842C856.085 523.842 858.701 521.284 858.701 518.128C858.701 514.972 856.085 512.414 852.858 512.414C849.632 512.414 847.016 514.972 847.016 518.128C847.016 521.284 849.632 523.842 852.858 523.842Z" fill="white"/>
<path d="M1138.32 203.049C1141.55 203.049 1144.16 200.491 1144.16 197.335C1144.16 194.179 1141.55 191.621 1138.32 191.621C1135.09 191.621 1132.48 194.179 1132.48 197.335C1132.48 200.491 1135.09 203.049 1138.32 203.049Z" fill="white"/>
<path d="M1142.49 442.623C1145.72 442.623 1148.33 440.065 1148.33 436.909C1148.33 433.754 1145.72 431.195 1142.49 431.195C1139.26 431.195 1136.65 433.754 1136.65 436.909C1136.65 440.065 1139.26 442.623 1142.49 442.623Z" fill="white"/>
<path d="M810.712 456.089C813.017 456.089 814.886 454.261 814.886 452.007C814.886 449.753 813.017 447.926 810.712 447.926C808.408 447.926 806.539 449.753 806.539 452.007C806.539 454.261 808.408 456.089 810.712 456.089Z" fill="white"/>
<path d="M526.509 394.87C528.814 394.87 530.683 393.043 530.683 390.788C530.683 388.534 528.814 386.707 526.509 386.707C524.204 386.707 522.336 388.534 522.336 390.788C522.336 393.043 524.204 394.87 526.509 394.87Z" fill="white"/>
<path d="M147.572 515.674C149.877 515.674 151.745 513.847 151.745 511.593C151.745 509.339 149.877 507.512 147.572 507.512C145.267 507.512 143.398 509.339 143.398 511.593C143.398 513.847 145.267 515.674 147.572 515.674Z" fill="white"/>
<path d="M147.572 420.585C149.877 420.585 151.745 418.757 151.745 416.503C151.745 414.249 149.877 412.422 147.572 412.422C145.267 412.422 143.398 414.249 143.398 416.503C143.398 418.757 145.267 420.585 147.572 420.585Z" fill="white"/>
<path d="M226.447 176.924C228.752 176.924 230.62 175.097 230.62 172.843C230.62 170.589 228.752 168.762 226.447 168.762C224.142 168.762 222.273 170.589 222.273 172.843C222.273 175.097 224.142 176.924 226.447 176.924Z" fill="white"/>
<path d="M996.847 538.533C996.847 540.165 995.595 540.982 993.926 540.982C992.674 540.982 991.422 540.165 991.422 538.533C991.422 536.9 992.674 535.676 993.926 535.676C995.595 535.676 996.847 536.9 996.847 538.533Z" fill="white"/>
<path d="M840.343 515.269C840.343 516.902 839.091 518.126 837.839 518.126C836.17 518.126 834.918 516.902 834.918 515.269C834.918 514.045 836.17 512.82 837.839 512.82C839.091 512.82 840.343 514.045 840.343 515.269Z" fill="white"/>
<path d="M843.265 578.127C843.265 579.351 842.013 580.575 840.344 580.575C839.092 580.575 837.84 579.351 837.84 578.127C837.84 576.494 839.092 575.27 840.344 575.27C842.013 575.27 843.265 576.494 843.265 578.127Z" fill="white"/>
<path d="M877.91 561.8C877.91 563.433 876.658 564.657 875.406 564.657C873.736 564.657 872.484 563.433 872.484 561.8C872.484 560.576 873.736 559.352 875.406 559.352C876.658 559.352 877.91 560.576 877.91 561.8Z" fill="white"/>
<path d="M805.289 573.64C805.289 575.273 804.037 576.497 802.367 576.497C801.115 576.497 799.863 575.273 799.863 573.64C799.863 572.008 801.115 571.191 802.367 571.191C804.037 571.191 805.289 572.008 805.289 573.64Z" fill="white"/>
<path d="M9.8511 663.838C9.8511 665.062 8.59911 666.286 6.92978 666.286C5.67778 666.286 4.42578 665.062 4.42578 663.838C4.42578 662.205 5.67778 660.98 6.92978 660.98C8.59911 660.98 9.8511 662.205 9.8511 663.838Z" fill="white"/>
<path d="M1021.05 366.709C1021.05 368.341 1019.79 369.157 1018.13 369.157C1016.87 369.157 1015.62 368.341 1015.62 366.709C1015.62 365.076 1016.87 363.852 1018.13 363.852C1019.79 363.852 1021.05 365.076 1021.05 366.709Z" fill="white"/>
<path d="M887.922 519.357C887.922 520.173 887.505 520.99 886.67 520.99C885.835 520.99 885.418 520.173 885.418 519.357C885.418 518.541 885.835 518.133 886.67 518.133C887.505 518.133 887.922 518.541 887.922 519.357Z" fill="white"/>
<path d="M534.022 817.289C534.022 818.513 533.188 819.329 532.353 819.329C531.518 819.329 530.684 818.513 530.684 817.289C530.684 816.472 531.518 815.656 532.353 815.656C533.188 815.656 534.022 816.472 534.022 817.289Z" fill="white"/>
<path d="M561.984 520.984C561.984 521.392 561.567 522.209 560.732 522.209C559.898 522.209 559.48 521.392 559.48 520.984C559.48 520.168 559.898 519.352 560.732 519.352C561.567 519.352 561.984 520.168 561.984 520.984Z" fill="white"/>
<path d="M253.16 502.211C253.16 502.619 252.743 503.435 251.908 503.435C251.074 503.435 250.656 502.619 250.656 502.211C250.656 501.394 251.074 500.578 251.908 500.578C252.743 500.578 253.16 501.394 253.16 502.211Z" fill="white"/>
<path d="M718.484 500.576C718.484 501.392 718.067 502.209 717.232 502.209C716.398 502.209 715.98 501.392 715.98 500.576C715.98 499.76 716.398 499.352 717.232 499.352C718.067 499.352 718.484 499.76 718.484 500.576Z" fill="white"/>
<path d="M527.761 512.818C527.761 513.634 526.927 514.042 526.509 514.042C525.675 514.042 524.84 513.634 524.84 512.818C524.84 512.002 525.675 511.594 526.509 511.594C526.927 511.594 527.761 512.002 527.761 512.818Z" fill="white"/>
<path d="M60.3471 519.764C60.3471 520.58 59.9298 521.396 59.0951 521.396C58.2604 521.396 57.4258 520.58 57.4258 519.764C57.4258 518.947 58.2604 518.539 59.0951 518.539C59.9298 518.539 60.3471 518.947 60.3471 519.764Z" fill="white"/>
<path d="M11.0971 515.271C11.0971 516.088 10.2624 516.904 9.84511 516.904C9.01045 516.904 8.17578 516.088 8.17578 515.271C8.17578 514.863 9.01045 514.047 9.84511 514.047C10.2624 514.047 11.0971 514.863 11.0971 515.271Z" fill="white"/>
<path d="M867.886 540.982C867.886 541.798 867.052 542.615 866.217 542.615C865.382 542.615 864.965 541.798 864.965 540.982C864.965 540.574 865.382 539.758 866.217 539.758C867.052 539.758 867.886 540.574 867.886 540.982Z" fill="white"/>
<path d="M609.972 542.617C609.972 543.433 609.137 543.841 608.303 543.841C607.885 543.841 607.051 543.433 607.051 542.617C607.051 541.801 607.885 540.984 608.303 540.984C609.137 540.984 609.972 541.801 609.972 542.617Z" fill="white"/>
<path d="M251.906 546.291C251.906 547.107 251.488 547.515 250.654 547.515C249.819 547.515 248.984 547.107 248.984 546.291C248.984 545.475 249.819 545.066 250.654 545.066C251.488 545.066 251.906 545.475 251.906 546.291Z" fill="white"/>
<path d="M877.91 498.127C877.91 499.351 876.658 500.575 875.406 500.575C873.736 500.575 872.484 499.351 872.484 498.127C872.484 496.494 873.736 495.27 875.406 495.27C876.658 495.27 877.91 496.494 877.91 498.127Z" fill="white"/>
<path d="M753.125 495.269C753.125 496.902 751.873 498.126 750.203 498.126C748.951 498.126 747.699 496.902 747.699 495.269C747.699 494.045 748.951 492.82 750.203 492.82C751.873 492.82 753.125 494.045 753.125 495.269Z" fill="white"/>
<path d="M236.46 382.629C236.46 384.261 235.208 385.486 233.539 385.486C231.87 385.486 231.035 384.261 231.035 382.629C231.035 380.996 231.87 380.18 233.539 380.18C235.208 380.18 236.46 380.996 236.46 382.629Z" fill="white"/>
<path d="M805.289 176.923C805.289 178.556 804.037 179.78 802.367 179.78C801.115 179.78 799.863 178.556 799.863 176.923C799.863 175.699 801.115 174.475 802.367 174.475C804.037 174.475 805.289 175.699 805.289 176.923Z" fill="white"/>
<path d="M703.039 3.46634C703.039 4.69075 701.787 5.91517 700.117 5.91517C698.865 5.91517 697.613 4.69075 697.613 3.46634C697.613 1.83378 698.865 0.609375 700.117 0.609375C701.787 0.609375 703.039 1.83378 703.039 3.46634Z" fill="white"/>
<path d="M662.976 585.062C662.976 586.695 661.724 587.919 660.472 587.919C658.803 587.919 657.551 586.695 657.551 585.062C657.551 583.838 658.803 582.613 660.472 582.613C661.724 582.613 662.976 583.838 662.976 585.062Z" fill="white"/>
<path d="M222.269 380.181C222.269 381.406 221.017 382.63 219.765 382.63C218.096 382.63 216.844 381.406 216.844 380.181C216.844 378.549 218.096 377.324 219.765 377.324C221.017 377.324 222.269 378.549 222.269 380.181Z" fill="white"/>
<path d="M177.207 225.496C177.207 226.72 175.955 227.945 174.703 227.945C173.033 227.945 171.781 226.72 171.781 225.496C171.781 223.863 173.033 222.639 174.703 222.639C175.955 222.639 177.207 223.863 177.207 225.496Z" fill="white"/>
<path d="M73.2847 227.941C73.2847 229.574 72.0327 230.798 70.3634 230.798C69.1114 230.798 67.8594 229.574 67.8594 227.941C67.8594 226.717 69.1114 225.492 70.3634 225.492C72.0327 225.492 73.2847 226.717 73.2847 227.941Z" fill="white"/>
<path d="M411.742 77.7516C411.742 79.3841 410.49 80.6085 408.82 80.6085C407.151 80.6085 406.316 79.3841 406.316 77.7516C406.316 76.5271 407.151 75.3027 408.82 75.3027C410.49 75.3027 411.742 76.5271 411.742 77.7516Z" fill="white"/>
<path d="M639.187 8.77494C639.187 9.99935 637.935 11.2238 636.683 11.2238C635.014 11.2238 633.762 9.99935 633.762 8.77494C633.762 7.14238 635.014 5.91797 636.683 5.91797C637.935 5.91797 639.187 7.14238 639.187 8.77494Z" fill="white"/>
<path d="M143.398 402.63C143.398 403.855 142.146 405.079 140.477 405.079C139.225 405.079 137.973 403.855 137.973 402.63C137.973 400.998 139.225 399.773 140.477 399.773C142.146 399.773 143.398 400.998 143.398 402.63Z" fill="white"/>
<path d="M70.3667 220.187C70.3667 221.411 69.5321 222.636 67.8627 222.636C66.1934 222.636 64.9414 221.411 64.9414 220.187C64.9414 218.555 66.1934 217.33 67.8627 217.33C69.5321 217.33 70.3667 218.555 70.3667 220.187Z" fill="white"/>
<path d="M219.765 220.187C219.765 221.411 218.513 222.636 216.844 222.636C215.592 222.636 214.34 221.411 214.34 220.187C214.34 218.555 215.592 217.33 216.844 217.33C218.513 217.33 219.765 218.555 219.765 220.187Z" fill="white"/>
<path d="M460.992 112.851C460.992 114.484 459.74 115.708 458.07 115.708C456.401 115.708 455.566 114.484 455.566 112.851C455.566 111.627 456.401 110.402 458.07 110.402C459.74 110.402 460.992 111.627 460.992 112.851Z" fill="white"/>
<path d="M717.234 369.156C717.234 370.788 715.982 372.013 714.73 372.013C713.061 372.013 711.809 370.788 711.809 369.156C711.809 367.931 713.061 366.707 714.73 366.707C715.982 366.707 717.234 367.931 717.234 369.156Z" fill="white"/>
<path d="M264.843 185.086C264.843 186.718 263.591 187.942 262.339 187.942C260.67 187.942 259.418 186.718 259.418 185.086C259.418 183.861 260.67 182.637 262.339 182.637C263.591 182.637 264.843 183.861 264.843 185.086Z" fill="white"/>
<path d="M4.42532 135.296C4.42532 136.929 3.17332 137.745 1.50399 137.745C0.251992 137.745 -1 136.929 -1 135.296C-1 133.664 0.251992 132.439 1.50399 132.439C3.17332 132.439 4.42532 133.664 4.42532 135.296Z" fill="white"/>
<path d="M668.816 246.714C668.816 248.347 667.564 249.571 665.895 249.571C664.643 249.571 663.391 248.347 663.391 246.714C663.391 245.49 664.643 244.266 665.895 244.266C667.564 244.266 668.816 245.49 668.816 246.714Z" fill="white"/>
<path d="M258.586 47.9546C258.586 49.179 257.334 50.4034 256.082 50.4034C254.412 50.4034 253.16 49.179 253.16 47.9546C253.16 46.3221 254.412 45.0977 256.082 45.0977C257.334 45.0977 258.586 46.3221 258.586 47.9546Z" fill="white"/>
<path d="M855.367 354.056C855.367 355.281 854.115 356.505 852.863 356.505C851.193 356.505 849.941 355.281 849.941 354.056C849.941 352.424 851.193 351.199 852.863 351.199C854.115 351.199 855.367 352.424 855.367 354.056Z" fill="white"/>
<path d="M1142.5 160.6C1145.83 157.743 1150.84 157.743 1154.18 160.6C1157.1 163.865 1157.1 168.763 1154.18 172.028C1150.84 175.293 1145.83 175.293 1142.5 172.028C1139.16 168.763 1139.16 163.865 1142.5 160.6Z" fill="white"/>
<path d="M1378.7 251.203C1381.62 248.346 1387.05 248.346 1389.97 251.203C1393.31 254.468 1393.31 259.366 1389.97 262.631C1387.05 265.896 1381.62 265.896 1378.7 262.631C1375.36 259.366 1375.36 254.468 1378.7 251.203Z" fill="white"/>
<path d="M1430.45 42.2409C1432.96 39.7921 1436.29 39.7921 1438.8 42.2409C1440.89 44.2816 1440.89 47.9548 1438.8 49.9955C1436.29 52.4444 1432.96 52.4444 1430.45 49.9955C1428.37 47.9548 1428.37 44.2816 1430.45 42.2409Z" fill="white"/>
<path d="M1271.45 121.415C1273.95 119.375 1277.71 119.375 1279.79 121.415C1281.88 123.456 1281.88 127.129 1279.79 129.578C1277.71 131.619 1273.95 131.619 1271.45 129.578C1269.36 127.129 1269.36 123.456 1271.45 121.415Z" fill="white"/>
<path d="M1311.1 258.964C1311.93 258.147 1313.6 258.147 1314.85 258.964C1316.1 260.188 1316.1 261.821 1314.85 263.045C1313.6 263.861 1311.93 263.861 1311.1 263.045C1309.84 261.821 1309.84 260.188 1311.1 258.964Z" fill="white"/>
<path d="M1164.2 20.2001C1165.03 19.3838 1165.87 19.3838 1166.28 20.2001C1166.7 20.6082 1166.7 21.4245 1166.28 21.8326C1165.87 22.2408 1165.03 22.2408 1164.2 21.8326C1163.78 21.4245 1163.78 20.6082 1164.2 20.2001Z" fill="white"/>
<path d="M1052.77 21.8304C1054.02 20.606 1055.69 20.606 1056.52 21.8304C1057.78 22.6467 1057.78 24.2793 1056.52 25.5037C1055.69 26.7281 1054.02 26.7281 1052.77 25.5037C1051.52 24.2793 1051.52 22.6467 1052.77 21.8304Z" fill="white"/>
<path d="M1418.76 382.218C1420.02 381.401 1421.68 381.401 1422.52 382.218C1423.77 383.442 1423.77 385.075 1422.52 386.299C1421.68 387.115 1420.02 387.115 1418.76 386.299C1417.51 385.075 1417.51 383.442 1418.76 382.218Z" fill="white"/>
<path d="M1333.21 183.453C1334.05 182.229 1336.13 182.229 1336.97 183.453C1338.22 184.27 1338.22 185.902 1336.97 187.127C1336.13 187.943 1334.05 187.943 1333.21 187.127C1331.96 185.902 1331.96 184.27 1333.21 183.453Z" fill="white"/>
<path d="M1016.04 164.68C1017.29 163.456 1018.96 163.456 1020.21 164.68C1021.05 165.496 1021.05 167.129 1020.21 168.353C1018.96 169.17 1017.29 169.17 1016.45 168.353C1015.2 167.129 1015.2 165.496 1016.45 164.68H1016.04Z" fill="white"/>
<path d="M1415.84 172.029C1416.26 171.621 1417.09 171.621 1417.51 172.029C1417.93 172.437 1417.93 173.253 1417.51 174.069C1417.09 174.478 1416.26 174.478 1415.84 174.069C1415.01 173.253 1415.01 172.437 1415.84 172.029Z" fill="white"/>
<path d="M1106.6 492.823C1107.02 492.007 1108.27 492.007 1108.68 492.823C1109.1 493.231 1109.1 494.048 1108.68 494.456C1108.27 495.272 1107.02 495.272 1106.6 494.456C1106.18 494.048 1106.18 493.231 1106.6 492.823Z" fill="white"/>
<path d="M1079.89 235.291C1080.73 234.067 1082.81 234.067 1083.65 235.291C1084.9 236.516 1084.9 238.148 1083.65 238.965C1082.81 240.189 1080.73 240.189 1079.89 238.965C1078.64 238.148 1078.64 236.516 1079.89 235.291Z" fill="white"/>
<path d="M1125.38 146.728C1127.46 144.687 1131.22 144.687 1133.31 146.728C1135.81 148.768 1135.81 152.442 1133.31 154.891C1131.22 156.931 1127.46 156.931 1125.38 154.891C1122.87 152.442 1122.87 148.768 1125.38 146.728Z" fill="white"/>
<path d="M1179.22 115.293C1180.47 114.069 1182.14 114.069 1183.39 115.293C1184.23 116.11 1184.23 117.742 1183.39 118.967C1182.14 119.783 1180.47 119.783 1179.22 118.967C1178.39 117.742 1178.39 116.11 1179.22 115.293Z" fill="white"/>
<path d="M1143.33 102.235C1144.16 101.419 1145.83 101.419 1147.08 102.235C1147.92 103.46 1147.92 105.092 1147.08 105.908C1145.83 107.133 1144.16 107.133 1143.33 105.908C1142.07 105.092 1142.07 103.46 1143.33 102.235Z" fill="white"/>
<path d="M1105.35 125.497C1105.77 124.681 1106.6 124.681 1107.43 125.497C1107.85 125.905 1107.85 126.721 1107.43 127.13C1106.6 127.946 1105.77 127.946 1105.35 127.13C1104.93 126.721 1104.93 125.905 1105.35 125.497Z" fill="white"/>
<path d="M1135.4 124.278C1135.81 123.462 1136.65 123.462 1137.48 124.278C1137.9 124.686 1137.9 125.503 1137.48 125.911C1136.65 126.319 1135.81 126.319 1135.4 125.911C1134.98 125.503 1134.98 124.686 1135.4 124.278Z" fill="white"/>
<path d="M1097.01 147.543C1097.84 146.319 1099.93 146.319 1100.76 147.543C1102.01 148.36 1102.01 150.4 1100.76 151.217C1099.93 152.441 1097.84 152.441 1097.01 151.217C1095.75 150.4 1095.75 148.36 1097.01 147.543Z" fill="white"/>
<path d="M1269.78 462.21C1271.87 460.17 1275.63 460.17 1277.71 462.21C1280.22 464.659 1280.22 467.924 1277.71 470.373C1275.63 472.414 1271.87 472.414 1269.78 470.373C1267.28 467.924 1267.28 464.659 1269.78 462.21Z" fill="white"/>
<path d="M1277.29 290.389C1279.8 287.941 1283.13 287.941 1285.64 290.389C1287.72 292.43 1287.72 296.103 1285.64 298.144C1283.13 300.593 1279.8 300.593 1277.29 298.144C1275.2 296.103 1275.2 292.43 1277.29 290.389Z" fill="white"/>
<path d="M287.792 473.64C290.296 471.599 293.634 471.599 296.138 473.64C298.225 476.089 298.225 479.762 296.138 481.803C293.634 483.843 290.296 483.843 287.792 481.803C285.705 479.762 285.705 476.089 287.792 473.64Z" fill="white"/>
<path d="M1252.67 539.349C1254.34 537.717 1256.84 537.717 1258.51 539.349C1260.18 540.982 1260.18 543.431 1258.51 545.063C1256.84 546.696 1254.34 546.696 1252.67 545.063C1251 543.431 1251 540.982 1252.67 539.349Z" fill="white"/>
<path d="M1280.63 476.907C1281.47 475.682 1283.13 475.682 1284.39 476.907C1285.22 477.723 1285.22 479.355 1284.39 480.58C1283.13 481.396 1281.47 481.396 1280.63 480.58C1279.38 479.355 1279.38 477.723 1280.63 476.907Z" fill="white"/>
<path d="M1323.61 430.789C1324.87 429.565 1326.54 429.565 1327.79 430.789C1328.62 431.606 1328.62 433.238 1327.79 434.463C1326.54 435.687 1324.87 435.687 1323.61 434.463C1322.78 433.238 1322.78 431.606 1323.61 430.789Z" fill="white"/>
<path d="M1374.11 272.022C1375.36 270.797 1377.03 270.797 1378.28 272.022C1379.12 272.838 1379.12 274.879 1378.28 275.695C1377.03 276.919 1375.36 276.919 1374.11 275.695C1373.28 274.879 1373.28 272.838 1374.11 272.022Z" fill="white"/>
<path d="M1287.31 417.733C1288.56 416.917 1290.23 416.917 1291.48 417.733C1292.32 418.958 1292.32 420.59 1291.48 421.815C1290.23 422.631 1288.56 422.631 1287.31 421.815C1286.47 420.59 1286.47 418.958 1287.31 417.733Z" fill="white"/>
<path d="M1249.75 440.986C1250.17 440.578 1251 440.578 1251.42 440.986C1252.25 441.394 1252.25 442.21 1251.42 442.618C1251 443.435 1250.17 443.435 1249.75 442.618C1248.92 442.21 1248.92 441.394 1249.75 440.986Z" fill="white"/>
<path d="M1197.58 550.372C1198 549.964 1198.83 549.964 1199.67 550.372C1200.08 550.781 1200.08 552.005 1199.67 552.413C1198.83 552.821 1198 552.821 1197.58 552.413C1197.16 552.005 1197.16 550.781 1197.58 550.372Z" fill="white"/>
<path d="M1355.75 571.185C1356.59 570.777 1357.42 570.777 1357.84 571.185C1358.25 572.001 1358.25 572.817 1357.84 573.226C1357.42 573.634 1356.59 573.634 1355.75 573.226C1355.33 572.817 1355.33 572.001 1355.75 571.185Z" fill="white"/>
<path d="M1279.79 439.767C1280.21 439.359 1281.04 439.359 1281.88 439.767C1282.29 440.175 1282.29 440.991 1281.88 441.4C1281.04 442.216 1280.21 442.216 1279.79 441.4C1279.37 440.991 1279.37 440.175 1279.79 439.767Z" fill="white"/>
<path d="M1241.4 463.03C1242.23 462.214 1243.9 462.214 1245.15 463.03C1245.99 464.255 1245.99 465.887 1245.15 466.703C1243.9 467.928 1242.23 467.928 1241.4 466.703C1240.14 465.887 1240.14 464.255 1241.4 463.03Z" fill="white"/>
<path d="M1055.68 461.397C1056.52 460.581 1058.19 460.581 1059.44 461.397C1060.27 462.622 1060.27 464.254 1059.44 465.071C1058.19 466.295 1056.52 466.295 1055.68 465.071C1054.43 464.254 1054.43 462.622 1055.68 461.397Z" fill="white"/>
<path d="M1327.79 551.186C1328.63 550.37 1330.71 550.37 1331.55 551.186C1332.8 552.411 1332.8 554.043 1331.55 555.268C1330.71 556.084 1328.63 556.084 1327.79 555.268C1326.54 554.043 1326.54 552.411 1327.79 551.186Z" fill="white"/>
</g>
</svg>
