<svg width="176" height="176" viewBox="0 0 176 176" fill="none" xmlns="http://www.w3.org/2000/svg">
<path d="M17.4685 102.948C17.8817 101.539 19.1745 100.57 20.6431 100.57H154.38C155.842 100.57 157.13 101.529 157.549 102.93L171.417 149.245C172.053 151.368 170.463 153.503 168.248 153.503H7.06428C4.85684 153.503 3.26859 151.382 3.88963 149.264L17.4685 102.948Z" fill="url(#paint0_linear_14017_92606)"/>
<path d="M21.8353 106.324C22.2253 104.881 23.5343 103.879 25.029 103.879H149.648C151.142 103.879 152.451 104.881 152.841 106.324L157.67 124.189C158.238 126.291 156.654 128.36 154.476 128.36H20.2007C18.0225 128.36 16.4387 126.291 17.0071 124.189L21.8353 106.324Z" fill="#E8F1FF"/>
<path d="M73.3079 134.04C73.4513 132.326 74.8845 131.008 76.6046 131.008H98.737C100.457 131.008 101.89 132.326 102.034 134.04L102.92 144.627C103.081 146.556 101.559 148.211 99.623 148.211H75.7187C73.7827 148.211 72.2605 146.556 72.4219 144.627L73.3079 134.04Z" fill="#E8F1FF"/>
<path d="M17.8633 23.82C17.8633 21.9929 19.3444 20.5117 21.1716 20.5117H153.502C155.329 20.5117 156.811 21.9929 156.811 23.82V95.2786C156.811 97.1057 155.329 98.5869 153.502 98.5869H21.1716C19.3444 98.5869 17.8633 97.1057 17.8633 95.2786V23.82Z" fill="url(#paint1_linear_14017_92606)"/>
<path d="M23.1602 29.113C23.1602 27.2859 24.6413 25.8047 26.4684 25.8047H148.213C150.04 25.8047 151.521 27.2859 151.521 29.113V89.9851C151.521 91.8122 150.04 93.2934 148.213 93.2934H26.4684C24.6413 93.2934 23.1602 91.8122 23.1602 89.9851V29.113Z" fill="url(#paint2_linear_14017_92606)"/>
<path d="M39.1186 25.8047H27.1289L60.1006 93.2934H76.753L39.1186 25.8047Z" fill="url(#paint3_linear_14017_92606)" fill-opacity="0.3"/>
<path d="M96.5491 25.8047H80.7227L124.245 93.2934H146.226L96.5491 25.8047Z" fill="url(#paint4_linear_14017_92606)" fill-opacity="0.3"/>
<path d="M27.1289 108.842C27.1289 107.928 27.8695 107.188 28.783 107.188H40.0312C40.9447 107.188 41.6853 107.928 41.6853 108.842C41.6853 109.755 40.9447 110.496 40.0312 110.496H28.783C27.8695 110.496 27.1289 109.755 27.1289 108.842Z" fill="url(#paint5_linear_14017_92606)"/>
<path d="M27.1289 116.119C27.1289 115.205 27.8695 114.465 28.783 114.465H40.0312C40.9447 114.465 41.6853 115.205 41.6853 116.119C41.6853 117.033 40.9447 117.773 40.0312 117.773H28.783C27.8695 117.773 27.1289 117.033 27.1289 116.119Z" fill="url(#paint6_linear_14017_92606)"/>
<path d="M27.1289 123.4C27.1289 122.487 27.8695 121.746 28.783 121.746H40.0312C40.9447 121.746 41.6853 122.487 41.6853 123.4C41.6853 124.314 40.9447 125.054 40.0312 125.054H28.783C27.8695 125.054 27.1289 124.314 27.1289 123.4Z" fill="url(#paint7_linear_14017_92606)"/>
<path d="M44.9922 108.842C44.9922 107.928 45.7328 107.188 46.6463 107.188H57.8944C58.808 107.188 59.5486 107.928 59.5486 108.842C59.5486 109.755 58.808 110.496 57.8944 110.496H46.6463C45.7328 110.496 44.9922 109.755 44.9922 108.842Z" fill="url(#paint8_linear_14017_92606)"/>
<path d="M44.9922 116.119C44.9922 115.205 45.7328 114.465 46.6463 114.465H57.8944C58.808 114.465 59.5486 115.205 59.5486 116.119C59.5486 117.033 58.808 117.773 57.8944 117.773H46.6463C45.7328 117.773 44.9922 117.033 44.9922 116.119Z" fill="url(#paint9_linear_14017_92606)"/>
<path d="M44.9922 123.4C44.9922 122.487 45.7328 121.746 46.6463 121.746H57.8944C58.808 121.746 59.5486 122.487 59.5486 123.4C59.5486 124.314 58.808 125.054 57.8944 125.054H46.6463C45.7328 125.054 44.9922 124.314 44.9922 123.4Z" fill="url(#paint10_linear_14017_92606)"/>
<path d="M62.8594 108.842C62.8594 107.928 63.6 107.188 64.5135 107.188H75.7616C76.6752 107.188 77.4158 107.928 77.4158 108.842C77.4158 109.755 76.6752 110.496 75.7616 110.496H64.5135C63.6 110.496 62.8594 109.755 62.8594 108.842Z" fill="url(#paint11_linear_14017_92606)"/>
<path d="M62.8594 116.119C62.8594 115.205 63.6 114.465 64.5135 114.465H75.7616C76.6752 114.465 77.4158 115.205 77.4158 116.119C77.4158 117.033 76.6752 117.773 75.7616 117.773H64.5135C63.6 117.773 62.8594 117.033 62.8594 116.119Z" fill="url(#paint12_linear_14017_92606)"/>
<path d="M62.8594 123.4C62.8594 122.487 63.6 121.746 64.5135 121.746H75.7616C76.6752 121.746 77.4158 122.487 77.4158 123.4C77.4158 124.314 76.6752 125.054 75.7616 125.054H64.5135C63.6 125.054 62.8594 124.314 62.8594 123.4Z" fill="url(#paint13_linear_14017_92606)"/>
<path d="M80.7227 108.842C80.7227 107.928 81.4632 107.188 82.3768 107.188H93.6249C94.5385 107.188 95.279 107.928 95.279 108.842C95.279 109.755 94.5385 110.496 93.6249 110.496H82.3768C81.4632 110.496 80.7227 109.755 80.7227 108.842Z" fill="url(#paint14_linear_14017_92606)"/>
<path d="M80.7227 116.119C80.7227 115.205 81.4632 114.465 82.3768 114.465H93.6249C94.5385 114.465 95.279 115.205 95.279 116.119C95.279 117.033 94.5385 117.773 93.6249 117.773H82.3768C81.4632 117.773 80.7227 117.033 80.7227 116.119Z" fill="url(#paint15_linear_14017_92606)"/>
<path d="M80.7227 123.4C80.7227 122.487 81.4632 121.746 82.3768 121.746H93.6249C94.5385 121.746 95.279 122.487 95.279 123.4C95.279 124.314 94.5385 125.054 93.6249 125.054H82.3768C81.4632 125.054 80.7227 124.314 80.7227 123.4Z" fill="url(#paint16_linear_14017_92606)"/>
<path d="M98.5859 108.842C98.5859 107.928 99.3265 107.188 100.24 107.188H111.488C112.402 107.188 113.142 107.928 113.142 108.842C113.142 109.755 112.402 110.496 111.488 110.496H100.24C99.3265 110.496 98.5859 109.755 98.5859 108.842Z" fill="url(#paint17_linear_14017_92606)"/>
<path d="M98.5859 116.119C98.5859 115.205 99.3265 114.465 100.24 114.465H111.488C112.402 114.465 113.142 115.205 113.142 116.119C113.142 117.033 112.402 117.773 111.488 117.773H100.24C99.3265 117.773 98.5859 117.033 98.5859 116.119Z" fill="url(#paint18_linear_14017_92606)"/>
<path d="M98.5859 123.4C98.5859 122.487 99.3265 121.746 100.24 121.746H111.488C112.402 121.746 113.142 122.487 113.142 123.4C113.142 124.314 112.402 125.054 111.488 125.054H100.24C99.3265 125.054 98.5859 124.314 98.5859 123.4Z" fill="url(#paint19_linear_14017_92606)"/>
<path d="M116.453 108.842C116.453 107.928 117.194 107.188 118.107 107.188H129.355C130.269 107.188 131.01 107.928 131.01 108.842C131.01 109.755 130.269 110.496 129.355 110.496H118.107C117.194 110.496 116.453 109.755 116.453 108.842Z" fill="url(#paint20_linear_14017_92606)"/>
<path d="M116.453 116.119C116.453 115.205 117.194 114.465 118.107 114.465H129.355C130.269 114.465 131.01 115.205 131.01 116.119C131.01 117.033 130.269 117.773 129.355 117.773H118.107C117.194 117.773 116.453 117.033 116.453 116.119Z" fill="url(#paint21_linear_14017_92606)"/>
<path d="M116.453 123.4C116.453 122.487 117.194 121.746 118.107 121.746H129.355C130.269 121.746 131.01 122.487 131.01 123.4C131.01 124.314 130.269 125.054 129.355 125.054H118.107C117.194 125.054 116.453 124.314 116.453 123.4Z" fill="url(#paint22_linear_14017_92606)"/>
<path d="M134.316 108.842C134.316 107.928 135.057 107.188 135.971 107.188H147.219C148.132 107.188 148.873 107.928 148.873 108.842C148.873 109.755 148.132 110.496 147.219 110.496H135.971C135.057 110.496 134.316 109.755 134.316 108.842Z" fill="url(#paint23_linear_14017_92606)"/>
<path d="M134.316 116.119C134.316 115.205 135.057 114.465 135.971 114.465H147.219C148.132 114.465 148.873 115.205 148.873 116.119C148.873 117.033 148.132 117.773 147.219 117.773H135.971C135.057 117.773 134.316 117.033 134.316 116.119Z" fill="url(#paint24_linear_14017_92606)"/>
<path d="M134.316 123.4C134.316 122.487 135.057 121.746 135.971 121.746H147.219C148.132 121.746 148.873 122.487 148.873 123.4C148.873 124.314 148.132 125.054 147.219 125.054H135.971C135.057 125.054 134.316 124.314 134.316 123.4Z" fill="url(#paint25_linear_14017_92606)"/>
<path d="M6.5791 154.989L3.30859 150.859H171.7L168.091 155.033C167.84 155.324 167.475 155.491 167.09 155.491H7.6165C7.21221 155.491 6.8301 155.306 6.5791 154.989Z" fill="url(#paint26_linear_14017_92606)"/>
<defs>
<linearGradient id="paint0_linear_14017_92606" x1="87.6562" y1="100.57" x2="87.6562" y2="160.45" gradientUnits="userSpaceOnUse">
<stop stop-color="#9772FA"/>
<stop offset="1" stop-color="#6C3EEB" stop-opacity="0.5"/>
</linearGradient>
<linearGradient id="paint1_linear_14017_92606" x1="87.337" y1="98.5869" x2="87.337" y2="0.992923" gradientUnits="userSpaceOnUse">
<stop stop-color="#9772FA"/>
<stop offset="1" stop-color="#9772FA" stop-opacity="0.7"/>
</linearGradient>
<linearGradient id="paint2_linear_14017_92606" x1="87.3406" y1="25.8047" x2="88.6639" y2="95.6092" gradientUnits="userSpaceOnUse">
<stop stop-color="#C5DAFA"/>
<stop offset="1" stop-color="#CDBBFF"/>
</linearGradient>
<linearGradient id="paint3_linear_14017_92606" x1="51.9409" y1="25.8047" x2="51.9409" y2="93.2934" gradientUnits="userSpaceOnUse">
<stop stop-color="white"/>
<stop offset="1" stop-color="white" stop-opacity="0"/>
</linearGradient>
<linearGradient id="paint4_linear_14017_92606" x1="113.475" y1="25.8047" x2="113.475" y2="93.2934" gradientUnits="userSpaceOnUse">
<stop stop-color="white"/>
<stop offset="1" stop-color="white" stop-opacity="0"/>
</linearGradient>
<linearGradient id="paint5_linear_14017_92606" x1="34.4071" y1="107.188" x2="34.4071" y2="111.819" gradientUnits="userSpaceOnUse">
<stop stop-color="#9772FA"/>
<stop offset="1" stop-color="#9772FA" stop-opacity="0.2"/>
</linearGradient>
<linearGradient id="paint6_linear_14017_92606" x1="34.4071" y1="114.465" x2="34.4071" y2="119.096" gradientUnits="userSpaceOnUse">
<stop stop-color="#9772FA"/>
<stop offset="1" stop-color="#9772FA" stop-opacity="0.2"/>
</linearGradient>
<linearGradient id="paint7_linear_14017_92606" x1="34.4071" y1="121.746" x2="34.4071" y2="126.378" gradientUnits="userSpaceOnUse">
<stop stop-color="#9772FA"/>
<stop offset="1" stop-color="#9772FA" stop-opacity="0.2"/>
</linearGradient>
<linearGradient id="paint8_linear_14017_92606" x1="52.2704" y1="107.188" x2="52.2704" y2="111.819" gradientUnits="userSpaceOnUse">
<stop stop-color="#9772FA"/>
<stop offset="1" stop-color="#9772FA" stop-opacity="0.2"/>
</linearGradient>
<linearGradient id="paint9_linear_14017_92606" x1="52.2704" y1="114.465" x2="52.2704" y2="119.096" gradientUnits="userSpaceOnUse">
<stop stop-color="#9772FA"/>
<stop offset="1" stop-color="#9772FA" stop-opacity="0.2"/>
</linearGradient>
<linearGradient id="paint10_linear_14017_92606" x1="52.2704" y1="121.746" x2="52.2704" y2="126.378" gradientUnits="userSpaceOnUse">
<stop stop-color="#9772FA"/>
<stop offset="1" stop-color="#9772FA" stop-opacity="0.2"/>
</linearGradient>
<linearGradient id="paint11_linear_14017_92606" x1="70.1376" y1="107.188" x2="70.1376" y2="111.819" gradientUnits="userSpaceOnUse">
<stop stop-color="#9772FA"/>
<stop offset="1" stop-color="#9772FA" stop-opacity="0.2"/>
</linearGradient>
<linearGradient id="paint12_linear_14017_92606" x1="70.1376" y1="114.465" x2="70.1376" y2="119.096" gradientUnits="userSpaceOnUse">
<stop stop-color="#9772FA"/>
<stop offset="1" stop-color="#9772FA" stop-opacity="0.2"/>
</linearGradient>
<linearGradient id="paint13_linear_14017_92606" x1="70.1376" y1="121.746" x2="70.1376" y2="126.378" gradientUnits="userSpaceOnUse">
<stop stop-color="#9772FA"/>
<stop offset="1" stop-color="#9772FA" stop-opacity="0.2"/>
</linearGradient>
<linearGradient id="paint14_linear_14017_92606" x1="88.0009" y1="107.188" x2="88.0009" y2="111.819" gradientUnits="userSpaceOnUse">
<stop stop-color="#9772FA"/>
<stop offset="1" stop-color="#9772FA" stop-opacity="0.2"/>
</linearGradient>
<linearGradient id="paint15_linear_14017_92606" x1="88.0009" y1="114.465" x2="88.0009" y2="119.096" gradientUnits="userSpaceOnUse">
<stop stop-color="#9772FA"/>
<stop offset="1" stop-color="#9772FA" stop-opacity="0.2"/>
</linearGradient>
<linearGradient id="paint16_linear_14017_92606" x1="88.0009" y1="121.746" x2="88.0009" y2="126.378" gradientUnits="userSpaceOnUse">
<stop stop-color="#9772FA"/>
<stop offset="1" stop-color="#9772FA" stop-opacity="0.2"/>
</linearGradient>
<linearGradient id="paint17_linear_14017_92606" x1="105.864" y1="107.188" x2="105.864" y2="111.819" gradientUnits="userSpaceOnUse">
<stop stop-color="#9772FA"/>
<stop offset="1" stop-color="#9772FA" stop-opacity="0.2"/>
</linearGradient>
<linearGradient id="paint18_linear_14017_92606" x1="105.864" y1="114.465" x2="105.864" y2="119.096" gradientUnits="userSpaceOnUse">
<stop stop-color="#9772FA"/>
<stop offset="1" stop-color="#9772FA" stop-opacity="0.2"/>
</linearGradient>
<linearGradient id="paint19_linear_14017_92606" x1="105.864" y1="121.746" x2="105.864" y2="126.378" gradientUnits="userSpaceOnUse">
<stop stop-color="#9772FA"/>
<stop offset="1" stop-color="#9772FA" stop-opacity="0.2"/>
</linearGradient>
<linearGradient id="paint20_linear_14017_92606" x1="123.731" y1="107.188" x2="123.731" y2="111.819" gradientUnits="userSpaceOnUse">
<stop stop-color="#9772FA"/>
<stop offset="1" stop-color="#9772FA" stop-opacity="0.2"/>
</linearGradient>
<linearGradient id="paint21_linear_14017_92606" x1="123.731" y1="114.465" x2="123.731" y2="119.096" gradientUnits="userSpaceOnUse">
<stop stop-color="#9772FA"/>
<stop offset="1" stop-color="#9772FA" stop-opacity="0.2"/>
</linearGradient>
<linearGradient id="paint22_linear_14017_92606" x1="123.731" y1="121.746" x2="123.731" y2="126.378" gradientUnits="userSpaceOnUse">
<stop stop-color="#9772FA"/>
<stop offset="1" stop-color="#9772FA" stop-opacity="0.2"/>
</linearGradient>
<linearGradient id="paint23_linear_14017_92606" x1="141.595" y1="107.188" x2="141.595" y2="111.819" gradientUnits="userSpaceOnUse">
<stop stop-color="#9772FA"/>
<stop offset="1" stop-color="#9772FA" stop-opacity="0.2"/>
</linearGradient>
<linearGradient id="paint24_linear_14017_92606" x1="141.595" y1="114.465" x2="141.595" y2="119.096" gradientUnits="userSpaceOnUse">
<stop stop-color="#9772FA"/>
<stop offset="1" stop-color="#9772FA" stop-opacity="0.2"/>
</linearGradient>
<linearGradient id="paint25_linear_14017_92606" x1="141.595" y1="121.746" x2="141.595" y2="126.378" gradientUnits="userSpaceOnUse">
<stop stop-color="#9772FA"/>
<stop offset="1" stop-color="#9772FA" stop-opacity="0.2"/>
</linearGradient>
<linearGradient id="paint26_linear_14017_92606" x1="87.504" y1="150.859" x2="87.504" y2="180.634" gradientUnits="userSpaceOnUse">
<stop stop-color="#9772FA"/>
<stop offset="1" stop-color="#6535E7" stop-opacity="0.5"/>
</linearGradient>
</defs>
</svg>
