<svg width="176" height="176" viewBox="0 0 176 176" fill="none" xmlns="http://www.w3.org/2000/svg">
<g clip-path="url(#clip0_14017_92586)">
<path d="M34.6598 33.4786L48.8461 16.4226C50.2958 14.6798 52.4542 13.6837 54.7209 13.7115L130.218 14.5793C134.335 14.6298 137.647 17.9821 137.647 22.1001V158.579C137.647 162.733 134.279 166.101 130.125 166.101H24.5917C20.4377 166.101 17.0703 162.733 17.0703 158.579V57.9411C17.0703 56.2229 17.6586 54.5564 18.7373 53.219L34.6598 33.4786Z" fill="url(#paint0_linear_14017_92586)"/>
<path d="M34.6598 33.4786L48.8461 16.4226C50.2958 14.6798 52.4542 13.6837 54.7209 13.7115L125.47 14.5793C129.588 14.6298 132.899 17.9821 132.899 22.1001V158.579C132.899 162.733 129.532 166.101 125.378 166.101H24.5917C20.4377 166.101 17.0703 162.733 17.0703 158.579V57.9411C17.0703 56.2229 17.6586 54.5564 18.7373 53.219L34.6598 33.4786Z" fill="url(#paint1_linear_14017_92586)"/>
<path d="M60.7565 57.1077C60.8781 57.6883 60.4718 58.247 59.8819 58.3103L18.4795 58.3103C17.608 58.4038 17.4464 55.1285 17.9722 54.4272L49.6793 15.5987C50.1967 14.9084 51.9816 15.1883 52.1584 16.0327L60.7565 57.1077Z" fill="url(#paint2_linear_14017_92586)"/>
<path fill-rule="evenodd" clip-rule="evenodd" d="M65.207 44.2571C65.207 42.8725 66.3295 41.75 67.7142 41.75H123.372C124.757 41.75 125.879 42.8725 125.879 44.2571C125.879 45.6418 124.757 46.7642 123.372 46.7642H67.7142C66.3295 46.7642 65.207 45.6418 65.207 44.2571Z" fill="white"/>
<path fill-rule="evenodd" clip-rule="evenodd" d="M59.1914 62.3079C59.1914 60.9233 60.3139 59.8008 61.6985 59.8008H123.374C124.758 59.8008 125.881 60.9233 125.881 62.3079C125.881 63.6925 124.758 64.815 123.374 64.815H61.6985C60.3139 64.815 59.1914 63.6925 59.1914 62.3079Z" fill="white"/>
<path fill-rule="evenodd" clip-rule="evenodd" d="M44.6484 97.9095C44.6484 96.5248 45.7709 95.4023 47.1556 95.4023H123.874C125.258 95.4023 126.381 96.5248 126.381 97.9095C126.381 99.2941 125.258 100.417 123.874 100.417H47.1556C45.7709 100.417 44.6484 99.2941 44.6484 97.9095Z" fill="white"/>
<path fill-rule="evenodd" clip-rule="evenodd" d="M44.6484 117.964C44.6484 116.58 45.7709 115.457 47.1556 115.457H123.874C125.258 115.457 126.381 116.58 126.381 117.964C126.381 119.349 125.258 120.471 123.874 120.471H47.1556C45.7709 120.471 44.6484 119.349 44.6484 117.964Z" fill="white"/>
<path fill-rule="evenodd" clip-rule="evenodd" d="M44.6484 138.023C44.6484 136.638 45.7709 135.516 47.1556 135.516H123.874C125.258 135.516 126.381 136.638 126.381 138.023C126.381 139.407 125.258 140.53 123.874 140.53H47.1556C45.7709 140.53 44.6484 139.407 44.6484 138.023Z" fill="white"/>
<path fill-rule="evenodd" clip-rule="evenodd" d="M26.0977 79.3548C26.0977 77.9701 27.2201 76.8477 28.6048 76.8477H123.374C124.759 76.8477 125.881 77.9701 125.881 79.3548C125.881 80.7394 124.759 81.8619 123.374 81.8619H28.6048C27.2201 81.8619 26.0977 80.7394 26.0977 79.3548Z" fill="white"/>
<path d="M40.1379 97.9088C40.1379 100.678 37.8929 102.923 35.1236 102.923C32.3543 102.923 30.1094 100.678 30.1094 97.9088C30.1094 95.1395 32.3543 92.8945 35.1236 92.8945C37.8929 92.8945 40.1379 95.1395 40.1379 97.9088Z" fill="white"/>
<path d="M40.1379 117.967C40.1379 120.737 37.8929 122.982 35.1236 122.982C32.3543 122.982 30.1094 120.737 30.1094 117.967C30.1094 115.198 32.3543 112.953 35.1236 112.953C37.8929 112.953 40.1379 115.198 40.1379 117.967Z" fill="white"/>
<path d="M40.1379 138.022C40.1379 140.791 37.8929 143.036 35.1236 143.036C32.3543 143.036 30.1094 140.791 30.1094 138.022C30.1094 135.253 32.3543 133.008 35.1236 133.008C37.8929 133.008 40.1379 135.253 40.1379 138.022Z" fill="white"/>
<path d="M110.825 143.402L140.511 54.32C141.457 51.4821 144.548 49.9521 147.21 51.0042L158.424 55.4368C158.775 55.5757 159.107 55.7562 159.414 55.9749L161.158 57.2184C162.873 58.4415 163.569 60.685 162.883 62.7836L133.262 153.431C132.949 154.39 132.368 155.246 131.593 155.894L122.151 163.785C119.292 166.174 115.104 164.88 114.269 161.351L110.689 146.219C110.472 145.299 110.519 144.322 110.825 143.402Z" fill="#FFD47D"/>
<path d="M123.517 146.611L152.148 52.7891L160.687 56.5341L163.199 58.7022V61.2646L132.893 154.692L119.834 166.124H115.313L112.969 155.086L123.517 146.611Z" fill="#F3B962"/>
<path d="M132.896 154.892L110.125 144.445L115.315 166.127H119.669L132.896 154.892Z" fill="#E89C23"/>
</g>
<defs>
<linearGradient id="paint0_linear_14017_92586" x1="104.106" y1="26.9574" x2="77.3586" y2="166.101" gradientUnits="userSpaceOnUse">
<stop stop-color="#AF91FF"/>
<stop offset="1" stop-color="#8D70D9"/>
</linearGradient>
<linearGradient id="paint1_linear_14017_92586" x1="74.9848" y1="13.7109" x2="74.9848" y2="166.101" gradientUnits="userSpaceOnUse">
<stop stop-color="#C3ACFF"/>
<stop offset="1" stop-color="#9A75FF"/>
</linearGradient>
<linearGradient id="paint2_linear_14017_92586" x1="53.9182" y1="51.7141" x2="32.4123" y2="34.26" gradientUnits="userSpaceOnUse">
<stop stop-color="#D3C4FF"/>
<stop offset="0.912222" stop-color="#B79DFF"/>
</linearGradient>
<clipPath id="clip0_14017_92586">
<rect width="176" height="176" fill="white"/>
</clipPath>
</defs>
</svg>
