<svg width="151" height="146" viewBox="0 0 151 146" fill="none" xmlns="http://www.w3.org/2000/svg">
<path d="M0 30.9358C0 26.1095 3.62304 22.0505 8.42273 21.4995L124.852 8.13343C130.064 7.53519 134.766 11.2563 135.301 16.4692C136.638 29.5233 138.821 53.4135 138.821 70.3005C138.821 87.9278 136.442 112.235 135.13 124.309C134.655 128.674 131.206 132.09 126.84 132.591L10.5938 145.936C4.94961 146.584 0 142.175 0 136.5V30.9358Z" fill="#845CEE"/>
<path d="M128.36 132.191L130.961 131.219L141.364 125.896L143.098 119.606L132.983 124.203L128.36 132.191Z" fill="#845CEE"/>
<path d="M8.55859 23.8108C8.55859 18.9845 12.1816 14.9255 16.9813 14.3745L133.411 1.00843C138.622 0.410186 143.325 4.13132 143.859 9.34416C145.197 22.3983 147.379 46.2885 147.379 63.1755C147.379 80.8028 145.001 105.11 143.688 117.184C143.214 121.549 139.765 124.965 135.399 125.466L19.1524 138.811C13.5082 139.459 8.55859 135.05 8.55859 129.375V23.8108Z" fill="#A07EFB"/>
<path d="M12.7692 16.3651C13.4607 15.39 14.5579 14.8114 15.746 14.6726L134.431 0.805491C135.35 0.698076 136.281 0.861086 137.109 1.27452L139.988 2.71234C140.994 3.21474 141.789 4.05721 142.232 5.09004L143.379 7.76386C143.582 8.23618 143.706 8.73821 143.748 9.25037L144.398 17.2631L145.667 29.1307C145.949 31.7642 144.02 34.1189 141.38 34.364L13.6264 46.226C10.8391 46.4848 8.43239 44.2937 8.43232 41.4972L8.43208 30.9229C8.43208 30.8399 8.42992 30.7581 8.42711 30.6752C8.40171 29.926 8.33362 25.8943 9.62125 22.2498C10.4669 19.8563 11.8132 17.7133 12.7692 16.3651Z" fill="#FF5F77"/>
<path d="M8.79395 78.5268L141.834 67.0029L147.377 63.3293L147.377 57.6303L146.897 49.002L145.299 32.3282L8.32261 42.9076L8.32112 62.8543C8.32112 62.8543 8.79481 67.6036 8.79481 73.3027C8.79481 79.0017 8.79395 78.5268 8.79395 78.5268Z" fill="#3D7DCE"/>
<path d="M8.556 107.496L145.474 97.5225L145.95 93.486L146.426 87.787L146.899 79.2897L147.376 63.3285L8.5572 78.5259L8.55673 93.0109C8.55673 93.0109 8.55733 95.3855 8.55734 99.6598C8.55735 103.934 8.556 107.496 8.556 107.496Z" fill="#FFA81D"/>
<path d="M36.1296 29.8465C36.1296 33.7808 32.9368 36.9703 28.9984 36.9703C25.0599 36.9703 21.8672 33.7808 21.8672 29.8465C21.8672 25.9121 25.0599 22.7227 28.9984 22.7227C32.9368 22.7227 36.1296 25.9121 36.1296 29.8465Z" fill="url(#paint0_linear_14017_92494)"/>
<path fill-rule="evenodd" clip-rule="evenodd" d="M28.9984 35.5455C32.1491 35.5455 34.7033 32.994 34.7033 29.8465C34.7033 26.699 32.1491 24.1474 28.9984 24.1474C25.8476 24.1474 23.2934 26.699 23.2934 29.8465C23.2934 32.994 25.8476 35.5455 28.9984 35.5455ZM28.9984 36.9703C32.9368 36.9703 36.1296 33.7808 36.1296 29.8465C36.1296 25.9121 32.9368 22.7227 28.9984 22.7227C25.0599 22.7227 21.8672 25.9121 21.8672 29.8465C21.8672 33.7808 25.0599 36.9703 28.9984 36.9703Z" fill="white"/>
<path d="M33.1548 27.5336C33.7298 29.4044 32.328 31.4993 30.0238 32.2129C27.7196 32.9265 25.3856 31.9884 24.8106 30.1177C24.2356 28.247 25.6374 26.152 27.9416 25.4384C30.2458 24.7249 32.5799 25.6629 33.1548 27.5336Z" fill="url(#paint1_linear_14017_92494)"/>
<path opacity="0.3" d="M66.3658 31.3518C73.1685 39.3245 68.1126 54.8379 55.0731 66.0018C42.0336 77.1656 25.9483 79.7525 19.1455 71.7797C12.3428 63.807 17.3987 48.2936 30.4383 37.1298C43.4778 25.9659 59.5631 23.379 66.3658 31.3518Z" fill="url(#paint2_linear_14017_92494)"/>
<path d="M36.1296 58.8191C36.1296 62.7535 32.9368 65.9429 28.9984 65.9429C25.0599 65.9429 21.8672 62.7535 21.8672 58.8191C21.8672 54.8848 25.0599 51.6953 28.9984 51.6953C32.9368 51.6953 36.1296 54.8848 36.1296 58.8191Z" fill="url(#paint3_linear_14017_92494)"/>
<path fill-rule="evenodd" clip-rule="evenodd" d="M28.9984 64.5182C32.1491 64.5182 34.7033 61.9666 34.7033 58.8191C34.7033 55.6716 32.1491 53.1201 28.9984 53.1201C25.8476 53.1201 23.2934 55.6716 23.2934 58.8191C23.2934 61.9666 25.8476 64.5182 28.9984 64.5182ZM28.9984 65.9429C32.9368 65.9429 36.1296 62.7535 36.1296 58.8191C36.1296 54.8848 32.9368 51.6953 28.9984 51.6953C25.0599 51.6953 21.8672 54.8848 21.8672 58.8191C21.8672 62.7535 25.0599 65.9429 28.9984 65.9429Z" fill="white"/>
<path d="M33.1548 56.5063C33.7298 58.377 32.328 60.472 30.0238 61.1856C27.7196 61.8991 25.3856 60.9611 24.8106 59.0904C24.2356 57.2196 25.6374 55.1247 27.9416 54.4111C30.2458 53.6975 32.5799 54.6356 33.1548 56.5063Z" fill="url(#paint4_linear_14017_92494)"/>
<path d="M36.1296 92.0613C36.1296 95.9957 32.9368 99.1851 28.9984 99.1851C25.0599 99.1851 21.8672 95.9957 21.8672 92.0613C21.8672 88.1269 25.0599 84.9375 28.9984 84.9375C32.9368 84.9375 36.1296 88.1269 36.1296 92.0613Z" fill="url(#paint5_linear_14017_92494)"/>
<path fill-rule="evenodd" clip-rule="evenodd" d="M28.9984 97.7604C32.1491 97.7604 34.7033 95.2088 34.7033 92.0613C34.7033 88.9138 32.1491 86.3623 28.9984 86.3623C25.8476 86.3623 23.2934 88.9138 23.2934 92.0613C23.2934 95.2088 25.8476 97.7604 28.9984 97.7604ZM28.9984 99.1851C32.9368 99.1851 36.1296 95.9957 36.1296 92.0613C36.1296 88.1269 32.9368 84.9375 28.9984 84.9375C25.0599 84.9375 21.8672 88.1269 21.8672 92.0613C21.8672 95.9957 25.0599 99.1851 28.9984 99.1851Z" fill="white"/>
<path d="M33.1548 89.7485C33.7298 91.6192 32.328 93.7142 30.0238 94.4278C27.7196 95.1413 25.3856 94.2033 24.8106 92.3326C24.2356 90.4618 25.6374 88.3668 27.9416 87.6533C30.2458 86.9397 32.5799 87.8778 33.1548 89.7485Z" fill="url(#paint6_linear_14017_92494)"/>
<path d="M36.1296 122.456C36.1296 126.39 32.9368 129.58 28.9984 129.58C25.0599 129.58 21.8672 126.39 21.8672 122.456C21.8672 118.521 25.0599 115.332 28.9984 115.332C32.9368 115.332 36.1296 118.521 36.1296 122.456Z" fill="url(#paint7_linear_14017_92494)"/>
<path fill-rule="evenodd" clip-rule="evenodd" d="M28.9984 128.155C32.1491 128.155 34.7033 125.603 34.7033 122.456C34.7033 119.308 32.1491 116.757 28.9984 116.757C25.8476 116.757 23.2934 119.308 23.2934 122.456C23.2934 125.603 25.8476 128.155 28.9984 128.155ZM28.9984 129.58C32.9368 129.58 36.1296 126.39 36.1296 122.456C36.1296 118.521 32.9368 115.332 28.9984 115.332C25.0599 115.332 21.8672 118.521 21.8672 122.456C21.8672 126.39 25.0599 129.58 28.9984 129.58Z" fill="white"/>
<path d="M33.1548 120.143C33.7298 122.014 32.328 124.109 30.0238 124.822C27.7196 125.536 25.3856 124.598 24.8106 122.727C24.2356 120.856 25.6374 118.761 27.9416 118.048C30.2458 117.334 32.5799 118.272 33.1548 120.143Z" fill="url(#paint8_linear_14017_92494)"/>
<path d="M59.903 26.9988C59.903 30.9332 56.7103 34.1226 52.7718 34.1226C48.8334 34.1226 45.6406 30.9332 45.6406 26.9988C45.6406 23.0644 48.8334 19.875 52.7718 19.875C56.7103 19.875 59.903 23.0644 59.903 26.9988Z" fill="url(#paint9_linear_14017_92494)"/>
<path fill-rule="evenodd" clip-rule="evenodd" d="M52.7718 32.6979C55.9226 32.6979 58.4768 30.1463 58.4768 26.9988C58.4768 23.8513 55.9226 21.2998 52.7718 21.2998C49.6211 21.2998 47.0669 23.8513 47.0669 26.9988C47.0669 30.1463 49.6211 32.6979 52.7718 32.6979ZM52.7718 34.1226C56.7103 34.1226 59.903 30.9332 59.903 26.9988C59.903 23.0644 56.7103 19.875 52.7718 19.875C48.8334 19.875 45.6406 23.0644 45.6406 26.9988C45.6406 30.9332 48.8334 34.1226 52.7718 34.1226Z" fill="white"/>
<path d="M56.9283 24.686C57.5033 26.5567 56.1015 28.6517 53.7973 29.3653C51.4931 30.0788 49.1591 29.1408 48.5841 27.2701C48.0091 25.3993 49.4109 23.3043 51.7151 22.5908C54.0193 21.8772 56.3533 22.8153 56.9283 24.686Z" fill="url(#paint10_linear_14017_92494)"/>
<path d="M59.903 55.9676C59.903 59.9019 56.7103 63.0914 52.7718 63.0914C48.8334 63.0914 45.6406 59.9019 45.6406 55.9676C45.6406 52.0332 48.8334 48.8438 52.7718 48.8438C56.7103 48.8438 59.903 52.0332 59.903 55.9676Z" fill="url(#paint11_linear_14017_92494)"/>
<path fill-rule="evenodd" clip-rule="evenodd" d="M52.7718 61.6666C55.9226 61.6666 58.4768 59.1151 58.4768 55.9676C58.4768 52.8201 55.9226 50.2685 52.7718 50.2685C49.6211 50.2685 47.0669 52.8201 47.0669 55.9676C47.0669 59.1151 49.6211 61.6666 52.7718 61.6666ZM52.7718 63.0914C56.7103 63.0914 59.903 59.9019 59.903 55.9676C59.903 52.0332 56.7103 48.8438 52.7718 48.8438C48.8334 48.8438 45.6406 52.0332 45.6406 55.9676C45.6406 59.9019 48.8334 63.0914 52.7718 63.0914Z" fill="white"/>
<path d="M56.9283 53.6547C57.5033 55.5255 56.1015 57.6204 53.7973 58.334C51.4931 59.0476 49.1591 58.1095 48.5841 56.2388C48.0091 54.3681 49.4109 52.2731 51.7151 51.5595C54.0193 50.846 56.3533 51.784 56.9283 53.6547Z" fill="url(#paint12_linear_14017_92494)"/>
<path d="M59.903 89.2137C59.903 93.148 56.7103 96.3375 52.7718 96.3375C48.8334 96.3375 45.6406 93.148 45.6406 89.2137C45.6406 85.2793 48.8334 82.0898 52.7718 82.0898C56.7103 82.0898 59.903 85.2793 59.903 89.2137Z" fill="url(#paint13_linear_14017_92494)"/>
<path fill-rule="evenodd" clip-rule="evenodd" d="M52.7718 94.9127C55.9226 94.9127 58.4768 92.3612 58.4768 89.2137C58.4768 86.0662 55.9226 83.5146 52.7718 83.5146C49.6211 83.5146 47.0669 86.0662 47.0669 89.2137C47.0669 92.3612 49.6211 94.9127 52.7718 94.9127ZM52.7718 96.3375C56.7103 96.3375 59.903 93.148 59.903 89.2137C59.903 85.2793 56.7103 82.0898 52.7718 82.0898C48.8334 82.0898 45.6406 85.2793 45.6406 89.2137C45.6406 93.148 48.8334 96.3375 52.7718 96.3375Z" fill="white"/>
<path d="M56.9283 86.9008C57.5033 88.7715 56.1015 90.8665 53.7973 91.5801C51.4931 92.2937 49.1591 91.3556 48.5841 89.4849C48.0091 87.6142 49.4109 85.5192 51.7151 84.8056C54.0193 84.092 56.3533 85.0301 56.9283 86.9008Z" fill="url(#paint14_linear_14017_92494)"/>
<path d="M83.6725 24.1472C83.6725 28.0816 80.4798 31.2711 76.5413 31.2711C72.6029 31.2711 69.4102 28.0816 69.4102 24.1472C69.4102 20.2129 72.6029 17.0234 76.5413 17.0234C80.4798 17.0234 83.6725 20.2129 83.6725 24.1472Z" fill="url(#paint15_linear_14017_92494)"/>
<path fill-rule="evenodd" clip-rule="evenodd" d="M76.5413 29.8463C79.6921 29.8463 82.2463 27.2947 82.2463 24.1472C82.2463 20.9998 79.6921 18.4482 76.5413 18.4482C73.3906 18.4482 70.8364 20.9998 70.8364 24.1472C70.8364 27.2947 73.3906 29.8463 76.5413 29.8463ZM76.5413 31.2711C80.4798 31.2711 83.6725 28.0816 83.6725 24.1472C83.6725 20.2129 80.4798 17.0234 76.5413 17.0234C72.6029 17.0234 69.4102 20.2129 69.4102 24.1472C69.4102 28.0816 72.6029 31.2711 76.5413 31.2711Z" fill="white"/>
<path d="M80.6978 21.8344C81.2728 23.7051 79.871 25.8001 77.5668 26.5137C75.2626 27.2273 72.9286 26.2892 72.3536 24.4185C71.7786 22.5478 73.1804 20.4528 75.4846 19.7392C77.7888 19.0256 80.1228 19.9637 80.6978 21.8344Z" fill="url(#paint16_linear_14017_92494)"/>
<path d="M83.6725 53.1199C83.6725 57.0543 80.4798 60.2437 76.5413 60.2437C72.6029 60.2437 69.4102 57.0543 69.4102 53.1199C69.4102 49.1855 72.6029 45.9961 76.5413 45.9961C80.4798 45.9961 83.6725 49.1855 83.6725 53.1199Z" fill="url(#paint17_linear_14017_92494)"/>
<path fill-rule="evenodd" clip-rule="evenodd" d="M76.5413 58.819C79.6921 58.819 82.2463 56.2674 82.2463 53.1199C82.2463 49.9724 79.6921 47.4209 76.5413 47.4209C73.3906 47.4209 70.8364 49.9724 70.8364 53.1199C70.8364 56.2674 73.3906 58.819 76.5413 58.819ZM76.5413 60.2437C80.4798 60.2437 83.6725 57.0543 83.6725 53.1199C83.6725 49.1855 80.4798 45.9961 76.5413 45.9961C72.6029 45.9961 69.4102 49.1855 69.4102 53.1199C69.4102 57.0543 72.6029 60.2437 76.5413 60.2437Z" fill="white"/>
<path d="M80.6978 50.8071C81.2728 52.6778 79.871 54.7728 77.5668 55.4864C75.2626 56.1999 72.9286 55.2619 72.3536 53.3912C71.7786 51.5204 73.1804 49.4254 75.4846 48.7119C77.7888 47.9983 80.1228 48.9364 80.6978 50.8071Z" fill="url(#paint18_linear_14017_92494)"/>
<path d="M83.6725 86.3621C83.6725 90.2965 80.4798 93.4859 76.5413 93.4859C72.6029 93.4859 69.4102 90.2965 69.4102 86.3621C69.4102 82.4277 72.6029 79.2383 76.5413 79.2383C80.4798 79.2383 83.6725 82.4277 83.6725 86.3621Z" fill="url(#paint19_linear_14017_92494)"/>
<path fill-rule="evenodd" clip-rule="evenodd" d="M76.5413 92.0611C79.6921 92.0611 82.2463 89.5096 82.2463 86.3621C82.2463 83.2146 79.6921 80.663 76.5413 80.663C73.3906 80.663 70.8364 83.2146 70.8364 86.3621C70.8364 89.5096 73.3906 92.0611 76.5413 92.0611ZM76.5413 93.4859C80.4798 93.4859 83.6725 90.2965 83.6725 86.3621C83.6725 82.4277 80.4798 79.2383 76.5413 79.2383C72.6029 79.2383 69.4102 82.4277 69.4102 86.3621C69.4102 90.2965 72.6029 93.4859 76.5413 93.4859Z" fill="white"/>
<path d="M80.6978 84.0493C81.2728 85.92 79.871 88.015 77.5668 88.7285C75.2626 89.4421 72.9286 88.5041 72.3536 86.6333C71.7786 84.7626 73.1804 82.6676 75.4846 81.9541C77.7888 81.2405 80.1228 82.1785 80.6978 84.0493Z" fill="url(#paint20_linear_14017_92494)"/>
<path d="M83.6725 116.757C83.6725 120.691 80.4798 123.88 76.5413 123.88C72.6029 123.88 69.4102 120.691 69.4102 116.757C69.4102 112.822 72.6029 109.633 76.5413 109.633C80.4798 109.633 83.6725 112.822 83.6725 116.757Z" fill="url(#paint21_linear_14017_92494)"/>
<path fill-rule="evenodd" clip-rule="evenodd" d="M76.5413 122.456C79.6921 122.456 82.2463 119.904 82.2463 116.757C82.2463 113.609 79.6921 111.058 76.5413 111.058C73.3906 111.058 70.8364 113.609 70.8364 116.757C70.8364 119.904 73.3906 122.456 76.5413 122.456ZM76.5413 123.88C80.4798 123.88 83.6725 120.691 83.6725 116.757C83.6725 112.822 80.4798 109.633 76.5413 109.633C72.6029 109.633 69.4102 112.822 69.4102 116.757C69.4102 120.691 72.6029 123.88 76.5413 123.88Z" fill="white"/>
<path d="M80.6978 114.444C81.2728 116.315 79.871 118.41 77.5668 119.123C75.2626 119.837 72.9286 118.899 72.3536 117.028C71.7786 115.157 73.1804 113.062 75.4846 112.349C77.7888 111.635 80.1228 112.573 80.6978 114.444Z" fill="url(#paint22_linear_14017_92494)"/>
<path d="M107.442 21.2996C107.442 25.234 104.249 28.4234 100.311 28.4234C96.3724 28.4234 93.1797 25.234 93.1797 21.2996C93.1797 17.3652 96.3724 14.1758 100.311 14.1758C104.249 14.1758 107.442 17.3652 107.442 21.2996Z" fill="url(#paint23_linear_14017_92494)"/>
<path fill-rule="evenodd" clip-rule="evenodd" d="M100.311 26.9986C103.462 26.9986 106.016 24.4471 106.016 21.2996C106.016 18.1521 103.462 15.6005 100.311 15.6005C97.1601 15.6005 94.6059 18.1521 94.6059 21.2996C94.6059 24.4471 97.1601 26.9986 100.311 26.9986ZM100.311 28.4234C104.249 28.4234 107.442 25.234 107.442 21.2996C107.442 17.3652 104.249 14.1758 100.311 14.1758C96.3724 14.1758 93.1797 17.3652 93.1797 21.2996C93.1797 25.234 96.3724 28.4234 100.311 28.4234Z" fill="white"/>
<path d="M104.467 18.9868C105.042 20.8575 103.641 22.9525 101.336 23.666C99.0321 24.3796 96.6981 23.4416 96.1231 21.5708C95.5481 19.7001 96.9499 17.6051 99.2541 16.8916C101.558 16.178 103.892 17.116 104.467 18.9868Z" fill="url(#paint24_linear_14017_92494)"/>
<path d="M107.442 50.2683C107.442 54.2027 104.249 57.3922 100.311 57.3922C96.3724 57.3922 93.1797 54.2027 93.1797 50.2683C93.1797 46.334 96.3724 43.1445 100.311 43.1445C104.249 43.1445 107.442 46.334 107.442 50.2683Z" fill="url(#paint25_linear_14017_92494)"/>
<path fill-rule="evenodd" clip-rule="evenodd" d="M100.311 55.9674C103.462 55.9674 106.016 53.4158 106.016 50.2683C106.016 47.1208 103.462 44.5693 100.311 44.5693C97.1601 44.5693 94.6059 47.1208 94.6059 50.2683C94.6059 53.4158 97.1601 55.9674 100.311 55.9674ZM100.311 57.3922C104.249 57.3922 107.442 54.2027 107.442 50.2683C107.442 46.334 104.249 43.1445 100.311 43.1445C96.3724 43.1445 93.1797 46.334 93.1797 50.2683C93.1797 54.2027 96.3724 57.3922 100.311 57.3922Z" fill="white"/>
<path d="M104.467 47.9555C105.042 49.8262 103.641 51.9212 101.336 52.6348C99.0321 53.3484 96.6981 52.4103 96.1231 50.5396C95.5481 48.6689 96.9499 46.5739 99.2541 45.8603C101.558 45.1467 103.892 46.0848 104.467 47.9555Z" fill="url(#paint26_linear_14017_92494)"/>
<path d="M107.442 83.5144C107.442 87.4488 104.249 90.6382 100.311 90.6382C96.3724 90.6382 93.1797 87.4488 93.1797 83.5144C93.1797 79.5801 96.3724 76.3906 100.311 76.3906C104.249 76.3906 107.442 79.5801 107.442 83.5144Z" fill="url(#paint27_linear_14017_92494)"/>
<path fill-rule="evenodd" clip-rule="evenodd" d="M100.311 89.2135C103.462 89.2135 106.016 86.6619 106.016 83.5144C106.016 80.3669 103.462 77.8154 100.311 77.8154C97.1601 77.8154 94.6059 80.3669 94.6059 83.5144C94.6059 86.6619 97.1601 89.2135 100.311 89.2135ZM100.311 90.6382C104.249 90.6382 107.442 87.4488 107.442 83.5144C107.442 79.5801 104.249 76.3906 100.311 76.3906C96.3724 76.3906 93.1797 79.5801 93.1797 83.5144C93.1797 87.4488 96.3724 90.6382 100.311 90.6382Z" fill="white"/>
<path d="M104.467 81.2016C105.042 83.0723 103.641 85.1673 101.336 85.8809C99.0321 86.5945 96.6981 85.6564 96.1231 83.7857C95.5481 81.915 96.9499 79.82 99.2541 79.1064C101.558 78.3928 103.892 79.3309 104.467 81.2016Z" fill="url(#paint28_linear_14017_92494)"/>
<path d="M107.442 113.909C107.442 117.843 104.249 121.033 100.311 121.033C96.3724 121.033 93.1797 117.843 93.1797 113.909C93.1797 109.975 96.3724 106.785 100.311 106.785C104.249 106.785 107.442 109.975 107.442 113.909Z" fill="url(#paint29_linear_14017_92494)"/>
<path fill-rule="evenodd" clip-rule="evenodd" d="M100.311 119.608C103.462 119.608 106.016 117.056 106.016 113.909C106.016 110.761 103.462 108.21 100.311 108.21C97.1601 108.21 94.6059 110.761 94.6059 113.909C94.6059 117.056 97.1601 119.608 100.311 119.608ZM100.311 121.033C104.249 121.033 107.442 117.843 107.442 113.909C107.442 109.975 104.249 106.785 100.311 106.785C96.3724 106.785 93.1797 109.975 93.1797 113.909C93.1797 117.843 96.3724 121.033 100.311 121.033Z" fill="white"/>
<path d="M104.467 111.596C105.042 113.467 103.641 115.562 101.336 116.275C99.0321 116.989 96.6981 116.051 96.1231 114.18C95.5481 112.309 96.9499 110.215 99.2541 109.501C101.558 108.787 103.892 109.725 104.467 111.596Z" fill="url(#paint30_linear_14017_92494)"/>
<path d="M131.216 18.448C131.216 22.3824 128.023 25.5718 124.084 25.5718C120.146 25.5718 116.953 22.3824 116.953 18.448C116.953 14.5137 120.146 11.3242 124.084 11.3242C128.023 11.3242 131.216 14.5137 131.216 18.448Z" fill="url(#paint31_linear_14017_92494)"/>
<path fill-rule="evenodd" clip-rule="evenodd" d="M124.084 24.1471C127.235 24.1471 129.789 21.5955 129.789 18.448C129.789 15.3005 127.235 12.749 124.084 12.749C120.934 12.749 118.379 15.3005 118.379 18.448C118.379 21.5955 120.934 24.1471 124.084 24.1471ZM124.084 25.5718C128.023 25.5718 131.216 22.3824 131.216 18.448C131.216 14.5137 128.023 11.3242 124.084 11.3242C120.146 11.3242 116.953 14.5137 116.953 18.448C116.953 22.3824 120.146 25.5718 124.084 25.5718Z" fill="white"/>
<path d="M128.241 16.1352C128.816 18.0059 127.414 20.1009 125.11 20.8145C122.806 21.5281 120.472 20.59 119.897 18.7193C119.322 16.8486 120.723 14.7536 123.028 14.04C125.332 13.3264 127.666 14.2645 128.241 16.1352Z" fill="url(#paint32_linear_14017_92494)"/>
<path d="M131.216 47.4207C131.216 51.3551 128.023 54.5445 124.084 54.5445C120.146 54.5445 116.953 51.3551 116.953 47.4207C116.953 43.4863 120.146 40.2969 124.084 40.2969C128.023 40.2969 131.216 43.4863 131.216 47.4207Z" fill="url(#paint33_linear_14017_92494)"/>
<path fill-rule="evenodd" clip-rule="evenodd" d="M124.084 53.1197C127.235 53.1197 129.789 50.5682 129.789 47.4207C129.789 44.2732 127.235 41.7216 124.084 41.7216C120.934 41.7216 118.379 44.2732 118.379 47.4207C118.379 50.5682 120.934 53.1197 124.084 53.1197ZM124.084 54.5445C128.023 54.5445 131.216 51.3551 131.216 47.4207C131.216 43.4863 128.023 40.2969 124.084 40.2969C120.146 40.2969 116.953 43.4863 116.953 47.4207C116.953 51.3551 120.146 54.5445 124.084 54.5445Z" fill="white"/>
<path d="M128.241 45.1079C128.816 46.9786 127.414 49.0736 125.11 49.7871C122.806 50.5007 120.472 49.5627 119.897 47.6919C119.322 45.8212 120.723 43.7262 123.028 43.0126C125.332 42.2991 127.666 43.2371 128.241 45.1079Z" fill="url(#paint34_linear_14017_92494)"/>
<path d="M131.216 80.6629C131.216 84.5972 128.023 87.7867 124.084 87.7867C120.146 87.7867 116.953 84.5972 116.953 80.6629C116.953 76.7285 120.146 73.5391 124.084 73.5391C128.023 73.5391 131.216 76.7285 131.216 80.6629Z" fill="url(#paint35_linear_14017_92494)"/>
<path fill-rule="evenodd" clip-rule="evenodd" d="M124.084 86.3619C127.235 86.3619 129.789 83.8104 129.789 80.6629C129.789 77.5154 127.235 74.9638 124.084 74.9638C120.934 74.9638 118.379 77.5154 118.379 80.6629C118.379 83.8104 120.934 86.3619 124.084 86.3619ZM124.084 87.7867C128.023 87.7867 131.216 84.5972 131.216 80.6629C131.216 76.7285 128.023 73.5391 124.084 73.5391C120.146 73.5391 116.953 76.7285 116.953 80.6629C116.953 84.5972 120.146 87.7867 124.084 87.7867Z" fill="white"/>
<path d="M128.241 78.35C128.816 80.2208 127.414 82.3158 125.11 83.0293C122.806 83.7429 120.472 82.8048 119.897 80.9341C119.322 79.0634 120.723 76.9684 123.028 76.2548C125.332 75.5413 127.666 76.4793 128.241 78.35Z" fill="url(#paint36_linear_14017_92494)"/>
<path d="M131.216 111.057C131.216 114.992 128.023 118.181 124.084 118.181C120.146 118.181 116.953 114.992 116.953 111.057C116.953 107.123 120.146 103.934 124.084 103.934C128.023 103.934 131.216 107.123 131.216 111.057Z" fill="url(#paint37_linear_14017_92494)"/>
<path fill-rule="evenodd" clip-rule="evenodd" d="M124.084 116.756C127.235 116.756 129.789 114.205 129.789 111.057C129.789 107.91 127.235 105.358 124.084 105.358C120.934 105.358 118.379 107.91 118.379 111.057C118.379 114.205 120.934 116.756 124.084 116.756ZM124.084 118.181C128.023 118.181 131.216 114.992 131.216 111.057C131.216 107.123 128.023 103.934 124.084 103.934C120.146 103.934 116.953 107.123 116.953 111.057C116.953 114.992 120.146 118.181 124.084 118.181Z" fill="white"/>
<path d="M128.241 108.745C128.816 110.615 127.414 112.71 125.11 113.424C122.806 114.137 120.472 113.199 119.897 111.329C119.322 109.458 120.723 107.363 123.028 106.649C125.332 105.936 127.666 106.874 128.241 108.745Z" fill="url(#paint38_linear_14017_92494)"/>
<path d="M12.3613 16.3125L10.222 17.4998L1.66452 22.7239L0.238281 28.8979L8.55801 24.3862L12.3613 16.3125Z" fill="#845CEE"/>
<path d="M59.903 119.608C59.903 123.543 56.7103 126.732 52.7718 126.732C48.8334 126.732 45.6406 123.543 45.6406 119.608C45.6406 115.674 48.8334 112.484 52.7718 112.484C56.7103 112.484 59.903 115.674 59.903 119.608Z" fill="url(#paint39_linear_14017_92494)"/>
<path fill-rule="evenodd" clip-rule="evenodd" d="M52.7718 125.307C55.9226 125.307 58.4768 122.756 58.4768 119.608C58.4768 116.461 55.9226 113.909 52.7718 113.909C49.6211 113.909 47.0669 116.461 47.0669 119.608C47.0669 122.756 49.6211 125.307 52.7718 125.307ZM52.7718 126.732C56.7103 126.732 59.903 123.543 59.903 119.608C59.903 115.674 56.7103 112.484 52.7718 112.484C48.8334 112.484 45.6406 115.674 45.6406 119.608C45.6406 123.543 48.8334 126.732 52.7718 126.732Z" fill="white"/>
<path d="M56.9283 117.295C57.5033 119.166 56.1015 121.261 53.7973 121.975C51.4931 122.688 49.1591 121.75 48.5841 119.879C48.0091 118.009 49.4109 115.914 51.7151 115.2C54.0193 114.487 56.3533 115.425 56.9283 117.295Z" fill="url(#paint40_linear_14017_92494)"/>
<defs>
<linearGradient id="paint0_linear_14017_92494" x1="28.9984" y1="22.7227" x2="42.2895" y2="45.2934" gradientUnits="userSpaceOnUse">
<stop stop-color="#E9E9E9"/>
<stop offset="1" stop-color="#D9D9D9" stop-opacity="0"/>
</linearGradient>
<linearGradient id="paint1_linear_14017_92494" x1="27.9416" y1="25.4384" x2="29.7394" y2="28.205" gradientUnits="userSpaceOnUse">
<stop stop-color="white"/>
<stop offset="1" stop-color="#D9D9D9" stop-opacity="0"/>
</linearGradient>
<linearGradient id="paint2_linear_14017_92494" x1="30.4383" y1="37.1298" x2="44.7093" y2="48.0407" gradientUnits="userSpaceOnUse">
<stop stop-color="white"/>
<stop offset="1" stop-color="#D9D9D9"/>
</linearGradient>
<linearGradient id="paint3_linear_14017_92494" x1="28.9984" y1="51.6953" x2="42.2895" y2="74.2661" gradientUnits="userSpaceOnUse">
<stop stop-color="#E9E9E9"/>
<stop offset="1" stop-color="#D9D9D9" stop-opacity="0"/>
</linearGradient>
<linearGradient id="paint4_linear_14017_92494" x1="27.9416" y1="54.4111" x2="29.7394" y2="57.1776" gradientUnits="userSpaceOnUse">
<stop stop-color="white"/>
<stop offset="1" stop-color="#D9D9D9" stop-opacity="0"/>
</linearGradient>
<linearGradient id="paint5_linear_14017_92494" x1="28.9984" y1="84.9375" x2="42.2895" y2="107.508" gradientUnits="userSpaceOnUse">
<stop stop-color="#E9E9E9"/>
<stop offset="1" stop-color="#D9D9D9" stop-opacity="0"/>
</linearGradient>
<linearGradient id="paint6_linear_14017_92494" x1="27.9416" y1="87.6533" x2="29.7394" y2="90.4198" gradientUnits="userSpaceOnUse">
<stop stop-color="white"/>
<stop offset="1" stop-color="#D9D9D9" stop-opacity="0"/>
</linearGradient>
<linearGradient id="paint7_linear_14017_92494" x1="28.9984" y1="115.332" x2="42.2895" y2="137.903" gradientUnits="userSpaceOnUse">
<stop stop-color="#E9E9E9"/>
<stop offset="1" stop-color="#D9D9D9" stop-opacity="0"/>
</linearGradient>
<linearGradient id="paint8_linear_14017_92494" x1="27.9416" y1="118.048" x2="29.7394" y2="120.814" gradientUnits="userSpaceOnUse">
<stop stop-color="white"/>
<stop offset="1" stop-color="#D9D9D9" stop-opacity="0"/>
</linearGradient>
<linearGradient id="paint9_linear_14017_92494" x1="52.7718" y1="19.875" x2="66.0629" y2="42.4458" gradientUnits="userSpaceOnUse">
<stop stop-color="#E9E9E9"/>
<stop offset="1" stop-color="#D9D9D9" stop-opacity="0"/>
</linearGradient>
<linearGradient id="paint10_linear_14017_92494" x1="51.7151" y1="22.5908" x2="53.5128" y2="25.3573" gradientUnits="userSpaceOnUse">
<stop stop-color="white"/>
<stop offset="1" stop-color="#D9D9D9" stop-opacity="0"/>
</linearGradient>
<linearGradient id="paint11_linear_14017_92494" x1="52.7718" y1="48.8437" x2="66.0629" y2="71.4145" gradientUnits="userSpaceOnUse">
<stop stop-color="#E9E9E9"/>
<stop offset="1" stop-color="#D9D9D9" stop-opacity="0"/>
</linearGradient>
<linearGradient id="paint12_linear_14017_92494" x1="51.7151" y1="51.5595" x2="53.5128" y2="54.3261" gradientUnits="userSpaceOnUse">
<stop stop-color="white"/>
<stop offset="1" stop-color="#D9D9D9" stop-opacity="0"/>
</linearGradient>
<linearGradient id="paint13_linear_14017_92494" x1="52.7718" y1="82.0898" x2="66.0629" y2="104.661" gradientUnits="userSpaceOnUse">
<stop stop-color="#E9E9E9"/>
<stop offset="1" stop-color="#D9D9D9" stop-opacity="0"/>
</linearGradient>
<linearGradient id="paint14_linear_14017_92494" x1="51.7151" y1="84.8056" x2="53.5128" y2="87.5722" gradientUnits="userSpaceOnUse">
<stop stop-color="white"/>
<stop offset="1" stop-color="#D9D9D9" stop-opacity="0"/>
</linearGradient>
<linearGradient id="paint15_linear_14017_92494" x1="76.5413" y1="17.0234" x2="89.8325" y2="39.5942" gradientUnits="userSpaceOnUse">
<stop stop-color="#E9E9E9"/>
<stop offset="1" stop-color="#D9D9D9" stop-opacity="0"/>
</linearGradient>
<linearGradient id="paint16_linear_14017_92494" x1="75.4846" y1="19.7392" x2="77.2824" y2="22.5058" gradientUnits="userSpaceOnUse">
<stop stop-color="white"/>
<stop offset="1" stop-color="#D9D9D9" stop-opacity="0"/>
</linearGradient>
<linearGradient id="paint17_linear_14017_92494" x1="76.5413" y1="45.9961" x2="89.8325" y2="68.5669" gradientUnits="userSpaceOnUse">
<stop stop-color="#E9E9E9"/>
<stop offset="1" stop-color="#D9D9D9" stop-opacity="0"/>
</linearGradient>
<linearGradient id="paint18_linear_14017_92494" x1="75.4846" y1="48.7119" x2="77.2824" y2="51.4784" gradientUnits="userSpaceOnUse">
<stop stop-color="white"/>
<stop offset="1" stop-color="#D9D9D9" stop-opacity="0"/>
</linearGradient>
<linearGradient id="paint19_linear_14017_92494" x1="76.5413" y1="79.2383" x2="89.8325" y2="101.809" gradientUnits="userSpaceOnUse">
<stop stop-color="#E9E9E9"/>
<stop offset="1" stop-color="#D9D9D9" stop-opacity="0"/>
</linearGradient>
<linearGradient id="paint20_linear_14017_92494" x1="75.4846" y1="81.9541" x2="77.2824" y2="84.7206" gradientUnits="userSpaceOnUse">
<stop stop-color="white"/>
<stop offset="1" stop-color="#D9D9D9" stop-opacity="0"/>
</linearGradient>
<linearGradient id="paint21_linear_14017_92494" x1="76.5413" y1="109.633" x2="89.8325" y2="132.204" gradientUnits="userSpaceOnUse">
<stop stop-color="#E9E9E9"/>
<stop offset="1" stop-color="#D9D9D9" stop-opacity="0"/>
</linearGradient>
<linearGradient id="paint22_linear_14017_92494" x1="75.4846" y1="112.349" x2="77.2824" y2="115.115" gradientUnits="userSpaceOnUse">
<stop stop-color="white"/>
<stop offset="1" stop-color="#D9D9D9" stop-opacity="0"/>
</linearGradient>
<linearGradient id="paint23_linear_14017_92494" x1="100.311" y1="14.1758" x2="113.602" y2="36.7466" gradientUnits="userSpaceOnUse">
<stop stop-color="#E9E9E9"/>
<stop offset="1" stop-color="#D9D9D9" stop-opacity="0"/>
</linearGradient>
<linearGradient id="paint24_linear_14017_92494" x1="99.2541" y1="16.8916" x2="101.052" y2="19.6581" gradientUnits="userSpaceOnUse">
<stop stop-color="white"/>
<stop offset="1" stop-color="#D9D9D9" stop-opacity="0"/>
</linearGradient>
<linearGradient id="paint25_linear_14017_92494" x1="100.311" y1="43.1445" x2="113.602" y2="65.7153" gradientUnits="userSpaceOnUse">
<stop stop-color="#E9E9E9"/>
<stop offset="1" stop-color="#D9D9D9" stop-opacity="0"/>
</linearGradient>
<linearGradient id="paint26_linear_14017_92494" x1="99.2541" y1="45.8603" x2="101.052" y2="48.6268" gradientUnits="userSpaceOnUse">
<stop stop-color="white"/>
<stop offset="1" stop-color="#D9D9D9" stop-opacity="0"/>
</linearGradient>
<linearGradient id="paint27_linear_14017_92494" x1="100.311" y1="76.3906" x2="113.602" y2="98.9614" gradientUnits="userSpaceOnUse">
<stop stop-color="#E9E9E9"/>
<stop offset="1" stop-color="#D9D9D9" stop-opacity="0"/>
</linearGradient>
<linearGradient id="paint28_linear_14017_92494" x1="99.2541" y1="79.1064" x2="101.052" y2="81.8729" gradientUnits="userSpaceOnUse">
<stop stop-color="white"/>
<stop offset="1" stop-color="#D9D9D9" stop-opacity="0"/>
</linearGradient>
<linearGradient id="paint29_linear_14017_92494" x1="100.311" y1="106.785" x2="113.602" y2="129.356" gradientUnits="userSpaceOnUse">
<stop stop-color="#E9E9E9"/>
<stop offset="1" stop-color="#D9D9D9" stop-opacity="0"/>
</linearGradient>
<linearGradient id="paint30_linear_14017_92494" x1="99.2541" y1="109.501" x2="101.052" y2="112.267" gradientUnits="userSpaceOnUse">
<stop stop-color="white"/>
<stop offset="1" stop-color="#D9D9D9" stop-opacity="0"/>
</linearGradient>
<linearGradient id="paint31_linear_14017_92494" x1="124.084" y1="11.3242" x2="137.375" y2="33.895" gradientUnits="userSpaceOnUse">
<stop stop-color="#E9E9E9"/>
<stop offset="1" stop-color="#D9D9D9" stop-opacity="0"/>
</linearGradient>
<linearGradient id="paint32_linear_14017_92494" x1="123.028" y1="14.04" x2="124.825" y2="16.8065" gradientUnits="userSpaceOnUse">
<stop stop-color="white"/>
<stop offset="1" stop-color="#D9D9D9" stop-opacity="0"/>
</linearGradient>
<linearGradient id="paint33_linear_14017_92494" x1="124.084" y1="40.2969" x2="137.375" y2="62.8677" gradientUnits="userSpaceOnUse">
<stop stop-color="#E9E9E9"/>
<stop offset="1" stop-color="#D9D9D9" stop-opacity="0"/>
</linearGradient>
<linearGradient id="paint34_linear_14017_92494" x1="123.028" y1="43.0126" x2="124.825" y2="45.7792" gradientUnits="userSpaceOnUse">
<stop stop-color="white"/>
<stop offset="1" stop-color="#D9D9D9" stop-opacity="0"/>
</linearGradient>
<linearGradient id="paint35_linear_14017_92494" x1="124.084" y1="73.5391" x2="137.375" y2="96.1098" gradientUnits="userSpaceOnUse">
<stop stop-color="#E9E9E9"/>
<stop offset="1" stop-color="#D9D9D9" stop-opacity="0"/>
</linearGradient>
<linearGradient id="paint36_linear_14017_92494" x1="123.028" y1="76.2548" x2="124.825" y2="79.0214" gradientUnits="userSpaceOnUse">
<stop stop-color="white"/>
<stop offset="1" stop-color="#D9D9D9" stop-opacity="0"/>
</linearGradient>
<linearGradient id="paint37_linear_14017_92494" x1="124.084" y1="103.934" x2="137.375" y2="126.504" gradientUnits="userSpaceOnUse">
<stop stop-color="#E9E9E9"/>
<stop offset="1" stop-color="#D9D9D9" stop-opacity="0"/>
</linearGradient>
<linearGradient id="paint38_linear_14017_92494" x1="123.028" y1="106.649" x2="124.825" y2="109.416" gradientUnits="userSpaceOnUse">
<stop stop-color="white"/>
<stop offset="1" stop-color="#D9D9D9" stop-opacity="0"/>
</linearGradient>
<linearGradient id="paint39_linear_14017_92494" x1="52.7718" y1="112.484" x2="66.0629" y2="135.055" gradientUnits="userSpaceOnUse">
<stop stop-color="#E9E9E9"/>
<stop offset="1" stop-color="#D9D9D9" stop-opacity="0"/>
</linearGradient>
<linearGradient id="paint40_linear_14017_92494" x1="51.7151" y1="115.2" x2="53.5128" y2="117.967" gradientUnits="userSpaceOnUse">
<stop stop-color="white"/>
<stop offset="1" stop-color="#D9D9D9" stop-opacity="0"/>
</linearGradient>
</defs>
</svg>
