<svg width="20" height="21" viewBox="0 0 20 21" fill="none" xmlns="http://www.w3.org/2000/svg">
<path d="M10.0017 2.28711C14.6001 2.28711 18.3334 6.02044 18.3334 10.6179C18.3334 15.2163 14.6001 18.9496 10.0017 18.9496C5.40423 18.9496 1.6709 15.2163 1.6709 10.6179C1.6709 6.02044 5.40423 2.28711 10.0017 2.28711ZM10.0017 3.53711C6.0934 3.53711 2.9209 6.70961 2.9209 10.6179C2.9209 14.5263 6.0934 17.6996 10.0017 17.6996C13.9101 17.6996 17.0834 14.5263 17.0834 10.6179C17.0834 6.70961 13.9101 3.53711 10.0017 3.53711ZM13.5459 9.99544H6.46256C6.11757 9.99544 5.83756 10.2754 5.83756 10.6204C5.83756 10.9654 6.11757 11.2454 6.46256 11.2454H13.5459C13.8909 11.2454 14.1709 10.9654 14.1709 10.6204C14.1709 10.2754 13.8909 9.99544 13.5459 9.99544Z" fill="black"/>
</svg>
