<svg width="20" height="21" viewBox="0 0 20 21" fill="none" xmlns="http://www.w3.org/2000/svg">
<path d="M10.0017 2.28271C14.6001 2.28271 18.3334 6.01605 18.3334 10.6144C18.3334 15.2119 14.6001 18.9452 10.0017 18.9452C5.40423 18.9452 1.6709 15.2119 1.6709 10.6144C1.6709 6.01605 5.40423 2.28271 10.0017 2.28271ZM10.0017 3.53271C6.0934 3.53271 2.9209 6.70605 2.9209 10.6144C2.9209 14.5227 6.0934 17.6952 10.0017 17.6952C13.9101 17.6952 17.0834 14.5227 17.0834 10.6144C17.0834 6.70605 13.9101 3.53271 10.0017 3.53271ZM9.37923 9.99105H6.46256C6.11757 9.99105 5.83756 10.271 5.83756 10.616C5.83756 10.961 6.11757 11.241 6.46256 11.241H9.37923V14.1577C9.37923 14.5027 9.65923 14.7827 10.0042 14.7827C10.3492 14.7827 10.6292 14.5027 10.6292 14.1577V11.241H13.5459C13.8909 11.241 14.1709 10.961 14.1709 10.616C14.1709 10.271 13.8909 9.99105 13.5459 9.99105H10.6292V7.07438C10.6292 6.72938 10.3492 6.44938 10.0042 6.44938C9.65923 6.44938 9.37923 6.72938 9.37923 7.07438V9.99105Z" fill="black"/>
</svg>
