<svg width="48" height="48" viewBox="0 0 48 48" fill="none" xmlns="http://www.w3.org/2000/svg">
<g clip-path="url(#clip0_27319_60673)">
<rect width="48" height="48" rx="24" fill="#D2C1FF" fill-opacity="0.2"/>
<path d="M8.01738 35.9755C4.36123 40.027 5.10032 53.6399 5.10032 53.6399L42.86 52.9917C42.86 52.9917 43.5023 40.9384 38.8085 35.9755C35.8896 32.8894 27.9591 30.7897 27.9591 30.7897H18.3591C18.3591 30.7897 10.789 32.9042 8.01738 35.9755Z" fill="url(#paint0_linear_27319_60673)"/>
<path d="M27.9588 30.7897H18.3588C18.3588 30.7897 18.0914 30.8644 17.6388 31.006C17.7035 31.1152 17.777 31.22 17.8588 31.3204C19.7688 33.6647 26.1525 33.6302 28.1988 31.4446C28.3406 31.2931 28.4615 31.1313 28.5588 30.9592C28.1787 30.8479 27.9588 30.7897 27.9588 30.7897Z" fill="#7E54F1"/>
<path d="M38.8082 35.9755C36.3754 33.4033 30.4611 31.5163 28.5588 30.9592C28.4615 31.1313 28.3406 31.2931 28.1988 31.4446C32.4031 32.8034 34.6754 33.7592 38.2788 36.4804C40.0303 38.3643 40.7026 39.5184 41.6984 41.6404C41.0889 39.4661 40.1747 37.4203 38.8082 35.9755Z" fill="#7E54F1"/>
<path d="M17.6388 31.006C15.6829 31.6183 10.2678 33.4814 8.01708 35.9755C6.59478 37.5516 5.83763 40.5747 5.44336 43.6804C6.2763 40.6012 6.77318 38.905 8.27876 36.4804C11.6906 33.8539 13.8505 32.84 17.8588 31.3204C17.777 31.22 17.7035 31.1152 17.6388 31.006Z" fill="#7E54F1"/>
<path fill-rule="evenodd" clip-rule="evenodd" d="M18.3565 31.1141V23.3947C20.6062 27.0936 22.3824 28.7507 27.918 29.877V31.1141C26.399 33.1202 20.759 33.2402 18.3565 31.1141Z" fill="#FADDCB"/>
<path d="M18.3565 23.3947H27.918V29.877C22.3824 28.7507 20.6062 27.0936 18.3565 23.3947Z" fill="#F5C6A9"/>
<path d="M32.9459 24.0876C33.103 22.3052 33.2685 16.4706 32.9459 14.8502C32.6233 13.2297 31.7844 12.3933 30.5151 11.2849C28.6455 9.65235 26.9968 9.31983 24.5189 9.17811C21.262 8.99183 19.2565 9.58328 17.3883 12.2576C15.8593 14.4466 15.4559 15.9498 15.9298 18.5775C16.7387 23.0623 20.1433 25.8701 22.4072 27.1668C24.6711 28.4634 27.2515 28.6023 29.0391 28.4402C30.1686 28.3378 32.7459 26.3566 32.9459 24.0876Z" fill="#FADDCB"/>
<path d="M19.1682 16.9609C20.3999 16.6692 21.8191 19.4172 21.7611 18.9056C21.6207 17.6666 21.6129 17.8922 21.7611 16.4917C26.6694 16.9114 29.3358 16.8018 33.9598 16.1317C34.9199 12.5317 32.2966 10.3639 30.2397 9.00034C27.2398 7.0117 21.5367 7.10065 19.1682 8.28034C16.7997 9.46004 16.5597 12.0517 16.5597 12.0517C16.5597 12.0517 15.7004 12.5181 15.1197 13.1317C13.4418 14.9046 13.3197 17.9317 14.3997 19.4917C14.6397 19.2517 14.6397 19.2517 14.7597 18.9056C14.7179 20.1642 14.7936 20.8137 15.2397 21.8917C15.3597 22.1317 15.6614 21.8493 15.8397 21.6517L17.2797 23.5717C17.2797 23.5717 19.1668 25.2224 19.4909 24.8983C20.0289 24.3603 20.359 23.8327 20.1392 22.9536C19.9771 22.3053 16.9378 21.2356 17.5476 18.9056C17.7979 17.9492 18.2062 17.1887 19.1682 16.9609Z" fill="#6B4000"/>
<path d="M29.5256 40.2662C29.5323 40.4256 29.6332 40.5684 29.7871 40.6362C29.6824 40.3993 29.672 40.1467 29.7561 39.8783C29.608 39.957 29.5192 40.1066 29.5256 40.2662Z" fill="white"/>
<path fill-rule="evenodd" clip-rule="evenodd" d="M29.8174 40.6994C29.8266 40.6994 29.8355 40.6959 29.8423 40.6893C29.8531 40.6786 29.8565 40.6624 29.8508 40.6483C29.7522 40.4042 29.7424 40.1399 29.8217 39.8627C29.8258 39.8482 29.8209 39.8326 29.8095 39.8231C29.798 39.8138 29.782 39.8126 29.7693 39.8199C29.6126 39.9114 29.5197 40.0832 29.5266 40.2683C29.5335 40.4535 29.6391 40.6172 29.8021 40.6959C29.807 40.6984 29.8123 40.6994 29.8174 40.6994ZM29.7273 39.943C29.6803 40.1625 29.6874 40.3739 29.7481 40.5742C29.6585 40.4993 29.6032 40.3878 29.5987 40.2655C29.5939 40.1417 29.6419 40.025 29.7273 39.943Z" fill="black"/>
<path d="M31.3243 38.552C30.5109 38.552 29.8515 39.1881 29.8515 39.973C29.8515 40.7577 30.5109 41.394 31.3243 41.394C32.1375 41.394 32.7969 40.7577 32.7969 39.973C32.7969 39.1881 32.1375 38.552 31.3243 38.552Z" fill="white"/>
<path d="M31.314 38.552C30.4729 38.552 29.8027 39.1394 29.7613 39.923L29.7472 39.9581C29.7151 40.052 29.7198 40.0106 29.7198 40.2499C29.7198 40.4893 29.909 40.9449 30.2683 41.1505L30.3099 41.1795C31.4923 41.836 32.8613 41.2779 32.8613 40.035C32.8613 39.2159 32.1552 38.552 31.314 38.552Z" fill="#FF8B13"/>
<path fill-rule="evenodd" clip-rule="evenodd" d="M31.3409 41.5206C31.6373 41.5206 31.9186 41.4481 32.1578 41.3099C32.6048 41.0515 32.8613 40.5871 32.8613 40.0359C32.8613 39.624 32.6985 39.2356 32.403 38.942C32.109 38.65 31.7221 38.4891 31.3135 38.4891C30.4714 38.4891 29.8048 39.1014 29.7606 39.9142L29.749 39.9446C29.7488 39.9452 29.7486 39.9457 29.7484 39.9462C29.7451 39.9564 29.7423 39.9647 29.7397 39.9723C29.7193 40.0325 29.7193 40.0379 29.7197 40.1752C29.7197 40.1977 29.7197 40.2239 29.7197 40.2548C29.7197 40.5136 29.9116 40.9865 30.2719 41.2022L30.311 41.2308C30.3121 41.2316 30.3132 41.2323 30.3144 41.233C30.6217 41.4109 30.9582 41.5101 31.2869 41.5198C31.3049 41.5202 31.3229 41.5205 31.3409 41.5206ZM31.3135 38.5621C32.1268 38.5621 32.7885 39.2233 32.7885 40.0359C32.7885 40.5605 32.5453 41.0018 32.1215 41.2467C31.6165 41.5385 30.9387 41.5095 30.3525 41.1708L30.3134 41.1423C30.3126 41.1417 30.3117 41.1411 30.3106 41.1405C29.9771 40.9416 29.7925 40.4905 29.7925 40.2548C29.7925 40.2239 29.7925 40.1975 29.7925 40.175C29.7921 40.0444 29.7921 40.0444 29.8086 39.9957C29.8112 39.9882 29.8142 39.9798 29.8173 39.9699L29.8306 39.9347C29.832 39.9311 29.8328 39.9274 29.833 39.9236C29.8723 39.1475 30.5089 38.5621 31.3135 38.5621Z" fill="black"/>
<path d="M31.1616 39.1206C30.3664 39.1206 29.7216 39.6296 29.7216 40.2575C29.7216 40.8852 30.3664 41.3942 31.1616 41.3942C31.957 41.3942 32.6016 40.8852 32.6016 40.2575C32.6016 39.6296 31.957 39.1206 31.1616 39.1206Z" fill="white"/>
<path fill-rule="evenodd" clip-rule="evenodd" d="M31.1616 41.3942C31.9557 41.3942 32.6016 40.8841 32.6016 40.2574C32.6016 39.6305 31.9557 39.1206 31.1616 39.1206C30.3677 39.1206 29.7216 39.6305 29.7216 40.2574C29.7216 40.8841 30.3677 41.3942 31.1616 41.3942ZM31.1616 39.1785C31.9222 39.1785 32.5409 39.6624 32.5409 40.2574C32.5409 40.8522 31.9222 41.3361 31.1616 41.3361C30.401 41.3361 29.7823 40.8522 29.7823 40.2574C29.7823 39.6624 30.401 39.1785 31.1616 39.1785Z" fill="black"/>
<path d="M31.1607 41.268C30.4739 41.268 29.9171 40.8297 29.9171 40.2891C29.9171 39.7485 30.4739 39.3102 31.1607 39.3102C31.8475 39.3102 32.4043 39.7485 32.4043 40.2891C32.4043 40.8297 31.8475 41.268 31.1607 41.268Z" fill="black"/>
<path fill-rule="evenodd" clip-rule="evenodd" d="M31.1616 41.268C31.8835 41.268 32.4707 40.829 32.4707 40.2892C32.4707 39.7494 31.8835 39.3102 31.1616 39.3102C30.4397 39.3102 29.8526 39.7494 29.8526 40.2892C29.8526 40.829 30.4397 41.268 31.1616 41.268ZM31.1616 39.3802C31.8422 39.3802 32.3959 39.788 32.3959 40.2892C32.3959 40.7902 31.8422 41.198 31.1616 41.198C30.4811 41.198 29.9274 40.7902 29.9274 40.2892C29.9274 39.788 30.4811 39.3802 31.1616 39.3802Z" fill="black"/>
<path d="M29.9181 40.2116C29.9221 40.2486 29.9283 40.2858 29.9368 40.323C29.9637 40.4418 30.0113 40.5514 30.075 40.6491C30.0601 40.6772 30.0483 40.7057 30.0394 40.734C30.2432 41.0592 30.6712 41.2833 31.1662 41.2833C31.2544 41.2833 31.3404 41.276 31.4234 41.2625C32.0039 41.1053 32.4042 40.7407 32.3313 40.4199C32.3108 40.3291 32.2543 40.251 32.1705 40.1881C32.186 40.0727 32.1816 39.9539 32.1544 39.8348C32.1392 39.7673 32.1173 39.703 32.0895 39.6421C31.8604 39.4475 31.5315 39.3254 31.1662 39.3254C30.5137 39.3254 29.9778 39.7145 29.9181 40.2116Z" fill="#B0401E"/>
<path fill-rule="evenodd" clip-rule="evenodd" d="M31.1334 41.268C31.2218 41.268 31.3101 41.2613 31.3961 41.2477C31.3971 41.2476 31.3982 41.2473 31.3993 41.2469C32.0067 41.0876 32.407 40.7213 32.3305 40.3947C32.3098 40.3067 32.2564 40.2288 32.1719 40.1635C32.1854 40.0511 32.1792 39.938 32.1532 39.8273C32.1377 39.7611 32.1152 39.6965 32.0864 39.6349C32.0844 39.6308 32.0817 39.6274 32.0783 39.6247C31.8356 39.4247 31.4913 39.3102 31.1334 39.3102C30.8122 39.3102 30.5049 39.4006 30.2676 39.5648C30.0303 39.7293 29.8828 39.9534 29.8528 40.1957C29.8525 40.198 29.8525 40.2003 29.8528 40.2025C29.857 40.2397 29.8635 40.2771 29.8721 40.3136C29.8981 40.4243 29.9428 40.5291 30.0054 40.6254C29.9931 40.6494 29.9832 40.6735 29.9756 40.6975C29.973 40.7056 29.9742 40.7142 29.9788 40.7215C30.0837 40.8835 30.2451 41.0201 30.4459 41.1168C30.6514 41.2158 30.8891 41.268 31.1334 41.268ZM31.3844 41.1901C31.3023 41.203 31.2177 41.2095 31.1334 41.2095C30.6663 41.2095 30.2483 41.0153 30.0386 40.7021C30.0462 40.6805 30.0561 40.6588 30.068 40.6371C30.073 40.6279 30.0724 40.6166 30.0664 40.6077C30.003 40.5135 29.9579 40.4103 29.9321 40.3007C29.9243 40.2675 29.9184 40.2334 29.9142 40.1994C29.9754 39.7256 30.4987 39.3689 31.1334 39.3689C31.4741 39.3689 31.8014 39.4765 32.0328 39.6648C32.0588 39.721 32.0791 39.7799 32.0932 39.8402C32.1188 39.9496 32.1242 40.0614 32.1087 40.1725C32.1073 40.1829 32.1119 40.1933 32.1206 40.1996C32.2015 40.2585 32.2518 40.3283 32.2703 40.4076C32.3383 40.6979 31.9493 41.0414 31.3844 41.1901Z" fill="black"/>
<path d="M31.2548 39.4485C31.1103 39.4789 30.9927 39.5621 30.9197 39.6716C30.8025 39.5972 30.6543 39.5663 30.5055 39.5978C30.1136 39.6803 29.9195 40.2355 30.3157 40.4974C30.1955 40.4918 30.0819 40.549 30.02 40.6463C30.0047 40.6738 29.9926 40.7018 29.9835 40.7295C30.1922 41.0482 30.6307 41.2678 31.1376 41.2678C31.228 41.2678 31.3161 41.2606 31.4011 41.2475C31.9958 41.0933 32.4058 40.7361 32.3311 40.4216C32.3101 40.3327 32.2522 40.2561 32.1664 40.1944C32.0622 40.1487 31.9497 40.1486 31.8286 40.194C31.8955 40.0878 31.9212 39.9585 31.8904 39.8284C31.8264 39.5582 31.5417 39.388 31.2548 39.4485Z" fill="#FFCAA1"/>
<path fill-rule="evenodd" clip-rule="evenodd" d="M31.1381 41.2679C31.2261 41.2679 31.3144 41.2608 31.4 41.2471C31.4008 41.247 31.4017 41.2468 31.4027 41.2465C32.0076 41.0851 32.4064 40.7148 32.3306 40.3854C32.3091 40.2921 32.2518 40.2102 32.1601 40.1424C32.1588 40.1413 32.1573 40.1405 32.1557 40.1398C32.065 40.0988 31.9673 40.0921 31.8645 40.1195C31.9127 40.0157 31.925 39.8998 31.8992 39.7873C31.8335 39.5023 31.5411 39.3223 31.2473 39.386C31.1121 39.4153 30.9958 39.4914 30.9176 39.6014C30.7961 39.5291 30.6538 39.5062 30.514 39.5365C30.3143 39.5797 30.1506 39.7527 30.1069 39.9666C30.0692 40.1512 30.1287 40.3261 30.2671 40.4464C30.1664 40.4608 30.0763 40.5181 30.0227 40.6049C30.0224 40.6053 30.0221 40.6058 30.0219 40.6063C30.0064 40.6354 29.9937 40.6649 29.9846 40.6943C29.9826 40.7007 29.9834 40.7079 29.9872 40.7138C30.0916 40.8778 30.2524 41.0164 30.4525 41.1144C30.6573 41.2147 30.8944 41.2679 31.1381 41.2679ZM31.3908 41.2C31.3081 41.2133 31.2231 41.22 31.1381 41.22C30.6671 41.22 30.2456 41.0202 30.0352 40.698C30.043 40.6751 30.0531 40.6518 30.0654 40.629C30.1214 40.5386 30.2238 40.4859 30.3322 40.4911C30.3431 40.4915 30.3532 40.4851 30.3568 40.4749C30.3604 40.4649 30.3566 40.4538 30.3477 40.4475C30.1889 40.3394 30.117 40.1631 30.1553 39.976C30.1954 39.7803 30.3437 39.6223 30.5247 39.5831C30.6593 39.5539 30.7965 39.5791 30.911 39.654C30.9164 39.6577 30.9233 39.6589 30.9299 39.6575C30.9363 39.6564 30.9422 39.6525 30.9456 39.647C31.0168 39.5371 31.1276 39.4609 31.258 39.4325C31.5252 39.3747 31.7914 39.5385 31.851 39.7977C31.8788 39.9181 31.8583 40.0429 31.7934 40.1488C31.7888 40.1563 31.7888 40.1654 31.793 40.1729C31.799 40.183 31.8125 40.1875 31.8236 40.1832C31.9357 40.14 32.0366 40.1396 32.1323 40.1821C32.2131 40.2425 32.2637 40.3144 32.2825 40.3957C32.3514 40.6948 31.9596 41.0479 31.3908 41.2Z" fill="black"/>
<path d="M30.3837 40.6791C30.2732 40.6532 30.1939 40.714 30.2886 40.8424C30.6951 41.3933 31.8804 41.1341 32.0082 40.4661C32.038 40.3106 31.9399 40.2885 31.8511 40.3583C31.4629 40.6632 30.8679 40.7933 30.3837 40.6791Z" fill="white"/>
<path fill-rule="evenodd" clip-rule="evenodd" d="M31.0066 41.2047C31.0982 41.2047 31.193 41.1943 31.2893 41.1732C31.703 41.0818 32.0097 40.8165 32.0703 40.4972C32.0909 40.3884 32.0525 40.3476 32.0275 40.3328C31.9867 40.3087 31.9273 40.3207 31.8724 40.3642C31.4835 40.672 30.8967 40.8015 30.412 40.6863C30.3438 40.6699 30.2848 40.6841 30.2583 40.7232C30.2421 40.7469 30.2249 40.8001 30.2904 40.8899C30.4384 41.092 30.7039 41.2047 31.0066 41.2047ZM31.9797 40.3687C31.9883 40.3687 31.9961 40.3705 32.0025 40.3742C32.0261 40.3882 32.0333 40.4299 32.0223 40.4883C31.9653 40.7887 31.6734 41.039 31.2785 41.126C30.8837 41.2132 30.5114 41.1094 30.3302 40.8615C30.295 40.8134 30.2836 40.7727 30.299 40.75C30.3136 40.7285 30.3534 40.722 30.4006 40.733C30.8991 40.8517 31.5029 40.7184 31.9031 40.4017C31.9301 40.3803 31.9579 40.3687 31.9797 40.3687Z" fill="black"/>
<path d="M29.916 40.3235C29.916 40.4582 29.9528 40.5858 30.0188 40.6995C30.0259 40.6759 30.0354 40.6524 30.0469 40.6288C29.9942 40.5426 29.955 40.4458 29.9327 40.3406C29.9268 40.313 29.9223 40.2852 29.9188 40.2574C29.917 40.2793 29.916 40.3013 29.916 40.3235Z" fill="#FFCAA1"/>
<path fill-rule="evenodd" clip-rule="evenodd" d="M30.0362 40.7626C30.0376 40.7626 30.039 40.7626 30.0405 40.7624C30.0548 40.761 30.0668 40.7528 30.0711 40.7414C30.0807 40.7161 30.0934 40.6905 30.1092 40.665C30.1151 40.6552 30.1147 40.6436 30.1075 40.6343C30.0321 40.5359 29.9783 40.4281 29.9479 40.3137C29.9398 40.2834 29.9333 40.2523 29.9285 40.2211C29.9261 40.2054 29.9103 40.1938 29.8917 40.1942C29.873 40.1946 29.8577 40.2064 29.8558 40.2221C29.8529 40.2485 29.8515 40.2748 29.8515 40.3006C29.8515 40.4574 29.9031 40.6079 30.0051 40.748C30.0118 40.7572 30.0235 40.7626 30.0362 40.7626ZM30.0347 40.6526C30.0333 40.6553 30.0318 40.6579 30.0302 40.6606C30.0155 40.6367 30.0024 40.6125 29.9907 40.5881C30.0044 40.61 30.0191 40.6315 30.0347 40.6526Z" fill="black"/>
<path d="M30.002 40.6993C30.0162 40.6911 30.0287 40.6805 30.0395 40.6679C30.0419 40.6619 30.0443 40.6563 30.0469 40.6503C30.0024 40.5692 29.9671 40.4797 29.9432 40.3836C29.9343 40.3834 29.925 40.384 29.916 40.3858C29.9261 40.4965 29.956 40.602 30.002 40.6993Z" fill="#FF9999"/>
<path fill-rule="evenodd" clip-rule="evenodd" d="M30.0118 40.6993C30.0175 40.6993 30.0231 40.6985 30.0285 40.6966C30.0519 40.6886 30.0734 40.6782 30.092 40.6653C30.095 40.6633 30.0972 40.6609 30.0991 40.6584C30.1023 40.6537 30.1057 40.649 30.1091 40.6443C30.1153 40.6363 30.1145 40.6265 30.1074 40.6188C30.0446 40.5516 29.9962 40.4786 29.9637 40.402C29.959 40.3913 29.9448 40.3839 29.9287 40.3836C29.9131 40.3834 29.8977 40.3841 29.8827 40.3857C29.8632 40.3879 29.8495 40.4002 29.8517 40.4138C29.8664 40.5082 29.9094 40.5997 29.9793 40.6861C29.9862 40.6945 29.9989 40.6993 30.0118 40.6993ZM30.0324 40.6334C30.0303 40.6348 30.0281 40.6361 30.026 40.6373C30.0125 40.6188 30.0002 40.6002 29.9891 40.5814C30.0028 40.5991 30.0172 40.6164 30.0324 40.6334Z" fill="black"/>
<path d="M31.129 40.5099C31.1411 40.5099 31.1528 40.5035 31.1584 40.4928C31.176 40.4584 31.2152 40.4394 31.2554 40.4453C31.273 40.4479 31.2896 40.4366 31.2926 40.4201C31.2953 40.4036 31.2832 40.388 31.2656 40.3854C31.1967 40.3752 31.1301 40.4078 31.0999 40.4664C31.092 40.4815 31.0988 40.4995 31.115 40.5069C31.1194 40.5089 31.1243 40.5099 31.129 40.5099Z" fill="black"/>
<path d="M31.1321 40.5101C31.1409 40.5101 31.1495 40.5073 31.1554 40.5018C31.1658 40.4923 31.1639 40.4784 31.1511 40.4706C31.1019 40.4411 31.0311 40.4389 30.9789 40.4652C30.9652 40.4722 30.9617 40.486 30.9709 40.4961C30.9803 40.5061 30.9989 40.5089 31.0126 40.5019C31.0432 40.4865 31.0846 40.4879 31.1133 40.5051C31.1188 40.5085 31.1254 40.5101 31.1321 40.5101Z" fill="black"/>
<path d="M31.1435 40.6995C31.1449 40.6995 31.1462 40.6993 31.1475 40.6987C31.1576 40.6952 31.1639 40.6792 31.1617 40.6633C31.1493 40.5738 31.144 40.5377 31.1332 40.4695C31.1306 40.4535 31.1205 40.4437 31.1106 40.4478C31.1006 40.4519 31.0947 40.4683 31.0972 40.4841C31.1079 40.5516 31.1131 40.5874 31.1254 40.6761C31.1273 40.69 31.135 40.6995 31.1435 40.6995Z" fill="black"/>
<path d="M32.017 40.4591C31.969 40.518 31.9071 40.5691 31.8403 40.6145C31.7731 40.6598 31.7008 40.6996 31.6263 40.736C31.6186 40.7397 31.6158 40.7484 31.6199 40.7552C31.6239 40.7618 31.6327 40.7645 31.6402 40.7614C31.7183 40.729 31.795 40.6932 31.868 40.6505C31.9407 40.6077 32.0103 40.5579 32.0683 40.4957C32.0801 40.4831 32.0784 40.4645 32.0647 40.4538C32.0508 40.4434 32.0302 40.4449 32.0185 40.4573C32.018 40.4578 32.0176 40.4584 32.0172 40.4589L32.017 40.4591Z" fill="black"/>
<path opacity="0.3" d="M31.9399 40.3535C31.913 40.5058 31.7918 40.641 31.6864 40.7626C31.9064 40.6499 32.0155 40.5288 32.0136 40.3995C32.0104 40.3121 32.0224 40.2981 31.9399 40.3535Z" fill="black"/>
<path d="M30.2624 40.8817C30.3414 40.9145 30.4244 40.9317 30.5068 40.9414C30.5894 40.9511 30.6722 40.9532 30.7544 40.9517C30.7619 40.9515 30.7678 40.9458 30.7676 40.9387C30.7674 40.932 30.7619 40.9267 30.7548 40.9263C30.6736 40.9223 30.5926 40.9147 30.5139 40.9C30.4353 40.8853 30.3582 40.8634 30.2898 40.8293H30.2896C30.2744 40.8217 30.2557 40.827 30.2476 40.8413C30.2395 40.8554 30.2454 40.8731 30.2604 40.8808C30.2612 40.8809 30.2618 40.8813 30.2624 40.8817Z" fill="black"/>
<path opacity="0.3" d="M30.2701 40.7824C30.323 40.9021 30.4889 40.9585 30.7676 40.9516C30.6053 40.8928 30.4209 40.8294 30.3279 40.7028C30.2175 40.6934 30.2364 40.7003 30.2701 40.7824Z" fill="black"/>
<path fill-rule="evenodd" clip-rule="evenodd" d="M31.1334 41.268C31.2218 41.268 31.3101 41.2613 31.3961 41.2477C31.3971 41.2476 31.3982 41.2473 31.3993 41.2469C32.0067 41.0876 32.407 40.7213 32.3305 40.3947C32.3098 40.3067 32.2564 40.2288 32.1719 40.1635C32.1854 40.0511 32.1792 39.938 32.1532 39.8273C32.1377 39.7611 32.1152 39.6965 32.0864 39.6349C32.0844 39.6308 32.0817 39.6274 32.0783 39.6247C31.8356 39.4247 31.4913 39.3102 31.1334 39.3102C30.8122 39.3102 30.5049 39.4006 30.2676 39.5648C30.0303 39.7293 29.8828 39.9534 29.8528 40.1957C29.8525 40.198 29.8525 40.2003 29.8528 40.2025C29.857 40.2397 29.8635 40.2771 29.8721 40.3136C29.8981 40.4243 29.9428 40.5291 30.0054 40.6254C29.9931 40.6494 29.9832 40.6735 29.9756 40.6975C29.973 40.7056 29.9742 40.7142 29.9788 40.7215C30.0837 40.8835 30.2451 41.0201 30.4459 41.1168C30.6514 41.2158 30.8891 41.268 31.1334 41.268ZM31.3844 41.1901C31.3023 41.203 31.2177 41.2095 31.1334 41.2095C30.6663 41.2095 30.2483 41.0153 30.0386 40.7021C30.0462 40.6805 30.0561 40.6588 30.068 40.6371C30.073 40.6279 30.0724 40.6166 30.0664 40.6077C30.003 40.5135 29.9579 40.4103 29.9321 40.3007C29.9243 40.2675 29.9184 40.2334 29.9142 40.1994C29.9754 39.7256 30.4987 39.3689 31.1334 39.3689C31.4741 39.3689 31.8014 39.4765 32.0328 39.6648C32.0588 39.721 32.0791 39.7799 32.0932 39.8402C32.1188 39.9496 32.1242 40.0614 32.1087 40.1725C32.1073 40.1829 32.1119 40.1933 32.1206 40.1996C32.2015 40.2585 32.2518 40.3283 32.2703 40.4076C32.3383 40.6979 31.9493 41.0414 31.3844 41.1901Z" fill="black"/>
<path d="M32.7446 39.5649C32.5663 39.5859 32.4454 39.7431 32.4749 39.9163C32.5043 40.0894 32.6726 40.2128 32.8509 40.1919C33.0292 40.1711 33.15 40.0137 33.1206 39.8405C33.0912 39.6674 32.9227 39.544 32.7446 39.5649Z" fill="white"/>
<path fill-rule="evenodd" clip-rule="evenodd" d="M32.8096 40.2574C32.8231 40.2574 32.8366 40.2564 32.8502 40.2544C32.9374 40.2419 33.0137 40.1904 33.0648 40.1093C33.1147 40.0301 33.1346 39.9316 33.1207 39.8323C33.092 39.6249 32.9233 39.477 32.7454 39.5023C32.5672 39.5278 32.4458 39.7172 32.4747 39.9246C32.4886 40.0239 32.5346 40.113 32.6041 40.1751C32.6643 40.2289 32.7361 40.2574 32.8096 40.2574ZM32.7854 39.5731C32.9124 39.5731 33.0272 39.6875 33.0488 39.8425C33.0602 39.9246 33.0442 40.0052 33.0036 40.0698C32.9639 40.1324 32.9059 40.1721 32.8399 40.1816C32.7741 40.191 32.7073 40.1691 32.6523 40.12C32.5956 40.0692 32.5581 39.9962 32.5466 39.9142C32.5235 39.7471 32.6172 39.595 32.7555 39.5751C32.7655 39.5738 32.7755 39.5731 32.7854 39.5731Z" fill="black"/>
<path d="M32.9797 40.1733C33.083 40.1078 33.142 39.9836 33.1206 39.8504C33.0961 39.6997 32.9762 39.585 32.8344 39.5626C32.8273 39.5626 32.8199 39.5632 32.8125 39.5642C32.6705 39.5817 32.5785 39.7364 32.6063 39.9101C32.6344 40.0835 32.7722 40.2101 32.9142 40.1926C32.9376 40.1898 32.9595 40.1832 32.9797 40.1733Z" fill="white"/>
<path fill-rule="evenodd" clip-rule="evenodd" d="M32.8847 40.1942C32.894 40.1942 32.9033 40.1936 32.9125 40.1923C32.9364 40.189 32.9595 40.1813 32.981 40.1694C32.982 40.1689 32.9831 40.1682 32.9841 40.1675C33.0871 40.0932 33.1408 39.9546 33.1209 39.8145C33.098 39.6545 32.9839 39.5251 32.843 39.4999C32.8411 39.4996 32.839 39.4995 32.8369 39.4995C32.829 39.4997 32.8213 39.5003 32.814 39.5013C32.6723 39.5212 32.579 39.6922 32.606 39.8827C32.6188 39.9732 32.6567 40.0551 32.7124 40.1131C32.7631 40.1661 32.8235 40.1942 32.8847 40.1942ZM32.9502 40.118C32.9356 40.1258 32.92 40.1309 32.9042 40.1331C32.8533 40.1401 32.8008 40.1184 32.7562 40.0721C32.709 40.0228 32.6769 39.9527 32.6658 39.8743C32.6433 39.7164 32.7136 39.5757 32.8225 39.5605C32.8267 39.56 32.831 39.5596 32.8353 39.5593C32.9496 39.5814 33.0421 39.6893 33.0611 39.8229C33.0779 39.9408 33.0345 40.0563 32.9502 40.118Z" fill="black"/>
<path d="M31.632 38.8049C31.5871 38.948 31.6624 38.9675 31.7914 38.8724C31.8867 38.8022 31.9991 38.7674 32.1073 38.7428C32.2091 38.6368 32.0771 38.5012 31.8844 38.5713C31.7875 38.6008 31.6749 38.6685 31.632 38.8049Z" fill="#FF8B13"/>
<path fill-rule="evenodd" clip-rule="evenodd" d="M31.6359 38.9941C31.6755 38.9941 31.7252 38.9722 31.7841 38.9284C31.8764 38.8602 31.9854 38.8289 32.0798 38.8073C32.0872 38.8055 32.0939 38.8018 32.099 38.7966C32.1506 38.7426 32.1569 38.6734 32.1152 38.6206C32.0702 38.5633 31.9672 38.5266 31.8386 38.5733C31.7589 38.5978 31.6187 38.6631 31.5676 38.8263C31.5429 38.9056 31.5506 38.9581 31.5911 38.9824C31.6043 38.9902 31.6192 38.9941 31.6359 38.9941ZM32.0492 38.7441C31.9547 38.7664 31.8366 38.8018 31.7366 38.8758C31.6698 38.9253 31.6373 38.9275 31.6322 38.9255C31.6324 38.9255 31.6195 38.9093 31.6397 38.8448C31.6816 38.7109 31.798 38.6575 31.8636 38.6375C31.8642 38.6372 31.8649 38.637 31.8656 38.6367C31.957 38.6033 32.0261 38.6245 32.0543 38.6601C32.0741 38.6855 32.0723 38.7155 32.0492 38.7441Z" fill="black"/>
<path d="M30.0491 39.113C30.0447 39.1469 30.0754 39.1762 30.1101 39.1823C30.1447 39.1887 30.1846 39.1724 30.1927 39.139C30.2259 39.0026 30.3243 38.8691 30.4414 38.7852C30.2784 38.6978 30.0985 38.7116 30.0491 39.113Z" fill="#FF8B13"/>
<path fill-rule="evenodd" clip-rule="evenodd" d="M30.0933 39.2468C30.1375 39.2468 30.1844 39.2226 30.1957 39.1762C30.2252 39.0544 30.3139 38.9282 30.4269 38.8473C30.4367 38.8404 30.4421 38.829 30.4413 38.8171C30.4406 38.8054 30.4337 38.7948 30.423 38.7892C30.3244 38.7361 30.2379 38.7274 30.1659 38.7631C30.07 38.8109 30.0087 38.9371 29.9838 39.1384C29.9778 39.1881 30.0169 39.2349 30.0729 39.2449C30.0795 39.2463 30.0865 39.2468 30.0933 39.2468ZM30.3392 38.8271C30.2351 38.9167 30.1554 39.04 30.1262 39.1603C30.1231 39.1732 30.1021 39.1798 30.086 39.1769C30.0698 39.1739 30.0531 39.1605 30.0548 39.1467C30.0762 38.9722 30.126 38.8608 30.1984 38.8249C30.2369 38.8056 30.2842 38.8066 30.3392 38.8271Z" fill="black"/>
<path opacity="0.3" d="M32.9786 39.8515C33.0024 39.9773 32.9546 40.1055 32.851 40.1942C33.0339 40.1537 33.1511 39.9953 33.12 39.8304C33.089 39.6654 32.9202 39.5494 32.7323 39.5638C32.8627 39.6178 32.9548 39.7254 32.9786 39.8515Z" fill="black"/>
<path opacity="0.3" d="M30.245 39.1837C30.3121 39.0639 30.4134 38.9551 30.549 38.8572C30.6008 38.7267 30.5661 38.7066 30.4445 38.7972C30.366 38.8388 30.2994 38.9676 30.245 39.1837Z" fill="black"/>
<path opacity="0.3" d="M32.1045 38.5828C32.0589 38.543 31.9881 38.5416 31.9408 38.5795C31.9747 38.5651 32.0149 38.5762 32.0346 38.6055C32.054 38.635 32.0529 38.683 32.0179 38.6945C31.8733 38.7426 31.7369 38.8108 31.6189 38.9305C31.6846 38.9367 31.8506 38.871 32.1168 38.7335C32.1554 38.6879 32.1501 38.6226 32.1045 38.5828Z" fill="black"/>
<path opacity="0.3" d="M30.3373 38.8048C30.1683 38.9307 30.0949 39.057 30.117 39.1837C30.1881 39.0613 30.2739 38.949 30.3744 38.8469C30.3779 38.8468 30.3656 38.8328 30.3373 38.8048Z" fill="black"/>
<path opacity="0.3" d="M30.048 40.6607C30.2468 40.9823 30.673 41.2048 31.1664 41.2048C31.8501 41.2048 32.4043 40.778 32.4043 40.2517C32.4043 40.0122 32.2896 39.7932 32.0999 39.6259C32.1767 39.7497 32.2196 39.8885 32.2196 40.0349C32.2196 40.5612 31.6652 40.9879 30.9815 40.9879C30.8787 40.9879 30.7789 40.9783 30.6835 40.96C30.7148 40.9482 30.7468 40.9348 30.7791 40.919C30.6502 40.921 30.5181 40.9025 30.3829 40.8635C30.3841 40.866 30.3855 40.8683 30.3865 40.8706C30.2581 40.8165 30.1434 40.7453 30.048 40.6607Z" fill="black"/>
<path fill-rule="evenodd" clip-rule="evenodd" d="M31.1944 41.268C31.8981 41.268 32.4707 40.8288 32.4707 40.2891C32.4707 39.7494 31.8981 39.3102 31.1944 39.3102C30.4906 39.3102 29.918 39.7494 29.918 40.2891C29.918 40.8288 30.4906 41.268 31.1944 41.268ZM31.1944 39.3573C31.8711 39.3573 32.4216 39.7754 32.4216 40.2891C32.4216 40.8028 31.8711 41.2207 31.1944 41.2207C30.5177 41.2207 29.9672 40.8028 29.9672 40.2891C29.9672 39.7754 30.5177 39.3573 31.1944 39.3573Z" fill="black"/>
<path d="M31.3993 39.8784C31.3279 39.8811 31.2804 39.9683 31.2929 40.0729C31.3053 40.1776 31.3732 40.2601 31.4444 40.2572C31.5155 40.2544 31.5633 40.1672 31.5507 40.0626C31.5382 39.9579 31.4704 39.8754 31.3993 39.8784Z" fill="black"/>
<path d="M31.3797 39.9459C31.3525 39.9585 31.3497 39.9952 31.3736 40.0277C31.3974 40.0601 31.4387 40.0763 31.4659 40.0634C31.4931 40.0508 31.4959 40.0141 31.4721 39.9816C31.4482 39.9492 31.4069 39.9332 31.3797 39.9459Z" fill="white"/>
<path d="M31.3626 40.1359C31.352 40.1454 31.3554 40.165 31.3701 40.1796C31.3848 40.1942 31.4052 40.1986 31.4158 40.1891C31.4263 40.1796 31.4229 40.1601 31.4081 40.1454C31.3934 40.1308 31.373 40.1266 31.3626 40.1359Z" fill="white"/>
<path d="M30.5985 40.0279C30.5272 40.0306 30.4796 40.1179 30.4921 40.2224C30.5045 40.3272 30.5724 40.4096 30.6436 40.4067C30.7148 40.404 30.7625 40.3167 30.7499 40.2122C30.7374 40.1074 30.6697 40.025 30.5985 40.0279Z" fill="black"/>
<path d="M30.579 40.0954C30.5518 40.1081 30.5489 40.1447 30.5728 40.1772C30.5967 40.2097 30.6379 40.2258 30.6651 40.213C30.6923 40.2003 30.6951 40.1636 30.6713 40.1312C30.6474 40.0987 30.6061 40.0827 30.579 40.0954Z" fill="white"/>
<path d="M30.5618 40.2855C30.5512 40.295 30.5546 40.3145 30.5693 40.3291C30.584 40.3438 30.6044 40.3481 30.6151 40.3386C30.6255 40.3291 30.6221 40.3096 30.6074 40.295C30.5926 40.2804 30.5723 40.2762 30.5618 40.2855Z" fill="white"/>
<path opacity="0.2" d="M32.1426 40.0392C32.1422 39.9676 32.1343 39.8955 32.1183 39.8232C32.1032 39.7553 32.0817 39.6905 32.0544 39.6291C31.8289 39.4331 31.5051 39.3102 31.1456 39.3102C30.5034 39.3102 29.9759 39.7021 29.9172 40.2027C29.9211 40.24 29.9273 40.2774 29.9356 40.3149C29.936 40.3169 29.9365 40.3187 29.9369 40.3207C30.0196 39.8403 30.5352 39.4702 31.1592 39.4702C31.5188 39.4702 31.8425 39.5931 32.068 39.7891C32.0953 39.8505 32.1169 39.9152 32.1319 39.9832C32.1361 40.0019 32.1394 40.0204 32.1426 40.0392Z" fill="black"/>
<path opacity="0.2" d="M29.9851 40.6996C29.9837 40.7017 29.9824 40.7038 29.9814 40.7059C30.0019 40.7252 30.0237 40.7442 30.0469 40.7627C30.0251 40.7422 30.0042 40.7211 29.9851 40.6996Z" fill="black"/>
<path opacity="0.2" d="M32.3355 40.51C32.3428 40.4706 32.341 40.4311 32.3291 40.3926C32.3055 40.3162 32.2445 40.2496 32.1544 40.1942C32.1549 40.2382 32.1514 40.2819 32.1435 40.325C32.2367 40.3763 32.303 40.4385 32.3355 40.51Z" fill="black"/>
<path fill-rule="evenodd" clip-rule="evenodd" d="M31.095 38.2339C31.1571 38.3471 31.1676 38.4711 31.1584 38.5523L31.0529 38.541C31.0603 38.4761 31.0514 38.3737 31.0013 38.2821C30.9524 38.1931 30.8634 38.112 30.7031 38.0852L30.7211 37.9839C30.9156 38.0163 31.0316 38.1183 31.095 38.2339Z" fill="black"/>
<path d="M30.8985 38.0468C30.8985 38.1166 30.8399 38.1732 30.7676 38.1732C30.6953 38.1732 30.6367 38.1166 30.6367 38.0468C30.6367 37.9771 30.6953 37.9205 30.7676 37.9205C30.8399 37.9205 30.8985 37.9771 30.8985 38.0468Z" fill="black"/>
<path fill-rule="evenodd" clip-rule="evenodd" d="M31.3398 38.0436C31.3399 38.0435 31.3398 38.044 31.3394 38.045C31.3396 38.0441 31.3398 38.0436 31.3398 38.0436ZM31.3022 38.0965C31.2957 38.0978 31.2889 38.0994 31.2815 38.1012C31.2071 38.1198 31.1073 38.1602 31.0017 38.2194C30.8961 38.2787 30.8104 38.3424 30.7569 38.3956C30.7516 38.4008 30.7468 38.4058 30.7424 38.4106C30.7488 38.4093 30.7557 38.4077 30.763 38.4059C30.8374 38.3873 30.9372 38.3469 31.0428 38.2876C31.1484 38.2284 31.2342 38.1646 31.2877 38.1114C31.293 38.1062 31.2978 38.1012 31.3022 38.0965ZM30.6761 38.416C30.6762 38.416 30.6767 38.416 30.6776 38.4163C30.6765 38.4162 30.6761 38.416 30.6761 38.416ZM30.7047 38.4635C30.7047 38.4635 30.7048 38.4631 30.7052 38.4621C30.705 38.463 30.7048 38.4635 30.7047 38.4635ZM31.367 38.0907C31.368 38.0909 31.3685 38.091 31.3685 38.0911C31.3684 38.0911 31.3679 38.091 31.367 38.0907ZM31.0876 38.3618C31.3087 38.2378 31.4587 38.0887 31.4227 38.0289C31.3866 37.969 31.1781 38.0211 30.957 38.1452C30.7359 38.2693 30.5859 38.4184 30.6219 38.4782C30.658 38.538 30.8664 38.4859 31.0876 38.3618Z" fill="black"/>
</g>
<defs>
<linearGradient id="paint0_linear_27319_60673" x1="23.9643" y1="30.7897" x2="28.4391" y2="47.6404" gradientUnits="userSpaceOnUse">
<stop stop-color="#B59DF5"/>
<stop offset="1" stop-color="#6841D1"/>
</linearGradient>
<clipPath id="clip0_27319_60673">
<rect width="48" height="48" rx="24" fill="white"/>
</clipPath>
</defs>
</svg>
